# 3ds Max Wavefront OBJ Exporter v0.97b - (c)2007 guruware
# File Created: 04.01.2016 13:44:32

mtllib Y653_305B_L.mtl

#
# object Y653_305B_L_DTaSI_Y653_305B_L
#

v  -132.4652 95.9887 -75.7740
v  -134.1042 88.8879 -78.7582
v  -133.1281 95.9802 -75.7849
v  -134.7782 88.8869 -78.7648
v  -129.8117 96.0226 -75.7304
v  -131.4068 88.8918 -78.7316
v  -135.9875 80.6848 -82.1870
v  -133.2390 80.6577 -82.1787
v  -136.6742 80.6916 -82.1891
v  -140.0916 65.0008 -88.5756
v  -140.0911 65.4698 -88.3868
v  -139.4998 64.9142 -88.6088
v  -139.3953 65.4417 -88.3960
v  -138.8822 67.7686 -87.4573
v  -139.5887 67.7869 -87.4525
v  -136.0548 67.6956 -87.4763
v  -136.5567 65.3590 -88.4204
v  -136.6721 64.8218 -88.6375
v  -92.8766 80.4931 -82.1358
v  -92.5022 88.9905 -78.5939
v  -81.8265 80.4918 -82.1414
v  -81.8340 89.0421 -78.6015
v  -113.1300 80.5340 -82.1430
v  -111.9137 88.9319 -78.6183
v  -103.0033 80.5136 -82.1394
v  -102.2079 88.9612 -78.6061
v  -101.5080 96.2224 -75.5516
v  -110.8500 96.1840 -75.5579
v  -81.8275 96.3125 -75.5717
v  -92.1660 96.2608 -75.5454
v  -104.1963 66.9240 -87.6905
v  -104.4066 64.4503 -88.6901
v  -114.9839 67.1763 -87.6172
v  -115.3131 64.7569 -88.5978
v  -81.7416 63.8142 -88.8912
v  -93.5000 64.1437 -88.7824
v  -81.7584 66.4049 -87.8509
v  -93.4087 66.6718 -87.7637
v  -81.7377 63.2186 -89.1304
v  -93.5210 63.5625 -89.0166
v  -115.3888 64.2007 -88.8232
v  -104.4549 63.8816 -88.9199
v  -48.2160 89.3100 -78.6850
v  -37.0321 89.4328 -78.7319
v  -47.6408 80.5527 -82.1949
v  -36.4949 80.5941 -82.2244
v  -48.6973 96.5980 -75.7349
v  -37.4790 96.7334 -75.8141
v  -35.9495 89.4456 -78.7370
v  -36.3873 96.7476 -75.8225
v  -35.4225 80.5987 -82.2275
v  -46.6782 65.6024 -88.1657
v  -35.5906 65.3562 -88.2812
v  -46.5001 62.8131 -89.2787
v  -35.4259 62.5046 -89.4183
v  -34.3875 62.4858 -89.4280
v  -34.5343 65.3330 -88.2927
v  -35.4024 61.8590 -89.6757
v  -34.4760 61.9166 -89.6547
v  -46.4591 62.1718 -89.5345
v  -49.0017 101.2550 -73.8006
v  -37.7586 101.3539 -73.8847
v  -49.1608 103.7310 -72.7378
v  -37.9027 103.7821 -72.8107
v  -36.6609 101.3643 -73.8934
v  -36.8016 103.7873 -72.8181
v  -110.1662 100.9104 -73.5890
v  -101.0578 100.9553 -73.5852
v  -81.8206 103.6041 -72.5697
v  -81.8226 101.0418 -73.6160
v  -91.8354 103.5714 -72.5353
v  -91.9494 101.0003 -73.5814
v  -130.8653 103.0614 -72.8610
v  -131.4166 100.5918 -73.8647
v  -131.5181 103.0428 -72.8772
v  -132.0727 100.5773 -73.8789
v  -128.2527 103.1361 -72.7960
v  -128.7903 100.6501 -73.8081
v  -70.1081 66.1381 -87.9381
v  -57.9917 65.8563 -88.0516
v  -69.9831 63.4847 -89.0001
v  -57.8188 63.1324 -89.1395
v  -57.7790 62.5062 -89.3897
v  -69.9544 62.8747 -89.2443
v  -71.1658 89.0937 -78.6091
v  -59.4836 89.1941 -78.6422
v  -70.7765 80.4905 -82.1470
v  -58.9258 80.5158 -82.1679
v  -70.3937 72.2209 -85.4976
v  -58.3879 72.0913 -85.5577
v  -71.4890 96.3642 -75.5980
v  -59.9514 96.4712 -75.6607
v  -71.6957 101.0833 -73.6505
v  -60.2493 101.1622 -73.7208
v  -71.8059 103.6369 -72.6041
v  -60.4067 103.6820 -72.6679
v  -130.5073 104.6170 -72.2333
v  -130.6161 104.1761 -72.4113
v  -131.0853 104.4992 -72.2885
v  -131.2588 104.1440 -72.4330
v  -127.9134 104.7167 -72.1574
v  -128.0112 104.2611 -72.3414
v  -81.8199 104.7672 -72.0970
v  -91.7842 104.7390 -72.0633
v  -100.6697 105.1541 -71.8783
v  -100.7130 104.6829 -72.0691
v  -109.5760 105.0965 -71.8844
v  -109.6419 104.6269 -72.0749
v  -81.8195 105.2382 -71.9055
v  -91.7634 105.2118 -71.8722
v  -49.2320 104.8472 -72.2530
v  -60.4774 104.8221 -72.1896
v  -71.8555 104.7954 -72.1306
v  -71.8757 105.2646 -71.9389
v  -60.5060 105.2838 -71.9959
v  -49.2609 105.2992 -72.0566
v  -36.8816 104.8606 -72.3314
v  -37.9699 104.8698 -72.3195
v  -38.0104 105.2996 -72.1254
v  -37.0287 105.2037 -72.1750
v  -138.3847 73.1604 -85.2783
v  -137.6865 73.1468 -85.2802
v  -134.8917 73.0926 -85.2880
v  -103.7074 72.6211 -85.3809
v  -114.2201 72.7566 -85.3481
v  -47.0864 71.9797 -85.6204
v  -35.9747 71.8736 -85.6848
v  -34.9117 71.8638 -85.6913
v  -121.4704 104.9011 -72.0107
v  -121.5603 104.4386 -72.1982
v  -121.7823 103.2965 -72.6611
v  -109.8045 103.4670 -72.5450
v  -123.2121 96.0969 -75.6393
v  -122.2762 100.7755 -73.6904
v  -126.3444 80.5990 -82.1610
v  -124.6707 88.9031 -78.6751
v  -128.9144 67.5142 -87.5242
v  -127.8531 72.9641 -85.3079
v  -129.4775 64.6118 -88.7004
v  -129.3722 65.1543 -88.4806
v  -100.8200 103.5192 -72.5401
v  -81.7942 72.3533 -85.4557
v  -93.1947 72.4857 -85.4138
# 143 vertices

vn 0.0102 0.3833 -0.9235
vn 0.0085 0.3849 -0.9229
vn 0.0096 0.3840 -0.9233
vn 0.0078 0.3846 -0.9230
vn 0.0093 0.3841 -0.9233
vn 0.0079 0.3856 -0.9226
vn 0.0066 0.3814 -0.9244
vn 0.0062 0.3821 -0.9241
vn 0.0059 0.3804 -0.9248
vn 0.0027 0.3734 -0.9277
vn 0.0029 0.3735 -0.9276
vn 0.0028 0.3736 -0.9276
vn 0.0030 0.3736 -0.9276
vn 0.0035 0.3741 -0.9274
vn 0.0033 0.3738 -0.9275
vn 0.0035 0.3746 -0.9272
vn 0.0030 0.3741 -0.9274
vn 0.0028 0.3739 -0.9274
vn 0.0004 0.3817 -0.9243
vn -0.0011 0.3855 -0.9227
vn -0.0011 0.3807 -0.9247
vn -0.0031 0.3839 -0.9233
vn 0.0023 0.3835 -0.9235
vn 0.0018 0.3875 -0.9219
vn 0.0011 0.3828 -0.9238
vn 0.0000 0.3868 -0.9222
vn -0.0009 0.3857 -0.9226
vn 0.0014 0.3863 -0.9224
vn -0.0043 0.3847 -0.9230
vn -0.0024 0.3846 -0.9231
vn 0.0024 0.3750 -0.9270
vn 0.0027 0.3745 -0.9272
vn 0.0028 0.3757 -0.9268
vn 0.0028 0.3751 -0.9270
vn 0.0018 0.3727 -0.9280
vn 0.0022 0.3736 -0.9276
vn 0.0017 0.3730 -0.9278
vn 0.0018 0.3743 -0.9273
vn 0.0019 0.3724 -0.9281
vn 0.0023 0.3736 -0.9276
vn 0.0028 0.3752 -0.9270
vn 0.0027 0.3747 -0.9271
vn -0.0075 0.3732 -0.9277
vn -0.0082 0.3695 -0.9292
vn -0.0040 0.3709 -0.9287
vn -0.0045 0.3682 -0.9297
vn -0.0101 0.3798 -0.9250
vn -0.0109 0.3784 -0.9256
vn -0.0072 0.3680 -0.9298
vn -0.0109 0.3752 -0.9269
vn -0.0036 0.3680 -0.9298
vn -0.0013 0.3705 -0.9288
vn -0.0018 0.3702 -0.9290
vn -0.0012 0.3706 -0.9288
vn -0.0017 0.3703 -0.9289
vn -0.0020 0.3703 -0.9289
vn -0.0020 0.3702 -0.9290
vn -0.0017 0.3702 -0.9289
vn -0.0012 0.3704 -0.9289
vn -0.0097 0.3899 -0.9208
vn -0.0103 0.3943 -0.9189
vn -0.0077 0.3967 -0.9179
vn -0.0081 0.4062 -0.9138
vn -0.0114 0.3916 -0.9201
vn -0.0091 0.4072 -0.9133
vn 0.0011 0.3810 -0.9246
vn -0.0014 0.3806 -0.9247
vn -0.0043 0.3770 -0.9262
vn -0.0046 0.3794 -0.9252
vn -0.0031 0.3762 -0.9265
vn -0.0031 0.3799 -0.9250
vn 0.0123 0.3730 -0.9277
vn 0.0115 0.3776 -0.9259
vn 0.0122 0.3733 -0.9276
vn 0.0112 0.3786 -0.9255
vn 0.0112 0.3738 -0.9274
vn 0.0105 0.3784 -0.9256
vn 0.0011 0.3720 -0.9282
vn -0.0006 0.3711 -0.9286
vn 0.0010 0.3717 -0.9284
vn -0.0004 0.3710 -0.9286
vn -0.0006 0.3708 -0.9287
vn 0.0007 0.3714 -0.9285
vn -0.0043 0.3811 -0.9245
vn -0.0052 0.3774 -0.9260
vn -0.0018 0.3775 -0.9260
vn -0.0033 0.3743 -0.9273
vn -0.0007 0.3747 -0.9271
vn -0.0013 0.3721 -0.9282
vn -0.0061 0.3823 -0.9240
vn -0.0089 0.3810 -0.9245
vn -0.0079 0.3774 -0.9260
vn -0.0062 0.3813 -0.9244
vn -0.0087 0.3848 -0.9230
vn -0.0054 0.3798 -0.9251
vn -0.0071 0.3867 -0.9222
vn 0.0128 0.3718 -0.9282
vn 0.0127 0.3717 -0.9283
vn 0.0128 0.3715 -0.9283
vn 0.0127 0.3716 -0.9283
vn 0.0112 0.3729 -0.9278
vn 0.0115 0.3726 -0.9279
vn -0.0042 0.3765 -0.9264
vn -0.0030 0.3753 -0.9269
vn -0.0018 0.3752 -0.9269
vn -0.0018 0.3756 -0.9268
vn 0.0000 0.3756 -0.9268
vn 0.0010 0.3755 -0.9268
vn -0.0041 0.3765 -0.9264
vn -0.0034 0.3754 -0.9268
vn -0.0063 0.3983 -0.9172
vn -0.0059 0.3870 -0.9220
vn -0.0049 0.3793 -0.9253
vn -0.0045 0.3776 -0.9260
vn -0.0055 0.3837 -0.9234
vn -0.0057 0.3942 -0.9190
vn -0.0070 0.4121 -0.9111
vn -0.0065 0.4092 -0.9124
vn -0.0059 0.4068 -0.9135
vn -0.0061 0.4118 -0.9112
vn 0.0043 0.3758 -0.9267
vn 0.0048 0.3766 -0.9264
vn 0.0047 0.3772 -0.9261
vn 0.0019 0.3777 -0.9259
vn 0.0026 0.3784 -0.9257
vn 0.0006 0.3728 -0.9279
vn 0.0003 0.3720 -0.9282
vn -0.0019 0.3705 -0.9288
vn -0.0023 0.3694 -0.9293
vn -0.0022 0.3695 -0.9292
vn 0.0059 0.3747 -0.9271
vn 0.0070 0.3743 -0.9273
vn 0.0069 0.3755 -0.9268
vn 0.0010 0.3766 -0.9264
vn 0.0060 0.3855 -0.9227
vn 0.0065 0.3800 -0.9250
vn 0.0046 0.3831 -0.9237
vn 0.0054 0.3869 -0.9221
vn 0.0033 0.3755 -0.9268
vn 0.0039 0.3781 -0.9258
vn 0.0029 0.3747 -0.9271
vn 0.0030 0.3749 -0.9270
vn -0.0045 0.3821 -0.9241
vn -0.0016 0.3774 -0.9261
vn 0.0003 0.3772 -0.9261
vn 0.0014 0.3774 -0.9261
vn 0.0014 0.3732 -0.9278
vn 0.0012 0.3739 -0.9275
vn -0.0017 0.3755 -0.9268
vn -0.0017 0.3752 -0.9270
# 150 vertex normals

vt 0.7318 0.9606 0.0000
vt 0.7377 0.9354 0.0000
vt 0.7342 0.9606 0.0000
vt 0.7400 0.9354 0.0000
vt 0.7224 0.9607 0.0000
vt 0.7281 0.9354 0.0000
vt 0.7443 0.9063 0.0000
vt 0.7346 0.9062 0.0000
vt 0.7468 0.9063 0.0000
vt 0.7589 0.8506 0.0000
vt 0.7589 0.8522 0.0000
vt 0.7568 0.8502 0.0000
vt 0.7564 0.8521 0.0000
vt 0.7546 0.8604 0.0000
vt 0.7571 0.8604 0.0000
vt 0.7446 0.8601 0.0000
vt 0.7464 0.8518 0.0000
vt 0.7468 0.8499 0.0000
vt 0.5912 0.9056 0.0000
vt 0.5899 0.9358 0.0000
vt 0.5520 0.9056 0.0000
vt 0.5520 0.9359 0.0000
vt 0.6632 0.9057 0.0000
vt 0.6588 0.9356 0.0000
vt 0.6272 0.9057 0.0000
vt 0.6244 0.9357 0.0000
vt 0.6219 0.9615 0.0000
vt 0.6551 0.9613 0.0000
vt 0.5520 0.9618 0.0000
vt 0.5887 0.9616 0.0000
vt 0.6314 0.8574 0.0000
vt 0.6322 0.8486 0.0000
vt 0.6697 0.8583 0.0000
vt 0.6709 0.8497 0.0000
vt 0.5517 0.8463 0.0000
vt 0.5934 0.8475 0.0000
vt 0.5517 0.8555 0.0000
vt 0.5931 0.8565 0.0000
vt 0.5516 0.8442 0.0000
vt 0.5935 0.8454 0.0000
vt 0.6712 0.8477 0.0000
vt 0.6323 0.8466 0.0000
vt 0.4326 0.9369 0.0000
vt 0.3929 0.9373 0.0000
vt 0.4305 0.9058 0.0000
vt 0.3909 0.9059 0.0000
vt 0.4343 0.9628 0.0000
vt 0.3944 0.9633 0.0000
vt 0.3890 0.9374 0.0000
vt 0.3906 0.9633 0.0000
vt 0.3871 0.9060 0.0000
vt 0.4271 0.8527 0.0000
vt 0.3877 0.8518 0.0000
vt 0.4265 0.8428 0.0000
vt 0.3871 0.8417 0.0000
vt 0.3823 0.8486 0.0000
vt 0.3828 0.8587 0.0000
vt 0.3871 0.8394 0.0000
vt 0.3826 0.8466 0.0000
vt 0.4263 0.8405 0.0000
vt 0.4354 0.9793 0.0000
vt 0.3954 0.9797 0.0000
vt 0.4359 0.9881 0.0000
vt 0.3959 0.9883 0.0000
vt 0.3915 0.9797 0.0000
vt 0.3920 0.9883 0.0000
vt 0.6526 0.9781 0.0000
vt 0.6203 0.9783 0.0000
vt 0.5519 0.9877 0.0000
vt 0.5519 0.9786 0.0000
vt 0.5875 0.9876 0.0000
vt 0.5879 0.9784 0.0000
vt 0.7261 0.9857 0.0000
vt 0.7281 0.9770 0.0000
vt 0.7285 0.9857 0.0000
vt 0.7304 0.9769 0.0000
vt 0.7169 0.9860 0.0000
vt 0.7188 0.9772 0.0000
vt 0.5103 0.8546 0.0000
vt 0.4673 0.8536 0.0000
vt 0.5099 0.8452 0.0000
vt 0.4667 0.8439 0.0000
vt 0.4665 0.8417 0.0000
vt 0.5098 0.8430 0.0000
vt 0.5141 0.9361 0.0000
vt 0.4726 0.9365 0.0000
vt 0.5127 0.9056 0.0000
vt 0.4706 0.9057 0.0000
vt 0.5114 0.8762 0.0000
vt 0.4687 0.8757 0.0000
vt 0.5152 0.9620 0.0000
vt 0.4743 0.9623 0.0000
vt 0.5160 0.9787 0.0000
vt 0.4753 0.9790 0.0000
vt 0.5164 0.9878 0.0000
vt 0.4759 0.9879 0.0000
vt 0.7249 0.9913 0.0000
vt 0.7253 0.9897 0.0000
vt 0.7269 0.9909 0.0000
vt 0.7275 0.9896 0.0000
vt 0.7157 0.9916 0.0000
vt 0.7160 0.9900 0.0000
vt 0.5519 0.9918 0.0000
vt 0.5873 0.9917 0.0000
vt 0.6189 0.9932 0.0000
vt 0.6190 0.9915 0.0000
vt 0.6505 0.9930 0.0000
vt 0.6508 0.9913 0.0000
vt 0.5519 0.9935 0.0000
vt 0.5873 0.9934 0.0000
vt 0.4362 0.9921 0.0000
vt 0.4761 0.9920 0.0000
vt 0.5165 0.9919 0.0000
vt 0.5166 0.9936 0.0000
vt 0.4762 0.9936 0.0000
vt 0.4363 0.9937 0.0000
vt 0.3923 0.9921 0.0000
vt 0.3962 0.9922 0.0000
vt 0.3963 0.9937 0.0000
vt 0.3928 0.9934 0.0000
vt 0.7529 0.8795 0.0000
vt 0.7504 0.8795 0.0000
vt 0.7405 0.8793 0.0000
vt 0.6297 0.8776 0.0000
vt 0.6670 0.8781 0.0000
vt 0.4286 0.8753 0.0000
vt 0.3891 0.8750 0.0000
vt 0.3842 0.8819 0.0000
vt 0.6928 0.9923 0.0000
vt 0.6931 0.9906 0.0000
vt 0.6939 0.9866 0.0000
vt 0.6513 0.9872 0.0000
vt 0.6990 0.9610 0.0000
vt 0.6956 0.9776 0.0000
vt 0.7101 0.9060 0.0000
vt 0.7041 0.9355 0.0000
vt 0.7192 0.8595 0.0000
vt 0.7154 0.8788 0.0000
vt 0.7212 0.8492 0.0000
vt 0.7208 0.8511 0.0000
vt 0.6194 0.9874 0.0000
vt 0.5518 0.8767 0.0000
vt 0.5923 0.8771 0.0000
# 143 texture coords

g Y653_305B_L_DTaSI_Y653_305B_L
usemtl windowglass_1SG
s 1
f 1/1/1 2/2/2 3/3/3 
f 3/3/3 2/2/2 4/4/4 
f 5/5/5 6/6/6 1/1/1 
f 1/1/1 6/6/6 2/2/2 
f 7/7/7 2/2/2 8/8/8 
f 8/8/8 2/2/2 6/6/6 
f 9/9/9 4/4/4 7/7/7 
f 7/7/7 4/4/4 2/2/2 
f 10/10/10 11/11/11 12/12/12 
f 12/12/12 11/11/11 13/13/13 
f 14/14/14 13/13/13 15/15/15 
f 15/15/15 13/13/13 11/11/11 
f 16/16/16 17/17/17 14/14/14 
f 14/14/14 17/17/17 13/13/13 
f 12/12/12 13/13/13 18/18/18 
f 18/18/18 13/13/13 17/17/17 
f 19/19/19 20/20/20 21/21/21 
f 21/21/21 20/20/20 22/22/22 
f 23/23/23 24/24/24 25/25/25 
f 25/25/25 24/24/24 26/26/26 
f 27/27/27 26/26/26 28/28/28 
f 28/28/28 26/26/26 24/24/24 
f 29/29/29 22/22/22 30/30/30 
f 30/30/30 22/22/22 20/20/20 
f 31/31/31 32/32/32 33/33/33 
f 33/33/33 32/32/32 34/34/34 
f 35/35/35 36/36/36 37/37/37 
f 37/37/37 36/36/36 38/38/38 
f 39/39/39 40/40/40 35/35/35 
f 35/35/35 40/40/40 36/36/36 
f 41/41/41 34/34/34 42/42/42 
f 42/42/42 34/34/34 32/32/32 
f 43/43/43 44/44/44 45/45/45 
f 45/45/45 44/44/44 46/46/46 
f 47/47/47 48/48/48 43/43/43 
f 43/43/43 48/48/48 44/44/44 
f 49/49/49 44/44/44 50/50/50 
f 50/50/50 44/44/44 48/48/48 
f 51/51/51 46/46/46 49/49/49 
f 49/49/49 46/46/46 44/44/44 
f 52/52/52 53/53/53 54/54/54 
f 54/54/54 53/53/53 55/55/55 
f 56/56/56 55/55/55 57/57/57 
f 57/57/57 55/55/55 53/53/53 
f 58/58/58 55/55/55 59/59/56 
f 59/59/56 55/55/55 56/56/56 
f 54/54/54 55/55/55 60/60/59 
f 60/60/59 55/55/55 58/58/58 
f 61/61/60 62/62/61 47/47/47 
f 47/47/47 62/62/61 48/48/48 
f 63/63/62 64/64/63 61/61/60 
f 61/61/60 64/64/63 62/62/61 
f 65/65/64 62/62/61 66/66/65 
f 66/66/65 62/62/61 64/64/63 
f 50/50/50 48/48/48 65/65/64 
f 65/65/64 48/48/48 62/62/61 
f 28/28/28 67/67/66 27/27/27 
f 27/27/27 67/67/66 68/68/67 
f 69/69/68 70/70/69 71/71/70 
f 71/71/70 70/70/69 72/72/71 
f 73/73/72 74/74/73 75/75/74 
f 75/75/74 74/74/73 76/76/75 
f 77/77/76 78/78/77 73/73/72 
f 73/73/72 78/78/77 74/74/73 
f 1/1/1 74/74/73 5/5/5 
f 5/5/5 74/74/73 78/78/77 
f 3/3/3 76/76/75 1/1/1 
f 1/1/1 76/76/75 74/74/73 
f 79/79/78 80/80/79 81/81/80 
f 81/81/80 80/80/79 82/82/81 
f 54/54/54 82/82/81 52/52/52 
f 52/52/52 82/82/81 80/80/79 
f 60/60/59 83/83/82 54/54/54 
f 54/54/54 83/83/82 82/82/81 
f 81/81/80 82/82/81 84/84/83 
f 84/84/83 82/82/81 83/83/82 
f 85/85/84 86/86/85 87/87/86 
f 87/87/86 86/86/85 88/88/87 
f 87/87/86 88/88/87 89/89/88 
f 89/89/88 88/88/87 90/90/89 
f 91/91/90 92/92/91 85/85/84 
f 85/85/84 92/92/91 86/86/92 
f 43/43/43 86/86/92 47/47/47 
f 47/47/47 86/86/92 92/92/91 
f 45/45/45 88/88/87 43/43/43 
f 43/43/43 88/88/87 86/86/85 
f 93/93/93 94/94/94 91/91/90 
f 91/91/90 94/94/94 92/92/91 
f 95/95/95 96/96/96 93/93/93 
f 93/93/93 96/96/96 94/94/94 
f 61/61/60 94/94/94 63/63/62 
f 63/63/62 94/94/94 96/96/96 
f 47/47/47 92/92/91 61/61/60 
f 61/61/60 92/92/91 94/94/94 
f 97/97/97 98/98/98 99/99/99 
f 99/99/99 98/98/98 100/100/100 
f 101/101/101 102/102/102 97/97/97 
f 97/97/97 102/102/102 98/98/98 
f 73/73/72 98/98/98 77/77/76 
f 77/77/76 98/98/98 102/102/102 
f 75/75/74 100/100/100 73/73/72 
f 73/73/72 100/100/100 98/98/98 
f 103/103/103 69/69/68 104/104/104 
f 104/104/104 69/69/68 71/71/70 
f 105/105/105 106/106/106 107/107/107 
f 107/107/107 106/106/106 108/108/108 
f 109/109/109 103/103/103 110/110/110 
f 110/110/110 103/103/103 104/104/104 
f 63/63/62 96/96/96 111/111/111 
f 111/111/111 96/96/96 112/112/112 
f 113/113/113 112/112/112 95/95/95 
f 95/95/95 112/112/112 96/96/96 
f 114/114/114 115/115/115 113/113/113 
f 113/113/113 115/115/115 112/112/112 
f 111/111/111 112/112/112 116/116/116 
f 116/116/116 112/112/112 115/115/115 
f 66/66/65 64/64/63 117/117/117 
f 117/117/117 64/64/63 118/118/118 
f 111/111/111 118/118/118 63/63/62 
f 63/63/62 118/118/118 64/64/63 
f 116/116/116 119/119/119 111/111/111 
f 111/111/111 119/119/119 118/118/118 
f 117/117/117 118/118/118 120/120/120 
f 120/120/120 118/118/118 119/119/119 
f 15/15/15 121/121/121 14/14/14 
f 14/14/14 121/121/121 122/122/122 
f 7/7/7 122/122/122 9/9/9 
f 9/9/9 122/122/122 121/121/121 
f 8/8/8 123/123/123 7/7/7 
f 7/7/7 123/123/123 122/122/122 
f 14/14/14 122/122/122 16/16/16 
f 16/16/16 122/122/122 123/123/123 
f 25/25/25 124/124/124 23/23/23 
f 23/23/23 124/124/124 125/125/125 
f 33/33/33 125/125/125 31/31/31 
f 31/31/31 125/125/125 124/124/124 
f 89/89/126 90/90/89 79/79/127 
f 79/79/127 90/90/89 80/80/79 
f 126/126/128 90/90/89 45/45/45 
f 45/45/45 90/90/89 88/88/87 
f 52/52/52 80/80/79 126/126/128 
f 126/126/128 80/80/79 90/90/89 
f 45/45/45 46/46/46 126/126/128 
f 126/126/128 46/46/46 127/127/129 
f 128/128/130 127/127/129 51/51/51 
f 51/51/51 127/127/129 46/46/46 
f 57/57/57 53/53/53 128/128/130 
f 128/128/130 53/53/53 127/127/129 
f 126/126/128 127/127/129 52/52/52 
f 52/52/52 127/127/129 53/53/53 
f 129/129/131 130/130/132 101/101/101 
f 101/101/101 130/130/132 102/102/102 
f 107/107/107 108/108/108 129/129/131 
f 129/129/131 108/108/108 130/130/132 
f 131/131/133 130/130/132 132/132/134 
f 132/132/134 130/130/132 108/108/108 
f 77/77/76 102/102/102 131/131/133 
f 131/131/133 102/102/102 130/130/132 
f 5/5/5 78/78/77 133/133/135 
f 133/133/135 78/78/77 134/134/136 
f 131/131/133 134/134/136 77/77/76 
f 77/77/76 134/134/136 78/78/77 
f 132/132/134 67/67/66 131/131/133 
f 131/131/133 67/67/66 134/134/136 
f 133/133/135 134/134/136 28/28/28 
f 28/28/28 134/134/136 67/67/66 
f 8/8/8 6/6/6 135/135/137 
f 135/135/137 6/6/6 136/136/138 
f 133/133/135 136/136/138 5/5/5 
f 5/5/5 136/136/138 6/6/6 
f 28/28/28 24/24/24 133/133/135 
f 133/133/135 24/24/24 136/136/138 
f 135/135/137 136/136/138 23/23/23 
f 23/23/23 136/136/138 24/24/24 
f 16/16/16 123/123/123 137/137/139 
f 137/137/139 123/123/123 138/138/140 
f 135/135/137 138/138/140 8/8/8 
f 8/8/8 138/138/140 123/123/123 
f 23/23/23 125/125/125 135/135/137 
f 135/135/137 125/125/125 138/138/140 
f 137/137/139 138/138/140 33/33/33 
f 33/33/33 138/138/140 125/125/125 
f 18/18/18 17/17/17 139/139/141 
f 139/139/141 17/17/17 140/140/142 
f 137/137/139 140/140/142 16/16/16 
f 16/16/16 140/140/142 17/17/17 
f 33/33/33 34/34/34 137/137/139 
f 137/137/139 34/34/34 140/140/142 
f 139/139/141 140/140/142 41/41/41 
f 41/41/41 140/140/142 34/34/34 
f 30/30/30 72/72/71 29/29/143 
f 29/29/143 72/72/71 70/70/69 
f 141/141/144 68/68/67 132/132/134 
f 132/132/134 68/68/67 67/67/66 
f 21/21/21 142/142/145 19/19/19 
f 19/19/19 142/142/145 143/143/146 
f 37/37/147 38/38/38 142/142/148 
f 142/142/148 38/38/38 143/143/146 
f 132/132/134 108/108/108 141/141/149 
f 141/141/149 108/108/108 106/106/150 
f 109/109/109 114/114/114 103/103/103 
f 103/103/103 114/114/114 113/113/113 
f 95/95/95 69/69/68 113/113/113 
f 113/113/113 69/69/68 103/103/103 
f 69/69/68 95/95/95 70/70/69 
f 70/70/69 95/95/95 93/93/93 
f 91/91/90 29/29/143 93/93/93 
f 93/93/93 29/29/143 70/70/69 
f 29/29/29 91/91/90 22/22/22 
f 22/22/22 91/91/90 85/85/84 
f 87/87/86 21/21/21 85/85/84 
f 85/85/84 21/21/21 22/22/22 
f 89/89/88 142/142/145 87/87/86 
f 87/87/86 142/142/145 21/21/21 
f 79/79/127 37/37/147 89/89/126 
f 89/89/126 37/37/147 142/142/148 
f 81/81/80 35/35/35 79/79/78 
f 79/79/78 35/35/35 37/37/37 
f 84/84/83 39/39/39 81/81/80 
f 81/81/80 39/39/39 35/35/35 
f 110/110/110 104/104/104 105/105/105 
f 105/105/105 104/104/104 106/106/106 
f 141/141/149 106/106/150 71/71/70 
f 71/71/70 106/106/150 104/104/104 
f 68/68/67 141/141/144 72/72/71 
f 72/72/71 141/141/144 71/71/70 
f 27/27/27 68/68/67 30/30/30 
f 30/30/30 68/68/67 72/72/71 
f 26/26/26 27/27/27 20/20/20 
f 20/20/20 27/27/27 30/30/30 
f 25/25/25 26/26/26 19/19/19 
f 19/19/19 26/26/26 20/20/20 
f 124/124/124 25/25/25 143/143/146 
f 143/143/146 25/25/25 19/19/19 
f 31/31/31 124/124/124 38/38/38 
f 38/38/38 124/124/124 143/143/146 
f 32/32/32 31/31/31 36/36/36 
f 36/36/36 31/31/31 38/38/38 
f 42/42/42 32/32/32 40/40/40 
f 40/40/40 32/32/32 36/36/36 
# 240 faces

