# 3ds Max Wavefront OBJ Exporter v0.97b - (c)2007 guruware
# File Created: 23.11.2015 11:38:04

mtllib J220_325B_R.mtl

#
# object J220_325B_R_DTaSI_J220_325B_R
#

v  -41.5343 80.7835 105.1454
v  -41.1612 73.3335 107.1262
v  -37.1805 80.6373 105.1608
v  -36.7459 73.1528 107.1377
v  -37.7805 91.4873 101.8223
v  -42.0766 91.5603 101.8070
v  -43.1151 112.2910 93.4724
v  -42.5882 101.7372 97.8378
v  -39.0074 112.2102 93.4993
v  -38.2190 101.6718 97.8570
v  -88.6802 102.6333 97.3878
v  -88.5302 113.1717 93.0301
v  -99.5185 102.6872 97.3032
v  -99.2993 113.3794 92.8609
v  -49.9996 73.6643 107.0993
v  -50.2766 81.0719 105.0800
v  -64.0534 74.1758 107.0492
v  -64.1611 81.5143 104.9800
v  -64.7303 121.6601 89.4801
v  -64.6034 112.7063 93.2993
v  -51.7689 121.4409 89.5609
v  -51.4381 112.4525 93.4109
v  -51.0496 101.9449 97.7493
v  -64.4572 102.2526 97.6109
v  -43.5651 121.2717 89.6148
v  -50.6766 91.7988 101.7108
v  -64.3149 92.1603 101.5647
v  -76.2725 102.4795 97.4955
v  -76.1725 112.9333 93.1840
v  -76.4572 81.8873 104.8877
v  -76.3648 92.4488 101.4339
v  -76.5149 74.6066 107.0069
v  -88.9494 82.2335 104.8031
v  -88.8186 92.7103 101.3108
v  -98.6200 82.4873 104.7262
v  -99.7262 92.8719 101.2031
v  -89.0378 75.0028 106.9685
v  -98.7777 75.3143 106.9300
v  -36.3805 66.9336 108.6800
v  -40.8459 67.1413 108.6838
v  -49.7727 67.5105 108.6838
v  -63.9649 68.0797 108.6877
v  -76.5648 68.5605 108.6877
v  -89.1071 69.0028 108.6916
v  -98.9123 69.3566 108.6954
v  -39.5420 117.7871 91.1032
v  -41.4766 121.2178 89.6340
v  -40.4228 119.9832 90.1609
v  -76.0879 121.7717 89.4263
v  -88.4032 121.7063 89.3994
v  -99.1339 121.5140 89.3917
# 51 vertices

vn 0.0040 0.2774 0.9608
vn 0.0073 0.2514 0.9678
vn 0.0066 0.2692 0.9631
vn 0.0092 0.2472 0.9689
vn 0.0037 0.3180 0.9481
vn 0.0010 0.3304 0.9438
vn 0.0013 0.3900 0.9208
vn 0.0005 0.3729 0.9279
vn 0.0016 0.3865 0.9223
vn 0.0019 0.3695 0.9292
vn -0.0043 0.3762 0.9265
vn -0.0058 0.3873 0.9219
vn -0.0054 0.3758 0.9267
vn -0.0070 0.3881 0.9216
vn 0.0062 0.2571 0.9664
vn 0.0020 0.2822 0.9594
vn 0.0060 0.2655 0.9641
vn 0.0020 0.2889 0.9574
vn -0.0004 0.3920 0.9200
vn -0.0008 0.3870 0.9221
vn 0.0009 0.3933 0.9194
vn 0.0003 0.3878 0.9217
vn -0.0005 0.3730 0.9279
vn -0.0013 0.3732 0.9277
vn 0.0016 0.3944 0.9189
vn -0.0005 0.3328 0.9430
vn -0.0010 0.3360 0.9419
vn -0.0023 0.3738 0.9275
vn -0.0027 0.3873 0.9219
vn 0.0017 0.2955 0.9553
vn -0.0014 0.3391 0.9408
vn 0.0058 0.2736 0.9618
vn 0.0012 0.3018 0.9534
vn -0.0030 0.3463 0.9381
vn -0.0012 0.3103 0.9506
vn -0.0042 0.3452 0.9385
vn 0.0057 0.2815 0.9595
vn 0.0036 0.2882 0.9576
vn 0.0121 0.2413 0.9704
vn 0.0099 0.2434 0.9699
vn 0.0089 0.2479 0.9687
vn 0.0087 0.2563 0.9665
vn 0.0085 0.2651 0.9642
vn 0.0086 0.2732 0.9619
vn 0.0078 0.2800 0.9600
vn 0.0017 0.3949 0.9187
vn 0.0023 0.3947 0.9188
vn -0.0023 0.3913 0.9203
vn -0.0052 0.3915 0.9202
vn -0.0073 0.3920 0.9199
# 50 vertex normals

vt 0.4541 0.0573 0.0000
vt 0.4564 0.0337 0.0000
vt 0.4675 0.0575 0.0000
vt 0.4700 0.0338 0.0000
vt 0.4639 0.0922 0.0000
vt 0.4507 0.0918 0.0000
vt 0.4441 0.1603 0.0000
vt 0.4475 0.1253 0.0000
vt 0.4567 0.1607 0.0000
vt 0.4609 0.1258 0.0000
vt 0.3056 0.1214 0.0000
vt 0.3043 0.1564 0.0000
vt 0.2723 0.1200 0.0000
vt 0.2712 0.1555 0.0000
vt 0.4292 0.0333 0.0000
vt 0.4271 0.0568 0.0000
vt 0.3859 0.0327 0.0000
vt 0.3844 0.0561 0.0000
vt 0.3761 0.1883 0.0000
vt 0.3780 0.1584 0.0000
vt 0.4160 0.1895 0.0000
vt 0.4185 0.1596 0.0000
vt 0.4214 0.1247 0.0000
vt 0.3801 0.1237 0.0000
vt 0.4412 0.1902 0.0000
vt 0.4242 0.0913 0.0000
vt 0.3822 0.0904 0.0000
vt 0.3438 0.1227 0.0000
vt 0.3424 0.1574 0.0000
vt 0.3465 0.0554 0.0000
vt 0.3451 0.0896 0.0000
vt 0.3475 0.0321 0.0000
vt 0.3081 0.0546 0.0000
vt 0.3068 0.0886 0.0000
vt 0.2783 0.0539 0.0000
vt 0.2733 0.0875 0.0000
vt 0.3090 0.0314 0.0000
vt 0.2790 0.0309 0.0000
vt 0.4721 0.0143 0.0000
vt 0.4583 0.0142 0.0000
vt 0.4308 0.0139 0.0000
vt 0.3871 0.0134 0.0000
vt 0.3483 0.0129 0.0000
vt 0.3097 0.0123 0.0000
vt 0.2795 0.0118 0.0000
vt 0.4542 0.1792 0.0000
vt 0.4477 0.1903 0.0000
vt 0.4511 0.1864 0.0000
vt 0.3412 0.1869 0.0000
vt 0.3033 0.1849 0.0000
vt 0.2704 0.1827 0.0000
# 51 texture coords

g J220_325B_R_DTaSI_J220_325B_R
usemtl windowglass_1SG
s 1
f 1/1/1 2/2/2 3/3/3 
f 3/3/3 2/2/2 4/4/4 
f 3/3/3 5/5/5 1/1/1 
f 1/1/1 5/5/5 6/6/6 
f 7/7/7 8/8/8 9/9/9 
f 9/9/9 8/8/8 10/10/10 
f 11/11/11 12/12/12 13/13/13 
f 13/13/13 12/12/12 14/14/14 
f 15/15/15 16/16/16 17/17/17 
f 17/17/17 16/16/16 18/18/18 
f 19/19/19 20/20/20 21/21/21 
f 21/21/21 20/20/20 22/22/22 
f 23/23/23 22/22/22 24/24/24 
f 24/24/24 22/22/22 20/20/20 
f 21/21/21 22/22/22 25/25/25 
f 25/25/25 22/22/22 7/7/7 
f 26/26/26 16/16/16 6/6/6 
f 6/6/6 16/16/16 1/1/1 
f 16/16/16 15/15/15 1/1/1 
f 1/1/1 15/15/15 2/2/2 
f 16/16/16 26/26/26 18/18/18 
f 18/18/18 26/26/26 27/27/27 
f 24/24/24 20/20/20 28/28/28 
f 28/28/28 20/20/20 29/29/29 
f 18/18/18 27/27/27 30/30/30 
f 30/30/30 27/27/27 31/31/31 
f 17/17/17 18/18/18 32/32/32 
f 32/32/32 18/18/18 30/30/30 
f 33/33/33 34/34/34 35/35/35 
f 35/35/35 34/34/34 36/36/36 
f 28/28/28 29/29/29 11/11/11 
f 11/11/11 29/29/29 12/12/12 
f 30/30/30 31/31/31 33/33/33 
f 33/33/33 31/31/31 34/34/34 
f 5/5/5 10/10/10 6/6/6 
f 6/6/6 10/10/10 8/8/8 
f 23/23/23 26/26/26 8/8/8 
f 8/8/8 26/26/26 6/6/6 
f 24/24/24 27/27/27 23/23/23 
f 23/23/23 27/27/27 26/26/26 
f 27/27/27 24/24/24 31/31/31 
f 31/31/31 24/24/24 28/28/28 
f 31/31/31 28/28/28 34/34/34 
f 34/34/34 28/28/28 11/11/11 
f 11/11/11 13/13/13 34/34/34 
f 34/34/34 13/13/13 36/36/36 
f 32/32/32 30/30/30 37/37/37 
f 37/37/37 30/30/30 33/33/33 
f 35/35/35 38/38/38 33/33/33 
f 33/33/33 38/38/38 37/37/37 
f 39/39/39 4/4/4 40/40/40 
f 40/40/40 4/4/4 2/2/2 
f 15/15/15 41/41/41 2/2/2 
f 2/2/2 41/41/41 40/40/40 
f 17/17/17 42/42/42 15/15/15 
f 15/15/15 42/42/42 41/41/41 
f 42/42/42 17/17/17 43/43/43 
f 43/43/43 17/17/17 32/32/32 
f 43/43/43 32/32/32 44/44/44 
f 44/44/44 32/32/32 37/37/37 
f 38/38/38 45/45/45 37/37/37 
f 37/37/37 45/45/45 44/44/44 
f 9/9/9 46/46/46 7/7/7 
f 25/25/25 7/7/7 47/47/47 
f 47/47/47 7/7/7 48/48/47 
f 46/46/46 48/48/47 7/7/7 
f 8/8/8 7/7/7 23/23/23 
f 23/23/23 7/7/7 22/22/22 
f 20/20/20 19/19/19 29/29/29 
f 29/29/29 19/19/19 49/49/48 
f 50/50/49 51/51/50 12/12/12 
f 12/12/12 51/51/50 14/14/14 
f 49/49/48 50/50/49 29/29/29 
f 29/29/29 50/50/49 12/12/12 
# 74 faces

