# 3ds Max Wavefront OBJ Exporter v0.97b - (c)2007 guruware
# File Created: 11.12.2015 16:23:07

mtllib U805_4A_285B_R.mtl

#
# object U805_4A_285B_R_1_DTaSI_U805_4A_285B_R
#

v  51.0265 39.1418 73.4657
v  50.8965 44.6895 71.6447
v  44.2451 39.1785 73.4563
v  44.3538 44.7072 71.6429
v  44.4750 50.1927 69.7845
v  50.7778 50.2287 69.7675
v  44.6191 55.5979 67.8859
v  50.6659 55.5626 67.8930
v  51.5511 76.7040 58.9393
v  46.8581 76.7883 58.8852
v  50.7130 71.5168 61.5548
v  45.5243 71.6141 61.5204
v  45.0255 66.4190 63.7138
v  50.5287 66.4117 63.7099
v  74.0313 55.6165 67.8428
v  72.7860 61.2540 65.7398
v  68.3999 55.5980 67.8576
v  67.4720 61.2033 65.7652
v  64.5981 39.0666 73.4746
v  63.9867 44.6526 71.6409
v  57.8109 39.1045 73.4717
v  57.4408 44.6713 71.6442
v  99.1222 61.4558 65.5485
v  103.7630 55.7149 67.6769
v  103.3918 61.4060 65.4098
v  107.1151 57.9131 66.6934
v  97.2066 38.8812 73.4669
v  94.4279 44.5629 71.6077
v  90.7433 38.9190 73.4743
v  88.4745 44.5814 71.6196
v  98.8128 55.7172 67.7370
v  94.8301 61.4484 65.6129
v  79.0079 55.6387 67.8276
v  80.7809 50.3886 69.6674
v  83.9740 55.6633 67.8113
v  86.2366 50.4173 69.6479
v  73.9592 75.7689 59.5714
v  74.3686 71.0804 61.7843
v  76.6790 75.5522 59.7054
v  77.5387 71.0012 61.8230
v  86.7964 73.2195 60.8023
v  86.9076 70.8434 61.8654
v  88.2312 72.5141 61.0801
v  65.5971 76.3477 59.2122
v  65.8679 71.2360 61.6950
v  70.2543 76.1035 59.3672
v  70.6469 71.1482 61.7440
v  125.7664 34.1419 74.6962
v  123.1700 38.6656 73.1996
v  120.1641 33.3557 75.1562
v  116.6903 38.7552 73.3714
v  125.8747 33.9384 74.7635
v  125.8507 33.3183 75.1512
v  114.1588 50.3809 69.3089
v  110.6295 54.3436 67.9533
v  108.4689 50.4657 69.4790
v  120.3807 42.6417 71.8842
v  112.6611 44.4913 71.4812
v  37.1047 39.2177 73.4499
v  44.1840 33.7723 75.1502
v  37.0133 33.7806 75.1485
v  37.2985 44.7266 71.6420
v  37.5203 50.1482 69.8051
v  37.7807 55.6381 67.8777
v  38.3624 66.4278 63.7185
v  38.6830 71.7420 61.4750
v  39.6626 74.8036 60.0767
v  39.1005 73.8963 60.5231
v  38.8254 72.8785 60.9756
v  41.5581 76.2656 59.2598
v  40.4736 75.7045 59.5822
v  43.8511 76.7424 58.9306
v  42.5274 76.5767 59.0540
v  85.3451 73.8400 60.5408
v  84.0770 70.8997 61.8636
v  83.8667 74.3540 60.3161
v  94.4262 66.3478 63.6482
v  99.6667 64.7372 64.1371
v  95.7695 67.7907 62.9436
v  89.6708 70.7837 61.8398
v  91.9905 70.3820 61.9155
v  90.7567 71.1257 61.6229
v  113.3236 33.4011 75.1597
v  110.1868 38.8025 73.4341
v  106.4831 33.4461 75.1616
v  103.6875 38.8432 73.4581
v  106.5656 44.5210 71.5576
v  100.4664 44.5433 71.5904
v  44.7690 61.0179 65.8595
v  50.5627 61.0458 65.8424
v  69.3541 50.3285 69.7081
v  75.3199 50.3603 69.6875
v  102.8531 50.4730 69.5589
v  77.2642 61.2982 65.7201
v  81.7342 61.3410 65.6988
v  38.0505 61.0129 65.8685
v  62.7604 55.5830 67.8713
v  62.1507 61.1524 65.7908
v  70.2775 44.6345 71.6366
v  71.2138 39.0295 73.4761
v  76.5673 44.6162 71.6313
v  77.8325 38.9922 73.4763
v  60.9330 76.4747 59.1172
v  61.0927 71.3241 61.6473
v  63.3836 50.2961 69.7282
v  55.8973 71.4194 61.5961
v  56.2422 76.5895 59.0258
v  56.0322 66.4048 63.7092
v  56.3567 61.0991 65.8157
v  56.7132 55.5717 67.8831
v  57.0807 50.2631 69.7488
v  84.2851 38.9557 73.4758
v  82.5210 44.5989 71.6260
v  88.9305 55.6875 67.7912
v  91.6879 50.4435 69.6252
v  93.8659 55.7063 67.7699
v  97.2367 50.4659 69.5965
v  78.8245 75.2993 59.8510
v  80.9989 70.9576 61.8431
v  80.5840 75.0559 59.9842
v  86.1965 61.3815 65.6745
v  90.5378 61.4192 65.6488
v  82.2444 74.7558 60.1372
v  75.5634 66.3834 63.7234
v  71.5551 66.3876 63.7195
v  79.5682 66.3787 63.7245
v  83.5775 66.3735 63.7226
v  87.3061 66.3415 63.7282
v  90.8659 66.3484 63.7039
v  117.2742 46.5958 70.5771
v  89.5083 71.8304 61.3483
v  99.6215 33.4903 75.1623
v  92.7180 33.5343 75.1624
v  85.8146 33.5779 75.1615
v  78.9111 33.6214 75.1602
v  72.0574 33.6722 75.1561
v  65.2038 33.7139 75.1534
v  58.1973 33.7555 75.1497
v  51.3547 33.7640 75.1518
v  51.1907 33.7642 75.1518
v  66.5456 66.3931 63.7159
v  61.5367 66.3987 63.7126
# 142 vertices

vn 0.0020 0.3562 0.9344
# 1 vertex normals

vt 0.0797 0.2911 0.0000
vt 0.0792 0.3218 0.0000
vt 0.0439 0.2913 0.0000
vt 0.0446 0.3218 0.0000
vt 0.0454 0.3522 0.0000
vt 0.0786 0.3525 0.0000
vt 0.0463 0.3822 0.0000
vt 0.0782 0.3821 0.0000
vt 0.0829 0.5033 0.0000
vt 0.0584 0.5038 0.0000
vt 0.0786 0.4725 0.0000
vt 0.0513 0.4729 0.0000
vt 0.0486 0.4432 0.0000
vt 0.0776 0.4432 0.0000
vt 0.2017 0.3839 0.0000
vt 0.1952 0.4158 0.0000
vt 0.1719 0.3834 0.0000
vt 0.1671 0.4150 0.0000
vt 0.1517 0.2909 0.0000
vt 0.1484 0.3220 0.0000
vt 0.1157 0.2907 0.0000
vt 0.1137 0.3218 0.0000
vt 0.3345 0.4184 0.0000
vt 0.3587 0.3860 0.0000
vt 0.3570 0.4184 0.0000
vt 0.3763 0.3988 0.0000
vt 0.3243 0.2916 0.0000
vt 0.3095 0.3231 0.0000
vt 0.2901 0.2913 0.0000
vt 0.2780 0.3228 0.0000
vt 0.3327 0.3858 0.0000
vt 0.3119 0.4182 0.0000
vt 0.2280 0.3844 0.0000
vt 0.2373 0.3549 0.0000
vt 0.2543 0.3848 0.0000
vt 0.2662 0.3554 0.0000
vt 0.2004 0.5002 0.0000
vt 0.2033 0.4726 0.0000
vt 0.2150 0.4995 0.0000
vt 0.2202 0.4727 0.0000
vt 0.2698 0.4871 0.0000
vt 0.2704 0.4727 0.0000
vt 0.2775 0.4830 0.0000
vt 0.1562 0.5021 0.0000
vt 0.1583 0.4721 0.0000
vt 0.1807 0.5015 0.0000
vt 0.1835 0.4724 0.0000
vt 0.4749 0.2682 0.0000
vt 0.4609 0.2928 0.0000
vt 0.4456 0.2629 0.0000
vt 0.4270 0.2926 0.0000
vt 0.4755 0.2671 0.0000
vt 0.4753 0.2630 0.0000
vt 0.4132 0.3572 0.0000
vt 0.3947 0.3791 0.0000
vt 0.3834 0.3570 0.0000
vt 0.4461 0.3146 0.0000
vt 0.4055 0.3241 0.0000
vt 0.0062 0.2915 0.0000
vt 0.0436 0.2614 0.0000
vt 0.0056 0.2614 0.0000
vt 0.0075 0.3219 0.0000
vt 0.0088 0.3520 0.0000
vt 0.0103 0.3825 0.0000
vt 0.0135 0.4433 0.0000
vt 0.0152 0.4737 0.0000
vt 0.0204 0.4917 0.0000
vt 0.0174 0.4863 0.0000
vt 0.0159 0.4804 0.0000
vt 0.0305 0.5004 0.0000
vt 0.0247 0.4972 0.0000
vt 0.0426 0.5035 0.0000
vt 0.0356 0.5025 0.0000
vt 0.2619 0.4908 0.0000
vt 0.2552 0.4729 0.0000
vt 0.2539 0.4937 0.0000
vt 0.3101 0.4463 0.0000
vt 0.3376 0.4373 0.0000
vt 0.3173 0.4548 0.0000
vt 0.2852 0.4725 0.0000
vt 0.2976 0.4702 0.0000
vt 0.2911 0.4748 0.0000
vt 0.4098 0.2625 0.0000
vt 0.3928 0.2922 0.0000
vt 0.3737 0.2621 0.0000
vt 0.3586 0.2918 0.0000
vt 0.3735 0.3237 0.0000
vt 0.3414 0.3234 0.0000
vt 0.0472 0.4126 0.0000
vt 0.0777 0.4128 0.0000
vt 0.1769 0.3539 0.0000
vt 0.2084 0.3544 0.0000
vt 0.3539 0.3566 0.0000
vt 0.2189 0.4165 0.0000
vt 0.2426 0.4171 0.0000
vt 0.0118 0.4127 0.0000
vt 0.1421 0.3829 0.0000
vt 0.1389 0.4142 0.0000
vt 0.1817 0.3222 0.0000
vt 0.1867 0.2911 0.0000
vt 0.2150 0.3223 0.0000
vt 0.2217 0.2911 0.0000
vt 0.1319 0.5023 0.0000
vt 0.1331 0.4720 0.0000
vt 0.1453 0.3534 0.0000
vt 0.1058 0.4721 0.0000
vt 0.1074 0.5027 0.0000
vt 0.1066 0.4434 0.0000
vt 0.1083 0.4134 0.0000
vt 0.1101 0.3825 0.0000
vt 0.1119 0.3529 0.0000
vt 0.2559 0.2911 0.0000
vt 0.2465 0.3225 0.0000
vt 0.2805 0.3853 0.0000
vt 0.2950 0.3558 0.0000
vt 0.3066 0.3856 0.0000
vt 0.3243 0.3563 0.0000
vt 0.2265 0.4985 0.0000
vt 0.2387 0.4729 0.0000
vt 0.2361 0.4974 0.0000
vt 0.2662 0.4176 0.0000
vt 0.2892 0.4180 0.0000
vt 0.2451 0.4959 0.0000
vt 0.2099 0.4455 0.0000
vt 0.1886 0.4450 0.0000
vt 0.2311 0.4460 0.0000
vt 0.2525 0.4463 0.0000
vt 0.2723 0.4463 0.0000
vt 0.2912 0.4464 0.0000
vt 0.4296 0.3363 0.0000
vt 0.2844 0.4790 0.0000
vt 0.3374 0.2617 0.0000
vt 0.3008 0.2615 0.0000
vt 0.2642 0.2613 0.0000
vt 0.2275 0.2612 0.0000
vt 0.1913 0.2615 0.0000
vt 0.1551 0.2613 0.0000
vt 0.1178 0.2611 0.0000
vt 0.0812 0.2620 0.0000
vt 0.0808 0.2613 0.0000
vt 0.1621 0.4444 0.0000
vt 0.1356 0.4439 0.0000
# 142 texture coords

g U805_4A_285B_R_1_DTaSI_U805_4A_285B_R
usemtl windowglass_1SG
s 1
f 1/1/1 2/2/1 3/3/1 
f 3/3/1 2/2/1 4/4/1 
f 5/5/1 6/6/1 7/7/1 
f 7/7/1 6/6/1 8/8/1 
f 9/9/1 10/10/1 11/11/1 
f 11/11/1 10/10/1 12/12/1 
f 13/13/1 14/14/1 12/12/1 
f 12/12/1 14/14/1 11/11/1 
f 15/15/1 16/16/1 17/17/1 
f 17/17/1 16/16/1 18/18/1 
f 19/19/1 20/20/1 21/21/1 
f 21/21/1 20/20/1 22/22/1 
f 23/23/1 24/24/1 25/25/1 
f 25/25/1 24/24/1 26/26/1 
f 27/27/1 28/28/1 29/29/1 
f 29/29/1 28/28/1 30/30/1 
f 24/24/1 23/23/1 31/31/1 
f 31/31/1 23/23/1 32/32/1 
f 33/33/1 34/34/1 35/35/1 
f 35/35/1 34/34/1 36/36/1 
f 37/37/1 38/38/1 39/39/1 
f 39/39/1 38/38/1 40/40/1 
f 41/41/1 42/42/1 43/43/1 
f 44/44/1 45/45/1 46/46/1 
f 46/46/1 45/45/1 47/47/1 
f 48/48/1 49/49/1 50/50/1 
f 50/50/1 49/49/1 51/51/1 
f 48/48/1 50/50/1 52/52/1 
f 52/52/1 50/50/1 53/53/1 
f 54/54/1 55/55/1 56/56/1 
f 56/56/1 55/55/1 24/24/1 
f 49/49/1 57/57/1 51/51/1 
f 51/51/1 57/57/1 58/58/1 
f 3/3/1 59/59/1 60/60/1 
f 60/60/1 59/59/1 61/61/1 
f 59/59/1 3/3/1 62/62/1 
f 62/62/1 3/3/1 4/4/1 
f 63/63/1 5/5/1 64/64/1 
f 64/64/1 5/5/1 7/7/1 
f 65/65/1 13/13/1 66/66/1 
f 66/66/1 13/13/1 12/12/1 
f 67/67/1 68/68/1 12/12/1 
f 66/66/1 12/12/1 69/69/1 
f 12/12/1 70/70/1 71/71/1 
f 12/12/1 72/72/1 73/73/1 
f 42/42/1 74/74/1 75/75/1 
f 75/75/1 74/74/1 76/76/1 
f 77/77/1 78/78/1 79/79/1 
f 80/80/1 81/81/1 82/82/1 
f 83/83/1 84/84/1 85/85/1 
f 85/85/1 84/84/1 86/86/1 
f 84/84/1 87/87/1 86/86/1 
f 86/86/1 87/87/1 88/88/1 
f 7/7/1 8/8/1 89/89/1 
f 89/89/1 8/8/1 90/90/1 
f 17/17/1 91/91/1 15/15/1 
f 15/15/1 91/91/1 92/92/1 
f 56/56/1 24/24/1 93/93/1 
f 93/93/1 24/24/1 31/31/1 
f 94/94/1 33/33/1 95/95/1 
f 95/95/1 33/33/1 35/35/1 
f 64/64/1 7/7/1 96/96/1 
f 96/96/1 7/7/1 89/89/1 
f 12/12/1 10/10/1 72/72/1 
f 17/17/1 18/18/1 97/97/1 
f 97/97/1 18/18/1 98/98/1 
f 99/99/1 100/100/1 101/101/1 
f 101/101/1 100/100/1 102/102/1 
f 103/103/1 104/104/1 44/44/1 
f 44/44/1 104/104/1 45/45/1 
f 91/91/1 17/17/1 105/105/1 
f 105/105/1 17/17/1 97/97/1 
f 11/11/1 106/106/1 9/9/1 
f 9/9/1 106/106/1 107/107/1 
f 11/11/1 14/14/1 106/106/1 
f 106/106/1 14/14/1 108/108/1 
f 90/90/1 8/8/1 109/109/1 
f 109/109/1 8/8/1 110/110/1 
f 8/8/1 6/6/1 110/110/1 
f 110/110/1 6/6/1 111/111/1 
f 2/2/1 1/1/1 22/22/1 
f 22/22/1 1/1/1 21/21/1 
f 20/20/1 19/19/1 99/99/1 
f 99/99/1 19/19/1 100/100/1 
f 97/97/1 98/98/1 110/110/1 
f 110/110/1 98/98/1 109/109/1 
f 107/107/1 106/106/1 103/103/1 
f 103/103/1 106/106/1 104/104/1 
f 105/105/1 97/97/1 111/111/1 
f 111/111/1 97/97/1 110/110/1 
f 112/112/1 113/113/1 102/102/1 
f 102/102/1 113/113/1 101/101/1 
f 29/29/1 30/30/1 112/112/1 
f 112/112/1 30/30/1 113/113/1 
f 28/28/1 27/27/1 88/88/1 
f 88/88/1 27/27/1 86/86/1 
f 114/114/1 115/115/1 116/116/1 
f 116/116/1 115/115/1 117/117/1 
f 35/35/1 36/36/1 114/114/1 
f 114/114/1 36/36/1 115/115/1 
f 34/34/1 33/33/1 92/92/1 
f 92/92/1 33/33/1 15/15/1 
f 39/39/1 40/40/1 118/118/1 
f 118/118/1 40/40/1 119/119/1 
f 46/46/1 47/47/1 37/37/1 
f 37/37/1 47/47/1 38/38/1 
f 120/120/1 119/119/1 75/75/1 
f 121/121/1 114/114/1 122/122/1 
f 122/122/1 114/114/1 116/116/1 
f 95/95/1 35/35/1 121/121/1 
f 121/121/1 35/35/1 114/114/1 
f 33/33/1 94/94/1 15/15/1 
f 15/15/1 94/94/1 16/16/1 
f 118/118/1 119/119/1 120/120/1 
f 31/31/1 32/32/1 116/116/1 
f 116/116/1 32/32/1 122/122/1 
f 84/84/1 83/83/1 51/51/1 
f 51/51/1 83/83/1 50/50/1 
f 87/87/1 84/84/1 58/58/1 
f 58/58/1 84/84/1 51/51/1 
f 93/93/1 31/31/1 117/117/1 
f 117/117/1 31/31/1 116/116/1 
f 74/74/1 42/42/1 41/41/1 
f 120/120/1 75/75/1 123/123/1 
f 96/96/1 89/89/1 65/65/1 
f 65/65/1 89/89/1 13/13/1 
f 94/94/1 124/124/1 16/16/1 
f 16/16/1 124/124/1 125/125/1 
f 95/95/1 126/126/1 94/94/1 
f 94/94/1 126/126/1 124/124/1 
f 121/121/1 127/127/1 95/95/1 
f 95/95/1 127/127/1 126/126/1 
f 122/122/1 128/128/1 121/121/1 
f 121/121/1 128/128/1 127/127/1 
f 32/32/1 129/129/1 122/122/1 
f 122/122/1 129/129/1 128/128/1 
f 23/23/1 77/77/1 32/32/1 
f 32/32/1 77/77/1 129/129/1 
f 25/25/1 78/78/1 23/23/1 
f 23/23/1 78/78/1 77/77/1 
f 56/56/1 58/58/1 54/54/1 
f 54/54/1 58/58/1 130/130/1 
f 79/79/1 81/81/1 77/77/1 
f 77/77/1 81/81/1 80/80/1 
f 24/24/1 55/55/1 26/26/1 
f 130/130/1 58/58/1 57/57/1 
f 80/80/1 131/131/1 43/43/1 
f 80/80/1 82/82/1 131/131/1 
f 12/12/1 71/71/1 67/67/1 
f 69/69/1 12/12/1 68/68/1 
f 12/12/1 73/73/1 70/70/1 
f 62/62/1 4/4/1 63/63/1 
f 63/63/1 4/4/1 5/5/1 
f 4/4/1 2/2/1 5/5/1 
f 5/5/1 2/2/1 6/6/1 
f 22/22/1 111/111/1 2/2/1 
f 2/2/1 111/111/1 6/6/1 
f 20/20/1 105/105/1 22/22/1 
f 22/22/1 105/105/1 111/111/1 
f 99/99/1 91/91/1 20/20/1 
f 20/20/1 91/91/1 105/105/1 
f 101/101/1 92/92/1 99/99/1 
f 99/99/1 92/92/1 91/91/1 
f 113/113/1 34/34/1 101/101/1 
f 101/101/1 34/34/1 92/92/1 
f 30/30/1 36/36/1 113/113/1 
f 113/113/1 36/36/1 34/34/1 
f 28/28/1 115/115/1 30/30/1 
f 30/30/1 115/115/1 36/36/1 
f 88/88/1 117/117/1 28/28/1 
f 28/28/1 117/117/1 115/115/1 
f 87/87/1 93/93/1 88/88/1 
f 88/88/1 93/93/1 117/117/1 
f 58/58/1 56/56/1 87/87/1 
f 87/87/1 56/56/1 93/93/1 
f 27/27/1 132/132/1 86/86/1 
f 86/86/1 132/132/1 85/85/1 
f 29/29/1 133/133/1 27/27/1 
f 27/27/1 133/133/1 132/132/1 
f 112/112/1 134/134/1 29/29/1 
f 29/29/1 134/134/1 133/133/1 
f 102/102/1 135/135/1 112/112/1 
f 112/112/1 135/135/1 134/134/1 
f 100/100/1 136/136/1 102/102/1 
f 102/102/1 136/136/1 135/135/1 
f 19/19/1 137/137/1 100/100/1 
f 100/100/1 137/137/1 136/136/1 
f 21/21/1 138/138/1 19/19/1 
f 19/19/1 138/138/1 137/137/1 
f 1/1/1 139/139/1 21/21/1 
f 138/138/1 21/21/1 140/140/1 
f 21/21/1 139/139/1 140/140/1 
f 139/139/1 1/1/1 140/140/1 
f 60/60/1 140/140/1 3/3/1 
f 1/1/1 3/3/1 140/140/1 
f 141/141/1 18/18/1 125/125/1 
f 125/125/1 18/18/1 16/16/1 
f 142/142/1 98/98/1 141/141/1 
f 141/141/1 98/98/1 18/18/1 
f 108/108/1 109/109/1 142/142/1 
f 142/142/1 109/109/1 98/98/1 
f 14/14/1 90/90/1 108/108/1 
f 108/108/1 90/90/1 109/109/1 
f 14/14/1 13/13/1 90/90/1 
f 90/90/1 13/13/1 89/89/1 
f 42/42/1 129/129/1 80/80/1 
f 80/80/1 129/129/1 77/77/1 
f 75/75/1 128/128/1 42/42/1 
f 42/42/1 128/128/1 129/129/1 
f 119/119/1 127/127/1 75/75/1 
f 75/75/1 127/127/1 128/128/1 
f 40/40/1 126/126/1 119/119/1 
f 119/119/1 126/126/1 127/127/1 
f 38/38/1 124/124/1 40/40/1 
f 40/40/1 124/124/1 126/126/1 
f 47/47/1 125/125/1 38/38/1 
f 38/38/1 125/125/1 124/124/1 
f 45/45/1 141/141/1 47/47/1 
f 47/47/1 141/141/1 125/125/1 
f 104/104/1 142/142/1 45/45/1 
f 45/45/1 142/142/1 141/141/1 
f 106/106/1 108/108/1 104/104/1 
f 104/104/1 108/108/1 142/142/1 
f 43/43/1 42/42/1 80/80/1 
f 75/75/1 76/76/1 123/123/1 
# 225 faces

