# 3ds Max Wavefront OBJ Exporter v0.97b - (c)2007 guruware
# File Created: 04.12.2015 17:46:04

mtllib P712_305B_L.mtl

#
# object P712_305B_L_1_DTaSI_P712_305B_L
#

v  -115.4764 77.8685 -100.6078
v  -122.9881 78.2103 -100.5658
v  -115.4764 81.9897 -99.5326
v  -124.0026 82.2965 -99.5071
v  -124.0053 90.3582 -97.2770
v  -123.8430 101.3477 -94.0154
v  -115.4766 90.0515 -97.3021
v  -115.4764 101.0471 -94.0382
v  -116.3139 112.3364 -90.4323
v  -109.1459 120.9642 -87.1752
v  -108.6839 112.0682 -90.4363
v  -105.6770 120.8245 -87.1929
v  -109.6863 100.8414 -94.0381
v  -109.6864 89.8456 -97.3020
v  -109.6863 81.7838 -99.5325
v  -109.6863 77.7087 -100.6003
v  -99.6189 81.4257 -99.5324
v  -99.6189 89.4875 -97.3020
v  -99.6189 77.3627 -100.6051
v  -99.3341 100.4730 -94.0381
v  -98.5532 111.6972 -90.4481
v  -104.0466 123.5721 -86.0634
v  -96.8558 120.4698 -87.2376
v  -95.5648 123.6305 -85.9527
v  -105.7805 122.8318 -86.3818
v  -120.3347 107.6960 -91.9660
v  -124.0269 79.2282 -100.3047
v  -118.8431 112.3135 -90.4763
v  -112.9766 119.6287 -87.7057
v  -35.8121 79.1524 -99.5324
v  -37.7908 79.2230 -99.5324
v  -36.9195 87.2563 -97.3017
v  -38.9697 87.3294 -97.3017
v  -38.2484 98.3002 -94.0375
v  -40.3224 98.3739 -94.0375
v  -39.5689 109.4801 -90.5490
v  -41.7633 109.5639 -90.5445
v  -40.6896 117.9957 -87.6439
v  -42.8729 118.0964 -87.6257
v  -41.3003 122.9335 -85.7617
v  -43.6365 119.6101 -87.0540
v  -48.0450 121.1361 -86.5030
v  -45.2473 120.6275 -86.6756
v  -119.7295 111.1234 -90.8674
v  -123.0349 106.4623 -92.3843
v  -126.1933 101.4331 -94.0025
v  -111.5888 121.0625 -87.1628
v  -109.0563 122.8746 -86.3994
v  -106.9147 124.3117 -85.7932
v  -126.2396 90.4394 -97.2641
v  -126.2379 82.3778 -99.4938
v  -126.2359 77.0286 -100.8841
v  -102.8246 125.6312 -85.2171
v  -104.7591 125.2562 -85.3885
v  -94.7427 125.6568 -85.1291
v  -37.4128 76.1891 -100.3661
v  -35.0597 73.7734 -101.0126
v  -37.9192 75.5379 -100.5497
v  -39.1495 75.1761 -100.6606
v  -109.6863 76.4347 -100.9343
v  -99.6189 76.0765 -100.9445
v  -113.6449 76.5755 -100.9301
v  -117.3078 76.7057 -100.9263
v  -123.0523 76.9128 -100.9033
v  -86.5048 123.2138 -86.0297
v  -86.0254 125.3099 -85.1877
v  -87.2300 120.0750 -87.2907
v  -87.9525 111.3069 -90.4614
v  -88.4089 100.0843 -94.0379
v  -88.6944 89.0989 -97.3018
v  -88.6637 81.0359 -99.5323
v  -88.6488 76.9814 -100.6112
v  -88.6438 75.6858 -100.9560
v  -76.2113 122.7165 -86.1296
v  -76.0445 124.8273 -85.2923
v  -76.4592 119.6176 -87.3590
v  -76.7990 110.8922 -90.4777
v  -76.7758 99.6705 -94.0378
v  -76.5963 88.6685 -97.3017
v  -76.4681 80.6017 -99.5322
v  -76.4058 76.5955 -100.6073
v  -76.3846 75.2491 -100.9687
v  -63.5445 76.1545 -100.6128
v  -63.4906 74.7890 -100.9824
v  -63.7024 80.1469 -99.5323
v  -64.0270 88.2212 -97.3017
v  -64.4817 99.2332 -94.0377
v  -64.8963 110.4434 -90.4990
v  -65.1019 119.1120 -87.4441
v  -65.1297 122.1503 -86.2538
v  -65.1513 124.2616 -85.4268
v  -50.2725 75.6484 -100.6318
v  -50.1610 74.3130 -100.9966
v  -50.6128 79.6802 -99.5323
v  -51.2974 87.7681 -97.3017
v  -52.2388 98.7978 -94.0376
v  -53.1921 109.9993 -90.5215
v  -53.9131 118.6038 -87.5338
v  -54.1504 121.5315 -86.4010
v  -54.3271 123.6757 -85.5718
# 100 vertices

vn 0.0073 0.2527 -0.9675
vn 0.0060 0.2521 -0.9677
vn 0.0077 0.2620 -0.9650
vn 0.0060 0.2624 -0.9649
vn 0.0066 0.2770 -0.9608
vn 0.0072 0.2904 -0.9569
vn 0.0083 0.2769 -0.9609
vn 0.0093 0.2932 -0.9560
vn 0.0112 0.3209 -0.9470
vn 0.0102 0.3491 -0.9370
vn 0.0108 0.3213 -0.9469
vn 0.0102 0.3488 -0.9371
vn 0.0104 0.2950 -0.9554
vn 0.0099 0.2771 -0.9608
vn 0.0093 0.2622 -0.9650
vn 0.0085 0.2537 -0.9672
vn 0.0093 0.2628 -0.9648
vn 0.0099 0.2770 -0.9608
vn 0.0085 0.2554 -0.9668
vn 0.0104 0.2945 -0.9556
vn 0.0105 0.3206 -0.9472
vn 0.0100 0.3748 -0.9270
vn 0.0098 0.3494 -0.9369
vn 0.0096 0.3731 -0.9277
vn 0.0099 0.3755 -0.9268
vn 0.0100 0.3041 -0.9526
vn 0.0033 0.2516 -0.9678
vn 0.0134 0.3332 -0.9427
vn 0.0094 0.3464 -0.9380
vn 0.0094 0.2665 -0.9638
vn 0.0094 0.2662 -0.9639
vn 0.0098 0.2761 -0.9611
vn 0.0098 0.2762 -0.9610
vn 0.0103 0.2912 -0.9566
vn 0.0104 0.2914 -0.9566
vn 0.0099 0.3088 -0.9511
vn 0.0102 0.3096 -0.9508
vn 0.0079 0.3350 -0.9422
vn 0.0088 0.3311 -0.9435
vn 0.0074 0.3583 -0.9336
vn 0.0083 0.3577 -0.9338
vn 0.0073 0.3598 -0.9330
vn 0.0078 0.3590 -0.9333
vn 0.0131 0.3031 -0.9529
vn 0.0089 0.3027 -0.9530
vn 0.0053 0.2890 -0.9573
vn 0.0095 0.3548 -0.9349
vn 0.0102 0.3758 -0.9266
vn 0.0096 0.3759 -0.9266
vn 0.0046 0.2771 -0.9608
vn 0.0038 0.2618 -0.9651
vn 0.0094 0.3751 -0.9269
vn 0.0095 0.3755 -0.9268
vn 0.0091 0.3731 -0.9277
vn 0.0086 0.2662 -0.9639
vn 0.0086 0.2665 -0.9638
vn 0.0084 0.2660 -0.9639
vn 0.0087 0.2661 -0.9639
vn 0.0082 0.2537 -0.9673
vn 0.0082 0.2553 -0.9668
vn 0.0082 0.2528 -0.9675
vn 0.0057 0.2558 -0.9667
vn 0.0050 0.2518 -0.9678
vn 0.0092 0.3708 -0.9287
vn 0.0087 0.3708 -0.9287
vn 0.0095 0.3471 -0.9378
vn 0.0103 0.3193 -0.9476
vn 0.0103 0.2939 -0.9558
vn 0.0093 0.2634 -0.9646
vn 0.0086 0.2573 -0.9663
vn 0.0083 0.2573 -0.9663
vn 0.0083 0.3681 -0.9297
vn 0.0078 0.3682 -0.9297
vn 0.0083 0.3446 -0.9387
vn 0.0098 0.3172 -0.9483
vn 0.0103 0.2934 -0.9559
vn 0.0093 0.2641 -0.9644
vn 0.0087 0.2595 -0.9657
vn 0.0084 0.2594 -0.9657
vn 0.0088 0.2617 -0.9651
vn 0.0085 0.2616 -0.9651
vn 0.0093 0.2649 -0.9642
vn 0.0099 0.2769 -0.9608
vn 0.0103 0.2928 -0.9561
vn 0.0099 0.3147 -0.9491
vn 0.0087 0.3414 -0.9399
vn 0.0083 0.3649 -0.9310
vn 0.0077 0.3650 -0.9310
vn 0.0089 0.2640 -0.9645
vn 0.0086 0.2642 -0.9644
vn 0.0094 0.2656 -0.9640
vn 0.0103 0.2923 -0.9563
vn 0.0098 0.3123 -0.9499
vn 0.0084 0.3359 -0.9419
vn 0.0082 0.3616 -0.9323
vn 0.0077 0.3612 -0.9325
# 96 vertex normals

vt 0.6611 0.0207 0.0000
vt 0.6854 0.0209 0.0000
vt 0.6616 0.0344 0.0000
vt 0.6891 0.0344 0.0000
vt 0.6902 0.0613 0.0000
vt 0.6910 0.0983 0.0000
vt 0.6626 0.0614 0.0000
vt 0.6640 0.0984 0.0000
vt 0.6682 0.1365 0.0000
vt 0.6461 0.1671 0.0000
vt 0.6435 0.1366 0.0000
vt 0.6349 0.1670 0.0000
vt 0.6453 0.0984 0.0000
vt 0.6439 0.0615 0.0000
vt 0.6429 0.0345 0.0000
vt 0.6424 0.0209 0.0000
vt 0.6104 0.0346 0.0000
vt 0.6114 0.0616 0.0000
vt 0.6099 0.0211 0.0000
vt 0.6119 0.0986 0.0000
vt 0.6108 0.1367 0.0000
vt 0.6300 0.1768 0.0000
vt 0.6064 0.1670 0.0000
vt 0.6027 0.1781 0.0000
vt 0.6355 0.1740 0.0000
vt 0.6805 0.1202 0.0000
vt 0.6888 0.0242 0.0000
vt 0.6763 0.1361 0.0000
vt 0.6583 0.1620 0.0000
vt 0.4044 0.0353 0.0000
vt 0.4108 0.0353 0.0000
vt 0.4090 0.0623 0.0000
vt 0.4156 0.0623 0.0000
vt 0.4146 0.0993 0.0000
vt 0.4213 0.0992 0.0000
vt 0.4203 0.1369 0.0000
vt 0.4274 0.1369 0.0000
vt 0.4250 0.1657 0.0000
vt 0.4321 0.1658 0.0000
vt 0.4276 0.1827 0.0000
vt 0.4347 0.1709 0.0000
vt 0.4491 0.1756 0.0000
vt 0.4400 0.1742 0.0000
vt 0.6790 0.1319 0.0000
vt 0.6891 0.1157 0.0000
vt 0.6986 0.0983 0.0000
vt 0.6540 0.1671 0.0000
vt 0.6461 0.1737 0.0000
vt 0.6394 0.1790 0.0000
vt 0.6974 0.0613 0.0000
vt 0.6964 0.0344 0.0000
vt 0.6957 0.0166 0.0000
vt 0.6263 0.1841 0.0000
vt 0.6325 0.1825 0.0000
vt 0.6003 0.1852 0.0000
vt 0.4092 0.0252 0.0000
vt 0.4013 0.0174 0.0000
vt 0.4107 0.0230 0.0000
vt 0.4146 0.0216 0.0000
vt 0.6422 0.0167 0.0000
vt 0.6097 0.0168 0.0000
vt 0.6550 0.0167 0.0000
vt 0.6669 0.0166 0.0000
vt 0.6854 0.0166 0.0000
vt 0.5734 0.1778 0.0000
vt 0.5721 0.1851 0.0000
vt 0.5754 0.1669 0.0000
vt 0.5766 0.1367 0.0000
vt 0.5766 0.0987 0.0000
vt 0.5761 0.0617 0.0000
vt 0.5750 0.0347 0.0000
vt 0.5745 0.0212 0.0000
vt 0.5743 0.0169 0.0000
vt 0.5402 0.1774 0.0000
vt 0.5399 0.1848 0.0000
vt 0.5406 0.1667 0.0000
vt 0.5405 0.1368 0.0000
vt 0.5391 0.0988 0.0000
vt 0.5371 0.0618 0.0000
vt 0.5357 0.0349 0.0000
vt 0.5349 0.0215 0.0000
vt 0.5347 0.0170 0.0000
vt 0.4934 0.0217 0.0000
vt 0.4931 0.0172 0.0000
vt 0.4944 0.0350 0.0000
vt 0.4965 0.0620 0.0000
vt 0.4994 0.0990 0.0000
vt 0.5021 0.1368 0.0000
vt 0.5039 0.1664 0.0000
vt 0.5044 0.1769 0.0000
vt 0.5047 0.1842 0.0000
vt 0.4506 0.0217 0.0000
vt 0.4500 0.0173 0.0000
vt 0.4522 0.0352 0.0000
vt 0.4554 0.0621 0.0000
vt 0.4598 0.0991 0.0000
vt 0.4643 0.1368 0.0000
vt 0.4677 0.1661 0.0000
vt 0.4689 0.1762 0.0000
vt 0.4697 0.1836 0.0000
# 100 texture coords

g P712_305B_L_1_DTaSI_P712_305B_L
usemtl windowglass_1SG
s 1
f 1/1/1 2/2/2 3/3/3 
f 3/3/3 2/2/2 4/4/4 
f 5/5/5 6/6/6 7/7/7 
f 7/7/7 6/6/6 8/8/8 
f 9/9/9 10/10/10 11/11/11 
f 11/11/11 10/10/10 12/12/12 
f 8/8/8 13/13/13 7/7/7 
f 7/7/7 13/13/13 14/14/14 
f 3/3/3 15/15/15 1/1/1 
f 1/1/1 15/15/15 16/16/16 
f 17/17/17 15/15/15 18/18/18 
f 18/18/18 15/15/15 14/14/14 
f 15/15/15 3/3/3 14/14/14 
f 14/14/14 3/3/3 7/7/7 
f 15/15/15 17/17/17 16/16/16 
f 16/16/16 17/17/17 19/19/19 
f 13/13/13 11/11/11 20/20/20 
f 20/20/20 11/11/11 21/21/21 
f 11/11/11 13/13/13 9/9/9 
f 9/9/9 13/13/13 8/8/8 
f 13/13/13 20/20/20 14/14/14 
f 14/14/14 20/20/20 18/18/18 
f 12/12/12 22/22/22 23/23/23 
f 23/23/23 22/22/22 24/24/24 
f 22/22/22 12/12/12 25/25/25 
f 25/25/25 12/12/12 10/10/10 
f 11/11/11 12/12/12 21/21/21 
f 21/21/21 12/12/12 23/23/23 
f 3/3/3 4/4/4 7/7/7 
f 7/7/7 4/4/4 5/5/5 
f 6/6/6 26/26/26 8/8/8 
f 8/8/8 26/26/26 9/9/9 
f 2/2/2 27/27/27 4/4/4 
f 28/28/28 29/29/29 9/9/9 
f 30/30/30 31/31/31 32/32/32 
f 32/32/32 31/31/31 33/33/33 
f 34/34/34 35/35/35 36/36/36 
f 36/36/36 35/35/35 37/37/37 
f 38/38/38 39/39/39 40/40/40 
f 39/39/39 41/41/41 40/40/40 
f 42/42/42 40/40/40 43/43/43 
f 40/40/40 41/41/41 43/43/43 
f 39/39/39 38/38/38 37/37/37 
f 37/37/37 38/38/38 36/36/36 
f 35/35/35 34/34/34 33/33/33 
f 33/33/33 34/34/34 32/32/32 
f 44/44/44 26/26/26 45/45/45 
f 26/26/26 6/6/6 45/45/45 
f 6/6/6 46/46/46 45/45/45 
f 47/47/47 48/48/48 10/10/10 
f 10/10/10 48/48/48 49/49/49 
f 10/10/10 29/29/29 47/47/47 
f 26/26/26 44/44/44 9/9/9 
f 9/9/9 44/44/44 28/28/28 
f 5/5/5 50/50/50 6/6/6 
f 6/6/6 50/50/50 46/46/46 
f 4/4/4 51/51/51 5/5/5 
f 5/5/5 51/51/51 50/50/50 
f 4/4/4 27/27/27 51/51/51 
f 51/51/51 27/27/27 52/52/27 
f 10/10/10 49/49/49 25/25/25 
f 53/53/52 22/22/22 54/54/53 
f 49/49/49 54/54/53 25/25/25 
f 22/22/22 25/25/25 54/54/53 
f 22/22/22 53/53/52 24/24/24 
f 24/24/24 53/53/52 55/55/54 
f 31/31/31 30/30/30 56/56/55 
f 30/30/30 57/57/56 56/56/55 
f 56/56/55 57/57/56 58/58/57 
f 59/59/58 58/58/57 57/57/56 
f 16/16/16 19/19/19 60/60/59 
f 60/60/59 19/19/19 61/61/60 
f 1/1/1 16/16/16 62/62/61 
f 62/62/61 16/16/16 60/60/59 
f 63/63/62 1/1/1 62/62/61 
f 2/2/2 1/1/1 64/64/63 
f 64/64/63 1/1/1 63/63/62 
f 52/52/27 27/27/27 64/64/63 
f 64/64/63 27/27/27 2/2/2 
f 10/10/10 9/9/9 29/29/29 
f 24/24/24 55/55/54 65/65/64 
f 65/65/64 55/55/54 66/66/65 
f 23/23/23 24/24/24 67/67/66 
f 67/67/66 24/24/24 65/65/64 
f 21/21/21 23/23/23 68/68/67 
f 68/68/67 23/23/23 67/67/66 
f 20/20/20 21/21/21 69/69/68 
f 69/69/68 21/21/21 68/68/67 
f 18/18/18 20/20/20 70/70/18 
f 70/70/18 20/20/20 69/69/68 
f 18/18/18 70/70/18 17/17/17 
f 17/17/17 70/70/18 71/71/69 
f 17/17/17 71/71/69 19/19/19 
f 19/19/19 71/71/69 72/72/70 
f 73/73/71 61/61/60 72/72/70 
f 72/72/70 61/61/60 19/19/19 
f 65/65/64 66/66/65 74/74/72 
f 74/74/72 66/66/65 75/75/73 
f 67/67/66 65/65/64 76/76/74 
f 76/76/74 65/65/64 74/74/72 
f 68/68/67 67/67/66 77/77/75 
f 77/77/75 67/67/66 76/76/74 
f 68/68/67 77/77/75 69/69/68 
f 69/69/68 77/77/75 78/78/76 
f 79/79/18 70/70/18 78/78/76 
f 78/78/76 70/70/18 69/69/68 
f 70/70/18 79/79/18 71/71/69 
f 71/71/69 79/79/18 80/80/77 
f 71/71/69 80/80/77 72/72/70 
f 72/72/70 80/80/77 81/81/78 
f 82/82/79 73/73/71 81/81/78 
f 81/81/78 73/73/71 72/72/70 
f 81/81/78 83/83/80 82/82/79 
f 82/82/79 83/83/80 84/84/81 
f 80/80/77 85/85/82 81/81/78 
f 81/81/78 85/85/82 83/83/80 
f 85/85/82 80/80/77 86/86/83 
f 86/86/83 80/80/77 79/79/18 
f 78/78/76 87/87/84 79/79/18 
f 79/79/18 87/87/84 86/86/83 
f 87/87/84 78/78/76 88/88/85 
f 88/88/85 78/78/76 77/77/75 
f 76/76/74 89/89/86 77/77/75 
f 77/77/75 89/89/86 88/88/85 
f 74/74/72 90/90/87 76/76/74 
f 76/76/74 90/90/87 89/89/86 
f 90/90/87 74/74/72 91/91/88 
f 91/91/88 74/74/72 75/75/73 
f 83/83/80 92/92/89 84/84/81 
f 84/84/81 92/92/89 93/93/90 
f 85/85/82 94/94/91 83/83/80 
f 83/83/80 94/94/91 92/92/89 
f 94/94/91 85/85/82 95/95/83 
f 95/95/83 85/85/82 86/86/83 
f 87/87/84 96/96/92 86/86/83 
f 86/86/83 96/96/92 95/95/83 
f 96/96/92 87/87/84 97/97/93 
f 97/97/93 87/87/84 88/88/85 
f 89/89/86 98/98/94 88/88/85 
f 88/88/85 98/98/94 97/97/93 
f 90/90/87 99/99/95 89/89/86 
f 89/89/86 99/99/95 98/98/94 
f 99/99/95 90/90/87 100/100/96 
f 100/100/96 90/90/87 91/91/88 
f 40/40/40 42/42/42 100/100/96 
f 100/100/96 42/42/42 99/99/95 
f 39/39/39 98/98/94 41/41/41 
f 41/41/41 98/98/94 43/43/43 
f 43/43/43 98/98/94 42/42/42 
f 42/42/42 98/98/94 99/99/95 
f 98/98/94 39/39/39 97/97/93 
f 97/97/93 39/39/39 37/37/37 
f 35/35/35 96/96/92 37/37/37 
f 37/37/37 96/96/92 97/97/93 
f 96/96/92 35/35/35 95/95/83 
f 95/95/83 35/35/35 33/33/33 
f 31/31/31 94/94/91 33/33/33 
f 33/33/33 94/94/91 95/95/83 
f 94/94/91 31/31/31 92/92/89 
f 92/92/89 31/31/31 59/59/58 
f 59/59/58 31/31/31 58/58/57 
f 31/31/31 56/56/55 58/58/57 
f 92/92/89 59/59/58 93/93/90 
f 93/93/90 59/59/58 57/57/56 
# 164 faces

