# 3ds Max Wavefront OBJ Exporter v0.97b - (c)2007 guruware
# File Created: 04.12.2015 17:41:19

mtllib P712_18A5_R.mtl

#
# object P712_18A5_R_DaS_P712_18A5_R
#

v  -5.0937 128.1368 81.2368
v  -5.1017 128.7029 79.9621
v  -19.3635 129.2390 80.9041
v  -19.3676 129.7625 79.6817
v  -35.6984 129.9364 81.4363
v  -35.7002 130.3700 80.5875
v  -55.6070 131.1071 81.1789
v  -55.6070 131.5147 80.3166
v  -5.0884 129.1241 78.5332
v  -19.3607 130.1721 78.2765
v  -35.7012 130.8555 79.3985
v  -35.6995 131.2523 78.0136
v  -55.6070 131.9737 79.1208
v  -55.6069 132.3554 77.7481
v  44.2124 117.2865 85.2707
v  42.4981 118.3075 84.8991
v  43.8815 116.9063 85.8926
v  41.9736 118.0320 85.4712
v  -35.6960 129.1617 82.2534
v  -35.6946 128.5990 82.7300
v  -19.3466 127.9931 82.5903
v  -19.3418 127.4643 83.0292
v  -35.6933 127.8895 83.3309
v  -55.6068 129.0938 83.2280
v  -55.6069 129.7979 82.5676
v  -35.6970 129.5579 81.9170
v  -35.6974 129.6962 81.7999
v  -55.6069 130.7466 81.6762
v  -55.6070 130.8796 81.5518
v  -19.3561 128.7693 81.7807
v  -19.3525 128.5215 82.1488
v  -35.6967 131.5436 76.6187
v  -35.6940 131.7133 75.3991
v  -55.6067 132.6381 76.3734
v  -55.6069 132.8005 75.1714
v  -5.0659 129.4126 77.1161
v  -5.0463 129.5796 75.8774
v  -19.3494 130.4640 76.8685
v  -19.3394 130.6340 75.6378
v  32.3640 122.0428 84.0033
v  21.3072 124.3054 83.7057
v  32.0829 121.7002 84.4819
v  21.2496 123.9244 84.0915
v  21.3592 125.0013 82.8388
v  21.3470 124.7662 83.2474
v  32.6736 122.5658 83.0596
v  32.5892 122.4073 83.5058
v  21.4196 126.0871 80.4408
v  21.3831 125.5168 81.8111
v  33.0369 123.2872 80.5412
v  32.8481 122.9065 81.9501
v  21.5229 126.7471 77.6184
v  21.4693 126.4863 79.0047
v  33.2580 123.7585 77.9466
v  33.1646 123.5644 79.1973
v  21.6161 127.0025 75.2598
v  21.5708 126.9014 76.3977
v  33.4274 123.9881 75.7504
v  33.3446 123.8894 76.8181
v  45.7352 118.7883 80.5116
v  45.2303 119.1179 80.5342
v  45.5576 118.6244 81.7388
v  45.8684 118.9100 79.4350
v  45.5443 119.3282 78.3848
v  45.0756 119.4537 79.4041
v  44.9853 119.7160 78.3458
v  45.4174 119.6077 77.3669
v  45.3089 119.8253 76.6114
v  44.9891 119.9057 77.3352
v  45.0401 120.0588 76.3484
v  -35.6965 129.4306 82.0253
v  -55.6070 130.3559 82.0439
v  -55.6067 130.6219 81.7936
v  -19.3511 128.3866 82.2613
v  -19.3494 128.2555 82.3714
v  21.3400 124.6593 83.3561
v  21.3321 124.5283 83.4848
v  32.5458 122.3295 83.6252
v  32.4947 122.2303 83.7543
v  44.4805 117.5963 84.7333
v  42.9214 118.5474 84.3747
v  44.4276 117.5339 84.8645
v  42.8414 118.5025 84.4993
v  42.7438 118.4435 84.6247
v  44.3476 117.4414 85.0269
v  8.6531 128.4026 77.3539
v  8.6823 128.5669 76.1074
v  8.6003 127.6849 80.2315
v  8.6200 128.1176 78.7797
v  8.6122 127.0781 81.5563
v  -5.0724 127.3742 82.5400
v  -5.0696 127.2463 82.6498
v  8.6437 126.2722 82.9159
v  8.6478 126.1510 83.0230
v  -5.0660 127.1110 82.7670
v  -5.0603 126.8595 82.9830
v  8.6531 126.0117 83.1469
v  8.6618 125.7705 83.3602
v  -5.0506 126.3827 83.3894
v  -5.0392 125.7934 83.8910
v  8.6761 125.3440 83.7355
v  8.6926 124.8244 84.1914
v  21.1756 123.4639 84.5597
v  8.6340 126.5296 82.5266
v  -5.0789 127.6269 82.1614
v  8.7091 128.6705 74.9507
v  -5.0281 129.6861 74.7277
v  -75.2880 131.6407 81.6738
v  -75.2854 131.7634 81.5468
v  -75.2925 131.3826 81.9412
v  41.8636 121.0505 77.1901
v  41.7739 120.9206 78.2265
v  41.9623 121.1619 76.1907
v  41.5935 120.5445 80.5623
v  44.4470 119.4251 80.5402
v  41.7015 120.7532 79.3370
v  44.7366 119.5843 79.3974
v  43.4392 118.8133 83.7053
v  44.0842 119.2142 81.8112
v  41.3968 120.2898 81.9431
v  31.7261 121.2800 85.0751
v  41.3099 117.6867 86.1918
v  -19.3303 130.7435 74.4956
v  -35.6917 131.8222 74.2674
v  -55.6069 132.9025 74.0561
v  -75.2372 133.7514 75.0087
v  -75.2308 133.8461 73.9067
v  -75.2442 133.5968 76.1963
v  44.8042 117.9075 84.1141
v  -75.2829 131.8919 81.4141
v  -75.2782 132.1113 81.0276
v  -75.3021 130.8471 82.4951
v  -75.3143 130.1729 83.1921
v  -19.3360 126.8021 83.5779
v  43.4739 116.4248 86.6821
v  -75.2524 133.3231 77.5546
v  -75.2610 132.9522 78.9227
v  -75.2701 132.5065 80.1385
# 138 vertices

vn 0.0589 0.8969 0.4383
vn 0.0631 0.9375 0.3423
vn 0.0567 0.9026 0.4268
vn 0.0603 0.9407 0.3340
vn 0.0481 0.8731 0.4852
vn 0.0505 0.9105 0.4105
vn 0.0437 0.8884 0.4570
vn 0.0452 0.9207 0.3877
vn 0.0669 0.9679 0.2421
vn 0.0634 0.9683 0.2417
vn 0.0529 0.9447 0.3236
vn 0.0551 0.9692 0.2399
vn 0.0467 0.9494 0.3106
vn 0.0482 0.9709 0.2347
vn 0.3017 0.7299 0.6133
vn 0.2463 0.7642 0.5961
vn 0.3012 0.7347 0.6079
vn 0.2439 0.7672 0.5932
vn 0.0314 0.6466 0.7622
vn 0.0326 0.6463 0.7624
vn 0.0300 0.6393 0.7683
vn 0.0299 0.6383 0.7692
vn 0.0331 0.6458 0.7628
vn 0.0356 0.6831 0.7294
vn 0.0347 0.6839 0.7287
vn 0.0299 0.6469 0.7620
vn 0.0409 0.7851 0.6180
vn 0.0313 0.6840 0.7288
vn 0.0390 0.8091 0.5863
vn 0.0533 0.8653 0.4984
vn 0.0444 0.7818 0.6220
vn 0.0567 0.9832 0.1734
vn 0.0578 0.9914 0.1175
vn 0.0493 0.9842 0.1699
vn 0.0500 0.9923 0.1132
vn 0.0694 0.9830 0.1697
vn 0.0712 0.9909 0.1146
vn 0.0656 0.9828 0.1725
vn 0.0672 0.9908 0.1172
vn 0.1760 0.7461 0.6422
vn 0.0884 0.7003 0.7083
vn 0.1715 0.7522 0.6362
vn 0.0843 0.7038 0.7054
vn 0.1401 0.8775 0.4586
vn 0.1232 0.8273 0.5480
vn 0.2349 0.9104 0.3407
vn 0.2313 0.8795 0.4158
vn 0.1636 0.9312 0.3258
vn 0.1512 0.8999 0.4090
vn 0.2496 0.9348 0.2525
vn 0.2363 0.9240 0.3007
vn 0.1788 0.9706 0.1614
vn 0.1734 0.9576 0.2300
vn 0.2683 0.9515 0.1507
vn 0.2619 0.9453 0.1945
vn 0.1821 0.9788 0.0942
vn 0.1815 0.9769 0.1130
vn 0.2712 0.9562 0.1097
vn 0.2707 0.9550 0.1209
vn 0.5437 0.8210 0.1744
vn 0.4303 0.8747 0.2230
vn 0.3718 0.8665 0.3331
vn 0.5529 0.8176 0.1608
vn 0.5554 0.8170 0.1548
vn 0.4846 0.8561 0.1797
vn 0.3759 0.9088 0.1811
vn 0.5562 0.8165 0.1551
vn 0.5567 0.8160 0.1554
vn 0.3620 0.9175 0.1650
vn 0.3444 0.9256 0.1571
vn 0.0305 0.6472 0.7617
vn 0.0331 0.6845 0.7282
vn 0.0320 0.6851 0.7277
vn 0.0301 0.6416 0.7665
vn 0.0301 0.6414 0.7666
vn 0.0938 0.7004 0.7075
vn 0.0913 0.6958 0.7124
vn 0.1864 0.7663 0.6149
vn 0.1776 0.7417 0.6468
vn 0.3396 0.7626 0.5505
vn 0.2658 0.8126 0.5187
vn 0.3361 0.7602 0.5560
vn 0.2735 0.8091 0.5201
vn 0.2508 0.7698 0.5869
vn 0.3050 0.7319 0.6094
vn 0.0951 0.9813 0.1671
vn 0.0972 0.9889 0.1125
vn 0.0863 0.9332 0.3488
vn 0.0918 0.9659 0.2422
vn 0.0798 0.8913 0.4464
vn 0.0465 0.7882 0.6136
vn 0.0316 0.6534 0.7564
vn 0.0636 0.7949 0.6034
vn 0.0451 0.6638 0.7466
vn 0.0313 0.6527 0.7570
vn 0.0305 0.6496 0.7597
vn 0.0444 0.6636 0.7468
vn 0.0433 0.6615 0.7487
vn 0.0298 0.6484 0.7607
vn 0.0295 0.6484 0.7608
vn 0.0420 0.6604 0.7498
vn 0.0420 0.6605 0.7496
vn 0.0817 0.7041 0.7054
vn 0.0742 0.8591 0.5063
vn 0.0552 0.8620 0.5038
vn 0.0978 0.9910 0.0911
vn 0.0718 0.9931 0.0932
vn 0.0328 0.7187 0.6945
vn 0.0323 0.7180 0.6953
vn 0.0335 0.7183 0.6949
vn 0.3131 0.9393 0.1402
vn 0.3162 0.9359 0.1550
vn 0.3113 0.9406 0.1356
vn 0.3169 0.9263 0.2039
vn 0.3532 0.9068 0.2302
vn 0.3184 0.9316 0.1753
vn 0.3442 0.9170 0.2016
vn 0.3185 0.8481 0.4234
vn 0.3718 0.8786 0.2998
vn 0.2961 0.8932 0.3384
vn 0.1632 0.7550 0.6351
vn 0.2379 0.7706 0.5912
vn 0.0677 0.9931 0.0957
vn 0.0581 0.9937 0.0957
vn 0.0502 0.9946 0.0908
vn 0.0471 0.9930 0.1084
vn 0.0472 0.9952 0.0857
vn 0.0465 0.9851 0.1658
vn 0.3916 0.8231 0.4113
vn 0.0384 0.8306 0.5555
vn 0.0419 0.8999 0.4340
vn 0.0349 0.7177 0.6955
vn 0.0357 0.7170 0.6962
vn 0.0299 0.6381 0.7694
vn 0.2973 0.7359 0.6083
vn 0.0455 0.9722 0.2299
vn 0.0442 0.9526 0.3010
vn 0.0429 0.9277 0.3709
# 138 vertex normals

vt 0.5707 0.2574 0.0000
vt 0.5706 0.2597 0.0000
vt 0.5475 0.2582 0.0000
vt 0.5474 0.2604 0.0000
vt 0.5209 0.2574 0.0000
vt 0.5209 0.2590 0.0000
vt 0.4886 0.2581 0.0000
vt 0.4886 0.2596 0.0000
vt 0.5706 0.2621 0.0000
vt 0.5474 0.2627 0.0000
vt 0.5209 0.2610 0.0000
vt 0.5209 0.2634 0.0000
vt 0.4886 0.2617 0.0000
vt 0.4886 0.2640 0.0000
vt 0.6510 0.2480 0.0000
vt 0.6482 0.2491 0.0000
vt 0.6505 0.2469 0.0000
vt 0.6473 0.2480 0.0000
vt 0.5210 0.2556 0.0000
vt 0.5210 0.2544 0.0000
vt 0.5475 0.2548 0.0000
vt 0.5476 0.2536 0.0000
vt 0.5210 0.2529 0.0000
vt 0.4887 0.2534 0.0000
vt 0.4887 0.2550 0.0000
vt 0.5210 0.2564 0.0000
vt 0.5210 0.2567 0.0000
vt 0.4886 0.2571 0.0000
vt 0.4886 0.2574 0.0000
vt 0.5475 0.2566 0.0000
vt 0.5475 0.2559 0.0000
vt 0.5209 0.2657 0.0000
vt 0.5209 0.2677 0.0000
vt 0.4886 0.2663 0.0000
vt 0.4886 0.2682 0.0000
vt 0.5707 0.2644 0.0000
vt 0.5707 0.2665 0.0000
vt 0.5475 0.2651 0.0000
vt 0.5475 0.2671 0.0000
vt 0.6316 0.2515 0.0000
vt 0.6136 0.2523 0.0000
vt 0.6312 0.2505 0.0000
vt 0.6135 0.2515 0.0000
vt 0.6137 0.2541 0.0000
vt 0.6137 0.2534 0.0000
vt 0.6321 0.2532 0.0000
vt 0.6320 0.2525 0.0000
vt 0.6137 0.2583 0.0000
vt 0.6137 0.2560 0.0000
vt 0.6327 0.2574 0.0000
vt 0.6324 0.2551 0.0000
vt 0.6139 0.2629 0.0000
vt 0.6138 0.2607 0.0000
vt 0.6330 0.2615 0.0000
vt 0.6329 0.2595 0.0000
vt 0.6140 0.2667 0.0000
vt 0.6139 0.2649 0.0000
vt 0.6333 0.2649 0.0000
vt 0.6331 0.2633 0.0000
vt 0.6534 0.2565 0.0000
vt 0.6526 0.2565 0.0000
vt 0.6531 0.2543 0.0000
vt 0.6536 0.2588 0.0000
vt 0.6531 0.2599 0.0000
vt 0.6523 0.2584 0.0000
vt 0.6522 0.2598 0.0000
vt 0.6529 0.2610 0.0000
vt 0.6527 0.2619 0.0000
vt 0.6522 0.2611 0.0000
vt 0.6522 0.2623 0.0000
vt 0.5210 0.2561 0.0000
vt 0.4886 0.2562 0.0000
vt 0.4886 0.2568 0.0000
vt 0.5475 0.2556 0.0000
vt 0.5475 0.2553 0.0000
vt 0.6136 0.2531 0.0000
vt 0.6136 0.2528 0.0000
vt 0.6319 0.2523 0.0000
vt 0.6318 0.2520 0.0000
vt 0.6514 0.2490 0.0000
vt 0.6489 0.2501 0.0000
vt 0.6513 0.2487 0.0000
vt 0.6487 0.2498 0.0000
vt 0.6486 0.2496 0.0000
vt 0.6512 0.2484 0.0000
vt 0.5929 0.2638 0.0000
vt 0.5930 0.2659 0.0000
vt 0.5929 0.2591 0.0000
vt 0.5929 0.2615 0.0000
vt 0.5929 0.2567 0.0000
vt 0.5707 0.2550 0.0000
vt 0.5707 0.2547 0.0000
vt 0.5930 0.2542 0.0000
vt 0.5930 0.2539 0.0000
vt 0.5707 0.2544 0.0000
vt 0.5707 0.2539 0.0000
vt 0.5930 0.2536 0.0000
vt 0.5930 0.2531 0.0000
vt 0.5708 0.2529 0.0000
vt 0.5708 0.2516 0.0000
vt 0.5931 0.2522 0.0000
vt 0.5931 0.2511 0.0000
vt 0.6134 0.2504 0.0000
vt 0.5930 0.2549 0.0000
vt 0.5707 0.2557 0.0000
vt 0.5930 0.2677 0.0000
vt 0.5707 0.2683 0.0000
vt 0.4567 0.2573 0.0000
vt 0.4567 0.2575 0.0000
vt 0.4567 0.2567 0.0000
vt 0.6471 0.2618 0.0000
vt 0.6469 0.2602 0.0000
vt 0.6472 0.2633 0.0000
vt 0.6466 0.2566 0.0000
vt 0.6513 0.2565 0.0000
vt 0.6468 0.2585 0.0000
vt 0.6518 0.2583 0.0000
vt 0.6497 0.2512 0.0000
vt 0.6507 0.2544 0.0000
vt 0.6463 0.2544 0.0000
vt 0.6306 0.2493 0.0000
vt 0.6463 0.2467 0.0000
vt 0.5475 0.2689 0.0000
vt 0.5209 0.2695 0.0000
vt 0.4886 0.2701 0.0000
vt 0.4567 0.2687 0.0000
vt 0.4567 0.2705 0.0000
vt 0.4567 0.2668 0.0000
vt 0.6519 0.2501 0.0000
vt 0.4567 0.2578 0.0000
vt 0.4567 0.2586 0.0000
vt 0.4567 0.2554 0.0000
vt 0.4567 0.2538 0.0000
vt 0.5476 0.2522 0.0000
vt 0.6498 0.2457 0.0000
vt 0.4567 0.2645 0.0000
vt 0.4567 0.2622 0.0000
vt 0.4567 0.2601 0.0000
# 138 texture coords

g P712_18A5_R_DaS_P712_18A5_R
usemtl paint_whiteSG
s 12
f 1/1/1 2/2/2 3/3/3 
f 2/2/2 4/4/4 3/3/3 
f 5/5/5 6/6/6 7/7/7 
f 6/6/6 8/8/8 7/7/7 
f 2/2/2 9/9/9 4/4/4 
f 9/9/9 10/10/10 4/4/4 
f 11/11/11 12/12/12 13/13/13 
f 12/12/12 14/14/14 13/13/13 
f 15/15/15 16/16/16 17/17/17 
f 16/16/16 18/18/18 17/17/17 
f 19/19/19 20/20/20 21/21/21 
f 20/20/20 22/22/22 21/21/21 
f 23/23/23 20/20/20 24/24/24 
f 20/20/20 25/25/25 24/24/24 
f 26/26/26 27/27/27 28/28/28 
f 27/27/27 29/29/29 28/28/28 
f 5/5/5 27/27/27 30/30/30 
f 27/27/27 31/31/31 30/30/30 
f 32/32/32 33/33/33 34/34/34 
f 33/33/33 35/35/35 34/34/34 
f 36/36/36 37/37/37 38/38/38 
f 37/37/37 39/39/39 38/38/38 
f 40/40/40 41/41/41 42/42/42 
f 41/41/41 43/43/43 42/42/42 
f 44/44/44 45/45/45 46/46/46 
f 45/45/45 47/47/47 46/46/46 
f 48/48/48 49/49/49 50/50/50 
f 49/49/49 51/51/51 50/50/50 
f 52/52/52 53/53/53 54/54/54 
f 53/53/53 55/55/55 54/54/54 
f 56/56/56 57/57/57 58/58/58 
f 57/57/57 59/59/59 58/58/58 
f 60/60/60 61/61/61 62/62/62 
f 63/63/63 64/64/64 65/65/65 
f 64/64/64 66/66/66 65/65/65 
f 67/67/67 68/68/68 69/69/69 
f 68/68/68 70/70/70 69/69/69 
f 19/19/19 71/71/71 72/72/72 
f 71/71/71 73/73/73 72/72/72 
f 26/26/26 71/71/71 74/74/74 
f 71/71/71 75/75/75 74/74/74 
f 76/76/76 77/77/77 78/78/78 
f 77/77/77 79/79/79 78/78/78 
f 80/80/80 81/81/81 82/82/82 
f 81/81/81 83/83/83 82/82/82 
f 84/84/84 85/85/85 83/83/83 
f 85/85/85 82/82/82 83/83/83 
f 52/52/52 57/57/57 86/86/86 
f 57/57/57 87/87/87 86/86/86 
f 48/48/48 53/53/53 88/88/88 
f 53/53/53 89/89/89 88/88/88 
f 49/49/49 48/48/48 90/90/90 
f 48/48/48 88/88/88 90/90/90 
f 91/91/91 92/92/92 93/93/93 
f 92/92/92 94/94/94 93/93/93 
f 95/95/95 96/96/96 97/97/97 
f 96/96/96 98/98/98 97/97/97 
f 99/99/99 100/100/100 101/101/101 
f 100/100/100 102/102/102 101/101/101 
f 43/43/43 41/41/41 101/101/101 
f 41/41/41 98/98/98 101/101/101 
f 101/101/101 98/98/98 99/99/99 
f 98/98/98 96/96/96 99/99/99 
f 101/101/101 102/102/102 43/43/43 
f 102/102/102 103/103/103 43/43/43 
f 77/77/77 76/76/76 97/97/97 
f 76/76/76 94/94/94 97/97/97 
f 97/97/97 94/94/94 95/95/95 
f 94/94/94 92/92/92 95/95/95 
f 97/97/97 98/98/98 77/77/77 
f 98/98/98 41/41/41 77/77/77 
f 45/45/45 44/44/44 93/93/93 
f 44/44/44 104/104/104 93/93/93 
f 93/93/93 104/104/104 91/91/91 
f 104/104/104 105/105/105 91/91/91 
f 93/93/93 94/94/94 45/45/45 
f 94/94/94 76/76/76 45/45/45 
f 1/1/1 105/105/105 90/90/90 
f 105/105/105 104/104/104 90/90/90 
f 90/90/90 104/104/104 49/49/49 
f 104/104/104 44/44/44 49/49/49 
f 90/90/90 88/88/88 1/1/1 
f 88/88/88 2/2/2 1/1/1 
f 89/89/89 86/86/86 9/9/9 
f 86/86/86 36/36/36 9/9/9 
f 9/9/9 2/2/2 89/89/89 
f 2/2/2 88/88/88 89/89/89 
f 53/53/53 52/52/52 89/89/89 
f 52/52/52 86/86/86 89/89/89 
f 87/87/87 106/106/106 37/37/37 
f 106/106/106 107/107/107 37/37/37 
f 37/37/37 36/36/36 87/87/87 
f 36/36/36 86/86/86 87/87/87 
f 57/57/57 56/56/56 87/87/87 
f 56/56/56 106/106/106 87/87/87 
f 85/85/85 84/84/84 15/15/15 
f 84/84/84 16/16/16 15/15/15 
f 40/40/40 16/16/16 79/79/79 
f 16/16/16 84/84/84 79/79/79 
f 79/79/79 84/84/84 78/78/78 
f 84/84/84 83/83/83 78/78/78 
f 79/79/79 77/77/77 40/40/40 
f 77/77/77 41/41/41 40/40/40 
f 75/75/75 21/21/21 95/95/95 
f 21/21/21 96/96/96 95/95/95 
f 95/95/95 92/92/92 75/75/75 
f 92/92/92 74/74/74 75/75/75 
f 71/71/71 19/19/19 75/75/75 
f 19/19/19 21/21/21 75/75/75 
f 73/73/73 28/28/28 108/108/108 
f 28/28/28 109/109/109 108/108/108 
f 108/108/108 110/110/110 73/73/73 
f 110/110/110 72/72/72 73/73/73 
f 71/71/71 26/26/26 73/73/73 
f 26/26/26 28/28/28 73/73/73 
f 111/111/111 112/112/112 69/69/69 
f 112/112/112 66/66/66 69/69/69 
f 69/69/69 66/66/66 67/67/67 
f 66/66/66 64/64/64 67/67/67 
f 69/69/69 70/70/70 111/111/111 
f 70/70/70 113/113/113 111/111/111 
f 114/114/114 115/115/115 116/116/116 
f 115/115/115 117/117/117 116/116/116 
f 65/65/65 61/61/61 63/63/63 
f 61/61/61 60/60/60 63/63/63 
f 66/66/66 112/112/112 117/117/117 
f 112/112/112 116/116/116 117/117/117 
f 118/118/118 119/119/119 120/120/120 
f 115/115/115 114/114/114 119/119/119 
f 114/114/114 120/120/120 119/119/119 
f 54/54/54 112/112/112 59/59/59 
f 112/112/112 111/111/111 59/59/59 
f 59/59/59 111/111/111 58/58/58 
f 111/111/111 113/113/113 58/58/58 
f 57/57/57 52/52/52 59/59/59 
f 52/52/52 54/54/54 59/59/59 
f 50/50/50 114/114/114 55/55/55 
f 114/114/114 116/116/116 55/55/55 
f 116/116/116 112/112/112 55/55/55 
f 112/112/112 54/54/54 55/55/55 
f 53/53/53 48/48/48 55/55/55 
f 48/48/48 50/50/50 55/55/55 
f 51/51/51 46/46/46 120/120/120 
f 46/46/46 118/118/118 120/120/120 
f 51/51/51 120/120/120 50/50/50 
f 120/120/120 114/114/114 50/50/50 
f 49/49/49 44/44/44 51/51/51 
f 44/44/44 46/46/46 51/51/51 
f 78/78/78 83/83/83 47/47/47 
f 83/83/83 81/81/81 47/47/47 
f 47/47/47 81/81/81 46/46/46 
f 81/81/81 118/118/118 46/46/46 
f 47/47/47 45/45/45 78/78/78 
f 45/45/45 76/76/76 78/78/78 
f 121/121/121 122/122/122 42/42/42 
f 122/122/122 18/18/18 42/42/42 
f 42/42/42 18/18/18 40/40/40 
f 18/18/18 16/16/16 40/40/40 
f 42/42/42 43/43/43 121/121/121 
f 43/43/43 103/103/103 121/121/121 
f 39/39/39 123/123/123 33/33/33 
f 123/123/123 124/124/124 33/33/33 
f 33/33/33 32/32/32 39/39/39 
f 32/32/32 38/38/38 39/39/39 
f 37/37/37 107/107/107 39/39/39 
f 107/107/107 123/123/123 39/39/39 
f 35/35/35 125/125/125 126/126/126 
f 125/125/125 127/127/127 126/126/126 
f 126/126/126 128/128/128 35/35/35 
f 128/128/128 34/34/34 35/35/35 
f 33/33/33 124/124/124 35/35/35 
f 124/124/124 125/125/125 35/35/35 
f 129/129/129 118/118/118 80/80/80 
f 118/118/118 81/81/81 80/80/80 
f 31/31/31 74/74/74 91/91/91 
f 74/74/74 92/92/92 91/91/91 
f 91/91/91 105/105/105 31/31/31 
f 105/105/105 30/30/30 31/31/31 
f 27/27/27 26/26/26 31/31/31 
f 26/26/26 74/74/74 31/31/31 
f 29/29/29 7/7/7 130/130/130 
f 7/7/7 131/131/131 130/130/130 
f 130/130/130 109/109/109 29/29/29 
f 109/109/109 28/28/28 29/29/29 
f 27/27/27 5/5/5 29/29/29 
f 5/5/5 7/7/7 29/29/29 
f 25/25/25 72/72/72 132/132/132 
f 72/72/72 110/110/110 132/132/132 
f 132/132/132 133/133/133 25/25/25 
f 133/133/133 24/24/24 25/25/25 
f 20/20/20 19/19/19 25/25/25 
f 19/19/19 72/72/72 25/25/25 
f 22/22/22 134/134/134 99/99/99 
f 134/134/134 100/100/100 99/99/99 
f 99/99/99 96/96/96 22/22/22 
f 96/96/96 21/21/21 22/22/22 
f 20/20/20 23/23/23 22/22/22 
f 23/23/23 134/134/134 22/22/22 
f 17/17/17 18/18/18 135/135/135 
f 18/18/18 122/122/122 135/135/135 
f 14/14/14 34/34/34 136/136/136 
f 34/34/34 128/128/128 136/136/136 
f 136/136/136 137/137/137 14/14/14 
f 137/137/137 13/13/13 14/14/14 
f 12/12/12 32/32/32 14/14/14 
f 32/32/32 34/34/34 14/14/14 
f 10/10/10 38/38/38 12/12/12 
f 38/38/38 32/32/32 12/12/12 
f 12/12/12 11/11/11 10/10/10 
f 11/11/11 4/4/4 10/10/10 
f 9/9/9 36/36/36 10/10/10 
f 36/36/36 38/38/38 10/10/10 
f 8/8/8 13/13/13 138/138/138 
f 13/13/13 137/137/137 138/138/138 
f 138/138/138 131/131/131 8/8/8 
f 131/131/131 7/7/7 8/8/8 
f 6/6/6 11/11/11 8/8/8 
f 11/11/11 13/13/13 8/8/8 
f 6/6/6 5/5/5 3/3/3 
f 5/5/5 30/30/30 3/3/3 
f 3/3/3 30/30/30 1/1/1 
f 30/30/30 105/105/105 1/1/1 
f 3/3/3 4/4/4 6/6/6 
f 4/4/4 11/11/11 6/6/6 
f 66/66/66 117/117/117 65/65/65 
f 117/117/117 115/115/115 65/65/65 
f 115/115/115 61/61/61 65/65/65 
f 62/62/62 61/61/61 119/119/119 
f 61/61/61 115/115/115 119/119/119 
f 118/118/118 129/129/129 119/119/119 
f 129/129/129 62/62/62 119/119/119 
# 231 faces

#
# object P712_18A5_R_DaS_P712_18A5_R_E
#

v  21.6161 127.0025 75.2598
v  33.4274 123.9881 75.7504
v  21.5059 126.4159 75.2017
v  33.2625 123.4145 75.6830
v  45.0401 120.0588 76.3484
v  45.3089 119.8253 76.6114
v  44.7746 119.5333 76.2569
v  44.9743 119.3350 76.5179
v  -5.0713 129.0893 74.6718
v  -5.0281 129.6861 74.7277
v  8.6498 128.0752 74.8954
v  8.7091 128.6705 74.9507
v  41.7721 120.5978 76.1091
v  41.9623 121.1619 76.1907
v  -35.6917 131.8222 74.2674
v  -19.3303 130.7435 74.4956
v  -35.7268 131.2250 74.2105
v  -19.3711 130.1469 74.4384
v  -75.2308 133.8461 73.9067
v  -55.6069 132.9025 74.0561
v  -75.2579 133.2479 73.8545
v  -55.6369 132.3047 74.0014
v  45.8684 118.9100 79.4350
v  45.5033 118.3662 79.3311
v  45.5443 119.3282 78.3848
v  45.1760 118.7864 78.2824
v  45.4174 119.6077 77.3669
v  45.0484 119.0663 77.2641
v  41.3099 117.6867 86.1918
v  31.7261 121.2800 85.0751
v  41.3099 117.6867 85.5758
v  31.7261 121.2800 84.4591
v  -35.6933 127.8895 83.3309
v  -55.6068 129.0938 83.2280
v  -35.6933 127.8895 82.2994
v  -55.6069 129.0938 82.1964
v  -75.3143 130.1729 83.1921
v  -75.3143 130.1728 82.1606
v  -19.3360 126.8021 83.5779
v  -19.3360 126.8021 82.5790
v  8.6926 124.8244 84.1914
v  -5.0392 125.7934 83.8910
v  8.6926 124.8244 83.2250
v  -5.0393 125.7934 82.9245
v  21.1756 123.4639 84.5597
v  21.1756 123.4639 83.5932
v  43.4739 116.4248 86.6821
v  43.5294 116.3924 86.0786
# 48 vertices

vn 0.0495 0.0892 -0.9948
vn 0.0738 0.0953 -0.9927
vn 0.0496 0.0893 -0.9948
vn 0.0739 0.0959 -0.9926
vn 0.6083 -0.1724 -0.7748
vn 0.7546 -0.3816 -0.5338
vn 0.6262 -0.2486 -0.7390
vn 0.7573 -0.4216 -0.4987
vn 0.0230 0.0916 -0.9955
vn 0.0290 0.0896 -0.9956
vn 0.0290 0.0897 -0.9955
vn 0.0880 0.1135 -0.9896
vn 0.0883 0.1137 -0.9896
vn 0.0944 0.1228 -0.9879
vn 0.0950 0.1240 -0.9877
vn 0.0178 0.0938 -0.9954
vn 0.0216 0.0939 -0.9953
vn 0.0117 0.0864 -0.9962
vn 0.0136 0.0904 -0.9958
vn 0.0117 0.0865 -0.9962
vn 0.0136 0.0905 -0.9958
vn 0.7880 -0.4485 -0.4218
vn 0.7866 -0.4497 -0.4231
vn 0.8079 -0.4845 -0.3356
vn 0.8071 -0.4852 -0.3364
vn 0.8210 -0.5111 -0.2542
vn 0.8210 -0.5112 -0.2541
vn -0.4361 -0.8999 0.0001
vn -0.2813 -0.9596 0.0000
vn -0.4214 -0.9069 0.0001
vn -0.2732 -0.9620 -0.0000
vn -0.0634 -0.9980 -0.0000
vn -0.0575 -0.9983 -0.0000
vn -0.0633 -0.9980 -0.0000
vn -0.0547 -0.9985 0.0001
vn -0.0684 -0.9977 -0.0000
vn -0.0683 -0.9977 -0.0000
vn -0.0897 -0.9960 -0.0000
vn -0.0704 -0.9975 0.0000
vn -0.0891 -0.9960 0.0000
vn -0.1569 -0.9876 -0.0000
vn -0.1540 -0.9881 -0.0000
vn -0.5038 -0.8638 0.0001
# 43 vertex normals

vt 0.6140 0.2667 0.0000
vt 0.6333 0.2649 0.0000
vt 0.6139 0.2676 0.0000
vt 0.6330 0.2659 0.0000
vt 0.6522 0.2623 0.0000
vt 0.6527 0.2619 0.0000
vt 0.6518 0.2630 0.0000
vt 0.5707 0.2693 0.0000
vt 0.5707 0.2683 0.0000
vt 0.5929 0.2687 0.0000
vt 0.5930 0.2677 0.0000
vt 0.6469 0.2642 0.0000
vt 0.6472 0.2633 0.0000
vt 0.5209 0.2695 0.0000
vt 0.5475 0.2689 0.0000
vt 0.5209 0.2705 0.0000
vt 0.5474 0.2699 0.0000
vt 0.4567 0.2705 0.0000
vt 0.4886 0.2701 0.0000
vt 0.4567 0.2715 0.0000
vt 0.4885 0.2710 0.0000
vt 0.6536 0.2588 0.0000
vt 0.6530 0.2596 0.0000
vt 0.6531 0.2599 0.0000
vt 0.6525 0.2602 0.0000
vt 0.6529 0.2610 0.0000
vt 0.6523 0.2612 0.0000
vt 0.6463 0.2467 0.0000
vt 0.6306 0.2493 0.0000
vt 0.6463 0.2458 0.0000
vt 0.6306 0.2484 0.0000
vt 0.5210 0.2529 0.0000
vt 0.4887 0.2534 0.0000
vt 0.5210 0.2512 0.0000
vt 0.4887 0.2517 0.0000
vt 0.4567 0.2538 0.0000
vt 0.4567 0.2522 0.0000
vt 0.5476 0.2522 0.0000
vt 0.5476 0.2506 0.0000
vt 0.5931 0.2511 0.0000
vt 0.5708 0.2516 0.0000
vt 0.5931 0.2495 0.0000
vt 0.5708 0.2501 0.0000
vt 0.6134 0.2504 0.0000
vt 0.6134 0.2488 0.0000
vt 0.6498 0.2457 0.0000
vt 0.6499 0.2450 0.0000
# 47 texture coords

g P712_18A5_R_DaS_P712_18A5_R_E
usemtl paint_whiteSG
s 1
f 139/139/139 140/140/140 141/141/141 
f 140/140/140 142/142/142 141/141/141 
s 2
f 143/143/143 144/144/144 145/145/145 
f 144/144/144 146/143/146 145/145/145 
s 1
f 147/146/147 148/147/147 149/148/148 
f 148/147/147 150/149/149 149/148/148 
f 149/148/148 150/149/149 141/141/141 
f 150/149/149 139/139/139 141/141/141 
f 151/150/150 152/151/151 145/145/152 
f 152/151/151 143/143/153 145/145/152 
f 140/140/140 152/151/151 142/142/142 
f 152/151/151 151/150/150 142/142/142 
f 153/152/154 154/153/155 155/154/154 
f 154/153/155 156/155/155 155/154/154 
f 154/153/155 148/147/147 156/155/155 
f 148/147/147 147/146/147 156/155/155 
f 157/156/156 158/157/157 159/158/158 
f 158/157/157 160/159/159 159/158/158 
f 158/157/157 153/152/154 160/159/159 
f 153/152/154 155/154/154 160/159/159 
s 7
f 161/160/160 162/161/161 163/162/162 
f 162/161/161 164/163/163 163/162/162 
f 144/144/144 165/164/164 146/143/146 
f 165/164/164 166/165/165 146/143/146 
f 163/162/162 164/163/163 165/164/164 
f 164/163/163 166/165/165 165/164/164 
s 9
f 167/166/166 168/167/167 169/168/168 
f 168/167/167 170/169/169 169/168/168 
f 171/170/170 172/171/171 173/172/172 
f 172/171/171 174/173/171 173/172/172 
f 172/171/171 175/174/173 174/173/171 
f 175/174/173 176/175/173 174/173/171 
f 177/176/174 171/170/170 178/177/175 
f 171/170/170 173/172/172 178/177/175 
f 179/178/176 180/179/177 181/180/178 
f 180/179/177 182/181/177 181/180/178 
f 183/182/179 179/178/176 184/183/180 
f 179/178/176 181/180/178 184/183/180 
f 168/167/167 183/182/179 170/169/169 
f 183/182/179 184/183/180 170/169/169 
f 180/179/177 177/176/174 182/181/177 
f 177/176/174 178/177/175 182/181/177 
f 185/184/181 167/166/166 186/185/181 
f 167/166/166 169/168/168 186/185/181 
# 44 faces

