# 3ds Max Wavefront OBJ Exporter v0.97b - (c)2007 guruware
# File Created: 12.10.2015 14:51:47

mtllib H712_285B_R.mtl

#
# object H712_285B_R_1_DTaSI_H712_285B_R
#

v  -9.5619 102.0535 75.8123
v  -8.5583 95.9241 78.6421
v  6.1840 100.8270 76.3443
v  6.9485 95.6465 78.9076
v  11.8890 64.7197 89.6823
v  9.6446 78.9536 85.1645
v  -3.4452 64.9981 89.5369
v  -5.7212 78.9536 85.1645
v  8.3380 87.0433 82.1323
v  -7.0961 87.1778 82.0036
v  -18.7864 102.4199 75.5139
v  -17.3901 96.0767 79.0258
v  53.7220 78.9826 85.1645
v  66.0759 79.0143 85.2561
v  51.0717 88.8675 82.1084
v  69.5106 64.2102 90.1005
v  57.4965 63.9946 90.1285
v  19.1496 86.9526 82.2399
v  20.4799 78.9538 85.1645
v  22.8433 64.4839 89.8119
v  35.0206 78.9589 85.1645
v  36.6581 64.1990 89.9715
v  45.6059 78.9721 85.1645
v  47.9473 64.0854 90.0576
v  34.2255 87.5256 82.2141
v  38.1098 47.8093 95.2966
v  49.5587 47.2651 95.5838
v  25.4735 48.3803 94.9841
v  14.3869 48.8787 94.7102
v  -0.9188 49.5046 94.3836
v  59.7587 46.7803 95.8397
v  71.3428 46.2074 96.1339
v  -9.9071 65.1186 89.6055
v  -6.3156 49.7215 94.2717
v  -13.1342 78.9536 85.1645
v  -15.3522 87.2518 82.5335
v  78.2924 64.9443 89.8621
v  76.8101 71.2067 87.7333
v  82.8624 45.6371 96.4253
v  17.5951 95.2117 79.1919
v  18.1514 99.3739 77.2875
v  31.5838 94.2001 79.6562
v  29.9544 97.9409 78.2177
v  43.7777 88.2792 82.1350
v  42.8928 93.5257 80.2560
# 45 vertices

vn 0.0104 0.4338 0.9010
vn 0.0159 0.3905 0.9205
vn -0.0091 0.4380 0.8989
vn -0.0092 0.3859 0.9225
vn -0.0044 0.3016 0.9534
vn -0.0013 0.3186 0.9479
vn 0.0021 0.2987 0.9543
vn -0.0001 0.3231 0.9464
vn -0.0050 0.3506 0.9365
vn 0.0127 0.3545 0.9350
vn -0.0092 0.4828 0.8757
vn 0.0296 0.4198 0.9071
vn -0.0051 0.3051 0.9523
vn -0.0036 0.3092 0.9510
vn -0.0115 0.3016 0.9534
vn -0.0017 0.3146 0.9492
vn -0.0047 0.3128 0.9498
vn -0.0073 0.3452 0.9385
vn -0.0024 0.3175 0.9482
vn -0.0045 0.3052 0.9523
vn -0.0023 0.3131 0.9497
vn -0.0047 0.3086 0.9512
vn -0.0023 0.3086 0.9512
vn -0.0045 0.3114 0.9503
vn -0.0121 0.3388 0.9408
vn -0.0084 0.3094 0.9509
vn -0.0083 0.3123 0.9499
vn -0.0084 0.3059 0.9520
vn -0.0081 0.3024 0.9532
vn -0.0064 0.2993 0.9541
vn -0.0076 0.3152 0.9490
vn -0.0075 0.3184 0.9479
vn 0.0130 0.2985 0.9543
vn -0.0020 0.2964 0.9551
vn 0.0145 0.3209 0.9470
vn 0.0584 0.3504 0.9348
vn -0.0032 0.3193 0.9477
vn 0.0061 0.3148 0.9492
vn -0.0081 0.3201 0.9473
vn -0.0059 0.3711 0.9286
vn -0.0073 0.4166 0.9090
vn -0.0173 0.3519 0.9359
vn -0.0310 0.3470 0.9374
vn -0.0175 0.3215 0.9468
vn -0.0286 0.3339 0.9422
# 45 vertex normals

vt 0.6621 0.1894 0.0000
vt 0.6662 0.1695 0.0000
vt 0.7093 0.1880 0.0000
vt 0.7125 0.1710 0.0000
vt 0.7326 0.0742 0.0000
vt 0.7234 0.1183 0.0000
vt 0.6868 0.0726 0.0000
vt 0.6776 0.1158 0.0000
vt 0.7181 0.1438 0.0000
vt 0.6721 0.1418 0.0000
vt 0.6345 0.1892 0.0000
vt 0.6399 0.1686 0.0000
vt 0.8548 0.1256 0.0000
vt 0.8916 0.1277 0.0000
vt 0.8452 0.1560 0.0000
vt 0.9044 0.0818 0.0000
vt 0.8686 0.0792 0.0000
vt 0.7504 0.1452 0.0000
vt 0.7557 0.1201 0.0000
vt 0.7652 0.0752 0.0000
vt 0.7991 0.1225 0.0000
vt 0.8065 0.0765 0.0000
vt 0.8306 0.1242 0.0000
vt 0.8401 0.0779 0.0000
vt 0.7939 0.1491 0.0000
vt 0.8136 0.0254 0.0000
vt 0.8478 0.0255 0.0000
vt 0.7758 0.0252 0.0000
vt 0.7427 0.0251 0.0000
vt 0.6970 0.0247 0.0000
vt 0.8783 0.0255 0.0000
vt 0.9129 0.0255 0.0000
vt 0.6675 0.0720 0.0000
vt 0.6809 0.0245 0.0000
vt 0.6556 0.1146 0.0000
vt 0.6475 0.1408 0.0000
vt 0.9304 0.0855 0.0000
vt 0.9249 0.1050 0.0000
vt 0.9474 0.0255 0.0000
vt 0.7447 0.1720 0.0000
vt 0.7452 0.1849 0.0000
vt 0.7827 0.1669 0.0000
vt 0.7807 0.1819 0.0000
vt 0.8236 0.1531 0.0000
vt 0.8200 0.1696 0.0000
# 45 texture coords

g H712_285B_R_1_DTaSI_H712_285B_R
usemtl windowglass_1SG
s 1
f 1/1/1 2/2/2 3/3/3 
f 3/3/3 2/2/2 4/4/4 
f 5/5/5 6/6/6 7/7/7 
f 7/7/7 6/6/6 8/8/8 
f 6/6/6 9/9/9 8/8/8 
f 8/8/8 9/9/9 10/10/10 
f 11/11/11 12/12/12 1/1/1 
f 1/1/1 12/12/12 2/2/2 
f 13/13/13 14/14/14 15/15/15 
f 16/16/16 14/14/14 17/17/17 
f 17/17/17 14/14/14 13/13/13 
f 9/9/9 6/6/6 18/18/18 
f 18/18/18 6/6/6 19/19/19 
f 20/20/20 19/19/19 5/5/5 
f 5/5/5 19/19/19 6/6/6 
f 21/21/21 22/22/22 23/23/23 
f 23/23/23 22/22/22 24/24/24 
f 18/18/18 19/19/19 25/25/25 
f 25/25/25 19/19/19 21/21/21 
f 22/22/22 21/21/21 20/20/20 
f 20/20/20 21/21/21 19/19/19 
f 22/22/22 26/26/26 24/24/24 
f 24/24/24 26/26/26 27/27/27 
f 26/26/26 22/22/22 28/28/28 
f 28/28/28 22/22/22 20/20/20 
f 28/28/28 20/20/20 29/29/29 
f 29/29/29 20/20/20 5/5/5 
f 29/29/29 5/5/5 30/30/30 
f 30/30/30 5/5/5 7/7/7 
f 17/17/17 31/31/31 16/16/16 
f 16/16/16 31/31/31 32/32/32 
f 33/33/33 34/34/34 7/7/7 
f 7/7/7 34/34/34 30/30/30 
f 7/7/7 8/8/8 33/33/33 
f 33/33/33 8/8/8 35/35/35 
f 8/8/8 10/10/10 35/35/35 
f 35/35/35 10/10/10 36/36/36 
f 37/37/37 38/38/38 16/16/16 
f 16/16/16 38/38/38 14/14/14 
f 16/16/16 32/32/32 37/37/37 
f 37/37/37 32/32/32 39/39/39 
f 40/40/40 41/41/41 4/4/4 
f 4/4/4 41/41/41 3/3/3 
f 40/40/40 42/42/42 41/41/41 
f 41/41/41 42/42/42 43/43/43 
f 10/10/10 2/2/2 36/36/36 
f 36/36/36 2/2/2 12/12/12 
f 9/9/9 4/4/4 10/10/10 
f 10/10/10 4/4/4 2/2/2 
f 18/18/18 40/40/40 9/9/9 
f 9/9/9 40/40/40 4/4/4 
f 25/25/25 42/42/42 18/18/18 
f 18/18/18 42/42/42 40/40/40 
f 23/23/23 44/44/44 21/21/21 
f 21/21/21 44/44/44 25/25/25 
f 45/45/45 44/44/44 15/15/15 
f 24/24/24 27/27/27 17/17/17 
f 17/17/17 27/27/27 31/31/31 
f 23/23/23 24/24/24 13/13/13 
f 13/13/13 24/24/24 17/17/17 
f 44/44/44 23/23/23 15/15/15 
f 15/15/15 23/23/23 13/13/13 
f 44/44/44 45/45/45 42/42/42 
f 42/42/42 45/45/45 43/43/43 
f 25/25/25 44/44/44 42/42/42 
# 65 faces

