# 3ds Max Wavefront OBJ Exporter v0.97b - (c)2007 guruware
# File Created: 12.10.2015 14:53:15

mtllib H712_325B_R.mtl

#
# object H712_325B_R_1_DTaSI_H712_325B_R
#

v  -28.2840 99.0170 77.5842
v  -28.4996 102.6126 75.5924
v  -43.2062 99.0172 77.4489
v  -43.4677 102.7722 75.4916
v  -26.8152 78.9536 85.1645
v  -27.4710 87.6532 82.2114
v  -41.6482 78.9536 85.1645
v  -42.3327 87.6532 82.1085
v  -25.1207 50.6734 93.9577
v  -26.0187 65.6605 89.3704
v  -39.7834 51.0686 93.8256
v  -40.7594 65.8464 89.2356
v  -42.7732 93.2085 80.0349
v  -27.8903 93.2147 80.2331
v  -91.4169 52.4603 93.3600
v  -92.6317 66.5005 89.0168
v  -96.2531 52.5907 93.3164
v  -97.4910 66.5617 88.9963
v  -93.7092 78.9536 85.1645
v  -98.5890 78.9536 85.1645
v  -94.4635 87.6532 82.1085
v  -99.3504 87.6532 82.2677
v  -99.8374 93.2173 80.1860
v  -94.9450 93.2073 80.0354
v  -95.4288 99.0078 77.4294
v  -95.7742 103.3299 75.1394
v  -100.3259 98.9997 77.4316
v  -100.6818 103.3822 75.1063
v  -56.9529 99.0151 77.4432
v  -57.2201 102.9188 75.3990
v  -56.5206 93.2073 80.0354
v  -56.0759 87.6532 82.1085
v  -55.3788 78.9536 85.1645
v  -54.4656 66.0192 89.1778
v  -53.4332 51.4365 93.7025
v  -82.7247 99.0101 77.4338
v  -83.0446 103.1942 75.2251
v  -82.2569 93.2073 80.0354
v  -81.7872 87.6532 82.1085
v  -81.0516 78.9536 85.1645
v  -80.0273 66.3415 89.0700
v  -78.8724 52.1222 93.4731
v  -69.4352 99.0126 77.4386
v  -69.7166 103.0521 75.3148
v  -68.9962 93.2073 80.0354
v  -68.5441 87.6532 82.1085
v  -67.8325 78.9536 85.1645
v  -66.8835 66.1758 89.1254
v  -65.7964 51.7698 93.5910
# 49 vertices

vn -0.0100 0.4396 0.8981
vn -0.0067 0.4803 0.8771
vn -0.0031 0.4298 0.9029
vn -0.0008 0.4623 0.8867
vn -0.0016 0.3076 0.9515
vn -0.0039 0.3285 0.9445
vn -0.0010 0.3098 0.9508
vn -0.0044 0.3376 0.9413
vn -0.0007 0.2926 0.9562
vn -0.0038 0.2976 0.9547
vn -0.0018 0.2954 0.9554
vn -0.0021 0.2971 0.9548
vn -0.0056 0.3797 0.9251
vn -0.0101 0.3764 0.9264
vn -0.0005 0.2956 0.9553
vn -0.0003 0.2955 0.9553
vn -0.0006 0.2955 0.9554
vn -0.0003 0.2954 0.9554
vn 0.0000 0.3109 0.9505
vn 0.0041 0.3096 0.9509
vn 0.0070 0.3375 0.9413
vn 0.0305 0.3323 0.9427
vn 0.0226 0.3889 0.9210
vn 0.0081 0.3823 0.9240
vn 0.0015 0.4379 0.8990
vn -0.0009 0.4682 0.8836
vn -0.0005 0.4477 0.8942
vn -0.0010 0.4686 0.8834
vn -0.0004 0.4308 0.9024
vn -0.0008 0.4640 0.8858
vn -0.0001 0.3798 0.9251
vn 0.0000 0.3386 0.9409
vn 0.0000 0.3106 0.9505
vn -0.0003 0.2963 0.9551
vn -0.0005 0.2964 0.9551
vn -0.0004 0.4339 0.9010
vn -0.0007 0.4669 0.8843
vn -0.0001 0.3806 0.9247
vn 0.0000 0.3105 0.9506
vn -0.0003 0.2958 0.9553
vn -0.0006 0.2958 0.9552
vn -0.0004 0.4323 0.9017
vn -0.0007 0.4655 0.8851
vn -0.0001 0.3801 0.9249
vn -0.0003 0.2961 0.9552
vn -0.0006 0.2961 0.9552
# 46 vertex normals

vt 0.6233 0.1792 0.0000
vt 0.6222 0.1910 0.0000
vt 0.5742 0.1777 0.0000
vt 0.5730 0.1900 0.0000
vt 0.6301 0.1134 0.0000
vt 0.6271 0.1419 0.0000
vt 0.5814 0.1119 0.0000
vt 0.5782 0.1404 0.0000
vt 0.6386 0.0206 0.0000
vt 0.6341 0.0698 0.0000
vt 0.5903 0.0204 0.0000
vt 0.5856 0.0689 0.0000
vt 0.5762 0.1586 0.0000
vt 0.6252 0.1602 0.0000
vt 0.4204 0.0197 0.0000
vt 0.4150 0.0658 0.0000
vt 0.4045 0.0197 0.0000
vt 0.3990 0.0655 0.0000
vt 0.4102 0.1066 0.0000
vt 0.3942 0.1061 0.0000
vt 0.4068 0.1351 0.0000
vt 0.3908 0.1346 0.0000
vt 0.3886 0.1529 0.0000
vt 0.4047 0.1533 0.0000
vt 0.4025 0.1724 0.0000
vt 0.4009 0.1865 0.0000
vt 0.3864 0.1718 0.0000
vt 0.3848 0.1862 0.0000
vt 0.5290 0.1763 0.0000
vt 0.5277 0.1891 0.0000
vt 0.5310 0.1572 0.0000
vt 0.5331 0.1390 0.0000
vt 0.5362 0.1105 0.0000
vt 0.5405 0.0680 0.0000
vt 0.5454 0.0202 0.0000
vt 0.4443 0.1736 0.0000
vt 0.4428 0.1874 0.0000
vt 0.4464 0.1546 0.0000
vt 0.4485 0.1364 0.0000
vt 0.4518 0.1079 0.0000
vt 0.4565 0.0665 0.0000
vt 0.4617 0.0199 0.0000
vt 0.4880 0.1750 0.0000
vt 0.4866 0.1883 0.0000
vt 0.4900 0.1560 0.0000
vt 0.4921 0.1377 0.0000
vt 0.4953 0.1092 0.0000
vt 0.4997 0.0673 0.0000
vt 0.5047 0.0201 0.0000
# 49 texture coords

g H712_325B_R_1_DTaSI_H712_325B_R
usemtl windowglass_1SG
s 1
f 1/1/1 2/2/2 3/3/3 
f 3/3/3 2/2/2 4/4/4 
f 5/5/5 6/6/6 7/7/7 
f 7/7/7 6/6/6 8/8/8 
f 9/9/9 10/10/10 11/11/11 
f 11/11/11 10/10/10 12/12/12 
f 10/10/10 5/5/5 12/12/12 
f 12/12/12 5/5/5 7/7/7 
f 13/13/13 8/8/8 14/14/14 
f 14/14/14 8/8/8 6/6/6 
f 15/15/15 16/16/16 17/17/17 
f 17/17/17 16/16/16 18/18/18 
f 16/16/16 19/19/19 18/18/18 
f 18/18/18 19/19/19 20/20/20 
f 19/19/19 21/21/21 20/20/20 
f 20/20/20 21/21/21 22/22/22 
f 23/23/23 22/22/22 24/24/24 
f 24/24/24 22/22/22 21/21/21 
f 25/25/25 26/26/26 27/27/27 
f 27/27/27 26/26/26 28/28/28 
f 14/14/14 1/1/1 13/13/13 
f 13/13/13 1/1/1 3/3/3 
f 24/24/24 25/25/25 23/23/23 
f 23/23/23 25/25/25 27/27/27 
f 3/3/3 4/4/4 29/29/29 
f 29/29/29 4/4/4 30/30/30 
f 13/13/13 3/3/3 31/31/31 
f 31/31/31 3/3/3 29/29/29 
f 8/8/8 13/13/13 32/32/32 
f 32/32/32 13/13/13 31/31/31 
f 7/7/7 8/8/8 33/33/33 
f 33/33/33 8/8/8 32/32/32 
f 12/12/12 7/7/7 34/34/34 
f 34/34/34 7/7/7 33/33/33 
f 11/11/11 12/12/12 35/35/35 
f 35/35/35 12/12/12 34/34/34 
f 36/36/36 37/37/37 25/25/25 
f 25/25/25 37/37/37 26/26/26 
f 38/38/38 36/36/36 24/24/24 
f 24/24/24 36/36/36 25/25/25 
f 39/39/32 38/38/38 21/21/21 
f 21/21/21 38/38/38 24/24/24 
f 40/40/39 39/39/32 19/19/19 
f 19/19/19 39/39/32 21/21/21 
f 41/41/40 40/40/39 16/16/16 
f 16/16/16 40/40/39 19/19/19 
f 42/42/41 41/41/40 15/15/15 
f 15/15/15 41/41/40 16/16/16 
f 43/43/42 44/44/43 36/36/36 
f 36/36/36 44/44/43 37/37/37 
f 45/45/44 43/43/42 38/38/38 
f 38/38/38 43/43/42 36/36/36 
f 46/46/32 45/45/44 39/39/32 
f 39/39/32 45/45/44 38/38/38 
f 47/47/39 46/46/32 40/40/39 
f 40/40/39 46/46/32 39/39/32 
f 48/48/45 47/47/39 41/41/40 
f 41/41/40 47/47/39 40/40/39 
f 49/49/46 48/48/45 42/42/41 
f 42/42/41 48/48/45 41/41/40 
f 29/29/29 30/30/30 43/43/42 
f 43/43/42 30/30/30 44/44/43 
f 31/31/31 29/29/29 45/45/44 
f 45/45/44 29/29/29 43/43/42 
f 32/32/32 31/31/31 46/46/32 
f 46/46/32 31/31/31 45/45/44 
f 33/33/33 32/32/32 47/47/39 
f 47/47/39 32/32/32 46/46/32 
f 34/34/34 33/33/33 48/48/45 
f 48/48/45 33/33/33 47/47/39 
f 35/35/35 34/34/34 49/49/46 
f 49/49/46 34/34/34 48/48/45 
# 72 faces

