# 3ds Max Wavefront OBJ Exporter v0.97b - (c)2007 guruware
# File Created: 12.10.2015 14:50:09

mtllib H712_226A_R.mtl

#
# object H712_226A_R_1_D_H712_226A_R
#

v  -33.8013 -44.9090 105.3481
v  -33.8013 -47.1223 105.3502
v  -21.5586 -44.9092 105.3476
v  -21.5586 -47.1223 105.3502
v  -33.8013 -47.5611 105.0936
v  -21.5586 -47.5611 105.0936
v  -21.5586 -47.7097 99.9493
v  -33.8013 -47.7097 99.9493
v  -21.5586 -44.4692 105.0936
v  -21.5586 -44.3240 99.9493
v  -33.8013 -44.4692 105.0936
v  -33.8013 -44.3240 99.9493
v  -95.6354 -44.4692 99.9493
v  -95.4734 -44.5839 104.8945
v  -95.0143 -44.3240 99.9493
v  -95.0143 -44.4692 105.0936
v  -95.0143 -44.9080 105.3502
v  -95.6354 -44.9080 105.0936
v  -95.0143 -47.1223 105.3502
v  -95.6354 -47.1223 105.0936
v  -95.0143 -47.5611 105.0936
v  -95.4734 -47.4498 104.8945
v  -95.0143 -47.7097 99.9493
v  -95.6354 -47.5611 99.9493
v  -95.8413 -47.1223 99.9493
v  -95.8413 -44.9080 99.9493
v  27.4118 -44.4692 105.0936
v  27.4118 -44.9101 105.3460
v  39.6544 -44.4692 105.0936
v  39.6544 -44.9103 105.3455
v  39.6544 -44.3240 99.9493
v  27.4118 -44.3240 99.9493
v  39.6544 -47.7097 99.9493
v  27.4118 -47.7097 99.9493
v  39.6544 -47.5611 105.0936
v  27.4118 -47.5611 105.0936
v  27.4118 -47.1223 105.3502
v  39.6544 -47.1223 105.3502
v  -70.5291 -47.5611 105.0936
v  -58.2865 -47.5611 105.0936
v  -70.5291 -47.1223 105.3502
v  -58.2865 -47.1223 105.3502
v  -58.2865 -47.7097 99.9493
v  -70.5291 -47.7097 99.9493
v  -58.2865 -44.3240 99.9493
v  -70.5291 -44.3240 99.9493
v  -58.2865 -44.4692 105.0936
v  -70.5291 -44.4692 105.0936
v  -70.5291 -44.9084 105.3493
v  -58.2865 -44.9086 105.3489
v  -9.3160 -44.4692 105.0936
v  -9.3160 -44.9095 105.3472
v  -9.3160 -44.3240 99.9493
v  -9.3160 -47.7097 99.9493
v  -9.3160 -47.5611 105.0936
v  -9.3160 -47.1223 105.3502
v  -82.7717 -47.5611 105.0936
v  -82.7717 -47.1223 105.3502
v  -82.7717 -47.7097 99.9493
v  -82.7717 -44.3240 99.9493
v  -82.7717 -44.4692 105.0936
v  -82.7717 -44.9082 105.3498
v  64.1396 -44.4692 105.0936
v  64.1396 -44.9107 105.3447
v  76.3822 -44.4692 105.0936
v  76.3822 -44.9109 105.3443
v  76.3822 -44.3240 99.9493
v  64.1396 -44.3240 99.9493
v  76.3822 -47.7097 99.9493
v  64.1396 -47.7097 99.9493
v  76.3822 -47.5611 105.0936
v  64.1396 -47.5611 105.0936
v  64.1396 -47.1223 105.3502
v  76.3822 -47.1223 105.3502
v  15.1692 -44.4692 105.0936
v  15.1692 -44.9099 105.3464
v  15.1692 -47.1223 105.3502
v  15.1692 -47.5611 105.0936
v  15.1692 -47.7097 99.9493
v  15.1692 -44.3240 99.9493
v  88.6248 -44.4692 105.0936
v  88.6248 -44.9111 105.3438
v  88.6248 -44.3240 99.9493
v  88.6248 -47.7097 99.9493
v  88.6248 -47.5611 105.0936
v  88.6248 -47.1223 105.3502
v  2.9266 -44.4692 105.0936
v  2.9266 -44.9097 105.3468
v  2.9266 -44.3240 99.9493
v  2.9266 -47.7097 99.9493
v  2.9266 -47.5611 105.0936
v  2.9266 -47.1223 105.3502
v  51.8970 -44.4692 105.0936
v  51.8970 -44.9105 105.3451
v  51.8970 -44.3240 99.9493
v  51.8970 -47.7097 99.9493
v  51.8970 -47.5611 105.0936
v  51.8970 -47.1223 105.3502
v  100.8675 -44.4692 105.0936
v  100.8675 -44.9114 105.3434
v  100.8675 -44.3240 99.9493
v  100.8675 -47.7097 99.9493
v  100.8675 -47.5611 105.0936
v  100.8675 -47.1223 105.3502
v  -46.0439 -44.3240 99.9493
v  -46.0439 -47.7097 99.9493
v  -46.0439 -47.5611 105.0936
v  -46.0439 -47.1223 105.3502
v  -46.0439 -44.9088 105.3485
v  -46.0439 -44.4692 105.0936
# 110 vertices

vn 0.0000 0.0962 0.9954
vn 0.0000 0.0010 1.0000
vn 0.0000 0.0012 1.0000
vn 0.0000 -0.5047 0.8633
vn 0.0000 -0.9996 0.0289
vn 0.0000 0.9996 0.0282
vn -0.2275 0.9733 0.0300
vn -0.2515 0.9675 0.0275
vn -0.0107 0.9995 0.0283
vn -0.0072 0.9996 0.0282
vn -0.0192 0.0954 0.9953
vn -0.3803 0.0868 0.9208
vn -0.0199 0.0000 0.9998
vn -0.3818 0.0000 0.9243
vn -0.0070 -0.9996 0.0289
vn -0.2459 -0.9689 0.0281
vn -0.0110 -0.9995 0.0289
vn -0.2325 -0.9722 0.0295
vn -0.9980 -0.0482 0.0399
vn -0.9965 -0.0738 0.0404
vn -0.8880 -0.4584 0.0357
vn -0.9046 -0.4245 0.0392
vn -0.0181 -0.5046 0.8632
vn -0.0140 -0.5067 0.8620
vn -0.3617 -0.5453 0.7562
vn -0.3053 -0.6006 0.7390
vn -0.9980 0.0481 0.0399
vn -0.8862 0.4619 0.0357
vn -0.9965 0.0738 0.0404
vn -0.9046 0.4245 0.0395
vn 0.0000 0.5007 0.8656
vn 0.0000 0.4999 0.8661
vn -0.3624 0.5474 0.7543
vn -0.0181 0.5046 0.8632
vn 0.0000 0.0000 -1.0000
vn 0.0000 0.4967 0.8679
vn 0.0000 0.4959 0.8684
vn 0.0000 0.0019 1.0000
vn 0.0000 0.0021 1.0000
vn 0.0000 0.5031 0.8642
vn 0.0000 0.5023 0.8647
vn 0.0000 0.0004 1.0000
vn 0.0000 0.0006 1.0000
vn 0.0000 0.4991 0.8665
vn 0.0000 0.0013 1.0000
vn 0.0000 0.5039 0.8637
vn 0.0000 0.0002 1.0000
vn 0.0000 0.4943 0.8693
vn 0.0000 0.4935 0.8698
vn 0.0000 0.0025 1.0000
vn 0.0000 0.0027 1.0000
vn 0.0000 0.4975 0.8675
vn 0.0000 0.0017 1.0000
vn 0.0000 0.4927 0.8702
vn 0.0000 0.0029 1.0000
vn 0.0000 0.4983 0.8670
vn 0.0000 0.0015 1.0000
vn 0.0000 0.4951 0.8688
vn 0.0000 0.0023 1.0000
vn 0.0000 0.4919 0.8707
vn 0.0000 0.0030 1.0000
vn 0.0000 0.0008 1.0000
vn 0.0000 0.5015 0.8651
# 63 vertex normals

g H712_226A_R_1_D_H712_226A_R
usemtl diffuse_black_plasticSG
s 1
f 1//1 2//2 3//1 
f 3//1 2//2 4//3 
s 2
f 5//4 6//4 2//4 
f 2//4 6//4 4//4 
s 3
f 7//5 6//5 8//5 
f 8//5 6//5 5//5 
s 4
f 9//6 10//6 11//6 
f 11//6 10//6 12//6 
f 13//7 14//8 15//9 
f 15//9 14//8 16//10 
s 1
f 17//11 18//12 19//13 
f 19//13 18//12 20//14 
s 3
f 21//15 22//16 23//17 
f 23//17 22//16 24//18 
s 8
f 20//19 25//20 22//21 
f 22//21 25//20 24//22 
s 2
f 21//23 19//24 22//25 
f 22//25 19//24 20//26 
s 8
f 18//27 14//28 26//29 
f 26//29 14//28 13//30 
s 1
f 11//31 1//1 9//32 
f 9//32 1//1 3//1 
f 18//12 17//11 14//33 
f 14//33 17//11 16//34 
s 8
f 26//29 25//20 18//27 
f 18//27 25//20 20//19 
s 12
f 10//35 7//35 12//35 
f 12//35 7//35 8//35 
s 13
f 15//35 23//35 13//35 
f 13//35 23//35 26//35 
f 26//35 23//35 25//35 
f 23//35 24//35 25//35 
s 1
f 27//36 28//1 29//37 
f 29//37 28//1 30//1 
s 4
f 29//6 31//6 27//6 
f 27//6 31//6 32//6 
s 12
f 31//35 33//35 32//35 
f 32//35 33//35 34//35 
s 3
f 33//5 35//5 34//5 
f 34//5 35//5 36//5 
s 2
f 37//4 36//4 38//4 
f 38//4 36//4 35//4 
s 1
f 28//1 37//38 30//1 
f 30//1 37//38 38//39 
s 2
f 39//4 40//4 41//4 
f 41//4 40//4 42//4 
s 3
f 43//5 40//5 44//5 
f 44//5 40//5 39//5 
s 12
f 45//35 43//35 46//35 
f 46//35 43//35 44//35 
s 4
f 47//6 45//6 48//6 
f 48//6 45//6 46//6 
s 1
f 48//40 49//1 47//41 
f 47//41 49//1 50//1 
f 49//1 41//42 50//1 
f 50//1 41//42 42//43 
f 9//32 3//1 51//44 
f 51//44 3//1 52//1 
s 4
f 51//6 53//6 9//6 
f 9//6 53//6 10//6 
s 12
f 53//35 54//35 10//35 
f 10//35 54//35 7//35 
s 3
f 54//5 55//5 7//5 
f 7//5 55//5 6//5 
s 2
f 4//4 6//4 56//4 
f 56//4 6//4 55//4 
s 1
f 3//1 4//3 52//1 
f 52//1 4//3 56//45 
s 2
f 57//4 39//4 58//4 
f 58//4 39//4 41//4 
s 3
f 44//5 39//5 59//5 
f 59//5 39//5 57//5 
s 12
f 46//35 44//35 60//35 
f 60//35 44//35 59//35 
s 4
f 48//6 46//6 61//6 
f 61//6 46//6 60//6 
s 1
f 61//46 62//1 48//40 
f 48//40 62//1 49//1 
f 62//1 58//47 49//1 
f 49//1 58//47 41//42 
f 63//48 64//1 65//49 
f 65//49 64//1 66//1 
s 4
f 65//6 67//6 63//6 
f 63//6 67//6 68//6 
s 12
f 67//35 69//35 68//35 
f 68//35 69//35 70//35 
s 3
f 69//5 71//5 70//5 
f 70//5 71//5 72//5 
s 2
f 73//4 72//4 74//4 
f 74//4 72//4 71//4 
s 1
f 64//1 73//50 66//1 
f 66//1 73//50 74//51 
f 75//52 76//1 27//36 
f 27//36 76//1 28//1 
f 76//1 77//53 28//1 
f 28//1 77//53 37//38 
s 2
f 77//4 78//4 37//4 
f 37//4 78//4 36//4 
s 3
f 34//5 36//5 79//5 
f 79//5 36//5 78//5 
s 12
f 32//35 34//35 80//35 
f 80//35 34//35 79//35 
s 4
f 27//6 32//6 75//6 
f 75//6 32//6 80//6 
s 1
f 65//49 66//1 81//54 
f 81//54 66//1 82//1 
s 4
f 81//6 83//6 65//6 
f 65//6 83//6 67//6 
s 12
f 83//35 84//35 67//35 
f 67//35 84//35 69//35 
s 3
f 84//5 85//5 69//5 
f 69//5 85//5 71//5 
s 2
f 74//4 71//4 86//4 
f 86//4 71//4 85//4 
s 1
f 66//1 74//51 82//1 
f 82//1 74//51 86//55 
f 51//44 52//1 87//56 
f 87//56 52//1 88//1 
s 4
f 87//6 89//6 51//6 
f 51//6 89//6 53//6 
s 12
f 89//35 90//35 53//35 
f 53//35 90//35 54//35 
s 3
f 90//5 91//5 54//5 
f 54//5 91//5 55//5 
s 2
f 56//4 55//4 92//4 
f 92//4 55//4 91//4 
s 1
f 52//1 56//45 88//1 
f 88//1 56//45 92//57 
f 29//37 30//1 93//58 
f 93//58 30//1 94//1 
s 4
f 93//6 95//6 29//6 
f 29//6 95//6 31//6 
s 12
f 95//35 96//35 31//35 
f 31//35 96//35 33//35 
s 3
f 96//5 97//5 33//5 
f 33//5 97//5 35//5 
s 2
f 38//4 35//4 98//4 
f 98//4 35//4 97//4 
s 1
f 30//1 38//39 94//1 
f 94//1 38//39 98//59 
f 87//56 88//1 75//52 
f 75//52 88//1 76//1 
f 88//1 92//57 76//1 
f 76//1 92//57 77//53 
s 2
f 92//4 91//4 77//4 
f 77//4 91//4 78//4 
s 3
f 79//5 78//5 90//5 
f 90//5 78//5 91//5 
s 12
f 80//35 79//35 89//35 
f 89//35 79//35 90//35 
s 4
f 75//6 80//6 87//6 
f 87//6 80//6 89//6 
s 1
f 93//58 94//1 63//48 
f 63//48 94//1 64//1 
f 94//1 98//59 64//1 
f 64//1 98//59 73//50 
s 2
f 98//4 97//4 73//4 
f 73//4 97//4 72//4 
s 3
f 70//5 72//5 96//5 
f 96//5 72//5 97//5 
s 12
f 68//35 70//35 95//35 
f 95//35 70//35 96//35 
s 4
f 63//6 68//6 93//6 
f 93//6 68//6 95//6 
s 1
f 81//54 82//1 99//60 
f 99//60 82//1 100//1 
s 4
f 99//6 101//6 81//6 
f 81//6 101//6 83//6 
s 12
f 101//35 102//35 83//35 
f 83//35 102//35 84//35 
s 3
f 102//5 103//5 84//5 
f 84//5 103//5 85//5 
s 2
f 86//4 85//4 104//4 
f 104//4 85//4 103//4 
s 1
f 82//1 86//55 100//1 
f 100//1 86//55 104//61 
s 2
f 21//23 57//4 19//24 
f 19//24 57//4 58//4 
s 3
f 59//5 57//5 23//17 
f 23//17 57//5 21//15 
s 12
f 60//35 59//35 15//35 
f 15//35 59//35 23//35 
s 4
f 61//6 60//6 16//10 
f 16//10 60//6 15//9 
s 1
f 16//34 17//11 61//46 
f 61//46 17//11 62//1 
f 19//13 58//47 17//11 
f 17//11 58//47 62//1 
s 12
f 105//35 106//35 45//35 
f 45//35 106//35 43//35 
s 3
f 106//5 107//5 43//5 
f 43//5 107//5 40//5 
s 2
f 42//4 40//4 108//4 
f 108//4 40//4 107//4 
s 1
f 50//1 42//43 109//1 
f 109//1 42//43 108//62 
f 47//41 50//1 110//63 
f 110//63 50//1 109//1 
s 4
f 110//6 105//6 47//6 
f 47//6 105//6 45//6 
s 2
f 107//4 5//4 108//4 
f 108//4 5//4 2//4 
s 3
f 8//5 5//5 106//5 
f 106//5 5//5 107//5 
s 12
f 12//35 8//35 105//35 
f 105//35 8//35 106//35 
s 4
f 11//6 12//6 110//6 
f 110//6 12//6 105//6 
s 1
f 110//63 109//1 11//31 
f 11//31 109//1 1//1 
f 109//1 108//62 1//1 
f 1//1 108//62 2//2 
# 212 faces

