# 3ds Max Wavefront OBJ Exporter v0.97b - (c)2007 guruware
# File Created: 13.11.2015 17:30:38

mtllib H033_305B_L.mtl

#
# object H033_305B_L_DTaSI_H033_305B_L
#

v  -54.0049 41.0087 -85.0448
v  -54.0063 46.6464 -83.2042
v  -43.0539 46.0752 -83.3617
v  -42.0663 40.2619 -85.1797
v  -45.8054 58.9797 -79.3367
v  -54.0095 59.2436 -79.1508
v  -54.0127 72.0949 -74.8207
v  -48.8726 72.0215 -74.9825
v  -54.0136 76.0334 -73.2078
v  -49.8448 76.1663 -73.2772
v  -62.8129 72.0341 -74.6275
v  -62.8056 59.3999 -78.9970
v  -70.5229 59.4494 -78.8755
v  -70.5338 71.8521 -74.4867
v  -62.7983 47.0238 -83.0899
v  -70.5118 47.3088 -82.9876
v  -77.5153 47.5499 -82.8843
v  -83.9540 71.3293 -74.3913
v  -77.5348 71.6142 -74.4065
v  -77.5251 59.4501 -78.7452
v  -83.9487 59.4193 -78.6300
v  -83.9432 47.7733 -82.7887
v  -113.3280 68.0733 -74.4528
v  -104.8241 69.3564 -74.3030
v  -104.8267 58.7450 -78.3958
v  -113.3295 58.1621 -78.3023
v  -96.7643 70.3490 -74.2971
v  -96.7666 59.1466 -78.4885
v  -96.7688 48.2106 -82.6119
v  -104.8292 48.4068 -82.4804
v  -113.3308 48.5484 -82.3346
v  -121.1605 66.6312 -74.6037
v  -121.1581 57.4430 -78.3207
v  -121.1383 48.6010 -82.2018
v  -90.0473 70.9613 -74.3081
v  -90.0466 59.3459 -78.5555
v  -90.0458 47.9948 -82.7068
v  -70.5070 41.8864 -84.8478
v  -62.7950 41.4913 -84.9440
v  -83.9408 42.5774 -84.6651
v  -77.5110 42.2384 -84.7541
v  -96.7698 43.3314 -84.4700
v  -90.0454 42.9312 -84.5785
v  -113.3314 44.2561 -84.1492
v  -104.8303 43.7924 -84.3200
v  -121.1096 44.6538 -83.9828
v  -62.8147 75.6949 -73.0969
v  -70.5364 75.3569 -72.9941
v  -77.5370 75.0184 -73.0116
v  -83.9552 74.6797 -73.0468
v  -90.0474 74.2280 -73.0115
v  -96.7636 73.4375 -73.1226
v  -104.8232 72.3085 -73.2345
v  -113.3274 70.8403 -73.3824
v  -121.1600 68.9717 -73.7093
# 55 vertices

vn 0.0047 0.3086 -0.9512
vn 0.0003 0.3053 -0.9523
vn -0.0000 0.3029 -0.9530
vn 0.0054 0.3048 -0.9524
vn -0.0083 0.3066 -0.9518
vn -0.0104 0.3129 -0.9497
vn -0.0186 0.3331 -0.9427
vn -0.0180 0.3248 -0.9456
vn -0.0249 0.3802 -0.9245
vn -0.0254 0.3770 -0.9259
vn -0.0197 0.3401 -0.9402
vn -0.0126 0.3214 -0.9469
vn -0.0152 0.3279 -0.9446
vn -0.0204 0.3448 -0.9385
vn -0.0022 0.3141 -0.9494
vn -0.0048 0.3202 -0.9474
vn -0.0066 0.3287 -0.9444
vn -0.0219 0.3453 -0.9382
vn -0.0188 0.3454 -0.9383
vn -0.0164 0.3334 -0.9427
vn -0.0153 0.3371 -0.9414
vn -0.0039 0.3357 -0.9419
vn -0.0394 0.3617 -0.9315
vn -0.0369 0.3556 -0.9339
vn -0.0282 0.3629 -0.9314
vn -0.0310 0.3741 -0.9269
vn -0.0320 0.3516 -0.9356
vn -0.0259 0.3539 -0.9349
vn -0.0098 0.3550 -0.9348
vn -0.0147 0.3692 -0.9292
vn -0.0175 0.3860 -0.9223
vn -0.0419 0.3664 -0.9295
vn -0.0318 0.3816 -0.9238
vn -0.0182 0.3958 -0.9182
vn -0.0270 0.3482 -0.9370
vn -0.0189 0.3441 -0.9387
vn -0.0035 0.3439 -0.9390
vn 0.0014 0.3244 -0.9459
vn 0.0030 0.3172 -0.9484
vn 0.0021 0.3392 -0.9407
vn 0.0009 0.3317 -0.9434
vn 0.0002 0.3573 -0.9340
vn 0.0026 0.3472 -0.9378
vn -0.0047 0.3886 -0.9214
vn -0.0026 0.3709 -0.9287
vn -0.0060 0.3999 -0.9165
vn -0.0260 0.3850 -0.9226
vn -0.0242 0.3872 -0.9217
vn -0.0185 0.3811 -0.9244
vn -0.0247 0.3733 -0.9274
vn -0.0325 0.3665 -0.9299
vn -0.0348 0.3552 -0.9341
vn -0.0395 0.3488 -0.9364
vn -0.0430 0.3534 -0.9345
vn -0.0474 0.3587 -0.9323
# 55 vertex normals

vt 0.6605 0.0111 0.0000
vt 0.6617 0.0331 0.0000
vt 0.6224 0.0340 0.0000
vt 0.6177 0.0116 0.0000
vt 0.6349 0.0834 0.0000
vt 0.6644 0.0823 0.0000
vt 0.6674 0.1327 0.0000
vt 0.6488 0.1336 0.0000
vt 0.6686 0.1485 0.0000
vt 0.6536 0.1500 0.0000
vt 0.6991 0.1303 0.0000
vt 0.6960 0.0806 0.0000
vt 0.7237 0.0788 0.0000
vt 0.7268 0.1277 0.0000
vt 0.6932 0.0322 0.0000
vt 0.7209 0.0311 0.0000
vt 0.7460 0.0302 0.0000
vt 0.7750 0.1223 0.0000
vt 0.7520 0.1251 0.0000
vt 0.7489 0.0770 0.0000
vt 0.7720 0.0753 0.0000
vt 0.7691 0.0293 0.0000
vt 0.8804 0.1028 0.0000
vt 0.8500 0.1098 0.0000
vt 0.8470 0.0675 0.0000
vt 0.8776 0.0632 0.0000
vt 0.8210 0.1155 0.0000
vt 0.8180 0.0710 0.0000
vt 0.8151 0.0275 0.0000
vt 0.8440 0.0261 0.0000
vt 0.8746 0.0245 0.0000
vt 0.9084 0.0954 0.0000
vt 0.9057 0.0586 0.0000
vt 0.9026 0.0227 0.0000
vt 0.7969 0.1195 0.0000
vt 0.7939 0.0735 0.0000
vt 0.7909 0.0285 0.0000
vt 0.7196 0.0098 0.0000
vt 0.6919 0.0105 0.0000
vt 0.7677 0.0088 0.0000
vt 0.7447 0.0092 0.0000
vt 0.8137 0.0081 0.0000
vt 0.7896 0.0084 0.0000
vt 0.8732 0.0071 0.0000
vt 0.8427 0.0077 0.0000
vt 0.9011 0.0066 0.0000
vt 0.7002 0.1451 0.0000
vt 0.7280 0.1419 0.0000
vt 0.7530 0.1387 0.0000
vt 0.7760 0.1357 0.0000
vt 0.7979 0.1325 0.0000
vt 0.8219 0.1278 0.0000
vt 0.8507 0.1215 0.0000
vt 0.8812 0.1138 0.0000
vt 0.9091 0.1048 0.0000
# 55 texture coords

g H033_305B_L_DTaSI_H033_305B_L
usemtl windowglass_1SG
s 1
f 1/1/1 2/2/2 3/3/3 
f 3/3/3 4/4/4 1/1/1 
f 5/5/5 3/3/3 2/2/2 
f 2/2/2 6/6/6 5/5/5 
f 6/6/6 7/7/7 8/8/8 
f 8/8/8 5/5/5 6/6/6 
f 7/7/7 9/9/9 10/10/10 
f 10/10/10 8/8/8 7/7/7 
f 11/11/11 12/12/12 13/13/13 
f 13/13/13 14/14/14 11/11/11 
f 7/7/7 6/6/6 12/12/12 
f 12/12/12 11/11/11 7/7/7 
f 2/2/2 15/15/15 6/6/6 
f 12/12/12 6/6/6 15/15/15 
f 15/15/15 16/16/16 12/12/12 
f 13/13/13 12/12/12 16/16/16 
f 16/16/16 17/17/17 13/13/13 
f 18/18/18 19/19/19 20/20/20 
f 20/20/20 21/21/21 18/18/18 
f 19/19/19 14/14/14 13/13/13 
f 13/13/13 20/20/20 19/19/19 
f 13/13/13 17/17/17 20/20/20 
f 22/22/22 21/21/21 20/20/20 
f 20/20/20 17/17/17 22/22/22 
f 23/23/23 24/24/24 25/25/25 
f 25/25/25 26/26/26 23/23/23 
f 24/24/24 27/27/27 28/28/28 
f 28/28/28 25/25/25 24/24/24 
f 29/29/29 30/30/30 25/25/25 
f 25/25/25 28/28/28 29/29/29 
f 30/30/30 31/31/31 26/26/26 
f 26/26/26 25/25/25 30/30/30 
f 32/32/32 23/23/23 26/26/26 
f 26/26/26 33/33/33 32/32/32 
f 31/31/31 34/34/34 33/33/33 
f 33/33/33 26/26/26 31/31/31 
f 27/27/27 35/35/35 36/36/36 
f 36/36/36 28/28/28 27/27/27 
f 35/35/35 18/18/18 21/21/21 
f 21/21/21 36/36/36 35/35/35 
f 22/22/22 37/37/37 21/21/21 
f 36/36/36 21/21/21 37/37/37 
f 37/37/37 29/29/29 36/36/36 
f 28/28/28 36/36/36 29/29/29 
f 38/38/38 16/16/16 15/15/15 
f 15/15/15 39/39/39 38/38/38 
f 2/2/2 1/1/1 39/39/39 
f 39/39/39 15/15/15 2/2/2 
f 40/40/40 22/22/22 17/17/17 
f 17/17/17 41/41/41 40/40/40 
f 16/16/16 38/38/38 41/41/41 
f 41/41/41 17/17/17 16/16/16 
f 42/42/42 29/29/29 37/37/37 
f 37/37/37 43/43/43 42/42/42 
f 22/22/22 40/40/40 43/43/43 
f 43/43/43 37/37/37 22/22/22 
f 44/44/44 31/31/31 30/30/30 
f 30/30/30 45/45/45 44/44/44 
f 29/29/29 42/42/42 45/45/45 
f 45/45/45 30/30/30 29/29/29 
f 31/31/31 44/44/44 46/46/46 
f 46/46/46 34/34/34 31/31/31 
f 7/7/7 11/11/11 47/47/47 
f 47/47/47 9/9/9 7/7/7 
f 11/11/11 14/14/14 48/48/48 
f 48/48/48 47/47/47 11/11/11 
f 14/14/14 19/19/19 49/49/49 
f 49/49/49 48/48/48 14/14/14 
f 19/19/19 18/18/18 50/50/50 
f 50/50/50 49/49/49 19/19/19 
f 18/18/18 35/35/35 51/51/51 
f 51/51/51 50/50/50 18/18/18 
f 35/35/35 27/27/27 52/52/52 
f 52/52/52 51/51/51 35/35/35 
f 27/27/27 24/24/24 53/53/53 
f 53/53/53 52/52/52 27/27/27 
f 24/24/24 23/23/23 54/54/54 
f 54/54/54 53/53/53 24/24/24 
f 23/23/23 32/32/32 55/55/55 
f 55/55/55 54/54/54 23/23/23 
# 80 faces

