# 3ds Max Wavefront OBJ Exporter v0.97b - (c)2007 guruware
# File Created: 13.11.2015 17:30:59

mtllib H033_324H_R.mtl

#
# object H033_324H_R_DTaSI_H033_324H_R
#

v  -127.9561 65.1046 74.8082
v  -122.0181 57.3397 78.3177
v  -122.0051 66.4414 74.6096
v  -127.9554 66.6186 74.1862
v  -127.9342 56.6294 78.4038
v  -127.7728 48.5536 82.0823
v  -122.0318 48.5947 82.1857
v  -133.6967 63.5391 75.1749
v  -133.6314 55.7253 78.5602
v  -133.0738 48.2661 82.1300
v  -138.9162 54.7054 78.8116
v  -138.1106 47.6790 82.2504
v  -138.3299 45.7247 83.3453
v  -135.2677 45.5067 83.4584
v  -127.5413 44.9476 83.8224
v  -122.0378 44.6962 83.9596
v  -131.7158 45.2540 83.6179
v  -122.0033 68.6796 73.7646
v  -133.6957 64.2660 74.7778
v  -138.9992 61.7074 75.5005
v  -140.4164 47.0870 82.4812
v  -144.8039 54.6936 78.3304
v  -144.8850 55.5306 77.9061
v  -139.7260 45.8246 83.2421
v  -141.4854 60.3059 75.9252
v  -142.3557 59.7129 76.1346
v  -143.0305 59.1619 76.3443
v  -143.7492 58.4317 76.6030
v  -144.2905 57.7423 76.8750
v  -144.7184 56.8749 77.2511
v  -144.8168 56.4719 77.4399
# 31 vertices

vn -0.0489 0.3869 0.9208
vn -0.0333 0.3996 0.9161
vn -0.0542 0.3732 0.9262
vn -0.0555 0.3809 0.9229
vn -0.0335 0.4046 0.9139
vn -0.0239 0.4189 0.9077
vn -0.0228 0.4135 0.9102
vn -0.0613 0.3986 0.9151
vn -0.0408 0.4158 0.9085
vn -0.0284 0.4304 0.9022
vn -0.0518 0.4338 0.8995
vn -0.0303 0.4396 0.8977
vn -0.0169 0.4921 0.8704
vn -0.0199 0.4501 0.8927
vn -0.0125 0.4284 0.9035
vn -0.0115 0.4238 0.9057
vn -0.0162 0.4390 0.8983
vn -0.0560 0.3527 0.9341
vn -0.0772 0.4064 0.9104
vn -0.0657 0.4172 0.9064
vn -0.0522 0.4500 0.8915
vn -0.0739 0.4446 0.8927
vn -0.0740 0.4445 0.8927
vn -0.0360 0.4954 0.8679
vn -0.0572 0.4269 0.9025
vn -0.0743 0.4300 0.8998
vn -0.0808 0.4249 0.9016
vn -0.0874 0.4221 0.9023
vn -0.0833 0.4268 0.9005
vn -0.0799 0.4336 0.8976
vn -0.0746 0.4442 0.8928
# 31 vertex normals

vt 0.9297 0.9128 0.0000
vt 0.9065 0.9428 0.0000
vt 0.9080 0.9071 0.0000
vt 0.9299 0.9069 0.0000
vt 0.9281 0.9463 0.0000
vt 0.9260 0.9787 0.0000
vt 0.9049 0.9777 0.0000
vt 0.9505 0.9195 0.0000
vt 0.9489 0.9505 0.0000
vt 0.9454 0.9807 0.0000
vt 0.9681 0.9552 0.0000
vt 0.9638 0.9837 0.0000
vt 0.9642 0.9920 0.0000
vt 0.9529 0.9923 0.0000
vt 0.9244 0.9933 0.0000
vt 0.9042 0.9933 0.0000
vt 0.9398 0.9927 0.0000
vt 0.9084 0.8985 0.0000
vt 0.9507 0.9165 0.0000
vt 0.9697 0.9269 0.0000
vt 0.9721 0.9864 0.0000
vt 0.9898 0.9555 0.0000
vt 0.9903 0.9521 0.0000
vt 0.9693 0.9917 0.0000
vt 0.9786 0.9326 0.0000
vt 0.9817 0.9351 0.0000
vt 0.9841 0.9373 0.0000
vt 0.9866 0.9402 0.0000
vt 0.9885 0.9430 0.0000
vt 0.9899 0.9466 0.0000
vt 0.9902 0.9482 0.0000
# 31 texture coords

g H033_324H_R_DTaSI_H033_324H_R
usemtl windowglass_1SG
s 1
f 1/1/1 2/2/2 3/3/3 
f 3/3/3 4/4/4 1/1/1 
f 1/1/1 5/5/5 2/2/2 
f 5/5/5 6/6/6 7/7/7 
f 7/7/7 2/2/2 5/5/5 
f 5/5/5 1/1/1 8/8/8 
f 8/8/8 9/9/9 5/5/5 
f 9/9/9 10/10/10 6/6/6 
f 6/6/6 5/5/5 9/9/9 
f 11/11/11 12/12/12 10/10/10 
f 10/10/10 9/9/9 11/11/11 
f 12/12/12 13/13/13 14/14/14 
f 7/7/7 6/6/6 15/15/15 
f 15/15/15 16/16/16 7/7/7 
f 10/10/10 12/12/12 14/14/14 
f 14/14/14 17/17/17 10/10/10 
f 17/17/17 15/15/15 6/6/6 
f 6/6/6 10/10/10 17/17/17 
f 3/3/3 18/18/18 4/4/4 
f 19/19/19 8/8/8 1/1/1 
f 1/1/1 4/4/4 19/19/19 
f 20/20/20 9/9/9 8/8/8 
f 8/8/8 19/19/19 20/20/20 
f 12/12/12 11/11/11 21/21/21 
f 22/22/22 21/21/21 11/11/11 
f 11/11/11 23/23/23 22/22/22 
f 13/13/13 12/12/12 21/21/21 
f 21/21/21 24/24/24 13/13/13 
f 11/11/11 9/9/9 20/20/20 
f 20/20/20 25/25/25 11/11/11 
f 25/25/25 26/26/26 27/27/27 
f 27/27/27 11/11/11 25/25/25 
f 27/27/27 28/28/28 11/11/11 
f 28/28/28 29/29/29 30/30/30 
f 30/30/30 11/11/11 28/28/28 
f 30/30/30 31/31/31 23/23/23 
f 23/23/23 11/11/11 30/30/30 
# 37 faces

