# 3ds Max Wavefront OBJ Exporter v0.97b - (c)2007 guruware
# File Created: 13.11.2015 17:27:58

mtllib H033_181C_L.mtl

#
# object H033_181C_L_DaS_H033_181C_L
#

v  35.5177 73.7069 -74.0605
v  31.8951 74.6688 -73.8294
v  32.3960 75.3734 -72.2194
v  36.2075 74.2936 -72.4914
v  111.7207 40.4601 -81.8849
v  107.1050 42.5146 -81.5252
v  108.8054 43.1781 -80.1376
v  113.5264 41.1062 -80.4951
v  116.6166 38.4827 -82.2451
v  118.5405 39.0769 -80.8750
v  102.6842 44.5430 -81.1659
v  97.0455 47.0960 -80.6863
v  98.4957 47.8785 -79.2448
v  104.2601 45.2558 -79.7634
v  88.9612 50.6815 -79.9839
v  79.2707 54.9840 -79.1497
v  80.5005 55.9035 -77.5874
v  90.3039 51.5307 -78.4838
v  88.8274 50.2697 -80.2049
v  96.8790 46.7036 -80.9120
v  79.1307 54.3944 -79.4446
v  69.2279 59.4791 -78.3077
v  59.6769 63.6299 -77.5197
v  60.6111 64.7485 -75.8881
v  70.3151 60.4855 -76.6973
v  69.0825 58.6689 -78.6839
v  59.5272 62.5568 -77.9854
v  51.1088 67.0300 -76.8181
v  43.0127 69.8065 -76.1806
v  43.7171 71.2106 -74.6042
v  51.9079 68.2879 -75.2003
v  51.0009 66.0236 -77.2318
v  42.9360 68.9026 -76.5360
v  34.8620 72.1689 -75.5816
v  31.1969 73.0874 -75.3259
v  34.8209 71.6107 -75.7929
v  121.6983 36.7919 -82.5523
v  123.7511 37.2632 -81.2313
v  100.4883 45.2105 -81.1538
v  102.4084 43.8924 -81.5585
v  100.6547 44.6798 -81.4123
v  106.8074 41.9909 -81.8706
v  111.3245 39.8561 -82.3134
v  116.0021 37.6797 -82.8602
v  119.7816 39.0990 -79.9457
v  124.8407 37.1622 -80.4748
v  114.7578 41.2053 -79.4952
v  110.0528 43.3138 -79.0738
v  105.4497 45.4241 -78.6617
v  99.6150 48.0785 -78.1009
v  91.3608 51.7516 -77.3072
v  81.5018 56.1456 -76.3419
v  71.2293 60.7586 -75.3362
v  61.4038 65.0605 -74.4520
v  52.6507 68.6775 -73.6631
v  44.4086 71.6803 -73.0771
v  31.0293 72.5757 -75.5203
v  32.3938 75.3745 -72.2181
v  36.1334 74.2226 -72.4474
v  120.5508 35.5171 -83.6224
# 60 vertices

vn 0.1848 0.7761 -0.6030
vn 0.1611 0.7661 -0.6222
vn 0.2076 0.8741 -0.4392
vn 0.2366 0.8780 -0.4161
vn 0.2232 0.6525 -0.7241
vn 0.2353 0.6491 -0.7234
vn 0.2900 0.7509 -0.5934
vn 0.2766 0.7606 -0.5874
vn 0.1966 0.6598 -0.7252
vn 0.2563 0.7889 -0.5585
vn 0.2457 0.6709 -0.6997
vn 0.2418 0.6784 -0.6938
vn 0.2926 0.7672 -0.5708
vn 0.2948 0.7572 -0.5828
vn 0.2367 0.6721 -0.7016
vn 0.2334 0.6600 -0.7141
vn 0.2986 0.7778 -0.5530
vn 0.2928 0.7728 -0.5631
vn 0.1168 0.4380 -0.8914
vn 0.1248 0.4516 -0.8835
vn 0.1104 0.4207 -0.9005
vn 0.2221 0.6425 -0.7334
vn 0.2008 0.6289 -0.7511
vn 0.2897 0.7922 -0.5371
vn 0.3013 0.7847 -0.5417
vn 0.1013 0.4032 -0.9095
vn 0.0863 0.3885 -0.9174
vn 0.1714 0.6204 -0.7653
vn 0.1403 0.6145 -0.7764
vn 0.2180 0.7891 -0.5743
vn 0.2596 0.7956 -0.5474
vn 0.0661 0.3761 -0.9242
vn 0.0462 0.3651 -0.9298
vn 0.1222 0.6200 -0.7750
vn 0.0991 0.5988 -0.7947
vn 0.0334 0.3580 -0.9331
vn 0.1926 0.7004 -0.6872
vn 0.2661 0.8441 -0.4656
vn 0.1338 0.4619 -0.8768
vn 0.1433 0.4729 -0.8694
vn 0.1375 0.4683 -0.8728
vn 0.1485 0.4845 -0.8621
vn 0.1483 0.5084 -0.8482
vn 0.1458 0.5197 -0.8418
vn 0.2972 0.8725 -0.3879
vn 0.2920 0.8851 -0.3624
vn 0.3126 0.8325 -0.4574
vn 0.3244 0.8144 -0.4813
vn 0.3290 0.8134 -0.4798
vn 0.3273 0.8224 -0.4653
vn 0.3276 0.8308 -0.4499
vn 0.3342 0.8379 -0.4315
vn 0.3409 0.8480 -0.4057
vn 0.3353 0.8612 -0.3819
vn 0.3103 0.8729 -0.3764
vn 0.2706 0.8786 -0.3936
vn 0.0217 0.3490 -0.9369
vn 0.1507 0.2575 0.9544
vn 0.2056 0.5200 0.8290
vn 0.1547 0.2787 0.9478
vn 0.1309 0.5551 -0.8214
# 61 vertex normals

vt 0.4619 0.2534 0.0000
vt 0.4686 0.2554 0.0000
vt 0.4673 0.2586 0.0000
vt 0.4602 0.2564 0.0000
vt 0.3165 0.1893 0.0000
vt 0.3254 0.1936 0.0000
vt 0.3216 0.1961 0.0000
vt 0.3127 0.1915 0.0000
vt 0.3078 0.1853 0.0000
vt 0.3041 0.1872 0.0000
vt 0.3341 0.1980 0.0000
vt 0.3448 0.2029 0.0000
vt 0.3417 0.2058 0.0000
vt 0.3306 0.2005 0.0000
vt 0.3603 0.2095 0.0000
vt 0.3789 0.2172 0.0000
vt 0.3763 0.2205 0.0000
vt 0.3575 0.2125 0.0000
vt 0.3606 0.2086 0.0000
vt 0.3451 0.2021 0.0000
vt 0.3792 0.2160 0.0000
vt 0.3983 0.2253 0.0000
vt 0.4165 0.2328 0.0000
vt 0.4145 0.2364 0.0000
vt 0.3959 0.2287 0.0000
vt 0.3985 0.2236 0.0000
vt 0.4168 0.2306 0.0000
vt 0.4328 0.2392 0.0000
vt 0.4480 0.2446 0.0000
vt 0.4465 0.2485 0.0000
vt 0.4310 0.2429 0.0000
vt 0.4330 0.2371 0.0000
vt 0.4482 0.2428 0.0000
vt 0.4633 0.2494 0.0000
vt 0.4702 0.2514 0.0000
vt 0.4634 0.2483 0.0000
vt 0.2998 0.1822 0.0000
vt 0.2966 0.1839 0.0000
vt 0.3383 0.1992 0.0000
vt 0.3347 0.1965 0.0000
vt 0.3379 0.1982 0.0000
vt 0.3261 0.1924 0.0000
vt 0.3173 0.1879 0.0000
vt 0.3089 0.1837 0.0000
vt 0.3017 0.1880 0.0000
vt 0.2952 0.1843 0.0000
vt 0.3099 0.1926 0.0000
vt 0.3187 0.1975 0.0000
vt 0.3278 0.2021 0.0000
vt 0.3392 0.2075 0.0000
vt 0.3551 0.2144 0.0000
vt 0.3740 0.2225 0.0000
vt 0.3937 0.2309 0.0000
vt 0.4125 0.2389 0.0000
vt 0.4291 0.2456 0.0000
vt 0.4447 0.2513 0.0000
vt 0.4705 0.2504 0.0000
vt 0.4602 0.2566 0.0000
vt 0.3018 0.1797 0.0000
# 59 texture coords

g H033_181C_L_DaS_H033_181C_L
usemtl paint_whiteSG
s 2
f 1/1/1 2/2/2 3/3/3 
f 3/3/3 4/4/4 1/1/1 
f 5/5/5 6/6/6 7/7/7 
f 7/7/7 8/8/8 5/5/5 
f 9/9/9 5/5/5 8/8/8 
f 8/8/8 10/10/10 9/9/9 
f 11/11/11 12/12/12 13/13/13 
f 13/13/13 14/14/14 11/11/11 
f 6/6/6 11/11/11 14/14/14 
f 14/14/14 7/7/7 6/6/6 
f 15/15/15 16/16/16 17/17/17 
f 17/17/17 18/18/18 15/15/15 
f 12/12/12 15/15/15 18/18/18 
f 18/18/18 13/13/13 12/12/12 
f 19/19/19 15/15/15 12/12/12 
f 12/12/12 20/20/20 19/19/19 
f 21/21/21 16/16/16 15/15/15 
f 15/15/15 19/19/19 21/21/21 
f 22/22/22 23/23/23 24/24/24 
f 24/24/24 25/25/25 22/22/22 
f 16/16/16 22/22/22 25/25/25 
f 25/25/25 17/17/17 16/16/16 
f 26/26/26 22/22/22 16/16/16 
f 16/16/16 21/21/21 26/26/26 
f 27/27/27 23/23/23 22/22/22 
f 22/22/22 26/26/26 27/27/27 
f 28/28/28 29/29/29 30/30/30 
f 30/30/30 31/31/31 28/28/28 
f 23/23/23 28/28/28 31/31/31 
f 31/31/31 24/24/24 23/23/23 
f 32/32/32 28/28/28 23/23/23 
f 23/23/23 27/27/27 32/32/32 
f 33/33/33 29/29/29 28/28/28 
f 28/28/28 32/32/32 33/33/33 
f 2/2/2 1/1/1 34/34/34 
f 34/34/34 35/35/35 2/2/2 
f 29/29/29 34/34/34 1/1/1 
f 1/1/1 30/30/30 29/29/29 
f 36/36/36 34/34/34 29/29/29 
f 29/29/29 33/33/33 36/36/36 
f 37/37/37 9/9/9 10/10/10 
f 10/10/10 38/38/38 37/37/37 
f 39/39/39 20/20/20 12/12/12 
f 12/12/12 11/11/11 39/39/39 
f 11/11/11 40/40/40 41/41/41 
f 41/41/41 39/39/39 11/11/11 
f 11/11/11 6/6/6 42/42/42 
f 42/42/42 40/40/40 11/11/11 
f 6/6/6 5/5/5 43/43/43 
f 43/43/43 42/42/42 6/6/6 
f 5/5/5 9/9/9 44/44/44 
f 44/44/44 43/43/43 5/5/5 
f 45/45/45 46/46/46 38/38/38 
f 38/38/38 10/10/10 45/45/45 
f 47/47/47 45/45/45 10/10/10 
f 10/10/10 8/8/8 47/47/47 
f 48/48/48 47/47/47 8/8/8 
f 8/8/8 7/7/7 48/48/48 
f 49/49/49 48/48/48 7/7/7 
f 7/7/7 14/14/14 49/49/49 
f 50/50/50 49/49/49 14/14/14 
f 14/14/14 13/13/13 50/50/50 
f 51/51/51 50/50/50 13/13/13 
f 13/13/13 18/18/18 51/51/51 
f 52/52/52 51/51/51 18/18/18 
f 18/18/18 17/17/17 52/52/52 
f 53/53/53 52/52/52 17/17/17 
f 17/17/17 25/25/25 53/53/53 
f 54/54/54 53/53/53 25/25/25 
f 25/25/25 24/24/24 54/54/54 
f 55/55/55 54/54/54 24/24/24 
f 24/24/24 31/31/31 55/55/55 
f 56/56/56 55/55/55 31/31/31 
f 31/31/31 30/30/30 56/56/56 
f 4/4/4 56/56/56 30/30/30 
f 30/30/30 1/1/1 4/4/4 
f 35/35/35 34/34/34 57/57/57 
f 57/57/57 34/34/34 36/36/36 
s 8
f 4/4/58 58/3/59 59/58/60 
s 2
f 9/9/9 37/37/37 60/59/61 
f 60/59/61 44/44/61 9/9/9 
# 81 faces

#
# object H033_181C_L_DaS_H033_181C_L_E
#

v  100.3952 44.8804 -80.5307
v  96.7900 46.3802 -80.2849
v  96.8790 46.7036 -80.9120
v  100.4883 45.2105 -81.1538
v  88.7446 49.9570 -79.5716
v  88.8274 50.2697 -80.2049
v  79.0525 54.0938 -78.8048
v  79.1307 54.3944 -79.4446
v  69.0113 58.3812 -78.0374
v  69.0825 58.6689 -78.6839
v  59.4681 62.2809 -77.3326
v  59.5272 62.5568 -77.9854
v  50.9569 65.7573 -76.5738
v  51.0009 66.0236 -77.2318
v  42.9060 68.6445 -75.8740
v  42.9360 68.9026 -76.5360
v  34.8015 71.3596 -75.1278
v  34.8209 71.6107 -75.7929
v  31.0946 72.3064 -74.8600
v  31.0293 72.5757 -75.5203
v  100.5431 44.4274 -80.7512
v  100.6547 44.6798 -81.4123
v  32.3938 75.3745 -72.2181
v  36.2075 74.2936 -72.4914
v  32.3960 75.3734 -72.2194
v  124.8407 37.1622 -80.4748
v  119.7816 39.0990 -79.9457
v  124.5074 36.4622 -80.4630
v  114.7578 41.2053 -79.4952
v  114.3394 40.3543 -79.4455
v  119.3428 38.1945 -79.9019
v  110.0528 43.3138 -79.0738
v  109.6549 42.5112 -79.0224
v  91.3608 51.7516 -77.3072
v  91.0483 51.1339 -77.2595
v  99.2654 47.3792 -78.0515
v  99.6150 48.0785 -78.1009
v  81.5018 56.1456 -76.3419
v  81.2331 55.6258 -76.2962
v  71.2293 60.7586 -75.3362
v  71.0069 60.3405 -75.2933
v  61.4038 65.0605 -74.4520
v  61.2256 64.7392 -74.4115
v  52.6507 68.6775 -73.6631
v  52.5117 68.4427 -73.6230
v  44.4086 71.6803 -73.0771
v  44.3040 71.5273 -73.0355
v  36.1334 74.2226 -72.4474
v  124.3829 36.2010 -80.4585
v  105.4497 45.4241 -78.6617
v  105.0730 44.6673 -78.6108
v  32.3312 75.3392 -72.1803
v  121.5886 36.3054 -82.0583
v  120.4687 35.1071 -83.0480
v  120.5508 35.5171 -83.6224
v  121.6983 36.7919 -82.5523
v  123.6015 36.6428 -80.9534
v  123.7511 37.2632 -81.2313
# 58 vertices

vn -0.3633 -0.8005 -0.4767
vn -0.3796 -0.7995 -0.4656
vn -0.3793 -0.7990 -0.4667
vn -0.3629 -0.7999 -0.4779
vn -0.3878 -0.8055 -0.4480
vn -0.3876 -0.8052 -0.4488
vn -0.3818 -0.8178 -0.4305
vn -0.3817 -0.8175 -0.4313
vn -0.3769 -0.8304 -0.4104
vn -0.3767 -0.8300 -0.4113
vn -0.3747 -0.8416 -0.3890
vn -0.3745 -0.8412 -0.3900
vn -0.3601 -0.8564 -0.3701
vn -0.3599 -0.8560 -0.3711
vn -0.3339 -0.8731 -0.3551
vn -0.3338 -0.8728 -0.3560
vn -0.2913 -0.8921 -0.3453
vn -0.2912 -0.8921 -0.3454
vn -0.2549 -0.9037 -0.3440
vn -0.2548 -0.9039 -0.3435
vn -0.9507 -0.1917 -0.2436
vn -0.9546 -0.1863 -0.2324
vn 0.2174 0.8759 -0.4306
vn 0.8142 -0.3803 0.4388
vn 0.0987 -0.0010 0.9951
vn 0.5430 -0.3104 0.7802
vn 0.0947 0.0110 0.9954
vn 0.0951 0.0116 0.9954
vn 0.0987 0.0004 0.9951
vn 0.0966 0.0156 0.9952
vn 0.0968 0.0159 0.9952
vn 0.1067 0.0226 0.9940
vn 0.1069 0.0229 0.9940
vn 0.1041 0.0184 0.9944
vn 0.1040 0.0181 0.9944
vn 0.1109 0.0299 0.9934
vn 0.1110 0.0302 0.9934
vn 0.1124 0.0419 0.9928
vn 0.1122 0.0424 0.9928
vn 0.1156 0.0606 0.9915
vn 0.1157 0.0612 0.9914
vn 0.1195 0.0976 0.9880
vn 0.1177 0.0998 0.9880
vn 0.1312 0.1747 0.9758
vn 0.1303 0.1771 0.9755
vn 0.1865 0.3667 0.9114
vn 0.1871 0.3686 0.9106
vn 0.0981 -0.0298 0.9947
vn 0.1002 0.0169 0.9948
vn 0.1004 0.0170 0.9948
vn 0.2101 0.5167 0.8300
vn 0.8039 -0.5324 -0.2650
vn 0.8203 -0.4880 -0.2983
vn 0.4477 -0.4745 -0.7579
vn 0.4343 -0.6882 -0.5812
vn 0.4604 -0.6466 -0.6083
vn 0.4932 -0.4160 -0.7640
# 57 vertex normals

vt 0.3389 0.1980 0.0000
vt 0.3457 0.2008 0.0000
vt 0.3451 0.2021 0.0000
vt 0.3383 0.1992 0.0000
vt 0.3611 0.2074 0.0000
vt 0.3606 0.2086 0.0000
vt 0.3797 0.2147 0.0000
vt 0.3792 0.2160 0.0000
vt 0.3990 0.2223 0.0000
vt 0.3985 0.2236 0.0000
vt 0.4173 0.2294 0.0000
vt 0.4168 0.2306 0.0000
vt 0.4335 0.2359 0.0000
vt 0.4330 0.2371 0.0000
vt 0.4487 0.2415 0.0000
vt 0.4482 0.2428 0.0000
vt 0.4639 0.2470 0.0000
vt 0.4634 0.2483 0.0000
vt 0.4707 0.2491 0.0000
vt 0.4705 0.2504 0.0000
vt 0.3384 0.1977 0.0000
vt 0.3379 0.1982 0.0000
vt 0.4673 0.2586 0.0000
vt 0.4602 0.2564 0.0000
vt 0.2952 0.1843 0.0000
vt 0.3017 0.1880 0.0000
vt 0.2948 0.1848 0.0000
vt 0.3099 0.1926 0.0000
vt 0.3091 0.1942 0.0000
vt 0.3010 0.1894 0.0000
vt 0.3187 0.1975 0.0000
vt 0.3179 0.1991 0.0000
vt 0.3551 0.2144 0.0000
vt 0.3546 0.2157 0.0000
vt 0.3386 0.2089 0.0000
vt 0.3392 0.2075 0.0000
vt 0.3740 0.2225 0.0000
vt 0.3736 0.2235 0.0000
vt 0.3937 0.2309 0.0000
vt 0.3934 0.2318 0.0000
vt 0.4125 0.2389 0.0000
vt 0.4123 0.2395 0.0000
vt 0.4291 0.2456 0.0000
vt 0.4290 0.2461 0.0000
vt 0.4447 0.2513 0.0000
vt 0.4447 0.2516 0.0000
vt 0.4602 0.2566 0.0000
vt 0.2946 0.1852 0.0000
vt 0.3278 0.2021 0.0000
vt 0.3271 0.2037 0.0000
vt 0.4674 0.2587 0.0000
vt 0.2991 0.1814 0.0000
vt 0.3009 0.1790 0.0000
vt 0.3018 0.1797 0.0000
vt 0.2998 0.1822 0.0000
vt 0.2960 0.1832 0.0000
vt 0.2966 0.1839 0.0000
# 57 texture coords

g H033_181C_L_DaS_H033_181C_L_E
usemtl paint_whiteSG
s 1
f 61/60/62 62/61/63 63/62/64 
f 63/62/64 64/63/65 61/60/62 
f 62/61/63 65/64/66 66/65/67 
f 66/65/67 63/62/64 62/61/63 
f 65/64/66 67/66/68 68/67/69 
f 68/67/69 66/65/67 65/64/66 
f 67/66/68 69/68/70 70/69/71 
f 70/69/71 68/67/69 67/66/68 
f 69/68/70 71/70/72 72/71/73 
f 72/71/73 70/69/71 69/68/70 
f 71/70/72 73/72/74 74/73/75 
f 74/73/75 72/71/73 71/70/72 
f 73/72/74 75/74/76 76/75/77 
f 76/75/77 74/73/75 73/72/74 
f 75/74/76 77/76/78 78/77/79 
f 78/77/79 76/75/77 75/74/76 
f 79/78/80 80/79/81 78/77/79 
f 78/77/79 77/76/78 79/78/80 
s off
f 81/80/82 61/60/82 64/63/82 
f 64/63/83 82/81/83 81/80/83 
s 2
f 83/82/84 84/83/84 85/82/84 
s 8
f 86/84/85 87/85/86 88/86/87 
f 89/87/88 90/88/89 91/89/90 
f 91/89/90 87/85/86 89/87/88 
f 92/90/91 93/91/92 90/88/89 
f 90/88/89 89/87/88 92/90/91 
f 94/92/93 95/93/94 96/94/95 
f 96/94/95 97/95/96 94/92/93 
f 98/96/97 99/97/98 95/93/94 
f 95/93/94 94/92/93 98/96/97 
f 100/98/99 101/99/100 99/97/98 
f 99/97/98 98/96/97 100/98/99 
f 102/100/101 103/101/102 101/99/100 
f 101/99/100 100/98/99 102/100/101 
f 104/102/103 105/103/104 103/101/102 
f 103/101/102 102/100/101 104/102/103 
f 106/104/105 107/105/106 105/103/104 
f 105/103/104 104/102/103 106/104/105 
f 84/83/107 108/106/108 107/105/106 
f 107/105/106 106/104/105 84/83/107 
f 88/86/87 87/85/86 91/89/90 
f 91/89/90 109/107/109 88/86/87 
f 110/108/110 111/109/111 93/91/92 
f 93/91/92 92/90/91 110/108/110 
f 97/95/96 96/94/95 111/109/111 
f 111/109/111 110/108/110 97/95/96 
s off
f 108/106/112 83/82/112 112/110/112 
f 113/111/113 114/112/113 115/113/113 
f 115/113/114 116/114/114 113/111/114 
s 10
f 117/115/115 113/111/116 116/114/117 
f 116/114/117 118/116/118 117/115/115 
f 88/86/87 117/115/115 118/116/118 
f 118/116/118 86/84/85 88/86/87 
# 53 faces

