# 3ds Max Wavefront OBJ Exporter v0.97b - (c)2007 guruware
# File Created: 13.11.2015 17:28:41

mtllib H033_184Q_R.mtl

#
# object H033_184Q_R_DTaSI_H033_184Q_R
#

v  79.2736 42.1085 83.5171
v  85.9114 40.3437 83.8115
v  86.6982 45.5466 82.0166
v  79.8881 48.2308 81.5274
v  78.9505 36.0856 85.2132
v  85.4368 35.2461 85.3255
v  90.3696 39.1895 84.0005
v  90.3285 34.6464 85.4069
v  85.2509 32.8420 86.1248
v  90.1762 32.5312 86.1521
v  78.8292 33.2719 86.0916
v  96.7917 39.6939 83.6474
v  98.0592 34.9056 85.2225
v  94.6702 32.2625 86.1901
v  95.9182 42.9936 82.5295
v  90.3649 44.0919 82.2739
v  95.7169 43.7531 82.1599
v  90.2728 46.1003 81.2248
v  87.4599 47.3431 80.9835
v  80.5869 50.3839 80.3714
v  98.8405 31.9538 86.2074
v  94.2605 32.2870 86.1852
v  73.8327 53.2541 79.8342
v  73.2301 50.8593 81.0465
v  72.7967 43.8366 83.2258
v  72.6385 36.9065 85.1028
v  72.5888 33.6924 86.0599
# 27 vertices

vn 0.0349 0.2880 0.9570
vn 0.0373 0.2981 0.9538
vn 0.0681 0.3533 0.9330
vn 0.0649 0.3447 0.9365
vn 0.0221 0.2788 0.9601
vn 0.0235 0.2908 0.9565
vn 0.0319 0.3093 0.9504
vn 0.0200 0.3081 0.9511
vn 0.0193 0.3118 0.9500
vn 0.0174 0.3247 0.9457
vn 0.0186 0.2976 0.9545
vn 0.0195 0.3220 0.9465
vn 0.0127 0.3207 0.9471
vn 0.0124 0.3207 0.9471
vn 0.0278 0.3503 0.9362
vn 0.0482 0.3586 0.9322
vn 0.0480 0.4596 0.8868
vn 0.0953 0.4599 0.8829
vn 0.1183 0.4515 0.8844
vn 0.1128 0.4404 0.8907
vn 0.0199 0.3212 0.9468
vn 0.0108 0.3295 0.9441
vn 0.1101 0.4341 0.8941
vn 0.0674 0.3486 0.9348
vn 0.0347 0.2851 0.9579
vn 0.0212 0.2724 0.9619
vn 0.0179 0.2908 0.9566
# 27 vertex normals

vt 0.2113 0.9560 0.0000
vt 0.1865 0.9609 0.0000
vt 0.1844 0.9408 0.0000
vt 0.2100 0.9326 0.0000
vt 0.2116 0.9785 0.0000
vt 0.1875 0.9802 0.0000
vt 0.1698 0.9641 0.0000
vt 0.1693 0.9813 0.0000
vt 0.1878 0.9894 0.0000
vt 0.1695 0.9895 0.0000
vt 0.2116 0.9892 0.0000
vt 0.1461 0.9606 0.0000
vt 0.1407 0.9787 0.0000
vt 0.1528 0.9896 0.0000
vt 0.1499 0.9482 0.0000
vt 0.1706 0.9452 0.0000
vt 0.1508 0.9451 0.0000
vt 0.1714 0.9368 0.0000
vt 0.1820 0.9329 0.0000
vt 0.2078 0.9234 0.0000
vt 0.1373 0.9898 0.0000
vt 0.1543 0.9896 0.0000
vt 0.2332 0.9145 0.0000
vt 0.2350 0.9245 0.0000
vt 0.2355 0.9512 0.0000
vt 0.2351 0.9769 0.0000
vt 0.2348 0.9890 0.0000
# 27 texture coords

g H033_184Q_R_DTaSI_H033_184Q_R
usemtl windowglass_1SG
s 1
f 1/1/1 2/2/2 3/3/3 
f 3/3/3 4/4/4 1/1/1 
f 5/5/5 6/6/6 2/2/2 
f 2/2/2 1/1/1 5/5/5 
f 7/7/7 2/2/2 6/6/6 
f 6/6/6 8/8/8 7/7/7 
f 8/8/8 6/6/6 9/9/9 
f 9/9/9 10/10/10 8/8/8 
f 11/11/11 9/9/9 6/6/6 
f 6/6/6 5/5/5 11/11/11 
f 7/7/7 8/8/8 12/12/12 
f 13/13/13 12/12/12 8/8/8 
f 8/8/8 14/14/14 13/13/13 
f 7/7/7 12/12/12 15/15/15 
f 15/15/15 16/16/16 7/7/7 
f 17/17/17 18/18/18 16/16/16 
f 16/16/16 15/15/15 17/17/17 
f 4/4/4 3/3/3 19/19/19 
f 19/19/19 20/20/20 4/4/4 
f 21/21/21 13/13/13 14/14/14 
f 14/14/14 8/8/8 22/22/22 
f 22/22/22 8/8/8 10/10/10 
f 2/2/2 7/7/7 16/16/16 
f 16/16/16 3/3/3 2/2/2 
f 18/18/18 19/19/19 3/3/3 
f 3/3/3 16/16/16 18/18/18 
f 20/20/20 23/23/23 24/24/24 
f 24/24/24 4/4/4 20/20/20 
f 4/4/4 24/24/24 25/25/25 
f 25/25/25 1/1/1 4/4/4 
f 1/1/1 25/25/25 26/26/26 
f 26/26/26 5/5/5 1/1/1 
f 5/5/5 26/26/26 27/27/27 
f 27/27/27 11/11/11 5/5/5 
# 34 faces

