# 3ds Max Wavefront OBJ Exporter v0.97b - (c)2007 guruware
# File Created: 26.10.2015 10:17:33

mtllib J715_8A_265B_L.mtl

#
# object J715_8A_265B_L_1_DTaSI_J715_8A_265B_L
#

v  17.1908 81.2333 -80.5276
v  25.2291 81.1981 -80.2552
v  18.6838 74.7665 -81.2187
v  28.7876 74.7753 -80.8537
v  20.2267 68.0677 -81.8398
v  13.7011 68.0677 -82.0021
v  12.6072 74.7650 -81.3720
v  15.7077 87.6293 -79.6900
v  10.4929 87.6219 -79.8331
v  14.2264 94.0168 -78.8492
v  9.4381 94.0168 -78.9817
v  11.5486 81.2206 -80.6792
v  4.0528 100.0483 -78.1941
v  8.4379 100.0483 -78.0662
v  4.6497 94.0168 -79.1143
v  -33.3513 81.1930 -81.5623
v  -33.3434 74.7608 -82.2478
v  -40.3932 81.1927 -81.6767
v  -40.3900 74.7608 -82.3621
v  -33.3801 100.0483 -78.9483
v  -33.3702 94.0167 -79.8533
v  -40.4025 100.0483 -79.0735
v  -40.3995 94.0167 -79.9747
v  -33.3607 87.6056 -80.7124
v  -40.3964 87.6053 -80.8302
v  -33.3365 68.0677 -82.8971
v  -40.3867 68.0677 -83.0118
v  -26.5549 81.1932 -81.4505
v  -26.5595 87.6056 -80.5972
v  -19.7584 100.0483 -78.7034
v  -19.7584 94.0167 -79.6160
v  -26.5692 100.0483 -78.8260
v  -26.5643 94.0167 -79.7347
v  -26.5475 68.0677 -82.7862
v  -26.5510 74.7608 -82.1379
v  -19.7584 81.1932 -81.3385
v  -19.7584 74.7608 -82.0278
v  12.8230 100.0483 -77.9380
v  13.8591 101.4698 -77.6102
v  15.0001 99.6709 -77.9288
v  7.1706 105.2289 -77.0816
v  3.5236 105.2954 -77.1797
v  -33.3909 105.2148 -77.9707
v  -41.7279 105.1974 -78.1316
v  -43.1244 104.9979 -78.1980
v  -44.6189 104.3469 -78.3487
v  -45.1768 100.0483 -79.1587
v  -46.0645 103.1988 -78.5936
v  -46.8099 102.1489 -78.8072
v  -47.3577 100.6316 -79.1028
v  -45.1375 94.0167 -80.0564
v  -47.4525 94.0167 -80.0950
v  -47.5804 81.1910 -81.7832
v  -47.5183 87.6058 -80.9530
v  -45.0619 81.1925 -81.7526
v  -45.0992 87.6053 -80.9090
v  -45.0306 74.7611 -82.4373
v  -47.6351 74.7606 -82.4811
v  -47.5939 69.7984 -82.9721
v  -45.0282 68.0677 -83.0872
v  -47.3771 68.2523 -83.1136
v  -46.8904 66.7709 -83.2487
v  -46.1208 65.5084 -83.3485
v  -45.1536 64.3983 -83.4339
v  -43.9435 63.5438 -83.4901
v  -40.3839 62.5323 -83.5252
v  -33.3314 62.5777 -83.4062
v  -19.7584 68.0677 -82.6752
v  -19.7584 62.5672 -83.1822
v  -26.5449 62.5726 -83.2941
v  21.4452 62.5372 -82.3130
v  14.5757 62.5404 -82.4897
v  32.4683 65.9916 -81.6172
v  31.9086 64.6744 -81.7647
v  32.1256 69.0353 -81.3237
v  32.4929 67.4327 -81.4722
v  30.9916 63.5712 -81.8999
v  29.7072 62.9103 -82.0061
v  28.3001 62.5568 -82.0901
v  12.5669 102.8160 -77.3921
v  18.1313 94.0168 -78.7073
v  21.6812 87.6087 -79.4875
v  -19.7584 87.6056 -80.4820
v  -6.0258 62.5541 -82.9402
v  -12.8921 62.5607 -83.0612
v  -6.1040 68.0677 -82.4340
v  -12.9312 68.0677 -82.5546
v  -6.1998 74.7613 -81.7850
v  -12.9791 74.7611 -81.9064
v  -6.2932 81.1947 -81.0942
v  -13.0258 81.1940 -81.2164
v  -6.3898 87.6066 -80.2336
v  -13.0741 87.6061 -80.3577
v  -6.4867 94.0167 -79.3633
v  -13.1225 94.0167 -79.4895
v  -6.5798 100.0483 -78.4461
v  -13.1691 100.0483 -78.5748
v  -6.6649 105.2709 -77.4351
v  7.7063 62.5438 -82.6663
v  0.8403 62.5489 -82.8033
v  7.1755 68.0677 -82.1644
v  0.5357 68.0677 -82.2992
v  6.5306 74.7635 -81.5253
v  0.1654 74.7626 -81.6551
v  5.9063 81.2081 -80.8309
v  -0.1935 81.2013 -80.9626
v  5.2780 87.6144 -79.9761
v  -0.5559 87.6105 -80.1048
v  -0.9185 94.0168 -79.2388
v  -1.2635 100.0483 -78.3201
v  9.3231 104.6583 -77.1307
v  11.0199 103.8579 -77.2361
v  -42.2284 62.8404 -83.5286
v  -19.7584 105.2429 -77.7081
# 114 vertices

vn 0.0311 0.1236 -0.9918
vn 0.0347 0.1202 -0.9921
vn 0.0313 0.1056 -0.9939
vn 0.0353 0.1045 -0.9939
vn 0.0303 0.0973 -0.9948
vn 0.0251 0.0950 -0.9952
vn 0.0253 0.1038 -0.9943
vn 0.0308 0.1373 -0.9901
vn 0.0269 0.1358 -0.9904
vn 0.0306 0.1450 -0.9890
vn 0.0276 0.1450 -0.9890
vn 0.0261 0.1225 -0.9921
vn 0.0257 0.1678 -0.9855
vn 0.0284 0.1687 -0.9853
vn 0.0247 0.1442 -0.9892
vn 0.0164 0.1187 -0.9928
vn 0.0160 0.1011 -0.9948
vn 0.0175 0.1594 -0.9871
vn 0.0172 0.1403 -0.9900
vn 0.0172 0.1396 -0.9901
vn 0.0168 0.1320 -0.9911
vn 0.0164 0.1320 -0.9911
vn 0.0164 0.0946 -0.9954
vn 0.0160 0.0950 -0.9954
vn 0.0164 0.1190 -0.9928
vn 0.0168 0.1327 -0.9910
vn 0.0183 0.1610 -0.9868
vn 0.0181 0.1412 -0.9898
vn 0.0177 0.1647 -0.9862
vn 0.0174 0.1412 -0.9898
vn 0.0162 0.0946 -0.9954
vn 0.0162 0.1011 -0.9947
vn 0.0172 0.1194 -0.9927
vn 0.0170 0.1015 -0.9947
vn 0.0301 0.1633 -0.9861
vn 0.0393 0.1976 -0.9795
vn 0.0343 0.1579 -0.9869
vn 0.0292 0.1931 -0.9807
vn 0.0264 0.1922 -0.9810
vn 0.0179 0.1861 -0.9824
vn 0.0191 0.1846 -0.9826
vn 0.0183 0.1839 -0.9828
vn 0.0183 0.1832 -0.9829
vn 0.0172 0.1564 -0.9875
vn 0.0221 0.1824 -0.9830
vn 0.0237 0.1831 -0.9828
vn 0.0164 0.1519 -0.9883
vn 0.0168 0.1396 -0.9901
vn 0.0164 0.1396 -0.9901
vn 0.0149 0.1179 -0.9929
vn 0.0160 0.1305 -0.9913
vn 0.0156 0.1183 -0.9929
vn 0.0164 0.1312 -0.9912
vn 0.0164 0.1015 -0.9947
vn 0.0164 0.1022 -0.9946
vn 0.0191 0.0973 -0.9951
vn 0.0168 0.0957 -0.9953
vn 0.0187 0.0950 -0.9953
vn 0.0206 0.0942 -0.9953
vn 0.0202 0.0931 -0.9955
vn 0.0195 0.0934 -0.9954
vn 0.0160 0.0927 -0.9956
vn 0.0164 0.0923 -0.9956
vn 0.0170 0.0942 -0.9954
vn 0.0170 0.0919 -0.9956
vn 0.0164 0.0919 -0.9956
vn 0.0280 0.0915 -0.9954
vn 0.0252 0.0915 -0.9955
vn 0.0347 0.0980 -0.9946
vn 0.0341 0.0957 -0.9948
vn 0.0351 0.1011 -0.9943
vn 0.0351 0.1000 -0.9944
vn 0.0338 0.0942 -0.9950
vn 0.0341 0.0946 -0.9949
vn 0.0336 0.0946 -0.9949
vn 0.0347 0.1969 -0.9798
vn 0.0347 0.1427 -0.9892
vn 0.0343 0.1381 -0.9898
vn 0.0175 0.1327 -0.9910
vn 0.0188 0.0919 -0.9956
vn 0.0176 0.0916 -0.9956
vn 0.0189 0.0946 -0.9953
vn 0.0176 0.0942 -0.9954
vn 0.0191 0.1018 -0.9946
vn 0.0178 0.1015 -0.9947
vn 0.0195 0.1202 -0.9926
vn 0.0180 0.1198 -0.9926
vn 0.0199 0.1342 -0.9907
vn 0.0184 0.1335 -0.9909
vn 0.0204 0.1427 -0.9896
vn 0.0189 0.1419 -0.9897
vn 0.0208 0.1625 -0.9865
vn 0.0194 0.1656 -0.9860
vn 0.0216 0.1900 -0.9815
vn 0.0228 0.0923 -0.9955
vn 0.0201 0.0919 -0.9956
vn 0.0226 0.0950 -0.9952
vn 0.0202 0.0946 -0.9953
vn 0.0228 0.1030 -0.9944
vn 0.0205 0.1022 -0.9946
vn 0.0235 0.1217 -0.9923
vn 0.0211 0.1205 -0.9925
vn 0.0242 0.1351 -0.9905
vn 0.0217 0.1342 -0.9907
vn 0.0223 0.1434 -0.9894
vn 0.0232 0.1671 -0.9857
vn 0.0291 0.1938 -0.9806
vn 0.0293 0.1938 -0.9806
vn 0.0164 0.0927 -0.9956
vn 0.0189 0.1884 -0.9819
# 110 vertex normals

vt 0.4866 0.1326 0.0000
vt 0.5281 0.1328 0.0000
vt 0.4942 0.1661 0.0000
vt 0.5463 0.1661 0.0000
vt 0.5021 0.2009 0.0000
vt 0.4685 0.2008 0.0000
vt 0.4629 0.1661 0.0000
vt 0.4791 0.0993 0.0000
vt 0.4522 0.0993 0.0000
vt 0.4716 0.0661 0.0000
vt 0.4469 0.0661 0.0000
vt 0.4575 0.1327 0.0000
vt 0.4192 0.0346 0.0000
vt 0.4418 0.0346 0.0000
vt 0.4222 0.0661 0.0000
vt 0.2260 0.1327 0.0000
vt 0.2260 0.1661 0.0000
vt 0.1897 0.1327 0.0000
vt 0.1897 0.1661 0.0000
vt 0.2261 0.0346 0.0000
vt 0.2261 0.0660 0.0000
vt 0.1899 0.0346 0.0000
vt 0.1898 0.0660 0.0000
vt 0.2260 0.0994 0.0000
vt 0.1898 0.0994 0.0000
vt 0.2260 0.2008 0.0000
vt 0.1896 0.2008 0.0000
vt 0.2611 0.1327 0.0000
vt 0.2611 0.0994 0.0000
vt 0.2964 0.0346 0.0000
vt 0.2963 0.0660 0.0000
vt 0.2612 0.0346 0.0000
vt 0.2612 0.0660 0.0000
vt 0.2610 0.2008 0.0000
vt 0.2610 0.1661 0.0000
vt 0.2961 0.1328 0.0000
vt 0.2960 0.1661 0.0000
vt 0.4645 0.0346 0.0000
vt 0.4699 0.0271 0.0000
vt 0.4757 0.0366 0.0000
vt 0.4354 0.0074 0.0000
vt 0.4166 0.0070 0.0000
vt 0.2261 0.0075 0.0000
vt 0.1831 0.0076 0.0000
vt 0.1759 0.0086 0.0000
vt 0.1682 0.0120 0.0000
vt 0.1653 0.0346 0.0000
vt 0.1608 0.0181 0.0000
vt 0.1569 0.0236 0.0000
vt 0.1540 0.0315 0.0000
vt 0.1654 0.0660 0.0000
vt 0.1534 0.0660 0.0000
vt 0.1526 0.1327 0.0000
vt 0.1530 0.0994 0.0000
vt 0.1656 0.1327 0.0000
vt 0.1655 0.0994 0.0000
vt 0.1657 0.1661 0.0000
vt 0.1523 0.1661 0.0000
vt 0.1525 0.1918 0.0000
vt 0.1657 0.2008 0.0000
vt 0.1536 0.1998 0.0000
vt 0.1561 0.2075 0.0000
vt 0.1600 0.2140 0.0000
vt 0.1650 0.2198 0.0000
vt 0.1712 0.2242 0.0000
vt 0.1896 0.2294 0.0000
vt 0.2259 0.2292 0.0000
vt 0.2960 0.2008 0.0000
vt 0.2959 0.2293 0.0000
vt 0.2609 0.2292 0.0000
vt 0.5083 0.2295 0.0000
vt 0.4729 0.2295 0.0000
vt 0.5652 0.2116 0.0000
vt 0.5623 0.2184 0.0000
vt 0.5635 0.1958 0.0000
vt 0.5654 0.2041 0.0000
vt 0.5576 0.2241 0.0000
vt 0.5509 0.2276 0.0000
vt 0.5437 0.2294 0.0000
vt 0.4633 0.0200 0.0000
vt 0.4917 0.0661 0.0000
vt 0.5099 0.0994 0.0000
vt 0.2962 0.0994 0.0000
vt 0.3667 0.2294 0.0000
vt 0.3313 0.2293 0.0000
vt 0.3664 0.2008 0.0000
vt 0.3312 0.2008 0.0000
vt 0.3659 0.1661 0.0000
vt 0.3310 0.1661 0.0000
vt 0.3655 0.1328 0.0000
vt 0.3308 0.1328 0.0000
vt 0.3651 0.0994 0.0000
vt 0.3307 0.0994 0.0000
vt 0.3647 0.0661 0.0000
vt 0.3305 0.0660 0.0000
vt 0.3643 0.0346 0.0000
vt 0.3304 0.0346 0.0000
vt 0.3640 0.0072 0.0000
vt 0.4375 0.2294 0.0000
vt 0.4021 0.2294 0.0000
vt 0.4348 0.2008 0.0000
vt 0.4006 0.2008 0.0000
vt 0.4316 0.1661 0.0000
vt 0.3987 0.1661 0.0000
vt 0.4284 0.1327 0.0000
vt 0.3970 0.1327 0.0000
vt 0.4253 0.0994 0.0000
vt 0.3952 0.0994 0.0000
vt 0.3934 0.0661 0.0000
vt 0.3918 0.0346 0.0000
vt 0.4465 0.0104 0.0000
vt 0.4553 0.0146 0.0000
vt 0.1801 0.2278 0.0000
vt 0.2965 0.0073 0.0000
# 114 texture coords

g J715_8A_265B_L_1_DTaSI_J715_8A_265B_L
usemtl windowglass_SG
s 1
f 1/1/1 2/2/2 3/3/3 
f 3/3/3 2/2/2 4/4/4 
s 2
f 5/5/5 6/6/6 3/3/3 
f 3/3/3 6/6/6 7/7/7 
s 3
f 8/8/8 9/9/9 10/10/10 
f 10/10/10 9/9/9 11/11/11 
s 4
f 3/3/3 7/7/7 1/1/1 
f 1/1/1 7/7/7 12/12/12 
s 5
f 13/13/13 14/14/14 15/15/15 
f 15/15/15 14/14/14 11/11/11 
s 6
f 16/16/16 17/17/17 18/18/16 
f 18/18/16 17/17/17 19/19/17 
s 7
f 20/20/18 21/21/19 22/22/18 
f 22/22/18 21/21/19 23/23/20 
s 8
f 24/24/21 16/16/16 25/25/22 
f 25/25/22 16/16/16 18/18/16 
s 9
f 17/17/17 26/26/23 19/19/17 
f 19/19/17 26/26/23 27/27/24 
s 10
f 16/16/16 24/24/21 28/28/25 
f 28/28/25 24/24/21 29/29/26 
s 11
f 30/30/27 31/31/28 32/32/29 
f 32/32/29 31/31/28 33/33/30 
s 12
f 26/26/23 17/17/17 34/34/31 
f 34/34/31 17/17/17 35/35/32 
s 13
f 36/36/33 37/37/34 28/28/25 
f 28/28/25 37/37/34 35/35/32 
s off
f 38/38/35 39/39/36 40/40/37 
s 14
f 14/14/14 13/13/13 41/41/38 
f 41/41/38 13/13/13 42/42/39 
s off
f 20/20/18 43/43/40 32/32/29 
f 44/44/41 22/22/18 45/45/42 
f 46/46/43 47/47/44 48/48/45 
f 49/49/46 47/47/44 50/50/47 
s 15
f 51/51/48 52/52/49 47/47/44 
f 47/47/44 52/52/49 50/50/47 
s 16
f 53/53/50 54/54/51 55/55/52 
f 55/55/52 54/54/51 56/56/53 
s 17
f 55/55/52 57/57/54 53/53/50 
f 53/53/50 57/57/54 58/58/55 
s 18
f 58/58/55 57/57/54 59/59/56 
f 59/59/56 57/57/54 60/60/57 
s off
f 59/59/56 60/60/57 61/61/58 
f 62/62/59 60/60/57 63/63/60 
f 60/60/57 64/64/61 63/63/60 
f 64/64/61 60/60/57 65/65/62 
s 19
f 66/66/63 27/27/24 67/67/63 
f 67/67/63 27/27/24 26/26/23 
s 20
f 68/68/64 69/69/65 34/34/31 
f 34/34/31 69/69/65 70/70/66 
s 21
f 71/71/67 72/72/68 5/5/5 
f 5/5/5 72/72/68 6/6/6 
s off
f 73/73/69 74/74/70 5/5/5 
f 75/75/71 76/76/72 5/5/5 
f 76/76/72 73/73/69 5/5/5 
f 74/74/70 77/77/73 5/5/5 
f 77/77/73 78/78/74 5/5/5 
f 78/78/74 79/79/75 5/5/5 
f 38/38/35 80/80/76 39/39/36 
f 49/49/46 48/48/45 47/47/44 
f 62/62/59 61/61/58 60/60/57 
s 22
f 1/1/1 12/12/12 8/8/8 
f 8/8/8 12/12/12 9/9/9 
s 23
f 21/21/19 24/24/21 23/23/20 
f 23/23/20 24/24/21 25/25/22 
s 24
f 24/24/21 21/21/19 29/29/26 
f 29/29/26 21/21/19 33/33/30 
s 25
f 54/54/51 52/52/49 56/56/53 
f 56/56/53 52/52/49 51/51/48 
s 26
f 38/38/35 40/40/37 10/10/10 
f 10/10/10 40/40/37 81/81/77 
s 27
f 10/10/10 81/81/77 8/8/8 
f 8/8/8 81/81/77 82/82/78 
s 28
f 8/8/8 82/82/78 1/1/1 
f 1/1/1 82/82/78 2/2/2 
s 29
f 3/3/3 4/4/4 5/5/5 
f 5/5/5 4/4/4 75/75/71 
s off
f 5/5/5 79/79/75 71/71/67 
s 30
f 83/83/79 36/36/33 29/29/26 
f 29/29/26 36/36/33 28/28/25 
s 31
f 21/21/19 20/20/18 33/33/30 
f 33/33/30 20/20/18 32/32/29 
s 32
f 37/37/34 68/68/64 35/35/32 
f 35/35/32 68/68/64 34/34/31 
s 33
f 17/17/17 16/16/16 35/35/32 
f 35/35/32 16/16/16 28/28/25 
s 34
f 70/70/66 67/67/63 34/34/31 
f 34/34/31 67/67/63 26/26/23 
s 35
f 31/31/28 83/83/79 33/33/30 
f 33/33/30 83/83/79 29/29/26 
s 36
f 84/84/80 85/85/81 86/86/82 
f 86/86/82 85/85/81 87/87/83 
s 37
f 86/86/82 87/87/83 88/88/84 
f 88/88/84 87/87/83 89/89/85 
s 38
f 88/88/84 89/89/85 90/90/86 
f 90/90/86 89/89/85 91/91/87 
s 39
f 90/90/86 91/91/87 92/92/88 
f 92/92/88 91/91/87 93/93/89 
s 40
f 92/92/88 93/93/89 94/94/90 
f 94/94/90 93/93/89 95/95/91 
s 41
f 94/94/90 95/95/91 96/96/92 
f 96/96/92 95/95/91 97/97/93 
s off
f 96/96/92 97/97/93 98/98/94 
s 42
f 99/99/95 100/100/96 101/101/97 
f 101/101/97 100/100/96 102/102/98 
s 43
f 101/101/97 102/102/98 103/103/99 
f 103/103/99 102/102/98 104/104/100 
s 44
f 103/103/99 104/104/100 105/105/101 
f 105/105/101 104/104/100 106/106/102 
s 45
f 105/105/101 106/106/102 107/107/103 
f 107/107/103 106/106/102 108/108/104 
s 46
f 107/107/103 108/108/104 15/15/15 
f 15/15/15 108/108/104 109/109/105 
s 47
f 15/15/15 109/109/105 13/13/13 
f 13/13/13 109/109/105 110/110/106 
s off
f 13/13/13 110/110/106 42/42/39 
s 48
f 85/85/81 69/69/65 87/87/83 
f 87/87/83 69/69/65 68/68/64 
s 49
f 87/87/83 68/68/64 89/89/85 
f 89/89/85 68/68/64 37/37/34 
s 50
f 89/89/85 37/37/34 91/91/87 
f 91/91/87 37/37/34 36/36/33 
s 51
f 91/91/87 36/36/33 93/93/89 
f 93/93/89 36/36/33 83/83/79 
s 52
f 93/93/89 83/83/79 95/95/91 
f 95/95/91 83/83/79 31/31/28 
s 53
f 95/95/91 31/31/28 97/97/93 
f 97/97/93 31/31/28 30/30/27 
s 54
f 100/100/96 84/84/80 102/102/98 
f 102/102/98 84/84/80 86/86/82 
s 55
f 102/102/98 86/86/82 104/104/100 
f 104/104/100 86/86/82 88/88/84 
s 56
f 104/104/100 88/88/84 106/106/102 
f 106/106/102 88/88/84 90/90/86 
s 57
f 106/106/102 90/90/86 108/108/104 
f 108/108/104 90/90/86 92/92/88 
s 58
f 108/108/104 92/92/88 109/109/105 
f 109/109/105 92/92/88 94/94/90 
s 59
f 109/109/105 94/94/90 110/110/106 
f 110/110/106 94/94/90 96/96/92 
s 60
f 6/6/6 101/101/97 7/7/7 
f 7/7/7 101/101/97 103/103/99 
s 61
f 9/9/9 107/107/103 11/11/11 
f 11/11/11 107/107/103 15/15/15 
s 62
f 7/7/7 103/103/99 12/12/12 
f 12/12/12 103/103/99 105/105/101 
s 63
f 14/14/14 38/38/35 11/11/11 
f 11/11/11 38/38/35 10/10/10 
s 64
f 72/72/68 99/99/95 6/6/6 
f 6/6/6 99/99/95 101/101/97 
s 65
f 12/12/12 105/105/101 9/9/9 
f 9/9/9 105/105/101 107/107/103 
s off
f 41/41/38 111/111/107 14/14/14 
s 66
f 111/111/107 112/112/108 14/14/14 
f 14/14/14 112/112/108 38/38/35 
s off
f 112/112/108 80/80/76 38/38/35 
f 66/66/63 113/113/109 27/27/24 
s 67
f 60/60/57 57/57/54 27/27/24 
f 27/27/24 57/57/54 19/19/17 
s 68
f 19/19/17 57/57/54 18/18/16 
f 18/18/16 57/57/54 55/55/52 
s 69
f 18/18/16 55/55/52 25/25/22 
f 25/25/22 55/55/52 56/56/53 
s 70
f 25/25/22 56/56/53 23/23/20 
f 23/23/20 56/56/53 51/51/48 
s 71
f 23/23/20 51/51/48 22/22/18 
f 22/22/18 51/51/48 47/47/44 
s off
f 44/44/41 43/43/40 22/22/18 
s 72
f 22/22/18 47/47/44 45/45/42 
f 45/45/42 47/47/44 46/46/43 
s 73
f 113/113/109 65/65/62 27/27/24 
f 27/27/24 65/65/62 60/60/57 
s off
f 110/110/106 98/98/94 42/42/39 
f 110/110/106 96/96/92 98/98/94 
f 97/97/93 114/114/110 98/98/94 
f 97/97/93 30/30/27 114/114/110 
f 114/114/110 30/30/27 32/32/29 
f 43/43/40 114/114/110 32/32/29 
f 43/43/40 20/20/18 22/22/18 
# 178 faces

