# 3ds Max Wavefront OBJ Exporter v0.97b - (c)2007 guruware
# File Created: 14.12.2015 12:56:58

mtllib U803_1A_285B_R.mtl

#
# object U803_1A_285B_R_1_DTaSI_U803_1A_285B_R
#

v  4.5925 47.2067 69.5856
v  4.6193 39.0308 72.2845
v  12.6113 47.2215 69.5846
v  12.6315 39.0138 72.2936
v  4.5667 55.2121 66.7642
v  12.5916 55.2519 66.7500
v  15.0335 75.0418 58.3453
v  9.5631 75.1448 58.3076
v  12.5541 70.5818 60.5886
v  12.5722 63.1840 63.7053
v  4.5412 63.1753 63.7112
v  4.5176 70.5724 60.6198
v  12.6475 32.6589 74.3039
v  4.6404 32.6815 74.2935
v  62.4766 61.1621 64.1655
v  58.6382 64.4506 62.9107
v  60.2958 55.2899 66.5927
v  60.4182 47.1983 69.4955
v  67.8746 47.1445 69.4388
v  66.3678 57.5128 65.5130
v  52.1679 63.1493 63.6371
v  58.4164 64.6407 62.8381
v  55.1018 67.1361 61.9354
v  83.4760 32.2484 74.2982
v  85.9622 32.8444 73.9128
v  84.7305 35.2194 73.1281
v  85.9385 32.2319 74.2956
v  -1.7345 37.1140 72.9293
v  -1.7896 32.6884 74.2930
v  -1.7857 33.1139 74.1630
v  -1.6184 41.1867 71.6198
v  -1.4517 45.2653 70.2549
v  -1.0950 53.2760 67.4981
v  -1.2804 49.2609 68.8943
v  -0.4512 65.1864 62.8963
v  -0.6724 61.2361 64.4909
v  -0.2563 68.7228 61.4139
v  0.6516 73.1386 59.4981
v  0.1972 72.4296 59.8775
v  -0.0613 71.6332 60.2411
v  1.9337 74.3125 58.8034
v  2.7506 74.7152 58.5527
v  4.5029 75.2303 58.2471
v  3.5957 75.0496 58.3551
v  1.2106 73.7947 59.1165
v  20.4978 74.9418 58.3927
v  20.6092 70.5755 60.5899
v  25.5788 74.7740 58.5263
v  28.3944 70.5575 60.6285
v  36.3782 70.5386 60.6515
v  36.3929 74.0692 59.0197
v  33.9438 74.2543 58.8986
v  20.6163 63.1829 63.6997
v  28.6480 32.5948 74.3086
v  28.5902 38.9814 72.2854
v  20.6535 32.6287 74.3081
v  20.6413 38.9985 72.2922
v  28.5335 47.2139 69.5662
v  20.6311 47.2183 69.5776
v  28.4867 55.2453 66.7326
v  20.6238 55.2492 66.7422
v  28.4391 63.1813 63.6997
v  36.6425 32.5395 74.3168
v  36.6281 38.9588 72.2799
v  36.5743 47.2095 69.5540
v  36.5044 55.2415 66.7226
v  36.4372 63.1797 63.6989
v  30.1532 74.5328 58.7003
v  44.6286 32.4775 74.3168
v  44.5701 38.9338 72.2698
v  44.4653 47.2054 69.5405
v  44.3486 55.2391 66.7114
v  44.2344 63.1790 63.6916
v  44.1671 70.5121 60.6451
v  52.6113 32.4236 74.3165
v  52.5995 38.9107 72.2588
v  52.4885 47.2012 69.5236
v  52.3398 55.2382 66.6946
v  60.5940 32.3797 74.3251
v  60.5198 38.8903 72.2448
v  68.5575 32.3364 74.3161
v  68.2560 38.8709 72.1986
v  -0.8918 57.2642 66.0306
v  38.5704 73.8639 59.1288
v  40.3348 73.6447 59.2480
v  41.9937 73.3522 59.4021
v  70.0911 53.8330 66.8356
v  79.4049 43.0698 70.5286
v  76.5047 38.8405 72.0698
v  81.6039 40.3034 71.4439
v  83.4673 37.5325 72.3617
v  76.5596 32.2903 74.3057
v  76.9667 46.0876 69.5323
v  73.6440 50.0131 68.2087
v  52.3547 68.9338 61.2469
v  49.5432 70.4898 60.6118
v  43.4342 73.0485 59.5418
v  44.8629 72.6420 59.7099
v  48.0171 71.3227 60.2638
v  46.3056 72.1199 59.9293
# 100 vertices

vn 0.0009 0.3229 0.9464
vn 0.0009 0.3081 0.9513
vn 0.0003 0.3231 0.9464
vn 0.0002 0.3083 0.9513
vn 0.0008 0.3452 0.9385
vn 0.0004 0.3455 0.9384
vn -0.0004 0.4490 0.8935
vn 0.0055 0.4480 0.8940
vn 0.0010 0.4118 0.9113
vn 0.0008 0.3725 0.9280
vn 0.0016 0.3714 0.9285
vn 0.0070 0.4081 0.9129
vn 0.0001 0.3017 0.9534
vn 0.0008 0.3009 0.9537
vn 0.0251 0.3708 0.9284
vn 0.0232 0.3762 0.9262
vn 0.0190 0.3567 0.9340
vn 0.0094 0.3277 0.9447
vn 0.0209 0.3355 0.9418
vn 0.0265 0.3637 0.9311
vn 0.0137 0.3727 0.9279
vn 0.0229 0.3763 0.9262
vn 0.0186 0.3790 0.9252
vn 0.0070 0.3353 0.9421
vn 0.0034 0.3383 0.9410
vn 0.0075 0.3361 0.9418
vn 0.0032 0.3384 0.9410
vn 0.0026 0.3052 0.9523
vn 0.0024 0.2999 0.9540
vn 0.0027 0.3116 0.9502
vn 0.0027 0.3191 0.9477
vn 0.0022 0.3392 0.9407
vn 0.0025 0.3282 0.9446
vn 0.0063 0.3783 0.9257
vn 0.0026 0.3636 0.9315
vn 0.0126 0.3933 0.9193
vn 0.0257 0.4189 0.9077
vn 0.0233 0.4135 0.9102
vn 0.0203 0.4079 0.9128
vn 0.0254 0.4300 0.9024
vn 0.0220 0.4354 0.9000
vn 0.0141 0.4441 0.8959
vn 0.0183 0.4403 0.8977
vn 0.0276 0.4242 0.9052
vn -0.0027 0.4470 0.8945
vn -0.0015 0.4100 0.9121
vn -0.0056 0.4410 0.8975
vn -0.0035 0.4043 0.9146
vn -0.0018 0.3965 0.9181
vn -0.0054 0.4178 0.9085
vn -0.0060 0.4240 0.9056
vn 0.0001 0.3721 0.9282
vn 0.0013 0.3021 0.9533
vn 0.0014 0.3086 0.9512
vn 0.0010 0.3018 0.9534
vn 0.0011 0.3084 0.9512
vn 0.0015 0.3231 0.9464
vn 0.0012 0.3231 0.9464
vn 0.0011 0.3448 0.9387
vn 0.0010 0.3454 0.9385
vn -0.0002 0.3705 0.9288
vn 0.0018 0.3023 0.9532
vn 0.0018 0.3087 0.9512
vn 0.0017 0.3229 0.9464
vn 0.0013 0.3443 0.9389
vn 0.0007 0.3693 0.9293
vn -0.0069 0.4336 0.9011
vn 0.0022 0.3023 0.9532
vn 0.0021 0.3086 0.9512
vn 0.0020 0.3227 0.9465
vn 0.0025 0.3447 0.9387
vn 0.0040 0.3698 0.9291
vn 0.0037 0.3908 0.9205
vn 0.0018 0.3028 0.9530
vn 0.0023 0.3089 0.9511
vn 0.0035 0.3235 0.9462
vn 0.0079 0.3484 0.9373
vn 0.0031 0.3049 0.9524
vn 0.0044 0.3103 0.9506
vn 0.0072 0.3114 0.9502
vn 0.0121 0.3161 0.9487
vn 0.0022 0.3510 0.9364
vn -0.0031 0.4126 0.9109
vn -0.0013 0.4081 0.9129
vn 0.0006 0.4033 0.9151
vn 0.0277 0.3556 0.9342
vn 0.0201 0.3282 0.9444
vn 0.0175 0.3247 0.9457
vn 0.0164 0.3308 0.9436
vn 0.0117 0.3339 0.9425
vn 0.0109 0.3222 0.9466
vn 0.0246 0.3351 0.9419
vn 0.0268 0.3452 0.9381
vn 0.0146 0.3836 0.9234
vn 0.0109 0.3880 0.9216
vn 0.0018 0.4010 0.9161
vn 0.0030 0.3986 0.9171
vn 0.0071 0.3921 0.9199
vn 0.0043 0.3960 0.9182
# 99 vertex normals

vt 0.9032 0.4603 0.0000
vt 0.9509 0.4605 0.0000
vt 0.9031 0.5047 0.0000
vt 0.9510 0.5048 0.0000
vt 0.8562 0.4602 0.0000
vt 0.8560 0.5046 0.0000
vt 0.7369 0.5181 0.0000
vt 0.7363 0.4878 0.0000
vt 0.7645 0.5044 0.0000
vt 0.8090 0.5045 0.0000
vt 0.8090 0.4600 0.0000
vt 0.7647 0.4599 0.0000
vt 0.9878 0.5049 0.0000
vt 0.9877 0.4606 0.0000
vt 0.8204 0.7807 0.0000
vt 0.8009 0.7594 0.0000
vt 0.8555 0.7686 0.0000
vt 0.9031 0.7693 0.0000
vt 0.9032 0.8105 0.0000
vt 0.8419 0.8022 0.0000
vt 0.8090 0.7236 0.0000
vt 0.7997 0.7582 0.0000
vt 0.7851 0.7398 0.0000
vt 0.9899 0.8969 0.0000
vt 0.9861 0.9106 0.0000
vt 0.9723 0.9038 0.0000
vt 0.9901 0.9105 0.0000
vt 0.9620 0.4253 0.0000
vt 0.9877 0.4250 0.0000
vt 0.9852 0.4250 0.0000
vt 0.9384 0.4259 0.0000
vt 0.9146 0.4269 0.0000
vt 0.8677 0.4288 0.0000
vt 0.8912 0.4278 0.0000
vt 0.7970 0.4324 0.0000
vt 0.8206 0.4312 0.0000
vt 0.7758 0.4335 0.0000
vt 0.7492 0.4385 0.0000
vt 0.7536 0.4360 0.0000
vt 0.7585 0.4346 0.0000
vt 0.7416 0.4456 0.0000
vt 0.7390 0.4501 0.0000
vt 0.7357 0.4598 0.0000
vt 0.7368 0.4548 0.0000
vt 0.7450 0.4416 0.0000
vt 0.7375 0.5483 0.0000
vt 0.7646 0.5490 0.0000
vt 0.7387 0.5765 0.0000
vt 0.7647 0.5920 0.0000
vt 0.7649 0.6362 0.0000
vt 0.7434 0.6363 0.0000
vt 0.7422 0.6227 0.0000
vt 0.8090 0.5490 0.0000
vt 0.9882 0.5934 0.0000
vt 0.9511 0.5931 0.0000
vt 0.9880 0.5492 0.0000
vt 0.9510 0.5491 0.0000
vt 0.9031 0.5928 0.0000
vt 0.9031 0.5491 0.0000
vt 0.8560 0.5925 0.0000
vt 0.8560 0.5490 0.0000
vt 0.8090 0.5923 0.0000
vt 0.9885 0.6377 0.0000
vt 0.9512 0.6376 0.0000
vt 0.9031 0.6373 0.0000
vt 0.8560 0.6369 0.0000
vt 0.8090 0.6365 0.0000
vt 0.7403 0.6018 0.0000
vt 0.9888 0.6819 0.0000
vt 0.9513 0.6816 0.0000
vt 0.9031 0.6810 0.0000
vt 0.8560 0.6803 0.0000
vt 0.8090 0.6797 0.0000
vt 0.7650 0.6793 0.0000
vt 0.9891 0.7261 0.0000
vt 0.9514 0.7260 0.0000
vt 0.9031 0.7254 0.0000
vt 0.8560 0.7246 0.0000
vt 0.9893 0.7702 0.0000
vt 0.9515 0.7698 0.0000
vt 0.9895 0.8143 0.0000
vt 0.9515 0.8126 0.0000
vt 0.8442 0.4300 0.0000
vt 0.7446 0.6484 0.0000
vt 0.7460 0.6581 0.0000
vt 0.7479 0.6673 0.0000
vt 0.8635 0.8228 0.0000
vt 0.9265 0.8743 0.0000
vt 0.9514 0.8583 0.0000
vt 0.9426 0.8865 0.0000
vt 0.9588 0.8968 0.0000
vt 0.9897 0.8586 0.0000
vt 0.9089 0.8608 0.0000
vt 0.8860 0.8425 0.0000
vt 0.7744 0.7246 0.0000
vt 0.7651 0.7091 0.0000
vt 0.7497 0.6753 0.0000
vt 0.7522 0.6832 0.0000
vt 0.7601 0.7006 0.0000
vt 0.7553 0.6912 0.0000
# 100 texture coords

g U803_1A_285B_R_1_DTaSI_U803_1A_285B_R
usemtl windowglass_1SG
s 1
f 1/1/1 2/2/2 3/3/3 
f 3/3/3 2/2/2 4/4/4 
f 1/1/1 3/3/3 5/5/5 
f 5/5/5 3/3/3 6/6/6 
f 7/7/7 8/8/8 9/9/9 
f 10/10/10 9/9/9 11/11/11 
f 11/11/11 9/9/9 12/12/12 
f 13/13/13 4/4/4 14/14/14 
f 14/14/14 4/4/4 2/2/2 
f 15/15/15 16/16/16 17/17/17 
f 18/18/18 19/19/19 17/17/17 
f 17/17/17 19/19/19 20/20/20 
f 21/21/21 22/22/22 23/23/23 
f 5/5/5 6/6/6 11/11/11 
f 11/11/11 6/6/6 10/10/10 
f 24/24/24 25/25/25 26/26/26 
f 27/27/27 25/25/25 24/24/24 
f 2/2/2 28/28/28 14/14/14 
f 29/29/29 14/14/14 30/30/29 
f 14/14/14 28/28/28 30/30/29 
f 2/2/2 1/1/1 31/31/30 
f 31/31/30 1/1/1 32/32/31 
f 5/5/5 33/33/32 1/1/1 
f 1/1/1 33/33/32 34/34/33 
f 35/35/34 36/36/35 11/11/11 
f 11/11/11 12/12/12 35/35/34 
f 35/35/34 12/12/12 37/37/36 
f 38/38/37 39/39/38 12/12/12 
f 37/37/36 12/12/12 40/40/39 
f 41/41/40 12/12/12 42/42/41 
f 12/12/12 43/43/42 44/44/43 
f 45/45/44 12/12/12 41/41/40 
f 40/40/39 12/12/12 39/39/38 
f 38/38/37 12/12/12 45/45/44 
f 42/42/41 12/12/12 44/44/43 
f 46/46/45 47/47/46 48/48/47 
f 48/48/47 47/47/46 49/49/48 
f 50/50/49 51/51/50 52/52/51 
f 9/9/9 10/10/10 47/47/46 
f 47/47/46 10/10/10 53/53/52 
f 9/9/9 47/47/46 7/7/7 
f 7/7/7 47/47/46 46/46/45 
f 9/9/9 8/8/8 12/12/12 
f 12/12/12 8/8/8 43/43/42 
f 54/54/53 55/55/54 56/56/55 
f 56/56/55 55/55/54 57/57/56 
f 55/55/54 58/58/57 57/57/56 
f 57/57/56 58/58/57 59/59/58 
f 58/58/57 60/60/59 59/59/58 
f 59/59/58 60/60/59 61/61/60 
f 60/60/59 62/62/61 61/61/60 
f 61/61/60 62/62/61 53/53/52 
f 62/62/61 49/49/48 53/53/52 
f 53/53/52 49/49/48 47/47/46 
f 63/63/62 64/64/63 54/54/53 
f 54/54/53 64/64/63 55/55/54 
f 64/64/63 65/65/64 55/55/54 
f 55/55/54 65/65/64 58/58/57 
f 65/65/64 66/66/65 58/58/57 
f 58/58/57 66/66/65 60/60/59 
f 66/66/65 67/67/66 60/60/59 
f 60/60/59 67/67/66 62/62/61 
f 67/67/66 50/50/49 62/62/61 
f 62/62/61 50/50/49 49/49/48 
f 48/48/47 49/49/48 68/68/67 
f 68/68/67 49/49/48 52/52/51 
f 52/52/51 49/49/48 50/50/49 
f 69/69/68 70/70/69 63/63/62 
f 63/63/62 70/70/69 64/64/63 
f 70/70/69 71/71/70 64/64/63 
f 64/64/63 71/71/70 65/65/64 
f 71/71/70 72/72/71 65/65/64 
f 65/65/64 72/72/71 66/66/65 
f 72/72/71 73/73/72 66/66/65 
f 66/66/65 73/73/72 67/67/66 
f 73/73/72 74/74/73 67/67/66 
f 67/67/66 74/74/73 50/50/49 
f 75/75/74 76/76/75 69/69/68 
f 69/69/68 76/76/75 70/70/69 
f 76/76/75 77/77/76 70/70/69 
f 70/70/69 77/77/76 71/71/70 
f 77/77/76 78/78/77 71/71/70 
f 71/71/70 78/78/77 72/72/71 
f 78/78/77 21/21/21 72/72/71 
f 72/72/71 21/21/21 73/73/72 
f 79/79/78 80/80/79 75/75/74 
f 75/75/74 80/80/79 76/76/75 
f 80/80/79 18/18/18 76/76/75 
f 76/76/75 18/18/18 77/77/76 
f 18/18/18 17/17/17 77/77/76 
f 77/77/76 17/17/17 78/78/77 
f 17/17/17 16/16/16 78/78/77 
f 16/16/16 22/22/22 78/78/77 
f 22/22/22 21/21/21 78/78/77 
f 81/81/80 82/82/81 79/79/78 
f 79/79/78 82/82/81 80/80/79 
f 82/82/81 19/19/19 80/80/79 
f 80/80/79 19/19/19 18/18/18 
f 61/61/60 53/53/52 6/6/6 
f 6/6/6 53/53/52 10/10/10 
f 11/11/11 36/36/35 5/5/5 
f 5/5/5 36/36/35 83/83/82 
f 50/50/49 84/84/83 51/51/50 
f 50/50/49 85/85/84 84/84/83 
f 50/50/49 86/86/85 85/85/84 
f 59/59/58 61/61/60 3/3/3 
f 3/3/3 61/61/60 6/6/6 
f 57/57/56 59/59/58 4/4/4 
f 4/4/4 59/59/58 3/3/3 
f 56/56/55 57/57/56 13/13/13 
f 13/13/13 57/57/56 4/4/4 
f 28/28/28 2/2/2 31/31/30 
f 34/34/33 32/32/31 1/1/1 
f 83/83/82 33/33/32 5/5/5 
f 20/20/20 19/19/19 87/87/86 
f 88/88/87 89/89/88 90/90/89 
f 24/24/24 91/91/90 92/92/91 
f 92/92/91 91/91/90 89/89/88 
f 90/90/89 89/89/88 91/91/90 
f 19/19/19 93/93/92 94/94/93 
f 92/92/91 89/89/88 81/81/80 
f 81/81/80 89/89/88 82/82/81 
f 19/19/19 82/82/81 93/93/92 
f 93/93/92 82/82/81 89/89/88 
f 93/93/92 89/89/88 88/88/87 
f 21/21/21 95/95/94 96/96/95 
f 97/97/96 86/86/85 74/74/73 
f 74/74/73 86/86/85 50/50/49 
f 98/98/97 97/97/96 74/74/73 
f 74/74/73 96/96/95 99/99/98 
f 98/98/97 74/74/73 100/100/99 
f 74/74/73 99/99/98 100/100/99 
f 95/95/94 21/21/21 23/23/23 
f 26/26/26 91/91/90 24/24/24 
f 87/87/86 19/19/19 94/94/93 
f 17/17/17 20/20/20 15/15/15 
f 74/74/73 73/73/72 96/96/95 
f 96/96/95 73/73/72 21/21/21 
# 138 faces

