# 3ds Max Wavefront OBJ Exporter v0.97b - (c)2007 guruware
# File Created: 14.12.2015 12:55:53

mtllib U803_1A_182C_C.mtl

#
# object U803_1A_182C_C_1_D_U803_1A_182C_C
#

v  117.5400 31.5738 0.0000
v  122.0891 30.8543 1.0174
v  122.0891 30.8543 0.0000
v  105.1719 32.6105 56.8360
v  104.2894 32.9473 56.5883
v  103.1045 32.6017 61.4861
v  102.2735 32.9385 61.1650
v  101.4791 32.5960 64.6267
v  100.6692 32.9347 64.2866
v  99.9830 32.5905 67.2134
v  99.2084 32.9283 66.8641
v  114.6778 32.7483 8.7368
v  113.6986 33.0847 8.7070
v  113.8165 32.7606 17.6159
v  112.8402 33.0971 17.5563
v  112.7136 32.6837 26.4276
v  111.7404 33.0201 26.3383
v  111.2910 32.7226 35.0917
v  110.3263 33.0589 34.9735
v  109.2910 32.6530 43.8771
v  108.3508 32.9895 43.6924
v  107.3791 32.6282 50.5490
v  106.4768 32.9650 50.2983
v  98.8580 32.5885 69.0254
v  98.1227 32.9411 68.6125
v  98.2893 32.5455 69.8432
v  97.4941 32.9091 69.4240
v  97.2488 32.3903 71.3255
v  96.3027 32.7303 70.9844
v  96.5926 32.2862 72.3738
v  96.1793 32.3059 72.3659
v  108.0668 30.8862 72.6040
v  105.8385 31.0277 72.5570
v  107.7078 31.7335 72.5812
v  105.8439 31.8165 72.5471
v  102.0236 31.2700 72.4765
v  98.6986 31.5990 72.3940
v  102.0237 31.9862 72.4856
v  117.2307 31.5069 8.8098
v  121.8418 30.8599 7.1025
v  115.3012 31.4405 26.6861
v  120.4104 30.8281 25.3641
v  116.4560 31.5062 17.8007
v  120.9222 30.8231 19.2715
v  119.8901 30.8550 31.4559
v  113.7456 31.4841 35.3780
v  119.1933 30.8599 37.5498
v  109.6997 31.3970 51.1116
v  117.1376 30.8558 52.4163
v  111.6223 31.4605 44.3205
v  118.3788 30.8554 43.6305
v  116.6803 30.8559 54.9779
v  100.3646 31.4113 70.3670
v  105.2335 31.3607 62.2439
v  113.5131 30.8584 65.0182
v  107.4501 31.3952 57.4307
v  115.7186 30.8563 59.2799
v  112.8785 30.8587 66.2426
v  102.0135 31.3409 68.1079
v  112.5374 33.3669 17.5336
v  113.3894 33.3544 8.6956
v  110.0484 33.3222 34.9306
v  111.4479 33.2876 26.3048
v  106.2248 33.2179 50.2375
v  108.0839 33.2480 43.6397
v  104.0532 33.1957 56.5150
v  102.0523 33.1816 61.0798
v  100.4645 33.1721 64.1995
v  99.0098 33.1635 66.7704
v  97.8895 33.1547 68.5228
v  97.2474 33.1476 69.3563
v  103.5920 31.3748 65.4249
v  114.0015 33.1509 0.0000
v  114.9827 32.8147 0.0000
v  113.6858 33.4206 0.0000
v  121.4209 30.8545 13.1779
v  110.8958 30.8598 69.1668
v  116.0677 30.8562 57.8683
v  108.4204 31.6997 72.6160
v  122.0891 30.8543 -1.0174
v  102.2735 32.9385 -61.1650
v  104.2894 32.9473 -56.5883
v  103.1045 32.6017 -61.4861
v  105.1719 32.6105 -56.8360
v  99.2084 32.9283 -66.8641
v  100.6692 32.9347 -64.2866
v  99.9830 32.5905 -67.2134
v  101.4791 32.5960 -64.6267
v  112.8402 33.0971 -17.5563
v  113.6986 33.0847 -8.7070
v  113.8165 32.7606 -17.6159
v  114.6778 32.7483 -8.7368
v  110.3263 33.0589 -34.9735
v  111.7404 33.0201 -26.3383
v  111.2910 32.7226 -35.0917
v  112.7136 32.6837 -26.4276
v  106.4768 32.9650 -50.2983
v  108.3508 32.9895 -43.6924
v  107.3791 32.6282 -50.5490
v  109.2910 32.6530 -43.8771
v  97.4941 32.9091 -69.4240
v  98.1227 32.9411 -68.6125
v  98.2893 32.5455 -69.8432
v  98.8580 32.5885 -69.0254
v  96.3027 32.7303 -70.9844
v  97.2488 32.3903 -71.3255
v  96.1793 32.3059 -72.3659
v  96.5926 32.2862 -72.3738
v  105.8439 31.8165 -72.5471
v  105.8385 31.0277 -72.5570
v  107.7078 31.7335 -72.5812
v  108.0668 30.8862 -72.6040
v  98.6986 31.5990 -72.3940
v  102.0237 31.9862 -72.4856
v  102.0236 31.2700 -72.4765
v  121.8418 30.8599 -7.1025
v  117.2307 31.5069 -8.8098
v  120.9222 30.8231 -19.2715
v  120.4104 30.8281 -25.3641
v  116.4560 31.5062 -17.8007
v  115.3012 31.4405 -26.6861
v  119.8901 30.8550 -31.4559
v  119.1933 30.8599 -37.5498
v  113.7456 31.4841 -35.3780
v  109.6997 31.3970 -51.1116
v  111.6223 31.4605 -44.3205
v  117.1376 30.8558 -52.4163
v  118.3788 30.8554 -43.6305
v  116.6803 30.8559 -54.9779
v  100.3646 31.4113 -70.3670
v  115.7186 30.8563 -59.2799
v  113.5131 30.8584 -65.0182
v  107.4501 31.3952 -57.4307
v  105.2335 31.3607 -62.2439
v  112.8785 30.8587 -66.2426
v  102.0135 31.3409 -68.1079
v  112.5374 33.3669 -17.5336
v  113.3894 33.3544 -8.6956
v  110.0484 33.3222 -34.9306
v  111.4479 33.2876 -26.3048
v  106.2248 33.2179 -50.2375
v  108.0839 33.2480 -43.6397
v  102.0523 33.1816 -61.0798
v  104.0532 33.1957 -56.5150
v  99.0098 33.1635 -66.7704
v  100.4645 33.1721 -64.1995
v  97.2474 33.1476 -69.3563
v  97.8895 33.1547 -68.5228
v  103.5920 31.3748 -65.4249
v  121.4209 30.8545 -13.1779
v  110.8958 30.8598 -69.1668
v  116.0677 30.8562 -57.8683
v  108.4204 31.6997 -72.6160
# 153 vertices

vn 0.1483 0.9889 -0.0000
vn 0.1486 0.9888 0.0091
vn 0.1562 0.9877 -0.0000
vn 0.4318 0.8845 0.1767
vn 0.3215 0.9382 0.1281
vn 0.4290 0.8787 0.2094
vn 0.3193 0.9352 0.1529
vn 0.4232 0.8749 0.2353
vn 0.3175 0.9321 0.1742
vn 0.4198 0.8691 0.2616
vn 0.3199 0.9282 0.1900
vn 0.4340 0.9004 0.0305
vn 0.3241 0.9457 0.0245
vn 0.4287 0.9020 0.0503
vn 0.3233 0.9455 0.0396
vn 0.4302 0.9003 0.0659
vn 0.3227 0.9452 0.0487
vn 0.4359 0.8956 0.0884
vn 0.3217 0.9446 0.0653
vn 0.4366 0.8918 0.1182
vn 0.3211 0.9430 0.0870
vn 0.4347 0.8893 0.1423
vn 0.3221 0.9408 0.1052
vn 0.4066 0.8646 0.2953
vn 0.3122 0.9245 0.2189
vn 0.3778 0.8776 0.2951
vn 0.2622 0.9245 0.2765
vn 0.3299 0.9033 0.2743
vn 0.2283 0.9329 0.2784
vn 0.2958 0.9145 0.2759
vn 0.1827 0.9469 0.2646
vn 0.0224 -0.0148 -0.9996
vn 0.0187 -0.0064 -0.9998
vn 0.0216 -0.0150 -0.9997
vn 0.0187 -0.0060 -0.9998
vn 0.0212 0.0128 -0.9997
vn 0.0242 0.0284 -0.9993
vn 0.0214 0.0141 -0.9997
vn 0.1455 0.9893 0.0114
vn 0.1472 0.9891 0.0098
vn 0.1216 0.9925 0.0141
vn 0.1260 0.9919 0.0158
vn 0.1390 0.9902 0.0163
vn 0.1377 0.9903 0.0169
vn 0.1140 0.9934 0.0114
vn 0.1041 0.9944 0.0170
vn 0.1001 0.9948 0.0190
vn 0.0731 0.9971 0.0199
vn 0.0782 0.9968 0.0190
vn 0.0859 0.9961 0.0205
vn 0.0893 0.9958 0.0206
vn 0.0646 0.9977 0.0189
vn 0.0987 0.9951 -0.0110
vn 0.0671 0.9977 0.0133
vn 0.0697 0.9975 0.0113
vn 0.0544 0.9981 0.0273
vn 0.0551 0.9981 0.0263
vn 0.0584 0.9980 0.0239
vn 0.0562 0.9981 0.0249
vn 0.0527 0.9982 0.0285
vn 0.0633 0.9979 0.0160
vn 0.0532 0.9981 0.0316
vn 0.6605 0.7470 0.0760
vn 0.6604 0.7471 0.0756
vn 0.6556 0.7537 0.0457
vn 0.6555 0.7538 0.0453
vn 0.6695 0.7310 0.1320
vn 0.6695 0.7312 0.1311
vn 0.6663 0.7393 0.0976
vn 0.6662 0.7394 0.0974
vn 0.6663 0.7149 0.2122
vn 0.6663 0.7152 0.2110
vn 0.6682 0.7237 0.1723
vn 0.6682 0.7239 0.1715
vn 0.6602 0.7063 0.2555
vn 0.6599 0.7060 0.2572
vn 0.6496 0.6964 0.3051
vn 0.6494 0.6960 0.3064
vn 0.6408 0.6861 0.3445
vn 0.6405 0.6858 0.3457
vn 0.6180 0.6960 0.3656
vn 0.6161 0.6975 0.3659
vn 0.5748 0.7200 0.3889
vn 0.5697 0.7205 0.3953
vn 0.5386 0.7226 0.4332
vn 0.4321 0.8853 0.1720
vn 0.4293 0.8792 0.2066
vn 0.4240 0.8752 0.2329
vn 0.4195 0.8700 0.2591
vn 0.4288 0.9020 0.0500
vn 0.4300 0.9004 0.0657
vn 0.4359 0.8958 0.0873
vn 0.4368 0.8920 0.1162
vn 0.4347 0.8894 0.1415
vn 0.3995 0.8748 0.2740
vn 0.3579 0.8931 0.2726
vn 0.3243 0.9460 -0.0000
vn 0.4367 0.8996 -0.0000
vn 0.6531 0.7573 -0.0000
vn 0.1431 0.9896 0.0138
vn 0.0513 0.9981 0.0330
vn 0.0515 0.9981 0.0325
vn 0.0634 0.9978 0.0194
vn 0.0504 0.9981 0.0357
vn 0.0484 -0.0064 -0.9988
vn 0.1486 0.9888 -0.0091
vn 0.3193 0.9352 -0.1529
vn 0.3215 0.9382 -0.1281
vn 0.4290 0.8787 -0.2094
vn 0.4318 0.8845 -0.1767
vn 0.3199 0.9282 -0.1900
vn 0.3175 0.9321 -0.1742
vn 0.4198 0.8691 -0.2616
vn 0.4232 0.8749 -0.2353
vn 0.3233 0.9455 -0.0396
vn 0.3241 0.9457 -0.0245
vn 0.4287 0.9020 -0.0503
vn 0.4340 0.9004 -0.0305
vn 0.3217 0.9446 -0.0653
vn 0.3227 0.9452 -0.0487
vn 0.4359 0.8956 -0.0884
vn 0.4302 0.9003 -0.0659
vn 0.3221 0.9408 -0.1052
vn 0.3211 0.9430 -0.0870
vn 0.4347 0.8893 -0.1423
vn 0.4366 0.8918 -0.1182
vn 0.2622 0.9245 -0.2765
vn 0.3122 0.9245 -0.2189
vn 0.3778 0.8776 -0.2951
vn 0.4066 0.8646 -0.2953
vn 0.2283 0.9329 -0.2784
vn 0.3299 0.9033 -0.2743
vn 0.1827 0.9469 -0.2646
vn 0.2281 0.9356 -0.2696
vn 0.0187 -0.0060 0.9998
vn 0.0187 -0.0064 0.9998
vn 0.0216 -0.0150 0.9997
vn 0.0224 -0.0148 0.9996
vn 0.0242 0.0284 0.9993
vn 0.0214 0.0141 0.9997
vn 0.0212 0.0128 0.9997
vn 0.1472 0.9891 -0.0098
vn 0.1455 0.9893 -0.0114
vn 0.1377 0.9903 -0.0169
vn 0.1260 0.9919 -0.0158
vn 0.1390 0.9902 -0.0163
vn 0.1216 0.9925 -0.0141
vn 0.1140 0.9934 -0.0114
vn 0.1001 0.9948 -0.0190
vn 0.1041 0.9944 -0.0170
vn 0.0731 0.9971 -0.0199
vn 0.0859 0.9961 -0.0205
vn 0.0782 0.9968 -0.0190
vn 0.0893 0.9958 -0.0206
vn 0.0646 0.9977 -0.0189
vn 0.0987 0.9951 0.0110
vn 0.0697 0.9975 -0.0113
vn 0.0671 0.9977 -0.0133
vn 0.0562 0.9981 -0.0249
vn 0.0551 0.9981 -0.0263
vn 0.0584 0.9980 -0.0239
vn 0.0544 0.9981 -0.0273
vn 0.0527 0.9982 -0.0285
vn 0.0633 0.9979 -0.0160
vn 0.0532 0.9981 -0.0316
vn 0.6605 0.7470 -0.0760
vn 0.6556 0.7537 -0.0457
vn 0.6604 0.7471 -0.0756
vn 0.6555 0.7538 -0.0453
vn 0.6695 0.7310 -0.1320
vn 0.6663 0.7393 -0.0976
vn 0.6695 0.7312 -0.1311
vn 0.6662 0.7394 -0.0974
vn 0.6663 0.7149 -0.2122
vn 0.6682 0.7237 -0.1723
vn 0.6663 0.7152 -0.2110
vn 0.6682 0.7239 -0.1715
vn 0.6493 0.6960 -0.3064
vn 0.6599 0.7060 -0.2572
vn 0.6496 0.6964 -0.3051
vn 0.6602 0.7063 -0.2555
vn 0.6161 0.6975 -0.3659
vn 0.6405 0.6858 -0.3457
vn 0.6180 0.6960 -0.3656
vn 0.6408 0.6861 -0.3445
vn 0.5386 0.7226 -0.4332
vn 0.5697 0.7205 -0.3953
vn 0.5748 0.7200 -0.3889
vn 0.4293 0.8792 -0.2066
vn 0.4321 0.8853 -0.1720
vn 0.4195 0.8700 -0.2591
vn 0.4240 0.8752 -0.2329
vn 0.4288 0.9020 -0.0500
vn 0.4359 0.8958 -0.0873
vn 0.4300 0.9004 -0.0657
vn 0.4347 0.8894 -0.1415
vn 0.4368 0.8920 -0.1162
vn 0.3995 0.8748 -0.2740
vn 0.3579 0.8931 -0.2726
vn 0.1431 0.9896 -0.0138
vn 0.0515 0.9981 -0.0325
vn 0.0513 0.9981 -0.0330
vn 0.0634 0.9978 -0.0194
vn 0.0504 0.9981 -0.0357
vn 0.0484 -0.0064 0.9988
# 205 vertex normals

vt 0.9811 0.0121 0.0000
vt 0.9816 0.0120 0.0000
vt 0.9816 0.0121 0.0000
vt 0.9799 0.0065 0.0000
vt 0.9798 0.0065 0.0000
vt 0.9797 0.0061 0.0000
vt 0.9796 0.0061 0.0000
vt 0.9796 0.0058 0.0000
vt 0.9795 0.0058 0.0000
vt 0.9794 0.0055 0.0000
vt 0.9793 0.0055 0.0000
vt 0.9808 0.0112 0.0000
vt 0.9808 0.0104 0.0000
vt 0.9807 0.0104 0.0000
vt 0.9807 0.0095 0.0000
vt 0.9806 0.0095 0.0000
vt 0.9805 0.0086 0.0000
vt 0.9804 0.0087 0.0000
vt 0.9803 0.0078 0.0000
vt 0.9802 0.0078 0.0000
vt 0.9801 0.0071 0.0000
vt 0.9800 0.0072 0.0000
vt 0.9793 0.0053 0.0000
vt 0.9792 0.0054 0.0000
vt 0.9792 0.0052 0.0000
vt 0.9792 0.0053 0.0000
vt 0.9791 0.0051 0.0000
vt 0.9790 0.0051 0.0000
vt 0.9791 0.0050 0.0000
vt 0.9790 0.0050 0.0000
vt 0.9818 0.0050 0.0000
vt 0.9818 0.0052 0.0000
vt 0.9817 0.0050 0.0000
vt 0.9817 0.0052 0.0000
vt 0.9818 0.0056 0.0000
vt 0.9817 0.0059 0.0000
vt 0.9817 0.0056 0.0000
vt 0.9817 0.0061 0.0000
vt 0.9811 0.0112 0.0000
vt 0.9815 0.0114 0.0000
vt 0.9809 0.0095 0.0000
vt 0.9814 0.0096 0.0000
vt 0.9810 0.0103 0.0000
vt 0.9815 0.0102 0.0000
vt 0.9814 0.0090 0.0000
vt 0.9808 0.0086 0.0000
vt 0.9813 0.0084 0.0000
vt 0.9804 0.0071 0.0000
vt 0.9811 0.0069 0.0000
vt 0.9805 0.0077 0.0000
vt 0.9812 0.0078 0.0000
vt 0.9810 0.0067 0.0000
vt 0.9793 0.0050 0.0000
vt 0.9796 0.0050 0.0000
vt 0.9794 0.0052 0.0000
vt 0.9799 0.0060 0.0000
vt 0.9807 0.0057 0.0000
vt 0.9801 0.0065 0.0000
vt 0.9809 0.0063 0.0000
vt 0.9807 0.0056 0.0000
vt 0.9800 0.0050 0.0000
vt 0.9796 0.0054 0.0000
vt 0.9806 0.0104 0.0000
vt 0.9807 0.0112 0.0000
vt 0.9805 0.0095 0.0000
vt 0.9791 0.0053 0.0000
vt 0.9798 0.0057 0.0000
vt 0.9808 0.0121 0.0000
vt 0.9809 0.0121 0.0000
vt 0.9807 0.0121 0.0000
vt 0.9815 0.0108 0.0000
vt 0.9805 0.0053 0.0000
vt 0.9810 0.0064 0.0000
vt 0.9802 0.0050 0.0000
vt 0.9816 0.0122 0.0000
vt 0.9796 0.0181 0.0000
vt 0.9798 0.0176 0.0000
vt 0.9797 0.0181 0.0000
vt 0.9799 0.0177 0.0000
vt 0.9793 0.0186 0.0000
vt 0.9795 0.0184 0.0000
vt 0.9794 0.0187 0.0000
vt 0.9796 0.0184 0.0000
vt 0.9807 0.0138 0.0000
vt 0.9808 0.0129 0.0000
vt 0.9808 0.0138 0.0000
vt 0.9804 0.0155 0.0000
vt 0.9806 0.0147 0.0000
vt 0.9805 0.0155 0.0000
vt 0.9807 0.0147 0.0000
vt 0.9800 0.0170 0.0000
vt 0.9802 0.0164 0.0000
vt 0.9801 0.0170 0.0000
vt 0.9803 0.0164 0.0000
vt 0.9792 0.0189 0.0000
vt 0.9792 0.0188 0.0000
vt 0.9793 0.0188 0.0000
vt 0.9790 0.0190 0.0000
vt 0.9791 0.0191 0.0000
vt 0.9790 0.0192 0.0000
vt 0.9791 0.0192 0.0000
vt 0.9820 0.0052 0.0000
vt 0.9819 0.0052 0.0000
vt 0.9820 0.0050 0.0000
vt 0.9819 0.0050 0.0000
vt 0.9821 0.0061 0.0000
vt 0.9820 0.0059 0.0000
vt 0.9820 0.0056 0.0000
vt 0.9815 0.0128 0.0000
vt 0.9811 0.0129 0.0000
vt 0.9815 0.0140 0.0000
vt 0.9814 0.0146 0.0000
vt 0.9810 0.0138 0.0000
vt 0.9809 0.0147 0.0000
vt 0.9814 0.0152 0.0000
vt 0.9813 0.0158 0.0000
vt 0.9808 0.0155 0.0000
vt 0.9804 0.0171 0.0000
vt 0.9805 0.0164 0.0000
vt 0.9811 0.0172 0.0000
vt 0.9812 0.0164 0.0000
vt 0.9810 0.0175 0.0000
vt 0.9793 0.0192 0.0000
vt 0.9794 0.0190 0.0000
vt 0.9796 0.0192 0.0000
vt 0.9809 0.0179 0.0000
vt 0.9807 0.0185 0.0000
vt 0.9801 0.0177 0.0000
vt 0.9799 0.0182 0.0000
vt 0.9807 0.0186 0.0000
vt 0.9800 0.0192 0.0000
vt 0.9796 0.0188 0.0000
vt 0.9806 0.0138 0.0000
vt 0.9807 0.0129 0.0000
vt 0.9805 0.0147 0.0000
vt 0.9791 0.0189 0.0000
vt 0.9798 0.0185 0.0000
vt 0.9815 0.0134 0.0000
vt 0.9805 0.0189 0.0000
vt 0.9810 0.0178 0.0000
vt 0.9802 0.0192 0.0000
# 141 texture coords

g U803_1A_182C_C_1_D_U803_1A_182C_C
usemtl diffuse_black_plasticSG
s off
f 1/1/1 2/2/2 3/3/3 
s 1
f 4/4/4 5/5/5 6/6/6 
f 6/6/6 5/5/5 7/7/7 
s 2
f 8/8/8 9/9/9 10/10/10 
f 10/10/10 9/9/9 11/11/11 
s 3
f 12/12/12 13/12/13 14/13/14 
f 14/13/14 13/12/13 15/14/15 
s 4
f 16/15/16 17/16/17 18/17/18 
f 18/17/18 17/16/17 19/18/19 
s 5
f 20/19/20 21/20/21 22/21/22 
f 22/21/22 21/20/21 23/22/23 
s 6
f 24/23/24 25/24/25 26/25/26 
f 26/25/26 25/24/25 27/26/27 
s 7
f 26/25/26 27/26/27 28/27/28 
f 28/27/28 27/26/27 29/28/29 
f 28/27/28 29/28/29 30/29/30 
f 30/29/30 29/28/29 31/30/31 
s 8
f 32/31/32 33/32/33 34/33/34 
f 34/33/34 33/32/33 35/34/35 
s 9
f 36/35/36 37/36/37 38/37/38 
f 38/37/38 37/36/37 30/38/30 
s 10
f 39/39/39 40/40/40 1/1/1 
f 1/1/1 40/40/40 2/2/2 
s 11
f 41/41/41 42/42/42 43/43/43 
f 43/43/43 42/42/42 44/44/44 
s off
f 45/45/45 46/46/46 47/47/47 
s 12
f 48/48/48 49/49/49 50/50/50 
f 50/50/50 49/49/49 51/51/51 
s off
f 49/49/49 48/48/48 52/52/52 
f 37/53/53 36/54/54 53/55/55 
s 13
f 54/56/56 55/57/57 56/58/58 
f 56/58/58 55/57/57 57/59/59 
s off
f 54/56/56 58/60/60 55/57/57 
s 14
f 33/61/61 59/62/62 36/54/54 
f 36/54/54 59/62/62 53/55/55 
s 15
f 60/63/63 15/14/64 61/64/65 
f 61/64/65 15/14/64 13/12/66 
s 16
f 62/18/67 19/18/68 63/65/69 
f 63/65/69 19/18/68 17/16/70 
s 17
f 64/22/71 23/22/72 65/20/73 
f 65/20/73 23/22/72 21/20/74 
s 18
f 5/5/75 66/5/76 7/7/77 
f 7/7/77 66/5/76 67/7/78 
s 19
f 9/9/79 68/9/80 11/11/81 
f 11/11/81 68/9/80 69/11/82 
s 20
f 25/24/83 70/24/84 27/26/85 
f 27/26/85 70/24/84 71/66/85 
s 1
f 56/58/86 4/4/4 54/56/87 
f 54/56/87 4/4/4 6/6/6 
s 2
f 72/67/88 8/8/8 59/62/89 
f 59/62/89 8/8/8 10/10/10 
s 3
f 39/39/12 12/12/12 43/43/90 
f 43/43/90 12/12/12 14/13/14 
s 4
f 41/41/91 16/15/16 46/46/92 
f 46/46/92 16/15/16 18/17/18 
s 5
f 50/50/93 20/19/20 48/48/94 
f 48/48/94 20/19/20 22/21/22 
s 21
f 59/62/89 10/10/10 53/55/95 
f 53/55/95 10/10/10 24/23/24 
s 7
f 28/27/28 37/53/96 26/25/26 
f 26/25/26 37/53/96 53/55/95 
f 28/27/28 30/29/30 37/53/96 
s 22
f 17/16/17 16/15/16 15/14/15 
f 15/14/15 16/15/16 14/13/14 
s 23
f 63/65/69 17/16/70 60/63/63 
f 60/63/63 17/16/70 15/14/64 
s 22
f 16/15/16 41/41/91 14/13/14 
f 14/13/14 41/41/91 43/43/90 
s 24
f 13/12/13 12/12/12 73/68/97 
f 73/68/97 12/12/12 74/69/98 
s 25
f 61/64/65 13/12/66 75/70/99 
f 75/70/99 13/12/66 73/68/99 
s 24
f 12/12/12 39/39/12 74/69/98 
f 74/69/98 39/39/12 1/1/98 
s 26
f 39/39/39 43/43/43 76/71/100 
f 76/71/100 43/43/43 44/44/44 
s 27
f 21/20/21 20/19/20 19/18/19 
f 19/18/19 20/19/20 18/17/18 
s 28
f 65/20/73 21/20/74 62/18/67 
f 62/18/67 21/20/74 19/18/68 
s 27
f 20/19/20 50/50/93 18/17/18 
f 18/17/18 50/50/93 46/46/92 
s 29
f 5/5/5 4/4/4 23/22/23 
f 23/22/23 4/4/4 22/21/22 
s 30
f 66/5/76 5/5/75 64/22/71 
f 64/22/71 5/5/75 23/22/72 
s 29
f 4/4/4 56/58/86 22/21/22 
f 22/21/22 56/58/86 48/48/94 
s 31
f 9/9/9 8/8/8 7/7/7 
f 7/7/7 8/8/8 6/6/6 
s 32
f 68/9/80 9/9/79 67/7/78 
f 67/7/78 9/9/79 7/7/77 
s 31
f 8/8/8 72/67/88 6/6/6 
f 6/6/6 72/67/88 54/56/87 
s 33
f 72/67/101 77/72/102 54/56/56 
f 54/56/56 77/72/102 58/60/60 
s 34
f 52/52/52 48/48/48 78/73/103 
f 78/73/103 48/48/48 56/58/58 
s off
f 56/58/58 57/59/59 78/73/103 
s 21
f 25/24/25 24/23/24 11/11/11 
f 11/11/11 24/23/24 10/10/10 
s 35
f 70/24/84 25/24/83 69/11/82 
f 69/11/82 25/24/83 11/11/81 
s 36
f 33/32/33 36/35/36 35/34/35 
f 35/34/35 36/35/36 38/37/38 
s off
f 59/62/62 33/61/61 32/74/104 
s 37
f 59/62/62 32/74/104 72/67/101 
f 72/67/101 32/74/104 77/72/102 
s 6
f 53/55/95 24/23/24 26/25/26 
s 38
f 42/42/42 41/41/41 45/45/45 
f 45/45/45 41/41/41 46/46/46 
s off
f 40/40/40 39/39/39 76/71/100 
s 39
f 47/47/47 46/46/46 51/51/51 
f 51/51/51 46/46/46 50/50/50 
s off
f 32/31/32 34/33/34 79/33/105 
f 1/1/1 3/3/3 80/75/106 
s 40
f 81/76/107 82/77/108 83/78/109 
f 83/78/109 82/77/108 84/79/110 
s 41
f 85/80/111 86/81/112 87/82/113 
f 87/82/113 86/81/112 88/83/114 
s 42
f 89/84/115 90/85/116 91/86/117 
f 91/86/117 90/85/116 92/85/118 
s 43
f 93/87/119 94/88/120 95/89/121 
f 95/89/121 94/88/120 96/90/122 
s 44
f 97/91/123 98/92/124 99/93/125 
f 99/93/125 98/92/124 100/94/126 
s 45
f 101/95/127 102/96/128 103/95/129 
f 103/95/129 102/96/128 104/97/130 
s 46
f 105/98/131 101/95/127 106/99/132 
f 106/99/132 101/95/127 103/95/129 
f 107/100/133 105/98/131 108/101/134 
f 108/101/134 105/98/131 106/99/132 
s 47
f 109/102/135 110/103/136 111/104/137 
f 111/104/137 110/103/136 112/105/138 
s 48
f 108/106/139 113/107/139 114/108/140 
f 114/108/140 113/107/139 115/108/141 
s 49
f 80/75/106 116/109/142 1/1/1 
f 1/1/1 116/109/142 117/110/143 
s 50
f 118/111/144 119/112/145 120/113/146 
f 120/113/146 119/112/145 121/114/147 
s off
f 122/115/148 123/116/149 124/117/150 
s 51
f 125/118/151 126/119/152 127/120/153 
f 127/120/153 126/119/152 128/121/154 
s off
f 127/120/153 129/122/155 125/118/151 
f 113/123/156 130/124/157 115/125/158 
s 52
f 131/126/159 132/127/160 133/128/161 
f 133/128/161 132/127/160 134/129/162 
s off
f 134/129/162 132/127/160 135/130/163 
s 53
f 110/131/164 115/125/158 136/132/165 
f 136/132/165 115/125/158 130/124/157 
s 54
f 137/133/166 138/134/167 89/84/168 
f 89/84/168 138/134/167 90/85/169 
s 55
f 139/87/170 140/135/171 93/87/172 
f 93/87/172 140/135/171 94/88/173 
s 56
f 141/91/174 142/92/175 97/91/176 
f 97/91/176 142/92/175 98/92/177 
s 57
f 143/76/178 144/77/179 81/76/180 
f 81/76/180 144/77/179 82/77/181 
s 58
f 145/80/182 146/81/183 85/80/184 
f 85/80/184 146/81/183 86/81/185 
s 59
f 147/136/186 148/96/187 101/95/186 
f 101/95/186 148/96/187 102/96/188 
s 40
f 83/78/109 84/79/110 134/129/189 
f 134/129/189 84/79/110 133/128/190 
s 41
f 87/82/113 88/83/114 136/132/191 
f 136/132/191 88/83/114 149/137/192 
s 42
f 91/86/117 92/85/118 120/113/193 
f 120/113/193 92/85/118 117/110/118 
s 43
f 95/89/121 96/90/122 124/117/194 
f 124/117/194 96/90/122 121/114/195 
s 44
f 99/93/125 100/94/126 125/118/196 
f 125/118/196 100/94/126 126/119/197 
s 60
f 104/97/130 87/82/113 130/124/198 
f 130/124/198 87/82/113 136/132/191 
s 46
f 130/124/198 113/123/199 103/95/129 
f 103/95/129 113/123/199 106/99/132 
s off
f 106/99/132 113/123/199 108/101/134 
s 61
f 91/86/117 96/90/122 89/84/115 
f 89/84/115 96/90/122 94/88/120 
s 62
f 89/84/168 94/88/173 137/133/166 
f 137/133/166 94/88/173 140/135/171 
s 61
f 120/113/193 121/114/195 91/86/117 
f 91/86/117 121/114/195 96/90/122 
s 63
f 74/69/98 92/85/118 73/68/97 
f 73/68/97 92/85/118 90/85/116 
s 64
f 73/68/99 90/85/169 75/70/99 
f 75/70/99 90/85/169 138/134/167 
s 63
f 1/1/98 117/110/118 74/69/98 
f 74/69/98 117/110/118 92/85/118 
s 65
f 118/111/144 120/113/146 150/138/200 
f 150/138/200 120/113/146 117/110/143 
s 66
f 95/89/121 100/94/126 93/87/119 
f 93/87/119 100/94/126 98/92/124 
s 67
f 142/92/175 139/87/170 98/92/177 
f 98/92/177 139/87/170 93/87/172 
s 66
f 124/117/194 126/119/197 95/89/121 
f 95/89/121 126/119/197 100/94/126 
s 68
f 99/93/125 84/79/110 97/91/123 
f 97/91/123 84/79/110 82/77/108 
s 69
f 97/91/176 82/77/181 141/91/174 
f 141/91/174 82/77/181 144/77/179 
s 68
f 125/118/196 133/128/190 99/93/125 
f 99/93/125 133/128/190 84/79/110 
s 70
f 83/78/109 88/83/114 81/76/107 
f 81/76/107 88/83/114 86/81/112 
s 71
f 81/76/180 86/81/185 143/76/178 
f 143/76/178 86/81/185 146/81/183 
s 70
f 134/129/189 149/137/192 83/78/109 
f 83/78/109 149/137/192 88/83/114 
s 72
f 135/130/163 151/139/201 134/129/162 
f 134/129/162 151/139/201 149/137/202 
s 73
f 133/128/161 125/118/151 152/140/203 
f 152/140/203 125/118/151 129/122/155 
s off
f 133/128/161 152/140/203 131/126/159 
s 60
f 87/82/113 104/97/130 85/80/111 
f 85/80/111 104/97/130 102/96/128 
s 74
f 85/80/184 102/96/188 145/80/182 
f 145/80/182 102/96/188 148/96/187 
s 75
f 114/108/140 115/108/141 109/102/135 
f 109/102/135 115/108/141 110/103/136 
s off
f 136/132/165 112/141/204 110/131/164 
s 76
f 151/139/201 112/141/204 149/137/202 
f 149/137/202 112/141/204 136/132/165 
s 45
f 130/124/198 103/95/129 104/97/130 
s 77
f 124/117/150 121/114/147 122/115/148 
f 122/115/148 121/114/147 119/112/145 
s off
f 116/109/142 150/138/200 117/110/143 
s 78
f 126/119/152 124/117/150 128/121/154 
f 128/121/154 124/117/150 123/116/149 
s off
f 112/105/138 153/104/205 111/104/137 
# 230 faces

