# 3ds Max Wavefront OBJ Exporter v0.97b - (c)2007 guruware
# File Created: 14.12.2015 11:43:27

mtllib U236_17_181C_R.mtl

#
# object U236_17_181C_R_2_D_U236_17_181C_R
#

v  91.9105 25.5127 68.9671
v  90.1360 24.0773 70.1684
v  92.2400 25.2804 69.1107
v  90.3347 23.7888 70.3638
v  94.1523 27.0539 67.1079
v  93.8388 27.2280 67.0094
v  94.7014 28.4832 65.0646
v  95.0139 28.3190 65.1585
v  95.8779 29.4386 61.9951
v  95.4919 29.6405 61.8853
# 10 vertices

vn 0.1102 0.6336 0.7658
vn 0.0028 0.5785 0.8157
vn 0.1112 0.6345 0.7649
vn 0.0027 0.5572 0.8304
vn 0.1808 0.7098 0.6808
vn 0.1826 0.7119 0.6781
vn 0.2909 0.8251 0.4843
vn 0.2828 0.8180 0.5009
vn 0.3600 0.8837 0.2992
vn 0.3653 0.8735 0.3219
# 10 vertex normals

vt 0.8037 0.7599 0.0000
vt 0.8044 0.7609 0.0000
vt 0.8038 0.7597 0.0000
vt 0.8045 0.7608 0.0000
vt 0.8027 0.7587 0.0000
vt 0.8026 0.7588 0.0000
vt 0.8015 0.7583 0.0000
vt 0.8016 0.7582 0.0000
vt 0.7998 0.7577 0.0000
vt 0.7997 0.7579 0.0000
# 10 texture coords

g U236_17_181C_R_2_D_U236_17_181C_R
usemtl diffuse_holesSG
s 1
f 1/1/1 2/2/2 3/3/3 
f 3/3/3 2/2/2 4/4/4 
f 5/5/5 6/6/6 3/3/3 
f 3/3/3 6/6/6 1/1/1 
f 7/7/7 6/6/6 8/8/8 
f 8/8/8 6/6/6 5/5/5 
f 8/8/8 9/9/9 7/7/7 
f 7/7/7 9/9/9 10/10/10 
# 8 faces

#
# object U236_17_181C_R_U236_17_181C_R_1_DaS
#

v  87.6891 34.1101 59.7285
v  79.0894 38.7139 57.3239
v  86.2181 33.4956 62.2371
v  77.6995 38.3536 59.2421
v  41.1283 56.9374 50.0989
v  35.4853 58.8039 49.8537
v  40.5685 56.4150 51.3958
v  35.0126 58.2145 51.1392
v  68.4733 42.7833 57.7437
v  76.2135 37.7985 61.1021
v  69.4966 43.0829 56.3582
v  70.4366 43.3785 54.9163
v  46.9925 54.0299 51.8492
v  47.6215 54.4705 50.4674
v  53.8185 50.8401 53.0902
v  54.4767 51.1970 51.8581
v  61.1497 47.0269 55.0417
v  61.8752 47.3435 53.8572
v  62.4956 47.6257 52.6942
v  84.3772 32.8134 63.7428
v  41.7577 57.4443 48.3500
v  48.5365 54.8051 48.6993
v  42.2823 57.6465 46.7462
v  36.0147 59.4079 48.0994
v  36.4100 59.7959 46.2241
v  36.6050 59.9888 44.8983
v  32.5877 61.4470 43.5178
v  32.2599 61.0044 46.1308
v  31.9219 60.5505 48.0122
v  55.0951 51.5091 50.5957
v  31.4699 59.8719 49.7684
v  31.0886 59.2182 51.0642
v  91.9551 25.7480 69.1903
v  87.6811 27.9459 67.9689
v  90.1934 24.3807 70.4963
v  94.7995 28.7699 65.2097
v  93.9069 27.4869 67.2035
v  95.6182 29.9621 61.9817
v  83.3226 32.4226 64.6053
v  85.9124 30.0272 66.5452
# 40 vertices

vn 0.3354 0.8512 0.4036
vn 0.3420 0.8475 0.4059
vn 0.2676 0.7942 0.5456
vn 0.3139 0.8211 0.4768
vn 0.2907 0.8691 0.4001
vn 0.2517 0.8714 0.4210
vn 0.2737 0.8491 0.4519
vn 0.2360 0.8488 0.4731
vn 0.3251 0.8328 0.4480
vn 0.2905 0.7970 0.5296
vn 0.3346 0.8402 0.4266
vn 0.3451 0.8484 0.4014
vn 0.3060 0.8508 0.4271
vn 0.3198 0.8659 0.3846
vn 0.3238 0.8478 0.4200
vn 0.3327 0.8569 0.3938
vn 0.3286 0.8436 0.4247
vn 0.3363 0.8490 0.4076
vn 0.3437 0.8538 0.3909
vn 0.2425 0.7672 0.5938
vn 0.3114 0.8988 0.3084
vn 0.3310 0.8763 0.3501
vn 0.3225 0.9176 0.2323
vn 0.2761 0.9082 0.3146
vn 0.2899 0.9309 0.2222
vn 0.2874 0.9394 0.1870
vn 0.2739 0.9431 0.1885
vn 0.2659 0.9361 0.2301
vn 0.2471 0.9111 0.3299
vn 0.3403 0.8641 0.3708
vn 0.2243 0.8723 0.4346
vn 0.2119 0.8496 0.4830
vn 0.1986 0.7320 0.6517
vn 0.2106 0.7397 0.6391
vn 0.1987 0.7320 0.6517
vn 0.2458 0.7810 0.5741
vn 0.2256 0.7607 0.6086
vn 0.3318 0.8537 0.4013
vn 0.2278 0.7505 0.6204
vn 0.2180 0.7444 0.6311
# 40 vertex normals

vt 0.2383 0.0676 0.0000
vt 0.2554 0.0576 0.0000
vt 0.2412 0.0687 0.0000
vt 0.2582 0.0582 0.0000
vt 0.3319 0.0222 0.0000
vt 0.3433 0.0186 0.0000
vt 0.3330 0.0232 0.0000
vt 0.3442 0.0197 0.0000
vt 0.2767 0.0489 0.0000
vt 0.2611 0.0591 0.0000
vt 0.2747 0.0484 0.0000
vt 0.2728 0.0479 0.0000
vt 0.3201 0.0278 0.0000
vt 0.3189 0.0269 0.0000
vt 0.3064 0.0337 0.0000
vt 0.3050 0.0330 0.0000
vt 0.2916 0.0408 0.0000
vt 0.2901 0.0402 0.0000
vt 0.2889 0.0397 0.0000
vt 0.2449 0.0699 0.0000
vt 0.3307 0.0212 0.0000
vt 0.3170 0.0262 0.0000
vt 0.3296 0.0208 0.0000
vt 0.3422 0.0173 0.0000
vt 0.3414 0.0166 0.0000
vt 0.3410 0.0162 0.0000
vt 0.3491 0.0132 0.0000
vt 0.3498 0.0141 0.0000
vt 0.3504 0.0151 0.0000
vt 0.3038 0.0324 0.0000
vt 0.3513 0.0164 0.0000
vt 0.3521 0.0178 0.0000
vt 0.2295 0.0845 0.0000
vt 0.2384 0.0802 0.0000
vt 0.2335 0.0876 0.0000
vt 0.2242 0.0788 0.0000
vt 0.2264 0.0817 0.0000
vt 0.2224 0.0762 0.0000
vt 0.2470 0.0707 0.0000
vt 0.2419 0.0758 0.0000
# 40 texture coords

g U236_17_181C_R_U236_17_181C_R_1_DaS
usemtl paint_blueSG
s 1
f 11/11/11 12/12/12 13/13/13 
f 13/13/13 12/12/12 14/14/14 
f 15/15/15 16/16/16 17/17/17 
f 17/17/17 16/16/16 18/18/18 
f 19/19/19 20/20/20 21/21/21 
f 21/21/21 20/20/20 14/14/14 
f 21/21/21 14/14/14 22/22/22 
f 22/22/22 14/14/14 12/12/12 
f 17/17/17 23/23/23 15/15/15 
f 15/15/15 23/23/23 24/24/24 
f 23/23/23 25/25/25 24/24/24 
f 24/24/24 25/25/25 26/26/26 
f 25/25/25 27/27/27 26/26/26 
f 26/26/26 27/27/27 28/28/28 
f 22/22/22 29/29/29 21/21/21 
f 21/21/21 29/29/29 28/28/28 
f 13/13/13 14/14/14 30/30/30 
f 30/30/30 14/14/14 20/20/20 
f 31/31/31 32/32/32 33/33/33 
f 34/34/34 31/31/31 35/35/35 
f 35/35/35 31/31/31 33/33/33 
f 35/35/35 33/33/33 36/36/36 
f 37/37/37 38/38/38 36/36/36 
f 36/36/36 38/38/38 35/35/35 
f 39/39/39 34/34/34 38/38/38 
f 38/38/38 34/34/34 35/35/35 
f 40/40/40 32/32/32 26/26/26 
f 26/26/26 32/32/32 24/24/24 
f 32/32/32 31/31/31 24/24/24 
f 24/24/24 31/31/31 15/15/15 
f 31/31/31 34/34/34 15/15/15 
f 15/15/15 34/34/34 16/16/16 
f 34/34/34 39/39/39 16/16/16 
f 16/16/16 39/39/39 41/41/41 
f 42/42/42 18/18/18 41/41/41 
f 41/41/41 18/18/18 16/16/16 
f 43/43/43 44/44/44 45/45/45 
f 46/46/46 13/13/13 47/47/47 
f 47/47/47 13/13/13 30/30/30 
f 11/11/11 13/13/13 48/48/48 
f 48/48/48 13/13/13 46/46/46 
f 26/26/26 28/28/28 40/40/40 
f 40/40/40 28/28/28 29/29/29 
f 21/21/21 28/28/28 19/19/19 
f 19/19/19 28/28/28 27/27/27 
f 49/49/49 50/50/50 43/43/43 
f 43/43/43 50/50/50 44/44/44 
f 49/49/49 30/30/30 20/20/20 
f 47/47/47 30/30/30 43/43/43 
f 43/43/43 30/30/30 49/49/49 
# 50 faces

#
# object U236_17_181C_R_U236_17_181C_R_1_DaS_E
#

v  36.6050 59.9888 44.8983
v  36.4909 59.6338 44.8439
v  32.5877 61.4470 43.5178
v  32.4029 60.8276 43.4284
v  42.2823 57.6465 46.7462
v  42.1608 57.2965 46.6792
v  48.5365 54.8051 48.6993
v  48.4394 54.4482 48.6196
v  55.0951 51.5091 50.5957
v  54.9600 51.1743 50.4953
v  62.4956 47.6257 52.6942
v  62.3631 47.2983 52.5733
v  70.4366 43.3785 54.9163
v  70.3012 43.0509 54.7983
v  79.0894 38.7139 57.3239
v  78.9522 38.3855 57.2098
v  87.6891 34.1101 59.7285
v  87.5519 33.7794 59.6196
v  95.6182 29.9621 61.9817
v  95.4781 29.6477 61.8813
v  40.5685 56.4150 51.3958
v  40.3873 55.8434 51.1468
v  46.9925 54.0299 51.8492
v  46.7917 53.4600 51.6092
v  35.0126 58.2145 51.1392
v  34.8583 57.6404 50.8804
v  31.0886 59.2182 51.0642
v  29.9705 59.5042 51.0429
v  29.8471 58.9277 50.7752
v  85.9124 30.0272 66.5452
v  85.8056 29.5666 66.1317
v  87.6811 27.9459 67.9689
v  87.6014 27.5068 67.5308
v  83.1935 31.9407 64.2159
v  83.3226 32.4226 64.6053
v  76.2135 37.7985 61.1021
v  76.0160 37.2560 60.8134
v  68.4733 42.7833 57.7437
v  68.2514 42.2184 57.5090
v  61.1497 47.0269 55.0417
v  60.9338 46.4627 54.8011
v  53.6042 50.2705 52.8590
v  53.8185 50.8401 53.0902
v  90.1510 24.0492 70.1792
v  90.1934 24.3807 70.4963
v  32.2599 61.0044 46.1308
v  32.0066 60.1244 45.9827
v  91.9105 25.5126 68.9671
v  91.9551 25.7480 69.1903
v  93.8387 27.2280 67.0094
v  93.9069 27.4869 67.2035
v  94.7014 28.4832 65.0646
v  94.7995 28.7699 65.2097
# 53 vertices

vn 0.3305 0.0384 -0.9430
vn 0.3306 0.0388 -0.9430
vn -0.4863 0.2653 -0.8325
vn -0.5680 0.2798 -0.7740
vn 0.3283 0.0658 -0.9423
vn 0.3286 0.0671 -0.9421
vn 0.3358 0.1164 -0.9347
vn 0.3354 0.1178 -0.9347
vn 0.3386 0.1419 -0.9302
vn 0.3389 0.1430 -0.9299
vn 0.3577 0.1919 -0.9139
vn 0.3580 0.1925 -0.9137
vn 0.3547 0.1837 -0.9168
vn 0.3546 0.1835 -0.9168
vn 0.3502 0.1735 -0.9205
vn 0.3501 0.1733 -0.9205
vn 0.3461 0.1610 -0.9243
vn 0.3459 0.1607 -0.9244
vn 0.7944 -0.1670 -0.5840
vn 0.8228 -0.1929 -0.5346
vn -0.1751 -0.3467 0.9215
vn -0.1750 -0.3456 0.9219
vn -0.2424 -0.3034 0.9215
vn -0.2429 -0.3021 0.9218
vn -0.1385 -0.3758 0.9163
vn -0.1388 -0.3757 0.9163
vn -0.1197 -0.3933 0.9116
vn -0.1189 -0.3970 0.9101
vn -0.1193 -0.3958 0.9106
vn -0.7626 -0.3224 0.5608
vn -0.7648 -0.3267 0.5552
vn -0.8208 -0.3182 0.4744
vn -0.8237 -0.3190 0.4688
vn -0.6778 -0.3464 0.6485
vn -0.6737 -0.3427 0.6547
vn -0.5343 -0.2351 0.8120
vn -0.5380 -0.2394 0.8082
vn -0.4591 -0.1814 0.8697
vn -0.4607 -0.1823 0.8686
vn -0.4025 -0.2240 0.8876
vn -0.4036 -0.2235 0.8872
vn -0.3271 -0.2475 0.9120
vn -0.3263 -0.2480 0.9122
vn -0.1271 -0.6771 0.7249
vn -0.1078 -0.6804 0.7248
vn -0.9552 0.2878 -0.0694
vn -0.9555 0.2867 -0.0693
vn 0.7622 -0.5146 0.3928
vn 0.7663 -0.5124 0.3877
vn 0.8598 -0.4315 0.2730
vn 0.8667 -0.4253 0.2608
vn 0.9177 -0.3767 0.1264
vn 0.9175 -0.3785 0.1220
# 53 vertex normals

vt 0.3410 0.0162 0.0000
vt 0.3407 0.0155 0.0000
vt 0.3491 0.0132 0.0000
vt 0.3488 0.0126 0.0000
vt 0.3296 0.0208 0.0000
vt 0.3293 0.0202 0.0000
vt 0.3170 0.0262 0.0000
vt 0.3166 0.0257 0.0000
vt 0.3038 0.0324 0.0000
vt 0.3034 0.0319 0.0000
vt 0.2889 0.0397 0.0000
vt 0.2885 0.0391 0.0000
vt 0.2728 0.0479 0.0000
vt 0.2725 0.0473 0.0000
vt 0.2554 0.0576 0.0000
vt 0.2550 0.0570 0.0000
vt 0.2383 0.0676 0.0000
vt 0.2379 0.0670 0.0000
vt 0.2224 0.0762 0.0000
vt 0.2223 0.0758 0.0000
vt 0.3330 0.0232 0.0000
vt 0.3334 0.0243 0.0000
vt 0.3201 0.0278 0.0000
vt 0.3205 0.0289 0.0000
vt 0.3442 0.0197 0.0000
vt 0.3445 0.0209 0.0000
vt 0.3521 0.0178 0.0000
vt 0.3544 0.0173 0.0000
vt 0.3546 0.0184 0.0000
vt 0.2419 0.0758 0.0000
vt 0.2421 0.0767 0.0000
vt 0.2384 0.0802 0.0000
vt 0.2386 0.0811 0.0000
vt 0.2472 0.0716 0.0000
vt 0.2470 0.0707 0.0000
vt 0.2611 0.0591 0.0000
vt 0.2615 0.0602 0.0000
vt 0.2767 0.0489 0.0000
vt 0.2772 0.0500 0.0000
vt 0.2916 0.0408 0.0000
vt 0.2920 0.0419 0.0000
vt 0.3068 0.0348 0.0000
vt 0.3064 0.0337 0.0000
vt 0.2336 0.0883 0.0000
vt 0.2335 0.0876 0.0000
vt 0.3498 0.0141 0.0000
vt 0.3497 0.0137 0.0000
vt 0.2294 0.0847 0.0000
vt 0.2295 0.0845 0.0000
vt 0.2265 0.0820 0.0000
vt 0.2264 0.0817 0.0000
vt 0.2240 0.0788 0.0000
vt 0.2242 0.0788 0.0000
vt 0.2221 0.0760 0.0000
# 54 texture coords

g U236_17_181C_R_U236_17_181C_R_1_DaS_E
usemtl paint_blueSG
s 9
f 51/51/51 52/52/52 53/53/53 
f 53/53/53 52/52/52 54/54/54 
f 51/51/51 55/55/55 52/52/52 
f 52/52/52 55/55/55 56/56/56 
f 55/55/55 57/57/57 56/56/56 
f 56/56/56 57/57/57 58/58/58 
f 57/57/57 59/59/59 58/58/58 
f 58/58/58 59/59/59 60/60/60 
f 59/59/59 61/61/61 60/60/60 
f 60/60/60 61/61/61 62/62/62 
f 61/61/61 63/63/63 62/62/62 
f 62/62/62 63/63/63 64/64/64 
f 63/63/63 65/65/65 64/64/64 
f 64/64/64 65/65/65 66/66/66 
f 65/65/65 67/67/67 66/66/66 
f 66/66/66 67/67/67 68/68/68 
f 67/67/67 69/69/69 68/68/68 
f 68/68/68 69/69/69 70/70/70 
s 10
f 71/71/71 72/72/72 73/73/73 
f 73/73/73 72/72/72 74/74/74 
f 75/75/75 76/76/76 71/71/71 
f 71/71/71 76/76/76 72/72/72 
f 77/77/77 78/78/78 79/79/79 
f 80/80/80 81/81/81 82/82/82 
f 82/82/82 81/81/81 83/83/83 
f 81/81/81 80/80/80 84/84/84 
f 84/84/84 80/80/80 85/85/85 
f 86/86/86 87/87/87 85/85/85 
f 85/85/85 87/87/87 84/84/84 
f 88/88/88 89/89/89 86/86/86 
f 86/86/86 89/89/89 87/87/87 
f 90/90/90 91/91/91 88/88/88 
f 88/88/88 91/91/91 89/89/89 
f 91/91/91 90/90/90 92/92/92 
f 92/92/92 90/90/90 93/93/93 
f 73/73/73 74/74/74 93/93/93 
f 93/93/93 74/74/74 92/92/92 
f 94/94/94 95/95/95 83/83/83 
f 83/83/83 95/95/95 82/82/82 
s 9
f 53/53/53 54/54/54 96/96/96 
f 96/96/96 54/54/54 97/97/97 
s 10
f 75/75/75 77/77/77 76/76/76 
f 76/76/76 77/77/77 79/79/79 
f 94/94/94 98/98/98 95/95/95 
f 95/95/95 98/98/98 99/99/99 
f 98/98/98 100/100/100 99/99/99 
f 99/99/99 100/100/100 101/101/101 
f 100/100/100 102/102/102 101/101/101 
f 101/101/101 102/102/102 103/103/103 
f 69/69/69 103/103/103 70/104/70 
f 70/104/70 103/103/103 102/102/102 
# 51 faces

