# 3ds Max Wavefront OBJ Exporter v0.97b - (c)2007 guruware
# File Created: 14.12.2015 11:44:32

mtllib U236_17_265B_L.mtl

#
# object U236_17_265B_L_1_DTaSI_U236_17_265B_L
#

v  33.0374 55.4399 -55.4999
v  38.1920 53.8840 -55.8282
v  35.0809 52.2061 -57.0231
v  78.5944 20.3175 -73.4407
v  82.3475 20.1324 -73.4756
v  79.0633 17.1529 -75.5051
v  82.6148 17.3489 -75.3008
v  78.2918 22.3377 -72.1325
v  82.1551 22.1351 -72.1613
v  77.9019 24.9498 -70.4490
v  81.9082 24.7144 -70.4750
v  81.5868 28.0756 -68.2796
v  77.3952 28.3422 -68.2618
v  76.8205 32.2649 -65.7995
v  70.8614 32.6227 -65.8111
v  70.2607 36.8947 -63.3012
v  63.7251 37.2472 -63.3558
v  57.7514 37.5694 -63.4057
v  63.0953 41.4442 -61.0047
v  57.3710 41.7268 -61.2419
v  57.0713 45.0570 -59.2891
v  50.2496 48.7750 -57.6534
v  50.3537 45.3739 -59.6741
v  44.0359 51.6344 -56.5494
v  84.5098 24.5615 -70.4919
v  85.5391 21.9577 -72.1866
v  85.3275 19.9855 -73.5033
v  84.5277 18.3711 -74.5875
v  59.2918 21.2695 -73.2612
v  66.3132 20.9232 -73.3265
v  59.5967 18.1275 -75.2791
v  66.8323 17.7625 -75.3639
v  59.0946 23.3440 -71.9891
v  65.9819 22.9830 -72.0405
v  58.8359 26.0700 -70.3254
v  65.5505 25.6755 -70.3689
v  58.5047 29.5434 -68.1815
v  64.9944 29.1307 -68.2091
v  58.1400 33.3863 -65.8359
v  64.3766 33.0119 -65.8237
v  72.6359 20.6114 -73.3853
v  73.1126 17.4486 -75.4366
v  72.3328 22.6500 -72.0879
v  71.9402 25.3000 -70.4104
v  71.4320 28.7214 -68.2365
v  51.1482 21.6712 -73.1855
v  51.2601 18.5498 -75.1801
v  51.0765 23.7644 -71.9292
v  50.9819 26.5314 -70.2744
v  50.8610 30.0294 -68.1491
v  50.7301 33.8311 -65.8503
v  50.5925 37.9554 -63.4655
v  50.4585 42.0680 -61.3307
v  34.8491 22.4750 -73.0339
v  43.4647 22.0501 -73.1140
v  34.9577 19.3804 -74.9820
v  43.4090 18.9492 -75.0853
v  34.8324 24.6160 -71.8078
v  43.5045 24.1613 -71.8726
v  34.8096 27.4816 -70.1695
v  43.5573 26.9677 -70.2263
v  34.7847 31.0517 -68.0807
v  43.6230 30.4897 -68.1183
v  34.8405 34.7849 -65.8813
v  43.6931 34.2535 -65.8641
v  34.8228 38.8059 -63.5973
v  43.7705 38.3233 -63.5225
v  34.9091 42.8355 -61.5303
v  43.8493 42.3942 -61.4155
v  34.9885 46.0988 -59.9024
v  43.9139 45.6778 -59.7698
v  35.0483 49.3606 -58.3442
v  43.9811 49.0165 -58.1748
v  26.5845 19.8122 -74.8754
v  18.2883 20.2450 -74.7659
v  26.5399 22.8848 -72.9566
v  18.3628 23.2881 -72.8806
v  18.4160 25.4766 -71.6852
v  26.5101 25.0522 -71.7457
v  18.4879 28.4406 -70.0637
v  26.4699 27.9716 -70.1154
v  18.5765 32.0824 -68.0119
v  26.4194 31.5837 -68.0452
v  18.6660 35.7558 -65.9128
v  26.3678 35.2934 -65.8978
v  18.7612 39.6720 -63.7315
v  26.3136 39.2647 -63.6684
v  18.8572 43.6279 -61.7364
v  26.3653 43.2573 -61.6400
v  18.9355 46.8562 -60.1410
v  26.4595 46.5012 -60.0292
v  19.0111 49.9784 -58.6483
v  26.5613 49.6875 -58.5051
v  19.1969 57.7812 -55.3418
v  23.8277 57.2162 -55.3721
v  19.0874 53.1503 -57.1491
v  26.6273 52.7073 -57.1096
v  28.3297 56.4877 -55.4015
v  9.5791 20.7019 -74.6489
v  1.2433 21.1374 -74.5379
v  9.7231 23.7142 -72.8003
v  1.3557 24.1269 -72.7225
v  1.4385 26.3666 -71.5584
v  9.8268 25.9268 -71.6210
v  1.5519 29.4357 -69.9538
v  9.9679 28.9412 -70.0084
v  1.6900 33.1562 -67.9401
v  10.1408 32.6188 -67.9760
v  1.8242 36.7667 -65.9457
v  10.3128 36.2572 -65.9291
v  1.9657 40.5778 -63.8719
v  10.4952 40.1178 -63.8006
v  2.1095 44.4546 -61.9514
v  10.6799 44.0315 -61.8414
v  2.2275 47.6444 -60.3893
v  10.8306 47.2385 -60.2615
v  2.3374 50.6207 -58.9644
v  10.9745 50.2879 -58.8006
v  2.6461 59.1961 -55.1510
v  8.5757 58.8337 -55.1533
v  2.4662 54.1255 -57.2244
v  11.1290 53.6174 -57.1873
v  14.1028 58.3414 -55.2430
v  -7.0926 21.5717 -74.4216
v  -7.0743 24.5427 -72.6441
v  -7.0637 26.8123 -71.4949
v  -7.0495 29.9410 -69.8980
v  -7.0327 33.7108 -67.9031
v  -7.0162 37.2974 -65.9629
v  -6.9982 41.0612 -63.9468
v  -6.9797 44.9032 -62.0681
v  -6.9644 48.0780 -60.5259
v  -6.9489 50.9784 -59.1405
v  -6.9309 54.6760 -57.2593
v  -3.6271 59.4894 -55.1777
v  -15.4282 22.0069 -74.2911
v  -15.5497 24.9607 -72.5653
v  -15.6396 27.2619 -71.4308
v  -15.7646 30.4531 -69.8415
v  -15.9160 34.2757 -67.8653
v  -16.0582 37.8401 -65.9805
v  -16.2062 41.5578 -64.0237
v  -16.3578 45.3661 -62.1885
v  -16.4832 48.5271 -60.6674
v  -16.5950 51.3500 -59.3234
v  -16.9204 59.9790 -55.1864
v  -10.1854 59.7751 -55.1758
v  -16.7496 55.2507 -57.2900
v  -23.7891 22.4413 -74.1396
v  -23.8086 25.3680 -72.4885
v  -23.8027 27.6898 -71.3698
v  -23.7946 30.9249 -69.7894
v  -23.7853 34.7761 -67.8319
v  -23.7771 38.3035 -65.9956
v  -23.7687 41.9656 -64.0869
v  -23.7600 45.7315 -62.2836
v  -23.7526 48.8701 -60.7754
v  -23.7462 51.6255 -59.4590
v  -23.7233 60.0273 -55.2512
v  -23.7371 55.6593 -57.3084
v  -32.2405 25.7839 -72.4101
v  -32.0990 22.8633 -73.9698
v  -32.3506 28.1379 -71.3060
v  -32.5059 31.4367 -69.7329
v  -32.6917 35.3424 -67.7940
v  -32.8588 38.8486 -66.0133
v  -33.0308 42.4651 -64.1643
v  -33.2087 46.1979 -62.4049
v  -33.3577 49.3232 -60.9182
v  -33.4842 52.0006 -59.6436
v  -33.6891 56.2294 -57.2242
v  -30.5352 59.9251 -55.3234
v  -30.4974 59.9265 -55.3232
v  -40.5029 23.4209 -73.7194
v  -40.7120 26.2017 -72.3313
v  -40.8593 28.5840 -71.2424
v  -41.0678 31.9398 -69.6774
v  -41.3158 35.8908 -67.7574
v  -41.5353 39.3694 -66.0302
v  -41.7611 42.9359 -64.2372
v  -41.9958 46.6317 -62.5177
v  -42.1935 49.7401 -61.0495
v  -42.3597 52.3425 -59.8119
v  -42.8109 59.2602 -55.5202
v  -37.1458 59.6842 -55.3568
v  -42.6456 56.7407 -57.1319
v  -42.2040 23.5679 -73.6325
v  -46.0808 28.8577 -71.2034
v  -45.4854 26.4371 -72.2869
v  -46.9336 32.2844 -69.6393
v  -47.9496 36.3127 -67.7292
v  -48.7722 39.8038 -66.0443
v  -49.4493 43.3505 -64.3015
v  -49.9417 47.0239 -62.4560
v  -50.2726 50.1212 -60.8844
v  -50.4371 52.6536 -59.5625
v  -50.3139 54.3401 -58.6007
v  -45.3416 58.8336 -55.8263
v  -48.5019 56.9476 -57.0506
v  -46.9382 58.0915 -56.3592
v  -43.8992 23.9609 -73.5445
v  -44.9562 24.9184 -72.9978
v  -49.7274 55.6226 -57.8211
# 203 vertices

vn 0.0233 0.4679 -0.8835
# 1 vertex normals

vt 0.6346 0.5538 0.0000
vt 0.6130 0.5485 0.0000
vt 0.6255 0.5409 0.0000
vt 0.4392 0.4178 0.0000
vt 0.4237 0.4178 0.0000
vt 0.4366 0.4048 0.0000
vt 0.4220 0.4063 0.0000
vt 0.4409 0.4261 0.0000
vt 0.4249 0.4260 0.0000
vt 0.4430 0.4368 0.0000
vt 0.4264 0.4366 0.0000
vt 0.4284 0.4505 0.0000
vt 0.4458 0.4507 0.0000
vt 0.4490 0.4668 0.0000
vt 0.4737 0.4671 0.0000
vt 0.4770 0.4847 0.0000
vt 0.5041 0.4848 0.0000
vt 0.5289 0.4849 0.0000
vt 0.5075 0.5020 0.0000
vt 0.5313 0.5020 0.0000
vt 0.5332 0.5157 0.0000
vt 0.5621 0.5298 0.0000
vt 0.5610 0.5157 0.0000
vt 0.5884 0.5403 0.0000
vt 0.4156 0.4365 0.0000
vt 0.4108 0.4260 0.0000
vt 0.4113 0.4178 0.0000
vt 0.4143 0.4109 0.0000
vt 0.5192 0.4178 0.0000
vt 0.4901 0.4178 0.0000
vt 0.5173 0.4049 0.0000
vt 0.4873 0.4049 0.0000
vt 0.5205 0.4264 0.0000
vt 0.4919 0.4263 0.0000
vt 0.5221 0.4376 0.0000
vt 0.4942 0.4373 0.0000
vt 0.5241 0.4519 0.0000
vt 0.4972 0.4515 0.0000
vt 0.5264 0.4677 0.0000
vt 0.5006 0.4674 0.0000
vt 0.4639 0.4178 0.0000
vt 0.4613 0.4048 0.0000
vt 0.4656 0.4262 0.0000
vt 0.4677 0.4370 0.0000
vt 0.4705 0.4511 0.0000
vt 0.5530 0.4179 0.0000
vt 0.5519 0.4050 0.0000
vt 0.5537 0.4265 0.0000
vt 0.5546 0.4379 0.0000
vt 0.5558 0.4524 0.0000
vt 0.5571 0.4681 0.0000
vt 0.5585 0.4851 0.0000
vt 0.5599 0.5021 0.0000
vt 0.6205 0.4179 0.0000
vt 0.5848 0.4179 0.0000
vt 0.6195 0.4051 0.0000
vt 0.5844 0.4051 0.0000
vt 0.6210 0.4268 0.0000
vt 0.5851 0.4266 0.0000
vt 0.6217 0.4386 0.0000
vt 0.5854 0.4382 0.0000
vt 0.6225 0.4534 0.0000
vt 0.5859 0.4528 0.0000
vt 0.6230 0.4688 0.0000
vt 0.5863 0.4684 0.0000
vt 0.6239 0.4854 0.0000
vt 0.5868 0.4852 0.0000
vt 0.6244 0.5021 0.0000
vt 0.5873 0.5021 0.0000
vt 0.6247 0.5156 0.0000
vt 0.5877 0.5157 0.0000
vt 0.6251 0.5291 0.0000
vt 0.5881 0.5295 0.0000
vt 0.6542 0.4052 0.0000
vt 0.6886 0.4054 0.0000
vt 0.6550 0.4179 0.0000
vt 0.6889 0.4180 0.0000
vt 0.6891 0.4270 0.0000
vt 0.6555 0.4269 0.0000
vt 0.6894 0.4393 0.0000
vt 0.6563 0.4390 0.0000
vt 0.6897 0.4544 0.0000
vt 0.6572 0.4539 0.0000
vt 0.6901 0.4696 0.0000
vt 0.6582 0.4692 0.0000
vt 0.6905 0.4858 0.0000
vt 0.6592 0.4856 0.0000
vt 0.6909 0.5022 0.0000
vt 0.6598 0.5021 0.0000
vt 0.6912 0.5155 0.0000
vt 0.6600 0.5156 0.0000
vt 0.6915 0.5284 0.0000
vt 0.6603 0.5288 0.0000
vt 0.6923 0.5607 0.0000
vt 0.6731 0.5593 0.0000
vt 0.6919 0.5416 0.0000
vt 0.6606 0.5413 0.0000
vt 0.6543 0.5572 0.0000
vt 0.7247 0.4055 0.0000
vt 0.7592 0.4056 0.0000
vt 0.7247 0.4180 0.0000
vt 0.7593 0.4180 0.0000
vt 0.7595 0.4273 0.0000
vt 0.7247 0.4272 0.0000
vt 0.7596 0.4400 0.0000
vt 0.7247 0.4396 0.0000
vt 0.7598 0.4554 0.0000
vt 0.7247 0.4549 0.0000
vt 0.7599 0.4704 0.0000
vt 0.7247 0.4700 0.0000
vt 0.7601 0.4862 0.0000
vt 0.7248 0.4860 0.0000
vt 0.7603 0.5022 0.0000
vt 0.7248 0.5022 0.0000
vt 0.7605 0.5154 0.0000
vt 0.7248 0.5155 0.0000
vt 0.7606 0.5278 0.0000
vt 0.7248 0.5281 0.0000
vt 0.7611 0.5633 0.0000
vt 0.7365 0.5630 0.0000
vt 0.7608 0.5423 0.0000
vt 0.7249 0.5419 0.0000
vt 0.7135 0.5620 0.0000
vt 0.7938 0.4058 0.0000
vt 0.7943 0.4180 0.0000
vt 0.7947 0.4274 0.0000
vt 0.7953 0.4404 0.0000
vt 0.7960 0.4560 0.0000
vt 0.7966 0.4708 0.0000
vt 0.7973 0.4864 0.0000
vt 0.7980 0.5022 0.0000
vt 0.7986 0.5154 0.0000
vt 0.7991 0.5274 0.0000
vt 0.7997 0.5427 0.0000
vt 0.7871 0.5632 0.0000
vt 0.8283 0.4059 0.0000
vt 0.8294 0.4181 0.0000
vt 0.8302 0.4276 0.0000
vt 0.8314 0.4407 0.0000
vt 0.8328 0.4565 0.0000
vt 0.8341 0.4712 0.0000
vt 0.8355 0.4866 0.0000
vt 0.8368 0.5023 0.0000
vt 0.8380 0.5153 0.0000
vt 0.8390 0.5270 0.0000
vt 0.8421 0.5626 0.0000
vt 0.8142 0.5631 0.0000
vt 0.8405 0.5431 0.0000
vt 0.8630 0.4060 0.0000
vt 0.8636 0.4181 0.0000
vt 0.8641 0.4277 0.0000
vt 0.8647 0.4411 0.0000
vt 0.8654 0.4570 0.0000
vt 0.8661 0.4716 0.0000
vt 0.8668 0.4867 0.0000
vt 0.8675 0.5023 0.0000
vt 0.8681 0.5153 0.0000
vt 0.8687 0.5267 0.0000
vt 0.8703 0.5614 0.0000
vt 0.8694 0.5433 0.0000
vt 0.8986 0.4181 0.0000
vt 0.8974 0.4061 0.0000
vt 0.8995 0.4278 0.0000
vt 0.9008 0.4414 0.0000
vt 0.9024 0.4575 0.0000
vt 0.9038 0.4720 0.0000
vt 0.9052 0.4869 0.0000
vt 0.9067 0.5023 0.0000
vt 0.9079 0.5152 0.0000
vt 0.9090 0.5263 0.0000
vt 0.9107 0.5437 0.0000
vt 0.8984 0.5596 0.0000
vt 0.8982 0.5596 0.0000
vt 0.9323 0.4067 0.0000
vt 0.9337 0.4181 0.0000
vt 0.9348 0.4280 0.0000
vt 0.9363 0.4418 0.0000
vt 0.9381 0.4581 0.0000
vt 0.9397 0.4724 0.0000
vt 0.9414 0.4871 0.0000
vt 0.9431 0.5024 0.0000
vt 0.9446 0.5152 0.0000
vt 0.9458 0.5259 0.0000
vt 0.9490 0.5544 0.0000
vt 0.9257 0.5573 0.0000
vt 0.9478 0.5440 0.0000
vt 0.9393 0.4069 0.0000
vt 0.9564 0.4280 0.0000
vt 0.9535 0.4182 0.0000
vt 0.9606 0.4420 0.0000
vt 0.9657 0.4585 0.0000
vt 0.9698 0.4728 0.0000
vt 0.9733 0.4873 0.0000
vt 0.9760 0.5024 0.0000
vt 0.9780 0.5151 0.0000
vt 0.9792 0.5256 0.0000
vt 0.9791 0.5326 0.0000
vt 0.9594 0.5521 0.0000
vt 0.9721 0.5437 0.0000
vt 0.9658 0.5487 0.0000
vt 0.9464 0.4082 0.0000
vt 0.9510 0.4120 0.0000
vt 0.9769 0.5380 0.0000
# 203 texture coords

g U236_17_265B_L_1_DTaSI_U236_17_265B_L
usemtl windowglass_SG
s 1
f 1/1/1 2/2/1 3/3/1 
f 4/4/1 5/5/1 6/6/1 
f 6/6/1 5/5/1 7/7/1 
f 8/8/1 9/9/1 4/4/1 
f 4/4/1 9/9/1 5/5/1 
f 10/10/1 11/11/1 8/8/1 
f 8/8/1 11/11/1 9/9/1 
f 11/11/1 10/10/1 12/12/1 
f 12/12/1 10/10/1 13/13/1 
f 14/14/1 12/12/1 13/13/1 
f 15/15/1 16/16/1 14/14/1 
f 17/17/1 18/18/1 19/19/1 
f 19/19/1 18/18/1 20/20/1 
f 20/20/1 21/21/1 19/19/1 
f 22/22/1 21/21/1 23/23/1 
f 24/24/1 3/3/1 2/2/1 
f 12/12/1 25/25/1 11/11/1 
f 26/26/1 9/9/1 25/25/1 
f 25/25/1 9/9/1 11/11/1 
f 27/27/1 5/5/1 26/26/1 
f 26/26/1 5/5/1 9/9/1 
f 27/27/1 28/28/1 5/5/1 
f 5/5/1 28/28/1 7/7/1 
f 29/29/1 30/30/1 31/31/1 
f 31/31/1 30/30/1 32/32/1 
f 33/33/1 34/34/1 29/29/1 
f 29/29/1 34/34/1 30/30/1 
f 35/35/1 36/36/1 33/33/1 
f 33/33/1 36/36/1 34/34/1 
f 37/37/1 38/38/1 35/35/1 
f 35/35/1 38/38/1 36/36/1 
f 39/39/1 40/40/1 37/37/1 
f 37/37/1 40/40/1 38/38/1 
f 18/18/1 17/17/1 39/39/1 
f 39/39/1 17/17/1 40/40/1 
f 41/41/1 4/4/1 42/42/1 
f 42/42/1 4/4/1 6/6/1 
f 43/43/1 8/8/1 41/41/1 
f 41/41/1 8/8/1 4/4/1 
f 44/44/1 10/10/1 43/43/1 
f 43/43/1 10/10/1 8/8/1 
f 45/45/1 13/13/1 44/44/1 
f 44/44/1 13/13/1 10/10/1 
f 13/13/1 45/45/1 14/14/1 
f 14/14/1 45/45/1 15/15/1 
f 19/19/1 16/16/1 17/17/1 
f 15/15/1 40/40/1 16/16/1 
f 16/16/1 40/40/1 17/17/1 
f 45/45/1 38/38/1 15/15/1 
f 15/15/1 38/38/1 40/40/1 
f 44/44/1 36/36/1 45/45/1 
f 45/45/1 36/36/1 38/38/1 
f 43/43/1 34/34/1 44/44/1 
f 44/44/1 34/34/1 36/36/1 
f 41/41/1 30/30/1 43/43/1 
f 43/43/1 30/30/1 34/34/1 
f 42/42/1 32/32/1 41/41/1 
f 41/41/1 32/32/1 30/30/1 
f 46/46/1 29/29/1 47/47/1 
f 47/47/1 29/29/1 31/31/1 
f 48/48/1 33/33/1 46/46/1 
f 46/46/1 33/33/1 29/29/1 
f 49/49/1 35/35/1 48/48/1 
f 48/48/1 35/35/1 33/33/1 
f 50/50/1 37/37/1 49/49/1 
f 49/49/1 37/37/1 35/35/1 
f 51/51/1 39/39/1 50/50/1 
f 50/50/1 39/39/1 37/37/1 
f 52/52/1 18/18/1 51/51/1 
f 51/51/1 18/18/1 39/39/1 
f 53/53/1 20/20/1 52/52/1 
f 52/52/1 20/20/1 18/18/1 
f 23/23/1 21/21/1 53/53/1 
f 53/53/1 21/21/1 20/20/1 
f 54/54/1 55/55/1 56/56/1 
f 56/56/1 55/55/1 57/57/1 
f 58/58/1 59/59/1 54/54/1 
f 54/54/1 59/59/1 55/55/1 
f 60/60/1 61/61/1 58/58/1 
f 58/58/1 61/61/1 59/59/1 
f 62/62/1 63/63/1 60/60/1 
f 60/60/1 63/63/1 61/61/1 
f 64/64/1 65/65/1 62/62/1 
f 62/62/1 65/65/1 63/63/1 
f 66/66/1 67/67/1 64/64/1 
f 64/64/1 67/67/1 65/65/1 
f 68/68/1 69/69/1 66/66/1 
f 66/66/1 69/69/1 67/67/1 
f 70/70/1 71/71/1 68/68/1 
f 68/68/1 71/71/1 69/69/1 
f 72/72/1 73/73/1 70/70/1 
f 70/70/1 73/73/1 71/71/1 
f 24/24/1 22/22/1 73/73/1 
f 23/23/1 71/71/1 22/22/1 
f 22/22/1 71/71/1 73/73/1 
f 53/53/1 69/69/1 23/23/1 
f 23/23/1 69/69/1 71/71/1 
f 52/52/1 67/67/1 53/53/1 
f 53/53/1 67/67/1 69/69/1 
f 51/51/1 65/65/1 52/52/1 
f 52/52/1 65/65/1 67/67/1 
f 50/50/1 63/63/1 51/51/1 
f 51/51/1 63/63/1 65/65/1 
f 49/49/1 61/61/1 50/50/1 
f 50/50/1 61/61/1 63/63/1 
f 48/48/1 59/59/1 49/49/1 
f 49/49/1 59/59/1 61/61/1 
f 46/46/1 55/55/1 48/48/1 
f 48/48/1 55/55/1 59/59/1 
f 47/47/1 57/57/1 46/46/1 
f 46/46/1 57/57/1 55/55/1 
f 74/74/1 75/75/1 76/76/1 
f 76/76/1 75/75/1 77/77/1 
f 78/78/1 79/79/1 77/77/1 
f 77/77/1 79/79/1 76/76/1 
f 80/80/1 81/81/1 78/78/1 
f 78/78/1 81/81/1 79/79/1 
f 82/82/1 83/83/1 80/80/1 
f 80/80/1 83/83/1 81/81/1 
f 84/84/1 85/85/1 82/82/1 
f 82/82/1 85/85/1 83/83/1 
f 86/86/1 87/87/1 84/84/1 
f 84/84/1 87/87/1 85/85/1 
f 88/88/1 89/89/1 86/86/1 
f 86/86/1 89/89/1 87/87/1 
f 90/90/1 91/91/1 88/88/1 
f 88/88/1 91/91/1 89/89/1 
f 92/92/1 93/93/1 90/90/1 
f 90/90/1 93/93/1 91/91/1 
f 94/94/1 95/95/1 96/96/1 
f 96/96/1 95/95/1 97/97/1 
f 3/3/1 97/97/1 1/1/1 
f 1/1/1 97/97/1 98/98/1 
f 70/70/1 91/91/1 72/72/1 
f 72/72/1 91/91/1 93/93/1 
f 68/68/1 89/89/1 70/70/1 
f 70/70/1 89/89/1 91/91/1 
f 66/66/1 87/87/1 68/68/1 
f 68/68/1 87/87/1 89/89/1 
f 64/64/1 85/85/1 66/66/1 
f 66/66/1 85/85/1 87/87/1 
f 62/62/1 83/83/1 64/64/1 
f 64/64/1 83/83/1 85/85/1 
f 60/60/1 81/81/1 62/62/1 
f 62/62/1 81/81/1 83/83/1 
f 58/58/1 79/79/1 60/60/1 
f 60/60/1 79/79/1 81/81/1 
f 54/54/1 76/76/1 58/58/1 
f 58/58/1 76/76/1 79/79/1 
f 56/56/1 74/74/1 54/54/1 
f 54/54/1 74/74/1 76/76/1 
f 95/95/1 98/98/1 97/97/1 
f 99/99/1 100/100/1 101/101/1 
f 101/101/1 100/100/1 102/102/1 
f 103/103/1 104/104/1 102/102/1 
f 102/102/1 104/104/1 101/101/1 
f 105/105/1 106/106/1 103/103/1 
f 103/103/1 106/106/1 104/104/1 
f 107/107/1 108/108/1 105/105/1 
f 105/105/1 108/108/1 106/106/1 
f 109/109/1 110/110/1 107/107/1 
f 107/107/1 110/110/1 108/108/1 
f 111/111/1 112/112/1 109/109/1 
f 109/109/1 112/112/1 110/110/1 
f 113/113/1 114/114/1 111/111/1 
f 111/111/1 114/114/1 112/112/1 
f 113/113/1 115/115/1 114/114/1 
f 114/114/1 115/115/1 116/116/1 
f 115/115/1 117/117/1 116/116/1 
f 116/116/1 117/117/1 118/118/1 
f 119/119/1 120/120/1 121/121/1 
f 121/121/1 120/120/1 122/122/1 
f 94/94/1 96/96/1 123/123/1 
f 123/123/1 96/96/1 122/122/1 
f 92/92/1 90/90/1 118/118/1 
f 118/118/1 90/90/1 116/116/1 
f 116/116/1 90/90/1 114/114/1 
f 114/114/1 90/90/1 88/88/1 
f 114/114/1 88/88/1 112/112/1 
f 112/112/1 88/88/1 86/86/1 
f 112/112/1 86/86/1 110/110/1 
f 110/110/1 86/86/1 84/84/1 
f 110/110/1 84/84/1 108/108/1 
f 108/108/1 84/84/1 82/82/1 
f 108/108/1 82/82/1 106/106/1 
f 106/106/1 82/82/1 80/80/1 
f 106/106/1 80/80/1 104/104/1 
f 104/104/1 80/80/1 78/78/1 
f 104/104/1 78/78/1 101/101/1 
f 101/101/1 78/78/1 77/77/1 
f 75/75/1 99/99/1 77/77/1 
f 77/77/1 99/99/1 101/101/1 
f 100/100/1 124/124/1 102/102/1 
f 102/102/1 124/124/1 125/125/1 
f 126/126/1 103/103/1 125/125/1 
f 125/125/1 103/103/1 102/102/1 
f 127/127/1 105/105/1 126/126/1 
f 126/126/1 105/105/1 103/103/1 
f 128/128/1 107/107/1 127/127/1 
f 127/127/1 107/107/1 105/105/1 
f 129/129/1 109/109/1 128/128/1 
f 128/128/1 109/109/1 107/107/1 
f 109/109/1 129/129/1 111/111/1 
f 111/111/1 129/129/1 130/130/1 
f 111/111/1 130/130/1 113/113/1 
f 113/113/1 130/130/1 131/131/1 
f 113/113/1 131/131/1 115/115/1 
f 115/115/1 131/131/1 132/132/1 
f 115/115/1 132/132/1 117/117/1 
f 117/117/1 132/132/1 133/133/1 
f 134/134/1 135/135/1 121/121/1 
f 121/121/1 135/135/1 119/119/1 
f 120/120/1 123/123/1 122/122/1 
f 124/124/1 136/136/1 125/125/1 
f 125/125/1 136/136/1 137/137/1 
f 138/138/1 126/126/1 137/137/1 
f 137/137/1 126/126/1 125/125/1 
f 139/139/1 127/127/1 138/138/1 
f 138/138/1 127/127/1 126/126/1 
f 140/140/1 128/128/1 139/139/1 
f 139/139/1 128/128/1 127/127/1 
f 141/141/1 129/129/1 140/140/1 
f 140/140/1 129/129/1 128/128/1 
f 142/142/1 130/130/1 141/141/1 
f 141/141/1 130/130/1 129/129/1 
f 143/143/1 131/131/1 142/142/1 
f 142/142/1 131/131/1 130/130/1 
f 144/144/1 132/132/1 143/143/1 
f 143/143/1 132/132/1 131/131/1 
f 145/145/1 133/133/1 144/144/1 
f 144/144/1 133/133/1 132/132/1 
f 146/146/1 147/147/1 148/148/1 
f 148/148/1 147/147/1 134/134/1 
f 147/147/1 135/135/1 134/134/1 
f 136/136/1 149/149/1 137/137/1 
f 137/137/1 149/149/1 150/150/1 
f 151/151/1 138/138/1 150/150/1 
f 150/150/1 138/138/1 137/137/1 
f 152/152/1 139/139/1 151/151/1 
f 151/151/1 139/139/1 138/138/1 
f 153/153/1 140/140/1 152/152/1 
f 152/152/1 140/140/1 139/139/1 
f 154/154/1 141/141/1 153/153/1 
f 153/153/1 141/141/1 140/140/1 
f 155/155/1 142/142/1 154/154/1 
f 154/154/1 142/142/1 141/141/1 
f 156/156/1 143/143/1 155/155/1 
f 155/155/1 143/143/1 142/142/1 
f 157/157/1 144/144/1 156/156/1 
f 156/156/1 144/144/1 143/143/1 
f 158/158/1 145/145/1 157/157/1 
f 157/157/1 145/145/1 144/144/1 
f 159/159/1 146/146/1 160/160/1 
f 160/160/1 146/146/1 148/148/1 
f 161/161/1 150/150/1 162/162/1 
f 162/162/1 150/150/1 149/149/1 
f 163/163/1 151/151/1 161/161/1 
f 161/161/1 151/151/1 150/150/1 
f 164/164/1 152/152/1 163/163/1 
f 163/163/1 152/152/1 151/151/1 
f 165/165/1 153/153/1 164/164/1 
f 164/164/1 153/153/1 152/152/1 
f 166/166/1 154/154/1 165/165/1 
f 165/165/1 154/154/1 153/153/1 
f 167/167/1 155/155/1 166/166/1 
f 166/166/1 155/155/1 154/154/1 
f 168/168/1 156/156/1 167/167/1 
f 167/167/1 156/156/1 155/155/1 
f 169/169/1 157/157/1 168/168/1 
f 168/168/1 157/157/1 156/156/1 
f 170/170/1 158/158/1 169/169/1 
f 169/169/1 158/158/1 157/157/1 
f 171/171/1 172/172/1 160/160/1 
f 172/172/1 173/173/1 160/160/1 
f 160/160/1 173/173/1 159/159/1 
f 162/162/1 174/174/1 161/161/1 
f 161/161/1 174/174/1 175/175/1 
f 176/176/1 163/163/1 175/175/1 
f 175/175/1 163/163/1 161/161/1 
f 177/177/1 164/164/1 176/176/1 
f 176/176/1 164/164/1 163/163/1 
f 178/178/1 165/165/1 177/177/1 
f 177/177/1 165/165/1 164/164/1 
f 179/179/1 166/166/1 178/178/1 
f 178/178/1 166/166/1 165/165/1 
f 180/180/1 167/167/1 179/179/1 
f 179/179/1 167/167/1 166/166/1 
f 181/181/1 168/168/1 180/180/1 
f 180/180/1 168/168/1 167/167/1 
f 182/182/1 169/169/1 181/181/1 
f 181/181/1 169/169/1 168/168/1 
f 183/183/1 170/170/1 182/182/1 
f 182/182/1 170/170/1 169/169/1 
f 184/184/1 185/185/1 186/186/1 
f 186/186/1 185/185/1 171/171/1 
f 185/185/1 172/172/1 171/171/1 
f 174/174/1 187/187/1 175/175/1 
f 188/188/1 176/176/1 189/189/1 
f 189/189/1 176/176/1 175/175/1 
f 190/190/1 177/177/1 188/188/1 
f 188/188/1 177/177/1 176/176/1 
f 191/191/1 178/178/1 190/190/1 
f 190/190/1 178/178/1 177/177/1 
f 192/192/1 179/179/1 191/191/1 
f 191/191/1 179/179/1 178/178/1 
f 193/193/1 180/180/1 192/192/1 
f 192/192/1 180/180/1 179/179/1 
f 194/194/1 181/181/1 193/193/1 
f 193/193/1 181/181/1 180/180/1 
f 195/195/1 182/182/1 194/194/1 
f 194/194/1 182/182/1 181/181/1 
f 196/196/1 183/183/1 195/195/1 
f 195/195/1 183/183/1 182/182/1 
f 186/186/1 183/183/1 197/197/1 
f 197/197/1 183/183/1 196/196/1 
f 186/186/1 198/198/1 184/184/1 
f 186/186/1 199/199/1 200/200/1 
f 186/186/1 200/200/1 198/198/1 
f 187/187/1 201/201/1 175/175/1 
f 202/202/1 189/189/1 175/175/1 
f 201/201/1 202/202/1 175/175/1 
f 186/186/1 203/203/1 199/199/1 
s off
f 197/197/1 203/203/1 186/186/1 
s 1
f 3/3/1 24/24/1 72/72/1 
f 72/72/1 24/24/1 73/73/1 
f 97/97/1 3/3/1 93/93/1 
f 93/93/1 3/3/1 72/72/1 
f 93/93/1 92/92/1 97/97/1 
f 97/97/1 92/92/1 96/96/1 
f 122/122/1 96/96/1 118/118/1 
f 118/118/1 96/96/1 92/92/1 
f 118/118/1 117/117/1 122/122/1 
f 122/122/1 117/117/1 121/121/1 
f 134/134/1 121/121/1 133/133/1 
f 133/133/1 121/121/1 117/117/1 
f 148/148/1 134/134/1 145/145/1 
f 145/145/1 134/134/1 133/133/1 
f 160/160/1 148/148/1 158/158/1 
f 158/158/1 148/148/1 145/145/1 
f 171/171/1 160/160/1 170/170/1 
f 170/170/1 160/160/1 158/158/1 
f 186/186/1 171/171/1 183/183/1 
f 183/183/1 171/171/1 170/170/1 
# 343 faces

