# 3ds Max Wavefront OBJ Exporter v0.97b - (c)2007 guruware
# File Created: 14.12.2015 11:41:35

mtllib U236_17_40SG_R.mtl

#
# object U236_17_40SG_R_2_DTaSI_U236_17_40SG_R
#

v  -71.6256 46.2931 61.6104
v  -70.6052 48.6644 60.3604
v  -71.7965 49.2497 60.0203
v  -69.5660 43.0731 63.3582
v  -69.8111 46.3113 61.6316
v  -71.5576 43.1112 63.3171
v  -79.5268 46.1577 61.3837
v  -79.5220 43.1912 62.9889
v  -87.4237 43.2817 62.6884
v  -87.3523 46.0287 61.1710
v  -94.9383 45.8908 60.9340
v  -95.1103 43.3548 62.3625
v  -71.4879 39.8479 65.0675
v  -69.3076 39.7630 65.1221
v  -79.5171 40.0754 64.6751
v  -87.5006 40.3193 64.3248
v  -95.3012 40.5419 63.9471
v  -102.9080 43.4315 62.0374
v  -103.1876 40.7697 63.5714
v  -71.4161 36.4881 66.8696
v  -69.1435 36.3736 66.9274
v  -79.5118 36.7996 66.4477
v  -87.5833 37.1354 66.0836
v  -95.5111 37.4489 65.6894
v  -103.5029 37.7688 65.3007
v  -112.4615 38.0938 64.7897
v  -112.4066 41.0063 63.0654
v  -69.3223 35.2241 67.5411
v  -79.5068 33.6598 68.1467
v  -71.3495 33.3706 68.5418
v  -87.6611 34.1397 67.7384
v  -95.7047 34.5956 67.2966
v  -103.7877 35.0582 66.8626
v  -112.5114 35.4505 66.3547
v  -79.5309 48.7512 59.9802
v  -87.3080 47.7212 60.2360
v  -94.9146 46.2401 60.7373
v  -96.6605 45.8601 60.8817
v  -102.8407 44.0715 61.6686
v  -104.7894 43.4452 61.9482
v  -119.0236 38.3192 64.3869
v  -120.1562 37.5898 64.7838
v  -120.6523 36.1148 65.6585
v  -120.3700 35.8431 65.8333
v  -69.9191 47.2741 61.1167
v  -69.9309 34.1298 68.1283
v  -120.6998 36.9283 65.1642
v  -120.7181 36.4059 65.4798
# 48 vertices

vn -0.0267 0.4767 0.8786
# 1 vertex normals

vt 0.8857 0.7088 0.0000
vt 0.8898 0.7204 0.0000
vt 0.8846 0.7231 0.0000
vt 0.8949 0.6934 0.0000
vt 0.8935 0.7091 0.0000
vt 0.8864 0.6934 0.0000
vt 0.8520 0.7078 0.0000
vt 0.8524 0.6935 0.0000
vt 0.8189 0.6935 0.0000
vt 0.8188 0.7068 0.0000
vt 0.7868 0.7057 0.0000
vt 0.7865 0.6935 0.0000
vt 0.8871 0.6776 0.0000
vt 0.8965 0.6774 0.0000
vt 0.8529 0.6784 0.0000
vt 0.8189 0.6792 0.0000
vt 0.7860 0.6800 0.0000
vt 0.7540 0.6937 0.0000
vt 0.7531 0.6810 0.0000
vt 0.8878 0.6613 0.0000
vt 0.8976 0.6610 0.0000
vt 0.8533 0.6626 0.0000
vt 0.8189 0.6638 0.0000
vt 0.7854 0.6651 0.0000
vt 0.7520 0.6665 0.0000
vt 0.7147 0.6686 0.0000
vt 0.7150 0.6826 0.0000
vt 0.8969 0.6554 0.0000
vt 0.8536 0.6474 0.0000
vt 0.8885 0.6462 0.0000
vt 0.8189 0.6493 0.0000
vt 0.7849 0.6513 0.0000
vt 0.7509 0.6535 0.0000
vt 0.7145 0.6558 0.0000
vt 0.8516 0.7203 0.0000
vt 0.8187 0.7149 0.0000
vt 0.7869 0.7074 0.0000
vt 0.7796 0.7055 0.0000
vt 0.7542 0.6967 0.0000
vt 0.7463 0.6938 0.0000
vt 0.6875 0.6704 0.0000
vt 0.6827 0.6670 0.0000
vt 0.6806 0.6599 0.0000
vt 0.6818 0.6585 0.0000
vt 0.8929 0.7137 0.0000
vt 0.8944 0.6501 0.0000
vt 0.6804 0.6638 0.0000
vt 0.6803 0.6613 0.0000
# 48 texture coords

g U236_17_40SG_R_2_DTaSI_U236_17_40SG_R
usemtl windowglass_SG
s 1
f 1/1/1 2/2/1 3/3/1 
f 4/4/1 5/5/1 6/6/1 
f 6/6/1 5/5/1 1/1/1 
f 7/7/1 8/8/1 1/1/1 
f 1/1/1 8/8/1 6/6/1 
f 8/8/1 7/7/1 9/9/1 
f 9/9/1 7/7/1 10/10/1 
f 10/10/1 11/11/1 9/9/1 
f 9/9/1 11/11/1 12/12/1 
f 6/6/1 13/13/1 4/4/1 
f 4/4/1 13/13/1 14/14/1 
f 8/8/1 15/15/1 6/6/1 
f 6/6/1 15/15/1 13/13/1 
f 9/9/1 16/16/1 8/8/1 
f 8/8/1 16/16/1 15/15/1 
f 9/9/1 12/12/1 16/16/1 
f 16/16/1 12/12/1 17/17/1 
f 12/12/1 18/18/1 17/17/1 
f 17/17/1 18/18/1 19/19/1 
f 13/13/1 20/20/1 14/14/1 
f 14/14/1 20/20/1 21/21/1 
f 15/15/1 22/22/1 13/13/1 
f 13/13/1 22/22/1 20/20/1 
f 16/16/1 23/23/1 15/15/1 
f 15/15/1 23/23/1 22/22/1 
f 17/17/1 24/24/1 16/16/1 
f 16/16/1 24/24/1 23/23/1 
f 17/17/1 19/19/1 24/24/1 
f 24/24/1 19/19/1 25/25/1 
f 25/25/1 19/19/1 26/26/1 
f 26/26/1 19/19/1 27/27/1 
f 21/21/1 20/20/1 28/28/1 
f 22/22/1 29/29/1 20/20/1 
f 20/20/1 29/29/1 30/30/1 
f 23/23/1 31/31/1 22/22/1 
f 22/22/1 31/31/1 29/29/1 
f 24/24/1 32/32/1 23/23/1 
f 23/23/1 32/32/1 31/31/1 
f 24/24/1 25/25/1 32/32/1 
f 32/32/1 25/25/1 33/33/1 
f 33/33/1 25/25/1 34/34/1 
f 34/34/1 25/25/1 26/26/1 
f 3/3/1 35/35/1 1/1/1 
f 1/1/1 35/35/1 7/7/1 
f 35/35/1 36/36/1 7/7/1 
f 7/7/1 36/36/1 10/10/1 
f 36/36/1 37/37/1 10/10/1 
f 10/10/1 37/37/1 11/11/1 
f 11/11/1 37/37/1 38/38/1 
f 11/11/1 38/38/1 12/12/1 
f 18/18/1 12/12/1 39/39/1 
f 12/12/1 38/38/1 39/39/1 
f 18/18/1 39/39/1 40/40/1 
f 18/18/1 40/40/1 19/19/1 
f 19/19/1 40/40/1 27/27/1 
f 41/41/1 26/26/1 27/27/1 
f 42/42/1 43/43/1 44/44/1 
f 1/1/1 45/45/1 2/2/1 
f 1/1/1 5/5/1 45/45/1 
f 20/20/1 46/46/1 28/28/1 
f 20/20/1 30/30/1 46/46/1 
f 34/34/1 26/26/1 44/44/1 
f 44/44/1 26/26/1 42/42/1 
f 26/26/1 41/41/1 42/42/1 
f 42/42/1 47/47/1 48/48/1 
f 42/42/1 48/48/1 43/43/1 
# 66 faces

#
# object U236_17_40SG_R_U236_17_40SG_R_1_DTaSI
#

v  -109.7092 47.3283 59.4468
v  -109.9758 45.6122 60.4515
v  -104.7119 49.0005 58.7080
v  -102.6640 45.7532 60.6995
v  -65.8438 56.8956 56.1756
v  -65.4304 53.1222 58.1516
v  -63.2868 56.7327 56.4065
v  -71.7503 52.6525 58.1998
v  -69.2443 56.5310 56.2306
v  -74.3768 55.8047 56.3992
v  -79.5408 54.9377 56.6325
v  -79.5362 52.0481 58.1962
v  -89.6474 52.9109 57.2425
v  -87.1988 51.4473 58.1784
v  -84.5838 53.9750 56.9127
v  -94.5377 51.7932 57.6092
v  -94.6013 50.8569 58.1366
v  -99.6287 50.4589 58.1156
v  -99.9195 49.1181 58.8808
v  -114.6432 45.5177 60.2826
v  -119.4926 43.5408 61.2244
v  -112.3561 43.5003 61.5890
v  -124.1725 41.2794 62.3546
v  -119.6364 41.1822 62.6470
v  -128.5639 38.6539 63.8168
v  -121.5447 38.4058 64.2321
v  -131.0423 36.4690 65.0666
v  -128.6149 36.3572 65.2574
v  -133.4967 33.1882 67.0189
v  -131.4548 33.1011 67.1958
v  -132.7128 34.5185 66.2077
v  -65.0728 49.8585 59.8606
v  -61.0185 53.6193 58.5303
v  -60.4653 50.1546 60.4684
v  -71.7965 49.2497 60.0203
v  -79.5323 49.5828 59.5302
v  -87.2636 49.4137 59.3011
v  -94.7111 49.2377 59.0487
v  -64.6898 46.3628 61.6912
v  -59.8715 46.6455 62.3122
v  -79.5309 48.7512 59.9802
v  -87.3080 47.7212 60.2360
v  -94.9146 46.2401 60.7373
v  -96.6605 45.8601 60.8817
v  -64.3184 42.9727 63.4664
v  -59.2735 43.1222 64.1275
v  -102.8407 44.0715 61.6686
v  -104.7894 43.4452 61.9482
v  -58.6785 39.5766 65.8998
v  -63.9438 39.5543 65.2564
v  -112.4066 41.0063 63.0654
v  -63.5646 36.0926 67.0691
v  -58.1130 36.0135 67.6465
v  -119.0236 38.3192 64.3869
v  -57.6216 32.4314 69.3757
v  -63.1881 32.6566 68.8684
v  -120.1562 37.5898 64.7838
v  -121.2346 35.9674 65.7265
v  -62.7975 29.0912 70.7354
v  -57.4334 28.7995 71.0602
v  -71.3495 33.3706 68.5418
v  -71.2707 29.6848 70.5188
v  -79.5068 33.6598 68.1467
v  -79.5011 30.1450 70.0488
v  -87.6611 34.1397 67.7384
v  -87.7519 30.6468 69.6678
v  -95.7047 34.5956 67.2966
v  -95.9401 31.1271 69.2504
v  -104.1495 31.6153 68.8467
v  -103.7877 35.0582 66.8626
v  -112.5715 32.0794 68.3506
v  -112.5114 35.4505 66.3547
v  -120.3700 35.8431 65.8333
v  -120.7890 32.5202 67.8395
v  -128.6904 32.9616 67.3873
v  -57.5270 25.4817 72.6322
v  -71.1708 25.0084 73.0271
v  -62.2897 24.4566 73.1623
v  -79.4936 25.4075 72.6124
v  -87.8686 26.1545 72.1493
v  -96.2271 26.8976 71.6329
v  -104.5576 27.7312 71.0849
v  -112.6356 28.4876 70.4772
v  -120.3645 29.2367 69.8521
v  -128.7530 30.1388 69.1579
v  -130.8183 30.3885 68.9433
v  -132.6202 30.9215 68.5435
v  -133.7812 31.7601 67.9486
v  -58.8611 24.7047 73.0088
v  -62.0097 55.9376 56.9878
v  -61.3775 54.8784 57.7044
v  -69.8111 46.3113 61.6316
v  -69.9191 47.2741 61.1167
v  -69.5660 43.0731 63.3582
v  -69.3076 39.7630 65.1221
v  -69.1435 36.3736 66.9274
v  -69.9309 34.1298 68.1283
v  -70.6052 48.6644 60.3604
v  -69.3223 35.2241 67.5411
v  -120.6998 36.9283 65.1642
v  -120.7181 36.4059 65.4798
v  -120.6523 36.1148 65.6585
# 102 vertices

vn -0.0062 0.4715 0.8819
# 1 vertex normals

vt 0.7260 0.7117 0.0000
vt 0.7249 0.7044 0.0000
vt 0.7458 0.7199 0.0000
vt 0.7547 0.7047 0.0000
vt 0.9090 0.7605 0.0000
vt 0.9113 0.7423 0.0000
vt 0.9200 0.7598 0.0000
vt 0.8843 0.7396 0.0000
vt 0.8944 0.7586 0.0000
vt 0.8725 0.7548 0.0000
vt 0.8506 0.7503 0.0000
vt 0.8511 0.7363 0.0000
vt 0.8079 0.7399 0.0000
vt 0.8186 0.7330 0.0000
vt 0.8293 0.7454 0.0000
vt 0.7874 0.7342 0.0000
vt 0.7874 0.7297 0.0000
vt 0.7664 0.7273 0.0000
vt 0.7655 0.7209 0.0000
vt 0.7061 0.7046 0.0000
vt 0.6858 0.6958 0.0000
vt 0.7152 0.6946 0.0000
vt 0.6661 0.6855 0.0000
vt 0.6850 0.6844 0.0000
vt 0.6477 0.6732 0.0000
vt 0.6770 0.6711 0.0000
vt 0.6372 0.6627 0.0000
vt 0.6474 0.6618 0.0000
vt 0.6268 0.6469 0.0000
vt 0.6354 0.6461 0.0000
vt 0.6301 0.6534 0.0000
vt 0.9133 0.7266 0.0000
vt 0.9303 0.7440 0.0000
vt 0.9332 0.7271 0.0000
vt 0.8846 0.7231 0.0000
vt 0.8515 0.7244 0.0000
vt 0.8186 0.7231 0.0000
vt 0.7872 0.7219 0.0000
vt 0.9154 0.7097 0.0000
vt 0.9362 0.7102 0.0000
vt 0.8516 0.7203 0.0000
vt 0.8187 0.7149 0.0000
vt 0.7869 0.7074 0.0000
vt 0.7796 0.7055 0.0000
vt 0.9174 0.6934 0.0000
vt 0.9392 0.6932 0.0000
vt 0.7542 0.6967 0.0000
vt 0.7463 0.6938 0.0000
vt 0.9421 0.6763 0.0000
vt 0.9194 0.6769 0.0000
vt 0.7150 0.6826 0.0000
vt 0.9214 0.6602 0.0000
vt 0.9449 0.6594 0.0000
vt 0.6875 0.6704 0.0000
vt 0.9474 0.6424 0.0000
vt 0.9234 0.6437 0.0000
vt 0.6827 0.6670 0.0000
vt 0.6782 0.6592 0.0000
vt 0.9255 0.6265 0.0000
vt 0.9485 0.6253 0.0000
vt 0.8885 0.6462 0.0000
vt 0.8892 0.6284 0.0000
vt 0.8536 0.6474 0.0000
vt 0.8540 0.6303 0.0000
vt 0.8189 0.6493 0.0000
vt 0.8188 0.6324 0.0000
vt 0.7849 0.6513 0.0000
vt 0.7841 0.6345 0.0000
vt 0.7495 0.6368 0.0000
vt 0.7509 0.6535 0.0000
vt 0.7143 0.6395 0.0000
vt 0.7145 0.6558 0.0000
vt 0.6818 0.6585 0.0000
vt 0.6799 0.6423 0.0000
vt 0.6469 0.6451 0.0000
vt 0.9484 0.6095 0.0000
vt 0.8901 0.6057 0.0000
vt 0.9282 0.6041 0.0000
vt 0.8544 0.6074 0.0000
vt 0.8186 0.6105 0.0000
vt 0.7831 0.6140 0.0000
vt 0.7479 0.6180 0.0000
vt 0.7140 0.6220 0.0000
vt 0.6816 0.6262 0.0000
vt 0.6466 0.6312 0.0000
vt 0.6379 0.6326 0.0000
vt 0.6304 0.6354 0.0000
vt 0.6256 0.6397 0.0000
vt 0.9428 0.6057 0.0000
vt 0.9256 0.7558 0.0000
vt 0.9286 0.7504 0.0000
vt 0.8935 0.7091 0.0000
vt 0.8929 0.7137 0.0000
vt 0.8949 0.6934 0.0000
vt 0.8965 0.6774 0.0000
vt 0.8976 0.6610 0.0000
vt 0.8944 0.6501 0.0000
vt 0.8898 0.7204 0.0000
vt 0.8969 0.6554 0.0000
vt 0.6804 0.6638 0.0000
vt 0.6803 0.6613 0.0000
vt 0.6806 0.6599 0.0000
# 102 texture coords

g U236_17_40SG_R_U236_17_40SG_R_1_DTaSI
usemtl windowglassblack_SG
s 1
f 49/49/2 50/50/2 51/51/2 
f 51/51/2 50/50/2 52/52/2 
f 53/53/2 54/54/2 55/55/2 
f 56/56/2 54/54/2 57/57/2 
f 57/57/2 54/54/2 53/53/2 
f 58/58/2 56/56/2 57/57/2 
f 59/59/2 60/60/2 58/58/2 
f 58/58/2 60/60/2 56/56/2 
f 61/61/2 62/62/2 63/63/2 
f 62/62/2 60/60/2 63/63/2 
f 63/63/2 60/60/2 59/59/2 
f 64/64/2 65/65/2 61/61/2 
f 61/61/2 65/65/2 62/62/2 
f 65/65/2 64/64/2 66/66/2 
f 51/51/2 67/67/2 66/66/2 
f 68/68/2 50/50/2 49/49/2 
f 69/69/2 70/70/2 68/68/2 
f 71/71/2 72/72/2 69/69/2 
f 73/73/2 74/74/2 71/71/2 
f 75/75/2 76/76/2 73/73/2 
f 77/77/2 78/78/2 79/79/2 
f 79/79/2 78/78/2 75/75/2 
f 54/54/2 80/80/2 81/81/2 
f 81/81/2 80/80/2 82/82/2 
f 54/54/2 56/56/2 80/80/2 
f 80/80/2 56/56/2 83/83/2 
f 56/56/2 60/60/2 83/83/2 
f 83/83/2 60/60/2 84/84/2 
f 60/60/2 62/62/2 84/84/2 
f 84/84/2 62/62/2 85/85/2 
f 62/62/2 65/65/2 85/85/2 
f 85/85/2 65/65/2 86/86/2 
f 65/65/2 66/66/2 86/86/2 
f 86/86/2 66/66/2 67/67/2 
f 80/80/2 87/87/2 82/82/2 
f 82/82/2 87/87/2 88/88/2 
s off
f 83/83/2 84/84/2 89/89/2 
s 1
f 84/84/2 85/85/2 89/89/2 
f 89/89/2 85/85/2 90/90/2 
f 85/85/2 86/86/2 90/90/2 
f 90/90/2 86/86/2 91/91/2 
f 52/52/2 92/92/2 67/67/2 
f 86/86/2 67/67/2 91/91/2 
f 92/92/2 91/91/2 67/67/2 
f 67/67/2 51/51/2 52/52/2 
f 87/87/2 93/93/2 88/88/2 
f 88/88/2 93/93/2 94/94/2 
s off
f 92/92/2 52/52/2 95/95/2 
s 1
f 70/70/2 96/96/2 50/50/2 
f 52/52/2 50/50/2 95/95/2 
f 96/96/2 95/95/2 50/50/2 
f 50/50/2 68/68/2 70/70/2 
f 97/97/2 94/94/2 98/98/2 
f 98/98/2 94/94/2 93/93/2 
f 96/96/2 70/70/2 99/99/2 
f 69/69/2 72/72/2 70/70/2 
f 70/70/2 72/72/2 99/99/2 
f 98/98/2 100/100/2 97/97/2 
f 97/97/2 100/100/2 101/101/2 
f 74/74/2 102/102/2 72/72/2 
f 72/72/2 102/102/2 99/99/2 
f 72/72/2 71/71/2 74/74/2 
f 103/103/2 101/101/2 104/104/2 
f 104/104/2 101/101/2 100/100/2 
f 102/102/2 74/74/2 105/105/2 
f 73/73/2 76/76/2 74/74/2 
f 74/74/2 76/76/2 106/106/2 
f 104/104/2 107/107/2 103/103/2 
f 103/103/2 107/107/2 108/108/2 
f 109/109/2 110/110/2 104/104/2 
f 104/104/2 110/110/2 107/107/2 
f 111/111/2 112/112/2 109/109/2 
f 109/109/2 112/112/2 110/110/2 
f 113/113/2 114/114/2 111/111/2 
f 111/111/2 114/114/2 112/112/2 
f 115/115/2 116/116/2 113/113/2 
f 113/113/2 116/116/2 114/114/2 
f 116/116/2 115/115/2 117/117/2 
f 117/117/2 115/115/2 118/118/2 
f 117/117/2 118/118/2 119/119/2 
f 119/119/2 118/118/2 120/120/2 
f 121/121/2 106/106/2 122/122/2 
f 76/76/2 123/123/2 106/106/2 
f 106/106/2 123/123/2 122/122/2 
f 75/75/2 78/78/2 76/76/2 
f 76/76/2 78/78/2 123/123/2 
f 108/108/2 107/107/2 124/124/2 
f 110/110/2 125/125/2 107/107/2 
f 107/107/2 125/125/2 126/126/2 
f 112/112/2 127/127/2 110/110/2 
f 110/110/2 127/127/2 125/125/2 
f 114/114/2 128/128/2 112/112/2 
f 112/112/2 128/128/2 127/127/2 
f 116/116/2 129/129/2 114/114/2 
f 114/114/2 129/129/2 128/128/2 
f 117/117/2 130/130/2 116/116/2 
f 116/116/2 130/130/2 129/129/2 
f 130/130/2 117/117/2 131/131/2 
f 131/131/2 117/117/2 119/119/2 
f 122/122/2 132/132/2 119/119/2 
f 119/119/2 132/132/2 131/131/2 
f 123/123/2 133/133/2 122/122/2 
f 122/122/2 133/133/2 132/132/2 
f 78/78/2 134/134/2 123/123/2 
f 123/123/2 134/134/2 133/133/2 
f 78/78/2 135/135/2 134/134/2 
f 77/77/2 136/136/2 78/78/2 
f 78/78/2 136/136/2 135/135/2 
f 137/137/2 107/107/2 126/126/2 
f 124/124/2 107/107/2 137/137/2 
f 138/138/2 54/54/2 139/139/2 
f 139/139/2 54/54/2 81/81/2 
f 55/55/2 54/54/2 138/138/2 
f 140/140/2 87/87/2 141/141/2 
f 141/141/2 87/87/2 80/80/2 
f 93/93/2 87/87/2 142/142/2 
f 142/142/2 87/87/2 140/140/2 
f 142/142/2 143/143/2 93/93/2 
f 93/93/2 143/143/2 98/98/2 
f 143/143/2 144/144/2 98/98/2 
f 98/98/2 144/144/2 100/100/2 
f 145/145/2 109/109/2 104/104/2 
s off
f 141/141/2 80/80/2 146/146/2 
s 1
f 144/144/2 147/147/2 100/100/2 
f 100/100/2 147/147/2 104/104/2 
s off
f 147/147/2 145/145/2 104/104/2 
f 146/146/2 80/80/2 83/83/2 
s 1
f 105/105/2 74/74/2 148/148/2 
f 148/148/2 74/74/2 106/106/2 
s off
f 148/148/2 106/106/2 149/149/2 
s 1
f 121/121/2 122/122/2 120/120/2 
f 120/120/2 122/122/2 119/119/2 
s off
f 149/149/2 106/106/2 150/150/2 
f 150/150/2 106/106/2 121/121/2 
# 134 faces

