# 3ds Max Wavefront OBJ Exporter v0.97b - (c)2007 guruware
# File Created: 11.12.2015 16:35:55

mtllib P845_182C_C.mtl

#
# object P845_182C_C_D_P845_182C_C
#

v  129.1087 56.6981 24.0275
v  145.1633 55.7685 24.0275
v  130.6589 56.6772 0.0000
v  146.7138 55.7475 0.0000
v  125.5122 56.7417 53.1766
v  141.5668 55.8121 53.1766
v  119.8075 56.7760 75.0365
v  135.8622 55.8463 75.0365
v  117.9883 56.7840 80.6107
v  134.0430 55.8544 80.6107
v  116.5457 56.7885 84.5787
v  132.6003 55.8589 84.5787
v  129.1087 56.6981 -24.0275
v  145.1633 55.7685 -24.0275
v  125.5122 56.7417 -53.1768
v  141.5668 55.8121 -53.1767
v  119.8075 56.7760 -75.0365
v  135.8622 55.8463 -75.0365
v  117.9883 56.7840 -80.6107
v  134.0430 55.8544 -80.6107
v  116.5457 56.7885 -84.5787
v  132.6003 55.8589 -84.5787
# 22 vertices

vn 0.0578 0.9983 0.0045
vn 0.0578 0.9983 0.0043
vn 0.0578 0.9983 -0.0000
vn 0.0578 0.9983 0.0095
vn 0.0578 0.9983 0.0085
vn 0.0578 0.9982 0.0146
vn 0.0578 0.9982 0.0141
vn 0.0578 0.9982 0.0187
vn 0.0578 0.9982 0.0182
vn 0.0578 0.9981 0.0199
vn 0.0578 0.9983 -0.0045
vn 0.0578 0.9983 -0.0043
vn 0.0578 0.9983 -0.0095
vn 0.0578 0.9983 -0.0085
vn 0.0578 0.9982 -0.0146
vn 0.0578 0.9982 -0.0141
vn 0.0578 0.9982 -0.0187
vn 0.0578 0.9982 -0.0182
vn 0.0578 0.9981 -0.0199
# 19 vertex normals

g P845_182C_C_D_P845_182C_C
usemtl diffuse_black_plasticSG
s 1
f 1//1 2//2 3//3 
f 2//2 4//3 3//3 
f 5//4 6//5 1//1 
f 6//5 2//2 1//1 
f 7//6 8//7 5//4 
f 8//7 6//5 5//4 
f 9//8 10//9 7//6 
f 10//9 8//7 7//6 
f 11//10 12//10 9//8 
f 12//10 10//9 9//8 
f 13//11 3//3 14//12 
f 14//12 3//3 4//3 
f 15//13 13//11 16//14 
f 16//14 13//11 14//12 
f 17//15 15//13 18//16 
f 18//16 15//13 16//14 
f 19//17 17//15 20//18 
f 20//18 17//15 18//16 
f 21//19 19//17 22//19 
f 22//19 19//17 20//18 
# 20 faces

