# 3ds Max Wavefront OBJ Exporter v0.97b - (c)2007 guruware
# File Created: 11.12.2015 16:37:29

mtllib P845_305B_L.mtl

#
# object P845_305B_L_DTaSI_P845_305B_L
#

v  -85.7386 60.6534 -89.4639
v  -84.1186 69.2152 -86.9994
v  -65.3853 60.6524 -89.6185
v  -64.1940 68.9445 -87.1954
v  -82.5199 77.6649 -84.5671
v  -80.7681 87.0608 -81.2514
v  -62.9487 77.6130 -84.6624
v  -61.6263 86.9824 -81.3655
v  -86.5231 56.3934 -90.5221
v  -66.0905 55.7624 -90.9834
v  -79.0337 96.3636 -77.9687
v  -77.6061 104.1541 -74.4600
v  -60.3169 96.2589 -78.1013
v  -59.3182 103.5676 -74.7540
v  -28.6366 102.5743 -75.2052
v  -28.5235 95.7735 -78.3617
v  -33.3919 102.7216 -75.1380
v  -33.4350 95.8454 -78.3232
v  -28.3468 86.6181 -81.6196
v  -28.1684 77.3710 -84.9101
v  -33.4785 86.6721 -81.5819
v  -33.5224 77.4069 -84.8734
v  -27.8375 68.5055 -87.7016
v  -27.6850 60.6476 -90.1758
v  -33.4323 68.5704 -87.6257
v  -33.3516 60.6483 -90.0932
v  -27.2694 54.6521 -91.9226
v  -33.0203 54.8166 -91.7834
v  -113.6409 60.6549 -89.2533
v  -109.9227 60.6547 -89.2809
v  -110.4554 57.9708 -89.5800
v  -108.0305 69.5411 -86.7672
v  -116.0679 69.6511 -86.6903
v  -115.9162 64.3419 -88.1917
v  -104.0467 87.1559 -81.1128
v  -106.2872 77.7277 -84.4515
v  -112.1902 87.1890 -81.0644
v  -114.5520 77.7491 -84.4115
v  -47.3002 60.6500 -89.8865
v  -47.4203 55.2284 -91.4351
v  -46.8374 68.7331 -87.4371
v  -45.7350 86.8073 -81.4877
v  -46.3356 77.4967 -84.7815
v  -45.1404 96.0255 -78.2265
v  -44.6930 103.0902 -74.9702
v  -102.6450 56.8913 -90.1581
v  -101.7979 60.6543 -89.3419
v  -99.8240 69.4290 -86.8461
v  -97.9621 77.7059 -84.4919
v  -95.8716 87.1227 -81.1615
v  -93.8017 96.4461 -77.8641
v  -92.0166 104.6174 -74.2310
v  -106.6312 57.0144 -90.0681
v  -101.8284 96.4908 -77.8073
v  -99.6096 104.8637 -74.1152
v  -107.2699 105.1467 -74.0763
v  -109.8518 96.5353 -77.7504
v  -105.4496 108.3322 -72.6262
v  -101.9607 110.4558 -71.6616
v  -98.0693 110.6764 -71.5520
v  -90.6634 110.8113 -71.4771
v  -76.4498 110.4644 -71.6181
v  -58.4357 110.0247 -71.7967
v  -44.2729 109.7239 -71.9126
v  -33.3494 109.4919 -72.0019
v  -28.9869 109.3992 -72.0376
# 66 vertices

vn -0.0082 0.2666 -0.9638
vn -0.0058 0.2777 -0.9607
vn -0.0103 0.2773 -0.9607
vn -0.0081 0.2818 -0.9594
vn -0.0043 0.3070 -0.9517
vn -0.0042 0.3334 -0.9428
vn -0.0052 0.3088 -0.9511
vn -0.0042 0.3327 -0.9430
vn -0.0115 0.2413 -0.9704
vn -0.0115 0.2686 -0.9632
vn -0.0040 0.3688 -0.9295
vn -0.0017 0.4111 -0.9116
vn -0.0030 0.3705 -0.9288
vn -0.0004 0.4162 -0.9093
vn 0.0002 0.4210 -0.9071
vn -0.0018 0.3713 -0.9285
vn 0.0002 0.4200 -0.9075
vn -0.0019 0.3725 -0.9280
vn -0.0034 0.3352 -0.9421
vn -0.0051 0.3165 -0.9486
vn -0.0035 0.3345 -0.9424
vn -0.0045 0.3166 -0.9485
vn -0.0095 0.3001 -0.9539
vn -0.0133 0.2894 -0.9571
vn -0.0097 0.2960 -0.9551
vn -0.0141 0.2889 -0.9573
vn -0.0153 0.2787 -0.9603
vn -0.0145 0.2774 -0.9607
vn -0.0072 0.2426 -0.9701
vn -0.0106 0.2503 -0.9681
vn -0.0615 0.1226 -0.9905
vn -0.0055 0.2733 -0.9619
vn -0.0057 0.2724 -0.9622
vn -0.0076 0.2720 -0.9623
vn -0.0042 0.3347 -0.9423
vn -0.0041 0.3067 -0.9518
vn -0.0041 0.3350 -0.9422
vn -0.0042 0.3026 -0.9531
vn -0.0126 0.2840 -0.9587
vn -0.0149 0.2745 -0.9615
vn -0.0089 0.2896 -0.9571
vn -0.0034 0.3336 -0.9427
vn -0.0051 0.3131 -0.9497
vn -0.0017 0.3712 -0.9285
vn 0.0004 0.4184 -0.9083
vn -0.0154 0.2152 -0.9764
vn -0.0088 0.2575 -0.9662
vn -0.0059 0.2750 -0.9614
vn -0.0043 0.3057 -0.9521
vn -0.0042 0.3342 -0.9425
vn -0.0041 0.3671 -0.9302
vn -0.0018 0.4070 -0.9134
vn -0.0169 0.1994 -0.9798
vn -0.0029 0.3662 -0.9305
vn 0.0028 0.4039 -0.9148
vn 0.0049 0.3999 -0.9165
vn -0.0045 0.3589 -0.9333
vn 0.0089 0.4071 -0.9133
vn 0.0051 0.4036 -0.9149
vn 0.0011 0.4042 -0.9147
vn -0.0000 0.4071 -0.9134
vn -0.0001 0.4115 -0.9114
vn 0.0009 0.4166 -0.9091
vn 0.0011 0.4188 -0.9081
vn 0.0015 0.4203 -0.9074
vn 0.0010 0.4206 -0.9073
# 66 vertex normals

vt 0.4496 0.9645 0.0000
vt 0.4535 0.9369 0.0000
vt 0.5119 0.9622 0.0000
vt 0.5145 0.9355 0.0000
vt 0.4574 0.9098 0.0000
vt 0.4616 0.8792 0.0000
vt 0.5173 0.9078 0.0000
vt 0.5201 0.8773 0.0000
vt 0.4477 0.9782 0.0000
vt 0.5103 0.9780 0.0000
vt 0.4657 0.8489 0.0000
vt 0.4690 0.8225 0.0000
vt 0.5229 0.8472 0.0000
vt 0.5250 0.8224 0.0000
vt 0.6185 0.8220 0.0000
vt 0.6196 0.8448 0.0000
vt 0.6044 0.8220 0.0000
vt 0.6051 0.8453 0.0000
vt 0.6216 0.8745 0.0000
vt 0.6231 0.9045 0.0000
vt 0.6062 0.8750 0.0000
vt 0.6072 0.9050 0.0000
vt 0.6255 0.9329 0.0000
vt 0.6270 0.9581 0.0000
vt 0.6087 0.9333 0.0000
vt 0.6099 0.9586 0.0000
vt 0.6292 0.9770 0.0000
vt 0.6118 0.9772 0.0000
vt 0.3641 0.9681 0.0000
vt 0.3757 0.9668 0.0000
vt 0.3743 0.9752 0.0000
vt 0.3804 0.9386 0.0000
vt 0.3560 0.9395 0.0000
vt 0.3568 0.9563 0.0000
vt 0.3903 0.8816 0.0000
vt 0.3847 0.9124 0.0000
vt 0.3652 0.8826 0.0000
vt 0.3593 0.9136 0.0000
vt 0.5674 0.9602 0.0000
vt 0.5676 0.9777 0.0000
vt 0.5676 0.9342 0.0000
vt 0.5686 0.8759 0.0000
vt 0.5682 0.9061 0.0000
vt 0.5694 0.8460 0.0000
vt 0.5697 0.8221 0.0000
vt 0.3983 0.9784 0.0000
vt 0.4003 0.9662 0.0000
vt 0.4055 0.9380 0.0000
vt 0.4102 0.9115 0.0000
vt 0.4154 0.8807 0.0000
vt 0.4205 0.8503 0.0000
vt 0.4249 0.8227 0.0000
vt 0.3861 0.9778 0.0000
vt 0.3959 0.8512 0.0000
vt 0.4015 0.8230 0.0000
vt 0.3782 0.8230 0.0000
vt 0.3712 0.8520 0.0000
vt 0.3833 0.8121 0.0000
vt 0.3937 0.8046 0.0000
vt 0.4055 0.8033 0.0000
vt 0.4282 0.8017 0.0000
vt 0.4718 0.8010 0.0000
vt 0.5270 0.8003 0.0000
vt 0.5704 0.7996 0.0000
vt 0.6037 0.7990 0.0000
vt 0.6168 0.7994 0.0000
# 66 texture coords

g P845_305B_L_DTaSI_P845_305B_L
usemtl windowglass_1SG
s 1
f 1/1/1 2/2/2 3/3/3 
f 3/3/3 2/2/2 4/4/4 
f 5/5/5 6/6/6 7/7/7 
f 7/7/7 6/6/6 8/8/8 
f 9/9/9 1/1/1 10/10/10 
f 10/10/10 1/1/1 3/3/3 
f 11/11/11 12/12/12 13/13/13 
f 13/13/13 12/12/12 14/14/14 
f 15/15/15 16/16/16 17/17/17 
f 17/17/17 16/16/16 18/18/18 
f 19/19/19 20/20/20 21/21/21 
f 21/21/21 20/20/20 22/22/22 
f 23/23/23 24/24/24 25/25/25 
f 25/25/25 24/24/24 26/26/26 
f 27/27/27 28/28/28 24/24/24 
f 24/24/24 28/28/28 26/26/26 
f 29/29/29 30/30/30 31/31/31 
f 32/32/32 30/30/30 33/33/33 
f 33/33/33 30/30/30 34/34/34 
f 30/30/30 29/29/29 34/34/34 
f 35/35/35 36/36/36 37/37/37 
f 37/37/37 36/36/36 38/38/38 
f 39/39/39 40/40/40 3/3/3 
f 3/3/3 40/40/40 10/10/10 
f 3/3/3 4/4/4 39/39/39 
f 39/39/39 4/4/4 41/41/41 
f 42/42/42 43/43/43 8/8/8 
f 8/8/8 43/43/43 7/7/7 
f 13/13/13 14/14/14 44/44/44 
f 44/44/44 14/14/14 45/45/45 
f 26/26/26 28/28/28 39/39/39 
f 39/39/39 28/28/28 40/40/40 
f 26/26/26 39/39/39 25/25/25 
f 25/25/25 39/39/39 41/41/41 
f 42/42/42 21/21/21 43/43/43 
f 43/43/43 21/21/21 22/22/22 
f 18/18/18 44/44/44 17/17/17 
f 17/17/17 44/44/44 45/45/45 
f 46/46/46 47/47/47 9/9/9 
f 9/9/9 47/47/47 1/1/1 
f 47/47/47 48/48/48 1/1/1 
f 1/1/1 48/48/48 2/2/2 
f 49/49/49 50/50/50 5/5/5 
f 5/5/5 50/50/50 6/6/6 
f 51/51/51 52/52/52 11/11/11 
f 11/11/11 52/52/52 12/12/12 
f 31/31/31 30/30/30 53/53/53 
f 47/47/47 53/53/53 30/30/30 
f 53/53/53 47/47/47 46/46/46 
f 30/30/30 32/32/32 47/47/47 
f 47/47/47 32/32/32 48/48/48 
f 50/50/50 49/49/49 35/35/35 
f 35/35/35 49/49/49 36/36/36 
f 54/54/54 55/55/55 51/51/51 
f 51/51/51 55/55/55 52/52/52 
f 55/55/55 54/54/54 56/56/56 
f 56/56/56 54/54/54 57/57/57 
f 54/54/54 35/35/35 57/57/57 
f 57/57/57 35/35/35 37/37/37 
f 51/51/51 50/50/50 54/54/54 
f 54/54/54 50/50/50 35/35/35 
f 50/50/50 51/51/51 6/6/6 
f 6/6/6 51/51/51 11/11/11 
f 6/6/6 11/11/11 8/8/8 
f 8/8/8 11/11/11 13/13/13 
f 44/44/44 42/42/42 13/13/13 
f 13/13/13 42/42/42 8/8/8 
f 18/18/18 21/21/21 44/44/44 
f 44/44/44 21/21/21 42/42/42 
f 19/19/19 21/21/21 16/16/16 
f 16/16/16 21/21/21 18/18/18 
f 56/56/56 58/58/58 55/55/55 
f 58/58/58 59/59/59 55/55/55 
f 60/60/60 55/55/55 59/59/59 
f 61/61/61 52/52/52 60/60/60 
f 60/60/60 52/52/52 55/55/55 
f 52/52/52 61/61/61 12/12/12 
f 12/12/12 61/61/61 62/62/62 
f 12/12/12 62/62/62 14/14/14 
f 14/14/14 62/62/62 63/63/63 
f 64/64/64 45/45/45 63/63/63 
f 63/63/63 45/45/45 14/14/14 
f 65/65/65 17/17/17 64/64/64 
f 64/64/64 17/17/17 45/45/45 
f 15/15/15 17/17/17 66/66/66 
f 66/66/66 17/17/17 65/65/65 
f 36/36/36 32/32/32 38/38/38 
f 38/38/38 32/32/32 33/33/33 
f 49/49/49 48/48/48 36/36/36 
f 36/36/36 48/48/48 32/32/32 
f 48/48/48 49/49/49 2/2/2 
f 2/2/2 49/49/49 5/5/5 
f 2/2/2 5/5/5 4/4/4 
f 4/4/4 5/5/5 7/7/7 
f 43/43/43 41/41/41 7/7/7 
f 7/7/7 41/41/41 4/4/4 
f 22/22/22 25/25/25 43/43/43 
f 43/43/43 25/25/25 41/41/41 
f 23/23/23 25/25/25 20/20/20 
f 20/20/20 25/25/25 22/22/22 
# 100 faces

