# 3ds Max Wavefront OBJ Exporter v0.97b - (c)2007 guruware
# File Created: 13.11.2015 16:07:14

mtllib E317_285B_R.mtl

#
# object E317_285B_R_DTaSI_E317_285B_R
#

v  -16.1428 77.5953 80.9327
v  -25.1221 73.9516 82.8082
v  -15.3955 73.4413 83.1122
v  -4.6542 39.7363 97.4264
v  -4.7052 41.1430 96.9146
v  -17.0917 40.3520 97.3034
v  -17.3798 41.7342 96.7940
v  -19.4660 50.4876 93.4598
v  -4.8383 49.6982 93.7262
v  -5.0907 61.6832 88.7589
v  -12.1522 50.0929 93.5930
v  -22.6034 62.6715 88.2533
v  -13.8470 62.1774 88.5061
v  -5.6689 72.9310 83.4162
v  51.9051 46.1496 94.6257
v  53.2296 38.0435 97.1510
v  60.9161 45.5368 94.6799
v  62.6052 36.9720 97.3071
v  69.9272 44.9240 94.7341
v  42.5006 46.7811 94.5040
v  33.0962 47.4125 94.3823
v  33.7452 39.1571 97.1277
v  50.5346 58.0159 90.1021
v  60.1064 57.4555 90.2352
v  69.6781 56.8813 90.3358
v  14.6745 40.1757 97.0467
v  14.3963 48.5812 94.0696
v  4.7790 49.1397 93.8979
v  23.7463 47.9969 94.2259
v  13.6580 60.4599 89.2973
v  31.2404 59.1876 89.8043
v  12.0092 71.8556 84.0147
v  4.2836 61.0716 89.0281
v  22.4492 59.8238 89.5508
v  27.4391 71.3173 84.3508
v  19.7243 71.5846 84.1809
v  18.4357 74.3646 82.8308
v  26.7686 72.7261 83.7169
v  50.3614 65.3587 86.9290
v  39.3199 69.2295 85.2447
v  40.8879 58.6193 89.9960
v  3.1701 72.3933 83.7154
v  1.4433 76.4696 81.6275
v  28.3314 72.2710 83.9550
v  62.6914 36.3961 97.4918
v  53.4021 36.8916 97.5203
v  43.4874 38.6003 97.1394
v  43.6254 37.4502 97.5147
v  24.2970 38.4397 97.5056
v  24.2099 39.6664 97.0872
v  4.9847 40.6593 96.9806
v  5.0456 39.3034 97.4642
v  34.2044 70.7522 84.5816
v  9.4334 75.7433 82.0524
v  58.4888 61.7090 88.4571
v  81.9951 50.8544 92.2013
v  82.9185 44.2801 94.5253
v  86.9302 34.9588 97.4171
v  94.4048 34.4879 97.3940
v  92.8367 39.9224 95.6092
v  85.8847 38.5818 96.2272
v  83.9453 39.7684 95.8899
v  71.9808 35.9006 97.4632
v  99.7887 41.2631 94.9912
v  79.4555 35.4297 97.4402
v  95.9099 43.6362 94.3165
v  88.9525 47.2453 93.2589
v  14.7453 38.8706 97.5019
v  33.8487 38.0088 97.5092
v  -6.5469 77.1959 81.2025
v  -25.7388 77.9947 80.6629
v  101.8795 34.0170 97.3709
# 72 vertices

vn -0.0046 0.4646 0.8855
vn -0.0043 0.4442 0.8959
vn -0.0052 0.4401 0.8980
vn 0.0091 0.3420 0.9397
vn 0.0064 0.3482 0.9374
vn 0.0073 0.3468 0.9379
vn 0.0077 0.3565 0.9343
vn 0.0052 0.3780 0.9258
vn 0.0041 0.3692 0.9293
vn -0.0001 0.4061 0.9138
vn 0.0010 0.3725 0.9280
vn -0.0017 0.4161 0.9093
vn -0.0041 0.4094 0.9123
vn -0.0034 0.4368 0.8995
vn 0.0121 0.3329 0.9429
vn 0.0149 0.3012 0.9534
vn 0.0171 0.3287 0.9443
vn 0.0170 0.2960 0.9550
vn 0.0227 0.3234 0.9460
vn 0.0123 0.3374 0.9413
vn 0.0071 0.3429 0.9393
vn 0.0113 0.3163 0.9486
vn 0.0093 0.3743 0.9273
vn 0.0126 0.3615 0.9323
vn 0.0180 0.3474 0.9376
vn 0.0084 0.3332 0.9428
vn 0.0054 0.3571 0.9340
vn 0.0044 0.3630 0.9318
vn 0.0065 0.3502 0.9367
vn 0.0025 0.3967 0.9179
vn 0.0035 0.3861 0.9225
vn -0.0029 0.4265 0.9045
vn -0.0014 0.4006 0.9163
vn 0.0004 0.3909 0.9204
vn -0.0011 0.4118 0.9113
vn -0.0052 0.4183 0.9083
vn -0.0059 0.4373 0.8993
vn -0.0183 0.4030 0.9150
vn 0.0009 0.3967 0.9179
vn 0.0067 0.4083 0.9128
vn 0.0101 0.3838 0.9234
vn -0.0047 0.4318 0.9020
vn -0.0043 0.4556 0.8902
vn -0.0027 0.3855 0.9227
vn 0.0193 0.3078 0.9512
vn 0.0183 0.3077 0.9513
vn 0.0166 0.3089 0.9510
vn 0.0170 0.3119 0.9500
vn 0.0137 0.3234 0.9462
vn 0.0134 0.3253 0.9455
vn 0.0107 0.3411 0.9400
vn 0.0109 0.3360 0.9418
vn 0.0036 0.4107 0.9118
vn -0.0053 0.4491 0.8935
vn 0.0091 0.3922 0.9199
vn 0.0294 0.3413 0.9395
vn 0.0309 0.3150 0.9486
vn 0.0230 0.3179 0.9478
vn 0.0237 0.3147 0.9489
vn 0.0235 0.3154 0.9487
vn 0.0286 0.2995 0.9537
vn 0.0249 0.2954 0.9550
vn 0.0233 0.3166 0.9483
vn 0.0273 0.3125 0.9495
vn 0.0318 0.3371 0.9409
vn 0.0124 0.3296 0.9440
vn 0.0156 0.3163 0.9485
vn -0.0046 0.4606 0.8876
vn -0.0054 0.4681 0.8837
# 69 vertex normals

vt 0.5552 0.1610 0.0000
vt 0.5235 0.1450 0.0000
vt 0.5585 0.1442 0.0000
vt 0.6024 0.0151 0.0000
vt 0.6020 0.0204 0.0000
vt 0.5581 0.0152 0.0000
vt 0.5569 0.0204 0.0000
vt 0.5478 0.0534 0.0000
vt 0.6001 0.0528 0.0000
vt 0.5972 0.0990 0.0000
vt 0.5739 0.0531 0.0000
vt 0.5344 0.1004 0.0000
vt 0.5659 0.0997 0.0000
vt 0.5935 0.1434 0.0000
vt 0.8028 0.0474 0.0000
vt 0.8089 0.0172 0.0000
vt 0.8350 0.0468 0.0000
vt 0.8427 0.0152 0.0000
vt 0.8671 0.0462 0.0000
vt 0.7690 0.0483 0.0000
vt 0.7353 0.0493 0.0000
vt 0.7387 0.0182 0.0000
vt 0.7959 0.0924 0.0000
vt 0.8300 0.0918 0.0000
vt 0.8641 0.0913 0.0000
vt 0.6706 0.0197 0.0000
vt 0.6685 0.0513 0.0000
vt 0.6343 0.0521 0.0000
vt 0.7019 0.0503 0.0000
vt 0.6643 0.0967 0.0000
vt 0.7271 0.0941 0.0000
vt 0.6568 0.1413 0.0000
vt 0.6308 0.0979 0.0000
vt 0.6957 0.0954 0.0000
vt 0.7118 0.1410 0.0000
vt 0.6843 0.1411 0.0000
vt 0.6793 0.1520 0.0000
vt 0.7092 0.1464 0.0000
vt 0.7942 0.1209 0.0000
vt 0.7544 0.1344 0.0000
vt 0.7615 0.0932 0.0000
vt 0.6252 0.1424 0.0000
vt 0.6184 0.1585 0.0000
vt 0.7149 0.1448 0.0000
vt 0.8431 0.0130 0.0000
vt 0.8097 0.0129 0.0000
vt 0.7738 0.0176 0.0000
vt 0.7745 0.0133 0.0000
vt 0.7050 0.0143 0.0000
vt 0.7046 0.0189 0.0000
vt 0.6363 0.0202 0.0000
vt 0.6367 0.0151 0.0000
vt 0.7360 0.1397 0.0000
vt 0.6471 0.1565 0.0000
vt 0.8236 0.1080 0.0000
vt 0.9087 0.0712 0.0000
vt 0.9132 0.0467 0.0000
vt 0.9292 0.0131 0.0000
vt 0.9556 0.0131 0.0000
vt 0.9490 0.0329 0.0000
vt 0.9248 0.0263 0.0000
vt 0.9177 0.0303 0.0000
vt 0.8762 0.0132 0.0000
vt 0.9731 0.0394 0.0000
vt 0.9028 0.0132 0.0000
vt 0.9590 0.0473 0.0000
vt 0.9338 0.0592 0.0000
vt 0.6710 0.0148 0.0000
vt 0.7392 0.0139 0.0000
vt 0.5897 0.1605 0.0000
vt 0.5206 0.1614 0.0000
vt 0.9819 0.0131 0.0000
# 72 texture coords

g E317_285B_R_DTaSI_E317_285B_R
usemtl windowglass_1SG
s 1
f 1/1/1 2/2/2 3/3/3 
f 4/4/4 5/5/5 6/6/6 
f 5/5/5 7/7/7 6/6/6 
f 5/5/5 8/8/8 7/7/7 
f 9/9/9 10/10/10 11/11/11 
f 11/11/11 12/12/12 8/8/8 
f 2/2/2 12/12/12 13/13/13 
f 13/13/13 10/10/10 14/14/14 
f 15/15/15 16/16/16 17/17/17 
f 17/17/17 18/18/18 19/19/19 
f 16/16/16 15/15/15 20/20/20 
f 20/20/20 21/21/21 22/22/22 
f 23/23/23 15/15/15 24/24/24 
f 24/24/24 19/19/19 25/25/25 
f 26/26/26 27/27/27 28/28/28 
f 28/28/28 9/9/9 5/5/5 
f 27/27/27 26/26/26 29/29/29 
f 29/29/29 22/22/22 21/21/21 
f 27/27/27 30/30/30 28/28/28 
f 28/28/28 10/10/10 9/9/9 
f 30/30/30 27/27/27 29/29/29 
f 29/29/29 21/21/21 31/31/31 
f 30/30/30 32/32/32 33/33/33 
f 33/33/33 14/14/14 10/10/10 
f 32/32/32 30/30/30 34/34/34 
f 34/34/34 31/31/31 35/35/35 
f 32/32/32 36/36/36 37/37/37 
f 35/35/35 38/38/38 37/37/37 
f 39/39/39 40/40/40 23/23/23 
f 40/40/40 31/31/31 41/41/41 
f 42/42/42 43/43/43 14/14/14 
f 15/15/15 23/23/23 41/41/41 
f 41/41/41 31/31/31 21/21/21 
f 44/44/44 38/38/38 35/35/35 
f 45/45/45 18/18/18 46/46/46 
f 47/47/47 48/48/48 16/16/16 
f 49/49/49 22/22/22 50/50/50 
f 51/51/51 4/4/4 52/52/52 
f 53/53/53 31/31/31 40/40/40 
f 32/32/32 37/37/37 54/54/54 
f 35/35/35 53/53/53 44/44/44 
f 24/24/24 55/55/55 23/23/23 
f 39/39/39 23/23/23 55/55/55 
f 25/25/25 19/19/19 56/56/56 
f 57/57/57 56/56/56 19/19/19 
f 58/58/58 59/59/58 60/60/59 
f 61/61/60 60/60/59 62/62/61 
f 63/63/62 62/62/61 57/57/57 
f 35/35/35 31/31/31 53/53/53 
f 59/59/58 64/64/63 60/60/59 
f 65/65/58 61/61/60 63/63/62 
f 60/60/59 66/66/64 62/62/61 
f 66/66/64 67/67/65 57/57/57 
f 62/62/61 66/66/64 57/57/57 
f 20/20/20 41/41/41 21/21/21 
f 32/32/32 42/42/42 33/33/33 
f 34/34/34 29/29/29 31/31/31 
f 30/30/30 33/33/33 28/28/28 
f 26/26/26 50/50/50 29/29/29 
f 51/51/51 28/28/28 5/5/5 
f 15/15/15 17/17/17 24/24/24 
f 3/3/3 13/13/13 14/14/14 
f 25/25/25 55/55/55 24/24/24 
f 52/52/52 68/68/66 26/26/26 
f 26/26/26 28/28/28 51/51/51 
f 5/5/5 4/4/4 51/51/51 
f 50/50/50 22/22/22 29/29/29 
f 50/50/50 26/26/26 68/68/66 
f 69/69/67 22/22/22 49/49/49 
f 48/48/48 46/46/46 16/16/16 
f 47/47/47 20/20/20 22/22/22 
f 16/16/16 20/20/20 47/47/47 
f 22/22/22 69/69/67 47/47/47 
f 18/18/18 63/63/62 19/19/19 
f 18/18/18 16/16/16 46/46/46 
f 43/43/43 70/70/68 14/14/14 
f 42/42/42 14/14/14 33/33/33 
f 32/32/32 54/54/54 42/42/42 
f 40/40/40 41/41/41 23/23/23 
f 36/36/36 34/34/34 35/35/35 
f 32/32/32 34/34/34 36/36/36 
f 36/36/36 35/35/35 37/37/37 
f 16/16/16 18/18/18 17/17/17 
f 10/10/10 13/13/13 11/11/11 
f 9/9/9 11/11/11 5/5/5 
f 2/2/2 13/13/13 3/3/3 
f 3/3/3 14/14/14 70/70/68 
f 71/71/69 2/2/2 1/1/1 
f 72/72/58 64/64/63 59/59/58 
f 58/58/58 61/61/60 65/65/58 
f 58/58/58 60/60/59 61/61/60 
f 64/64/63 66/66/64 60/60/59 
f 67/67/65 56/56/56 57/57/57 
f 63/63/62 57/57/57 19/19/19 
f 61/61/60 62/62/61 63/63/62 
f 15/15/15 41/41/41 20/20/20 
f 33/33/33 10/10/10 28/28/28 
f 30/30/30 29/29/29 34/34/34 
f 17/17/17 19/19/19 24/24/24 
f 13/13/13 12/12/12 11/11/11 
f 51/51/51 52/52/52 26/26/26 
f 49/49/49 50/50/50 68/68/66 
f 69/69/67 48/48/48 47/47/47 
f 63/63/62 18/18/18 45/45/45 
f 54/54/54 43/43/43 42/42/42 
f 11/11/11 8/8/8 5/5/5 
f 1/1/1 3/3/3 70/70/68 
# 107 faces

