# 3ds Max Wavefront OBJ Exporter v0.97b - (c)2007 guruware
# File Created: 11.01.2016 14:32:21

mtllib Z727_18A5_R.mtl

#
# object Z727_18A5_R_DaS_Z727_18A5_R
#

v  19.8312 101.7323 69.9781
v  27.5205 99.2351 71.1017
v  20.9249 102.0965 67.8792
v  28.6349 99.5401 69.0042
v  12.3956 103.6438 69.0499
v  13.4439 104.0027 66.9665
v  3.4422 105.2820 68.2486
v  4.3633 105.6282 66.1848
v  -8.2488 106.8334 67.5347
v  -7.5659 107.2122 65.4860
v  -20.6061 108.0102 66.9580
v  -20.1947 108.4271 64.9247
v  26.9706 99.0435 72.0363
v  19.2908 101.5125 70.9185
v  30.4158 98.0862 71.5767
v  30.0703 97.8060 72.5283
v  18.7868 101.1200 71.4199
v  26.4627 98.6675 72.5008
v  11.8768 103.4235 69.9889
v  2.9857 105.0633 69.1829
v  11.3818 103.0096 70.5292
v  2.5409 104.6218 69.7532
v  -8.9176 106.1239 69.0459
v  -8.5873 106.5953 68.4638
v  -21.0055 107.2640 68.4603
v  -20.8098 107.7521 67.8796
v  -31.8345 108.5185 66.5737
v  -31.6387 108.9369 64.5627
v  -44.5317 108.5144 66.3697
v  -44.4706 108.9379 64.3842
v  -32.0226 107.7797 68.0560
v  -31.9312 108.2609 67.4831
v  -44.5902 107.7876 67.8194
v  -44.5619 108.2569 67.2627
v  25.5117 97.3587 73.4343
v  17.8450 99.7487 72.4525
v  29.7731 97.3744 73.0276
v  28.9987 96.0266 73.9542
v  10.4586 101.5685 71.6636
v  1.7120 103.1056 70.9674
v  -9.5766 104.1544 70.5093
v  -9.5346 104.5420 70.2967
v  -21.4122 105.0725 70.0389
v  -21.3729 105.6526 69.7171
v  -32.2105 105.7541 69.5518
v  -32.1954 106.1923 69.3035
v  -44.6446 106.2429 69.0363
v  -61.0764 108.2200 66.3100
v  -61.0679 108.6945 64.3468
v  -61.0806 107.9404 67.1844
v  -61.0846 107.4683 67.7148
v  -61.0932 105.9488 68.8738
v  -44.6478 105.9810 69.1873
v  -61.0938 105.7517 68.9873
v  -78.5752 107.6715 66.3298
v  -78.5704 108.2100 64.3778
v  -78.5798 106.8806 67.6905
v  -78.5775 107.3478 67.1723
v  -78.5858 105.3759 68.7798
v  -78.5876 104.7682 69.1280
v  1.6722 102.8338 71.1150
v  10.3935 101.1928 71.8644
v  17.7964 99.4952 72.5851
v  25.4644 97.1337 73.5495
v  -36.9566 105.8407 69.4129
v  -36.0046 105.8232 69.4406
v  31.1410 98.5228 69.4214
v  28.7069 99.5599 68.8558
v  28.8062 99.5872 68.6506
v  31.2419 98.5948 69.0637
v  21.0073 102.1231 67.7063
v  21.1141 102.1575 67.4826
v  13.5988 104.0557 66.6340
v  13.6850 104.0852 66.4488
v  4.5988 105.7198 65.6196
v  -7.3461 107.3358 64.7771
v  -20.0308 108.5915 64.0409
v  -31.5483 109.1298 63.5275
v  -44.4297 109.2242 62.8703
v  -61.0610 109.0707 62.5341
v  -78.5650 108.7685 61.9739
v  28.8728 95.7909 74.0772
# 82 vertices

vn 0.2268 0.9269 0.2992
vn 0.2720 0.9146 0.2992
vn 0.2375 0.9299 0.2808
vn 0.2820 0.9176 0.2803
vn 0.1733 0.9472 0.2697
vn 0.1819 0.9503 0.2528
vn 0.1298 0.9621 0.2399
vn 0.1352 0.9659 0.2210
vn 0.0966 0.9676 0.2333
vn 0.1010 0.9725 0.2100
vn 0.0587 0.9706 0.2335
vn 0.0622 0.9765 0.2064
vn 0.2183 0.8470 0.4848
vn 0.1798 0.8526 0.4907
vn 0.3061 0.8986 0.3145
vn 0.2439 0.8233 0.5125
vn 0.0772 0.6180 0.7824
vn 0.0869 0.5970 0.7975
vn 0.1397 0.8758 0.4621
vn 0.1041 0.8909 0.4422
vn 0.0621 0.6447 0.7619
vn 0.0469 0.6591 0.7506
vn 0.0325 0.6588 0.7517
vn 0.0756 0.8911 0.4474
vn 0.0145 0.6575 0.7533
vn 0.0439 0.8911 0.4517
vn 0.0149 0.9739 0.2266
vn 0.0164 0.9800 0.1981
vn -0.0109 0.9730 0.2304
vn -0.0093 0.9800 0.1986
vn -0.0055 0.6622 0.7493
vn 0.0074 0.8962 0.4435
vn -0.0157 0.6618 0.7495
vn -0.0140 0.8949 0.4461
vn 0.0620 0.5385 0.8404
vn 0.0560 0.5612 0.8258
vn 0.1012 0.5826 0.8064
vn 0.0721 0.5228 0.8494
vn 0.0428 0.5785 0.8146
vn 0.0331 0.5961 0.8022
vn 0.0057 0.4803 0.8771
vn 0.0214 0.5920 0.8056
vn -0.0027 0.4853 0.8744
vn 0.0063 0.5847 0.8112
vn -0.0106 0.4929 0.8700
vn -0.0080 0.6026 0.7980
vn -0.0161 0.6037 0.7971
vn -0.0232 0.9661 0.2572
vn -0.0216 0.9755 0.2191
vn -0.0242 0.8817 0.4712
vn -0.0207 0.6474 0.7619
vn -0.0201 0.5949 0.8035
vn -0.0171 0.4992 0.8663
vn -0.0194 0.4990 0.8664
vn -0.0383 0.9549 0.2946
vn -0.0363 0.9693 0.2431
vn -0.0285 0.6324 0.7741
vn -0.0367 0.8640 0.5021
vn -0.0265 0.5622 0.8266
vn -0.0250 0.4971 0.8673
vn 0.0108 0.4760 0.8794
vn 0.0166 0.4689 0.8831
vn 0.0247 0.4594 0.8879
vn 0.0310 0.4504 0.8923
vn -0.0165 0.4940 0.8693
vn -0.0163 0.4919 0.8705
vn 0.3158 0.9048 0.2855
vn 0.2836 0.9229 0.2604
vn 0.2878 0.9212 0.2618
vn 0.3228 0.9061 0.2735
vn 0.2398 0.9358 0.2585
vn 0.2448 0.9339 0.2605
vn 0.1807 0.9547 0.2363
vn 0.1847 0.9536 0.2379
vn 0.1360 0.9674 0.2136
vn 0.1028 0.9740 0.2018
vn 0.0642 0.9789 0.1939
vn 0.0170 0.9827 0.1847
vn -0.0084 0.9826 0.1856
vn -0.0209 0.9787 0.2041
vn -0.0351 0.9732 0.2274
vn 0.0375 0.4467 0.8939
# 82 vertex normals

vt 0.4682 0.3118 0.0000
vt 0.4806 0.3076 0.0000
vt 0.4703 0.3151 0.0000
vt 0.4829 0.3108 0.0000
vt 0.4560 0.3151 0.0000
vt 0.4580 0.3185 0.0000
vt 0.4412 0.3180 0.0000
vt 0.4429 0.3214 0.0000
vt 0.4217 0.3206 0.0000
vt 0.4230 0.3241 0.0000
vt 0.4012 0.3227 0.0000
vt 0.4020 0.3261 0.0000
vt 0.4796 0.3062 0.0000
vt 0.4672 0.3104 0.0000
vt 0.4854 0.3058 0.0000
vt 0.4846 0.3042 0.0000
vt 0.4663 0.3093 0.0000
vt 0.4788 0.3052 0.0000
vt 0.4550 0.3136 0.0000
vt 0.4403 0.3164 0.0000
vt 0.4542 0.3125 0.0000
vt 0.4396 0.3153 0.0000
vt 0.4206 0.3178 0.0000
vt 0.4211 0.3191 0.0000
vt 0.4005 0.3199 0.0000
vt 0.4009 0.3211 0.0000
vt 0.3826 0.3237 0.0000
vt 0.3829 0.3271 0.0000
vt 0.3616 0.3235 0.0000
vt 0.3616 0.3269 0.0000
vt 0.3823 0.3209 0.0000
vt 0.3825 0.3221 0.0000
vt 0.3616 0.3208 0.0000
vt 0.3616 0.3220 0.0000
vt 0.4773 0.3026 0.0000
vt 0.4648 0.3065 0.0000
vt 0.4842 0.3032 0.0000
vt 0.4830 0.3005 0.0000
vt 0.4527 0.3095 0.0000
vt 0.4383 0.3120 0.0000
vt 0.4195 0.3138 0.0000
vt 0.4196 0.3145 0.0000
vt 0.3999 0.3154 0.0000
vt 0.3999 0.3165 0.0000
vt 0.3821 0.3167 0.0000
vt 0.3821 0.3175 0.0000
vt 0.3615 0.3175 0.0000
vt 0.3343 0.3226 0.0000
vt 0.3342 0.3259 0.0000
vt 0.3343 0.3210 0.0000
vt 0.3343 0.3199 0.0000
vt 0.3344 0.3167 0.0000
vt 0.3615 0.3170 0.0000
vt 0.3344 0.3164 0.0000
vt 0.3057 0.3214 0.0000
vt 0.3056 0.3247 0.0000
vt 0.3058 0.3188 0.0000
vt 0.3058 0.3199 0.0000
vt 0.3058 0.3158 0.0000
vt 0.3058 0.3146 0.0000
vt 0.4382 0.3115 0.0000
vt 0.4526 0.3088 0.0000
vt 0.4648 0.3061 0.0000
vt 0.4772 0.3022 0.0000
vt 0.3742 0.3168 0.0000
vt 0.3758 0.3168 0.0000
vt 0.4870 0.3091 0.0000
vt 0.4830 0.3110 0.0000
vt 0.4833 0.3113 0.0000
vt 0.4873 0.3096 0.0000
vt 0.4705 0.3154 0.0000
vt 0.4707 0.3157 0.0000
vt 0.4583 0.3190 0.0000
vt 0.4585 0.3193 0.0000
vt 0.4434 0.3223 0.0000
vt 0.4234 0.3252 0.0000
vt 0.4023 0.3276 0.0000
vt 0.3831 0.3288 0.0000
vt 0.3616 0.3294 0.0000
vt 0.3341 0.3289 0.0000
vt 0.3055 0.3288 0.0000
vt 0.4828 0.3001 0.0000
# 82 texture coords

g Z727_18A5_R_DaS_Z727_18A5_R
usemtl paint_whiteSG
s 1
f 1/1/1 2/2/2 3/3/3 
f 2/2/2 4/4/4 3/3/3 
f 5/5/5 1/1/1 6/6/6 
f 1/1/1 3/3/3 6/6/6 
f 7/7/7 5/5/5 8/8/8 
f 5/5/5 6/6/6 8/8/8 
f 9/9/9 7/7/7 10/10/10 
f 7/7/7 8/8/8 10/10/10 
f 11/11/11 9/9/9 12/12/12 
f 9/9/9 10/10/10 12/12/12 
f 2/2/2 1/1/1 13/13/13 
f 1/1/1 14/14/14 13/13/13 
f 15/15/15 2/2/2 16/16/16 
f 2/2/2 13/13/13 16/16/16 
f 17/17/17 18/18/18 14/14/14 
f 18/18/18 13/13/13 14/14/14 
f 5/5/5 7/7/7 19/19/19 
f 7/7/7 20/20/20 19/19/19 
f 1/1/1 5/5/5 14/14/14 
f 5/5/5 19/19/19 14/14/14 
f 21/21/21 17/17/17 19/19/19 
f 17/17/17 14/14/14 19/19/19 
f 22/22/22 21/21/21 20/20/20 
f 21/21/21 19/19/19 20/20/20 
f 23/23/23 22/22/22 24/24/24 
f 22/22/22 20/20/20 24/24/24 
f 25/25/25 23/23/23 26/26/26 
f 23/23/23 24/24/24 26/26/26 
f 9/9/9 11/11/11 24/24/24 
f 11/11/11 26/26/26 24/24/24 
f 7/7/7 9/9/9 20/20/20 
f 9/9/9 24/24/24 20/20/20 
f 27/27/27 11/11/11 28/28/28 
f 11/11/11 12/12/12 28/28/28 
f 29/29/29 27/27/27 30/30/30 
f 27/27/27 28/28/28 30/30/30 
f 31/31/31 25/25/25 32/32/32 
f 25/25/25 26/26/26 32/32/32 
f 33/33/33 31/31/31 34/34/34 
f 31/31/31 32/32/32 34/34/34 
f 27/27/27 29/29/29 32/32/32 
f 29/29/29 34/34/34 32/32/32 
f 11/11/11 27/27/27 26/26/26 
f 27/27/27 32/32/32 26/26/26 
f 18/18/18 17/17/17 35/35/35 
f 17/17/17 36/36/36 35/35/35 
f 37/37/37 18/18/18 38/38/38 
f 18/18/18 35/35/35 38/38/38 
f 21/21/21 22/22/22 39/39/39 
f 22/22/22 40/40/40 39/39/39 
f 17/17/17 21/21/21 36/36/36 
f 21/21/21 39/39/39 36/36/36 
f 41/41/41 42/42/42 43/43/43 
f 42/42/42 44/44/44 43/43/43 
f 23/23/23 25/25/25 42/42/42 
f 25/25/25 44/44/44 42/42/42 
f 22/22/22 23/23/23 40/40/40 
f 23/23/23 42/42/42 40/40/40 
f 43/43/43 44/44/44 45/45/45 
f 44/44/44 46/46/46 45/45/45 
f 31/31/31 33/33/33 46/46/46 
f 33/33/33 47/47/47 46/46/46 
f 25/25/25 31/31/31 44/44/44 
f 31/31/31 46/46/46 44/44/44 
f 48/48/48 29/29/29 49/49/49 
f 29/29/29 30/30/30 49/49/49 
f 29/29/29 48/48/48 34/34/34 
f 48/48/48 50/50/50 34/34/34 
f 51/51/51 33/33/33 50/50/50 
f 33/33/33 34/34/34 50/50/50 
f 33/33/33 51/51/51 47/47/47 
f 51/51/51 52/52/52 47/47/47 
f 47/47/47 52/52/52 53/53/53 
f 52/52/52 54/54/54 53/53/53 
f 55/55/55 48/48/48 56/56/56 
f 48/48/48 49/49/49 56/56/56 
f 57/57/57 51/51/51 58/58/58 
f 51/51/51 50/50/50 58/58/58 
f 48/48/48 55/55/55 50/50/50 
f 55/55/55 58/58/58 50/50/50 
f 51/51/51 57/57/57 52/52/52 
f 57/57/57 59/59/59 52/52/52 
f 60/60/60 54/54/54 59/59/59 
f 54/54/54 52/52/52 59/59/59 
f 61/61/61 40/40/40 41/41/41 
f 40/40/40 42/42/42 41/41/41 
f 62/62/62 39/39/39 61/61/61 
f 39/39/39 40/40/40 61/61/61 
f 63/63/63 36/36/36 62/62/62 
f 36/36/36 39/39/39 62/62/62 
f 64/64/64 35/35/35 63/63/63 
f 35/35/35 36/36/36 63/63/63 
f 47/47/47 53/53/53 46/46/46 
f 53/53/53 65/65/65 46/46/46 
f 65/65/65 66/66/66 46/46/46 
f 66/66/66 45/45/45 46/46/46 
f 4/4/4 67/67/67 68/68/68 
f 68/68/68 67/67/67 69/69/69 
f 67/67/67 70/70/70 69/69/69 
f 3/3/3 4/4/4 71/71/71 
f 69/69/69 72/72/72 68/68/68 
f 4/4/4 68/68/68 71/71/71 
f 6/6/6 3/3/3 73/73/73 
f 72/72/72 74/74/74 71/71/71 
f 71/71/71 74/74/74 3/3/3 
f 3/3/3 74/74/74 73/73/73 
f 74/74/74 75/75/75 73/73/73 
f 73/73/73 75/75/75 6/6/6 
f 6/6/6 75/75/75 8/8/8 
f 75/75/75 76/76/76 8/8/8 
f 76/76/76 10/10/10 8/8/8 
f 76/76/76 77/77/77 10/10/10 
f 77/77/77 12/12/12 10/10/10 
f 77/77/77 78/78/78 12/12/12 
f 78/78/78 28/28/28 12/12/12 
f 78/78/78 79/79/79 28/28/28 
f 79/79/79 30/30/30 28/28/28 
f 79/79/79 80/80/80 30/30/30 
f 80/80/80 49/49/49 30/30/30 
f 81/81/81 56/56/56 80/80/80 
f 56/56/56 49/49/49 80/80/80 
f 67/67/67 4/4/4 15/15/15 
f 4/4/4 2/2/2 15/15/15 
f 16/16/16 13/13/13 37/37/37 
f 13/13/13 18/18/18 37/37/37 
f 82/82/82 38/38/38 64/64/64 
f 38/38/38 35/35/35 64/64/64 
f 71/71/71 68/68/68 72/72/72 
# 128 faces

#
# object Z727_18A5_R_DaS_Z727_18A5_R_E
#

v  28.8062 99.5872 68.6506
v  31.2419 98.5948 69.0637
v  28.7535 99.4250 68.6029
v  31.1846 98.4344 69.0149
v  21.1141 102.1575 67.4826
v  21.0713 101.9917 67.4373
v  13.6850 104.0852 66.4488
v  13.6528 103.9161 66.4072
v  4.5988 105.7198 65.6196
v  4.5750 105.5484 65.5817
v  -7.3461 107.3358 64.7771
v  -7.3640 107.1632 64.7414
v  -20.0308 108.5915 64.0409
v  -20.0417 108.4180 64.0067
v  -31.5483 109.1298 63.5275
v  -31.5514 108.9558 63.4945
v  -44.4297 109.2242 62.8703
v  -44.4284 109.0502 62.8369
v  -61.0610 109.0707 62.5341
v  -61.0579 108.8972 62.4983
v  -78.5650 108.7685 61.9739
v  -78.5591 108.5956 61.9352
v  -78.5876 104.7682 69.1280
v  -78.5698 104.4151 68.5135
v  -61.0938 105.7517 68.9873
v  -61.0802 105.3982 68.3730
v  -44.6478 105.9810 69.1873
v  -44.6358 105.6278 68.5727
v  -36.9566 105.8407 69.4129
v  -36.9451 105.4890 68.7975
v  -32.2105 105.7541 69.5518
v  -36.0046 105.8232 69.4406
v  -32.2019 105.4055 68.9345
v  -35.9931 105.4726 68.8246
v  -9.5766 104.1544 70.5093
v  -9.5808 103.8138 69.8876
v  1.6722 102.8338 71.1150
v  1.6641 102.4969 70.4914
v  -21.4122 105.0725 70.0389
v  -21.4104 104.7279 69.4195
v  10.3935 101.1928 71.8644
v  10.3813 100.8608 71.2382
v  17.7964 99.4952 72.5851
v  17.7788 99.1694 71.9557
v  25.4644 97.1337 73.5495
v  25.4409 96.8142 72.9171
v  28.8728 95.7909 74.0772
v  28.8888 95.4565 73.4507
# 48 vertices

vn 0.2289 0.2056 -0.9515
vn 0.2426 0.2004 -0.9492
vn 0.2286 0.2056 -0.9515
vn 0.2430 0.2018 -0.9488
vn 0.2013 0.2098 -0.9568
vn 0.2012 0.2096 -0.9568
vn 0.1564 0.2079 -0.9656
vn 0.1564 0.2077 -0.9656
vn 0.1101 0.2001 -0.9736
vn 0.1101 0.2000 -0.9736
vn 0.0854 0.1932 -0.9774
vn 0.0640 0.1888 -0.9799
vn 0.0640 0.1887 -0.9799
vn 0.0519 0.1849 -0.9814
vn 0.0348 0.1889 -0.9814
vn 0.0348 0.1890 -0.9814
vn 0.0230 0.2023 -0.9791
vn 0.0229 0.2023 -0.9790
vn 0.0278 0.2024 -0.9789
vn 0.0276 0.2194 -0.9753
vn 0.0527 -0.8652 0.4986
vn 0.0293 -0.8661 0.4990
vn -0.0122 -0.8671 0.4981
vn -0.0122 -0.8671 0.4980
vn -0.0303 -0.8680 0.4956
vn -0.0300 -0.8683 0.4952
vn -0.0536 -0.8698 0.4905
vn -0.0297 -0.8689 0.4941
vn -0.0535 -0.8698 0.4906
vn -0.0294 -0.8690 0.4940
vn -0.1071 -0.8716 0.4784
vn -0.1071 -0.8717 0.4782
vn -0.1649 -0.8668 0.4706
vn -0.1649 -0.8669 0.4704
vn -0.0816 -0.8710 0.4844
vn -0.0816 -0.8711 0.4842
vn -0.2213 -0.8597 0.4603
vn -0.2213 -0.8599 0.4600
vn -0.2775 -0.8499 0.4479
vn -0.2775 -0.8501 0.4475
vn -0.3512 -0.8303 0.4328
vn -0.3512 -0.8304 0.4326
vn -0.3878 -0.8172 0.4263
vn -0.3878 -0.8173 0.4262
# 44 vertex normals

vt 0.4833 0.3113 0.0000
vt 0.4873 0.3096 0.0000
vt 0.4834 0.3116 0.0000
vt 0.4874 0.3099 0.0000
vt 0.4707 0.3157 0.0000
vt 0.4708 0.3160 0.0000
vt 0.4585 0.3193 0.0000
vt 0.4585 0.3196 0.0000
vt 0.4434 0.3223 0.0000
vt 0.4434 0.3226 0.0000
vt 0.4234 0.3252 0.0000
vt 0.4235 0.3255 0.0000
vt 0.4023 0.3276 0.0000
vt 0.4023 0.3279 0.0000
vt 0.3831 0.3288 0.0000
vt 0.3831 0.3291 0.0000
vt 0.3616 0.3294 0.0000
vt 0.3616 0.3297 0.0000
vt 0.3341 0.3289 0.0000
vt 0.3341 0.3292 0.0000
vt 0.3055 0.3288 0.0000
vt 0.3055 0.3291 0.0000
vt 0.3058 0.3146 0.0000
vt 0.3059 0.3135 0.0000
vt 0.3344 0.3164 0.0000
vt 0.3344 0.3152 0.0000
vt 0.3615 0.3170 0.0000
vt 0.3615 0.3159 0.0000
vt 0.3742 0.3168 0.0000
vt 0.3742 0.3157 0.0000
vt 0.3821 0.3167 0.0000
vt 0.3758 0.3168 0.0000
vt 0.3820 0.3155 0.0000
vt 0.3758 0.3156 0.0000
vt 0.4195 0.3138 0.0000
vt 0.4194 0.3126 0.0000
vt 0.4382 0.3115 0.0000
vt 0.4380 0.3103 0.0000
vt 0.3999 0.3154 0.0000
vt 0.3998 0.3142 0.0000
vt 0.4526 0.3088 0.0000
vt 0.4524 0.3076 0.0000
vt 0.4648 0.3061 0.0000
vt 0.4645 0.3049 0.0000
vt 0.4772 0.3022 0.0000
vt 0.4768 0.3011 0.0000
vt 0.4828 0.3001 0.0000
vt 0.4825 0.2990 0.0000
# 48 texture coords

g Z727_18A5_R_DaS_Z727_18A5_R_E
usemtl paint_whiteSG
s 16
f 83/83/83 84/84/84 85/85/85 
s off
f 84/84/86 86/86/86 85/85/86 
s 16
f 83/83/83 85/85/85 87/87/87 
f 85/85/85 88/88/88 87/87/87 
f 87/87/87 88/88/88 89/89/89 
f 88/88/88 90/90/90 89/89/89 
f 89/89/89 90/90/90 91/91/91 
f 90/90/90 92/92/92 91/91/91 
f 93/93/93 94/94/93 95/95/94 
f 94/94/93 96/96/95 95/95/94 
f 91/91/91 92/92/92 93/93/93 
f 92/92/92 94/94/93 93/93/93 
f 95/95/94 96/96/95 97/97/96 
f 96/96/95 98/98/96 97/97/96 
f 97/97/96 98/98/96 99/99/97 
f 98/98/96 100/100/98 99/99/97 
f 99/99/97 100/100/98 101/101/99 
f 100/100/98 102/102/100 101/101/99 
f 101/101/99 102/102/100 103/103/101 
s off
f 102/102/102 104/104/102 103/103/102 
s 18
f 105/105/103 106/106/103 107/107/104 
f 106/106/103 108/108/104 107/107/104 
f 107/107/104 108/108/104 109/109/105 
f 108/108/104 110/110/106 109/109/105 
f 109/109/105 110/110/106 111/111/107 
f 110/110/106 112/112/108 111/111/107 
f 113/113/109 114/114/110 115/115/111 
f 114/114/110 116/116/112 115/115/111 
f 117/117/113 118/118/114 119/119/115 
f 118/118/114 120/120/116 119/119/115 
f 121/121/117 122/122/118 117/117/113 
f 122/122/118 118/118/114 117/117/113 
f 113/113/109 115/115/111 121/121/117 
f 115/115/111 122/122/118 121/121/117 
f 119/119/115 120/120/116 123/123/119 
f 120/120/116 124/124/120 123/123/119 
f 123/123/119 124/124/120 125/125/121 
f 124/124/120 126/126/122 125/125/121 
f 125/125/121 126/126/122 127/127/123 
f 126/126/122 128/128/124 127/127/123 
f 127/127/123 128/128/124 129/129/125 
f 128/128/124 130/130/126 129/129/125 
f 111/111/107 112/112/108 114/114/110 
f 112/112/108 116/116/112 114/114/110 
# 44 faces

