# 3ds Max Wavefront OBJ Exporter v0.97b - (c)2007 guruware
# File Created: 11.01.2016 14:34:16

mtllib Z727_181C_L.mtl

#
# object Z727_181C_L_DaS_Z727_181C_L
#

v  102.2351 57.6609 -85.7890
v  101.9457 57.1336 -85.6363
v  102.0800 57.5126 -86.1084
v  86.1701 67.9027 -82.4480
v  88.4594 67.5493 -80.5779
v  96.8297 60.9728 -84.3197
v  99.1933 60.0730 -82.5509
v  72.5096 76.3408 -79.6820
v  74.4413 76.2681 -77.7565
v  58.2978 84.6141 -76.7331
v  59.8769 84.6252 -74.7822
v  46.1906 91.0869 -74.3414
v  47.5124 91.1830 -72.3350
v  36.1517 95.8099 -72.5178
v  37.3241 96.0129 -70.4503
v  31.1410 98.5228 -69.4214
v  30.4158 98.0862 -71.5767
v  84.9459 67.8943 -83.3790
v  95.6758 61.1179 -85.2541
v  84.4573 67.5937 -83.6833
v  95.5495 60.4687 -85.7193
v  95.9408 61.2285 -84.9610
v  85.3103 67.9772 -83.1200
v  70.7997 76.1005 -80.8734
v  71.3652 76.2700 -80.6223
v  56.8483 84.3125 -77.9625
v  57.3353 84.4949 -77.6988
v  71.7573 76.3358 -80.3661
v  57.6828 84.5775 -77.4230
v  45.6739 91.0146 -75.0520
v  35.5563 95.6304 -73.4064
v  44.9596 90.6875 -75.6306
v  45.3755 90.9070 -75.3452
v  35.0457 95.3149 -73.8666
v  29.7731 97.3744 -73.0276
v  30.0703 97.8060 -72.5283
v  69.1530 75.4324 -81.4147
v  55.5050 83.4760 -78.6010
v  83.0555 66.4662 -84.3783
v  43.8556 89.6213 -76.3812
v  34.0537 94.0954 -74.7078
v  95.4593 58.2442 -86.8424
v  33.9772 93.7799 -74.8675
v  28.8728 95.7909 -74.0772
v  28.9987 96.0266 -73.9542
v  43.7425 89.2814 -76.5550
v  55.3077 83.1967 -78.7527
v  68.8363 75.2946 -81.5051
v  82.7784 66.2960 -84.4662
v  95.1552 57.6431 -87.1203
v  100.4632 55.2885 -87.6872
v  97.8692 55.1711 -87.9732
v  97.9750 54.6222 -88.2046
v  99.2863 53.6931 -88.5057
v  101.6445 56.9886 -86.6003
v  102.4550 57.7517 -84.8848
v  102.5867 57.5764 -82.9800
# 57 vertices

vn 0.8454 -0.5100 -0.1588
vn 0.8365 -0.5227 -0.1644
vn 0.8357 -0.5192 -0.1790
vn 0.4324 0.8093 -0.3977
vn 0.4477 0.8074 -0.3843
vn 0.4949 0.8225 -0.2802
vn 0.5012 0.8380 -0.2157
vn 0.4072 0.8232 -0.3956
vn 0.4173 0.8227 -0.3861
vn 0.4007 0.8475 -0.3480
vn 0.4092 0.8474 -0.3383
vn 0.3794 0.8712 -0.3117
vn 0.3891 0.8712 -0.2994
vn 0.3359 0.8867 -0.3178
vn 0.3516 0.8914 -0.2860
vn 0.3158 0.9048 -0.2855
vn 0.3061 0.8986 -0.3145
vn 0.2335 0.6068 -0.7598
vn 0.2517 0.6108 -0.7507
vn 0.1189 0.4597 -0.8801
vn 0.1361 0.4655 -0.8745
vn 0.4369 0.8024 -0.4066
vn 0.3842 0.7724 -0.5057
vn 0.1218 0.4912 -0.8625
vn 0.2327 0.6373 -0.7346
vn 0.1247 0.5216 -0.8440
vn 0.2368 0.6728 -0.7009
vn 0.3649 0.7842 -0.5019
vn 0.3600 0.8109 -0.4614
vn 0.3399 0.8372 -0.4284
vn 0.2648 0.8098 -0.5235
vn 0.1146 0.5389 -0.8345
vn 0.2250 0.7004 -0.6774
vn 0.1134 0.5731 -0.8116
vn 0.1012 0.5826 -0.8064
vn 0.2439 0.8233 -0.5125
vn 0.0956 0.4605 -0.8825
vn 0.0963 0.4839 -0.8698
vn 0.0918 0.4266 -0.8998
vn 0.0864 0.4949 -0.8646
vn 0.0766 0.5082 -0.8578
vn 0.1081 0.4295 -0.8966
vn 0.0453 0.4425 -0.8956
vn 0.0375 0.4467 -0.8939
vn 0.0721 0.5228 -0.8494
vn 0.0558 0.4397 -0.8964
vn 0.0678 0.4389 -0.8960
vn 0.0718 0.4266 -0.9016
vn 0.0582 0.3832 -0.9218
vn 0.0747 0.3893 -0.9181
vn 0.1175 0.4532 -0.8836
vn 0.0822 0.4040 -0.9111
vn 0.0810 0.4048 -0.9108
vn 0.0800 0.4077 -0.9096
vn 0.1539 0.4967 -0.8542
vn 0.2660 0.6448 -0.7166
vn 0.5237 0.8447 -0.1105
vn 0.4438 0.8414 -0.3084
vn 0.5950 0.8031 0.0328
# 59 vertex normals

vt 0.6223 0.7606 0.0000
vt 0.6230 0.7615 0.0000
vt 0.6219 0.7611 0.0000
vt 0.5949 0.7415 0.0000
vt 0.5998 0.7397 0.0000
vt 0.6138 0.7538 0.0000
vt 0.6191 0.7528 0.0000
vt 0.5704 0.7263 0.0000
vt 0.5746 0.7239 0.0000
vt 0.5449 0.7114 0.0000
vt 0.5484 0.7088 0.0000
vt 0.5231 0.6998 0.0000
vt 0.5262 0.6969 0.0000
vt 0.5054 0.6915 0.0000
vt 0.5080 0.6883 0.0000
vt 0.4974 0.6837 0.0000
vt 0.4955 0.6872 0.0000
vt 0.5924 0.7426 0.0000
vt 0.6113 0.7546 0.0000
vt 0.5915 0.7433 0.0000
vt 0.6110 0.7560 0.0000
vt 0.6119 0.7542 0.0000
vt 0.5931 0.7422 0.0000
vt 0.5670 0.7280 0.0000
vt 0.5681 0.7275 0.0000
vt 0.5420 0.7133 0.0000
vt 0.5429 0.7128 0.0000
vt 0.5688 0.7271 0.0000
vt 0.5436 0.7123 0.0000
vt 0.5220 0.7008 0.0000
vt 0.5041 0.6929 0.0000
vt 0.5207 0.7019 0.0000
vt 0.5214 0.7013 0.0000
vt 0.5032 0.6938 0.0000
vt 0.4941 0.6899 0.0000
vt 0.4947 0.6888 0.0000
vt 0.5642 0.7295 0.0000
vt 0.5397 0.7152 0.0000
vt 0.5891 0.7456 0.0000
vt 0.5188 0.7043 0.0000
vt 0.5015 0.6964 0.0000
vt 0.6108 0.7603 0.0000
vt 0.5013 0.6970 0.0000
vt 0.4925 0.6932 0.0000
vt 0.4927 0.6927 0.0000
vt 0.5186 0.7049 0.0000
vt 0.5394 0.7157 0.0000
vt 0.5636 0.7298 0.0000
vt 0.5887 0.7460 0.0000
vt 0.6103 0.7614 0.0000
vt 0.6193 0.7655 0.0000
vt 0.6149 0.7658 0.0000
vt 0.6151 0.7668 0.0000
vt 0.6173 0.7685 0.0000
vt 0.6212 0.7622 0.0000
vt 0.6232 0.7595 0.0000
vt 0.6252 0.7571 0.0000
# 57 texture coords

g Z727_181C_L_DaS_Z727_181C_L
usemtl paint_whiteSG
s 1
f 1/1/1 2/2/2 3/3/3 
s 3
f 4/4/4 5/5/5 6/6/6 
f 6/6/6 5/5/5 7/7/7 
f 8/8/8 9/9/9 4/4/4 
f 4/4/4 9/9/9 5/5/5 
f 10/10/10 11/11/11 8/8/8 
f 8/8/8 11/11/11 9/9/9 
f 12/12/12 13/13/13 10/10/10 
f 10/10/10 13/13/13 11/11/11 
f 14/14/14 15/15/15 12/12/12 
f 12/12/12 15/15/15 13/13/13 
f 15/15/15 14/14/14 16/16/16 
f 14/14/14 17/17/17 16/16/16 
f 18/18/18 19/19/19 20/20/20 
f 20/20/20 19/19/19 21/21/21 
f 6/6/6 22/22/22 4/4/4 
f 4/4/4 22/22/22 23/23/23 
f 24/24/24 25/25/25 20/20/20 
f 20/20/20 25/25/25 18/18/18 
f 26/26/26 27/27/27 24/24/24 
f 24/24/24 27/27/27 25/25/25 
f 8/8/8 28/28/28 10/10/10 
f 10/10/10 28/28/28 29/29/29 
f 4/4/4 23/23/23 8/8/8 
f 8/8/8 23/23/23 28/28/28 
f 12/12/12 30/30/30 14/14/14 
f 14/14/14 30/30/30 31/31/31 
f 10/10/10 29/29/29 12/12/12 
f 12/12/12 29/29/29 30/30/30 
f 32/32/32 33/33/33 26/26/26 
f 26/26/26 33/33/33 27/27/27 
f 34/34/34 31/31/31 32/32/32 
f 32/32/32 31/31/31 33/33/33 
f 35/35/35 36/36/36 34/34/34 
f 34/34/34 36/36/36 31/31/31 
f 24/24/24 37/37/37 26/26/26 
f 26/26/26 37/37/37 38/38/38 
f 20/20/20 39/39/39 24/24/24 
f 24/24/24 39/39/39 37/37/37 
f 32/32/32 40/40/40 34/34/34 
f 34/34/34 40/40/40 41/41/41 
f 26/26/26 38/38/38 32/32/32 
f 32/32/32 38/38/38 40/40/40 
f 20/20/20 21/21/21 39/39/39 
f 39/39/39 21/21/21 42/42/42 
f 43/43/43 44/44/44 41/41/41 
f 41/41/41 44/44/44 45/45/45 
f 46/46/46 43/43/43 40/40/40 
f 40/40/40 43/43/43 41/41/41 
f 47/47/47 46/46/46 38/38/38 
f 38/38/38 46/46/46 40/40/40 
f 47/47/47 38/38/38 48/48/48 
f 48/48/48 38/38/38 37/37/37 
f 48/48/48 37/37/37 49/49/49 
f 49/49/49 37/37/37 39/39/39 
f 50/50/50 49/49/49 42/42/42 
f 42/42/42 49/49/49 39/39/39 
f 42/42/42 51/51/51 50/50/50 
f 50/50/50 51/51/51 52/52/52 
f 52/52/52 51/51/51 53/53/53 
f 51/51/51 54/54/54 53/53/53 
f 51/51/51 42/42/42 55/55/55 
f 55/55/55 42/42/42 21/21/21 
f 19/19/19 3/3/56 21/21/21 
f 21/21/21 3/3/56 55/55/55 
f 56/56/57 1/1/58 6/6/6 
f 6/6/6 1/1/58 22/22/22 
f 57/57/59 56/56/57 7/7/7 
f 7/7/7 56/56/57 6/6/6 
f 36/36/36 17/17/17 31/31/31 
f 31/31/31 17/17/17 14/14/14 
f 45/45/45 35/35/35 41/41/41 
f 41/41/41 35/35/35 34/34/34 
f 23/23/23 18/18/18 28/28/28 
f 28/28/28 18/18/18 25/25/25 
f 18/18/18 23/23/23 19/19/19 
f 19/19/19 23/23/23 22/22/22 
f 19/19/19 22/22/22 3/3/56 
f 3/3/56 22/22/22 1/1/58 
f 28/28/28 25/25/25 29/29/29 
f 29/29/29 25/25/25 27/27/27 
f 29/29/29 27/27/27 30/30/30 
f 30/30/30 27/27/27 33/33/33 
f 30/30/30 33/33/33 31/31/31 
# 84 faces

#
# object Z727_181C_L_DaS_Z727_181C_L_E
#

v  101.6445 56.9886 -86.6003
v  101.5214 56.6214 -86.0090
v  100.4632 55.2885 -87.6872
v  100.3859 54.9787 -87.0549
v  102.0800 57.5126 -86.1084
v  101.9457 57.1336 -85.6363
v  102.2351 57.6609 -85.7890
v  102.4550 57.7517 -84.8848
v  102.0951 57.1503 -84.8317
v  102.5867 57.5764 -82.9800
v  102.1976 56.9847 -83.0145
v  99.2317 53.4073 -87.8592
v  99.2863 53.6931 -88.5057
v  33.9772 93.7799 -74.8675
v  43.7425 89.2814 -76.5550
v  33.9465 93.4650 -74.2331
v  43.7036 88.9688 -75.9199
v  55.3077 83.1967 -78.7527
v  55.2609 82.8869 -78.1168
v  68.8363 75.2946 -81.5051
v  68.7877 74.9987 -80.8629
v  82.7784 66.2960 -84.4662
v  82.7306 66.0186 -83.8157
v  95.1552 57.6431 -87.1203
v  95.1065 57.3684 -86.4687
v  97.8692 55.1711 -87.9732
v  97.8199 54.8905 -87.3241
v  28.8728 95.7909 -74.0772
v  28.8888 95.4565 -73.4507
# 29 vertices

vn 0.8385 -0.5220 -0.1564
vn 0.8357 -0.5271 -0.1541
vn 0.8429 -0.5169 -0.1495
vn 0.8432 -0.5161 -0.1504
vn 0.8334 -0.5219 -0.1819
vn 0.8357 -0.5240 -0.1645
vn 0.8465 -0.5094 -0.1548
vn 0.8470 -0.5160 -0.1279
vn 0.8447 -0.5206 -0.1245
vn 0.8377 -0.5371 -0.0988
vn 0.8342 -0.5430 -0.0966
vn 0.8332 -0.5284 -0.1633
vn 0.8329 -0.5291 -0.1624
vn -0.4135 -0.8074 -0.4208
vn -0.4618 -0.7843 -0.4144
vn -0.4135 -0.8075 -0.4208
vn -0.4618 -0.7842 -0.4144
vn -0.5030 -0.7619 -0.4082
vn -0.5030 -0.7620 -0.4080
vn -0.5395 -0.7483 -0.3860
vn -0.5395 -0.7486 -0.3855
vn -0.5719 -0.7385 -0.3573
vn -0.5719 -0.7386 -0.3569
vn -0.6397 -0.6900 -0.3387
vn -0.6398 -0.6897 -0.3390
vn -0.6911 -0.6433 -0.3296
vn -0.6911 -0.6428 -0.3303
vn -0.3880 -0.8172 -0.4262
vn -0.3879 -0.8173 -0.4260
# 29 vertex normals

vt 0.6212 0.7622 0.0000
vt 0.6223 0.7628 0.0000
vt 0.6193 0.7655 0.0000
vt 0.6203 0.7661 0.0000
vt 0.6219 0.7611 0.0000
vt 0.6230 0.7615 0.0000
vt 0.6223 0.7606 0.0000
vt 0.6232 0.7595 0.0000
vt 0.6240 0.7604 0.0000
vt 0.6252 0.7571 0.0000
vt 0.6260 0.7579 0.0000
vt 0.6183 0.7691 0.0000
vt 0.6173 0.7685 0.0000
vt 0.5013 0.6970 0.0000
vt 0.5186 0.7049 0.0000
vt 0.5008 0.6981 0.0000
vt 0.5181 0.7060 0.0000
vt 0.5394 0.7157 0.0000
vt 0.5388 0.7168 0.0000
vt 0.5636 0.7298 0.0000
vt 0.5630 0.7309 0.0000
vt 0.5887 0.7460 0.0000
vt 0.5880 0.7470 0.0000
vt 0.6103 0.7614 0.0000
vt 0.6096 0.7624 0.0000
vt 0.6149 0.7658 0.0000
vt 0.6141 0.7667 0.0000
vt 0.4925 0.6932 0.0000
vt 0.4921 0.6943 0.0000
# 29 texture coords

g Z727_181C_L_DaS_Z727_181C_L_E
usemtl paint_whiteSG
s 1
f 58/58/60 59/59/61 60/60/62 
f 60/60/62 59/59/61 61/61/63 
f 62/62/64 63/63/65 58/58/60 
f 58/58/60 63/63/65 59/59/61 
f 64/64/66 65/65/67 63/63/65 
f 63/63/65 65/65/67 66/66/68 
f 65/65/67 67/67/69 66/66/68 
f 66/66/68 67/67/69 68/68/70 
f 69/69/71 70/70/72 61/61/63 
f 61/61/63 70/70/72 60/60/62 
s 14
f 71/71/73 72/72/74 73/73/75 
f 73/73/75 72/72/74 74/74/76 
f 72/72/74 75/75/77 74/74/76 
f 74/74/76 75/75/77 76/76/78 
f 75/75/77 77/77/79 76/76/78 
f 76/76/78 77/77/79 78/78/80 
f 77/77/79 79/79/81 78/78/80 
f 78/78/80 79/79/81 80/80/82 
f 79/79/81 81/81/83 80/80/82 
f 80/80/82 81/81/83 82/82/84 
f 81/81/83 83/83/85 82/82/84 
f 82/82/84 83/83/85 84/84/86 
f 85/85/87 71/71/73 86/86/88 
f 86/86/88 71/71/73 73/73/75 
# 24 faces

