# 3ds Max Wavefront OBJ Exporter v0.97b - (c)2007 guruware
# File Created: 11.01.2016 14:41:39

mtllib Z727_541C_R.mtl

#
# object Z727_541C_R_1_N_Z727_541C_R
#

v  -245.0188 32.1552 73.2795
v  -246.3038 32.0369 70.4583
v  -245.7690 29.5039 73.2338
v  -247.1757 29.4784 70.2689
v  -243.4050 29.4643 77.4230
v  -242.8293 32.1243 77.2089
v  -239.4165 31.9299 82.0085
v  -239.9223 29.5211 82.2694
v  -235.1840 29.5935 87.0960
v  -234.6746 31.4144 86.9461
v  -219.0781 37.1819 93.8023
v  -219.4453 33.7291 94.9415
v  -217.3258 36.9783 94.5503
v  -215.9310 36.7049 94.9733
v  -218.6129 33.5027 95.2544
v  -221.9323 29.4793 95.3254
v  -220.7510 29.5002 95.6007
v  -223.4787 29.5060 94.5454
v  -221.7506 34.0952 93.7639
v  -224.1867 29.5962 94.1596
v  -226.8419 35.1457 90.8633
v  -221.1259 36.8734 93.0463
v  -220.1916 39.4915 92.2664
v  -217.8473 43.8826 90.2904
v  -222.8569 39.8279 91.0380
v  -223.2146 44.3538 87.8803
v  -220.6136 38.2714 92.6713
v  -225.1038 38.3245 90.6639
v  -231.9385 39.7609 86.2782
v  -231.0704 41.5825 86.0043
v  -229.8411 45.2948 83.9823
v  -247.6895 29.6342 68.8410
v  -246.8475 31.8789 69.3682
v  -229.2747 29.6811 91.2596
v  -228.9277 30.5034 91.2251
v  -215.4198 38.9488 94.2480
v  -214.6415 44.2067 91.1841
v  -217.7873 39.2004 93.3688
v  -240.6201 43.2985 76.6389
v  -241.1038 41.4099 76.8395
v  -236.9265 42.6704 81.0059
v  -237.5035 40.7886 81.2923
v  -235.1618 45.9993 79.5156
v  -238.8967 46.2209 75.3629
v  -233.1891 36.3139 86.5169
v  -242.6808 43.5181 73.5564
v  -243.4111 43.5402 72.0780
v  -243.0976 41.6826 73.6384
v  -244.0090 41.6855 71.6084
v  -241.3627 45.7806 72.4244
v  -238.3165 37.0995 81.5491
v  -241.7919 37.5148 76.9426
v  -243.8212 37.6501 73.4429
v  -245.1666 37.2914 70.6413
v  -217.3587 32.4501 95.6169
v  -217.1173 32.9086 95.5772
v  -226.6094 53.6841 79.3416
v  -230.8734 53.6115 75.9629
v  -235.6580 51.2967 73.1112
v  -233.6993 53.1540 73.1989
v  -210.5811 44.6251 91.6866
v  -213.1755 53.8838 85.4109
v  -208.6361 53.8968 86.5925
v  -217.0160 53.9370 83.8619
v  -221.6973 53.7450 81.9690
v  -219.6170 29.4951 95.7571
v  -219.0937 29.4841 95.8319
v  -214.3514 36.5090 95.1829
v  -212.5564 38.8965 94.6399
v  -211.4235 40.4487 93.9087
v  -208.4219 44.5719 92.0041
v  -207.0171 53.7590 86.9632
v  -204.6133 49.1411 90.0439
v  -206.1720 53.5876 87.2157
v  -205.6582 53.3892 87.4246
v  -205.0173 53.0369 87.7467
v  -204.0355 49.9517 89.6831
v  -203.7927 50.4421 89.4514
v  -204.5262 52.6915 88.0379
v  -204.0664 52.2555 88.3765
v  -203.6655 50.9118 89.2170
v  -203.8531 51.9113 88.6167
v  -203.6563 51.4102 88.9480
# 83 vertices

vn -0.8723 0.1965 0.4478
vn -0.8899 0.2082 0.4058
vn -0.8618 0.2416 0.4460
vn -0.8795 0.2641 0.3958
vn -0.8200 0.2215 0.5278
vn -0.8225 0.1942 0.5346
vn -0.7394 0.2117 0.6391
vn -0.7455 0.2230 0.6281
vn -0.6358 0.2340 0.7356
vn -0.6181 0.2389 0.7489
vn -0.3490 0.3538 0.8678
vn -0.3524 0.2967 0.8876
vn -0.2793 0.3374 0.8990
vn -0.1475 0.2597 0.9543
vn -0.1976 0.2153 0.9563
vn -0.3723 0.2874 0.8825
vn -0.1989 0.1986 0.9597
vn -0.4249 0.3051 0.8523
vn -0.4125 0.3049 0.8584
vn -0.4417 0.2923 0.8482
vn -0.4705 0.2901 0.8333
vn -0.3884 0.3278 0.8612
vn -0.3118 0.4946 0.8113
vn -0.2980 0.5273 0.7957
vn -0.3541 0.4821 0.8014
vn -0.3446 0.5299 0.7749
vn -0.3573 0.3806 0.8529
vn -0.4313 0.3432 0.8344
vn -0.5416 0.2997 0.7853
vn -0.4456 0.4807 0.7552
vn -0.4294 0.5475 0.7183
vn -0.9006 0.2552 0.3519
vn -0.8888 0.2206 0.4016
vn -0.5298 0.2490 0.8107
vn -0.5038 0.2702 0.8205
vn -0.1744 0.4704 0.8651
vn -0.2122 0.5198 0.8275
vn -0.2865 0.4880 0.8245
vn -0.6697 0.4786 0.5678
vn -0.7822 0.1992 0.5903
vn -0.5765 0.4793 0.6617
vn -0.6820 0.2474 0.6882
vn -0.5333 0.5762 0.6193
vn -0.6095 0.6047 0.5127
vn -0.5858 0.2554 0.7692
vn -0.7456 0.4636 0.4787
vn -0.8324 0.3817 0.4017
vn -0.8604 0.1631 0.4828
vn -0.9002 0.1529 0.4078
vn -0.6531 0.6064 0.4536
vn -0.7169 0.2112 0.6644
vn -0.8109 0.1756 0.5583
vn -0.8731 0.1628 0.4596
vn -0.8970 0.1703 0.4080
vn -0.1478 0.1596 0.9760
vn -0.1289 0.1913 0.9730
vn -0.4499 0.5652 0.6914
vn -0.5484 0.5874 0.5951
vn -0.6022 0.5984 0.5285
vn -0.6020 0.6106 0.5145
vn -0.1518 0.5058 0.8492
vn -0.2565 0.5199 0.8148
vn -0.1958 0.5015 0.8427
vn -0.3196 0.5342 0.7827
vn -0.3625 0.5442 0.7566
vn -0.1374 0.1564 0.9781
vn -0.1367 0.1509 0.9790
vn -0.1089 0.2676 0.9574
vn -0.1185 0.4720 0.8736
vn -0.1420 0.4951 0.8572
vn -0.1290 0.4937 0.8600
vn -0.1548 0.4912 0.8572
vn -0.1515 0.4934 0.8565
vn -0.1572 0.4902 0.8573
vn -0.1597 0.4891 0.8575
vn -0.1644 0.4863 0.8582
vn -0.1545 0.4905 0.8576
vn -0.1649 0.4858 0.8584
vn -0.1680 0.4851 0.8582
vn -0.1757 0.4822 0.8583
vn -0.1926 0.4784 0.8568
vn -0.1383 0.5078 0.8503
vn -0.2312 0.4656 0.8543
# 83 vertex normals

vt 0.5400 0.0663 0.0000
vt 0.5818 0.0647 0.0000
vt 0.5464 0.0303 0.0000
vt 0.5908 0.0299 0.0000
vt 0.4803 0.0321 0.0000
vt 0.4786 0.0659 0.0000
vt 0.3978 0.0632 0.0000
vt 0.3985 0.0340 0.0000
vt 0.3093 0.0343 0.0000
vt 0.3051 0.0562 0.0000
vt 0.1053 0.1550 0.0000
vt 0.0954 0.1081 0.0000
vt 0.0831 0.1522 0.0000
vt 0.0674 0.1485 0.0000
vt 0.0854 0.1050 0.0000
vt 0.1171 0.0232 0.0000
vt 0.1047 0.0226 0.0000
vt 0.1385 0.0248 0.0000
vt 0.1268 0.1130 0.0000
vt 0.1516 0.0259 0.0000
vt 0.1994 0.1273 0.0000
vt 0.1299 0.1508 0.0000
vt 0.1314 0.1863 0.0000
vt 0.1351 0.2460 0.0000
vt 0.1661 0.1909 0.0000
vt 0.2044 0.2524 0.0000
vt 0.1301 0.1698 0.0000
vt 0.1880 0.1705 0.0000
vt 0.2910 0.1900 0.0000
vt 0.2873 0.2147 0.0000
vt 0.3003 0.2652 0.0000
vt 0.6140 0.0301 0.0000
vt 0.6074 0.0613 0.0000
vt 0.2196 0.0301 0.0000
vt 0.2172 0.0407 0.0000
vt 0.0716 0.1790 0.0000
vt 0.0999 0.2504 0.0000
vt 0.1001 0.1824 0.0000
vt 0.4676 0.2380 0.0000
vt 0.4692 0.2124 0.0000
vt 0.3895 0.2295 0.0000
vt 0.3908 0.2040 0.0000
vt 0.3924 0.2747 0.0000
vt 0.4724 0.2777 0.0000
vt 0.2982 0.1432 0.0000
vt 0.5148 0.2420 0.0000
vt 0.5470 0.2401 0.0000
vt 0.5208 0.2161 0.0000
vt 0.5592 0.2161 0.0000
vt 0.5289 0.2733 0.0000
vt 0.3943 0.1538 0.0000
vt 0.4734 0.1595 0.0000
vt 0.5287 0.1613 0.0000
vt 0.5801 0.1576 0.0000
vt 0.0636 0.0878 0.0000
vt 0.0612 0.0947 0.0000
vt 0.3274 0.3836 0.0000
vt 0.3950 0.3736 0.0000
vt 0.4865 0.3473 0.0000
vt 0.4654 0.3599 0.0000
vt 0.0534 0.2535 0.0000
vt 0.1512 0.3898 0.0000
vt 0.1045 0.3880 0.0000
vt 0.1998 0.3911 0.0000
vt 0.2581 0.3901 0.0000
vt 0.0912 0.0210 0.0000
vt 0.0863 0.0209 0.0000
vt 0.0452 0.1436 0.0000
vt 0.0338 0.1747 0.0000
vt 0.0293 0.1968 0.0000
vt 0.0275 0.2496 0.0000
vt 0.0849 0.3828 0.0000
vt 0.0275 0.3158 0.0000
vt 0.0756 0.3795 0.0000
vt 0.0694 0.3762 0.0000
vt 0.0611 0.3705 0.0000
vt 0.0299 0.3265 0.0000
vt 0.0320 0.3335 0.0000
vt 0.0544 0.3651 0.0000
vt 0.0474 0.3584 0.0000
vt 0.0342 0.3396 0.0000
vt 0.0428 0.3536 0.0000
vt 0.0381 0.3464 0.0000
# 83 texture coords

g Z727_541C_R_1_N_Z727_541C_R
usemtl diffuse_lightSG
s 1
f 1/1/1 2/2/2 3/3/3 
f 2/2/2 4/4/4 3/3/3 
f 3/3/3 5/5/5 1/1/1 
f 5/5/5 6/6/6 1/1/1 
f 7/7/7 6/6/6 8/8/8 
f 6/6/6 5/5/5 8/8/8 
f 8/8/8 9/9/9 7/7/7 
f 9/9/9 10/10/10 7/7/7 
f 11/11/11 12/12/12 13/13/13 
f 14/14/14 13/13/13 15/15/15 
f 13/13/13 12/12/12 15/15/15 
f 16/16/16 17/17/17 12/12/12 
f 17/17/17 15/15/15 12/12/12 
f 18/18/18 16/16/16 19/19/19 
f 16/16/16 12/12/12 19/19/19 
f 18/18/18 19/19/19 20/20/20 
f 20/20/20 19/19/19 21/21/21 
f 11/11/11 22/22/22 12/12/12 
f 22/22/22 19/19/19 12/12/12 
f 23/23/23 24/24/24 25/25/25 
f 24/24/24 26/26/26 25/25/25 
f 27/27/27 23/23/23 25/25/25 
f 28/28/28 22/22/22 25/25/25 
f 22/22/22 27/27/27 25/25/25 
f 28/28/28 29/29/29 21/21/21 
f 30/30/30 25/25/25 26/26/26 
f 31/31/31 30/30/30 26/26/26 
f 32/32/32 4/4/4 33/33/33 
f 4/4/4 2/2/2 33/33/33 
f 9/9/9 34/34/34 10/10/10 
f 10/10/10 34/34/34 35/35/35 
f 35/35/35 20/20/20 21/21/21 
f 20/20/20 35/35/35 34/34/34 
f 36/36/36 37/37/37 38/38/38 
f 37/37/37 24/24/24 38/38/38 
f 38/38/38 13/13/13 36/36/36 
f 13/13/13 14/14/14 36/36/36 
f 39/39/39 40/40/40 41/41/41 
f 40/40/40 42/42/42 41/41/41 
f 41/41/41 43/43/43 39/39/39 
f 43/43/43 44/44/44 39/39/39 
f 43/43/43 41/41/41 31/31/31 
f 30/30/30 41/41/41 29/29/29 
f 29/29/29 42/42/42 45/45/45 
f 46/46/46 47/47/47 48/48/48 
f 47/47/47 49/49/49 48/48/48 
f 44/44/44 50/50/50 39/39/39 
f 50/50/50 46/46/46 39/39/39 
f 48/48/48 40/40/40 46/46/46 
f 40/40/40 39/39/39 46/46/46 
f 21/21/21 19/19/19 28/28/28 
f 19/19/19 22/22/22 28/28/28 
f 45/45/45 35/35/35 21/21/21 
f 51/51/51 52/52/52 7/7/7 
f 52/52/52 6/6/6 7/7/7 
f 42/42/42 40/40/40 51/51/51 
f 40/40/40 52/52/52 51/51/51 
f 45/45/45 42/42/42 51/51/51 
f 7/7/7 10/10/10 51/51/51 
f 10/10/10 45/45/45 51/51/51 
f 53/53/53 54/54/54 1/1/1 
f 54/54/54 2/2/2 1/1/1 
f 48/48/48 49/49/49 53/53/53 
f 49/49/49 54/54/54 53/53/53 
f 53/53/53 52/52/52 48/48/48 
f 52/52/52 40/40/40 48/48/48 
f 1/1/1 6/6/6 53/53/53 
f 6/6/6 52/52/52 53/53/53 
f 55/55/55 56/56/56 15/15/15 
f 56/56/56 14/14/14 15/15/15 
f 57/57/57 58/58/58 43/43/43 
f 43/43/43 58/58/58 59/59/59 
f 58/58/58 60/60/60 59/59/59 
f 43/43/43 59/59/59 44/44/44 
f 44/44/44 59/59/59 50/50/50 
f 37/37/37 61/61/61 62/62/62 
f 61/61/61 63/63/63 62/62/62 
f 37/37/37 62/62/62 24/24/24 
f 26/26/26 24/24/24 64/64/64 
f 24/24/24 62/62/62 64/64/64 
f 65/65/65 57/57/57 31/31/31 
f 26/26/26 64/64/64 65/65/65 
f 2/2/2 54/54/54 33/33/33 
f 17/17/17 66/66/66 15/15/15 
f 15/15/15 66/66/66 55/55/55 
f 66/66/66 67/67/67 55/55/55 
f 14/14/14 56/56/56 68/68/68 
f 14/14/14 68/68/68 36/36/36 
f 68/68/68 69/69/69 36/36/36 
f 69/69/69 70/70/70 37/37/37 
f 70/70/70 61/61/61 37/37/37 
f 36/36/36 69/69/69 37/37/37 
f 61/61/61 70/70/70 71/71/71 
f 72/72/72 63/63/63 73/73/73 
f 63/63/63 71/71/71 73/73/73 
f 72/72/72 73/73/73 74/74/74 
f 74/74/74 73/73/73 75/75/75 
f 76/76/76 75/75/75 77/77/77 
f 75/75/75 73/73/73 77/77/77 
f 78/78/78 79/79/79 77/77/77 
f 79/79/79 76/76/76 77/77/77 
f 79/79/79 78/78/78 80/80/80 
f 78/78/78 81/81/81 80/80/80 
f 82/82/82 80/80/80 83/83/83 
f 80/80/80 81/81/81 83/83/83 
f 46/46/46 50/50/50 47/47/47 
f 43/43/43 31/31/31 57/57/57 
f 31/31/31 26/26/26 65/65/65 
f 30/30/30 28/28/28 25/25/25 
f 30/30/30 31/31/31 41/41/41 
f 29/29/29 41/41/41 42/42/42 
f 28/28/28 30/30/30 29/29/29 
f 45/45/45 21/21/21 29/29/29 
f 10/10/10 35/35/35 45/45/45 
f 24/24/24 23/23/23 38/38/38 
f 13/13/13 38/38/38 11/11/11 
f 38/38/38 23/23/23 11/11/11 
f 11/11/11 23/23/23 27/27/27 
f 22/22/22 11/11/11 27/27/27 
f 61/61/61 71/71/71 63/63/63 
# 120 faces

#
# object Z727_541C_R_Z727_541C_R_2_N
#

v  -245.0188 32.1552 -73.2795
v  -245.7690 29.5039 -73.2338
v  -246.3038 32.0369 -70.4583
v  -247.1757 29.4784 -70.2689
v  -243.4050 29.4643 -77.4230
v  -242.8293 32.1243 -77.2089
v  -239.4165 31.9299 -82.0085
v  -239.9223 29.5211 -82.2694
v  -235.1840 29.5935 -87.0960
v  -234.6746 31.4144 -86.9461
v  -219.0781 37.1819 -93.8023
v  -217.3258 36.9783 -94.5503
v  -219.4453 33.7291 -94.9415
v  -215.9310 36.7049 -94.9733
v  -218.6129 33.5027 -95.2544
v  -221.9323 29.4793 -95.3254
v  -220.7510 29.5002 -95.6007
v  -223.4787 29.5060 -94.5454
v  -221.7506 34.0952 -93.7639
v  -224.2149 29.5497 -94.1591
v  -226.8419 35.1457 -90.8633
v  -221.1259 36.8734 -93.0463
v  -220.1916 39.4915 -92.2664
v  -222.8569 39.8279 -91.0380
v  -217.8473 43.8826 -90.2904
v  -223.2146 44.3538 -87.8803
v  -220.6136 38.2714 -92.6713
v  -225.1038 38.3245 -90.6639
v  -231.9385 39.7609 -86.2782
v  -231.0704 41.5825 -86.0043
v  -229.8411 45.2948 -83.9823
v  -247.6895 29.6342 -68.8410
v  -246.8475 31.8789 -69.3682
v  -229.2747 29.6811 -91.2596
v  -228.9277 30.5034 -91.2251
v  -215.4198 38.9488 -94.2480
v  -217.7873 39.2004 -93.3688
v  -214.6415 44.2067 -91.1841
v  -240.6201 43.2985 -76.6389
v  -236.9265 42.6704 -81.0059
v  -241.1038 41.4099 -76.8395
v  -237.5035 40.7886 -81.2923
v  -235.1618 45.9993 -79.5156
v  -238.8967 46.2209 -75.3629
v  -233.1891 36.3139 -86.5169
v  -242.6808 43.5181 -73.5564
v  -243.0976 41.6826 -73.6384
v  -243.4111 43.5402 -72.0780
v  -244.0090 41.6855 -71.6084
v  -241.3627 45.7806 -72.4244
v  -238.3165 37.0995 -81.5491
v  -241.7919 37.5148 -76.9426
v  -243.8212 37.6501 -73.4429
v  -245.1666 37.2914 -70.6413
v  -217.3587 32.4501 -95.6169
v  -217.1910 32.9325 -95.5663
v  -226.6094 53.6841 -79.3416
v  -226.7601 53.3126 -79.5417
v  -230.8734 53.6115 -75.9629
v  -235.6580 51.2967 -73.1112
v  -233.6993 53.1540 -73.1989
v  -213.1755 53.8838 -85.4109
v  -210.5811 44.6251 -91.6866
v  -208.6361 53.8968 -86.5925
v  -217.0160 53.9370 -83.8619
v  -221.6973 53.7450 -81.9690
v  -219.6170 29.4951 -95.7571
v  -219.0937 29.4841 -95.8319
v  -217.0435 32.8846 -95.5881
v  -214.3514 36.5090 -95.1829
v  -212.5564 38.8965 -94.6399
v  -211.4235 40.4487 -93.9087
v  -208.4219 44.5719 -92.0041
v  -207.0171 53.7590 -86.9632
v  -204.6133 49.1411 -90.0439
v  -206.1720 53.5876 -87.2157
v  -205.6582 53.3892 -87.4246
v  -205.0173 53.0369 -87.7467
v  -204.0355 49.9517 -89.6831
v  -203.7927 50.4421 -89.4514
v  -204.5262 52.6915 -88.0379
v  -204.0664 52.2555 -88.3765
v  -203.6655 50.9118 -89.2170
v  -203.8531 51.9113 -88.6167
v  -203.6563 51.4102 -88.9480
# 85 vertices

vn -0.8723 0.1965 -0.4478
vn -0.8618 0.2416 -0.4460
vn -0.8899 0.2082 -0.4058
vn -0.8795 0.2641 -0.3958
vn -0.8200 0.2215 -0.5278
vn -0.8225 0.1942 -0.5346
vn -0.7394 0.2117 -0.6391
vn -0.7455 0.2230 -0.6281
vn -0.6358 0.2340 -0.7356
vn -0.6181 0.2389 -0.7489
vn -0.3490 0.3538 -0.8678
vn -0.2793 0.3374 -0.8990
vn -0.3524 0.2967 -0.8876
vn -0.1479 0.2603 -0.9541
vn -0.1990 0.2160 -0.9559
vn -0.3723 0.2874 -0.8825
vn -0.1989 0.1986 -0.9597
vn -0.4260 0.3054 -0.8516
vn -0.4126 0.3047 -0.8584
vn -0.4420 0.2921 -0.8481
vn -0.4704 0.2901 -0.8334
vn -0.3884 0.3278 -0.8612
vn -0.3118 0.4946 -0.8113
vn -0.3541 0.4821 -0.8014
vn -0.2980 0.5273 -0.7957
vn -0.3446 0.5299 -0.7749
vn -0.3573 0.3806 -0.8529
vn -0.4313 0.3432 -0.8344
vn -0.5416 0.2997 -0.7853
vn -0.4456 0.4807 -0.7552
vn -0.4287 0.5472 -0.7189
vn -0.9006 0.2551 -0.3519
vn -0.8888 0.2206 -0.4016
vn -0.5298 0.2490 -0.8107
vn -0.5037 0.2702 -0.8205
vn -0.1743 0.4704 -0.8651
vn -0.2865 0.4880 -0.8245
vn -0.2122 0.5198 -0.8275
vn -0.6697 0.4786 -0.5678
vn -0.5765 0.4793 -0.6617
vn -0.7822 0.1992 -0.5903
vn -0.6820 0.2474 -0.6882
vn -0.5339 0.5765 -0.6185
vn -0.6095 0.6047 -0.5127
vn -0.5858 0.2554 -0.7692
vn -0.7456 0.4636 -0.4787
vn -0.8604 0.1631 -0.4828
vn -0.8324 0.3817 -0.4017
vn -0.9002 0.1529 -0.4078
vn -0.6531 0.6064 -0.4536
vn -0.7169 0.2112 -0.6644
vn -0.8109 0.1756 -0.5583
vn -0.8731 0.1628 -0.4596
vn -0.8970 0.1703 -0.4080
vn -0.1482 0.1590 -0.9761
vn -0.1315 0.1908 -0.9728
vn -0.4582 0.5583 -0.6916
vn -0.4509 0.5653 -0.6907
vn -0.5482 0.5874 -0.5954
vn -0.6022 0.5984 -0.5285
vn -0.6020 0.6106 -0.5145
vn -0.2565 0.5199 -0.8148
vn -0.1518 0.5058 -0.8492
vn -0.1958 0.5015 -0.8427
vn -0.3196 0.5342 -0.7827
vn -0.3613 0.5438 -0.7574
vn -0.1374 0.1564 -0.9781
vn -0.1367 0.1509 -0.9790
vn -0.1002 0.1850 -0.9776
vn -0.1089 0.2669 -0.9576
vn -0.1185 0.4720 -0.8736
vn -0.1420 0.4951 -0.8572
vn -0.1290 0.4937 -0.8600
vn -0.1548 0.4912 -0.8572
vn -0.1515 0.4934 -0.8565
vn -0.1572 0.4902 -0.8573
vn -0.1597 0.4891 -0.8575
vn -0.1644 0.4863 -0.8582
vn -0.1545 0.4905 -0.8576
vn -0.1649 0.4858 -0.8584
vn -0.1680 0.4851 -0.8582
vn -0.1757 0.4822 -0.8583
vn -0.1926 0.4784 -0.8568
vn -0.1383 0.5076 -0.8504
vn -0.2312 0.4656 -0.8543
# 85 vertex normals

vt 0.5400 0.0663 0.0000
vt 0.5464 0.0303 0.0000
vt 0.5818 0.0647 0.0000
vt 0.5908 0.0299 0.0000
vt 0.4803 0.0321 0.0000
vt 0.4786 0.0659 0.0000
vt 0.3978 0.0632 0.0000
vt 0.3985 0.0340 0.0000
vt 0.3093 0.0343 0.0000
vt 0.3051 0.0562 0.0000
vt 0.1053 0.1550 0.0000
vt 0.0831 0.1522 0.0000
vt 0.0954 0.1081 0.0000
vt 0.0674 0.1485 0.0000
vt 0.0854 0.1050 0.0000
vt 0.1171 0.0232 0.0000
vt 0.1047 0.0226 0.0000
vt 0.1385 0.0248 0.0000
vt 0.1268 0.1130 0.0000
vt 0.1516 0.0259 0.0000
vt 0.1994 0.1273 0.0000
vt 0.1299 0.1508 0.0000
vt 0.1314 0.1863 0.0000
vt 0.1661 0.1909 0.0000
vt 0.1351 0.2460 0.0000
vt 0.2044 0.2524 0.0000
vt 0.1301 0.1698 0.0000
vt 0.1880 0.1705 0.0000
vt 0.2910 0.1900 0.0000
vt 0.2873 0.2147 0.0000
vt 0.3003 0.2652 0.0000
vt 0.6140 0.0301 0.0000
vt 0.6074 0.0613 0.0000
vt 0.2196 0.0301 0.0000
vt 0.2172 0.0407 0.0000
vt 0.0716 0.1790 0.0000
vt 0.1001 0.1824 0.0000
vt 0.0999 0.2504 0.0000
vt 0.4676 0.2380 0.0000
vt 0.3895 0.2295 0.0000
vt 0.4692 0.2124 0.0000
vt 0.3908 0.2040 0.0000
vt 0.3924 0.2747 0.0000
vt 0.4684 0.2777 0.0000
vt 0.2982 0.1432 0.0000
vt 0.5185 0.2410 0.0000
vt 0.5208 0.2161 0.0000
vt 0.5470 0.2401 0.0000
vt 0.5592 0.2161 0.0000
vt 0.5301 0.2718 0.0000
vt 0.3943 0.1538 0.0000
vt 0.4734 0.1595 0.0000
vt 0.5287 0.1613 0.0000
vt 0.5801 0.1576 0.0000
vt 0.0636 0.0878 0.0000
vt 0.0619 0.0943 0.0000
vt 0.3274 0.3836 0.0000
vt 0.3950 0.3736 0.0000
vt 0.4865 0.3473 0.0000
vt 0.4654 0.3599 0.0000
vt 0.1512 0.3898 0.0000
vt 0.0623 0.2561 0.0000
vt 0.1045 0.3880 0.0000
vt 0.1998 0.3911 0.0000
vt 0.2581 0.3901 0.0000
vt 0.0912 0.0210 0.0000
vt 0.0863 0.0209 0.0000
vt 0.0612 0.0947 0.0000
vt 0.0452 0.1436 0.0000
vt 0.0338 0.1747 0.0000
vt 0.0293 0.1968 0.0000
vt 0.0275 0.2496 0.0000
vt 0.0849 0.3828 0.0000
vt 0.0275 0.3158 0.0000
vt 0.0756 0.3795 0.0000
vt 0.0694 0.3762 0.0000
vt 0.0611 0.3705 0.0000
vt 0.0299 0.3265 0.0000
vt 0.0320 0.3335 0.0000
vt 0.0544 0.3651 0.0000
vt 0.0474 0.3584 0.0000
vt 0.0342 0.3396 0.0000
vt 0.0428 0.3536 0.0000
vt 0.0381 0.3464 0.0000
# 84 texture coords

g Z727_541C_R_Z727_541C_R_2_N
usemtl diffuse_lightSG
s 1
f 84/84/84 85/85/85 86/86/86 
f 86/86/86 85/85/85 87/87/87 
f 85/85/85 84/84/84 88/88/88 
f 88/88/88 84/84/84 89/89/89 
f 90/90/90 91/91/91 89/89/89 
f 89/89/89 91/91/91 88/88/88 
f 91/91/91 90/90/90 92/92/92 
f 92/92/92 90/90/90 93/93/93 
f 94/94/94 95/95/95 96/96/96 
f 97/97/97 98/98/98 95/95/95 
f 95/95/95 98/98/98 96/96/96 
f 99/99/99 96/96/96 100/100/100 
f 100/100/100 96/96/96 98/98/98 
f 101/101/101 102/102/102 99/99/99 
f 99/99/99 102/102/102 96/96/96 
f 101/101/101 103/103/103 102/102/102 
f 103/103/103 104/104/104 102/102/102 
f 94/94/94 96/96/96 105/105/105 
f 105/105/105 96/96/96 102/102/102 
f 106/106/106 107/107/107 108/108/108 
f 108/108/108 107/107/107 109/109/109 
f 110/110/110 107/107/107 106/106/106 
f 111/111/111 107/107/107 105/105/105 
f 105/105/105 107/107/107 110/110/110 
f 111/111/111 104/104/104 112/112/112 
f 113/113/113 109/109/109 107/107/107 
f 114/114/114 109/109/109 113/113/113 
f 115/115/115 116/116/116 87/87/87 
f 87/87/87 116/116/116 86/86/86 
f 92/92/92 93/93/93 117/117/117 
f 93/93/93 118/118/118 117/117/117 
f 118/118/118 104/104/104 103/103/103 
f 103/103/103 117/117/117 118/118/118 
f 119/119/119 120/120/120 121/121/121 
f 121/121/121 120/120/120 108/108/108 
f 120/120/120 119/119/119 95/95/95 
f 95/95/95 119/119/119 97/97/97 
f 122/122/122 123/123/123 124/124/124 
f 124/124/124 123/123/123 125/125/125 
f 123/123/123 122/122/122 126/126/126 
f 126/126/126 122/122/122 127/127/127 
f 126/126/126 114/114/114 123/123/123 
f 113/113/113 112/112/112 123/123/123 
f 112/112/112 128/128/128 125/125/125 
f 129/129/129 130/130/130 131/131/131 
f 131/131/131 130/130/130 132/132/132 
f 127/127/127 122/122/122 133/133/133 
f 133/133/133 122/122/122 129/129/129 
f 130/130/130 129/129/129 124/124/124 
f 124/124/124 129/129/129 122/122/122 
f 104/104/104 111/111/111 102/102/102 
f 102/102/102 111/111/111 105/105/105 
f 128/128/128 104/104/104 118/118/118 
f 134/134/134 90/90/90 135/135/135 
f 135/135/135 90/90/90 89/89/89 
f 125/125/125 134/134/134 124/124/124 
f 124/124/124 134/134/134 135/135/135 
f 128/128/128 134/134/134 125/125/125 
f 90/90/90 134/134/134 93/93/93 
f 93/93/93 134/134/134 128/128/128 
f 136/136/136 84/84/84 137/137/137 
f 137/137/137 84/84/84 86/86/86 
f 130/130/130 136/136/136 132/132/132 
f 132/132/132 136/136/136 137/137/137 
f 136/136/136 130/130/130 135/135/135 
f 135/135/135 130/130/130 124/124/124 
f 84/84/84 136/136/136 89/89/89 
f 89/89/89 136/136/136 135/135/135 
f 138/138/138 98/98/98 139/139/139 
f 139/139/139 98/98/98 97/97/97 
f 140/140/140 141/140/141 142/141/142 
f 141/140/141 126/126/126 142/141/142 
f 126/126/126 143/142/143 142/141/142 
f 142/141/142 143/142/143 144/143/144 
f 126/126/126 127/127/127 143/142/143 
f 127/127/127 133/133/133 143/142/143 
f 121/121/121 145/144/145 146/145/146 
f 146/145/146 145/144/145 147/146/147 
f 121/121/121 108/108/108 145/144/145 
f 109/109/109 148/147/148 108/108/108 
f 108/108/108 148/147/148 145/144/145 
f 140/140/140 149/148/149 141/140/141 
f 149/148/149 114/114/114 141/140/141 
f 109/109/109 149/148/149 148/147/148 
f 86/86/86 116/116/116 137/137/137 
f 100/100/100 98/98/98 150/149/150 
f 98/98/98 138/138/138 150/149/150 
f 150/149/150 138/138/138 151/150/151 
f 152/151/152 138/138/138 139/139/139 
f 139/139/139 97/97/97 152/151/152 
f 97/97/97 153/152/153 152/151/152 
f 97/97/97 119/119/119 153/152/153 
f 153/152/153 119/119/119 154/153/154 
f 154/153/154 121/121/121 155/154/155 
f 155/154/155 121/121/121 146/145/146 
f 119/119/119 121/121/121 154/153/154 
f 146/145/146 156/155/156 155/154/155 
f 157/156/157 158/157/158 147/146/147 
f 147/146/147 158/157/158 156/155/156 
f 157/156/157 159/158/159 158/157/158 
f 159/158/159 160/159/160 158/157/158 
f 161/160/161 162/161/162 160/159/160 
f 160/159/160 162/161/162 158/157/158 
f 163/162/163 162/161/162 164/163/164 
f 164/163/164 162/161/162 161/160/161 
f 164/163/164 165/164/165 163/162/163 
f 163/162/163 165/164/165 166/165/166 
f 167/166/167 168/167/168 165/164/165 
f 165/164/165 168/167/168 166/165/166 
f 129/129/129 131/131/131 133/133/133 
f 126/126/126 141/140/141 114/114/114 
f 114/114/114 149/148/149 109/109/109 
f 113/113/113 107/107/107 111/111/111 
f 113/113/113 123/123/123 114/114/114 
f 112/112/112 125/125/125 123/123/123 
f 111/111/111 112/112/112 113/113/113 
f 128/128/128 112/112/112 104/104/104 
f 93/93/93 128/128/128 118/118/118 
f 108/108/108 120/120/120 106/106/106 
f 95/95/95 94/94/94 120/120/120 
f 120/120/120 94/94/94 106/106/106 
f 94/94/94 110/110/110 106/106/106 
f 105/105/105 110/110/110 94/94/94 
f 146/145/146 147/146/147 156/155/156 
# 124 faces

