# 3ds Max Wavefront OBJ Exporter v0.97b - (c)2007 guruware
# File Created: 14.12.2015 12:47:49

mtllib U803_3A_265B_L.mtl

#
# object U803_3A_265B_L_1_DTaSI_U803_3A_265B_L
#

v  39.2831 39.3813 -73.5495
v  32.5017 39.4181 -73.5401
v  39.1704 44.9290 -71.7286
v  32.6194 44.9468 -71.7268
v  32.7316 50.4323 -69.8684
v  32.8758 55.8374 -67.9698
v  39.0345 50.4682 -69.8514
v  38.9226 55.8022 -67.9769
v  33.7810 71.8537 -61.6043
v  35.1147 77.0278 -58.9691
v  38.9696 71.7564 -61.6387
v  39.8077 76.9436 -59.0231
v  38.7853 66.6513 -63.7938
v  33.2822 66.6586 -63.7977
v  55.7287 61.4428 -65.8491
v  61.0427 61.4936 -65.8237
v  56.6566 55.8376 -67.9415
v  62.3631 55.8561 -67.9267
v  52.8548 39.3062 -73.5584
v  46.0676 39.3441 -73.5556
v  52.2770 44.8922 -71.7248
v  45.7229 44.9109 -71.7281
v  87.3789 61.6954 -65.6324
v  91.6484 61.6456 -65.4936
v  92.4921 55.9545 -67.7608
v  95.3717 58.1526 -66.7772
v  85.4632 39.1208 -73.5508
v  78.9999 39.1585 -73.5582
v  82.7567 44.8025 -71.6916
v  76.7958 44.8209 -71.7035
v  87.4757 55.9568 -67.8209
v  83.0868 61.6880 -65.6968
v  67.4063 55.8783 -67.9115
v  72.4387 55.9028 -67.8952
v  69.0375 50.6282 -69.7512
v  74.4933 50.6569 -69.7318
v  62.2159 76.0084 -59.6553
v  64.9357 75.7917 -59.7893
v  62.6253 71.3200 -61.8681
v  65.7954 71.2408 -61.9068
v  75.0531 73.4591 -60.8862
v  76.4878 72.7537 -61.1640
v  75.1643 71.0830 -61.9493
v  53.8538 76.5873 -59.2961
v  58.5110 76.3431 -59.4511
v  54.1245 71.4756 -61.7788
v  58.9036 71.3878 -61.8278
v  114.0231 34.3815 -74.7801
v  108.4208 33.5953 -75.2401
v  111.4266 38.9052 -73.2835
v  104.9470 38.9948 -73.4552
v  114.1366 33.9675 -74.9721
v  114.1074 33.5579 -75.2351
v  102.4154 50.6205 -69.3928
v  96.7255 50.7052 -69.5629
v  98.8862 54.5832 -68.0372
v  108.6374 42.8813 -71.9681
v  101.0129 44.7309 -71.5651
v  32.4407 34.0119 -75.2341
v  25.3614 39.4573 -73.5338
v  25.2700 34.0201 -75.2324
v  25.5551 44.9662 -71.7259
v  25.7770 50.3878 -69.8890
v  26.0373 55.8777 -67.9616
v  26.6190 66.6674 -63.8024
v  26.9397 71.9815 -61.5589
v  27.9193 75.0432 -60.1606
v  27.3571 74.1359 -60.6070
v  27.0821 73.1181 -61.0595
v  28.7302 75.9441 -59.6661
v  29.7150 76.4613 -59.3699
v  30.7840 76.8163 -59.1379
v  32.1078 76.9819 -59.0145
v  72.3336 71.1393 -61.9474
v  73.6017 74.0796 -60.6247
v  72.1233 74.5936 -60.4000
v  82.6829 66.5874 -63.7321
v  84.0261 68.0303 -63.0275
v  87.9234 64.9767 -64.2210
v  77.9275 71.0233 -61.9236
v  79.0133 71.3653 -61.7068
v  80.2472 70.6215 -61.9994
v  101.5802 33.6407 -75.2435
v  94.7397 33.6857 -75.2455
v  98.4435 39.0420 -73.5180
v  91.9441 39.0827 -73.5420
v  94.9098 44.7605 -71.6415
v  88.8028 44.7829 -71.6743
v  38.8193 61.2854 -65.9263
v  33.0257 61.2575 -65.9434
v  57.6108 50.5680 -69.7920
v  63.5766 50.5999 -69.7714
v  91.1097 50.7126 -69.6428
v  65.5208 61.5378 -65.8040
v  69.9909 61.5806 -65.7827
v  26.3071 61.2525 -65.9524
v  51.0170 55.8226 -67.9551
v  50.4074 61.3920 -65.8747
v  58.5759 44.8741 -71.7205
v  64.8736 44.8558 -71.7152
v  59.4704 39.2691 -73.5600
v  66.0891 39.2318 -73.5602
v  49.3493 71.5637 -61.7312
v  49.1897 76.7143 -59.2011
v  51.6403 50.5357 -69.8121
v  44.1539 71.6590 -61.6800
v  44.4988 76.8291 -59.1097
v  44.2888 66.6444 -63.7931
v  44.6133 61.3387 -65.8996
v  44.9698 55.8112 -67.9670
v  45.3374 50.5027 -69.8327
v  70.8348 44.8385 -71.7098
v  72.5418 39.1953 -73.5597
v  77.4614 55.9271 -67.8751
v  82.4627 55.9458 -67.8538
v  79.9446 50.6831 -69.7090
v  85.4933 50.7055 -69.6804
v  69.2556 71.1972 -61.9269
v  67.0811 75.5389 -59.9349
v  68.8407 75.2955 -60.0681
v  74.4531 61.6210 -65.7583
v  78.7944 61.6587 -65.7327
v  70.5010 74.9954 -60.2211
v  63.8200 66.6230 -63.8073
v  59.8118 66.6272 -63.8034
v  67.8248 66.6183 -63.8084
v  71.8342 66.6131 -63.8065
v  75.5628 66.5811 -63.8120
v  79.1225 66.5880 -63.7878
v  105.5309 46.8354 -70.6610
v  77.7650 72.0700 -61.4322
v  87.8782 33.7299 -75.2462
v  80.9747 33.7738 -75.2462
v  74.0712 33.8175 -75.2454
v  67.1677 33.8610 -75.2441
v  60.3141 33.9117 -75.2400
v  53.4605 33.9535 -75.2372
v  46.4540 33.9950 -75.2335
v  39.4473 34.0038 -75.2357
v  39.6114 34.0036 -75.2357
v  54.8022 66.6327 -63.7998
v  49.7934 66.6383 -63.7965
# 142 vertices

vn 0.0008 0.3056 -0.9521
vn 0.0009 0.3056 -0.9522
vn 0.0010 0.3164 -0.9486
vn 0.0010 0.3261 -0.9453
vn 0.0010 0.3410 -0.9400
vn 0.0010 0.3410 -0.9401
vn 0.0007 0.4211 -0.9070
vn 0.0004 0.4514 -0.8923
vn -0.0001 0.4192 -0.9079
vn -0.0010 0.4491 -0.8935
vn 0.0007 0.3786 -0.9256
vn 0.0010 0.3790 -0.9254
vn 0.0008 0.3580 -0.9337
vn 0.0007 0.3572 -0.9340
vn 0.0013 0.3408 -0.9401
vn 0.0013 0.3405 -0.9403
vn 0.0014 0.3057 -0.9521
vn 0.0011 0.3057 -0.9521
vn 0.0014 0.3165 -0.9486
vn 0.0012 0.3165 -0.9486
vn 0.0216 0.3706 -0.9286
vn 0.0333 0.3773 -0.9255
vn 0.0214 0.3512 -0.9361
vn 0.0347 0.3715 -0.9278
vn 0.0028 0.3067 -0.9518
vn 0.0023 0.3060 -0.9520
vn 0.0032 0.3166 -0.9486
vn 0.0023 0.3164 -0.9486
vn 0.0090 0.3437 -0.9390
vn 0.0091 0.3606 -0.9327
vn 0.0014 0.3402 -0.9403
vn 0.0018 0.3402 -0.9404
vn 0.0017 0.3256 -0.9455
vn 0.0021 0.3255 -0.9455
vn -0.0060 0.4272 -0.9041
vn -0.0051 0.4216 -0.9068
vn -0.0035 0.4032 -0.9151
vn -0.0024 0.3981 -0.9173
vn 0.0151 0.4089 -0.9124
vn 0.0215 0.4127 -0.9106
vn 0.0091 0.3901 -0.9207
vn -0.0039 0.4368 -0.8996
vn -0.0051 0.4325 -0.9016
vn -0.0026 0.4114 -0.9114
vn -0.0033 0.4078 -0.9131
vn 0.0215 0.3243 -0.9457
vn 0.0303 0.3310 -0.9432
vn 0.0188 0.3228 -0.9463
vn 0.0323 0.3418 -0.9392
vn 0.0224 0.3365 -0.9414
vn 0.0342 0.3508 -0.9358
vn 0.0304 0.3325 -0.9426
vn 0.0206 0.3281 -0.9444
vn 0.0008 0.2991 -0.9542
vn 0.0009 0.3055 -0.9522
vn 0.0010 0.3163 -0.9487
vn 0.0010 0.3260 -0.9454
vn 0.0010 0.3788 -0.9255
vn 0.0007 0.4200 -0.9075
vn 0.0005 0.4405 -0.8978
vn 0.0006 0.4341 -0.9008
vn 0.0006 0.4274 -0.9041
vn 0.0005 0.4463 -0.8949
vn 0.0004 0.4493 -0.8934
vn 0.0004 0.4515 -0.8923
vn 0.0004 0.4523 -0.8919
vn 0.0031 0.3889 -0.9213
vn 0.0063 0.4081 -0.9129
vn 0.0038 0.4084 -0.9128
vn 0.0220 0.3863 -0.9221
vn 0.0392 0.4117 -0.9105
vn 0.0345 0.3908 -0.9198
vn 0.0196 0.3965 -0.9178
vn 0.0448 0.4296 -0.9019
vn 0.0386 0.4141 -0.9094
vn 0.0058 0.3101 -0.9507
vn 0.0034 0.3035 -0.9528
vn 0.0076 0.3127 -0.9498
vn 0.0040 0.3083 -0.9513
vn 0.0096 0.3206 -0.9472
vn 0.0048 0.3175 -0.9483
vn 0.0010 0.3595 -0.9331
vn 0.0010 0.3596 -0.9331
vn 0.0015 0.3260 -0.9454
vn 0.0016 0.3258 -0.9455
vn 0.0094 0.3281 -0.9446
vn 0.0008 0.3566 -0.9342
vn 0.0013 0.3564 -0.9343
vn 0.0012 0.3409 -0.9401
vn 0.0007 0.3587 -0.9335
vn 0.0016 0.3165 -0.9486
vn 0.0017 0.3164 -0.9486
vn 0.0016 0.3058 -0.9521
vn 0.0017 0.3057 -0.9521
vn -0.0023 0.4141 -0.9102
vn -0.0035 0.4411 -0.8975
vn 0.0014 0.3260 -0.9454
vn -0.0015 0.4168 -0.9090
vn -0.0027 0.4455 -0.8953
vn 0.0001 0.3780 -0.9258
vn 0.0008 0.3592 -0.9332
vn 0.0011 0.3410 -0.9401
vn 0.0012 0.3261 -0.9453
vn 0.0018 0.3163 -0.9486
vn 0.0018 0.3057 -0.9521
vn 0.0025 0.3403 -0.9403
vn 0.0043 0.3409 -0.9401
vn 0.0029 0.3255 -0.9455
vn 0.0047 0.3259 -0.9454
vn -0.0004 0.3920 -0.9200
vn -0.0056 0.4174 -0.9087
vn -0.0079 0.4110 -0.9116
vn 0.0020 0.3562 -0.9344
vn 0.0039 0.3569 -0.9341
vn -0.0079 0.4054 -0.9141
vn -0.0004 0.3727 -0.9280
vn -0.0006 0.3741 -0.9274
vn 0.0004 0.3719 -0.9283
vn 0.0013 0.3715 -0.9284
vn 0.0038 0.3724 -0.9280
vn 0.0100 0.3771 -0.9261
vn 0.0318 0.3381 -0.9406
vn 0.0417 0.4299 -0.9019
vn 0.0025 0.3012 -0.9536
vn 0.0022 0.3001 -0.9539
vn 0.0018 0.2996 -0.9541
vn 0.0017 0.2995 -0.9541
vn 0.0016 0.2994 -0.9541
vn 0.0014 0.2994 -0.9541
vn 0.0010 0.2993 -0.9541
vn 0.0008 0.2992 -0.9542
vn -0.0004 0.3756 -0.9268
vn -0.0003 0.3770 -0.9262
# 133 vertex normals

vt 0.9428 0.3992 0.0000
vt 0.9425 0.4337 0.0000
vt 0.9131 0.3997 0.0000
vt 0.9130 0.4331 0.0000
vt 0.8835 0.4325 0.0000
vt 0.8543 0.4317 0.0000
vt 0.8834 0.4004 0.0000
vt 0.8546 0.4009 0.0000
vt 0.7666 0.4269 0.0000
vt 0.7372 0.4200 0.0000
vt 0.7671 0.4004 0.0000
vt 0.7377 0.3961 0.0000
vt 0.7954 0.4014 0.0000
vt 0.7953 0.4295 0.0000
vt 0.8241 0.3152 0.0000
vt 0.8238 0.2882 0.0000
vt 0.8545 0.3106 0.0000
vt 0.8545 0.2815 0.0000
vt 0.9433 0.3301 0.0000
vt 0.9431 0.3647 0.0000
vt 0.9134 0.3330 0.0000
vt 0.9133 0.3664 0.0000
vt 0.8228 0.1540 0.0000
vt 0.8228 0.1323 0.0000
vt 0.8540 0.1280 0.0000
vt 0.8418 0.1133 0.0000
vt 0.9446 0.1640 0.0000
vt 0.9443 0.1969 0.0000
vt 0.9141 0.1777 0.0000
vt 0.9140 0.2081 0.0000
vt 0.8541 0.1536 0.0000
vt 0.8229 0.1759 0.0000
vt 0.8544 0.2558 0.0000
vt 0.8543 0.2302 0.0000
vt 0.8827 0.2476 0.0000
vt 0.8826 0.2198 0.0000
vt 0.7436 0.2820 0.0000
vt 0.7449 0.2681 0.0000
vt 0.7699 0.2800 0.0000
vt 0.7704 0.2638 0.0000
vt 0.7581 0.2166 0.0000
vt 0.7620 0.2093 0.0000
vt 0.7713 0.2161 0.0000
vt 0.7401 0.3246 0.0000
vt 0.7416 0.3008 0.0000
vt 0.7689 0.3233 0.0000
vt 0.7695 0.2989 0.0000
vt 0.9696 0.0186 0.0000
vt 0.9742 0.0471 0.0000
vt 0.9454 0.0318 0.0000
vt 0.9452 0.0648 0.0000
vt 0.9720 0.0180 0.0000
vt 0.9744 0.0182 0.0000
vt 0.8825 0.0776 0.0000
vt 0.8823 0.1065 0.0000
vt 0.8611 0.0955 0.0000
vt 0.9240 0.0459 0.0000
vt 0.9144 0.0848 0.0000
vt 0.9713 0.4341 0.0000
vt 0.9423 0.4701 0.0000
vt 0.9712 0.4706 0.0000
vt 0.9128 0.4691 0.0000
vt 0.8837 0.4679 0.0000
vt 0.8540 0.4665 0.0000
vt 0.7952 0.4634 0.0000
vt 0.7658 0.4617 0.0000
vt 0.7487 0.4567 0.0000
vt 0.7538 0.4595 0.0000
vt 0.7595 0.4610 0.0000
vt 0.7435 0.4525 0.0000
vt 0.7405 0.4475 0.0000
vt 0.7384 0.4421 0.0000
vt 0.7374 0.4353 0.0000
vt 0.7710 0.2305 0.0000
vt 0.7546 0.2240 0.0000
vt 0.7518 0.2316 0.0000
vt 0.7960 0.1779 0.0000
vt 0.7879 0.1710 0.0000
vt 0.8046 0.1512 0.0000
vt 0.7716 0.2020 0.0000
vt 0.7696 0.1965 0.0000
vt 0.7737 0.1902 0.0000
vt 0.9739 0.0820 0.0000
vt 0.9736 0.1168 0.0000
vt 0.9450 0.0979 0.0000
vt 0.9448 0.1310 0.0000
vt 0.9144 0.1158 0.0000
vt 0.9143 0.1469 0.0000
vt 0.8248 0.4013 0.0000
vt 0.8249 0.4308 0.0000
vt 0.8830 0.3058 0.0000
vt 0.8829 0.2754 0.0000
vt 0.8824 0.1351 0.0000
vt 0.8236 0.2653 0.0000
vt 0.8234 0.2426 0.0000
vt 0.8248 0.4651 0.0000
vt 0.8546 0.3393 0.0000
vt 0.8243 0.3423 0.0000
vt 0.9136 0.3009 0.0000
vt 0.9137 0.2688 0.0000
vt 0.9436 0.2964 0.0000
vt 0.9438 0.2627 0.0000
vt 0.7683 0.3476 0.0000
vt 0.7392 0.3483 0.0000
vt 0.8831 0.3362 0.0000
vt 0.7677 0.3740 0.0000
vt 0.7385 0.3722 0.0000
vt 0.7954 0.3734 0.0000
vt 0.8245 0.3718 0.0000
vt 0.8546 0.3701 0.0000
vt 0.8832 0.3683 0.0000
vt 0.9139 0.2385 0.0000
vt 0.9441 0.2298 0.0000
vt 0.8542 0.2046 0.0000
vt 0.8541 0.1791 0.0000
vt 0.8825 0.1920 0.0000
vt 0.8824 0.1637 0.0000
vt 0.7707 0.2462 0.0000
vt 0.7464 0.2572 0.0000
vt 0.7478 0.2483 0.0000
vt 0.8233 0.2199 0.0000
vt 0.8231 0.1977 0.0000
vt 0.7495 0.2398 0.0000
vt 0.7958 0.2739 0.0000
vt 0.7957 0.2944 0.0000
vt 0.7959 0.2535 0.0000
vt 0.7959 0.2331 0.0000
vt 0.7961 0.2141 0.0000
vt 0.7961 0.1960 0.0000
vt 0.9028 0.0617 0.0000
vt 0.7657 0.2029 0.0000
vt 0.9733 0.1518 0.0000
vt 0.9730 0.1869 0.0000
vt 0.9727 0.2221 0.0000
vt 0.9725 0.2572 0.0000
vt 0.9721 0.2921 0.0000
vt 0.9718 0.3271 0.0000
vt 0.9716 0.3627 0.0000
vt 0.9715 0.3984 0.0000
vt 0.9715 0.3976 0.0000
vt 0.7956 0.3199 0.0000
vt 0.7955 0.3454 0.0000
# 142 texture coords

g U803_3A_265B_L_1_DTaSI_U803_3A_265B_L
usemtl windowglass_1SG
s 1
f 1/1/1 2/2/2 3/3/3 
f 3/3/3 2/2/2 4/4/3 
f 5/5/4 6/6/5 7/7/4 
f 7/7/4 6/6/5 8/8/6 
f 9/9/7 10/10/8 11/11/9 
f 11/11/9 10/10/8 12/12/10 
f 11/11/9 13/13/11 9/9/7 
f 9/9/7 13/13/11 14/14/12 
f 15/15/13 16/16/14 17/17/15 
f 17/17/15 16/16/14 18/18/16 
f 19/19/17 20/20/18 21/21/19 
f 21/21/19 20/20/18 22/22/20 
f 23/23/21 24/24/22 25/25/23 
f 25/25/23 24/24/22 26/26/24 
f 27/27/25 28/28/26 29/29/27 
f 29/29/27 28/28/26 30/30/28 
f 25/25/23 31/31/29 23/23/21 
f 23/23/21 31/31/29 32/32/30 
f 33/33/31 34/34/32 35/35/33 
f 35/35/33 34/34/32 36/36/34 
f 37/37/35 38/38/36 39/39/37 
f 39/39/37 38/38/36 40/40/38 
f 41/41/39 42/42/40 43/43/41 
f 44/44/42 45/45/43 46/46/44 
f 46/46/44 45/45/43 47/47/45 
f 48/48/46 49/49/46 50/50/47 
f 50/50/47 49/49/46 51/51/48 
f 52/52/46 53/53/46 49/49/46 
f 54/54/49 55/55/50 56/56/51 
f 56/56/51 55/55/50 25/25/23 
f 50/50/47 51/51/48 57/57/52 
f 57/57/52 51/51/48 58/58/53 
f 2/2/2 59/59/54 60/60/55 
f 60/60/55 59/59/54 61/61/54 
f 60/60/55 62/62/56 2/2/2 
f 2/2/2 62/62/56 4/4/3 
f 63/63/57 64/64/6 5/5/4 
f 5/5/4 64/64/6 6/6/5 
f 65/65/58 66/66/59 14/14/12 
f 14/14/12 66/66/59 9/9/7 
f 67/67/60 9/9/7 68/68/61 
f 66/66/59 69/69/62 9/9/7 
f 9/9/7 70/70/63 71/71/64 
f 9/9/7 72/72/65 73/73/66 
f 43/43/41 74/74/67 75/75/68 
f 75/75/68 74/74/67 76/76/69 
f 77/77/70 78/78/71 79/79/72 
f 80/80/73 81/81/74 82/82/75 
f 83/83/76 84/84/77 85/85/78 
f 85/85/78 84/84/77 86/86/79 
f 85/85/78 86/86/79 87/87/80 
f 87/87/80 86/86/79 88/88/81 
f 89/89/82 8/8/6 90/90/83 
f 90/90/83 8/8/6 6/6/5 
f 17/17/15 18/18/16 91/91/84 
f 91/91/84 18/18/16 92/92/85 
f 55/55/50 93/93/86 25/25/23 
f 25/25/23 93/93/86 31/31/29 
f 94/94/87 95/95/88 33/33/31 
f 33/33/31 95/95/88 34/34/32 
f 64/64/6 96/96/82 6/6/5 
f 6/6/5 96/96/82 90/90/83 
f 9/9/7 73/73/66 10/10/8 
f 17/17/15 97/97/89 15/15/13 
f 15/15/13 97/97/89 98/98/90 
f 99/99/91 100/100/92 101/101/93 
f 101/101/93 100/100/92 102/102/94 
f 46/46/44 103/103/95 44/44/42 
f 44/44/42 103/103/95 104/104/96 
f 91/91/84 105/105/97 17/17/15 
f 17/17/15 105/105/97 97/97/89 
f 11/11/9 12/12/10 106/106/98 
f 106/106/98 12/12/10 107/107/99 
f 11/11/9 106/106/98 13/13/11 
f 13/13/11 106/106/98 108/108/100 
f 89/89/82 109/109/101 8/8/6 
f 8/8/6 109/109/101 110/110/102 
f 8/8/6 110/110/102 7/7/4 
f 7/7/4 110/110/102 111/111/103 
f 3/3/3 22/22/20 1/1/1 
f 1/1/1 22/22/20 20/20/18 
f 21/21/19 99/99/91 19/19/17 
f 19/19/17 99/99/91 101/101/93 
f 109/109/101 98/98/90 110/110/102 
f 110/110/102 98/98/90 97/97/89 
f 103/103/95 106/106/98 104/104/96 
f 104/104/96 106/106/98 107/107/99 
f 105/105/97 111/111/103 97/97/89 
f 97/97/89 111/111/103 110/110/102 
f 100/100/92 112/112/104 102/102/94 
f 102/102/94 112/112/104 113/113/105 
f 28/28/26 113/113/105 30/30/28 
f 30/30/28 113/113/105 112/112/104 
f 29/29/27 88/88/81 27/27/25 
f 27/27/25 88/88/81 86/86/79 
f 114/114/106 115/115/107 116/116/108 
f 116/116/108 115/115/107 117/117/109 
f 34/34/32 114/114/106 36/36/34 
f 36/36/34 114/114/106 116/116/108 
f 35/35/33 92/92/85 33/33/31 
f 33/33/31 92/92/85 18/18/16 
f 118/118/110 40/40/38 119/119/111 
f 119/119/111 40/40/38 38/38/36 
f 45/45/43 37/37/35 47/47/45 
f 47/47/45 37/37/35 39/39/37 
f 120/120/112 74/74/67 118/118/110 
f 121/121/113 122/122/114 114/114/106 
f 114/114/106 122/122/114 115/115/107 
f 95/95/88 121/121/113 34/34/32 
f 34/34/32 121/121/113 114/114/106 
f 33/33/31 18/18/16 94/94/87 
f 94/94/87 18/18/16 16/16/14 
f 119/119/111 120/120/112 118/118/110 
f 31/31/29 115/115/107 32/32/30 
f 32/32/30 115/115/107 122/122/114 
f 85/85/78 51/51/48 83/83/76 
f 83/83/76 51/51/48 49/49/46 
f 87/87/80 58/58/53 85/85/78 
f 85/85/78 58/58/53 51/51/48 
f 93/93/86 117/117/109 31/31/29 
f 31/31/29 117/117/109 115/115/107 
f 75/75/68 41/41/39 43/43/41 
f 120/120/112 123/123/115 74/74/67 
f 96/96/82 65/65/58 90/90/83 
f 90/90/83 65/65/58 14/14/12 
f 94/94/87 16/16/14 124/124/116 
f 124/124/116 16/16/14 125/125/117 
f 95/95/88 94/94/87 126/126/118 
f 126/126/118 94/94/87 124/124/116 
f 121/121/113 95/95/88 127/127/119 
f 127/127/119 95/95/88 126/126/118 
f 122/122/114 121/121/113 128/128/120 
f 128/128/120 121/121/113 127/127/119 
f 32/32/30 122/122/114 129/129/121 
f 129/129/121 122/122/114 128/128/120 
f 23/23/21 32/32/30 77/77/70 
f 77/77/70 32/32/30 129/129/121 
f 24/24/22 23/23/21 79/79/72 
f 79/79/72 23/23/21 77/77/70 
f 55/55/50 54/54/49 58/58/53 
f 58/58/53 54/54/49 130/130/122 
f 78/78/71 77/77/70 82/82/75 
f 82/82/75 77/77/70 80/80/73 
f 25/25/23 26/26/24 56/56/51 
f 130/130/122 57/57/52 58/58/53 
f 80/80/73 42/42/40 131/131/123 
f 80/80/73 131/131/123 81/81/74 
f 9/9/7 67/67/60 70/70/63 
f 69/69/62 68/68/61 9/9/7 
f 9/9/7 71/71/64 72/72/65 
f 62/62/56 63/63/57 4/4/3 
f 4/4/3 63/63/57 5/5/4 
f 3/3/3 4/4/3 7/7/4 
f 7/7/4 4/4/3 5/5/4 
f 22/22/20 3/3/3 111/111/103 
f 111/111/103 3/3/3 7/7/4 
f 21/21/19 22/22/20 105/105/97 
f 105/105/97 22/22/20 111/111/103 
f 99/99/91 21/21/19 91/91/84 
f 91/91/84 21/21/19 105/105/97 
f 100/100/92 99/99/91 92/92/85 
f 92/92/85 99/99/91 91/91/84 
f 112/112/104 100/100/92 35/35/33 
f 35/35/33 100/100/92 92/92/85 
f 30/30/28 112/112/104 36/36/34 
f 36/36/34 112/112/104 35/35/33 
f 29/29/27 30/30/28 116/116/108 
f 116/116/108 30/30/28 36/36/34 
f 88/88/81 29/29/27 117/117/109 
f 117/117/109 29/29/27 116/116/108 
f 87/87/80 88/88/81 93/93/86 
f 93/93/86 88/88/81 117/117/109 
f 58/58/53 87/87/80 55/55/50 
f 55/55/50 87/87/80 93/93/86 
f 27/27/25 86/86/79 132/132/124 
f 132/132/124 86/86/79 84/84/77 
f 28/28/26 27/27/25 133/133/125 
f 133/133/125 27/27/25 132/132/124 
f 113/113/105 28/28/26 134/134/126 
f 134/134/126 28/28/26 133/133/125 
f 102/102/94 113/113/105 135/135/127 
f 135/135/127 113/113/105 134/134/126 
f 101/101/93 102/102/94 136/136/128 
f 136/136/128 102/102/94 135/135/127 
f 19/19/17 101/101/93 137/137/129 
f 137/137/129 101/101/93 136/136/128 
f 20/20/18 19/19/17 138/138/130 
f 138/138/130 19/19/17 137/137/129 
f 138/138/130 139/139/131 20/20/18 
f 1/1/1 20/20/18 140/140/131 
f 20/20/18 139/139/131 140/140/131 
f 140/140/131 139/139/131 1/1/1 
f 139/139/131 59/59/54 1/1/1 
f 1/1/1 59/59/54 2/2/2 
f 141/141/132 125/125/117 15/15/13 
f 15/15/13 125/125/117 16/16/14 
f 142/142/133 141/141/132 98/98/90 
f 98/98/90 141/141/132 15/15/13 
f 108/108/100 142/142/133 109/109/101 
f 109/109/101 142/142/133 98/98/90 
f 13/13/11 108/108/100 89/89/82 
f 89/89/82 108/108/100 109/109/101 
f 90/90/83 14/14/12 89/89/82 
f 89/89/82 14/14/12 13/13/11 
f 77/77/70 129/129/121 80/80/73 
f 80/80/73 129/129/121 43/43/41 
f 74/74/67 43/43/41 128/128/120 
f 128/128/120 43/43/41 129/129/121 
f 118/118/110 74/74/67 127/127/119 
f 127/127/119 74/74/67 128/128/120 
f 40/40/38 118/118/110 126/126/118 
f 126/126/118 118/118/110 127/127/119 
f 39/39/37 40/40/38 124/124/116 
f 124/124/116 40/40/38 126/126/118 
f 47/47/45 39/39/37 125/125/117 
f 125/125/117 39/39/37 124/124/116 
f 46/46/44 47/47/45 141/141/132 
f 141/141/132 47/47/45 125/125/117 
f 103/103/95 46/46/44 142/142/133 
f 142/142/133 46/46/44 141/141/132 
f 106/106/98 103/103/95 108/108/100 
f 108/108/100 103/103/95 142/142/133 
f 42/42/40 80/80/73 43/43/41 
f 74/74/67 123/123/115 76/76/69 
f 52/52/46 49/49/46 48/48/46 
# 225 faces

