# 3ds Max Wavefront OBJ Exporter v0.97b - (c)2007 guruware
# File Created: 14.12.2015 12:48:24

mtllib U803_3A_285B_R.mtl

#
# object U803_3A_285B_R_1_DTaSI_U803_3A_285B_R
#

v  32.6194 44.9468 71.7268
v  32.5017 39.4180 73.5401
v  39.1704 44.9290 71.7286
v  39.2831 39.3813 73.5495
v  38.9226 55.8022 67.9769
v  32.8758 55.8374 67.9698
v  39.0345 50.4682 69.8514
v  32.7316 50.4323 69.8684
v  33.7810 71.8537 61.6043
v  38.9696 71.7564 61.6387
v  35.1147 77.0278 58.9691
v  39.8077 76.9436 59.0232
v  38.7853 66.6513 63.7938
v  33.2822 66.6586 63.7977
v  55.7287 61.4428 65.8491
v  56.6566 55.8376 67.9415
v  61.0427 61.4936 65.8237
v  62.3631 55.8561 67.9267
v  52.8548 39.3062 73.5584
v  52.2770 44.8922 71.7248
v  46.0675 39.3440 73.5556
v  45.7229 44.9109 71.7281
v  95.3717 58.1526 66.7773
v  91.6484 61.6456 65.4936
v  92.4921 55.9545 67.7608
v  87.3789 61.6953 65.6324
v  76.7958 44.8209 71.7035
v  78.9999 39.1585 73.5582
v  82.7567 44.8025 71.6916
v  85.4632 39.1208 73.5508
v  87.4757 55.9568 67.8209
v  83.0868 61.6880 65.6968
v  74.4933 50.6569 69.7318
v  72.4387 55.9028 67.8952
v  69.0375 50.6282 69.7512
v  67.4063 55.8783 67.9115
v  65.7953 71.2408 61.9068
v  64.9357 75.7917 59.7893
v  62.6253 71.3200 61.8682
v  62.2159 76.0084 59.6553
v  75.0531 73.4591 60.8862
v  75.1643 71.0829 61.9493
v  76.4878 72.7537 61.1640
v  58.9036 71.3878 61.8279
v  58.5110 76.3431 59.4511
v  54.1245 71.4756 61.7789
v  53.8538 76.5873 59.2961
v  104.9470 38.9948 73.4552
v  108.4207 33.5953 75.2401
v  111.4266 38.9052 73.2835
v  114.0231 34.3815 74.7801
v  114.1365 33.9675 74.9721
v  114.1074 33.5579 75.2351
v  96.7255 50.7052 69.5629
v  98.8862 54.5832 68.0372
v  102.4154 50.6205 69.3928
v  101.0129 44.7309 71.5651
v  108.6373 42.8813 71.9681
v  25.3614 39.4573 73.5338
v  32.4407 34.0119 75.2341
v  25.2700 34.0201 75.2324
v  25.5551 44.9662 71.7259
v  26.0373 55.8777 67.9616
v  25.7770 50.3878 69.8890
v  26.9397 71.9815 61.5589
v  26.6190 66.6674 63.8024
v  27.9193 75.0432 60.1606
v  27.3571 74.1359 60.6070
v  27.0821 73.1181 61.0595
v  29.7150 76.4613 59.3700
v  28.7302 75.9441 59.6661
v  32.1078 76.9819 59.0145
v  30.7840 76.8163 59.1379
v  73.6017 74.0796 60.6247
v  72.3336 71.1393 61.9474
v  72.1233 74.5936 60.4000
v  82.6829 66.5874 63.7321
v  87.9233 64.9767 64.2210
v  84.0261 68.0302 63.0275
v  77.9275 71.0233 61.9237
v  80.2472 70.6215 61.9994
v  79.0133 71.3653 61.7068
v  91.9441 39.0827 73.5420
v  94.7397 33.6857 75.2455
v  98.4435 39.0420 73.5180
v  101.5802 33.6407 75.2435
v  88.8028 44.7829 71.6743
v  94.9098 44.7605 71.6415
v  38.8193 61.2854 65.9263
v  33.0257 61.2575 65.9434
v  63.5766 50.5999 69.7714
v  57.6108 50.5680 69.7920
v  91.1097 50.7126 69.6428
v  69.9909 61.5806 65.7827
v  65.5208 61.5378 65.8040
v  26.3071 61.2525 65.9524
v  50.4074 61.3920 65.8747
v  51.0170 55.8225 67.9551
v  66.0891 39.2318 73.5602
v  64.8736 44.8558 71.7152
v  59.4704 39.2691 73.5600
v  58.5759 44.8741 71.7205
v  49.3493 71.5637 61.7312
v  49.1897 76.7143 59.2011
v  51.6403 50.5357 69.8121
v  44.4988 76.8291 59.1097
v  44.1539 71.6590 61.6800
v  44.2888 66.6444 63.7931
v  44.9698 55.8112 67.9670
v  44.6133 61.3387 65.8996
v  45.3374 50.5027 69.8327
v  70.8348 44.8385 71.7098
v  72.5418 39.1953 73.5597
v  85.4933 50.7055 69.6804
v  82.4627 55.9458 67.8538
v  79.9446 50.6830 69.7090
v  77.4614 55.9271 67.8751
v  69.2556 71.1972 61.9269
v  67.0811 75.5388 59.9349
v  68.8407 75.2954 60.0681
v  78.7944 61.6587 65.7327
v  74.4531 61.6210 65.7584
v  70.5010 74.9954 60.2211
v  63.8200 66.6230 63.8073
v  59.8118 66.6271 63.8034
v  67.8248 66.6183 63.8084
v  71.8341 66.6131 63.8065
v  75.5628 66.5811 63.8121
v  79.1225 66.5880 63.7878
v  105.5309 46.8354 70.6610
v  77.7650 72.0700 61.4322
v  87.8782 33.7299 75.2462
v  80.9747 33.7738 75.2462
v  74.0712 33.8175 75.2454
v  67.1677 33.8610 75.2441
v  60.3141 33.9117 75.2400
v  53.4605 33.9535 75.2372
v  46.4540 33.9950 75.2335
v  39.6114 34.0036 75.2357
v  39.4473 34.0038 75.2357
v  54.8022 66.6327 63.7998
v  49.7934 66.6383 63.7965
# 142 vertices

vn 0.0010 0.3164 0.9486
vn 0.0010 0.3056 0.9522
vn 0.0010 0.3163 0.9487
vn 0.0010 0.3055 0.9522
vn 0.0010 0.3409 0.9401
vn 0.0011 0.3410 0.9401
vn 0.0011 0.3261 0.9453
vn 0.0003 0.4203 0.9074
vn 0.0001 0.4211 0.9070
vn -0.0003 0.4512 0.8924
vn -0.0005 0.4508 0.8926
vn 0.0008 0.3788 0.9255
vn 0.0008 0.3789 0.9255
vn 0.0008 0.3580 0.9337
vn 0.0013 0.3408 0.9401
vn 0.0007 0.3572 0.9340
vn 0.0013 0.3405 0.9403
vn 0.0014 0.3057 0.9521
vn 0.0014 0.3165 0.9486
vn 0.0011 0.3057 0.9521
vn 0.0012 0.3165 0.9486
vn 0.0361 0.3653 0.9302
vn 0.0361 0.3781 0.9250
vn 0.0243 0.3541 0.9349
vn 0.0236 0.3726 0.9277
vn 0.0023 0.3164 0.9486
vn 0.0023 0.3060 0.9520
vn 0.0032 0.3166 0.9486
vn 0.0028 0.3067 0.9518
vn 0.0090 0.3437 0.9390
vn 0.0091 0.3606 0.9327
vn 0.0021 0.3255 0.9455
vn 0.0018 0.3402 0.9404
vn 0.0017 0.3256 0.9455
vn 0.0014 0.3402 0.9403
vn -0.0024 0.3981 0.9173
vn -0.0051 0.4216 0.9068
vn -0.0035 0.4032 0.9151
vn -0.0060 0.4272 0.9041
vn 0.0118 0.4111 0.9115
vn 0.0095 0.3936 0.9193
vn 0.0204 0.4136 0.9102
vn -0.0033 0.4078 0.9131
vn -0.0051 0.4325 0.9016
vn -0.0026 0.4114 0.9114
vn -0.0039 0.4368 0.8996
vn 0.0177 0.3248 0.9456
vn 0.0135 0.3291 0.9442
vn 0.0215 0.3358 0.9417
vn 0.0215 0.3261 0.9451
vn 0.0215 0.3253 0.9454
vn 0.0211 0.3246 0.9456
vn 0.0240 0.3384 0.9407
vn 0.0352 0.3537 0.9347
vn 0.0333 0.3426 0.9389
vn 0.0224 0.3294 0.9439
vn 0.0279 0.3351 0.9418
vn 0.0010 0.3056 0.9521
vn 0.0010 0.2992 0.9542
vn 0.0011 0.3164 0.9486
vn 0.0011 0.3411 0.9400
vn 0.0004 0.4193 0.9078
vn 0.0009 0.3790 0.9254
vn 0.0002 0.4394 0.8983
vn 0.0003 0.4333 0.9012
vn 0.0004 0.4267 0.9044
vn 0.0000 0.4487 0.8937
vn 0.0001 0.4456 0.8952
vn -0.0002 0.4515 0.8923
vn -0.0001 0.4507 0.8927
vn 0.0055 0.4101 0.9120
vn 0.0021 0.3932 0.9194
vn 0.0016 0.4104 0.9119
vn 0.0253 0.3903 0.9203
vn 0.0371 0.3910 0.9196
vn 0.0390 0.4036 0.9141
vn 0.0225 0.4002 0.9161
vn 0.0416 0.4151 0.9088
vn 0.0377 0.4162 0.9085
vn 0.0040 0.3083 0.9513
vn 0.0034 0.3035 0.9528
vn 0.0076 0.3127 0.9498
vn 0.0058 0.3101 0.9507
vn 0.0048 0.3175 0.9483
vn 0.0096 0.3206 0.9472
vn 0.0010 0.3596 0.9331
vn 0.0016 0.3258 0.9455
vn 0.0015 0.3260 0.9454
vn 0.0094 0.3281 0.9446
vn 0.0013 0.3564 0.9343
vn 0.0008 0.3566 0.9342
vn 0.0007 0.3587 0.9335
vn 0.0012 0.3409 0.9401
vn 0.0017 0.3057 0.9521
vn 0.0017 0.3164 0.9486
vn 0.0016 0.3058 0.9521
vn 0.0016 0.3165 0.9486
vn -0.0023 0.4141 0.9102
vn -0.0035 0.4411 0.8975
vn 0.0014 0.3260 0.9454
vn -0.0027 0.4455 0.8953
vn -0.0015 0.4168 0.9090
vn 0.0001 0.3780 0.9258
vn 0.0008 0.3592 0.9332
vn 0.0012 0.3261 0.9453
vn 0.0018 0.3163 0.9486
vn 0.0018 0.3057 0.9521
vn 0.0047 0.3259 0.9454
vn 0.0043 0.3409 0.9401
vn 0.0029 0.3255 0.9455
vn 0.0025 0.3403 0.9403
vn -0.0018 0.3947 0.9188
vn -0.0048 0.4159 0.9094
vn -0.0037 0.4132 0.9106
vn 0.0039 0.3569 0.9341
vn 0.0020 0.3562 0.9344
vn -0.0026 0.4107 0.9118
vn -0.0004 0.3727 0.9280
vn -0.0006 0.3741 0.9274
vn 0.0004 0.3719 0.9283
vn 0.0013 0.3715 0.9284
vn 0.0038 0.3724 0.9280
vn 0.0100 0.3771 0.9261
vn 0.0319 0.3374 0.9408
vn 0.0291 0.4149 0.9094
vn 0.0025 0.3012 0.9536
vn 0.0022 0.3001 0.9539
vn 0.0018 0.2996 0.9541
vn 0.0017 0.2995 0.9541
vn 0.0016 0.2994 0.9541
vn 0.0014 0.2994 0.9541
vn 0.0010 0.2993 0.9541
vn 0.0009 0.2992 0.9542
vn 0.0010 0.2991 0.9542
vn -0.0004 0.3756 0.9268
vn -0.0003 0.3770 0.9262
# 136 vertex normals

vt 0.2717 0.7103 0.0000
vt 0.2710 0.6808 0.0000
vt 0.3050 0.7102 0.0000
vt 0.3056 0.6805 0.0000
vt 0.3039 0.7687 0.0000
vt 0.2731 0.7690 0.0000
vt 0.3044 0.7399 0.0000
vt 0.2723 0.7398 0.0000
vt 0.2779 0.8567 0.0000
vt 0.3043 0.8562 0.0000
vt 0.2848 0.8861 0.0000
vt 0.3086 0.8856 0.0000
vt 0.3033 0.8279 0.0000
vt 0.2753 0.8280 0.0000
vt 0.3895 0.7993 0.0000
vt 0.3942 0.7688 0.0000
vt 0.4166 0.7995 0.0000
vt 0.4233 0.7688 0.0000
vt 0.3747 0.6800 0.0000
vt 0.3718 0.7099 0.0000
vt 0.3401 0.6802 0.0000
vt 0.3384 0.7100 0.0000
vt 0.5914 0.7815 0.0000
vt 0.5725 0.8005 0.0000
vt 0.5767 0.7693 0.0000
vt 0.5507 0.8005 0.0000
vt 0.4967 0.7093 0.0000
vt 0.5078 0.6790 0.0000
vt 0.5270 0.7092 0.0000
vt 0.5407 0.6788 0.0000
vt 0.5512 0.7692 0.0000
vt 0.5289 0.8004 0.0000
vt 0.4850 0.7407 0.0000
vt 0.4746 0.7690 0.0000
vt 0.4572 0.7406 0.0000
vt 0.4489 0.7689 0.0000
vt 0.4409 0.8529 0.0000
vt 0.4366 0.8784 0.0000
vt 0.4248 0.8534 0.0000
vt 0.4228 0.8798 0.0000
vt 0.4881 0.8652 0.0000
vt 0.4886 0.8520 0.0000
vt 0.4954 0.8614 0.0000
vt 0.4058 0.8538 0.0000
vt 0.4039 0.8818 0.0000
vt 0.3815 0.8544 0.0000
vt 0.3802 0.8833 0.0000
vt 0.6400 0.6781 0.0000
vt 0.6576 0.6492 0.0000
vt 0.6730 0.6780 0.0000
vt 0.6862 0.6537 0.0000
vt 0.6867 0.6514 0.0000
vt 0.6866 0.6489 0.0000
vt 0.5982 0.7410 0.0000
vt 0.6093 0.7622 0.0000
vt 0.6272 0.7408 0.0000
vt 0.6200 0.7089 0.0000
vt 0.6588 0.6993 0.0000
vt 0.2347 0.6810 0.0000
vt 0.2707 0.6520 0.0000
vt 0.2341 0.6521 0.0000
vt 0.2357 0.7105 0.0000
vt 0.2383 0.7692 0.0000
vt 0.2369 0.7396 0.0000
vt 0.2430 0.8575 0.0000
vt 0.2413 0.8281 0.0000
vt 0.2481 0.8746 0.0000
vt 0.2452 0.8695 0.0000
vt 0.2438 0.8638 0.0000
vt 0.2572 0.8828 0.0000
vt 0.2522 0.8798 0.0000
vt 0.2694 0.8859 0.0000
vt 0.2627 0.8849 0.0000
vt 0.4807 0.8687 0.0000
vt 0.4742 0.8523 0.0000
vt 0.4732 0.8716 0.0000
vt 0.5269 0.8273 0.0000
vt 0.5535 0.8187 0.0000
vt 0.5337 0.8354 0.0000
vt 0.5027 0.8517 0.0000
vt 0.5145 0.8497 0.0000
vt 0.5082 0.8538 0.0000
vt 0.5738 0.6785 0.0000
vt 0.5879 0.6497 0.0000
vt 0.6069 0.6783 0.0000
vt 0.6228 0.6495 0.0000
vt 0.5578 0.7091 0.0000
vt 0.5889 0.7090 0.0000
vt 0.3034 0.7985 0.0000
vt 0.2739 0.7984 0.0000
vt 0.4294 0.7405 0.0000
vt 0.3990 0.7403 0.0000
vt 0.5696 0.7409 0.0000
vt 0.4622 0.7999 0.0000
vt 0.4394 0.7997 0.0000
vt 0.2397 0.7985 0.0000
vt 0.3624 0.7990 0.0000
vt 0.3655 0.7687 0.0000
vt 0.4421 0.6795 0.0000
vt 0.4359 0.7096 0.0000
vt 0.4084 0.6797 0.0000
vt 0.4039 0.7097 0.0000
vt 0.3572 0.8550 0.0000
vt 0.3564 0.8841 0.0000
vt 0.3686 0.7402 0.0000
vt 0.3325 0.8848 0.0000
vt 0.3307 0.8556 0.0000
vt 0.3313 0.8279 0.0000
vt 0.3347 0.7687 0.0000
vt 0.3329 0.7988 0.0000
vt 0.3365 0.7401 0.0000
vt 0.4663 0.7095 0.0000
vt 0.4749 0.6792 0.0000
vt 0.5410 0.7409 0.0000
vt 0.5256 0.7692 0.0000
vt 0.5128 0.7408 0.0000
vt 0.5002 0.7691 0.0000
vt 0.4585 0.8526 0.0000
vt 0.4475 0.8770 0.0000
vt 0.4565 0.8755 0.0000
vt 0.5070 0.8002 0.0000
vt 0.4849 0.8001 0.0000
vt 0.4649 0.8738 0.0000
vt 0.4308 0.8275 0.0000
vt 0.4104 0.8276 0.0000
vt 0.4512 0.8275 0.0000
vt 0.4716 0.8274 0.0000
vt 0.4906 0.8272 0.0000
vt 0.5087 0.8272 0.0000
vt 0.6430 0.7205 0.0000
vt 0.5019 0.8576 0.0000
vt 0.5530 0.6500 0.0000
vt 0.5178 0.6503 0.0000
vt 0.4827 0.6506 0.0000
vt 0.4475 0.6509 0.0000
vt 0.4126 0.6512 0.0000
vt 0.3777 0.6515 0.0000
vt 0.3420 0.6517 0.0000
vt 0.3072 0.6518 0.0000
vt 0.3063 0.6518 0.0000
vt 0.3849 0.8277 0.0000
vt 0.3594 0.8278 0.0000
# 142 texture coords

g U803_3A_285B_R_1_DTaSI_U803_3A_285B_R
usemtl windowglass_1SG
s 1
f 1/1/1 2/2/2 3/3/3 
f 3/3/3 2/2/2 4/4/4 
f 5/5/5 6/6/6 7/7/7 
f 7/7/7 6/6/6 8/8/7 
f 9/9/8 10/10/9 11/11/10 
f 11/11/10 10/10/9 12/12/11 
f 10/10/9 9/9/8 13/13/12 
f 13/13/12 9/9/8 14/14/13 
f 15/15/14 16/16/15 17/17/16 
f 17/17/16 16/16/15 18/18/17 
f 19/19/18 20/20/19 21/21/20 
f 21/21/20 20/20/19 22/22/21 
f 23/23/22 24/24/23 25/25/24 
f 25/25/24 24/24/23 26/26/25 
f 27/27/26 28/28/27 29/29/28 
f 29/29/28 28/28/27 30/30/29 
f 25/25/24 26/26/25 31/31/30 
f 31/31/30 26/26/25 32/32/31 
f 33/33/32 34/34/33 35/35/34 
f 35/35/34 34/34/33 36/36/35 
f 37/37/36 38/38/37 39/39/38 
f 39/39/38 38/38/37 40/40/39 
f 41/41/40 42/42/41 43/43/42 
f 44/44/43 45/45/44 46/46/45 
f 46/46/45 45/45/44 47/47/46 
f 48/48/47 49/49/48 50/50/49 
f 50/50/49 49/49/48 51/51/50 
f 52/52/51 49/49/48 53/53/52 
f 25/25/24 54/54/53 55/55/54 
f 55/55/54 54/54/53 56/56/55 
f 57/57/56 48/48/47 58/58/57 
f 58/58/57 48/48/47 50/50/49 
f 2/2/2 59/59/58 60/60/59 
f 60/60/59 59/59/58 61/61/59 
f 1/1/1 62/62/60 2/2/2 
f 2/2/2 62/62/60 59/59/58 
f 6/6/6 63/63/61 8/8/7 
f 8/8/7 63/63/61 64/64/7 
f 9/9/8 65/65/62 14/14/13 
f 14/14/13 65/65/62 66/66/63 
f 67/67/64 68/68/65 9/9/8 
f 65/65/62 9/9/8 69/69/66 
f 9/9/8 70/70/67 71/71/68 
f 9/9/8 72/72/69 73/73/70 
f 42/42/41 74/74/71 75/75/72 
f 75/75/72 74/74/71 76/76/73 
f 77/77/74 78/78/75 79/79/76 
f 80/80/77 81/81/78 82/82/79 
f 83/83/80 84/84/81 85/85/82 
f 85/85/82 84/84/81 86/86/83 
f 87/87/84 83/83/80 88/88/85 
f 88/88/85 83/83/80 85/85/82 
f 89/89/86 90/90/86 5/5/5 
f 5/5/5 90/90/86 6/6/6 
f 91/91/87 18/18/17 92/92/88 
f 92/92/88 18/18/17 16/16/15 
f 31/31/30 93/93/89 25/25/24 
f 25/25/24 93/93/89 54/54/53 
f 34/34/33 94/94/90 36/36/35 
f 36/36/35 94/94/90 95/95/91 
f 90/90/86 96/96/86 6/6/6 
f 6/6/6 96/96/86 63/63/61 
f 9/9/8 11/11/10 72/72/69 
f 97/97/92 98/98/93 15/15/14 
f 15/15/14 98/98/93 16/16/15 
f 99/99/94 100/100/95 101/101/96 
f 101/101/96 100/100/95 102/102/97 
f 46/46/45 47/47/46 103/103/98 
f 103/103/98 47/47/46 104/104/99 
f 98/98/93 105/105/100 16/16/15 
f 16/16/15 105/105/100 92/92/88 
f 106/106/101 12/12/11 107/107/102 
f 107/107/102 12/12/11 10/10/9 
f 108/108/103 107/107/102 13/13/12 
f 13/13/12 107/107/102 10/10/9 
f 109/109/6 110/110/104 5/5/5 
f 5/5/5 110/110/104 89/89/86 
f 111/111/105 109/109/6 7/7/7 
f 7/7/7 109/109/6 5/5/5 
f 21/21/20 22/22/21 4/4/4 
f 4/4/4 22/22/21 3/3/3 
f 101/101/96 102/102/97 19/19/18 
f 19/19/18 102/102/97 20/20/19 
f 110/110/104 109/109/6 97/97/92 
f 97/97/92 109/109/6 98/98/93 
f 103/103/98 104/104/99 107/107/102 
f 107/107/102 104/104/99 106/106/101 
f 109/109/6 111/111/105 98/98/93 
f 98/98/93 111/111/105 105/105/100 
f 100/100/95 99/99/94 112/112/106 
f 112/112/106 99/99/94 113/113/107 
f 112/112/106 113/113/107 27/27/26 
f 27/27/26 113/113/107 28/28/27 
f 83/83/80 87/87/84 30/30/29 
f 30/30/29 87/87/84 29/29/28 
f 114/114/108 115/115/109 116/116/110 
f 116/116/110 115/115/109 117/117/111 
f 116/116/110 117/117/111 33/33/32 
f 33/33/32 117/117/111 34/34/33 
f 18/18/17 91/91/87 36/36/35 
f 36/36/35 91/91/87 35/35/34 
f 118/118/112 119/119/113 37/37/36 
f 37/37/36 119/119/113 38/38/37 
f 39/39/38 40/40/39 44/44/43 
f 44/44/43 40/40/39 45/45/44 
f 120/120/114 118/118/112 75/75/72 
f 115/115/109 121/121/115 117/117/111 
f 117/117/111 121/121/115 122/122/116 
f 117/117/111 122/122/116 34/34/33 
f 34/34/33 122/122/116 94/94/90 
f 17/17/16 18/18/17 95/95/91 
f 95/95/91 18/18/17 36/36/35 
f 119/119/113 118/118/112 120/120/114 
f 121/121/115 115/115/109 32/32/31 
f 32/32/31 115/115/109 31/31/30 
f 49/49/48 48/48/47 86/86/83 
f 86/86/83 48/48/47 85/85/82 
f 48/48/47 57/57/56 85/85/82 
f 85/85/82 57/57/56 88/88/85 
f 115/115/109 114/114/108 31/31/30 
f 31/31/30 114/114/108 93/93/89 
f 74/74/71 42/42/41 41/41/40 
f 120/120/114 75/75/72 123/123/117 
f 14/14/13 66/66/63 90/90/86 
f 90/90/86 66/66/63 96/96/86 
f 95/95/91 124/124/118 17/17/16 
f 17/17/16 124/124/118 125/125/119 
f 124/124/118 95/95/91 126/126/120 
f 126/126/120 95/95/91 94/94/90 
f 126/126/120 94/94/90 127/127/121 
f 127/127/121 94/94/90 122/122/116 
f 127/127/121 122/122/116 128/128/122 
f 128/128/122 122/122/116 121/121/115 
f 128/128/122 121/121/115 129/129/123 
f 129/129/123 121/121/115 32/32/31 
f 129/129/123 32/32/31 77/77/74 
f 77/77/74 32/32/31 26/26/25 
f 77/77/74 26/26/25 78/78/75 
f 78/78/75 26/26/25 24/24/23 
f 130/130/124 56/56/55 57/57/56 
f 57/57/56 56/56/55 54/54/53 
f 80/80/77 77/77/74 81/81/78 
f 81/81/78 77/77/74 79/79/76 
f 25/25/24 55/55/54 23/23/22 
f 130/130/124 57/57/56 58/58/57 
f 80/80/77 131/131/125 43/43/42 
f 80/80/77 82/82/79 131/131/125 
f 9/9/8 71/71/68 67/67/64 
f 69/69/66 9/9/8 68/68/65 
f 9/9/8 73/73/70 70/70/67 
f 8/8/7 64/64/7 1/1/1 
f 1/1/1 64/64/7 62/62/60 
f 3/3/3 7/7/7 1/1/1 
f 1/1/1 7/7/7 8/8/7 
f 7/7/7 3/3/3 111/111/105 
f 111/111/105 3/3/3 22/22/21 
f 111/111/105 22/22/21 105/105/100 
f 105/105/100 22/22/21 20/20/19 
f 105/105/100 20/20/19 92/92/88 
f 92/92/88 20/20/19 102/102/97 
f 92/92/88 102/102/97 91/91/87 
f 91/91/87 102/102/97 100/100/95 
f 91/91/87 100/100/95 35/35/34 
f 35/35/34 100/100/95 112/112/106 
f 35/35/34 112/112/106 33/33/32 
f 33/33/32 112/112/106 27/27/26 
f 33/33/32 27/27/26 116/116/110 
f 116/116/110 27/27/26 29/29/28 
f 116/116/110 29/29/28 114/114/108 
f 114/114/108 29/29/28 87/87/84 
f 114/114/108 87/87/84 93/93/89 
f 93/93/89 87/87/84 88/88/85 
f 93/93/89 88/88/85 54/54/53 
f 54/54/53 88/88/85 57/57/56 
f 84/84/81 83/83/80 132/132/126 
f 132/132/126 83/83/80 30/30/29 
f 132/132/126 30/30/29 133/133/127 
f 133/133/127 30/30/29 28/28/27 
f 133/133/127 28/28/27 134/134/128 
f 134/134/128 28/28/27 113/113/107 
f 99/99/94 135/135/129 113/113/107 
f 113/113/107 135/135/129 134/134/128 
f 135/135/129 99/99/94 136/136/130 
f 136/136/130 99/99/94 101/101/96 
f 136/136/130 101/101/96 137/137/131 
f 137/137/131 101/101/96 19/19/18 
f 137/137/131 19/19/18 138/138/132 
f 138/138/132 19/19/18 21/21/20 
f 4/4/4 139/139/133 21/21/20 
f 138/138/132 21/21/20 140/140/134 
f 21/21/20 139/139/133 140/140/134 
f 139/139/133 4/4/4 140/140/134 
f 60/60/59 140/140/134 2/2/2 
f 4/4/4 2/2/2 140/140/134 
f 141/141/135 15/15/14 125/125/119 
f 125/125/119 15/15/14 17/17/16 
f 142/142/136 97/97/92 141/141/135 
f 141/141/135 97/97/92 15/15/14 
f 108/108/103 110/110/104 142/142/136 
f 142/142/136 110/110/104 97/97/92 
f 110/110/104 108/108/103 89/89/86 
f 89/89/86 108/108/103 13/13/12 
f 90/90/86 89/89/86 14/14/13 
f 14/14/13 89/89/86 13/13/12 
f 42/42/41 129/129/123 80/80/77 
f 80/80/77 129/129/123 77/77/74 
f 129/129/123 42/42/41 128/128/122 
f 128/128/122 42/42/41 75/75/72 
f 128/128/122 75/75/72 127/127/121 
f 127/127/121 75/75/72 118/118/112 
f 127/127/121 118/118/112 126/126/120 
f 126/126/120 118/118/112 37/37/36 
f 126/126/120 37/37/36 124/124/118 
f 124/124/118 37/37/36 39/39/38 
f 124/124/118 39/39/38 125/125/119 
f 125/125/119 39/39/38 44/44/43 
f 125/125/119 44/44/43 141/141/135 
f 141/141/135 44/44/43 46/46/45 
f 141/141/135 46/46/45 142/142/136 
f 142/142/136 46/46/45 103/103/98 
f 107/107/102 108/108/103 103/103/98 
f 103/103/98 108/108/103 142/142/136 
f 43/43/42 42/42/41 80/80/77 
f 75/75/72 76/76/73 123/123/117 
f 52/52/51 51/51/50 49/49/48 
# 225 faces

