# 3ds Max Wavefront OBJ Exporter v0.97b - (c)2007 guruware
# File Created: 09.11.2015 11:38:31

mtllib E232_226A_R.mtl

#
# object E232_226A_R_DaS_E232_226A_R
#

v  -26.0511 -37.6714 100.4840
v  -27.2444 -37.6664 100.4604
v  -22.1903 -39.4985 100.2368
v  -40.6380 -37.6101 100.1954
v  -40.6380 -39.2441 99.8995
v  97.9923 -47.7916 96.0814
v  100.3401 -47.7916 96.0558
v  100.8565 -44.3955 98.4380
v  110.9850 -47.7916 95.9733
v  110.9212 -44.4400 98.3732
v  108.2072 -44.4342 98.3699
v  110.8859 -41.1867 100.2353
v  108.1871 -41.1751 100.2321
v  97.9832 -44.3803 98.4645
v  101.3645 -41.1063 100.2845
v  110.9172 -37.6626 101.0542
v  108.2047 -37.6512 101.0504
v  -22.1903 -47.7916 96.3110
v  -3.9558 -47.7916 96.4833
v  -22.1903 -43.5792 98.5300
v  -3.9558 -43.7015 98.7269
v  41.5000 -47.7916 96.6878
v  41.5000 -44.0064 98.9696
v  25.6677 -47.7916 96.6501
v  25.6677 -43.9002 98.9220
v  25.6677 -40.1419 100.6607
v  41.5000 -40.3519 100.7179
v  -3.9558 -39.7453 100.4464
v  41.5000 -37.9522 101.1995
v  25.6677 -37.8867 101.0966
v  112.9891 -41.2192 100.2443
v  113.0261 -37.6714 101.0659
v  114.7944 -41.2620 100.2561
v  114.8332 -37.6790 101.0818
v  97.9781 -41.0721 100.3106
v  101.7901 -38.2014 100.9518
v  55.1754 -40.5293 100.6443
v  55.1754 -38.0084 101.1765
v  102.4729 -37.6272 101.0810
v  97.9816 -38.1856 100.9726
v  85.1460 -40.9122 100.4334
v  85.1460 -38.1322 101.0629
v  9.6549 -39.9294 100.6029
v  9.6549 -37.8205 100.9924
v  -3.9558 -37.7637 100.8078
v  -40.6380 -43.4555 98.2269
v  -40.6380 -47.7916 96.0774
v  55.1754 -47.7916 96.5710
v  55.1754 -44.0981 98.8748
v  85.1460 -47.7916 96.2557
v  85.1460 -44.2968 98.6127
v  113.0291 -44.4562 98.3822
v  113.1017 -47.7916 95.9823
v  114.9060 -47.7916 95.9942
v  114.8338 -44.4776 98.3941
v  -22.1903 -37.6876 100.5603
v  -96.0149 -43.0474 97.0415
v  -95.1656 -38.8358 98.5006
v  -106.4392 -38.8154 97.7771
v  -106.5672 -36.9937 98.2573
v  -103.0383 -37.3443 98.3381
v  -54.0354 -39.0594 99.6545
v  -54.0354 -37.5537 99.9304
v  -67.9471 -38.9121 99.3181
v  -67.9471 -37.4946 99.5875
v  -94.0314 -37.3827 98.8603
v  -80.2405 -38.7819 99.0209
v  -80.0281 -37.4433 99.2898
v  -80.4546 -47.7792 95.5172
v  -67.9471 -47.7850 95.7021
v  -80.4528 -43.1793 97.4590
v  -67.9471 -43.2675 97.7183
v  -106.1635 -47.6921 95.0552
v  -96.0220 -47.7418 95.2542
v  108.2438 -47.7916 95.9701
v  -106.1493 -42.9429 96.6891
v  -54.0354 -47.7916 95.9078
v  -54.0354 -43.3656 98.0067
v  9.6549 -47.7916 96.6120
v  9.6549 -43.7928 98.8738
v  73.3451 -38.0831 101.1460
v  73.3451 -40.7652 100.5464
v  73.3451 -44.2200 98.7488
v  73.3451 -47.7916 96.4158
# 84 vertices

vn -0.0202 -0.1759 0.9842
vn -0.0203 -0.1769 0.9840
vn -0.0181 -0.2544 0.9669
vn -0.0203 -0.1789 0.9837
vn -0.0206 -0.2727 0.9619
vn 0.0082 -0.5735 0.8192
vn 0.0074 -0.5771 0.8166
vn 0.0051 -0.5337 0.8457
vn -0.0036 -0.5825 0.8128
vn -0.0050 -0.5402 0.8415
vn 0.0015 -0.5448 0.8386
vn -0.0054 -0.3655 0.9308
vn 0.0019 -0.3636 0.9315
vn 0.0060 -0.5288 0.8487
vn 0.0040 -0.3605 0.9328
vn -0.0039 -0.1714 0.9852
vn 0.0022 -0.1718 0.9851
vn -0.0125 -0.4587 0.8885
vn -0.0098 -0.4760 0.8794
vn -0.0142 -0.4310 0.9023
vn -0.0125 -0.4438 0.8961
vn 0.0026 -0.5206 0.8538
vn -0.0014 -0.4745 0.8803
vn -0.0034 -0.5082 0.8612
vn -0.0057 -0.4624 0.8866
vn -0.0071 -0.3062 0.9519
vn -0.0030 -0.3161 0.9487
vn -0.0144 -0.2890 0.9572
vn -0.0042 -0.1944 0.9809
vn -0.0068 -0.1870 0.9823
vn -0.0122 -0.3661 0.9305
vn -0.0081 -0.1719 0.9851
vn -0.0127 -0.3665 0.9303
vn -0.0095 -0.1721 0.9850
vn 0.0046 -0.3568 0.9342
vn 0.0046 -0.2242 0.9745
vn 0.0012 -0.3276 0.9448
vn 0.0014 -0.2033 0.9791
vn 0.0050 -0.1823 0.9832
vn 0.0056 -0.2227 0.9749
vn 0.0053 -0.3488 0.9372
vn 0.0062 -0.2199 0.9755
vn -0.0108 -0.2967 0.9549
vn -0.0117 -0.1809 0.9834
vn -0.0140 -0.1782 0.9839
vn -0.0174 -0.4134 0.9104
vn -0.0135 -0.4389 0.8984
vn 0.0056 -0.5351 0.8447
vn 0.0029 -0.4879 0.8729
vn 0.0094 -0.5636 0.8260
vn 0.0066 -0.5172 0.8559
vn -0.0096 -0.5423 0.8401
vn -0.0044 -0.5841 0.8117
vn -0.0088 -0.5854 0.8107
vn -0.0119 -0.5446 0.8386
vn -0.0171 -0.1759 0.9843
vn -0.0323 -0.3319 0.9428
vn -0.0494 -0.2555 0.9655
vn -0.0521 -0.2642 0.9631
vn -0.0424 -0.1870 0.9814
vn -0.0587 -0.2212 0.9735
vn -0.0229 -0.2674 0.9633
vn -0.0236 -0.1824 0.9829
vn -0.0258 -0.2400 0.9704
vn -0.0250 -0.1867 0.9821
vn -0.0406 -0.2017 0.9786
vn -0.0284 -0.2769 0.9605
vn -0.0272 -0.1906 0.9813
vn -0.0195 -0.3778 0.9257
vn -0.0164 -0.4013 0.9158
vn -0.0227 -0.3706 0.9285
vn -0.0220 -0.3751 0.9267
vn -0.0282 -0.3404 0.9399
vn -0.0184 -0.3557 0.9344
vn 0.0039 -0.5815 0.8136
vn -0.0362 -0.2912 0.9560
vn -0.0156 -0.4215 0.9067
vn -0.0188 -0.3977 0.9173
vn -0.0072 -0.4925 0.8703
vn -0.0091 -0.4447 0.8956
vn 0.0031 -0.2143 0.9768
vn 0.0033 -0.3401 0.9404
vn 0.0047 -0.5038 0.8638
vn 0.0082 -0.5510 0.8345
# 84 vertex normals

vt 0.4154 0.0373 0.0000
vt 0.4132 0.0373 0.0000
vt 0.4226 0.0339 0.0000
vt 0.3881 0.0374 0.0000
vt 0.3881 0.0344 0.0000
vt 0.6473 0.0184 0.0000
vt 0.6517 0.0184 0.0000
vt 0.6527 0.0247 0.0000
vt 0.6716 0.0184 0.0000
vt 0.6715 0.0247 0.0000
vt 0.6664 0.0247 0.0000
vt 0.6714 0.0307 0.0000
vt 0.6664 0.0308 0.0000
vt 0.6473 0.0248 0.0000
vt 0.6536 0.0309 0.0000
vt 0.6715 0.0373 0.0000
vt 0.6664 0.0374 0.0000
vt 0.4226 0.0184 0.0000
vt 0.4567 0.0184 0.0000
vt 0.4226 0.0263 0.0000
vt 0.4567 0.0260 0.0000
vt 0.5417 0.0184 0.0000
vt 0.5417 0.0255 0.0000
vt 0.5121 0.0184 0.0000
vt 0.5121 0.0257 0.0000
vt 0.5121 0.0327 0.0000
vt 0.5417 0.0323 0.0000
vt 0.4567 0.0334 0.0000
vt 0.5417 0.0368 0.0000
vt 0.5121 0.0369 0.0000
vt 0.6753 0.0307 0.0000
vt 0.6754 0.0373 0.0000
vt 0.6787 0.0306 0.0000
vt 0.6788 0.0373 0.0000
vt 0.6473 0.0310 0.0000
vt 0.6544 0.0363 0.0000
vt 0.5672 0.0320 0.0000
vt 0.5672 0.0367 0.0000
vt 0.6557 0.0374 0.0000
vt 0.6473 0.0364 0.0000
vt 0.6233 0.0313 0.0000
vt 0.6233 0.0365 0.0000
vt 0.4821 0.0331 0.0000
vt 0.4821 0.0370 0.0000
vt 0.4567 0.0371 0.0000
vt 0.3881 0.0265 0.0000
vt 0.3881 0.0184 0.0000
vt 0.5672 0.0184 0.0000
vt 0.5672 0.0253 0.0000
vt 0.6233 0.0184 0.0000
vt 0.6233 0.0249 0.0000
vt 0.6754 0.0246 0.0000
vt 0.6756 0.0184 0.0000
vt 0.6789 0.0184 0.0000
vt 0.6788 0.0246 0.0000
vt 0.4226 0.0373 0.0000
vt 0.2846 0.0273 0.0000
vt 0.2862 0.0351 0.0000
vt 0.2651 0.0352 0.0000
vt 0.2648 0.0386 0.0000
vt 0.2714 0.0379 0.0000
vt 0.3631 0.0347 0.0000
vt 0.3631 0.0375 0.0000
vt 0.3371 0.0350 0.0000
vt 0.3371 0.0376 0.0000
vt 0.2883 0.0379 0.0000
vt 0.3141 0.0352 0.0000
vt 0.3145 0.0377 0.0000
vt 0.3137 0.0184 0.0000
vt 0.3371 0.0184 0.0000
vt 0.3137 0.0270 0.0000
vt 0.3371 0.0269 0.0000
vt 0.2656 0.0186 0.0000
vt 0.2846 0.0185 0.0000
vt 0.6665 0.0184 0.0000
vt 0.2656 0.0275 0.0000
vt 0.3631 0.0184 0.0000
vt 0.3631 0.0267 0.0000
vt 0.4821 0.0184 0.0000
vt 0.4821 0.0259 0.0000
vt 0.6012 0.0365 0.0000
vt 0.6012 0.0315 0.0000
vt 0.6012 0.0251 0.0000
vt 0.6012 0.0184 0.0000
# 84 texture coords

g E232_226A_R_DaS_E232_226A_R
usemtl paint_whiteSG
s 1
f 1/1/1 2/2/2 3/3/3 
f 4/4/4 5/5/5 2/2/2 
f 2/2/2 5/5/5 3/3/3 
f 6/6/6 7/7/7 8/8/8 
f 9/9/9 10/10/10 11/11/11 
f 12/12/12 13/13/13 11/11/11 
f 14/14/14 8/8/8 15/15/15 
f 12/12/12 16/16/16 17/17/17 
f 18/18/18 19/19/19 20/20/20 
f 20/20/20 19/19/19 21/21/21 
f 22/22/22 23/23/23 24/24/24 
f 24/24/24 23/23/23 25/25/25 
f 26/26/26 25/25/25 27/27/27 
f 27/27/27 25/25/25 23/23/23 
f 3/3/3 20/20/20 28/28/28 
f 28/28/28 20/20/20 21/21/21 
f 27/27/27 29/29/29 26/26/26 
f 26/26/26 29/29/29 30/30/30 
f 12/12/12 31/31/31 32/32/32 
f 33/33/33 34/34/34 32/32/32 
f 35/35/35 15/15/15 36/36/36 
f 37/37/37 38/38/38 27/27/27 
f 27/27/27 38/38/38 29/29/29 
f 13/13/13 17/17/17 39/39/39 
f 35/35/35 40/40/40 41/41/41 
f 41/41/41 40/40/40 42/42/42 
f 43/43/43 44/44/44 28/28/28 
f 28/28/28 44/44/44 45/45/45 
f 11/11/11 8/8/8 7/7/7 
f 13/13/13 15/15/15 8/8/8 
f 36/36/36 15/15/15 39/39/39 
f 20/20/20 46/46/46 18/18/18 
f 18/18/18 46/46/46 47/47/47 
f 5/5/5 46/46/46 3/3/3 
f 3/3/3 46/46/46 20/20/20 
f 48/48/48 49/49/49 22/22/22 
f 22/22/22 49/49/49 23/23/23 
f 6/6/6 14/14/14 50/50/50 
f 50/50/50 14/14/14 51/51/51 
f 41/41/41 51/51/51 35/35/35 
f 35/35/35 51/51/51 14/14/14 
f 27/27/27 23/23/23 37/37/37 
f 37/37/37 23/23/23 49/49/49 
f 33/33/33 31/31/31 52/52/52 
f 12/12/12 10/10/10 52/52/52 
f 9/9/9 53/53/53 52/52/52 
f 54/54/54 55/55/55 52/52/52 
f 56/56/56 1/1/1 3/3/3 
f 57/57/57 58/58/58 59/59/59 
f 60/60/60 59/59/59 61/61/61 
f 62/62/62 63/63/63 64/64/64 
f 64/64/64 63/63/63 65/65/65 
f 58/58/58 66/66/66 61/61/61 
f 67/67/67 68/68/68 66/66/66 
f 69/69/69 70/70/70 71/71/71 
f 71/71/71 70/70/70 72/72/72 
f 71/71/71 72/72/72 67/67/67 
f 67/67/67 72/72/72 64/64/64 
f 67/67/67 58/58/58 57/57/57 
f 73/73/73 74/74/74 57/57/57 
f 69/69/69 71/71/71 57/57/57 
f 14/14/14 6/6/6 8/8/8 
f 75/75/75 9/9/9 11/11/11 
f 10/10/10 12/12/12 11/11/11 
f 35/35/35 14/14/14 15/15/15 
f 13/13/13 12/12/12 17/17/17 
f 16/16/16 12/12/12 32/32/32 
f 31/31/31 33/33/33 32/32/32 
f 40/40/40 35/35/35 36/36/36 
f 15/15/15 13/13/13 39/39/39 
f 75/75/75 11/11/11 7/7/7 
f 11/11/11 13/13/13 8/8/8 
f 55/55/55 33/33/33 52/52/52 
f 31/31/31 12/12/12 52/52/52 
f 10/10/10 9/9/9 52/52/52 
f 53/53/53 54/54/54 52/52/52 
f 76/76/76 57/57/57 59/59/59 
f 59/59/59 58/58/58 61/61/61 
f 58/58/58 67/67/67 66/66/66 
f 71/71/71 67/67/67 57/57/57 
f 76/76/76 73/73/73 57/57/57 
f 74/74/74 69/69/69 57/57/57 
f 65/65/65 68/68/68 64/64/64 
f 64/64/64 68/68/68 67/67/67 
f 70/70/70 77/77/77 72/72/72 
f 72/72/72 77/77/77 78/78/78 
f 64/64/64 72/72/72 62/62/62 
f 62/62/62 72/72/72 78/78/78 
f 5/5/5 4/4/4 62/62/62 
f 62/62/62 4/4/4 63/63/63 
f 46/46/46 78/78/78 47/47/47 
f 47/47/47 78/78/78 77/77/77 
f 46/46/46 5/5/5 78/78/78 
f 78/78/78 5/5/5 62/62/62 
f 19/19/19 79/79/79 21/21/21 
f 21/21/21 79/79/79 80/80/80 
f 28/28/28 21/21/21 43/43/43 
f 43/43/43 21/21/21 80/80/80 
f 28/28/28 45/45/45 3/3/3 
f 3/3/3 45/45/45 56/56/56 
f 24/24/24 25/25/25 79/79/79 
f 79/79/79 25/25/25 80/80/80 
f 25/25/25 26/26/26 80/80/80 
f 80/80/80 26/26/26 43/43/43 
f 26/26/26 30/30/30 43/43/43 
f 43/43/43 30/30/30 44/44/44 
f 38/38/38 37/37/37 81/81/81 
f 81/81/81 37/37/37 82/82/82 
f 49/49/49 48/48/48 83/83/83 
f 83/83/83 48/48/48 84/84/84 
f 37/37/37 49/49/49 82/82/82 
f 82/82/82 49/49/49 83/83/83 
f 41/41/41 42/42/42 82/82/82 
f 82/82/82 42/42/42 81/81/81 
f 50/50/50 51/51/51 84/84/84 
f 84/84/84 51/51/51 83/83/83 
f 51/51/51 41/41/41 83/83/83 
f 83/83/83 41/41/41 82/82/82 
# 118 faces

#
# object E232_226A_R_DaS_E232_226A_R_E
#

v  -27.2248 -37.5331 100.0648
v  -27.2444 -37.6664 101.0426
v  -26.0511 -37.6714 101.0662
v  97.9762 -38.0461 100.5778
v  97.9816 -38.1856 101.5548
v  101.7901 -38.2014 101.5340
v  73.3416 -37.9505 100.7501
v  73.3451 -38.0831 101.7281
v  85.1460 -38.0631 101.1357
v  85.1460 -38.1322 101.6451
v  -93.9883 -37.2096 98.4716
v  -94.0314 -37.3827 99.4425
v  -80.0281 -37.4433 99.8720
v  -102.9855 -37.1648 97.9512
v  -103.0383 -37.3443 98.9202
v  41.5029 -37.8266 100.8028
v  41.5000 -37.9522 101.7817
v  55.1754 -37.8798 100.7802
v  55.1754 -38.0084 101.7587
v  9.6652 -37.6965 100.5955
v  9.6549 -37.8205 101.5746
v  25.6677 -37.7618 100.6997
v  25.6677 -37.8867 101.6788
v  -22.1736 -37.5610 100.1639
v  -22.1903 -37.6876 101.1425
v  -3.9558 -37.6385 100.4109
v  -3.9558 -37.7637 101.3900
v  -80.0011 -37.2829 98.8986
v  -67.9471 -37.3415 99.1944
v  -67.9471 -37.4946 100.1697
v  -54.0135 -37.4093 99.5365
v  -54.0354 -37.5537 100.5126
v  -40.6380 -37.4711 99.8002
v  -40.6380 -37.6101 100.7776
v  -26.0315 -37.5423 100.0879
v  101.8121 -38.0495 100.5586
v  85.1460 -37.9963 100.6675
v  102.4952 -37.5140 100.6814
v  102.4729 -37.6272 101.6632
# 39 vertices

vn 0.0023 0.9909 0.1343
vn 0.0015 0.9908 0.1351
vn 0.0025 0.9913 0.1318
vn 0.0046 0.9898 0.1423
vn 0.0049 0.9900 0.1412
vn -0.3386 0.9322 0.1277
vn 0.0047 0.9909 0.1343
vn 0.0049 0.9904 0.1378
vn 0.0051 0.9909 0.1343
vn -0.0032 0.9845 0.1751
vn -0.0032 0.9845 0.1756
vn 0.0005 0.9867 0.1627
vn -0.0063 0.9834 0.1813
vn -0.0063 0.9833 0.1818
vn 0.0037 0.9919 0.1273
vn 0.0037 0.9918 0.1274
vn 0.0042 0.9915 0.1302
vn 0.0042 0.9915 0.1304
vn 0.0028 0.9921 0.1257
vn 0.0033 0.9920 0.1265
vn 0.0024 0.9917 0.1283
vn 0.0023 0.9917 0.1285
vn 0.0025 0.9919 0.1268
vn 0.0005 0.9867 0.1626
vn 0.0007 0.9879 0.1553
vn 0.0007 0.9879 0.1549
vn 0.0011 0.9892 0.1466
vn 0.0011 0.9892 0.1463
vn 0.0016 0.9900 0.1409
vn 0.0016 0.9901 0.1406
vn 0.0034 0.9914 0.1307
vn -0.3305 0.9336 0.1380
vn 0.0048 0.9900 0.1413
vn -0.6370 0.7655 0.0905
vn -0.6500 0.7565 0.0724
# 35 vertex normals

vt 0.4132 0.0376 0.0000
vt 0.4132 0.0373 0.0000
vt 0.4154 0.0373 0.0000
vt 0.6473 0.0366 0.0000
vt 0.6473 0.0364 0.0000
vt 0.6544 0.0363 0.0000
vt 0.6012 0.0368 0.0000
vt 0.6012 0.0365 0.0000
vt 0.6233 0.0366 0.0000
vt 0.6233 0.0365 0.0000
vt 0.2884 0.0382 0.0000
vt 0.2883 0.0379 0.0000
vt 0.3145 0.0377 0.0000
vt 0.2715 0.0383 0.0000
vt 0.2714 0.0379 0.0000
vt 0.5417 0.0370 0.0000
vt 0.5417 0.0368 0.0000
vt 0.5672 0.0369 0.0000
vt 0.5672 0.0367 0.0000
vt 0.4822 0.0373 0.0000
vt 0.4821 0.0370 0.0000
vt 0.5121 0.0371 0.0000
vt 0.5121 0.0369 0.0000
vt 0.4226 0.0375 0.0000
vt 0.4226 0.0373 0.0000
vt 0.4567 0.0374 0.0000
vt 0.4567 0.0371 0.0000
vt 0.3145 0.0380 0.0000
vt 0.3371 0.0379 0.0000
vt 0.3371 0.0376 0.0000
vt 0.3631 0.0378 0.0000
vt 0.3631 0.0375 0.0000
vt 0.3881 0.0377 0.0000
vt 0.3881 0.0374 0.0000
vt 0.4154 0.0376 0.0000
vt 0.6544 0.0366 0.0000
vt 0.6233 0.0367 0.0000
vt 0.6557 0.0376 0.0000
vt 0.6557 0.0374 0.0000
# 39 texture coords

g E232_226A_R_DaS_E232_226A_R_E
usemtl paint_whiteSG
s 22
f 85/85/85 86/86/86 87/87/87 
f 88/88/88 89/89/89 90/90/90 
f 91/91/91 92/92/91 93/93/92 
f 93/93/92 92/92/91 94/94/93 
f 95/95/94 96/96/95 97/97/96 
f 98/98/97 99/99/98 96/96/95 
f 100/100/99 101/101/100 102/102/101 
f 102/102/101 101/101/100 103/103/102 
f 104/104/103 105/105/103 106/106/104 
f 106/106/104 105/105/103 107/107/104 
f 108/108/105 109/109/106 110/110/107 
f 110/110/107 109/109/106 111/111/107 
f 112/112/108 97/97/96 113/113/109 
f 113/113/109 97/97/96 114/114/110 
f 115/115/111 116/116/112 117/117/113 
f 117/117/113 116/116/112 118/118/114 
f 119/119/115 87/87/87 109/109/106 
f 119/119/115 85/85/85 87/87/87 
f 120/120/116 88/88/88 90/90/90 
f 121/121/117 93/93/92 88/88/88 
f 88/88/88 93/93/92 89/89/89 
f 112/112/108 95/95/94 97/97/96 
f 95/95/94 98/98/97 96/96/95 
f 108/108/105 119/119/115 109/109/106 
f 113/113/109 114/114/110 115/115/111 
f 115/115/111 114/114/110 116/116/112 
f 117/117/113 118/118/114 85/85/85 
f 85/85/85 118/118/114 86/86/86 
f 110/110/107 111/111/107 104/104/103 
f 104/104/103 111/111/107 105/105/103 
f 106/106/104 107/107/104 100/100/99 
f 100/100/99 107/107/104 101/101/100 
f 102/102/101 103/103/102 91/91/91 
f 91/91/91 103/103/102 92/92/91 
f 93/93/92 94/94/93 89/89/89 
f 93/93/92 121/121/117 91/91/91 
f 122/122/118 120/120/116 90/90/90 
f 90/90/90 123/123/119 122/122/118 
# 38 faces

