# 3ds Max Wavefront OBJ Exporter v0.97b - (c)2007 guruware
# File Created: 09.11.2015 11:38:09

mtllib E232_182C_C.mtl

#
# object E232_182C_C_2_D_E232_182C_C
#

v  107.8368 39.1204 -79.7422
v  108.9242 38.3195 -79.9215
v  106.8257 39.2349 -82.6314
v  113.7539 37.0751 -71.3008
v  119.4396 36.0103 -57.7697
v  120.5089 35.3412 -57.7099
v  114.5401 36.4037 -71.9039
v  125.2516 35.4326 -28.8059
v  126.4769 35.4034 -14.3548
v  127.4319 34.7028 -14.3861
v  126.8566 35.4098 0.0000
v  127.8101 34.7068 0.0000
v  123.0915 35.5473 -43.4446
v  126.2146 34.7424 -28.8628
v  124.0762 34.8772 -43.5175
v  107.8367 39.1204 79.7422
v  105.5580 40.0584 82.6101
v  106.8256 39.2349 82.6315
v  113.7538 37.0751 71.3009
v  114.5400 36.4037 71.9039
v  120.5089 35.3412 57.7100
v  108.9241 38.3195 79.9216
v  125.2516 35.4326 28.8060
v  126.2146 34.7424 28.8629
v  127.4319 34.7028 14.3861
v  126.4769 35.4034 14.3549
v  123.0915 35.5473 43.4446
v  124.0762 34.8772 43.5176
v  119.4396 36.0103 57.7697
v  105.5581 40.0584 -82.6101
# 30 vertices

vn 0.5596 0.8079 -0.1848
vn 0.5606 0.8048 -0.1949
vn 0.5414 0.8260 -0.1567
vn 0.5546 0.8125 -0.1795
vn 0.5314 0.8360 -0.1367
vn 0.5320 0.8373 -0.1258
vn 0.5554 0.8118 -0.1806
vn 0.5792 0.8127 -0.0634
vn 0.5905 0.8064 -0.0323
vn 0.5902 0.8066 -0.0319
vn 0.5934 0.8049 -0.0000
vn 0.5933 0.8050 -0.0000
vn 0.5558 0.8258 -0.0955
vn 0.5785 0.8133 -0.0622
vn 0.5550 0.8267 -0.0922
vn 0.5596 0.8079 0.1848
vn 0.5364 0.8297 0.1548
vn 0.5414 0.8260 0.1567
vn 0.5546 0.8125 0.1795
vn 0.5554 0.8118 0.1806
vn 0.5321 0.8373 0.1258
vn 0.5606 0.8048 0.1949
vn 0.5792 0.8127 0.0634
vn 0.5785 0.8133 0.0622
vn 0.5902 0.8066 0.0319
vn 0.5905 0.8064 0.0323
vn 0.5557 0.8259 0.0955
vn 0.5550 0.8267 0.0922
vn 0.5315 0.8360 0.1367
vn 0.5364 0.8296 -0.1548
# 30 vertex normals

g E232_182C_C_2_D_E232_182C_C
usemtl diffuse_holesSG
s 1
f 1//1 2//2 3//3 
f 4//4 5//5 6//6 
f 1//1 4//4 7//7 
f 8//8 9//9 10//10 
f 9//9 11//11 12//12 
f 13//13 8//8 14//14 
f 15//15 6//6 5//5 
f 16//16 17//17 18//18 
f 19//19 20//20 21//21 
f 16//16 22//22 20//20 
f 23//23 24//24 25//25 
f 26//26 25//25 12//12 
f 27//27 28//28 24//24 
f 28//28 27//27 29//29 
f 30//30 1//1 3//3 
f 7//7 4//4 6//6 
f 2//2 1//1 7//7 
f 14//14 8//8 10//10 
f 10//10 9//9 12//12 
f 15//15 13//13 14//14 
f 13//13 15//15 5//5 
f 22//22 16//16 18//18 
f 29//29 19//19 21//21 
f 19//19 16//16 20//20 
f 26//26 23//23 25//25 
f 11//11 26//26 12//12 
f 23//23 27//27 24//24 
f 21//21 28//28 29//29 
# 28 faces

#
# object E232_182C_C_E232_182C_C_1_D
#

v  110.3696 38.4339 -80.3012
v  113.0325 37.2906 -77.3161
v  112.7069 37.0123 -79.5518
v  130.5698 33.9175 0.0000
v  130.2075 33.9125 -14.4741
v  128.0130 35.5002 -14.4174
v  110.0261 38.4690 -82.5790
v  109.6755 38.5402 -81.9667
v  130.8336 33.7637 -29.1816
v  128.6091 34.0177 -44.0035
v  128.0477 33.4574 -43.8493
v  116.9678 35.7273 -75.5907
v  113.1281 37.0504 -80.1127
v  107.9069 39.5647 -83.9855
v  107.6404 39.6771 -83.3534
v  131.8380 33.0066 0.0000
v  131.4834 33.0034 -14.5217
v  123.4877 34.7820 -57.2839
v  121.0459 36.1585 -57.8463
v  124.6241 35.6931 -43.6096
v  128.9881 34.0010 -29.0207
v  126.7793 34.2859 -43.7120
v  109.4690 39.1244 -80.0944
v  119.0195 35.5044 -68.4719
v  130.2700 33.1136 -29.1144
v  132.4000 33.7127 0.0000
v  132.0464 33.6983 -14.5446
v  124.8671 33.9741 -57.1997
v  120.7787 34.6034 -67.6391
v  107.5100 39.8818 -84.1992
v  116.2106 36.0263 -73.8653
v  116.4895 35.5484 -75.1092
v  125.4168 34.4169 -57.4641
v  121.3002 34.9181 -68.0172
v  126.7835 35.5468 -28.9239
v  107.5249 39.9758 -82.5869
v  115.0829 37.2088 -72.0816
v  127.4319 34.7028 -14.3861
v  127.8101 34.7068 0.0000
v  128.3946 35.5019 0.0000
v  107.6465 38.6629 -84.3118
v  106.9676 39.1419 -84.5090
v  108.9242 38.3195 -79.9215
v  133.0155 33.5160 -14.5961
v  131.7952 33.5688 -29.2937
v  107.0964 39.0367 -83.3534
v  106.8257 39.2349 -82.6314
v  113.4957 36.3349 -80.6845
v  110.1393 37.5859 -83.1046
v  129.5531 33.7915 -44.1874
v  117.5593 35.1073 -76.1382
v  126.3198 34.1281 -57.7497
v  122.1153 34.5241 -68.4238
v  126.2146 34.7424 -28.8628
v  124.0762 34.8772 -43.5175
v  133.3702 33.5335 0.0000
v  120.5089 35.3412 -57.7099
v  114.5401 36.4037 -71.9039
v  110.3696 38.4339 80.3013
v  109.6755 38.5402 81.9668
v  112.7068 37.0123 79.5519
v  128.0130 35.5002 14.4174
v  110.0260 38.4690 82.5790
v  113.1280 37.0504 80.1128
v  130.8335 33.7637 29.1817
v  130.2700 33.1136 29.1145
v  128.0477 33.4574 43.8493
v  116.9678 35.7273 75.5908
v  116.4895 35.5484 75.1093
v  107.6404 39.6771 83.3535
v  130.2075 33.9125 14.4742
v  131.4834 33.0034 14.5218
v  123.4876 34.7820 57.2840
v  126.7793 34.2859 43.7121
v  124.6241 35.6931 43.6096
v  128.9881 34.0010 29.0207
v  126.7835 35.5468 28.9240
v  113.0325 37.2906 77.3162
v  109.4690 39.1244 80.0945
v  121.0459 36.1585 57.8464
v  115.0829 37.2088 72.0816
v  119.0195 35.5044 68.4720
v  132.0464 33.6983 14.5446
v  120.7786 34.6034 67.6391
v  107.5099 39.8818 84.1992
v  107.9069 39.5647 83.9856
v  116.2106 36.0263 73.8654
v  121.3001 34.9181 68.0173
v  125.4167 34.4169 57.4642
v  124.8671 33.9741 57.1997
v  107.5249 39.9758 82.5870
v  128.6091 34.0177 44.0036
v  127.4319 34.7028 14.3861
v  107.6464 38.6629 84.3119
v  108.9241 38.3195 79.9216
v  106.8256 39.2349 82.6315
v  133.0155 33.5160 14.5961
v  107.0964 39.0367 83.3535
v  113.4956 36.3349 80.6846
v  131.7952 33.5688 29.2938
v  117.5592 35.1073 76.1382
v  126.3197 34.1281 57.7498
v  126.2146 34.7424 28.8629
v  124.0762 34.8772 43.5176
v  110.1392 37.5859 83.1047
v  122.1152 34.5241 68.4239
v  129.5531 33.7915 44.1875
v  120.5089 35.3412 57.7100
v  114.5400 36.4037 71.9039
v  106.9676 39.1419 84.5091
# 110 vertices

vn 0.5607 0.8067 -0.1866
vn 0.5522 0.8107 -0.1946
vn 0.3805 0.9246 0.0153
vn 0.5845 0.8114 -0.0000
vn 0.5824 0.8124 -0.0293
vn 0.5830 0.8119 -0.0301
vn 0.3703 0.9200 0.1286
vn 0.5216 0.8486 -0.0887
vn -0.7394 0.6667 0.0944
vn -0.6780 0.7200 0.1478
vn -0.0823 0.9957 0.0432
vn -0.0940 0.9629 0.2531
vn 0.1877 0.9603 0.2062
vn 0.5172 0.8533 0.0665
vn 0.5142 0.8576 0.0121
vn -0.1374 0.9905 -0.0000
vn -0.1324 0.9912 0.0099
vn 0.5165 0.8480 -0.1187
vn 0.5074 0.8514 -0.1325
vn 0.5403 0.8372 -0.0853
vn 0.5653 0.8230 -0.0558
vn 0.5404 0.8373 -0.0827
vn 0.5730 0.7959 -0.1953
vn 0.5156 0.8404 -0.1671
vn -0.1213 0.9922 0.0294
vn -0.7796 0.6263 -0.0000
vn -0.7756 0.6297 0.0426
vn -0.0251 0.9981 0.0564
vn 0.0926 0.9950 0.0385
vn 0.5858 0.8037 0.1042
vn 0.5324 0.8241 -0.1934
vn 0.2448 0.9687 0.0401
vn -0.5451 0.8138 0.2016
vn -0.3662 0.8983 0.2426
vn 0.5713 0.8185 -0.0608
vn 0.5832 0.7873 -0.1999
vn 0.5398 0.8199 -0.1905
vn -0.8062 0.5904 0.0372
vn -0.8057 0.5923 -0.0000
vn -0.8068 0.5909 -0.0000
vn 0.4680 0.1448 -0.8718
vn 0.3574 0.1255 -0.9255
vn 0.4578 0.1325 -0.8791
vn -0.6012 0.5316 0.5966
vn -0.5990 0.5337 0.5970
vn -0.5802 0.5195 0.6273
vn 0.1887 0.9820 -0.0098
vn 0.2079 0.9780 -0.0152
vn 0.1929 0.9811 -0.0122
vn -0.6827 0.6231 -0.3817
vn -0.6480 0.6368 -0.4178
vn 0.6401 0.5938 -0.4876
vn 0.5963 0.3651 -0.7150
vn 0.6394 0.5260 -0.5608
vn 0.2497 0.9678 -0.0303
vn 0.2183 0.9757 -0.0193
vn 0.5966 0.7390 -0.3128
vn 0.6191 0.6978 -0.3603
vn 0.3207 0.9441 -0.0764
vn 0.4472 0.8777 -0.1722
vn 0.3511 0.9308 -0.1015
vn -0.8078 0.5829 0.0877
vn -0.8084 0.5862 0.0538
vn -0.8079 0.5682 0.1561
vn -0.8119 0.5741 0.1065
vn 0.1831 0.9831 -0.0055
vn 0.1835 0.9830 -0.0073
vn 0.5714 0.2570 -0.7794
vn 0.5109 0.8310 -0.2201
vn 0.2683 0.9623 -0.0456
vn -0.7847 0.5599 0.2659
vn -0.8054 0.5622 0.1881
vn -0.7085 0.5613 0.4276
vn -0.7647 0.5648 0.3102
vn -0.6648 0.5575 0.4973
vn -0.7833 0.5873 0.2038
vn -0.8258 0.5459 0.1417
vn 0.5607 0.8067 0.1866
vn 0.5216 0.8485 0.0888
vn 0.3805 0.9246 -0.0153
vn 0.5888 0.8083 -0.0000
vn 0.5830 0.8119 0.0301
vn 0.3704 0.9199 -0.1286
vn 0.1877 0.9603 -0.2062
vn -0.7393 0.6667 -0.0944
vn -0.1213 0.9922 -0.0294
vn -0.0823 0.9957 -0.0431
vn -0.0940 0.9629 -0.2531
vn 0.2448 0.9687 -0.0401
vn 0.5142 0.8576 -0.0121
vn 0.5824 0.8124 0.0293
vn -0.1324 0.9912 -0.0099
vn 0.5165 0.8480 0.1187
vn 0.5404 0.8373 0.0827
vn 0.5403 0.8372 0.0853
vn 0.5653 0.8230 0.0558
vn 0.5713 0.8185 0.0608
vn 0.5522 0.8107 0.1946
vn 0.5730 0.7959 0.1953
vn 0.5074 0.8514 0.1325
vn 0.5398 0.8199 0.1905
vn 0.5156 0.8404 0.1671
vn -0.7756 0.6298 -0.0426
vn 0.0926 0.9950 -0.0385
vn 0.5858 0.8037 -0.1042
vn 0.5173 0.8532 -0.0665
vn 0.5324 0.8241 0.1934
vn -0.3663 0.8983 -0.2426
vn -0.5451 0.8138 -0.2016
vn -0.0251 0.9981 -0.0564
vn 0.5832 0.7873 0.1999
vn -0.6780 0.7201 -0.1478
vn -0.8062 0.5904 -0.0372
vn -0.8084 0.5862 -0.0538
vn 0.4680 0.1447 0.8718
vn 0.5714 0.2570 0.7794
vn 0.4578 0.1325 0.8791
vn -0.6012 0.5316 -0.5966
vn -0.5850 0.5146 -0.6268
vn -0.5802 0.5195 -0.6273
vn 0.1887 0.9820 0.0098
vn 0.1835 0.9830 0.0073
vn 0.1929 0.9811 0.0122
vn -0.6827 0.6231 0.3817
vn -0.7155 0.6078 0.3446
vn 0.6401 0.5938 0.4876
vn 0.6191 0.6978 0.3603
vn 0.6394 0.5260 0.5608
vn 0.2079 0.9780 0.0152
vn 0.2183 0.9757 0.0193
vn 0.5966 0.7390 0.3128
vn 0.5109 0.8310 0.2201
vn 0.3207 0.9441 0.0764
vn 0.2683 0.9623 0.0456
vn 0.3511 0.9308 0.1015
vn -0.8078 0.5829 -0.0877
vn -0.8119 0.5741 -0.1065
vn -0.8079 0.5682 -0.1561
vn -0.8054 0.5622 -0.1881
vn 0.1831 0.9831 0.0055
vn 0.1816 0.9834 0.0054
vn 0.5963 0.3651 0.7149
vn 0.4472 0.8777 0.1722
vn 0.2497 0.9678 0.0303
vn -0.7847 0.5599 -0.2658
vn -0.7647 0.5648 -0.3102
vn -0.7085 0.5613 -0.4276
vn -0.6648 0.5575 -0.4973
vn -0.5989 0.5337 -0.5970
vn -0.7833 0.5873 -0.2038
vn -0.7350 0.6244 -0.2644
vn -0.5850 0.5146 0.6269
vn -0.7155 0.6078 -0.3446
vn 0.1816 0.9834 -0.0054
vn -0.7350 0.6243 0.2644
vn 0.3574 0.1255 0.9255
vn -0.6480 0.6368 0.4178
vn -0.8257 0.5460 -0.1417
# 158 vertex normals

g E232_182C_C_E232_182C_C_1_D
usemtl diffuse_black_plasticSG
s 1
f 31//31 32//32 33//33 
f 34//34 35//35 36//36 
f 37//37 38//38 33//33 
f 39//39 40//40 41//41 
f 42//42 43//43 33//33 
f 37//37 44//44 45//45 
f 34//34 46//46 47//47 
f 48//48 49//49 50//50 
f 51//51 52//52 50//50 
f 32//32 31//31 53//53 
f 49//49 48//48 54//54 
f 51//51 35//35 47//47 
f 39//39 55//55 47//47 
f 56//56 57//57 47//47 
f 48//48 58//58 59//59 
f 60//60 45//45 44//44 
f 61//61 54//54 59//59 
f 42//42 62//62 59//59 
f 63//63 64//64 59//59 
f 61//61 62//62 33//33 
f 51//51 65//65 36//36 
f 38//38 45//45 66//66 
f 53//53 31//31 38//38 
f 32//32 53//53 67//67 
f 67//67 54//54 61//61 
f 51//51 55//55 41//41 
f 48//48 52//52 41//41 
f 63//63 58//58 41//41 
s 11
f 68//68 69//69 70//70 
s 12
f 71//71 72//72 60//73 
s 11
f 73//74 53//75 66//76 
s 12
f 74//77 75//78 39//79 
s 15
f 76//80 77//81 66//80 
s 12
f 78//82 79//83 37//84 
f 75//78 80//85 40//86 
f 81//87 78//82 43//88 
f 82//89 83//90 64//91 
s 11
f 84//92 68//68 36//93 
f 85//94 84//92 65//95 
s 12
f 86//96 74//77 57//97 
f 79//83 71//71 44//98 
f 83//90 81//87 42//99 
f 80//85 82//89 63//100 
s 11
f 87//101 85//94 50//102 
f 88//103 87//101 49//104 
f 73//74 88//103 67//105 
s 19
f 60//106 72//107 76//106 
s 1
f 89//108 90//109 91//110 
f 34//34 70//111 92//112 
f 93//113 94//114 91//110 
f 95//115 96//116 97//117 
f 98//118 99//119 91//110 
f 93//113 90//109 100//120 
f 34//34 101//121 102//122 
f 103//123 104//124 105//125 
f 106//126 107//127 105//125 
f 89//108 108//128 109//129 
f 110//130 111//131 112//132 
f 106//126 96//116 102//122 
f 95//115 113//133 102//122 
f 56//56 46//46 102//122 
f 103//123 112//132 114//134 
f 100//120 115//135 116//136 
f 117//137 99//119 114//134 
f 98//118 118//138 114//134 
f 119//139 120//140 114//134 
f 117//137 108//128 91//110 
f 106//126 101//121 92//112 
f 90//109 109//129 121//141 
f 89//108 109//129 90//109 
f 108//128 117//137 111//131 
f 112//132 111//131 117//137 
f 106//126 104//124 97//117 
f 103//123 120//140 97//117 
f 119//139 122//142 97//117 
s 11
f 123//143 92//144 70//70 
s 32
f 124//145 116//146 115//147 
s 11
f 125//148 126//149 121//150 
s 32
f 127//151 113//152 95//153 
s 35
f 128//154 100//155 121//154 
s 32
f 129//156 94//157 93//158 
f 130//159 95//153 122//160 
f 131//161 98//162 94//157 
f 132//163 119//164 118//165 
s 11
f 133//166 107//167 92//144 
f 134//168 105//169 107//167 
s 32
f 86//170 56//171 113//152 
f 135//172 93//158 116//146 
f 136//173 118//165 98//162 
f 137//174 122//160 119//164 
s 11
f 138//175 110//176 105//169 
f 139//177 111//178 110//176 
f 125//148 109//179 111//178 
s 43
f 115//180 100//181 128//180 
s 1
f 38//38 31//31 33//33 
f 70//111 34//34 36//36 
f 43//43 37//37 33//33 
f 55//55 39//39 41//41 
f 62//62 42//42 33//33 
f 38//38 37//37 45//45 
f 35//35 34//34 47//47 
f 52//52 48//48 50//50 
f 65//65 51//51 50//50 
f 67//67 49//49 54//54 
f 55//55 51//51 47//47 
f 57//57 39//39 47//47 
f 46//46 56//56 47//47 
f 54//54 48//48 59//59 
f 62//62 61//61 59//59 
f 64//64 42//42 59//59 
f 58//58 63//63 59//59 
f 32//32 61//61 33//33 
f 35//35 51//51 36//36 
f 53//53 38//38 66//66 
f 61//61 32//32 67//67 
f 52//52 51//51 41//41 
f 58//58 48//48 41//41 
f 40//40 63//63 41//41 
s 11
f 36//93 68//68 70//70 
s 12
f 44//98 71//71 60//73 
s 11
f 77//182 73//74 66//76 
s 12
f 57//97 74//77 39//79 
s 15
f 45//183 76//80 66//80 
s 12
f 43//88 78//82 37//84 
f 39//79 75//78 40//86 
f 42//99 81//87 43//88 
f 63//100 82//89 64//91 
s 11
f 65//95 84//92 36//93 
f 50//102 85//94 65//95 
s 12
f 56//184 86//96 57//97 
f 37//84 79//83 44//98 
f 64//91 83//90 42//99 
f 40//86 80//85 63//100 
s 11
f 49//104 87//101 50//102 
f 67//105 88//103 49//104 
f 53//75 73//74 67//105 
s 19
f 45//185 60//106 76//106 
s 1
f 108//128 89//108 91//110 
f 101//121 34//34 92//112 
f 90//109 93//113 91//110 
f 122//142 95//115 97//117 
f 94//114 98//118 91//110 
f 116//136 93//113 100//120 
f 46//46 34//34 102//122 
f 110//130 103//123 105//125 
f 104//124 106//126 105//125 
f 103//123 110//130 112//132 
f 101//121 106//126 102//122 
f 96//116 95//115 102//122 
f 113//133 56//56 102//122 
f 120//140 103//123 114//134 
f 112//132 117//137 114//134 
f 99//119 98//118 114//134 
f 118//138 119//139 114//134 
f 99//119 117//137 91//110 
f 107//127 106//126 92//112 
f 100//120 90//109 121//141 
f 109//129 108//128 111//131 
f 96//116 106//126 97//117 
f 104//124 103//123 97//117 
f 120//140 119//139 97//117 
s 11
f 69//69 123//143 70//70 
s 32
f 140//186 124//145 115//147 
s 11
f 109//179 125//148 121//150 
s 32
f 130//159 127//151 95//153 
s 35
f 126//187 128//154 121//154 
s 32
f 135//172 129//156 93//158 
f 137//174 130//159 122//160 
f 129//156 131//161 94//157 
f 136//173 132//163 118//165 
s 11
f 123//143 133//166 92//144 
f 133//166 134//168 107//167 
s 32
f 127//151 86//170 113//152 
f 124//145 135//172 116//146 
f 131//161 136//173 98//162 
f 132//163 137//174 119//164 
s 11
f 134//168 138//175 105//169 
f 138//175 139//177 110//176 
f 139//177 125//148 111//178 
s 43
f 140//188 115//180 128//180 
# 180 faces

