# 3ds Max Wavefront OBJ Exporter v0.97b - (c)2007 guruware
# File Created: 09.11.2015 11:43:16

mtllib E232_FLOR_C.mtl

#
# object E232_FLOR_C_N_E232_FLOR_C
#

v  262.2505 -44.9757 -37.1234
v  263.7681 -44.9757 -24.6540
v  201.2839 -44.9321 0.0001
v  201.2839 -44.9321 -70.9607
v  260.2192 -44.9757 -48.4016
v  258.0040 -44.9757 -57.1838
v  255.9300 -44.9757 -63.5179
v  201.2840 -44.9321 -95.0168
v  203.0900 -44.9321 -95.0410
v  252.7989 -44.9757 -70.3436
v  254.3214 -44.9757 -67.4522
v  205.8272 -44.9376 -94.9929
v  210.4270 -44.9539 -94.8005
v  221.6961 -44.9757 -93.6739
v  227.2545 -44.9757 -92.4080
v  -262.4273 -38.6098 -12.4136
v  -262.2823 -38.6208 -24.7708
v  -196.1981 -44.5888 -0.0001
v  100.3402 -47.7916 -96.6380
v  108.2439 -47.7916 -96.5523
v  114.9061 -47.7916 -70.9607
v  110.9851 -47.7916 -96.5554
v  113.1017 -47.7916 -96.5644
v  216.0099 -44.9703 -94.3866
v  240.4723 -44.9757 -85.5367
v  243.4153 -44.9757 -83.0087
v  -262.4414 -38.6088 -0.0001
v  236.9681 -44.9757 -87.8960
v  97.9924 -47.7916 -96.6635
v  232.4538 -44.9757 -90.3343
v  -203.2168 -43.9890 -92.5766
v  -196.1981 -44.5888 -92.3810
v  -196.1981 -44.5888 -70.9608
v  9.6549 -47.7916 -97.1942
v  41.5001 -47.7916 -97.2700
v  114.9060 -47.7916 0.0000
v  -106.1635 -47.6920 -70.9608
v  -106.1635 -47.6921 -0.0000
v  -261.9034 -38.6501 -37.0149
v  -237.8991 -40.8336 -86.3416
v  -228.5733 -41.7222 -88.9114
v  -96.0219 -47.7418 -95.8365
v  -80.4546 -47.7792 -96.0995
v  -259.7358 -38.8043 -59.4568
v  -261.2950 -38.6954 -47.6065
v  -260.4615 -38.7541 -55.0058
v  -219.3730 -42.5667 -90.9697
v  -210.7652 -43.3335 -92.2726
v  -252.3212 -39.5818 -77.3981
v  -246.1989 -40.0655 -82.6929
v  -259.4511 -38.8240 -61.2032
v  -256.4096 -39.2808 -71.8414
v  73.3451 -47.7916 -96.9979
v  -259.4967 -38.8288 -61.6343
v  -259.5826 -38.9204 -64.3960
v  -258.6080 -39.0604 -67.4072
v  -259.7621 -38.8345 -62.1395
v  -259.9994 -38.8605 -63.1080
v  250.9833 -44.9757 -73.5493
v  248.8177 -44.9757 -76.8595
v  -260.0090 -38.8441 -62.6527
v  -106.1635 -47.6920 -95.6374
v  246.2461 -44.9757 -80.0645
v  114.9061 -47.7916 -96.5763
v  264.4414 -44.9757 -12.2985
v  264.8008 -44.9474 0.0001
v  -54.0353 -47.7916 -96.4901
v  -22.1902 -47.7916 -96.8932
v  262.2505 -44.9757 37.1235
v  201.2839 -44.9321 70.9608
v  260.2192 -44.9757 48.4018
v  258.0040 -44.9757 57.1839
v  255.9300 -44.9757 63.5181
v  201.2839 -44.9321 95.0169
v  203.0900 -44.9321 95.0411
v  252.7989 -44.9757 70.3438
v  254.3214 -44.9757 67.4523
v  205.8271 -44.9376 94.9931
v  210.4269 -44.9539 94.8007
v  221.6961 -44.9757 93.6741
v  216.0097 -44.9703 94.3867
v  -262.2823 -38.6208 24.7707
v  -262.4273 -38.6098 12.4135
v  108.2438 -47.7916 96.5523
v  100.3401 -47.7916 96.6380
v  114.9060 -47.7916 70.9608
v  113.1017 -47.7916 96.5645
v  110.9850 -47.7916 96.5555
v  240.4723 -44.9757 85.5369
v  243.4152 -44.9757 83.0089
v  236.9681 -44.9757 87.8962
v  97.9923 -47.7916 96.6636
v  232.4537 -44.9757 90.3344
v  227.2545 -44.9757 92.4082
v  -203.2168 -43.9890 92.5764
v  -210.7653 -43.3335 92.2725
v  -196.1981 -44.5888 70.9607
v  41.5000 -47.7916 97.2700
v  9.6549 -47.7916 97.1942
v  -261.9035 -38.6501 37.0148
v  -228.5733 -41.7222 88.9113
v  -237.8992 -40.8336 86.3415
v  -96.0220 -47.7418 95.8364
v  -106.1635 -47.6920 70.9607
v  -80.4546 -47.7792 96.0994
v  -259.7358 -38.8043 59.4566
v  -260.4615 -38.7541 55.0057
v  -261.2950 -38.6954 47.6064
v  -219.3730 -42.5667 90.9696
v  -246.1990 -40.0655 82.6927
v  -252.3212 -39.5818 77.3979
v  -259.4512 -38.8240 61.2030
v  -256.4096 -39.2808 71.8413
v  -258.6080 -39.0604 67.4071
v  73.3451 -47.7916 96.9980
v  -259.4968 -38.8288 61.6342
v  -259.7621 -38.8345 62.1393
v  -259.5826 -38.9204 64.3958
v  250.9833 -44.9757 73.5495
v  248.8177 -44.9757 76.8596
v  -260.0091 -38.8441 62.6526
v  -259.9995 -38.8605 63.1078
v  -106.1635 -47.6920 95.6374
v  -22.1903 -47.7916 96.8932
v  246.2461 -44.9757 80.0647
v  114.9060 -47.7916 96.5764
v  264.4414 -44.9757 12.2986
v  263.7681 -44.9757 24.6541
v  -54.0354 -47.7916 96.4900
v  -196.1981 -44.5888 92.3809
# 130 vertices

vn -0.0007 -1.0000 0.0001
vn 0.0106 -0.9999 -0.0000
vn 0.0006 -1.0000 0.0005
vn -0.0008 -1.0000 0.0002
vn -0.0008 -1.0000 0.0003
vn 0.0000 -1.0000 -0.0000
vn -0.0010 -1.0000 -0.0001
vn -0.0009 -1.0000 0.0005
vn -0.0008 -1.0000 0.0004
vn -0.0028 -1.0000 -0.0003
vn -0.0032 -1.0000 -0.0003
vn -0.0007 -1.0000 0.0013
vn -0.0005 -1.0000 0.0015
vn -0.0899 -0.9960 -0.0001
vn -0.0898 -0.9960 -0.0003
vn -0.0788 -0.9969 -0.0000
vn 0.0074 -1.0000 -0.0000
vn -0.0000 -1.0000 -0.0000
vn -0.0020 -1.0000 0.0004
vn -0.0007 -1.0000 0.0010
vn -0.0008 -1.0000 0.0008
vn -0.0899 -0.9959 -0.0000
vn -0.0007 -1.0000 0.0011
vn -0.0006 -1.0000 0.0013
vn -0.0858 -0.9963 0.0002
vn -0.0851 -0.9964 -0.0000
vn -0.0805 -0.9968 0.0008
vn -0.0001 -1.0000 0.0005
vn 0.0065 -1.0000 -0.0000
vn -0.0088 -1.0000 0.0008
vn -0.0119 -0.9999 -0.0000
vn -0.0901 -0.9959 -0.0004
vn -0.0933 -0.9956 -0.0030
vn -0.0916 -0.9958 0.0061
vn -0.0036 -1.0000 0.0005
vn -0.0014 -1.0000 0.0020
vn -0.0934 -0.9956 -0.0022
vn -0.0907 -0.9959 -0.0016
vn -0.0912 -0.9958 -0.0030
vn -0.0895 -0.9960 0.0030
vn -0.0875 -0.9962 0.0011
vn -0.0701 -0.9975 0.0053
vn -0.1059 -0.9939 -0.0317
vn -0.0691 -0.9974 0.0199
vn -0.0286 -0.9990 0.0347
vn -0.0641 -0.9975 0.0306
vn -0.0388 -0.9986 0.0347
vn -0.0601 -0.9977 0.0303
vn -0.0377 -0.9987 0.0350
vn -0.0344 -0.9988 0.0352
vn -0.0008 -1.0000 0.0006
vn -0.0341 -0.9988 0.0351
vn -0.0049 -1.0000 -0.0000
vn -0.0008 -1.0000 0.0007
vn -0.0005 -1.0000 0.0012
vn -0.0002 -1.0000 -0.0000
vn -0.0008 -1.0000 0.0014
vn 0.0000 -1.0000 0.0010
vn -0.0007 -1.0000 -0.0001
vn 0.0006 -1.0000 -0.0005
vn -0.0008 -1.0000 -0.0002
vn -0.0008 -1.0000 -0.0003
vn -0.0010 -1.0000 0.0001
vn -0.0009 -1.0000 -0.0005
vn -0.0008 -1.0000 -0.0004
vn -0.0028 -1.0000 0.0003
vn -0.0032 -1.0000 0.0003
vn -0.0007 -1.0000 -0.0013
vn -0.0020 -1.0000 -0.0004
vn -0.0898 -0.9960 0.0003
vn -0.0899 -0.9960 0.0001
vn 0.0000 -1.0000 0.0000
vn -0.0007 -1.0000 -0.0010
vn -0.0008 -1.0000 -0.0008
vn -0.0007 -1.0000 -0.0011
vn -0.0006 -1.0000 -0.0013
vn -0.0005 -1.0000 -0.0015
vn -0.0858 -0.9963 -0.0002
vn -0.0875 -0.9962 -0.0011
vn -0.0805 -0.9968 -0.0008
vn -0.0001 -1.0000 -0.0005
vn -0.0901 -0.9959 0.0004
vn -0.0916 -0.9958 -0.0061
vn -0.0933 -0.9956 0.0030
vn -0.0036 -1.0000 -0.0005
vn -0.0088 -1.0000 -0.0008
vn -0.0014 -1.0000 -0.0020
vn -0.0934 -0.9956 0.0022
vn -0.0912 -0.9958 0.0030
vn -0.0907 -0.9959 0.0016
vn -0.0895 -0.9960 -0.0030
vn -0.1059 -0.9939 0.0317
vn -0.0701 -0.9975 -0.0053
vn -0.0691 -0.9974 -0.0199
vn -0.0286 -0.9990 -0.0347
vn -0.0601 -0.9977 -0.0303
vn -0.0641 -0.9975 -0.0306
vn -0.0377 -0.9987 -0.0350
vn -0.0388 -0.9986 -0.0347
vn -0.0008 -1.0000 -0.0006
vn -0.0342 -0.9988 -0.0351
vn -0.0344 -0.9988 -0.0352
vn 0.0000 -1.0000 -0.0010
vn -0.0008 -1.0000 -0.0007
vn -0.0005 -1.0000 -0.0012
vn -0.0008 -1.0000 -0.0014
# 106 vertex normals

g E232_FLOR_C_N_E232_FLOR_C
usemtl diffuse_black_plasticSG
s 1
f 1//1 2//1 3//2 
f 4//3 5//4 1//1 
f 4//3 6//4 5//4 
f 4//3 7//5 6//4 
f 4//3 8//6 9//7 
f 4//3 10//8 11//9 
f 4//3 12//10 13//11 
f 4//3 9//7 12//10 
f 14//12 15//13 4//3 
f 16//14 17//15 18//16 
f 19//6 20//6 21//17 
f 22//6 23//18 21//17 
f 4//3 13//11 24//19 
f 4//3 25//20 26//21 
f 27//22 16//14 18//16 
f 21//17 4//3 3//2 
f 4//3 28//23 25//20 
f 29//6 19//6 21//17 
f 30//24 28//23 4//3 
f 31//25 32//26 33//27 
f 34//28 35//6 36//29 
f 33//27 37//30 38//31 
f 39//32 33//27 18//16 
f 40//33 41//34 33//27 
f 37//30 42//35 43//36 
f 44//37 40//33 33//27 
f 45//38 46//39 33//27 
f 47//40 48//41 33//27 
f 49//42 50//43 40//33 
f 51//44 49//42 40//33 
f 52//45 49//42 51//44 
f 39//32 45//38 33//27 
f 53//18 21//17 36//29 
f 54//46 55//47 56//48 
f 57//49 58//50 55//47 
f 4//3 59//8 10//8 
f 4//3 60//51 59//8 
f 57//49 61//52 58//50 
f 37//30 62//53 42//35 
f 34//28 36//29 38//31 
f 4//3 63//54 60//51 
f 4//3 26//21 63//54 
f 23//18 64//18 21//17 
f 3//2 65//55 66//56 
f 53//18 29//6 21//17 
f 3//2 2//1 65//55 
f 67//57 68//58 38//31 
f 37//30 43//36 67//57 
f 20//6 22//6 21//17 
f 4//3 11//9 7//5 
f 69//59 70//60 3//2 
f 71//61 70//60 69//59 
f 72//61 70//60 71//61 
f 73//62 70//60 72//61 
f 74//6 70//60 75//63 
f 76//64 70//60 77//65 
f 78//66 70//60 79//67 
f 75//63 70//60 78//66 
f 80//68 81//69 70//60 
f 82//70 83//71 18//16 
f 84//6 85//72 86//17 
f 87//6 88//6 86//17 
f 79//67 70//60 81//69 
f 89//73 70//60 90//74 
f 83//71 27//22 18//16 
f 86//17 36//29 3//2 
f 91//75 70//60 89//73 
f 85//72 92//6 86//17 
f 93//76 94//77 70//60 
f 95//78 96//79 97//80 
f 98//6 99//81 36//29 
f 97//80 18//16 38//31 
f 100//82 82//70 18//16 
f 101//83 102//84 97//80 
f 103//85 104//86 105//87 
f 106//88 107//89 97//80 
f 107//89 108//90 97//80 
f 109//91 101//83 97//80 
f 110//92 111//93 102//84 
f 112//94 106//88 102//84 
f 113//95 114//96 112//94 
f 108//90 100//82 97//80 
f 115//18 98//6 36//29 
f 116//97 112//94 114//96 
f 117//98 116//97 118//99 
f 119//64 70//60 76//64 
f 120//100 70//60 119//64 
f 121//101 117//98 122//102 
f 123//53 104//86 103//85 
f 99//81 124//103 38//31 
f 125//104 70//60 120//100 
f 90//74 70//60 125//104 
f 126//6 87//6 86//17 
f 127//105 3//2 66//56 
f 92//6 115//18 86//17 
f 128//59 3//2 127//105 
f 129//106 104//86 38//31 
f 105//87 104//86 129//106 
f 88//6 84//6 86//17 
f 77//65 70//60 73//62 
f 4//3 1//1 3//2 
f 24//19 14//12 4//3 
f 36//29 21//17 3//2 
f 15//13 30//24 4//3 
f 48//41 31//25 33//27 
f 18//16 33//27 38//31 
f 17//15 39//32 18//16 
f 46//39 44//37 33//27 
f 41//34 47//40 33//27 
f 44//37 51//44 40//33 
f 56//48 52//45 51//44 
f 35//6 53//18 36//29 
f 51//44 54//46 56//48 
f 54//46 57//49 55//47 
f 68//58 34//28 38//31 
f 37//30 67//57 38//31 
f 128//59 69//59 3//2 
f 94//77 80//68 70//60 
f 70//60 86//17 3//2 
f 91//75 93//76 70//60 
f 130//26 95//78 97//80 
f 104//86 97//80 38//31 
f 97//80 100//82 18//16 
f 102//84 106//88 97//80 
f 96//79 109//91 97//80 
f 111//93 112//94 102//84 
f 111//93 113//95 112//94 
f 86//17 115//18 36//29 
f 118//99 116//97 114//96 
f 122//102 117//98 118//99 
f 36//29 99//81 38//31 
f 124//103 129//106 38//31 
# 132 faces

