# 3ds Max Wavefront OBJ Exporter v0.97b - (c)2007 guruware
# File Created: 09.11.2015 11:37:57

mtllib E232_181C_R.mtl

#
# object E232_181C_R_2_D_E232_181C_R
#

v  98.6164 36.6266 90.5018
v  99.3875 35.8232 90.7267
v  102.2150 37.3969 89.9809
v  106.5055 39.1580 86.2438
v  105.4107 39.6719 86.1320
v  104.4195 39.3762 87.9979
v  105.4808 38.8877 88.2873
v  104.1485 39.3532 88.2693
v  104.6815 38.5945 88.8517
v  103.5454 39.1559 88.6189
v  102.2020 38.5190 89.4182
v  105.2595 38.8207 88.5060
v  103.3558 37.9198 89.6258
v  99.6109 37.1680 90.2658
v  106.9752 39.2083 84.9010
v  103.2301 41.4716 83.7408
v  103.5857 41.4239 82.5893
v  95.3708 47.3825 80.6667
v  94.9336 47.3633 81.7724
v  84.9266 54.9267 77.8012
v  54.3681 75.6044 69.5648
v  54.0501 75.4678 70.6968
v  63.8330 69.1600 73.2436
v  45.2946 81.0125 67.3368
v  44.9769 80.8728 68.4677
v  37.1905 85.2552 65.5128
v  36.8733 85.1236 66.6452
v  29.5076 88.6812 63.9796
v  84.4993 54.8567 78.9031
v  74.4391 62.3092 74.9069
v  74.0575 62.2051 76.0214
v  64.1669 69.2840 72.1149
v  22.2479 91.4276 62.7368
v  21.4629 91.4902 63.7811
v  29.2073 88.5543 65.1180
v  105.9290 39.6260 83.7893
v  106.8256 39.2349 82.6315
v  105.5580 40.0584 82.6101
v  107.0964 39.0367 83.3535
v  106.9676 39.1419 84.5091
v  105.9075 39.7229 84.7454
# 41 vertices

vn 0.0676 0.3227 0.9441
vn 0.0663 0.3275 0.9425
vn 0.0579 0.4368 0.8977
vn 0.3810 0.8899 0.2507
vn 0.3843 0.8789 0.2824
vn 0.3380 0.8871 0.3143
vn 0.3309 0.8929 0.3054
vn 0.2081 0.7353 0.6450
vn 0.1667 0.6334 0.7557
vn 0.1590 0.6379 0.7535
vn 0.0876 0.4780 0.8740
vn 0.2251 0.7397 0.6341
vn 0.1222 0.5293 0.8396
vn 0.0771 0.3154 0.9458
vn 0.4279 0.8996 0.0869
vn 0.5578 0.8175 0.1436
vn 0.5595 0.8172 0.1382
vn 0.5303 0.8186 0.2207
vn 0.5289 0.8185 0.2244
vn 0.5144 0.8201 0.2506
vn 0.4692 0.8514 0.2345
vn 0.4698 0.8510 0.2347
vn 0.4922 0.8374 0.2377
vn 0.4346 0.8709 0.2296
vn 0.4352 0.8706 0.2295
vn 0.3903 0.8956 0.2136
vn 0.3902 0.8958 0.2129
vn 0.3446 0.9185 0.1938
vn 0.5138 0.8203 0.2514
vn 0.5036 0.8271 0.2497
vn 0.5036 0.8271 0.2495
vn 0.4918 0.8376 0.2378
vn 0.3202 0.9291 0.1852
vn 0.3203 0.9291 0.1850
vn 0.3439 0.9189 0.1930
vn 0.5198 0.8510 0.0746
vn 0.5089 0.8544 0.1055
vn 0.5574 0.8207 0.1256
vn 0.4555 0.8901 0.0166
vn 0.4650 0.8819 -0.0778
vn 0.4234 0.9025 0.0797
# 41 vertex normals

vt 21763.4805 0.0000 0.0000
# 1 texture coords

g E232_181C_R_2_D_E232_181C_R
usemtl diffuse_holesSG
s 1
f 1/1/1 2/1/2 3/1/3 
f 4/1/4 5/1/5 6/1/6 
f 7/1/7 6/1/6 8/1/8 
f 9/1/9 10/1/10 11/1/11 
f 10/1/10 9/1/9 12/1/12 
f 13/1/13 11/1/11 14/1/14 
f 5/1/5 4/1/4 15/1/15 
f 16/1/16 17/1/17 18/1/18 
f 19/1/19 18/1/18 20/1/20 
f 21/1/21 22/1/22 23/1/23 
f 24/1/24 25/1/25 22/1/22 
f 25/1/25 24/1/24 26/1/26 
f 27/1/27 26/1/26 28/1/28 
f 29/1/29 20/1/20 30/1/30 
f 31/1/31 30/1/30 32/1/32 
f 33/1/33 34/1/34 35/1/35 
f 17/1/17 16/1/16 36/1/36 
f 36/1/36 37/1/37 38/1/38 
f 39/1/39 36/1/36 40/1/40 
f 37/1/37 36/1/36 39/1/39 
f 15/1/15 40/1/40 36/1/36 
f 14/1/14 1/1/1 3/1/3 
f 7/1/7 4/1/4 6/1/6 
f 12/1/12 7/1/7 8/1/8 
f 13/1/13 9/1/9 11/1/11 
f 8/1/8 10/1/10 12/1/12 
f 3/1/3 13/1/13 14/1/14 
f 41/1/41 5/1/5 15/1/15 
f 19/1/19 16/1/16 18/1/18 
f 29/1/29 19/1/19 20/1/20 
f 32/1/32 21/1/21 23/1/23 
f 21/1/21 24/1/24 22/1/22 
f 27/1/27 25/1/25 26/1/26 
f 35/1/35 27/1/27 28/1/28 
f 31/1/31 29/1/29 30/1/30 
f 23/1/23 31/1/31 32/1/32 
f 28/1/28 33/1/33 35/1/35 
f 38/1/38 17/1/17 36/1/36 
f 41/1/41 15/1/15 36/1/36 
# 39 faces

#
# object E232_181C_R_E232_181C_R_1_DaS
#

v  103.3240 40.0114 88.6942
v  104.3868 40.1263 88.2772
v  103.8157 40.4423 88.1534
v  98.2745 37.4222 90.7494
v  99.4333 40.8426 89.0953
v  95.0899 40.4719 89.6129
v  104.6933 41.5712 84.0880
v  106.4765 40.4349 83.3489
v  103.7758 42.2797 83.3128
v  63.9298 68.4074 76.9669
v  71.0053 62.0917 80.9383
v  72.8210 61.8011 79.9883
v  64.1662 69.9359 73.3011
v  74.5555 63.0217 75.6831
v  64.3174 69.9867 72.8983
v  84.8204 55.6376 78.9443
v  74.3876 62.9830 76.0576
v  82.0492 55.0279 82.6822
v  80.5032 54.9407 83.7446
v  103.6742 42.2814 83.8488
v  87.6921 46.9938 87.1626
v  90.7041 47.1784 86.7258
v  78.2917 54.8686 84.1705
v  103.9811 40.6332 87.5811
v  105.7867 40.5549 85.7911
v  104.5319 41.2896 85.6561
v  102.3127 39.0469 89.6696
v  99.6767 37.5455 90.5960
v  100.8851 41.5163 88.1387
v  104.7386 40.2347 87.7910
v  92.1959 47.5878 85.6844
v  61.7292 68.6818 78.3130
v  69.2379 62.0245 81.4157
v  52.1938 74.7616 75.8748
v  60.4319 68.5131 78.8853
v  43.0092 80.0964 73.7195
v  51.6598 74.4373 76.4421
v  34.7855 84.4517 71.9431
v  42.6350 79.6896 74.2185
v  27.1627 87.9672 70.4609
v  34.0110 84.0546 72.4455
v  19.7803 90.7827 69.1884
v  26.9737 87.3791 71.0592
v  103.7126 39.7908 88.7748
v  27.9646 88.6554 68.6905
v  35.6152 85.1217 70.1828
v  83.1445 55.2001 81.5467
v  94.3460 48.0097 83.2632
v  83.8849 55.4930 80.2728
v  29.4084 89.4037 65.1656
v  21.7453 92.4206 63.3686
v  21.6309 92.3560 63.8098
v  102.9070 42.1686 85.4792
v  43.8094 80.7548 71.9690
v  52.9647 75.3860 74.1547
v  75.7021 60.1409 80.1630
v  83.2771 54.6863 82.2983
v  102.0698 41.9496 86.9975
v  93.4154 47.8555 84.5205
v  73.6018 61.9880 78.9653
v  95.4616 48.1717 81.3972
v  85.0095 55.6665 78.5621
v  36.4464 85.6219 68.3154
v  28.7680 89.1222 66.7995
v  53.7377 75.8965 72.3345
v  63.5007 69.6499 74.8230
v  73.5765 62.7776 77.4642
v  95.2535 48.1496 81.8718
v  92.8992 47.7642 85.1385
v  45.2591 81.6664 68.5355
v  54.3669 76.2466 70.7640
v  101.5831 41.8068 87.6230
v  44.6115 81.2946 70.1238
v  37.2578 86.0086 66.2726
v  29.5457 89.4617 64.7280
v  37.1122 85.9463 66.7051
v  106.3071 40.6084 84.3375
v  98.6632 36.9081 90.8651
v  54.5129 76.3083 70.3461
v  45.4055 81.7334 68.1099
v  21.1022 92.0395 65.4663
v  20.4407 91.5250 67.3869
v  19.6092 90.2593 69.6485
# 83 vertices

vn 0.2093 0.6269 0.7505
vn 0.2657 0.7210 0.6399
vn 0.3054 0.7608 0.5726
vn 0.0721 0.3702 0.9262
vn 0.1338 0.5020 0.8545
vn 0.0814 0.4319 0.8982
vn 0.5136 0.8468 0.1387
vn 0.5414 0.8407 0.0137
vn 0.5471 0.8253 0.1397
vn 0.4151 0.7926 0.4466
vn 0.3047 0.6800 0.6669
vn 0.4034 0.7622 0.5062
vn 0.4612 0.8259 0.3244
vn 0.4865 0.8211 0.2987
vn 0.4759 0.8325 0.2837
vn 0.4783 0.8076 0.3449
vn 0.4701 0.8140 0.3412
vn 0.3642 0.7267 0.5824
vn 0.2302 0.5972 0.7683
vn 0.5154 0.8241 0.2350
vn 0.1161 0.4724 0.8737
vn 0.2099 0.5844 0.7839
vn 0.1632 0.5276 0.8337
vn 0.3968 0.8265 0.3993
vn 0.4271 0.8485 0.3125
vn 0.4499 0.8432 0.2942
vn 0.1558 0.5366 0.8293
vn 0.0745 0.3714 0.9255
vn 0.2521 0.6557 0.7117
vn 0.3566 0.8504 0.3868
vn 0.3033 0.6894 0.6579
vn 0.2964 0.6952 0.6549
vn 0.2115 0.5892 0.7798
vn 0.3282 0.7596 0.5616
vn 0.2544 0.6575 0.7092
vn 0.2782 0.7454 0.6058
vn 0.2534 0.6926 0.6753
vn 0.2594 0.7652 0.5892
vn 0.1959 0.6611 0.7243
vn 0.2060 0.7513 0.6270
vn 0.1651 0.6515 0.7405
vn 0.1875 0.8290 0.5268
vn 0.1392 0.6657 0.7331
vn 0.1979 0.6248 0.7553
vn 0.2900 0.8677 0.4038
vn 0.3313 0.8429 0.4241
vn 0.4361 0.7846 0.4406
vn 0.4552 0.8013 0.3884
vn 0.4450 0.7908 0.4202
vn 0.3280 0.9084 0.2592
vn 0.2797 0.9368 0.2101
vn 0.2709 0.9292 0.2516
vn 0.4630 0.8338 0.3007
vn 0.3624 0.8256 0.4325
vn 0.3903 0.8133 0.4315
vn 0.4165 0.7707 0.4823
vn 0.4045 0.7637 0.5032
vn 0.4194 0.8029 0.4237
vn 0.4251 0.7903 0.4412
vn 0.4394 0.7883 0.4308
vn 0.5091 0.8144 0.2784
vn 0.4943 0.8137 0.3060
vn 0.3525 0.8669 0.3524
vn 0.3151 0.8950 0.3158
vn 0.4150 0.8274 0.3783
vn 0.4447 0.8168 0.3675
vn 0.4511 0.8007 0.3941
vn 0.5055 0.8158 0.2811
vn 0.3670 0.7478 0.5533
vn 0.4071 0.8581 0.3130
vn 0.4394 0.8395 0.3197
vn 0.3421 0.7527 0.5625
vn 0.3827 0.8411 0.3823
vn 0.3783 0.8900 0.2546
vn 0.3354 0.9145 0.2263
vn 0.3681 0.8833 0.2902
vn 0.4957 0.8608 0.1158
vn 0.0805 0.2764 0.9577
vn 0.4526 0.8456 0.2830
vn 0.4178 0.8643 0.2799
vn 0.2571 0.9188 0.2994
vn 0.2334 0.8937 0.3833
vn 0.0879 0.6413 0.7622
# 83 vertex normals

vt 0.6580 0.1861 0.0000
vt 0.6600 0.1871 0.0000
vt 0.6590 0.1875 0.0000
vt 0.6486 0.1786 0.0000
vt 0.6507 0.1861 0.0000
vt 0.6426 0.1843 0.0000
vt 0.6606 0.1946 0.0000
vt 0.6639 0.1946 0.0000
vt 0.6589 0.1965 0.0000
vt 0.5843 0.2391 0.0000
vt 0.5975 0.2253 0.0000
vt 0.6009 0.2261 0.0000
vt 0.5847 0.2462 0.0000
vt 0.6042 0.2335 0.0000
vt 0.5850 0.2468 0.0000
vt 0.6234 0.2190 0.0000
vt 0.6038 0.2330 0.0000
vt 0.6182 0.2133 0.0000
vt 0.6153 0.2119 0.0000
vt 0.6587 0.1956 0.0000
vt 0.6288 0.1965 0.0000
vt 0.6344 0.1974 0.0000
vt 0.6112 0.2113 0.0000
vt 0.6593 0.1886 0.0000
vt 0.6626 0.1914 0.0000
vt 0.6603 0.1921 0.0000
vt 0.6561 0.1833 0.0000
vt 0.6512 0.1788 0.0000
vt 0.6535 0.1884 0.0000
vt 0.6607 0.1879 0.0000
vt 0.6372 0.1992 0.0000
vt 0.5801 0.2377 0.0000
vt 0.5942 0.2247 0.0000
vt 0.5623 0.2491 0.0000
vt 0.5777 0.2368 0.0000
vt 0.5451 0.2589 0.0000
vt 0.5613 0.2479 0.0000
vt 0.5297 0.2671 0.0000
vt 0.5444 0.2578 0.0000
vt 0.5154 0.2736 0.0000
vt 0.5282 0.2659 0.0000
vt 0.5016 0.2786 0.0000
vt 0.5150 0.2722 0.0000
vt 0.6588 0.1858 0.0000
vt 0.5169 0.2767 0.0000
vt 0.5312 0.2703 0.0000
vt 0.6202 0.2150 0.0000
vt 0.6412 0.2030 0.0000
vt 0.6216 0.2171 0.0000
vt 0.5196 0.2827 0.0000
vt 0.5052 0.2876 0.0000
vt 0.5050 0.2869 0.0000
vt 0.6573 0.1931 0.0000
vt 0.5466 0.2621 0.0000
vt 0.5637 0.2521 0.0000
vt 0.6063 0.2236 0.0000
vt 0.6205 0.2133 0.0000
vt 0.6557 0.1906 0.0000
vt 0.6395 0.2011 0.0000
vt 0.6024 0.2277 0.0000
vt 0.6433 0.2058 0.0000
vt 0.6237 0.2196 0.0000
vt 0.5328 0.2735 0.0000
vt 0.5184 0.2799 0.0000
vt 0.5652 0.2553 0.0000
vt 0.5835 0.2437 0.0000
vt 0.6023 0.2308 0.0000
vt 0.6429 0.2051 0.0000
vt 0.6385 0.2002 0.0000
vt 0.5493 0.2681 0.0000
vt 0.5663 0.2579 0.0000
vt 0.6548 0.1895 0.0000
vt 0.5481 0.2654 0.0000
vt 0.5343 0.2770 0.0000
vt 0.5199 0.2834 0.0000
vt 0.5340 0.2762 0.0000
vt 0.6636 0.1935 0.0000
vt 0.6493 0.1776 0.0000
vt 0.5666 0.2586 0.0000
vt 0.5496 0.2688 0.0000
vt 0.5040 0.2844 0.0000
vt 0.5028 0.2815 0.0000
vt 0.5012 0.2776 0.0000
# 83 texture coords

g E232_181C_R_E232_181C_R_1_DaS
usemtl paint_whiteSG
s 1
f 42/2/42 43/3/43 44/4/44 
f 45/5/45 46/6/46 47/7/47 
f 48/8/48 49/9/49 50/10/50 
f 51/11/51 52/12/52 53/13/53 
f 54/14/54 55/15/55 56/16/56 
f 57/17/57 55/15/55 58/18/58 
f 59/19/59 52/12/52 60/20/60 
f 48/8/48 50/10/50 61/21/61 
f 60/20/60 62/22/62 63/23/63 
f 52/12/52 64/24/64 60/20/60 
f 65/25/65 66/26/66 67/27/67 
f 68/28/68 46/6/46 69/29/69 
f 70/30/70 63/23/63 46/6/46 
f 44/4/44 71/31/71 65/25/65 
f 59/19/59 63/23/63 72/32/72 
f 73/33/73 74/34/74 52/12/52 
f 75/35/75 76/36/76 73/33/73 
f 77/37/77 78/38/78 75/35/75 
f 79/39/79 80/40/80 77/37/77 
f 81/41/81 82/42/82 79/39/79 
f 83/43/83 84/44/84 81/41/81 
f 68/28/68 85/45/85 42/2/42 
f 86/46/86 79/39/79 87/47/87 
f 88/48/88 89/49/89 90/50/90 
f 91/51/91 92/52/92 93/53/93 
f 48/8/48 94/54/94 67/27/67 
f 95/55/95 75/35/75 96/56/96 
f 88/48/88 97/57/97 98/58/98 
f 99/59/99 89/49/89 100/60/100 
f 51/11/51 97/57/97 101/61/101 
f 57/17/57 102/62/102 103/63/103 
f 86/46/86 104/64/104 105/65/105 
f 95/55/95 104/64/104 87/47/87 
f 54/14/54 106/66/106 107/67/107 
f 57/17/57 108/68/108 90/50/90 
f 54/14/54 108/68/108 58/18/58 
f 51/11/51 108/68/108 107/67/107 
f 88/48/88 108/68/108 101/61/101 
f 95/55/95 79/39/79 77/37/77 
f 61/21/61 89/49/89 94/54/94 
f 57/17/57 89/49/89 109/69/109 
f 59/19/59 97/57/97 53/13/53 
f 59/19/59 110/70/110 98/58/98 
f 111/71/111 106/66/106 112/72/112 
f 70/30/70 110/70/110 72/32/72 
f 99/59/99 110/70/110 113/73/113 
f 88/48/88 110/70/110 100/60/100 
f 95/55/95 106/66/106 114/74/114 
f 51/11/51 106/66/106 96/56/96 
f 91/51/91 115/75/115 116/76/116 
f 99/59/99 67/27/67 94/54/94 
f 111/71/111 115/75/115 117/77/117 
f 113/73/113 65/25/65 99/59/99 
f 70/30/70 44/4/44 113/73/113 
f 111/71/111 104/64/104 114/74/114 
f 67/27/67 118/78/118 48/8/48 
f 119/79/119 69/29/69 45/5/45 
f 86/46/86 83/43/83 81/41/81 
f 109/69/109 50/10/50 102/62/102 
f 111/71/111 120/80/120 121/81/121 
f 54/14/54 120/80/120 112/72/112 
f 46/6/46 42/2/42 70/30/70 
f 91/51/91 104/64/104 117/77/117 
f 51/11/51 75/35/75 73/33/73 
f 86/46/86 122/82/122 123/83/123 
f 91/51/91 122/82/122 105/65/105 
f 63/23/63 47/7/47 46/6/46 
f 85/45/85 43/3/43 42/2/42 
f 69/29/69 46/6/46 45/5/45 
f 118/78/118 49/9/49 48/8/48 
f 73/33/73 52/12/52 51/11/51 
f 58/18/58 55/15/55 54/14/54 
f 103/63/103 55/15/55 57/17/57 
f 53/13/53 52/12/52 59/19/59 
f 64/24/64 62/22/62 60/20/60 
f 74/34/74 64/24/64 52/12/52 
f 71/31/71 66/26/66 65/25/65 
f 72/32/72 63/23/63 70/30/70 
f 43/3/43 71/31/71 44/4/44 
f 60/20/60 63/23/63 59/19/59 
f 76/36/76 74/34/74 73/33/73 
f 78/38/78 76/36/76 75/35/75 
f 80/40/80 78/38/78 77/37/77 
f 82/42/82 80/40/80 79/39/79 
f 84/44/84 82/42/82 81/41/81 
f 124/84/124 84/44/84 83/43/83 
f 81/41/81 79/39/79 86/46/86 
f 100/60/100 89/49/89 88/48/88 
f 116/76/116 92/52/92 91/51/91 
f 61/21/61 94/54/94 48/8/48 
f 77/37/77 75/35/75 95/55/95 
f 101/61/101 97/57/97 88/48/88 
f 94/54/94 89/49/89 99/59/99 
f 53/13/53 97/57/97 51/11/51 
f 109/69/109 102/62/102 57/17/57 
f 87/47/87 104/64/104 86/46/86 
f 114/74/114 104/64/104 95/55/95 
f 112/72/112 106/66/106 54/14/54 
f 58/18/58 108/68/108 57/17/57 
f 107/67/107 108/68/108 54/14/54 
f 101/61/101 108/68/108 51/11/51 
f 90/50/90 108/68/108 88/48/88 
f 87/47/87 79/39/79 95/55/95 
f 109/69/109 89/49/89 61/21/61 
f 90/50/90 89/49/89 57/17/57 
f 98/58/98 97/57/97 59/19/59 
f 72/32/72 110/70/110 59/19/59 
f 114/74/114 106/66/106 111/71/111 
f 113/73/113 110/70/110 70/30/70 
f 100/60/100 110/70/110 99/59/99 
f 98/58/98 110/70/110 88/48/88 
f 96/56/96 106/66/106 95/55/95 
f 107/67/107 106/66/106 51/11/51 
f 117/77/117 115/75/115 91/51/91 
f 65/25/65 67/27/67 99/59/99 
f 121/81/121 115/75/115 111/71/111 
f 44/4/44 65/25/65 113/73/113 
f 42/2/42 44/4/44 70/30/70 
f 117/77/117 104/64/104 111/71/111 
f 66/26/66 118/78/118 67/27/67 
f 123/83/123 83/43/83 86/46/86 
f 61/21/61 50/10/50 109/69/109 
f 112/72/112 120/80/120 111/71/111 
f 56/16/56 120/80/120 54/14/54 
f 68/28/68 42/2/42 46/6/46 
f 105/65/105 104/64/104 91/51/91 
f 96/56/96 75/35/75 51/11/51 
f 105/65/105 122/82/122 86/46/86 
f 93/53/93 122/82/122 91/51/91 
f 62/22/62 47/7/47 63/23/63 
# 130 faces

#
# object E232_181C_R_E232_181C_R_1_DaS_E
#

v  103.2301 41.4716 83.7407
v  106.4765 40.4349 83.9311
v  105.9290 39.6260 83.7892
v  29.2073 88.5543 65.1180
v  37.2578 86.0086 66.8548
v  36.8734 85.1236 66.6452
v  45.4055 81.7334 68.6921
v  44.9769 80.8728 68.4677
v  94.9337 47.3634 81.7724
v  103.7758 42.2797 83.8950
v  106.3071 40.6084 84.9197
v  21.4630 91.4902 63.7811
v  29.5457 89.4617 65.3102
v  74.0575 62.2051 76.0213
v  85.0095 55.6665 79.1443
v  84.4994 54.8567 78.9030
v  63.8330 69.1600 73.2436
v  74.5555 63.0217 76.2653
v  95.4616 48.1717 81.9794
v  98.6165 36.6266 90.5017
v  98.2745 37.4222 91.3316
v  98.2263 37.1029 90.3963
v  99.6110 37.1680 90.2657
v  98.6632 36.9081 91.4473
v  95.0379 40.0790 89.2911
v  87.6921 46.9938 87.7448
v  87.6196 46.5756 86.8535
v  95.0899 40.4719 90.1951
v  54.5129 76.3083 70.9283
v  54.0502 75.4678 70.6968
v  78.2917 54.8686 84.7527
v  78.1877 54.4120 83.8833
v  69.2379 62.0245 81.9979
v  69.0969 61.5200 81.1606
v  60.4319 68.5131 79.4675
v  60.2526 67.9479 78.6770
v  51.6598 74.4373 77.0243
v  51.4725 73.8249 76.2729
v  42.6350 79.6896 74.8007
v  42.4795 79.0810 74.0386
v  34.0110 84.0546 73.0277
v  33.8839 83.4695 72.2429
v  26.9737 87.3791 71.6414
v  26.8773 86.7968 70.8499
v  19.6092 90.2593 70.2307
v  19.5515 89.6826 69.4317
v  105.4107 39.6719 86.1319
v  104.7386 40.2347 88.3732
v  104.4196 39.3761 87.9979
v  104.3868 40.1263 88.8594
v  104.1486 39.3532 88.2692
v  103.5454 39.1559 88.6188
v  102.3127 39.0469 90.2518
v  102.2021 38.5190 89.4181
v  103.7126 39.7908 89.3570
v  99.6767 37.5455 91.1782
v  105.9075 39.7229 84.7454
v  105.7867 40.5549 86.3733
v  64.3174 69.9867 73.4805
v  21.7453 92.4206 63.9508
# 60 vertices

vn 0.1711 0.0705 -0.9827
vn 0.0940 0.1127 -0.9892
vn 0.0933 0.1104 -0.9895
vn 0.2292 0.1194 -0.9660
vn 0.2590 0.1143 -0.9591
vn 0.2591 0.1147 -0.9590
vn 0.2839 0.1070 -0.9529
vn 0.2839 0.1071 -0.9529
vn 0.2834 0.0580 -0.9572
vn 0.1721 0.0733 -0.9823
vn 0.8528 -0.4702 0.2270
vn 0.8506 -0.5031 0.1528
vn 0.7853 -0.5727 0.2351
vn 0.2121 0.1136 -0.9706
vn 0.2290 0.1187 -0.9662
vn 0.3187 0.0875 -0.9438
vn 0.3168 0.0821 -0.9449
vn 0.3164 0.0812 -0.9452
vn 0.3109 0.0892 -0.9463
vn 0.3187 0.0876 -0.9438
vn 0.2846 0.0603 -0.9568
vn -0.1732 -0.9384 0.2991
vn -0.7552 -0.6104 0.2389
vn -0.7458 -0.6163 0.2530
vn 0.5279 -0.8033 0.2758
vn -0.1979 -0.9299 0.3100
vn -0.6936 -0.6448 0.3213
vn -0.6716 -0.6488 0.3578
vn -0.6712 -0.6479 0.3601
vn -0.6946 -0.6461 0.3163
vn 0.2998 0.0964 -0.9491
vn -0.6473 -0.6410 0.4125
vn -0.6468 -0.6397 0.4154
vn -0.6158 -0.6259 0.4787
vn -0.6149 -0.6240 0.4823
vn -0.5758 -0.5993 0.5561
vn -0.5748 -0.5972 0.5594
vn -0.5277 -0.5904 0.6106
vn -0.5275 -0.5899 0.6113
vn -0.4820 -0.6335 0.6053
vn -0.4826 -0.6346 0.6036
vn -0.4508 -0.6782 0.5803
vn -0.4513 -0.6794 0.5786
vn -0.4169 -0.7067 0.5717
vn -0.4182 -0.7066 0.5708
vn -0.3956 -0.7309 0.5562
vn 0.8346 -0.4457 0.3237
vn 0.7879 -0.4665 0.4019
vn 0.7406 -0.5109 0.4364
vn 0.6870 -0.5437 0.4821
vn 0.5872 -0.6218 0.5183
vn 0.5610 -0.6935 0.4520
vn 0.5726 -0.7186 0.3946
vn 0.5604 -0.7366 0.3785
vn 0.6105 -0.6451 0.4596
vn 0.5440 -0.7843 0.2982
vn 0.8856 -0.4329 0.1682
vn 0.8356 -0.4441 0.3232
vn 0.3108 0.0891 -0.9463
vn 0.2119 0.1127 -0.9708
vn -0.3911 -0.7179 0.5759
# 61 vertex normals

vt 0.6579 0.1980 0.0000
vt 0.6639 0.1946 0.0000
vt 0.6629 0.1954 0.0000
vt 0.5192 0.2851 0.0000
vt 0.5343 0.2770 0.0000
vt 0.5336 0.2786 0.0000
vt 0.5496 0.2688 0.0000
vt 0.5488 0.2704 0.0000
vt 0.6423 0.2073 0.0000
vt 0.6589 0.1965 0.0000
vt 0.6636 0.1935 0.0000
vt 0.5047 0.2891 0.0000
vt 0.5199 0.2834 0.0000
vt 0.6032 0.2350 0.0000
vt 0.6237 0.2196 0.0000
vt 0.6228 0.2211 0.0000
vt 0.5841 0.2483 0.0000
vt 0.6042 0.2335 0.0000
vt 0.6433 0.2058 0.0000
vt 0.6492 0.1771 0.0000
vt 0.6486 0.1786 0.0000
vt 0.6485 0.1780 0.0000
vt 0.6511 0.1781 0.0000
vt 0.6493 0.1776 0.0000
vt 0.6425 0.1836 0.0000
vt 0.6288 0.1965 0.0000
vt 0.6286 0.1958 0.0000
vt 0.6426 0.1843 0.0000
vt 0.5666 0.2586 0.0000
vt 0.5658 0.2601 0.0000
vt 0.6112 0.2113 0.0000
vt 0.6110 0.2104 0.0000
vt 0.5942 0.2247 0.0000
vt 0.5939 0.2237 0.0000
vt 0.5777 0.2368 0.0000
vt 0.5774 0.2358 0.0000
vt 0.5613 0.2479 0.0000
vt 0.5609 0.2468 0.0000
vt 0.5444 0.2578 0.0000
vt 0.5441 0.2566 0.0000
vt 0.5282 0.2659 0.0000
vt 0.5280 0.2649 0.0000
vt 0.5150 0.2722 0.0000
vt 0.5149 0.2711 0.0000
vt 0.5012 0.2776 0.0000
vt 0.5011 0.2765 0.0000
vt 0.6619 0.1907 0.0000
vt 0.6607 0.1879 0.0000
vt 0.6601 0.1869 0.0000
vt 0.6600 0.1871 0.0000
vt 0.6596 0.1861 0.0000
vt 0.6584 0.1846 0.0000
vt 0.6561 0.1833 0.0000
vt 0.6559 0.1819 0.0000
vt 0.6588 0.1858 0.0000
vt 0.6512 0.1788 0.0000
vt 0.6629 0.1934 0.0000
vt 0.6626 0.1914 0.0000
vt 0.5850 0.2468 0.0000
vt 0.5052 0.2876 0.0000
# 60 texture coords

g E232_181C_R_E232_181C_R_1_DaS_E
usemtl paint_whiteSG
s 29
f 125/85/125 126/86/126 127/87/127 
f 128/88/128 129/89/129 130/90/130 
f 130/90/130 131/91/131 132/92/132 
f 133/93/133 134/94/134 125/85/125 
s 32
f 135/95/135 127/87/136 126/86/137 
s 29
f 136/96/138 137/97/139 128/88/128 
f 138/98/140 139/99/141 140/100/142 
f 141/101/143 142/102/144 138/98/140 
f 140/100/142 143/103/145 133/93/133 
s 36
f 144/104/146 145/105/147 146/106/148 
s 32
f 147/107/149 148/108/150 144/104/146 
s 36
f 149/109/151 150/110/152 151/111/153 
f 146/106/148 152/112/154 149/109/151 
s 29
f 132/92/132 153/113/155 154/114/155 
s 36
f 151/111/153 155/115/156 156/116/157 
f 156/116/157 157/117/158 158/118/159 
f 158/118/159 159/119/160 160/120/161 
f 160/120/161 161/121/162 162/122/163 
f 162/122/163 163/123/164 164/124/165 
f 164/124/165 165/125/166 166/126/167 
f 166/126/167 167/127/168 168/128/169 
s off
f 168/128/170 169/129/170 170/130/170 
s 32
f 171/131/171 172/132/172 173/133/173 
f 173/133/173 174/134/174 175/135/175 
f 176/136/176 177/137/177 178/138/178 
f 175/135/175 179/139/179 176/136/176 
f 178/138/178 180/140/180 147/107/149 
f 181/141/181 182/142/182 171/131/171 
s 29
f 154/114/155 183/143/183 141/101/143 
f 134/94/134 126/86/126 125/85/125 
f 137/97/139 129/89/129 128/88/128 
f 129/89/129 131/91/131 130/90/130 
f 143/103/145 134/94/134 133/93/133 
s 32
f 181/141/181 127/87/136 135/95/135 
s 29
f 184/144/184 137/97/139 136/96/138 
f 142/102/144 139/99/141 138/98/140 
f 183/143/183 142/102/144 141/101/143 
f 139/99/141 143/103/145 140/100/142 
s 36
f 148/108/150 145/105/147 144/104/146 
s 32
f 180/140/180 148/108/150 147/107/149 
s 36
f 152/112/154 150/110/152 149/109/151 
f 145/105/147 152/112/154 146/106/148 
s 29
f 131/91/131 153/113/155 132/92/132 
s 36
f 150/110/152 155/115/156 151/111/153 
f 155/115/156 157/117/158 156/116/157 
f 157/117/158 159/119/160 158/118/159 
f 159/119/160 161/121/162 160/120/161 
f 161/121/162 163/123/164 162/122/163 
f 163/123/164 165/125/166 164/124/165 
f 165/125/166 167/127/168 166/126/167 
f 167/127/168 169/129/185 168/128/169 
s 32
f 182/142/182 172/132/172 171/131/171 
f 172/132/172 174/134/174 173/133/173 
f 179/139/179 177/137/177 176/136/176 
f 174/134/174 179/139/179 175/135/175 
f 177/137/177 180/140/180 178/138/178 
f 135/95/135 182/142/182 181/141/181 
s 29
f 153/113/155 183/143/183 154/114/155 
# 58 faces

