# 3ds Max Wavefront OBJ Exporter v0.97b - (c)2007 guruware
# File Created: 09.11.2015 11:39:08

mtllib E232_265B_L.mtl

#
# object E232_265B_L_DTaSI_E232_265B_L
#

v  29.4897 74.7715 -77.5107
v  19.6874 74.6216 -77.7695
v  27.5808 80.7691 -74.5490
v  18.2291 82.6452 -73.7640
v  24.3209 82.2959 -73.8419
v  14.7448 56.4134 -85.1213
v  12.9720 66.0772 -81.5597
v  21.2627 65.8595 -81.5243
v  53.9523 54.8978 -84.9599
v  41.6153 55.4133 -85.1108
v  40.4432 65.3452 -81.3506
v  42.6942 46.1505 -88.3021
v  43.3616 40.3755 -90.1737
v  54.5765 46.1379 -88.1497
v  10.2018 86.7264 -71.5502
v  1.1777 83.5162 -73.6072
v  0.0619 88.4415 -70.6128
v  17.8896 84.5618 -72.7893
v  9.7034 83.0671 -73.6614
v  55.7801 64.5529 -81.1322
v  59.8791 61.7298 -82.0568
v  16.5234 46.5723 -88.4369
v  17.4755 41.2623 -90.1416
v  9.2453 41.5442 -90.1314
v  -10.4168 42.2154 -90.0674
v  -11.5965 47.1604 -88.4858
v  -5.1552 47.0133 -88.4833
v  -14.0445 57.4476 -85.0363
v  -16.2779 66.8310 -81.5578
v  -10.3270 66.6843 -81.6166
v  -20.4694 84.4777 -72.9763
v  -18.1786 74.8100 -77.9780
v  -23.9068 74.8243 -77.9686
v  -0.6799 56.9725 -85.0887
v  -2.8228 66.4897 -81.6059
v  4.6814 66.2950 -81.5952
v  32.3112 55.7611 -85.1184
v  30.8530 65.6023 -81.4374
v  33.7136 46.2945 -88.3489
v  34.5336 40.6779 -90.1627
v  25.7056 40.9803 -90.1518
v  -22.5784 66.9777 -81.4989
v  65.1537 57.5639 -83.4890
v  65.4012 54.4193 -84.8199
v  39.2921 74.9213 -77.2519
v  -4.7209 74.7666 -77.9739
v  2.7062 41.7674 -90.1101
v  1.5794 46.8597 -88.4808
v  8.3139 46.7060 -88.4782
v  -18.0378 47.3074 -88.4882
v  54.8248 39.8567 -90.1996
v  66.0799 46.1256 -88.0022
v  11.3481 74.6795 -77.8649
v  51.9423 64.8054 -81.1865
v  50.7442 67.9856 -79.8974
v  -21.7734 89.9659 -69.4518
v  -16.3895 89.9148 -69.5726
v  -8.5038 89.5679 -69.9663
v  -14.9146 84.2355 -73.1543
v  -6.8685 83.8759 -73.3807
v  -12.4505 74.7957 -77.9874
v  -17.0008 42.4401 -90.0460
v  -20.5964 57.6680 -85.0118
v  -7.8422 57.2272 -85.0608
v  -26.0242 84.7199 -72.7983
v  -27.1574 90.0168 -69.3310
v  3.0088 74.7374 -77.9603
v  -3.8329 41.9906 -90.0888
v  6.4824 56.7178 -85.1165
v  24.7329 46.4386 -88.3956
v  23.0072 56.1089 -85.1260
v  66.9879 39.2991 -90.2262
# 72 vertices

vn 0.0178 0.4166 -0.9089
vn 0.0152 0.4261 -0.9046
vn 0.0165 0.4473 -0.8942
vn 0.0131 0.4515 -0.8922
vn 0.0150 0.4507 -0.8926
vn 0.0117 0.3344 -0.9424
vn 0.0134 0.3722 -0.9280
vn 0.0158 0.3725 -0.9279
vn 0.0288 0.3571 -0.9336
vn 0.0177 0.3384 -0.9408
vn 0.0232 0.3697 -0.9289
vn 0.0133 0.3209 -0.9470
vn 0.0113 0.3098 -0.9507
vn 0.0146 0.3295 -0.9440
vn 0.0103 0.5061 -0.8624
vn 0.0075 0.4802 -0.8771
vn 0.0038 0.5185 -0.8551
vn 0.0092 0.4701 -0.8826
vn 0.0127 0.4667 -0.8843
vn 0.0382 0.3707 -0.9280
vn 0.0373 0.3633 -0.9309
vn 0.0100 0.3142 -0.9493
vn 0.0095 0.3074 -0.9515
vn 0.0088 0.3067 -0.9518
vn 0.0074 0.3062 -0.9519
vn 0.0075 0.3129 -0.9498
vn 0.0064 0.3333 -0.9428
vn 0.0014 0.3797 -0.9251
vn 0.0057 0.3765 -0.9264
vn -0.0064 0.4988 -0.8667
vn -0.0015 0.4338 -0.9010
vn -0.0030 0.4439 -0.8960
vn 0.0084 0.3327 -0.9430
vn 0.0093 0.3734 -0.9276
vn 0.0119 0.3720 -0.9281
vn 0.0136 0.3386 -0.9408
vn 0.0176 0.3736 -0.9274
vn 0.0104 0.3168 -0.9484
vn 0.0096 0.3088 -0.9511
vn 0.0095 0.3081 -0.9513
vn 0.0000 0.3911 -0.9204
vn 0.0315 0.3781 -0.9252
vn 0.0219 0.3648 -0.9308
vn 0.0206 0.4033 -0.9148
vn 0.0033 0.4269 -0.9043
vn 0.0089 0.3133 -0.9496
vn 0.0074 0.3152 -0.9490
vn 0.0122 0.3108 -0.9504
vn 0.0124 0.3271 -0.9449
vn 0.0132 0.4235 -0.9058
vn 0.0310 0.3778 -0.9254
vn 0.0280 0.3845 -0.9227
vn -0.0103 0.5411 -0.8409
vn -0.0122 0.5335 -0.8457
vn -0.0057 0.5197 -0.8543
vn -0.0063 0.4912 -0.8710
vn -0.0009 0.4842 -0.8749
vn 0.0003 0.4315 -0.9021
vn 0.0073 0.3062 -0.9519
vn 0.0050 0.3407 -0.9402
vn 0.0084 0.3321 -0.9432
vn -0.0085 0.5162 -0.8564
vn -0.0136 0.5456 -0.8379
vn 0.0104 0.4234 -0.9059
vn 0.0101 0.3335 -0.9427
vn 0.0103 0.3152 -0.9490
vn 0.0130 0.3359 -0.9418
vn 0.0122 0.3112 -0.9503
# 68 vertex normals

vt 0.8013 0.1936 0.0000
vt 0.7554 0.1913 0.0000
vt 0.7914 0.2214 0.0000
vt 0.7472 0.2288 0.0000
vt 0.7759 0.2280 0.0000
vt 0.7352 0.1051 0.0000
vt 0.7253 0.1501 0.0000
vt 0.7642 0.1504 0.0000
vt 0.9193 0.1044 0.0000
vt 0.8613 0.1048 0.0000
vt 0.8542 0.1512 0.0000
vt 0.8679 0.0615 0.0000
vt 0.8720 0.0346 0.0000
vt 0.9236 0.0634 0.0000
vt 0.7089 0.2465 0.0000
vt 0.6672 0.2299 0.0000
vt 0.6611 0.2528 0.0000
vt 0.7453 0.2376 0.0000
vt 0.7072 0.2294 0.0000
vt 0.9263 0.1500 0.0000
vt 0.9459 0.1374 0.0000
vt 0.7451 0.0592 0.0000
vt 0.7505 0.0345 0.0000
vt 0.7118 0.0345 0.0000
vt 0.6195 0.0344 0.0000
vt 0.6132 0.0574 0.0000
vt 0.6434 0.0578 0.0000
vt 0.6000 0.1052 0.0000
vt 0.5880 0.1489 0.0000
vt 0.6160 0.1491 0.0000
vt 0.5655 0.2309 0.0000
vt 0.5778 0.1860 0.0000
vt 0.5510 0.1851 0.0000
vt 0.6628 0.1052 0.0000
vt 0.6512 0.1495 0.0000
vt 0.6864 0.1498 0.0000
vt 0.8177 0.1049 0.0000
vt 0.8092 0.1508 0.0000
vt 0.8258 0.0607 0.0000
vt 0.8305 0.0345 0.0000
vt 0.7891 0.0345 0.0000
vt 0.5601 0.1486 0.0000
vt 0.9714 0.1187 0.0000
vt 0.9730 0.1040 0.0000
vt 0.8473 0.1959 0.0000
vt 0.6409 0.1880 0.0000
vt 0.6811 0.0344 0.0000
vt 0.6750 0.0581 0.0000
vt 0.7066 0.0585 0.0000
vt 0.5830 0.0570 0.0000
vt 0.9258 0.0346 0.0000
vt 0.9776 0.0652 0.0000
vt 0.7163 0.1902 0.0000
vt 0.9082 0.1505 0.0000
vt 0.9021 0.1654 0.0000
vt 0.5585 0.2564 0.0000
vt 0.5837 0.2571 0.0000
vt 0.6208 0.2567 0.0000
vt 0.5916 0.2307 0.0000
vt 0.6294 0.2303 0.0000
vt 0.6047 0.1868 0.0000
vt 0.5886 0.0344 0.0000
vt 0.5709 0.1052 0.0000
vt 0.6292 0.1052 0.0000
vt 0.5394 0.2311 0.0000
vt 0.5332 0.2558 0.0000
vt 0.6772 0.1891 0.0000
vt 0.6504 0.0344 0.0000
vt 0.6964 0.1052 0.0000
vt 0.7837 0.0599 0.0000
vt 0.7740 0.1050 0.0000
vt 0.9811 0.0346 0.0000
# 72 texture coords

g E232_265B_L_DTaSI_E232_265B_L
usemtl windowglass_1SG
s 1
f 1/1/1 2/2/2 3/3/3 
f 2/2/2 4/4/4 5/5/5 
f 6/6/6 7/7/7 8/8/8 
f 9/9/9 10/10/10 11/11/11 
f 12/12/12 10/10/10 9/9/9 
f 13/13/13 12/12/12 14/14/14 
f 15/15/15 16/16/16 17/17/17 
f 18/18/18 4/4/4 19/19/19 
f 20/20/20 21/21/21 9/9/9 
f 22/22/22 23/23/23 24/24/24 
f 25/25/25 26/26/26 27/27/26 
f 28/28/27 29/29/28 30/30/29 
f 31/31/30 32/32/31 33/33/32 
f 34/34/33 35/35/34 36/36/35 
f 5/5/5 4/4/4 18/18/18 
f 37/37/36 38/38/37 11/11/11 
f 39/39/38 37/37/36 10/10/10 
f 39/39/38 40/40/39 41/41/40 
f 32/32/31 29/29/28 42/42/41 
f 43/43/42 44/44/43 9/9/9 
f 3/3/3 45/45/44 1/1/1 
f 46/46/45 35/35/34 30/30/29 
f 47/47/25 48/48/26 49/49/46 
f 6/6/6 22/22/22 49/49/46 
f 34/34/33 48/48/26 27/27/26 
f 28/28/27 26/26/26 50/50/47 
f 14/14/14 9/9/9 44/44/43 
f 51/51/48 14/14/14 52/52/49 
f 7/7/7 53/53/50 2/2/2 
f 1/1/1 38/38/37 8/8/8 
f 54/54/51 11/11/11 45/45/44 
f 20/20/20 54/54/51 55/55/52 
f 31/31/30 56/56/53 57/57/54 
f 57/57/54 58/58/55 59/59/56 
f 17/17/17 16/16/16 60/60/57 
f 53/53/50 19/19/19 4/4/4 
f 60/60/57 46/46/45 61/61/58 
f 62/62/59 50/50/47 26/26/26 
f 63/63/60 42/42/41 29/29/28 
f 59/59/56 61/61/58 32/32/31 
f 61/61/58 30/30/29 29/29/28 
f 64/64/61 27/27/26 26/26/26 
f 65/65/62 66/66/63 56/56/53 
f 64/64/61 30/30/29 35/35/34 
f 67/67/64 36/36/35 35/35/34 
f 68/68/25 27/27/26 48/48/26 
f 69/69/65 49/49/46 48/48/26 
f 60/60/57 59/59/56 58/58/55 
f 16/16/16 67/67/64 46/46/45 
f 69/69/65 36/36/35 7/7/7 
f 19/19/19 16/16/16 15/15/15 
f 70/70/66 41/41/40 23/23/23 
f 71/71/67 70/70/66 22/22/22 
f 36/36/35 67/67/64 53/53/50 
f 67/67/64 16/16/16 19/19/19 
f 71/71/67 8/8/8 38/38/37 
f 70/70/66 71/71/67 37/37/36 
f 12/12/12 13/13/13 40/40/39 
f 45/45/44 11/11/11 38/38/37 
f 3/3/3 2/2/2 5/5/5 
f 71/71/67 6/6/6 8/8/8 
f 54/54/51 9/9/9 11/11/11 
f 14/14/14 12/12/12 9/9/9 
f 51/51/48 13/13/13 14/14/14 
f 15/15/15 18/18/18 19/19/19 
f 54/54/51 20/20/20 9/9/9 
f 49/49/46 22/22/22 24/24/24 
f 68/68/25 25/25/25 27/27/26 
f 64/64/61 28/28/27 30/30/29 
f 65/65/62 31/31/30 33/33/32 
f 69/69/65 34/34/33 36/36/35 
f 10/10/10 37/37/36 11/11/11 
f 12/12/12 39/39/38 10/10/10 
f 70/70/66 39/39/38 41/41/40 
f 33/33/32 32/32/31 42/42/41 
f 21/21/21 43/43/42 9/9/9 
f 61/61/58 46/46/45 30/30/29 
f 24/24/24 47/47/25 49/49/46 
f 69/69/65 6/6/6 49/49/46 
f 64/64/61 34/34/33 27/27/26 
f 63/63/60 28/28/27 50/50/47 
f 52/52/49 14/14/14 44/44/43 
f 72/72/68 51/51/48 52/52/49 
f 8/8/8 7/7/7 2/2/2 
f 2/2/2 1/1/1 8/8/8 
f 55/55/52 54/54/51 45/45/44 
f 59/59/56 31/31/30 57/57/54 
f 58/58/55 17/17/17 60/60/57 
f 2/2/2 53/53/50 4/4/4 
f 59/59/56 60/60/57 61/61/58 
f 25/25/25 62/62/59 26/26/26 
f 28/28/27 63/63/60 29/29/28 
f 31/31/30 59/59/56 32/32/31 
f 32/32/31 61/61/58 29/29/28 
f 28/28/27 64/64/61 26/26/26 
f 31/31/30 65/65/62 56/56/53 
f 34/34/33 64/64/61 35/35/34 
f 46/46/45 67/67/64 35/35/34 
f 47/47/25 68/68/25 48/48/26 
f 34/34/33 69/69/65 48/48/26 
f 60/60/57 16/16/16 46/46/45 
f 6/6/6 69/69/65 7/7/7 
f 22/22/22 70/70/66 23/23/23 
f 6/6/6 71/71/67 22/22/22 
f 7/7/7 36/36/35 53/53/50 
f 53/53/50 67/67/64 19/19/19 
f 37/37/36 71/71/67 38/38/37 
f 39/39/38 70/70/66 37/37/36 
f 39/39/38 12/12/12 40/40/39 
f 1/1/1 45/45/44 38/38/37 
# 110 faces

