# 3ds Max Wavefront OBJ Exporter v0.97b - (c)2007 guruware
# File Created: 09.11.2015 11:37:46

mtllib E232_181C_L.mtl

#
# object E232_181C_L_2_D_E232_181C_L
#

v  98.6165 36.6266 -90.5017
v  99.6110 37.1680 -90.2657
v  102.2150 37.3969 -89.9808
v  106.5055 39.1580 -86.2437
v  105.4809 38.8877 -88.2873
v  104.4196 39.3761 -87.9979
v  105.2596 38.8207 -88.5060
v  104.1486 39.3532 -88.2692
v  104.6816 38.5945 -88.8517
v  103.3559 37.9198 -89.6257
v  102.2021 38.5190 -89.4181
v  103.5454 39.1559 -88.6188
v  105.4107 39.6719 -86.1319
v  105.9075 39.7229 -84.7454
v  106.9752 39.2083 -84.9010
v  103.2301 41.4716 -83.7407
v  94.9337 47.3633 -81.7724
v  95.3709 47.3825 -80.6667
v  84.4994 54.8567 -78.9030
v  84.9267 54.9267 -77.8012
v  54.3681 75.6044 -69.5648
v  64.1669 69.2840 -72.1148
v  63.8330 69.1600 -73.2436
v  45.2947 81.0125 -67.3368
v  54.0502 75.4678 -70.6968
v  44.9769 80.8728 -68.4677
v  36.8734 85.1236 -66.6452
v  37.1905 85.2552 -65.5128
v  29.2073 88.5543 -65.1180
v  29.5076 88.6812 -63.9796
v  74.0575 62.2051 -76.0213
v  74.4392 62.3092 -74.9069
v  22.2480 91.4276 -62.7368
v  103.5857 41.4239 -82.5892
v  105.5581 40.0584 -82.6101
v  105.9290 39.6260 -83.7892
v  106.8257 39.2349 -82.6314
v  107.0964 39.0367 -83.3534
v  106.9676 39.1419 -84.5090
v  99.3875 35.8232 -90.7266
v  21.4630 91.4902 -63.7811
# 41 vertices

vn 0.0676 0.3227 -0.9441
vn 0.0771 0.3154 -0.9458
vn 0.0579 0.4368 -0.8977
vn 0.3810 0.8899 -0.2507
vn 0.3309 0.8929 -0.3053
vn 0.3380 0.8871 -0.3143
vn 0.2251 0.7397 -0.6341
vn 0.2081 0.7353 -0.6450
vn 0.1667 0.6334 -0.7557
vn 0.1222 0.5293 -0.8396
vn 0.0876 0.4780 -0.8740
vn 0.1590 0.6379 -0.7535
vn 0.3843 0.8789 -0.2824
vn 0.4234 0.9025 -0.0797
vn 0.4279 0.8996 -0.0869
vn 0.5578 0.8175 -0.1436
vn 0.5289 0.8185 -0.2244
vn 0.5303 0.8186 -0.2207
vn 0.5138 0.8203 -0.2514
vn 0.5144 0.8201 -0.2506
vn 0.4692 0.8514 -0.2345
vn 0.4918 0.8376 -0.2378
vn 0.4922 0.8374 -0.2377
vn 0.4346 0.8709 -0.2296
vn 0.4698 0.8510 -0.2347
vn 0.4352 0.8706 -0.2295
vn 0.3902 0.8958 -0.2129
vn 0.3903 0.8956 -0.2136
vn 0.3439 0.9189 -0.1930
vn 0.3446 0.9185 -0.1938
vn 0.5036 0.8271 -0.2494
vn 0.5036 0.8271 -0.2496
vn 0.3202 0.9291 -0.1852
vn 0.5595 0.8172 -0.1382
vn 0.5574 0.8207 -0.1256
vn 0.5198 0.8510 -0.0746
vn 0.5089 0.8544 -0.1055
vn 0.4555 0.8901 -0.0166
vn 0.4650 0.8819 0.0778
vn 0.0663 0.3275 -0.9425
vn 0.3203 0.9291 -0.1851
# 41 vertex normals

vt 21763.8281 0.0000 0.0000
# 1 texture coords

g E232_181C_L_2_D_E232_181C_L
usemtl diffuse_holesSG
s 1
f 1/1/1 2/1/2 3/1/3 
f 4/1/4 5/1/5 6/1/6 
f 5/1/5 7/1/7 8/1/8 
f 9/1/9 10/1/10 11/1/11 
f 12/1/12 8/1/8 7/1/7 
f 10/1/10 3/1/3 2/1/2 
f 13/1/13 14/1/14 15/1/15 
f 16/1/16 17/1/17 18/1/18 
f 17/1/17 19/1/19 20/1/20 
f 21/1/21 22/1/22 23/1/23 
f 24/1/24 21/1/21 25/1/25 
f 26/1/26 27/1/27 28/1/28 
f 27/1/27 29/1/29 30/1/30 
f 19/1/19 31/1/31 32/1/32 
f 31/1/31 23/1/23 22/1/22 
f 33/1/33 30/1/30 29/1/29 
f 34/1/34 35/1/35 36/1/36 
f 37/1/37 36/1/36 35/1/35 
f 36/1/36 38/1/38 39/1/39 
f 36/1/36 37/1/37 38/1/38 
f 15/1/15 14/1/14 36/1/36 
f 40/1/40 1/1/1 3/1/3 
f 13/1/13 4/1/4 6/1/6 
f 6/1/6 5/1/5 8/1/8 
f 12/1/12 9/1/9 11/1/11 
f 9/1/9 12/1/12 7/1/7 
f 11/1/11 10/1/10 2/1/2 
f 4/1/4 13/1/13 15/1/15 
f 34/1/34 16/1/16 18/1/18 
f 18/1/18 17/1/17 20/1/20 
f 25/1/25 21/1/21 23/1/23 
f 26/1/26 24/1/24 25/1/25 
f 24/1/24 26/1/26 28/1/28 
f 28/1/28 27/1/27 30/1/30 
f 20/1/20 19/1/19 32/1/32 
f 32/1/32 31/1/31 22/1/22 
f 41/1/41 33/1/33 29/1/29 
f 16/1/16 34/1/34 36/1/36 
f 39/1/39 15/1/15 36/1/36 
# 39 faces

#
# object E232_181C_L_E232_181C_L_1_DaS
#

v  103.3240 40.0114 -89.2764
v  103.8157 40.4423 -88.7356
v  104.3868 40.1263 -88.8594
v  98.2745 37.4222 -91.3316
v  95.0899 40.4719 -90.1951
v  99.4333 40.8426 -89.6775
v  104.6933 41.5712 -84.6702
v  103.7758 42.2797 -83.8950
v  106.4765 40.4349 -83.9311
v  63.9298 68.4074 -77.5491
v  72.8210 61.8011 -80.5705
v  71.0053 62.0917 -81.5205
v  64.1662 69.9359 -73.8833
v  64.3174 69.9867 -73.4805
v  74.5555 63.0217 -76.2653
v  84.8204 55.6376 -79.5265
v  74.3876 62.9830 -76.6398
v  82.0492 55.0279 -83.2644
v  80.5032 54.9407 -84.3268
v  103.6742 42.2814 -84.4310
v  90.7041 47.1784 -87.3080
v  87.6921 46.9938 -87.7448
v  78.2917 54.8686 -84.7527
v  103.9811 40.6332 -88.1634
v  104.5319 41.2896 -86.2383
v  105.7867 40.5549 -86.3733
v  102.3127 39.0469 -90.2518
v  99.6767 37.5455 -91.1782
v  100.8851 41.5163 -88.7209
v  104.7386 40.2347 -88.3732
v  92.1959 47.5878 -86.2666
v  61.7292 68.6818 -78.8952
v  69.2379 62.0245 -81.9979
v  52.1938 74.7616 -76.4570
v  60.4319 68.5131 -79.4675
v  43.0092 80.0964 -74.3018
v  51.6598 74.4373 -77.0243
v  34.7855 84.4517 -72.5253
v  42.6350 79.6896 -74.8007
v  27.1627 87.9672 -71.0431
v  34.0110 84.0546 -73.0277
v  19.7803 90.7827 -69.7706
v  26.9737 87.3791 -71.6414
v  103.7126 39.7908 -89.3570
v  27.9646 88.6554 -69.2727
v  35.6152 85.1217 -70.7650
v  83.1445 55.2001 -82.1289
v  83.8849 55.4930 -80.8550
v  94.3460 48.0097 -83.8454
v  29.4084 89.4037 -65.7478
v  21.6309 92.3559 -64.3920
v  21.7453 92.4206 -63.9508
v  102.9070 42.1686 -86.0614
v  43.8094 80.7548 -72.5512
v  52.9647 75.3860 -74.7369
v  83.2771 54.6863 -82.8805
v  75.7021 60.1409 -80.7452
v  102.0698 41.9496 -87.5797
v  93.4154 47.8555 -85.1027
v  73.6018 61.9880 -79.5475
v  85.0095 55.6665 -79.1443
v  95.4616 48.1717 -81.9794
v  28.7680 89.1222 -67.3817
v  36.4464 85.6219 -68.8976
v  63.5007 69.6499 -75.4052
v  53.7377 75.8965 -72.9168
v  73.5765 62.7776 -78.0464
v  95.2535 48.1496 -82.4540
v  92.8992 47.7642 -85.7207
v  45.2591 81.6664 -69.1177
v  54.3669 76.2466 -71.3462
v  101.5831 41.8068 -88.2052
v  44.6115 81.2946 -70.7060
v  29.5457 89.4617 -65.3102
v  37.2578 86.0086 -66.8548
v  37.1122 85.9463 -67.2873
v  106.3071 40.6084 -84.9197
v  98.6632 36.9081 -91.4473
v  45.4055 81.7334 -68.6921
v  54.5129 76.3083 -70.9283
v  20.4407 91.5250 -67.9691
v  21.1022 92.0395 -66.0485
v  19.6092 90.2593 -70.2307
# 83 vertices

vn 0.2093 0.6269 -0.7505
vn 0.3054 0.7608 -0.5726
vn 0.2657 0.7210 -0.6399
vn 0.0721 0.3702 -0.9262
vn 0.0814 0.4319 -0.8982
vn 0.1338 0.5020 -0.8545
vn 0.5136 0.8468 -0.1387
vn 0.5471 0.8253 -0.1397
vn 0.5414 0.8407 -0.0137
vn 0.4151 0.7926 -0.4466
vn 0.4034 0.7622 -0.5062
vn 0.3047 0.6800 -0.6669
vn 0.4612 0.8259 -0.3244
vn 0.4759 0.8325 -0.2837
vn 0.4864 0.8211 -0.2987
vn 0.4783 0.8076 -0.3449
vn 0.4701 0.8140 -0.3412
vn 0.3642 0.7267 -0.5824
vn 0.2303 0.5972 -0.7683
vn 0.5154 0.8241 -0.2350
vn 0.2099 0.5844 -0.7839
vn 0.1161 0.4724 -0.8737
vn 0.1632 0.5276 -0.8337
vn 0.3968 0.8265 -0.3993
vn 0.4499 0.8432 -0.2942
vn 0.4271 0.8485 -0.3125
vn 0.1558 0.5366 -0.8293
vn 0.0745 0.3714 -0.9255
vn 0.2521 0.6557 -0.7117
vn 0.3566 0.8504 -0.3868
vn 0.3033 0.6894 -0.6579
vn 0.2964 0.6952 -0.6549
vn 0.2115 0.5892 -0.7798
vn 0.3282 0.7596 -0.5616
vn 0.2544 0.6575 -0.7092
vn 0.2782 0.7454 -0.6058
vn 0.2534 0.6926 -0.6753
vn 0.2594 0.7652 -0.5892
vn 0.1959 0.6611 -0.7243
vn 0.2060 0.7513 -0.6270
vn 0.1651 0.6515 -0.7405
vn 0.1875 0.8290 -0.5268
vn 0.1392 0.6657 -0.7331
vn 0.1979 0.6248 -0.7553
vn 0.2900 0.8677 -0.4038
vn 0.3313 0.8429 -0.4241
vn 0.4361 0.7846 -0.4406
vn 0.4450 0.7908 -0.4202
vn 0.4552 0.8013 -0.3884
vn 0.3280 0.9084 -0.2592
vn 0.2709 0.9292 -0.2516
vn 0.2797 0.9368 -0.2101
vn 0.4630 0.8338 -0.3007
vn 0.3624 0.8256 -0.4325
vn 0.3903 0.8133 -0.4315
vn 0.4045 0.7637 -0.5032
vn 0.4165 0.7707 -0.4823
vn 0.4194 0.8029 -0.4237
vn 0.4251 0.7903 -0.4412
vn 0.4394 0.7883 -0.4308
vn 0.4943 0.8137 -0.3060
vn 0.5091 0.8144 -0.2784
vn 0.3151 0.8950 -0.3158
vn 0.3525 0.8669 -0.3524
vn 0.4447 0.8168 -0.3675
vn 0.4150 0.8274 -0.3783
vn 0.4511 0.8007 -0.3941
vn 0.5055 0.8158 -0.2811
vn 0.3670 0.7478 -0.5533
vn 0.4071 0.8581 -0.3130
vn 0.4394 0.8395 -0.3197
vn 0.3421 0.7527 -0.5625
vn 0.3827 0.8411 -0.3823
vn 0.3354 0.9145 -0.2263
vn 0.3783 0.8900 -0.2546
vn 0.3681 0.8833 -0.2902
vn 0.4957 0.8608 -0.1158
vn 0.0805 0.2764 -0.9577
vn 0.4178 0.8643 -0.2799
vn 0.4526 0.8456 -0.2830
vn 0.2334 0.8937 -0.3833
vn 0.2571 0.9188 -0.2994
vn 0.0879 0.6413 -0.7622
# 83 vertex normals

vt 0.6560 0.8111 0.0000
vt 0.6570 0.8097 0.0000
vt 0.6580 0.8102 0.0000
vt 0.6466 0.8171 0.0000
vt 0.6406 0.8113 0.0000
vt 0.6487 0.8101 0.0000
vt 0.6586 0.8022 0.0000
vt 0.6569 0.8002 0.0000
vt 0.6620 0.8023 0.0000
vt 0.5824 0.7565 0.0000
vt 0.5990 0.7700 0.0000
vt 0.5956 0.7705 0.0000
vt 0.5829 0.7495 0.0000
vt 0.5831 0.7489 0.0000
vt 0.6023 0.7627 0.0000
vt 0.6215 0.7787 0.0000
vt 0.6020 0.7633 0.0000
vt 0.6162 0.7842 0.0000
vt 0.6133 0.7847 0.0000
vt 0.6567 0.8011 0.0000
vt 0.6324 0.7985 0.0000
vt 0.6268 0.7991 0.0000
vt 0.6092 0.7844 0.0000
vt 0.6573 0.8085 0.0000
vt 0.6583 0.8048 0.0000
vt 0.6607 0.8056 0.0000
vt 0.6541 0.8135 0.0000
vt 0.6492 0.8168 0.0000
vt 0.6515 0.8081 0.0000
vt 0.6587 0.8093 0.0000
vt 0.6352 0.7969 0.0000
vt 0.5782 0.7579 0.0000
vt 0.5923 0.7710 0.0000
vt 0.5604 0.7466 0.0000
vt 0.5758 0.7588 0.0000
vt 0.5432 0.7367 0.0000
vt 0.5594 0.7477 0.0000
vt 0.5278 0.7286 0.0000
vt 0.5425 0.7379 0.0000
vt 0.5136 0.7221 0.0000
vt 0.5264 0.7297 0.0000
vt 0.4998 0.7170 0.0000
vt 0.5132 0.7235 0.0000
vt 0.6568 0.8116 0.0000
vt 0.5151 0.7190 0.0000
vt 0.5294 0.7254 0.0000
vt 0.6183 0.7829 0.0000
vt 0.6197 0.7808 0.0000
vt 0.6393 0.7933 0.0000
vt 0.5178 0.7130 0.0000
vt 0.5033 0.7087 0.0000
vt 0.5035 0.7081 0.0000
vt 0.6553 0.8036 0.0000
vt 0.5447 0.7336 0.0000
vt 0.5619 0.7435 0.0000
vt 0.6186 0.7847 0.0000
vt 0.6044 0.7729 0.0000
vt 0.6537 0.8060 0.0000
vt 0.6375 0.7951 0.0000
vt 0.6005 0.7685 0.0000
vt 0.6218 0.7781 0.0000
vt 0.6414 0.7905 0.0000
vt 0.5166 0.7158 0.0000
vt 0.5310 0.7222 0.0000
vt 0.5816 0.7520 0.0000
vt 0.5633 0.7404 0.0000
vt 0.6004 0.7654 0.0000
vt 0.6410 0.7912 0.0000
vt 0.6365 0.7960 0.0000
vt 0.5475 0.7276 0.0000
vt 0.5645 0.7378 0.0000
vt 0.6528 0.8071 0.0000
vt 0.5463 0.7303 0.0000
vt 0.5181 0.7123 0.0000
vt 0.5325 0.7187 0.0000
vt 0.5323 0.7194 0.0000
vt 0.6617 0.8034 0.0000
vt 0.6473 0.8180 0.0000
vt 0.5478 0.7269 0.0000
vt 0.5648 0.7371 0.0000
vt 0.5010 0.7142 0.0000
vt 0.5023 0.7113 0.0000
vt 0.4994 0.7181 0.0000
# 83 texture coords

g E232_181C_L_E232_181C_L_1_DaS
usemtl paint_whiteSG
s 1
f 42/2/42 43/3/43 44/4/44 
f 45/5/45 46/6/46 47/7/47 
f 48/8/48 49/9/49 50/10/50 
f 51/11/51 52/12/52 53/13/53 
f 54/14/54 55/15/55 56/16/56 
f 57/17/57 58/18/58 56/16/56 
f 59/19/59 60/20/60 53/13/53 
f 48/8/48 61/21/61 49/9/49 
f 60/20/60 62/22/62 63/23/63 
f 53/13/53 60/20/60 64/24/64 
f 65/25/65 66/26/66 67/27/67 
f 68/28/68 69/29/69 47/7/47 
f 70/30/70 47/7/47 62/22/62 
f 43/3/43 65/25/65 71/31/71 
f 59/19/59 72/32/72 62/22/62 
f 73/33/73 53/13/53 74/34/74 
f 75/35/75 73/33/73 76/36/76 
f 77/37/77 75/35/75 78/38/78 
f 79/39/79 77/37/77 80/40/80 
f 81/41/81 79/39/79 82/42/82 
f 83/43/83 81/41/81 84/44/84 
f 68/28/68 42/2/42 85/45/85 
f 86/46/86 87/47/87 79/39/79 
f 88/48/88 89/49/89 90/50/90 
f 91/51/91 92/52/92 93/53/93 
f 48/8/48 66/26/66 94/54/94 
f 95/55/95 96/56/96 75/35/75 
f 88/48/88 97/57/97 98/58/98 
f 99/59/99 100/60/100 90/50/90 
f 51/11/51 101/61/101 98/58/98 
f 57/17/57 102/62/102 103/63/103 
f 86/46/86 104/64/104 105/65/105 
f 95/55/95 87/47/87 105/65/105 
f 54/14/54 106/66/106 107/67/107 
f 57/17/57 89/49/89 108/68/108 
f 54/14/54 58/18/58 108/68/108 
f 51/11/51 106/66/106 108/68/108 
f 88/48/88 101/61/101 108/68/108 
f 95/55/95 77/37/77 79/39/79 
f 61/21/61 94/54/94 90/50/90 
f 57/17/57 109/69/109 90/50/90 
f 59/19/59 52/12/52 98/58/98 
f 59/19/59 97/57/97 110/70/110 
f 111/71/111 112/72/112 107/67/107 
f 70/30/70 72/32/72 110/70/110 
f 99/59/99 113/73/113 110/70/110 
f 88/48/88 100/60/100 110/70/110 
f 95/55/95 114/74/114 107/67/107 
f 51/11/51 96/56/96 107/67/107 
f 91/51/91 115/75/115 116/76/116 
f 99/59/99 94/54/94 66/26/66 
f 111/71/111 117/77/117 116/76/116 
f 113/73/113 99/59/99 65/25/65 
f 70/30/70 113/73/113 43/3/43 
f 111/71/111 114/74/114 105/65/105 
f 66/26/66 48/8/48 118/78/118 
f 119/79/119 45/5/45 69/29/69 
f 86/46/86 81/41/81 83/43/83 
f 109/69/109 103/63/103 49/9/49 
f 111/71/111 120/80/120 121/81/121 
f 54/14/54 112/72/112 121/81/121 
f 47/7/47 70/30/70 42/2/42 
f 91/51/91 117/77/117 105/65/105 
f 51/11/51 73/33/73 75/35/75 
f 86/46/86 122/82/122 123/83/123 
f 91/51/91 104/64/104 123/83/123 
f 62/22/62 47/7/47 46/6/46 
f 85/45/85 42/2/42 44/4/44 
f 69/29/69 45/5/45 47/7/47 
f 118/78/118 48/8/48 50/10/50 
f 73/33/73 51/11/51 53/13/53 
f 58/18/58 54/14/54 56/16/56 
f 102/62/102 57/17/57 56/16/56 
f 52/12/52 59/19/59 53/13/53 
f 64/24/64 60/20/60 63/23/63 
f 74/34/74 53/13/53 64/24/64 
f 71/31/71 65/25/65 67/27/67 
f 72/32/72 70/30/70 62/22/62 
f 44/4/44 43/3/43 71/31/71 
f 60/20/60 59/19/59 62/22/62 
f 76/36/76 73/33/73 74/34/74 
f 78/38/78 75/35/75 76/36/76 
f 80/40/80 77/37/77 78/38/78 
f 82/42/82 79/39/79 80/40/80 
f 84/44/84 81/41/81 82/42/82 
f 124/84/124 83/43/83 84/44/84 
f 81/41/81 86/46/86 79/39/79 
f 100/60/100 88/48/88 90/50/90 
f 115/75/115 91/51/91 93/53/93 
f 61/21/61 48/8/48 94/54/94 
f 77/37/77 95/55/95 75/35/75 
f 101/61/101 88/48/88 98/58/98 
f 94/54/94 99/59/99 90/50/90 
f 52/12/52 51/11/51 98/58/98 
f 109/69/109 57/17/57 103/63/103 
f 87/47/87 86/46/86 105/65/105 
f 114/74/114 95/55/95 105/65/105 
f 112/72/112 54/14/54 107/67/107 
f 58/18/58 57/17/57 108/68/108 
f 106/66/106 54/14/54 108/68/108 
f 101/61/101 51/11/51 108/68/108 
f 89/49/89 88/48/88 108/68/108 
f 87/47/87 95/55/95 79/39/79 
f 109/69/109 61/21/61 90/50/90 
f 89/49/89 57/17/57 90/50/90 
f 97/57/97 59/19/59 98/58/98 
f 72/32/72 59/19/59 110/70/110 
f 114/74/114 111/71/111 107/67/107 
f 113/73/113 70/30/70 110/70/110 
f 100/60/100 99/59/99 110/70/110 
f 97/57/97 88/48/88 110/70/110 
f 96/56/96 95/55/95 107/67/107 
f 106/66/106 51/11/51 107/67/107 
f 117/77/117 91/51/91 116/76/116 
f 65/25/65 99/59/99 66/26/66 
f 120/80/120 111/71/111 116/76/116 
f 43/3/43 113/73/113 65/25/65 
f 42/2/42 70/30/70 43/3/43 
f 117/77/117 111/71/111 105/65/105 
f 67/27/67 66/26/66 118/78/118 
f 122/82/122 86/46/86 83/43/83 
f 61/21/61 109/69/109 49/9/49 
f 112/72/112 111/71/111 121/81/121 
f 55/15/55 54/14/54 121/81/121 
f 68/28/68 47/7/47 42/2/42 
f 104/64/104 91/51/91 105/65/105 
f 96/56/96 51/11/51 75/35/75 
f 104/64/104 86/46/86 123/83/123 
f 92/52/92 91/51/91 123/83/123 
f 63/23/63 62/22/62 46/6/46 
# 130 faces

#
# object E232_181C_L_E232_181C_L_1_DaS_E
#

v  103.2301 41.4716 -83.7407
v  105.9290 39.6260 -83.7892
v  106.4765 40.4349 -83.9311
v  29.2073 88.5543 -65.1180
v  36.8734 85.1236 -66.6452
v  37.2578 86.0086 -66.8548
v  44.9769 80.8728 -68.4677
v  45.4055 81.7334 -68.6921
v  94.9337 47.3633 -81.7724
v  103.7758 42.2797 -83.8950
v  106.3071 40.6084 -84.9197
v  21.4630 91.4902 -63.7811
v  29.5457 89.4617 -65.3102
v  74.0575 62.2051 -76.0213
v  84.4994 54.8567 -78.9030
v  85.0095 55.6665 -79.1443
v  63.8330 69.1600 -73.2436
v  74.5555 63.0217 -76.2653
v  95.4616 48.1717 -81.9794
v  98.6165 36.6266 -90.5017
v  98.2263 37.1029 -90.3963
v  98.2745 37.4222 -91.3316
v  99.6110 37.1680 -90.2657
v  98.6632 36.9081 -91.4473
v  95.0379 40.0790 -89.2911
v  87.6196 46.5756 -86.8535
v  87.6921 46.9938 -87.7448
v  95.0899 40.4719 -90.1951
v  54.0502 75.4678 -70.6968
v  54.5129 76.3083 -70.9283
v  78.1877 54.4120 -83.8833
v  78.2917 54.8686 -84.7527
v  69.0969 61.5200 -81.1606
v  69.2379 62.0245 -81.9979
v  60.2526 67.9479 -78.6770
v  60.4319 68.5131 -79.4675
v  51.4725 73.8249 -76.2729
v  51.6598 74.4373 -77.0243
v  42.4795 79.0810 -74.0386
v  42.6350 79.6896 -74.8007
v  33.8839 83.4695 -72.2429
v  34.0110 84.0546 -73.0277
v  26.8773 86.7968 -70.8500
v  26.9737 87.3791 -71.6414
v  19.5515 89.6826 -69.4317
v  19.6092 90.2593 -70.2307
v  105.4107 39.6719 -86.1319
v  104.4196 39.3761 -87.9979
v  104.7386 40.2347 -88.3732
v  104.1486 39.3532 -88.2692
v  104.3868 40.1263 -88.8594
v  103.5454 39.1559 -88.6188
v  102.2021 38.5190 -89.4181
v  102.3127 39.0469 -90.2518
v  103.7126 39.7908 -89.3570
v  99.6767 37.5455 -91.1782
v  105.9075 39.7229 -84.7454
v  105.7867 40.5549 -86.3733
v  64.3174 69.9867 -73.4805
v  21.7453 92.4206 -63.9508
# 60 vertices

vn 0.1711 0.0706 0.9827
vn 0.6711 -0.2631 0.6931
vn 0.7346 -0.3987 0.5490
vn 0.2292 0.1194 0.9660
vn 0.2591 0.1147 0.9590
vn 0.2590 0.1143 0.9591
vn 0.2839 0.1071 0.9529
vn 0.2838 0.1070 0.9529
vn 0.2834 0.0580 0.9572
vn 0.1721 0.0733 0.9823
vn 0.8528 -0.4702 -0.2270
vn 0.2121 0.1136 0.9706
vn 0.2290 0.1187 0.9662
vn 0.3187 0.0875 0.9438
vn 0.3164 0.0812 0.9452
vn 0.3168 0.0821 0.9449
vn 0.3109 0.0892 0.9463
vn 0.3187 0.0876 0.9438
vn 0.2846 0.0603 0.9568
vn -0.1732 -0.9384 -0.2991
vn -0.7458 -0.6163 -0.2530
vn -0.7552 -0.6104 -0.2389
vn 0.5279 -0.8033 -0.2758
vn -0.1979 -0.9299 -0.3100
vn -0.6936 -0.6448 -0.3213
vn -0.6712 -0.6479 -0.3601
vn -0.6716 -0.6488 -0.3578
vn -0.6946 -0.6461 -0.3163
vn 0.2998 0.0964 0.9491
vn -0.6468 -0.6397 -0.4154
vn -0.6473 -0.6410 -0.4125
vn -0.6149 -0.6240 -0.4823
vn -0.6158 -0.6259 -0.4787
vn -0.5748 -0.5972 -0.5594
vn -0.5758 -0.5993 -0.5561
vn -0.5275 -0.5899 -0.6113
vn -0.5277 -0.5904 -0.6106
vn -0.4826 -0.6346 -0.6036
vn -0.4820 -0.6335 -0.6053
vn -0.4513 -0.6794 -0.5786
vn -0.4508 -0.6782 -0.5803
vn -0.4182 -0.7066 -0.5708
vn -0.4169 -0.7067 -0.5717
vn -0.3956 -0.7309 -0.5561
vn 0.8346 -0.4457 -0.3237
vn 0.7406 -0.5109 -0.4364
vn 0.7879 -0.4665 -0.4019
vn 0.5872 -0.6218 -0.5183
vn 0.6870 -0.5437 -0.4821
vn 0.5610 -0.6935 -0.4520
vn 0.5604 -0.7366 -0.3785
vn 0.5726 -0.7186 -0.3946
vn 0.6105 -0.6451 -0.4596
vn 0.5440 -0.7843 -0.2982
vn 0.8856 -0.4329 -0.1682
vn 0.8356 -0.4441 -0.3232
vn 0.3108 0.0891 0.9463
vn 0.2119 0.1127 0.9708
vn -0.3911 -0.7179 -0.5759
# 59 vertex normals

vt 0.6559 0.7987 0.0000
vt 0.6610 0.8015 0.0000
vt 0.6620 0.8023 0.0000
vt 0.5175 0.7106 0.0000
vt 0.5318 0.7171 0.0000
vt 0.5325 0.7187 0.0000
vt 0.5470 0.7253 0.0000
vt 0.5478 0.7269 0.0000
vt 0.6404 0.7890 0.0000
vt 0.6569 0.8002 0.0000
vt 0.6617 0.8034 0.0000
vt 0.5030 0.7065 0.0000
vt 0.5181 0.7123 0.0000
vt 0.6014 0.7612 0.0000
vt 0.6209 0.7767 0.0000
vt 0.6218 0.7781 0.0000
vt 0.5822 0.7474 0.0000
vt 0.6023 0.7627 0.0000
vt 0.6414 0.7905 0.0000
vt 0.6472 0.8185 0.0000
vt 0.6465 0.8177 0.0000
vt 0.6466 0.8171 0.0000
vt 0.6491 0.8175 0.0000
vt 0.6473 0.8180 0.0000
vt 0.6405 0.8121 0.0000
vt 0.6266 0.7999 0.0000
vt 0.6268 0.7991 0.0000
vt 0.6406 0.8113 0.0000
vt 0.5639 0.7355 0.0000
vt 0.5648 0.7371 0.0000
vt 0.6090 0.7852 0.0000
vt 0.6092 0.7844 0.0000
vt 0.5920 0.7719 0.0000
vt 0.5923 0.7710 0.0000
vt 0.5755 0.7599 0.0000
vt 0.5758 0.7588 0.0000
vt 0.5591 0.7489 0.0000
vt 0.5594 0.7477 0.0000
vt 0.5422 0.7390 0.0000
vt 0.5425 0.7379 0.0000
vt 0.5262 0.7308 0.0000
vt 0.5264 0.7297 0.0000
vt 0.5131 0.7246 0.0000
vt 0.5132 0.7235 0.0000
vt 0.4993 0.7192 0.0000
vt 0.4994 0.7181 0.0000
vt 0.6600 0.8064 0.0000
vt 0.6581 0.8105 0.0000
vt 0.6587 0.8093 0.0000
vt 0.6576 0.8115 0.0000
vt 0.6580 0.8102 0.0000
vt 0.6565 0.8138 0.0000
vt 0.6539 0.8150 0.0000
vt 0.6541 0.8135 0.0000
vt 0.6568 0.8116 0.0000
vt 0.6492 0.8168 0.0000
vt 0.6609 0.8035 0.0000
vt 0.6607 0.8056 0.0000
vt 0.5831 0.7489 0.0000
vt 0.5035 0.7081 0.0000
# 60 texture coords

g E232_181C_L_E232_181C_L_1_DaS_E
usemtl paint_whiteSG
s 31
f 125/85/125 126/86/126 127/87/127 
f 128/88/128 129/89/129 130/90/130 
f 129/89/129 131/91/131 132/92/132 
f 133/93/133 125/85/125 134/94/134 
s 34
f 135/95/135 127/87/127 126/86/126 
s 31
f 136/96/136 128/88/128 137/97/137 
f 138/98/138 139/99/139 140/100/140 
f 141/101/141 138/98/138 142/102/142 
f 139/99/139 133/93/133 143/103/143 
s 36
f 144/104/144 145/105/145 146/106/146 
s 34
f 147/107/147 144/104/144 148/108/148 
s 36
f 149/109/149 150/110/150 151/111/151 
f 145/105/145 149/109/149 152/112/152 
s 31
f 131/91/131 153/113/153 154/114/153 
s 36
f 150/110/150 155/115/154 156/116/155 
f 155/115/154 157/117/156 158/118/157 
f 157/117/156 159/119/158 160/120/159 
f 159/119/158 161/121/160 162/122/161 
f 161/121/160 163/123/162 164/124/163 
f 163/123/162 165/125/164 166/126/165 
f 165/125/164 167/127/166 168/128/167 
s off
f 167/127/168 169/129/168 170/130/168 
s 34
f 171/131/169 172/132/170 173/133/171 
f 172/132/170 174/134/172 175/135/173 
f 176/136/174 177/137/175 178/138/176 
f 174/134/172 176/136/174 179/139/177 
f 177/137/175 147/107/147 180/140/178 
f 181/141/179 171/131/169 182/142/180 
s 31
f 153/113/153 141/101/141 183/143/181 
f 134/94/134 125/85/125 127/87/127 
f 137/97/137 128/88/128 130/90/130 
f 130/90/130 129/89/129 132/92/132 
f 143/103/143 133/93/133 134/94/134 
s 34
f 181/141/179 135/95/135 126/86/126 
s 31
f 184/144/182 136/96/136 137/97/137 
f 142/102/142 138/98/138 140/100/140 
f 183/143/181 141/101/141 142/102/142 
f 140/100/140 139/99/139 143/103/143 
s 36
f 148/108/148 144/104/144 146/106/146 
s 34
f 180/140/178 147/107/147 148/108/148 
s 36
f 152/112/152 149/109/149 151/111/151 
f 146/106/146 145/105/145 152/112/152 
s 31
f 132/92/132 131/91/131 154/114/153 
s 36
f 151/111/151 150/110/150 156/116/155 
f 156/116/155 155/115/154 158/118/157 
f 158/118/157 157/117/156 160/120/159 
f 160/120/159 159/119/158 162/122/161 
f 162/122/161 161/121/160 164/124/163 
f 164/124/163 163/123/162 166/126/165 
f 166/126/165 165/125/164 168/128/167 
f 168/128/167 167/127/166 170/130/183 
s 34
f 182/142/180 171/131/169 173/133/171 
f 173/133/171 172/132/170 175/135/173 
f 179/139/177 176/136/174 178/138/176 
f 175/135/173 174/134/172 179/139/177 
f 178/138/176 177/137/175 180/140/178 
f 135/95/135 181/141/179 182/142/180 
s 31
f 154/114/153 153/113/153 183/143/181 
# 58 faces

