# 3ds Max Wavefront OBJ Exporter v0.97b - (c)2007 guruware
# File Created: 30.11.2015 12:08:25

mtllib N826_FLOR_C.mtl

#
# object N826_FLOR_C_N_N826_FLOR_C
#

v  -58.0218 -41.9201 -49.1167
v  -111.3016 -41.9201 -61.2841
v  -58.0499 -41.9201 -77.0074
v  -58.5079 -41.9201 -76.9283
v  -60.0936 -41.9201 -76.6545
v  -60.4210 -41.9201 -76.6477
v  -71.6132 -41.9201 -76.5916
v  -83.1349 -41.9201 -76.5228
v  -92.7590 -41.9201 -76.4448
v  -99.1392 -41.9201 -76.4470
v  -106.1079 -41.9201 -76.4493
v  -111.3016 -41.9201 -76.4508
v  -110.4809 -41.9201 -76.4508
v  -111.3016 -41.9201 -75.2357
v  -239.5650 -40.1698 -65.2762
v  -239.6054 -40.1698 -73.5198
v  -201.8094 -42.5062 -61.2841
v  -237.2972 -40.2992 -73.6863
v  -230.5469 -40.6777 -74.1735
v  -222.0490 -41.1541 -74.7868
v  -215.1763 -41.6337 -75.3937
v  -210.1344 -41.9855 -75.8084
v  -206.8048 -42.2179 -76.0566
v  -201.8094 -42.5062 -76.3646
v  -201.8094 -42.5062 -74.8996
v  -202.6898 -42.5062 -76.3646
v  -57.9950 -41.9201 0.0000
v  -111.3016 -41.9201 0.0000
v  -201.8094 -42.5062 0.0000
v  -239.5043 -40.1698 -47.9559
v  -239.5043 -40.1698 -38.0460
v  -239.5044 -40.1698 -16.8816
v  -239.5044 -40.1698 -28.1360
v  -58.0218 -41.9201 49.1167
v  -58.0499 -41.9201 77.0074
v  -111.3016 -41.9201 61.2841
v  -58.5079 -41.9201 76.9283
v  -60.0936 -41.9201 76.6545
v  -60.4210 -41.9201 76.6477
v  -71.6132 -41.9201 76.5916
v  -83.1349 -41.9201 76.5228
v  -92.7590 -41.9201 76.4448
v  -99.1392 -41.9201 76.4469
v  -106.1079 -41.9201 76.4493
v  -111.3016 -41.9201 76.4508
v  -111.3016 -41.9201 75.2357
v  -110.4809 -41.9201 76.4508
v  -239.5246 -40.1698 57.0326
v  -201.8094 -42.5062 61.2841
v  -239.5650 -40.1698 65.2762
v  -239.6054 -40.1698 73.5198
v  -237.2972 -40.2992 73.6863
v  -230.5469 -40.6777 74.1735
v  -222.0490 -41.1541 74.7868
v  -215.1763 -41.6337 75.3937
v  -210.1344 -41.9855 75.8084
v  -206.8048 -42.2179 76.0566
v  -201.8094 -42.5062 76.3646
v  -202.6898 -42.5062 76.3646
v  -201.8094 -42.5062 74.8996
v  -239.5043 -40.1698 38.0460
v  -239.5044 -40.1698 28.1360
v  227.9068 -45.8967 -78.2226
v  227.9068 -45.9593 -78.9121
v  231.2312 -49.7275 -81.6069
v  231.3759 -47.2353 -82.6609
v  227.9068 -46.1473 -79.9801
v  228.3090 -47.2353 -82.7404
v  228.0073 -47.1876 -82.6662
v  227.9068 -47.0445 -82.4989
v  227.9068 -45.8967 -61.2841
v  259.1906 -51.6936 -55.0311
v  227.9068 -45.8967 0.0000
v  260.4834 -51.7570 -50.0203
v  261.4646 -51.7570 -44.4183
v  262.3619 -51.7569 -37.7019
v  263.1021 -51.7570 -30.3401
v  263.6128 -51.7570 -22.8019
v  263.9094 -51.7570 -15.1852
v  264.0077 -51.7569 -7.5877
v  264.0073 -51.7570 0.0000
v  257.3604 -51.5038 -59.9732
v  255.0101 -51.2967 -64.7317
v  252.1593 -51.1819 -69.1924
v  248.6965 -51.0817 -73.1373
v  244.5151 -50.9184 -76.3471
v  240.1597 -50.7249 -78.7825
v  236.1741 -50.5339 -80.4090
v  233.0374 -50.2374 -81.3186
v  227.9068 -45.8967 78.2226
v  231.2312 -49.7275 81.6069
v  227.9068 -45.9593 78.9121
v  231.3759 -47.2353 82.6609
v  227.9068 -46.1473 79.9801
v  228.3090 -47.2353 82.7404
v  228.0073 -47.1876 82.6662
v  227.9068 -47.0445 82.4989
v  227.9068 -45.8967 61.2841
v  259.1906 -51.6936 55.0311
v  260.4834 -51.7569 50.0203
v  261.4646 -51.7570 44.4183
v  262.3619 -51.7570 37.7019
v  263.1021 -51.7570 30.3401
v  263.6128 -51.7570 22.8019
v  263.9094 -51.7570 15.1852
v  264.0077 -51.7570 7.5877
v  257.3604 -51.5038 59.9732
v  255.0101 -51.2967 64.7317
v  252.1593 -51.1820 69.1924
v  248.6965 -51.0817 73.1373
v  244.5151 -50.9184 76.3470
v  240.1597 -50.7249 78.7825
v  236.1741 -50.5339 80.4090
v  233.0374 -50.2374 81.3186
v  132.1636 -41.3461 -61.2841
v  110.1723 -41.3476 -61.3746
v  132.1636 -41.3460 -76.4457
v  127.2506 -41.3461 -76.7474
v  126.4597 -41.3461 -76.7978
v  126.1132 -41.3460 -76.8198
v  124.2853 -41.3461 -76.9228
v  123.6927 -41.1692 -76.9543
v  122.1709 -41.3460 -76.9553
v  114.3705 -41.3444 -76.9127
v  106.5868 -41.3480 -76.8695
v  81.0056 -41.3497 -61.4947
v  97.3507 -41.3450 -76.9044
v  88.1275 -41.3450 -76.9343
v  78.9446 -41.3513 -76.9485
v  50.2497 -41.3519 -61.6213
v  69.1024 -41.3522 -76.9489
v  58.4090 -41.3483 -76.9375
v  51.0502 -41.3483 -77.1192
v  41.5941 -41.3483 -77.3530
v  18.8845 -41.3542 -61.7504
v  28.6555 -41.3483 -77.4731
v  27.9468 -41.3747 -77.4731
v  24.1641 -41.3747 -77.4942
v  20.3815 -41.3747 -77.5154
v  17.0713 -41.3747 -77.5396
v  -10.7555 -41.3563 -61.8724
v  10.4509 -41.3747 -77.5882
v  -3.0379 -41.3747 -77.7466
v  -14.0855 -41.3747 -77.9160
v  -37.3234 -41.3582 -61.9817
v  -21.3563 -41.3747 -77.9414
v  -30.9821 -41.3747 -77.9371
v  -39.8243 -41.3747 -77.9342
v  -56.6493 -41.3596 -62.0613
v  -47.3632 -41.3747 -77.5129
v  -48.1647 -41.3992 -77.4898
v  -56.6493 -41.3596 -75.0718
v  -54.5523 -41.3992 -78.0554
v  -55.4183 -41.4177 -78.0160
v  -56.1324 -41.3650 -77.9930
v  -56.4522 -41.3655 -77.9128
v  -56.5898 -41.3655 -77.6692
v  -56.6493 -41.3596 -77.4174
v  132.1636 -41.3461 0.0000
v  110.1721 -41.3476 0.0000
v  81.0051 -41.3497 0.0000
v  50.2490 -41.3519 0.0000
v  18.8835 -41.3542 0.0000
v  -10.7567 -41.3563 0.0000
v  -37.3232 -41.3582 0.0000
v  -56.6493 -41.3596 0.0000
v  132.1636 -41.3460 61.2841
v  132.1636 -41.3461 76.4457
v  110.1723 -41.3476 61.3746
v  127.2506 -41.3460 76.7474
v  126.4597 -41.3460 76.7978
v  126.1132 -41.3461 76.8198
v  124.2853 -41.3460 76.9228
v  123.6927 -41.1692 76.9543
v  122.1709 -41.3461 76.9553
v  114.3705 -41.3444 76.9126
v  106.5868 -41.3480 76.8695
v  81.0056 -41.3497 61.4947
v  97.3507 -41.3450 76.9044
v  88.1275 -41.3450 76.9343
v  78.9446 -41.3513 76.9485
v  50.2497 -41.3519 61.6213
v  69.1024 -41.3522 76.9489
v  58.4090 -41.3483 76.9375
v  51.0502 -41.3483 77.1193
v  41.5941 -41.3483 77.3530
v  18.8845 -41.3542 61.7504
v  28.6555 -41.3483 77.4731
v  27.9468 -41.3747 77.4731
v  24.1641 -41.3747 77.4942
v  20.3815 -41.3747 77.5154
v  13.7611 -41.3747 77.5639
v  10.4509 -41.3747 77.5882
v  -10.7555 -41.3563 61.8724
v  -3.0379 -41.3747 77.7466
v  -14.0855 -41.3747 77.9160
v  -37.3234 -41.3582 61.9817
v  -21.3563 -41.3747 77.9414
v  -30.9821 -41.3747 77.9371
v  -39.8243 -41.3747 77.9342
v  -56.6493 -41.3596 62.0613
v  -47.3632 -41.3747 77.5129
v  -48.1647 -41.3992 77.4898
v  -56.6493 -41.3596 75.0718
v  -54.5523 -41.3992 78.0554
v  -55.4183 -41.4177 78.0160
v  -56.1324 -41.3650 77.9930
v  -56.4522 -41.3655 77.9128
v  -56.5898 -41.3655 77.6692
v  -56.6493 -41.3596 77.4174
v  17.0713 -41.3747 77.5396
v  13.7611 -41.3747 -77.5639
v  -239.5044 -40.1698 -5.6272
v  -239.5044 -40.1698 5.6272
v  -239.5246 -40.1698 -57.0326
v  -239.5044 -40.1698 16.8816
v  -239.5043 -40.1698 47.9559
# 217 vertices

vn 0.0000 -1.0000 -0.0000
vn 0.0040 -1.0000 -0.0000
vn 0.0000 -1.0000 0.0000
vn -0.0618 -0.9981 0.0003
vn -0.0616 -0.9981 -0.0002
vn -0.0118 -0.9999 -0.0000
vn -0.0570 -0.9983 -0.0145
vn -0.0593 -0.9982 -0.0111
vn -0.0693 -0.9976 0.0039
vn -0.0693 -0.9976 0.0040
vn -0.0643 -0.9979 0.0027
vn -0.0577 -0.9983 0.0016
vn -0.0606 -0.9975 0.0364
vn 0.0042 -1.0000 -0.0000
vn -0.0054 -1.0000 -0.0000
vn -0.0619 -0.9981 0.0000
vn -0.0619 -0.9981 -0.0000
vn -0.0618 -0.9981 -0.0001
vn -0.0136 -0.9999 0.0000
vn -0.0618 -0.9981 -0.0003
vn -0.0616 -0.9981 0.0002
vn -0.0570 -0.9983 0.0145
vn -0.0593 -0.9982 0.0111
vn -0.0693 -0.9976 -0.0039
vn -0.0693 -0.9976 -0.0040
vn -0.0643 -0.9979 -0.0027
vn -0.0606 -0.9975 -0.0364
vn -0.0577 -0.9983 -0.0016
vn -0.7548 -0.6559 0.0010
vn -0.7259 -0.6850 0.0622
vn -0.7551 -0.6556 0.0003
vn -0.7522 -0.2192 -0.6215
vn -0.1723 -0.9701 0.1708
vn -0.1011 -0.9605 0.2593
vn -0.0235 -0.9366 0.3497
vn -0.0125 -0.9309 0.3651
vn -0.0592 -0.9316 0.3586
vn -0.6162 -0.7419 0.2643
vn -0.1813 -0.9834 0.0073
vn -0.1799 -0.9837 0.0033
vn -0.1762 -0.9843 -0.0000
vn -0.1410 -0.9897 0.0241
vn -0.1421 -0.9896 0.0232
vn -0.1481 -0.9888 0.0184
vn -0.1526 -0.9882 0.0138
vn -0.1563 -0.9877 0.0091
vn -0.1588 -0.9873 0.0046
vn -0.1600 -0.9871 0.0012
vn -0.1602 -0.9871 -0.0000
vn -0.1885 -0.9813 0.0384
vn -0.1869 -0.9802 0.0656
vn -0.1790 -0.9782 0.1048
vn -0.1657 -0.9767 0.1366
vn -0.1494 -0.9757 0.1606
vn -0.1322 -0.9754 0.1765
vn -0.1302 -0.9750 0.1801
vn -0.1935 -0.9679 0.1602
vn -0.2888 -0.9483 0.1315
vn -0.7553 -0.6554 -0.0000
vn -0.7548 -0.6559 -0.0010
vn -0.7551 -0.6556 -0.0003
vn -0.7259 -0.6849 -0.0622
vn -0.7522 -0.2192 0.6215
vn -0.1723 -0.9701 -0.1708
vn -0.0235 -0.9366 -0.3497
vn -0.1011 -0.9605 -0.2593
vn -0.0125 -0.9309 -0.3651
vn -0.0591 -0.9316 -0.3586
vn -0.6163 -0.7419 -0.2643
vn -0.1813 -0.9834 -0.0073
vn -0.1799 -0.9837 -0.0033
vn -0.1410 -0.9897 -0.0241
vn -0.1421 -0.9896 -0.0232
vn -0.1481 -0.9888 -0.0184
vn -0.1526 -0.9882 -0.0138
vn -0.1563 -0.9877 -0.0091
vn -0.1588 -0.9873 -0.0046
vn -0.1600 -0.9871 -0.0012
vn -0.1885 -0.9813 -0.0384
vn -0.1869 -0.9802 -0.0656
vn -0.1790 -0.9782 -0.1048
vn -0.1657 -0.9767 -0.1366
vn -0.1494 -0.9757 -0.1606
vn -0.1322 -0.9754 -0.1765
vn -0.1302 -0.9750 -0.1801
vn -0.1935 -0.9679 -0.1602
vn -0.2888 -0.9483 -0.1315
vn -0.0369 -0.9993 -0.0000
vn 0.0001 -1.0000 0.0000
vn 0.0001 -1.0000 -0.0000
vn 0.0000 -1.0000 -0.0001
vn -0.0332 -0.9990 -0.0302
vn -0.0874 -0.9923 -0.0872
vn 0.0374 -0.9989 0.0287
vn 0.0001 -1.0000 -0.0002
vn 0.0001 -1.0000 -0.0001
vn -0.0002 -1.0000 -0.0006
vn 0.0003 -1.0000 -0.0002
vn 0.0002 -1.0000 0.0001
vn -0.0000 -1.0000 -0.0000
vn -0.0003 -1.0000 -0.0004
vn 0.0000 -1.0000 -0.0002
vn 0.0001 -1.0000 -0.0003
vn 0.0001 -1.0000 0.0001
vn 0.0010 -1.0000 0.0002
vn 0.0101 -0.9999 0.0071
vn -0.0000 -1.0000 0.0013
vn 0.0001 -1.0000 0.0002
vn 0.0000 -1.0000 0.0012
vn -0.0000 -1.0000 0.0011
vn 0.0000 -1.0000 0.0011
vn -0.0000 -1.0000 0.0010
vn 0.0000 -1.0000 0.0010
vn -0.0000 -1.0000 0.0001
vn 0.0015 -1.0000 0.0019
vn 0.0032 -1.0000 0.0050
vn -0.0045 -1.0000 0.0008
vn 0.0001 -0.9999 0.0133
vn -0.0083 -0.9998 0.0162
vn -0.0575 -0.9983 -0.0083
vn 0.0022 -1.0000 0.0022
vn 0.0009 -1.0000 0.0023
vn -0.0977 -0.9952 -0.0000
vn -0.0386 -0.9993 -0.0000
vn -0.0475 -0.9989 -0.0000
vn 0.0000 -1.0000 0.0001
vn -0.0332 -0.9990 0.0302
vn -0.0874 -0.9923 0.0872
vn 0.0374 -0.9989 -0.0287
vn -0.0002 -1.0000 0.0006
vn 0.0003 -1.0000 0.0002
vn 0.0002 -1.0000 -0.0001
vn -0.0000 -1.0000 0.0000
vn -0.0003 -1.0000 0.0004
vn 0.0000 -1.0000 0.0002
vn 0.0001 -1.0000 0.0003
vn 0.0010 -1.0000 -0.0002
vn 0.0101 -0.9999 -0.0071
vn -0.0000 -1.0000 -0.0013
vn 0.0000 -1.0000 -0.0012
vn -0.0000 -1.0000 -0.0012
vn 0.0000 -1.0000 -0.0011
vn -0.0000 -1.0000 -0.0010
vn 0.0000 -1.0000 -0.0010
vn -0.0000 -1.0000 -0.0001
vn 0.0015 -1.0000 -0.0019
vn 0.0032 -1.0000 -0.0050
vn -0.0045 -1.0000 -0.0008
vn 0.0001 -0.9999 -0.0133
vn -0.0083 -0.9998 -0.0162
vn -0.0575 -0.9983 0.0083
vn 0.0022 -1.0000 -0.0022
vn 0.0010 -1.0000 -0.0023
vn -0.0978 -0.9952 0.0000
vn -0.0618 -0.9981 0.0002
vn -0.0620 -0.9981 -0.0001
# 156 vertex normals

g N826_FLOR_C_N_N826_FLOR_C
usemtl diffuse_black_plasticSG
s 1
f 1//1 2//2 3//1 
f 3//1 2//2 4//3 
f 4//3 2//2 5//3 
f 5//3 2//2 6//1 
f 6//1 2//2 7//1 
f 7//1 2//2 8//1 
f 8//1 2//2 9//1 
f 9//1 2//2 10//1 
f 10//1 2//2 11//1 
f 12//1 13//1 14//1 
f 2//2 14//1 11//1 
f 14//1 13//1 11//1 
f 15//4 16//5 17//6 
f 16//5 18//7 17//6 
f 18//7 19//7 17//6 
f 19//7 20//8 17//6 
f 20//8 21//9 17//6 
f 21//9 22//10 17//6 
f 22//10 23//11 17//6 
f 24//3 25//12 26//13 
f 26//13 25//12 23//11 
f 23//11 25//12 17//6 
f 27//1 28//14 1//1 
f 1//1 28//14 2//2 
f 28//14 29//15 2//2 
f 2//2 29//15 17//6 
f 17//6 29//15 30//16 
f 30//16 29//15 31//17 
f 29//15 32//17 33//17 
f 34//1 35//1 36//2 
f 35//1 37//1 36//2 
f 37//1 38//1 36//2 
f 38//1 39//1 36//2 
f 39//1 40//1 36//2 
f 40//1 41//1 36//2 
f 41//1 42//1 36//2 
f 42//1 43//1 36//2 
f 43//1 44//1 36//2 
f 45//1 46//1 47//1 
f 36//2 44//1 46//1 
f 44//1 47//1 46//1 
f 48//18 49//19 50//20 
f 51//21 49//19 52//22 
f 52//22 49//19 53//22 
f 53//22 49//19 54//23 
f 54//23 49//19 55//24 
f 55//24 49//19 56//25 
f 56//25 49//19 57//26 
f 58//1 59//27 60//28 
f 59//27 57//26 60//28 
f 49//19 60//28 57//26 
f 27//1 34//1 28//14 
f 28//14 34//1 36//2 
f 28//14 36//2 29//15 
f 29//15 36//2 49//19 
f 49//19 48//18 29//15 
f 61//17 62//17 29//15 
s 12
f 63//29 64//30 65//31 
s off
f 65//32 64//32 66//32 
s 13
f 64//33 67//34 66//35 
f 66//35 67//34 68//36 
f 68//36 67//34 69//37 
s off
f 67//38 70//38 69//38 
s 14
f 71//39 72//40 73//41 
f 72//40 74//42 73//41 
f 74//42 75//43 73//41 
f 75//43 76//44 73//41 
f 76//44 77//45 73//41 
f 77//45 78//46 73//41 
f 78//46 79//47 73//41 
f 79//47 80//48 73//41 
f 73//41 80//48 81//49 
f 72//40 71//39 82//50 
f 82//50 71//39 83//51 
f 83//51 71//39 84//52 
f 84//52 71//39 85//53 
f 85//53 71//39 86//54 
f 86//54 71//39 87//55 
f 87//55 71//39 88//56 
f 88//56 71//39 89//57 
f 89//57 71//39 65//58 
s 12
f 71//59 63//29 65//31 
s 15
f 90//60 91//61 92//62 
s off
f 91//63 93//63 92//63 
s 16
f 92//64 93//65 94//66 
f 93//65 95//67 94//66 
f 95//67 96//68 94//66 
s off
f 96//69 97//69 94//69 
s 14
f 98//70 73//41 99//71 
f 99//71 73//41 100//72 
f 100//72 73//41 101//73 
f 101//73 73//41 102//74 
f 102//74 73//41 103//75 
f 103//75 73//41 104//76 
f 104//76 73//41 105//77 
f 105//77 73//41 106//78 
f 73//41 81//49 106//78 
f 99//71 107//79 98//70 
f 107//79 108//80 98//70 
f 108//80 109//81 98//70 
f 109//81 110//82 98//70 
f 110//82 111//83 98//70 
f 111//83 112//84 98//70 
f 112//84 113//85 98//70 
f 113//85 114//86 98//70 
f 114//86 91//87 98//70 
s 15
f 91//61 90//60 98//59 
s 18
f 115//88 116//89 117//90 
f 117//90 116//89 118//91 
f 118//91 116//89 119//91 
f 119//91 116//89 120//91 
f 120//91 116//89 121//92 
f 121//92 116//89 122//93 
f 122//93 116//89 123//94 
f 123//94 116//89 124//95 
f 124//95 116//89 125//96 
f 116//89 126//89 125//96 
f 125//96 126//89 127//97 
f 127//97 126//89 128//98 
f 128//98 126//89 129//99 
f 126//89 130//90 129//99 
f 129//99 130//90 131//100 
f 131//100 130//90 132//101 
f 132//101 130//90 133//102 
f 133//102 130//90 134//103 
f 130//90 135//104 134//103 
f 134//103 135//104 136//105 
f 136//105 135//104 137//106 
f 137//106 135//104 138//107 
f 139//107 135//104 140//107 
f 135//104 141//108 142//109 
f 142//109 141//108 143//110 
f 143//110 141//108 144//111 
f 141//108 145//108 144//111 
f 144//111 145//108 146//112 
f 146//112 145//108 147//113 
f 147//113 145//108 148//113 
f 145//108 149//114 148//113 
f 148//113 149//114 150//115 
f 150//115 149//114 151//116 
f 149//114 152//117 151//116 
f 151//116 152//117 153//118 
f 153//118 152//117 154//119 
f 154//119 152//117 155//120 
f 155//120 152//117 156//121 
f 156//121 152//117 157//122 
f 152//117 158//123 157//122 
f 159//124 115//88 73//125 
f 73//125 115//88 71//125 
f 116//89 115//88 160//90 
f 160//90 115//88 159//124 
f 126//89 116//89 161//90 
f 161//90 116//89 160//90 
f 130//90 126//89 162//90 
f 162//90 126//89 161//90 
f 135//104 130//90 163//90 
f 163//90 130//90 162//90 
f 141//108 135//104 164//90 
f 164//90 135//104 163//90 
f 145//108 141//108 165//90 
f 165//90 141//108 164//90 
f 149//114 145//108 166//90 
f 166//90 145//108 165//90 
f 167//88 168//89 169//90 
f 168//89 170//126 169//90 
f 170//126 171//126 169//90 
f 171//126 172//126 169//90 
f 172//126 173//127 169//90 
f 173//127 174//128 169//90 
f 174//128 175//129 169//90 
f 175//129 176//108 169//90 
f 176//108 177//104 169//90 
f 169//90 177//104 178//90 
f 177//104 179//130 178//90 
f 179//130 180//131 178//90 
f 180//131 181//132 178//90 
f 178//90 181//132 182//89 
f 181//132 183//133 182//89 
f 183//133 184//134 182//89 
f 184//134 185//135 182//89 
f 185//135 186//136 182//89 
f 182//89 186//136 187//96 
f 186//136 188//137 187//96 
f 188//137 189//138 187//96 
f 190//139 191//139 187//96 
f 192//139 193//140 187//96 
f 187//96 193//140 194//95 
f 193//140 195//141 194//95 
f 195//141 196//142 194//95 
f 194//95 196//142 197//95 
f 196//142 198//143 197//95 
f 198//143 199//144 197//95 
f 199//144 200//144 197//95 
f 197//95 200//144 201//145 
f 200//144 202//146 201//145 
f 202//146 203//147 201//145 
f 201//145 203//147 204//148 
f 203//147 205//149 204//148 
f 205//149 206//150 204//148 
f 206//150 207//151 204//148 
f 207//151 208//152 204//148 
f 208//152 209//153 204//148 
f 204//148 209//153 210//154 
f 159//124 73//125 167//88 
f 167//88 73//125 98//125 
f 159//124 167//88 160//90 
f 160//90 167//88 169//90 
f 160//90 169//90 161//90 
f 161//90 169//90 178//90 
f 161//90 178//90 162//90 
f 162//90 178//90 182//89 
f 162//90 182//89 163//90 
f 163//90 182//89 187//96 
f 163//90 187//96 164//90 
f 164//90 187//96 194//95 
f 164//90 194//95 165//90 
f 165//90 194//95 197//95 
f 165//90 197//95 166//90 
f 166//90 197//95 201//145 
f 211//139 192//139 187//96 
f 191//139 211//139 187//96 
f 189//138 190//139 187//96 
f 140//107 135//104 212//107 
f 212//107 135//104 142//109 
f 138//107 135//104 139//107 
s 1
f 29//15 213//17 32//17 
f 214//17 214//17 29//15 
f 214//17 213//17 29//15 
f 31//17 29//15 33//17 
f 215//155 15//4 17//6 
f 30//16 215//155 17//6 
f 29//15 216//17 214//17 
f 29//15 62//17 216//17 
f 217//156 61//17 29//15 
f 48//18 217//156 29//15 
f 50//20 49//19 51//21 
# 236 faces

