# 3ds Max Wavefront OBJ Exporter v0.97b - (c)2007 guruware
# File Created: 02.11.2015 16:22:46

mtllib X4131_304H_L.mtl

#
# object X4131_304H_L_DTaSI_X4131_304H_L
#

v  -105.6740 48.9133 -83.9580
v  -105.9022 46.7242 -84.8581
v  -113.8601 49.1798 -83.9501
v  -114.1843 46.9251 -84.8780
v  -119.8078 54.0315 -82.0315
v  -120.4295 49.3478 -83.9330
v  -126.2444 49.6395 -83.8660
v  -126.3493 47.2442 -84.8123
v  -126.0457 53.8823 -82.1102
v  -112.9286 54.1642 -81.9456
v  -118.0749 61.3057 -78.7404
v  -118.9833 57.7496 -80.3158
v  -125.3549 60.6821 -78.9869
v  -125.7408 57.3787 -80.4761
v  -110.3680 61.8749 -78.5282
v  -111.6942 58.0985 -80.1649
v  -104.1310 52.2368 -82.6188
v  -104.6632 57.3417 -80.4788
v  -103.7811 48.8800 -83.9354
v  -116.8157 65.9253 -76.7871
v  -124.7797 64.9416 -77.1498
v  -115.4133 70.9762 -74.6325
v  -124.1264 69.5843 -75.1203
v  -106.2479 72.5429 -74.0996
v  -108.5586 66.7880 -76.4981
v  -114.0760 75.8262 -72.4530
v  -106.7118 76.9927 -72.1091
v  -123.8004 74.0014 -73.0637
v  -105.1373 61.8893 -78.5324
v  -105.6736 67.0341 -76.4163
v  -132.7251 47.3780 -84.8181
v  -132.2443 49.6603 -83.9014
v  -133.0949 59.9554 -79.3128
v  -132.9208 56.9468 -80.6877
v  -132.6215 53.6975 -82.2193
v  -133.2136 63.7841 -77.6351
v  -133.3020 67.9335 -75.7791
v  -120.6829 47.0824 -84.8587
v  -103.5503 46.6671 -84.8389
v  -135.6482 49.1993 -84.0993
v  -134.9461 47.4271 -84.8212
v  -136.8433 52.3085 -82.8712
v  -137.7162 54.7440 -81.7376
v  -138.3810 56.8256 -80.7498
v  -138.9742 58.9357 -79.7791
v  -139.4280 60.9345 -78.8833
v  -139.6194 62.9960 -77.9690
v  -138.8697 65.9726 -76.6284
v  -138.0430 66.9194 -76.2022
v  -136.7620 68.0162 -75.6900
v  -139.3736 65.0302 -77.0508
v  -135.1711 69.0924 -75.1936
v  -133.1519 70.2263 -74.6767
v  -130.9462 71.2916 -74.2122
v  -126.2847 73.1584 -73.4067
v  -128.3255 72.3895 -73.7363
v  -121.3396 74.8229 -72.7137
v  -118.4159 75.7041 -72.3634
v  -113.4564 77.0535 -71.8462
v  -107.7279 78.4571 -71.3379
v  -106.8830 78.6355 -71.2781
# 61 vertices

vn 0.0116 0.3728 -0.9278
vn 0.0125 0.3792 -0.9252
vn 0.0088 0.3746 -0.9272
vn 0.0094 0.3792 -0.9253
vn 0.0037 0.3958 -0.9183
vn 0.0070 0.3757 -0.9267
vn 0.0063 0.3760 -0.9266
vn 0.0069 0.3689 -0.9294
vn 0.0029 0.4022 -0.9155
vn 0.0092 0.3916 -0.9201
vn -0.0037 0.3970 -0.9178
vn -0.0008 0.4120 -0.9112
vn -0.0015 0.4026 -0.9154
vn 0.0002 0.4171 -0.9089
vn -0.0034 0.3904 -0.9207
vn 0.0037 0.4021 -0.9156
vn 0.0092 0.3818 -0.9242
vn 0.0002 0.3897 -0.9210
vn 0.0174 0.3724 -0.9279
vn -0.0079 0.3928 -0.9196
vn -0.0049 0.3990 -0.9169
vn -0.0150 0.4044 -0.9144
vn -0.0116 0.4110 -0.9115
vn -0.0162 0.3995 -0.9166
vn -0.0088 0.3871 -0.9220
vn -0.0211 0.4189 -0.9078
vn -0.0241 0.4178 -0.9082
vn -0.0172 0.4214 -0.9067
vn -0.0022 0.3882 -0.9216
vn -0.0065 0.3836 -0.9235
vn 0.0073 0.3721 -0.9282
vn 0.0051 0.3795 -0.9252
vn 0.0006 0.4074 -0.9132
vn 0.0016 0.4210 -0.9071
vn 0.0045 0.4054 -0.9141
vn -0.0020 0.4046 -0.9145
vn -0.0068 0.4130 -0.9107
vn 0.0048 0.3778 -0.9259
vn 0.0168 0.3794 -0.9251
vn 0.0099 0.3781 -0.9257
vn 0.0097 0.3805 -0.9247
vn 0.0118 0.3952 -0.9185
vn 0.0012 0.4262 -0.9046
vn 0.0009 0.4227 -0.9063
vn 0.0010 0.4133 -0.9106
vn -0.0004 0.4052 -0.9142
vn -0.0027 0.4083 -0.9128
vn -0.0039 0.4103 -0.9119
vn -0.0088 0.4198 -0.9076
vn -0.0128 0.4351 -0.9003
vn -0.0071 0.4121 -0.9111
vn -0.0129 0.4342 -0.9007
vn -0.0181 0.4342 -0.9006
vn -0.0134 0.4282 -0.9036
vn -0.0473 0.4930 -0.8688
vn -0.0157 0.4290 -0.9032
vn -0.0725 0.5669 -0.8206
vn -0.0313 0.4628 -0.8859
vn -0.0307 0.4546 -0.8902
vn -0.0364 0.4681 -0.8829
vn -0.0308 0.4486 -0.8932
# 61 vertex normals

vt 0.8495 0.8277 0.0000
vt 0.8504 0.8184 0.0000
vt 0.8819 0.8286 0.0000
vt 0.8832 0.8189 0.0000
vt 0.9055 0.8491 0.0000
vt 0.9079 0.8291 0.0000
vt 0.9309 0.8302 0.0000
vt 0.9312 0.8200 0.0000
vt 0.9302 0.8483 0.0000
vt 0.8783 0.8498 0.0000
vt 0.8988 0.8807 0.0000
vt 0.9023 0.8653 0.0000
vt 0.9276 0.8779 0.0000
vt 0.9290 0.8636 0.0000
vt 0.8683 0.8832 0.0000
vt 0.8735 0.8669 0.0000
vt 0.8435 0.8419 0.0000
vt 0.8457 0.8638 0.0000
vt 0.8421 0.8277 0.0000
vt 0.8939 0.9005 0.0000
vt 0.9254 0.8962 0.0000
vt 0.8885 0.9222 0.0000
vt 0.9229 0.9163 0.0000
vt 0.8523 0.9289 0.0000
vt 0.8613 0.9043 0.0000
vt 0.8833 0.9433 0.0000
vt 0.8542 0.9482 0.0000
vt 0.9217 0.9355 0.0000
vt 0.8477 0.8833 0.0000
vt 0.8499 0.9053 0.0000
vt 0.9565 0.8204 0.0000
vt 0.9546 0.8301 0.0000
vt 0.9581 0.8746 0.0000
vt 0.9574 0.8615 0.0000
vt 0.9562 0.8474 0.0000
vt 0.9587 0.8911 0.0000
vt 0.9591 0.9091 0.0000
vt 0.9088 0.8194 0.0000
vt 0.8411 0.8182 0.0000
vt 0.9680 0.8280 0.0000
vt 0.9652 0.8205 0.0000
vt 0.9728 0.8412 0.0000
vt 0.9763 0.8518 0.0000
vt 0.9790 0.8609 0.0000
vt 0.9814 0.8701 0.0000
vt 0.9832 0.8787 0.0000
vt 0.9840 0.8876 0.0000
vt 0.9811 0.9005 0.0000
vt 0.9778 0.9046 0.0000
vt 0.9728 0.9094 0.0000
vt 0.9831 0.8964 0.0000
vt 0.9665 0.9142 0.0000
vt 0.9586 0.9191 0.0000
vt 0.9499 0.9237 0.0000
vt 0.9315 0.9319 0.0000
vt 0.9395 0.9285 0.0000
vt 0.9119 0.9391 0.0000
vt 0.9004 0.9429 0.0000
vt 0.8808 0.9487 0.0000
vt 0.8582 0.9547 0.0000
vt 0.8549 0.9554 0.0000
# 61 texture coords

g X4131_304H_L_DTaSI_X4131_304H_L
usemtl windowglass_1SG
s 1
f 1/1/1 2/2/2 3/3/3 
f 2/2/2 4/4/4 3/3/3 
f 5/5/5 6/6/6 7/7/7 
f 7/7/7 6/6/6 8/8/8 
f 9/9/9 5/5/5 7/7/7 
f 10/10/10 3/3/3 5/5/5 
f 5/5/5 3/3/3 6/6/6 
f 11/11/11 12/12/12 13/13/13 
f 12/12/12 14/14/14 13/13/13 
f 15/15/15 16/16/16 11/11/11 
f 12/12/12 11/11/11 16/16/16 
f 16/16/16 10/10/10 12/12/12 
f 12/12/12 10/10/10 5/5/5 
f 12/12/12 5/5/5 14/14/14 
f 5/5/5 9/9/9 14/14/14 
f 17/17/17 10/10/10 16/16/16 
f 17/17/17 16/16/16 18/18/18 
f 16/16/16 15/15/15 18/18/18 
f 1/1/1 17/17/17 19/19/19 
f 17/17/17 1/1/1 10/10/10 
f 1/1/1 3/3/3 10/10/10 
f 20/20/20 11/11/11 21/21/21 
f 11/11/11 13/13/13 21/21/21 
f 22/22/22 20/20/20 23/23/23 
f 20/20/20 21/21/21 23/23/23 
f 24/24/24 25/25/25 22/22/22 
f 20/20/20 22/22/22 25/25/25 
f 25/25/25 15/15/15 20/20/20 
f 20/20/20 15/15/15 11/11/11 
f 22/22/22 26/26/26 24/24/24 
f 26/26/26 27/27/27 24/24/24 
f 26/26/26 22/22/22 28/28/28 
f 22/22/22 23/23/23 28/28/28 
f 15/15/15 25/25/25 29/29/29 
f 25/25/25 30/30/30 29/29/29 
f 30/30/30 25/25/25 24/24/24 
f 31/31/31 32/32/32 8/8/8 
f 32/32/32 7/7/7 8/8/8 
f 13/13/13 14/14/14 33/33/33 
f 34/34/34 33/33/33 14/14/14 
f 14/14/14 9/9/9 34/34/34 
f 34/34/34 9/9/9 35/35/35 
f 35/35/35 9/9/9 32/32/32 
f 9/9/9 7/7/7 32/32/32 
f 21/21/21 13/13/13 36/36/36 
f 36/36/36 13/13/13 33/33/33 
f 23/23/23 21/21/21 37/37/37 
f 36/36/36 37/37/37 21/21/21 
f 6/6/6 38/38/38 8/8/8 
f 3/3/3 4/4/4 6/6/6 
f 4/4/4 38/38/38 6/6/6 
f 39/39/39 2/2/2 19/19/19 
f 2/2/2 1/1/1 19/19/19 
f 32/32/32 31/31/31 40/40/40 
f 31/31/31 41/41/41 40/40/40 
f 42/42/42 35/35/35 40/40/40 
f 35/35/35 32/32/32 40/40/40 
f 43/43/43 35/35/35 42/42/42 
f 44/44/44 34/34/34 43/43/43 
f 34/34/34 35/35/35 43/43/43 
f 33/33/33 34/34/34 45/45/45 
f 34/34/34 44/44/44 45/45/45 
f 45/45/45 46/46/46 33/33/33 
f 33/33/33 46/46/46 36/36/36 
f 36/36/36 46/46/46 47/47/47 
f 48/48/48 49/49/49 37/37/37 
f 49/49/49 50/50/50 37/37/37 
f 47/47/47 48/48/48 36/36/36 
f 36/36/36 48/48/48 37/37/37 
f 47/47/47 51/51/51 48/48/48 
f 50/50/50 52/52/52 37/37/37 
f 52/52/52 53/53/53 37/37/37 
f 53/53/53 54/54/54 37/37/37 
f 28/28/28 54/54/54 55/55/55 
f 54/54/54 56/56/56 55/55/55 
f 37/37/37 54/54/54 23/23/23 
f 23/23/23 54/54/54 28/28/28 
f 57/57/57 58/58/58 28/28/28 
f 28/28/28 58/58/58 26/26/26 
f 26/26/26 58/58/58 59/59/59 
f 29/29/29 18/18/18 15/15/15 
f 60/60/60 61/61/61 59/59/59 
f 26/26/26 59/59/59 27/27/27 
f 61/61/61 27/27/27 59/59/59 
# 84 faces

