# 3ds Max Wavefront OBJ Exporter v0.97b - (c)2007 guruware
# File Created: 02.11.2015 16:19:21

mtllib X4131_182C_C.mtl

#
# object X4131_182C_C_D_X4131_182C_C
#

v  138.3504 39.4757 0.0000
v  137.8449 39.4831 12.1560
v  140.8766 41.0148 12.2514
v  139.8160 41.0446 23.9278
v  136.8363 39.4983 23.8701
v  135.3202 39.6130 34.9732
v  138.3488 41.1343 35.0387
v  136.5058 41.3514 44.9735
v  133.4482 39.8706 44.9735
v  131.0773 40.4316 53.3932
v  134.1125 41.8457 53.6265
v  131.7215 42.4322 60.6696
v  128.7587 41.0699 60.2469
v  129.4205 43.0619 66.1972
v  126.4464 41.7777 65.7988
v  126.9216 43.6855 71.3585
v  124.3349 42.3920 70.0280
v  126.3574 43.8674 72.7823
v  123.0114 42.6222 72.1656
v  141.4303 40.9942 0.1052
v  142.0891 44.4004 32.5462
v  139.3582 43.6222 44.2805
v  140.1684 44.3079 43.7100
v  138.0167 44.1623 52.1167
v  137.1699 43.5283 52.8144
v  138.7443 42.9186 44.5112
v  135.7001 43.9447 58.3347
v  136.2135 42.7663 53.2202
v  135.2199 42.2633 53.5026
v  138.0128 42.2814 44.7486
v  137.2108 41.6043 44.9136
v  134.6610 41.9750 53.6295
v  132.6840 42.7116 61.0014
v  133.1429 42.9593 61.0055
v  132.1663 42.4993 60.9120
v  133.9252 43.8471 62.0075
v  134.0199 43.3731 60.3991
v  132.0562 43.7733 65.2785
v  132.4366 43.3308 63.2427
v  128.0415 43.7087 70.8368
v  130.1787 43.6969 68.0209
v  129.9732 43.1018 66.2582
v  131.0322 43.2183 65.1712
v  131.8196 42.3965 60.7366
v  129.4232 43.0474 66.5768
v  141.2768 40.9189 12.0388
v  141.6826 41.3069 11.8799
v  141.6959 40.9192 0.1052
v  142.0959 41.3173 0.1052
v  140.1585 40.9610 23.8556
v  140.6104 41.3291 23.5902
v  139.0389 41.4177 34.7999
v  138.5425 41.0815 34.8948
v  142.2802 42.0225 11.5565
v  142.6671 42.0322 0.1052
v  142.9464 42.9007 11.2903
v  143.3184 42.9167 0.1052
v  141.2742 42.0498 23.2143
v  142.0229 42.9379 22.6616
v  143.6138 43.8043 10.9396
v  144.4712 44.5896 10.7523
v  143.9587 43.8233 0.1052
v  144.8097 44.6051 0.0000
v  142.6844 43.8211 22.3002
v  143.4973 44.4961 21.9602
v  141.1620 43.7031 33.7447
v  140.6336 43.0939 34.2630
v  139.8195 42.1671 34.5496
v  140.8766 41.0148 -12.0410
v  137.8449 39.4831 -12.1560
v  139.8160 41.0446 -23.7174
v  136.8363 39.4983 -23.8701
v  135.3202 39.6130 -34.9732
v  138.3488 41.1343 -34.8283
v  136.5058 41.3514 -44.7631
v  133.4482 39.8706 -44.9735
v  131.0773 40.4316 -53.3932
v  134.1125 41.8457 -53.4161
v  131.7215 42.4322 -60.4592
v  128.7587 41.0699 -60.2469
v  129.4205 43.0619 -65.9868
v  126.4464 41.7777 -65.7988
v  126.9216 43.6855 -71.1481
v  124.3349 42.3920 -70.0280
v  126.3574 43.8674 -72.7823
v  123.3240 42.6222 -72.0604
v  142.0891 44.4004 -32.5462
v  140.1684 44.3079 -43.7100
v  139.3582 43.6222 -44.0701
v  138.0167 44.1623 -52.1167
v  137.1699 43.5283 -52.6040
v  138.7443 42.9186 -44.3008
v  135.7001 43.9447 -58.3347
v  136.2135 42.7663 -53.0098
v  135.2199 42.2633 -53.2922
v  137.2108 41.6043 -44.7031
v  138.0128 42.2814 -44.5381
v  134.6610 41.9750 -53.4191
v  132.6840 42.7116 -60.7910
v  133.1429 42.9593 -60.7951
v  132.1663 42.4993 -60.7016
v  133.9252 43.8471 -62.0075
v  134.0199 43.3731 -60.1887
v  132.0562 43.7733 -65.2785
v  132.4366 43.3308 -63.0322
v  128.0415 43.7087 -70.8368
v  129.9732 43.1018 -66.0478
v  130.1787 43.6969 -68.0209
v  131.0322 43.2183 -64.9608
v  131.8196 42.3965 -60.5262
v  129.4232 43.0474 -66.3664
v  141.2768 40.9189 -11.8284
v  141.6826 41.3069 -11.6695
v  140.1585 40.9610 -23.6452
v  140.6104 41.3291 -23.3798
v  139.0389 41.4177 -34.5895
v  138.5425 41.0815 -34.6844
v  142.2802 42.0225 -11.3461
v  142.9464 42.9007 -11.0799
v  141.2742 42.0498 -23.0039
v  142.0229 42.9379 -22.4512
v  143.6138 43.8043 -10.7292
v  144.4712 44.5896 -10.7523
v  142.6844 43.8211 -22.0898
v  143.4973 44.4961 -21.9602
v  141.1620 43.7031 -33.5343
v  140.6336 43.0939 -34.0526
v  139.8195 42.1671 -34.3392
# 128 vertices

vn -0.4437 0.8962 0.0004
vn -0.4508 0.8921 -0.0310
vn -0.4492 0.8929 -0.0309
vn -0.4582 0.8872 -0.0534
vn -0.4580 0.8873 -0.0548
vn -0.4446 0.8916 -0.0866
vn -0.4470 0.8906 -0.0838
vn -0.4334 0.8917 -0.1306
vn -0.4290 0.8926 -0.1389
vn -0.4002 0.8960 -0.1927
vn -0.4062 0.8943 -0.1878
vn -0.3819 0.8951 -0.2302
vn -0.3751 0.8965 -0.2358
vn -0.3551 0.8958 -0.2672
vn -0.3448 0.8986 -0.2713
vn -0.3261 0.9050 -0.2731
vn -0.3036 0.9104 -0.2811
vn -0.3072 0.9142 -0.2641
vn -0.2896 0.9159 -0.2780
vn -0.4422 0.8969 -0.0004
vn -0.6676 0.7395 -0.0865
vn -0.7331 0.6635 -0.1495
vn -0.6908 0.7122 -0.1249
vn -0.6805 0.7110 -0.1774
vn -0.6722 0.7108 -0.2070
vn -0.7234 0.6726 -0.1559
vn -0.5387 0.8166 -0.2072
vn -0.5825 0.7868 -0.2041
vn -0.4888 0.8508 -0.1930
vn -0.6641 0.7304 -0.1597
vn -0.5347 0.8320 -0.1478
vn -0.3640 0.9161 -0.1679
vn -0.3972 0.8930 -0.2117
vn -0.5097 0.8248 -0.2450
vn -0.2862 0.9398 -0.1870
vn -0.5221 0.8092 -0.2695
vn -0.5573 0.7934 -0.2448
vn -0.4469 0.8523 -0.2717
vn -0.4828 0.8304 -0.2782
vn -0.1357 0.9713 -0.1953
vn -0.3536 0.8971 -0.2650
vn -0.2905 0.9285 -0.2313
vn -0.3930 0.8820 -0.2600
vn -0.2305 0.9643 -0.1301
vn -0.0924 0.9882 -0.1221
vn -0.0530 0.9885 -0.1415
vn -0.0992 0.9799 -0.1732
vn -0.6994 0.7130 -0.0489
vn -0.7492 0.6606 -0.0481
vn -0.7052 0.7090 -0.0000
vn -0.7533 0.6577 -0.0000
vn -0.6578 0.7482 -0.0866
vn -0.7200 0.6887 -0.0858
vn -0.6592 0.7428 -0.1172
vn -0.3479 0.9300 -0.1185
vn -0.5723 0.8115 -0.1181
vn 0.2414 0.9702 0.0215
vn 0.2417 0.9701 0.0226
vn 0.2831 0.9586 0.0301
vn 0.2846 0.9581 0.0313
vn -0.7906 0.6106 -0.0468
vn -0.7944 0.6075 -0.0000
vn -0.8076 0.5878 -0.0473
vn -0.8108 0.5853 -0.0000
vn -0.7730 0.6284 -0.0872
vn -0.8002 0.5937 -0.0847
vn -0.7478 0.6626 -0.0409
vn -0.6791 0.7332 -0.0347
vn -0.7488 0.6628 -0.0006
vn -0.6764 0.7365 0.0012
vn -0.7422 0.6658 -0.0763
vn -0.6543 0.7536 -0.0635
vn -0.7350 0.6694 -0.1078
vn -0.7782 0.6169 -0.1177
vn -0.7376 0.6650 -0.1174
vn 0.3325 0.9425 0.0335
vn 0.3243 0.9455 0.0298
vn 0.2390 0.9710 0.0119
vn 0.2704 0.9627 -0.0000
vn 0.2411 0.9704 0.0158
vn 0.2715 0.9624 -0.0000
vn 0.2851 0.9580 0.0319
vn -0.0966 0.9818 -0.1637
vn -0.4509 0.8921 0.0306
vn -0.4526 0.8912 0.0315
vn -0.4611 0.8857 0.0532
vn -0.4610 0.8856 0.0557
vn -0.4493 0.8890 0.0880
vn -0.4517 0.8882 0.0839
vn -0.4407 0.8881 0.1307
vn -0.4367 0.8884 0.1419
vn -0.4109 0.8903 0.1963
vn -0.4167 0.8890 0.1899
vn -0.3950 0.8886 0.2334
vn -0.3882 0.8895 0.2410
vn -0.3703 0.8880 0.2726
vn -0.3601 0.8907 0.2776
vn -0.3450 0.8984 0.2717
vn -0.3236 0.9041 0.2792
vn -0.3358 0.9105 0.2412
vn -0.3133 0.9136 0.2593
vn -0.6552 0.7506 0.0854
vn -0.6726 0.7297 0.1236
vn -0.7210 0.6775 0.1453
vn -0.6531 0.7375 0.1718
vn -0.6577 0.7261 0.2004
vn -0.7234 0.6726 0.1559
vn -0.5055 0.8410 0.1930
vn -0.5825 0.7868 0.2041
vn -0.4888 0.8508 0.1930
vn -0.5347 0.8320 0.1478
vn -0.6641 0.7304 0.1597
vn -0.3640 0.9161 0.1679
vn -0.3972 0.8930 0.2117
vn -0.5097 0.8248 0.2450
vn -0.2862 0.9398 0.1870
vn -0.4775 0.8439 0.2448
vn -0.5389 0.8088 0.2353
vn -0.4105 0.8779 0.2464
vn -0.4599 0.8480 0.2635
vn -0.0982 0.9799 0.1738
vn -0.2810 0.9339 0.2210
vn -0.3262 0.9133 0.2439
vn -0.3775 0.8923 0.2477
vn -0.2305 0.9643 0.1301
vn -0.0924 0.9882 0.1221
vn -0.0513 0.9893 0.1365
vn -0.0601 0.9872 0.1477
vn -0.6994 0.7130 0.0489
vn -0.7492 0.6606 0.0481
vn -0.6578 0.7482 0.0866
vn -0.7200 0.6887 0.0858
vn -0.3479 0.9300 0.1185
vn -0.6592 0.7428 0.1172
vn -0.5723 0.8115 0.1181
vn 0.2414 0.9702 -0.0215
vn 0.2831 0.9586 -0.0301
vn 0.2417 0.9701 -0.0226
vn 0.2846 0.9581 -0.0313
vn -0.7906 0.6105 0.0468
vn -0.8076 0.5878 0.0473
vn -0.7730 0.6284 0.0872
vn -0.8002 0.5937 0.0847
vn -0.7452 0.6656 0.0398
vn -0.6745 0.7374 0.0363
vn -0.7367 0.6721 0.0750
vn -0.6448 0.7617 0.0640
vn -0.7258 0.6797 0.1058
vn -0.7782 0.6169 0.1177
vn -0.7376 0.6650 0.1174
vn 0.3325 0.9425 -0.0335
vn 0.3243 0.9455 -0.0298
vn 0.2390 0.9710 -0.0119
vn 0.2411 0.9704 -0.0158
vn 0.2851 0.9580 -0.0319
vn -0.0565 0.9899 0.1297
# 156 vertex normals

g X4131_182C_C_D_X4131_182C_C
usemtl diffuse_black_plasticSG
s 1
f 1//1 2//2 3//3 
f 3//3 2//2 4//4 
f 5//5 4//4 2//2 
f 6//6 7//7 5//5 
f 7//7 4//4 5//5 
f 7//7 6//6 8//8 
f 9//9 8//8 6//6 
f 10//10 11//11 9//9 
f 11//11 8//8 9//9 
f 11//11 10//10 12//12 
f 13//13 12//12 10//10 
f 12//12 13//13 14//14 
f 15//15 14//14 13//13 
f 14//14 15//15 16//16 
f 17//17 16//16 15//15 
f 16//16 17//17 18//18 
f 19//19 18//18 17//17 
f 3//3 20//20 1//1 
s 4
f 21//21 22//22 23//23 
f 23//23 22//22 24//24 
f 24//24 22//22 25//25 
f 22//22 26//26 25//25 
f 27//27 24//24 25//25 
f 26//26 28//28 25//25 
f 29//29 30//30 31//31 
f 26//26 30//30 28//28 
f 30//30 29//29 28//28 
f 31//31 32//32 29//29 
f 29//29 33//33 28//28 
f 34//34 28//28 33//33 
f 32//32 35//35 29//29 
f 35//35 33//33 29//29 
f 36//36 27//27 37//37 
f 27//27 25//25 37//37 
f 38//38 36//36 39//39 
f 36//36 37//37 39//39 
f 39//39 37//37 34//34 
f 34//34 37//37 28//28 
f 28//28 37//37 25//25 
f 40//40 41//41 42//42 
f 41//41 43//43 42//42 
f 42//42 43//43 35//35 
f 35//35 43//43 33//33 
f 43//43 39//39 33//33 
f 34//34 33//33 39//39 
f 41//41 38//38 43//43 
f 38//38 39//39 43//43 
f 11//44 44//45 32//32 
f 35//35 32//32 44//45 
f 42//42 45//46 40//40 
f 40//40 45//46 16//47 
f 45//46 42//42 44//45 
f 35//35 44//45 42//42 
f 46//48 47//49 48//50 
f 49//51 48//50 47//49 
f 50//52 51//53 46//48 
f 51//53 47//49 46//48 
f 31//31 52//54 8//55 
f 52//54 53//56 8//55 
s 10
f 50//57 4//58 53//59 
f 53//59 4//58 7//60 
s 4
f 53//56 52//54 50//52 
f 51//53 50//52 52//54 
f 47//49 54//61 49//51 
f 49//51 54//61 55//62 
f 54//61 56//63 55//62 
f 57//64 55//62 56//63 
f 58//65 59//66 54//61 
f 59//66 56//63 54//61 
f 51//53 58//65 47//49 
f 58//65 54//61 47//49 
f 60//67 61//68 62//69 
f 63//70 62//69 61//68 
f 64//71 65//72 60//67 
f 65//72 61//68 60//67 
f 59//66 64//71 56//63 
f 64//71 60//67 56//63 
f 56//63 60//67 57//64 
f 57//64 60//67 62//69 
f 21//21 66//73 22//22 
f 26//26 22//22 67//74 
f 22//22 66//73 67//74 
f 67//74 66//73 59//66 
f 59//66 66//73 64//71 
f 66//73 21//21 64//71 
f 65//72 64//71 21//21 
f 31//31 30//30 52//54 
f 30//30 68//75 52//54 
f 52//54 68//75 51//53 
f 51//53 68//75 58//65 
f 68//75 67//74 58//65 
f 59//66 58//65 67//74 
f 30//30 26//26 68//75 
f 26//26 67//74 68//75 
f 45//46 44//45 14//76 
f 44//45 12//77 14//76 
s 10
f 46//78 48//79 3//80 
f 20//81 3//80 48//79 
f 4//58 50//57 3//80 
f 3//80 50//57 46//78 
f 53//59 7//60 8//82 
s 4
f 32//32 31//31 11//44 
f 8//55 11//44 31//31 
f 12//77 44//45 11//44 
f 45//46 14//76 16//47 
f 16//47 18//83 40//40 
s 1
f 1//1 69//84 70//85 
f 69//84 71//86 70//85 
f 72//87 70//85 71//86 
f 73//88 72//87 74//89 
f 74//89 72//87 71//86 
f 74//89 75//90 73//88 
f 76//91 73//88 75//90 
f 77//92 76//91 78//93 
f 78//93 76//91 75//90 
f 78//93 79//94 77//92 
f 80//95 77//92 79//94 
f 79//94 81//96 80//95 
f 82//97 80//95 81//96 
f 81//96 83//98 82//97 
f 84//99 82//97 83//98 
f 83//98 85//100 84//99 
f 86//101 84//99 85//100 
f 69//84 1//1 20//20 
s 4
f 87//102 88//103 89//104 
f 88//103 90//105 89//104 
f 90//105 91//106 89//104 
f 89//104 91//106 92//107 
f 93//108 91//106 90//105 
f 92//107 91//106 94//109 
f 95//110 96//111 97//112 
f 92//107 94//109 97//112 
f 97//112 94//109 95//110 
f 96//111 95//110 98//113 
f 95//110 94//109 99//114 
f 100//115 99//114 94//109 
f 98//113 95//110 101//116 
f 101//116 95//110 99//114 
f 102//117 103//118 93//108 
f 93//108 103//118 91//106 
f 104//119 105//120 102//117 
f 102//117 105//120 103//118 
f 105//120 100//115 103//118 
f 100//115 94//109 103//118 
f 94//109 91//106 103//118 
f 106//121 107//122 108//123 
f 108//123 107//122 109//124 
f 107//122 101//116 109//124 
f 101//116 99//114 109//124 
f 109//124 99//114 105//120 
f 100//115 105//120 99//114 
f 108//123 109//124 104//119 
f 104//119 109//124 105//120 
f 78//125 98//113 110//126 
f 101//116 110//126 98//113 
f 107//122 106//121 111//127 
f 106//121 83//128 111//127 
f 111//127 110//126 107//122 
f 101//116 107//122 110//126 
f 112//129 48//50 113//130 
f 49//51 113//130 48//50 
f 114//131 112//129 115//132 
f 115//132 112//129 113//130 
f 96//111 75//133 116//134 
f 116//134 75//133 117//135 
s 10
f 114//136 117//137 71//138 
f 117//137 74//139 71//138 
s 4
f 117//135 114//131 116//134 
f 115//132 116//134 114//131 
f 113//130 49//51 118//140 
f 49//51 55//62 118//140 
f 118//140 55//62 119//141 
f 57//64 119//141 55//62 
f 120//142 118//140 121//143 
f 121//143 118//140 119//141 
f 115//132 113//130 120//142 
f 120//142 113//130 118//140 
f 122//144 62//69 123//145 
f 63//70 123//145 62//69 
f 124//146 122//144 125//147 
f 125//147 122//144 123//145 
f 121//143 119//141 124//146 
f 124//146 119//141 122//144 
f 119//141 57//64 122//144 
f 57//64 62//69 122//144 
f 87//102 89//104 126//148 
f 92//107 127//149 89//104 
f 89//104 127//149 126//148 
f 127//149 121//143 126//148 
f 121//143 124//146 126//148 
f 126//148 124//146 87//102 
f 125//147 87//102 124//146 
f 96//111 116//134 97//112 
f 97//112 116//134 128//150 
f 116//134 115//132 128//150 
f 115//132 120//142 128//150 
f 128//150 120//142 127//149 
f 121//143 127//149 120//142 
f 97//112 128//150 92//107 
f 92//107 128//150 127//149 
f 111//127 81//151 110//126 
f 110//126 81//151 79//152 
s 10
f 112//153 69//154 48//79 
f 20//81 48//79 69//154 
f 71//138 69//154 114//136 
f 69//154 112//153 114//136 
f 117//137 75//155 74//139 
s 4
f 98//113 78//125 96//111 
f 75//133 96//111 78//125 
f 79//152 78//125 110//126 
f 111//127 83//128 81//151 
f 83//128 106//121 85//156 
# 212 faces

