# 3ds Max Wavefront OBJ Exporter v0.97b - (c)2007 guruware
# File Created: 04.12.2015 17:37:04

mtllib P710_305B_L.mtl

#
# object P710_305B_L_DTaSI_P710_305B_L
#

v  -37.9132 65.8687 -98.0407
v  -47.8250 65.0687 -98.2241
v  -38.4670 72.8579 -96.2350
v  -48.3073 72.3439 -96.3416
v  -37.8836 61.1663 -99.2089
v  -38.3874 57.8703 -100.0551
v  -42.1634 57.5918 -100.1091
v  -48.3268 57.9017 -100.0262
v  -59.8582 65.5143 -98.1373
v  -59.8609 58.4149 -99.9047
v  -60.0136 73.3610 -96.0614
v  -49.4921 89.0802 -91.0827
v  -39.6636 88.6614 -91.2472
v  -48.9831 80.9428 -93.7964
v  -39.1596 80.5179 -93.9447
v  -60.6993 81.4495 -93.6197
v  -61.1500 89.5768 -90.8876
v  -49.5465 105.7466 -84.7452
v  -40.9315 104.7817 -85.2516
v  -49.6028 97.6737 -87.9958
v  -40.2601 97.2825 -88.1690
v  -61.6275 98.1771 -87.7728
v  -61.8459 106.0235 -84.6221
v  -41.7761 111.7682 -81.8271
v  -49.4390 111.8007 -81.7911
v  -43.4634 114.1965 -80.5003
v  -62.1799 111.9000 -81.7770
v  -47.5943 114.9864 -80.0660
v  -62.8499 115.5530 -79.7643
v  -99.1322 116.6818 -79.2619
v  -99.5559 112.9341 -81.2199
v  -106.9773 115.6314 -79.8552
v  -106.7575 112.7488 -81.3817
v  -87.9437 116.3501 -79.3523
v  -88.1904 112.8515 -81.2930
v  -88.6237 107.0702 -84.1039
v  -99.6073 107.6238 -83.8003
v  -107.6393 107.4558 -83.8693
v  -88.2107 90.6837 -90.4330
v  -99.9719 91.0467 -90.2307
v  -88.4165 99.2577 -87.2788
v  -99.7280 99.6083 -87.0769
v  -110.0984 91.3065 -90.0545
v  -108.8615 99.8451 -86.9170
v  -87.7419 74.7208 -95.6285
v  -100.1023 75.1220 -95.4288
v  -87.9888 82.5796 -93.2017
v  -100.0888 82.9519 -93.0006
v  -112.0294 75.3479 -95.2471
v  -111.0245 83.2298 -92.8117
v  -113.5032 67.3939 -97.4188
v  -100.0355 67.3552 -97.5572
v  -87.4613 66.8830 -97.7567
v  -87.1604 59.6073 -99.5964
v  -99.9361 60.1484 -99.4006
v  -111.6311 60.6359 -99.1975
v  -73.9059 74.1554 -95.8282
v  -73.5261 66.2704 -97.9469
v  -73.1735 58.9996 -99.7641
v  -74.6632 90.1526 -90.6615
v  -74.2801 82.0370 -93.4148
v  -75.4204 106.4969 -84.3951
v  -75.0695 98.7399 -87.5236
v  -75.7660 116.0315 -79.5055
v  -75.6374 112.1217 -81.6699
v  -122.0224 67.0410 -97.4155
v  -121.8520 60.8177 -99.0829
v  -121.7716 60.5389 -99.1600
v  -122.2369 60.5609 -99.1508
v  -122.2529 60.8248 -99.0784
v  -122.9910 83.5337 -92.6052
v  -122.4632 75.3810 -95.1259
v  -118.7422 91.5280 -89.9042
v  -115.6746 100.0214 -86.7978
v  -120.6533 100.1500 -86.7107
v  -123.5511 94.8298 -88.6489
v  -123.5052 91.6500 -89.8214
v  -116.0756 107.0797 -84.0425
v  -112.8470 107.3694 -83.9000
v  -110.5847 113.7320 -80.8642
v  -111.0694 111.9717 -81.7949
v  -112.3029 111.7974 -81.8871
v  -111.3272 60.0995 -99.3396
v  -99.8240 59.6157 -99.5375
v  -87.1376 59.0546 -99.7362
v  -73.1436 58.3835 -99.9181
v  -59.8623 57.7253 -100.0755
v  -49.3139 57.2025 -100.2006
v  -42.1730 56.8843 -100.2862
v  -39.1140 56.8399 -100.3254
v  -38.2609 56.9939 -100.3099
v  -37.7377 57.2708 -100.2313
v  -37.3918 57.7489 -100.0788
v  -37.0705 58.5069 -99.8416
v  -36.9502 60.8255 -99.2449
v  -37.2071 65.9859 -98.0142
v  -37.6778 72.8991 -96.2265
v  -38.1991 80.4763 -93.9592
v  -38.7618 88.6230 -91.2623
v  -39.3570 97.2447 -88.1858
v  -39.9364 104.6702 -85.3101
v  -40.4514 109.2282 -83.2159
v  -40.9185 111.7652 -81.8320
v  -41.3541 113.1276 -81.0874
v  -63.0898 116.2137 -79.4004
v  -53.6776 115.8679 -79.5887
v  -75.7873 116.6803 -79.1463
v  -87.7509 117.0862 -78.9437
v  -99.0321 117.2312 -78.9750
v  -94.9609 117.2496 -78.9096
v  -105.1987 116.5882 -79.3450
v  -107.0148 116.1231 -79.5948
v  -108.7932 115.3313 -80.0166
v  -110.4333 114.2819 -80.5735
v  -111.8347 113.0439 -81.2291
v  -113.1037 111.6843 -81.9468
v  -116.7072 107.0231 -84.0704
v  -114.3469 110.2696 -82.6902
v  -121.3275 100.1674 -86.6989
v  -124.3469 95.3763 -88.4411
v  -124.1221 91.6658 -89.8107
v  -123.6302 83.5500 -92.5942
v  -123.1352 75.3831 -95.1181
v  -122.6281 67.0159 -97.4152
v  -44.6163 115.3240 -79.8849
v  -47.5276 115.5891 -79.7405
v  -43.4535 114.9848 -80.0700
v  -42.5491 114.4842 -80.3440
v  -41.8628 113.8543 -80.6890
v  -101.5790 117.0909 -79.0705
v  -103.3763 116.8647 -79.1945
# 131 vertices

vn -0.0021 0.2465 -0.9691
vn 0.0002 0.2471 -0.9690
vn -0.0035 0.2686 -0.9632
vn -0.0005 0.2682 -0.9634
vn 0.0049 0.2442 -0.9697
vn 0.0010 0.2474 -0.9689
vn -0.0028 0.2427 -0.9701
vn 0.0001 0.2437 -0.9698
vn 0.0007 0.2486 -0.9686
vn 0.0009 0.2418 -0.9703
vn -0.0002 0.2727 -0.9621
vn -0.0018 0.3274 -0.9449
vn -0.0015 0.3254 -0.9456
vn -0.0009 0.3001 -0.9539
vn -0.0021 0.2989 -0.9543
vn -0.0010 0.3039 -0.9527
vn -0.0017 0.3299 -0.9440
vn -0.0033 0.4032 -0.9151
vn -0.0065 0.3960 -0.9182
vn -0.0034 0.3543 -0.9351
vn -0.0023 0.3479 -0.9375
vn -0.0019 0.3564 -0.9343
vn -0.0006 0.4004 -0.9163
vn -0.0030 0.4469 -0.8946
vn 0.0005 0.4534 -0.8913
vn -0.0018 0.4781 -0.8783
vn 0.0012 0.4545 -0.8907
vn -0.0002 0.4762 -0.8793
vn 0.0013 0.4824 -0.8760
vn 0.0021 0.4658 -0.8849
vn 0.0015 0.4482 -0.8939
vn 0.0051 0.4665 -0.8845
vn 0.0050 0.4420 -0.8970
vn 0.0043 0.4848 -0.8746
vn 0.0000 0.4553 -0.8903
vn -0.0036 0.4026 -0.9154
vn -0.0021 0.4024 -0.9155
vn -0.0014 0.3925 -0.9198
vn -0.0044 0.3344 -0.9424
vn -0.0068 0.3350 -0.9422
vn -0.0044 0.3600 -0.9329
vn -0.0058 0.3605 -0.9327
vn -0.0078 0.3348 -0.9423
vn -0.0067 0.3574 -0.9339
vn -0.0044 0.2786 -0.9604
vn -0.0080 0.2801 -0.9599
vn -0.0044 0.3093 -0.9510
vn -0.0074 0.3101 -0.9507
vn -0.0095 0.2805 -0.9598
vn -0.0085 0.3096 -0.9508
vn -0.0093 0.2597 -0.9656
vn -0.0074 0.2567 -0.9665
vn -0.0039 0.2538 -0.9673
vn -0.0031 0.2446 -0.9696
vn -0.0059 0.2473 -0.9689
vn -0.0076 0.2516 -0.9678
vn -0.0016 0.2761 -0.9611
vn -0.0010 0.2512 -0.9679
vn -0.0005 0.2423 -0.9702
vn -0.0023 0.3324 -0.9431
vn -0.0019 0.3072 -0.9516
vn -0.0018 0.4009 -0.9161
vn -0.0027 0.3580 -0.9337
vn 0.0011 0.4844 -0.8749
vn 0.0001 0.4555 -0.8902
vn -0.0112 0.2618 -0.9651
vn -0.0085 0.2561 -0.9666
vn -0.0061 0.2642 -0.9644
vn -0.0065 0.2643 -0.9644
vn -0.0066 0.2589 -0.9659
vn -0.0088 0.3096 -0.9508
vn -0.0104 0.2810 -0.9596
vn -0.0078 0.3330 -0.9429
vn -0.0067 0.3544 -0.9351
vn -0.0072 0.3520 -0.9360
vn -0.0074 0.3459 -0.9383
vn -0.0079 0.3305 -0.9438
vn 0.0043 0.3720 -0.9282
vn -0.0002 0.3847 -0.9231
vn 0.0007 0.4675 -0.8840
vn 0.0044 0.4288 -0.9034
vn 0.0101 0.4210 -0.9070
vn -0.0062 0.2528 -0.9675
vn -0.0051 0.2479 -0.9688
vn -0.0025 0.2450 -0.9695
vn -0.0003 0.2424 -0.9702
vn 0.0004 0.2404 -0.9707
vn 0.0003 0.2415 -0.9704
vn -0.0035 0.2429 -0.9700
vn -0.0074 0.2576 -0.9662
vn -0.0227 0.2761 -0.9609
vn 0.0057 0.2876 -0.9577
vn 0.0131 0.2940 -0.9557
vn 0.0354 0.2512 -0.9673
vn 0.0480 0.2383 -0.9700
vn -0.0011 0.2461 -0.9692
vn -0.0036 0.2691 -0.9631
vn -0.0015 0.2999 -0.9540
vn -0.0019 0.3247 -0.9458
vn -0.0028 0.3468 -0.9379
vn -0.0114 0.3794 -0.9252
vn -0.2398 0.4254 -0.8727
vn -0.0163 0.4450 -0.8954
vn -0.0020 0.4786 -0.8780
vn 0.0003 0.4825 -0.8759
vn 0.0004 0.4782 -0.8782
vn 0.0010 0.4843 -0.8749
vn 0.0033 0.4847 -0.8747
vn 0.0108 0.4613 -0.8872
vn 0.0074 0.4869 -0.8734
vn 0.0020 0.4676 -0.8840
vn 0.0015 0.4681 -0.8837
vn 0.0014 0.4672 -0.8842
vn 0.0013 0.4671 -0.8842
vn 0.0014 0.4664 -0.8846
vn 0.0003 0.4653 -0.8852
vn 0.0085 0.3594 -0.9332
vn 0.1148 0.3359 -0.9349
vn -0.0073 0.3521 -0.9359
vn -0.0079 0.3310 -0.9436
vn -0.0085 0.3102 -0.9506
vn -0.0103 0.2800 -0.9600
vn -0.0112 0.2619 -0.9650
vn -0.0008 0.4783 -0.8782
vn -0.0002 0.4752 -0.8799
vn -0.0002 0.4791 -0.8777
vn -0.0008 0.4795 -0.8776
vn -0.0007 0.4802 -0.8771
vn 0.0054 0.4500 -0.8930
vn 0.0056 0.4592 -0.8883
# 130 vertex normals

vt 0.4493 0.9707 0.0000
vt 0.4796 0.9749 0.0000
vt 0.4523 0.9485 0.0000
vt 0.4824 0.9520 0.0000
vt 0.4484 0.9858 0.0000
vt 0.4494 0.9964 0.0000
vt 0.4610 0.9978 0.0000
vt 0.4800 0.9977 0.0000
vt 0.5165 0.9754 0.0000
vt 0.5154 0.9977 0.0000
vt 0.5183 0.9508 0.0000
vt 0.4895 0.8988 0.0000
vt 0.4597 0.8980 0.0000
vt 0.4862 0.9247 0.0000
vt 0.4562 0.9241 0.0000
vt 0.5218 0.9252 0.0000
vt 0.5247 0.8994 0.0000
vt 0.4935 0.8454 0.0000
vt 0.4678 0.8466 0.0000
vt 0.4918 0.8713 0.0000
vt 0.4637 0.8705 0.0000
vt 0.5278 0.8720 0.0000
vt 0.5300 0.8468 0.0000
vt 0.4723 0.8240 0.0000
vt 0.4945 0.8255 0.0000
vt 0.4777 0.8164 0.0000
vt 0.5321 0.8275 0.0000
vt 0.4898 0.8146 0.0000
vt 0.5348 0.8153 0.0000
vt 0.6429 0.8170 0.0000
vt 0.6435 0.8296 0.0000
vt 0.6654 0.8216 0.0000
vt 0.6645 0.8311 0.0000
vt 0.6096 0.8164 0.0000
vt 0.6097 0.8283 0.0000
vt 0.6100 0.8475 0.0000
vt 0.6428 0.8471 0.0000
vt 0.6666 0.8484 0.0000
vt 0.6063 0.9000 0.0000
vt 0.6417 0.9003 0.0000
vt 0.6082 0.8727 0.0000
vt 0.6421 0.8729 0.0000
vt 0.6723 0.9006 0.0000
vt 0.6695 0.8730 0.0000
vt 0.6025 0.9507 0.0000
vt 0.6400 0.9510 0.0000
vt 0.6044 0.9258 0.0000
vt 0.6410 0.9262 0.0000
vt 0.6762 0.9517 0.0000
vt 0.6741 0.9265 0.0000
vt 0.6797 0.9770 0.0000
vt 0.6386 0.9755 0.0000
vt 0.6004 0.9752 0.0000
vt 0.5984 0.9979 0.0000
vt 0.6372 0.9981 0.0000
vt 0.6730 0.9981 0.0000
vt 0.5605 0.9504 0.0000
vt 0.5581 0.9751 0.0000
vt 0.5559 0.9978 0.0000
vt 0.5655 0.8998 0.0000
vt 0.5630 0.9256 0.0000
vt 0.5706 0.8475 0.0000
vt 0.5682 0.8724 0.0000
vt 0.5733 0.8156 0.0000
vt 0.5722 0.8289 0.0000
vt 0.7058 0.9791 0.0000
vt 0.7044 0.9989 0.0000
vt 0.7041 0.9998 0.0000
vt 0.7055 0.9997 0.0000
vt 0.7056 0.9989 0.0000
vt 0.7105 0.9266 0.0000
vt 0.7081 0.9526 0.0000
vt 0.6984 0.9006 0.0000
vt 0.6900 0.8730 0.0000
vt 0.7051 0.8730 0.0000
vt 0.7133 0.8904 0.0000
vt 0.7128 0.9006 0.0000
vt 0.6918 0.8502 0.0000
vt 0.6821 0.8491 0.0000
vt 0.6759 0.8282 0.0000
vt 0.6770 0.8340 0.0000
vt 0.6805 0.8346 0.0000
vt 0.6720 0.9998 0.0000
vt 0.6368 0.9997 0.0000
vt 0.5983 0.9997 0.0000
vt 0.5557 0.9997 0.0000
vt 0.5153 0.9999 0.0000
vt 0.4829 1.0000 0.0000
vt 0.4609 1.0001 0.0000
vt 0.4515 0.9998 0.0000
vt 0.4489 0.9992 0.0000
vt 0.4473 0.9983 0.0000
vt 0.4463 0.9967 0.0000
vt 0.4454 0.9942 0.0000
vt 0.4454 0.9867 0.0000
vt 0.4471 0.9703 0.0000
vt 0.4499 0.9482 0.0000
vt 0.4532 0.9240 0.0000
vt 0.4569 0.8979 0.0000
vt 0.4609 0.8704 0.0000
vt 0.4648 0.8467 0.0000
vt 0.4676 0.8321 0.0000
vt 0.4698 0.8238 0.0000
vt 0.4714 0.8195 0.0000
vt 0.5356 0.8131 0.0000
vt 0.5078 0.8126 0.0000
vt 0.5734 0.8134 0.0000
vt 0.6092 0.8138 0.0000
vt 0.6427 0.8152 0.0000
vt 0.6306 0.8144 0.0000
vt 0.6604 0.8182 0.0000
vt 0.6655 0.8199 0.0000
vt 0.6708 0.8227 0.0000
vt 0.6756 0.8263 0.0000
vt 0.6794 0.8306 0.0000
vt 0.6828 0.8350 0.0000
vt 0.6937 0.8504 0.0000
vt 0.6866 0.8398 0.0000
vt 0.7071 0.8730 0.0000
vt 0.7157 0.8887 0.0000
vt 0.7147 0.9006 0.0000
vt 0.7124 0.9266 0.0000
vt 0.7102 0.9527 0.0000
vt 0.7077 0.9792 0.0000
vt 0.4813 0.8129 0.0000
vt 0.4897 0.8125 0.0000
vt 0.4778 0.8138 0.0000
vt 0.4752 0.8152 0.0000
vt 0.4730 0.8172 0.0000
vt 0.6501 0.8161 0.0000
vt 0.6552 0.8171 0.0000
# 131 texture coords

g P710_305B_L_DTaSI_P710_305B_L
usemtl windowglass_1SG
s 1
f 1/1/1 2/2/2 3/3/3 
f 2/2/2 4/4/4 3/3/3 
f 1/1/1 5/5/5 2/2/2 
f 6/6/6 7/7/7 2/2/2 
f 8/8/8 2/2/2 7/7/7 
f 9/9/9 2/2/2 10/10/10 
f 2/2/2 8/8/8 10/10/10 
f 11/11/11 4/4/4 9/9/9 
f 9/9/9 4/4/4 2/2/2 
f 12/12/12 13/13/13 14/14/14 
f 13/13/13 15/15/15 14/14/14 
f 3/3/3 4/4/4 15/15/15 
f 4/4/4 14/14/14 15/15/15 
f 4/4/4 11/11/11 14/14/14 
f 14/14/14 11/11/11 16/16/16 
f 17/17/17 12/12/12 16/16/16 
f 16/16/16 12/12/12 14/14/14 
f 18/18/18 19/19/19 20/20/20 
f 19/19/19 21/21/21 20/20/20 
f 13/13/13 12/12/12 21/21/21 
f 12/12/12 20/20/20 21/21/21 
f 12/12/12 17/17/17 20/20/20 
f 20/20/20 17/17/17 22/22/22 
f 23/23/23 18/18/18 22/22/22 
f 22/22/22 18/18/18 20/20/20 
f 24/24/24 25/25/25 26/26/26 
f 19/19/19 18/18/18 24/24/24 
f 18/18/18 25/25/25 24/24/24 
f 23/23/23 27/27/27 18/18/18 
f 18/18/18 27/27/27 25/25/25 
f 28/28/28 25/25/25 29/29/29 
f 25/25/25 27/27/27 29/29/29 
f 30/30/30 31/31/31 32/32/32 
f 31/31/31 33/33/33 32/32/32 
f 34/34/34 35/35/35 30/30/30 
f 35/35/35 31/31/31 30/30/30 
f 36/36/36 37/37/37 35/35/35 
f 35/35/35 37/37/37 31/31/31 
f 38/38/38 33/33/33 37/37/37 
f 37/37/37 33/33/33 31/31/31 
f 39/39/39 40/40/40 41/41/41 
f 41/41/41 40/40/40 42/42/42 
f 43/43/43 44/44/44 40/40/40 
f 40/40/40 44/44/44 42/42/42 
f 44/44/44 38/38/38 42/42/42 
f 42/42/42 38/38/38 37/37/37 
f 37/37/37 36/36/36 42/42/42 
f 42/42/42 36/36/36 41/41/41 
f 45/45/45 46/46/46 47/47/47 
f 47/47/47 46/46/46 48/48/48 
f 49/49/49 50/50/50 46/46/46 
f 46/46/46 50/50/50 48/48/48 
f 50/50/50 43/43/43 48/48/48 
f 48/48/48 43/43/43 40/40/40 
f 40/40/40 39/39/39 48/48/48 
f 48/48/48 39/39/39 47/47/47 
f 51/51/51 49/49/49 52/52/52 
f 52/52/52 49/49/49 46/46/46 
f 46/46/46 45/45/45 52/52/52 
f 52/52/52 45/45/45 53/53/53 
f 54/54/54 55/55/55 53/53/53 
f 55/55/55 52/52/52 53/53/53 
f 55/55/55 56/56/56 52/52/52 
f 56/56/56 51/51/51 52/52/52 
f 45/45/45 57/57/57 53/53/53 
f 53/53/53 57/57/57 58/58/58 
f 57/57/57 11/11/11 58/58/58 
f 58/58/58 11/11/11 9/9/9 
f 10/10/10 59/59/59 9/9/9 
f 59/59/59 58/58/58 9/9/9 
f 59/59/59 54/54/54 58/58/58 
f 54/54/54 53/53/53 58/58/58 
f 60/60/60 17/17/17 61/61/61 
f 61/61/61 17/17/17 16/16/16 
f 11/11/11 57/57/57 16/16/16 
f 16/16/16 57/57/57 61/61/61 
f 57/57/57 45/45/45 61/61/61 
f 61/61/61 45/45/45 47/47/47 
f 39/39/39 60/60/60 47/47/47 
f 47/47/47 60/60/60 61/61/61 
f 62/62/62 23/23/23 63/63/63 
f 63/63/63 23/23/23 22/22/22 
f 17/17/17 60/60/60 22/22/22 
f 22/22/22 60/60/60 63/63/63 
f 60/60/60 39/39/39 63/63/63 
f 63/63/63 39/39/39 41/41/41 
f 36/36/36 62/62/62 41/41/41 
f 41/41/41 62/62/62 63/63/63 
f 64/64/64 29/29/29 65/65/65 
f 29/29/29 27/27/27 65/65/65 
f 23/23/23 62/62/62 27/27/27 
f 27/27/27 62/62/62 65/65/65 
f 62/62/62 36/36/36 65/65/65 
f 65/65/65 36/36/36 35/35/35 
f 34/34/34 64/64/64 35/35/35 
f 64/64/64 65/65/65 35/35/35 
f 66/66/66 51/51/51 67/67/67 
f 51/51/51 56/56/56 67/67/67 
f 68/68/68 69/69/69 70/70/70 
f 50/50/50 49/49/49 71/71/71 
f 71/71/71 49/49/49 72/72/72 
f 43/43/43 50/50/50 73/73/73 
f 73/73/73 50/50/50 71/71/71 
f 44/44/44 43/43/43 74/74/74 
f 74/74/74 43/43/43 73/73/73 
f 74/74/74 73/73/73 75/75/75 
f 73/73/73 76/76/76 75/75/75 
f 73/73/73 77/77/77 76/76/76 
f 75/75/75 78/78/78 74/74/74 
f 78/78/78 79/79/79 74/74/74 
f 38/38/38 44/44/44 79/79/79 
f 79/79/79 44/44/44 74/74/74 
f 80/80/80 81/81/81 82/82/82 
f 32/32/32 33/33/33 80/80/80 
f 33/33/33 81/81/81 80/80/80 
f 33/33/33 38/38/38 81/81/81 
f 81/81/81 38/38/38 79/79/79 
f 78/78/78 82/82/82 79/79/79 
f 82/82/82 81/81/81 79/79/79 
f 66/66/66 72/72/72 51/51/51 
f 51/51/51 72/72/72 49/49/49 
f 77/77/77 73/73/73 71/71/71 
f 67/67/67 56/56/56 68/68/68 
f 56/56/56 83/83/83 68/68/68 
f 84/84/84 83/83/83 55/55/55 
f 83/83/83 56/56/56 55/55/55 
f 85/85/85 84/84/84 54/54/54 
f 84/84/84 55/55/55 54/54/54 
f 86/86/86 85/85/85 59/59/59 
f 85/85/85 54/54/54 59/59/59 
f 87/87/87 86/86/86 10/10/10 
f 86/86/86 59/59/59 10/10/10 
f 8/8/8 88/88/88 10/10/10 
f 88/88/88 87/87/87 10/10/10 
f 88/88/88 8/8/8 89/89/89 
f 8/8/8 7/7/7 89/89/89 
f 6/6/6 90/90/90 7/7/7 
f 90/90/90 89/89/89 7/7/7 
f 91/91/91 90/90/90 6/6/6 
f 92/92/92 91/91/91 6/6/6 
f 92/92/92 6/6/6 93/93/93 
f 94/94/94 93/93/93 6/6/6 
f 6/6/6 95/95/95 94/94/94 
f 1/1/1 96/96/96 5/5/5 
f 96/96/96 95/95/95 5/5/5 
f 5/5/5 6/6/6 2/2/2 
f 95/95/95 6/6/6 5/5/5 
f 97/97/97 96/96/96 3/3/3 
f 96/96/96 1/1/1 3/3/3 
f 15/15/15 98/98/98 3/3/3 
f 98/98/98 97/97/97 3/3/3 
f 13/13/13 99/99/99 15/15/15 
f 99/99/99 98/98/98 15/15/15 
f 21/21/21 100/100/100 13/13/13 
f 100/100/100 99/99/99 13/13/13 
f 19/19/19 101/101/101 21/21/21 
f 101/101/101 100/100/100 21/21/21 
f 101/101/101 19/19/19 102/102/102 
f 24/24/24 103/103/103 19/19/19 
f 19/19/19 103/103/103 102/102/102 
f 26/26/26 104/104/104 24/24/24 
f 104/104/104 103/103/103 24/24/24 
f 105/105/105 106/106/106 29/29/29 
f 106/106/106 28/28/28 29/29/29 
f 107/107/107 105/105/105 64/64/64 
f 105/105/105 29/29/29 64/64/64 
f 34/34/34 108/108/108 64/64/64 
f 108/108/108 107/107/107 64/64/64 
f 30/30/30 109/109/109 110/110/110 
f 111/111/111 32/32/32 112/112/112 
f 32/32/32 80/80/80 113/113/113 
f 80/80/80 114/114/114 113/113/113 
f 115/115/115 82/82/82 116/116/116 
f 117/117/117 118/118/118 78/78/78 
f 118/118/118 82/82/82 78/78/78 
f 119/119/119 117/117/117 75/75/75 
f 117/117/117 78/78/78 75/75/75 
f 75/75/75 76/76/76 119/119/119 
f 76/76/76 120/120/76 119/119/119 
f 77/77/77 121/121/120 76/76/76 
f 121/121/120 120/120/76 76/76/76 
f 121/121/120 77/77/77 122/122/121 
f 77/77/77 71/71/71 122/122/121 
f 72/72/72 123/123/122 71/71/71 
f 123/123/122 122/122/121 71/71/71 
f 66/66/66 124/124/123 72/72/72 
f 124/124/123 123/123/122 72/72/72 
f 67/67/67 70/70/70 66/66/66 
f 70/70/70 124/124/123 66/66/66 
f 68/68/68 70/70/70 67/67/67 
f 26/26/26 28/28/28 125/125/124 
f 28/28/28 126/126/125 125/125/124 
f 25/25/25 28/28/28 26/26/26 
f 26/26/26 125/125/124 127/127/126 
f 26/26/26 127/127/126 128/128/127 
f 26/26/26 128/128/127 129/129/128 
f 104/104/104 26/26/26 129/129/128 
f 30/30/30 110/110/110 34/34/34 
f 110/110/110 108/108/108 34/34/34 
f 109/109/109 30/30/30 130/130/129 
f 130/130/129 30/30/30 131/131/130 
f 30/30/30 32/32/32 131/131/130 
f 131/131/130 32/32/32 111/111/111 
f 113/113/113 112/112/112 32/32/32 
f 114/114/114 80/80/80 115/115/115 
f 80/80/80 82/82/82 115/115/115 
f 116/116/116 82/82/82 118/118/118 
f 126/126/125 28/28/28 106/106/106 
# 208 faces

