# 3ds Max Wavefront OBJ Exporter v0.97b - (c)2007 guruware
# File Created: 06.11.2015 17:26:14

mtllib X6164_18_265B_L.mtl

#
# object X6164_18_265B_L_DTaSI_X6164_18_265B_L
#

v  10.2200 79.2825 -74.3079
v  4.8782 73.4415 -76.8967
v  0.7102 80.9297 -73.8067
v  -3.4340 75.6618 -76.1875
v  -11.6217 69.7805 -78.6693
v  -2.7442 66.4479 -79.7861
v  -9.6113 82.0739 -73.4574
v  -12.7225 76.7807 -75.8671
v  5.4879 48.4816 -86.2939
v  2.6381 44.2512 -88.0928
v  -8.5577 50.2994 -85.9709
v  -7.7206 44.9766 -88.0921
v  18.7817 43.1626 -88.0461
v  20.6989 47.2450 -86.3327
v  35.8207 41.9971 -88.0102
v  36.6490 45.9819 -86.3600
v  17.9170 40.6335 -89.2241
v  35.5294 39.4984 -89.1642
v  1.4218 41.6331 -89.3189
v  54.5976 40.6404 -88.0439
v  54.0903 44.5167 -86.4570
v  73.7960 39.1820 -88.0983
v  72.0629 42.9051 -86.5657
v  74.9283 36.7968 -89.2142
v  55.0661 38.1704 -89.1779
v  80.4867 38.6441 -88.1078
v  80.6396 36.4053 -89.2167
v  80.2496 42.1111 -86.5946
v  75.3456 36.0671 -89.5997
v  55.2303 37.3425 -89.6149
v  36.2501 74.0082 -75.6515
v  39.9034 78.0754 -73.3469
v  44.8614 71.8126 -76.2031
v  47.4142 75.5477 -74.1526
v  27.7585 75.9197 -75.1832
v  32.3586 80.1030 -72.7843
v  22.7537 81.7114 -72.5574
v  19.1586 77.6451 -74.7510
v  53.4650 63.6633 -79.2008
v  42.6686 65.9631 -78.6643
v  53.8188 69.2349 -76.8851
v  64.1119 61.2089 -79.7523
v  62.6710 66.3747 -77.6354
v  66.4748 54.9525 -82.1124
v  53.4356 57.0234 -81.7550
v  40.3645 59.0115 -81.3813
v  79.1347 58.4072 -79.9172
v  73.8858 58.7738 -80.2237
v  79.0540 59.5880 -79.3289
v  70.9724 63.3319 -78.3916
v  79.5460 52.3933 -82.5319
v  69.3683 48.5062 -84.4770
v  79.8975 47.2564 -84.5563
v  38.2600 52.0021 -84.0484
v  53.6706 50.3094 -84.2673
v  32.4528 67.9349 -78.2380
v  28.1684 60.7228 -81.0997
v  16.8379 62.3627 -80.8163
v  22.7772 69.7344 -77.8496
v  24.0403 53.4618 -83.9076
v  10.6511 54.8978 -83.7498
v  6.3627 64.1371 -80.4372
v  -2.2701 56.5199 -83.4800
v  -10.0604 59.8538 -82.4090
v  13.6001 71.5178 -77.4266
v  35.5327 38.6022 -89.6364
v  17.8120 39.7414 -89.6930
v  1.2816 40.8069 -89.7510
v  -7.2731 42.1293 -89.3679
v  -7.1508 41.3510 -89.7642
v  80.6855 35.7324 -89.5892
v  -8.6784 84.6157 -71.9978
v  -13.9923 84.8611 -71.9105
v  -13.5615 82.1185 -73.4619
v  2.5079 83.8613 -72.1675
v  14.2394 82.7830 -72.3823
v  54.3230 72.8238 -75.0656
v  61.5831 69.5087 -76.1144
v  69.7850 65.2022 -77.4998
# 79 vertices

vn 0.0264 0.4146 -0.9096
vn 0.0228 0.3728 -0.9276
vn 0.0219 0.4268 -0.9041
vn 0.0183 0.3822 -0.9239
vn 0.0163 0.3636 -0.9314
vn 0.0201 0.3567 -0.9340
vn 0.0155 0.4350 -0.9003
vn 0.0141 0.3896 -0.9209
vn 0.0261 0.3612 -0.9321
vn 0.0283 0.3891 -0.9208
vn 0.0243 0.3589 -0.9331
vn 0.0268 0.3840 -0.9229
vn 0.0288 0.3908 -0.9200
vn 0.0270 0.3613 -0.9321
vn 0.0282 0.3933 -0.9190
vn 0.0263 0.3626 -0.9316
vn 0.0309 0.4265 -0.9040
vn 0.0301 0.4301 -0.9023
vn 0.0302 0.4240 -0.9052
vn 0.0279 0.3983 -0.9168
vn 0.0269 0.3668 -0.9299
vn 0.0297 0.4122 -0.9106
vn 0.0300 0.3759 -0.9262
vn 0.0305 0.4496 -0.8927
vn 0.0294 0.4351 -0.8999
vn 0.0311 0.4187 -0.9076
vn 0.0307 0.4555 -0.8897
vn 0.0326 0.3823 -0.9235
vn 0.0317 0.4811 -0.8761
vn 0.0310 0.4715 -0.8813
vn 0.0431 0.4073 -0.9123
vn 0.0569 0.4525 -0.8899
vn 0.0462 0.4072 -0.9122
vn 0.0585 0.4489 -0.8917
vn 0.0401 0.4072 -0.9124
vn 0.0540 0.4523 -0.8902
vn 0.0451 0.4471 -0.8933
vn 0.0327 0.4052 -0.9137
vn 0.0344 0.3684 -0.9290
vn 0.0322 0.3646 -0.9306
vn 0.0490 0.4037 -0.9136
vn 0.0425 0.3751 -0.9260
vn 0.0599 0.4118 -0.9093
vn 0.0356 0.3610 -0.9319
vn 0.0294 0.3552 -0.9343
vn 0.0274 0.3521 -0.9356
vn 0.0816 0.4092 -0.9088
vn 0.0581 0.3882 -0.9198
vn 0.0899 0.4336 -0.8966
vn 0.0772 0.4255 -0.9017
vn 0.0446 0.3716 -0.9273
vn 0.0321 0.3599 -0.9324
vn 0.0354 0.3680 -0.9291
vn 0.0258 0.3505 -0.9362
vn 0.0274 0.3533 -0.9351
vn 0.0305 0.3630 -0.9313
vn 0.0274 0.3506 -0.9361
vn 0.0263 0.3507 -0.9361
vn 0.0288 0.3636 -0.9311
vn 0.0264 0.3491 -0.9367
vn 0.0254 0.3489 -0.9368
vn 0.0240 0.3523 -0.9356
vn 0.0230 0.3501 -0.9364
vn 0.0194 0.3520 -0.9358
vn 0.0262 0.3668 -0.9299
vn 0.0318 0.4660 -0.8842
vn 0.0329 0.4620 -0.8862
vn 0.0321 0.4590 -0.8879
vn 0.0291 0.4207 -0.9068
vn 0.0311 0.4575 -0.8887
vn 0.0322 0.4857 -0.8735
vn 0.0197 0.4902 -0.8714
vn 0.0075 0.4943 -0.8693
vn 0.0060 0.4442 -0.8959
vn 0.0273 0.4716 -0.8814
vn 0.0341 0.4515 -0.8916
vn 0.0640 0.4441 -0.8937
vn 0.0767 0.4543 -0.8875
vn 0.0992 0.4760 -0.8738
# 79 vertex normals

vt 0.7125 0.8305 0.0000
vt 0.6943 0.8550 0.0000
vt 0.6773 0.8263 0.0000
vt 0.6633 0.8483 0.0000
vt 0.6347 0.8734 0.0000
vt 0.6680 0.8844 0.0000
vt 0.6392 0.8241 0.0000
vt 0.6290 0.8460 0.0000
vt 0.7023 0.9525 0.0000
vt 0.6929 0.9700 0.0000
vt 0.6505 0.9489 0.0000
vt 0.6548 0.9697 0.0000
vt 0.7523 0.9702 0.0000
vt 0.7584 0.9535 0.0000
vt 0.8150 0.9704 0.0000
vt 0.8171 0.9544 0.0000
vt 0.7497 0.9806 0.0000
vt 0.8145 0.9806 0.0000
vt 0.6890 0.9808 0.0000
vt 0.8841 0.9710 0.0000
vt 0.8814 0.9558 0.0000
vt 0.9548 0.9719 0.0000
vt 0.9476 0.9576 0.0000
vt 0.9595 0.9814 0.0000
vt 0.8864 0.9809 0.0000
vt 0.9795 0.9723 0.0000
vt 0.9805 0.9815 0.0000
vt 0.9778 0.9585 0.0000
vt 0.9612 0.9843 0.0000
vt 0.8872 0.9843 0.0000
vt 0.8091 0.8447 0.0000
vt 0.8216 0.8268 0.0000
vt 0.8412 0.8510 0.0000
vt 0.8497 0.8349 0.0000
vt 0.7776 0.8394 0.0000
vt 0.7935 0.8208 0.0000
vt 0.7579 0.8171 0.0000
vt 0.7457 0.8348 0.0000
vt 0.8746 0.8810 0.0000
vt 0.8345 0.8747 0.0000
vt 0.8746 0.8588 0.0000
vt 0.9142 0.8878 0.0000
vt 0.9077 0.8676 0.0000
vt 0.9243 0.9117 0.0000
vt 0.8761 0.9070 0.0000
vt 0.8277 0.9026 0.0000
vt 0.9699 0.8942 0.0000
vt 0.9506 0.8946 0.0000
vt 0.9694 0.8894 0.0000
vt 0.9388 0.8772 0.0000
vt 0.9728 0.9182 0.0000
vt 0.9364 0.9363 0.0000
vt 0.9753 0.9383 0.0000
vt 0.8216 0.9305 0.0000
vt 0.8785 0.9332 0.0000
vt 0.7966 0.8697 0.0000
vt 0.7826 0.8990 0.0000
vt 0.7407 0.8955 0.0000
vt 0.7607 0.8651 0.0000
vt 0.7692 0.9284 0.0000
vt 0.7198 0.9262 0.0000
vt 0.7019 0.8912 0.0000
vt 0.6720 0.9231 0.0000
vt 0.6427 0.9119 0.0000
vt 0.7267 0.8604 0.0000
vt 0.8147 0.9843 0.0000
vt 0.7495 0.9843 0.0000
vt 0.6887 0.9843 0.0000
vt 0.6571 0.9811 0.0000
vt 0.6577 0.9843 0.0000
vt 0.9809 0.9843 0.0000
vt 0.6420 0.8132 0.0000
vt 0.6225 0.8133 0.0000
vt 0.6247 0.8248 0.0000
vt 0.6832 0.8136 0.0000
vt 0.7264 0.8150 0.0000
vt 0.8757 0.8439 0.0000
vt 0.9030 0.8551 0.0000
vt 0.9341 0.8698 0.0000
# 79 texture coords

g X6164_18_265B_L_DTaSI_X6164_18_265B_L
usemtl windowglass_1SG
s 1
f 1/1/1 2/2/2 3/3/3 
f 4/4/4 3/3/3 2/2/2 
f 5/5/5 4/4/4 6/6/6 
f 4/4/4 2/2/2 6/6/6 
f 3/3/3 4/4/4 7/7/7 
f 4/4/4 8/8/8 7/7/7 
f 9/9/9 10/10/10 11/11/11 
f 10/10/10 12/12/12 11/11/11 
f 13/13/13 14/14/14 15/15/15 
f 14/14/14 16/16/16 15/15/15 
f 17/17/17 13/13/13 18/18/18 
f 13/13/13 15/15/15 18/18/18 
f 19/19/19 10/10/10 17/17/17 
f 13/13/13 17/17/17 10/10/10 
f 10/10/10 9/9/9 13/13/13 
f 13/13/13 9/9/9 14/14/14 
f 20/20/20 15/15/15 21/21/21 
f 15/15/15 16/16/16 21/21/21 
f 22/22/22 20/20/20 23/23/23 
f 20/20/20 21/21/21 23/23/23 
f 24/24/24 25/25/25 22/22/22 
f 20/20/20 22/22/22 25/25/25 
f 25/25/25 18/18/18 20/20/20 
f 20/20/20 18/18/18 15/15/15 
f 22/22/22 26/26/26 24/24/24 
f 26/26/26 27/27/27 24/24/24 
f 23/23/23 28/28/28 22/22/22 
f 28/28/28 26/26/26 22/22/22 
f 29/29/29 30/30/30 24/24/24 
f 25/25/25 24/24/24 30/30/30 
f 31/31/31 32/32/32 33/33/33 
f 32/32/32 34/34/34 33/33/33 
f 35/35/35 36/36/36 31/31/31 
f 32/32/32 31/31/31 36/36/36 
f 36/36/36 35/35/35 37/37/37 
f 37/37/37 35/35/35 38/38/38 
f 39/39/39 40/40/40 41/41/41 
f 40/40/40 33/33/33 41/41/41 
f 42/42/42 39/39/39 43/43/43 
f 39/39/39 41/41/41 43/43/43 
f 44/44/44 45/45/45 42/42/42 
f 39/39/39 42/42/42 45/45/45 
f 45/45/45 46/46/46 39/39/39 
f 39/39/39 46/46/46 40/40/40 
f 47/47/47 48/48/48 49/49/49 
f 48/48/48 50/50/50 49/49/49 
f 51/51/51 44/44/44 48/48/48 
f 48/48/48 44/44/44 42/42/42 
f 48/48/48 42/42/42 50/50/50 
f 42/42/42 43/43/43 50/50/50 
f 52/52/52 53/53/53 23/23/23 
f 53/53/53 28/28/28 23/23/23 
f 44/44/44 51/51/51 52/52/52 
f 51/51/51 53/53/53 52/52/52 
f 16/16/16 54/54/54 21/21/21 
f 55/55/55 21/21/21 54/54/54 
f 54/54/54 46/46/46 55/55/55 
f 55/55/55 46/46/46 45/45/45 
f 52/52/52 55/55/55 44/44/44 
f 55/55/55 45/45/45 44/44/44 
f 23/23/23 21/21/21 52/52/52 
f 55/55/55 52/52/52 21/21/21 
f 56/56/56 31/31/31 40/40/40 
f 31/31/31 33/33/33 40/40/40 
f 57/57/57 56/56/56 46/46/46 
f 56/56/56 40/40/40 46/46/46 
f 58/58/58 59/59/59 57/57/57 
f 56/56/56 57/57/57 59/59/59 
f 59/59/59 35/35/35 56/56/56 
f 56/56/56 35/35/35 31/31/31 
f 14/14/14 60/60/60 16/16/16 
f 60/60/60 54/54/54 16/16/16 
f 9/9/9 61/61/61 14/14/14 
f 60/60/60 14/14/14 61/61/61 
f 61/61/61 58/58/58 60/60/60 
f 60/60/60 58/58/58 57/57/57 
f 60/60/60 57/57/57 54/54/54 
f 57/57/57 46/46/46 54/54/54 
f 62/62/62 63/63/63 6/6/6 
f 6/6/6 63/63/63 64/64/64 
f 63/63/63 62/62/62 61/61/61 
f 62/62/62 58/58/58 61/61/61 
f 11/11/11 63/63/63 9/9/9 
f 9/9/9 63/63/63 61/61/61 
f 38/38/38 65/65/65 1/1/1 
f 65/65/65 2/2/2 1/1/1 
f 65/65/65 38/38/38 59/59/59 
f 38/38/38 35/35/35 59/59/59 
f 62/62/62 65/65/65 58/58/58 
f 65/65/65 59/59/59 58/58/58 
f 6/6/6 2/2/2 62/62/62 
f 65/65/65 62/62/62 2/2/2 
f 66/66/66 67/67/67 18/18/18 
f 67/67/67 17/17/17 18/18/18 
f 68/68/68 19/19/19 67/67/67 
f 67/67/67 19/19/19 17/17/17 
f 69/69/69 19/19/19 70/70/70 
f 70/70/70 19/19/19 68/68/68 
f 24/24/24 27/27/27 29/29/29 
f 29/29/29 27/27/27 71/71/71 
f 30/30/30 66/66/66 25/25/25 
f 25/25/25 66/66/66 18/18/18 
f 72/72/72 7/7/7 73/73/73 
f 7/7/7 74/74/74 73/73/73 
f 75/75/75 3/3/3 72/72/72 
f 72/72/72 3/3/3 7/7/7 
f 76/76/76 1/1/1 75/75/75 
f 75/75/75 1/1/1 3/3/3 
f 1/1/1 76/76/76 38/38/38 
f 76/76/76 37/37/37 38/38/38 
f 33/33/33 34/34/34 41/41/41 
f 77/77/77 41/41/41 34/34/34 
f 43/43/43 41/41/41 78/78/78 
f 41/41/41 77/77/77 78/78/78 
f 50/50/50 43/43/43 79/79/79 
f 43/43/43 78/78/78 79/79/79 
f 10/10/10 19/19/19 12/12/12 
f 19/19/19 69/69/69 12/12/12 
f 8/8/8 4/4/4 5/5/5 
f 5/5/5 6/6/6 64/64/64 
f 47/47/47 51/51/51 48/48/48 
f 64/64/64 63/63/63 11/11/11 
f 50/50/50 79/79/79 49/49/49 
f 8/8/8 74/74/74 7/7/7 
# 124 faces

