# 3ds Max Wavefront OBJ Exporter v0.97b - (c)2007 guruware
# File Created: 23.11.2015 10:37:18

mtllib H141_285B_R.mtl

#
# object H141_285B_R_DTaSI_H141_285B_R
#

v  12.0715 72.5711 72.9702
v  10.7160 76.4543 71.3288
v  2.6032 73.5155 72.4906
v  1.3215 77.3877 70.8313
v  19.2560 74.8258 72.0577
v  20.6857 71.0728 73.6328
v  12.0328 44.9558 84.6093
v  13.6478 39.9833 86.5740
v  21.9893 44.1460 84.9397
v  23.6657 39.2801 86.8901
v  33.0892 38.6376 87.1700
v  31.2739 43.3981 85.2417
v  25.6421 33.5040 89.1481
v  35.2235 33.0088 89.4052
v  -13.6135 47.0614 83.7485
v  -12.1309 41.8520 85.7320
v  -8.5883 46.6480 83.9175
v  -7.0793 41.4834 85.8981
v  -22.3289 78.0757 70.0724
v  -21.4515 74.6018 71.6547
v  -17.8250 78.0617 70.1750
v  -16.7585 74.4409 71.8037
v  29.4738 68.8630 74.5806
v  27.8990 72.3462 73.1276
v  36.7794 69.2395 74.4511
v  38.6826 66.0854 75.7579
v  43.3366 37.9495 87.4526
v  45.7162 32.4868 89.6406
v  54.2480 37.2186 87.7296
v  56.5264 31.9675 89.8275
v  41.3050 42.5933 85.5608
v  52.2991 41.7017 85.9068
v  48.0059 62.9884 77.0574
v  45.8822 65.6826 75.9492
v  55.4205 61.2831 77.7741
v  55.0442 60.2828 78.1803
v  63.6154 40.7654 86.2625
v  64.9039 36.5016 87.9769
v  72.9218 35.9595 88.1533
v  72.3860 40.0241 86.5415
v  66.4133 31.5130 89.9371
v  73.5559 31.1943 89.9875
v  46.7774 52.9897 81.1980
v  49.9851 46.8393 83.7709
v  58.8662 51.3109 81.8793
v  61.9813 45.6289 84.2498
v  71.7323 44.5698 84.6695
v  70.3692 49.7066 82.5242
v  38.9572 47.9147 83.3450
v  29.1843 48.8399 82.9780
v  26.5756 55.6380 80.1171
v  36.0330 54.4431 80.6055
v  20.0625 49.6868 82.6412
v  10.1850 50.5886 82.2812
v  7.8711 57.5963 79.3045
v  17.6338 56.6404 79.7054
v  -17.2369 59.7928 78.3501
v  -15.2701 52.8822 81.3614
v  -12.3223 59.3729 78.5341
v  -10.2835 52.4340 81.5413
v  -8.0633 74.1100 72.0889
v  -9.2338 77.8631 70.4410
v  -1.0576 51.6042 81.8742
v  0.7085 45.8837 84.2299
v  -3.2270 58.5893 78.8765
v  2.2659 40.8029 86.2045
v  4.1141 34.7456 88.4649
v  15.5568 34.0651 88.8384
v  -5.2818 35.3202 88.1515
v  -10.2742 35.7512 87.9403
v  23.3776 64.0101 76.5978
v  32.4665 62.3005 77.3194
v  42.4492 60.1686 78.2114
v  5.0150 66.2295 75.6120
v  14.6208 65.2684 76.0570
v  -14.7452 67.6049 74.8728
v  -5.8579 67.0366 75.1914
v  -19.5446 67.9014 74.7037
v  53.1344 57.8014 79.1941
v  61.6033 55.9978 79.9387
v  65.1345 55.9671 79.9516
v  72.6484 51.5052 81.7695
v  76.6232 48.9888 82.7955
v  76.8207 46.9600 83.6512
v  76.9604 43.7114 85.0157
v  77.1383 39.5757 86.7117
v  77.3067 35.6584 88.2500
v  77.3672 31.1192 89.9752
# 88 vertices

vn -0.0052 0.3886 0.9214
vn -0.0073 0.3879 0.9217
vn -0.0092 0.3923 0.9198
vn -0.0123 0.3916 0.9201
vn -0.0039 0.3862 0.9224
vn -0.0028 0.3866 0.9223
vn -0.0008 0.3745 0.9272
vn -0.0049 0.3600 0.9330
vn -0.0003 0.3775 0.9260
vn -0.0039 0.3660 0.9306
vn -0.0020 0.3709 0.9287
vn 0.0004 0.3799 0.9250
vn -0.0058 0.3634 0.9316
vn -0.0030 0.3686 0.9296
vn -0.0006 0.3709 0.9287
vn -0.0047 0.3487 0.9372
vn -0.0009 0.3700 0.9290
vn -0.0050 0.3493 0.9370
vn -0.0195 0.4103 0.9117
vn -0.0160 0.4097 0.9121
vn -0.0181 0.4067 0.9134
vn -0.0148 0.4064 0.9136
vn -0.0022 0.3846 0.9231
vn -0.0032 0.3841 0.9233
vn -0.0033 0.3815 0.9244
vn -0.0020 0.3823 0.9240
vn 0.0001 0.3740 0.9274
vn 0.0001 0.3717 0.9284
vn 0.0023 0.3743 0.9273
vn 0.0034 0.3713 0.9285
vn 0.0012 0.3814 0.9244
vn 0.0020 0.3812 0.9245
vn -0.0016 0.3801 0.9250
vn -0.0033 0.3786 0.9256
vn -0.0021 0.3775 0.9260
vn -0.0015 0.3784 0.9256
vn 0.0026 0.3789 0.9254
vn 0.0042 0.3705 0.9288
vn 0.0052 0.3650 0.9310
vn 0.0027 0.3757 0.9268
vn 0.0063 0.3660 0.9306
vn 0.0085 0.3592 0.9332
vn 0.0013 0.3855 0.9227
vn 0.0020 0.3858 0.9226
vn 0.0015 0.3844 0.9232
vn 0.0022 0.3848 0.9230
vn 0.0024 0.3839 0.9234
vn 0.0025 0.3846 0.9231
vn 0.0018 0.3863 0.9224
vn 0.0016 0.3865 0.9223
vn 0.0011 0.3879 0.9217
vn 0.0012 0.3867 0.9222
vn 0.0014 0.3865 0.9223
vn 0.0012 0.3868 0.9222
vn -0.0001 0.3919 0.9200
vn 0.0007 0.3894 0.9211
vn -0.0011 0.4044 0.9146
vn 0.0014 0.3921 0.9199
vn -0.0012 0.4011 0.9160
vn 0.0011 0.3898 0.9209
vn -0.0127 0.3993 0.9167
vn -0.0160 0.3990 0.9168
vn 0.0010 0.3881 0.9216
vn -0.0009 0.3718 0.9283
vn -0.0010 0.3964 0.9181
vn -0.0052 0.3538 0.9353
vn -0.0078 0.3490 0.9371
vn -0.0074 0.3566 0.9342
vn -0.0082 0.3430 0.9393
vn -0.0087 0.3399 0.9404
vn -0.0008 0.3872 0.9220
vn -0.0005 0.3855 0.9227
vn -0.0002 0.3837 0.9235
vn -0.0044 0.3928 0.9196
vn -0.0021 0.3892 0.9212
vn -0.0079 0.4052 0.9142
vn -0.0067 0.3989 0.9170
vn -0.0084 0.4086 0.9127
vn 0.0002 0.3822 0.9241
vn 0.0006 0.3811 0.9245
vn 0.0004 0.3802 0.9249
vn 0.0038 0.3828 0.9238
vn 0.0045 0.3877 0.9218
vn 0.0033 0.3872 0.9220
vn 0.0022 0.3829 0.9238
vn 0.0028 0.3731 0.9278
vn 0.0055 0.3614 0.9324
vn 0.0100 0.3554 0.9347
# 88 vertex normals

vt 0.5405 0.1627 0.0000
vt 0.5339 0.1760 0.0000
vt 0.5084 0.1614 0.0000
vt 0.5020 0.1749 0.0000
vt 0.5632 0.1744 0.0000
vt 0.5700 0.1615 0.0000
vt 0.5553 0.0627 0.0000
vt 0.5634 0.0457 0.0000
vt 0.5890 0.0647 0.0000
vt 0.5972 0.0481 0.0000
vt 0.6290 0.0505 0.0000
vt 0.6204 0.0667 0.0000
vt 0.6069 0.0284 0.0000
vt 0.6391 0.0313 0.0000
vt 0.4687 0.0574 0.0000
vt 0.4764 0.0396 0.0000
vt 0.4856 0.0585 0.0000
vt 0.4934 0.0408 0.0000
vt 0.4226 0.1661 0.0000
vt 0.4275 0.1538 0.0000
vt 0.4377 0.1682 0.0000
vt 0.4432 0.1555 0.0000
vt 0.6006 0.1579 0.0000
vt 0.5934 0.1697 0.0000
vt 0.6247 0.1629 0.0000
vt 0.6328 0.1524 0.0000
vt 0.6635 0.0531 0.0000
vt 0.6744 0.0347 0.0000
vt 0.7003 0.0560 0.0000
vt 0.7107 0.0382 0.0000
vt 0.6542 0.0688 0.0000
vt 0.6914 0.0711 0.0000
vt 0.6656 0.1459 0.0000
vt 0.6570 0.1545 0.0000
vt 0.6912 0.1434 0.0000
vt 0.6905 0.1396 0.0000
vt 0.7296 0.0734 0.0000
vt 0.7362 0.0588 0.0000
vt 0.7633 0.0609 0.0000
vt 0.7593 0.0752 0.0000
vt 0.7439 0.0416 0.0000
vt 0.7679 0.0442 0.0000
vt 0.6669 0.1092 0.0000
vt 0.6809 0.0885 0.0000
vt 0.7081 0.1092 0.0000
vt 0.7216 0.0902 0.0000
vt 0.7547 0.0913 0.0000
vt 0.7473 0.1091 0.0000
vt 0.6435 0.0869 0.0000
vt 0.6104 0.0853 0.0000
vt 0.5981 0.1086 0.0000
vt 0.6302 0.1090 0.0000
vt 0.5796 0.0838 0.0000
vt 0.5461 0.0821 0.0000
vt 0.5346 0.1063 0.0000
vt 0.5677 0.1077 0.0000
vt 0.4497 0.1018 0.0000
vt 0.4600 0.0776 0.0000
vt 0.4663 0.1027 0.0000
vt 0.4769 0.0785 0.0000
vt 0.4724 0.1585 0.0000
vt 0.4665 0.1715 0.0000
vt 0.5081 0.0801 0.0000
vt 0.5171 0.0604 0.0000
vt 0.4970 0.1044 0.0000
vt 0.5250 0.0430 0.0000
vt 0.5344 0.0223 0.0000
vt 0.5729 0.0255 0.0000
vt 0.5027 0.0198 0.0000
vt 0.4858 0.0189 0.0000
vt 0.5828 0.1373 0.0000
vt 0.6141 0.1356 0.0000
vt 0.6485 0.1329 0.0000
vt 0.5204 0.1362 0.0000
vt 0.5530 0.1375 0.0000
vt 0.4537 0.1315 0.0000
vt 0.4837 0.1338 0.0000
vt 0.4375 0.1302 0.0000
vt 0.6855 0.1297 0.0000
vt 0.7147 0.1274 0.0000
vt 0.7265 0.1291 0.0000
vt 0.7539 0.1168 0.0000
vt 0.7686 0.1097 0.0000
vt 0.7703 0.1025 0.0000
vt 0.7726 0.0908 0.0000
vt 0.7754 0.0760 0.0000
vt 0.7780 0.0620 0.0000
vt 0.7807 0.0459 0.0000
# 88 texture coords

g H141_285B_R_DTaSI_H141_285B_R
usemtl windowglass_1SG
s 1
f 1/1/1 2/2/2 3/3/3 
f 2/2/2 4/4/4 3/3/3 
f 2/2/2 1/1/1 5/5/5 
f 1/1/1 6/6/6 5/5/5 
f 7/7/7 8/8/8 9/9/9 
f 8/8/8 10/10/10 9/9/9 
f 11/11/11 12/12/12 10/10/10 
f 12/12/12 9/9/9 10/10/10 
f 10/10/10 13/13/13 11/11/11 
f 13/13/13 14/14/14 11/11/11 
f 15/15/15 16/16/16 17/17/17 
f 16/16/16 18/18/18 17/17/17 
f 19/19/19 20/20/20 21/21/21 
f 20/20/20 22/22/22 21/21/21 
f 23/23/23 24/24/24 6/6/6 
f 24/24/24 5/5/5 6/6/6 
f 24/24/24 23/23/23 25/25/25 
f 23/23/23 26/26/26 25/25/25 
f 27/27/27 28/28/28 29/29/29 
f 28/28/28 30/30/30 29/29/29 
f 12/12/12 11/11/11 31/31/31 
f 11/11/11 27/27/27 31/31/31 
f 29/29/29 32/32/32 27/27/27 
f 32/32/32 31/31/31 27/27/27 
f 33/33/33 34/34/34 26/26/26 
f 34/34/34 25/25/25 26/26/26 
f 34/34/34 33/33/33 35/35/35 
f 33/33/33 36/36/36 35/35/35 
f 32/32/32 29/29/29 37/37/37 
f 29/29/29 38/38/38 37/37/37 
f 39/39/39 40/40/40 38/38/38 
f 40/40/40 37/37/37 38/38/38 
f 38/38/38 41/41/41 39/39/39 
f 41/41/41 42/42/42 39/39/39 
f 43/43/43 44/44/44 45/45/45 
f 44/44/44 46/46/46 45/45/45 
f 47/47/47 48/48/48 46/46/46 
f 48/48/48 45/45/45 46/46/46 
f 40/40/40 47/47/47 37/37/37 
f 47/47/47 46/46/46 37/37/37 
f 44/44/44 32/32/32 46/46/46 
f 32/32/32 37/37/37 46/46/46 
f 32/32/32 44/44/44 31/31/31 
f 44/44/44 49/49/49 31/31/31 
f 50/50/50 12/12/12 49/49/49 
f 12/12/12 31/31/31 49/49/49 
f 51/51/51 50/50/50 52/52/52 
f 50/50/50 49/49/49 52/52/52 
f 44/44/44 43/43/43 49/49/49 
f 43/43/43 52/52/52 49/49/49 
f 12/12/12 50/50/50 9/9/9 
f 50/50/50 53/53/53 9/9/9 
f 54/54/54 7/7/7 53/53/53 
f 7/7/7 9/9/9 53/53/53 
f 55/55/55 54/54/54 56/56/56 
f 54/54/54 53/53/53 56/56/56 
f 50/50/50 51/51/51 53/53/53 
f 51/51/51 56/56/56 53/53/53 
f 57/57/57 58/58/58 59/59/59 
f 58/58/58 60/60/60 59/59/59 
f 58/58/58 15/15/15 60/60/60 
f 15/15/15 17/17/17 60/60/60 
f 61/61/61 62/62/62 22/22/22 
f 62/62/62 21/21/21 22/22/22 
f 62/62/62 61/61/61 4/4/4 
f 61/61/61 3/3/3 4/4/4 
f 60/60/60 17/17/17 63/63/63 
f 17/17/17 64/64/64 63/63/63 
f 59/59/59 60/60/60 65/65/65 
f 60/60/60 63/63/63 65/65/65 
f 54/54/54 55/55/55 63/63/63 
f 55/55/55 65/65/65 63/63/63 
f 7/7/7 54/54/54 64/64/64 
f 54/54/54 63/63/63 64/64/64 
f 17/17/17 18/18/18 64/64/64 
f 18/18/18 66/66/66 64/64/64 
f 8/8/8 7/7/7 66/66/66 
f 7/7/7 64/64/64 66/66/66 
f 66/66/66 67/67/67 8/8/8 
f 67/67/67 68/68/68 8/8/8 
f 41/41/41 38/38/38 30/30/30 
f 38/38/38 29/29/29 30/30/30 
f 28/28/28 27/27/27 14/14/14 
f 27/27/27 11/11/11 14/14/14 
f 13/13/13 10/10/10 68/68/68 
f 10/10/10 8/8/8 68/68/68 
f 67/67/67 66/66/66 69/69/69 
f 66/66/66 18/18/18 69/69/69 
f 69/69/69 18/18/18 70/70/70 
f 18/18/18 16/16/16 70/70/70 
f 71/71/71 51/51/51 72/72/72 
f 51/51/51 52/52/52 72/72/72 
f 6/6/6 71/71/71 23/23/23 
f 71/71/71 72/72/72 23/23/23 
f 73/73/73 26/26/26 72/72/72 
f 26/26/26 23/23/23 72/72/72 
f 43/43/43 73/73/73 52/52/52 
f 73/73/73 72/72/72 52/52/52 
f 74/74/74 55/55/55 75/75/75 
f 55/55/55 56/56/56 75/75/75 
f 3/3/3 74/74/74 1/1/1 
f 74/74/74 75/75/75 1/1/1 
f 71/71/71 6/6/6 75/75/75 
f 6/6/6 1/1/1 75/75/75 
f 51/51/51 71/71/71 56/56/56 
f 71/71/71 75/75/75 56/56/56 
f 76/76/76 59/59/59 77/77/77 
f 59/59/59 65/65/65 77/77/77 
f 22/22/22 76/76/76 61/61/61 
f 76/76/76 77/77/77 61/61/61 
f 74/74/74 3/3/3 77/77/77 
f 3/3/3 61/61/61 77/77/77 
f 55/55/55 74/74/74 65/65/65 
f 74/74/74 77/77/77 65/65/65 
f 20/20/20 78/78/78 22/22/22 
f 78/78/78 76/76/76 22/22/22 
f 78/78/78 57/57/57 76/76/76 
f 57/57/57 59/59/59 76/76/76 
f 73/73/73 43/43/43 79/79/79 
f 43/43/43 45/45/45 79/79/79 
f 26/26/26 73/73/73 33/33/33 
f 73/73/73 79/79/79 33/33/33 
f 80/80/80 36/36/36 79/79/79 
f 36/36/36 33/33/33 79/79/79 
f 48/48/48 80/80/80 45/45/45 
f 80/80/80 79/79/79 45/45/45 
f 36/36/36 80/80/80 35/35/35 
f 80/80/80 81/81/81 35/35/35 
f 80/80/80 48/48/48 81/81/81 
f 48/48/48 82/82/82 81/81/81 
f 82/82/82 48/48/48 83/83/83 
f 48/48/48 84/84/84 83/83/83 
f 48/48/48 47/47/47 84/84/84 
f 47/47/47 85/85/85 84/84/84 
f 47/47/47 40/40/40 85/85/85 
f 40/40/40 86/86/86 85/85/85 
f 40/40/40 39/39/39 86/86/86 
f 39/39/39 87/87/87 86/86/86 
f 88/88/88 87/87/87 42/42/42 
f 87/87/87 39/39/39 42/42/42 
# 140 faces

