# 3ds Max Wavefront OBJ Exporter v0.97b - (c)2007 guruware
# File Created: 23.11.2015 10:38:19

mtllib H141_325B_R.mtl

#
# object H141_325B_R_DTaSI_H141_325B_R
#

v  -39.0638 74.6891 71.1536
v  -38.6481 68.5061 74.0351
v  -33.9984 74.7559 71.2658
v  -33.4759 68.4162 74.2095
v  -38.1396 60.8784 77.5482
v  -32.8341 60.6303 77.7782
v  -31.0221 37.1551 87.3257
v  -31.0561 39.0603 86.6303
v  -36.6330 37.3718 87.2480
v  -36.7574 39.3432 86.5104
v  -105.7484 66.8330 73.4824
v  -94.8993 67.8097 73.0739
v  -105.7484 69.1610 72.3072
v  -95.0544 71.2116 71.3803
v  -84.5118 72.6271 70.9434
v  -84.4711 68.3992 73.0137
v  -84.3868 62.7235 75.7799
v  -94.7761 62.9448 75.4842
v  -105.7484 63.1010 75.3617
v  -73.0547 39.0894 86.6382
v  -73.0689 41.1464 85.7597
v  -83.7755 39.5949 86.4634
v  -83.8314 41.6816 85.5444
v  -60.8933 40.5413 86.0072
v  -60.8853 38.5155 86.8392
v  -31.7901 47.9650 83.2448
v  -32.2718 53.8087 80.8041
v  -37.3242 48.2892 83.0370
v  -37.6984 54.1281 80.5658
v  -84.2494 56.8236 78.6240
v  -84.0874 51.0296 81.3477
v  -73.1838 56.1968 79.0621
v  -73.1369 50.3877 81.7282
v  -73.2202 62.3789 76.1407
v  -60.9685 55.4918 79.5619
v  -61.0146 61.9058 76.5917
v  -60.9342 49.6725 82.1621
v  -93.7151 40.0632 86.3011
v  -93.8165 42.1780 85.3443
v  -105.7484 40.6257 86.2932
v  -105.7484 42.7675 85.2896
v  -94.2775 51.6261 80.9908
v  -94.5600 57.3931 78.2148
v  -105.7484 52.2869 80.7599
v  -105.7484 57.9819 77.9392
v  -73.2331 68.7134 73.1049
v  -73.2324 73.6038 70.7474
v  -61.1201 74.2081 70.7707
v  -61.0719 68.7776 73.3509
v  -47.4385 37.8814 87.0650
v  -47.4983 39.8762 86.2852
v  -47.9590 54.7314 80.1177
v  -48.1867 61.3429 77.1170
v  -47.7728 48.9013 82.6462
v  -48.6834 74.5386 70.9537
v  -48.4582 68.6619 73.7134
v  -83.9379 45.6351 83.7934
v  -94.0096 46.1814 83.5233
v  -105.7484 46.8148 83.3861
v  -60.9091 44.3862 84.4161
v  -73.0962 45.0467 84.0833
v  -36.9944 43.0923 85.0919
v  -47.6123 43.6665 84.7895
v  -31.3634 42.7879 85.2527
v  -84.5312 74.8099 69.8727
v  -95.1481 72.9777 70.4983
v  -73.2309 76.1332 69.5264
v  -61.1451 77.0262 69.4295
v  -48.8004 77.5894 69.5179
v  -39.2796 77.8958 69.6553
v  -34.3727 77.9861 69.7586
v  -105.7484 70.5001 71.6292
# 72 vertices

vn -0.0249 0.4217 0.9064
vn -0.0226 0.4192 0.9076
vn -0.0250 0.4203 0.9071
vn -0.0226 0.4176 0.9083
vn -0.0194 0.4127 0.9106
vn -0.0194 0.4105 0.9117
vn 0.0002 0.3429 0.9394
vn -0.0017 0.3458 0.9383
vn -0.0003 0.3498 0.9368
vn -0.0023 0.3522 0.9359
vn -0.0053 0.4487 0.8937
vn -0.0134 0.4444 0.8957
vn -0.0078 0.4499 0.8930
vn -0.0150 0.4449 0.8955
vn -0.0216 0.4392 0.8981
vn -0.0194 0.4392 0.8982
vn -0.0159 0.4359 0.8999
vn -0.0100 0.4427 0.8966
vn -0.0036 0.4497 0.8932
vn 0.0022 0.3920 0.9200
vn 0.0000 0.3935 0.9193
vn 0.0029 0.4024 0.9155
vn 0.0009 0.4037 0.9149
vn -0.0012 0.3808 0.9247
vn 0.0011 0.3791 0.9253
vn -0.0112 0.3739 0.9274
vn -0.0157 0.3954 0.9184
vn -0.0114 0.3791 0.9253
vn -0.0157 0.3991 0.9168
vn -0.0117 0.4297 0.9029
vn -0.0072 0.4192 0.9078
vn -0.0124 0.4223 0.9064
vn -0.0082 0.4105 0.9118
vn -0.0163 0.4296 0.9029
vn -0.0140 0.4143 0.9100
vn -0.0177 0.4233 0.9058
vn -0.0098 0.4004 0.9163
vn 0.0109 0.4120 0.9111
vn 0.0092 0.4133 0.9105
vn 0.0170 0.4229 0.9060
vn 0.0145 0.4235 0.9058
vn 0.0006 0.4281 0.9038
vn -0.0046 0.4376 0.8992
vn 0.0049 0.4368 0.8995
vn -0.0003 0.4453 0.8954
vn -0.0198 0.4337 0.9008
vn -0.0222 0.4338 0.9007
vn -0.0241 0.4292 0.9029
vn -0.0215 0.4279 0.9036
vn 0.0002 0.3633 0.9317
vn -0.0020 0.3654 0.9308
vn -0.0152 0.4058 0.9138
vn -0.0189 0.4172 0.9086
vn -0.0109 0.3888 0.9213
vn -0.0247 0.4249 0.9049
vn -0.0221 0.4227 0.9060
vn -0.0028 0.4091 0.9125
vn 0.0054 0.4185 0.9082
vn 0.0101 0.4279 0.9038
vn -0.0052 0.3876 0.9218
vn -0.0038 0.3994 0.9168
vn -0.0065 0.3616 0.9323
vn -0.0062 0.3735 0.9276
vn -0.0059 0.3556 0.9346
vn -0.0228 0.4396 0.8979
vn -0.0167 0.4455 0.8951
vn -0.0235 0.4342 0.9005
vn -0.0247 0.4290 0.9030
vn -0.0262 0.4249 0.9049
vn -0.0261 0.4222 0.9061
vn -0.0261 0.4208 0.9068
vn -0.0092 0.4510 0.8925
# 72 vertex normals

vt 0.3867 0.1529 0.0000
vt 0.3878 0.1299 0.0000
vt 0.4038 0.1528 0.0000
vt 0.4053 0.1292 0.0000
vt 0.3893 0.1015 0.0000
vt 0.4072 0.1003 0.0000
vt 0.4124 0.0148 0.0000
vt 0.4124 0.0216 0.0000
vt 0.3935 0.0158 0.0000
vt 0.3932 0.0229 0.0000
vt 0.1614 0.1280 0.0000
vt 0.1981 0.1309 0.0000
vt 0.1615 0.1368 0.0000
vt 0.1977 0.1437 0.0000
vt 0.2333 0.1484 0.0000
vt 0.2333 0.1325 0.0000
vt 0.2334 0.1112 0.0000
vt 0.1983 0.1126 0.0000
vt 0.1613 0.1139 0.0000
vt 0.2707 0.0231 0.0000
vt 0.2708 0.0306 0.0000
vt 0.2346 0.0252 0.0000
vt 0.2345 0.0329 0.0000
vt 0.3118 0.0280 0.0000
vt 0.3117 0.0206 0.0000
vt 0.4102 0.0537 0.0000
vt 0.4088 0.0751 0.0000
vt 0.3916 0.0552 0.0000
vt 0.3905 0.0766 0.0000
vt 0.2336 0.0891 0.0000
vt 0.2339 0.0675 0.0000
vt 0.2709 0.0862 0.0000
vt 0.2709 0.0646 0.0000
vt 0.2710 0.1093 0.0000
vt 0.3121 0.0829 0.0000
vt 0.3122 0.1068 0.0000
vt 0.3120 0.0614 0.0000
vt 0.2011 0.0272 0.0000
vt 0.2008 0.0351 0.0000
vt 0.1605 0.0296 0.0000
vt 0.1606 0.0376 0.0000
vt 0.1996 0.0702 0.0000
vt 0.1989 0.0918 0.0000
vt 0.1609 0.0732 0.0000
vt 0.1611 0.0946 0.0000
vt 0.2712 0.1329 0.0000
vt 0.2714 0.1513 0.0000
vt 0.3122 0.1527 0.0000
vt 0.3122 0.1324 0.0000
vt 0.3571 0.0179 0.0000
vt 0.3569 0.0252 0.0000
vt 0.3559 0.0794 0.0000
vt 0.3554 0.1039 0.0000
vt 0.3564 0.0580 0.0000
vt 0.3542 0.1530 0.0000
vt 0.3548 0.1311 0.0000
vt 0.2343 0.0475 0.0000
vt 0.2003 0.0499 0.0000
vt 0.1607 0.0527 0.0000
vt 0.3119 0.0421 0.0000
vt 0.2708 0.0450 0.0000
vt 0.3925 0.0364 0.0000
vt 0.3567 0.0389 0.0000
vt 0.4115 0.0350 0.0000
vt 0.2333 0.1565 0.0000
vt 0.1974 0.1504 0.0000
vt 0.2715 0.1607 0.0000
vt 0.3123 0.1632 0.0000
vt 0.3539 0.1644 0.0000
vt 0.3861 0.1648 0.0000
vt 0.4026 0.1648 0.0000
vt 0.1616 0.1418 0.0000
# 72 texture coords

g H141_325B_R_DTaSI_H141_325B_R
usemtl windowglass_1SG
s 1
f 1/1/1 2/2/2 3/3/3 
f 2/2/2 4/4/4 3/3/3 
f 2/2/2 5/5/5 4/4/4 
f 5/5/5 6/6/6 4/4/4 
f 7/7/7 8/8/8 9/9/9 
f 8/8/8 10/10/10 9/9/9 
f 11/11/11 12/12/12 13/13/13 
f 12/12/12 14/14/14 13/13/13 
f 15/15/15 14/14/14 16/16/16 
f 14/14/14 12/12/12 16/16/16 
f 17/17/17 16/16/16 18/18/18 
f 16/16/16 12/12/12 18/18/18 
f 12/12/12 11/11/11 18/18/18 
f 11/11/11 19/19/19 18/18/18 
f 20/20/20 21/21/21 22/22/22 
f 21/21/21 23/23/23 22/22/22 
f 21/21/21 20/20/20 24/24/24 
f 20/20/20 25/25/25 24/24/24 
f 26/26/26 27/27/27 28/28/28 
f 27/27/27 29/29/29 28/28/28 
f 27/27/27 6/6/6 29/29/29 
f 6/6/6 5/5/5 29/29/29 
f 30/30/30 31/31/31 32/32/32 
f 31/31/31 33/33/33 32/32/32 
f 17/17/17 30/30/30 34/34/34 
f 30/30/30 32/32/32 34/34/34 
f 35/35/35 36/36/36 32/32/32 
f 36/36/36 34/34/34 32/32/32 
f 37/37/37 35/35/35 33/33/33 
f 35/35/35 32/32/32 33/33/33 
f 38/38/38 39/39/39 40/40/40 
f 39/39/39 41/41/41 40/40/40 
f 39/39/39 38/38/38 23/23/23 
f 38/38/38 22/22/22 23/23/23 
f 42/42/42 43/43/43 44/44/44 
f 43/43/43 45/45/45 44/44/44 
f 30/30/30 17/17/17 43/43/43 
f 17/17/17 18/18/18 43/43/43 
f 31/31/31 30/30/30 42/42/42 
f 30/30/30 43/43/43 42/42/42 
f 16/16/16 17/17/17 46/46/46 
f 17/17/17 34/34/34 46/46/46 
f 47/47/47 15/15/15 46/46/46 
f 15/15/15 16/16/16 46/46/46 
f 48/48/48 47/47/47 49/49/49 
f 47/47/47 46/46/46 49/49/49 
f 36/36/36 49/49/49 34/34/34 
f 49/49/49 46/46/46 34/34/34 
f 50/50/50 51/51/51 25/25/25 
f 51/51/51 24/24/24 25/25/25 
f 51/51/51 50/50/50 10/10/10 
f 50/50/50 9/9/9 10/10/10 
f 29/29/29 5/5/5 52/52/52 
f 5/5/5 53/53/53 52/52/52 
f 28/28/28 29/29/29 54/54/54 
f 29/29/29 52/52/52 54/54/54 
f 35/35/35 37/37/37 52/52/52 
f 37/37/37 54/54/54 52/52/52 
f 36/36/36 35/35/35 53/53/53 
f 35/35/35 52/52/52 53/53/53 
f 48/48/48 49/49/49 55/55/55 
f 49/49/49 56/56/56 55/55/55 
f 2/2/2 1/1/1 56/56/56 
f 1/1/1 55/55/55 56/56/56 
f 5/5/5 2/2/2 53/53/53 
f 2/2/2 56/56/56 53/53/53 
f 49/49/49 36/36/36 56/56/56 
f 36/36/36 53/53/53 56/56/56 
f 23/23/23 57/57/57 39/39/39 
f 57/57/57 58/58/58 39/39/39 
f 39/39/39 58/58/58 41/41/41 
f 58/58/58 59/59/59 41/41/41 
f 57/57/57 31/31/31 58/58/58 
f 31/31/31 42/42/42 58/58/58 
f 24/24/24 60/60/60 21/21/21 
f 60/60/60 61/61/61 21/21/21 
f 57/57/57 23/23/23 61/61/61 
f 23/23/23 21/21/21 61/61/61 
f 31/31/31 57/57/57 33/33/33 
f 57/57/57 61/61/61 33/33/33 
f 60/60/60 37/37/37 61/61/61 
f 37/37/37 33/33/33 61/61/61 
f 10/10/10 62/62/62 51/51/51 
f 62/62/62 63/63/63 51/51/51 
f 60/60/60 24/24/24 63/63/63 
f 24/24/24 51/51/51 63/63/63 
f 37/37/37 60/60/60 54/54/54 
f 60/60/60 63/63/63 54/54/54 
f 62/62/62 28/28/28 63/63/63 
f 28/28/28 54/54/54 63/63/63 
f 8/8/8 64/64/64 10/10/10 
f 64/64/64 62/62/62 10/10/10 
f 64/64/64 26/26/26 62/62/62 
f 26/26/26 28/28/28 62/62/62 
f 65/65/65 66/66/66 15/15/15 
f 66/66/66 14/14/14 15/15/15 
f 15/15/15 47/47/47 65/65/65 
f 47/47/47 67/67/67 65/65/65 
f 47/47/47 48/48/48 67/67/67 
f 48/48/48 68/68/68 67/67/67 
f 69/69/69 55/55/55 70/70/70 
f 55/55/55 1/1/1 70/70/70 
f 69/69/69 68/68/68 55/55/55 
f 68/68/68 48/48/48 55/55/55 
f 70/70/70 1/1/1 71/71/71 
f 1/1/1 3/3/3 71/71/71 
f 43/43/43 18/18/18 45/45/45 
f 18/18/18 19/19/19 45/45/45 
f 58/58/58 42/42/42 59/59/59 
f 42/42/42 44/44/44 59/59/59 
f 13/13/13 14/14/14 72/72/72 
f 14/14/14 66/66/66 72/72/72 
# 112 faces

