# 3ds Max Wavefront OBJ Exporter v0.97b - (c)2007 guruware
# File Created: 09.11.2015 11:15:45

mtllib D160_18A5_L.mtl

#
# object D160_18A5_L_DaS_D160_18A5_L
#

v  -3.6253 82.3543 -70.4650
v  -4.7177 80.8385 -72.0719
v  -13.6410 83.6949 -69.8549
v  -14.7402 82.1081 -71.5398
v  -24.5098 84.6430 -69.2568
v  -25.4939 83.0151 -71.0216
v  -36.1678 85.1227 -68.6918
v  -36.8929 83.4841 -70.5272
v  -22.6624 86.4711 -64.2274
v  -23.5745 85.7204 -67.0789
v  -35.0334 86.9671 -63.5948
v  -35.5628 86.2089 -66.4618
v  -11.3217 85.4798 -64.9018
v  -12.5066 84.7459 -67.7355
v  -2.3885 83.3575 -68.3999
v  -1.0050 84.0599 -65.5779
v  -73.5168 83.6420 -67.4614
v  -61.1641 84.5375 -67.7592
v  -72.7537 82.1199 -69.3992
v  -60.9456 82.9611 -69.6790
v  -67.0177 80.4610 -71.1796
v  -60.7353 80.7920 -71.3736
v  -73.6089 79.9990 -71.0445
v  -75.7553 85.4446 -62.3026
v  -62.2349 86.3638 -62.6050
v  -74.5794 84.6870 -65.1678
v  -61.6389 85.6034 -65.4745
v  -48.4427 86.9009 -63.0449
v  -48.4423 86.1396 -65.9164
v  -48.5502 85.0586 -68.1810
v  -48.8510 83.4401 -70.0673
v  -47.4236 81.3142 -71.6803
v  -36.5311 81.4735 -71.9367
v  -37.6754 87.3484 -61.2209
v  -49.0037 87.2754 -60.8084
v  -34.7344 87.3596 -61.3482
v  -62.0435 86.7853 -60.3876
v  -73.4360 86.0431 -60.1448
v  -76.4094 85.8358 -60.1365
v  -25.7032 87.0090 -61.7392
v  -22.1069 86.8641 -61.9292
v  -13.4616 86.1207 -62.3861
v  -10.5487 85.8641 -62.5741
v  -5.1876 79.3168 -73.0212
v  -16.6465 80.6275 -72.5196
v  -26.4132 81.2709 -72.1931
v  -82.7351 81.1046 -69.2784
v  -82.1223 78.9848 -71.0957
v  -0.4340 84.4741 -63.2316
v  -84.5600 84.5974 -62.2063
v  -85.0058 85.0091 -60.1128
v  -83.9748 83.7492 -65.0594
v  -83.2418 82.6468 -67.3450
v  20.8022 74.1742 -74.5759
v  13.5644 75.9825 -74.0715
v  21.1285 75.2826 -73.7262
v  12.7899 77.5152 -73.1355
v  21.6174 76.4217 -72.2805
v  13.5879 78.8022 -71.6378
v  4.4878 79.2820 -72.6073
v  5.5384 77.6182 -73.5847
v  5.4725 80.6977 -71.0664
v  16.5869 80.2002 -66.7719
v  14.8816 79.6292 -69.6239
v  8.2956 82.2777 -66.2147
v  6.7507 81.6276 -69.0401
v  23.0032 78.1867 -67.2258
v  22.2574 77.3596 -70.2043
v  9.3040 82.6028 -63.9883
v  12.5158 81.7858 -64.2379
v  17.6330 80.4669 -64.7070
v  23.4706 78.5924 -65.2421
# 72 vertices

vn 0.0857 0.7979 -0.5967
vn 0.0483 0.6305 -0.7747
vn 0.0535 0.8080 -0.5868
vn 0.0281 0.6376 -0.7699
vn 0.0222 0.8215 -0.5698
vn 0.0051 0.6600 -0.7512
vn -0.0100 0.8342 -0.5514
vn -0.0192 0.6726 -0.7397
vn 0.0505 0.9698 -0.2384
vn 0.0396 0.9352 -0.3518
vn 0.0078 0.9735 -0.2287
vn 0.0004 0.9411 -0.3382
vn 0.0951 0.9634 -0.2506
vn 0.0794 0.9264 -0.3680
vn 0.1209 0.9165 -0.3814
vn 0.1400 0.9558 -0.2587
vn -0.0806 0.8391 -0.5380
vn -0.0617 0.8430 -0.5344
vn -0.0724 0.7099 -0.7006
vn -0.0571 0.6994 -0.7125
vn -0.0620 0.6209 -0.7814
vn -0.0511 0.6092 -0.7914
vn -0.0692 0.6296 -0.7738
vn -0.0842 0.9627 -0.2571
vn -0.0590 0.9707 -0.2329
vn -0.0828 0.9306 -0.3564
vn -0.0611 0.9377 -0.3420
vn -0.0300 0.9748 -0.2210
vn -0.0343 0.9417 -0.3348
vn -0.0390 0.8403 -0.5407
vn -0.0407 0.6762 -0.7356
vn -0.0361 0.5873 -0.8086
vn -0.0179 0.5718 -0.8202
vn -0.0119 0.9852 -0.1712
vn -0.0323 0.9843 -0.1734
vn 0.0212 0.9844 -0.1748
vn -0.0539 0.9818 -0.1820
vn -0.0705 0.9784 -0.1943
vn -0.0905 0.9747 -0.2041
vn 0.0305 0.9840 -0.1755
vn 0.0635 0.9811 -0.1831
vn 0.0745 0.9797 -0.1861
vn 0.1127 0.9737 -0.1982
vn 0.0290 0.5233 -0.8517
vn 0.0111 0.5426 -0.8399
vn -0.0049 0.5603 -0.8283
vn -0.0803 0.7107 -0.6989
vn -0.0764 0.6334 -0.7700
vn 0.1464 0.9674 -0.2068
vn -0.0959 0.9612 -0.2588
vn -0.0950 0.9731 -0.2099
vn -0.0961 0.9265 -0.3639
vn -0.0915 0.8384 -0.5373
vn 0.0975 0.5714 -0.8149
vn 0.0801 0.5505 -0.8310
vn 0.1440 0.6749 -0.7237
vn 0.1040 0.6477 -0.7548
vn 0.2126 0.8090 -0.5480
vn 0.1657 0.7991 -0.5780
vn 0.0691 0.6259 -0.7768
vn 0.0523 0.5307 -0.8460
vn 0.1212 0.7947 -0.5947
vn 0.2397 0.9251 -0.2945
vn 0.2156 0.8954 -0.3897
vn 0.1851 0.9431 -0.2761
vn 0.1658 0.9066 -0.3881
vn 0.2647 0.9172 -0.2979
vn 0.2529 0.8802 -0.4017
vn 0.1860 0.9567 -0.2239
vn 0.2213 0.9460 -0.2367
vn 0.2555 0.9340 -0.2496
vn 0.2735 0.9271 -0.2561
# 72 vertex normals

vt 0.4937 0.2914 0.0000
vt 0.4957 0.2873 0.0000
vt 0.5141 0.2938 0.0000
vt 0.5160 0.2897 0.0000
vt 0.5359 0.2957 0.0000
vt 0.5377 0.2915 0.0000
vt 0.5592 0.2968 0.0000
vt 0.5606 0.2925 0.0000
vt 0.5326 0.3052 0.0000
vt 0.5343 0.3000 0.0000
vt 0.5569 0.3063 0.0000
vt 0.5579 0.3011 0.0000
vt 0.5098 0.3033 0.0000
vt 0.5120 0.2980 0.0000
vt 0.4913 0.2956 0.0000
vt 0.4884 0.3010 0.0000
vt 0.6343 0.2952 0.0000
vt 0.6097 0.2969 0.0000
vt 0.6328 0.2905 0.0000
vt 0.6092 0.2922 0.0000
vt 0.6214 0.2863 0.0000
vt 0.6087 0.2870 0.0000
vt 0.6347 0.2854 0.0000
vt 0.6390 0.3056 0.0000
vt 0.6121 0.3074 0.0000
vt 0.6364 0.3000 0.0000
vt 0.6107 0.3018 0.0000
vt 0.5842 0.3077 0.0000
vt 0.5840 0.3021 0.0000
vt 0.5841 0.2974 0.0000
vt 0.5847 0.2928 0.0000
vt 0.5818 0.2881 0.0000
vt 0.5598 0.2884 0.0000
vt 0.5621 0.3107 0.0000
vt 0.5854 0.3119 0.0000
vt 0.5564 0.3103 0.0000
vt 0.6120 0.3118 0.0000
vt 0.6346 0.3101 0.0000
vt 0.6404 0.3098 0.0000
vt 0.5387 0.3097 0.0000
vt 0.5318 0.3094 0.0000
vt 0.5142 0.3081 0.0000
vt 0.5084 0.3077 0.0000
vt 0.4964 0.2840 0.0000
vt 0.5196 0.2867 0.0000
vt 0.5393 0.2880 0.0000
vt 0.6525 0.2889 0.0000
vt 0.6519 0.2833 0.0000
vt 0.4871 0.3055 0.0000
vt 0.6561 0.3042 0.0000
vt 0.6571 0.3083 0.0000
vt 0.6547 0.2986 0.0000
vt 0.6533 0.2937 0.0000
vt 0.4439 0.2736 0.0000
vt 0.4585 0.2773 0.0000
vt 0.4432 0.2759 0.0000
vt 0.4605 0.2806 0.0000
vt 0.4418 0.2793 0.0000
vt 0.4592 0.2842 0.0000
vt 0.4771 0.2841 0.0000
vt 0.4748 0.2806 0.0000
vt 0.4753 0.2880 0.0000
vt 0.4532 0.2932 0.0000
vt 0.4568 0.2881 0.0000
vt 0.4694 0.2972 0.0000
vt 0.4728 0.2920 0.0000
vt 0.4374 0.2891 0.0000
vt 0.4399 0.2835 0.0000
vt 0.4670 0.3011 0.0000
vt 0.4607 0.2994 0.0000
vt 0.4509 0.2967 0.0000
vt 0.4356 0.2927 0.0000
# 72 texture coords

g D160_18A5_L_DaS_D160_18A5_L
usemtl paint_whiteSG
s 7
f 1/1/1 2/2/2 3/3/3 
f 3/3/3 2/2/2 4/4/4 
f 5/5/5 6/6/6 7/7/7 
f 7/7/7 6/6/6 8/8/8 
f 3/3/3 4/4/4 5/5/5 
f 5/5/5 4/4/4 6/6/6 
f 9/9/9 10/10/10 11/11/11 
f 11/11/11 10/10/10 12/12/12 
f 13/13/13 14/14/14 9/9/9 
f 9/9/9 14/14/14 10/10/10 
f 14/14/14 3/3/3 10/10/10 
f 10/10/10 3/3/3 5/5/5 
f 10/10/10 5/5/5 12/12/12 
f 12/12/12 5/5/5 7/7/7 
f 15/15/15 1/1/1 14/14/14 
f 14/14/14 1/1/1 3/3/3 
f 16/16/16 15/15/15 13/13/13 
f 13/13/13 15/15/15 14/14/14 
f 17/17/17 18/18/18 19/19/19 
f 19/19/19 18/18/18 20/20/20 
f 21/21/21 20/20/20 22/22/22 
f 20/20/20 21/21/21 19/19/19 
f 19/19/19 21/21/21 23/23/23 
f 24/24/24 25/25/25 26/26/26 
f 26/26/26 25/25/25 27/27/27 
f 26/26/26 27/27/27 17/17/17 
f 17/17/17 27/27/27 18/18/18 
f 11/11/11 12/12/12 28/28/28 
f 28/28/28 12/12/12 29/29/29 
f 12/12/12 7/7/7 29/29/29 
f 29/29/29 7/7/7 30/30/30 
f 27/27/27 29/29/29 18/18/18 
f 18/18/18 29/29/29 30/30/30 
f 25/25/25 28/28/28 27/27/27 
f 27/27/27 28/28/28 29/29/29 
f 31/31/31 8/8/8 32/32/32 
f 32/32/32 8/8/8 33/33/33 
f 30/30/30 31/31/31 18/18/18 
f 18/18/18 31/31/31 20/20/20 
f 7/7/7 8/8/8 30/30/30 
f 30/30/30 8/8/8 31/31/31 
f 11/11/11 28/28/28 34/34/34 
f 34/34/34 28/28/28 35/35/35 
f 11/11/11 34/34/34 36/36/36 
f 28/28/28 25/25/25 35/35/35 
f 35/35/35 25/25/25 37/37/37 
f 38/38/38 24/24/24 39/39/39 
f 24/24/24 38/38/38 25/25/25 
f 25/25/25 38/38/38 37/37/37 
f 9/9/9 40/40/40 41/41/41 
f 9/9/9 11/11/11 40/40/40 
f 40/40/40 11/11/11 36/36/36 
f 13/13/13 9/9/9 42/42/42 
f 42/42/42 9/9/9 41/41/41 
f 13/13/13 42/42/42 43/43/43 
f 2/2/2 44/44/44 4/4/4 
f 4/4/4 44/44/44 45/45/45 
f 6/6/6 46/46/46 8/8/8 
f 8/8/8 46/46/46 33/33/33 
f 4/4/4 45/45/45 6/6/6 
f 6/6/6 45/45/45 46/46/46 
f 19/19/19 23/23/23 47/47/47 
f 47/47/47 23/23/23 48/48/48 
f 32/32/32 22/22/22 31/31/31 
f 31/31/31 22/22/22 20/20/20 
f 49/49/49 16/16/16 43/43/43 
f 43/43/43 16/16/16 13/13/13 
f 24/24/24 50/50/50 39/39/39 
f 39/39/39 50/50/50 51/51/51 
f 26/26/26 52/52/52 24/24/24 
f 24/24/24 52/52/52 50/50/50 
f 17/17/17 53/53/53 26/26/26 
f 26/26/26 53/53/53 52/52/52 
f 19/19/19 47/47/47 17/17/17 
f 17/17/17 47/47/47 53/53/53 
f 54/54/54 55/55/55 56/56/56 
f 56/56/56 55/55/55 57/57/57 
f 58/58/58 56/56/56 59/59/59 
f 59/59/59 56/56/56 57/57/57 
f 60/60/60 57/57/57 61/61/61 
f 61/61/61 57/57/57 55/55/55 
f 60/60/60 62/62/62 57/57/57 
f 57/57/57 62/62/62 59/59/59 
f 63/63/63 64/64/64 65/65/65 
f 65/65/65 64/64/64 66/66/66 
f 67/67/67 68/68/68 63/63/63 
f 63/63/63 68/68/68 64/64/64 
f 59/59/59 64/64/64 58/58/58 
f 58/58/58 64/64/64 68/68/68 
f 62/62/62 66/66/66 59/59/59 
f 59/59/59 66/66/66 64/64/64 
f 61/61/61 44/44/44 60/60/60 
f 60/60/60 44/44/44 2/2/2 
f 2/2/2 1/1/1 60/60/60 
f 60/60/60 1/1/1 62/62/62 
f 65/65/65 66/66/66 16/16/16 
f 16/16/16 66/66/66 15/15/15 
f 1/1/1 15/15/15 62/62/62 
f 62/62/62 15/15/15 66/66/66 
f 69/69/69 65/65/65 49/49/49 
f 49/49/49 65/65/65 16/16/16 
f 65/65/65 70/70/70 63/63/63 
f 63/63/63 70/70/70 71/71/71 
f 69/69/69 70/70/70 65/65/65 
f 72/72/72 67/67/67 71/71/71 
f 71/71/71 67/67/67 63/63/63 
# 106 faces

#
# object D160_18A5_L_DaS_D160_18A5_L_E
#

v  -26.4132 81.2709 -72.1931
v  -26.4797 81.1183 -71.9992
v  -36.5311 81.4735 -71.9367
v  -36.5631 81.3116 -71.7443
v  -16.6465 80.6275 -72.5196
v  -16.7486 80.4877 -72.3239
v  -5.1876 79.3168 -73.0212
v  -5.3349 79.1970 -72.8226
v  -37.5792 81.2947 -71.7218
v  -47.2955 81.1324 -71.5062
v  -60.7689 80.5952 -71.2002
v  -47.4236 81.3142 -71.6803
v  -60.7353 80.7920 -71.3736
v  -82.1223 78.9848 -71.0957
v  -73.6089 79.9990 -71.0445
v  -81.8743 78.8254 -70.9116
v  -73.3673 79.8166 -70.8787
v  -66.9567 80.2880 -70.9914
v  -67.0177 80.4610 -71.1796
v  -37.9205 81.2889 -71.7142
v  13.5644 75.9825 -74.0715
v  13.3320 75.9075 -73.8670
v  5.5384 77.6182 -73.5847
v  5.3441 77.5220 -73.3830
v  20.8022 74.1742 -74.5759
v  20.5334 74.1213 -74.3686
# 26 vertices

vn -0.0546 -0.7756 -0.6288
vn -0.0480 -0.7767 -0.6280
vn -0.0178 -0.7632 -0.6459
vn -0.0149 -0.7639 -0.6452
vn -0.0989 -0.7848 -0.6119
vn -0.0887 -0.7878 -0.6095
vn -0.1428 -0.7973 -0.5864
vn -0.1302 -0.8032 -0.5814
vn -0.0014 -0.7652 -0.6437
vn 0.0011 -0.6911 -0.7228
vn 0.0104 -0.6631 -0.7485
vn 0.0054 -0.6899 -0.7238
vn 0.0100 -0.6619 -0.7495
vn 0.0868 -0.6922 -0.7165
vn 0.0625 -0.6258 -0.7775
vn 0.0866 -0.6912 -0.7175
vn 0.0427 -0.6418 -0.7657
vn 0.0260 -0.7316 -0.6812
vn 0.0289 -0.7292 -0.6837
vn -0.0042 -0.7562 -0.6544
vn -0.2271 -0.8026 -0.5516
vn -0.2093 -0.8168 -0.5376
vn -0.1855 -0.8058 -0.5623
vn -0.1696 -0.8159 -0.5528
vn -0.2409 -0.8188 -0.5211
vn -0.2408 -0.8185 -0.5216
# 26 vertex normals

vt 0.5393 0.2880 0.0000
vt 0.5395 0.2877 0.0000
vt 0.5598 0.2884 0.0000
vt 0.5598 0.2881 0.0000
vt 0.5196 0.2867 0.0000
vt 0.5198 0.2864 0.0000
vt 0.4964 0.2840 0.0000
vt 0.4967 0.2838 0.0000
vt 0.5619 0.2880 0.0000
vt 0.5815 0.2877 0.0000
vt 0.6088 0.2866 0.0000
vt 0.5818 0.2881 0.0000
vt 0.6087 0.2870 0.0000
vt 0.6519 0.2833 0.0000
vt 0.6347 0.2854 0.0000
vt 0.6514 0.2830 0.0000
vt 0.6342 0.2850 0.0000
vt 0.6213 0.2860 0.0000
vt 0.6214 0.2863 0.0000
vt 0.5626 0.2880 0.0000
vt 0.4585 0.2773 0.0000
vt 0.4590 0.2771 0.0000
vt 0.4748 0.2806 0.0000
vt 0.4751 0.2804 0.0000
vt 0.4439 0.2736 0.0000
vt 0.4444 0.2735 0.0000
# 26 texture coords

g D160_18A5_L_DaS_D160_18A5_L_E
usemtl paint_whiteSG
s 1
f 73/73/73 74/74/74 75/75/75 
f 75/75/75 74/74/74 76/76/76 
f 77/77/77 78/78/78 73/73/73 
f 73/73/73 78/78/78 74/74/74 
f 79/79/79 80/80/80 77/77/77 
f 77/77/77 80/80/80 78/78/78 
f 81/81/81 75/75/75 76/76/76 
f 82/82/82 83/83/83 84/84/84 
f 84/84/84 83/83/83 85/85/85 
f 86/86/86 87/87/87 88/88/88 
f 88/88/88 87/87/87 89/89/89 
f 90/90/90 91/91/91 83/83/83 
f 83/83/83 91/91/91 85/85/85 
f 87/87/87 91/91/91 89/89/89 
f 89/89/89 91/91/91 90/90/90 
f 92/92/92 75/75/75 81/81/81 
f 75/75/75 92/92/92 84/84/84 
f 84/84/84 92/92/92 82/82/82 
f 93/93/93 94/94/94 95/95/95 
f 95/95/95 94/94/94 96/96/96 
f 95/95/95 96/96/96 79/79/79 
f 79/79/79 96/96/96 80/80/80 
f 97/97/97 98/98/98 93/93/93 
f 93/93/93 98/98/98 94/94/94 
# 24 faces

