# 3ds Max Wavefront OBJ Exporter v0.97b - (c)2007 guruware
# File Created: 09.11.2015 11:19:49

mtllib D160_285B_R.mtl

#
# object D160_285B_R_DTaSI_D160_285B_R
#

v  53.5793 40.0751 86.2362
v  53.2432 42.9162 85.1425
v  43.0400 40.9479 86.0719
v  43.5305 44.0752 84.8584
v  46.9893 53.6730 80.9287
v  44.4974 47.7039 83.4421
v  55.9331 48.5351 82.7324
v  61.4677 42.1023 85.2769
v  63.0318 45.5232 83.7286
v  62.9589 39.4003 86.2984
v  73.6039 39.2831 85.8553
v  70.0869 42.4110 84.7068
v  54.1630 35.1379 88.4011
v  54.0459 36.3556 87.7979
v  42.5788 35.7338 88.4051
v  42.6433 36.9788 87.7718
v  65.3521 34.5837 88.3249
v  64.7026 35.8031 87.7541
v  53.8491 37.9447 87.0987
v  42.7706 38.6494 87.0186
v  63.9710 37.3546 87.1013
v  77.7871 35.3529 87.3309
v  75.8868 37.0123 86.7014
v  80.1562 34.0592 87.8293
v  76.6298 33.6015 88.3766
v  65.6323 33.9570 88.6702
v  11.8496 59.7310 79.6454
v  11.5694 63.9993 78.0382
v  0.4070 60.5365 79.5028
v  0.8015 64.9520 77.8355
v  10.9009 67.8481 76.5158
v  0.9829 68.9725 76.2400
v  22.2026 62.9409 78.1819
v  20.2593 66.6758 76.7173
v  23.4857 58.7619 79.7549
v  1.1327 72.4475 74.7361
v  10.1841 71.1433 75.0894
v  3.0646 75.6442 72.9822
v  10.7035 74.1464 73.4309
v  17.7982 70.9895 74.7706
v  17.5902 72.4892 73.8960
v  27.6271 67.5289 75.8291
v  24.1540 70.4567 74.4717
v  35.2171 60.5327 78.5837
v  35.1805 53.2284 81.5296
v  35.3491 64.3513 76.7606
v  31.8024 67.4658 75.3243
v  35.9350 65.6361 75.8259
v  57.7850 53.7489 79.8489
v  52.7461 56.7298 78.7387
v  51.9004 56.2807 79.0604
v  45.8908 60.7081 77.3647
v  43.2750 60.6651 77.6635
v  28.6887 68.7980 74.9224
v  38.5783 62.8495 77.1284
v  39.4702 63.9633 76.3378
v  33.9024 48.9679 83.1850
v  23.3444 54.3177 81.4169
v  22.3977 49.9084 83.0651
v  31.8477 41.7132 85.9769
v  32.7525 45.0336 84.6904
v  20.2376 42.3874 85.9216
v  21.2646 45.8282 84.5969
v  9.4231 46.4951 84.5357
v  -2.4144 47.0701 84.4650
v  8.4458 42.9863 85.8762
v  -3.2909 43.5262 85.8110
v  10.5003 50.6638 82.9880
v  -1.3839 51.2891 82.9062
v  -0.3825 55.8789 81.2226
v  11.4012 55.1796 81.3266
v  -10.6929 61.2232 79.3175
v  -9.8376 65.7713 77.6050
v  -21.5835 61.8013 79.1012
v  -20.4316 66.4514 77.3537
v  -19.3450 70.7608 75.6582
v  -9.0921 69.9522 75.9531
v  -28.6064 75.2353 73.6910
v  -18.3007 74.5399 74.0359
v  -27.3687 78.9818 71.6993
v  -18.0628 78.3962 72.0003
v  -29.7971 71.3728 75.3581
v  -7.1480 77.1984 72.4626
v  -8.3750 73.5953 74.3846
v  -14.7355 44.0224 85.6963
v  -3.8306 40.9649 86.8553
v  -15.2565 41.4340 86.7462
v  -15.5566 39.5857 87.5733
v  -4.1415 39.1455 87.6777
v  -26.8565 39.9962 87.4419
v  -26.5512 41.8759 86.6098
v  -26.0156 44.4891 85.5527
v  -15.9098 37.1573 88.8792
v  -4.5103 36.7636 88.9736
v  -15.7397 38.2396 88.2575
v  -4.3320 37.8258 88.3573
v  7.8447 40.4550 86.9156
v  19.6096 39.9012 86.9485
v  7.5011 38.6605 87.7330
v  19.2563 38.1351 87.7561
v  31.3047 39.3004 86.9756
v  31.0086 37.5732 87.7635
v  30.8446 36.3077 88.4170
v  42.4450 34.7158 88.9912
v  30.6980 35.2801 89.0131
v  30.6561 35.1061 89.1186
v  18.8756 35.8167 89.0265
v  19.0530 36.8525 88.4226
v  7.1122 36.3140 89.0181
v  7.2965 37.3610 88.4075
v  18.7908 35.5018 89.2167
v  -11.7393 56.4801 81.0684
v  -12.8480 51.8383 82.7720
v  -24.0460 52.3299 82.6031
v  -22.8235 57.0003 80.8790
v  -13.8897 47.5886 84.3430
v  -25.1453 48.0669 84.1890
v  54.1874 34.3300 88.8585
v  86.4520 33.2866 87.8865
v  85.7576 33.8284 87.5312
v  -4.6341 36.2905 89.2594
v  -16.0283 36.6774 89.1694
v  6.9988 35.8976 89.2693
v  60.8659 51.7080 80.6425
v  64.7802 49.1101 81.6482
v  67.9213 46.9288 82.5280
v  78.0328 39.8543 85.0925
v  73.8577 42.8043 84.0618
v  82.6966 36.2165 86.4092
v  -31.8542 76.2689 73.1132
v  -31.7320 75.3498 73.5719
v  -31.1937 71.4238 75.3186
v  -30.9174 69.5000 76.0902
v  -30.1560 69.3075 76.1704
v  -30.5597 66.9848 77.0839
v  -30.4058 65.9248 77.4913
v  -29.8658 62.1689 78.9206
v  -29.2424 57.2678 80.7565
v  -28.9379 54.8512 81.6675
v  -28.4585 51.1042 83.0676
v  -28.0786 48.1923 84.1479
v  -27.9788 47.4231 84.4364
v  -27.6062 44.5698 85.5380
v  -27.4890 43.7058 85.8845
v  -26.9549 39.9997 87.4408
v  -27.2389 41.9101 86.6193
v  -26.9037 39.6336 87.6233
v  -26.7339 38.6089 88.1341
v  -26.5342 37.4920 88.7646
v  -26.5036 37.0349 89.0404
v  -32.2104 79.0727 71.5812
v  -28.6436 52.5338 82.5312
# 152 vertices

vn 0.0183 0.3687 0.9294
vn 0.0230 0.3743 0.9270
vn 0.0169 0.3679 0.9297
vn 0.0172 0.3589 0.9332
vn 0.0563 0.4123 0.9093
vn 0.0265 0.3707 0.9284
vn 0.0486 0.4149 0.9086
vn 0.0330 0.3811 0.9239
vn 0.0600 0.4293 0.9011
vn 0.0340 0.3758 0.9261
vn 0.0619 0.4056 0.9119
vn 0.0666 0.4205 0.9048
vn 0.0263 0.4653 0.8848
vn 0.0232 0.4233 0.9057
vn 0.0240 0.4726 0.8809
vn 0.0210 0.4284 0.9034
vn 0.0374 0.4590 0.8876
vn 0.0354 0.4187 0.9075
vn 0.0202 0.3897 0.9207
vn 0.0185 0.3922 0.9197
vn 0.0337 0.3896 0.9204
vn 0.0627 0.4325 0.8995
vn 0.0584 0.4074 0.9114
vn 0.0638 0.5002 0.8636
vn 0.0482 0.5892 0.8065
vn 0.0358 0.4945 0.8684
vn 0.0171 0.3492 0.9369
vn 0.0191 0.3615 0.9322
vn 0.0096 0.3486 0.9372
vn 0.0112 0.3598 0.9330
vn 0.0253 0.3876 0.9215
vn 0.0146 0.3812 0.9244
vn 0.0325 0.3699 0.9285
vn 0.0421 0.4073 0.9123
vn 0.0275 0.3577 0.9334
vn 0.0230 0.4337 0.9007
vn 0.0353 0.4347 0.8999
vn 0.0307 0.4681 0.8832
vn 0.0446 0.4781 0.8771
vn 0.0505 0.4506 0.8913
vn 0.0713 0.5099 0.8573
vn 0.0671 0.4384 0.8963
vn 0.0839 0.4999 0.8620
vn 0.0496 0.3937 0.9179
vn 0.0299 0.3674 0.9296
vn 0.0885 0.4529 0.8871
vn 0.1123 0.5186 0.8476
vn 0.1407 0.5351 0.8330
vn 0.0792 0.4609 0.8839
vn 0.0872 0.4664 0.8803
vn 0.0882 0.4625 0.8822
vn 0.0930 0.4634 0.8813
vn 0.0935 0.4603 0.8828
vn 0.1078 0.5166 0.8494
vn 0.1059 0.4499 0.8868
vn 0.1237 0.4995 0.8574
vn 0.0200 0.3543 0.9349
vn 0.0199 0.3487 0.9370
vn 0.0173 0.3470 0.9377
vn 0.0172 0.3663 0.9303
vn 0.0174 0.3545 0.9349
vn 0.0160 0.3647 0.9310
vn 0.0159 0.3509 0.9363
vn 0.0131 0.3490 0.9370
vn 0.0085 0.3487 0.9372
vn 0.0132 0.3635 0.9315
vn 0.0088 0.3628 0.9318
vn 0.0136 0.3440 0.9389
vn 0.0085 0.3438 0.9390
vn 0.0088 0.3439 0.9390
vn 0.0151 0.3444 0.9387
vn 0.0030 0.3487 0.9372
vn 0.0042 0.3589 0.9334
vn -0.0023 0.3500 0.9367
vn -0.0021 0.3592 0.9333
vn -0.0008 0.3799 0.9250
vn 0.0068 0.3795 0.9252
vn -0.0043 0.4324 0.9017
vn 0.0041 0.4312 0.9022
vn -0.0019 0.4695 0.8829
vn 0.0072 0.4666 0.8844
vn -0.0058 0.3856 0.9226
vn 0.0191 0.4661 0.8845
vn 0.0136 0.4321 0.9017
vn 0.0045 0.3630 0.9318
vn 0.0097 0.3903 0.9206
vn 0.0055 0.3888 0.9213
vn 0.0066 0.4268 0.9043
vn 0.0110 0.4301 0.9027
vn 0.0043 0.4137 0.9104
vn 0.0050 0.3882 0.9216
vn 0.0034 0.3642 0.9313
vn 0.0084 0.5029 0.8643
vn 0.0134 0.5045 0.8633
vn 0.0078 0.4725 0.8813
vn 0.0126 0.4763 0.8792
vn 0.0142 0.3917 0.9200
vn 0.0171 0.3926 0.9195
vn 0.0157 0.4319 0.9018
vn 0.0189 0.4323 0.9015
vn 0.0186 0.3929 0.9194
vn 0.0208 0.4312 0.9020
vn 0.0233 0.4759 0.8792
vn 0.0256 0.4964 0.8677
vn 0.0246 0.5012 0.8650
vn 0.0252 0.5140 0.8574
vn 0.0222 0.5035 0.8637
vn 0.0211 0.4777 0.8782
vn 0.0185 0.5045 0.8632
vn 0.0175 0.4779 0.8782
vn 0.0224 0.5125 0.8584
vn 0.0028 0.3449 0.9386
vn 0.0031 0.3451 0.9386
vn 0.0011 0.3471 0.9378
vn -0.0009 0.3472 0.9378
vn 0.0037 0.3498 0.9368
vn 0.0022 0.3516 0.9361
vn 0.0280 0.4932 0.8695
vn 0.0653 0.5917 0.8035
vn 0.0669 0.5460 0.8351
vn 0.0133 0.5145 0.8574
vn 0.0087 0.5159 0.8566
vn 0.0185 0.5128 0.8583
vn 0.0767 0.4649 0.8821
vn 0.0833 0.4693 0.8791
vn 0.0849 0.4670 0.8802
vn 0.0932 0.4401 0.8931
vn 0.1009 0.4535 0.8855
vn 0.0783 0.4686 0.8799
vn -0.0058 0.4741 0.8805
vn -0.0189 0.4127 0.9107
vn -0.0116 0.3956 0.9183
vn -0.0074 0.3679 0.9298
vn -0.0055 0.3668 0.9303
vn -0.0056 0.3643 0.9313
vn -0.0053 0.3551 0.9348
vn -0.0044 0.3524 0.9359
vn -0.0032 0.3510 0.9364
vn -0.0014 0.3493 0.9370
vn 0.0016 0.3491 0.9371
vn 0.0018 0.3486 0.9373
vn 0.0020 0.3557 0.9346
vn 0.0098 0.3636 0.9315
vn 0.0116 0.3737 0.9275
vn 0.0204 0.4042 0.9144
vn 0.0321 0.3900 0.9203
vn 0.0050 0.4468 0.8946
vn 0.0058 0.4684 0.8835
vn 0.0068 0.4989 0.8666
vn 0.0071 0.5170 0.8560
vn -0.0104 0.4742 0.8803
vn 0.0009 0.3500 0.9367
# 152 vertex normals

vt 0.0409 0.2309 0.0000
vt 0.0523 0.2328 0.0000
vt 0.0424 0.2733 0.0000
vt 0.0550 0.2720 0.0000
vt 0.0942 0.2599 0.0000
vt 0.0698 0.2688 0.0000
vt 0.0753 0.2231 0.0000
vt 0.0506 0.1997 0.0000
vt 0.0646 0.1941 0.0000
vt 0.0400 0.1932 0.0000
vt 0.0416 0.1505 0.0000
vt 0.0535 0.1652 0.0000
vt 0.0212 0.2276 0.0000
vt 0.0261 0.2283 0.0000
vt 0.0214 0.2742 0.0000
vt 0.0264 0.2742 0.0000
vt 0.0212 0.1827 0.0000
vt 0.0259 0.1855 0.0000
vt 0.0324 0.2294 0.0000
vt 0.0331 0.2740 0.0000
vt 0.0320 0.1887 0.0000
vt 0.0266 0.1329 0.0000
vt 0.0329 0.1409 0.0000
vt 0.0219 0.1232 0.0000
vt 0.0194 0.1372 0.0000
vt 0.0187 0.1814 0.0000
vt 0.1117 0.4020 0.0000
vt 0.1288 0.4039 0.0000
vt 0.1128 0.4480 0.0000
vt 0.1305 0.4473 0.0000
vt 0.1441 0.4074 0.0000
vt 0.1467 0.4473 0.0000
vt 0.1266 0.3611 0.0000
vt 0.1412 0.3696 0.0000
vt 0.1101 0.3552 0.0000
vt 0.1607 0.4474 0.0000
vt 0.1572 0.4109 0.0000
vt 0.1738 0.4403 0.0000
vt 0.1693 0.4094 0.0000
vt 0.1580 0.3803 0.0000
vt 0.1640 0.3814 0.0000
vt 0.1460 0.3402 0.0000
vt 0.1571 0.3547 0.0000
vt 0.1194 0.3085 0.0000
vt 0.0901 0.3072 0.0000
vt 0.1348 0.3087 0.0000
vt 0.1466 0.3235 0.0000
vt 0.1400 0.3066 0.0000
vt 0.0966 0.2167 0.0000
vt 0.1075 0.2374 0.0000
vt 0.1056 0.2408 0.0000
vt 0.1222 0.2657 0.0000
vt 0.1215 0.2762 0.0000
vt 0.1513 0.3362 0.0000
vt 0.1294 0.2954 0.0000
vt 0.1340 0.2921 0.0000
vt 0.0728 0.3115 0.0000
vt 0.0922 0.3549 0.0000
vt 0.0744 0.3578 0.0000
vt 0.0433 0.3184 0.0000
vt 0.0568 0.3154 0.0000
vt 0.0438 0.3650 0.0000
vt 0.0578 0.3616 0.0000
vt 0.0582 0.4092 0.0000
vt 0.0582 0.4568 0.0000
vt 0.0439 0.4124 0.0000
vt 0.0439 0.4596 0.0000
vt 0.0751 0.4057 0.0000
vt 0.0753 0.4534 0.0000
vt 0.0939 0.4503 0.0000
vt 0.0934 0.4029 0.0000
vt 0.1134 0.4927 0.0000
vt 0.1318 0.4901 0.0000
vt 0.1136 0.5364 0.0000
vt 0.1325 0.5327 0.0000
vt 0.1500 0.5292 0.0000
vt 0.1487 0.4879 0.0000
vt 0.1661 0.5672 0.0000
vt 0.1653 0.5257 0.0000
vt 0.1814 0.5629 0.0000
vt 0.1808 0.5255 0.0000
vt 0.1504 0.5712 0.0000
vt 0.1781 0.4815 0.0000
vt 0.1634 0.4857 0.0000
vt 0.0436 0.5056 0.0000
vt 0.0335 0.4613 0.0000
vt 0.0332 0.5072 0.0000
vt 0.0257 0.5080 0.0000
vt 0.0261 0.4622 0.0000
vt 0.0252 0.5534 0.0000
vt 0.0328 0.5525 0.0000
vt 0.0434 0.5509 0.0000
vt 0.0159 0.5090 0.0000
vt 0.0165 0.4632 0.0000
vt 0.0203 0.5085 0.0000
vt 0.0208 0.4627 0.0000
vt 0.0337 0.4144 0.0000
vt 0.0337 0.3671 0.0000
vt 0.0264 0.4154 0.0000
vt 0.0266 0.3682 0.0000
vt 0.0335 0.3201 0.0000
vt 0.0266 0.3209 0.0000
vt 0.0215 0.3213 0.0000
vt 0.0173 0.2745 0.0000
vt 0.0173 0.3217 0.0000
vt 0.0166 0.3219 0.0000
vt 0.0172 0.3692 0.0000
vt 0.0214 0.3687 0.0000
vt 0.0169 0.4165 0.0000
vt 0.0212 0.4160 0.0000
vt 0.0159 0.3695 0.0000
vt 0.0942 0.4960 0.0000
vt 0.0753 0.4995 0.0000
vt 0.0752 0.5445 0.0000
vt 0.0941 0.5405 0.0000
vt 0.0581 0.5029 0.0000
vt 0.0579 0.5481 0.0000
vt 0.0180 0.2274 0.0000
vt 0.0200 0.0978 0.0000
vt 0.0221 0.1007 0.0000
vt 0.0146 0.4636 0.0000
vt 0.0139 0.5093 0.0000
vt 0.0152 0.4169 0.0000
vt 0.0890 0.2039 0.0000
vt 0.0793 0.1877 0.0000
vt 0.0712 0.1747 0.0000
vt 0.0447 0.1328 0.0000
vt 0.0558 0.1501 0.0000
vt 0.0310 0.1134 0.0000
vt 0.1697 0.5804 0.0000
vt 0.1660 0.5797 0.0000
vt 0.1504 0.5768 0.0000
vt 0.1427 0.5753 0.0000
vt 0.1421 0.5723 0.0000
vt 0.1327 0.5734 0.0000
vt 0.1285 0.5726 0.0000
vt 0.1135 0.5697 0.0000
vt 0.0940 0.5663 0.0000
vt 0.0843 0.5646 0.0000
vt 0.0694 0.5620 0.0000
vt 0.0578 0.5599 0.0000
vt 0.0547 0.5593 0.0000
vt 0.0434 0.5573 0.0000
vt 0.0399 0.5566 0.0000
vt 0.0252 0.5538 0.0000
vt 0.0328 0.5553 0.0000
vt 0.0237 0.5535 0.0000
vt 0.0196 0.5526 0.0000
vt 0.0152 0.5516 0.0000
vt 0.0134 0.5514 0.0000
vt 0.1808 0.5824 0.0000
vt 0.0751 0.5630 0.0000
# 152 texture coords

g D160_285B_R_DTaSI_D160_285B_R
usemtl windowglass_1SG
s 1
f 1/1/1 2/2/2 3/3/3 
f 3/3/3 2/2/2 4/4/4 
f 5/5/5 6/6/6 7/7/7 
f 7/7/7 6/6/6 2/2/2 
f 2/2/2 6/6/6 4/4/4 
f 2/2/2 8/8/8 7/7/7 
f 9/9/9 7/7/7 8/8/8 
f 10/10/10 8/8/8 1/1/1 
f 1/1/1 8/8/8 2/2/2 
f 11/11/11 12/12/12 10/10/10 
f 10/10/10 12/12/12 8/8/8 
f 12/12/12 9/9/9 8/8/8 
f 13/13/13 14/14/14 15/15/15 
f 16/16/16 15/15/15 14/14/14 
f 17/17/17 18/18/18 13/13/13 
f 18/18/18 14/14/14 13/13/13 
f 19/19/19 1/1/1 20/20/20 
f 3/3/3 20/20/20 1/1/1 
f 21/21/21 10/10/10 19/19/19 
f 10/10/10 1/1/1 19/19/19 
f 18/18/18 21/21/21 14/14/14 
f 14/14/14 21/21/21 19/19/19 
f 14/14/14 19/19/19 16/16/16 
f 16/16/16 19/19/19 20/20/20 
f 22/22/22 23/23/23 18/18/18 
f 18/18/18 23/23/23 21/21/21 
f 23/23/23 11/11/11 21/21/21 
f 10/10/10 21/21/21 11/11/11 
f 24/24/24 17/17/17 25/25/25 
f 25/25/25 17/17/17 26/26/26 
f 24/24/24 22/22/22 17/17/17 
f 18/18/18 17/17/17 22/22/22 
f 27/27/27 28/28/28 29/29/29 
f 29/29/29 28/28/28 30/30/30 
f 28/28/28 31/31/31 30/30/30 
f 32/32/32 30/30/30 31/31/31 
f 33/33/33 34/34/34 28/28/28 
f 34/34/34 31/31/31 28/28/28 
f 35/35/35 33/33/33 27/27/27 
f 27/27/27 33/33/33 28/28/28 
f 36/36/36 37/37/37 38/38/38 
f 38/38/38 37/37/37 39/39/39 
f 37/37/37 40/40/40 39/39/39 
f 40/40/40 41/41/41 39/39/39 
f 34/34/34 40/40/40 31/31/31 
f 31/31/31 40/40/40 37/37/37 
f 31/31/31 37/37/37 32/32/32 
f 32/32/32 37/37/37 36/36/36 
f 34/34/34 42/42/42 40/40/40 
f 42/42/42 43/43/43 40/40/40 
f 43/43/43 41/41/41 40/40/40 
f 33/33/33 35/35/35 44/44/44 
f 35/35/35 45/45/45 44/44/44 
f 34/34/34 44/44/44 42/42/42 
f 42/42/42 46/46/46 47/47/47 
f 46/46/46 48/48/48 47/47/47 
f 44/44/44 34/34/34 33/33/33 
f 49/49/49 50/50/50 51/51/51 
f 50/50/50 52/52/52 51/51/51 
f 52/52/52 53/53/53 51/51/51 
f 47/47/47 54/54/54 42/42/42 
f 46/46/46 55/55/55 48/48/48 
f 55/55/55 56/56/56 48/48/48 
f 44/44/44 45/45/45 5/5/5 
f 45/45/45 6/6/6 5/5/5 
f 6/6/6 45/45/45 57/57/57 
f 45/45/45 58/58/58 57/57/57 
f 59/59/59 57/57/57 58/58/58 
f 45/45/45 35/35/35 58/58/58 
f 60/60/60 3/3/3 61/61/61 
f 3/3/3 4/4/4 61/61/61 
f 62/62/62 60/60/60 63/63/63 
f 63/63/63 60/60/60 61/61/61 
f 57/57/57 59/59/59 61/61/61 
f 59/59/59 63/63/63 61/61/61 
f 61/61/61 4/4/4 57/57/57 
f 6/6/6 57/57/57 4/4/4 
f 64/64/64 65/65/65 66/66/66 
f 67/67/67 66/66/66 65/65/65 
f 68/68/68 69/69/69 64/64/64 
f 69/69/69 65/65/65 64/64/64 
f 59/59/59 68/68/68 63/63/63 
f 63/63/63 68/68/68 64/64/64 
f 66/66/66 62/62/62 64/64/64 
f 62/62/62 63/63/63 64/64/64 
f 70/70/70 71/71/71 29/29/29 
f 29/29/29 71/71/71 27/27/27 
f 58/58/58 35/35/35 71/71/71 
f 35/35/35 27/27/27 71/71/71 
f 58/58/58 71/71/71 59/59/59 
f 59/59/59 71/71/71 68/68/68 
f 69/69/69 68/68/68 70/70/70 
f 70/70/70 68/68/68 71/71/71 
f 72/72/72 29/29/29 73/73/73 
f 29/29/29 30/30/30 73/73/73 
f 74/74/74 72/72/72 75/75/75 
f 75/75/75 72/72/72 73/73/73 
f 75/75/75 73/73/73 76/76/76 
f 76/76/76 73/73/73 77/77/77 
f 73/73/73 30/30/30 77/77/77 
f 32/32/32 77/77/77 30/30/30 
f 78/78/78 79/79/79 80/80/80 
f 81/81/81 80/80/80 79/79/79 
f 82/82/82 76/76/76 78/78/78 
f 76/76/76 79/79/79 78/78/78 
f 38/38/38 83/83/83 36/36/36 
f 36/36/36 83/83/83 84/84/84 
f 77/77/77 32/32/32 84/84/84 
f 32/32/32 36/36/36 84/84/84 
f 76/76/76 77/77/77 79/79/79 
f 79/79/79 77/77/77 84/84/84 
f 83/83/83 81/81/81 84/84/84 
f 81/81/81 79/79/79 84/84/84 
f 67/67/67 85/85/85 86/86/86 
f 86/86/86 85/85/85 87/87/87 
f 88/88/88 89/89/89 87/87/87 
f 89/89/89 86/86/86 87/87/87 
f 90/90/90 88/88/88 91/91/91 
f 91/91/91 88/88/88 87/87/87 
f 85/85/85 92/92/92 87/87/87 
f 92/92/92 91/91/91 87/87/87 
f 93/93/93 94/94/94 95/95/95 
f 94/94/94 96/96/96 95/95/95 
f 89/89/89 88/88/88 96/96/96 
f 96/96/96 88/88/88 95/95/95 
f 66/66/66 67/67/67 97/97/97 
f 67/67/67 86/86/86 97/97/97 
f 62/62/62 66/66/66 98/98/98 
f 98/98/98 66/66/66 97/97/97 
f 99/99/99 100/100/100 97/97/97 
f 100/100/100 98/98/98 97/97/97 
f 97/97/97 86/86/86 99/99/99 
f 89/89/89 99/99/99 86/86/86 
f 101/101/101 20/20/20 60/60/60 
f 3/3/3 60/60/60 20/20/20 
f 102/102/102 16/16/16 101/101/101 
f 16/16/16 20/20/20 101/101/101 
f 100/100/100 102/102/102 98/98/98 
f 98/98/98 102/102/102 101/101/101 
f 98/98/98 101/101/101 62/62/62 
f 62/62/62 101/101/101 60/60/60 
f 15/15/15 103/103/103 104/104/104 
f 103/103/103 105/105/105 104/104/104 
f 105/105/105 106/106/106 104/104/104 
f 107/107/107 105/105/105 108/108/108 
f 108/108/108 105/105/105 103/103/103 
f 108/108/108 103/103/103 100/100/100 
f 100/100/100 103/103/103 102/102/102 
f 103/103/103 15/15/15 102/102/102 
f 16/16/16 102/102/102 15/15/15 
f 94/94/94 109/109/109 96/96/96 
f 96/96/96 109/109/109 110/110/110 
f 99/99/99 89/89/89 110/110/110 
f 89/89/89 96/96/96 110/110/110 
f 100/100/100 99/99/99 108/108/108 
f 108/108/108 99/99/99 110/110/110 
f 109/109/109 107/107/107 110/110/110 
f 107/107/107 108/108/108 110/110/110 
f 111/111/111 106/106/106 107/107/107 
f 107/107/107 106/106/106 105/105/105 
f 112/112/112 70/70/70 72/72/72 
f 29/29/29 72/72/72 70/70/70 
f 113/113/113 69/69/69 112/112/112 
f 69/69/69 70/70/70 112/112/112 
f 114/114/114 113/113/113 115/115/115 
f 115/115/115 113/113/113 112/112/112 
f 115/115/115 112/112/112 74/74/74 
f 74/74/74 112/112/112 72/72/72 
f 85/85/85 67/67/67 116/116/116 
f 67/67/67 65/65/65 116/116/116 
f 92/92/92 85/85/85 117/117/117 
f 117/117/117 85/85/85 116/116/116 
f 117/117/117 116/116/116 114/114/114 
f 114/114/114 116/116/116 113/113/113 
f 69/69/69 113/113/113 65/65/65 
f 65/65/65 113/113/113 116/116/116 
f 104/104/104 118/118/118 15/15/15 
f 15/15/15 118/118/118 13/13/13 
f 25/25/25 119/119/119 24/24/24 
f 24/24/24 119/119/119 120/120/120 
f 94/94/94 93/93/93 121/121/121 
f 93/93/93 122/122/122 121/121/121 
f 121/121/121 123/123/123 94/94/94 
f 94/94/94 123/123/123 109/109/109 
f 123/123/123 111/111/111 109/109/109 
f 109/109/109 111/111/111 107/107/107 
f 26/26/26 17/17/17 118/118/118 
f 118/118/118 17/17/17 13/13/13 
f 54/54/54 43/43/43 42/42/42 
f 49/49/49 7/7/7 124/124/124 
f 125/125/125 9/9/9 126/126/126 
f 7/7/7 9/9/9 124/124/124 
f 125/125/125 124/124/124 9/9/9 
f 127/127/127 128/128/128 11/11/11 
f 11/11/11 128/128/128 12/12/12 
f 128/128/128 126/126/126 12/12/12 
f 12/12/12 126/126/126 9/9/9 
f 129/129/129 127/127/127 22/22/22 
f 22/22/22 127/127/127 23/23/23 
f 120/120/120 129/129/129 24/24/24 
f 24/24/24 129/129/129 22/22/22 
f 23/23/23 127/127/127 11/11/11 
f 130/130/130 131/131/131 78/78/78 
f 78/78/78 131/131/131 82/82/82 
f 132/132/132 82/82/82 131/131/131 
f 132/132/132 133/133/133 82/82/82 
f 133/133/133 134/134/134 82/82/82 
f 76/76/76 82/82/82 75/75/75 
f 75/75/75 82/82/82 134/134/134 
f 75/75/75 135/135/135 136/136/136 
f 74/74/74 137/137/137 115/115/115 
f 115/115/115 137/137/137 138/138/138 
f 115/115/115 138/138/138 139/139/139 
f 114/114/114 140/140/140 117/117/117 
f 117/117/117 140/140/140 141/141/141 
f 117/117/117 141/141/141 142/142/142 
f 92/92/92 143/143/143 144/144/144 
f 90/90/90 91/91/91 145/145/145 
f 145/145/145 91/91/91 146/146/146 
f 88/88/88 90/90/90 95/95/95 
f 90/90/90 147/147/147 95/95/95 
f 95/95/95 147/147/147 148/148/148 
f 148/148/148 149/149/149 95/95/95 
f 149/149/149 93/93/93 95/95/95 
f 93/93/93 149/149/149 122/122/122 
f 150/150/150 122/122/122 149/149/149 
f 80/80/80 151/151/151 78/78/78 
f 151/151/151 130/130/130 78/78/78 
f 92/92/92 144/144/144 91/91/91 
f 91/91/91 144/144/144 146/146/146 
f 117/117/117 142/142/142 92/92/92 
f 92/92/92 142/142/142 143/143/143 
f 114/114/114 152/152/152 140/140/140 
f 115/115/115 139/139/139 114/114/114 
f 114/114/114 139/139/139 152/152/152 
f 75/75/75 136/136/136 74/74/74 
f 74/74/74 136/136/136 137/137/137 
f 134/134/134 135/135/135 75/75/75 
f 135/135/135 134/134/134 133/133/133 
f 90/90/90 145/145/145 147/147/147 
f 5/5/5 7/7/7 51/51/51 
f 7/7/7 49/49/49 51/51/51 
f 51/51/51 53/53/53 5/5/5 
f 53/53/53 44/44/44 5/5/5 
f 46/46/46 44/44/44 55/55/55 
f 44/44/44 53/53/53 55/55/55 
f 44/44/44 46/46/46 42/42/42 
f 55/55/55 53/53/53 56/56/56 
f 53/53/53 52/52/52 56/56/56 
# 249 faces

