# 3ds Max Wavefront OBJ Exporter v0.97b - (c)2007 guruware
# File Created: 09.11.2015 11:22:33

mtllib D160_541D_L.mtl

#
# object D160_541D_L_1_N_D160_541D_L
#

v  -249.1785 19.7157 -56.9524
v  -251.0444 19.9197 -50.3491
v  -248.9910 22.8980 -56.9914
v  -250.8541 23.1636 -50.3777
v  -247.1540 19.5082 -62.6607
v  -246.9716 22.6201 -62.7135
v  -245.0391 19.3173 -67.6937
v  -244.8652 22.3601 -67.7584
v  -243.5883 22.2580 -71.0400
v  -244.0488 19.2533 -70.3398
v  -242.3910 28.0283 -72.3847
v  -243.0119 25.2248 -71.7314
v  -244.2802 28.3150 -67.6951
v  -244.5966 25.4015 -67.7507
v  -241.9220 30.5259 -72.1607
v  -243.9640 30.9652 -67.6154
v  -241.6753 32.7488 -72.0571
v  -243.6948 33.2221 -67.5363
v  -241.2103 32.7195 -73.4779
v  -241.7608 30.5598 -72.9746
v  -242.2462 28.6379 -72.5267
v  -250.7221 26.4851 -49.8871
v  -248.6996 26.1227 -56.9889
v  -246.0212 31.4948 -62.6045
v  -245.7379 33.8070 -62.5482
v  -246.3548 28.7608 -62.6648
v  -248.0128 32.0525 -56.9191
v  -248.3562 29.2294 -56.9593
v  -247.7216 34.4297 -56.8836
v  -246.6883 25.7522 -62.7082
v  -241.5143 34.4932 -71.9725
v  -243.5208 34.9539 -67.4825
v  -241.4050 35.9076 -71.9634
v  -243.4068 36.3323 -67.5152
v  -240.5239 35.8000 -74.1958
v  -240.8081 34.4155 -73.8732
v  -240.3329 37.0088 -74.4775
v  -241.3138 37.1352 -72.0864
v  -243.3190 37.4924 -67.6954
v  -245.5555 35.5501 -62.5174
v  -247.5358 36.1954 -56.8668
v  -245.4430 36.9107 -62.5670
v  -247.3086 17.5748 -62.4538
v  -249.3549 17.5748 -56.7160
v  -250.7163 17.6740 -51.9135
v  -251.1926 18.0396 -50.1994
v  -250.0389 17.5748 -54.3090
v  -244.2467 17.6326 -69.9621
v  -245.1729 17.5748 -67.5110
v  -251.3740 18.4986 -49.3209
v  -251.4410 19.7967 -48.8081
v  -251.2375 22.5274 -49.0635
v  -250.1958 29.4841 -50.6517
v  -249.6079 32.0355 -51.6101
v  -249.1832 33.6568 -52.3805
v  -248.7413 35.0181 -53.3290
v  -248.1445 36.3093 -54.9039
v  -247.6382 36.8469 -56.5247
v  -246.9196 37.2543 -58.4864
v  -246.2490 37.5097 -60.3783
v  -245.4412 37.6954 -62.6455
v  -244.5451 37.8030 -64.8191
v  -242.8195 37.8832 -68.9081
v  -241.3864 37.7879 -72.0309
v  -240.2799 37.5762 -74.6058
# 65 vertices

vn -0.9511 0.0492 -0.3050
vn -0.9619 0.0525 -0.2684
vn -0.9507 0.0694 -0.3023
vn -0.9603 0.0684 -0.2706
vn -0.9315 0.0436 -0.3612
vn -0.9305 0.0664 -0.3601
vn -0.9260 0.0406 -0.3754
vn -0.9238 0.0652 -0.3774
vn -0.9271 0.0769 -0.3669
vn -0.9330 0.0477 -0.3566
vn -0.9126 0.1598 -0.3764
vn -0.9214 0.1049 -0.3741
vn -0.9135 0.1200 -0.3887
vn -0.9201 0.0958 -0.3799
vn -0.9138 0.1532 -0.3761
vn -0.9079 0.1211 -0.4013
vn -0.9128 0.1176 -0.3912
vn -0.9090 0.1144 -0.4008
vn -0.9352 0.1424 -0.3243
vn -0.9606 0.1601 -0.2272
vn -0.9672 0.1971 -0.1602
vn -0.9572 0.0871 -0.2761
vn -0.9476 0.0950 -0.3049
vn -0.9244 0.1212 -0.3617
vn -0.9252 0.1139 -0.3621
vn -0.9257 0.1139 -0.3608
vn -0.9416 0.1194 -0.3150
vn -0.9440 0.1126 -0.3103
vn -0.9405 0.1121 -0.3206
vn -0.9280 0.0959 -0.3600
vn -0.9140 0.0932 -0.3949
vn -0.9124 0.0876 -0.3997
vn -0.9154 0.0527 -0.3992
vn -0.9163 0.0387 -0.3987
vn -0.9243 0.0742 -0.3744
vn -0.9269 0.1140 -0.3577
vn -0.9221 0.0290 -0.3859
vn -0.9165 0.0005 -0.3999
vn -0.9172 -0.0025 -0.3984
vn -0.9287 0.0862 -0.3608
vn -0.9403 0.0786 -0.3312
vn -0.9315 0.0342 -0.3623
vn -0.9329 0.0364 -0.3584
vn -0.9480 0.0433 -0.3153
vn -0.9603 0.0509 -0.2744
vn -0.9626 0.0548 -0.2653
vn -0.9607 0.0491 -0.2731
vn -0.9356 0.0333 -0.3515
vn -0.9251 0.0317 -0.3783
vn -0.9699 0.0529 -0.2377
vn -0.9682 0.0485 -0.2453
vn -0.9663 0.0600 -0.2504
vn -0.9544 0.1043 -0.2797
vn -0.9521 0.1146 -0.2836
vn -0.9512 0.1139 -0.2868
vn -0.9517 0.1014 -0.2898
vn -0.9526 0.0888 -0.2909
vn -0.9447 0.0223 -0.3271
vn -0.9399 0.0119 -0.3411
vn -0.9407 -0.0318 -0.3377
vn -0.9293 -0.0289 -0.3683
vn -0.9201 -0.0790 -0.3837
vn -0.9090 -0.0943 -0.4060
vn -0.9138 -0.0639 -0.4011
vn -0.9189 -0.0034 -0.3946
# 65 vertex normals

vt 0.8543 0.3469 0.0000
vt 0.9635 0.3505 0.0000
vt 0.8526 0.3954 0.0000
vt 0.9621 0.4000 0.0000
vt 0.7575 0.3437 0.0000
vt 0.7557 0.3911 0.0000
vt 0.6704 0.3411 0.0000
vt 0.6685 0.3874 0.0000
vt 0.6106 0.3859 0.0000
vt 0.6211 0.3399 0.0000
vt 0.5856 0.4743 0.0000
vt 0.5988 0.4313 0.0000
vt 0.6663 0.4784 0.0000
vt 0.6672 0.4339 0.0000
vt 0.5864 0.5127 0.0000
vt 0.6657 0.5190 0.0000
vt 0.5866 0.5468 0.0000
vt 0.6654 0.5536 0.0000
vt 0.5615 0.5463 0.0000
vt 0.5733 0.5131 0.0000
vt 0.5826 0.4836 0.0000
vt 0.9638 0.4494 0.0000
vt 0.8511 0.4446 0.0000
vt 0.7522 0.5268 0.0000
vt 0.7515 0.5622 0.0000
vt 0.7531 0.4849 0.0000
vt 0.8484 0.5354 0.0000
vt 0.8497 0.4921 0.0000
vt 0.8473 0.5718 0.0000
vt 0.7543 0.4389 0.0000
vt 0.5869 0.5734 0.0000
vt 0.6653 0.5801 0.0000
vt 0.5865 0.5950 0.0000
vt 0.6642 0.6011 0.0000
vt 0.5434 0.5923 0.0000
vt 0.5515 0.5716 0.0000
vt 0.5382 0.6107 0.0000
vt 0.5841 0.6137 0.0000
vt 0.6610 0.6187 0.0000
vt 0.7509 0.5889 0.0000
vt 0.8466 0.5988 0.0000
vt 0.7496 0.6096 0.0000
vt 0.7615 0.3142 0.0000
vt 0.8588 0.3143 0.0000
vt 0.9383 0.3162 0.0000
vt 0.9666 0.3219 0.0000
vt 0.8986 0.3145 0.0000
vt 0.6257 0.3145 0.0000
vt 0.6739 0.3145 0.0000
vt 0.9808 0.3290 0.0000
vt 0.9888 0.3488 0.0000
vt 0.9839 0.3904 0.0000
vt 0.9466 0.4946 0.0000
vt 0.9270 0.5323 0.0000
vt 0.9128 0.5577 0.0000
vt 0.8984 0.5787 0.0000
vt 0.8776 0.5980 0.0000
vt 0.8522 0.6087 0.0000
vt 0.8189 0.6149 0.0000
vt 0.7868 0.6187 0.0000
vt 0.7484 0.6215 0.0000
vt 0.7109 0.6233 0.0000
vt 0.6401 0.6247 0.0000
vt 0.5854 0.6236 0.0000
vt 0.5359 0.6194 0.0000
# 65 texture coords

g D160_541D_L_1_N_D160_541D_L
usemtl diffuse_lightSG
s 1
f 1/1/1 2/2/2 3/3/3 
f 2/2/2 4/4/4 3/3/3 
f 5/5/5 6/6/6 7/7/7 
f 7/7/7 6/6/6 8/8/8 
f 3/3/3 6/6/6 1/1/1 
f 5/5/5 1/1/1 6/6/6 
f 9/9/9 10/10/10 8/8/8 
f 8/8/8 10/10/10 7/7/7 
f 11/11/11 12/12/12 13/13/13 
f 13/13/13 12/12/12 14/14/14 
f 15/15/15 16/16/16 17/17/17 
f 17/17/17 16/16/16 18/18/18 
f 19/19/19 20/20/20 17/17/17 
f 20/20/20 15/15/15 17/17/17 
f 21/21/21 15/15/15 20/20/20 
f 15/15/15 21/21/21 11/11/11 
f 16/16/16 15/15/15 13/13/13 
f 15/15/15 11/11/11 13/13/13 
f 22/22/22 23/23/23 4/4/4 
f 4/4/4 23/23/23 3/3/3 
f 16/16/16 24/24/24 18/18/18 
f 24/24/24 25/25/25 18/18/18 
f 24/24/24 16/16/16 26/26/26 
f 26/26/26 16/16/16 13/13/13 
f 27/27/27 24/24/24 28/28/28 
f 24/24/24 26/26/26 28/28/28 
f 24/24/24 27/27/27 25/25/25 
f 25/25/25 27/27/27 29/29/29 
f 30/30/30 14/14/14 6/6/6 
f 6/6/6 14/14/14 8/8/8 
f 23/23/23 30/30/30 3/3/3 
f 30/30/30 6/6/6 3/3/3 
f 30/30/30 23/23/23 26/26/26 
f 26/26/26 23/23/23 28/28/28 
f 14/14/14 30/30/30 13/13/13 
f 30/30/30 26/26/26 13/13/13 
f 17/17/17 18/18/18 31/31/31 
f 31/31/31 18/18/18 32/32/32 
f 31/31/31 32/32/32 33/33/33 
f 33/33/33 32/32/32 34/34/34 
f 35/35/35 36/36/36 33/33/33 
f 36/36/36 31/31/31 33/33/33 
f 36/36/36 19/19/19 31/31/31 
f 19/19/19 17/17/17 31/31/31 
f 37/37/37 35/35/35 38/38/38 
f 35/35/35 33/33/33 38/38/38 
f 34/34/34 39/39/39 33/33/33 
f 38/38/38 33/33/33 39/39/39 
f 18/18/18 25/25/25 32/32/32 
f 40/40/40 32/32/32 25/25/25 
f 41/41/41 40/40/40 29/29/29 
f 40/40/40 25/25/25 29/29/29 
f 32/32/32 40/40/40 34/34/34 
f 40/40/40 42/42/42 34/34/34 
f 5/5/5 43/43/43 1/1/1 
f 1/1/1 43/43/43 44/44/44 
f 45/45/45 46/46/46 2/2/2 
f 1/1/1 44/44/44 47/47/47 
f 1/1/1 47/47/47 2/2/2 
f 2/2/2 47/47/47 45/45/45 
f 10/10/10 48/48/48 7/7/7 
f 7/7/7 48/48/48 49/49/49 
f 43/43/43 5/5/5 49/49/49 
f 49/49/49 5/5/5 7/7/7 
f 46/46/46 50/50/50 2/2/2 
f 2/2/2 50/50/50 51/51/51 
f 4/4/4 2/2/2 52/52/52 
f 52/52/52 2/2/2 51/51/51 
f 22/22/22 4/4/4 52/52/52 
f 22/22/22 53/53/53 23/23/23 
f 23/23/23 53/53/53 28/28/28 
f 28/28/28 53/53/53 54/54/54 
f 28/28/28 54/54/54 27/27/27 
f 27/27/27 54/54/54 55/55/55 
f 27/27/27 55/55/55 29/29/29 
f 55/55/55 56/56/56 29/29/29 
f 56/56/56 57/57/57 29/29/29 
f 41/41/41 29/29/29 57/57/57 
f 41/41/41 57/57/57 58/58/58 
f 58/58/58 42/42/42 41/41/41 
f 40/40/40 41/41/41 42/42/42 
f 58/58/58 59/59/59 42/42/42 
f 59/59/59 60/60/60 42/42/42 
f 42/42/42 60/60/60 61/61/61 
f 42/42/42 61/61/61 34/34/34 
f 34/34/34 61/61/61 39/39/39 
f 61/61/61 62/62/62 39/39/39 
f 39/39/39 62/62/62 63/63/63 
f 39/39/39 63/63/63 38/38/38 
f 38/38/38 63/63/63 64/64/64 
f 12/12/12 9/9/9 14/14/14 
f 9/9/9 8/8/8 14/14/14 
f 65/65/65 37/37/37 64/64/64 
f 37/37/37 38/38/38 64/64/64 
# 94 faces

#
# object D160_541D_L_D160_541D_L_2_DTaSI
#

v  -247.8761 17.6358 -62.8615
v  -247.3086 17.5748 -62.4538
v  -249.9223 17.6358 -57.1236
v  -249.3549 17.5748 -56.7160
v  -251.2838 17.7351 -52.3211
v  -250.7163 17.6740 -51.9135
v  -251.7601 18.1007 -50.6070
v  -251.1926 18.0396 -50.1994
v  -250.6064 17.6358 -54.7167
v  -250.0389 17.5748 -54.3090
v  -245.7403 17.6358 -67.9186
v  -245.1729 17.5748 -67.5110
v  -251.9414 18.5597 -49.7285
v  -251.3740 18.4986 -49.3209
v  -252.0085 19.8578 -49.2158
v  -251.4410 19.7967 -48.8081
v  -251.2375 22.5274 -49.0635
v  -251.8050 22.5884 -49.4711
v  -250.7221 26.4851 -49.8871
v  -251.2896 26.5461 -50.2947
v  -250.1958 29.4841 -50.6517
v  -250.7632 29.5451 -51.0593
v  -249.6079 32.0355 -51.6101
v  -250.1754 32.0966 -52.0177
v  -249.1832 33.6568 -52.3805
v  -248.7413 35.0181 -53.3290
v  -249.7507 33.7179 -52.7881
v  -249.3088 35.0791 -53.7367
v  -248.1445 36.3093 -54.9039
v  -248.7119 36.3703 -55.3116
v  -247.6382 36.8469 -56.5247
v  -248.2057 36.9080 -56.9323
v  -246.9196 37.2543 -58.4864
v  -247.4870 37.3154 -58.8940
v  -246.2490 37.5097 -60.3783
v  -245.4412 37.6954 -62.6455
v  -246.8166 37.5707 -60.7859
v  -246.0086 37.7565 -63.0531
v  -244.5451 37.8030 -64.8191
v  -245.1126 37.8641 -65.2266
v  -242.8195 37.8832 -68.9081
v  -243.3870 37.9442 -69.3157
v  -241.3864 37.7879 -72.0309
v  -241.9538 37.8489 -72.4386
v  -240.2799 37.5762 -74.6058
v  -240.7955 37.6408 -74.6424
v  -244.5755 19.2565 -70.3585
v  -244.1149 22.2612 -71.0587
v  -244.0488 19.2533 -70.3398
v  -243.5883 22.2580 -71.0400
v  -243.5385 25.2281 -71.7501
v  -242.9175 28.0315 -72.4034
v  -243.0119 25.2248 -71.7314
v  -242.3910 28.0283 -72.3847
v  -242.7728 28.6411 -72.5454
v  -242.2462 28.6379 -72.5267
v  -241.0504 35.8032 -74.2144
v  -240.8593 37.0121 -74.4961
v  -240.5239 35.8000 -74.1958
v  -240.3329 37.0088 -74.4775
v  -244.7738 17.6358 -69.9793
v  -244.2467 17.6326 -69.9621
v  -242.2874 30.5630 -72.9933
v  -241.7608 30.5598 -72.9746
v  -241.7368 32.7227 -73.4966
v  -241.2103 32.7195 -73.4779
v  -241.3346 34.4188 -73.8918
v  -240.8081 34.4155 -73.8732
v  -244.0428 17.5748 -69.9207
v  -240.0684 37.5575 -74.5463
v  -249.8523 19.7431 -57.1678
v  -251.7311 19.9492 -50.5187
v  -249.6636 22.9470 -57.2069
v  -251.5402 23.2167 -50.5443
v  -247.8135 19.5323 -62.9170
v  -247.6299 22.6670 -62.9695
v  -245.6858 19.3379 -67.9811
v  -245.5110 22.4041 -68.0451
v  -244.9233 28.3948 -67.9802
v  -245.2408 25.4678 -68.0367
v  -242.5530 30.6094 -72.4706
v  -244.6065 31.0510 -67.9000
v  -242.3075 32.8279 -72.3658
v  -244.3382 33.3022 -67.8205
v  -249.3703 26.1910 -57.2048
v  -246.6751 31.5806 -62.8617
v  -246.3926 33.8867 -62.8057
v  -247.0097 28.8416 -62.9213
v  -248.6809 32.1373 -57.1376
v  -249.0252 29.3097 -57.1767
v  -248.3902 34.5084 -57.1025
v  -247.3448 25.8203 -62.9641
v  -242.1488 34.5555 -72.2801
v  -244.1667 35.0144 -67.7660
v  -242.0416 35.9410 -72.2712
v  -244.0557 36.3583 -67.7971
v  -241.9501 37.1331 -72.3967
v  -243.9694 37.5047 -67.9747
v  -246.2128 35.6093 -62.7738
v  -248.2060 36.2575 -57.0863
v  -246.1035 36.9357 -62.8203
# 101 vertices

vn -0.0836 -0.9960 -0.0328
vn -0.0840 -0.9959 -0.0321
vn -0.0861 -0.9959 -0.0293
vn -0.0867 -0.9958 -0.0285
vn -0.1451 -0.9879 0.0541
vn -0.1653 -0.9827 0.0830
vn -0.2521 -0.9447 0.2095
vn -0.2816 -0.9255 0.2534
vn -0.0985 -0.9951 -0.0119
vn -0.1038 -0.9946 -0.0044
vn -0.0815 -0.9960 -0.0357
vn -0.0817 -0.9960 -0.0354
vn -0.5042 -0.6109 0.6104
vn -0.5303 -0.5343 0.6582
vn -0.5854 -0.0327 0.8101
vn -0.5854 -0.0310 0.8102
vn -0.5598 0.1869 0.8073
vn -0.5585 0.1935 0.8066
vn -0.5443 0.2617 0.7970
vn -0.5435 0.2651 0.7965
vn -0.5234 0.3433 0.7799
vn -0.5214 0.3501 0.7782
vn -0.4959 0.4297 0.7547
vn -0.4939 0.4351 0.7528
vn -0.4547 0.5337 0.7131
vn -0.3654 0.7001 0.6135
vn -0.4488 0.5469 0.7068
vn -0.3482 0.7257 0.5934
vn -0.2320 0.8614 0.4519
vn -0.1949 0.8932 0.4051
vn -0.0706 0.9674 0.2431
vn -0.0571 0.9727 0.2251
vn -0.0162 0.9853 0.1701
vn -0.0088 0.9871 0.1600
vn 0.0220 0.9928 0.1180
vn 0.0455 0.9953 0.0856
vn 0.0275 0.9935 0.1104
vn 0.0483 0.9955 0.0818
vn 0.0648 0.9962 0.0590
vn 0.0669 0.9962 0.0560
vn 0.0810 0.9960 0.0363
vn 0.0843 0.9959 0.0317
vn 0.1073 0.9942 -0.0009
vn 0.1109 0.9938 -0.0055
vn 0.1254 0.9697 -0.2099
vn 0.1352 0.9705 -0.1996
vn 0.0328 -0.2313 -0.9723
vn 0.0331 -0.2322 -0.9721
vn 0.0330 -0.2313 -0.9723
vn 0.0331 -0.2323 -0.9721
vn 0.0330 -0.2333 -0.9718
vn 0.0331 -0.2338 -0.9717
vn 0.0330 -0.2334 -0.9718
vn 0.0331 -0.2339 -0.9717
vn 0.0331 -0.2346 -0.9715
vn 0.0330 -0.2326 -0.9720
vn 0.0330 -0.2311 -0.9724
vn 0.0330 -0.2325 -0.9720
vn 0.0342 -0.2302 -0.9725
vn -0.0596 -0.9363 -0.3461
vn 0.0305 -0.2503 -0.9677
vn 0.0330 -0.2348 -0.9715
vn 0.0331 -0.2345 -0.9715
vn 0.0330 -0.2339 -0.9717
vn 0.0330 -0.2337 -0.9717
vn -0.0799 -0.9960 -0.0405
vn 0.0989 0.9943 -0.0392
vn -0.9516 0.0427 -0.3043
vn -0.9638 0.0474 -0.2626
vn -0.9507 0.0694 -0.3023
vn -0.9622 0.0740 -0.2621
vn -0.9320 0.0378 -0.3606
vn -0.9306 0.0664 -0.3601
vn -0.9163 0.0341 -0.3991
vn -0.9143 0.0628 -0.4002
vn -0.9048 0.0638 -0.4210
vn -0.9056 0.0338 -0.4229
vn -0.9018 0.1098 -0.4180
vn -0.9032 0.0931 -0.4190
vn -0.9089 0.1127 -0.4014
vn -0.9112 0.0938 -0.4010
vn -0.8993 0.1184 -0.4210
vn -0.9079 0.1211 -0.4013
vn -0.8988 0.1131 -0.4235
vn -0.9090 0.1144 -0.4008
vn -0.8832 0.1102 -0.4559
vn -0.8814 0.1179 -0.4574
vn -0.8963 0.1163 -0.4280
vn -0.9582 0.0953 -0.2696
vn -0.9481 0.0962 -0.3031
vn -0.9244 0.1212 -0.3617
vn -0.9252 0.1140 -0.3620
vn -0.9257 0.1139 -0.3608
vn -0.9426 0.1196 -0.3118
vn -0.9449 0.1128 -0.3073
vn -0.9416 0.1131 -0.3172
vn -0.9280 0.0959 -0.3600
vn -0.9010 0.0900 -0.4244
vn -0.9124 0.0878 -0.3997
vn -0.9031 0.0489 -0.4266
vn -0.9166 0.0394 -0.3978
vn -0.8870 0.0500 -0.4591
vn -0.8856 0.0874 -0.4561
vn -0.8864 0.0102 -0.4628
vn -0.9019 0.0068 -0.4319
vn -0.9179 0.0123 -0.3965
vn -0.9286 0.0864 -0.3608
vn -0.9410 0.0934 -0.3251
vn -0.9311 0.0462 -0.3617
vn -0.9328 0.0206 -0.3598
vn -0.9480 0.0248 -0.3172
vn -0.9616 0.0280 -0.2731
vn -0.9652 0.0276 -0.2602
vn -0.9617 0.0271 -0.2727
vn -0.9057 0.0123 -0.4238
vn -0.9172 0.0154 -0.3982
vn -0.9770 0.0277 -0.2114
vn -0.9777 0.0467 -0.2049
vn -0.9771 0.0644 -0.2026
vn -0.9560 0.1063 -0.2733
vn -0.9539 0.1173 -0.2763
vn -0.9533 0.1181 -0.2780
vn -0.9538 0.1111 -0.2791
vn -0.9552 0.1013 -0.2782
vn -0.9438 0.0745 -0.3220
vn -0.9411 0.0413 -0.3356
vn -0.9428 0.0090 -0.3332
vn -0.9285 0.0033 -0.3713
vn -0.9239 -0.0155 -0.3823
vn -0.9109 -0.0426 -0.4104
vn -0.9004 -0.0291 -0.4341
vn -0.8857 -0.0179 -0.4638
# 132 vertex normals

vt 0.2949 0.5200 0.0000
vt 0.2981 0.5209 0.0000
vt 0.2949 0.5488 0.0000
vt 0.2981 0.5498 0.0000
vt 0.2946 0.5722 0.0000
vt 0.2977 0.5737 0.0000
vt 0.2929 0.5804 0.0000
vt 0.2956 0.5825 0.0000
vt 0.2950 0.5606 0.0000
vt 0.2982 0.5617 0.0000
vt 0.2950 0.4942 0.0000
vt 0.2983 0.4949 0.0000
vt 0.2909 0.5844 0.0000
vt 0.2927 0.5873 0.0000
vt 0.2852 0.5873 0.0000
vt 0.2858 0.5907 0.0000
vt 0.2716 0.5905 0.0000
vt 0.2716 0.5869 0.0000
vt 0.2510 0.5866 0.0000
vt 0.2514 0.5830 0.0000
vt 0.2353 0.5823 0.0000
vt 0.2361 0.5789 0.0000
vt 0.2219 0.5768 0.0000
vt 0.2230 0.5735 0.0000
vt 0.2134 0.5723 0.0000
vt 0.2062 0.5669 0.0000
vt 0.2148 0.5691 0.0000
vt 0.2081 0.5639 0.0000
vt 0.1993 0.5581 0.0000
vt 0.2017 0.5556 0.0000
vt 0.1961 0.5493 0.0000
vt 0.1991 0.5474 0.0000
vt 0.1938 0.5389 0.0000
vt 0.1970 0.5374 0.0000
vt 0.1925 0.5290 0.0000
vt 0.1915 0.5172 0.0000
vt 0.1957 0.5277 0.0000
vt 0.1947 0.5161 0.0000
vt 0.1909 0.5058 0.0000
vt 0.1942 0.5049 0.0000
vt 0.1905 0.4846 0.0000
vt 0.1938 0.4839 0.0000
vt 0.1913 0.4686 0.0000
vt 0.1945 0.4682 0.0000
vt 0.1937 0.4573 0.0000
vt 0.1952 0.4586 0.0000
vt 0.2881 0.4811 0.0000
vt 0.2729 0.4761 0.0000
vt 0.2888 0.4786 0.0000
vt 0.2733 0.4734 0.0000
vt 0.2575 0.4716 0.0000
vt 0.2430 0.4677 0.0000
vt 0.2577 0.4690 0.0000
vt 0.2431 0.4651 0.0000
vt 0.2398 0.4669 0.0000
vt 0.2400 0.4643 0.0000
vt 0.2030 0.4588 0.0000
vt 0.1976 0.4586 0.0000
vt 0.2028 0.4563 0.0000
vt 0.1968 0.4562 0.0000
vt 0.2951 0.4842 0.0000
vt 0.2968 0.4827 0.0000
vt 0.2299 0.4642 0.0000
vt 0.2300 0.4616 0.0000
vt 0.2187 0.4615 0.0000
vt 0.2187 0.4589 0.0000
vt 0.2099 0.4597 0.0000
vt 0.2099 0.4571 0.0000
vt 0.2978 0.4824 0.0000
vt 0.1928 0.4570 0.0000
vt 0.2846 0.5486 0.0000
vt 0.2842 0.5812 0.0000
vt 0.2688 0.5483 0.0000
vt 0.2682 0.5816 0.0000
vt 0.2856 0.5197 0.0000
vt 0.2701 0.5191 0.0000
vt 0.2869 0.4936 0.0000
vt 0.2717 0.4926 0.0000
vt 0.2414 0.4917 0.0000
vt 0.2562 0.4920 0.0000
vt 0.2298 0.4671 0.0000
vt 0.2279 0.4917 0.0000
vt 0.2186 0.4677 0.0000
vt 0.2167 0.4918 0.0000
vt 0.2527 0.5480 0.0000
vt 0.2256 0.5180 0.0000
vt 0.2140 0.5178 0.0000
vt 0.2393 0.5183 0.0000
vt 0.2230 0.5473 0.0000
vt 0.2371 0.5477 0.0000
vt 0.2111 0.5470 0.0000
vt 0.2544 0.5186 0.0000
vt 0.2101 0.4684 0.0000
vt 0.2082 0.4919 0.0000
vt 0.2034 0.4687 0.0000
vt 0.2015 0.4916 0.0000
vt 0.1978 0.4683 0.0000
vt 0.1960 0.4908 0.0000
vt 0.2054 0.5177 0.0000
vt 0.2023 0.5467 0.0000
vt 0.1988 0.5173 0.0000
# 101 texture coords

g D160_541D_L_D160_541D_L_2_DTaSI
usemtl lightglass_1SG
s 1
f 66/66/66 67/67/67 68/68/68 
f 67/67/67 69/69/69 68/68/68 
f 70/70/70 71/71/71 72/72/72 
f 71/71/71 73/73/73 72/72/72 
f 74/74/74 75/75/75 70/70/70 
f 75/75/75 71/71/71 70/70/70 
f 68/68/68 69/69/69 74/74/74 
f 69/69/69 75/75/75 74/74/74 
f 76/76/76 77/77/77 66/66/66 
f 77/77/77 67/67/67 66/66/66 
f 78/78/78 79/79/79 80/80/80 
f 79/79/79 81/81/81 80/80/80 
f 72/72/72 73/73/73 78/78/78 
f 73/73/73 79/79/79 78/78/78 
f 81/81/81 82/82/82 80/80/80 
f 82/82/82 83/83/83 80/80/80 
f 82/82/82 84/84/84 83/83/83 
f 84/84/84 85/85/85 83/83/83 
f 84/84/84 86/86/86 85/85/85 
f 86/86/86 87/87/87 85/85/85 
f 86/86/86 88/88/88 87/87/87 
f 88/88/88 89/89/89 87/87/87 
f 90/90/90 91/91/91 92/92/92 
f 91/91/91 93/93/93 92/92/92 
f 88/88/88 90/90/90 89/89/89 
f 90/90/90 92/92/92 89/89/89 
f 91/91/91 94/94/94 93/93/93 
f 94/94/94 95/95/95 93/93/93 
f 94/94/94 96/96/96 95/95/95 
f 96/96/96 97/97/97 95/95/95 
f 96/96/96 98/98/98 97/97/97 
f 98/98/98 99/99/99 97/97/97 
f 100/100/100 101/101/101 102/102/102 
f 101/101/101 103/103/103 102/102/102 
f 98/98/98 100/100/100 99/99/99 
f 100/100/100 102/102/102 99/99/99 
f 101/101/101 104/104/104 103/103/103 
f 104/104/104 105/105/105 103/103/103 
f 104/104/104 106/106/106 105/105/105 
f 106/106/106 107/107/107 105/105/105 
f 106/106/106 108/108/108 107/107/107 
f 108/108/108 109/109/109 107/107/107 
f 110/110/110 111/111/111 108/108/108 
f 109/109/109 108/108/108 111/111/111 
f 112/112/112 113/113/113 114/114/114 
f 113/113/113 115/115/115 114/114/114 
f 116/116/116 117/117/117 118/118/118 
f 117/117/117 119/119/119 118/118/118 
f 117/117/117 120/120/120 119/119/119 
f 120/120/120 121/121/120 119/119/119 
f 122/122/121 123/123/122 124/124/123 
f 123/123/122 125/125/124 124/124/123 
f 126/126/125 112/112/112 127/127/126 
f 112/112/112 114/114/114 127/127/126 
f 113/113/113 116/116/116 115/115/115 
f 116/116/116 118/118/118 115/115/115 
f 120/120/120 128/128/127 121/121/120 
f 128/128/127 129/129/127 121/121/120 
f 128/128/127 130/130/120 129/129/127 
f 130/130/120 131/131/128 129/129/127 
f 130/130/120 132/132/129 131/131/128 
f 132/132/129 133/133/130 131/131/128 
f 132/132/129 122/122/121 133/133/130 
f 122/122/121 124/124/123 133/133/130 
f 123/123/122 111/111/111 125/125/124 
f 111/111/111 110/110/110 125/125/124 
f 134/134/131 77/77/77 126/126/125 
f 77/77/77 76/76/76 126/126/125 
f 126/126/125 127/127/126 134/134/131 
f 135/135/132 110/110/110 108/108/108 
s 12
f 136/136/133 137/137/134 138/138/135 
f 137/137/134 139/139/136 138/138/135 
f 140/140/137 141/141/138 142/142/139 
f 142/142/139 141/141/138 143/143/140 
f 138/138/135 141/141/138 136/136/133 
f 140/140/137 136/136/133 141/141/138 
f 113/113/141 112/112/142 143/143/140 
f 143/143/140 112/112/142 142/142/139 
f 117/117/143 116/116/144 144/144/145 
f 144/144/145 116/116/144 145/145/146 
f 146/146/147 147/147/148 148/148/149 
f 148/148/149 147/147/148 149/149/150 
f 130/130/151 128/128/152 148/148/149 
f 128/128/152 146/146/147 148/148/149 
f 120/120/153 146/146/147 128/128/152 
f 146/146/147 120/120/153 117/117/143 
f 147/147/148 146/146/147 144/144/145 
f 146/146/147 117/117/143 144/144/145 
f 85/85/154 150/150/155 139/139/136 
f 139/139/136 150/150/155 138/138/135 
f 147/147/148 151/151/156 149/149/150 
f 151/151/156 152/152/157 149/149/150 
f 151/151/156 147/147/148 153/153/158 
f 153/153/158 147/147/148 144/144/145 
f 154/154/159 151/151/156 155/155/160 
f 151/151/156 153/153/158 155/155/160 
f 151/151/156 154/154/159 152/152/157 
f 152/152/157 154/154/159 156/156/161 
f 157/157/162 145/145/146 141/141/138 
f 141/141/138 145/145/146 143/143/140 
f 150/150/155 157/157/162 138/138/135 
f 157/157/162 141/141/138 138/138/135 
f 157/157/162 150/150/155 153/153/158 
f 153/153/158 150/150/155 155/155/160 
f 145/145/146 157/157/162 144/144/145 
f 157/157/162 153/153/158 144/144/145 
f 148/148/149 149/149/150 158/158/163 
f 158/158/163 149/149/150 159/159/164 
f 158/158/163 159/159/164 160/160/165 
f 160/160/165 159/159/164 161/161/166 
f 122/122/167 132/132/168 160/160/165 
f 132/132/168 158/158/163 160/160/165 
f 132/132/168 130/130/151 158/158/163 
f 130/130/151 148/148/149 158/158/163 
f 123/123/169 122/122/167 162/162/170 
f 122/122/167 160/160/165 162/162/170 
f 161/161/166 163/163/171 160/160/165 
f 162/162/170 160/160/165 163/163/171 
f 149/149/150 152/152/157 159/159/164 
f 164/164/172 159/159/164 152/152/157 
f 165/165/173 164/164/172 156/156/161 
f 164/164/172 152/152/157 156/156/161 
f 159/159/164 164/164/172 161/161/166 
f 164/164/172 166/166/174 161/161/166 
f 140/140/137 66/66/175 136/136/133 
f 136/136/133 66/66/175 68/68/176 
f 70/70/177 72/72/178 137/137/134 
f 136/136/133 68/68/176 74/74/179 
f 136/136/133 74/74/179 137/137/134 
f 137/137/134 74/74/179 70/70/177 
f 112/112/142 126/126/180 142/142/139 
f 142/142/139 126/126/180 76/76/181 
f 66/66/175 140/140/137 76/76/181 
f 76/76/181 140/140/137 142/142/139 
f 72/72/178 78/78/182 137/137/134 
f 137/137/134 78/78/182 80/80/183 
f 139/139/136 137/137/134 83/83/184 
f 83/83/184 137/137/134 80/80/183 
f 85/85/154 139/139/136 83/83/184 
f 85/85/154 87/87/185 150/150/155 
f 150/150/155 87/87/185 155/155/160 
f 155/155/160 87/87/185 89/89/186 
f 155/155/160 89/89/186 154/154/159 
f 154/154/159 89/89/186 92/92/187 
f 154/154/159 92/92/187 156/156/161 
f 92/92/187 93/93/188 156/156/161 
f 93/93/188 95/95/189 156/156/161 
f 165/165/173 156/156/161 95/95/189 
f 165/165/173 95/95/189 97/97/190 
f 97/97/190 166/166/174 165/165/173 
f 164/164/172 165/165/173 166/166/174 
f 97/97/190 99/99/191 166/166/174 
f 99/99/191 102/102/192 166/166/174 
f 166/166/174 102/102/192 103/103/193 
f 166/166/174 103/103/193 161/161/166 
f 161/161/166 103/103/193 163/163/171 
f 103/103/193 105/105/194 163/163/171 
f 163/163/171 105/105/194 107/107/195 
f 163/163/171 107/107/195 162/162/170 
f 162/162/170 107/107/195 109/109/196 
f 116/116/144 113/113/141 145/145/146 
f 113/113/141 143/143/140 145/145/146 
f 111/111/197 123/123/169 109/109/196 
f 123/123/169 162/162/170 109/109/196 
# 164 faces

