# 3ds Max Wavefront OBJ Exporter v0.97b - (c)2007 guruware
# File Created: 11.01.2016 14:27:01

mtllib Z187_182C_C.mtl

#
# object Z187_182C_C_D_Z187_182C_C
#

v  151.1929 28.9568 0.0000
v  151.3618 31.7031 0.0000
v  151.0871 31.7031 -11.5069
v  149.8526 28.9568 -25.0958
v  150.8951 28.9568 -11.9180
v  150.8764 33.8497 -19.6757
v  150.6880 31.9320 -20.1447
v  151.5236 33.7924 0.0000
v  151.2665 33.7924 -11.1929
v  149.8269 32.1574 -28.3346
v  150.4736 32.3766 -23.8325
v  149.9261 34.0539 -28.5383
v  150.5661 34.3195 -24.1004
v  150.5321 34.3207 -24.3413
v  150.5992 34.0886 -23.7961
v  145.6587 28.9568 -55.2376
v  145.7766 31.7856 -55.3055
v  143.7576 31.7365 -64.6896
v  141.4000 28.9480 -71.0461
v  143.6518 28.9568 -64.6562
v  141.5848 33.7272 -71.1299
v  141.4893 31.6623 -71.0848
v  145.8998 33.9361 -55.3579
v  143.8704 33.8500 -64.7209
v  138.4879 31.5708 -76.4639
v  137.5729 28.9150 -77.3290
v  138.4075 28.9227 -76.4047
v  134.7745 33.7911 -80.7187
v  134.7186 31.8851 -80.6155
v  137.1674 31.6809 -77.9184
v  138.5660 33.5883 -76.5380
v  125.2662 32.9294 -84.6312
v  130.1101 30.8509 -83.2263
v  130.1462 33.0286 -83.3278
v  125.2655 35.9511 -84.8657
v  125.2710 34.6390 -84.7430
v  130.1707 34.6935 -83.4452
v  134.7086 28.8885 -80.5010
v  120.5919 36.3544 -85.0037
v  115.8802 37.8194 -84.3509
v  120.6049 35.2401 -84.8890
v  116.0642 38.7718 -84.6032
v  115.9787 38.3276 -84.4924
v  120.5695 37.2197 -85.1283
v  149.9790 28.2749 -25.1084
v  146.8037 27.6966 -24.9592
v  147.7262 27.6619 -11.8668
v  151.3217 28.2752 0.0000
v  151.0221 28.2749 -11.9250
v  144.3780 27.0583 0.0000
v  147.9858 27.6353 0.0000
v  143.3574 27.1821 -24.7880
v  144.1590 27.1122 -11.7977
v  145.7780 28.2738 -55.2624
v  142.9085 27.7472 -55.4906
v  145.0713 27.6939 -40.5088
v  148.0446 28.2753 -40.8110
v  139.7852 27.2751 -55.6759
v  141.8291 27.1743 -40.1740
v  140.7014 27.9517 -66.8716
v  137.1876 28.2232 -77.8909
v  134.5871 28.2392 -80.4943
v  137.4333 27.6768 -69.0040
v  141.4829 28.2604 -71.0812
v  138.4888 28.2350 -76.4458
v  143.7481 28.2705 -64.6882
v  115.8128 38.4426 -85.1344
v  115.8116 38.1824 -85.0509
v  137.6525 28.2275 -77.3760
v  150.7348 34.0213 -22.7384
v  150.6867 33.9292 -23.1496
v  150.5281 32.1771 -23.3911
v  150.6500 34.1103 -23.4800
v  147.9164 28.9568 -40.7933
v  148.0302 31.8020 -40.9593
v  148.1502 33.9649 -41.0871
v  137.1080 28.9107 -77.8439
v  115.5593 37.2147 -84.2391
v  120.2807 34.6361 -84.7830
v  115.7262 37.7145 -85.0167
v  115.4269 37.1594 -84.9178
v  137.7028 33.6344 -77.4899
v  124.9426 32.3224 -84.5407
v  129.7884 30.2400 -83.1558
v  137.6792 31.6430 -78.3851
v  137.7417 33.5512 -78.4724
v  137.2362 33.6594 -78.0043
v  138.1457 31.6041 -77.8713
v  138.2083 33.5262 -77.9578
v  137.6339 31.6420 -77.4046
v  151.0871 31.7031 11.5069
v  149.8526 28.9568 25.0958
v  150.8951 28.9568 11.9180
v  150.8764 33.8497 19.6757
v  150.6880 31.9320 20.1447
v  151.2665 33.7924 11.1929
v  149.8269 32.1574 28.3347
v  150.4736 32.3766 23.8325
v  149.9261 34.0539 28.5383
v  150.5661 34.3195 24.1004
v  150.5321 34.3207 24.3413
v  150.5992 34.0886 23.7961
v  145.6587 28.9568 55.2376
v  143.7576 31.7364 64.6896
v  145.7766 31.7856 55.3055
v  141.4000 28.9483 71.0461
v  143.6518 28.9568 64.6562
v  141.5848 33.7272 71.1299
v  141.4893 31.6623 71.0847
v  145.8998 33.9361 55.3579
v  143.8704 33.8501 64.7209
v  138.4879 31.5708 76.4639
v  137.5729 28.9150 77.3291
v  138.4075 28.9227 76.4047
v  134.7745 33.7911 80.7188
v  137.1674 31.6809 77.9184
v  134.7186 31.8851 80.6155
v  138.5660 33.5883 76.5380
v  125.2662 32.9294 84.6312
v  130.1462 33.0286 83.3278
v  130.1101 30.8509 83.2263
v  125.2655 35.9511 84.8657
v  125.2710 34.6390 84.7430
v  130.1707 34.6935 83.4452
v  134.7086 28.8885 80.5010
v  120.5919 36.3544 85.0037
v  115.8802 37.8194 84.3509
v  120.6049 35.2401 84.8890
v  116.0642 38.7718 84.6033
v  115.9787 38.3276 84.4924
v  120.5695 37.2197 85.1283
v  149.9790 28.2748 25.1084
v  147.7262 27.6619 11.8668
v  146.8037 27.6966 24.9592
v  151.0221 28.2749 11.9250
v  143.3574 27.1821 24.7880
v  144.1590 27.1122 11.7976
v  145.7780 28.2738 55.2624
v  145.0713 27.6939 40.5088
v  142.9085 27.7472 55.4906
v  148.0446 28.2753 40.8111
v  139.7852 27.2751 55.6759
v  141.8291 27.1743 40.1740
v  140.7014 27.9517 66.8716
v  137.1876 28.2232 77.8909
v  137.4333 27.6768 69.0040
v  134.5871 28.2392 80.4943
v  141.4829 28.2604 71.0812
v  138.4888 28.2350 76.4458
v  143.7481 28.2705 64.6882
v  115.8128 38.4426 85.1343
v  115.8116 38.1824 85.0509
v  137.6525 28.2275 77.3760
v  150.7348 34.0215 22.7384
v  150.5281 32.1771 23.3911
v  150.6867 33.9292 23.1496
v  150.6500 34.1103 23.4800
v  148.0302 31.8020 40.9593
v  147.9164 28.9568 40.7933
v  148.1502 33.9649 41.0871
v  137.1080 28.9107 77.8438
v  115.5593 37.2147 84.2391
v  120.2807 34.6361 84.7830
v  115.7262 37.7145 85.0168
v  115.4269 37.1594 84.9178
v  137.7028 33.6344 77.4899
v  124.9426 32.3224 84.5407
v  129.7884 30.2400 83.1558
v  137.6792 31.6430 78.3851
v  137.2362 33.6594 78.0043
v  137.7417 33.5512 78.4723
v  138.1457 31.6041 77.8713
v  138.2083 33.5262 77.9578
v  137.6339 31.6420 77.4046
# 174 vertices

vn -0.9999 0.0110 -0.0000
vn -0.9977 0.0682 -0.0000
vn -0.9963 0.0737 0.0433
vn -0.9934 0.0331 0.1099
vn -0.9984 0.0122 0.0554
vn -0.9951 0.0854 0.0493
vn -0.9861 0.1582 0.0512
vn -0.9970 0.0778 -0.0000
vn -0.9962 0.0807 0.0319
vn -0.9845 0.1100 0.1369
vn -0.9848 0.1030 0.1401
vn -0.9881 0.0663 0.1388
vn -0.9869 0.0672 0.1467
vn -0.9882 0.0659 0.1385
vn -0.9852 0.0689 0.1569
vn -0.9843 0.0015 0.1766
vn -0.9829 0.0519 0.1769
vn -0.9642 0.0468 0.2610
vn -0.9131 0.0027 0.4077
vn -0.9656 0.0027 0.2602
vn -0.9123 0.0516 0.4062
vn -0.9122 0.0424 0.4075
vn -0.9824 0.0605 0.1769
vn -0.9634 0.0553 0.2623
vn -0.8529 0.0434 0.5203
vn -0.7416 0.0021 0.6709
vn -0.8539 0.0025 0.5204
vn -0.5961 0.0611 0.8006
vn -0.6009 0.0434 0.7982
vn -0.7385 0.0419 0.6730
vn -0.8524 0.0521 0.5202
vn -0.1556 0.1030 0.9824
vn -0.3826 0.1036 0.9181
vn -0.3889 0.0572 0.9195
vn -0.1274 0.0916 0.9876
vn -0.1436 0.0764 0.9867
vn -0.3688 0.0708 0.9268
vn -0.6129 0.0546 0.7883
vn 0.0737 0.1166 0.9904
vn 0.1793 0.1464 0.9728
vn 0.0718 0.1115 0.9912
vn 0.1879 0.1924 0.9632
vn 0.1975 0.2137 0.9567
vn 0.0903 0.1442 0.9854
vn -0.1794 0.9836 0.0177
vn -0.1623 0.9866 0.0162
vn -0.1673 0.9859 0.0104
vn -0.1874 0.9823 -0.0000
vn -0.1827 0.9831 0.0097
vn -0.1569 0.9876 -0.0000
vn -0.1728 0.9850 -0.0000
vn -0.1480 0.9889 0.0148
vn -0.1521 0.9883 0.0112
vn -0.1812 0.9828 0.0367
vn -0.1667 0.9853 0.0373
vn -0.1710 0.9850 0.0234
vn -0.1893 0.9816 0.0263
vn -0.1491 0.9881 0.0365
vn -0.1561 0.9875 0.0211
vn -0.1256 0.9909 0.0488
vn -0.0579 0.9963 0.0629
vn -0.0567 0.9964 0.0628
vn -0.1153 0.9918 0.0552
vn -0.1095 0.9926 0.0525
vn -0.0964 0.9935 0.0599
vn -0.1244 0.9918 0.0288
vn -0.9451 0.1753 0.2757
vn -0.9591 0.1739 0.2231
vn -0.9398 0.2349 0.2481
vn -0.0794 0.9948 0.0634
vn -0.9943 0.0923 0.0542
vn -0.9897 0.0731 0.1233
vn -0.9867 0.1457 0.0715
vn -0.9861 0.0697 0.1507
vn -0.9905 0.0017 0.1374
vn -0.9882 0.0570 0.1425
vn -0.9869 0.0635 0.1481
vn -0.7361 0.0044 0.6769
vn 0.1633 0.0941 0.9821
vn 0.0945 0.1215 0.9881
vn -0.9135 0.3766 0.1537
vn -0.8631 0.4884 0.1287
vn -0.8651 0.4854 0.1263
vn -0.7357 -0.1299 0.6648
vn -0.8468 -0.1308 0.5155
vn -0.7075 -0.1295 0.6947
vn -0.7380 0.0536 0.6727
vn -0.5731 0.1006 0.8133
vn -0.9052 -0.1304 0.4044
vn -0.0802 0.1872 0.9790
vn -0.2899 0.2504 0.9237
vn -0.9779 -0.1831 0.1008
vn -0.9816 -0.1834 0.0525
vn -0.9826 -0.1856 -0.0000
vn -0.9548 -0.1469 0.2584
vn -0.9689 -0.1758 0.1741
vn -0.9730 -0.1865 0.1357
vn 0.6755 0.0092 0.7373
vn 0.6806 0.0112 0.7325
vn 0.6791 0.0106 0.7339
vn 0.0780 0.9969 0.0047
vn 0.0780 0.9969 0.0046
vn -0.6790 -0.0086 -0.7341
vn -0.6743 -0.0113 -0.7384
vn -0.6756 -0.0105 -0.7372
vn -0.9109 0.3803 0.1599
vn -0.7382 0.0415 0.6733
vn -0.7383 0.0549 0.6722
vn -0.9259 0.2490 0.2840
vn 0.6742 0.0087 0.7385
vn -0.6802 -0.0079 -0.7330
vn -0.9963 0.0737 -0.0433
vn -0.9934 0.0331 -0.1099
vn -0.9984 0.0122 -0.0554
vn -0.9951 0.0854 -0.0493
vn -0.9861 0.1582 -0.0512
vn -0.9962 0.0807 -0.0319
vn -0.9845 0.1100 -0.1369
vn -0.9848 0.1030 -0.1401
vn -0.9881 0.0663 -0.1388
vn -0.9869 0.0672 -0.1467
vn -0.9882 0.0659 -0.1385
vn -0.9852 0.0689 -0.1569
vn -0.9843 0.0015 -0.1766
vn -0.9642 0.0468 -0.2610
vn -0.9829 0.0519 -0.1769
vn -0.9131 0.0027 -0.4077
vn -0.9656 0.0027 -0.2602
vn -0.9123 0.0516 -0.4062
vn -0.9122 0.0424 -0.4075
vn -0.9824 0.0605 -0.1769
vn -0.9634 0.0553 -0.2623
vn -0.8529 0.0434 -0.5203
vn -0.7416 0.0021 -0.6709
vn -0.8539 0.0025 -0.5204
vn -0.5960 0.0611 -0.8006
vn -0.7385 0.0419 -0.6730
vn -0.6009 0.0434 -0.7982
vn -0.8524 0.0521 -0.5202
vn -0.1556 0.1030 -0.9824
vn -0.3889 0.0572 -0.9195
vn -0.3826 0.1036 -0.9181
vn -0.1274 0.0916 -0.9876
vn -0.1436 0.0764 -0.9867
vn -0.3688 0.0708 -0.9268
vn -0.6129 0.0546 -0.7883
vn 0.0737 0.1166 -0.9904
vn 0.1793 0.1464 -0.9728
vn 0.0718 0.1115 -0.9912
vn 0.1879 0.1925 -0.9631
vn 0.1975 0.2138 -0.9567
vn 0.0903 0.1442 -0.9854
vn -0.1794 0.9836 -0.0177
vn -0.1673 0.9859 -0.0104
vn -0.1623 0.9866 -0.0162
vn -0.1827 0.9831 -0.0096
vn -0.1480 0.9889 -0.0148
vn -0.1521 0.9883 -0.0112
vn -0.1812 0.9828 -0.0367
vn -0.1710 0.9850 -0.0234
vn -0.1667 0.9853 -0.0373
vn -0.1893 0.9816 -0.0263
vn -0.1491 0.9881 -0.0365
vn -0.1561 0.9875 -0.0211
vn -0.1256 0.9909 -0.0488
vn -0.0579 0.9963 -0.0629
vn -0.1153 0.9918 -0.0552
vn -0.0567 0.9964 -0.0628
vn -0.1095 0.9926 -0.0525
vn -0.0964 0.9935 -0.0599
vn -0.1244 0.9918 -0.0288
vn -0.9451 0.1753 -0.2757
vn -0.9398 0.2349 -0.2481
vn -0.9591 0.1739 -0.2231
vn -0.0794 0.9948 -0.0634
vn -0.9943 0.0923 -0.0542
vn -0.9867 0.1457 -0.0715
vn -0.9897 0.0731 -0.1233
vn -0.9861 0.0697 -0.1507
vn -0.9882 0.0570 -0.1425
vn -0.9905 0.0017 -0.1374
vn -0.9869 0.0635 -0.1481
vn -0.7361 0.0044 -0.6769
vn 0.1633 0.0941 -0.9821
vn 0.0945 0.1216 -0.9881
vn -0.9135 0.3766 -0.1537
vn -0.8651 0.4854 -0.1263
vn -0.8631 0.4884 -0.1287
vn -0.7357 -0.1298 -0.6647
vn -0.8468 -0.1308 -0.5155
vn -0.7075 -0.1295 -0.6947
vn -0.7380 0.0536 -0.6727
vn -0.5731 0.1006 -0.8133
vn -0.9052 -0.1303 -0.4044
vn -0.0802 0.1873 -0.9790
vn -0.2899 0.2504 -0.9237
vn -0.9779 -0.1830 -0.1008
vn -0.9816 -0.1834 -0.0525
vn -0.9548 -0.1469 -0.2584
vn -0.9689 -0.1758 -0.1741
vn -0.9730 -0.1866 -0.1357
vn 0.6755 0.0092 -0.7373
vn 0.6791 0.0106 -0.7340
vn 0.6806 0.0112 -0.7325
vn 0.0780 0.9969 -0.0047
vn 0.0780 0.9969 -0.0046
vn -0.6791 -0.0086 0.7340
vn -0.6756 -0.0105 0.7372
vn -0.6743 -0.0113 0.7384
vn -0.9109 0.3803 -0.1599
vn -0.7382 0.0415 -0.6733
vn -0.7383 0.0549 -0.6722
vn -0.9259 0.2491 -0.2840
vn 0.6742 0.0086 -0.7385
vn -0.6803 -0.0079 0.7329
# 215 vertex normals

g Z187_182C_C_D_Z187_182C_C
usemtl diffuse_black_plasticSG
s 1
f 1//1 2//2 3//3 
f 4//4 5//5 3//3 
f 6//6 7//7 3//3 
f 8//8 9//9 3//3 
f 10//10 4//4 11//11 
f 12//12 10//10 11//11 
f 13//13 14//14 11//11 
f 11//11 15//15 13//13 
f 16//16 17//17 18//18 
f 19//19 20//20 18//18 
f 21//21 22//22 18//18 
f 23//23 24//24 18//18 
f 19//19 22//22 25//25 
f 26//26 27//27 25//25 
f 28//28 29//29 30//30 
f 21//21 31//31 25//25 
f 32//32 33//33 34//34 
f 35//35 36//36 34//34 
f 28//28 37//37 34//34 
f 38//38 29//29 34//34 
f 32//32 36//36 39//39 
f 40//40 41//41 39//39 
f 42//42 43//43 39//39 
f 35//35 44//44 39//39 
s 15
f 45//45 46//46 47//47 
f 48//48 49//49 47//47 
f 50//50 51//51 47//47 
f 52//52 53//53 47//47 
f 54//54 55//55 56//56 
f 45//45 57//57 56//56 
f 52//52 46//46 56//56 
f 58//58 59//59 56//56 
f 58//58 55//55 60//60 
f 61//61 62//62 63//63 
f 64//64 65//65 60//60 
f 54//54 66//66 60//60 
s 20
f 67//67 68//68 43//69 
s 15
f 69//70 61//61 63//63 
f 65//65 69//70 63//63 
s 1
f 70//71 71//72 72//73 
f 6//6 70//71 72//73 
f 72//73 4//4 7//7 
f 73//74 15//15 11//11 
f 71//72 73//74 11//11 
f 11//11 4//4 72//73 
f 16//16 74//75 75//76 
f 23//23 17//17 75//76 
f 12//12 76//77 75//76 
f 4//4 10//10 75//76 
f 30//30 77//78 26//26 
f 78//79 79//80 41//41 
s 20
f 80//81 81//82 78//83 
s 1
f 69//84 65//85 27//27 
f 61//86 69//84 26//26 
f 29//29 38//38 77//78 
f 25//25 31//31 82//87 
f 62//88 61//86 77//78 
f 65//85 64//89 19//19 
f 79//80 83//90 32//32 
f 83//90 84//91 33//33 
f 84//91 62//88 38//38 
f 45//92 49//93 5//5 
f 49//93 48//94 1//1 
f 66//95 54//96 16//16 
f 54//96 57//97 74//75 
f 57//97 45//92 4//4 
f 64//89 66//95 20//20 
s 30
f 85//98 86//99 87//100 
s 31
f 88//101 85//102 30//101 
s 32
f 89//103 88//104 90//105 
s 20
f 68//68 80//81 40//106 
s 1
f 5//5 1//1 3//3 
f 7//7 4//4 3//3 
f 9//9 6//6 3//3 
f 2//2 8//8 3//3 
f 14//14 12//12 11//11 
f 20//20 16//16 18//18 
f 22//22 19//19 18//18 
f 24//24 21//21 18//18 
f 17//17 23//23 18//18 
f 27//27 19//19 25//25 
f 90//107 26//26 25//25 
f 87//108 28//28 30//30 
f 22//22 21//21 25//25 
f 36//36 32//32 34//34 
f 37//37 35//35 34//34 
f 29//29 28//28 34//34 
f 33//33 38//38 34//34 
f 41//41 32//32 39//39 
f 43//43 40//40 39//39 
f 44//44 42//42 39//39 
f 36//36 35//35 39//39 
s 15
f 49//49 45//45 47//47 
f 51//51 48//48 47//47 
f 53//53 50//50 47//47 
f 46//46 52//52 47//47 
f 57//57 54//54 56//56 
f 46//46 45//45 56//56 
f 59//59 52//52 56//56 
f 55//55 58//58 56//56 
f 63//63 58//58 60//60 
f 66//66 64//64 60//60 
f 55//55 54//54 60//60 
s 20
f 42//109 67//67 43//69 
s 15
f 60//60 65//65 63//63 
s 1
f 7//7 6//6 72//73 
f 72//73 71//72 11//11 
f 17//17 16//16 75//76 
f 76//77 23//23 75//76 
f 10//10 12//12 75//76 
f 74//75 4//4 75//76 
f 90//107 30//30 26//26 
f 40//40 78//79 41//41 
s 20
f 40//106 80//81 78//83 
s 1
f 26//26 69//84 27//27 
f 77//78 61//86 26//26 
f 30//30 29//29 77//78 
f 90//107 25//25 82//87 
f 38//38 62//88 77//78 
f 27//27 65//85 19//19 
f 41//41 79//80 32//32 
f 32//32 83//90 33//33 
f 33//33 84//91 38//38 
f 4//4 45//92 5//5 
f 5//5 49//93 1//1 
f 20//20 66//95 16//16 
f 16//16 54//96 74//75 
f 74//75 57//97 4//4 
f 19//19 64//89 20//20 
s 30
f 30//110 85//98 87//100 
s 31
f 90//101 88//101 30//101 
s 32
f 82//111 89//103 90//105 
s 20
f 43//69 68//68 40//106 
s 1
f 1//1 91//112 2//2 
f 92//113 91//112 93//114 
f 94//115 91//112 95//116 
f 8//8 91//112 96//117 
f 97//118 98//119 92//113 
f 99//120 98//119 97//118 
f 100//121 98//119 101//122 
f 98//119 100//121 102//123 
f 103//124 104//125 105//126 
f 106//127 104//125 107//128 
f 108//129 104//125 109//130 
f 110//131 104//125 111//132 
f 106//127 112//133 109//130 
f 113//134 112//133 114//135 
f 115//136 116//137 117//138 
f 108//129 112//133 118//139 
f 119//140 120//141 121//142 
f 122//143 120//141 123//144 
f 115//136 120//141 124//145 
f 125//146 120//141 117//138 
f 119//140 126//147 123//144 
f 127//148 126//147 128//149 
f 129//150 126//147 130//151 
f 122//143 126//147 131//152 
s 15
f 132//153 133//154 134//155 
f 48//48 133//154 135//156 
f 50//50 133//154 51//51 
f 136//157 133//154 137//158 
f 138//159 139//160 140//161 
f 132//153 139//160 141//162 
f 136//157 139//160 134//155 
f 142//163 139//160 143//164 
f 142//163 144//165 140//161 
f 145//166 146//167 147//168 
f 148//169 144//165 149//170 
f 138//159 144//165 150//171 
s 54
f 151//172 130//173 152//174 
s 15
f 153//175 146//167 145//166 
f 149//170 146//167 153//175 
s 1
f 154//176 155//177 156//178 
f 94//115 155//177 154//176 
f 155//177 95//116 92//113 
f 157//179 98//119 102//123 
f 156//178 98//119 157//179 
f 98//119 155//177 92//113 
f 103//124 158//180 159//181 
f 110//131 158//180 105//126 
f 99//120 158//180 160//182 
f 92//113 158//180 97//118 
f 116//137 113//134 161//183 
f 162//184 128//149 163//185 
s 54
f 164//186 162//187 165//188 
s 1
f 153//189 114//135 149//190 
f 145//191 113//134 153//189 
f 117//138 161//183 125//146 
f 112//133 166//192 118//139 
f 147//193 161//183 145//191 
f 149//190 106//127 148//194 
f 163//185 119//140 167//195 
f 167//195 121//142 168//196 
f 168//196 125//146 147//193 
f 132//197 93//114 135//198 
f 135//198 1//1 48//94 
f 150//199 103//124 138//200 
f 138//200 159//181 141//201 
f 141//201 92//113 132//197 
f 148//194 107//128 150//199 
s 60
f 169//202 170//203 171//204 
s 61
f 172//205 116//205 169//206 
s 62
f 173//207 174//208 172//209 
s 54
f 152//174 127//210 164//186 
s 1
f 93//114 91//112 1//1 
f 95//116 91//112 92//113 
f 96//117 91//112 94//115 
f 2//2 91//112 8//8 
f 101//122 98//119 99//120 
f 107//128 104//125 103//124 
f 109//130 104//125 106//127 
f 111//132 104//125 108//129 
f 105//126 104//125 110//131 
f 114//135 112//133 106//127 
f 174//211 112//133 113//134 
f 170//212 116//137 115//136 
f 109//130 112//133 108//129 
f 123//144 120//141 119//140 
f 124//145 120//141 122//143 
f 117//138 120//141 115//136 
f 121//142 120//141 125//146 
f 128//149 126//147 119//140 
f 130//151 126//147 127//148 
f 131//152 126//147 129//150 
f 123//144 126//147 122//143 
s 15
f 135//156 133//154 132//153 
f 51//51 133//154 48//48 
f 137//158 133//154 50//50 
f 134//155 133//154 136//157 
f 141//162 139//160 138//159 
f 134//155 139//160 132//153 
f 143//164 139//160 136//157 
f 140//161 139//160 142//163 
f 146//167 144//165 142//163 
f 150//171 144//165 148//169 
f 140//161 144//165 138//159 
s 54
f 129//213 130//173 151//172 
s 15
f 144//165 146//167 149//170 
s 1
f 95//116 155//177 94//115 
f 155//177 98//119 156//178 
f 105//126 158//180 103//124 
f 160//182 158//180 110//131 
f 97//118 158//180 99//120 
f 159//181 158//180 92//113 
f 174//211 113//134 116//137 
f 127//148 128//149 162//184 
s 54
f 127//210 162//187 164//186 
s 1
f 113//134 114//135 153//189 
f 161//183 113//134 145//191 
f 116//137 161//183 117//138 
f 174//211 166//192 112//133 
f 125//146 161//183 147//193 
f 114//135 106//127 149//190 
f 128//149 119//140 163//185 
f 119//140 121//142 167//195 
f 121//142 125//146 168//196 
f 92//113 93//114 132//197 
f 93//114 1//1 135//198 
f 107//128 103//124 150//199 
f 103//124 159//181 138//200 
f 159//181 92//113 141//201 
f 106//127 107//128 148//194 
s 60
f 116//214 170//203 169//202 
s 61
f 174//205 116//205 172//205 
s 62
f 166//215 174//208 173//207 
s 54
f 130//173 127//210 152//174 
# 266 faces

