# 3ds Max Wavefront OBJ Exporter v0.97b - (c)2007 guruware
# File Created: 21.12.2015 13:42:24

mtllib Y210_265B_L.mtl

#
# object Y210_265B_L_DTaSI_Y210_265B_L
#

v  57.5218 43.4897 -88.8295
v  51.2439 44.3246 -88.6771
v  57.1442 47.7538 -87.1270
v  50.5497 49.4674 -86.6694
v  51.6260 38.6328 -90.9024
v  57.9618 38.2347 -90.9257
v  11.8073 70.2289 -77.7850
v  5.3379 71.4997 -77.0638
v  11.9090 74.3620 -75.6284
v  5.4108 75.8886 -74.6176
v  5.2632 66.6989 -79.5758
v  11.7080 65.7067 -80.0501
v  44.4829 44.7124 -88.7127
v  37.5761 45.0385 -88.7508
v  44.1823 49.7483 -86.7671
v  37.3902 50.4936 -86.6463
v  37.7753 39.2257 -90.9480
v  44.7915 38.9341 -90.9290
v  56.7693 50.0109 -86.2262
v  60.7397 46.6232 -87.4510
v  59.6753 49.6027 -86.2127
v  56.5664 51.6578 -85.4841
v  45.0775 33.5802 -92.9983
v  37.9597 33.8453 -93.0033
v  38.1019 28.6821 -94.9883
v  45.3921 28.4371 -94.9941
v  -31.8536 79.2673 -72.3059
v  -31.8584 75.7255 -74.5068
v  -34.5718 79.3142 -72.2479
v  -33.6236 74.9681 -74.9592
v  -32.6754 71.0897 -77.3960
v  -25.6015 74.6260 -75.2855
v  -25.0618 79.0516 -72.6475
v  -25.8671 69.5943 -78.0922
v  -19.7986 36.0005 -92.7805
v  -23.8832 36.1568 -92.7565
v  -19.9395 41.5914 -90.6722
v  -25.2387 41.5925 -90.7307
v  -22.5276 30.7211 -94.7822
v  -19.7083 30.6264 -94.7947
v  -7.4177 35.5374 -92.8496
v  -13.6195 35.7684 -92.8153
v  -7.3289 41.0701 -90.7746
v  -13.4444 41.3223 -90.7270
v  -13.7521 30.4262 -94.8211
v  -7.4946 30.2160 -94.8489
v  -7.2332 47.0259 -88.5481
v  -13.2557 47.3023 -88.4732
v  -7.1272 53.6385 -85.8620
v  -13.0460 53.9711 -85.7388
v  24.2904 45.5933 -88.7470
v  17.6928 45.8847 -88.7288
v  24.2195 51.6491 -86.3628
v  17.7827 52.1059 -86.2601
v  17.6104 40.0410 -90.9105
v  24.3735 39.7651 -90.9270
v  -25.2942 47.7668 -88.3256
v  -26.9420 47.9349 -88.2572
v  -25.4953 54.1738 -85.6439
v  -28.6452 54.2772 -85.7837
v  11.0285 34.8493 -92.9415
v  4.7657 35.0830 -92.9163
v  11.1489 40.3070 -90.8904
v  4.8525 40.5669 -90.8594
v  4.6849 29.8067 -94.9029
v  10.8837 29.5982 -94.9242
v  62.8221 47.4796 -86.9262
v  63.3729 42.4750 -89.0649
v  61.2974 42.8336 -88.9818
v  61.8057 37.9556 -90.9556
v  63.9236 37.9383 -90.9292
v  58.3951 33.0842 -92.9740
v  51.9829 33.3230 -92.9850
v  52.3424 28.2037 -94.9963
v  58.9518 27.9817 -94.9985
v  50.4364 51.6925 -85.7401
v  43.8396 55.0129 -84.5884
v  50.3478 53.4331 -85.0132
v  43.7707 57.1217 -83.6355
v  50.2068 55.7233 -83.9727
v  43.5969 59.7528 -82.3707
v  43.9752 52.2192 -85.7735
v  37.0626 60.8424 -82.1373
v  30.3048 64.1333 -80.6253
v  37.0297 63.6288 -80.7576
v  30.1639 67.2271 -79.0279
v  30.4117 60.9238 -82.1724
v  37.1383 58.1777 -83.3797
v  30.8366 45.3189 -88.7531
v  30.6689 51.1185 -86.4907
v  31.0125 39.4977 -90.9396
v  24.0634 66.7342 -79.4267
v  23.9340 70.1068 -77.6533
v  24.1372 63.0543 -81.2340
v  18.0293 68.6752 -78.5492
v  18.0942 72.4301 -76.5902
v  17.9707 64.5431 -80.5861
v  24.4505 34.3490 -92.9750
v  17.5337 34.6067 -92.9589
v  17.4177 29.3783 -94.9405
v  24.5734 29.1375 -94.9571
v  11.2785 46.1763 -88.7019
v  11.4184 52.5247 -86.1630
v  4.9459 46.4662 -88.6611
v  5.0477 52.9252 -86.0625
v  -1.0434 72.4478 -76.5348
v  -1.0500 77.0000 -73.9020
v  -1.0929 67.4685 -79.2204
v  -1.2997 46.7533 -88.6061
v  -1.2343 53.2953 -85.9622
v  -1.3591 40.8237 -90.8172
v  -6.8167 73.1621 -76.1516
v  -6.7918 77.7164 -73.4492
v  -6.8962 68.1205 -78.9250
v  -12.4299 73.7318 -75.8487
v  -18.5745 74.2000 -75.5865
v  -12.2576 78.2476 -73.1360
v  -18.3648 78.6998 -72.9141
v  -18.8178 69.1370 -78.3850
v  -12.5866 68.6751 -78.6541
v  -19.8153 47.6035 -88.3771
v  -19.5238 54.3141 -85.5851
v  62.3250 32.9381 -92.9680
v  62.8498 27.8508 -94.9997
v  64.5171 32.8566 -92.9649
v  65.1106 27.7749 -95.0005
v  31.1755 34.0984 -92.9901
v  31.3114 28.9107 -94.9726
v  -1.4143 35.3136 -92.8828
v  -1.4834 30.0140 -94.8755
v  37.2459 54.8007 -84.8693
v  30.5302 56.4528 -84.2123
v  24.1788 57.7477 -83.7023
v  17.8820 58.6727 -83.3512
v  11.5700 59.4201 -83.0610
v  5.1600 60.0884 -82.8047
v  -1.1609 60.6423 -82.5982
v  -7.0073 61.1413 -82.4081
v  -12.8075 61.5918 -82.2082
v  -19.1628 62.0002 -81.9861
v  -25.7765 62.4005 -81.7577
v  -30.6603 62.6835 -81.5899
# 142 vertices

vn 0.0261 0.3715 -0.9280
vn 0.0258 0.3657 -0.9304
vn 0.0308 0.3725 -0.9275
vn 0.0313 0.3723 -0.9276
vn 0.0199 0.3659 -0.9304
vn 0.0196 0.3712 -0.9283
vn -0.0001 0.4571 -0.8894
vn -0.0055 0.4741 -0.8804
vn -0.0057 0.4689 -0.8832
vn -0.0116 0.4904 -0.8714
vn 0.0027 0.4488 -0.8936
vn 0.0037 0.4393 -0.8983
vn 0.0237 0.3601 -0.9326
vn 0.0184 0.3570 -0.9339
vn 0.0265 0.3656 -0.9304
vn 0.0182 0.3699 -0.9289
vn 0.0157 0.3560 -0.9344
vn 0.0189 0.3604 -0.9326
vn 0.0405 0.3905 -0.9197
vn 0.0499 0.3836 -0.9222
vn 0.0616 0.4032 -0.9131
vn 0.0517 0.4156 -0.9081
vn 0.0149 0.3620 -0.9320
vn 0.0131 0.3584 -0.9335
vn 0.0115 0.3598 -0.9329
vn 0.0127 0.3633 -0.9316
vn -0.0209 0.5277 -0.8492
vn -0.0154 0.5265 -0.8501
vn -0.0090 0.5278 -0.8493
vn -0.0096 0.5292 -0.8485
vn 0.0044 0.4785 -0.8781
vn -0.0053 0.5036 -0.8639
vn -0.0124 0.5148 -0.8572
vn 0.0011 0.4652 -0.8852
vn 0.0077 0.3519 -0.9360
vn 0.0087 0.3517 -0.9361
vn 0.0076 0.3541 -0.9352
vn 0.0079 0.3562 -0.9344
vn 0.0078 0.3510 -0.9363
vn 0.0077 0.3511 -0.9363
vn 0.0079 0.3513 -0.9362
vn 0.0078 0.3514 -0.9362
vn 0.0075 0.3505 -0.9365
vn 0.0068 0.3520 -0.9360
vn 0.0077 0.3514 -0.9362
vn 0.0077 0.3517 -0.9361
vn 0.0064 0.3639 -0.9314
vn 0.0043 0.3668 -0.9303
vn 0.0056 0.3987 -0.9170
vn 0.0018 0.4016 -0.9158
vn 0.0132 0.3581 -0.9336
vn 0.0125 0.3590 -0.9332
vn 0.0121 0.3826 -0.9238
vn 0.0117 0.3869 -0.9221
vn 0.0118 0.3510 -0.9363
vn 0.0123 0.3521 -0.9359
vn 0.0018 0.3749 -0.9270
vn 0.0130 0.3759 -0.9266
vn 0.0166 0.4077 -0.9130
vn 0.0382 0.4162 -0.9085
vn 0.0101 0.3523 -0.9358
vn 0.0107 0.3503 -0.9366
vn 0.0090 0.3500 -0.9367
vn 0.0084 0.3524 -0.9358
vn 0.0094 0.3533 -0.9355
vn 0.0612 0.3938 -0.9172
vn 0.0279 0.3857 -0.9222
vn 0.0293 0.3796 -0.9247
vn 0.0180 0.3751 -0.9268
vn 0.0147 0.3770 -0.9261
vn 0.0150 0.3702 -0.9288
vn 0.0154 0.3664 -0.9303
vn 0.0129 0.3673 -0.9300
vn 0.0126 0.3705 -0.9288
vn 0.0345 0.3866 -0.9216
vn 0.0326 0.4012 -0.9154
vn 0.0414 0.4039 -0.9139
vn 0.0398 0.4246 -0.9045
vn 0.0453 0.4182 -0.9072
vn 0.0427 0.4363 -0.8988
vn 0.0292 0.3841 -0.9228
vn 0.0250 0.4342 -0.9005
vn 0.0148 0.4467 -0.8945
vn 0.0240 0.4464 -0.8945
vn 0.0194 0.4607 -0.8874
vn 0.0095 0.4239 -0.9057
vn 0.0183 0.4136 -0.9103
vn 0.0140 0.3572 -0.9339
vn 0.0121 0.3770 -0.9261
vn 0.0129 0.3537 -0.9353
vn 0.0161 0.4527 -0.8915
vn 0.0212 0.4650 -0.8850
vn 0.0101 0.4301 -0.9027
vn 0.0109 0.4528 -0.8916
vn 0.0123 0.4624 -0.8866
vn 0.0076 0.4336 -0.9011
vn 0.0111 0.3547 -0.9349
vn 0.0109 0.3534 -0.9354
vn 0.0101 0.3545 -0.9350
vn 0.0102 0.3560 -0.9344
vn 0.0111 0.3602 -0.9328
vn 0.0103 0.3910 -0.9203
vn 0.0092 0.3614 -0.9323
vn 0.0090 0.3944 -0.9189
vn 0.0001 0.4868 -0.8735
vn -0.0044 0.5030 -0.8643
vn 0.0048 0.4562 -0.8899
vn 0.0079 0.3625 -0.9319
vn 0.0079 0.3967 -0.9179
vn 0.0079 0.3501 -0.9367
vn 0.0025 0.4949 -0.8689
vn -0.0002 0.5114 -0.8593
vn 0.0041 0.4611 -0.8873
vn 0.0015 0.4987 -0.8668
vn -0.0024 0.4976 -0.8674
vn 0.0028 0.5138 -0.8579
vn -0.0009 0.5107 -0.8598
vn -0.0045 0.4655 -0.8850
vn -0.0006 0.4641 -0.8858
vn 0.0026 0.3716 -0.9284
vn -0.0010 0.4056 -0.9140
vn 0.0148 0.3724 -0.9280
vn 0.0125 0.3723 -0.9280
vn 0.0148 0.3728 -0.9278
vn 0.0122 0.3731 -0.9277
vn 0.0114 0.3563 -0.9343
vn 0.0104 0.3576 -0.9338
vn 0.0080 0.3514 -0.9362
vn 0.0078 0.3519 -0.9360
vn 0.0168 0.3929 -0.9194
vn 0.0091 0.4034 -0.9150
vn 0.0099 0.4102 -0.9119
vn 0.0090 0.4152 -0.9097
vn 0.0076 0.4203 -0.9073
vn 0.0073 0.4254 -0.9050
vn 0.0072 0.4290 -0.9033
vn 0.0049 0.4318 -0.9020
vn -0.0002 0.4343 -0.9008
vn -0.0039 0.4372 -0.8993
vn -0.0032 0.4433 -0.8964
vn -0.0010 0.4486 -0.8937
# 141 vertex normals

vt 0.9230 0.9340 0.0000
vt 0.9045 0.9321 0.0000
vt 0.9215 0.9206 0.0000
vt 0.9020 0.9160 0.0000
vt 0.9061 0.9500 0.0000
vt 0.9248 0.9506 0.0000
vt 0.7864 0.8528 0.0000
vt 0.7672 0.8491 0.0000
vt 0.7863 0.8391 0.0000
vt 0.7670 0.8344 0.0000
vt 0.7675 0.8650 0.0000
vt 0.7865 0.8677 0.0000
vt 0.8846 0.9317 0.0000
vt 0.8643 0.9314 0.0000
vt 0.8833 0.9159 0.0000
vt 0.8633 0.9143 0.0000
vt 0.8654 0.9496 0.0000
vt 0.8860 0.9498 0.0000
vt 0.9202 0.9135 0.0000
vt 0.9322 0.9237 0.0000
vt 0.9288 0.9143 0.0000
vt 0.9195 0.9082 0.0000
vt 0.8874 0.9666 0.0000
vt 0.8664 0.9665 0.0000
vt 0.8673 0.9827 0.0000
vt 0.8887 0.9828 0.0000
vt 0.6572 0.8252 0.0000
vt 0.6575 0.8377 0.0000
vt 0.6493 0.8259 0.0000
vt 0.6524 0.8404 0.0000
vt 0.6556 0.8537 0.0000
vt 0.6760 0.8411 0.0000
vt 0.6772 0.8260 0.0000
vt 0.6757 0.8580 0.0000
vt 0.6966 0.9652 0.0000
vt 0.6846 0.9651 0.0000
vt 0.6957 0.9477 0.0000
vt 0.6801 0.9482 0.0000
vt 0.6890 0.9820 0.0000
vt 0.6973 0.9820 0.0000
vt 0.7330 0.9655 0.0000
vt 0.7147 0.9654 0.0000
vt 0.7328 0.9482 0.0000
vt 0.7148 0.9479 0.0000
vt 0.7148 0.9821 0.0000
vt 0.7332 0.9822 0.0000
vt 0.7325 0.9295 0.0000
vt 0.7148 0.9292 0.0000
vt 0.7322 0.9086 0.0000
vt 0.7148 0.9080 0.0000
vt 0.8252 0.9310 0.0000
vt 0.8058 0.9308 0.0000
vt 0.8245 0.9119 0.0000
vt 0.8056 0.9111 0.0000
vt 0.8061 0.9490 0.0000
vt 0.8260 0.9492 0.0000
vt 0.6794 0.9288 0.0000
vt 0.6745 0.9284 0.0000
vt 0.6782 0.9084 0.0000
vt 0.6690 0.9085 0.0000
vt 0.7872 0.9659 0.0000
vt 0.7688 0.9658 0.0000
vt 0.7871 0.9488 0.0000
vt 0.7686 0.9486 0.0000
vt 0.7690 0.9823 0.0000
vt 0.7873 0.9824 0.0000
vt 0.9382 0.9206 0.0000
vt 0.9403 0.9365 0.0000
vt 0.9342 0.9356 0.0000
vt 0.9361 0.9511 0.0000
vt 0.9423 0.9509 0.0000
vt 0.9265 0.9668 0.0000
vt 0.9077 0.9667 0.0000
vt 0.9092 0.9828 0.0000
vt 0.9286 0.9829 0.0000
vt 0.9015 0.9089 0.0000
vt 0.8818 0.8992 0.0000
vt 0.9011 0.9034 0.0000
vt 0.8814 0.8924 0.0000
vt 0.9005 0.8960 0.0000
vt 0.8807 0.8838 0.0000
vt 0.8825 0.9081 0.0000
vt 0.8614 0.8811 0.0000
vt 0.8413 0.8711 0.0000
vt 0.8610 0.8720 0.0000
vt 0.8405 0.8609 0.0000
vt 0.8419 0.8815 0.0000
vt 0.8619 0.8898 0.0000
vt 0.8445 0.9312 0.0000
vt 0.8435 0.9130 0.0000
vt 0.8455 0.9494 0.0000
vt 0.8227 0.8632 0.0000
vt 0.8220 0.8520 0.0000
vt 0.8232 0.8752 0.0000
vt 0.8048 0.8574 0.0000
vt 0.8046 0.8450 0.0000
vt 0.8050 0.8709 0.0000
vt 0.8267 0.9662 0.0000
vt 0.8064 0.9661 0.0000
vt 0.8065 0.9825 0.0000
vt 0.8275 0.9826 0.0000
vt 0.7870 0.9305 0.0000
vt 0.7868 0.9104 0.0000
vt 0.7683 0.9302 0.0000
vt 0.7681 0.9097 0.0000
vt 0.7484 0.8464 0.0000
vt 0.7479 0.8311 0.0000
vt 0.7487 0.8630 0.0000
vt 0.7500 0.9298 0.0000
vt 0.7496 0.9091 0.0000
vt 0.7503 0.9484 0.0000
vt 0.7314 0.8445 0.0000
vt 0.7310 0.8291 0.0000
vt 0.7316 0.8614 0.0000
vt 0.7148 0.8431 0.0000
vt 0.6967 0.8420 0.0000
vt 0.7149 0.8278 0.0000
vt 0.6969 0.8268 0.0000
vt 0.6965 0.8590 0.0000
vt 0.7148 0.8600 0.0000
vt 0.6955 0.9288 0.0000
vt 0.6958 0.9074 0.0000
vt 0.9381 0.9669 0.0000
vt 0.9401 0.9829 0.0000
vt 0.9445 0.9669 0.0000
vt 0.9467 0.9829 0.0000
vt 0.8465 0.9664 0.0000
vt 0.8473 0.9826 0.0000
vt 0.7506 0.9656 0.0000
vt 0.7509 0.9823 0.0000
vt 0.8625 0.9006 0.0000
vt 0.8426 0.8959 0.0000
vt 0.8238 0.8924 0.0000
vt 0.8053 0.8900 0.0000
vt 0.7866 0.8882 0.0000
vt 0.7678 0.8866 0.0000
vt 0.7491 0.8854 0.0000
vt 0.7319 0.8843 0.0000
vt 0.7148 0.8833 0.0000
vt 0.6961 0.8825 0.0000
vt 0.6767 0.8817 0.0000
vt 0.6623 0.8811 0.0000
# 142 texture coords

g Y210_265B_L_DTaSI_Y210_265B_L
usemtl windowglass_1SG
s 1
f 1/1/1 2/2/2 3/3/3 
f 3/3/3 2/2/2 4/4/4 
f 2/2/2 1/1/1 5/5/5 
f 5/5/5 1/1/1 6/6/6 
f 7/7/7 8/8/8 9/9/9 
f 9/9/9 8/8/8 10/10/10 
f 8/8/8 7/7/7 11/11/11 
f 11/11/11 7/7/7 12/12/12 
f 13/13/13 14/14/14 15/15/15 
f 15/15/15 14/14/14 16/16/16 
f 14/14/14 13/13/13 17/17/17 
f 17/17/17 13/13/13 18/18/18 
f 3/3/3 19/19/19 20/20/20 
f 20/20/20 19/19/19 21/21/21 
f 21/21/21 19/19/19 22/22/22 
f 23/23/23 24/24/24 18/18/18 
f 18/18/18 24/24/24 17/17/17 
f 24/24/24 23/23/23 25/25/25 
f 25/25/25 23/23/23 26/26/26 
f 27/27/27 28/28/28 29/29/29 
f 29/29/29 28/28/28 30/30/30 
f 30/30/30 28/28/28 31/31/31 
f 32/32/32 28/28/28 33/33/33 
f 33/33/33 28/28/28 27/27/27 
f 28/28/28 32/32/32 31/31/31 
f 31/31/31 32/32/32 34/34/34 
f 35/35/35 36/36/36 37/37/37 
f 37/37/37 36/36/36 38/38/38 
f 36/36/36 35/35/35 39/39/39 
f 39/39/39 35/35/35 40/40/40 
f 41/41/41 42/42/42 43/43/43 
f 43/43/43 42/42/42 44/44/44 
f 42/42/42 41/41/41 45/45/45 
f 45/45/45 41/41/41 46/46/46 
f 47/47/47 48/48/48 49/49/49 
f 49/49/49 48/48/48 50/50/50 
f 48/48/48 47/47/47 44/44/44 
f 44/44/44 47/47/47 43/43/43 
f 51/51/51 52/52/52 53/53/53 
f 53/53/53 52/52/52 54/54/54 
f 52/52/52 51/51/51 55/55/55 
f 55/55/55 51/51/51 56/56/56 
f 57/57/57 58/58/58 59/59/59 
f 59/59/59 58/58/58 60/60/60 
f 58/58/58 57/57/57 38/38/38 
f 61/61/61 62/62/36 63/63/62 
f 63/63/62 62/62/36 64/64/63 
f 62/62/36 61/61/61 65/65/64 
f 65/65/64 61/61/61 66/66/65 
f 20/20/20 21/21/21 67/67/66 
f 68/68/67 69/69/68 67/67/66 
f 67/67/66 69/69/68 20/20/20 
f 69/69/68 1/1/1 20/20/20 
f 20/20/20 1/1/1 3/3/3 
f 1/1/1 69/69/68 6/6/6 
f 6/6/6 69/69/68 70/70/69 
f 69/69/68 68/68/67 70/70/69 
f 70/70/69 68/68/67 71/71/70 
f 72/72/71 73/73/72 6/6/6 
f 6/6/6 73/73/72 5/5/5 
f 73/73/72 72/72/71 74/74/73 
f 74/74/73 72/72/71 75/75/74 
f 76/76/75 77/77/76 78/78/77 
f 78/78/77 77/77/76 79/79/78 
f 78/78/77 79/79/78 80/80/79 
f 80/80/79 79/79/78 81/81/80 
f 77/77/76 76/76/75 82/82/81 
f 82/82/81 76/76/75 4/4/4 
f 82/82/81 4/4/4 15/15/15 
f 2/2/2 13/13/13 4/4/4 
f 4/4/4 13/13/13 15/15/15 
f 13/13/13 2/2/2 18/18/18 
f 18/18/18 2/2/2 5/5/5 
f 73/73/72 23/23/23 5/5/5 
f 5/5/5 23/23/23 18/18/18 
f 23/23/23 73/73/72 26/26/26 
f 26/26/26 73/73/72 74/74/73 
f 83/83/82 84/84/83 85/85/84 
f 85/85/84 84/84/83 86/86/85 
f 84/84/83 83/83/82 87/87/86 
f 87/87/86 83/83/82 88/88/87 
f 14/14/14 89/89/88 16/16/16 
f 16/16/16 89/89/88 90/90/89 
f 89/89/88 14/14/14 91/91/90 
f 91/91/90 14/14/14 17/17/17 
f 84/84/83 92/92/91 86/86/85 
f 86/86/85 92/92/91 93/93/92 
f 92/92/91 84/84/83 94/94/93 
f 94/94/93 84/84/83 87/87/86 
f 89/89/88 51/51/51 90/90/89 
f 90/90/89 51/51/51 53/53/53 
f 51/51/51 89/89/88 56/56/56 
f 56/56/56 89/89/88 91/91/90 
f 92/92/91 95/95/94 93/93/92 
f 93/93/92 95/95/94 96/96/95 
f 95/95/94 92/92/91 97/97/96 
f 97/97/96 92/92/91 94/94/93 
f 98/98/97 99/99/98 56/56/56 
f 56/56/56 99/99/98 55/55/55 
f 99/99/98 98/98/97 100/100/99 
f 100/100/99 98/98/97 101/101/100 
f 95/95/94 7/7/7 96/96/95 
f 96/96/95 7/7/7 9/9/9 
f 7/7/7 95/95/94 12/12/12 
f 12/12/12 95/95/94 97/97/96 
f 52/52/52 102/102/101 54/54/54 
f 54/54/54 102/102/101 103/103/102 
f 102/102/101 52/52/52 63/63/62 
f 63/63/62 52/52/52 55/55/55 
f 99/99/98 61/61/61 55/55/55 
f 55/55/55 61/61/61 63/63/62 
f 61/61/61 99/99/98 66/66/65 
f 66/66/65 99/99/98 100/100/99 
f 102/102/101 104/104/103 103/103/102 
f 103/103/102 104/104/103 105/105/104 
f 104/104/103 102/102/101 64/64/63 
f 64/64/63 102/102/101 63/63/62 
f 8/8/8 106/106/105 10/10/10 
f 10/10/10 106/106/105 107/107/106 
f 106/106/105 8/8/8 108/108/107 
f 108/108/107 8/8/8 11/11/11 
f 104/104/103 109/109/108 105/105/104 
f 105/105/104 109/109/108 110/110/109 
f 109/109/108 104/104/103 111/111/110 
f 111/111/110 104/104/103 64/64/63 
f 106/106/105 112/112/111 107/107/106 
f 107/107/106 112/112/111 113/113/112 
f 112/112/111 106/106/105 114/114/113 
f 114/114/113 106/106/105 108/108/107 
f 109/109/108 47/47/47 110/110/109 
f 110/110/109 47/47/47 49/49/49 
f 47/47/47 109/109/108 43/43/43 
f 43/43/43 109/109/108 111/111/110 
f 115/115/114 116/116/115 117/117/116 
f 117/117/116 116/116/115 118/118/117 
f 116/116/115 115/115/114 119/119/118 
f 119/119/118 115/115/114 120/120/119 
f 48/48/48 121/121/120 50/50/50 
f 50/50/50 121/121/120 122/122/121 
f 121/121/120 48/48/48 37/37/37 
f 37/37/37 48/48/48 44/44/44 
f 42/42/42 35/35/35 44/44/44 
f 44/44/44 35/35/35 37/37/37 
f 35/35/35 42/42/42 40/40/40 
f 40/40/40 42/42/42 45/45/45 
f 118/118/117 116/116/115 33/33/33 
f 33/33/33 116/116/115 32/32/32 
f 32/32/32 116/116/115 34/34/34 
f 34/34/34 116/116/115 119/119/118 
f 122/122/121 121/121/120 59/59/59 
f 59/59/59 121/121/120 57/57/57 
f 57/57/57 121/121/120 38/38/38 
f 38/38/38 121/121/120 37/37/37 
f 72/72/71 123/123/122 75/75/74 
f 75/75/74 123/123/122 124/124/123 
f 123/123/122 125/125/124 124/124/123 
f 124/124/123 125/125/124 126/126/125 
f 125/125/124 123/123/122 71/71/70 
f 71/71/70 123/123/122 70/70/69 
f 123/123/122 72/72/71 70/70/69 
f 70/70/69 72/72/71 6/6/6 
f 24/24/24 127/127/126 17/17/17 
f 17/17/17 127/127/126 91/91/90 
f 127/127/126 24/24/24 128/128/127 
f 128/128/127 24/24/24 25/25/25 
f 98/98/97 127/127/126 101/101/100 
f 101/101/100 127/127/126 128/128/127 
f 127/127/126 98/98/97 91/91/90 
f 91/91/90 98/98/97 56/56/56 
f 62/62/36 129/129/128 64/64/63 
f 64/64/63 129/129/128 111/111/110 
f 129/129/128 62/62/36 130/130/129 
f 130/130/129 62/62/36 65/65/64 
f 41/41/41 129/129/128 46/46/46 
f 46/46/46 129/129/128 130/130/129 
f 129/129/128 41/41/41 111/111/110 
f 111/111/110 41/41/41 43/43/43 
f 82/82/81 131/131/130 77/77/76 
f 77/77/76 131/131/130 88/88/87 
f 131/131/130 82/82/81 16/16/16 
f 16/16/16 82/82/81 15/15/15 
f 132/132/131 133/133/132 87/87/86 
f 87/87/86 133/133/132 94/94/93 
f 133/133/132 132/132/131 53/53/53 
f 53/53/53 132/132/131 90/90/89 
f 133/133/132 134/134/133 94/94/93 
f 94/94/93 134/134/133 97/97/96 
f 134/134/133 133/133/132 54/54/54 
f 54/54/54 133/133/132 53/53/53 
f 134/134/133 135/135/134 97/97/96 
f 97/97/96 135/135/134 12/12/12 
f 135/135/134 134/134/133 103/103/102 
f 103/103/102 134/134/133 54/54/54 
f 135/135/134 136/136/135 12/12/12 
f 12/12/12 136/136/135 11/11/11 
f 136/136/135 135/135/134 105/105/104 
f 105/105/104 135/135/134 103/103/102 
f 136/136/135 137/137/136 11/11/11 
f 11/11/11 137/137/136 108/108/107 
f 137/137/136 136/136/135 110/110/109 
f 110/110/109 136/136/135 105/105/104 
f 137/137/136 138/138/137 108/108/107 
f 108/108/107 138/138/137 114/114/113 
f 138/138/137 137/137/136 49/49/49 
f 49/49/49 137/137/136 110/110/109 
f 138/138/137 139/139/138 114/114/113 
f 114/114/113 139/139/138 120/120/119 
f 139/139/138 138/138/137 50/50/50 
f 50/50/50 138/138/137 49/49/49 
f 139/139/138 140/140/139 120/120/119 
f 120/120/119 140/140/139 119/119/118 
f 140/140/139 139/139/138 122/122/121 
f 122/122/121 139/139/138 50/50/50 
f 140/140/139 141/141/140 119/119/118 
f 119/119/118 141/141/140 34/34/34 
f 141/141/140 140/140/139 59/59/59 
f 59/59/59 140/140/139 122/122/121 
f 142/142/141 141/141/140 60/60/60 
f 60/60/60 141/141/140 59/59/59 
f 141/141/140 142/142/141 34/34/34 
f 34/34/34 142/142/141 31/31/31 
f 131/131/130 132/132/131 88/88/87 
f 88/88/87 132/132/131 87/87/86 
f 132/132/131 131/131/130 90/90/89 
f 90/90/89 131/131/130 16/16/16 
f 79/79/78 83/83/82 81/81/80 
f 81/81/80 83/83/82 85/85/84 
f 83/83/82 79/79/78 88/88/87 
f 88/88/87 79/79/78 77/77/76 
f 112/112/111 115/115/114 113/113/112 
f 113/113/112 115/115/114 117/117/116 
f 115/115/114 112/112/111 120/120/119 
f 120/120/119 112/112/111 114/114/113 
f 78/78/77 19/19/19 76/76/75 
f 76/76/75 19/19/19 3/3/3 
f 19/19/19 78/78/77 22/22/22 
f 22/22/22 78/78/77 80/80/79 
f 3/3/3 4/4/4 76/76/75 
# 238 faces

