# 3ds Max Wavefront OBJ Exporter v0.97b - (c)2007 guruware
# File Created: 23.11.2015 11:20:16

mtllib H811_325B_R.mtl

#
# object H811_325B_R1_DTaSI_H811_325B_R
#

v  -69.0866 93.1887 76.6019
v  -69.2954 84.7558 80.0700
v  -60.8254 93.0792 76.6101
v  -60.7868 84.5938 80.0717
v  -60.7490 75.6783 83.3026
v  -69.5144 75.8788 83.3026
v  -77.9304 76.0675 83.2988
v  -77.4638 84.9024 80.0601
v  -77.0155 93.2760 76.5850
v  -79.2295 50.8298 89.8170
v  -70.1362 50.6517 89.7701
v  -79.0036 55.2801 89.0703
v  -70.0260 55.0746 89.0522
v  -78.6874 61.4753 87.7762
v  -69.8732 61.2487 87.7837
v  -60.6945 61.0094 87.7908
v  -60.6827 54.8466 89.0330
v  -60.6782 50.4408 89.7213
v  -109.1207 55.7179 89.1433
v  -102.7999 55.7873 89.1347
v  -108.4588 62.2388 87.7206
v  -102.0553 62.0774 87.7498
v  -94.9308 61.8854 87.7607
v  -95.5470 55.6180 89.1078
v  -96.0002 51.0828 89.9128
v  -103.3888 51.2212 89.9790
v  -94.2771 68.7343 85.8407
v  -101.3737 68.9127 85.8203
v  -108.1561 69.2444 85.7458
v  -107.1663 76.4881 83.3172
v  -100.6753 76.5545 83.2634
v  -93.5483 76.4119 83.2854
v  -69.7048 68.1133 85.8705
v  -60.7174 67.8850 85.8781
v  -78.3340 68.3315 85.8616
v  -60.8594 99.5816 73.3423
v  -68.9271 99.6220 73.3276
v  -76.6671 99.6281 73.3135
v  -92.5241 93.2507 76.6696
v  -96.1828 99.2346 73.4623
v  -99.5766 92.9457 76.8152
v  -100.2231 98.0665 74.1295
v  -92.7073 85.1658 80.0324
v  -99.8799 85.2642 79.9962
v  -106.3317 84.7456 80.1902
v  -35.9530 49.8483 89.5935
v  -36.2029 54.2285 88.9815
v  -42.2161 49.9985 89.6259
v  -42.4143 54.3853 88.9946
v  -42.7117 60.5378 87.8013
v  -36.5664 60.3767 87.8047
v  -31.7884 60.2519 87.8072
v  -31.3601 54.1078 88.9712
v  -31.0585 49.7338 89.5682
v  -50.9147 50.2095 89.6709
v  -51.0265 54.6041 89.0128
v  -51.1975 60.7606 87.7967
v  -43.0817 67.4328 85.8855
v  -51.4156 67.6469 85.8828
v  -51.6771 75.4628 83.2948
v  -43.5206 75.2658 83.2844
v  -44.0245 84.2323 80.0354
v  -51.9786 84.4079 80.0565
v  -52.2689 92.9289 76.6000
v  -44.5068 92.7768 76.5831
v  -44.8811 99.3443 73.3717
v  -52.4967 99.4725 73.3576
v  -87.8989 50.9629 89.8616
v  -87.5627 55.4551 89.0876
v  -87.0907 61.6862 87.7690
v  -85.9542 76.2474 83.2952
v  -86.5609 68.5395 85.8530
v  -84.5748 93.3591 76.5690
v  -85.2515 85.0421 80.0506
v  -84.0462 99.6339 73.3001
v  -91.5645 99.5994 73.2502
v  -113.9213 76.0977 83.5347
v  -113.9476 69.8040 85.5968
v  -114.1361 62.3465 87.6573
v  -113.7619 80.0740 82.0542
v  -34.0991 92.5732 76.5605
v  -34.5723 99.1710 73.3913
v  -38.6288 92.6618 76.5703
v  -39.0543 99.2463 73.3828
v  -38.0780 84.1011 80.0196
v  -33.4848 83.9998 80.0074
v  -32.8409 75.0081 83.2706
v  -37.5014 75.1206 83.2766
v  -36.9984 67.2766 85.8873
v  -32.2788 67.1554 85.8888
v  -39.3378 103.6207 70.9936
v  -34.8870 103.5559 71.0227
v  -45.1313 103.7050 70.9558
v  -52.6504 103.8145 70.9068
v  -60.8842 103.8892 70.8639
v  -68.8217 103.8691 70.8440
v  -76.4337 103.8032 70.8358
v  -83.6909 103.7404 70.8281
v  -89.5707 103.7073 70.8087
v  -93.0123 103.4358 70.9464
v  -94.9581 103.0140 71.1847
v  -96.3890 102.6302 71.4051
v  -97.5175 102.1379 71.6953
v  -98.5934 101.4531 72.1041
v  -99.6590 100.4945 72.6817
v  -101.1063 99.2135 73.4562
v  -102.8537 97.2184 74.6740
v  -106.1972 92.2708 77.0868
v  -111.2865 84.2666 80.3814
v  -115.7484 76.2212 83.5340
v  -116.8138 72.8707 84.6530
v  -117.1715 70.7194 85.3269
v  -117.1928 67.6484 86.2835
v  -116.8925 62.3197 87.7363
v  -114.7971 52.6686 89.6161
v  -113.3995 55.8103 89.0733
v  -115.9157 55.4886 88.9937
v  -112.9180 51.7070 89.8782
v  -109.2492 51.4108 89.9941
# 119 vertices

vn 0.0027 0.4254 0.9050
vn 0.0051 0.3676 0.9300
vn 0.0054 0.4191 0.9079
vn 0.0079 0.3593 0.9332
vn 0.0080 0.3273 0.9449
vn 0.0067 0.3327 0.9430
vn 0.0066 0.3293 0.9442
vn 0.0052 0.3637 0.9315
vn 0.0026 0.4210 0.9070
vn 0.0071 0.1665 0.9860
vn 0.0071 0.1599 0.9871
vn 0.0061 0.1843 0.9829
vn 0.0057 0.1874 0.9823
vn 0.0055 0.2361 0.9717
vn 0.0055 0.2461 0.9692
vn 0.0058 0.2335 0.9723
vn 0.0065 0.1764 0.9843
vn 0.0077 0.1523 0.9883
vn -0.0055 0.1998 0.9798
vn 0.0046 0.1964 0.9805
vn -0.0020 0.2370 0.9715
vn 0.0041 0.2422 0.9702
vn 0.0051 0.2395 0.9709
vn 0.0070 0.1918 0.9814
vn 0.0096 0.1761 0.9843
vn 0.0068 0.1853 0.9827
vn 0.0050 0.2927 0.9562
vn 0.0046 0.2939 0.9558
vn 0.0034 0.2894 0.9572
vn 0.0082 0.3344 0.9424
vn 0.0036 0.3343 0.9425
vn 0.0043 0.3321 0.9432
vn 0.0066 0.2988 0.9543
vn 0.0069 0.2912 0.9566
vn 0.0064 0.2915 0.9566
vn 0.0012 0.4822 0.8761
vn -0.0002 0.4796 0.8775
vn -0.0012 0.4846 0.8747
vn 0.0029 0.4379 0.8990
vn -0.0019 0.5017 0.8650
vn 0.0050 0.4285 0.9035
vn 0.0114 0.4942 0.8692
vn 0.0034 0.3684 0.9297
vn 0.0001 0.3662 0.9305
vn 0.0021 0.3652 0.9309
vn 0.0074 0.1378 0.9904
vn 0.0063 0.1640 0.9864
vn 0.0076 0.1415 0.9899
vn 0.0064 0.1673 0.9859
vn 0.0059 0.2301 0.9732
vn 0.0059 0.2288 0.9735
vn 0.0059 0.2145 0.9767
vn 0.0069 0.1537 0.9881
vn 0.0083 0.1358 0.9907
vn 0.0077 0.1465 0.9892
vn 0.0065 0.1716 0.9851
vn 0.0059 0.2317 0.9728
vn 0.0074 0.2920 0.9564
vn 0.0073 0.2915 0.9565
vn 0.0088 0.3276 0.9448
vn 0.0091 0.3283 0.9445
vn 0.0100 0.3580 0.9337
vn 0.0096 0.3583 0.9336
vn 0.0087 0.4100 0.9121
vn 0.0094 0.4072 0.9133
vn 0.0061 0.4622 0.8867
vn 0.0053 0.4677 0.8839
vn 0.0075 0.1708 0.9853
vn 0.0060 0.1878 0.9822
vn 0.0053 0.2376 0.9714
vn 0.0060 0.3305 0.9438
vn 0.0060 0.2919 0.9564
vn 0.0027 0.4199 0.9075
vn 0.0052 0.3615 0.9324
vn -0.0035 0.4882 0.8727
vn -0.0032 0.4954 0.8687
vn 0.0153 0.3244 0.9458
vn 0.0106 0.2917 0.9564
vn -0.0001 0.2354 0.9719
vn 0.0115 0.3551 0.9348
vn 0.0102 0.3940 0.9191
vn 0.0075 0.4485 0.8938
vn 0.0093 0.4051 0.9142
vn 0.0060 0.4579 0.8890
vn 0.0100 0.3578 0.9338
vn 0.0101 0.3523 0.9358
vn 0.0087 0.3250 0.9457
vn 0.0091 0.3288 0.9443
vn 0.0074 0.2924 0.9563
vn 0.0070 0.2844 0.9587
vn 0.0030 0.4812 0.8766
vn 0.0038 0.4775 0.8786
vn 0.0031 0.4871 0.8734
vn 0.0021 0.4940 0.8695
vn -0.0017 0.4987 0.8668
vn -0.0026 0.5028 0.8644
vn -0.0039 0.5086 0.8610
vn -0.0041 0.5142 0.8577
vn -0.0066 0.5143 0.8576
vn -0.0061 0.5131 0.8583
vn -0.0049 0.5158 0.8567
vn -0.0065 0.5179 0.8554
vn -0.0054 0.5181 0.8553
vn -0.0043 0.5187 0.8549
vn -0.0008 0.5144 0.8575
vn 0.0101 0.5120 0.8589
vn 0.0120 0.4748 0.8800
vn -0.0034 0.3972 0.9177
vn -0.0006 0.3759 0.9266
vn 0.0219 0.3295 0.9439
vn 0.0152 0.3068 0.9517
vn 0.0046 0.2978 0.9546
vn 0.0190 0.2758 0.9610
vn 0.0257 0.2246 0.9741
vn -0.0483 0.1909 0.9804
vn -0.0354 0.1978 0.9796
vn -0.0289 0.1948 0.9804
vn -0.0227 0.1910 0.9813
vn -0.0033 0.1939 0.9810
# 119 vertex normals

vt 0.5590 0.1550 0.0000
vt 0.5586 0.1273 0.0000
vt 0.5842 0.1550 0.0000
vt 0.5846 0.1271 0.0000
vt 0.5850 0.0982 0.0000
vt 0.5582 0.0985 0.0000
vt 0.5326 0.0988 0.0000
vt 0.5338 0.1275 0.0000
vt 0.5349 0.1551 0.0000
vt 0.5294 0.0197 0.0000
vt 0.5571 0.0195 0.0000
vt 0.5299 0.0332 0.0000
vt 0.5573 0.0329 0.0000
vt 0.5307 0.0523 0.0000
vt 0.5576 0.0519 0.0000
vt 0.5855 0.0515 0.0000
vt 0.5857 0.0325 0.0000
vt 0.5859 0.0192 0.0000
vt 0.4382 0.0335 0.0000
vt 0.4574 0.0339 0.0000
vt 0.4400 0.0537 0.0000
vt 0.4595 0.0534 0.0000
vt 0.4812 0.0531 0.0000
vt 0.4795 0.0337 0.0000
vt 0.4783 0.0198 0.0000
vt 0.4558 0.0199 0.0000
vt 0.4830 0.0747 0.0000
vt 0.4614 0.0750 0.0000
vt 0.4407 0.0759 0.0000
vt 0.4435 0.0992 0.0000
vt 0.4633 0.0996 0.0000
vt 0.4850 0.0994 0.0000
vt 0.5579 0.0736 0.0000
vt 0.5853 0.0732 0.0000
vt 0.5316 0.0740 0.0000
vt 0.5839 0.1769 0.0000
vt 0.5593 0.1768 0.0000
vt 0.5357 0.1767 0.0000
vt 0.4876 0.1545 0.0000
vt 0.4763 0.1748 0.0000
vt 0.4661 0.1533 0.0000
vt 0.4640 0.1707 0.0000
vt 0.4873 0.1278 0.0000
vt 0.4655 0.1280 0.0000
vt 0.4458 0.1261 0.0000
vt 0.6612 0.0183 0.0000
vt 0.6603 0.0315 0.0000
vt 0.6421 0.0185 0.0000
vt 0.6414 0.0318 0.0000
vt 0.6403 0.0506 0.0000
vt 0.6591 0.0504 0.0000
vt 0.6736 0.0501 0.0000
vt 0.6751 0.0313 0.0000
vt 0.6761 0.0181 0.0000
vt 0.6156 0.0188 0.0000
vt 0.6152 0.0321 0.0000
vt 0.6145 0.0510 0.0000
vt 0.6390 0.0724 0.0000
vt 0.6136 0.0728 0.0000
vt 0.6126 0.0978 0.0000
vt 0.6374 0.0975 0.0000
vt 0.6356 0.1265 0.0000
vt 0.6114 0.1268 0.0000
vt 0.6103 0.1548 0.0000
vt 0.6339 0.1546 0.0000
vt 0.6325 0.1767 0.0000
vt 0.6093 0.1769 0.0000
vt 0.5029 0.0198 0.0000
vt 0.5039 0.0335 0.0000
vt 0.5051 0.0527 0.0000
vt 0.5082 0.0991 0.0000
vt 0.5065 0.0744 0.0000
vt 0.5118 0.1551 0.0000
vt 0.5100 0.1277 0.0000
vt 0.5132 0.1765 0.0000
vt 0.4903 0.1762 0.0000
vt 0.4230 0.0976 0.0000
vt 0.4231 0.0775 0.0000
vt 0.4227 0.0540 0.0000
vt 0.4233 0.1106 0.0000
vt 0.6656 0.1543 0.0000
vt 0.6640 0.1765 0.0000
vt 0.6518 0.1544 0.0000
vt 0.6503 0.1766 0.0000
vt 0.6538 0.1264 0.0000
vt 0.6678 0.1262 0.0000
vt 0.6700 0.0971 0.0000
vt 0.6558 0.0973 0.0000
vt 0.6576 0.0721 0.0000
vt 0.6719 0.0719 0.0000
vt 0.6493 0.1915 0.0000
vt 0.6628 0.1915 0.0000
vt 0.6316 0.1917 0.0000
vt 0.6087 0.1918 0.0000
vt 0.5836 0.1918 0.0000
vt 0.5595 0.1916 0.0000
vt 0.5363 0.1912 0.0000
vt 0.5142 0.1908 0.0000
vt 0.4963 0.1905 0.0000
vt 0.4858 0.1895 0.0000
vt 0.4799 0.1880 0.0000
vt 0.4755 0.1867 0.0000
vt 0.4721 0.1849 0.0000
vt 0.4688 0.1825 0.0000
vt 0.4656 0.1791 0.0000
vt 0.4613 0.1746 0.0000
vt 0.4560 0.1676 0.0000
vt 0.4460 0.1509 0.0000
vt 0.4307 0.1244 0.0000
vt 0.4174 0.0979 0.0000
vt 0.4143 0.0872 0.0000
vt 0.4132 0.0803 0.0000
vt 0.4133 0.0705 0.0000
vt 0.4143 0.0537 0.0000
vt 0.4210 0.0241 0.0000
vt 0.4251 0.0338 0.0000
vt 0.4175 0.0328 0.0000
vt 0.4267 0.0212 0.0000
vt 0.4379 0.0203 0.0000
# 119 texture coords

g H811_325B_R1_DTaSI_H811_325B_R
usemtl windowglass_1SG
s 1
f 1/1/1 2/2/2 3/3/3 
f 2/2/2 4/4/4 3/3/3 
f 5/5/5 4/4/4 6/6/6 
f 4/4/4 2/2/2 6/6/6 
f 7/7/7 6/6/6 8/8/8 
f 6/6/6 2/2/2 8/8/8 
f 8/8/8 2/2/2 9/9/9 
f 2/2/2 1/1/1 9/9/9 
f 10/10/10 11/11/11 12/12/12 
f 11/11/11 13/13/13 12/12/12 
f 12/12/12 13/13/13 14/14/14 
f 13/13/13 15/15/15 14/14/14 
f 15/15/15 13/13/13 16/16/16 
f 13/13/13 17/17/17 16/16/16 
f 18/18/18 17/17/17 11/11/11 
f 17/17/17 13/13/13 11/11/11 
f 19/19/19 20/20/20 21/21/21 
f 20/20/20 22/22/22 21/21/21 
f 23/23/23 22/22/22 24/24/24 
f 22/22/22 20/20/20 24/24/24 
f 24/24/24 20/20/20 25/25/25 
f 20/20/20 26/26/26 25/25/25 
f 27/27/27 28/28/28 23/23/23 
f 28/28/28 22/22/22 23/23/23 
f 21/21/21 22/22/22 29/29/29 
f 22/22/22 28/28/28 29/29/29 
f 29/29/29 28/28/28 30/30/30 
f 28/28/28 31/31/31 30/30/30 
f 32/32/32 31/31/31 27/27/27 
f 31/31/31 28/28/28 27/27/27 
f 6/6/6 33/33/33 5/5/5 
f 33/33/33 34/34/34 5/5/5 
f 16/16/16 34/34/34 15/15/15 
f 34/34/34 33/33/33 15/15/15 
f 14/14/14 15/15/15 35/35/35 
f 15/15/15 33/33/33 35/35/35 
f 35/35/35 33/33/33 7/7/7 
f 33/33/33 6/6/6 7/7/7 
f 36/36/36 37/37/37 3/3/3 
f 37/37/37 1/1/1 3/3/3 
f 9/9/9 1/1/1 38/38/38 
f 1/1/1 37/37/37 38/38/38 
f 39/39/39 40/40/40 41/41/41 
f 40/40/40 42/42/42 41/41/41 
f 39/39/39 41/41/41 43/43/43 
f 41/41/41 44/44/44 43/43/43 
f 43/43/43 44/44/44 32/32/32 
f 44/44/44 31/31/31 32/32/32 
f 30/30/30 31/31/31 45/45/45 
f 31/31/31 44/44/44 45/45/45 
f 46/46/46 47/47/47 48/48/48 
f 47/47/47 49/49/49 48/48/48 
f 50/50/50 49/49/49 51/51/51 
f 49/49/49 47/47/47 51/51/51 
f 51/51/51 47/47/47 52/52/52 
f 47/47/47 53/53/53 52/52/52 
f 54/54/54 53/53/53 46/46/46 
f 53/53/53 47/47/47 46/46/46 
f 55/55/55 56/56/56 18/18/18 
f 56/56/56 17/17/17 18/18/18 
f 16/16/16 17/17/17 57/57/57 
f 17/17/17 56/56/56 57/57/57 
f 57/57/57 56/56/56 50/50/50 
f 56/56/56 49/49/49 50/50/50 
f 48/48/48 49/49/49 55/55/55 
f 49/49/49 56/56/56 55/55/55 
f 50/50/50 58/58/58 57/57/57 
f 58/58/58 59/59/59 57/57/57 
f 57/57/57 59/59/59 16/16/16 
f 59/59/59 34/34/34 16/16/16 
f 5/5/5 34/34/34 60/60/60 
f 34/34/34 59/59/59 60/60/60 
f 60/60/60 59/59/59 61/61/61 
f 59/59/59 58/58/58 61/61/61 
f 61/61/61 62/62/62 60/60/60 
f 62/62/62 63/63/63 60/60/60 
f 60/60/60 63/63/63 5/5/5 
f 63/63/63 4/4/4 5/5/5 
f 3/3/3 4/4/4 64/64/64 
f 4/4/4 63/63/63 64/64/64 
f 64/64/64 63/63/63 65/65/65 
f 63/63/63 62/62/62 65/65/65 
f 65/65/65 66/66/66 64/64/64 
f 66/66/66 67/67/67 64/64/64 
f 64/64/64 67/67/67 3/3/3 
f 67/67/67 36/36/36 3/3/3 
f 25/25/25 68/68/68 24/24/24 
f 68/68/68 69/69/69 24/24/24 
f 24/24/24 69/69/69 23/23/23 
f 69/69/69 70/70/70 23/23/23 
f 14/14/14 70/70/70 12/12/12 
f 70/70/70 69/69/69 12/12/12 
f 12/12/12 69/69/69 10/10/10 
f 69/69/69 68/68/68 10/10/10 
f 7/7/7 71/71/71 35/35/35 
f 71/71/71 72/72/72 35/35/35 
f 35/35/35 72/72/72 14/14/14 
f 72/72/72 70/70/70 14/14/14 
f 23/23/23 70/70/70 27/27/27 
f 70/70/70 72/72/72 27/27/27 
f 27/27/27 72/72/72 32/32/32 
f 72/72/72 71/71/71 32/32/32 
f 9/9/9 73/73/73 8/8/8 
f 73/73/73 74/74/74 8/8/8 
f 8/8/8 74/74/74 7/7/7 
f 74/74/74 71/71/71 7/7/7 
f 32/32/32 71/71/71 43/43/43 
f 71/71/71 74/74/74 43/43/43 
f 39/39/39 43/43/43 73/73/73 
f 43/43/43 74/74/74 73/73/73 
f 38/38/38 75/75/75 9/9/9 
f 75/75/75 73/73/73 9/9/9 
f 39/39/39 73/73/73 76/76/76 
f 73/73/73 75/75/75 76/76/76 
f 30/30/30 77/77/77 29/29/29 
f 77/77/77 78/78/78 29/29/29 
f 21/21/21 29/29/29 79/79/79 
f 29/29/29 78/78/78 79/79/79 
f 45/45/45 80/80/80 30/30/30 
f 80/80/80 77/77/77 30/30/30 
f 81/81/81 82/82/82 83/83/83 
f 82/82/82 84/84/84 83/83/83 
f 83/83/83 84/84/84 65/65/65 
f 84/84/84 66/66/66 65/65/65 
f 83/83/83 85/85/85 81/81/81 
f 85/85/85 86/86/86 81/81/81 
f 87/87/87 86/86/86 88/88/88 
f 86/86/86 85/85/85 88/88/88 
f 88/88/88 85/85/85 61/61/61 
f 85/85/85 62/62/62 61/61/61 
f 65/65/65 62/62/62 83/83/83 
f 62/62/62 85/85/85 83/83/83 
f 88/88/88 89/89/89 87/87/87 
f 89/89/89 90/90/90 87/87/87 
f 52/52/52 90/90/90 51/51/51 
f 90/90/90 89/89/89 51/51/51 
f 51/51/51 89/89/89 50/50/50 
f 89/89/89 58/58/58 50/50/50 
f 61/61/61 58/58/58 88/88/88 
f 58/58/58 89/89/89 88/88/88 
f 39/39/39 76/76/76 40/40/40 
f 91/91/91 84/84/84 92/92/92 
f 84/84/84 82/82/82 92/92/92 
f 93/93/93 66/66/66 91/91/91 
f 66/66/66 84/84/84 91/91/91 
f 94/94/94 67/67/67 93/93/93 
f 67/67/67 66/66/66 93/93/93 
f 95/95/95 36/36/36 94/94/94 
f 36/36/36 67/67/67 94/94/94 
f 95/95/95 96/96/96 36/36/36 
f 96/96/96 37/37/37 36/36/36 
f 38/38/38 37/37/37 97/97/97 
f 37/37/37 96/96/96 97/97/97 
f 97/97/97 98/98/98 38/38/38 
f 98/98/98 75/75/75 38/38/38 
f 76/76/76 75/75/75 99/99/99 
f 75/75/75 98/98/98 99/99/99 
f 100/100/100 76/76/76 99/99/99 
f 76/76/76 100/100/100 101/101/101 
f 102/102/102 40/40/40 101/101/101 
f 40/40/40 76/76/76 101/101/101 
f 40/40/40 102/102/102 103/103/103 
f 104/104/104 40/40/40 103/103/103 
f 40/40/40 104/104/104 105/105/105 
f 106/106/106 42/42/42 105/105/105 
f 42/42/42 40/40/40 105/105/105 
f 107/107/107 42/42/42 106/106/106 
f 108/108/108 41/41/41 107/107/107 
f 41/41/41 42/42/42 107/107/107 
f 45/45/45 44/44/44 108/108/108 
f 41/41/41 108/108/108 44/44/44 
f 108/108/108 109/109/109 45/45/45 
f 109/109/109 80/80/80 45/45/45 
f 110/110/110 77/77/77 80/80/80 
f 110/110/110 111/111/111 77/77/77 
f 111/111/111 78/78/78 77/77/77 
f 112/112/112 78/78/78 111/111/111 
f 113/113/113 78/78/78 112/112/112 
f 114/114/114 79/79/79 113/113/113 
f 79/79/79 78/78/78 113/113/113 
f 115/115/115 116/116/116 117/117/117 
f 118/118/118 116/116/116 115/115/115 
f 119/119/119 19/19/19 118/118/118 
f 19/19/19 116/116/116 118/118/118 
f 119/119/119 26/26/26 19/19/19 
f 26/26/26 20/20/20 19/19/19 
f 114/114/114 117/117/117 79/79/79 
f 117/117/117 116/116/116 79/79/79 
f 21/21/21 79/79/79 19/19/19 
f 79/79/79 116/116/116 19/19/19 
# 190 faces

