# 3ds Max Wavefront OBJ Exporter v0.97b - (c)2007 guruware
# File Created: 23.11.2015 11:19:30

mtllib H811_285B_R.mtl

#
# object H811_285B_R1_DTaSI_H811_285B_R
#

v  73.8388 47.0965 89.6869
v  73.7245 51.4359 89.0835
v  66.0588 47.4103 89.6888
v  66.0614 51.9639 89.0639
v  58.1794 47.6618 89.6888
v  58.1625 52.1652 89.0639
v  58.1276 58.4036 87.9063
v  65.9825 58.2368 87.9085
v  73.5894 57.7637 87.9450
v  65.7384 64.7005 86.1380
v  73.2867 63.6745 86.3598
v  26.4195 90.7850 77.4762
v  35.8757 89.8686 77.7081
v  37.1793 93.9211 76.1925
v  28.3813 96.2293 75.2965
v  33.8117 97.1349 74.8921
v  23.3396 96.8892 74.9360
v  28.2841 99.1831 73.9805
v  17.2999 91.3114 77.2095
v  17.2036 97.3880 74.5860
v  8.8411 91.6415 77.0136
v  9.0354 98.1434 74.0933
v  58.0688 64.9002 86.1293
v  58.1165 71.0853 84.1224
v  65.0540 70.4035 84.3000
v  65.1658 75.1930 82.6377
v  58.6007 76.9720 82.0618
v  26.1430 73.3963 83.6251
v  26.0701 82.5040 80.4718
v  17.9787 73.6508 83.5741
v  17.5982 82.7525 80.4145
v  9.6584 73.9030 83.5062
v  9.1413 82.9798 80.3270
v  19.2751 48.9029 89.6595
v  19.0080 53.1612 89.0460
v  11.2660 49.1283 89.6296
v  10.9584 53.3488 89.0278
v  10.5387 59.4133 87.8687
v  18.6552 59.2456 87.8839
v  26.5785 59.0774 87.8956
v  26.8651 52.9612 89.0594
v  27.0885 48.6536 89.6815
v  50.3802 47.9106 89.6888
v  50.3197 52.3648 89.0639
v  42.6216 48.1581 89.6888
v  42.5055 52.5635 89.0639
v  42.3596 58.7406 87.9033
v  50.2486 58.5718 87.9048
v  50.5312 71.9270 83.8987
v  51.6021 78.9827 81.4103
v  42.5357 72.6877 83.7121
v  43.6531 81.2340 80.6943
v  2.9034 49.3049 89.5983
v  2.5534 53.5107 89.0087
v  -4.5558 49.4330 89.5707
v  -4.9727 53.6383 88.9919
v  -5.5683 59.7252 87.8383
v  2.0632 59.5799 87.8528
v  0.9659 74.1665 83.4348
v  0.3079 83.2170 80.2353
v  -6.9620 74.4064 83.3691
v  -7.8057 83.4339 80.1511
v  -8.6429 92.1362 76.7447
v  -0.4070 92.1282 76.7549
v  34.8642 48.4055 89.6888
v  34.6924 52.7621 89.0639
v  34.4748 58.9091 87.9011
v  34.9487 82.2028 80.4733
v  34.3675 73.1264 83.6460
v  -1.0692 98.6635 73.7474
v  -9.3617 98.9915 73.6008
v  -9.8548 49.5129 89.5517
v  -10.3857 53.7227 88.9803
v  -14.0145 49.5657 89.5366
v  -14.6246 53.7832 88.9711
v  -15.5112 59.9051 87.8201
v  -11.1527 59.8285 87.8276
v  -12.9887 74.5881 83.3185
v  -14.1029 83.5998 80.0860
v  -17.6590 74.7121 83.2845
v  -18.9638 83.7169 80.0391
v  -20.2101 92.3083 76.6308
v  -15.1739 92.2119 76.6939
v  -16.0207 98.8774 73.6139
v  -21.1784 98.9518 73.5253
v  50.1995 65.1079 86.1232
v  42.2371 65.3193 86.1172
v  26.3252 65.7382 86.0919
v  34.2880 65.5295 86.1086
v  10.1148 66.1562 86.0242
v  18.3216 65.9453 86.0619
v  -6.2238 66.5757 85.9478
v  1.5425 66.3764 85.9843
v  -12.0128 66.7240 85.9197
v  -16.5154 66.8281 85.9014
v  73.0592 68.8530 84.6683
v  71.2600 70.4173 84.1874
v  59.5368 79.7012 81.0626
v  52.7900 84.8980 79.2499
v  45.8722 90.1340 77.4339
v  40.9616 93.5292 76.2764
v  37.5571 95.3095 75.6353
v  22.6546 100.5359 73.2671
v  17.2075 101.2497 72.7230
v  10.3103 101.8819 72.2171
v  1.6682 102.3814 71.8997
v  -5.9367 102.8296 71.6731
v  -10.9819 103.0090 71.5601
v  -16.5745 103.1689 71.4095
v  -21.7770 103.0442 71.3930
# 110 vertices

vn 0.0058 0.1379 0.9904
vn 0.0074 0.1504 0.9886
vn 0.0057 0.1366 0.9906
vn 0.0059 0.1582 0.9874
vn 0.0041 0.1370 0.9906
vn 0.0040 0.1601 0.9871
vn 0.0048 0.2236 0.9747
vn 0.0065 0.2224 0.9749
vn 0.0093 0.2062 0.9785
vn 0.0103 0.2900 0.9570
vn 0.0112 0.2784 0.9604
vn -0.0011 0.3596 0.9331
vn 0.0131 0.3415 0.9398
vn 0.0093 0.3610 0.9325
vn -0.0041 0.3883 0.9215
vn 0.0011 0.3867 0.9222
vn -0.0147 0.3981 0.9172
vn -0.0093 0.4091 0.9124
vn -0.0061 0.3677 0.9299
vn -0.0190 0.4196 0.9075
vn -0.0069 0.3824 0.9240
vn -0.0095 0.4315 0.9020
vn 0.0063 0.2860 0.9582
vn 0.0072 0.3191 0.9477
vn 0.0108 0.3160 0.9487
vn 0.0102 0.3315 0.9434
vn 0.0086 0.3345 0.9423
vn 0.0066 0.3175 0.9482
vn 0.0051 0.3360 0.9419
vn 0.0031 0.3179 0.9481
vn 0.0017 0.3376 0.9413
vn 0.0017 0.3198 0.9475
vn -0.0013 0.3433 0.9392
vn 0.0013 0.1428 0.9898
vn 0.0018 0.1649 0.9863
vn 0.0002 0.1417 0.9899
vn 0.0011 0.1642 0.9864
vn 0.0024 0.2258 0.9742
vn 0.0029 0.2252 0.9743
vn 0.0038 0.2246 0.9744
vn 0.0029 0.1649 0.9863
vn 0.0028 0.1427 0.9898
vn 0.0041 0.1385 0.9904
vn 0.0041 0.1614 0.9869
vn 0.0042 0.1400 0.9901
vn 0.0041 0.1628 0.9867
vn 0.0049 0.2240 0.9746
vn 0.0049 0.2238 0.9746
vn 0.0078 0.3204 0.9472
vn 0.0098 0.3363 0.9417
vn 0.0093 0.3218 0.9468
vn 0.0127 0.3373 0.9413
vn -0.0005 0.1396 0.9902
vn 0.0006 0.1627 0.9867
vn -0.0009 0.1371 0.9906
vn 0.0003 0.1612 0.9869
vn 0.0021 0.2262 0.9741
vn 0.0022 0.2261 0.9741
vn 0.0017 0.3221 0.9467
vn -0.0011 0.3478 0.9376
vn 0.0017 0.3242 0.9460
vn -0.0000 0.3504 0.9366
vn -0.0011 0.3913 0.9203
vn -0.0037 0.3896 0.9210
vn 0.0039 0.1416 0.9899
vn 0.0038 0.1641 0.9864
vn 0.0045 0.2242 0.9745
vn 0.0112 0.3322 0.9431
vn 0.0082 0.3165 0.9486
vn -0.0027 0.4324 0.9017
vn -0.0025 0.4338 0.9010
vn -0.0011 0.1350 0.9908
vn 0.0001 0.1599 0.9871
vn -0.0011 0.1336 0.9910
vn 0.0006 0.1679 0.9858
vn 0.0023 0.2400 0.9708
vn 0.0020 0.2263 0.9741
vn 0.0016 0.3259 0.9454
vn -0.0005 0.3519 0.9360
vn 0.0009 0.3307 0.9437
vn -0.0019 0.3579 0.9338
vn -0.0058 0.4033 0.9150
vn -0.0031 0.3927 0.9197
vn -0.0073 0.4373 0.8993
vn -0.0107 0.4463 0.8948
vn 0.0065 0.2861 0.9582
vn 0.0066 0.2860 0.9582
vn 0.0050 0.2846 0.9586
vn 0.0063 0.2853 0.9584
vn 0.0028 0.2866 0.9580
vn 0.0034 0.2852 0.9585
vn 0.0027 0.2895 0.9572
vn 0.0028 0.2882 0.9576
vn 0.0026 0.2906 0.9568
vn 0.0024 0.2991 0.9542
vn 0.0148 0.3104 0.9505
vn 0.0161 0.3153 0.9489
vn 0.0102 0.3409 0.9401
vn 0.0113 0.3412 0.9399
vn 0.0149 0.3422 0.9395
vn 0.0160 0.3549 0.9348
vn 0.0076 0.3706 0.9287
vn -0.0224 0.4204 0.9071
vn -0.0296 0.4343 0.9003
vn -0.0150 0.4455 0.8951
vn -0.0049 0.4484 0.8938
vn -0.0008 0.4481 0.8940
vn -0.0069 0.4528 0.8916
vn -0.0112 0.4574 0.8892
vn -0.0138 0.4604 0.8876
# 110 vertex normals

vt 0.9812 0.0180 0.0000
vt 0.9808 0.0311 0.0000
vt 0.9575 0.0187 0.0000
vt 0.9574 0.0324 0.0000
vt 0.9335 0.0192 0.0000
vt 0.9334 0.0328 0.0000
vt 0.9331 0.0518 0.0000
vt 0.9570 0.0516 0.0000
vt 0.9802 0.0504 0.0000
vt 0.9561 0.0719 0.0000
vt 0.9791 0.0690 0.0000
vt 0.8356 0.1545 0.0000
vt 0.8644 0.1519 0.0000
vt 0.8683 0.1651 0.0000
vt 0.8414 0.1724 0.0000
vt 0.8579 0.1756 0.0000
vt 0.8260 0.1745 0.0000
vt 0.8410 0.1822 0.0000
vt 0.8078 0.1560 0.0000
vt 0.8073 0.1761 0.0000
vt 0.7820 0.1569 0.0000
vt 0.7824 0.1786 0.0000
vt 0.9327 0.0723 0.0000
vt 0.9327 0.0921 0.0000
vt 0.9538 0.0902 0.0000
vt 0.9540 0.1056 0.0000
vt 0.9340 0.1111 0.0000
vt 0.8353 0.0983 0.0000
vt 0.8348 0.1277 0.0000
vt 0.8104 0.0989 0.0000
vt 0.8090 0.1283 0.0000
vt 0.7851 0.0994 0.0000
vt 0.7832 0.1287 0.0000
vt 0.8150 0.0217 0.0000
vt 0.8141 0.0345 0.0000
vt 0.7907 0.0221 0.0000
vt 0.7896 0.0348 0.0000
vt 0.7882 0.0534 0.0000
vt 0.8129 0.0532 0.0000
vt 0.8370 0.0529 0.0000
vt 0.8381 0.0342 0.0000
vt 0.8388 0.0212 0.0000
vt 0.9098 0.0197 0.0000
vt 0.9095 0.0331 0.0000
vt 0.8861 0.0202 0.0000
vt 0.8857 0.0335 0.0000
vt 0.8851 0.0524 0.0000
vt 0.9091 0.0521 0.0000
vt 0.9096 0.0945 0.0000
vt 0.9126 0.1173 0.0000
vt 0.8852 0.0967 0.0000
vt 0.8884 0.1243 0.0000
vt 0.7652 0.0224 0.0000
vt 0.7640 0.0351 0.0000
vt 0.7425 0.0226 0.0000
vt 0.7411 0.0353 0.0000
vt 0.7391 0.0539 0.0000
vt 0.7624 0.0537 0.0000
vt 0.7586 0.1000 0.0000
vt 0.7563 0.1292 0.0000
vt 0.7344 0.1005 0.0000
vt 0.7316 0.1297 0.0000
vt 0.7288 0.1581 0.0000
vt 0.7539 0.1583 0.0000
vt 0.8625 0.0207 0.0000
vt 0.8619 0.0338 0.0000
vt 0.8611 0.0526 0.0000
vt 0.8618 0.1271 0.0000
vt 0.8603 0.0978 0.0000
vt 0.7513 0.1797 0.0000
vt 0.7264 0.1810 0.0000
vt 0.7263 0.0227 0.0000
vt 0.7246 0.0354 0.0000
vt 0.7137 0.0228 0.0000
vt 0.7117 0.0354 0.0000
vt 0.7088 0.0541 0.0000
vt 0.7221 0.0540 0.0000
vt 0.7161 0.1009 0.0000
vt 0.7124 0.1301 0.0000
vt 0.7019 0.1012 0.0000
vt 0.6976 0.1303 0.0000
vt 0.6936 0.1584 0.0000
vt 0.7089 0.1582 0.0000
vt 0.7061 0.1804 0.0000
vt 0.6904 0.1806 0.0000
vt 0.9088 0.0727 0.0000
vt 0.8845 0.0731 0.0000
vt 0.8361 0.0738 0.0000
vt 0.8603 0.0734 0.0000
vt 0.7867 0.0746 0.0000
vt 0.8117 0.0742 0.0000
vt 0.7369 0.0755 0.0000
vt 0.7606 0.0751 0.0000
vt 0.7193 0.0758 0.0000
vt 0.7056 0.0759 0.0000
vt 0.9783 0.0856 0.0000
vt 0.9727 0.0905 0.0000
vt 0.9368 0.1200 0.0000
vt 0.9161 0.1365 0.0000
vt 0.8948 0.1532 0.0000
vt 0.8798 0.1640 0.0000
vt 0.8694 0.1697 0.0000
vt 0.8238 0.1866 0.0000
vt 0.8072 0.1891 0.0000
vt 0.7862 0.1912 0.0000
vt 0.7598 0.1927 0.0000
vt 0.7367 0.1940 0.0000
vt 0.7213 0.1945 0.0000
vt 0.7043 0.1950 0.0000
vt 0.6884 0.1945 0.0000
# 110 texture coords

g H811_285B_R1_DTaSI_H811_285B_R
usemtl windowglass_1SG
s 1
f 1/1/1 2/2/2 3/3/3 
f 2/2/2 4/4/4 3/3/3 
f 3/3/3 4/4/4 5/5/5 
f 4/4/4 6/6/6 5/5/5 
f 7/7/7 6/6/6 8/8/8 
f 6/6/6 4/4/4 8/8/8 
f 8/8/8 4/4/4 9/9/9 
f 4/4/4 2/2/2 9/9/9 
f 10/10/10 8/8/8 11/11/11 
f 8/8/8 9/9/9 11/11/11 
f 12/12/12 13/13/13 14/14/14 
f 12/12/12 14/14/14 15/15/15 
f 14/14/14 16/16/16 15/15/15 
f 12/12/12 15/15/15 17/17/17 
f 15/15/15 18/18/18 17/17/17 
f 12/12/12 17/17/17 19/19/19 
f 17/17/17 20/20/20 19/19/19 
f 19/19/19 20/20/20 21/21/21 
f 20/20/20 22/22/22 21/21/21 
f 8/8/8 10/10/10 7/7/7 
f 10/10/10 23/23/23 7/7/7 
f 24/24/24 23/23/23 25/25/25 
f 23/23/23 10/10/10 25/25/25 
f 25/25/25 26/26/26 24/24/24 
f 26/26/26 27/27/27 24/24/24 
f 28/28/28 29/29/29 30/30/30 
f 29/29/29 31/31/31 30/30/30 
f 30/30/30 31/31/31 32/32/32 
f 31/31/31 33/33/33 32/32/32 
f 21/21/21 33/33/33 19/19/19 
f 33/33/33 31/31/31 19/19/19 
f 12/12/12 19/19/19 29/29/29 
f 19/19/19 31/31/31 29/29/29 
f 34/34/34 35/35/35 36/36/36 
f 35/35/35 37/37/37 36/36/36 
f 38/38/38 37/37/37 39/39/39 
f 37/37/37 35/35/35 39/39/39 
f 39/39/39 35/35/35 40/40/40 
f 35/35/35 41/41/41 40/40/40 
f 42/42/42 41/41/41 34/34/34 
f 41/41/41 35/35/35 34/34/34 
f 43/43/43 44/44/44 45/45/45 
f 44/44/44 46/46/46 45/45/45 
f 47/47/47 46/46/46 48/48/48 
f 46/46/46 44/44/44 48/48/48 
f 48/48/48 44/44/44 7/7/7 
f 44/44/44 6/6/6 7/7/7 
f 5/5/5 6/6/6 43/43/43 
f 6/6/6 44/44/44 43/43/43 
f 49/49/49 50/50/50 51/51/51 
f 50/50/50 52/52/52 51/51/51 
f 24/24/24 27/27/27 49/49/49 
f 27/27/27 50/50/50 49/49/49 
f 53/53/53 54/54/54 55/55/55 
f 54/54/54 56/56/56 55/55/55 
f 57/57/57 56/56/56 58/58/58 
f 56/56/56 54/54/54 58/58/58 
f 58/58/58 54/54/54 38/38/38 
f 54/54/54 37/37/37 38/38/38 
f 36/36/36 37/37/37 53/53/53 
f 37/37/37 54/54/54 53/53/53 
f 32/32/32 33/33/33 59/59/59 
f 33/33/33 60/60/60 59/59/59 
f 59/59/59 60/60/60 61/61/61 
f 60/60/60 62/62/62 61/61/61 
f 63/63/63 62/62/62 64/64/64 
f 62/62/62 60/60/60 64/64/64 
f 64/64/64 60/60/60 21/21/21 
f 60/60/60 33/33/33 21/21/21 
f 65/65/65 66/66/66 42/42/42 
f 66/66/66 41/41/41 42/42/42 
f 40/40/40 41/41/41 67/67/67 
f 41/41/41 66/66/66 67/67/67 
f 67/67/67 66/66/66 47/47/47 
f 66/66/66 46/46/46 47/47/47 
f 45/45/45 46/46/46 65/65/65 
f 46/46/46 66/66/66 65/65/65 
f 52/52/52 68/68/68 51/51/51 
f 68/68/68 69/69/69 51/51/51 
f 69/69/69 68/68/68 28/28/28 
f 68/68/68 29/29/29 28/28/28 
f 12/12/12 29/29/29 13/13/13 
f 29/29/29 68/68/68 13/13/13 
f 21/21/21 22/22/22 64/64/64 
f 22/22/22 70/70/70 64/64/64 
f 64/64/64 70/70/70 63/63/63 
f 70/70/70 71/71/71 63/63/63 
f 55/55/55 56/56/56 72/72/72 
f 56/56/56 73/73/73 72/72/72 
f 72/72/72 73/73/73 74/74/74 
f 73/73/73 75/75/75 74/74/74 
f 76/76/76 75/75/75 77/77/77 
f 75/75/75 73/73/73 77/77/77 
f 77/77/77 73/73/73 57/57/57 
f 73/73/73 56/56/56 57/57/57 
f 61/61/61 62/62/62 78/78/78 
f 62/62/62 79/79/79 78/78/78 
f 78/78/78 79/79/79 80/80/80 
f 79/79/79 81/81/81 80/80/80 
f 82/82/82 81/81/81 83/83/83 
f 81/81/81 79/79/79 83/83/83 
f 83/83/83 79/79/79 63/63/63 
f 79/79/79 62/62/62 63/63/63 
f 83/83/83 84/84/84 82/82/82 
f 84/84/84 85/85/85 82/82/82 
f 63/63/63 71/71/71 83/83/83 
f 71/71/71 84/84/84 83/83/83 
f 7/7/7 23/23/23 48/48/48 
f 23/23/23 86/86/86 48/48/48 
f 48/48/48 86/86/86 47/47/47 
f 86/86/86 87/87/87 47/47/47 
f 51/51/51 87/87/87 49/49/49 
f 87/87/87 86/86/86 49/49/49 
f 49/49/49 86/86/86 24/24/24 
f 86/86/86 23/23/23 24/24/24 
f 28/28/28 88/88/88 69/69/69 
f 88/88/88 89/89/89 69/69/69 
f 69/69/69 89/89/89 51/51/51 
f 89/89/89 87/87/87 51/51/51 
f 47/47/47 87/87/87 67/67/67 
f 87/87/87 89/89/89 67/67/67 
f 67/67/67 89/89/89 40/40/40 
f 89/89/89 88/88/88 40/40/40 
f 32/32/32 90/90/90 30/30/30 
f 90/90/90 91/91/91 30/30/30 
f 30/30/30 91/91/91 28/28/28 
f 91/91/91 88/88/88 28/28/28 
f 40/40/40 88/88/88 39/39/39 
f 88/88/88 91/91/91 39/39/39 
f 39/39/39 91/91/91 38/38/38 
f 91/91/91 90/90/90 38/38/38 
f 61/61/61 92/92/92 59/59/59 
f 92/92/92 93/93/93 59/59/59 
f 59/59/59 93/93/93 32/32/32 
f 93/93/93 90/90/90 32/32/32 
f 38/38/38 90/90/90 58/58/58 
f 90/90/90 93/93/93 58/58/58 
f 58/58/58 93/93/93 57/57/57 
f 93/93/93 92/92/92 57/57/57 
f 77/77/77 94/94/94 76/76/76 
f 94/94/94 95/95/95 76/76/76 
f 80/80/80 95/95/95 78/78/78 
f 95/95/95 94/94/94 78/78/78 
f 78/78/78 94/94/94 61/61/61 
f 94/94/94 92/92/92 61/61/61 
f 57/57/57 92/92/92 77/77/77 
f 92/92/92 94/94/94 77/77/77 
f 11/11/11 96/96/96 10/10/10 
f 96/96/96 97/97/97 10/10/10 
f 97/97/97 25/25/25 10/10/10 
f 97/97/97 26/26/26 25/25/25 
f 98/98/98 27/27/27 26/26/26 
f 99/99/99 50/50/50 98/98/98 
f 50/50/50 27/27/27 98/98/98 
f 100/100/100 52/52/52 99/99/99 
f 52/52/52 50/50/50 99/99/99 
f 68/68/68 52/52/52 13/13/13 
f 13/13/13 52/52/52 100/100/100 
f 100/100/100 14/14/14 13/13/13 
f 14/14/14 101/101/101 102/102/102 
f 102/102/102 16/16/16 14/14/14 
f 15/15/15 16/16/16 18/18/18 
f 103/103/103 17/17/17 18/18/18 
f 104/104/104 20/20/20 103/103/103 
f 20/20/20 17/17/17 103/103/103 
f 22/22/22 20/20/20 105/105/105 
f 20/20/20 104/104/104 105/105/105 
f 105/105/105 106/106/106 22/22/22 
f 106/106/106 70/70/70 22/22/22 
f 107/107/107 70/70/70 106/106/106 
f 108/108/108 71/71/71 107/107/107 
f 71/71/71 70/70/70 107/107/107 
f 109/109/109 84/84/84 108/108/108 
f 84/84/84 71/71/71 108/108/108 
f 110/110/110 85/85/85 109/109/109 
f 85/85/85 84/84/84 109/109/109 
f 101/101/101 14/14/14 100/100/100 
# 177 faces

