# 3ds Max Wavefront OBJ Exporter v0.97b - (c)2007 guruware
# File Created: 19.10.2015 13:24:26

mtllib P222_15_041B_C.mtl

#
# object P222_15_041B_C_1_D_P222_15_041B_C
#

v  216.2831 10.7536 -32.1382
v  215.0819 7.9070 -35.4662
v  215.9132 10.6421 -35.0226
v  215.3509 10.4367 -35.4580
v  217.7545 11.2738 -15.0118
v  218.2185 11.3819 -7.3299
v  215.3859 0.7974 -12.7806
v  218.4050 11.4087 -0.0000
v  215.6476 0.8378 -0.0000
v  217.1104 11.0566 -23.3985
v  214.5468 0.5860 -27.5705
v  214.1154 0.1393 -31.2841
v  214.3487 3.5825 -35.4886
v  212.8902 -9.7331 -0.0000
v  212.7853 -9.7331 -14.3905
v  212.3969 -9.7331 -27.3727
v  213.0685 -4.0026 -35.5278
v  213.5461 -1.1598 -35.5132
v  212.7853 -5.6922 -35.4531
v  212.5659 -6.9751 -35.2099
v  212.3947 -7.9608 -34.7108
v  212.2560 -8.7591 -33.8687
v  212.0434 -9.7331 -32.1926
v  212.1575 -9.3260 -33.0531
v  212.1068 -9.6176 -32.6336
v  215.3509 10.4367 35.4580
v  215.0819 7.9070 35.4662
v  215.9132 10.6421 35.0226
v  216.2831 10.7536 32.1382
v  217.7545 11.2738 15.0118
v  215.3859 0.7974 12.7806
v  218.2185 11.3819 7.3299
v  214.5468 0.5860 27.5705
v  217.1104 11.0566 23.3985
v  214.1154 0.1393 31.2841
v  214.3487 3.5825 35.4886
v  212.7853 -9.7331 14.3905
v  212.3969 -9.7331 27.3727
v  213.5461 -1.1598 35.5132
v  213.0685 -4.0026 35.5278
v  212.7853 -5.6922 35.4531
v  212.5659 -6.9751 35.2099
v  212.3947 -7.9608 34.7108
v  212.2560 -8.7591 33.8687
v  212.0434 -9.7331 32.1926
v  212.1575 -9.3260 33.0531
v  212.1068 -9.6176 32.6336
v  218.2306 10.4367 -35.4580
v  217.9615 7.9070 -35.4662
v  217.2283 3.5825 -35.4886
v  216.4257 -1.1598 -35.5132
v  215.9481 -4.0026 -35.5278
v  215.6649 -5.6922 -35.4531
v  215.4455 -6.9751 -35.2099
v  215.2743 -7.9608 -34.7108
v  215.1356 -8.7591 -33.8687
v  215.0371 -9.3260 -33.0531
v  214.9864 -9.6176 -32.6336
v  214.9752 -9.7331 -32.3838
v  215.3395 -9.7331 -26.0726
v  215.5757 -9.7331 -19.7704
v  215.6804 -9.7331 -13.3618
v  215.7606 -9.7331 -6.9529
v  221.2846 11.4087 -0.0000
v  221.0981 11.3819 -7.3299
v  220.6341 11.2738 -15.0118
v  219.9900 11.0566 -23.3985
v  219.1627 10.7536 -32.1382
v  215.7699 -9.7331 -0.0000
v  218.2425 10.6261 -35.6205
v  218.2306 10.4367 35.4580
v  217.9615 7.9070 35.4662
v  217.2283 3.5825 35.4886
v  216.4257 -1.1598 35.5132
v  215.9481 -4.0026 35.5278
v  215.6649 -5.6922 35.4531
v  215.4455 -6.9751 35.2099
v  215.2743 -7.9608 34.7108
v  215.1356 -8.7591 33.8687
v  215.0371 -9.3260 33.0531
v  214.9864 -9.6176 32.6336
v  214.9752 -9.7331 32.3838
v  215.3395 -9.7331 26.0726
v  215.5757 -9.7331 19.7704
v  215.6804 -9.7331 13.3618
v  215.7606 -9.7331 6.9529
v  221.0981 11.3819 7.3299
v  220.6341 11.2738 15.0118
v  219.9900 11.0566 23.3985
v  219.1627 10.7536 32.1382
v  218.2425 10.6261 35.6205
# 91 vertices

vn 0.9735 -0.2055 -0.1007
vn 0.9601 -0.1787 -0.2153
vn 0.9389 -0.2464 -0.2401
vn 0.9726 -0.2253 -0.0575
vn 0.9686 -0.2473 -0.0265
vn 0.9717 -0.2340 -0.0331
vn 0.9681 -0.2505 -0.0000
vn 0.9689 -0.2475 -0.0000
vn 0.9734 -0.2204 -0.0629
vn 0.9746 -0.2166 -0.0566
vn 0.9762 -0.1997 -0.0845
vn 0.9734 -0.1976 -0.1158
vn 0.9695 -0.2452 -0.0000
vn 0.9725 -0.2310 -0.0285
vn 0.9753 -0.2153 -0.0500
vn 0.9828 -0.1669 -0.0795
vn 0.9829 -0.1654 -0.0815
vn 0.9820 -0.1769 -0.0658
vn 0.9810 -0.1885 -0.0455
vn 0.9802 -0.1957 -0.0295
vn 0.9794 -0.2021 -0.0016
vn 0.9771 -0.2017 -0.0671
vn 0.9790 -0.2035 0.0059
vn 0.9864 0.0522 0.1556
vn 0.9389 -0.2464 0.2401
vn 0.9601 -0.1787 0.2153
vn 0.9735 -0.2055 0.1007
vn 0.9726 -0.2253 0.0575
vn 0.9717 -0.2340 0.0331
vn 0.9686 -0.2473 0.0265
vn 0.9746 -0.2166 0.0566
vn 0.9734 -0.2204 0.0629
vn 0.9762 -0.1997 0.0845
vn 0.9734 -0.1976 0.1158
vn 0.9725 -0.2310 0.0285
vn 0.9753 -0.2153 0.0500
vn 0.9829 -0.1654 0.0815
vn 0.9828 -0.1669 0.0795
vn 0.9820 -0.1769 0.0658
vn 0.9810 -0.1885 0.0455
vn 0.9802 -0.1957 0.0295
vn 0.9794 -0.2021 0.0016
vn 0.9771 -0.2017 0.0671
vn 0.9790 -0.2035 -0.0059
vn 0.9864 0.0522 -0.1556
vn 0.0000 -0.0033 1.0000
vn 0.0000 -0.0044 1.0000
vn 0.0000 -0.0045 1.0000
vn 0.0000 -0.0052 1.0000
vn 0.0000 0.0109 0.9999
vn 0.0000 0.0158 0.9999
vn 0.0000 0.0990 0.9951
vn 0.0000 0.1139 0.9935
vn 0.0000 0.2975 0.9547
vn 0.0000 0.3248 0.9458
vn 0.0000 0.5889 0.8082
vn 0.0000 0.6130 0.7901
vn 0.0000 0.7686 0.6397
vn 0.0000 0.7753 0.6316
vn 0.0000 0.8211 0.5708
vn 0.0042 0.8799 0.4752
vn 0.0048 0.8876 0.4606
vn 0.0013 0.9992 0.0406
vn 0.0012 0.9993 0.0368
vn 0.0000 1.0000 -0.0000
vn 0.0000 -1.0000 -0.0000
vn 0.0000 -1.0000 0.0088
vn 0.0000 -1.0000 0.0091
vn 0.0000 -0.9998 0.0200
vn 0.0000 -0.9998 0.0205
vn 0.0000 -0.9995 0.0301
vn 0.0000 -0.9995 0.0306
vn 0.0000 -0.9994 0.0346
vn 0.0094 -0.9941 0.1083
vn 0.0068 -0.9963 0.0858
vn 0.0012 -0.9993 0.0373
vn 0.0850 -0.6473 0.7575
vn 0.0000 -0.0033 -1.0000
vn 0.0000 -0.0044 -1.0000
vn 0.0000 -0.0045 -1.0000
vn 0.0000 -0.0052 -1.0000
vn 0.0000 0.0109 -0.9999
vn 0.0000 0.0158 -0.9999
vn 0.0000 0.0990 -0.9951
vn 0.0000 0.1139 -0.9935
vn 0.0000 0.3248 -0.9458
vn 0.0000 0.2975 -0.9547
vn 0.0000 0.6130 -0.7901
vn 0.0000 0.5889 -0.8082
vn 0.0000 0.7753 -0.6316
vn 0.0000 0.7686 -0.6397
vn 0.0000 0.8211 -0.5708
vn 0.0042 0.8799 -0.4752
vn 0.0048 0.8876 -0.4606
vn 0.0013 0.9992 -0.0406
vn 0.0012 0.9993 -0.0368
vn 0.0000 -1.0000 -0.0091
vn 0.0000 -1.0000 -0.0088
vn 0.0000 -0.9998 -0.0205
vn 0.0000 -0.9998 -0.0200
vn 0.0000 -0.9995 -0.0306
vn 0.0000 -0.9995 -0.0301
vn 0.0000 -0.9994 -0.0346
vn 0.0012 -0.9993 -0.0373
vn 0.0068 -0.9963 -0.0858
vn 0.0094 -0.9941 -0.1083
vn 0.0850 -0.6473 -0.7575
# 107 vertex normals

vt 0.1042 0.3930 0.0000
vt 0.1042 0.3865 0.0000
vt 0.1042 0.3896 0.0000
vt 0.1042 0.3887 0.0000
vt 0.1042 0.4396 0.0000
vt 0.1042 0.4505 0.0000
vt 0.1042 0.3781 0.0000
vt 0.1042 0.4609 0.0000
vt 0.1042 0.3754 0.0000
vt 0.1042 0.4276 0.0000
vt 0.1042 0.3759 0.0000
vt 0.1042 0.3741 0.0000
vt 0.1042 0.3803 0.0000
vt 0.1042 0.2900 0.0000
vt 0.1042 0.3112 0.0000
vt 0.1042 0.3303 0.0000
vt 0.1042 0.3693 0.0000
vt 0.1042 0.3734 0.0000
vt 0.1042 0.3668 0.0000
vt 0.1042 0.3649 0.0000
vt 0.1042 0.3632 0.0000
vt 0.1042 0.3616 0.0000
vt 0.1042 0.3589 0.0000
vt 0.1042 0.3602 0.0000
vt 0.1042 0.3595 0.0000
vt 0.1083 0.3903 0.0000
vt 0.1082 0.3872 0.0000
vt 0.1082 0.3810 0.0000
vt 0.1082 0.3741 0.0000
vt 0.1083 0.3700 0.0000
vt 0.1084 0.3675 0.0000
vt 0.1084 0.3655 0.0000
vt 0.1084 0.3638 0.0000
vt 0.1084 0.3619 0.0000
vt 0.1084 0.3604 0.0000
vt 0.1083 0.3591 0.0000
vt 0.1042 0.3591 0.0000
vt 0.1083 0.3586 0.0000
vt 0.1042 0.3587 0.0000
vt 0.1084 0.3301 0.0000
vt 0.1084 0.3207 0.0000
vt 0.1084 0.3111 0.0000
vt 0.1084 0.3011 0.0000
vt 0.1082 0.4609 0.0000
vt 0.1082 0.4507 0.0000
vt 0.1082 0.4399 0.0000
vt 0.1083 0.4280 0.0000
vt 0.1083 0.4155 0.0000
vt 0.1042 0.4151 0.0000
vt 0.1084 0.2900 0.0000
vt 0.1084 0.3375 0.0000
vt 0.1042 0.3375 0.0000
vt 0.1042 0.3350 0.0000
vt 0.1082 0.4445 0.0000
# 54 texture coords

g P222_15_041B_C_1_D_P222_15_041B_C
usemtl diffuse_holesSG
s 1
f 1/1/1 2/2/2 3/3/3 
f 3/3/3 2/2/2 4/4/3 
f 5/5/4 6/6/5 7/7/6 
f 8/8/7 9/9/8 6/6/5 
f 6/6/5 9/9/8 7/7/6 
f 1/1/1 10/10/9 11/11/10 
f 5/5/4 7/7/6 10/10/9 
f 10/10/9 7/7/6 11/11/10 
f 1/1/1 11/11/10 12/12/11 
f 1/1/1 13/13/12 2/2/2 
f 1/1/1 12/12/11 13/13/12 
f 9/9/8 14/14/13 7/7/6 
f 7/7/6 14/14/13 15/15/14 
f 7/7/6 15/15/14 11/11/10 
f 11/11/10 15/15/14 16/16/15 
f 12/12/11 17/17/16 18/18/17 
f 12/12/11 18/18/17 13/13/12 
f 12/12/11 19/19/18 17/17/16 
f 12/12/11 20/20/19 19/19/18 
f 12/12/11 21/21/20 20/20/19 
f 12/12/11 22/22/21 21/21/20 
f 23/23/22 24/24/23 12/12/11 
f 12/12/11 24/24/23 22/22/21 
f 23/23/22 25/25/24 24/24/23 
f 11/11/10 16/16/15 12/12/11 
f 12/12/11 16/16/15 23/23/22 
f 26/4/25 27/2/26 28/3/25 
f 28/3/25 27/2/26 29/1/27 
f 30/5/28 31/7/29 32/6/30 
f 31/7/29 9/9/8 32/6/30 
f 32/6/30 9/9/8 8/8/7 
f 29/1/27 33/11/31 34/10/32 
f 33/11/31 31/7/29 34/10/32 
f 34/10/32 31/7/29 30/5/28 
f 29/1/27 35/12/33 33/11/31 
f 29/1/27 27/2/26 36/13/34 
f 29/1/27 36/13/34 35/12/33 
f 9/9/8 31/7/29 14/14/13 
f 14/14/13 31/7/29 37/15/35 
f 31/7/29 33/11/31 37/15/35 
f 37/15/35 33/11/31 38/16/36 
f 35/12/33 39/18/37 40/17/38 
f 35/12/33 36/13/34 39/18/37 
f 35/12/33 40/17/38 41/19/39 
f 35/12/33 41/19/39 42/20/40 
f 35/12/33 42/20/40 43/21/41 
f 35/12/33 43/21/41 44/22/42 
f 45/23/43 35/12/33 46/24/44 
f 35/12/33 44/22/42 46/24/44 
f 45/23/43 46/24/44 47/25/45 
f 45/23/43 38/16/36 35/12/33 
f 35/12/33 38/16/36 33/11/31 
s 11
f 48/26/46 4/3/46 49/27/47 
f 49/27/47 4/3/46 2/2/48 
f 49/27/47 2/2/48 50/28/49 
f 50/28/49 2/2/48 13/13/49 
f 50/28/49 13/13/49 51/29/49 
f 51/29/49 13/13/49 18/18/49 
f 51/29/49 18/18/49 52/30/50 
f 52/30/50 18/18/49 17/17/51 
f 52/30/50 17/17/51 53/31/52 
f 53/31/52 17/17/51 19/19/53 
f 53/31/52 19/19/53 54/32/54 
f 54/32/54 19/19/53 20/20/55 
f 54/32/54 20/20/55 55/33/56 
f 55/33/56 20/20/55 21/21/57 
f 55/33/56 21/21/57 56/34/58 
f 56/34/58 21/21/57 22/22/59 
f 56/34/58 22/22/59 57/35/60 
f 57/35/60 22/22/59 24/24/60 
f 57/35/60 24/24/60 58/36/61 
f 58/36/61 24/24/60 25/37/62 
f 58/36/61 25/37/62 59/38/63 
f 59/38/63 25/37/62 23/39/64 
f 60/40/65 16/16/65 61/41/65 
f 61/41/65 16/16/65 15/15/65 
f 62/42/65 15/15/65 63/43/65 
s 13
f 64/44/66 8/8/66 65/45/67 
f 65/45/67 8/8/66 6/6/68 
f 65/45/67 6/6/68 66/46/69 
f 66/46/69 6/6/68 5/5/70 
f 66/46/69 5/5/70 67/47/71 
f 67/47/71 5/5/70 10/10/72 
f 67/47/71 10/10/72 68/48/73 
f 68/48/73 10/10/72 1/49/73 
s 11
f 15/15/65 62/42/65 61/41/65 
f 69/50/65 63/43/65 14/14/65 
f 14/14/65 63/43/65 15/15/65 
f 16/16/65 60/40/65 59/51/63 
f 23/52/64 16/16/65 59/51/63 
s 14
f 3/53/74 70/54/75 1/39/76 
f 1/39/76 70/54/75 68/44/76 
f 70/54/75 3/53/74 48/47/77 
f 3/53/74 4/15/77 48/47/77 
s 11
f 71/26/78 72/27/79 26/3/78 
f 26/3/78 72/27/79 27/2/80 
f 36/13/81 27/2/80 73/28/81 
f 73/28/81 27/2/80 72/27/79 
f 73/28/81 74/29/81 36/13/81 
f 36/13/81 74/29/81 39/18/81 
f 74/29/81 75/30/82 39/18/81 
f 39/18/81 75/30/82 40/17/83 
f 75/30/82 76/31/84 40/17/83 
f 40/17/83 76/31/84 41/19/85 
f 42/20/86 41/19/85 77/32/87 
f 77/32/87 41/19/85 76/31/84 
f 43/21/88 42/20/86 78/33/89 
f 78/33/89 42/20/86 77/32/87 
f 44/22/90 43/21/88 79/34/91 
f 79/34/91 43/21/88 78/33/89 
f 46/24/92 44/22/90 80/35/92 
f 80/35/92 44/22/90 79/34/91 
f 80/35/92 81/36/93 46/24/92 
f 46/24/92 81/36/93 47/37/94 
f 81/36/93 82/38/95 47/37/94 
f 47/37/94 82/38/95 45/39/96 
f 83/40/65 84/41/65 38/16/65 
f 38/16/65 84/41/65 37/15/65 
f 85/42/65 86/43/65 37/15/65 
s 13
f 32/6/97 8/8/66 87/45/98 
f 87/45/98 8/8/66 64/44/66 
f 30/5/99 32/6/97 88/46/100 
f 88/46/100 32/6/97 87/45/98 
f 34/10/101 30/5/99 89/47/102 
f 89/47/102 30/5/99 88/46/100 
f 29/49/103 34/10/101 90/48/103 
f 90/48/103 34/10/101 89/47/102 
s 11
f 37/15/65 84/41/65 85/42/65 
f 37/15/65 86/43/65 14/14/65 
f 14/14/65 86/43/65 69/50/65 
f 38/16/65 82/51/95 83/40/65 
f 45/52/96 82/51/95 38/16/65 
s 18
f 90/44/104 91/54/105 29/39/104 
f 29/39/104 91/54/105 28/53/106 
f 91/54/105 71/47/107 28/53/106 
f 28/53/106 71/47/107 26/15/107 
# 136 faces

