# 3ds Max Wavefront OBJ Exporter v0.97b - (c)2007 guruware
# File Created: 02.11.2015 10:52:35

mtllib 6139_18_345A_C.mtl

#
# object _6139_18_345A_C_1_DaS__6139_18_345A_C
#

v  10.3609 60.5835 -20.2569
v  -0.6097 61.7390 -20.1659
v  10.3679 60.8268 -10.5888
v  -0.5190 61.9705 -10.5544
v  -0.4673 62.0633 -0.0094
v  10.3720 60.9213 -0.0094
v  -0.6691 61.4275 -28.0813
v  10.3571 60.2418 -28.0861
v  -22.5159 63.1589 -0.0094
v  -22.5472 63.0692 -10.5103
v  -34.7441 63.2894 -0.0094
v  -34.7444 63.2003 -10.5209
v  -34.7450 62.9945 -20.0498
v  -22.6123 62.8596 -20.0399
v  -22.6784 62.6035 -28.0744
v  -34.7457 62.7479 -28.0742
v  -11.4062 62.4630 -20.0856
v  -11.4746 62.1835 -28.0771
v  -11.2840 62.7728 -0.0094
v  -11.3259 62.6818 -10.5246
v  -0.5190 61.9705 10.5356
v  -0.6097 61.7390 20.1472
v  10.3679 60.8268 10.5700
v  10.3609 60.5835 20.2381
v  -0.6691 61.4275 28.0612
v  10.3571 60.2418 28.0610
v  -22.5472 63.0692 10.4915
v  -34.7444 63.2003 10.5021
v  -22.6123 62.8596 20.0211
v  -34.7450 62.9945 20.0310
v  -22.6784 62.6035 28.0616
v  -34.7457 62.7479 28.0616
v  -11.4062 62.4630 20.0668
v  -11.4746 62.1835 28.0615
v  -11.3259 62.6818 10.5058
# 35 vertices

vn 0.1300 0.9910 -0.0333
vn 0.0862 0.9958 -0.0314
vn 0.1292 0.9915 -0.0171
vn 0.0854 0.9962 -0.0164
vn 0.0853 0.9964 -0.0000
vn 0.1290 0.9916 -0.0000
vn 0.0886 0.9949 -0.0482
vn 0.1313 0.9900 -0.0521
vn 0.0221 0.9998 -0.0000
vn 0.0223 0.9996 -0.0151
vn -0.0039 1.0000 -0.0000
vn -0.0039 0.9999 -0.0148
vn -0.0037 0.9997 -0.0260
vn 0.0229 0.9994 -0.0269
vn 0.0242 0.9989 -0.0392
vn -0.0033 0.9993 -0.0372
vn 0.0510 0.9983 -0.0289
vn 0.0533 0.9976 -0.0431
vn 0.0498 0.9988 0.0000
vn 0.0500 0.9986 -0.0157
vn 0.0854 0.9962 0.0164
vn 0.0862 0.9958 0.0314
vn 0.1292 0.9915 0.0171
vn 0.1300 0.9910 0.0333
vn 0.0886 0.9949 0.0482
vn 0.1313 0.9900 0.0521
vn 0.0223 0.9996 0.0151
vn -0.0039 0.9999 0.0148
vn 0.0229 0.9994 0.0269
vn -0.0037 0.9997 0.0260
vn 0.0242 0.9989 0.0392
vn -0.0033 0.9993 0.0372
vn 0.0510 0.9983 0.0289
vn 0.0533 0.9976 0.0431
vn 0.0500 0.9986 0.0157
# 35 vertex normals

vt 0.4172 0.5556 0.0000
vt 0.4458 0.5558 0.0000
vt 0.4172 0.5779 0.0000
vt 0.4456 0.5780 0.0000
vt 0.4455 0.6024 0.0000
vt 0.4171 0.6024 0.0000
vt 0.4460 0.5375 0.0000
vt 0.4172 0.5375 0.0000
vt 0.5031 0.6024 0.0000
vt 0.5032 0.5781 0.0000
vt 0.5350 0.6024 0.0000
vt 0.5350 0.5781 0.0000
vt 0.5350 0.5561 0.0000
vt 0.5033 0.5561 0.0000
vt 0.5035 0.5375 0.0000
vt 0.5350 0.5375 0.0000
vt 0.4740 0.5560 0.0000
vt 0.4742 0.5375 0.0000
vt 0.4737 0.6024 0.0000
vt 0.4738 0.5781 0.0000
vt 0.4456 0.6268 0.0000
vt 0.4458 0.6490 0.0000
vt 0.4172 0.6268 0.0000
vt 0.4172 0.6492 0.0000
vt 0.4460 0.6673 0.0000
vt 0.4172 0.6673 0.0000
vt 0.5032 0.6267 0.0000
vt 0.5350 0.6267 0.0000
vt 0.5033 0.6487 0.0000
vt 0.5350 0.6487 0.0000
vt 0.5035 0.6673 0.0000
vt 0.5350 0.6673 0.0000
vt 0.4740 0.6488 0.0000
vt 0.4742 0.6673 0.0000
vt 0.4738 0.6267 0.0000
# 35 texture coords

g _6139_18_345A_C_1_DaS__6139_18_345A_C
usemtl paint_whiteSG
s 1
f 1/1/1 2/2/2 3/3/3 
f 3/3/3 2/2/2 4/4/4 
f 5/5/5 6/6/6 4/4/4 
f 4/4/4 6/6/6 3/3/3 
f 2/2/2 1/1/1 7/7/7 
f 7/7/7 1/1/1 8/8/8 
f 9/9/9 10/10/10 11/11/11 
f 11/11/11 10/10/10 12/12/12 
f 13/13/13 12/12/12 14/14/14 
f 14/14/14 12/12/12 10/10/10 
f 14/14/14 15/15/15 13/13/13 
f 13/13/13 15/15/15 16/16/16 
f 2/2/2 7/7/7 17/17/17 
f 17/17/17 7/7/7 18/18/18 
f 17/17/17 18/18/18 14/14/14 
f 14/14/14 18/18/18 15/15/15 
f 5/5/5 4/4/4 19/19/19 
f 19/19/19 4/4/4 20/20/20 
f 17/17/17 20/20/20 2/2/2 
f 2/2/2 20/20/20 4/4/4 
f 14/14/14 10/10/10 17/17/17 
f 17/17/17 10/10/10 20/20/20 
f 19/19/19 20/20/20 9/9/9 
f 9/9/9 20/20/20 10/10/10 
f 21/21/21 22/22/22 23/23/23 
f 23/23/23 22/22/22 24/24/24 
f 5/5/5 21/21/21 6/6/6 
f 6/6/6 21/21/21 23/23/23 
f 22/22/22 25/25/25 24/24/24 
f 24/24/24 25/25/25 26/26/26 
f 9/9/9 11/11/11 27/27/27 
f 27/27/27 11/11/11 28/28/28 
f 27/27/27 28/28/28 29/29/29 
f 29/29/29 28/28/28 30/30/30 
f 29/29/29 30/30/30 31/31/31 
f 31/31/31 30/30/30 32/32/32 
f 22/22/22 33/33/33 25/25/25 
f 25/25/25 33/33/33 34/34/34 
f 31/31/31 34/34/34 29/29/29 
f 29/29/29 34/34/34 33/33/33 
f 5/5/5 19/19/19 21/21/21 
f 21/21/21 19/19/19 35/35/35 
f 21/21/21 35/35/35 22/22/22 
f 22/22/22 35/35/35 33/33/33 
f 29/29/29 33/33/33 27/27/27 
f 27/27/27 33/33/33 35/35/35 
f 27/27/27 35/35/35 9/9/9 
f 9/9/9 35/35/35 19/19/19 
# 48 faces

