# 3ds Max Wavefront OBJ Exporter v0.97b - (c)2007 guruware
# File Created: 13.11.2015 16:52:52

mtllib H025_10_345A_C.mtl

#
# object H025_10_345A_C_1_DaS_H025_10_345A_C
#

v  -7.1499 63.8889 -10.8728
v  -7.3634 63.8168 -19.5980
v  -14.1547 64.6137 -10.8408
v  -14.3170 64.5283 -19.5539
v  -7.0142 63.8868 0.0471
v  -0.8983 63.0619 -10.8973
v  -0.7608 63.0525 0.0471
v  4.5027 62.1502 -10.8719
v  4.6628 62.1399 0.0471
v  9.8623 61.0075 -10.8350
v  10.0455 61.0001 0.0471
v  4.1895 62.0890 -19.6373
v  -1.1635 62.9977 -19.6381
v  9.5010 60.9501 -19.6305
v  -14.0202 64.6259 0.0471
v  -21.9048 65.3677 0.0471
v  -21.9977 65.3326 -10.8491
v  -22.1117 65.2249 -19.5471
v  -14.3170 64.5283 19.6481
v  -7.3634 63.8168 19.6922
v  -14.1547 64.6137 10.9350
v  -7.1499 63.8889 10.9670
v  -0.8983 63.0619 10.9915
v  9.8623 61.0075 10.9291
v  4.5027 62.1502 10.9661
v  -1.1635 62.9977 19.7323
v  4.1895 62.0890 19.7314
v  9.5010 60.9501 19.7247
v  -21.9977 65.3326 10.9433
v  -22.1117 65.2249 19.6413
# 30 vertices

vn 0.1166 0.9932 -0.0058
vn 0.1157 0.9931 -0.0183
vn 0.0970 0.9953 -0.0066
vn 0.0950 0.9953 -0.0187
vn 0.1172 0.9931 -0.0000
vn 0.1478 0.9890 -0.0060
vn 0.1479 0.9890 -0.0000
vn 0.1876 0.9822 -0.0071
vn 0.1872 0.9823 -0.0000
vn 0.2168 0.9762 -0.0084
vn 0.2163 0.9763 -0.0000
vn 0.1891 0.9817 -0.0220
vn 0.1482 0.9888 -0.0194
vn 0.2184 0.9756 -0.0244
vn 0.0979 0.9952 -0.0000
vn 0.0826 0.9966 -0.0000
vn 0.0816 0.9966 -0.0081
vn 0.0794 0.9966 -0.0205
vn 0.0950 0.9953 0.0187
vn 0.1157 0.9931 0.0183
vn 0.0970 0.9953 0.0066
vn 0.1166 0.9932 0.0058
vn 0.1478 0.9890 0.0060
vn 0.2168 0.9762 0.0084
vn 0.1876 0.9822 0.0071
vn 0.1482 0.9888 0.0194
vn 0.1891 0.9817 0.0220
vn 0.2184 0.9756 0.0244
vn 0.0816 0.9966 0.0081
vn 0.0794 0.9966 0.0205
# 30 vertex normals

vt 0.3077 0.5242 0.0000
vt 0.3082 0.5064 0.0000
vt 0.3220 0.5242 0.0000
vt 0.3223 0.5065 0.0000
vt 0.3074 0.5464 0.0000
vt 0.2950 0.5241 0.0000
vt 0.2947 0.5464 0.0000
vt 0.2840 0.5242 0.0000
vt 0.2837 0.5464 0.0000
vt 0.2731 0.5243 0.0000
vt 0.2727 0.5464 0.0000
vt 0.2847 0.5064 0.0000
vt 0.2955 0.5064 0.0000
vt 0.2738 0.5064 0.0000
vt 0.3217 0.5464 0.0000
vt 0.3377 0.5464 0.0000
vt 0.3379 0.5242 0.0000
vt 0.3381 0.5065 0.0000
vt 0.3223 0.5863 0.0000
vt 0.3082 0.5864 0.0000
vt 0.3220 0.5685 0.0000
vt 0.3077 0.5686 0.0000
vt 0.2950 0.5687 0.0000
vt 0.2731 0.5685 0.0000
vt 0.2840 0.5686 0.0000
vt 0.2955 0.5864 0.0000
vt 0.2847 0.5864 0.0000
vt 0.2738 0.5864 0.0000
vt 0.3379 0.5686 0.0000
vt 0.3381 0.5863 0.0000
# 30 texture coords

g H025_10_345A_C_1_DaS_H025_10_345A_C
usemtl paint_whiteSG
s 1
f 1/1/1 2/2/2 3/3/3 
f 3/3/3 2/2/2 4/4/4 
f 1/1/1 5/5/5 6/6/6 
f 6/6/6 5/5/5 7/7/7 
f 8/8/8 9/9/9 10/10/10 
f 10/10/10 9/9/9 11/11/11 
f 8/8/8 12/12/12 6/6/6 
f 6/6/6 12/12/12 13/13/13 
f 6/6/6 7/7/7 8/8/8 
f 8/8/8 7/7/7 9/9/9 
f 10/10/10 14/14/14 8/8/8 
f 8/8/8 14/14/14 12/12/12 
f 6/6/6 13/13/13 1/1/1 
f 1/1/1 13/13/13 2/2/2 
f 3/3/3 15/15/15 1/1/1 
f 1/1/1 15/15/15 5/5/5 
f 15/15/15 3/3/3 16/16/16 
f 16/16/16 3/3/3 17/17/17 
f 3/3/3 4/4/4 17/17/17 
f 17/17/17 4/4/4 18/18/18 
f 19/19/19 20/20/20 21/21/21 
f 21/21/21 20/20/20 22/22/22 
f 7/7/7 5/5/5 23/23/23 
f 23/23/23 5/5/5 22/22/22 
f 11/11/11 9/9/9 24/24/24 
f 24/24/24 9/9/9 25/25/25 
f 26/26/26 27/27/27 23/23/23 
f 23/23/23 27/27/27 25/25/25 
f 9/9/9 7/7/7 25/25/25 
f 25/25/25 7/7/7 23/23/23 
f 27/27/27 28/28/28 25/25/25 
f 25/25/25 28/28/28 24/24/24 
f 20/20/20 26/26/26 22/22/22 
f 22/22/22 26/26/26 23/23/23 
f 5/5/5 15/15/15 22/22/22 
f 22/22/22 15/15/15 21/21/21 
f 29/29/29 21/21/21 16/16/16 
f 16/16/16 21/21/21 15/15/15 
f 30/30/30 19/19/19 29/29/29 
f 29/29/29 19/19/19 21/21/21 
# 40 faces

