# 3ds Max Wavefront OBJ Exporter v0.97b - (c)2007 guruware
# File Created: 20.12.2015 14:36:01

mtllib Y156_FLOR_C.mtl

#
# object Y156_FLOR_C_N_Y156_FLOR_C
#

v  260.2996 -51.3859 64.4181
v  260.2996 -51.3859 -64.4181
v  261.4897 -50.9725 61.6251
v  261.4897 -50.9725 -61.6251
v  262.7126 -50.0257 -59.7261
v  262.7126 -50.0257 59.7261
v  263.6515 -49.0699 -58.6944
v  263.6515 -49.0699 58.6944
v  264.0649 -48.6259 -58.2831
v  264.1819 -48.5003 -58.1667
v  264.3068 -48.3929 -57.8244
v  264.5758 -48.2913 -56.0312
v  265.0466 -48.2394 -51.6885
v  265.6323 -48.2179 -44.9079
v  266.2292 -48.1998 -36.0631
v  266.8124 -48.1888 -25.3671
v  267.3327 -48.1916 -13.1032
v  267.5657 -48.1963 0.0000
v  267.3327 -48.1916 13.1032
v  266.8124 -48.1888 25.3671
v  266.2292 -48.1998 36.0631
v  265.6323 -48.2179 44.9079
v  265.0466 -48.2394 51.6885
v  264.5758 -48.2913 56.0312
v  264.0649 -48.6259 58.2831
v  264.1819 -48.5003 58.1667
v  264.3068 -48.3929 57.8244
v  127.4135 -51.9387 67.9814
v  127.4135 -51.9387 -67.9814
v  215.1508 -52.2452 67.9814
v  215.1508 -52.2452 -67.9814
v  127.4135 -51.9387 -95.0256
v  125.3887 -52.5765 -94.5320
v  127.4135 -51.9387 95.0256
v  125.3887 -52.5765 94.5320
v  -106.6803 -51.6452 -95.0257
v  -92.5203 -52.4328 -94.5320
v  -106.6803 -51.6452 -67.9814
v  -106.6803 -51.6452 95.0257
v  -106.6803 -51.6451 67.9814
v  -92.5203 -52.4328 94.5320
v  121.2828 -52.6586 -94.4615
v  121.2828 -52.6586 94.4615
v  114.5981 -52.6589 -94.4615
v  114.5981 -52.6589 94.4615
v  106.1612 -52.6487 -94.4615
v  106.1612 -52.6487 94.4615
v  -78.4492 -52.5453 -94.4615
v  -78.4492 -52.5453 94.4615
v  96.8684 -52.6097 -94.4615
v  86.5687 -52.5669 -94.4615
v  74.7566 -52.5480 -94.4615
v  60.5563 -52.5453 -94.4615
v  43.4853 -52.5453 -94.4615
v  96.8684 -52.6097 94.4615
v  86.5687 -52.5669 94.4615
v  74.7566 -52.5480 94.4615
v  60.5563 -52.5453 94.4615
v  43.4853 -52.5453 94.4615
v  25.0073 -52.5453 -94.4615
v  25.0073 -52.5453 94.4615
v  6.7087 -52.5453 -94.4615
v  6.7087 -52.5453 94.4615
v  -11.2769 -52.5453 -94.4615
v  -11.2769 -52.5453 94.4615
v  -29.0748 -52.5453 -94.4615
v  -29.0748 -52.5453 94.4615
v  -46.3923 -52.5453 -94.4615
v  -46.3923 -52.5453 94.4615
v  -62.8889 -52.5453 -94.4615
v  -62.8889 -52.5453 94.4615
v  -193.4835 -47.5114 67.9813
v  -193.4835 -47.5114 0.2624
v  -193.4835 -47.5114 -67.9813
v  -193.4835 -47.5114 -94.3908
v  -211.9965 -47.2850 -93.1976
v  -193.4835 -47.5114 94.3908
v  -211.9965 -47.2850 93.1976
v  -259.6572 -43.1146 -81.5756
v  -259.5209 -43.0216 -81.5424
v  -260.5546 -42.8587 -78.2784
v  -259.6576 -43.1140 81.5743
v  -260.5546 -42.8587 78.2784
v  -259.5209 -43.0215 81.5423
v  -228.3052 -45.9636 -91.8002
v  -228.3052 -45.9636 91.8002
v  -264.8224 -42.4117 -31.6707
v  -264.5831 -42.4133 -37.1832
v  -242.5466 -44.7140 -89.7769
v  -252.5030 -43.8411 -87.4521
v  -265.4340 -42.4100 13.5909
v  -265.5154 -42.4117 6.7954
v  -265.2478 -42.4100 19.8745
v  -265.0617 -42.4100 26.1581
v  -264.8224 -42.4117 31.6706
v  -264.5831 -42.4133 37.1831
v  -264.2224 -42.4183 42.6973
v  -263.8618 -42.4233 48.2114
v  -263.3250 -42.4382 54.2989
v  -262.7882 -42.4532 60.3864
v  -242.5466 -44.7140 89.7769
v  -262.1982 -42.5180 65.8175
v  -261.6083 -42.5828 71.2486
v  -252.5030 -43.8411 87.4521
v  -259.2979 -43.0843 82.3597
v  -257.4217 -43.3719 85.1392
v  215.1508 -52.2452 -95.8613
v  216.8164 -52.7271 -95.3530
v  215.1508 -52.2452 95.8613
v  216.8164 -52.7271 95.3530
v  218.7076 -52.7698 -95.2190
v  220.2461 -52.7465 -95.0138
v  222.6542 -52.6641 -94.4370
v  218.7076 -52.7698 95.2190
v  220.2461 -52.7465 95.0138
v  222.6542 -52.6641 94.4370
v  227.0738 -52.4703 -93.3090
v  227.0738 -52.4703 93.3090
v  232.5267 -52.2431 -91.7888
v  232.5267 -52.2431 91.7889
v  237.7554 -52.0676 -90.0864
v  237.7554 -52.0676 90.0864
v  242.5074 -51.9282 -88.2756
v  242.5074 -51.9282 88.2756
v  246.7660 -51.7926 -86.3163
v  250.4547 -51.6637 -83.8489
v  253.4726 -51.5540 -80.6331
v  255.6803 -51.4794 -77.2246
v  257.0256 -51.4493 -74.2433
v  257.8418 -51.4450 -71.7701
v  258.5192 -51.4450 -69.6508
v  259.2907 -51.4450 -67.3284
v  246.7660 -51.7926 86.3163
v  250.4547 -51.6637 83.8489
v  253.4726 -51.5540 80.6331
v  255.6803 -51.4794 77.2246
v  257.0256 -51.4493 74.2433
v  257.8418 -51.4450 71.7701
v  258.5192 -51.4450 69.6508
v  259.2907 -51.4450 67.3284
v  -265.5154 -42.4117 -6.7955
v  -265.4340 -42.4100 -13.5909
v  -265.5968 -42.4133 0.0000
v  -263.8616 -42.4233 -48.2106
v  -263.3250 -42.4382 -54.2990
v  -262.7882 -42.4532 -60.3865
v  -262.1982 -42.5180 -65.8175
v  -261.6083 -42.5828 -71.2486
v  -259.2979 -43.0843 -82.3597
v  -257.4217 -43.3719 -85.1392
v  -265.0617 -42.4100 -26.1582
v  -265.2478 -42.4100 -19.8746
# 152 vertices

vn 0.1017 -0.9948 -0.0000
vn 0.0354 -0.9994 0.0015
vn 0.3950 -0.9187 -0.0000
vn 0.3989 -0.9170 -0.0000
vn 0.6373 -0.7706 -0.0000
vn 0.6376 -0.7704 -0.0000
vn 0.7165 -0.6976 -0.0000
vn 0.7072 -0.7070 0.0005
vn 0.7318 -0.6815 -0.0000
vn 0.7192 -0.6948 -0.0001
vn 0.6279 -0.7783 -0.0010
vn 0.3596 -0.9331 -0.0034
vn 0.1568 -0.9876 -0.0055
vn 0.1077 -0.9942 -0.0061
vn 0.1179 -0.9930 -0.0059
vn 0.1241 -0.9923 -0.0057
vn 0.1278 -0.9918 -0.0056
vn 0.1707 -0.9853 -0.0033
vn 0.2989 -0.9543 0.0057
vn 0.4542 -0.8907 0.0195
vn 0.5340 -0.8450 0.0283
vn 0.6184 -0.7849 0.0403
vn 0.7150 -0.6965 0.0598
vn 0.7595 -0.6463 0.0747
vn 0.7648 -0.6395 0.0785
vn 0.7649 -0.6394 0.0785
vn 0.7651 -0.6391 0.0785
vn 0.0068 -1.0000 -0.0030
vn 0.0051 -1.0000 0.0001
vn 0.0027 -1.0000 -0.0007
vn 0.0043 -1.0000 0.0001
vn 0.3005 -0.9538 -0.0000
vn 0.1214 -0.9925 0.0146
vn 0.1214 -0.9925 -0.0146
vn -0.0555 -0.9985 -0.0000
vn -0.0251 -0.9996 0.0163
vn -0.0400 -0.9992 0.0010
vn -0.0410 -0.9992 -0.0001
vn -0.0251 -0.9996 -0.0163
vn 0.0065 -0.9996 0.0257
vn 0.0065 -0.9996 -0.0257
vn -0.0008 -0.9996 0.0276
vn -0.0008 -0.9996 -0.0276
vn -0.0034 -0.9996 0.0295
vn 0.0151 -0.9999 -0.0062
vn -0.0158 -0.9999 0.0020
vn -0.0113 -0.9999 -0.0044
vn 0.0082 -1.0000 0.0033
vn -0.0026 -1.0000 0.0045
vn -0.0007 -1.0000 0.0040
vn -0.0001 -1.0000 0.0038
vn 0.0019 -1.0000 0.0004
vn -0.0042 -1.0000 0.0008
vn -0.0030 -1.0000 0.0006
vn -0.0009 -1.0000 0.0001
vn -0.0001 -1.0000 0.0000
vn 0.0000 -1.0000 -0.0000
vn -0.0033 -1.0000 -0.0017
vn -0.0556 -0.9984 -0.0044
vn -0.0580 -0.9983 -0.0000
vn -0.0537 -0.9986 0.0032
vn -0.0122 -0.9999 -0.0000
vn -0.0544 -0.9980 0.0310
vn -0.0544 -0.9980 -0.0310
vn 0.5174 -0.8307 0.2053
vn 0.5150 -0.8324 -0.2046
vn -0.0631 -0.9977 0.0253
vn -0.0635 -0.9977 -0.0252
vn -0.0728 -0.9973 -0.0029
vn -0.0680 -0.9976 0.0138
vn -0.0875 -0.9962 -0.0008
vn -0.0827 -0.9962 0.0261
vn -0.0708 -0.9975 0.0003
vn -0.0705 -0.9975 0.0011
vn -0.0723 -0.9974 0.0021
vn -0.0725 -0.9974 0.0023
vn -0.0728 -0.9973 0.0029
vn -0.0665 -0.9977 -0.0146
vn -0.1064 -0.9943 0.0061
vn -0.1067 -0.9943 0.0063
vn -0.1076 -0.9942 0.0070
vn -0.1046 -0.9945 0.0029
vn -0.0849 -0.9962 -0.0190
vn -0.1113 -0.9938 0.0002
vn -0.1058 -0.9944 -0.0059
vn -0.0802 -0.9963 -0.0324
vn -0.0933 -0.9953 -0.0247
vn -0.0994 -0.9948 -0.0199
vn -0.0676 -0.9960 -0.0579
vn -0.0682 -0.9960 -0.0570
vn -0.2779 -0.9606 -0.0000
vn -0.1563 -0.9877 0.0079
vn -0.1563 -0.9877 -0.0079
vn -0.0071 -0.9998 0.0183
vn 0.0223 -0.9995 0.0227
vn 0.0341 -0.9991 0.0255
vn -0.0071 -0.9998 -0.0183
vn 0.0223 -0.9995 -0.0227
vn 0.0341 -0.9991 -0.0255
vn 0.0356 -0.9990 0.0256
vn 0.0356 -0.9990 -0.0256
vn 0.0301 -0.9993 0.0219
vn 0.0301 -0.9993 -0.0219
vn 0.0247 -0.9995 0.0172
vn 0.0247 -0.9995 -0.0172
vn 0.0238 -0.9996 0.0165
vn 0.0155 -0.9999 -0.0021
vn 0.0239 -0.9996 0.0166
vn 0.0229 -0.9996 0.0142
vn 0.0214 -0.9997 0.0102
vn 0.0199 -0.9998 0.0046
vn 0.0189 -0.9998 -0.0000
vn 0.0113 -0.9999 -0.0023
vn 0.0091 -1.0000 -0.0029
vn 0.0164 -0.9999 -0.0005
vn 0.0328 -0.9995 0.0002
vn 0.0356 -0.9994 0.0005
vn 0.0366 -0.9993 0.0006
vn 0.0335 -0.9994 0.0004
vn 0.0214 -0.9998 0.0000
vn 0.0038 -1.0000 -0.0004
vn -0.0014 -1.0000 -0.0005
vn 0.0065 -1.0000 -0.0004
vn -0.0706 -0.9975 -0.0001
vn -0.0718 -0.9974 -0.0014
vn -0.0706 -0.9975 -0.0000
vn -0.1066 -0.9943 -0.0062
vn -0.1076 -0.9942 -0.0070
vn -0.1061 -0.9943 -0.0054
vn -0.1004 -0.9949 0.0010
vn -0.0953 -0.9954 0.0093
vn -0.0851 -0.9960 0.0258
vn -0.0854 -0.9960 0.0257
vn -0.0762 -0.9957 0.0535
vn -0.0772 -0.9958 0.0500
vn -0.0725 -0.9974 -0.0023
vn -0.0723 -0.9974 -0.0021
# 137 vertex normals

g Y156_FLOR_C_N_Y156_FLOR_C
usemtl diffuse_black_plasticSG
s 1
f 1//1 2//2 3//3 
f 2//2 4//4 3//3 
f 4//4 5//5 3//3 
f 3//3 5//5 6//6 
f 5//5 7//7 6//6 
f 6//6 7//7 8//8 
f 7//7 9//9 8//8 
f 9//9 10//10 8//8 
f 10//10 11//11 8//8 
f 11//11 12//12 8//8 
f 12//12 13//13 8//8 
f 13//13 14//14 8//8 
f 14//14 15//15 8//8 
f 15//15 16//16 8//8 
f 16//16 17//17 8//8 
f 17//17 18//18 8//8 
f 18//18 19//19 8//8 
f 19//19 20//20 8//8 
f 20//20 21//21 8//8 
f 21//21 22//22 8//8 
f 22//22 23//23 8//8 
f 23//23 24//24 8//8 
f 8//8 24//24 25//25 
f 25//25 24//24 26//26 
f 24//24 27//27 26//26 
f 28//28 29//29 30//30 
f 30//30 29//29 31//31 
f 32//32 29//29 33//33 
f 34//32 35//34 28//28 
f 36//35 37//36 38//37 
f 39//35 40//38 41//39 
f 33//33 29//29 42//40 
f 35//34 43//41 28//28 
f 42//40 29//29 44//42 
f 43//41 45//43 28//28 
f 44//42 29//29 46//44 
f 45//43 47//45 28//28 
f 37//36 48//46 38//37 
f 41//39 40//38 49//47 
f 46//44 29//29 50//48 
f 29//29 28//28 50//48 
f 50//48 28//28 51//49 
f 51//49 28//28 52//50 
f 52//50 28//28 53//51 
f 53//51 28//28 54//52 
f 28//28 47//45 54//52 
f 47//45 55//53 54//52 
f 55//53 56//54 54//52 
f 56//54 57//55 54//52 
f 57//55 58//56 54//52 
f 58//56 59//57 54//52 
f 54//52 59//57 60//57 
f 59//57 61//57 60//57 
f 60//57 61//57 62//57 
f 61//57 63//57 62//57 
f 62//57 63//57 64//57 
f 63//57 65//57 64//57 
f 64//57 65//57 66//57 
f 65//57 67//57 66//57 
f 66//57 67//57 68//57 
f 67//57 69//57 68//57 
f 68//57 69//57 70//57 
f 69//57 71//58 70//57 
f 70//57 71//58 48//46 
f 48//46 71//58 38//37 
f 71//58 49//47 38//37 
f 40//38 38//37 49//47 
f 72//59 73//60 40//38 
f 40//38 73//60 74//61 
f 40//38 74//61 38//37 
f 75//62 74//61 76//63 
f 77//62 78//64 72//59 
s off
f 79//65 80//65 81//65 
f 82//66 83//66 84//66 
s 1
f 76//63 74//61 85//67 
f 78//64 86//68 72//59 
f 74//61 87//69 88//70 
f 89//71 85//67 90//72 
f 91//73 92//74 73//60 
f 73//60 72//59 91//73 
f 93//75 72//59 94//76 
f 95//77 72//59 96//78 
f 72//59 86//68 96//78 
f 97//79 86//68 98//80 
f 99//81 86//68 100//82 
f 86//68 101//83 100//82 
f 102//84 101//83 103//85 
f 101//83 104//86 103//85 
f 103//85 104//86 83//87 
f 83//87 104//86 84//88 
f 84//88 104//86 105//89 
f 104//86 106//90 105//89 
f 107//91 108//92 31//31 
f 109//91 30//30 110//93 
f 108//92 111//94 31//31 
f 111//94 112//95 31//31 
f 112//95 113//96 31//31 
f 110//93 30//30 114//97 
f 114//97 30//30 115//98 
f 115//98 30//30 116//99 
f 113//96 117//100 31//31 
f 116//99 30//30 118//101 
f 117//100 119//102 31//31 
f 118//101 30//30 120//103 
f 119//102 121//104 31//31 
f 120//103 30//30 122//105 
f 121//104 123//106 31//31 
f 122//105 30//30 124//107 
f 123//106 125//108 31//31 
f 125//108 126//109 31//31 
f 126//109 127//110 31//31 
f 127//110 128//111 31//31 
f 128//111 129//112 31//31 
f 31//31 129//112 30//30 
f 129//112 130//113 30//30 
f 130//113 131//114 30//30 
f 131//114 132//115 30//30 
f 132//115 2//2 30//30 
f 30//30 2//2 124//107 
f 124//107 2//2 133//116 
f 133//116 2//2 134//117 
f 134//117 2//2 135//118 
f 135//118 2//2 136//119 
f 136//119 2//2 137//120 
f 137//120 2//2 138//121 
f 138//121 2//2 139//122 
f 139//122 2//2 140//123 
f 2//2 1//1 140//123 
f 74//61 141//124 142//125 
f 73//60 143//126 141//124 
f 141//124 74//61 73//60 
f 74//61 88//70 85//67 
f 88//70 144//127 85//67 
f 145//128 146//129 85//67 
f 147//130 148//131 85//67 
f 148//131 81//132 85//67 
f 81//132 80//133 85//67 
f 80//133 149//134 85//67 
f 149//134 150//135 85//67 
f 150//135 90//72 85//67 
f 146//129 147//130 85//67 
f 144//127 145//128 85//67 
f 74//61 151//136 87//69 
f 74//61 152//137 151//136 
f 142//125 152//137 74//61 
f 92//74 143//126 73//60 
f 91//73 72//59 93//75 
f 94//76 72//59 95//77 
f 96//78 86//68 97//79 
f 98//80 86//68 99//81 
f 100//82 101//83 102//84 
# 151 faces

