# 3ds Max Wavefront OBJ Exporter v0.97b - (c)2007 guruware
# File Created: 20.12.2015 14:31:10

mtllib Y156_182C_C.mtl

#
# object Y156_182C_C_D_Y156_182C_C
#

v  131.7380 35.6752 64.8496
v  131.6716 36.5698 66.8757
v  132.1045 36.8204 65.7030
v  133.0537 36.2373 60.8848
v  132.6256 36.0733 62.2968
v  132.4222 36.8369 64.6088
v  132.1815 35.8741 63.5738
v  143.4854 36.4358 13.0041
v  143.6977 36.8551 12.8595
v  143.7196 36.0372 8.0348
v  144.0140 36.7972 6.4475
v  144.1578 36.7713 0.0000
v  143.8857 35.8886 0.0000
v  140.8751 35.9210 31.1726
v  140.8303 33.7642 30.4296
v  136.9578 36.1235 47.0473
v  135.8077 34.3887 51.1270
v  134.1548 36.4900 57.0684
v  132.9369 33.5485 60.3542
v  137.8950 31.0173 43.7798
v  134.1249 31.0719 56.1256
v  141.3353 31.1046 28.5708
v  143.7392 33.8607 0.0000
v  143.2497 34.1669 13.7583
v  142.9591 36.0616 18.9072
v  143.2158 31.3721 13.8276
v  143.6999 31.4691 0.0000
v  138.2661 29.8978 41.3145
v  141.2247 30.0798 27.6031
v  134.5122 30.1275 53.8774
v  142.8317 30.4001 13.7628
v  143.2794 30.5625 0.0000
v  130.1463 35.4003 68.9761
v  130.7225 36.1067 69.2765
v  128.7059 35.1294 72.2933
v  129.1672 35.3587 72.7017
v  129.9280 31.8443 67.0516
v  129.8760 33.7012 68.4565
v  127.3005 34.1446 74.7157
v  124.4935 32.9888 78.9026
v  131.0074 30.9211 63.3617
v  137.4916 36.8513 46.4087
v  133.9890 36.8676 59.0674
v  141.2238 36.8377 31.3561
v  127.2148 34.2241 75.8263
v  124.6931 33.0794 78.6770
v  143.1118 36.8435 20.3052
v  131.6511 35.9199 66.7386
v  132.0905 36.1776 65.5132
v  132.1263 36.2365 65.4861
v  143.9868 36.1331 6.4503
v  144.1363 36.1069 0.0000
v  143.6658 36.1911 12.8600
v  130.6670 35.4642 69.1176
v  129.3349 34.7813 72.6484
v  137.4780 36.1866 46.4058
v  141.2096 36.1731 31.3535
v  133.9745 36.2030 59.0620
v  132.4084 36.1723 64.6080
v  143.0881 36.1792 20.3023
v  127.5675 33.6671 75.8649
v  124.9404 32.4705 78.6191
v  124.6936 32.3671 78.7786
v  131.7380 35.6752 -64.8496
v  132.1045 36.8204 -65.7030
v  131.6716 36.5698 -66.8757
v  133.0537 36.2373 -60.8848
v  132.4222 36.8369 -64.6088
v  132.6256 36.0733 -62.2968
v  132.1815 35.8741 -63.5738
v  143.4854 36.4358 -13.0041
v  143.7196 36.0372 -8.0348
v  143.6977 36.8551 -12.8595
v  144.0140 36.7972 -6.4475
v  140.8751 35.9210 -31.1726
v  136.9578 36.1235 -47.0473
v  140.8303 33.7642 -30.4296
v  135.8077 34.3887 -51.1270
v  134.1548 36.4900 -57.0684
v  132.9369 33.5485 -60.3542
v  137.8950 31.0173 -43.7798
v  134.1249 31.0719 -56.1256
v  141.3353 31.1046 -28.5708
v  143.2497 34.1669 -13.7583
v  142.9591 36.0616 -18.9072
v  143.2158 31.3721 -13.8276
v  138.2661 29.8978 -41.3145
v  141.2247 30.0798 -27.6031
v  134.5122 30.1275 -53.8773
v  142.8317 30.4001 -13.7628
v  130.1463 35.4003 -68.9761
v  130.7225 36.1067 -69.2765
v  128.7059 35.1294 -72.2933
v  129.1672 35.3587 -72.7017
v  129.9280 31.8443 -67.0516
v  129.8760 33.7012 -68.4565
v  127.3005 34.1446 -74.7157
v  124.4935 32.9888 -78.9026
v  131.0074 30.9211 -63.3617
v  137.4916 36.8513 -46.4087
v  133.9890 36.8676 -59.0674
v  141.2238 36.8377 -31.3561
v  127.2148 34.2241 -75.8263
v  124.6931 33.0794 -78.6770
v  143.1118 36.8435 -20.3052
v  131.6511 35.9199 -66.7386
v  132.0905 36.1776 -65.5131
v  132.1263 36.2365 -65.4861
v  143.9868 36.1331 -6.4503
v  143.6658 36.1911 -12.8600
v  130.6670 35.4642 -69.1176
v  129.3349 34.7813 -72.6484
v  137.4780 36.1866 -46.4058
v  141.2096 36.1731 -31.3535
v  133.9745 36.2030 -59.0620
v  132.4084 36.1723 -64.6080
v  143.0881 36.1792 -20.3023
v  127.5675 33.6671 -75.8649
v  124.9404 32.4705 -78.6192
v  124.6936 32.3671 -78.7786
# 120 vertices

vn -0.9064 0.2599 -0.3328
vn -0.7955 0.5482 -0.2581
vn -0.8641 0.4488 -0.2279
vn -0.9395 0.2020 -0.2765
vn -0.9370 0.2118 -0.2777
vn -0.8461 0.4791 -0.2337
vn -0.9303 0.2264 -0.2887
vn -0.9867 0.1487 -0.0663
vn -0.9115 0.4060 -0.0658
vn -0.9875 0.1529 -0.0396
vn -0.9509 0.3081 -0.0282
vn -0.9556 0.2946 -0.0000
vn -0.9912 0.1323 -0.0000
vn -0.9609 0.1799 -0.2103
vn -0.9800 0.0062 -0.1989
vn -0.9578 0.1529 -0.2435
vn -0.9612 0.0226 -0.2750
vn -0.9170 0.3031 -0.2594
vn -0.9338 0.1413 -0.3286
vn -0.9692 -0.0075 -0.2460
vn -0.9367 0.1553 -0.3138
vn -0.9851 0.0207 -0.1706
vn -0.9992 0.0409 -0.0000
vn -0.9957 0.0403 -0.0834
vn -0.9646 0.2311 -0.1272
vn -0.9913 0.1051 -0.0798
vn -0.9910 0.1335 -0.0000
vn -0.9580 0.1794 -0.2239
vn -0.9605 0.2403 -0.1404
vn -0.9070 0.3093 -0.2858
vn -0.9262 0.3716 -0.0640
vn -0.9072 0.4208 -0.0000
vn -0.8647 0.3886 -0.3182
vn -0.7032 0.6829 -0.1977
vn -0.8277 0.4725 -0.3027
vn -0.4774 0.8785 0.0177
vn -0.8246 0.4270 -0.3711
vn -0.8973 0.2517 -0.3625
vn -0.7906 0.4818 -0.3778
vn -0.7857 0.4678 -0.4047
vn -0.8237 0.4448 -0.3516
vn -0.8690 0.4397 -0.2268
vn -0.7581 0.6241 -0.1892
vn -0.9026 0.3827 -0.1968
vn -0.5233 0.8461 -0.1009
vn -0.5031 0.8584 -0.1003
vn -0.8964 0.4209 -0.1389
vn 0.9311 -0.1094 0.3479
vn 0.9311 -0.1048 0.3495
vn 0.9482 -0.0940 0.3034
vn 0.9400 -0.1153 0.3211
vn 0.9499 -0.0616 0.3065
vn 0.9985 -0.0409 0.0364
vn 0.9985 -0.0404 0.0364
vn 0.9995 -0.0329 -0.0000
vn 0.9995 -0.0323 -0.0000
vn 0.9967 -0.0478 0.0650
vn 0.9968 -0.0473 0.0650
vn 0.9316 -0.1418 0.3348
vn 0.9311 -0.1577 0.3288
vn 0.8403 0.1974 0.5049
vn 0.8424 0.1936 0.5029
vn 0.9673 -0.0210 0.2526
vn 0.9774 -0.0218 0.2104
vn 0.9774 -0.0220 0.2104
vn 0.9631 -0.0233 0.2682
vn 0.9631 -0.0232 0.2682
vn 0.9612 -0.0231 0.2750
vn 0.9608 -0.0204 0.2764
vn 0.9907 -0.0360 0.1315
vn 0.9907 -0.0360 0.1316
vn 0.6436 0.4214 0.6389
vn 0.6313 0.4438 0.6359
vn 0.6866 0.2052 0.6975
vn 0.6660 0.2268 0.7107
vn 0.7256 0.0978 0.6811
vn 0.5701 0.1165 0.8132
vn -0.9064 0.2599 0.3328
vn -0.8641 0.4488 0.2279
vn -0.7955 0.5482 0.2581
vn -0.9395 0.2020 0.2765
vn -0.8461 0.4791 0.2337
vn -0.9370 0.2118 0.2777
vn -0.9303 0.2264 0.2887
vn -0.9867 0.1487 0.0663
vn -0.9875 0.1529 0.0396
vn -0.9115 0.4060 0.0658
vn -0.9509 0.3081 0.0282
vn -0.9609 0.1799 0.2103
vn -0.9578 0.1529 0.2435
vn -0.9800 0.0062 0.1989
vn -0.9612 0.0226 0.2750
vn -0.9170 0.3031 0.2594
vn -0.9338 0.1413 0.3286
vn -0.9692 -0.0075 0.2460
vn -0.9367 0.1553 0.3138
vn -0.9851 0.0207 0.1706
vn -0.9957 0.0403 0.0834
vn -0.9646 0.2311 0.1272
vn -0.9913 0.1051 0.0798
vn -0.9580 0.1793 0.2239
vn -0.9605 0.2403 0.1404
vn -0.9070 0.3093 0.2858
vn -0.9262 0.3716 0.0640
vn -0.8647 0.3886 0.3182
vn -0.7032 0.6829 0.1978
vn -0.8277 0.4725 0.3027
vn -0.4774 0.8785 -0.0177
vn -0.8246 0.4270 0.3711
vn -0.8973 0.2517 0.3625
vn -0.7906 0.4818 0.3778
vn -0.7857 0.4678 0.4047
vn -0.8237 0.4448 0.3516
vn -0.8690 0.4397 0.2268
vn -0.7581 0.6241 0.1892
vn -0.9026 0.3828 0.1968
vn -0.5233 0.8461 0.1009
vn -0.5031 0.8584 0.1003
vn -0.8964 0.4209 0.1389
vn 0.9311 -0.1094 -0.3479
vn 0.9482 -0.0940 -0.3034
vn 0.9311 -0.1048 -0.3495
vn 0.9400 -0.1153 -0.3211
vn 0.9499 -0.0616 -0.3065
vn 0.9985 -0.0409 -0.0364
vn 0.9985 -0.0404 -0.0364
vn 0.9967 -0.0479 -0.0650
vn 0.9968 -0.0473 -0.0650
vn 0.9316 -0.1418 -0.3348
vn 0.9311 -0.1577 -0.3288
vn 0.8403 0.1974 -0.5049
vn 0.8424 0.1936 -0.5029
vn 0.9673 -0.0210 -0.2526
vn 0.9774 -0.0218 -0.2104
vn 0.9774 -0.0220 -0.2104
vn 0.9631 -0.0233 -0.2682
vn 0.9631 -0.0232 -0.2682
vn 0.9612 -0.0231 -0.2750
vn 0.9608 -0.0204 -0.2764
vn 0.9907 -0.0359 -0.1315
vn 0.9907 -0.0360 -0.1316
vn 0.6436 0.4214 -0.6389
vn 0.6313 0.4438 -0.6359
vn 0.6866 0.2052 -0.6975
vn 0.6660 0.2268 -0.7107
vn 0.7257 0.0978 -0.6811
vn 0.5701 0.1165 -0.8132
# 147 vertex normals

g Y156_182C_C_D_Y156_182C_C
usemtl diffuse_black_plasticSG
s 1
f 1//1 2//2 3//3 
f 4//4 5//5 6//6 
f 3//3 6//6 7//7 
f 6//6 5//5 7//7 
f 8//8 9//9 10//10 
f 9//9 11//11 10//10 
f 12//12 13//13 11//11 
f 13//13 10//10 11//11 
f 14//14 15//15 16//16 
f 15//15 17//17 16//16 
f 4//4 18//18 17//17 
f 18//18 16//16 17//17 
f 7//7 5//5 19//19 
f 5//5 4//4 19//19 
f 4//4 17//17 19//19 
f 20//20 21//21 17//17 
f 21//21 19//19 17//17 
f 22//22 20//20 15//15 
f 20//20 17//17 15//15 
f 13//13 23//23 10//10 
f 23//23 24//24 10//10 
f 25//25 8//8 24//24 
f 8//8 10//10 24//24 
f 14//14 25//25 15//15 
f 25//25 24//24 15//15 
f 26//26 22//22 24//24 
f 22//22 15//15 24//24 
f 23//23 27//27 24//24 
f 27//27 26//26 24//24 
f 20//20 22//22 28//28 
f 22//22 29//29 28//28 
f 21//21 20//20 30//30 
f 20//20 28//28 30//30 
f 26//26 27//27 31//31 
f 27//27 32//32 31//31 
f 22//22 26//26 29//29 
f 26//26 31//31 29//29 
f 1//1 33//33 2//2 
f 33//33 34//34 2//2 
f 33//33 35//35 34//34 
f 35//35 36//36 34//34 
f 21//21 37//37 19//19 
f 37//37 38//38 19//19 
f 33//33 1//1 38//38 
f 1//1 19//19 38//38 
f 39//39 35//35 38//38 
f 35//35 33//33 38//38 
f 40//40 39//39 37//37 
f 39//39 38//38 37//37 
f 37//37 21//21 41//41 
f 21//21 30//30 41//41 
f 16//16 18//18 42//42 
f 18//18 43//43 42//42 
f 44//44 14//14 42//42 
f 14//14 16//16 42//42 
f 18//18 4//4 43//43 
f 4//4 6//6 43//43 
f 35//35 39//39 36//36 
f 39//39 45//45 36//36 
f 40//40 46//46 39//39 
f 39//39 46//46 45//45 
f 8//8 25//25 9//9 
f 25//25 47//47 9//9 
f 25//25 14//14 47//47 
f 14//14 44//44 47//47 
f 40//40 37//37 41//41 
s 12
f 2//48 48//49 3//50 
f 48//49 49//51 3//50 
f 3//50 49//51 50//52 
f 11//53 51//54 12//55 
f 51//54 52//56 12//55 
f 9//57 53//58 11//53 
f 53//58 51//54 11//53 
f 34//59 54//60 2//48 
f 54//60 48//49 2//48 
f 36//61 55//62 34//59 
f 55//62 54//60 34//59 
f 42//63 56//63 44//64 
f 56//63 57//65 44//64 
f 43//66 58//67 42//63 
f 58//67 56//63 42//63 
f 43//66 6//68 58//67 
f 6//68 59//69 58//67 
f 3//50 50//52 6//68 
f 50//52 59//69 6//68 
f 9//57 47//70 53//58 
f 47//70 60//71 53//58 
f 44//64 57//65 47//70 
f 57//65 60//71 47//70 
f 36//61 45//72 55//62 
f 45//72 61//73 55//62 
f 46//74 62//75 45//72 
f 62//75 61//73 45//72 
f 40//76 63//77 46//74 
f 63//77 62//75 46//74 
s 1
f 7//7 1//1 3//3 
f 19//19 1//1 7//7 
f 64//78 65//79 66//80 
f 67//81 68//82 69//83 
f 65//79 70//84 68//82 
f 68//82 70//84 69//83 
f 71//85 72//86 73//87 
f 73//87 72//86 74//88 
f 12//12 74//88 13//13 
f 13//13 74//88 72//86 
f 75//89 76//90 77//91 
f 77//91 76//90 78//92 
f 67//81 78//92 79//93 
f 79//93 78//92 76//90 
f 70//84 80//94 69//83 
f 69//83 80//94 67//81 
f 80//94 78//92 67//81 
f 81//95 78//92 82//96 
f 82//96 78//92 80//94 
f 83//97 77//91 81//95 
f 81//95 77//91 78//92 
f 13//13 72//86 23//23 
f 23//23 72//86 84//98 
f 85//99 84//98 71//85 
f 71//85 84//98 72//86 
f 75//89 77//91 85//99 
f 85//99 77//91 84//98 
f 86//100 84//98 83//97 
f 83//97 84//98 77//91 
f 23//23 84//98 27//27 
f 27//27 84//98 86//100 
f 81//95 87//101 83//97 
f 83//97 87//101 88//102 
f 82//96 89//103 81//95 
f 81//95 89//103 87//101 
f 86//100 90//104 27//27 
f 27//27 90//104 32//32 
f 83//97 88//102 86//100 
f 86//100 88//102 90//104 
f 64//78 66//80 91//105 
f 91//105 66//80 92//106 
f 91//105 92//106 93//107 
f 93//107 92//106 94//108 
f 82//96 80//94 95//109 
f 95//109 80//94 96//110 
f 91//105 96//110 64//78 
f 64//78 96//110 80//94 
f 97//111 96//110 93//107 
f 93//107 96//110 91//105 
f 98//112 95//109 97//111 
f 97//111 95//109 96//110 
f 95//109 99//113 82//96 
f 82//96 99//113 89//103 
f 76//90 100//114 79//93 
f 79//93 100//114 101//115 
f 102//116 100//114 75//89 
f 75//89 100//114 76//90 
f 79//93 101//115 67//81 
f 67//81 101//115 68//82 
f 93//107 94//108 97//111 
f 97//111 94//108 103//117 
f 98//112 97//111 104//118 
f 97//111 103//117 104//118 
f 71//85 73//87 85//99 
f 85//99 73//87 105//119 
f 85//99 105//119 75//89 
f 75//89 105//119 102//116 
f 98//112 99//113 95//109 
s 12
f 66//120 65//121 106//122 
f 106//122 65//121 107//123 
f 65//121 108//124 107//123 
f 74//125 12//55 109//126 
f 109//126 12//55 52//56 
f 73//127 74//125 110//128 
f 110//128 74//125 109//126 
f 92//129 66//120 111//130 
f 111//130 66//120 106//122 
f 94//131 92//129 112//132 
f 112//132 92//129 111//130 
f 100//133 102//134 113//133 
f 113//133 102//134 114//135 
f 101//136 100//133 115//137 
f 115//137 100//133 113//133 
f 101//136 115//137 68//138 
f 68//138 115//137 116//139 
f 65//121 68//138 108//124 
f 108//124 68//138 116//139 
f 73//127 110//128 105//140 
f 105//140 110//128 117//141 
f 102//134 105//140 114//135 
f 114//135 105//140 117//141 
f 94//131 112//132 103//142 
f 103//142 112//132 118//143 
f 104//144 103//142 119//145 
f 119//145 103//142 118//143 
f 98//146 104//144 120//147 
f 120//147 104//144 119//145 
s 1
f 70//84 65//79 64//78 
f 80//94 70//84 64//78 
# 194 faces

