# 3ds Max Wavefront OBJ Exporter v0.97b - (c)2007 guruware
# File Created: 20.12.2015 14:28:30

mtllib Y156_18A5_L.mtl

#
# object Y156_18A5_L_1_DaS_Y156_18A5_L
#

v  -63.1471 75.3393 -67.2253
v  -63.1476 75.4778 -67.2474
v  -46.4898 76.2992 -66.4886
v  -46.4893 76.4372 -66.5129
v  -29.1163 76.7783 -65.9270
v  -29.1153 76.9159 -65.9524
v  -11.3067 76.7819 -65.7742
v  6.4758 75.7069 -66.3060
v  -11.3077 76.6444 -65.7481
v  6.4761 75.5691 -66.2793
v  -18.8445 76.8383 -65.8497
v  23.7201 74.0674 -67.2331
v  23.7278 73.9277 -67.2077
v  39.3863 71.5685 -68.7189
v  39.4067 71.4232 -68.7003
v  49.6142 69.3816 -70.2261
v  49.5751 69.2519 -70.2098
v  57.4332 66.0968 -71.6061
v  57.5053 66.2174 -71.6366
v  -63.1500 76.8884 -66.2295
v  -63.1497 76.9110 -66.0913
v  -46.4916 77.7529 -65.5939
v  -46.4923 77.7773 -65.4562
v  -29.1165 78.1852 -65.0800
v  -29.1177 78.2107 -64.9425
v  -11.3077 78.0741 -64.8949
v  -11.3088 78.1004 -64.7575
v  6.4540 77.1214 -65.2371
v  6.4560 77.0942 -65.3745
v  23.5790 75.3554 -66.2501
v  23.5889 75.3269 -66.3883
v  39.0518 72.8055 -67.7268
v  39.0758 72.7773 -67.8676
v  50.0901 70.3222 -69.2553
v  50.0623 70.3129 -69.3956
v  58.3937 67.1022 -70.9428
v  58.4483 67.1077 -70.8133
v  -46.4912 76.1651 -66.2975
v  -63.1461 75.2025 -67.0361
v  -29.1190 76.6459 -65.7346
v  -11.3101 76.5131 -65.5550
v  -18.8486 76.5690 -65.6312
v  6.4741 75.4387 -66.0857
v  23.7252 73.7963 -67.0148
v  39.4024 71.2849 -68.5124
v  49.5619 69.1098 -70.0253
v  57.4127 65.9611 -71.4173
v  -63.1488 76.7742 -65.9021
v  -46.4938 77.6432 -65.2651
v  -29.1204 78.0783 -64.7502
v  -11.3113 77.9691 -64.5644
v  6.4520 76.9910 -65.0435
v  23.5764 75.2241 -66.0571
v  39.0475 72.6672 -67.5389
v  50.0768 70.1802 -69.0708
v  58.4277 66.9721 -70.6246
# 56 vertices

vn 0.0701 -0.6111 -0.7885
vn 0.0062 0.5374 -0.8433
vn 0.0562 -0.6182 -0.7840
vn 0.0093 0.5255 -0.8507
vn 0.0182 -0.6275 -0.7784
vn 0.0124 0.5031 -0.8641
vn 0.0086 0.5277 -0.8494
vn 0.0038 0.5110 -0.8596
vn -0.0416 -0.6291 -0.7762
vn -0.0813 -0.6309 -0.7716
vn 0.0124 0.4861 -0.8738
vn 0.0021 0.5070 -0.8619
vn -0.1360 -0.6211 -0.7718
vn 0.0018 0.5249 -0.8512
vn -0.2000 -0.5886 -0.7833
vn 0.0479 0.5997 -0.7988
vn -0.2835 -0.5205 -0.8054
vn -0.3462 -0.5149 -0.7843
vn 0.0532 0.5392 -0.8405
vn -0.0013 0.6247 -0.7809
vn -0.0615 0.9444 0.3229
vn 0.0033 0.6196 -0.7849
vn -0.0468 0.9476 0.3161
vn 0.0100 0.6159 -0.7878
vn -0.0148 0.9508 0.3096
vn 0.0125 0.6122 -0.7906
vn 0.0315 0.9516 0.3058
vn 0.0872 0.9501 0.2996
vn 0.0138 0.6044 -0.7966
vn 0.1467 0.9426 0.2999
vn 0.0199 0.6086 -0.7932
vn 0.2099 0.9227 0.3233
vn 0.0295 0.6272 -0.7783
vn 0.3149 0.8831 0.3477
vn 0.0896 0.6924 -0.7159
vn 0.1026 0.6353 -0.7654
vn 0.3919 0.8577 0.3328
vn 0.0565 -0.8175 -0.5732
vn 0.0724 -0.8081 -0.5846
vn 0.0154 -0.8242 -0.5661
vn -0.0470 -0.8258 -0.5619
vn -0.0005 -0.8244 -0.5660
vn -0.0872 -0.8257 -0.5573
vn -0.1439 -0.8170 -0.5584
vn -0.2102 -0.7850 -0.5828
vn -0.3146 -0.7414 -0.5928
vn -0.3915 -0.7265 -0.5647
vn -0.0646 0.8085 0.5849
vn -0.0507 0.8177 0.5734
vn -0.0189 0.8236 0.5668
vn 0.0299 0.8265 0.5622
vn 0.0888 0.8256 0.5572
vn 0.1509 0.8162 0.5577
vn 0.2152 0.7842 0.5820
vn 0.3121 0.7420 0.5934
vn 0.3857 0.7286 0.5660
# 56 vertex normals

vt 0.4151 0.7388 0.0000
vt 0.4151 0.7386 0.0000
vt 0.4467 0.7370 0.0000
vt 0.4467 0.7368 0.0000
vt 0.4796 0.7361 0.0000
vt 0.4796 0.7359 0.0000
vt 0.5134 0.7361 0.0000
vt 0.5470 0.7382 0.0000
vt 0.5134 0.7364 0.0000
vt 0.5470 0.7384 0.0000
vt 0.4991 0.7360 0.0000
vt 0.5797 0.7413 0.0000
vt 0.5797 0.7415 0.0000
vt 0.6094 0.7460 0.0000
vt 0.6094 0.7463 0.0000
vt 0.6288 0.7501 0.0000
vt 0.6287 0.7504 0.0000
vt 0.6436 0.7564 0.0000
vt 0.6437 0.7561 0.0000
vt 0.4151 0.7359 0.0000
vt 0.4467 0.7343 0.0000
vt 0.4467 0.7342 0.0000
vt 0.4796 0.7335 0.0000
vt 0.4796 0.7334 0.0000
vt 0.5134 0.7337 0.0000
vt 0.5134 0.7336 0.0000
vt 0.5470 0.7355 0.0000
vt 0.5795 0.7388 0.0000
vt 0.5795 0.7389 0.0000
vt 0.6088 0.7436 0.0000
vt 0.6088 0.7437 0.0000
vt 0.6297 0.7484 0.0000
vt 0.6296 0.7484 0.0000
vt 0.6454 0.7545 0.0000
vt 0.6455 0.7544 0.0000
vt 0.4467 0.7373 0.0000
vt 0.4151 0.7391 0.0000
vt 0.4796 0.7364 0.0000
vt 0.5133 0.7366 0.0000
vt 0.4991 0.7365 0.0000
vt 0.5470 0.7387 0.0000
vt 0.5797 0.7418 0.0000
vt 0.6094 0.7465 0.0000
vt 0.6287 0.7506 0.0000
vt 0.6436 0.7566 0.0000
vt 0.4151 0.7361 0.0000
vt 0.4467 0.7345 0.0000
vt 0.4796 0.7337 0.0000
vt 0.5133 0.7339 0.0000
vt 0.5470 0.7357 0.0000
vt 0.5794 0.7391 0.0000
vt 0.6088 0.7439 0.0000
vt 0.6297 0.7486 0.0000
vt 0.6455 0.7547 0.0000
# 54 texture coords

g Y156_18A5_L_1_DaS_Y156_18A5_L
usemtl chrome_1SG
s 1
f 1/1/1 2/2/2 3/3/3 
f 3/3/3 2/2/2 4/4/4 
f 3/3/3 4/4/4 5/5/5 
f 5/5/5 4/4/4 6/6/6 
f 7/7/7 8/8/8 9/9/9 
f 9/9/9 8/8/8 10/10/10 
f 7/7/7 9/9/9 11/11/11 
f 5/5/5 6/6/6 11/11/11 
f 11/11/11 9/9/9 5/5/5 
f 8/8/8 12/12/12 10/10/10 
f 10/10/10 12/12/12 13/13/13 
f 12/12/12 14/14/14 13/13/13 
f 13/13/13 14/14/14 15/15/15 
f 14/14/14 16/16/16 15/15/15 
f 15/15/15 16/16/16 17/17/17 
f 17/17/17 16/16/16 18/18/18 
f 18/18/18 16/16/16 19/19/19 
f 20/20/20 21/20/21 22/21/22 
f 22/21/22 21/20/21 23/22/23 
f 22/21/22 23/22/23 24/23/24 
f 24/23/24 23/22/23 25/24/25 
f 24/23/24 25/24/25 26/25/26 
f 26/25/26 25/24/25 27/26/27 
f 27/26/27 28/27/28 26/25/26 
f 26/25/26 28/27/28 29/27/29 
f 28/27/28 30/28/30 29/27/29 
f 29/27/29 30/28/30 31/29/31 
f 30/28/30 32/30/32 31/29/31 
f 31/29/31 32/30/32 33/31/33 
f 32/30/32 34/32/34 33/31/33 
f 33/31/33 34/32/34 35/33/35 
f 35/33/35 34/32/34 36/34/36 
f 36/34/36 34/32/34 37/35/37 
f 2/2/2 20/20/20 4/4/4 
f 4/4/4 20/20/20 22/21/22 
f 4/4/4 22/21/22 6/6/6 
f 6/6/6 22/21/22 24/23/24 
f 24/23/24 26/25/26 6/6/6 
f 26/25/26 7/7/7 11/11/11 
f 11/11/11 6/6/6 26/25/26 
f 8/8/8 7/7/7 29/27/29 
f 29/27/29 7/7/7 26/25/26 
f 12/12/12 8/8/8 31/29/31 
f 31/29/31 8/8/8 29/27/29 
f 14/14/14 12/12/12 33/31/33 
f 33/31/33 12/12/12 31/29/31 
f 16/16/16 14/14/14 35/33/35 
f 35/33/35 14/14/14 33/31/33 
f 16/16/16 35/33/35 19/19/19 
f 19/19/19 35/33/35 36/34/36 
f 38/36/38 39/37/39 3/3/3 
f 3/3/3 39/37/39 1/1/1 
f 40/38/40 38/36/38 5/5/5 
f 5/5/5 38/36/38 3/3/3 
f 41/39/41 42/40/42 9/9/9 
f 42/40/42 40/38/40 5/5/5 
f 5/5/5 9/9/9 42/40/42 
f 43/41/43 41/39/41 10/10/10 
f 10/10/10 41/39/41 9/9/9 
f 44/42/44 43/41/43 13/13/13 
f 13/13/13 43/41/43 10/10/10 
f 45/43/45 44/42/44 15/15/15 
f 15/15/15 44/42/44 13/13/13 
f 45/43/45 15/15/15 46/44/46 
f 46/44/46 15/15/15 17/17/17 
f 47/45/47 46/44/46 18/18/18 
f 18/18/18 46/44/46 17/17/17 
f 48/46/48 49/47/49 21/20/21 
f 21/20/21 49/47/49 23/22/23 
f 49/47/49 50/48/50 23/22/23 
f 23/22/23 50/48/50 25/24/25 
f 50/48/50 51/49/51 25/24/25 
f 25/24/25 51/49/51 27/26/27 
f 51/49/51 52/50/52 27/26/27 
f 27/26/27 52/50/52 28/27/28 
f 52/50/52 53/51/53 28/27/28 
f 28/27/28 53/51/53 30/28/30 
f 53/51/53 54/52/54 30/28/30 
f 30/28/30 54/52/54 32/30/32 
f 54/52/54 55/53/55 32/30/32 
f 32/30/32 55/53/55 34/32/34 
f 55/53/55 56/54/56 34/32/34 
f 34/32/34 56/54/56 37/35/37 
# 83 faces

#
# object Y156_18A5_L_Y156_18A5_L_2_DaS
#

v  50.8110 71.8859 -66.6592
v  51.2340 72.6393 -64.2301
v  57.2804 70.8604 -64.5921
v  39.4025 71.2849 -68.5124
v  23.7252 73.7963 -67.0148
v  23.5694 75.3455 -65.8717
v  50.1830 70.5484 -68.7524
v  58.6334 67.7670 -69.8961
v  57.4127 65.9611 -71.4173
v  -46.4942 77.9163 -65.1765
v  -29.1206 78.3758 -64.5887
v  -29.1190 76.6459 -65.7347
v  -63.1488 77.0093 -65.9138
v  -46.4912 76.1651 -66.2975
v  38.6899 75.4963 -63.2868
v  6.4227 79.7951 -61.6936
v  23.3808 78.0109 -62.4492
v  23.4247 77.1325 -63.9112
v  -11.3131 80.6847 -61.5035
v  6.4309 78.8296 -63.1051
v  -46.4968 79.5079 -63.6593
v  -63.1518 78.5452 -64.4779
v  -63.1544 79.5855 -62.9990
v  -29.1228 80.9111 -61.6884
v  -11.3126 79.8180 -62.8506
v  -29.1220 79.9489 -63.0538
v  -46.4983 80.5163 -62.2485
v  38.9072 74.6069 -65.3094
v  6.4741 75.4387 -66.0857
v  -11.3101 76.5131 -65.5550
v  -11.3112 77.9641 -64.6650
v  49.5619 69.1098 -70.0253
v  39.1904 72.9156 -67.3660
v  6.4525 76.9890 -64.9809
v  60.8543 69.6871 -65.1320
v  59.7337 68.9817 -67.9207
v  -63.1457 75.2023 -67.0368
# 37 vertices

vn 0.1816 0.8741 -0.4505
vn 0.2080 0.9234 -0.3226
vn 0.2495 0.9106 -0.3296
vn 0.0068 0.5765 -0.8171
vn 0.0169 0.5942 -0.8041
vn 0.0341 0.6823 -0.7303
vn 0.1184 0.7442 -0.6574
vn 0.1551 0.7002 -0.6969
vn 0.1004 0.6022 -0.7920
vn 0.0055 0.6202 -0.7844
vn 0.0108 0.6314 -0.7754
vn 0.0114 0.5510 -0.8344
vn -0.0074 0.6089 -0.7932
vn 0.0101 0.5387 -0.8425
vn 0.1437 0.9131 -0.3815
vn 0.0451 0.8257 -0.5623
vn 0.0806 0.8591 -0.5055
vn 0.0605 0.7904 -0.6095
vn 0.0274 0.8402 -0.5416
vn 0.0373 0.7618 -0.6467
vn -0.0037 0.7486 -0.6630
vn -0.0224 0.7492 -0.6620
vn -0.0299 0.8174 -0.5753
vn 0.0065 0.8181 -0.5750
vn 0.0229 0.7590 -0.6507
vn 0.0085 0.7534 -0.6576
vn -0.0093 0.8136 -0.5813
vn 0.1101 0.8460 -0.5217
vn 0.0139 0.5789 -0.8153
vn 0.0093 0.5229 -0.8524
vn 0.0158 0.6346 -0.7727
vn 0.0739 0.6385 -0.7661
vn 0.0494 0.6963 -0.7160
vn 0.0242 0.6608 -0.7501
vn 0.3134 0.8838 -0.3475
vn 0.2566 0.8438 -0.4713
vn 0.0006 0.5287 -0.8488
# 37 vertex normals

vt 0.6299 0.7428 0.0000
vt 0.6302 0.7383 0.0000
vt 0.6426 0.7403 0.0000
vt 0.6094 0.7465 0.0000
vt 0.5797 0.7418 0.0000
vt 0.5792 0.7383 0.0000
vt 0.6293 0.7472 0.0000
vt 0.6456 0.7519 0.0000
vt 0.6436 0.7566 0.0000
vt 0.4465 0.7334 0.0000
vt 0.4794 0.7325 0.0000
vt 0.4796 0.7364 0.0000
vt 0.4152 0.7352 0.0000
vt 0.4467 0.7373 0.0000
vt 0.6070 0.7343 0.0000
vt 0.5462 0.7271 0.0000
vt 0.5783 0.7303 0.0000
vt 0.5785 0.7334 0.0000
vt 0.5128 0.7257 0.0000
vt 0.5464 0.7303 0.0000
vt 0.4463 0.7294 0.0000
vt 0.4153 0.7313 0.0000
vt 0.4153 0.7279 0.0000
vt 0.4791 0.7253 0.0000
vt 0.5129 0.7287 0.0000
vt 0.4792 0.7285 0.0000
vt 0.4462 0.7261 0.0000
vt 0.6077 0.7382 0.0000
vt 0.5470 0.7387 0.0000
vt 0.5133 0.7366 0.0000
vt 0.5132 0.7335 0.0000
vt 0.6287 0.7506 0.0000
vt 0.6086 0.7430 0.0000
vt 0.5468 0.7351 0.0000
vt 0.6496 0.7420 0.0000
vt 0.6474 0.7474 0.0000
vt 0.4151 0.7391 0.0000
# 37 texture coords

g Y156_18A5_L_Y156_18A5_L_2_DaS
usemtl paint_whiteSG
s 1
f 57/55/57 58/56/58 59/57/59 
f 60/58/60 61/59/61 62/60/62 
f 63/61/63 64/62/64 65/63/65 
f 66/64/66 67/65/67 68/66/68 
f 69/67/69 66/64/66 70/68/70 
f 71/69/71 58/56/58 57/55/57 
f 72/70/72 73/71/73 74/72/74 
f 75/73/75 72/70/72 76/74/76 
f 77/75/77 78/76/78 79/77/79 
f 80/78/80 75/73/75 81/79/81 
f 82/80/82 77/75/77 83/81/83 
f 73/71/73 71/69/71 84/82/84 
f 85/83/85 86/84/86 87/85/87 
f 88/86/88 60/58/60 89/87/89 
f 61/59/61 85/83/85 90/88/90 
f 68/66/68 67/65/67 87/85/87 
f 91/89/91 92/90/92 59/57/59 
f 89/87/89 62/60/62 74/72/74 
f 78/76/78 77/75/77 66/64/66 
f 64/62/64 63/61/63 57/55/57 
f 63/61/63 89/87/89 84/82/84 
f 67/65/67 66/64/66 77/75/77 
f 87/85/87 67/65/67 82/80/82 
f 90/88/90 87/85/87 81/79/81 
f 62/60/62 90/88/90 76/74/76 
f 92/90/92 57/55/57 59/57/59 
f 89/87/89 60/58/60 62/60/62 
f 88/86/88 63/61/63 65/63/65 
f 70/68/70 66/64/66 68/66/68 
f 93/91/93 69/67/69 70/68/70 
f 84/82/84 71/69/71 57/55/57 
f 76/74/76 72/70/72 74/72/74 
f 81/79/81 75/73/75 76/74/76 
f 83/81/83 77/75/77 79/77/79 
f 82/80/82 80/78/80 81/79/81 
f 80/78/80 82/80/82 83/81/83 
f 74/72/74 73/71/73 84/82/84 
f 90/88/90 85/83/85 87/85/87 
f 63/61/63 88/86/88 89/87/89 
f 62/60/62 61/59/61 90/88/90 
f 86/84/86 68/66/68 87/85/87 
f 84/82/84 89/87/89 74/72/74 
f 69/67/69 78/76/78 66/64/66 
f 92/90/92 64/62/64 57/55/57 
f 57/55/57 63/61/63 84/82/84 
f 82/80/82 67/65/67 77/75/77 
f 81/79/81 87/85/87 82/80/82 
f 76/74/76 90/88/90 81/79/81 
f 74/72/74 62/60/62 76/74/76 
# 49 faces

#
# object Y156_18A5_L_Y156_18A5_L_2_DaS_E
#

v  39.4025 71.2849 -68.5124
v  39.3962 70.8962 -67.9734
v  23.7185 73.4221 -66.4654
v  23.7252 73.7963 -67.0148
v  6.4683 75.0672 -65.5345
v  -46.4983 80.5163 -62.2485
v  -46.4933 80.2763 -62.1341
v  -29.1240 80.6706 -61.5749
v  23.3808 78.0109 -62.4492
v  23.3531 77.7684 -62.3439
v  38.6466 75.2511 -63.1945
v  -11.3131 80.6847 -61.5035
v  -11.3207 80.4435 -61.3918
v  6.4068 79.5533 -61.5842
v  -63.1544 79.5855 -62.9990
v  -63.1415 79.3440 -62.8859
v  -11.3101 76.5131 -65.5550
v  -11.3174 76.1398 -65.0051
v  -18.7004 76.1932 -65.0806
v  38.6899 75.4963 -63.2868
v  51.1715 72.3903 -64.1634
v  6.4741 75.4387 -66.0857
v  49.5324 68.7219 -69.4870
v  6.4227 79.7951 -61.6936
v  -29.1190 76.6459 -65.7347
v  -29.1269 76.2687 -65.1874
v  -46.4959 75.7834 -65.7533
v  57.4127 65.9611 -71.4173
v  57.3574 65.5863 -70.8711
v  -46.4912 76.1651 -66.2975
v  -63.1448 74.8130 -66.4982
v  57.2072 70.6100 -64.5406
v  57.2804 70.8604 -64.5921
v  -29.1228 80.9111 -61.6884
v  51.2340 72.6393 -64.2301
v  49.5619 69.1098 -70.0253
v  -63.1457 75.2023 -67.0368
# 37 vertices

vn -0.2184 -0.7904 -0.5724
vn -0.2184 -0.7903 -0.5725
vn -0.1459 -0.8167 -0.5584
vn -0.1459 -0.8169 -0.5580
vn -0.0875 -0.8257 -0.5574
vn -0.0517 0.4289 0.9019
vn -0.0516 0.4289 0.9019
vn -0.0213 0.4270 0.9040
vn 0.0980 0.3868 0.9169
vn 0.0981 0.3872 0.9168
vn 0.1264 0.3301 0.9354
vn 0.0134 0.4197 0.9076
vn 0.0134 0.4198 0.9075
vn 0.0570 0.4083 0.9111
vn -0.0644 0.4206 0.9050
vn -0.0334 -0.8266 -0.5618
vn -0.0334 -0.8267 -0.5617
vn -0.0002 -0.8273 -0.5617
vn 0.1263 0.3292 0.9358
vn 0.1246 0.2274 0.9658
vn -0.0875 -0.8257 -0.5573
vn -0.3236 -0.7593 -0.5645
vn 0.0570 0.4082 0.9111
vn 0.0205 -0.8233 -0.5672
vn 0.0205 -0.8234 -0.5671
vn 0.0572 -0.8176 -0.5729
vn -0.3929 -0.7389 -0.5473
vn -0.3930 -0.7391 -0.5471
vn 0.0572 -0.8175 -0.5731
vn 0.0727 -0.8085 -0.5840
vn 0.1111 0.1690 0.9793
vn 0.1114 0.1706 0.9790
vn -0.0213 0.4269 0.9040
vn -0.0646 0.4284 0.9013
vn 0.1246 0.2275 0.9658
vn -0.3234 -0.7592 -0.5648
vn 0.0727 -0.8083 -0.5843
# 37 vertex normals

vt 0.6094 0.7465 0.0000
vt 0.6094 0.7473 0.0000
vt 0.5797 0.7425 0.0000
vt 0.5797 0.7418 0.0000
vt 0.5470 0.7394 0.0000
vt 0.4462 0.7261 0.0000
vt 0.4461 0.7256 0.0000
vt 0.4791 0.7248 0.0000
vt 0.5783 0.7303 0.0000
vt 0.5783 0.7298 0.0000
vt 0.6070 0.7338 0.0000
vt 0.5128 0.7257 0.0000
vt 0.5127 0.7252 0.0000
vt 0.5462 0.7266 0.0000
vt 0.4153 0.7279 0.0000
vt 0.4153 0.7274 0.0000
vt 0.5133 0.7366 0.0000
vt 0.5133 0.7373 0.0000
vt 0.4993 0.7372 0.0000
vt 0.6070 0.7343 0.0000
vt 0.6302 0.7378 0.0000
vt 0.5470 0.7387 0.0000
vt 0.6286 0.7514 0.0000
vt 0.5462 0.7271 0.0000
vt 0.4796 0.7364 0.0000
vt 0.4796 0.7371 0.0000
vt 0.4467 0.7380 0.0000
vt 0.6436 0.7566 0.0000
vt 0.6435 0.7573 0.0000
vt 0.4467 0.7373 0.0000
vt 0.4151 0.7398 0.0000
vt 0.6426 0.7398 0.0000
vt 0.6426 0.7403 0.0000
vt 0.4791 0.7253 0.0000
vt 0.6302 0.7383 0.0000
vt 0.6287 0.7506 0.0000
vt 0.4151 0.7391 0.0000
# 37 texture coords

g Y156_18A5_L_Y156_18A5_L_2_DaS_E
usemtl paint_whiteSG
s 4
f 94/92/94 95/93/95 96/94/96 
f 97/95/97 96/94/96 98/96/98 
s 7
f 99/97/99 100/98/100 101/99/101 
f 102/100/102 103/101/103 104/102/104 
f 105/103/105 106/104/106 107/105/107 
s off
f 108/106/108 109/107/108 100/98/108 
s 4
f 110/108/109 111/109/110 112/110/111 
s 7
f 113/111/112 104/102/104 114/112/113 
s 4
f 115/113/114 98/96/98 111/109/110 
f 116/114/115 95/93/95 94/92/94 
s 7
f 117/115/116 107/105/107 103/101/103 
s 14
f 118/116/117 119/117/118 120/118/119 
s 4
f 121/119/120 122/120/121 116/114/115 
s 14
f 123/121/122 120/118/119 124/122/123 
s 7
f 114/112/113 125/123/124 126/124/125 
f 127/125/126 101/99/101 106/104/106 
s 4
f 97/95/97 94/92/94 96/94/96 
f 115/113/114 97/95/97 98/96/98 
s 7
f 127/125/126 99/97/99 101/99/101 
f 113/111/112 102/100/102 104/102/104 
f 117/115/116 105/103/105 107/105/107 
f 99/97/99 108/106/127 100/98/100 
s 14
f 118/116/117 110/108/109 119/117/118 
s 7
f 128/126/128 113/111/112 114/112/113 
s 4
f 110/108/109 115/113/114 111/109/110 
f 129/127/129 116/114/115 94/92/94 
s 7
f 102/100/102 117/115/116 103/101/103 
s 14
f 123/121/122 118/116/117 120/118/119 
s 4
f 129/127/129 121/119/120 116/114/115 
s 14
f 130/128/130 123/121/122 124/122/123 
s 7
f 128/126/128 114/112/113 126/124/125 
f 105/103/105 127/125/126 106/104/106 
s 14
f 110/108/109 112/110/111 119/117/118 
# 33 faces

