# 3ds Max Wavefront OBJ Exporter v0.97b - (c)2007 guruware
# File Created: 20.12.2015 14:32:48

mtllib Y156_304H_L.mtl

#
# object Y156_304H_L_DTaSI_Y156_304H_L
#

v  -116.4889 44.4378 -83.1247
v  -116.8575 41.4091 -84.4457
v  -123.3888 41.5753 -84.5238
v  -115.2242 55.2459 -78.0649
v  -115.8565 49.8418 -80.5948
v  -122.0226 49.7490 -80.6782
v  -108.3681 67.7443 -71.1050
v  -106.4723 68.0629 -70.9492
v  -106.3876 66.5801 -71.9001
v  -106.1500 61.3086 -74.8034
v  -108.8681 61.0143 -74.9444
v  -108.4785 66.2626 -72.0484
v  -114.5796 60.5615 -75.1506
v  -120.2895 60.1080 -75.3554
v  -116.6331 64.6563 -72.6958
v  -114.7569 66.5768 -71.4979
v  -113.8211 66.7477 -71.4405
v  -131.3925 41.7815 -84.6244
v  -129.2464 46.0235 -82.5778
v  -122.8544 44.7721 -83.0669
v  -126.9783 49.7243 -80.7402
v  -124.1378 54.3590 -78.4388
v  -109.6905 49.9347 -80.5115
v  -105.6564 49.9463 -80.4837
v  -105.4004 43.8554 -83.2608
v  -105.2907 41.1133 -84.3742
v  -110.3263 41.2429 -84.3676
v  -121.1907 54.7259 -78.2895
v  -109.2576 55.7659 -77.8404
v  -105.9123 56.0371 -77.7067
v  -110.1233 44.1035 -83.1825
v  -114.0144 65.1715 -72.4871
# 32 vertices

vn 0.0133 0.4136 -0.9103
vn 0.0182 0.3957 -0.9182
vn 0.0195 0.4102 -0.9118
vn -0.0048 0.4543 -0.8909
vn 0.0060 0.4233 -0.9060
vn 0.0052 0.4323 -0.9017
vn -0.0353 0.5415 -0.8400
vn -0.0214 0.5388 -0.8421
vn -0.0136 0.4960 -0.8682
vn -0.0072 0.4827 -0.8757
vn -0.0069 0.4830 -0.8756
vn -0.0198 0.5014 -0.8650
vn -0.0106 0.4896 -0.8719
vn -0.0081 0.4878 -0.8729
vn -0.0192 0.5103 -0.8598
vn -0.0527 0.5651 -0.8234
vn -0.0497 0.5570 -0.8290
vn 0.0170 0.4233 -0.9058
vn 0.0155 0.4316 -0.9020
vn 0.0138 0.4234 -0.9058
vn 0.0120 0.4362 -0.8998
vn -0.0036 0.4490 -0.8935
vn 0.0069 0.4168 -0.9090
vn 0.0048 0.4154 -0.9096
vn 0.0066 0.4023 -0.9155
vn 0.0085 0.3765 -0.9264
vn 0.0148 0.3810 -0.9245
vn -0.0080 0.4572 -0.8893
vn -0.0024 0.4503 -0.8929
vn -0.0009 0.4476 -0.8942
vn 0.0113 0.4057 -0.9140
vn -0.0342 0.5151 -0.8565
# 32 vertex normals

vt 0.9180 0.0301 0.0000
vt 0.9191 0.0153 0.0000
vt 0.9484 0.0147 0.0000
vt 0.9142 0.0838 0.0000
vt 0.9161 0.0570 0.0000
vt 0.9437 0.0554 0.0000
vt 0.8858 0.1489 0.0000
vt 0.8773 0.1508 0.0000
vt 0.8767 0.1430 0.0000
vt 0.8747 0.1161 0.0000
vt 0.8868 0.1142 0.0000
vt 0.8860 0.1411 0.0000
vt 0.9123 0.1110 0.0000
vt 0.9378 0.1079 0.0000
vt 0.9223 0.1320 0.0000
vt 0.9142 0.1424 0.0000
vt 0.9101 0.1434 0.0000
vt 0.9843 0.0141 0.0000
vt 0.9773 0.0310 0.0000
vt 0.9466 0.0305 0.0000
vt 0.9656 0.0545 0.0000
vt 0.9540 0.0781 0.0000
vt 0.8885 0.0585 0.0000
vt 0.8704 0.0592 0.0000
vt 0.8682 0.0293 0.0000
vt 0.8672 0.0161 0.0000
vt 0.8898 0.0158 0.0000
vt 0.9409 0.0803 0.0000
vt 0.8876 0.0873 0.0000
vt 0.8726 0.0892 0.0000
vt 0.8894 0.0297 0.0000
vt 0.9106 0.1349 0.0000
# 32 texture coords

g Y156_304H_L_DTaSI_Y156_304H_L
usemtl windowglass_1SG
s 1
f 1/1/1 2/2/2 3/3/3 
f 4/4/4 5/5/5 6/6/6 
f 7/7/7 8/8/8 9/9/9 
f 10/10/10 11/11/11 12/12/12 
f 13/13/13 14/14/14 15/15/15 
f 15/15/15 16/16/16 17/17/17 
f 4/4/4 13/13/13 11/11/11 
f 18/18/18 19/19/19 20/20/20 
f 6/6/6 21/21/21 22/22/22 
f 23/23/23 24/24/24 25/25/25 
f 25/25/25 26/26/26 27/27/27 
f 28/28/28 22/22/22 14/14/14 
f 5/5/5 1/1/1 20/20/20 
f 20/20/20 19/19/19 21/21/21 
f 29/29/29 30/30/30 24/24/24 
f 30/30/30 29/29/29 11/11/11 
f 31/31/31 27/27/27 2/2/2 
f 29/29/29 23/23/23 5/5/5 
f 12/12/12 11/11/11 13/13/13 
f 28/28/28 14/14/14 13/13/13 
f 23/23/23 31/31/31 1/1/1 
f 7/7/7 12/12/12 32/32/32 
f 20/20/20 1/1/1 3/3/3 
f 28/28/28 4/4/4 6/6/6 
f 12/12/12 7/7/7 9/9/9 
f 9/9/9 10/10/10 12/12/12 
f 32/32/32 13/13/13 15/15/15 
f 32/32/32 15/15/15 17/17/17 
f 29/29/29 4/4/4 11/11/11 
f 3/3/3 18/18/18 20/20/20 
f 28/28/28 6/6/6 22/22/22 
f 31/31/31 23/23/23 25/25/25 
f 31/31/31 25/25/25 27/27/27 
f 6/6/6 5/5/5 20/20/20 
f 6/6/6 20/20/20 21/21/21 
f 23/23/23 29/29/29 24/24/24 
f 10/10/10 30/30/30 11/11/11 
f 1/1/1 31/31/31 2/2/2 
f 4/4/4 29/29/29 5/5/5 
f 32/32/32 12/12/12 13/13/13 
f 4/4/4 28/28/28 13/13/13 
f 5/5/5 23/23/23 1/1/1 
f 17/17/17 7/7/7 32/32/32 
# 43 faces

