# 3ds Max Wavefront OBJ Exporter v0.97b - (c)2007 guruware
# File Created: 20.12.2015 14:31:01

mtllib Y156_181C_R.mtl

#
# object Y156_181C_R_1_DaS_Y156_181C_R
#

v  93.4875 49.0249 78.5347
v  93.4436 48.8874 78.5302
v  104.0794 41.9431 81.7297
v  104.0245 41.8132 81.7391
v  80.5603 55.7319 75.9182
v  80.5988 55.8678 75.9357
v  67.9380 61.6905 73.5315
v  67.9856 61.8203 73.5579
v  80.8486 56.6646 75.3080
v  80.8588 56.6839 75.1682
v  68.4493 62.7323 72.8836
v  68.4768 62.7500 72.7482
v  93.7259 49.7791 77.7060
v  93.7230 49.7686 77.8474
v  104.5224 42.9154 80.3899
v  104.5206 42.9198 80.5342
v  111.0052 38.1051 82.6353
v  111.0863 38.0441 82.5145
v  114.9063 35.2120 83.7930
v  115.0313 35.1306 83.6861
v  109.3215 37.9734 83.3571
v  109.4593 38.0432 83.3734
v  112.5252 35.4600 84.2494
v  112.7047 35.5013 84.2879
v  57.4332 66.0968 71.6061
v  57.5053 66.2174 71.6366
v  58.3937 67.1022 70.9428
v  58.4483 67.1077 70.8133
v  117.3109 32.0497 85.5081
v  117.3417 32.2041 85.5169
v  118.4065 32.5339 85.0458
v  118.5632 32.4402 84.9585
v  93.3954 48.7383 78.3579
v  80.5267 55.5944 75.7329
v  80.8251 56.5463 74.9829
v  93.6777 49.6300 77.5338
v  104.4599 42.7573 80.2300
v  111.0200 37.8898 82.3525
v  109.2553 37.8192 83.1951
v  103.9620 41.6551 81.5792
v  67.9143 61.5583 73.3406
v  57.4127 65.9611 71.4173
v  58.4277 66.9721 70.6246
v  68.4531 62.6178 72.5572
v  112.4678 35.3144 84.0765
v  114.9739 34.9851 83.5132
v  118.5129 32.2977 84.7805
v  117.2605 31.9072 85.3301
# 48 vertices

vn 0.1588 0.5817 0.7977
vn -0.4263 -0.3677 0.8265
vn 0.2409 0.6597 0.7118
vn -0.4458 -0.2702 0.8534
vn -0.3931 -0.4748 0.7875
vn 0.1037 0.5254 0.8445
vn -0.3773 -0.5248 0.7630
vn 0.0682 0.5041 0.8610
vn 0.1792 0.6423 0.7452
vn 0.4815 0.8121 -0.3297
vn 0.1322 0.6116 0.7801
vn 0.4494 0.8447 -0.2907
vn 0.5235 0.7491 -0.4059
vn 0.2392 0.6825 0.6907
vn 0.5785 0.6677 -0.4685
vn 0.3037 0.7203 0.6237
vn 0.3387 0.6991 0.6297
vn 0.6159 0.6350 -0.4663
vn 0.2796 0.6558 0.7012
vn 0.6309 0.6671 -0.3962
vn -0.4431 -0.2502 0.8609
vn 0.2684 0.6540 0.7073
vn -0.4741 -0.3444 0.8103
vn 0.2134 0.5893 0.7792
vn -0.3662 -0.5427 0.7559
vn 0.0492 0.4961 0.8669
vn 0.1058 0.5975 0.7949
vn 0.4275 0.8592 -0.2810
vn -0.4951 -0.4139 0.7639
vn 0.1341 0.5391 0.8315
vn 0.2633 0.6698 0.6943
vn 0.6371 0.6194 -0.4587
vn 0.4672 -0.6408 0.6092
vn 0.4297 -0.1177 0.8953
vn 0.4695 -0.6235 0.6252
vn 0.4360 -0.1377 0.8893
vn -0.5031 -0.5787 0.6419
vn -0.4531 -0.6742 0.5832
vn 0.4599 0.6713 -0.5813
vn 0.4862 0.5893 -0.6452
vn 0.5256 0.4937 -0.6928
vn 0.5614 0.4722 -0.6796
vn -0.5569 -0.4766 0.6802
vn -0.5419 -0.4821 0.6884
vn -0.4246 -0.7186 0.5508
vn -0.4054 -0.7209 0.5621
vn 0.4185 0.7153 -0.5597
vn 0.4384 0.7125 -0.5480
vn -0.5624 -0.5318 0.6332
vn 0.5872 0.5120 -0.6270
vn 0.6120 0.5229 -0.5933
vn 0.4460 -0.7560 0.4791
vn 0.4460 -0.7560 0.4792
vn -0.5593 -0.5627 0.6087
# 54 vertex normals

vt 0.7119 0.2175 0.0000
vt 0.7118 0.2173 0.0000
vt 0.7320 0.2041 0.0000
vt 0.7319 0.2038 0.0000
vt 0.6874 0.2302 0.0000
vt 0.6875 0.2305 0.0000
vt 0.6635 0.2415 0.0000
vt 0.6636 0.2418 0.0000
vt 0.6880 0.2320 0.0000
vt 0.6645 0.2435 0.0000
vt 0.7124 0.2189 0.0000
vt 0.7328 0.2059 0.0000
vt 0.7451 0.1968 0.0000
vt 0.7453 0.1967 0.0000
vt 0.7525 0.1913 0.0000
vt 0.7527 0.1912 0.0000
vt 0.7419 0.1966 0.0000
vt 0.7422 0.1967 0.0000
vt 0.7480 0.1918 0.0000
vt 0.7483 0.1919 0.0000
vt 0.6436 0.2499 0.0000
vt 0.6437 0.2501 0.0000
vt 0.6454 0.2518 0.0000
vt 0.6455 0.2518 0.0000
vt 0.7571 0.1853 0.0000
vt 0.7571 0.1856 0.0000
vt 0.7591 0.1863 0.0000
vt 0.7594 0.1861 0.0000
vt 0.7117 0.2170 0.0000
vt 0.6874 0.2300 0.0000
vt 0.6879 0.2318 0.0000
vt 0.7123 0.2187 0.0000
vt 0.7327 0.2056 0.0000
vt 0.7451 0.1964 0.0000
vt 0.7418 0.1963 0.0000
vt 0.7318 0.2035 0.0000
vt 0.6635 0.2413 0.0000
vt 0.6436 0.2496 0.0000
vt 0.6455 0.2515 0.0000
vt 0.6645 0.2433 0.0000
vt 0.7479 0.1915 0.0000
vt 0.7526 0.1909 0.0000
vt 0.7593 0.1858 0.0000
vt 0.7570 0.1851 0.0000
# 44 texture coords

g Y156_181C_R_1_DaS_Y156_181C_R
usemtl chrome_1SG
s 1
f 1/1/1 2/2/2 3/3/3 
f 2/2/2 4/4/4 3/3/3 
f 2/2/2 1/1/1 5/5/5 
f 1/1/1 6/6/6 5/5/5 
f 5/5/5 6/6/6 7/7/7 
f 6/6/6 8/8/8 7/7/7 
f 9/9/9 10/9/10 11/10/11 
f 10/9/10 12/10/12 11/10/11 
f 10/9/10 9/9/9 13/11/13 
f 9/9/9 14/11/14 13/11/13 
f 13/11/13 14/11/14 15/12/15 
f 14/11/14 16/12/16 15/12/15 
f 16/12/16 17/13/17 15/12/15 
f 17/13/17 18/14/18 15/12/15 
f 17/13/17 19/15/19 18/14/18 
f 19/15/19 20/16/20 18/14/18 
f 4/4/4 21/17/21 3/3/3 
f 21/17/21 22/18/22 3/3/3 
f 21/17/21 23/19/23 22/18/22 
f 23/19/23 24/20/24 22/18/22 
f 25/21/25 7/7/7 26/22/26 
f 7/7/7 8/8/8 26/22/26 
f 27/23/27 11/10/11 28/24/28 
f 11/10/11 12/10/12 28/24/28 
f 23/19/23 29/25/29 24/20/24 
f 29/25/29 30/26/30 24/20/24 
f 19/15/19 31/27/31 20/16/20 
f 31/27/31 32/28/32 20/16/20 
s 5
f 32/28/33 31/27/34 29/25/35 
f 31/27/34 30/26/36 29/25/35 
s 1
f 1/1/1 14/11/14 6/6/6 
f 14/11/14 9/9/9 6/6/6 
f 3/3/3 22/18/22 16/12/16 
f 22/18/22 17/13/17 16/12/16 
f 3/3/3 16/12/16 1/1/1 
f 16/12/16 14/11/14 1/1/1 
f 26/22/26 8/8/8 27/23/27 
f 8/8/8 11/10/11 27/23/27 
f 6/6/6 9/9/9 8/8/8 
f 9/9/9 11/10/11 8/8/8 
f 19/15/19 17/13/17 24/20/24 
f 17/13/17 22/18/22 24/20/24 
f 31/27/31 19/15/19 30/26/30 
f 19/15/19 24/20/24 30/26/30 
f 33/29/37 2/2/2 34/30/38 
f 2/2/2 5/5/5 34/30/38 
f 35/31/39 10/9/10 36/32/40 
f 10/9/10 13/11/13 36/32/40 
f 37/33/41 15/12/15 38/34/42 
f 15/12/15 18/14/18 38/34/42 
f 39/35/43 21/17/21 40/36/44 
f 21/17/21 4/4/4 40/36/44 
f 40/36/44 4/4/4 33/29/37 
f 4/4/4 2/2/2 33/29/37 
f 36/32/40 13/11/13 37/33/41 
f 13/11/13 15/12/15 37/33/41 
f 41/37/45 7/7/7 42/38/46 
f 7/7/7 25/21/25 42/38/46 
f 43/39/47 28/24/28 44/40/48 
f 28/24/28 12/10/12 44/40/48 
f 34/30/38 5/5/5 41/37/45 
f 5/5/5 7/7/7 41/37/45 
f 44/40/48 12/10/12 35/31/39 
f 12/10/12 10/9/10 35/31/39 
f 45/41/49 23/19/23 39/35/43 
f 23/19/23 21/17/21 39/35/43 
f 38/34/42 18/14/18 46/42/50 
f 18/14/18 20/16/20 46/42/50 
f 46/42/50 20/16/20 47/43/51 
f 20/16/20 32/28/32 47/43/51 
s 5
f 48/44/52 47/43/53 29/25/35 
f 47/43/53 32/28/33 29/25/35 
s 1
f 48/44/54 29/25/29 45/41/49 
f 29/25/29 23/19/23 45/41/49 
# 74 faces

#
# object Y156_181C_R_Y156_181C_R_2_DaS
#

v  70.2716 65.3515 66.9123
v  81.6317 58.0773 72.0971
v  82.2379 58.7897 69.3792
v  112.9789 38.2427 79.9951
v  106.0055 44.0603 74.6519
v  105.2478 43.5623 77.8390
v  69.5803 64.4944 69.7948
v  60.8543 69.6871 65.1320
v  59.7337 68.9817 67.9207
v  124.1285 33.1489 78.8121
v  118.1258 34.8403 81.2845
v  121.5927 32.9574 82.2587
v  117.2606 31.9072 85.3301
v  115.6091 34.9199 83.2277
v  112.4678 35.3144 84.0765
v  114.4689 38.4364 76.5888
v  94.4023 50.6099 74.8994
v  93.3954 48.7383 78.3579
v  81.0102 56.8581 74.3399
v  80.5267 55.5944 75.7329
v  104.5177 42.6226 80.1879
v  109.2553 37.8192 83.1951
v  111.2947 37.9235 82.0672
v  103.9620 41.6551 81.5792
v  93.7738 49.5627 77.2469
v  94.9765 51.1701 72.1366
v  58.6334 67.7670 69.8960
v  67.9143 61.5583 73.3406
v  68.7895 63.2006 71.8685
v  119.0783 32.4739 84.5324
v  120.1876 34.8786 77.8353
v  57.4127 65.9611 71.4173
# 32 vertices

vn 0.3668 0.8649 0.3426
vn 0.3775 0.8286 0.4134
vn 0.4170 0.8532 0.3131
vn 0.4635 0.8182 0.3403
vn 0.4904 0.8352 0.2488
vn 0.4572 0.8228 0.3375
vn 0.3244 0.8296 0.4545
vn 0.3134 0.8838 0.3475
vn 0.2566 0.8438 0.4713
vn 0.3631 0.8912 0.2719
vn 0.4110 0.8382 0.3586
vn 0.3545 0.8521 0.3851
vn 0.1903 0.6298 0.7531
vn 0.3426 0.7361 0.5838
vn 0.2816 0.6582 0.6982
vn 0.4853 0.8331 0.2654
vn 0.4246 0.8302 0.3613
vn 0.2782 0.7203 0.6354
vn 0.2831 0.7500 0.5978
vn 0.2145 0.6798 0.7014
vn 0.3697 0.7698 0.5204
vn 0.3192 0.6991 0.6398
vn 0.3824 0.7542 0.5338
vn 0.3084 0.7185 0.6234
vn 0.3457 0.7783 0.5242
vn 0.4619 0.8463 0.2656
vn 0.1551 0.7002 0.6969
vn 0.1366 0.6174 0.7747
vn 0.2071 0.7059 0.6774
vn 0.2851 0.7645 0.5782
vn 0.4075 0.8773 0.2533
vn 0.1004 0.6022 0.7920
# 32 vertex normals

vt 0.6677 0.2537 0.0000
vt 0.6894 0.2368 0.0000
vt 0.6909 0.2417 0.0000
vt 0.7489 0.1985 0.0000
vt 0.7372 0.2142 0.0000
vt 0.7343 0.2086 0.0000
vt 0.6663 0.2485 0.0000
vt 0.6509 0.2618 0.0000
vt 0.6482 0.2570 0.0000
vt 0.7695 0.1881 0.0000
vt 0.7587 0.1918 0.0000
vt 0.7652 0.1871 0.0000
vt 0.7570 0.1851 0.0000
vt 0.7538 0.1908 0.0000
vt 0.7479 0.1915 0.0000
vt 0.7538 0.2038 0.0000
vt 0.7138 0.2230 0.0000
vt 0.7117 0.2170 0.0000
vt 0.6883 0.2324 0.0000
vt 0.6874 0.2300 0.0000
vt 0.7328 0.2054 0.0000
vt 0.7418 0.1963 0.0000
vt 0.7457 0.1965 0.0000
vt 0.7318 0.2035 0.0000
vt 0.7125 0.2185 0.0000
vt 0.7155 0.2278 0.0000
vt 0.6459 0.2530 0.0000
vt 0.6635 0.2413 0.0000
vt 0.6651 0.2444 0.0000
vt 0.7604 0.1862 0.0000
vt 0.7647 0.1953 0.0000
vt 0.6436 0.2496 0.0000
# 32 texture coords

g Y156_181C_R_Y156_181C_R_2_DaS
usemtl paint_whiteSG
s 1
f 49/45/55 50/46/56 51/47/57 
f 52/48/58 53/49/59 54/50/60 
f 55/51/61 56/52/62 57/53/63 
f 58/54/64 59/55/65 60/56/66 
f 61/57/67 62/58/68 63/59/69 
f 59/55/65 64/60/70 52/48/58 
f 65/61/71 51/47/57 50/46/56 
f 66/62/72 67/63/73 68/64/74 
f 69/65/75 70/66/76 71/67/77 
f 72/68/78 73/69/79 66/62/72 
f 74/70/80 54/50/60 53/49/59 
f 75/71/81 76/72/82 77/73/83 
f 63/59/69 71/67/77 70/66/76 
f 68/64/74 77/73/83 76/72/82 
f 69/65/75 65/61/71 73/69/79 
f 73/69/79 50/46/56 67/63/73 
f 78/74/84 59/55/65 62/58/68 
f 71/67/77 54/50/60 69/65/75 
f 55/51/61 67/63/73 50/46/56 
f 57/53/63 77/73/83 55/51/61 
f 62/58/68 52/48/58 71/67/77 
f 55/51/61 50/46/56 49/45/55 
f 64/60/70 53/49/59 52/48/58 
f 49/45/55 56/52/62 55/51/61 
f 79/75/85 59/55/65 58/54/64 
f 78/74/84 62/58/68 61/57/67 
f 79/75/85 64/60/70 59/55/65 
f 74/70/80 51/47/57 65/61/71 
f 73/69/79 67/63/73 66/62/72 
f 72/68/78 70/66/76 69/65/75 
f 69/65/75 73/69/79 72/68/78 
f 65/61/71 54/50/60 74/70/80 
f 80/76/86 76/72/82 75/71/81 
f 62/58/68 71/67/77 63/59/69 
f 67/63/73 77/73/83 68/64/74 
f 54/50/60 65/61/71 69/65/75 
f 65/61/71 50/46/56 73/69/79 
f 60/56/66 59/55/65 78/74/84 
f 52/48/58 54/50/60 71/67/77 
f 77/73/83 67/63/73 55/51/61 
f 75/71/81 77/73/83 57/53/63 
f 59/55/65 52/48/58 62/58/68 
# 42 faces

#
# object Y156_181C_R_Y156_181C_R_2_DaS_E
#

v  93.3954 48.7383 78.3579
v  80.4337 55.2011 75.2057
v  93.2671 48.3152 77.8626
v  103.8119 41.2345 81.0875
v  109.1025 37.4185 82.6872
v  103.9620 41.6551 81.5792
v  67.9143 61.5583 73.3406
v  80.5267 55.5944 75.7329
v  112.4678 35.3144 84.0765
v  112.3151 34.9170 83.5660
v  57.3574 65.5863 70.8711
v  67.8477 61.1809 72.7976
v  124.1285 33.1489 78.8121
v  121.4464 32.4389 81.8815
v  123.8916 32.5640 78.6031
v  118.9251 32.0136 84.1111
v  117.2606 31.9072 85.3301
v  117.1474 31.4925 84.8245
v  121.5927 32.9574 82.2587
v  119.0783 32.4739 84.5324
v  109.2553 37.8192 83.1951
v  57.4127 65.9611 71.4173
# 22 vertices

vn -0.5116 -0.5839 0.6303
vn -0.4534 -0.6739 0.5833
vn -0.5115 -0.5834 0.6309
vn -0.5633 -0.5353 0.6294
vn -0.5832 -0.5427 0.6045
vn -0.5636 -0.5355 0.6289
vn -0.4245 -0.7180 0.5516
vn -0.4534 -0.6742 0.5829
vn -0.5738 -0.5539 0.6033
vn -0.5737 -0.5545 0.6028
vn -0.4071 -0.7330 0.5449
vn -0.4246 -0.7183 0.5512
vn 0.7125 -0.4803 0.5115
vn 0.6511 -0.5552 0.5176
vn 0.7146 -0.4734 0.5149
vn 0.5181 -0.6671 0.5354
vn 0.4325 -0.7317 0.5268
vn 0.4249 -0.7442 0.5153
vn -0.5616 -0.5729 0.5969
vn -0.5617 -0.5736 0.5962
vn 0.6360 -0.5676 0.5229
vn 0.5201 -0.6643 0.5368
vn -0.5834 -0.5430 0.6039
vn -0.4072 -0.7333 0.5446
# 24 vertex normals

vt 0.7117 0.2170 0.0000
vt 0.6872 0.2292 0.0000
vt 0.7115 0.2162 0.0000
vt 0.7315 0.2028 0.0000
vt 0.7415 0.1955 0.0000
vt 0.7318 0.2035 0.0000
vt 0.6635 0.2413 0.0000
vt 0.6874 0.2300 0.0000
vt 0.7479 0.1915 0.0000
vt 0.7476 0.1908 0.0000
vt 0.6435 0.2489 0.0000
vt 0.6633 0.2405 0.0000
vt 0.7695 0.1881 0.0000
vt 0.7649 0.1861 0.0000
vt 0.7695 0.1863 0.0000
vt 0.7601 0.1853 0.0000
vt 0.7570 0.1851 0.0000
vt 0.7567 0.1843 0.0000
vt 0.7652 0.1871 0.0000
vt 0.7604 0.1862 0.0000
vt 0.7418 0.1963 0.0000
vt 0.6436 0.2496 0.0000
# 22 texture coords

g Y156_181C_R_Y156_181C_R_2_DaS_E
usemtl paint_whiteSG
s 8
f 81/77/87 82/78/88 83/79/89 
f 84/80/90 81/77/87 83/79/89 
f 85/81/91 86/82/92 84/80/90 
f 87/83/93 82/78/88 88/84/94 
f 89/85/95 85/81/91 90/86/96 
f 87/83/93 91/87/97 92/88/98 
s 16
f 93/89/99 94/90/100 95/91/101 
f 96/92/102 97/93/103 98/94/104 
s 8
f 97/93/105 90/86/96 98/94/106 
s 16
f 96/92/102 99/95/107 100/96/108 
s 8
f 88/84/94 82/78/88 81/77/87 
f 86/82/92 81/77/87 84/80/90 
f 101/97/109 86/82/92 85/81/91 
f 92/88/98 82/78/88 87/83/93 
f 101/97/109 85/81/91 89/85/95 
f 102/98/110 91/87/97 87/83/93 
s 16
f 99/95/107 94/90/100 93/89/99 
f 100/96/108 97/93/103 96/92/102 
s 8
f 89/85/95 90/86/96 97/93/105 
s 16
f 94/90/100 99/95/107 96/92/102 
# 20 faces

