# 3ds Max Wavefront OBJ Exporter v0.97b - (c)2007 guruware
# File Created: 23.11.2015 10:11:30

mtllib H126_18A5_L.mtl

#
# object H126_18A5_L_2_DaS_H126_18A5_L
#

v  29.1347 76.2558 -72.5296
v  34.4098 74.2259 -73.6264
v  28.7349 75.1978 -73.0021
v  33.9115 73.1904 -74.0682
v  30.5062 80.3721 -68.4952
v  36.1711 78.2706 -69.8981
v  30.1705 79.1636 -70.4275
v  35.7165 77.0773 -71.6747
v  36.5314 79.1108 -66.8210
v  30.8078 81.4106 -64.6905
v  36.3082 79.4051 -66.0709
v  29.6677 77.6873 -71.6834
v  35.0761 75.6277 -72.8292
v  22.9051 77.0323 -72.0516
v  23.2150 78.0754 -71.5675
v  16.2565 79.7383 -70.6707
v  16.0274 78.7208 -71.1624
v  24.0036 80.9378 -69.3352
v  24.2304 82.1209 -67.2354
v  16.9550 83.6721 -66.0710
v  16.8238 82.5264 -68.3159
v  24.4080 83.1802 -63.0725
v  17.0146 84.6530 -62.1011
v  23.6263 79.4862 -70.6876
v  16.5587 81.1139 -69.7570
v  8.0121 80.1692 -70.3401
v  8.1673 81.1806 -69.8274
v  -0.8180 82.3301 -69.0693
v  -0.9197 81.3132 -69.6120
v  8.5325 83.9479 -67.3435
v  8.5808 85.0765 -65.0066
v  -0.6090 86.2362 -64.0870
v  -0.5992 85.1096 -66.4766
v  8.5690 85.9743 -61.2832
v  -0.6576 87.1122 -60.4078
v  8.3697 82.5475 -68.8638
v  -0.6879 83.7042 -68.0564
v  -10.4367 82.1240 -69.0102
v  -10.3569 83.1443 -68.4371
v  -20.0023 83.7062 -67.9627
v  -20.0790 82.6854 -68.5650
v  -10.1982 85.9315 -65.7770
v  -10.2316 87.0585 -63.3519
v  -19.8890 87.6221 -62.7772
v  -19.8522 86.4945 -65.2357
v  -10.2933 87.9106 -59.7984
v  -19.9524 88.4709 -59.2484
v  -10.2565 84.5226 -67.3919
v  -19.9061 85.0851 -66.8852
v  -29.3903 84.1228 -67.6549
v  -29.4669 83.1021 -68.2856
v  -38.5948 84.4707 -67.4408
v  -38.6714 83.4499 -68.0995
v  -29.2401 86.9111 -64.8199
v  -29.2769 88.0395 -62.3196
v  -38.4814 88.3882 -61.9221
v  -38.4446 87.2590 -64.4700
v  -29.3399 88.8800 -58.8697
v  -38.5437 89.2153 -58.5892
v  -29.2941 85.5018 -66.5266
v  -38.4986 85.8496 -66.2492
v  36.0931 79.6440 -65.1056
v  36.0381 79.7608 -64.5362
v  30.8561 81.5303 -63.9113
v  -48.2817 84.5479 -67.4003
v  -48.2999 83.5252 -68.0566
v  -58.3089 84.5248 -67.4656
v  -58.2429 83.4957 -68.1303
v  -48.2909 87.3380 -64.4467
v  -48.3898 88.4629 -61.9055
v  -58.7369 88.4486 -61.9761
v  -58.5471 87.3270 -64.5114
v  -48.4911 89.3202 -58.3648
v  -58.9089 89.3407 -58.1912
v  -48.2644 85.9290 -66.2164
v  -58.4052 85.9138 -66.2786
v  -68.6157 83.2537 -68.4163
v  -68.8078 84.2991 -67.7234
v  -69.3885 87.1376 -64.7320
v  -69.7163 88.2618 -62.1991
v  -69.0742 85.7089 -66.5119
v  -70.0285 89.2185 -58.0580
# 82 vertices

vn -0.0018 0.4696 -0.8829
vn -0.0096 0.4583 -0.8888
vn -0.0236 0.4143 -0.9098
vn -0.0358 0.4061 -0.9131
vn 0.2066 0.9043 -0.3736
vn 0.2309 0.8652 -0.4451
vn 0.1160 0.7473 -0.6543
vn 0.1249 0.7044 -0.6987
vn 0.2738 0.9194 -0.2825
vn 0.2291 0.9392 -0.2556
vn 0.2756 0.9270 -0.2545
vn 0.0406 0.5773 -0.8155
vn 0.0396 0.5537 -0.8318
vn -0.0148 0.4238 -0.9056
vn 0.0040 0.4856 -0.8742
vn 0.0036 0.5063 -0.8623
vn -0.0124 0.4366 -0.8996
vn 0.0996 0.7837 -0.6131
vn 0.1687 0.9256 -0.3388
vn 0.1317 0.9371 -0.3232
vn 0.0834 0.8148 -0.5736
vn 0.1801 0.9512 -0.2504
vn 0.1428 0.9606 -0.2383
vn 0.0406 0.6083 -0.7927
vn 0.0353 0.6412 -0.7666
vn -0.0133 0.4531 -0.8914
vn -0.0004 0.5280 -0.8493
vn -0.0055 0.5463 -0.8376
vn -0.0148 0.4712 -0.8819
vn 0.0652 0.8335 -0.5487
vn 0.1025 0.9436 -0.3148
vn 0.0728 0.9476 -0.3109
vn 0.0445 0.8427 -0.5366
vn 0.1117 0.9663 -0.2321
vn 0.0802 0.9699 -0.2300
vn 0.0257 0.6666 -0.7450
vn 0.0142 0.6823 -0.7310
vn -0.0138 0.4898 -0.8717
vn -0.0078 0.5602 -0.8283
vn -0.0049 0.5736 -0.8191
vn -0.0090 0.5087 -0.8609
vn 0.0270 0.8472 -0.5305
vn 0.0476 0.9489 -0.3121
vn 0.0324 0.9495 -0.3121
vn 0.0179 0.8512 -0.5246
vn 0.0537 0.9712 -0.2320
vn 0.0374 0.9717 -0.2334
vn 0.0057 0.6910 -0.7229
vn 0.0038 0.6996 -0.7145
vn -0.0004 0.5913 -0.8064
vn -0.0008 0.5263 -0.8503
vn 0.0037 0.6108 -0.7918
vn 0.0021 0.5420 -0.8404
vn 0.0145 0.8565 -0.5160
vn 0.0254 0.9494 -0.3129
vn 0.0148 0.9494 -0.3136
vn 0.0090 0.8632 -0.5047
vn 0.0298 0.9712 -0.2365
vn 0.0164 0.9707 -0.2399
vn 0.0043 0.7125 -0.7016
vn 0.0050 0.7288 -0.6847
vn 0.3010 0.9393 -0.1649
vn 0.3012 0.9395 -0.1635
vn 0.2570 0.9527 -0.1622
vn 0.0027 0.6083 -0.7937
vn 0.0026 0.5401 -0.8416
vn 0.0055 0.6090 -0.7931
vn 0.0074 0.5428 -0.8398
vn 0.0039 0.8626 -0.5059
vn 0.0032 0.9508 -0.3098
vn -0.0054 0.9527 -0.3038
vn -0.0014 0.8622 -0.5066
vn 0.0022 0.9721 -0.2345
vn -0.0075 0.9734 -0.2292
vn 0.0033 0.7277 -0.6859
vn 0.0023 0.7265 -0.6871
vn 0.0096 0.5533 -0.8329
vn 0.0050 0.6145 -0.7889
vn -0.0117 0.8606 -0.5092
vn -0.0195 0.9540 -0.2993
vn -0.0027 0.7263 -0.6873
vn -0.0218 0.9736 -0.2272
# 82 vertex normals

vt 0.5763 0.7562 0.0000
vt 0.5861 0.7598 0.0000
vt 0.5757 0.7583 0.0000
vt 0.5853 0.7619 0.0000
vt 0.5782 0.7454 0.0000
vt 0.5890 0.7493 0.0000
vt 0.5778 0.7496 0.0000
vt 0.5882 0.7533 0.0000
vt 0.5898 0.7434 0.0000
vt 0.5789 0.7384 0.0000
vt 0.5894 0.7418 0.0000
vt 0.5771 0.7531 0.0000
vt 0.5872 0.7568 0.0000
vt 0.5649 0.7552 0.0000
vt 0.5654 0.7531 0.0000
vt 0.5526 0.7504 0.0000
vt 0.5522 0.7524 0.0000
vt 0.5664 0.7465 0.0000
vt 0.5668 0.7421 0.0000
vt 0.5535 0.7391 0.0000
vt 0.5533 0.7437 0.0000
vt 0.5673 0.7344 0.0000
vt 0.5538 0.7317 0.0000
vt 0.5659 0.7501 0.0000
vt 0.5530 0.7474 0.0000
vt 0.5375 0.7500 0.0000
vt 0.5377 0.7479 0.0000
vt 0.5212 0.7458 0.0000
vt 0.5210 0.7479 0.0000
vt 0.5382 0.7411 0.0000
vt 0.5382 0.7363 0.0000
vt 0.5215 0.7340 0.0000
vt 0.5215 0.7388 0.0000
vt 0.5384 0.7294 0.0000
vt 0.5215 0.7271 0.0000
vt 0.5380 0.7448 0.0000
vt 0.5214 0.7426 0.0000
vt 0.5035 0.7462 0.0000
vt 0.5037 0.7440 0.0000
vt 0.4859 0.7427 0.0000
vt 0.4858 0.7448 0.0000
vt 0.5039 0.7369 0.0000
vt 0.5039 0.7321 0.0000
vt 0.4862 0.7305 0.0000
vt 0.4862 0.7355 0.0000
vt 0.5039 0.7254 0.0000
vt 0.4862 0.7239 0.0000
vt 0.5038 0.7409 0.0000
vt 0.4861 0.7395 0.0000
vt 0.4687 0.7416 0.0000
vt 0.4685 0.7438 0.0000
vt 0.4518 0.7408 0.0000
vt 0.4516 0.7430 0.0000
vt 0.4690 0.7343 0.0000
vt 0.4690 0.7293 0.0000
vt 0.4521 0.7282 0.0000
vt 0.4521 0.7333 0.0000
vt 0.4690 0.7228 0.0000
vt 0.4521 0.7219 0.0000
vt 0.4689 0.7384 0.0000
vt 0.4520 0.7374 0.0000
vt 0.5891 0.7399 0.0000
vt 0.5890 0.7388 0.0000
vt 0.5791 0.7370 0.0000
vt 0.4340 0.7404 0.0000
vt 0.4339 0.7426 0.0000
vt 0.4156 0.7402 0.0000
vt 0.4157 0.7425 0.0000
vt 0.4341 0.7329 0.0000
vt 0.4339 0.7278 0.0000
vt 0.4150 0.7277 0.0000
vt 0.4153 0.7327 0.0000
vt 0.4339 0.7211 0.0000
vt 0.4148 0.7205 0.0000
vt 0.4340 0.7371 0.0000
vt 0.4154 0.7369 0.0000
vt 0.3966 0.7428 0.0000
vt 0.3963 0.7405 0.0000
vt 0.3954 0.7329 0.0000
vt 0.3949 0.7278 0.0000
vt 0.3959 0.7371 0.0000
vt 0.3944 0.7200 0.0000
# 82 texture coords

g H126_18A5_L_2_DaS_H126_18A5_L
usemtl paint_whiteSG
s 2
f 1/1/1 2/2/2 3/3/3 
f 3/3/3 2/2/2 4/4/4 
f 5/5/5 6/6/6 7/7/7 
f 7/7/7 6/6/6 8/8/8 
f 6/6/6 5/5/5 9/9/9 
f 10/10/10 11/11/11 5/5/5 
f 11/11/11 9/9/9 5/5/5 
f 12/12/12 13/13/13 1/1/1 
f 1/1/1 13/13/13 2/2/2 
f 7/7/7 8/8/8 12/12/12 
f 12/12/12 8/8/8 13/13/13 
f 3/3/3 14/14/14 1/1/1 
f 1/1/1 14/14/14 15/15/15 
f 16/16/16 15/15/15 17/17/17 
f 17/17/17 15/15/15 14/14/14 
f 7/7/7 18/18/18 5/5/5 
f 5/5/5 18/18/18 19/19/19 
f 20/20/20 19/19/19 21/21/21 
f 21/21/21 19/19/19 18/18/18 
f 19/19/19 20/20/20 22/22/22 
f 22/22/22 20/20/20 23/23/23 
f 12/12/12 24/24/24 7/7/7 
f 7/7/7 24/24/24 18/18/18 
f 1/1/1 15/15/15 12/12/12 
f 12/12/12 15/15/15 24/24/24 
f 25/25/25 24/24/24 16/16/16 
f 16/16/16 24/24/24 15/15/15 
f 21/21/21 18/18/18 25/25/25 
f 25/25/25 18/18/18 24/24/24 
f 17/17/17 26/26/26 16/16/16 
f 16/16/16 26/26/26 27/27/27 
f 28/28/28 27/27/27 29/29/29 
f 29/29/29 27/27/27 26/26/26 
f 21/21/21 30/30/30 20/20/20 
f 20/20/20 30/30/30 31/31/31 
f 32/32/32 31/31/31 33/33/33 
f 33/33/33 31/31/31 30/30/30 
f 31/31/31 32/32/32 34/34/34 
f 34/34/34 32/32/32 35/35/35 
f 25/25/25 36/36/36 21/21/21 
f 21/21/21 36/36/36 30/30/30 
f 16/16/16 27/27/27 25/25/25 
f 25/25/25 27/27/27 36/36/36 
f 37/37/37 36/36/36 28/28/28 
f 28/28/28 36/36/36 27/27/27 
f 33/33/33 30/30/30 37/37/37 
f 37/37/37 30/30/30 36/36/36 
f 29/29/29 38/38/38 28/28/28 
f 28/28/28 38/38/38 39/39/39 
f 40/40/40 39/39/39 41/41/41 
f 41/41/41 39/39/39 38/38/38 
f 33/33/33 42/42/42 32/32/32 
f 32/32/32 42/42/42 43/43/43 
f 44/44/44 43/43/43 45/45/45 
f 45/45/45 43/43/43 42/42/42 
f 43/43/43 44/44/44 46/46/46 
f 46/46/46 44/44/44 47/47/47 
f 37/37/37 48/48/48 33/33/33 
f 33/33/33 48/48/48 42/42/42 
f 28/28/28 39/39/39 37/37/37 
f 37/37/37 39/39/39 48/48/48 
f 49/49/49 48/48/48 40/40/40 
f 40/40/40 48/48/48 39/39/39 
f 45/45/45 42/42/42 49/49/49 
f 49/49/49 42/42/42 48/48/48 
f 40/40/40 41/41/41 50/50/50 
f 50/50/50 41/41/41 51/51/51 
f 50/50/50 51/51/51 52/52/52 
f 52/52/52 51/51/51 53/53/53 
f 45/45/45 54/54/54 44/44/44 
f 44/44/44 54/54/54 55/55/55 
f 56/56/56 55/55/55 57/57/57 
f 57/57/57 55/55/55 54/54/54 
f 55/55/55 56/56/56 58/58/58 
f 58/58/58 56/56/56 59/59/59 
f 49/49/49 60/60/60 45/45/45 
f 45/45/45 60/60/60 54/54/54 
f 40/40/40 50/50/50 49/49/49 
f 49/49/49 50/50/50 60/60/60 
f 52/52/52 61/61/61 50/50/50 
f 50/50/50 61/61/61 60/60/60 
f 57/57/57 54/54/54 61/61/61 
f 61/61/61 54/54/54 60/60/60 
f 11/11/11 10/10/10 62/62/62 
f 62/62/62 10/10/10 63/63/63 
f 10/10/10 64/64/64 63/63/63 
f 64/64/64 10/10/10 22/22/22 
f 19/19/19 22/22/22 5/5/5 
f 22/22/22 10/10/10 5/5/5 
f 34/34/34 23/23/23 31/31/31 
f 31/31/31 23/23/23 20/20/20 
f 46/46/46 35/35/35 43/43/43 
f 43/43/43 35/35/35 32/32/32 
f 58/58/58 47/47/47 55/55/55 
f 55/55/55 47/47/47 44/44/44 
f 52/52/52 53/53/53 65/65/65 
f 65/65/65 53/53/53 66/66/66 
f 67/67/67 65/65/65 68/68/68 
f 68/68/68 65/65/65 66/66/66 
f 57/57/57 69/69/69 56/56/56 
f 56/56/56 69/69/69 70/70/70 
f 71/71/71 70/70/70 72/72/72 
f 72/72/72 70/70/70 69/69/69 
f 70/70/70 71/71/71 73/73/73 
f 73/73/73 71/71/71 74/74/74 
f 61/61/61 75/75/75 57/57/57 
f 57/57/57 75/75/75 69/69/69 
f 65/65/65 75/75/75 52/52/52 
f 52/52/52 75/75/75 61/61/61 
f 76/76/76 75/75/75 67/67/67 
f 67/67/67 75/75/75 65/65/65 
f 72/72/72 69/69/69 76/76/76 
f 76/76/76 69/69/69 75/75/75 
f 68/68/68 77/77/77 67/67/67 
f 67/67/67 77/77/77 78/78/78 
f 72/72/72 79/79/79 71/71/71 
f 71/71/71 79/79/79 80/80/80 
f 76/76/76 81/81/81 72/72/72 
f 72/72/72 81/81/81 79/79/79 
f 67/67/67 78/78/78 76/76/76 
f 76/76/76 78/78/78 81/81/81 
f 73/73/73 59/59/59 70/70/70 
f 70/70/70 59/59/59 56/56/56 
f 82/82/82 74/74/74 80/80/80 
f 80/80/80 74/74/74 71/71/71 
# 125 faces

#
# object H126_18A5_L_H126_18A5_L_1_DaS
#

v  22.4747 75.6086 -71.9234
v  22.4732 75.8294 -72.4119
v  28.1811 73.7618 -72.8662
v  28.1854 73.9947 -73.3551
v  7.8025 78.7869 -70.2129
v  7.7896 78.9858 -70.7015
v  15.7105 77.3270 -71.0314
v  15.7033 77.5330 -71.5203
v  -10.5229 80.7350 -68.9340
v  -10.5351 80.9447 -69.4156
v  -1.0466 79.9284 -69.5028
v  -1.0621 80.1296 -69.9892
v  -29.5482 81.7127 -68.2561
v  -29.5464 81.9361 -68.7308
v  -20.1553 81.2945 -68.5204
v  -20.1605 81.5130 -68.9973
v  -48.3232 82.1453 -68.0281
v  -48.3185 82.3690 -68.5029
v  -38.7641 82.0641 -68.0740
v  -38.7545 82.2883 -68.5481
v  -68.4016 82.0921 -68.9015
v  -58.1681 82.3413 -68.5859
v  -68.3810 81.8434 -68.4338
v  -58.1636 82.1115 -68.1126
v  33.2249 71.7902 -73.9018
v  33.2351 72.0249 -74.3933
v  28.7349 75.1978 -73.0021
v  28.5324 74.8985 -73.4487
v  22.9051 77.0323 -72.0516
v  22.7436 76.7272 -72.5003
v  16.0274 78.7208 -71.1624
v  15.9028 78.4139 -71.6098
v  8.0121 80.1692 -70.3401
v  7.9216 79.8604 -70.7883
v  -10.4367 82.1240 -69.0102
v  -0.9197 81.3132 -69.6120
v  -10.4809 81.8241 -69.4708
v  -0.9822 81.0062 -70.0646
v  -20.0790 82.6854 -68.5650
v  -20.1125 82.3936 -69.0329
v  -29.4669 83.1021 -68.2856
v  -29.4952 82.8160 -68.7567
v  -38.6714 83.4499 -68.0995
v  -38.6959 83.1660 -68.5713
v  -48.2999 83.5252 -68.0566
v  -48.3038 83.2433 -68.5273
v  -68.6157 83.2537 -68.4163
v  -58.2429 83.4957 -68.1303
v  -68.5499 82.9847 -68.8968
v  -58.2183 83.2183 -68.6030
v  -58.1833 82.6720 -68.7960
v  -68.4487 82.4292 -69.1022
v  -58.1948 82.8718 -68.7985
v  -68.4844 82.6438 -69.0995
v  -48.3126 82.6973 -68.7160
v  -48.3093 82.8947 -68.7201
v  -38.7349 82.6166 -68.7606
v  -38.7215 82.8174 -68.7643
v  -29.5323 82.2640 -68.9441
v  -29.5204 82.4667 -68.9484
v  -20.1502 81.8387 -69.2140
v  -20.1391 82.0422 -69.2205
v  -10.5262 81.2661 -69.6394
v  -10.5136 81.4693 -69.6505
v  -1.0479 80.4463 -70.2199
v  -1.0292 80.6492 -70.2359
v  7.8183 79.2993 -70.9355
v  7.8495 79.5048 -70.9545
v  15.7510 77.8461 -71.7535
v  15.8004 78.0633 -71.7739
v  22.5390 76.1440 -72.6415
v  22.6114 76.3833 -72.6630
v  28.2698 74.3081 -73.5832
v  28.3686 74.5642 -73.6075
v  33.3405 72.3303 -74.6256
v  33.4657 72.5856 -74.6560
v  33.9115 73.1904 -74.0682
v  33.6651 72.9055 -74.5059
# 78 vertices

vn -0.3044 -0.8685 -0.3911
vn -0.2996 -0.7505 -0.5890
vn -0.3700 -0.8377 -0.4017
vn -0.3630 -0.7181 -0.5938
vn -0.1753 -0.9135 -0.3672
vn -0.1765 -0.8001 -0.5733
vn -0.2371 -0.8966 -0.3741
vn -0.2357 -0.7814 -0.5778
vn -0.0858 -0.9143 -0.3959
vn -0.0883 -0.7957 -0.5992
vn -0.1246 -0.9181 -0.3762
vn -0.1269 -0.8036 -0.5814
vn -0.0476 -0.9037 -0.4255
vn -0.0474 -0.7792 -0.6250
vn -0.0622 -0.9077 -0.4149
vn -0.0632 -0.7851 -0.6162
vn -0.0013 -0.9047 -0.4261
vn -0.0007 -0.7799 -0.6259
vn -0.0258 -0.9036 -0.4276
vn -0.0255 -0.7778 -0.6280
vn 0.0609 -0.7466 -0.6625
vn 0.0237 -0.7725 -0.6346
vn 0.0585 -0.8806 -0.4702
vn 0.0219 -0.8994 -0.4367
vn -0.4372 -0.8080 -0.3948
vn -0.4298 -0.6889 -0.5837
vn 0.1640 0.7834 -0.5995
vn 0.0956 0.6634 -0.7421
vn 0.1356 0.7958 -0.5901
vn 0.0785 0.6694 -0.7387
vn 0.1033 0.8066 -0.5820
vn 0.0571 0.6737 -0.7368
vn 0.0720 0.8145 -0.5757
vn 0.0365 0.6772 -0.7349
vn 0.0300 0.8363 -0.5475
vn 0.0474 0.8238 -0.5650
vn 0.0118 0.7003 -0.7137
vn 0.0211 0.6854 -0.7278
vn 0.0239 0.8473 -0.5306
vn 0.0110 0.7145 -0.6996
vn 0.0224 0.8538 -0.5201
vn 0.0128 0.7219 -0.6918
vn 0.0132 0.8564 -0.5161
vn 0.0080 0.7261 -0.6875
vn 0.0031 0.8579 -0.5138
vn 0.0031 0.7261 -0.6876
vn -0.0155 0.8717 -0.4898
vn -0.0021 0.8626 -0.5059
vn -0.0025 0.7483 -0.6634
vn 0.0032 0.7329 -0.6804
vn 0.0233 -0.3697 -0.9289
vn 0.0542 -0.3272 -0.9434
vn 0.0135 0.3356 -0.9419
vn 0.0248 0.3537 -0.9350
vn 0.0007 -0.3810 -0.9246
vn 0.0026 0.3277 -0.9448
vn -0.0200 -0.3751 -0.9268
vn -0.0041 0.3284 -0.9445
vn -0.0382 -0.3774 -0.9253
vn -0.0098 0.3226 -0.9465
vn -0.0538 -0.3858 -0.9210
vn -0.0188 0.3127 -0.9497
vn -0.0772 -0.4035 -0.9117
vn -0.0296 0.2936 -0.9555
vn -0.1085 -0.4184 -0.9018
vn -0.0390 0.2748 -0.9607
vn -0.1465 -0.4166 -0.8972
vn -0.0473 0.2661 -0.9628
vn -0.1886 -0.3911 -0.9008
vn -0.0557 0.2642 -0.9629
vn -0.2316 -0.3488 -0.9081
vn -0.0673 0.2629 -0.9625
vn -0.2765 -0.3095 -0.9098
vn -0.0845 0.2632 -0.9610
vn -0.3282 -0.2832 -0.9011
vn -0.1055 0.2650 -0.9585
vn 0.1917 0.7695 -0.6092
vn 0.1099 0.6546 -0.7479
# 78 vertex normals

vt 0.5639 0.7590 0.0000
vt 0.5641 0.7581 0.0000
vt 0.5743 0.7620 0.0000
vt 0.5747 0.7611 0.0000
vt 0.5369 0.7537 0.0000
vt 0.5370 0.7528 0.0000
vt 0.5514 0.7562 0.0000
vt 0.5516 0.7552 0.0000
vt 0.5032 0.7500 0.0000
vt 0.5033 0.7490 0.0000
vt 0.5206 0.7516 0.0000
vt 0.5207 0.7507 0.0000
vt 0.4683 0.7476 0.0000
vt 0.4683 0.7467 0.0000
vt 0.4855 0.7486 0.0000
vt 0.4856 0.7477 0.0000
vt 0.4338 0.7464 0.0000
vt 0.4338 0.7454 0.0000
vt 0.4514 0.7468 0.0000
vt 0.4514 0.7458 0.0000
vt 0.3970 0.7457 0.0000
vt 0.4158 0.7453 0.0000
vt 0.3971 0.7466 0.0000
vt 0.4158 0.7463 0.0000
vt 0.5836 0.7655 0.0000
vt 0.5840 0.7646 0.0000
vt 0.5757 0.7583 0.0000
vt 0.5753 0.7593 0.0000
vt 0.5649 0.7552 0.0000
vt 0.5646 0.7562 0.0000
vt 0.5522 0.7524 0.0000
vt 0.5520 0.7534 0.0000
vt 0.5375 0.7500 0.0000
vt 0.5373 0.7510 0.0000
vt 0.5035 0.7462 0.0000
vt 0.5210 0.7479 0.0000
vt 0.5034 0.7472 0.0000
vt 0.5209 0.7489 0.0000
vt 0.4858 0.7448 0.0000
vt 0.4857 0.7459 0.0000
vt 0.4685 0.7438 0.0000
vt 0.4685 0.7448 0.0000
vt 0.4516 0.7430 0.0000
vt 0.4515 0.7440 0.0000
vt 0.4339 0.7426 0.0000
vt 0.4339 0.7436 0.0000
vt 0.3966 0.7428 0.0000
vt 0.4157 0.7425 0.0000
vt 0.3967 0.7438 0.0000
vt 0.4157 0.7435 0.0000
vt 0.4157 0.7446 0.0000
vt 0.3969 0.7449 0.0000
vt 0.4157 0.7442 0.0000
vt 0.3968 0.7445 0.0000
vt 0.4339 0.7447 0.0000
vt 0.4339 0.7444 0.0000
vt 0.4515 0.7451 0.0000
vt 0.4515 0.7447 0.0000
vt 0.4684 0.7459 0.0000
vt 0.4684 0.7456 0.0000
vt 0.4856 0.7470 0.0000
vt 0.4857 0.7466 0.0000
vt 0.5033 0.7483 0.0000
vt 0.5034 0.7479 0.0000
vt 0.5208 0.7500 0.0000
vt 0.5208 0.7496 0.0000
vt 0.5372 0.7521 0.0000
vt 0.5372 0.7517 0.0000
vt 0.5518 0.7545 0.0000
vt 0.5519 0.7541 0.0000
vt 0.5643 0.7574 0.0000
vt 0.5644 0.7569 0.0000
vt 0.5749 0.7605 0.0000
vt 0.5751 0.7600 0.0000
vt 0.5843 0.7639 0.0000
vt 0.5846 0.7635 0.0000
vt 0.5853 0.7619 0.0000
vt 0.5849 0.7628 0.0000
# 78 texture coords

g H126_18A5_L_H126_18A5_L_1_DaS
usemtl chrome_1SG
s 1
f 83/83/83 84/84/84 85/85/85 
f 85/85/85 84/84/84 86/86/86 
f 87/87/87 88/88/88 89/89/89 
f 89/89/89 88/88/88 90/90/90 
f 91/91/91 92/92/92 93/93/93 
f 93/93/93 92/92/92 94/94/94 
f 95/95/95 96/96/96 97/97/97 
f 97/97/97 96/96/96 98/98/98 
f 99/99/99 100/100/100 101/101/101 
f 101/101/101 100/100/100 102/102/102 
f 103/103/103 104/104/104 105/105/105 
f 105/105/105 104/104/104 106/106/106 
f 85/85/85 86/86/86 107/107/107 
f 107/107/107 86/86/86 108/108/108 
f 89/89/89 90/90/90 83/83/83 
f 83/83/83 90/90/90 84/84/84 
f 109/109/109 110/110/110 111/111/111 
f 111/111/111 110/110/110 112/112/112 
f 87/87/87 93/93/93 88/88/88 
f 88/88/88 93/93/93 94/94/94 
f 113/113/113 114/114/114 115/115/115 
f 115/115/115 114/114/114 116/116/116 
f 91/91/91 97/97/97 92/92/92 
f 92/92/92 97/97/97 98/98/98 
f 117/117/117 118/118/118 119/119/119 
f 119/119/119 118/118/118 120/120/120 
f 101/101/101 102/102/102 95/95/95 
f 95/95/95 102/102/102 96/96/96 
f 121/121/121 122/122/122 123/123/123 
f 123/123/123 122/122/122 124/124/124 
f 99/99/99 106/106/106 100/100/100 
f 100/100/100 106/106/106 104/104/104 
f 125/125/125 126/126/126 127/127/127 
f 127/127/127 126/126/126 128/128/128 
f 129/129/129 130/130/130 131/131/131 
f 131/131/131 130/130/130 132/132/132 
f 133/133/133 134/134/134 135/135/135 
f 135/135/135 134/134/134 136/136/136 
f 137/137/137 133/133/133 138/138/138 
f 138/138/138 133/133/133 135/135/135 
f 137/137/137 138/138/138 139/139/139 
f 139/139/139 138/138/138 140/140/140 
f 139/139/139 140/140/140 141/141/141 
f 141/141/141 140/140/140 142/142/142 
f 141/141/141 142/142/142 143/143/143 
f 143/143/143 142/142/142 144/144/144 
f 145/145/145 143/143/143 146/146/146 
f 146/146/146 143/143/143 144/144/144 
f 147/147/147 145/145/145 148/148/148 
f 148/148/148 145/145/145 146/146/146 
f 149/149/149 147/147/147 150/150/150 
f 150/150/150 147/147/147 148/148/148 
f 149/149/149 150/150/150 151/151/151 
f 151/151/151 150/150/150 152/152/152 
f 151/151/151 152/152/152 153/153/153 
f 153/153/153 152/152/152 154/154/154 
f 153/153/153 154/154/154 155/155/155 
f 155/155/155 154/154/154 156/156/156 
f 155/155/155 156/156/156 157/157/157 
f 157/157/157 156/156/156 158/158/158 
f 128/128/128 132/132/132 127/127/127 
f 127/127/127 132/132/132 130/130/130 
f 123/123/123 124/124/124 125/125/125 
f 125/125/125 124/124/124 126/126/126 
f 117/117/117 119/119/119 121/121/121 
f 121/121/121 119/119/119 122/122/122 
f 115/115/115 116/116/116 118/118/118 
f 118/118/118 116/116/116 120/120/120 
f 111/111/111 112/112/112 113/113/113 
f 113/113/113 112/112/112 114/114/114 
f 159/159/159 160/160/160 109/109/109 
f 109/109/109 160/160/160 110/110/110 
f 134/134/134 133/133/133 103/103/103 
f 103/103/103 133/133/133 104/104/104 
f 133/133/133 137/137/137 104/104/104 
f 104/104/104 137/137/137 100/100/100 
f 100/100/100 137/137/137 102/102/102 
f 102/102/102 137/137/137 139/139/139 
f 102/102/102 139/139/139 96/96/96 
f 96/96/96 139/139/139 141/141/141 
f 96/96/96 141/141/141 98/98/98 
f 98/98/98 141/141/141 143/143/143 
f 98/98/98 143/143/143 92/92/92 
f 92/92/92 143/143/143 145/145/145 
f 92/92/92 145/145/145 94/94/94 
f 94/94/94 145/145/145 147/147/147 
f 94/94/94 147/147/147 88/88/88 
f 88/88/88 147/147/147 149/149/149 
f 88/88/88 149/149/149 90/90/90 
f 90/90/90 149/149/149 151/151/151 
f 90/90/90 151/151/151 84/84/84 
f 84/84/84 151/151/151 153/153/153 
f 84/84/84 153/153/153 86/86/86 
f 86/86/86 153/153/153 155/155/155 
f 86/86/86 155/155/155 108/108/108 
f 108/108/108 155/155/155 157/157/157 
f 131/131/131 132/132/132 136/136/136 
f 136/136/136 132/132/132 135/135/135 
f 132/132/132 128/128/128 135/135/135 
f 135/135/135 128/128/128 138/138/138 
f 138/138/138 128/128/128 140/140/140 
f 140/140/140 128/128/128 126/126/126 
f 140/140/140 126/126/126 142/142/142 
f 142/142/142 126/126/126 124/124/124 
f 142/142/142 124/124/124 144/144/144 
f 144/144/144 124/124/124 122/122/122 
f 144/144/144 122/122/122 146/146/146 
f 146/146/146 122/122/122 119/119/119 
f 146/146/146 119/119/119 148/148/148 
f 148/148/148 119/119/119 120/120/120 
f 148/148/148 120/120/120 150/150/150 
f 150/150/150 120/120/120 116/116/116 
f 150/150/150 116/116/116 152/152/152 
f 152/152/152 116/116/116 114/114/114 
f 152/152/152 114/114/114 154/154/154 
f 154/154/154 114/114/114 112/112/112 
f 154/154/154 112/112/112 156/156/156 
f 156/156/156 112/112/112 110/110/110 
f 156/156/156 110/110/110 158/158/158 
f 158/158/158 110/110/110 160/160/160 
# 120 faces

#
# object H126_18A5_L_2_DaS_H126_18A5_L_E
#

v  -58.9089 89.3407 -58.1912
v  -70.0285 89.2185 -58.0580
v  -58.9050 88.8135 -58.0942
v  -70.0164 88.6896 -57.9713
v  -48.4911 89.3202 -58.3648
v  -48.4924 88.7941 -58.2615
v  -38.5437 89.2153 -58.5892
v  -38.5533 88.6895 -58.4856
v  -29.3399 88.8800 -58.8697
v  -29.3574 88.3540 -58.7673
v  -19.9524 88.4709 -59.2484
v  -19.9743 87.9448 -59.1476
v  -10.2933 87.9106 -59.7984
v  -10.3243 87.3848 -59.6986
v  -0.6576 87.1122 -60.4078
v  -0.7038 86.5875 -60.3081
v  8.5690 85.9743 -61.2832
v  8.5047 85.4507 -61.1879
v  17.0146 84.6530 -62.1011
v  16.9313 84.1305 -62.0150
v  24.4080 83.1802 -63.0725
v  24.3011 82.6617 -62.9890
v  30.8561 81.5303 -63.9113
v  30.7150 81.0208 -63.8249
v  36.0381 79.7608 -64.5362
v  35.8766 79.2571 -64.4487
# 26 vertices

vn 0.0130 0.1813 0.9833
vn 0.0098 0.1811 0.9834
vn 0.0130 0.1811 0.9834
vn 0.0091 0.1619 0.9868
vn 0.0204 0.1926 0.9811
vn 0.0204 0.1924 0.9811
vn 0.0305 0.1927 0.9808
vn 0.0305 0.1926 0.9808
vn 0.0425 0.1895 0.9810
vn 0.0572 0.1855 0.9810
vn 0.0572 0.1856 0.9810
vn 0.0718 0.1820 0.9807
vn 0.0960 0.1776 0.9794
vn 0.0960 0.1778 0.9794
vn 0.1174 0.1634 0.9796
vn 0.1175 0.1640 0.9794
vn 0.1370 0.1395 0.9807
vn 0.1371 0.1402 0.9806
vn 0.1567 0.1253 0.9797
vn 0.1568 0.1256 0.9796
vn 0.1592 0.1219 0.9797
vn 0.1592 0.1195 0.9800
vn 0.1592 0.1193 0.9800
# 23 vertex normals

vt 0.4148 0.7205 0.0000
vt 0.3944 0.7200 0.0000
vt 0.4148 0.7195 0.0000
vt 0.3944 0.7191 0.0000
vt 0.4339 0.7211 0.0000
vt 0.4339 0.7202 0.0000
vt 0.4521 0.7219 0.0000
vt 0.4521 0.7209 0.0000
vt 0.4690 0.7228 0.0000
vt 0.4690 0.7218 0.0000
vt 0.4862 0.7239 0.0000
vt 0.4863 0.7229 0.0000
vt 0.5039 0.7254 0.0000
vt 0.5040 0.7244 0.0000
vt 0.5215 0.7271 0.0000
vt 0.5216 0.7261 0.0000
vt 0.5384 0.7294 0.0000
vt 0.5385 0.7284 0.0000
vt 0.5538 0.7317 0.0000
vt 0.5540 0.7308 0.0000
vt 0.5673 0.7344 0.0000
vt 0.5675 0.7335 0.0000
vt 0.5791 0.7370 0.0000
vt 0.5792 0.7360 0.0000
vt 0.5890 0.7388 0.0000
vt 0.5891 0.7378 0.0000
# 26 texture coords

g H126_18A5_L_2_DaS_H126_18A5_L_E
usemtl paint_whiteSG
s 1
f 161/161/161 162/162/162 163/163/163 
s off
f 163/163/164 162/162/164 164/164/164 
s 1
f 165/165/165 161/161/161 166/166/166 
f 166/166/166 161/161/161 163/163/163 
f 167/167/167 165/165/165 168/168/168 
f 168/168/168 165/165/165 166/166/166 
f 167/167/167 168/168/168 169/169/169 
f 169/169/169 168/168/168 170/170/169 
f 171/171/170 169/169/169 172/172/171 
f 172/172/171 169/169/169 170/170/169 
f 173/173/172 171/171/170 174/174/172 
f 174/174/172 171/171/170 172/172/171 
f 175/175/173 173/173/172 176/176/174 
f 176/176/174 173/173/172 174/174/172 
f 177/177/175 175/175/173 178/178/176 
f 178/178/176 175/175/173 176/176/174 
f 179/179/177 177/177/175 180/180/178 
f 180/180/178 177/177/175 178/178/176 
f 181/181/179 179/179/177 182/182/180 
f 182/182/180 179/179/177 180/180/178 
f 183/183/181 181/181/179 184/184/181 
f 184/184/181 181/181/179 182/182/180 
f 183/183/181 184/184/181 185/185/182 
f 185/185/182 184/184/181 186/186/183 
# 24 faces

