# 3ds Max Wavefront OBJ Exporter v0.97b - (c)2007 guruware
# File Created: 23.11.2015 10:16:57

mtllib H126_324H_R.mtl

#
# object H126_324H_R_1_DTaSI_H126_324H_R
#

v  -125.3916 51.5451 85.0295
v  -130.2187 49.3365 86.0917
v  -127.7425 43.2623 89.0229
v  -132.1570 42.9827 89.1185
v  -131.2739 42.8434 89.1929
v  -131.4149 48.6888 86.3831
v  -132.3721 47.3207 87.0255
v  -132.9901 46.3294 87.4921
v  -133.3570 45.6471 87.8141
v  -133.5437 45.1579 88.0464
v  -133.6402 44.6430 88.2927
v  -132.5910 43.1045 89.0517
v  -132.9514 43.2719 88.9648
v  -133.6338 44.1988 88.5067
v  -133.2862 43.4972 88.8505
v  -133.5244 43.8255 88.6883
v  -120.1181 53.4253 84.0419
v  -123.6654 57.6263 82.0976
v  -118.3350 58.9520 81.3062
v  -120.6183 60.1560 80.7885
v  -118.4743 59.6917 80.9575
v  -120.1999 60.4199 80.6506
v  -119.8265 60.5164 80.5945
v  -119.4274 60.5036 80.5903
v  -119.0219 60.3748 80.6418
v  -118.7258 60.1495 80.7425
v  -130.7492 49.6406 85.9362
v  -129.6595 51.1714 85.2175
v  -129.6957 42.7349 89.2724
v  -127.9176 42.6221 89.3568
v  -122.6342 43.6883 88.8325
v  -122.9462 42.4334 89.4920
v  -117.0331 43.9126 88.7221
v  -117.2452 43.3928 89.0006
v  -117.5659 42.9816 89.2175
v  -118.0346 42.6774 89.3772
v  -118.5774 42.5129 89.4626
v  -119.3833 42.4224 89.5080
v  -116.9574 44.6592 88.3343
v  -116.9843 45.3889 87.9731
v  -117.7972 53.9941 83.7190
v  -125.1499 56.2487 82.7694
v  -127.4157 53.9314 83.8901
# 43 vertices

vn 0.0073 0.4356 0.9001
vn -0.0026 0.4337 0.9011
vn -0.0041 0.4363 0.8998
vn -0.0099 0.4325 0.9016
vn -0.0079 0.4322 0.9017
vn -0.0155 0.4339 0.9009
vn -0.0156 0.4339 0.9008
vn -0.0158 0.4339 0.9008
vn -0.0160 0.4338 0.9009
vn -0.0159 0.4338 0.9009
vn -0.0170 0.4331 0.9012
vn -0.0158 0.4337 0.9009
vn -0.0157 0.4338 0.9009
vn -0.0156 0.4338 0.9009
vn 0.0142 0.4382 0.8988
vn 0.0202 0.4342 0.9006
vn 0.0240 0.4367 0.8993
vn 0.0252 0.4350 0.9001
vn 0.0220 0.4301 0.9025
vn 0.0230 0.4341 0.9006
vn 0.0232 0.4344 0.9004
vn 0.0234 0.4347 0.9003
vn 0.0242 0.4353 0.9000
vn 0.0264 0.4368 0.8992
vn -0.0153 0.4338 0.9009
vn 0.0018 0.4306 0.9025
vn -0.0126 0.4653 0.8850
vn -0.0084 0.4642 0.8857
vn 0.0019 0.4410 0.8975
vn -0.0047 0.4661 0.8847
vn -0.0012 0.4649 0.8854
vn -0.0017 0.4713 0.8820
vn -0.0020 0.4675 0.8840
vn -0.0020 0.4671 0.8842
vn -0.0022 0.4664 0.8845
vn -0.0025 0.4658 0.8849
vn 0.0012 0.4512 0.8924
vn 0.0045 0.4410 0.8975
vn 0.0164 0.4421 0.8968
vn 0.0054 0.4329 0.9014
vn 0.0025 0.4326 0.9016
# 41 vertex normals

vt 0.9409 0.9467 0.0000
vt 0.9589 0.9572 0.0000
vt 0.9478 0.9825 0.0000
vt 0.9647 0.9846 0.0000
vt 0.9613 0.9850 0.0000
vt 0.9633 0.9602 0.0000
vt 0.9666 0.9662 0.0000
vt 0.9687 0.9705 0.0000
vt 0.9700 0.9735 0.0000
vt 0.9705 0.9756 0.0000
vt 0.9708 0.9778 0.0000
vt 0.9664 0.9842 0.0000
vt 0.9678 0.9835 0.0000
vt 0.9707 0.9797 0.0000
vt 0.9691 0.9826 0.0000
vt 0.9701 0.9813 0.0000
vt 0.9212 0.9373 0.0000
vt 0.9359 0.9204 0.0000
vt 0.9158 0.9133 0.0000
vt 0.9248 0.9088 0.0000
vt 0.9165 0.9102 0.0000
vt 0.9233 0.9076 0.0000
vt 0.9219 0.9071 0.0000
vt 0.9204 0.9070 0.0000
vt 0.9188 0.9074 0.0000
vt 0.9176 0.9083 0.0000
vt 0.9610 0.9560 0.0000
vt 0.9572 0.9493 0.0000
vt 0.9552 0.9851 0.0000
vt 0.9483 0.9853 0.0000
vt 0.9284 0.9795 0.0000
vt 0.9292 0.9850 0.0000
vt 0.9069 0.9773 0.0000
vt 0.9076 0.9796 0.0000
vt 0.9087 0.9814 0.0000
vt 0.9105 0.9829 0.0000
vt 0.9125 0.9837 0.0000
vt 0.9156 0.9843 0.0000
vt 0.9068 0.9740 0.0000
vt 0.9071 0.9709 0.0000
vt 0.9125 0.9343 0.0000
vt 0.9412 0.9266 0.0000
vt 0.9493 0.9370 0.0000
# 43 texture coords

g H126_324H_R_1_DTaSI_H126_324H_R
usemtl windowglass_1SG
s 1
f 1/1/1 2/2/2 3/3/3 
f 4/4/4 5/5/5 2/2/2 
f 3/3/3 2/2/2 5/5/5 
f 2/2/2 6/6/6 4/4/4 
f 6/6/6 7/7/7 4/4/4 
f 7/7/7 8/8/8 4/4/4 
f 8/8/8 9/9/9 4/4/4 
f 9/9/9 10/10/10 4/4/4 
f 10/10/10 11/11/9 4/4/4 
f 4/4/4 11/11/9 12/12/11 
f 12/12/11 11/11/9 13/13/12 
f 11/11/9 14/14/13 13/13/12 
f 13/13/12 14/14/13 15/15/14 
f 15/15/14 14/14/13 16/16/7 
f 1/1/1 17/17/15 18/18/16 
f 17/17/15 19/19/17 18/18/16 
f 18/18/16 19/19/17 20/20/18 
f 19/19/17 21/21/19 20/20/18 
f 20/20/18 21/21/19 22/22/20 
f 22/22/20 21/21/19 23/23/21 
f 23/23/21 21/21/19 24/24/22 
f 24/24/22 21/21/19 25/25/23 
f 25/25/23 21/21/19 26/26/24 
f 27/27/25 2/2/2 28/28/26 
f 2/2/2 27/27/25 6/6/6 
f 5/5/5 29/29/27 3/3/3 
f 29/29/27 30/30/28 3/3/3 
f 31/31/29 3/3/3 32/32/30 
f 3/3/3 30/30/28 32/32/30 
f 33/33/31 31/31/29 34/34/32 
f 34/34/32 31/31/29 35/35/33 
f 35/35/33 31/31/29 36/36/34 
f 36/36/34 31/31/29 37/37/35 
f 37/37/35 31/31/29 38/38/36 
f 31/31/29 32/32/30 38/38/36 
f 31/31/29 33/33/31 39/39/37 
f 40/40/38 41/41/39 17/17/15 
f 3/3/3 31/31/29 1/1/1 
f 31/31/29 17/17/15 1/1/1 
f 17/17/15 41/41/39 19/19/17 
f 18/18/16 42/42/40 1/1/1 
f 42/42/40 43/43/41 1/1/1 
f 2/2/2 1/1/1 28/28/26 
f 1/1/1 43/43/41 28/28/26 
f 31/31/29 39/39/37 40/40/38 
f 31/31/29 40/40/38 17/17/15 
# 46 faces

#
# object H126_324H_R_H126_324H_R_2_DTaSI
#

v  -126.7674 57.0382 82.4066
v  -123.0362 59.8430 81.0288
v  -122.8532 60.5545 80.7094
v  -135.3966 46.4581 87.3719
v  -134.3873 47.0795 87.1072
v  -133.8802 48.5575 86.4044
v  -136.0880 42.1758 89.4375
v  -136.4702 44.8108 88.1387
v  -137.1226 43.6888 88.6652
v  -137.4096 42.9973 88.9938
v  -137.4618 42.4624 89.2541
v  -137.2084 42.0209 89.4781
v  -136.3141 41.5947 89.7505
v  -136.7916 41.7428 89.6426
v  -134.6548 41.2739 89.9623
v  -132.2342 42.7295 89.2391
v  -132.7353 41.0521 90.1198
v  -114.5258 43.9961 88.6775
v  -116.0609 43.9516 88.7029
v  -114.0623 40.1077 90.7542
v  -116.7058 40.2201 90.6887
v  -116.8551 63.5394 79.0354
v  -117.0496 65.1722 78.3167
v  -118.3350 58.9520 81.3062
v  -115.7764 54.4893 83.4379
v  -117.7972 53.9941 83.7190
v  -116.9843 45.3889 87.9731
v  -116.9574 44.6592 88.3343
v  -117.0331 43.9126 88.7221
v  -117.2452 43.3928 89.0006
v  -117.5659 42.9816 89.2175
v  -118.0346 42.6774 89.3772
v  -123.4207 40.5254 90.4948
v  -118.5774 42.5129 89.4626
v  -119.3833 42.4224 89.5080
v  -122.9462 42.4334 89.4920
v  -127.9176 42.6221 89.3568
v  -128.4246 40.7683 90.3237
v  -129.6957 42.7349 89.2724
v  -131.2739 42.8434 89.1929
v  -132.1570 42.9827 89.1185
v  -133.3570 45.6471 87.8141
v  -133.5437 45.1579 88.0464
v  -133.6402 44.6430 88.2927
v  -133.6338 44.1988 88.5067
v  -133.5244 43.8255 88.6883
v  -133.2862 43.4972 88.8505
v  -132.5910 43.1045 89.0517
v  -132.9514 43.2719 88.9648
v  -131.4149 48.6888 86.3831
v  -132.3721 47.3207 87.0255
v  -132.9901 46.3294 87.4921
v  -132.3743 50.5718 85.4602
v  -130.7492 49.6406 85.9362
v  -128.3495 55.4701 83.1696
v  -130.2743 53.3774 84.1449
v  -129.6595 51.1714 85.2175
v  -127.4157 53.9314 83.8901
v  -123.6654 57.6263 82.0976
v  -125.1499 56.2487 82.7694
v  -120.6183 60.1560 80.7885
v  -120.1999 60.4199 80.6506
v  -119.8265 60.5164 80.5945
v  -119.4274 60.5036 80.5903
v  -119.0219 60.3748 80.6418
v  -118.7258 60.1495 80.7425
v  -118.4743 59.6917 80.9575
# 67 vertices

vn 0.0084 0.4310 0.9023
vn 0.0332 0.4193 0.9073
vn 0.0550 0.3989 0.9154
vn -0.0342 0.4387 0.8980
vn -0.0215 0.4353 0.9000
vn -0.0159 0.4339 0.9008
vn -0.0232 0.4539 0.8907
vn -0.0307 0.4383 0.8983
vn -0.0291 0.4386 0.8982
vn -0.0286 0.4390 0.8981
vn -0.0281 0.4395 0.8978
vn -0.0293 0.4469 0.8941
vn -0.0256 0.4818 0.8759
vn -0.0370 0.4763 0.8785
vn -0.0218 0.4741 0.8802
vn -0.0168 0.4625 0.8865
vn -0.0146 0.4675 0.8839
vn 0.0031 0.4529 0.8916
vn -0.0004 0.4546 0.8907
vn -0.0015 0.4702 0.8825
vn -0.0031 0.4695 0.8829
vn 0.0422 0.4168 0.9080
vn 0.0517 0.4075 0.9118
vn 0.0178 0.4389 0.8983
vn 0.0157 0.4444 0.8957
vn 0.0145 0.4454 0.8952
vn -0.0219 0.4414 0.8970
vn -0.0132 0.4487 0.8936
vn -0.0009 0.4687 0.8834
vn 0.0031 0.4701 0.8826
vn -0.0041 0.4692 0.8831
vn -0.0041 0.4691 0.8831
vn -0.0052 0.4667 0.8844
vn -0.0008 0.4625 0.8866
vn -0.0025 0.4656 0.8850
vn -0.0045 0.4661 0.8847
vn -0.0085 0.4648 0.8854
vn -0.0094 0.4648 0.8854
vn -0.0116 0.4658 0.8848
vn -0.0125 0.4672 0.8841
vn -0.0108 0.4327 0.9014
vn -0.0155 0.4335 0.9010
vn -0.0161 0.4339 0.9008
vn -0.0160 0.4338 0.9009
vn -0.0159 0.4338 0.9009
vn -0.0158 0.4337 0.9009
vn -0.0158 0.4336 0.9010
vn -0.0161 0.4345 0.9005
vn -0.0158 0.4336 0.9009
vn -0.0153 0.4337 0.9009
vn -0.0154 0.4337 0.9009
vn -0.0154 0.4336 0.9010
vn -0.0153 0.4338 0.9009
vn 0.0051 0.4294 0.9031
vn -0.0152 0.4338 0.9009
vn -0.0124 0.4331 0.9013
vn 0.0083 0.4282 0.9037
vn 0.0122 0.4313 0.9021
vn 0.0082 0.4305 0.9026
vn 0.0341 0.4292 0.9026
vn 0.0112 0.4503 0.8928
vn 0.0215 0.4415 0.8970
vn 0.0243 0.4394 0.8980
vn 0.0262 0.4382 0.8985
vn 0.0275 0.4374 0.8988
vn 0.0384 0.4336 0.9003
# 66 vertex normals

vt 0.9476 0.9237 0.0000
vt 0.9340 0.9109 0.0000
vt 0.9335 0.9078 0.0000
vt 0.9780 0.9704 0.0000
vt 0.9743 0.9676 0.0000
vt 0.9727 0.9612 0.0000
vt 0.9795 0.9888 0.0000
vt 0.9817 0.9776 0.0000
vt 0.9839 0.9825 0.0000
vt 0.9848 0.9855 0.0000
vt 0.9849 0.9878 0.0000
vt 0.9838 0.9897 0.0000
vt 0.9803 0.9914 0.0000
vt 0.9821 0.9908 0.0000
vt 0.9738 0.9925 0.0000
vt 0.9649 0.9857 0.0000
vt 0.9664 0.9931 0.0000
vt 0.8974 0.9763 0.0000
vt 0.9032 0.9769 0.0000
vt 0.8946 0.9931 0.0000
vt 0.9047 0.9932 0.0000
vt 0.9113 0.8933 0.0000
vt 0.9124 0.8866 0.0000
vt 0.9158 0.9133 0.0000
vt 0.9048 0.9317 0.0000
vt 0.9125 0.9343 0.0000
vt 0.9071 0.9709 0.0000
vt 0.9068 0.9740 0.0000
vt 0.9069 0.9773 0.0000
vt 0.9076 0.9796 0.0000
vt 0.9087 0.9814 0.0000
vt 0.9105 0.9829 0.0000
vt 0.9306 0.9934 0.0000
vt 0.9125 0.9837 0.0000
vt 0.9156 0.9843 0.0000
vt 0.9292 0.9850 0.0000
vt 0.9483 0.9853 0.0000
vt 0.9498 0.9934 0.0000
vt 0.9552 0.9851 0.0000
vt 0.9613 0.9850 0.0000
vt 0.9647 0.9846 0.0000
vt 0.9700 0.9735 0.0000
vt 0.9705 0.9756 0.0000
vt 0.9708 0.9778 0.0000
vt 0.9707 0.9797 0.0000
vt 0.9701 0.9813 0.0000
vt 0.9691 0.9826 0.0000
vt 0.9664 0.9842 0.0000
vt 0.9678 0.9835 0.0000
vt 0.9633 0.9602 0.0000
vt 0.9666 0.9662 0.0000
vt 0.9687 0.9705 0.0000
vt 0.9674 0.9524 0.0000
vt 0.9610 0.9560 0.0000
vt 0.9533 0.9307 0.0000
vt 0.9601 0.9400 0.0000
vt 0.9572 0.9493 0.0000
vt 0.9493 0.9370 0.0000
vt 0.9359 0.9204 0.0000
vt 0.9412 0.9266 0.0000
vt 0.9248 0.9088 0.0000
vt 0.9233 0.9076 0.0000
vt 0.9219 0.9071 0.0000
vt 0.9204 0.9070 0.0000
vt 0.9188 0.9074 0.0000
vt 0.9176 0.9083 0.0000
vt 0.9165 0.9102 0.0000
# 67 texture coords

g H126_324H_R_H126_324H_R_2_DTaSI
usemtl windowglass_blackSG
s 1
f 44/44/42 45/45/43 46/46/44 
f 47/47/45 48/48/46 49/49/47 
f 48/48/46 47/47/45 50/50/48 
f 47/47/45 51/51/49 50/50/48 
f 51/51/49 52/52/50 50/50/48 
f 50/50/48 52/52/50 53/53/51 
f 53/53/51 54/54/52 50/50/48 
f 54/54/52 55/55/53 50/50/48 
f 56/56/54 50/50/48 57/57/55 
f 50/50/48 55/55/53 57/57/55 
f 50/50/48 58/58/56 59/59/57 
f 58/58/56 60/60/58 59/59/57 
f 58/58/56 50/50/48 56/56/54 
f 61/61/59 62/62/60 63/63/61 
f 62/62/60 64/64/62 63/63/61 
f 45/45/43 65/65/63 46/46/44 
f 65/65/63 66/66/64 46/46/44 
f 65/65/63 67/67/65 68/68/66 
f 67/67/65 69/69/67 68/68/66 
f 62/62/60 69/69/67 70/70/68 
f 61/61/59 69/69/67 62/62/60 
f 68/68/66 69/69/67 61/61/59 
f 70/70/68 71/71/69 62/62/60 
f 62/62/60 71/71/69 72/72/70 
f 62/62/60 72/72/70 64/64/62 
f 72/72/70 73/73/71 64/64/62 
f 73/73/71 74/74/72 64/64/62 
f 74/74/72 75/75/73 64/64/62 
f 64/64/62 75/75/73 76/76/74 
f 75/75/73 77/77/75 76/76/74 
f 77/77/75 78/78/76 76/76/74 
f 79/79/77 76/76/74 78/78/76 
f 79/79/77 80/80/78 76/76/74 
f 80/80/78 81/81/79 76/76/74 
f 80/80/78 82/82/80 81/81/79 
f 81/81/79 82/82/80 60/60/58 
f 82/82/80 83/83/81 60/60/58 
f 59/59/57 60/60/58 83/83/81 
f 84/84/82 59/59/57 83/83/81 
f 48/48/46 50/50/48 85/85/83 
f 85/85/83 50/50/48 86/86/84 
f 86/86/84 50/50/48 87/87/85 
f 87/87/85 50/50/48 88/88/86 
f 88/88/86 50/50/48 89/89/87 
f 89/89/87 50/50/48 90/90/88 
f 84/84/82 91/91/89 59/59/57 
f 59/59/57 91/91/89 50/50/48 
f 91/91/89 92/92/90 50/50/48 
f 50/50/48 92/92/90 90/90/88 
f 93/93/91 48/48/46 94/94/92 
f 94/94/92 48/48/46 95/95/93 
f 95/95/93 48/48/46 85/85/83 
f 48/48/46 93/93/91 49/49/47 
f 49/49/47 93/93/91 96/96/94 
f 97/97/94 96/96/94 93/93/91 
f 98/98/95 99/99/96 100/100/97 
f 99/99/96 96/96/94 100/100/97 
f 100/100/97 96/96/94 97/97/94 
f 100/100/97 101/101/98 98/98/95 
f 45/45/43 44/44/42 102/102/99 
f 102/102/99 44/44/42 103/103/100 
f 101/101/98 103/103/100 98/98/95 
f 103/103/100 44/44/42 98/98/95 
f 102/102/99 104/104/101 45/45/43 
f 45/45/43 104/104/101 65/65/63 
f 104/104/101 105/105/102 65/65/63 
f 105/105/102 106/106/103 65/65/63 
f 106/106/103 107/107/104 65/65/63 
f 107/107/104 108/108/105 65/65/63 
f 65/65/63 108/108/105 109/109/106 
f 67/67/65 65/65/63 110/110/107 
f 110/110/107 65/65/63 109/109/106 
# 72 faces

