# 3ds Max Wavefront OBJ Exporter v0.97b - (c)2007 guruware
# File Created: 23.11.2015 10:14:03

mtllib H126_206A_L.mtl

#
# object H126_206A_L_DaS_H126_206A_L
#

v  86.2372 -47.6834 -96.3384
v  86.3356 -45.4663 -96.4257
v  93.9701 -47.9368 -96.5338
v  94.0865 -45.6847 -96.6129
v  94.2371 -40.9669 -97.0926
v  94.1886 -43.3648 -96.7963
v  86.5427 -40.7857 -96.9287
v  86.4325 -43.1469 -96.6215
v  100.7243 -43.6627 -97.0444
v  100.7595 -41.1932 -97.3245
v  100.4839 -48.3117 -96.8158
v  100.6239 -45.9842 -96.8810
v  27.5256 -47.0474 -96.1763
v  27.5804 -44.7346 -96.2464
v  37.5965 -47.1429 -96.1879
v  37.6623 -44.8417 -96.2620
v  37.9124 -40.0969 -96.7551
v  37.7313 -42.5208 -96.4470
v  27.7847 -39.9787 -96.7347
v  27.6408 -42.4133 -96.4280
v  47.8010 -40.2262 -96.7751
v  47.7147 -42.6342 -96.4660
v  47.5654 -47.2364 -96.1992
v  47.6388 -44.9547 -96.2773
v  67.6820 -40.5057 -96.8254
v  67.5150 -42.8729 -96.5118
v  57.1142 -40.3568 -96.7954
v  57.0320 -42.7440 -96.4839
v  77.3443 -40.6416 -96.8599
v  77.2432 -42.9963 -96.5435
v  77.0624 -47.5328 -96.2574
v  77.1516 -45.3159 -96.3454
v  56.8719 -47.3230 -96.2099
v  56.9507 -45.0642 -96.2916
v  67.3437 -47.4287 -96.2310
v  67.4281 -45.1927 -96.3162
v  -6.7744 -39.6439 -96.6654
v  1.8468 -39.7296 -96.6827
v  -6.7307 -42.0782 -96.3642
v  1.7760 -42.1621 -96.3798
v  9.8114 -39.8029 -96.6986
v  9.7481 -42.2381 -96.3946
v  9.7042 -46.8704 -96.1560
v  1.8187 -46.7803 -96.1470
v  9.7170 -44.5601 -96.2186
v  1.7789 -44.4846 -96.2061
v  -6.5070 -46.6659 -96.1375
v  -6.6575 -44.4016 -96.1927
v  -20.5756 -41.8995 -96.3402
v  -20.3073 -39.5066 -96.6382
v  -15.3643 -41.9851 -96.3486
v  -15.3957 -39.5581 -96.6481
v  -15.1575 -44.3101 -96.1789
v  -14.7951 -46.5163 -96.1282
v  -20.8406 -44.2178 -96.1704
v  -21.0955 -46.4070 -96.1215
v  106.7721 -44.0363 -97.3341
v  106.8405 -41.4386 -97.5939
v  109.0640 -41.3074 -97.7852
v  109.0910 -44.0683 -97.4700
v  106.6570 -46.3588 -97.1934
v  109.0828 -46.5872 -97.2977
v  106.4789 -48.8066 -97.1414
v  109.0441 -48.9742 -97.2430
v  -103.3817 -43.8802 -97.5210
v  -102.4315 -43.8766 -97.4730
v  -103.3151 -46.5167 -97.5989
v  -102.3661 -46.5167 -97.5499
v  -102.9338 -38.8069 -97.6956
v  -102.3758 -38.8084 -97.6720
v  -102.5177 -41.5524 -97.5117
v  -100.2291 -38.8212 -97.5928
v  -100.1045 -41.5442 -97.4135
v  -100.0253 -43.8727 -97.3677
v  -99.9666 -46.5164 -97.4373
v  -97.2891 -43.8695 -97.2528
v  -94.5529 -43.8662 -97.1379
v  -97.2386 -46.4840 -97.3133
v  -94.5106 -46.4515 -97.1893
v  -94.6137 -41.5382 -97.2016
v  -97.3591 -41.5412 -97.3076
v  -94.7098 -38.8597 -97.4016
v  -97.4695 -38.8405 -97.4972
v  -90.5497 -41.5365 -97.0555
v  -90.6258 -38.8895 -97.2699
v  -90.5023 -43.8641 -96.9788
v  -90.4714 -46.4082 -97.0174
v  -81.7878 -46.3281 -96.6766
v  -81.7959 -43.8656 -96.6635
v  -73.8642 -46.2819 -96.4243
v  -73.8550 -43.8796 -96.4305
v  -73.8534 -41.5545 -96.5545
v  -81.8159 -41.5393 -96.7667
v  -73.9053 -39.0173 -96.8316
v  -81.7775 -38.9555 -97.0077
v  -68.0970 -41.5768 -96.4479
v  -68.0508 -39.0647 -96.7279
v  -68.1293 -46.2731 -96.2958
v  -68.1106 -43.9012 -96.3125
v  -60.1308 -39.1315 -96.6425
v  -60.2448 -41.6166 -96.3851
v  -44.6571 -39.2679 -96.5988
v  -44.8701 -41.6760 -96.3055
v  -52.9120 -39.1946 -96.6105
v  -53.1445 -41.6526 -96.3283
v  -53.6931 -46.2113 -96.1416
v  -53.3633 -43.9753 -96.1744
v  -45.2825 -46.1966 -96.1059
v  -45.0394 -43.9983 -96.1443
v  -60.5482 -46.2407 -96.2148
v  -60.3662 -43.9401 -96.2400
v  -105.9379 -43.7221 -97.6357
v  -104.5622 -43.8628 -97.5819
v  -105.5562 -46.5162 -97.6620
v  -104.4585 -46.5162 -97.6537
v  -104.6712 -41.5243 -97.6235
v  -106.1776 -41.4069 -97.7029
v  -104.8179 -38.8127 -97.7934
v  -106.3603 -38.8195 -97.8770
v  -103.4701 -41.5504 -97.5585
v  -103.6089 -38.8074 -97.7280
v  -28.3440 -46.2812 -96.1138
v  -28.3213 -44.0945 -96.1590
v  -21.7845 -46.3950 -96.1208
v  -21.5318 -44.2064 -96.1693
v  -20.9994 -39.4993 -96.6368
v  -21.2677 -41.8881 -96.3391
v  -28.0764 -39.4250 -96.6226
v  -28.2490 -41.7737 -96.3280
v  17.5534 -46.9505 -96.1650
v  17.5908 -44.6344 -96.2309
v  17.6385 -42.3128 -96.4092
v  17.7760 -39.8761 -96.7146
v  -86.4857 -41.5348 -96.9093
v  -86.5419 -38.9192 -97.1383
v  -86.4517 -43.8619 -96.8197
v  -86.4322 -46.3649 -96.8455
v  -36.2033 -39.3452 -96.6094
v  -36.2608 -41.6855 -96.3162
v  -36.2497 -44.0082 -96.1496
v  -36.1981 -46.1966 -96.1080
# 141 vertices

vn -0.0171 -0.0386 -0.9991
vn -0.0173 -0.0615 -0.9980
vn -0.0343 -0.0338 -0.9988
vn -0.0339 -0.0557 -0.9979
vn -0.0311 -0.1220 -0.9920
vn -0.0326 -0.0995 -0.9945
vn -0.0170 -0.1277 -0.9917
vn -0.0172 -0.1062 -0.9942
vn -0.0463 -0.0900 -0.9949
vn -0.0451 -0.1131 -0.9926
vn -0.0482 -0.0250 -0.9985
vn -0.0473 -0.0466 -0.9978
vn -0.0016 -0.0301 -0.9995
vn -0.0021 -0.0542 -0.9985
vn -0.0016 -0.0320 -0.9995
vn -0.0021 -0.0560 -0.9984
vn -0.0034 -0.1259 -0.9920
vn -0.0030 -0.1032 -0.9947
vn -0.0033 -0.1249 -0.9922
vn -0.0029 -0.1020 -0.9948
vn -0.0036 -0.1273 -0.9919
vn -0.0031 -0.1046 -0.9945
vn -0.0017 -0.0340 -0.9994
vn -0.0022 -0.0578 -0.9983
vn -0.0048 -0.1311 -0.9914
vn -0.0043 -0.1078 -0.9942
vn -0.0041 -0.1294 -0.9916
vn -0.0036 -0.1063 -0.9943
vn -0.0079 -0.1325 -0.9912
vn -0.0075 -0.1090 -0.9940
vn -0.0063 -0.0393 -0.9992
vn -0.0068 -0.0627 -0.9980
vn -0.0021 -0.0359 -0.9994
vn -0.0027 -0.0596 -0.9982
vn -0.0029 -0.0378 -0.9993
vn -0.0034 -0.0614 -0.9981
vn -0.0032 -0.1228 -0.9924
vn -0.0031 -0.1234 -0.9923
vn -0.0028 -0.0991 -0.9951
vn -0.0027 -0.0997 -0.9950
vn -0.0031 -0.1239 -0.9923
vn -0.0027 -0.1004 -0.9949
vn -0.0014 -0.0271 -0.9996
vn -0.0016 -0.0259 -0.9997
vn -0.0019 -0.0515 -0.9987
vn -0.0021 -0.0505 -0.9987
vn -0.0017 -0.0246 -0.9997
vn -0.0021 -0.0496 -0.9988
vn -0.0032 -0.0973 -0.9953
vn -0.0035 -0.1230 -0.9924
vn -0.0030 -0.0981 -0.9952
vn -0.0032 -0.1225 -0.9925
vn -0.0022 -0.0489 -0.9988
vn -0.0017 -0.0234 -0.9997
vn -0.0023 -0.0463 -0.9989
vn -0.0017 -0.0224 -0.9997
vn -0.0555 -0.0795 -0.9953
vn -0.0576 -0.1029 -0.9930
vn -0.0785 -0.1139 -0.9904
vn -0.0611 -0.0846 -0.9945
vn -0.0534 -0.0388 -0.9978
vn -0.0458 -0.0430 -0.9980
vn -0.0519 -0.0180 -0.9985
vn -0.0410 -0.0222 -0.9989
vn 0.0507 0.0094 -0.9987
vn 0.0451 0.0084 -0.9989
vn 0.0494 0.0306 -0.9983
vn 0.0471 0.0292 -0.9985
vn 0.0458 -0.0597 -0.9972
vn 0.0392 -0.0619 -0.9973
vn 0.0431 -0.0391 -0.9983
vn 0.0352 -0.0640 -0.9973
vn 0.0388 -0.0426 -0.9983
vn 0.0427 0.0058 -0.9991
vn 0.0450 0.0265 -0.9986
vn 0.0419 0.0022 -0.9991
vn 0.0400 -0.0019 -0.9992
vn 0.0443 0.0232 -0.9988
vn 0.0423 0.0195 -0.9989
vn 0.0364 -0.0520 -0.9980
vn 0.0384 -0.0473 -0.9981
vn 0.0336 -0.0723 -0.9968
vn 0.0352 -0.0674 -0.9971
vn 0.0357 -0.0577 -0.9977
vn 0.0329 -0.0785 -0.9964
vn 0.0392 -0.0072 -0.9992
vn 0.0413 0.0148 -0.9990
vn 0.0335 0.0054 -0.9994
vn 0.0312 -0.0194 -0.9993
vn 0.0267 -0.0018 -0.9996
vn 0.0255 -0.0281 -0.9993
vn 0.0233 -0.0817 -0.9964
vn 0.0270 -0.0706 -0.9971
vn 0.0218 -0.1064 -0.9941
vn 0.0244 -0.0924 -0.9954
vn 0.0127 -0.0858 -0.9962
vn 0.0120 -0.1098 -0.9939
vn 0.0152 -0.0067 -0.9999
vn 0.0143 -0.0329 -0.9994
vn 0.0083 -0.1046 -0.9945
vn 0.0083 -0.0846 -0.9964
vn -0.0007 -0.1211 -0.9926
vn 0.0002 -0.0953 -0.9955
vn 0.0026 -0.1150 -0.9934
vn 0.0042 -0.0907 -0.9959
vn 0.0069 -0.0153 -0.9999
vn 0.0059 -0.0414 -0.9991
vn 0.0018 -0.0175 -0.9998
vn 0.0012 -0.0439 -0.9990
vn 0.0101 -0.0113 -0.9999
vn 0.0091 -0.0377 -0.9992
vn 0.0416 -0.0032 -0.9991
vn 0.0433 0.0053 -0.9990
vn 0.0191 0.0231 -0.9996
vn 0.0292 0.0289 -0.9992
vn 0.0500 -0.0404 -0.9979
vn 0.0503 -0.0458 -0.9977
vn 0.0531 -0.0610 -0.9967
vn 0.0543 -0.0632 -0.9965
vn 0.0511 -0.0383 -0.9980
vn 0.0517 -0.0593 -0.9969
vn -0.0012 -0.0206 -0.9998
vn -0.0019 -0.0477 -0.9989
vn -0.0018 -0.0217 -0.9998
vn -0.0024 -0.0496 -0.9988
vn -0.0033 -0.1233 -0.9924
vn -0.0031 -0.0999 -0.9950
vn -0.0032 -0.1241 -0.9923
vn -0.0028 -0.0990 -0.9951
vn -0.0016 -0.0283 -0.9996
vn -0.0020 -0.0526 -0.9986
vn -0.0028 -0.1011 -0.9949
vn -0.0031 -0.1242 -0.9922
vn 0.0327 -0.0640 -0.9974
vn 0.0302 -0.0853 -0.9959
vn 0.0361 -0.0128 -0.9993
vn 0.0381 0.0098 -0.9992
vn -0.0026 -0.1242 -0.9922
vn -0.0021 -0.0981 -0.9952
vn -0.0013 -0.0460 -0.9989
vn -0.0009 -0.0190 -0.9998
# 141 vertex normals

vt 0.6808 0.9832 0.0000
vt 0.6810 0.9792 0.0000
vt 0.6950 0.9837 0.0000
vt 0.6952 0.9796 0.0000
vt 0.6954 0.9709 0.0000
vt 0.6954 0.9753 0.0000
vt 0.6813 0.9706 0.0000
vt 0.6811 0.9749 0.0000
vt 0.7073 0.9759 0.0000
vt 0.7074 0.9714 0.0000
vt 0.7069 0.9844 0.0000
vt 0.7071 0.9801 0.0000
vt 0.5732 0.9821 0.0000
vt 0.5733 0.9778 0.0000
vt 0.5916 0.9823 0.0000
vt 0.5918 0.9780 0.0000
vt 0.5922 0.9693 0.0000
vt 0.5919 0.9738 0.0000
vt 0.5737 0.9691 0.0000
vt 0.5734 0.9736 0.0000
vt 0.6103 0.9696 0.0000
vt 0.6102 0.9740 0.0000
vt 0.6099 0.9824 0.0000
vt 0.6100 0.9782 0.0000
vt 0.6468 0.9701 0.0000
vt 0.6465 0.9744 0.0000
vt 0.6274 0.9698 0.0000
vt 0.6273 0.9742 0.0000
vt 0.6645 0.9703 0.0000
vt 0.6643 0.9747 0.0000
vt 0.6640 0.9830 0.0000
vt 0.6641 0.9789 0.0000
vt 0.6270 0.9826 0.0000
vt 0.6271 0.9784 0.0000
vt 0.6462 0.9828 0.0000
vt 0.6463 0.9787 0.0000
vt 0.5103 0.9685 0.0000
vt 0.5261 0.9687 0.0000
vt 0.5104 0.9730 0.0000
vt 0.5260 0.9731 0.0000
vt 0.5407 0.9688 0.0000
vt 0.5406 0.9733 0.0000
vt 0.5405 0.9818 0.0000
vt 0.5261 0.9816 0.0000
vt 0.5406 0.9775 0.0000
vt 0.5260 0.9774 0.0000
vt 0.5108 0.9814 0.0000
vt 0.5105 0.9772 0.0000
vt 0.4850 0.9726 0.0000
vt 0.4855 0.9683 0.0000
vt 0.4946 0.9728 0.0000
vt 0.4945 0.9684 0.0000
vt 0.4950 0.9771 0.0000
vt 0.4956 0.9811 0.0000
vt 0.4846 0.9769 0.0000
vt 0.4841 0.9809 0.0000
vt 0.7184 0.9766 0.0000
vt 0.7185 0.9718 0.0000
vt 0.7226 0.9716 0.0000
vt 0.7227 0.9766 0.0000
vt 0.7182 0.9808 0.0000
vt 0.7226 0.9812 0.0000
vt 0.7179 0.9853 0.0000
vt 0.7226 0.9856 0.0000
vt 0.3333 0.9763 0.0000
vt 0.3350 0.9763 0.0000
vt 0.3334 0.9811 0.0000
vt 0.3352 0.9811 0.0000
vt 0.3341 0.9670 0.0000
vt 0.3351 0.9670 0.0000
vt 0.3349 0.9720 0.0000
vt 0.3391 0.9670 0.0000
vt 0.3393 0.9720 0.0000
vt 0.3394 0.9763 0.0000
vt 0.3395 0.9811 0.0000
vt 0.3445 0.9763 0.0000
vt 0.3495 0.9763 0.0000
vt 0.3445 0.9810 0.0000
vt 0.3495 0.9810 0.0000
vt 0.3494 0.9720 0.0000
vt 0.3443 0.9720 0.0000
vt 0.3492 0.9671 0.0000
vt 0.3441 0.9670 0.0000
vt 0.3568 0.9720 0.0000
vt 0.3567 0.9671 0.0000
vt 0.3569 0.9762 0.0000
vt 0.3570 0.9809 0.0000
vt 0.3729 0.9808 0.0000
vt 0.3728 0.9762 0.0000
vt 0.3874 0.9807 0.0000
vt 0.3874 0.9763 0.0000
vt 0.3874 0.9720 0.0000
vt 0.3728 0.9720 0.0000
vt 0.3873 0.9674 0.0000
vt 0.3729 0.9673 0.0000
vt 0.3980 0.9721 0.0000
vt 0.3980 0.9675 0.0000
vt 0.3979 0.9807 0.0000
vt 0.3979 0.9763 0.0000
vt 0.4126 0.9676 0.0000
vt 0.4123 0.9721 0.0000
vt 0.4409 0.9678 0.0000
vt 0.4405 0.9722 0.0000
vt 0.4258 0.9677 0.0000
vt 0.4254 0.9722 0.0000
vt 0.4243 0.9805 0.0000
vt 0.4250 0.9765 0.0000
vt 0.4398 0.9805 0.0000
vt 0.4402 0.9765 0.0000
vt 0.4118 0.9806 0.0000
vt 0.4121 0.9764 0.0000
vt 0.3286 0.9760 0.0000
vt 0.3311 0.9762 0.0000
vt 0.3293 0.9811 0.0000
vt 0.3313 0.9811 0.0000
vt 0.3309 0.9720 0.0000
vt 0.3282 0.9717 0.0000
vt 0.3307 0.9670 0.0000
vt 0.3278 0.9670 0.0000
vt 0.3331 0.9720 0.0000
vt 0.3329 0.9670 0.0000
vt 0.4708 0.9807 0.0000
vt 0.4708 0.9767 0.0000
vt 0.4828 0.9809 0.0000
vt 0.4833 0.9769 0.0000
vt 0.4843 0.9682 0.0000
vt 0.4838 0.9726 0.0000
vt 0.4713 0.9681 0.0000
vt 0.4710 0.9724 0.0000
vt 0.5549 0.9819 0.0000
vt 0.5550 0.9777 0.0000
vt 0.5551 0.9734 0.0000
vt 0.5553 0.9689 0.0000
vt 0.3643 0.9720 0.0000
vt 0.3642 0.9672 0.0000
vt 0.3643 0.9762 0.0000
vt 0.3644 0.9808 0.0000
vt 0.4564 0.9680 0.0000
vt 0.4563 0.9723 0.0000
vt 0.4563 0.9765 0.0000
vt 0.4564 0.9805 0.0000
# 141 texture coords

g H126_206A_L_DaS_H126_206A_L
usemtl paint_whiteSG
s 1
f 1/1/1 2/2/2 3/3/3 
f 3/3/3 2/2/2 4/4/4 
f 5/5/5 6/6/6 7/7/7 
f 7/7/7 6/6/6 8/8/8 
f 9/9/9 6/6/6 10/10/10 
f 10/10/10 6/6/6 5/5/5 
f 3/3/3 4/4/4 11/11/11 
f 11/11/11 4/4/4 12/12/12 
f 13/13/13 14/14/14 15/15/15 
f 15/15/15 14/14/14 16/16/16 
f 17/17/17 18/18/18 19/19/19 
f 19/19/19 18/18/18 20/20/20 
f 21/21/21 22/22/22 17/17/17 
f 17/17/17 22/22/22 18/18/18 
f 15/15/15 16/16/16 23/23/23 
f 23/23/23 16/16/16 24/24/24 
f 25/25/25 26/26/26 27/27/27 
f 27/27/27 26/26/26 28/28/28 
f 7/7/7 8/8/8 29/29/29 
f 29/29/29 8/8/8 30/30/30 
f 31/31/31 32/32/32 1/1/1 
f 1/1/1 32/32/32 2/2/2 
f 33/33/33 34/34/34 35/35/35 
f 35/35/35 34/34/34 36/36/36 
f 37/37/37 38/38/38 39/39/39 
f 39/39/39 38/38/38 40/40/40 
f 41/41/41 42/42/42 38/38/38 
f 38/38/38 42/42/42 40/40/40 
f 43/43/43 44/44/44 45/45/45 
f 45/45/45 44/44/44 46/46/46 
f 44/44/44 47/47/47 46/46/46 
f 46/46/46 47/47/47 48/48/48 
f 49/49/49 50/50/50 51/51/51 
f 51/51/51 50/50/50 52/52/52 
f 39/39/39 51/51/51 37/37/37 
f 37/37/37 51/51/51 52/52/52 
f 53/53/53 48/48/48 54/54/54 
f 54/54/54 48/48/48 47/47/47 
f 55/55/55 53/53/53 56/56/56 
f 56/56/56 53/53/53 54/54/54 
f 57/57/57 9/9/9 58/58/58 
f 58/58/58 9/9/9 10/10/10 
f 59/59/59 60/60/60 58/58/58 
f 58/58/58 60/60/60 57/57/57 
f 61/61/61 62/62/62 63/63/63 
f 63/63/63 62/62/62 64/64/64 
f 12/12/12 61/61/61 11/11/11 
f 11/11/11 61/61/61 63/63/63 
f 65/65/65 66/66/66 67/67/67 
f 67/67/67 66/66/66 68/68/68 
f 69/69/69 70/70/70 71/71/71 
f 72/72/72 73/73/73 70/70/70 
f 70/70/70 73/73/73 71/71/71 
f 66/66/66 74/74/74 68/68/68 
f 68/68/68 74/74/74 75/75/75 
f 76/76/76 77/77/77 78/78/78 
f 78/78/78 77/77/77 79/79/79 
f 80/80/80 81/81/81 82/82/82 
f 82/82/82 81/81/81 83/83/83 
f 84/84/84 80/80/80 85/85/85 
f 85/85/85 80/80/80 82/82/82 
f 77/77/77 86/86/86 79/79/79 
f 79/79/79 86/86/86 87/87/87 
f 88/88/88 89/89/89 90/90/90 
f 90/90/90 89/89/89 91/91/91 
f 92/92/92 93/93/93 94/94/94 
f 94/94/94 93/93/93 95/95/95 
f 96/96/96 92/92/92 97/97/97 
f 97/97/97 92/92/92 94/94/94 
f 90/90/90 91/91/91 98/98/98 
f 98/98/98 91/91/91 99/99/99 
f 100/100/100 101/101/101 97/97/97 
f 97/97/97 101/101/101 96/96/96 
f 102/102/102 103/103/103 104/104/104 
f 104/104/104 103/103/103 105/105/105 
f 106/106/106 107/107/107 108/108/108 
f 108/108/108 107/107/107 109/109/109 
f 98/98/98 99/99/99 110/110/110 
f 110/110/110 99/99/99 111/111/111 
f 112/112/112 113/113/113 114/114/114 
f 114/114/114 113/113/113 115/115/115 
f 116/116/116 117/117/117 118/118/118 
f 118/118/118 117/117/117 119/119/119 
f 120/120/120 116/116/116 121/121/121 
f 121/121/121 116/116/116 118/118/118 
f 113/113/113 65/65/65 115/115/115 
f 115/115/115 65/65/65 67/67/67 
f 122/122/122 123/123/123 124/124/124 
f 124/124/124 123/123/123 125/125/125 
f 126/126/126 127/127/127 128/128/128 
f 128/128/128 127/127/127 129/129/129 
f 124/124/124 125/125/125 56/56/56 
f 56/56/56 125/125/125 55/55/55 
f 127/127/127 126/126/126 49/49/49 
f 49/49/49 126/126/126 50/50/50 
f 71/71/71 120/120/120 69/69/69 
f 69/69/69 120/120/120 121/121/121 
f 8/8/8 2/2/2 30/30/30 
f 30/30/30 2/2/2 32/32/32 
f 2/2/2 8/8/8 4/4/4 
f 4/4/4 8/8/8 6/6/6 
f 4/4/4 6/6/6 12/12/12 
f 12/12/12 6/6/6 9/9/9 
f 9/9/9 57/57/57 12/12/12 
f 12/12/12 57/57/57 61/61/61 
f 45/45/45 46/46/46 42/42/42 
f 42/42/42 46/46/46 40/40/40 
f 14/14/14 20/20/20 16/16/16 
f 16/16/16 20/20/20 18/18/18 
f 16/16/16 18/18/18 24/24/24 
f 24/24/24 18/18/18 22/22/22 
f 34/34/34 28/28/28 36/36/36 
f 36/36/36 28/28/28 26/26/26 
f 46/46/46 48/48/48 40/40/40 
f 40/40/40 48/48/48 39/39/39 
f 48/48/48 53/53/53 39/39/39 
f 39/39/39 53/53/53 51/51/51 
f 53/53/53 55/55/55 51/51/51 
f 51/51/51 55/55/55 49/49/49 
f 49/49/49 55/55/55 127/127/127 
f 127/127/127 55/55/55 125/125/125 
f 57/57/57 60/60/60 61/61/61 
f 61/61/61 60/60/60 62/62/62 
f 120/120/120 71/71/71 65/65/65 
f 65/65/65 71/71/71 66/66/66 
f 65/65/65 113/113/113 120/120/120 
f 120/120/120 113/113/113 116/116/116 
f 71/71/71 73/73/73 66/66/66 
f 66/66/66 73/73/73 74/74/74 
f 81/81/81 80/80/80 76/76/76 
f 76/76/76 80/80/80 77/77/77 
f 80/80/80 84/84/84 77/77/77 
f 77/77/77 84/84/84 86/86/86 
f 93/93/93 92/92/92 89/89/89 
f 89/89/89 92/92/92 91/91/91 
f 92/92/92 96/96/96 91/91/91 
f 91/91/91 96/96/96 99/99/99 
f 99/99/99 96/96/96 111/111/111 
f 111/111/111 96/96/96 101/101/101 
f 107/107/107 105/105/105 109/109/109 
f 109/109/109 105/105/105 103/103/103 
f 123/123/123 129/129/129 125/125/125 
f 125/125/125 129/129/129 127/127/127 
f 117/117/117 116/116/116 112/112/112 
f 112/112/112 116/116/116 113/113/113 
f 29/29/29 30/30/30 25/25/25 
f 25/25/25 30/30/30 26/26/26 
f 36/36/36 26/26/26 32/32/32 
f 32/32/32 26/26/26 30/30/30 
f 35/35/35 36/36/36 31/31/31 
f 31/31/31 36/36/36 32/32/32 
f 27/27/27 28/28/28 21/21/21 
f 21/21/21 28/28/28 22/22/22 
f 24/24/24 22/22/22 34/34/34 
f 34/34/34 22/22/22 28/28/28 
f 23/23/23 24/24/24 33/33/33 
f 33/33/33 24/24/24 34/34/34 
f 130/130/130 131/131/131 13/13/13 
f 13/13/13 131/131/131 14/14/14 
f 131/131/131 132/132/132 14/14/14 
f 14/14/14 132/132/132 20/20/20 
f 19/19/19 20/20/20 133/133/133 
f 133/133/133 20/20/20 132/132/132 
f 133/133/133 132/132/132 41/41/41 
f 41/41/41 132/132/132 42/42/42 
f 132/132/132 131/131/131 42/42/42 
f 42/42/42 131/131/131 45/45/45 
f 43/43/43 45/45/45 130/130/130 
f 130/130/130 45/45/45 131/131/131 
f 74/74/74 76/76/76 75/75/75 
f 75/75/75 76/76/76 78/78/78 
f 73/73/73 81/81/81 74/74/74 
f 74/74/74 81/81/81 76/76/76 
f 81/81/81 73/73/73 83/83/83 
f 83/83/83 73/73/73 72/72/72 
f 134/134/134 84/84/84 135/135/135 
f 135/135/135 84/84/84 85/85/85 
f 84/84/84 134/134/134 86/86/86 
f 86/86/86 134/134/134 136/136/136 
f 86/86/86 136/136/136 87/87/87 
f 87/87/87 136/136/136 137/137/137 
f 88/88/88 137/137/137 89/89/89 
f 89/89/89 137/137/137 136/136/136 
f 134/134/134 93/93/93 136/136/136 
f 136/136/136 93/93/93 89/89/89 
f 93/93/93 134/134/134 95/95/95 
f 95/95/95 134/134/134 135/135/135 
f 104/104/104 105/105/105 100/100/100 
f 100/100/100 105/105/105 101/101/101 
f 111/111/111 101/101/101 107/107/107 
f 107/107/107 101/101/101 105/105/105 
f 110/110/110 111/111/111 106/106/106 
f 106/106/106 111/111/111 107/107/107 
f 138/138/138 139/139/139 102/102/102 
f 102/102/102 139/139/139 103/103/103 
f 109/109/109 103/103/103 140/140/140 
f 140/140/140 103/103/103 139/139/139 
f 108/108/108 109/109/109 141/141/141 
f 141/141/141 109/109/109 140/140/140 
f 122/122/122 141/141/141 123/123/123 
f 123/123/123 141/141/141 140/140/140 
f 140/140/140 139/139/139 123/123/123 
f 123/123/123 139/139/139 129/129/129 
f 128/128/128 129/129/129 138/138/138 
f 138/138/138 129/129/129 139/139/139 
# 205 faces

