# 3ds Max Wavefront OBJ Exporter v0.97b - (c)2007 guruware
# File Created: 14.12.2015 11:49:06

mtllib U266_18A5_L.mtl

#
# object U266_18A5_L_DaS_U266_18A5_L
#

v  17.6497 75.0635 -59.9972
v  2.7359 76.9706 -58.8949
v  17.6487 75.6102 -58.4894
v  2.7367 77.5458 -57.3388
v  -12.9484 78.6621 -56.7266
v  -12.9500 78.0649 -58.3569
v  31.1657 72.8494 -60.1022
v  31.1697 72.3213 -61.6273
v  17.6562 73.2818 -62.2244
v  31.1882 70.6136 -63.8397
v  17.6571 72.6606 -62.6865
v  31.1901 69.9115 -64.3610
v  -12.9500 76.1647 -60.7896
v  2.7368 75.1211 -61.2102
v  2.7381 74.2250 -61.8838
v  -12.9482 75.2548 -61.4834
v  -21.0427 75.5233 -61.4750
v  -28.4780 76.4448 -60.9471
v  -21.7494 75.5468 -61.4743
v  -28.4768 75.7700 -61.4674
v  -28.4777 78.3716 -58.4276
v  -28.4762 78.9707 -56.7450
v  -43.7532 78.1898 -58.9096
v  -43.7539 76.2616 -61.4813
v  -58.8739 77.7952 -59.5920
v  -58.8754 75.8845 -62.1952
v  -58.8754 75.3836 -62.5872
v  -43.7534 75.7054 -61.9137
v  -58.8730 78.3783 -57.8366
v  -43.7521 78.7795 -57.1912
# 30 vertices

vn 0.0882 0.8468 -0.5245
vn 0.0556 0.8477 -0.5275
vn 0.1183 0.9335 -0.3386
vn 0.0723 0.9355 -0.3457
vn 0.0364 0.9385 -0.3434
vn 0.0310 0.8530 -0.5210
vn 0.1754 0.9303 -0.3222
vn 0.1316 0.8527 -0.5056
vn 0.0593 0.7459 -0.6634
vn 0.0855 0.7500 -0.6559
vn 0.0207 0.5967 -0.8022
vn 0.0245 0.5959 -0.8027
vn 0.0257 0.7525 -0.6581
vn 0.0382 0.7372 -0.6746
vn 0.0194 0.6007 -0.7992
vn 0.0191 0.6061 -0.7952
vn 0.0190 0.6081 -0.7937
vn 0.0153 0.7678 -0.6405
vn 0.0195 0.6107 -0.7916
vn 0.0201 0.6105 -0.7917
vn 0.0123 0.8579 -0.5136
vn 0.0087 0.9420 -0.3354
vn 0.0033 0.8628 -0.5056
vn 0.0111 0.7711 -0.6366
vn -0.0026 0.8694 -0.4941
vn 0.0096 0.7780 -0.6282
vn 0.0203 0.6162 -0.7873
vn 0.0212 0.6137 -0.7893
vn -0.0183 0.9487 -0.3155
vn -0.0060 0.9457 -0.3250
# 30 vertex normals

vt 0.5348 0.7349 0.0000
vt 0.5063 0.7311 0.0000
vt 0.5348 0.7318 0.0000
vt 0.5064 0.7279 0.0000
vt 0.4764 0.7256 0.0000
vt 0.4763 0.7289 0.0000
vt 0.5607 0.7369 0.0000
vt 0.5606 0.7400 0.0000
vt 0.5348 0.7403 0.0000
vt 0.5606 0.7454 0.0000
vt 0.5348 0.7415 0.0000
vt 0.5606 0.7467 0.0000
vt 0.4763 0.7348 0.0000
vt 0.5063 0.7368 0.0000
vt 0.5062 0.7385 0.0000
vt 0.4763 0.7365 0.0000
vt 0.4608 0.7360 0.0000
vt 0.4466 0.7343 0.0000
vt 0.4594 0.7360 0.0000
vt 0.4466 0.7355 0.0000
vt 0.4466 0.7282 0.0000
vt 0.4467 0.7248 0.0000
vt 0.4174 0.7285 0.0000
vt 0.4173 0.7346 0.0000
vt 0.3885 0.7293 0.0000
vt 0.3884 0.7353 0.0000
vt 0.3884 0.7363 0.0000
vt 0.4173 0.7357 0.0000
vt 0.3885 0.7258 0.0000
vt 0.4175 0.7250 0.0000
# 30 texture coords

g U266_18A5_L_DaS_U266_18A5_L
usemtl paint_whiteSG
s 1
f 1/1/1 2/2/2 3/3/3 
f 3/3/3 2/2/2 4/4/4 
f 5/5/5 4/4/4 6/6/6 
f 6/6/6 4/4/4 2/2/2 
f 3/3/3 7/7/7 1/1/1 
f 1/1/1 7/7/7 8/8/8 
f 1/1/1 8/8/8 9/9/9 
f 9/9/9 8/8/8 10/10/10 
f 9/9/9 10/10/10 11/11/11 
f 11/11/11 10/10/10 12/12/12 
f 6/6/6 2/2/2 13/13/13 
f 13/13/13 2/2/2 14/14/14 
f 9/9/9 14/14/14 1/1/1 
f 1/1/1 14/14/14 2/2/2 
f 11/11/11 15/15/15 9/9/9 
f 9/9/9 15/15/15 14/14/14 
f 13/13/13 14/14/14 16/16/16 
f 16/16/16 14/14/14 15/15/15 
f 16/16/16 17/17/17 13/13/13 
f 13/13/13 17/17/17 18/18/18 
f 17/17/17 19/19/19 18/18/18 
f 19/19/19 20/20/20 18/18/18 
f 13/13/13 18/18/18 6/6/6 
f 6/6/6 18/18/18 21/21/21 
f 6/6/6 21/21/21 5/5/5 
f 5/5/5 21/21/21 22/22/22 
f 23/23/23 24/24/24 25/25/25 
f 25/25/25 24/24/24 26/26/26 
f 27/27/27 26/26/26 28/28/28 
f 28/28/28 26/26/26 24/24/24 
f 28/28/28 24/24/24 20/20/20 
f 20/20/20 24/24/24 18/18/18 
f 21/21/21 18/18/18 23/23/23 
f 23/23/23 18/18/18 24/24/24 
f 25/25/25 29/29/29 23/23/23 
f 23/23/23 29/29/29 30/30/30 
f 23/23/23 30/30/30 21/21/21 
f 21/21/21 30/30/30 22/22/22 
# 38 faces

#
# object U266_18A5_L_DaS_U266_18A5_L_E
#

v  17.6571 72.6606 -62.6865
v  31.1901 69.9115 -64.3610
v  17.6430 72.2565 -62.1444
v  31.1738 69.5084 -63.8181
v  2.7381 74.2250 -61.8838
v  2.7248 73.8184 -61.3435
v  -12.9482 75.2548 -61.4834
v  -12.9613 74.8453 -60.9452
v  -21.0427 75.5233 -61.4750
v  -21.0558 75.1122 -60.9381
v  -43.7534 75.7054 -61.9137
v  -28.4768 75.7700 -61.4674
v  -43.7678 75.2904 -61.3798
v  -28.4904 75.3569 -60.9320
v  -58.8754 75.3836 -62.5872
v  -58.8893 74.9668 -62.0547
v  -21.7494 75.5468 -61.4743
v  -21.7626 75.1349 -60.9380
v  17.6487 75.6102 -58.4894
v  17.5976 75.2789 -58.4463
v  31.1657 72.8494 -60.1022
v  31.1035 72.5198 -60.0593
v  2.7367 77.5458 -57.3388
v  2.7057 77.2119 -57.2961
v  -12.9484 78.6621 -56.7266
v  -12.9628 78.3268 -56.6858
v  -28.4762 78.9707 -56.7450
v  -28.4779 78.6348 -56.7068
v  -43.7521 78.7795 -57.1912
v  -43.7467 78.4433 -57.1552
v  -58.8730 78.3783 -57.8366
v  -58.8624 78.0421 -57.8019
# 32 vertices

vn -0.1731 -0.7875 -0.5916
vn -0.2303 -0.7773 -0.5854
vn -0.1722 -0.7876 -0.5916
vn -0.2303 -0.7780 -0.5846
vn -0.0914 -0.7946 -0.6002
vn -0.0914 -0.7947 -0.6001
vn -0.0472 -0.7944 -0.6056
vn -0.0471 -0.7944 -0.6055
vn -0.0266 -0.7932 -0.6084
vn -0.0263 -0.7934 -0.6081
vn 0.0327 -0.7895 -0.6128
vn -0.0028 -0.7916 -0.6110
vn 0.0327 -0.7896 -0.6128
vn -0.0028 -0.7917 -0.6109
vn 0.0441 -0.7873 -0.6150
vn 0.0441 -0.7873 -0.6149
vn -0.0268 -0.7925 -0.6093
vn -0.0265 -0.7927 -0.6090
vn 0.1153 0.1108 0.9871
vn 0.1151 0.1109 0.9871
vn 0.1393 0.1068 0.9845
vn 0.1385 0.1023 0.9851
vn 0.0695 0.1201 0.9903
vn 0.0242 0.1198 0.9925
vn 0.0242 0.1197 0.9925
vn -0.0148 0.1132 0.9935
vn -0.0148 0.1131 0.9935
vn -0.0379 0.1058 0.9937
vn -0.0378 0.1057 0.9937
vn -0.0452 0.1056 0.9934
vn -0.0452 0.1010 0.9939
# 31 vertex normals

vt 0.5348 0.7415 0.0000
vt 0.5606 0.7467 0.0000
vt 0.5347 0.7423 0.0000
vt 0.5606 0.7475 0.0000
vt 0.5062 0.7385 0.0000
vt 0.5062 0.7393 0.0000
vt 0.4763 0.7365 0.0000
vt 0.4762 0.7373 0.0000
vt 0.4608 0.7360 0.0000
vt 0.4608 0.7368 0.0000
vt 0.4173 0.7357 0.0000
vt 0.4466 0.7355 0.0000
vt 0.4173 0.7365 0.0000
vt 0.4465 0.7363 0.0000
vt 0.3884 0.7363 0.0000
vt 0.3884 0.7371 0.0000
vt 0.4594 0.7360 0.0000
vt 0.4594 0.7368 0.0000
vt 0.5348 0.7365 0.0000
vt 0.5347 0.7359 0.0000
vt 0.5607 0.7369 0.0000
vt 0.5605 0.7363 0.0000
vt 0.5064 0.7329 0.0000
vt 0.5063 0.7323 0.0000
vt 0.4764 0.7307 0.0000
vt 0.4763 0.7301 0.0000
vt 0.4467 0.7301 0.0000
vt 0.4467 0.7295 0.0000
vt 0.4175 0.7304 0.0000
vt 0.4175 0.7297 0.0000
vt 0.3885 0.7258 0.0000
vt 0.3885 0.7251 0.0000
# 32 texture coords

g U266_18A5_L_DaS_U266_18A5_L_E
usemtl paint_whiteSG
s 4
f 31/31/31 32/32/32 33/33/33 
s off
f 33/33/34 32/32/34 34/34/34 
s 4
f 35/35/35 31/31/31 36/36/36 
f 36/36/36 31/31/31 33/33/33 
f 37/37/37 35/35/35 38/38/38 
f 38/38/38 35/35/35 36/36/36 
f 39/39/39 37/37/37 40/40/40 
f 40/40/40 37/37/37 38/38/38 
f 41/41/41 42/42/42 43/43/43 
f 43/43/43 42/42/42 44/44/44 
f 45/45/45 41/41/41 46/46/46 
f 46/46/46 41/41/41 43/43/43 
f 42/42/42 47/47/47 44/44/44 
f 44/44/44 47/47/47 48/48/48 
f 47/47/47 39/39/39 48/48/48 
f 48/48/48 39/39/39 40/40/40 
s 6
f 49/49/49 50/50/50 51/51/51 
s off
f 51/51/52 50/50/52 52/52/52 
s 6
f 49/49/49 53/53/53 50/50/50 
f 50/50/50 53/53/53 54/54/53 
f 53/53/53 55/55/54 54/54/53 
f 54/54/53 55/55/54 56/56/55 
f 55/55/54 57/57/56 56/56/55 
f 56/56/55 57/57/56 58/58/57 
f 57/57/56 59/59/58 58/58/57 
f 58/58/57 59/59/58 60/60/59 
f 59/59/58 61/61/60 60/60/59 
s off
f 60/60/61 61/61/61 62/62/61 
# 28 faces

