# 3ds Max Wavefront OBJ Exporter v0.97b - (c)2007 guruware
# File Created: 20.12.2015 14:24:46

mtllib U843_9A_304H_L.mtl

#
# object U843_9A_304H_L_1_DTaSI_U843_9A_304H_L
#

v  -61.8442 55.8686 -69.4560
v  -61.3065 60.7598 -67.4017
v  -59.6888 55.7856 -69.4118
v  -59.3396 60.6894 -67.3685
v  -60.7698 65.5427 -65.1477
v  -60.1960 70.3718 -62.7613
v  -58.9873 65.4856 -65.1143
v  -58.6080 70.3316 -62.7322
v  -73.2975 35.8616 -76.9171
v  -72.0131 40.9171 -75.3502
v  -63.7448 35.6322 -76.4673
v  -63.3070 40.6895 -74.9033
v  -70.1945 70.7568 -62.9670
v  -68.5728 74.5588 -61.0142
v  -64.0690 70.5032 -62.8358
v  -62.8078 74.4421 -60.8904
v  -59.6451 74.3946 -60.8130
v  -60.0400 50.8505 -71.3723
v  -62.3450 50.9422 -71.4170
v  -59.5236 75.2648 -60.3052
v  -58.2494 74.3771 -60.7768
v  -58.1731 75.2382 -60.2753
v  -60.3961 45.7672 -73.1714
v  -60.7703 40.6127 -74.8021
v  -62.8488 45.8472 -73.2647
v  -61.1389 35.5643 -76.3551
v  -62.5170 75.3234 -60.3717
v  -65.4157 65.7331 -65.2845
v  -70.6974 46.0688 -73.6967
v  -68.2027 75.4350 -60.4979
v  -66.7222 60.9949 -67.5858
v  -71.9996 66.0260 -65.5629
v  -69.3527 51.1915 -71.7581
v  -68.0462 56.0990 -69.7528
v  -81.3884 31.0928 -78.1896
v  -80.4972 36.1085 -77.1951
v  -74.0208 30.8363 -78.1885
v  -64.1770 30.4938 -78.1868
v  -61.5042 30.4007 -78.1864
v  -79.5778 41.2057 -75.6807
v  -78.4193 46.3825 -74.0727
v  -76.8857 51.4395 -72.2230
v  -75.3789 56.3431 -70.2205
v  -73.7049 61.2907 -67.9486
# 44 vertices

vn 0.0498 0.3752 -0.9256
vn 0.0452 0.4040 -0.9137
vn 0.0323 0.3750 -0.9265
vn 0.0311 0.4029 -0.9147
vn 0.0393 0.4326 -0.9007
vn 0.0334 0.4384 -0.8981
vn 0.0299 0.4313 -0.9017
vn 0.0288 0.4366 -0.8992
vn 0.0401 0.2688 -0.9624
vn 0.0546 0.2877 -0.9562
vn 0.0416 0.2886 -0.9565
vn 0.0543 0.2916 -0.9550
vn 0.0432 0.4505 -0.8917
vn 0.0324 0.4473 -0.8938
vn 0.0388 0.4447 -0.8948
vn 0.0312 0.4490 -0.8930
vn 0.0295 0.4453 -0.8949
vn 0.0362 0.3502 -0.9360
vn 0.0533 0.3502 -0.9352
vn 0.0289 0.5005 -0.8652
vn 0.0282 0.4456 -0.8948
vn 0.0289 0.5009 -0.8650
vn 0.0429 0.3165 -0.9476
vn 0.0472 0.2948 -0.9544
vn 0.0554 0.3158 -0.9472
vn 0.0390 0.3072 -0.9508
vn 0.0289 0.4997 -0.8657
vn 0.0497 0.4383 -0.8974
vn 0.0597 0.3126 -0.9480
vn 0.0289 0.4991 -0.8660
vn 0.0584 0.4073 -0.9114
vn 0.0561 0.4384 -0.8970
vn 0.0634 0.3478 -0.9354
vn 0.0632 0.3762 -0.9244
vn 0.0262 0.2160 -0.9760
vn 0.0371 0.2460 -0.9686
vn 0.0286 0.2505 -0.9677
vn 0.0305 0.2883 -0.9570
vn 0.0301 0.3236 -0.9457
vn 0.0524 0.2840 -0.9574
vn 0.0592 0.3073 -0.9498
vn 0.0666 0.3433 -0.9369
vn 0.0694 0.3733 -0.9251
vn 0.0654 0.4062 -0.9114
# 44 vertex normals

vt 0.2136 0.5703 0.0000
vt 0.2119 0.5901 0.0000
vt 0.2048 0.5702 0.0000
vt 0.2039 0.5901 0.0000
vt 0.2103 0.6096 0.0000
vt 0.2085 0.6291 0.0000
vt 0.2030 0.6095 0.0000
vt 0.2020 0.6292 0.0000
vt 0.2577 0.4881 0.0000
vt 0.2531 0.5087 0.0000
vt 0.2191 0.4882 0.0000
vt 0.2178 0.5087 0.0000
vt 0.2489 0.6296 0.0000
vt 0.2428 0.6452 0.0000
vt 0.2241 0.6293 0.0000
vt 0.2195 0.6453 0.0000
vt 0.2067 0.6455 0.0000
vt 0.2057 0.5502 0.0000
vt 0.2150 0.5503 0.0000
vt 0.2063 0.6490 0.0000
vt 0.2010 0.6456 0.0000
vt 0.2008 0.6490 0.0000
vt 0.2066 0.5296 0.0000
vt 0.2076 0.5087 0.0000
vt 0.2165 0.5297 0.0000
vt 0.2085 0.4883 0.0000
vt 0.2184 0.6489 0.0000
vt 0.2291 0.6098 0.0000
vt 0.2483 0.5297 0.0000
vt 0.2414 0.6488 0.0000
vt 0.2338 0.5905 0.0000
vt 0.2557 0.6103 0.0000
vt 0.2434 0.5506 0.0000
vt 0.2387 0.5706 0.0000
vt 0.2899 0.4680 0.0000
vt 0.2869 0.4884 0.0000
vt 0.2601 0.4677 0.0000
vt 0.2203 0.4674 0.0000
vt 0.2094 0.4673 0.0000
vt 0.2837 0.5091 0.0000
vt 0.2796 0.5301 0.0000
vt 0.2739 0.5508 0.0000
vt 0.2684 0.5708 0.0000
vt 0.2621 0.5910 0.0000
# 44 texture coords

g U843_9A_304H_L_1_DTaSI_U843_9A_304H_L
usemtl windowglass_1SG
s 1
f 1/1/1 2/2/2 3/3/3 
f 3/3/3 2/2/2 4/4/4 
f 5/5/5 6/6/6 7/7/7 
f 7/7/7 6/6/6 8/8/8 
f 9/9/9 10/10/10 11/11/11 
f 11/11/11 10/10/10 12/12/12 
f 13/13/13 14/14/14 15/15/15 
f 15/15/15 14/14/14 16/16/16 
f 15/15/15 16/16/16 6/6/6 
f 6/6/6 16/16/16 17/17/17 
f 3/3/3 18/18/18 1/1/1 
f 1/1/1 18/18/18 19/19/19 
f 2/2/2 5/5/5 4/4/4 
f 4/4/4 5/5/5 7/7/7 
f 17/17/17 20/20/20 21/21/21 
f 21/21/21 20/20/20 22/22/22 
f 23/23/23 24/24/24 25/25/25 
f 25/25/25 24/24/24 12/12/12 
f 24/24/24 26/26/26 12/12/12 
f 12/12/12 26/26/26 11/11/11 
f 16/16/16 27/27/27 17/17/17 
f 17/17/17 27/27/27 20/20/20 
f 28/28/28 15/15/15 5/5/5 
f 5/5/5 15/15/15 6/6/6 
f 10/10/10 29/29/29 12/12/12 
f 12/12/12 29/29/29 25/25/25 
f 14/14/14 30/30/30 16/16/16 
f 16/16/16 30/30/30 27/27/27 
f 31/31/31 28/28/28 2/2/2 
f 2/2/2 28/28/28 5/5/5 
f 32/32/32 13/13/13 28/28/28 
f 28/28/28 13/13/13 15/15/15 
f 29/29/29 33/33/33 25/25/25 
f 25/25/25 33/33/33 19/19/19 
f 34/34/34 31/31/31 1/1/1 
f 1/1/1 31/31/31 2/2/2 
f 35/35/35 36/36/36 37/37/37 
f 37/37/37 36/36/36 9/9/9 
f 37/37/37 9/9/9 38/38/38 
f 38/38/38 9/9/9 11/11/11 
f 26/26/26 39/39/39 11/11/11 
f 11/11/11 39/39/39 38/38/38 
f 6/6/6 17/17/17 8/8/8 
f 8/8/8 17/17/17 21/21/21 
f 18/18/18 23/23/23 19/19/19 
f 19/19/19 23/23/23 25/25/25 
f 1/1/1 19/19/19 34/34/34 
f 34/34/34 19/19/19 33/33/33 
f 36/36/36 40/40/40 9/9/9 
f 9/9/9 40/40/40 10/10/10 
f 40/40/40 41/41/41 10/10/10 
f 10/10/10 41/41/41 29/29/29 
f 41/41/41 42/42/42 29/29/29 
f 29/29/29 42/42/42 33/33/33 
f 42/42/42 43/43/43 33/33/33 
f 33/33/33 43/43/43 34/34/34 
f 43/43/43 44/44/44 34/34/34 
f 34/34/34 44/44/44 31/31/31 
f 44/44/44 32/32/32 31/31/31 
f 31/31/31 32/32/32 28/28/28 
# 60 faces

