# 3ds Max Wavefront OBJ Exporter v0.97b - (c)2007 guruware
# File Created: 20.12.2015 14:15:10

mtllib Y212_181C_R.mtl

#
# object Y212_181C_R_DaS_Y212_181C_R
#

v  103.1528 47.7714 85.0875
v  108.9176 44.8170 86.0849
v  105.0846 48.4387 84.0352
v  110.0116 45.5754 85.2918
v  106.3633 48.4501 83.6983
v  111.4197 45.8991 84.7572
v  111.3310 47.4923 81.5268
v  111.7076 47.7923 79.3255
v  105.3885 50.2534 80.5378
v  105.7151 50.6030 78.2457
v  111.4774 47.1944 82.5357
v  106.0318 49.5542 82.0254
v  106.8431 48.9745 82.7608
v  112.1347 46.6854 83.4243
v  115.1122 45.6141 83.0515
v  114.9932 45.4676 83.8003
v  115.2402 45.7713 82.1185
v  115.5141 46.1070 79.9434
v  112.9068 42.9160 86.6693
v  111.1141 40.7218 88.5070
v  107.1208 42.6780 88.0198
v  110.8293 40.3736 88.6920
v  53.7564 72.1989 75.3875
v  52.9256 70.4618 77.4740
v  61.5769 68.6757 76.9843
v  60.6653 66.9281 79.1107
v  68.3307 63.2648 80.7245
v  69.3338 65.0283 78.5670
v  99.3359 53.7050 77.0234
v  99.0336 53.3150 79.4029
v  99.8468 52.2376 81.4012
v  99.8045 51.9642 82.0137
v  113.5458 45.8725 84.1456
v  114.7649 45.1880 84.5673
v  114.8766 45.3241 84.3074
v  102.7038 45.0550 87.3195
v  70.1798 66.4306 76.3046
v  62.3557 70.0704 74.7389
v  54.4774 73.5890 73.1685
v  106.8242 48.7262 83.2596
v  101.3723 45.7716 87.1084
v  46.8615 76.8208 71.6783
v  46.1907 75.4325 73.8682
v  39.1986 78.2108 72.5177
v  39.8250 79.6004 70.3524
v  47.3770 77.6091 69.2360
v  40.3284 80.3946 67.9187
v  55.0172 74.3708 70.7197
v  62.9461 70.8431 72.2924
v  70.8170 67.1941 73.8694
v  71.6230 67.5647 71.3682
v  63.6673 71.2356 69.7706
v  55.5132 74.7987 68.1493
v  47.8039 78.0543 66.6494
v  40.7615 80.8485 65.3316
v  75.6023 59.6370 82.2157
v  76.7085 61.4224 80.0444
v  82.5111 56.0592 83.5922
v  83.7599 57.8686 81.4275
v  89.0883 52.5460 84.8614
v  90.5472 54.3775 82.7278
v  97.0261 50.9962 83.9471
v  95.3649 49.1119 86.0309
v  45.4313 73.7011 75.9138
v  38.5021 76.4809 74.5296
v  99.4058 51.6256 82.5403
v  92.2411 55.6245 80.6040
v  84.9186 59.2460 79.2033
v  77.6328 62.8353 77.7815
v  92.7200 56.9945 75.7101
v  92.3677 56.6063 78.1435
v  85.9265 60.4245 74.3288
v  85.4358 60.0558 76.7882
v  79.0147 63.9094 72.9021
v  78.2829 63.5917 75.3657
v  114.6198 45.0115 84.8158
v  113.2997 45.6022 84.6005
v  114.2714 44.5861 85.2217
v  113.6752 43.8565 85.8651
# 79 vertices

vn 0.1835 0.6278 0.7564
vn 0.1730 0.5841 0.7930
vn 0.1839 0.6455 0.7413
vn 0.1552 0.6040 0.7817
vn 0.1962 0.6812 0.7053
vn 0.1585 0.6194 0.7689
vn 0.3778 0.9044 0.1983
vn 0.3820 0.9046 0.1891
vn 0.3820 0.8968 0.2231
vn 0.3933 0.8988 0.1936
vn 0.3635 0.9023 0.2317
vn 0.3631 0.8903 0.2748
vn 0.3328 0.8682 0.3681
vn 0.3486 0.8920 0.2878
vn 0.3615 0.9066 0.2176
vn 0.3469 0.8998 0.2645
vn 0.3701 0.9088 0.1927
vn 0.3720 0.9092 0.1873
vn 0.1480 0.5662 0.8109
vn 0.1044 0.5472 0.8305
vn 0.1901 0.5660 0.8022
vn 0.1591 0.5496 0.8201
vn 0.2054 0.7554 0.6222
vn 0.1801 0.7196 0.6706
vn 0.2179 0.7508 0.6236
vn 0.1928 0.7157 0.6713
vn 0.2044 0.7084 0.6755
vn 0.2289 0.7436 0.6283
vn 0.4011 0.8944 0.1979
vn 0.3871 0.8868 0.2523
vn 0.3541 0.8688 0.3462
vn 0.2782 0.7961 0.5374
vn 0.3017 0.8454 0.4407
vn 0.2433 0.7666 0.5943
vn 0.3063 0.8624 0.4031
vn 0.1813 0.5990 0.7799
vn 0.2977 0.8280 0.4752
vn 0.2869 0.8353 0.4690
vn 0.2745 0.8417 0.4649
vn 0.2552 0.7818 0.5689
vn 0.1923 0.6165 0.7635
vn 0.2587 0.8477 0.4632
vn 0.1906 0.7591 0.6225
vn 0.1718 0.7636 0.6225
vn 0.2365 0.8549 0.4618
vn 0.3173 0.9056 0.2813
vn 0.2924 0.9141 0.2809
vn 0.3328 0.8987 0.2857
vn 0.3445 0.8898 0.2993
vn 0.3557 0.8831 0.3060
vn 0.3724 0.8938 0.2500
vn 0.3603 0.9010 0.2417
vn 0.3490 0.9112 0.2186
vn 0.3345 0.9179 0.2136
vn 0.3089 0.9267 0.2142
vn 0.2132 0.6970 0.6846
vn 0.2369 0.7334 0.6372
vn 0.2166 0.6813 0.6992
vn 0.2409 0.7187 0.6522
vn 0.2207 0.6604 0.7178
vn 0.2319 0.7003 0.6751
vn 0.2133 0.6566 0.7235
vn 0.2104 0.6399 0.7391
vn 0.1655 0.7219 0.6719
vn 0.1479 0.7245 0.6732
vn 0.2272 0.6997 0.6774
vn 0.2972 0.8065 0.5112
vn 0.3098 0.8117 0.4951
vn 0.3058 0.8205 0.4830
vn 0.4044 0.8920 0.2023
vn 0.3792 0.8801 0.2856
vn 0.4017 0.8900 0.2156
vn 0.3791 0.8784 0.2910
vn 0.3956 0.8886 0.2321
vn 0.3722 0.8784 0.2997
vn 0.1758 0.6593 0.7310
vn 0.1968 0.6905 0.6960
vn 0.1450 0.5970 0.7891
vn 0.1439 0.5809 0.8011
# 79 vertex normals

vt 0.6932 0.1784 0.0000
vt 0.7023 0.1734 0.0000
vt 0.6964 0.1799 0.0000
vt 0.7040 0.1748 0.0000
vt 0.6985 0.1800 0.0000
vt 0.7061 0.1755 0.0000
vt 0.7068 0.1809 0.0000
vt 0.7083 0.1837 0.0000
vt 0.6980 0.1860 0.0000
vt 0.6996 0.1893 0.0000
vt 0.7067 0.1793 0.0000
vt 0.6984 0.1832 0.0000
vt 0.6995 0.1815 0.0000
vt 0.7074 0.1777 0.0000
vt 0.7119 0.1767 0.0000
vt 0.7115 0.1756 0.0000
vt 0.7124 0.1780 0.0000
vt 0.7131 0.1807 0.0000
vt 0.7085 0.1703 0.0000
vt 0.7063 0.1660 0.0000
vt 0.6996 0.1693 0.0000
vt 0.7058 0.1655 0.0000
vt 0.6110 0.2197 0.0000
vt 0.6097 0.2154 0.0000
vt 0.6241 0.2139 0.0000
vt 0.6226 0.2095 0.0000
vt 0.6353 0.2034 0.0000
vt 0.6370 0.2079 0.0000
vt 0.6893 0.1955 0.0000
vt 0.6877 0.1918 0.0000
vt 0.6885 0.1879 0.0000
vt 0.6882 0.1869 0.0000
vt 0.7093 0.1758 0.0000
vt 0.7111 0.1745 0.0000
vt 0.7112 0.1749 0.0000
vt 0.6923 0.1732 0.0000
vt 0.6386 0.2121 0.0000
vt 0.6255 0.2181 0.0000
vt 0.6122 0.2239 0.0000
vt 0.6993 0.1807 0.0000
vt 0.6901 0.1744 0.0000
vt 0.5995 0.2291 0.0000
vt 0.5984 0.2250 0.0000
vt 0.5866 0.2295 0.0000
vt 0.5875 0.2334 0.0000
vt 0.6005 0.2331 0.0000
vt 0.5887 0.2371 0.0000
vt 0.6134 0.2279 0.0000
vt 0.6268 0.2221 0.0000
vt 0.6401 0.2161 0.0000
vt 0.6421 0.2199 0.0000
vt 0.6287 0.2261 0.0000
vt 0.6148 0.2320 0.0000
vt 0.6017 0.2372 0.0000
vt 0.5900 0.2411 0.0000
vt 0.6474 0.1974 0.0000
vt 0.6493 0.2019 0.0000
vt 0.6588 0.1915 0.0000
vt 0.6610 0.1958 0.0000
vt 0.6697 0.1856 0.0000
vt 0.6724 0.1899 0.0000
vt 0.6832 0.1841 0.0000
vt 0.6801 0.1799 0.0000
vt 0.5973 0.2207 0.0000
vt 0.5858 0.2253 0.0000
vt 0.6875 0.1860 0.0000
vt 0.6756 0.1936 0.0000
vt 0.6631 0.1998 0.0000
vt 0.6510 0.2061 0.0000
vt 0.6781 0.2018 0.0000
vt 0.6765 0.1979 0.0000
vt 0.6662 0.2076 0.0000
vt 0.6646 0.2038 0.0000
vt 0.6546 0.2137 0.0000
vt 0.6526 0.2100 0.0000
vt 0.7108 0.1741 0.0000
vt 0.7089 0.1751 0.0000
vt 0.7103 0.1734 0.0000
vt 0.7095 0.1720 0.0000
# 79 texture coords

g Y212_181C_R_DaS_Y212_181C_R
usemtl paint_whiteSG
s 10
f 1/1/1 2/2/2 3/3/3 
f 3/3/3 2/2/2 4/4/4 
f 3/3/3 4/4/4 5/5/5 
f 5/5/5 4/4/4 6/6/6 
f 7/7/7 8/8/8 9/9/9 
f 9/9/9 8/8/8 10/10/10 
f 11/11/11 7/7/7 12/12/12 
f 12/12/12 7/7/7 9/9/9 
f 12/12/12 13/13/13 11/11/11 
f 11/11/11 13/13/13 14/14/14 
f 11/11/11 14/14/14 15/15/15 
f 15/15/15 14/14/14 16/16/16 
f 15/15/15 17/17/17 11/11/11 
f 11/11/11 17/17/17 7/7/7 
f 17/17/17 18/18/18 7/7/7 
f 7/7/7 18/18/18 8/8/8 
f 19/19/19 2/2/2 20/20/20 
f 21/21/21 22/22/22 2/2/2 
f 2/2/2 22/22/22 20/20/20 
f 23/23/23 24/24/24 25/25/25 
f 25/25/25 24/24/24 26/26/26 
f 27/27/27 28/28/28 26/26/26 
f 26/26/26 28/28/28 25/25/25 
f 29/29/29 30/30/30 10/10/10 
f 10/10/10 30/30/30 9/9/9 
f 12/12/12 9/9/9 31/31/31 
f 31/31/31 9/9/9 30/30/30 
f 31/31/31 32/32/32 13/13/13 
f 33/33/33 34/34/34 35/35/35 
f 2/2/2 36/36/36 21/21/21 
f 28/28/28 37/37/37 25/25/25 
f 25/25/25 37/37/37 38/38/38 
f 39/39/39 23/23/23 38/38/38 
f 38/38/38 23/23/23 25/25/25 
f 40/40/40 34/34/34 33/33/33 
f 41/41/41 36/36/36 1/1/1 
f 42/42/42 43/43/43 39/39/39 
f 39/39/39 43/43/43 23/23/23 
f 43/43/43 42/42/42 44/44/44 
f 44/44/44 42/42/42 45/45/45 
f 42/42/42 46/46/46 45/45/45 
f 45/45/45 46/46/46 47/47/47 
f 39/39/39 48/48/48 42/42/42 
f 42/42/42 48/48/48 46/46/46 
f 38/38/38 49/49/49 39/39/39 
f 39/39/39 49/49/49 48/48/48 
f 37/37/37 50/50/50 38/38/38 
f 38/38/38 50/50/50 49/49/49 
f 51/51/51 52/52/52 50/50/50 
f 50/50/50 52/52/52 49/49/49 
f 53/53/53 48/48/48 52/52/52 
f 52/52/52 48/48/48 49/49/49 
f 54/54/54 46/46/46 53/53/53 
f 53/53/53 46/46/46 48/48/48 
f 46/46/46 54/54/54 47/47/47 
f 47/47/47 54/54/54 55/55/55 
f 56/56/56 57/57/57 27/27/27 
f 27/27/27 57/57/57 28/28/28 
f 58/58/58 59/59/59 56/56/56 
f 56/56/56 59/59/59 57/57/57 
f 60/60/60 61/61/61 58/58/58 
f 58/58/58 61/61/61 59/59/59 
f 62/62/62 61/61/61 63/63/63 
f 63/63/63 61/61/61 60/60/60 
f 64/64/64 43/43/43 65/65/65 
f 65/65/65 43/43/43 44/44/44 
f 66/66/66 32/32/32 67/67/67 
f 43/43/43 64/64/64 23/23/23 
f 23/23/23 64/64/64 24/24/24 
f 59/59/59 61/61/61 68/68/68 
f 68/68/68 61/61/61 67/67/67 
f 69/69/69 57/57/57 68/68/68 
f 68/68/68 57/57/57 59/59/59 
f 57/57/57 69/69/69 28/28/28 
f 28/28/28 69/69/69 37/37/37 
f 63/63/63 41/41/41 62/62/62 
f 62/62/62 41/41/41 1/1/1 
f 70/70/70 71/71/71 29/29/29 
f 29/29/29 71/71/71 30/30/30 
f 72/72/72 73/73/73 70/70/70 
f 70/70/70 73/73/73 71/71/71 
f 74/74/74 75/75/75 72/72/72 
f 72/72/72 75/75/75 73/73/73 
f 3/3/3 5/5/5 66/66/66 
f 3/3/3 66/66/66 1/1/1 
f 1/1/1 66/66/66 62/62/62 
f 50/50/50 75/75/75 51/51/51 
f 51/51/51 75/75/75 74/74/74 
f 76/76/76 77/77/77 78/78/78 
f 78/78/78 77/77/77 6/6/6 
f 35/35/35 16/16/16 33/33/33 
f 33/33/33 16/16/16 14/14/14 
f 69/69/69 75/75/75 37/37/37 
f 37/37/37 75/75/75 50/50/50 
f 40/40/40 13/13/13 32/32/32 
f 73/73/73 68/68/68 71/71/71 
f 71/71/71 68/68/68 67/67/67 
f 75/75/75 69/69/69 73/73/73 
f 73/73/73 69/69/69 68/68/68 
f 31/31/31 30/30/30 71/71/71 
f 2/2/2 1/1/1 36/36/36 
f 76/76/76 34/34/34 77/77/77 
f 40/40/40 5/5/5 77/77/77 
f 78/78/78 6/6/6 79/79/79 
f 79/79/79 6/6/6 4/4/4 
f 79/79/79 4/4/4 19/19/19 
f 19/19/19 4/4/4 2/2/2 
f 66/66/66 67/67/67 61/61/61 
f 31/31/31 67/67/67 32/32/32 
f 40/40/40 32/32/32 5/5/5 
f 5/5/5 32/32/32 66/66/66 
f 12/12/12 31/31/31 13/13/13 
f 66/66/66 61/61/61 62/62/62 
f 31/31/31 71/71/71 67/67/67 
f 40/40/40 77/77/77 34/34/34 
f 13/13/13 33/33/33 14/14/14 
f 40/40/40 33/33/33 13/13/13 
f 5/5/5 6/6/6 77/77/77 
# 118 faces

#
# object Y212_181C_R_DaS_Y212_181C_R_E
#

v  111.1141 40.7218 88.5070
v  110.8293 40.3736 88.6920
v  111.0687 40.5494 88.1964
v  110.7974 40.2277 88.3681
v  112.9068 42.9160 86.6693
v  112.8534 42.7149 86.3795
v  113.6752 43.8565 85.8651
v  114.2186 44.3726 84.9409
v  114.2714 44.5861 85.2217
v  114.9932 45.4676 83.8003
v  114.8702 45.1475 83.7008
v  115.1122 45.6141 83.0515
v  115.1085 45.4473 82.0484
v  115.2402 45.7713 82.1185
v  114.6786 44.9134 84.3551
v  114.7649 45.1880 84.5673
v  114.5537 44.7702 84.5595
v  114.6198 45.0115 84.8158
v  114.8766 45.3241 84.3074
v  114.7688 45.0186 84.1524
v  55.3373 74.3619 68.0834
v  55.5132 74.7987 68.1493
v  63.4839 70.8008 69.7115
v  63.6673 71.2356 69.7706
v  71.6230 67.5647 71.3682
v  71.4255 67.0847 71.3121
v  113.9020 43.3144 80.0730
v  113.9601 43.3098 79.7211
v  115.2937 45.7381 80.2734
v  115.5141 46.1070 79.9434
v  40.5986 80.4067 65.2652
v  40.7615 80.8485 65.3316
v  47.6361 77.6144 66.5825
v  47.8039 78.0543 66.6494
v  99.3359 53.7050 77.0234
v  105.7151 50.6030 78.2457
v  99.1164 52.0602 76.9391
v  105.4916 48.3581 78.1580
v  79.0147 63.9094 72.9021
v  85.9265 60.4245 74.3288
v  78.8043 63.3549 72.8367
v  85.7141 59.5475 74.2531
v  111.6904 44.6779 79.3088
v  111.7076 47.7923 79.3255
v  92.7200 56.9945 75.7101
v  92.5046 55.7923 75.6295
# 46 vertices

vn 0.8183 -0.5449 0.1831
vn 0.8016 -0.5683 0.1856
vn 0.8165 -0.5480 0.1818
vn 0.7973 -0.5759 0.1808
vn 0.8340 -0.5137 0.2012
vn 0.8341 -0.5129 0.2028
vn 0.8364 -0.5071 0.2083
vn 0.8399 -0.4970 0.2180
vn 0.8419 -0.4925 0.2206
vn 0.9213 -0.3791 0.0865
vn 0.9204 -0.3821 0.0833
vn 0.9193 -0.3885 0.0631
vn 0.9215 -0.3856 0.0474
vn 0.9187 -0.3920 0.0473
vn 0.8800 -0.4309 0.1999
vn 0.8837 -0.4275 0.1906
vn 0.8590 -0.4635 0.2172
vn 0.8617 -0.4611 0.2118
vn 0.9095 -0.3916 0.1393
vn 0.9075 -0.3963 0.1394
vn 0.2176 0.0593 -0.9742
vn 0.2174 0.0589 -0.9743
vn 0.2141 0.0424 -0.9759
vn 0.2126 0.0268 -0.9768
vn 0.2127 0.0267 -0.9768
vn 0.8525 -0.5017 0.1472
vn 0.7217 -0.3649 -0.5882
vn 0.8736 -0.4850 0.0387
vn 0.6916 -0.3286 -0.6432
vn 0.2100 0.0692 -0.9752
vn 0.2135 0.0667 -0.9747
vn 0.2134 0.0666 -0.9747
vn 0.2036 0.0233 -0.9788
vn 0.1936 0.0194 -0.9809
vn 0.2019 0.0227 -0.9791
vn 0.1905 0.0172 -0.9815
vn 0.2178 0.0323 -0.9755
vn 0.2162 0.0319 -0.9758
vn 0.2178 0.0324 -0.9755
vn 0.2158 0.0317 -0.9759
vn 0.1718 -0.0014 -0.9851
vn 0.1767 0.0060 -0.9842
vn 0.2111 0.0279 -0.9771
vn 0.2100 0.0275 -0.9773
# 44 vertex normals

vt 0.7063 0.1660 0.0000
vt 0.7058 0.1655 0.0000
vt 0.7062 0.1657 0.0000
vt 0.7057 0.1652 0.0000
vt 0.7085 0.1703 0.0000
vt 0.7089 0.1700 0.0000
vt 0.7095 0.1720 0.0000
vt 0.7107 0.1731 0.0000
vt 0.7103 0.1734 0.0000
vt 0.7115 0.1756 0.0000
vt 0.7120 0.1754 0.0000
vt 0.7119 0.1767 0.0000
vt 0.7129 0.1779 0.0000
vt 0.7124 0.1780 0.0000
vt 0.7115 0.1743 0.0000
vt 0.7111 0.1745 0.0000
vt 0.7112 0.1739 0.0000
vt 0.7108 0.1741 0.0000
vt 0.7112 0.1749 0.0000
vt 0.7117 0.1747 0.0000
vt 0.6151 0.2328 0.0000
vt 0.6148 0.2320 0.0000
vt 0.6290 0.2268 0.0000
vt 0.6287 0.2261 0.0000
vt 0.6421 0.2199 0.0000
vt 0.6425 0.2207 0.0000
vt 0.7157 0.1838 0.0000
vt 0.7153 0.1840 0.0000
vt 0.7136 0.1805 0.0000
vt 0.7131 0.1807 0.0000
vt 0.5902 0.2418 0.0000
vt 0.5900 0.2411 0.0000
vt 0.6019 0.2380 0.0000
vt 0.6017 0.2372 0.0000
vt 0.6893 0.1955 0.0000
vt 0.6996 0.1893 0.0000
vt 0.6914 0.1973 0.0000
vt 0.7024 0.1916 0.0000
vt 0.6546 0.2137 0.0000
vt 0.6662 0.2076 0.0000
vt 0.6552 0.2146 0.0000
vt 0.6671 0.2087 0.0000
vt 0.7122 0.1861 0.0000
vt 0.7083 0.1837 0.0000
vt 0.6781 0.2018 0.0000
vt 0.6795 0.2033 0.0000
# 46 texture coords

g Y212_181C_R_DaS_Y212_181C_R_E
usemtl paint_whiteSG
s 1
f 80/80/80 81/81/81 82/82/82 
f 82/82/82 81/81/81 83/83/83 
f 84/84/84 85/85/85 86/86/86 
f 85/85/85 87/87/87 86/86/86 
f 86/86/86 87/87/87 88/88/88 
f 80/80/80 82/82/82 84/84/84 
f 84/84/84 82/82/82 85/85/85 
f 89/89/89 90/90/90 91/91/91 
f 90/90/90 92/92/92 91/91/91 
f 91/91/91 92/92/92 93/93/93 
f 94/94/94 95/95/95 96/96/96 
f 96/96/96 95/95/95 97/97/97 
f 98/98/98 95/95/95 99/99/99 
f 99/99/99 95/95/95 94/94/94 
s 5
f 100/100/100 101/101/101 102/102/102 
f 102/102/102 101/101/101 103/103/102 
f 103/103/102 104/104/103 102/102/102 
f 102/102/102 104/104/103 105/105/104 
s 1
f 106/106/105 107/107/106 108/108/107 
f 108/108/107 107/107/106 109/109/108 
s 5
f 110/110/109 111/111/109 112/112/110 
f 112/112/110 111/111/109 113/113/111 
f 112/112/110 113/113/111 100/100/100 
f 100/100/100 113/113/111 101/101/101 
s 1
f 109/109/108 93/93/93 108/108/107 
f 108/108/107 93/93/93 92/92/92 
s 5
f 114/114/112 115/115/113 116/116/114 
f 116/116/114 115/115/113 117/117/115 
f 118/118/116 119/119/117 120/120/118 
f 120/120/118 119/119/117 121/121/119 
f 122/122/120 117/117/115 123/123/121 
f 123/123/121 117/117/115 115/115/113 
s 1
f 97/97/97 88/88/88 96/96/96 
f 96/96/96 88/88/88 87/87/87 
s 5
f 124/124/122 114/114/112 125/125/123 
f 125/125/123 114/114/112 116/116/114 
f 107/107/106 122/122/120 109/109/108 
f 109/109/108 122/122/120 123/123/121 
f 119/119/117 124/124/122 121/121/119 
f 121/121/119 124/124/122 125/125/123 
f 104/104/103 118/118/116 105/105/104 
f 105/105/104 118/118/116 120/120/118 
s 1
f 90/90/90 89/89/89 99/99/99 
f 99/99/99 89/89/89 98/98/98 
# 44 faces

