# 3ds Max Wavefront OBJ Exporter v0.97b - (c)2007 guruware
# File Created: 30.11.2015 13:06:34

mtllib P158_305B_L.mtl

#
# object P158_305B_L_DTaSI_P158_305B_L
#

v  -75.3077 56.9032 -92.2034
v  -63.0184 56.4250 -92.6010
v  -75.2848 52.2157 -93.9357
v  -62.9955 51.7451 -94.3234
v  -49.7882 51.2514 -94.7002
v  -49.8113 55.9219 -92.9885
v  -118.2635 58.8810 -90.1871
v  -108.5831 58.4131 -90.7289
v  -117.9102 54.1707 -91.9673
v  -108.5603 53.7154 -92.4849
v  -97.9459 53.2001 -93.0095
v  -97.9687 57.9007 -91.2617
v  -86.9088 57.3941 -91.7565
v  -86.8859 52.6982 -93.4968
v  -49.8151 61.3718 -90.9524
v  -63.0205 61.8540 -90.5559
v  -75.3055 62.3219 -90.1446
v  -75.2231 68.3476 -87.7256
v  -62.9681 67.9020 -88.1551
v  -49.7743 67.4498 -88.5592
v  -119.1204 70.2920 -85.5207
v  -108.5130 69.8173 -86.1363
v  -118.6714 64.3154 -88.0395
v  -108.5828 63.8324 -88.6192
v  -97.9656 63.3227 -89.1730
v  -97.8762 69.3269 -86.7088
v  -86.9049 62.8133 -89.6841
v  -86.8093 68.8276 -87.2427
v  -49.6657 74.0751 -85.7471
v  -62.8338 74.5003 -85.3400
v  -75.0183 74.9066 -84.8957
v  -74.7331 81.5653 -81.7848
v  -62.6288 81.2833 -82.1966
v  -49.4838 80.9404 -82.5794
v  -97.6191 75.7961 -83.8430
v  -108.2676 76.2479 -83.2657
v  -119.4116 73.6507 -83.9999
v  -118.4260 76.6851 -82.6722
v  -107.3514 82.5139 -80.2863
v  -115.5577 83.5037 -79.5097
v  -97.0633 82.1437 -80.8258
v  -86.5674 75.3455 -84.3908
v  -86.2040 81.8552 -81.3189
v  -39.5073 73.7287 -86.0247
v  -38.8335 67.0695 -88.8671
v  -40.2057 80.6438 -82.8246
v  -38.2130 60.9409 -91.2868
v  -37.6569 55.4470 -93.3409
v  -37.1839 50.7717 -95.0575
v  -113.9943 86.8865 -77.7680
v  -113.1594 88.5140 -76.9148
v  -111.9993 88.1654 -77.1501
v  -109.9128 91.0011 -75.5899
v  -111.0432 90.6437 -75.7535
v  -112.2589 89.6618 -76.2816
v  -62.1078 93.3622 -75.8102
v  -61.9540 96.0510 -74.2313
v  -48.9649 93.4070 -76.0391
v  -48.7885 96.6514 -74.1617
v  -74.1122 93.1002 -75.6577
v  -73.9632 95.2208 -74.3999
v  -85.3522 92.7217 -75.5367
v  -85.2262 94.1797 -74.6750
v  -95.2875 92.3087 -75.4285
v  -95.1696 93.1658 -74.9499
v  -62.3760 87.7765 -78.8964
v  -74.4227 87.8021 -78.5971
v  -49.2360 87.6163 -79.2112
v  -85.7714 87.7824 -78.2788
v  -96.1657 87.7466 -77.9538
v  -103.2641 92.1712 -75.2322
v  -103.4912 91.5763 -75.5138
v  -105.1798 87.7643 -77.6192
v  -40.8868 87.4028 -79.4231
v  -41.4778 93.2768 -76.2180
v  -42.6631 94.9882 -75.1795
v  -43.4985 96.1943 -74.4477
v  -43.7673 96.5743 -74.2042
v  -109.2946 50.5298 -93.6618
v  -98.4169 50.0010 -94.1989
v  -87.0827 49.4877 -94.6974
v  -75.1937 48.9987 -95.1447
v  -62.5996 48.5287 -95.5369
v  -49.0647 48.0444 -95.9145
v  -36.8109 47.6038 -96.2520
v  -117.6834 50.9391 -93.1976
v  -42.8789 96.3406 -74.3573
v  -42.2243 95.8729 -74.6476
v  -41.6632 94.9378 -75.2176
# 89 vertices

vn -0.0191 0.3510 -0.9362
vn -0.0156 0.3490 -0.9370
vn -0.0187 0.3484 -0.9372
vn -0.0151 0.3477 -0.9375
vn -0.0136 0.3471 -0.9377
vn -0.0140 0.3472 -0.9377
vn -0.0355 0.3587 -0.9328
vn -0.0325 0.3565 -0.9337
vn -0.0350 0.3516 -0.9355
vn -0.0318 0.3509 -0.9359
vn -0.0273 0.3497 -0.9365
vn -0.0278 0.3541 -0.9348
vn -0.0235 0.3525 -0.9355
vn -0.0232 0.3489 -0.9369
vn -0.0141 0.3587 -0.9333
vn -0.0161 0.3612 -0.9324
vn -0.0196 0.3642 -0.9311
vn -0.0205 0.3852 -0.9226
vn -0.0167 0.3816 -0.9242
vn -0.0139 0.3794 -0.9251
vn -0.0357 0.3970 -0.9171
vn -0.0333 0.3965 -0.9174
vn -0.0358 0.3765 -0.9257
vn -0.0330 0.3735 -0.9271
vn -0.0283 0.3701 -0.9286
vn -0.0291 0.3933 -0.9189
vn -0.0239 0.3671 -0.9299
vn -0.0247 0.3893 -0.9208
vn -0.0133 0.4054 -0.9140
vn -0.0171 0.4072 -0.9132
vn -0.0217 0.4106 -0.9115
vn -0.0225 0.4400 -0.8977
vn -0.0174 0.4374 -0.8991
vn -0.0132 0.4350 -0.9003
vn -0.0295 0.4188 -0.9076
vn -0.0327 0.4210 -0.9065
vn -0.0355 0.4099 -0.9115
vn -0.0346 0.4239 -0.9051
vn -0.0313 0.4451 -0.8950
vn -0.0320 0.4417 -0.8966
vn -0.0297 0.4441 -0.8955
vn -0.0263 0.4150 -0.9094
vn -0.0272 0.4422 -0.8965
vn -0.0114 0.4041 -0.9147
vn -0.0128 0.3781 -0.9257
vn -0.0100 0.4323 -0.9017
vn -0.0135 0.3573 -0.9339
vn -0.0136 0.3462 -0.9381
vn -0.0134 0.3470 -0.9378
vn -0.0271 0.4680 -0.8833
vn -0.0312 0.4857 -0.8736
vn -0.0303 0.4760 -0.8789
vn -0.0317 0.4970 -0.8672
vn -0.0318 0.5000 -0.8655
vn -0.0261 0.4984 -0.8666
vn -0.0188 0.4914 -0.8707
vn -0.0196 0.5065 -0.8620
vn -0.0152 0.4883 -0.8725
vn -0.0150 0.5017 -0.8649
vn -0.0235 0.4930 -0.8697
vn -0.0240 0.5108 -0.8594
vn -0.0273 0.4921 -0.8701
vn -0.0272 0.5104 -0.8595
vn -0.0310 0.4886 -0.8720
vn -0.0297 0.4924 -0.8699
vn -0.0179 0.4677 -0.8837
vn -0.0229 0.4696 -0.8826
vn -0.0142 0.4649 -0.8852
vn -0.0271 0.4708 -0.8818
vn -0.0305 0.4722 -0.8810
vn -0.0293 0.4401 -0.8975
vn -0.0324 0.4867 -0.8730
vn -0.0317 0.4742 -0.8798
vn -0.0100 0.4615 -0.8871
vn -0.0111 0.4843 -0.8748
vn -0.0090 0.5105 -0.8598
vn -0.0014 0.5210 -0.8536
vn 0.0009 0.5400 -0.8417
vn -0.0318 0.3528 -0.9351
vn -0.0272 0.3519 -0.9356
vn -0.0230 0.3514 -0.9359
vn -0.0183 0.3513 -0.9361
vn -0.0146 0.3514 -0.9361
vn -0.0133 0.3514 -0.9361
vn -0.0131 0.3514 -0.9361
vn -0.0345 0.3535 -0.9348
vn -0.0010 0.5287 -0.8488
vn -0.0045 0.5175 -0.8557
vn -0.0066 0.5159 -0.8566
# 89 vertex normals

vt 0.4110 0.9564 0.0000
vt 0.4525 0.9580 0.0000
vt 0.4112 0.9732 0.0000
vt 0.4527 0.9748 0.0000
vt 0.4974 0.9764 0.0000
vt 0.4972 0.9596 0.0000
vt 0.2656 0.9489 0.0000
vt 0.2984 0.9508 0.0000
vt 0.2669 0.9659 0.0000
vt 0.2986 0.9677 0.0000
vt 0.3345 0.9696 0.0000
vt 0.3343 0.9527 0.0000
vt 0.3717 0.9546 0.0000
vt 0.3719 0.9715 0.0000
vt 0.4970 0.9400 0.0000
vt 0.4524 0.9384 0.0000
vt 0.4108 0.9368 0.0000
vt 0.4109 0.9149 0.0000
vt 0.4524 0.9164 0.0000
vt 0.4970 0.9180 0.0000
vt 0.2623 0.9073 0.0000
vt 0.2982 0.9092 0.0000
vt 0.2641 0.9292 0.0000
vt 0.2982 0.9311 0.0000
vt 0.3341 0.9331 0.0000
vt 0.3342 0.9112 0.0000
vt 0.3716 0.9350 0.0000
vt 0.3717 0.9131 0.0000
vt 0.4971 0.8936 0.0000
vt 0.4526 0.8922 0.0000
vt 0.4114 0.8907 0.0000
vt 0.4121 0.8659 0.0000
vt 0.4530 0.8669 0.0000
vt 0.4975 0.8681 0.0000
vt 0.3349 0.8873 0.0000
vt 0.2988 0.8854 0.0000
vt 0.2612 0.8948 0.0000
vt 0.2645 0.8836 0.0000
vt 0.3017 0.8619 0.0000
vt 0.2739 0.8581 0.0000
vt 0.3365 0.8635 0.0000
vt 0.3723 0.8891 0.0000
vt 0.3733 0.8647 0.0000
vt 0.5315 0.8947 0.0000
vt 0.5340 0.9192 0.0000
vt 0.5289 0.8690 0.0000
vt 0.5363 0.9414 0.0000
vt 0.5383 0.9612 0.0000
vt 0.5401 0.9779 0.0000
vt 0.2790 0.8452 0.0000
vt 0.2818 0.8389 0.0000
vt 0.2857 0.8403 0.0000
vt 0.2927 0.8293 0.0000
vt 0.2888 0.8307 0.0000
vt 0.2848 0.8345 0.0000
vt 0.4543 0.8208 0.0000
vt 0.4547 0.8105 0.0000
vt 0.4987 0.8205 0.0000
vt 0.4992 0.8083 0.0000
vt 0.4137 0.8218 0.0000
vt 0.4141 0.8136 0.0000
vt 0.3757 0.8231 0.0000
vt 0.3760 0.8175 0.0000
vt 0.3421 0.8246 0.0000
vt 0.3424 0.8215 0.0000
vt 0.4536 0.8423 0.0000
vt 0.4129 0.8422 0.0000
vt 0.4981 0.8428 0.0000
vt 0.3745 0.8422 0.0000
vt 0.3393 0.8422 0.0000
vt 0.3151 0.8253 0.0000
vt 0.3144 0.8272 0.0000
vt 0.3088 0.8420 0.0000
vt 0.5263 0.8435 0.0000
vt 0.5240 0.8209 0.0000
vt 0.5199 0.8143 0.0000
vt 0.5171 0.8096 0.0000
vt 0.5161 0.8080 0.0000
vt 0.2962 0.9791 0.0000
vt 0.3330 0.9812 0.0000
vt 0.3714 0.9831 0.0000
vt 0.4116 0.9848 0.0000
vt 0.4542 0.9864 0.0000
vt 0.5000 0.9879 0.0000
vt 0.5414 0.9894 0.0000
vt 0.2678 0.9775 0.0000
vt 0.5191 0.8089 0.0000
vt 0.5214 0.8107 0.0000
vt 0.5233 0.8144 0.0000
# 89 texture coords

g P158_305B_L_DTaSI_P158_305B_L
usemtl windowglass_1SG
s 1
f 1/1/1 2/2/2 3/3/3 
f 3/3/3 2/2/2 4/4/4 
f 5/5/5 4/4/4 6/6/6 
f 6/6/6 4/4/4 2/2/2 
f 7/7/7 8/8/8 9/9/9 
f 9/9/9 8/8/8 10/10/10 
f 11/11/11 10/10/10 12/12/12 
f 12/12/12 10/10/10 8/8/8 
f 12/12/12 13/13/13 11/11/11 
f 11/11/11 13/13/13 14/14/14 
f 3/3/3 14/14/14 1/1/1 
f 1/1/1 14/14/14 13/13/13 
f 6/6/6 2/2/2 15/15/15 
f 15/15/15 2/2/2 16/16/16 
f 17/17/17 16/16/16 1/1/1 
f 1/1/1 16/16/16 2/2/2 
f 18/18/18 19/19/19 17/17/17 
f 17/17/17 19/19/19 16/16/16 
f 15/15/15 16/16/16 20/20/20 
f 20/20/20 16/16/16 19/19/19 
f 21/21/21 22/22/22 23/23/23 
f 23/23/23 22/22/22 24/24/24 
f 12/12/12 8/8/8 25/25/25 
f 25/25/25 8/8/8 24/24/24 
f 23/23/23 24/24/24 7/7/7 
f 7/7/7 24/24/24 8/8/8 
f 25/25/25 24/24/24 26/26/26 
f 26/26/26 24/24/24 22/22/22 
f 1/1/1 13/13/13 17/17/17 
f 17/17/17 13/13/13 27/27/27 
f 25/25/25 27/27/27 12/12/12 
f 12/12/12 27/27/27 13/13/13 
f 26/26/26 28/28/28 25/25/25 
f 25/25/25 28/28/28 27/27/27 
f 17/17/17 27/27/27 18/18/18 
f 18/18/18 27/27/27 28/28/28 
f 20/20/20 19/19/19 29/29/29 
f 29/29/29 19/19/19 30/30/30 
f 31/31/31 30/30/30 18/18/18 
f 18/18/18 30/30/30 19/19/19 
f 32/32/32 33/33/33 31/31/31 
f 31/31/31 33/33/33 30/30/30 
f 29/29/29 30/30/30 34/34/34 
f 34/34/34 30/30/30 33/33/33 
f 26/26/26 22/22/22 35/35/35 
f 35/35/35 22/22/22 36/36/36 
f 22/22/22 21/21/21 36/36/36 
f 21/21/21 37/37/37 36/36/36 
f 38/38/38 36/36/36 37/37/37 
f 39/39/39 36/36/36 40/40/40 
f 40/40/40 36/36/36 38/38/38 
f 41/41/41 35/35/35 39/39/39 
f 39/39/39 35/35/35 36/36/36 
f 18/18/18 28/28/28 31/31/31 
f 31/31/31 28/28/28 42/42/42 
f 35/35/35 42/42/42 26/26/26 
f 26/26/26 42/42/42 28/28/28 
f 43/43/43 42/42/42 41/41/41 
f 41/41/41 42/42/42 35/35/35 
f 31/31/31 42/42/42 32/32/32 
f 32/32/32 42/42/42 43/43/43 
f 29/29/29 44/44/44 20/20/20 
f 20/20/20 44/44/44 45/45/45 
f 34/34/34 46/46/46 29/29/29 
f 29/29/29 46/46/46 44/44/44 
f 15/15/15 47/47/47 6/6/6 
f 6/6/6 47/47/47 48/48/48 
f 20/20/20 45/45/45 15/15/15 
f 15/15/15 45/45/45 47/47/47 
f 6/6/6 48/48/48 5/5/5 
f 5/5/5 48/48/48 49/49/49 
f 50/50/50 51/51/51 52/52/52 
f 53/53/53 52/52/52 54/54/54 
f 54/54/54 52/52/52 55/55/55 
f 52/52/52 51/51/51 55/55/55 
f 56/56/56 57/57/57 58/58/58 
f 58/58/58 57/57/57 59/59/59 
f 60/60/60 61/61/61 56/56/56 
f 56/56/56 61/61/61 57/57/57 
f 62/62/62 63/63/63 60/60/60 
f 60/60/60 63/63/63 61/61/61 
f 64/64/64 65/65/65 62/62/62 
f 62/62/62 65/65/65 63/63/63 
f 56/56/56 66/66/66 60/60/60 
f 60/60/60 66/66/66 67/67/67 
f 58/58/58 68/68/68 56/56/56 
f 56/56/56 68/68/68 66/66/66 
f 33/33/33 66/66/66 34/34/34 
f 34/34/34 66/66/66 68/68/68 
f 32/32/32 67/67/67 33/33/33 
f 33/33/33 67/67/67 66/66/66 
f 62/62/62 69/69/69 64/64/64 
f 64/64/64 69/69/69 70/70/70 
f 60/60/60 67/67/67 62/62/62 
f 62/62/62 67/67/67 69/69/69 
f 43/43/43 69/69/69 32/32/32 
f 32/32/32 69/69/69 67/67/67 
f 41/41/41 70/70/70 43/43/43 
f 43/43/43 70/70/70 69/69/69 
f 65/65/65 64/64/64 71/71/71 
f 71/71/71 64/64/64 72/72/72 
f 73/73/73 39/39/39 52/52/52 
f 40/40/40 50/50/50 39/39/39 
f 50/50/50 52/52/52 39/39/39 
f 71/71/71 72/72/72 53/53/53 
f 39/39/39 73/73/73 41/41/41 
f 41/41/41 73/73/73 70/70/70 
f 74/74/74 68/68/68 75/75/75 
f 75/75/75 68/68/68 58/58/58 
f 75/75/75 58/58/58 76/76/76 
f 58/58/58 59/59/59 76/76/76 
f 76/76/76 59/59/59 77/77/77 
f 59/59/59 78/78/78 77/77/77 
f 46/46/46 34/34/34 74/74/74 
f 74/74/74 34/34/34 68/68/68 
f 64/64/64 70/70/70 72/72/72 
f 72/72/72 70/70/70 73/73/73 
f 72/72/72 73/73/73 53/53/53 
f 53/53/53 73/73/73 52/52/52 
f 79/79/79 10/10/10 80/80/80 
f 80/80/80 10/10/10 11/11/11 
f 80/80/80 11/11/11 81/81/81 
f 81/81/81 11/11/11 14/14/14 
f 82/82/82 81/81/81 3/3/3 
f 3/3/3 81/81/81 14/14/14 
f 83/83/83 82/82/82 4/4/4 
f 4/4/4 82/82/82 3/3/3 
f 84/84/84 83/83/83 5/5/5 
f 5/5/5 83/83/83 4/4/4 
f 85/85/85 84/84/84 49/49/49 
f 49/49/49 84/84/84 5/5/5 
f 86/86/86 9/9/9 79/79/79 
f 79/79/79 9/9/9 10/10/10 
f 77/77/77 78/78/78 87/87/87 
f 88/88/88 77/77/77 87/87/87 
f 89/89/89 76/76/76 88/88/88 
f 88/88/88 76/76/76 77/77/77 
f 75/75/75 76/76/76 89/89/89 
# 138 faces

