# 3ds Max Wavefront OBJ Exporter v0.97b - (c)2007 guruware
# File Created: 30.11.2015 13:02:30

mtllib P158_38SG_L.mtl

#
# object P158_38SG_L_1_DTaSI_P158_38SG_L
#

v  -148.9590 60.0638 -88.9066
v  -149.8017 55.2580 -90.6655
v  -157.9550 60.5715 -88.3180
v  -159.8377 55.7986 -89.9985
v  -143.5198 59.7956 -89.2533
v  -144.7608 57.3646 -90.1071
v  -148.2101 55.1789 -90.7678
v  -146.4711 55.6542 -90.6697
v  -145.3105 56.5094 -90.4022
v  -140.7682 65.1858 -87.2699
v  -148.2059 65.4442 -86.8479
v  -137.5132 76.6562 -82.4520
v  -134.0708 78.7444 -81.6078
v  -134.9733 76.8228 -82.4832
v  -137.8580 70.8860 -85.0245
v  -147.5584 70.0699 -84.9856
v  -153.5706 65.6357 -86.5458
v  -160.5808 60.7408 -88.1337
v  -163.2204 58.7037 -88.7564
v  -164.3671 57.7209 -89.0611
v  -164.6947 57.1066 -89.2706
v  -164.6537 56.5742 -89.4679
v  -164.3258 56.0474 -89.6786
# 23 vertices

vn -0.0411 0.3567 -0.9333
vn -0.0423 0.3490 -0.9362
vn -0.0423 0.3536 -0.9345
vn -0.0440 0.3469 -0.9369
vn -0.0410 0.3604 -0.9319
vn -0.0424 0.3502 -0.9357
vn -0.0428 0.3500 -0.9358
vn -0.0427 0.3501 -0.9358
vn -0.0379 0.3750 -0.9263
vn -0.0396 0.3698 -0.9283
vn -0.0381 0.4095 -0.9115
vn -0.0392 0.4294 -0.9023
vn -0.0385 0.4166 -0.9083
vn -0.0373 0.3994 -0.9160
vn -0.0378 0.3867 -0.9214
vn -0.0401 0.3641 -0.9305
vn -0.0441 0.3505 -0.9355
vn -0.0467 0.3462 -0.9370
vn -0.0474 0.3454 -0.9373
vn -0.0477 0.3446 -0.9375
vn -0.0478 0.3443 -0.9376
vn -0.0477 0.3451 -0.9374
# 22 vertex normals

vt 0.1674 0.9543 0.0000
vt 0.1651 0.9720 0.0000
vt 0.1364 0.9532 0.0000
vt 0.1306 0.9708 0.0000
vt 0.1861 0.9549 0.0000
vt 0.1821 0.9638 0.0000
vt 0.1706 0.9721 0.0000
vt 0.1765 0.9702 0.0000
vt 0.1804 0.9670 0.0000
vt 0.1947 0.9348 0.0000
vt 0.1692 0.9345 0.0000
vt 0.2041 0.8917 0.0000
vt 0.2156 0.8835 0.0000
vt 0.2128 0.8909 0.0000
vt 0.2038 0.9134 0.0000
vt 0.1707 0.9173 0.0000
vt 0.1507 0.9342 0.0000
vt 0.1274 0.9528 0.0000
vt 0.1186 0.9604 0.0000
vt 0.1148 0.9641 0.0000
vt 0.1138 0.9663 0.0000
vt 0.1140 0.9683 0.0000
vt 0.1152 0.9702 0.0000
# 23 texture coords

g P158_38SG_L_1_DTaSI_P158_38SG_L
usemtl windowglass_1SG
s 1
f 1/1/1 2/2/2 3/3/3 
f 3/3/3 2/2/2 4/4/4 
f 5/5/5 6/6/6 1/1/1 
f 2/2/2 1/1/1 7/7/7 
f 7/7/7 1/1/1 8/8/8 
f 8/8/8 1/1/1 9/9/6 
f 6/6/6 9/9/6 1/1/1 
f 10/10/9 5/5/5 11/11/10 
f 11/11/10 5/5/5 1/1/1 
f 12/12/11 13/13/12 14/14/13 
f 15/15/14 16/16/15 12/12/11 
f 17/17/16 16/16/15 11/11/10 
f 17/17/16 3/3/3 18/18/17 
f 3/3/3 4/4/4 18/18/17 
f 18/18/17 4/4/4 19/19/18 
f 19/19/18 4/4/4 20/20/19 
f 20/20/19 4/4/4 21/21/20 
f 21/21/20 4/4/4 22/22/21 
f 23/23/22 22/22/21 4/4/4 
f 11/11/10 16/16/15 10/10/9 
f 10/10/9 16/16/15 15/15/14 
f 15/15/14 12/12/11 14/14/13 
f 3/3/3 17/17/16 1/1/1 
f 1/1/1 17/17/16 11/11/10 
# 24 faces

#
# object P158_38SG_L_P158_38SG_L_2_DTaSI
#

v  -119.7088 90.7848 -75.9877
v  -119.2657 91.5989 -75.5298
v  -119.7000 90.6450 -75.7477
v  -119.2343 91.4947 -75.2699
v  -122.4793 85.7612 -78.6665
v  -120.6667 89.0247 -76.9780
v  -122.4696 85.6322 -78.4205
v  -120.6580 88.8891 -76.7356
v  -123.4795 83.8178 -79.6199
v  -123.4694 83.6946 -79.3709
v  -126.8970 77.1359 -82.6780
v  -126.8869 77.0192 -82.4259
v  -130.0861 70.8339 -85.3752
v  -130.0753 70.7234 -85.1205
v  -133.1547 64.8805 -87.7309
v  -133.1432 64.7762 -87.4736
v  -135.9344 59.4333 -89.7386
v  -135.9224 59.3339 -89.4794
v  -138.3464 54.6943 -91.4022
v  -138.3342 54.5981 -91.1418
v  -140.8192 50.0003 -92.9970
v  -140.8070 49.9054 -92.7360
v  -172.1285 51.4904 -90.8406
v  -160.6543 50.9712 -91.6838
v  -172.1202 51.4437 -90.7069
v  -160.6470 50.9239 -91.5503
v  -149.9633 50.4503 -92.4064
v  -149.9568 50.4022 -92.2731
v  -122.4678 90.6415 -75.9669
v  -122.4620 90.5683 -75.8456
v  -174.3867 52.0816 -90.4904
v  -174.3755 52.0364 -90.3565
v  -174.7251 52.7979 -90.2175
v  -174.7154 52.7525 -90.0835
v  -174.7926 53.6895 -89.9075
v  -174.7845 53.6436 -89.7735
v  -174.3704 54.6834 -89.5916
v  -174.3626 54.6376 -89.4575
v  -172.6399 56.4752 -89.0783
v  -172.6324 56.4279 -88.9448
v  -166.6176 61.1301 -87.7098
v  -166.6107 61.0801 -87.5773
v  -159.9758 66.1547 -86.0585
v  -159.9696 66.1015 -85.9272
v  -154.0697 70.5392 -84.5046
v  -154.0636 70.4827 -84.3746
v  -148.0936 75.0106 -82.7580
v  -148.0879 74.9511 -82.6294
v  -137.3835 82.1528 -79.8269
v  -137.3774 82.0898 -79.7001
v  -131.1723 86.0614 -78.1397
v  -131.1655 85.9938 -78.0152
v  -127.6659 88.1660 -77.1375
v  -127.6590 88.0954 -77.0147
v  -123.5961 90.2359 -76.1578
v  -123.5894 90.1622 -76.0368
v  -124.5127 89.8720 -76.3231
v  -124.5058 89.7996 -76.2014
v  -174.0167 51.7829 -90.6172
v  -174.0069 51.7366 -90.4835
v  -173.4194 51.6366 -90.7050
v  -173.4109 51.5899 -90.5713
v  -139.2683 59.5872 -89.5244
v  -139.8701 54.7648 -91.3039
v  -148.2101 55.1789 -90.7678
v  -146.4711 55.6542 -90.6697
v  -145.3105 56.5094 -90.4022
v  -144.7608 57.3646 -90.1071
v  -143.5198 59.7956 -89.2533
v  -138.5794 65.1066 -87.3966
v  -137.8580 70.8860 -85.0245
v  -153.5706 65.6357 -86.5458
v  -151.5956 69.2653 -85.1599
v  -129.8615 77.1580 -82.5459
v  -134.9733 76.8228 -82.4832
v  -129.7765 82.6990 -79.9264
v  -123.1070 89.2807 -76.7433
v  -125.5795 87.1332 -77.8323
v  -129.6021 85.7287 -78.4101
v  -169.9449 56.3587 -89.2780
v  -164.3258 56.0474 -89.6786
v  -149.8017 55.2580 -90.6655
v  -159.8377 55.7986 -89.9985
v  -160.5808 60.7408 -88.1337
v  -147.5584 70.0699 -84.9856
v  -140.7682 65.1858 -87.2699
v  -137.5132 76.6562 -82.4520
v  -134.0708 78.7444 -81.6078
v  -163.2204 58.7037 -88.7564
v  -164.6537 56.5742 -89.4679
v  -164.6947 57.1066 -89.2706
v  -164.3671 57.7209 -89.0611
# 92 vertices

vn 0.9027 -0.3569 -0.2404
vn 0.9016 -0.3536 -0.2490
vn 0.9026 -0.3565 -0.2413
vn 0.9014 -0.3532 -0.2505
vn 0.9001 -0.3704 -0.2292
vn 0.8984 -0.3688 -0.2383
vn 0.9001 -0.3702 -0.2297
vn 0.8984 -0.3687 -0.2387
vn 0.9060 -0.3637 -0.2164
vn 0.9060 -0.3636 -0.2167
vn 0.9059 -0.3693 -0.2072
vn 0.9059 -0.3692 -0.2074
vn 0.9034 -0.3781 -0.2021
vn 0.9034 -0.3781 -0.2023
vn 0.9008 -0.3870 -0.1968
vn 0.9008 -0.3869 -0.1969
vn 0.9006 -0.3902 -0.1913
vn 0.9006 -0.3902 -0.1914
vn 0.8971 -0.3991 -0.1896
vn 0.8971 -0.3991 -0.1897
vn 0.8938 -0.4065 -0.1895
vn 0.8938 -0.4064 -0.1896
vn -0.0740 -0.9430 -0.3243
vn -0.0675 -0.9417 -0.3297
vn -0.0740 -0.9430 -0.3244
vn -0.0682 -0.9396 -0.3353
vn -0.0681 -0.9387 -0.3381
vn -0.0682 -0.9396 -0.3354
vn -0.3252 0.8028 0.4998
vn -0.3250 0.8077 0.4919
vn -0.3173 0.8656 0.3873
vn -0.3174 0.8663 0.3857
vn -0.8352 -0.5385 -0.1116
vn -0.8350 -0.5385 -0.1133
vn -0.9702 -0.2421 -0.0117
vn -0.9705 -0.2409 -0.0125
vn -0.9829 0.1475 0.1099
vn -0.9829 0.1478 0.1095
vn -0.8016 0.5498 0.2347
vn -0.6526 0.7021 0.2849
vn -0.6527 0.7021 0.2847
vn -0.6231 0.7205 0.3043
vn -0.6231 0.7206 0.3041
vn -0.6192 0.7170 0.3202
vn -0.6192 0.7171 0.3200
vn -0.6209 0.7078 0.3369
vn -0.6209 0.7079 0.3367
vn -0.5988 0.7162 0.3585
vn -0.5988 0.7163 0.3583
vn -0.5758 0.7208 0.3860
vn -0.5758 0.7209 0.3858
vn -0.5586 0.7158 0.4191
vn -0.5586 0.7160 0.4188
vn -0.5330 0.7203 0.4439
vn -0.5330 0.7205 0.4436
vn -0.3806 0.7804 0.4962
vn -0.3805 0.7804 0.4961
vn -0.4873 0.7379 0.4669
vn -0.4874 0.7381 0.4665
vn -0.4527 -0.8528 -0.2604
vn -0.4509 -0.8532 -0.2622
vn -0.1818 -0.9319 -0.3139
vn -0.1819 -0.9318 -0.3141
vn -0.0429 0.3603 -0.9319
vn -0.0443 0.3482 -0.9364
vn -0.0426 0.3576 -0.9329
vn -0.0433 0.3457 -0.9374
vn -0.0436 0.3420 -0.9387
vn -0.0436 0.3419 -0.9387
vn -0.0427 0.3500 -0.9358
vn -0.0426 0.3505 -0.9356
vn -0.0425 0.3503 -0.9357
vn -0.0419 0.3580 -0.9328
vn -0.0411 0.3745 -0.9263
vn -0.0405 0.3782 -0.9248
vn -0.0386 0.3989 -0.9162
vn -0.0391 0.3953 -0.9177
vn -0.0412 0.3660 -0.9297
vn -0.0405 0.3906 -0.9197
vn -0.0405 0.3740 -0.9266
vn -0.0399 0.3808 -0.9238
vn -0.0351 0.4231 -0.9054
vn -0.0382 0.4172 -0.9080
vn -0.0384 0.4114 -0.9106
vn -0.0336 0.4406 -0.8971
vn -0.0383 0.4381 -0.8981
vn -0.0335 0.4875 -0.8725
vn -0.0330 0.4666 -0.8839
vn -0.0344 0.4851 -0.8738
vn -0.0353 0.4720 -0.8809
vn -0.0410 0.4606 -0.8866
vn -0.0510 0.3336 -0.9413
vn -0.0525 0.3326 -0.9416
vn -0.0538 0.3295 -0.9426
vn -0.0562 0.3325 -0.9414
vn -0.0453 0.3502 -0.9356
vn -0.0439 0.3414 -0.9389
vn -0.0445 0.3406 -0.9392
vn -0.0469 0.3374 -0.9402
vn -0.0498 0.3351 -0.9409
vn -0.0421 0.3597 -0.9321
vn -0.0373 0.4052 -0.9135
vn -0.0406 0.3702 -0.9281
vn -0.0418 0.4341 -0.8999
vn -0.0459 0.4571 -0.8882
vn -0.0380 0.4120 -0.9104
vn -0.0403 0.4274 -0.9032
vn -0.0326 0.5035 -0.8634
vn -0.0320 0.5050 -0.8625
vn -0.0472 0.4968 -0.8666
vn -0.0408 0.5069 -0.8610
vn -0.0455 0.4925 -0.8691
vn -0.0411 0.4296 -0.9021
vn -0.0595 0.3271 -0.9431
vn -0.0622 0.3255 -0.9435
vn -0.0613 0.3255 -0.9435
vn -0.0641 0.3241 -0.9439
vn -0.0560 0.3322 -0.9416
vn -0.0583 0.3279 -0.9429
vn -0.0439 0.3432 -0.9382
vn -0.0476 0.3423 -0.9384
vn -0.0418 0.3439 -0.9381
vn -0.0440 0.3429 -0.9384
# 123 vertex normals

vt 0.2626 0.8361 0.0000
vt 0.2640 0.8328 0.0000
vt 0.2626 0.8362 0.0000
vt 0.2541 0.8558 0.0000
vt 0.2597 0.8431 0.0000
vt 0.2541 0.8559 0.0000
vt 0.2597 0.8432 0.0000
vt 0.2510 0.8634 0.0000
vt 0.2510 0.8635 0.0000
vt 0.2404 0.8890 0.0000
vt 0.2404 0.8891 0.0000
vt 0.2305 0.9130 0.0000
vt 0.2209 0.9353 0.0000
vt 0.2208 0.9353 0.0000
vt 0.2121 0.9556 0.0000
vt 0.2045 0.9731 0.0000
vt 0.1967 0.9904 0.0000
vt 0.1966 0.9904 0.0000
vt 0.0890 0.9872 0.0000
vt 0.1285 0.9884 0.0000
vt 0.1285 0.9883 0.0000
vt 0.1652 0.9895 0.0000
vt 0.2532 0.8369 0.0000
vt 0.0812 0.9852 0.0000
vt 0.0799 0.9826 0.0000
vt 0.0796 0.9794 0.0000
vt 0.0795 0.9794 0.0000
vt 0.0809 0.9758 0.0000
vt 0.0809 0.9757 0.0000
vt 0.0866 0.9692 0.0000
vt 0.1066 0.9518 0.0000
vt 0.1287 0.9328 0.0000
vt 0.1483 0.9161 0.0000
vt 0.1681 0.8988 0.0000
vt 0.2036 0.8709 0.0000
vt 0.2242 0.8554 0.0000
vt 0.2242 0.8555 0.0000
vt 0.2358 0.8470 0.0000
vt 0.2494 0.8386 0.0000
vt 0.2463 0.8400 0.0000
vt 0.2463 0.8401 0.0000
vt 0.0825 0.9863 0.0000
vt 0.0825 0.9862 0.0000
vt 0.0845 0.9868 0.0000
vt 0.0845 0.9867 0.0000
vt 0.2007 0.9553 0.0000
vt 0.1993 0.9730 0.0000
vt 0.1706 0.9721 0.0000
vt 0.1765 0.9702 0.0000
vt 0.1804 0.9670 0.0000
vt 0.1821 0.9638 0.0000
vt 0.1861 0.9549 0.0000
vt 0.2022 0.9349 0.0000
vt 0.2038 0.9134 0.0000
vt 0.1507 0.9342 0.0000
vt 0.1570 0.9206 0.0000
vt 0.2303 0.8892 0.0000
vt 0.2128 0.8909 0.0000
vt 0.2296 0.8682 0.0000
vt 0.2513 0.8423 0.0000
vt 0.2432 0.8508 0.0000
vt 0.2297 0.8566 0.0000
vt 0.0959 0.9694 0.0000
vt 0.1152 0.9702 0.0000
vt 0.1651 0.9720 0.0000
vt 0.1306 0.9708 0.0000
vt 0.1274 0.9528 0.0000
vt 0.1707 0.9173 0.0000
vt 0.1947 0.9348 0.0000
vt 0.2041 0.8917 0.0000
vt 0.2156 0.8835 0.0000
vt 0.1186 0.9604 0.0000
vt 0.1140 0.9683 0.0000
vt 0.1138 0.9663 0.0000
vt 0.1148 0.9641 0.0000
# 75 texture coords

g P158_38SG_L_P158_38SG_L_2_DTaSI
usemtl windowglass_blackSG
s 1
f 24/24/23 25/25/24 26/26/25 
f 26/26/25 25/25/24 27/25/26 
f 28/27/27 29/28/28 30/29/29 
f 30/29/29 29/28/28 31/30/30 
f 32/31/31 28/27/27 33/32/32 
f 33/32/32 28/27/27 30/29/29 
f 34/33/33 32/31/31 35/34/34 
f 35/34/34 32/31/31 33/32/32 
f 36/35/35 34/33/33 37/35/36 
f 37/35/36 34/33/33 35/34/34 
f 38/36/37 36/35/35 39/37/38 
f 39/37/38 36/35/35 37/35/36 
f 40/38/39 38/36/37 41/38/40 
f 41/38/40 38/36/37 39/37/38 
f 42/39/41 40/38/39 43/39/42 
f 43/39/42 40/38/39 41/38/40 
f 44/40/43 42/39/41 45/41/44 
f 45/41/44 42/39/41 43/39/42 
f 29/28/28 24/24/23 31/30/30 
f 31/30/30 24/24/23 26/26/25 
s 3
f 46/42/45 47/43/46 48/42/47 
f 48/42/47 47/43/46 49/44/46 
f 50/45/48 44/40/49 51/45/50 
f 51/45/50 44/40/49 45/41/49 
f 47/43/46 50/45/48 49/44/46 
f 49/44/46 50/45/48 51/45/50 
f 52/46/51 53/46/52 25/25/53 
f 25/25/53 53/46/52 27/25/54 
f 54/47/55 55/47/56 56/48/57 
f 56/48/57 55/47/56 57/48/58 
f 56/48/57 57/48/58 58/49/59 
f 58/49/59 57/48/58 59/50/60 
f 60/51/61 58/49/59 61/52/61 
f 61/52/61 58/49/59 59/50/60 
f 62/53/62 60/51/61 63/53/63 
f 63/53/63 60/51/61 61/52/61 
f 64/54/64 62/53/62 65/54/65 
f 65/54/65 62/53/62 63/53/63 
f 66/55/66 64/54/64 67/55/67 
f 67/55/67 64/54/64 65/54/65 
f 68/56/68 66/55/66 69/56/69 
f 69/56/69 66/55/66 67/55/67 
f 70/57/70 68/56/68 71/57/71 
f 71/57/71 68/56/68 69/56/69 
f 72/58/72 70/57/70 73/58/73 
f 73/58/73 70/57/70 71/57/71 
f 74/59/74 72/58/72 75/60/75 
f 75/60/75 72/58/72 73/58/73 
f 76/61/76 74/59/74 77/61/77 
f 77/61/77 74/59/74 75/60/75 
f 52/46/51 78/62/78 53/46/52 
f 53/46/52 78/62/78 79/62/79 
f 78/62/78 80/63/80 79/62/79 
f 79/62/79 80/63/80 81/64/81 
f 80/63/80 76/61/76 81/64/81 
f 81/64/81 76/61/76 77/61/77 
f 54/47/55 82/65/82 55/47/56 
f 55/47/56 82/65/82 83/66/83 
f 82/65/82 84/67/84 83/66/83 
f 83/66/83 84/67/84 85/68/85 
f 46/42/45 48/42/47 84/67/84 
f 84/67/84 48/42/47 85/68/85 
s 7
f 40/38/86 42/39/87 86/69/88 
f 86/69/88 42/39/87 87/70/89 
f 44/40/90 87/70/89 42/39/87 
f 88/71/91 89/72/92 87/70/89 
f 89/72/92 90/73/93 87/70/89 
f 87/70/89 90/73/93 86/69/88 
f 90/73/93 91/74/94 86/69/88 
f 91/74/94 92/75/95 86/69/88 
f 86/69/88 93/76/96 40/38/86 
f 40/38/86 93/76/96 38/36/97 
f 36/35/98 38/36/97 94/77/99 
f 94/77/99 38/36/97 93/76/96 
f 66/55/100 68/56/101 95/78/102 
f 95/78/102 68/56/101 96/79/103 
f 34/33/104 36/35/98 97/80/105 
f 94/77/99 98/81/106 36/35/98 
f 36/35/98 98/81/106 97/80/105 
f 32/31/107 34/33/104 99/82/108 
f 99/82/108 34/33/104 97/80/105 
f 29/28/109 28/27/110 100/83/111 
f 100/83/111 28/27/110 101/84/112 
f 99/82/108 102/85/113 32/31/107 
f 102/85/113 101/84/112 32/31/107 
f 28/27/110 32/31/107 101/84/112 
f 103/86/114 104/87/115 46/42/116 
f 103/86/114 62/53/117 64/54/118 
f 105/88/119 50/45/120 106/89/121 
f 106/89/121 50/45/120 47/43/122 
f 95/78/102 107/90/123 66/55/100 
f 66/55/100 107/90/123 64/54/118 
f 96/79/103 108/91/124 95/78/102 
f 93/76/96 109/92/125 94/77/99 
f 87/70/89 44/40/90 88/71/91 
f 105/88/119 88/71/91 50/45/120 
f 88/71/91 44/40/90 50/45/120 
f 72/58/126 74/59/127 99/82/108 
f 99/82/108 74/59/127 102/85/113 
f 70/57/128 72/58/126 110/93/129 
f 25/25/130 24/24/130 52/46/131 
f 24/24/130 29/28/109 52/46/131 
f 100/83/111 52/46/131 29/28/109 
f 80/63/132 78/62/133 100/83/111 
f 100/83/111 78/62/133 52/46/131 
f 76/61/134 80/63/132 101/84/112 
f 101/84/112 80/63/132 100/83/111 
f 74/59/127 76/61/134 102/85/113 
f 102/85/113 76/61/134 101/84/112 
f 98/81/106 111/94/135 97/80/105 
f 97/80/105 111/94/135 99/82/108 
f 103/86/114 46/42/116 62/53/117 
f 62/53/117 46/42/116 60/51/136 
f 46/42/116 84/67/137 60/51/136 
f 60/51/136 84/67/137 58/49/138 
f 58/49/138 84/67/137 56/48/139 
f 56/48/139 84/67/137 54/47/140 
f 84/67/137 82/65/141 54/47/140 
f 107/90/123 112/95/142 64/54/118 
f 104/87/115 103/86/114 113/96/143 
f 103/86/114 64/54/118 113/96/143 
f 113/96/143 64/54/118 114/97/144 
f 114/97/144 64/54/118 115/98/145 
f 64/54/118 112/95/142 115/98/145 
f 70/57/128 110/93/129 108/91/124 
f 99/82/108 111/94/135 72/58/126 
f 72/58/126 111/94/135 110/93/129 
f 46/42/116 104/87/115 47/43/122 
f 47/43/122 104/87/115 106/89/121 
f 96/79/103 68/56/101 108/91/124 
f 108/91/124 68/56/101 70/57/128 
f 93/76/96 86/69/88 109/92/125 
f 109/92/125 86/69/88 92/75/95 
# 133 faces

