# 3ds Max Wavefront OBJ Exporter v0.97b - (c)2007 guruware
# File Created: 11.01.2016 12:31:18

mtllib Z176_305B_L.mtl

#
# object Z176_305B_L_DTaSI_Z176_305B_L
#

v  -44.5416 81.6406 -68.7448
v  -56.0459 82.0098 -68.5854
v  -45.0085 85.3828 -66.1835
v  -55.9657 85.3652 -66.3184
v  -67.4371 82.1838 -68.4933
v  -67.3583 85.3787 -66.3420
v  -77.7605 82.2058 -68.4408
v  -77.6642 85.0931 -66.4859
v  -86.8969 82.1016 -68.3974
v  -86.8109 84.0198 -67.1330
v  -94.9734 82.4534 -67.9651
v  -103.0177 73.4577 -72.9177
v  -95.3678 73.3616 -73.1828
v  -103.0878 68.7300 -75.5741
v  -95.4444 68.4635 -75.9026
v  -87.2804 68.1065 -76.2011
v  -87.2112 73.1296 -73.4384
v  -87.2963 63.4062 -78.7765
v  -95.4552 63.8011 -78.4813
v  -103.1007 64.1272 -78.1524
v  -67.5587 62.3320 -79.3201
v  -78.0178 62.9146 -79.0487
v  -67.5448 67.0860 -76.7588
v  -78.0011 67.6452 -76.4768
v  -77.9546 72.7822 -73.6753
v  -67.5216 72.3279 -73.9250
v  -56.0874 71.7731 -74.2145
v  -56.0997 66.4427 -77.0688
v  -44.3196 65.7367 -77.3771
v  -44.3157 71.1241 -74.5120
v  -44.3283 60.9662 -79.8964
v  -56.1103 61.6742 -79.6077
v  -87.7599 41.5521 -90.1912
v  -87.8290 40.3976 -90.8212
v  -95.9720 41.9229 -90.0199
v  -96.0539 40.7676 -90.6585
v  -78.3295 41.0809 -90.3601
v  -78.3719 39.9260 -90.9824
v  -67.7229 39.3924 -91.1228
v  -67.7068 40.5475 -90.5109
v  -44.2542 38.3185 -91.3214
v  -56.1558 38.8513 -91.2266
v  -44.2693 39.4696 -90.7396
v  -56.1548 40.0044 -90.6307
v  -67.5836 54.1663 -83.6556
v  -56.1287 53.5441 -83.8999
v  -67.6004 50.4010 -85.5876
v  -56.1377 49.8106 -85.8077
v  -44.3428 49.1933 -86.0235
v  -44.3411 52.8852 -84.1443
v  -44.3313 45.5621 -87.8176
v  -56.1458 46.1392 -87.6372
v  -67.6282 46.7019 -87.4483
v  -78.1290 47.2353 -87.2560
v  -78.0702 50.9457 -85.3740
v  -87.3481 51.4179 -85.1591
v  -87.4358 47.7035 -87.0589
v  -87.3175 55.2086 -83.1880
v  -78.0448 54.7277 -83.4224
v  -103.1036 55.9398 -82.6590
v  -95.4635 55.6008 -82.9365
v  -103.6154 52.1549 -84.6654
v  -95.4918 51.8023 -84.9313
v  -95.5901 48.0816 -86.8531
v  -95.1899 78.1225 -70.5236
v  -102.8640 77.9063 -70.4052
v  -102.7917 79.5063 -69.4616
v  -87.0598 78.1290 -70.6739
v  -67.4839 77.7659 -70.9680
v  -77.8624 78.0061 -70.8147
v  -56.0718 77.3996 -71.1640
v  -44.0938 76.8689 -71.4057
v  -67.5707 58.0810 -81.5951
v  -56.1196 57.4346 -81.8598
v  -44.3358 56.7445 -82.1269
v  -78.0298 58.6582 -81.3425
v  -87.3042 59.1492 -81.0874
v  -103.1008 59.8898 -80.5051
v  -95.4562 59.5488 -80.8118
v  -67.6696 43.1707 -89.2070
v  -56.1515 42.6225 -89.3583
v  -44.3010 42.0727 -89.4991
v  -78.2323 43.7020 -89.0378
v  -87.6013 44.1709 -88.8570
v  -95.7842 44.5445 -88.6710
v  -39.4031 39.2529 -90.7880
v  -39.2593 38.1002 -91.3660
v  -39.7280 41.8586 -89.5529
v  -40.1636 45.3527 -87.8772
v  -40.6173 48.9911 -86.0876
v  -41.0793 52.6955 -84.2094
v  -41.5630 56.5751 -82.1883
v  -42.0930 60.8249 -79.9489
v  -42.6925 65.6320 -77.4160
v  -43.3699 71.0643 -74.5344
v  -106.4352 77.8697 -70.2758
v  -105.9490 73.4398 -72.8197
v  -105.4388 68.7890 -75.4665
v  -104.9347 64.1938 -78.0674
v  -104.4686 59.9436 -80.4465
v  -104.0338 55.9761 -82.6234
v  -103.2053 48.4089 -86.6307
v  -102.8151 44.8430 -88.4874
v  -102.5258 42.1985 -89.8637
v  -102.3981 41.0340 -90.5157
# 105 vertices

vn 0.0048 0.5141 -0.8577
vn 0.0036 0.5302 -0.8478
vn 0.0080 0.5625 -0.8267
vn 0.0058 0.5597 -0.8286
vn -0.0016 0.5250 -0.8511
vn 0.0001 0.5590 -0.8292
vn -0.0067 0.5317 -0.8469
vn -0.0047 0.5600 -0.8285
vn -0.0144 0.5181 -0.8552
vn -0.0127 0.5541 -0.8323
vn -0.0233 0.5153 -0.8567
vn -0.0280 0.4913 -0.8706
vn -0.0205 0.4883 -0.8724
vn -0.0238 0.4888 -0.8721
vn -0.0156 0.4850 -0.8744
vn -0.0065 0.4813 -0.8765
vn -0.0100 0.4837 -0.8752
vn -0.0044 0.4789 -0.8779
vn -0.0126 0.4825 -0.8758
vn -0.0197 0.4864 -0.8735
vn 0.0041 0.4728 -0.8812
vn 0.0015 0.4759 -0.8795
vn 0.0022 0.4749 -0.8800
vn -0.0003 0.4782 -0.8783
vn -0.0022 0.4797 -0.8775
vn 0.0005 0.4770 -0.8789
vn 0.0026 0.4747 -0.8801
vn 0.0040 0.4713 -0.8820
vn 0.0072 0.4687 -0.8833
vn 0.0061 0.4724 -0.8814
vn 0.0078 0.4674 -0.8840
vn 0.0056 0.4695 -0.8829
vn 0.0043 0.4622 -0.8868
vn 0.0061 0.4788 -0.8779
vn 0.0014 0.4750 -0.8800
vn 0.0025 0.4837 -0.8753
vn 0.0088 0.4621 -0.8868
vn 0.0106 0.4721 -0.8815
vn 0.0127 0.4650 -0.8852
vn 0.0110 0.4562 -0.8898
vn 0.0120 0.4506 -0.8927
vn 0.0130 0.4565 -0.8896
vn 0.0113 0.4419 -0.8970
vn 0.0118 0.4485 -0.8937
vn 0.0056 0.4612 -0.8873
vn 0.0067 0.4598 -0.8880
vn 0.0059 0.4532 -0.8914
vn 0.0068 0.4508 -0.8926
vn 0.0081 0.4487 -0.8936
vn 0.0081 0.4586 -0.8886
vn 0.0087 0.4394 -0.8983
vn 0.0077 0.4433 -0.8963
vn 0.0069 0.4477 -0.8942
vn 0.0052 0.4513 -0.8924
vn 0.0041 0.4556 -0.8902
vn -0.0001 0.4585 -0.8887
vn 0.0014 0.4545 -0.8907
vn -0.0014 0.4660 -0.8848
vn 0.0034 0.4633 -0.8862
vn -0.0133 0.4742 -0.8803
vn -0.0078 0.4696 -0.8828
vn -0.0111 0.4671 -0.8842
vn -0.0058 0.4622 -0.8868
vn -0.0037 0.4582 -0.8888
vn -0.0202 0.4959 -0.8682
vn -0.0301 0.4993 -0.8659
vn -0.0317 0.5088 -0.8603
vn -0.0142 0.4946 -0.8690
vn -0.0004 0.4836 -0.8753
vn -0.0049 0.4879 -0.8729
vn 0.0021 0.4824 -0.8759
vn 0.0051 0.4787 -0.8780
vn 0.0052 0.4687 -0.8834
vn 0.0065 0.4666 -0.8844
vn 0.0081 0.4654 -0.8851
vn 0.0027 0.4711 -0.8821
vn -0.0027 0.4739 -0.8806
vn -0.0161 0.4813 -0.8764
vn -0.0100 0.4775 -0.8786
vn 0.0086 0.4452 -0.8954
vn 0.0094 0.4387 -0.8986
vn 0.0097 0.4332 -0.9012
vn 0.0067 0.4500 -0.8930
vn 0.0031 0.4530 -0.8915
vn -0.0011 0.4569 -0.8895
vn 0.0110 0.4433 -0.8963
vn 0.0117 0.4493 -0.8933
vn 0.0098 0.4310 -0.9023
vn 0.0093 0.4366 -0.8996
vn 0.0091 0.4461 -0.8949
vn 0.0090 0.4565 -0.8897
vn 0.0089 0.4644 -0.8856
vn 0.0088 0.4671 -0.8842
vn 0.0089 0.4678 -0.8838
vn 0.0090 0.4715 -0.8818
vn -0.0365 0.5018 -0.8642
vn -0.0336 0.4929 -0.8694
vn -0.0291 0.4906 -0.8709
vn -0.0244 0.4884 -0.8723
vn -0.0200 0.4837 -0.8750
vn -0.0163 0.4760 -0.8793
vn -0.0070 0.4614 -0.8872
vn -0.0045 0.4600 -0.8879
vn -0.0019 0.4692 -0.8831
vn 0.0002 0.4861 -0.8739
# 105 vertex normals

vt 0.4465 0.7839 0.0000
vt 0.3974 0.7840 0.0000
vt 0.4440 0.7678 0.0000
vt 0.3973 0.7694 0.0000
vt 0.3481 0.7848 0.0000
vt 0.3480 0.7710 0.0000
vt 0.3035 0.7862 0.0000
vt 0.3035 0.7737 0.0000
vt 0.2640 0.7879 0.0000
vt 0.2641 0.7796 0.0000
vt 0.2291 0.7875 0.0000
vt 0.1956 0.8275 0.0000
vt 0.2286 0.8269 0.0000
vt 0.1959 0.8480 0.0000
vt 0.2290 0.8481 0.0000
vt 0.2643 0.8485 0.0000
vt 0.2639 0.8267 0.0000
vt 0.2649 0.8688 0.0000
vt 0.2296 0.8682 0.0000
vt 0.1965 0.8679 0.0000
vt 0.3504 0.8706 0.0000
vt 0.3051 0.8696 0.0000
vt 0.3498 0.8501 0.0000
vt 0.3045 0.8491 0.0000
vt 0.3040 0.8269 0.0000
vt 0.3492 0.8274 0.0000
vt 0.3987 0.8282 0.0000
vt 0.3994 0.8512 0.0000
vt 0.4504 0.8526 0.0000
vt 0.4496 0.8294 0.0000
vt 0.4510 0.8733 0.0000
vt 0.4000 0.8719 0.0000
vt 0.2660 0.9633 0.0000
vt 0.2659 0.9683 0.0000
vt 0.2305 0.9629 0.0000
vt 0.2303 0.9679 0.0000
vt 0.3068 0.9640 0.0000
vt 0.3068 0.9690 0.0000
vt 0.3529 0.9698 0.0000
vt 0.3528 0.9648 0.0000
vt 0.4545 0.9711 0.0000
vt 0.4030 0.9705 0.0000
vt 0.4543 0.9662 0.0000
vt 0.4028 0.9655 0.0000
vt 0.3514 0.9059 0.0000
vt 0.4010 0.9070 0.0000
vt 0.3519 0.9222 0.0000
vt 0.4015 0.9231 0.0000
vt 0.4526 0.9242 0.0000
vt 0.4521 0.9082 0.0000
vt 0.4532 0.9398 0.0000
vt 0.4020 0.9390 0.0000
vt 0.3523 0.9382 0.0000
vt 0.3068 0.9374 0.0000
vt 0.3066 0.9213 0.0000
vt 0.2664 0.9206 0.0000
vt 0.2665 0.9367 0.0000
vt 0.2660 0.9042 0.0000
vt 0.3061 0.9050 0.0000
vt 0.1977 0.9033 0.0000
vt 0.2307 0.9037 0.0000
vt 0.1960 0.9197 0.0000
vt 0.2311 0.9201 0.0000
vt 0.2312 0.9362 0.0000
vt 0.2287 0.8063 0.0000
vt 0.1956 0.8083 0.0000
vt 0.1957 0.8014 0.0000
vt 0.2639 0.8051 0.0000
vt 0.3486 0.8039 0.0000
vt 0.3037 0.8043 0.0000
vt 0.3979 0.8039 0.0000
vt 0.4498 0.8045 0.0000
vt 0.3510 0.8890 0.0000
vt 0.4005 0.8902 0.0000
vt 0.4516 0.8915 0.0000
vt 0.3057 0.8880 0.0000
vt 0.2655 0.8872 0.0000
vt 0.1971 0.8862 0.0000
vt 0.2302 0.8866 0.0000
vt 0.3526 0.9535 0.0000
vt 0.4025 0.9542 0.0000
vt 0.4538 0.9549 0.0000
vt 0.3069 0.9527 0.0000
vt 0.2663 0.9520 0.0000
vt 0.2309 0.9515 0.0000
vt 0.4754 0.9664 0.0000
vt 0.4761 0.9714 0.0000
vt 0.4736 0.9552 0.0000
vt 0.4712 0.9402 0.0000
vt 0.4687 0.9245 0.0000
vt 0.4662 0.9086 0.0000
vt 0.4636 0.8919 0.0000
vt 0.4607 0.8736 0.0000
vt 0.4574 0.8529 0.0000
vt 0.4537 0.8295 0.0000
vt 0.1802 0.8090 0.0000
vt 0.1829 0.8280 0.0000
vt 0.1858 0.8481 0.0000
vt 0.1886 0.8679 0.0000
vt 0.1912 0.8862 0.0000
vt 0.1936 0.9033 0.0000
vt 0.1983 0.9358 0.0000
vt 0.2005 0.9512 0.0000
vt 0.2021 0.9626 0.0000
vt 0.2028 0.9676 0.0000
# 105 texture coords

g Z176_305B_L_DTaSI_Z176_305B_L
usemtl windowglass_1SG
s 1
f 1/1/1 2/2/2 3/3/3 
f 3/3/3 2/2/2 4/4/4 
f 5/5/5 6/6/6 2/2/2 
f 2/2/2 6/6/6 4/4/4 
f 7/7/7 8/8/8 5/5/5 
f 5/5/5 8/8/8 6/6/6 
f 9/9/9 10/10/10 7/7/7 
f 10/10/10 8/8/8 7/7/7 
f 11/11/11 10/10/10 9/9/9 
f 12/12/12 13/13/13 14/14/14 
f 14/14/14 13/13/13 15/15/15 
f 16/16/16 15/15/15 17/17/17 
f 17/17/17 15/15/15 13/13/13 
f 18/18/18 19/19/19 16/16/16 
f 16/16/16 19/19/19 15/15/15 
f 14/14/14 15/15/15 20/20/20 
f 20/20/20 15/15/15 19/19/19 
f 21/21/21 22/22/22 23/23/23 
f 23/23/23 22/22/22 24/24/24 
f 16/16/16 24/24/24 18/18/18 
f 18/18/18 24/24/24 22/22/22 
f 17/17/17 25/25/25 16/16/16 
f 16/16/16 25/25/25 24/24/24 
f 23/23/23 24/24/24 26/26/26 
f 26/26/26 24/24/24 25/25/25 
f 26/26/26 27/27/27 23/23/23 
f 23/23/23 27/27/27 28/28/28 
f 29/29/29 28/28/28 30/30/30 
f 30/30/30 28/28/28 27/27/27 
f 31/31/31 32/32/32 29/29/29 
f 29/29/29 32/32/32 28/28/28 
f 23/23/23 28/28/28 21/21/21 
f 21/21/21 28/28/28 32/32/32 
f 33/33/33 34/34/34 35/35/35 
f 35/35/35 34/34/34 36/36/36 
f 33/33/33 37/37/37 34/34/34 
f 34/34/34 37/37/37 38/38/38 
f 39/39/39 38/38/38 40/40/40 
f 40/40/40 38/38/38 37/37/37 
f 41/41/41 42/42/42 43/43/43 
f 43/43/43 42/42/42 44/44/44 
f 40/40/40 44/44/44 39/39/39 
f 39/39/39 44/44/44 42/42/42 
f 45/45/45 46/46/46 47/47/47 
f 47/47/47 46/46/46 48/48/48 
f 49/49/49 48/48/48 50/50/50 
f 50/50/50 48/48/48 46/46/46 
f 51/51/51 52/52/52 49/49/49 
f 49/49/49 52/52/52 48/48/48 
f 47/47/47 48/48/48 53/53/53 
f 53/53/53 48/48/48 52/52/52 
f 53/53/53 54/54/54 47/47/47 
f 47/47/47 54/54/54 55/55/55 
f 56/56/56 55/55/55 57/57/57 
f 57/57/57 55/55/55 54/54/54 
f 58/58/58 59/59/59 56/56/56 
f 56/56/56 59/59/59 55/55/55 
f 47/47/47 55/55/55 45/45/45 
f 45/45/45 55/55/55 59/59/59 
f 60/60/60 61/61/61 62/62/62 
f 62/62/62 61/61/61 63/63/63 
f 56/56/56 63/63/63 58/58/58 
f 58/58/58 63/63/63 61/61/61 
f 57/57/57 64/64/64 56/56/56 
f 56/56/56 64/64/64 63/63/63 
f 65/65/65 66/66/66 11/11/11 
f 11/11/11 66/66/66 67/67/67 
f 9/9/9 68/68/68 11/11/11 
f 11/11/11 68/68/68 65/65/65 
f 13/13/13 65/65/65 17/17/17 
f 17/17/17 65/65/65 68/68/68 
f 12/12/12 66/66/66 13/13/13 
f 13/13/13 66/66/66 65/65/65 
f 26/26/26 25/25/25 69/69/69 
f 69/69/69 25/25/25 70/70/70 
f 68/68/68 70/70/70 17/17/17 
f 17/17/17 70/70/70 25/25/25 
f 7/7/7 70/70/70 9/9/9 
f 9/9/9 70/70/70 68/68/68 
f 69/69/69 70/70/70 5/5/5 
f 5/5/5 70/70/70 7/7/7 
f 5/5/5 2/2/2 69/69/69 
f 69/69/69 2/2/2 71/71/71 
f 72/72/72 71/71/71 1/1/1 
f 71/71/71 2/2/2 1/1/1 
f 30/30/30 27/27/27 72/72/72 
f 72/72/72 27/27/27 71/71/71 
f 69/69/69 71/71/71 26/26/26 
f 26/26/26 71/71/71 27/27/27 
f 21/21/21 32/32/32 73/73/73 
f 73/73/73 32/32/32 74/74/74 
f 75/75/75 74/74/74 31/31/31 
f 31/31/31 74/74/74 32/32/32 
f 50/50/50 46/46/46 75/75/75 
f 75/75/75 46/46/46 74/74/74 
f 73/73/73 74/74/74 45/45/45 
f 45/45/45 74/74/74 46/46/46 
f 45/45/45 59/59/59 73/73/73 
f 73/73/73 59/59/59 76/76/76 
f 77/77/77 76/76/76 58/58/58 
f 58/58/58 76/76/76 59/59/59 
f 18/18/18 22/22/22 77/77/77 
f 77/77/77 22/22/22 76/76/76 
f 73/73/73 76/76/76 21/21/21 
f 21/21/21 76/76/76 22/22/22 
f 20/20/20 19/19/19 78/78/78 
f 78/78/78 19/19/19 79/79/79 
f 77/77/77 79/79/79 18/18/18 
f 18/18/18 79/79/79 19/19/19 
f 58/58/58 61/61/61 77/77/77 
f 77/77/77 61/61/61 79/79/79 
f 78/78/78 79/79/79 60/60/60 
f 60/60/60 79/79/79 61/61/61 
f 53/53/53 52/52/52 80/80/80 
f 80/80/80 52/52/52 81/81/81 
f 82/82/82 81/81/81 51/51/51 
f 51/51/51 81/81/81 52/52/52 
f 43/43/43 44/44/44 82/82/82 
f 82/82/82 44/44/44 81/81/81 
f 80/80/80 81/81/81 40/40/40 
f 40/40/40 81/81/81 44/44/44 
f 40/40/40 37/37/37 80/80/80 
f 80/80/80 37/37/37 83/83/83 
f 84/84/84 83/83/83 33/33/33 
f 33/33/33 83/83/83 37/37/37 
f 57/57/57 54/54/54 84/84/84 
f 84/84/84 54/54/54 83/83/83 
f 80/80/80 83/83/83 53/53/53 
f 53/53/53 83/83/83 54/54/54 
f 84/84/84 85/85/85 57/57/57 
f 57/57/57 85/85/85 64/64/64 
f 35/35/35 85/85/85 33/33/33 
f 33/33/33 85/85/85 84/84/84 
f 43/43/43 86/86/86 41/41/41 
f 41/41/41 86/86/86 87/87/87 
f 82/82/82 88/88/88 43/43/43 
f 43/43/43 88/88/88 86/86/86 
f 51/51/51 89/89/89 82/82/82 
f 82/82/82 89/89/89 88/88/88 
f 49/49/49 90/90/90 51/51/51 
f 51/51/51 90/90/90 89/89/89 
f 50/50/50 91/91/91 49/49/49 
f 49/49/49 91/91/91 90/90/90 
f 75/75/75 92/92/92 50/50/50 
f 50/50/50 92/92/92 91/91/91 
f 31/31/31 93/93/93 75/75/75 
f 75/75/75 93/93/93 92/92/92 
f 29/29/29 94/94/94 31/31/31 
f 31/31/31 94/94/94 93/93/93 
f 30/30/30 95/95/95 29/29/29 
f 29/29/29 95/95/95 94/94/94 
f 30/30/30 72/72/72 95/95/95 
f 67/67/67 66/66/66 96/96/96 
f 12/12/12 97/97/97 66/66/66 
f 66/66/66 97/97/97 96/96/96 
f 14/14/14 98/98/98 12/12/12 
f 12/12/12 98/98/98 97/97/97 
f 20/20/20 99/99/99 14/14/14 
f 14/14/14 99/99/99 98/98/98 
f 78/78/78 100/100/100 20/20/20 
f 20/20/20 100/100/100 99/99/99 
f 60/60/60 101/101/101 78/78/78 
f 78/78/78 101/101/101 100/100/100 
f 60/60/60 62/62/62 101/101/101 
f 62/62/62 63/63/63 102/102/102 
f 64/64/64 102/102/102 63/63/63 
f 102/102/102 64/64/64 103/103/103 
f 103/103/103 64/64/64 85/85/85 
f 103/103/103 85/85/85 104/104/104 
f 104/104/104 85/85/85 35/35/35 
f 104/104/104 35/35/35 105/105/105 
f 105/105/105 35/35/35 36/36/36 
# 172 faces

