# 3ds Max Wavefront OBJ Exporter v0.97b - (c)2007 guruware
# File Created: 11.01.2016 12:30:50

mtllib Z176_285B_R.mtl

#
# object Z176_285B_R_DTaSI_Z176_285B_R
#

v  13.4633 73.7269 72.4746
v  23.7250 72.2450 73.2715
v  15.5981 80.0729 68.8316
v  25.3016 77.1440 70.3475
v  22.7847 61.5538 79.0032
v  22.9200 66.9593 76.1872
v  11.7815 62.3258 78.6204
v  12.3081 68.0889 75.5665
v  11.7328 49.9729 84.9582
v  11.7360 46.4202 86.6845
v  22.8013 49.3762 85.0945
v  22.7916 45.8313 86.7794
v  11.7598 42.9522 88.3134
v  22.7777 42.3819 88.3574
v  11.7608 53.7256 83.0713
v  22.8214 53.1156 83.2419
v  22.7574 39.1026 89.8225
v  11.8107 39.6388 89.8270
v  22.5740 35.4833 91.4531
v  11.5732 35.9763 91.5096
v  -27.5378 84.9096 66.2873
v  -27.5364 77.4505 70.6809
v  -13.4238 83.9783 66.7388
v  -13.5788 76.5622 71.0624
v  -22.6024 41.3179 89.6281
v  -21.6526 37.4902 91.4532
v  -11.1665 40.7692 89.7253
v  -10.5792 36.9879 91.5074
v  -23.5051 44.7768 87.9825
v  -11.7050 44.1831 88.1179
v  -24.4443 48.3754 86.2260
v  -12.2186 47.7294 86.4025
v  -25.4016 52.0436 84.3790
v  -12.7091 51.3428 84.5967
v  -26.5288 55.8967 82.3838
v  -13.2131 55.1394 82.6413
v  -13.5850 59.5893 80.3198
v  -27.7108 60.4264 80.0108
v  -32.5279 77.6976 70.5855
v  -34.4135 84.9260 66.3311
v  22.7887 57.3425 81.1374
v  11.7086 58.0365 80.8607
v  0.2691 40.2141 89.8012
v  0.4941 36.4841 91.5372
v  0.0947 43.5778 88.2362
v  0.0068 47.0731 86.5638
v  -0.0168 50.6371 84.8003
v  -0.0186 54.3870 82.8850
v  -0.0124 58.7836 80.6026
v  0.0251 63.1636 78.2890
v  0.1472 69.2862 75.0033
v  0.3411 75.3616 71.6353
v  0.6302 82.5805 67.4682
v  41.4560 68.9730 74.5763
v  33.7008 73.4220 72.2746
v  33.7337 70.4432 74.0268
v  57.1069 55.6097 81.3483
v  57.3680 51.5166 83.4464
v  64.0768 55.4441 81.2780
v  69.1095 51.1171 83.4162
v  57.9949 47.5090 85.4859
v  69.7765 47.1553 85.4640
v  58.4165 44.1619 87.0519
v  70.3906 43.7056 87.1458
v  58.7868 40.9412 88.4409
v  71.0130 40.6437 88.3817
v  59.2050 37.5987 89.8424
v  71.6242 37.2513 89.8881
v  59.6184 33.9033 91.4213
v  72.2712 33.3982 91.4125
v  -13.7455 64.0331 77.9608
v  -13.7250 70.3225 74.5571
v  -27.5189 64.8694 77.6534
v  -27.5292 71.3547 74.1287
v  -28.8911 64.9498 77.6247
v  -30.8722 71.3512 74.1590
v  47.2983 65.3206 76.4440
v  34.0164 66.0447 76.4519
v  45.8759 59.9611 79.4013
v  57.1467 59.1004 79.5340
v  34.7748 34.9467 91.4330
v  34.7985 38.5379 89.8555
v  34.7212 41.7952 88.4250
v  34.6524 45.2167 86.8687
v  34.5679 48.6842 85.2441
v  34.5009 52.4710 83.3807
v  34.4233 56.5951 81.3680
v  34.2970 60.6935 79.3087
v  47.1500 34.4170 91.4276
v  46.9729 38.0248 89.8728
v  46.7476 41.2958 88.4636
v  46.5493 44.6504 86.9582
v  46.3244 47.9687 85.4417
v  46.0190 51.9449 83.4464
v  45.7434 55.9779 81.4441
# 95 vertices

vn 0.0039 0.4869 0.8735
vn 0.0163 0.4969 0.8676
vn 0.0086 0.5002 0.8659
vn 0.0226 0.5070 0.8616
vn 0.0080 0.4604 0.8877
vn 0.0082 0.4743 0.8803
vn 0.0047 0.4651 0.8852
vn 0.0038 0.4739 0.8806
vn 0.0130 0.4433 0.8963
vn 0.0149 0.4309 0.9023
vn 0.0138 0.4375 0.8991
vn 0.0153 0.4233 0.9058
vn 0.0171 0.4200 0.9074
vn 0.0168 0.4129 0.9106
vn 0.0108 0.4519 0.8920
vn 0.0122 0.4445 0.8957
vn 0.0178 0.4075 0.9130
vn 0.0202 0.4149 0.9097
vn 0.0199 0.4095 0.9121
vn 0.0223 0.4162 0.9090
vn 0.0071 0.5078 0.8614
vn 0.0076 0.4992 0.8664
vn 0.0065 0.5049 0.8632
vn 0.0074 0.4960 0.8683
vn 0.0124 0.4309 0.9023
vn 0.0141 0.4306 0.9024
vn 0.0138 0.4278 0.9038
vn 0.0155 0.4264 0.9044
vn 0.0111 0.4365 0.8996
vn 0.0122 0.4321 0.9017
vn 0.0103 0.4469 0.8945
vn 0.0112 0.4424 0.8968
vn 0.0096 0.4575 0.8891
vn 0.0103 0.4534 0.8912
vn 0.0089 0.4636 0.8860
vn 0.0095 0.4611 0.8873
vn 0.0088 0.4662 0.8846
vn 0.0086 0.4679 0.8837
vn 0.0077 0.5027 0.8644
vn 0.0067 0.5085 0.8610
vn 0.0092 0.4502 0.8929
vn 0.0076 0.4585 0.8886
vn 0.0167 0.4224 0.9063
vn 0.0191 0.4206 0.9070
vn 0.0148 0.4269 0.9042
vn 0.0133 0.4374 0.8992
vn 0.0119 0.4490 0.8935
vn 0.0106 0.4577 0.8890
vn 0.0094 0.4636 0.8860
vn 0.0082 0.4694 0.8830
vn 0.0068 0.4784 0.8781
vn 0.0062 0.4923 0.8704
vn 0.0058 0.5010 0.8654
vn 0.0308 0.4935 0.8692
vn 0.0293 0.5067 0.8616
vn 0.0262 0.4925 0.8699
vn 0.0203 0.4563 0.8896
vn 0.0174 0.4557 0.8900
vn 0.0192 0.4592 0.8881
vn 0.0171 0.4588 0.8884
vn 0.0143 0.4399 0.8980
vn 0.0132 0.4421 0.8969
vn 0.0109 0.4157 0.9095
vn 0.0104 0.4045 0.9145
vn 0.0130 0.3906 0.9205
vn 0.0119 0.3906 0.9205
vn 0.0130 0.3947 0.9187
vn 0.0104 0.3903 0.9206
vn 0.0133 0.3861 0.9224
vn 0.0154 0.3701 0.9289
vn 0.0085 0.4719 0.8816
vn 0.0081 0.4818 0.8762
vn 0.0090 0.4735 0.8807
vn 0.0083 0.4843 0.8748
vn 0.0087 0.4746 0.8802
vn 0.0075 0.4875 0.8731
vn 0.0266 0.4815 0.8760
vn 0.0220 0.4771 0.8786
vn 0.0233 0.4646 0.8852
vn 0.0232 0.4638 0.8857
vn 0.0174 0.4002 0.9163
vn 0.0162 0.4025 0.9153
vn 0.0145 0.4085 0.9126
vn 0.0136 0.4183 0.9082
vn 0.0136 0.4351 0.9003
vn 0.0150 0.4417 0.8970
vn 0.0156 0.4463 0.8947
vn 0.0154 0.4588 0.8884
vn 0.0167 0.3957 0.9182
vn 0.0156 0.3960 0.9181
vn 0.0133 0.4021 0.9155
vn 0.0122 0.4153 0.9096
vn 0.0134 0.4353 0.9002
vn 0.0165 0.4481 0.8938
vn 0.0201 0.4504 0.8926
# 95 vertex normals

vt 0.7027 0.1867 0.0000
vt 0.7473 0.1824 0.0000
vt 0.7106 0.2145 0.0000
vt 0.7532 0.2039 0.0000
vt 0.7454 0.1360 0.0000
vt 0.7449 0.1594 0.0000
vt 0.6978 0.1371 0.0000
vt 0.6989 0.1621 0.0000
vt 0.7001 0.0837 0.0000
vt 0.7008 0.0684 0.0000
vt 0.7480 0.0834 0.0000
vt 0.7487 0.0681 0.0000
vt 0.7016 0.0534 0.0000
vt 0.7493 0.0532 0.0000
vt 0.6994 0.0999 0.0000
vt 0.7473 0.0995 0.0000
vt 0.7499 0.0390 0.0000
vt 0.7025 0.0391 0.0000
vt 0.7498 0.0238 0.0000
vt 0.7022 0.0237 0.0000
vt 0.5234 0.2253 0.0000
vt 0.5248 0.1944 0.0000
vt 0.5845 0.2242 0.0000
vt 0.5853 0.1934 0.0000
vt 0.5535 0.0394 0.0000
vt 0.5583 0.0235 0.0000
vt 0.6030 0.0393 0.0000
vt 0.6063 0.0236 0.0000
vt 0.5489 0.0541 0.0000
vt 0.6000 0.0539 0.0000
vt 0.5441 0.0695 0.0000
vt 0.5970 0.0692 0.0000
vt 0.5392 0.0851 0.0000
vt 0.5942 0.0847 0.0000
vt 0.5341 0.1016 0.0000
vt 0.5912 0.1010 0.0000
vt 0.5887 0.1201 0.0000
vt 0.5281 0.1209 0.0000
vt 0.5051 0.1946 0.0000
vt 0.4955 0.2254 0.0000
vt 0.7463 0.1178 0.0000
vt 0.6983 0.1185 0.0000
vt 0.6525 0.0392 0.0000
vt 0.6542 0.0236 0.0000
vt 0.6511 0.0537 0.0000
vt 0.6500 0.0688 0.0000
vt 0.6492 0.0842 0.0000
vt 0.6484 0.1004 0.0000
vt 0.6475 0.1194 0.0000
vt 0.6468 0.1383 0.0000
vt 0.6461 0.1648 0.0000
vt 0.6457 0.1911 0.0000
vt 0.6455 0.2210 0.0000
vt 0.8236 0.1718 0.0000
vt 0.7892 0.1894 0.0000
vt 0.7909 0.1766 0.0000
vt 0.8949 0.1173 0.0000
vt 0.8969 0.0997 0.0000
vt 0.9251 0.1180 0.0000
vt 0.9472 0.1003 0.0000
vt 0.9004 0.0825 0.0000
vt 0.9509 0.0833 0.0000
vt 0.9029 0.0681 0.0000
vt 0.9543 0.0685 0.0000
vt 0.9052 0.0543 0.0000
vt 0.9572 0.0554 0.0000
vt 0.9076 0.0399 0.0000
vt 0.9606 0.0409 0.0000
vt 0.9102 0.0245 0.0000
vt 0.9641 0.0248 0.0000
vt 0.5871 0.1393 0.0000
vt 0.5859 0.1665 0.0000
vt 0.5275 0.1401 0.0000
vt 0.5261 0.1681 0.0000
vt 0.5220 0.1402 0.0000
vt 0.5135 0.1675 0.0000
vt 0.8496 0.1572 0.0000
vt 0.7931 0.1577 0.0000
vt 0.8455 0.1338 0.0000
vt 0.8944 0.1324 0.0000
vt 0.8026 0.0239 0.0000
vt 0.8020 0.0390 0.0000
vt 0.8010 0.0531 0.0000
vt 0.8000 0.0678 0.0000
vt 0.7990 0.0828 0.0000
vt 0.7979 0.0991 0.0000
vt 0.7967 0.1169 0.0000
vt 0.7954 0.1346 0.0000
vt 0.8562 0.0242 0.0000
vt 0.8547 0.0393 0.0000
vt 0.8531 0.0533 0.0000
vt 0.8515 0.0678 0.0000
vt 0.8499 0.0821 0.0000
vt 0.8478 0.0992 0.0000
vt 0.8458 0.1166 0.0000
# 95 texture coords

g Z176_285B_R_DTaSI_Z176_285B_R
usemtl windowglass_1SG
s 1
f 1/1/1 2/2/2 3/3/3 
f 3/3/3 2/2/2 4/4/4 
f 5/5/5 6/6/6 7/7/7 
f 7/7/7 6/6/6 8/8/8 
f 9/9/9 10/10/10 11/11/11 
f 11/11/11 10/10/10 12/12/12 
f 10/10/10 13/13/13 12/12/12 
f 12/12/12 13/13/13 14/14/14 
f 15/15/15 9/9/9 16/16/16 
f 16/16/16 9/9/9 11/11/11 
f 17/17/17 18/18/18 19/19/19 
f 19/19/19 18/18/18 20/20/20 
f 21/21/21 22/22/22 23/23/23 
f 23/23/23 22/22/22 24/24/24 
f 25/25/25 26/26/26 27/27/27 
f 27/27/27 26/26/26 28/28/28 
f 29/29/29 25/25/25 30/30/30 
f 30/30/30 25/25/25 27/27/27 
f 31/31/31 29/29/29 32/32/32 
f 32/32/32 29/29/29 30/30/30 
f 33/33/33 31/31/31 34/34/34 
f 34/34/34 31/31/31 32/32/32 
f 35/35/35 33/33/33 36/36/36 
f 36/36/36 33/33/33 34/34/34 
f 36/36/36 37/37/37 35/35/35 
f 35/35/35 37/37/37 38/38/38 
f 22/22/22 21/21/21 39/39/39 
f 39/39/39 21/21/21 40/40/40 
f 13/13/13 18/18/18 14/14/14 
f 14/14/14 18/18/18 17/17/17 
f 16/16/16 41/41/41 15/15/15 
f 15/15/15 41/41/41 42/42/42 
f 43/43/43 44/44/44 18/18/18 
f 18/18/18 44/44/44 20/20/20 
f 45/45/45 43/43/43 13/13/13 
f 13/13/13 43/43/43 18/18/18 
f 46/46/46 45/45/45 10/10/10 
f 10/10/10 45/45/45 13/13/13 
f 47/47/47 46/46/46 9/9/9 
f 9/9/9 46/46/46 10/10/10 
f 48/48/48 47/47/47 15/15/15 
f 15/15/15 47/47/47 9/9/9 
f 15/15/15 42/42/42 48/48/48 
f 48/48/48 42/42/42 49/49/49 
f 7/7/7 8/8/8 50/50/50 
f 50/50/50 8/8/8 51/51/51 
f 1/1/1 3/3/3 52/52/52 
f 52/52/52 3/3/3 53/53/53 
f 54/54/54 55/55/55 56/56/56 
f 57/57/57 58/58/58 59/59/59 
f 59/59/59 58/58/58 60/60/60 
f 58/58/58 61/61/61 60/60/60 
f 60/60/60 61/61/61 62/62/62 
f 61/61/61 63/63/63 62/62/62 
f 62/62/62 63/63/63 64/64/64 
f 63/63/63 65/65/65 64/64/64 
f 64/64/64 65/65/65 66/66/66 
f 65/65/65 67/67/67 66/66/66 
f 66/66/66 67/67/67 68/68/68 
f 67/67/67 69/69/69 68/68/68 
f 68/68/68 69/69/69 70/70/70 
f 23/23/23 24/24/24 53/53/53 
f 53/53/53 24/24/24 52/52/52 
f 48/48/48 49/49/49 36/36/36 
f 36/36/36 49/49/49 37/37/37 
f 47/47/47 48/48/48 34/34/34 
f 34/34/34 48/48/48 36/36/36 
f 46/46/46 47/47/47 32/32/32 
f 32/32/32 47/47/47 34/34/34 
f 45/45/45 46/46/46 30/30/30 
f 30/30/30 46/46/46 32/32/32 
f 43/43/43 45/45/45 27/27/27 
f 27/27/27 45/45/45 30/30/30 
f 27/27/27 28/28/28 43/43/43 
f 43/43/43 28/28/28 44/44/44 
f 50/50/50 51/51/51 71/71/71 
f 71/71/71 51/51/51 72/72/72 
f 71/71/71 72/72/72 73/73/73 
f 73/73/73 72/72/72 74/74/74 
f 73/73/73 74/74/74 75/75/75 
f 75/75/75 74/74/74 76/76/76 
f 75/75/75 38/38/38 73/73/73 
f 74/74/74 22/22/22 76/76/76 
f 76/76/76 22/22/22 39/39/39 
f 72/72/72 24/24/24 74/74/74 
f 74/74/74 24/24/24 22/22/22 
f 51/51/51 52/52/52 72/72/72 
f 72/72/72 52/52/52 24/24/24 
f 8/8/8 1/1/1 51/51/51 
f 51/51/51 1/1/1 52/52/52 
f 2/2/2 1/1/1 6/6/6 
f 6/6/6 1/1/1 8/8/8 
f 77/77/77 54/54/54 78/78/78 
f 78/78/78 54/54/54 56/56/56 
f 77/77/77 79/79/79 80/80/80 
f 81/81/81 82/82/82 19/19/19 
f 19/19/19 82/82/82 17/17/17 
f 82/82/82 83/83/83 17/17/17 
f 17/17/17 83/83/83 14/14/14 
f 83/83/83 84/84/84 14/14/14 
f 14/14/14 84/84/84 12/12/12 
f 84/84/84 85/85/85 12/12/12 
f 12/12/12 85/85/85 11/11/11 
f 85/85/85 86/86/86 11/11/11 
f 11/11/11 86/86/86 16/16/16 
f 86/86/86 87/87/87 16/16/16 
f 16/16/16 87/87/87 41/41/41 
f 88/88/88 78/78/78 5/5/5 
f 5/5/5 78/78/78 6/6/6 
f 78/78/78 56/56/56 6/6/6 
f 6/6/6 56/56/56 2/2/2 
f 4/4/4 2/2/2 55/55/55 
f 55/55/55 2/2/2 56/56/56 
f 89/89/89 90/90/90 81/81/81 
f 81/81/81 90/90/90 82/82/82 
f 83/83/83 82/82/82 91/91/91 
f 91/91/91 82/82/82 90/90/90 
f 84/84/84 83/83/83 92/92/92 
f 92/92/92 83/83/83 91/91/91 
f 85/85/85 84/84/84 93/93/93 
f 93/93/93 84/84/84 92/92/92 
f 86/86/86 85/85/85 94/94/94 
f 94/94/94 85/85/85 93/93/93 
f 94/94/94 95/95/95 86/86/86 
f 86/86/86 95/95/95 87/87/87 
f 77/77/77 78/78/78 79/79/79 
f 79/79/79 78/78/78 88/88/88 
f 90/90/90 89/89/89 67/67/67 
f 67/67/67 89/89/89 69/69/69 
f 91/91/91 90/90/90 65/65/65 
f 65/65/65 90/90/90 67/67/67 
f 92/92/92 91/91/91 63/63/63 
f 63/63/63 91/91/91 65/65/65 
f 93/93/93 92/92/92 61/61/61 
f 61/61/61 92/92/92 63/63/63 
f 94/94/94 93/93/93 58/58/58 
f 58/58/58 93/93/93 61/61/61 
f 58/58/58 57/57/57 94/94/94 
f 94/94/94 57/57/57 95/95/95 
f 37/37/37 71/71/71 38/38/38 
f 38/38/38 71/71/71 73/73/73 
f 49/49/49 50/50/50 37/37/37 
f 37/37/37 50/50/50 71/71/71 
f 42/42/42 7/7/7 49/49/49 
f 49/49/49 7/7/7 50/50/50 
f 41/41/41 5/5/5 42/42/42 
f 42/42/42 5/5/5 7/7/7 
f 87/87/87 88/88/88 41/41/41 
f 41/41/41 88/88/88 5/5/5 
f 95/95/95 79/79/79 87/87/87 
f 87/87/87 79/79/79 88/88/88 
f 57/57/57 80/80/80 95/95/95 
f 95/95/95 80/80/80 79/79/79 
f 80/80/80 57/57/57 59/59/59 
# 154 faces

