# 3ds Max Wavefront OBJ Exporter v0.97b - (c)2007 guruware
# File Created: 11.01.2016 11:30:31

mtllib Z020_FLOR_C.mtl

#
# object Z020_FLOR_C_N_Z020_FLOR_C
#

v  -196.6844 -46.0737 85.1228
v  -202.8361 -45.9295 85.0221
v  -196.6844 -46.0737 52.6867
v  -203.8363 -45.8888 84.9282
v  -257.6484 -43.2970 32.4136
v  -196.6844 -46.0737 0.0000
v  -257.8062 -43.2970 23.9630
v  -257.6281 -43.2970 12.5580
v  -257.4713 -43.2969 41.8941
v  -256.5743 -43.3139 49.9282
v  -255.4166 -43.3646 56.8630
v  -254.0871 -43.4413 62.7141
v  -224.9132 -44.6508 80.9537
v  -234.4935 -44.2747 79.5434
v  -252.6750 -43.5361 67.4967
v  -250.7896 -43.6521 71.4447
v  -240.9157 -44.0602 78.5126
v  -248.0404 -43.7922 74.7915
v  -244.6686 -43.9352 77.2450
v  13.7157 -50.9351 56.6076
v  128.1109 -51.5197 0.0000
v  128.1109 -51.5197 60.3995
v  15.5246 -51.0138 0.0000
v  -0.9714 -50.8097 92.7691
v  11.8353 -50.8816 92.7556
v  41.3632 -51.0770 92.9304
v  53.6702 -51.1584 93.0032
v  97.0939 -51.4474 93.4113
v  85.7535 -51.3753 93.2944
v  107.4466 -51.5039 93.5400
v  111.6271 -51.5033 93.7733
v  115.9844 -51.5062 94.2562
v  119.4108 -51.5095 94.7175
v  120.7983 -51.5100 94.8865
v  121.9424 -51.5107 94.8988
v  124.6386 -51.5144 94.8902
v  128.1109 -51.5197 94.8712
v  -71.6146 -50.5204 92.9367
v  -108.4093 -50.4569 52.6865
v  -56.6046 -50.5689 92.8899
v  -41.5948 -50.6173 92.8430
v  -89.1643 -50.4097 92.9834
v  -94.6312 -50.4264 93.0382
v  -108.4093 -50.4569 0.0000
v  -101.6268 -50.4657 93.1416
v  -104.5969 -50.4651 93.1930
v  -108.0954 -50.4645 93.2531
v  -108.4093 -50.4569 93.2303
v  -108.3587 -50.4645 93.2576
v  215.8290 -51.6904 60.3999
v  215.8290 -51.6904 0.0000
v  215.8290 -54.0246 60.1287
v  215.8290 -53.9735 0.0000
v  170.6596 -51.6025 60.3997
v  215.8290 -51.6904 94.0748
v  215.8290 -52.0823 93.3772
v  215.8290 -52.5534 90.0234
v  215.8290 -52.6267 89.3514
v  215.8290 -52.8478 87.3245
v  215.8290 -53.1833 84.2485
v  215.8290 -53.3134 83.1360
v  215.8290 -53.6233 80.5348
v  215.8290 -53.9246 76.2304
v  215.8290 -54.0289 70.0083
v  238.3672 -54.1984 63.9779
v  260.7277 -54.0022 9.6609
v  261.1610 -54.0022 0.0000
v  259.2705 -54.0023 28.2755
v  258.2466 -54.0024 37.2292
v  256.9078 -54.0025 44.7489
v  255.5691 -54.0026 52.2686
v  254.0504 -54.0027 58.2522
v  249.4044 -54.0031 72.9266
v  250.9680 -54.0030 68.5811
v  247.8852 -54.0033 75.9354
v  243.5950 -54.0037 82.8915
v  246.3659 -54.0035 78.9441
v  240.2952 -53.9820 85.0410
v  235.6702 -53.9162 85.6649
v  230.5994 -53.7676 85.4221
v  225.9623 -53.4975 84.9717
v  222.2639 -53.2514 84.5350
v  220.0096 -53.1749 84.3330
v  -154.8802 -48.1494 52.6866
v  65.2379 -51.2366 93.1021
v  75.0783 -51.3036 93.1934
v  26.5992 -50.9793 92.8430
v  -26.5847 -50.6659 92.7961
v  -13.7781 -50.7378 92.7827
v  -98.9376 -50.4558 93.0977
v  -100.5050 -50.4658 93.1210
v  -84.1155 -50.4380 92.9744
v  -215.7989 -45.0454 82.2559
v  -204.7973 -45.7967 84.6247
v  -207.1749 -45.5773 83.9373
v  -210.3819 -45.3247 83.1481
v  -257.4319 -43.2970 0.0000
v  -196.6844 -46.0737 -85.1228
v  -196.6844 -46.0737 -52.6867
v  -202.8361 -45.9295 -85.0221
v  -203.8363 -45.8888 -84.9282
v  -257.6484 -43.2970 -32.4136
v  -257.6281 -43.2970 -12.5580
v  -257.8062 -43.2970 -23.9630
v  -257.4713 -43.2969 -41.8941
v  -256.5743 -43.3139 -49.9282
v  -255.4166 -43.3646 -56.8630
v  -254.0871 -43.4413 -62.7141
v  -224.9132 -44.6508 -80.9537
v  -234.4935 -44.2747 -79.5434
v  -252.6750 -43.5361 -67.4967
v  -250.7896 -43.6521 -71.4447
v  -240.9157 -44.0602 -78.5126
v  -248.0404 -43.7922 -74.7915
v  -244.6686 -43.9352 -77.2450
v  13.7157 -50.9351 -56.6076
v  128.1109 -51.5197 -60.3995
v  -0.9714 -50.8097 -92.7691
v  11.8353 -50.8816 -92.7556
v  41.3632 -51.0770 -92.9304
v  53.6702 -51.1584 -93.0032
v  97.0939 -51.4474 -93.4113
v  85.7535 -51.3753 -93.2944
v  107.4466 -51.5039 -93.5400
v  111.6271 -51.5033 -93.7733
v  115.9844 -51.5062 -94.2562
v  119.4108 -51.5095 -94.7175
v  120.7983 -51.5100 -94.8865
v  121.9424 -51.5107 -94.8988
v  124.6386 -51.5144 -94.8902
v  128.1109 -51.5197 -94.8712
v  -108.4093 -50.4569 -52.6865
v  -71.6146 -50.5204 -92.9366
v  -56.6046 -50.5689 -92.8899
v  -41.5948 -50.6173 -92.8430
v  -94.6312 -50.4264 -93.0381
v  -89.1643 -50.4096 -92.9834
v  -104.5969 -50.4651 -93.1930
v  -101.6268 -50.4657 -93.1416
v  -108.0954 -50.4645 -93.2531
v  -108.4093 -50.4569 -93.2303
v  -108.3587 -50.4645 -93.2576
v  215.8290 -51.6904 -60.3999
v  215.8290 -54.0246 -60.1287
v  170.6596 -51.6025 -60.3997
v  215.8290 -51.6904 -94.0748
v  215.8290 -52.0823 -93.3772
v  215.8290 -52.5534 -90.0234
v  215.8290 -52.6267 -89.3514
v  215.8290 -52.8478 -87.3245
v  215.8290 -53.1833 -84.2485
v  215.8290 -53.3134 -83.1360
v  215.8290 -53.6233 -80.5348
v  215.8290 -53.9246 -76.2304
v  215.8290 -54.0289 -70.0083
v  238.3672 -54.1984 -63.9779
v  260.7277 -54.0022 -9.6609
v  259.2705 -54.0023 -28.2755
v  258.2466 -54.0024 -37.2292
v  256.9078 -54.0025 -44.7489
v  254.0504 -54.0027 -58.2522
v  252.5316 -54.0028 -64.2357
v  249.4044 -54.0031 -72.9266
v  250.9564 -54.0030 -68.6136
v  247.8852 -54.0033 -75.9353
v  243.5950 -54.0037 -82.8915
v  246.3659 -54.0035 -78.9441
v  240.2952 -53.9820 -85.0410
v  235.6702 -53.9162 -85.6649
v  230.5994 -53.7676 -85.4221
v  225.9623 -53.4975 -84.9717
v  222.2639 -53.2514 -84.5350
v  220.0096 -53.1749 -84.3330
v  -154.8802 -48.1494 -52.6866
v  255.5691 -54.0026 -52.2686
v  65.2379 -51.2366 -93.1021
v  75.0783 -51.3036 -93.1934
v  26.5992 -50.9793 -92.8430
v  -26.5847 -50.6659 -92.7961
v  -13.7781 -50.7378 -92.7827
v  -100.5050 -50.4658 -93.1210
v  -98.9376 -50.4558 -93.0977
v  -84.1155 -50.4380 -92.9743
v  -215.7989 -45.0454 -82.2559
v  -204.7973 -45.7967 -84.6247
v  -207.1749 -45.5773 -83.9373
v  -210.3819 -45.3247 -83.1481
v  252.5316 -54.0028 64.2357
v  260.2944 -54.0022 19.3217
v  260.2944 -54.0022 -19.3217
# 190 vertices

vn -0.0234 -0.9997 -0.0000
vn -0.0262 -0.9997 -0.0005
vn -0.0454 -0.9990 0.0009
vn -0.0661 -0.9978 -0.0089
vn -0.0455 -0.9990 0.0003
vn -0.0455 -0.9990 -0.0000
vn -0.0453 -0.9990 0.0001
vn -0.0457 -0.9990 -0.0007
vn -0.0459 -0.9989 0.0017
vn -0.0461 -0.9989 0.0020
vn -0.0461 -0.9989 -0.0009
vn -0.0450 -0.9990 0.0021
vn -0.0447 -0.9990 0.0054
vn -0.0381 -0.9993 -0.0052
vn -0.0337 -0.9994 -0.0104
vn -0.0309 -0.9994 -0.0147
vn -0.0310 -0.9994 -0.0145
vn -0.0276 -0.9994 -0.0193
vn -0.0254 -0.9994 -0.0234
vn -0.0046 -1.0000 0.0008
vn -0.0038 -1.0000 -0.0000
vn -0.0044 -1.0000 -0.0005
vn -0.0045 -1.0000 -0.0000
vn -0.0056 -1.0000 0.0012
vn -0.0061 -1.0000 0.0012
vn -0.0066 -1.0000 0.0011
vn -0.0067 -1.0000 0.0013
vn -0.0051 -1.0000 -0.0025
vn -0.0064 -1.0000 0.0006
vn -0.0045 -1.0000 -0.0023
vn -0.0002 -1.0000 0.0004
vn -0.0008 -1.0000 0.0001
vn -0.0004 -1.0000 0.0002
vn -0.0011 -1.0000 0.0001
vn -0.0015 -1.0000 0.0000
vn -0.0015 -1.0000 -0.0000
vn -0.0041 -1.0000 0.0022
vn -0.0136 -0.9999 0.0005
vn -0.0032 -1.0000 0.0039
vn -0.0023 -1.0000 0.0023
vn 0.0043 -1.0000 -0.0007
vn -0.0203 -0.9998 -0.0000
vn -0.0001 -1.0000 -0.0002
vn -0.0002 -1.0000 -0.0002
vn -0.1475 -0.9891 -0.0000
vn -0.0178 -0.9998 -0.0002
vn -1.0000 0.0000 -0.0000
vn -0.0019 -1.0000 -0.0000
vn -1.0000 -0.0000 -0.0000
vn -1.0000 -0.0002 -0.0000
vn -1.0000 0.0001 -0.0000
vn -1.0000 -0.0001 -0.0000
vn -0.0055 -1.0000 0.0076
vn 0.0002 -1.0000 -0.0023
vn 0.0135 -0.9988 0.0471
vn -0.0076 -1.0000 -0.0008
vn -0.0005 -1.0000 -0.0000
vn -0.0006 -1.0000 -0.0000
vn -0.0006 -1.0000 -0.0001
vn 0.0064 -1.0000 -0.0051
vn 0.0137 -0.9999 0.0035
vn 0.0131 -0.9999 0.0056
vn 0.0137 -0.9999 0.0049
vn 0.0126 -0.9999 0.0063
vn 0.0034 -0.9999 0.0093
vn 0.0110 -0.9999 0.0071
vn -0.0084 -0.9999 0.0110
vn -0.0227 -0.9997 0.0102
vn -0.0459 -0.9989 0.0034
vn -0.0626 -0.9980 -0.0036
vn -0.0489 -0.9988 0.0077
vn -0.0059 -0.9990 0.0449
vn 0.0154 -0.9976 0.0670
vn 0.0605 -0.9913 0.1169
vn 0.0468 -0.9941 0.0982
vn -0.0496 -0.9988 -0.0000
vn -0.0496 -0.9988 0.0000
vn -0.0068 -1.0000 0.0013
vn -0.0067 -1.0000 0.0012
vn -0.0037 -1.0000 0.0033
vn 0.0067 -1.0000 -0.0015
vn 0.0040 -1.0000 -0.0010
vn -0.0064 -1.0000 0.0043
vn -0.0461 -0.9989 0.0049
vn -0.0888 -0.9959 -0.0139
vn -0.0810 -0.9967 -0.0114
vn -0.0595 -0.9982 -0.0022
vn -0.0457 -0.9990 -0.0000
vn -0.0454 -0.9990 -0.0009
vn -0.0262 -0.9997 0.0005
vn -0.0661 -0.9978 0.0089
vn -0.0455 -0.9990 -0.0003
vn -0.0457 -0.9990 0.0007
vn -0.0453 -0.9990 -0.0001
vn -0.0459 -0.9989 -0.0017
vn -0.0461 -0.9989 -0.0020
vn -0.0461 -0.9989 0.0009
vn -0.0450 -0.9990 -0.0021
vn -0.0447 -0.9990 -0.0054
vn -0.0381 -0.9993 0.0052
vn -0.0337 -0.9994 0.0104
vn -0.0309 -0.9994 0.0147
vn -0.0310 -0.9994 0.0145
vn -0.0276 -0.9994 0.0193
vn -0.0254 -0.9994 0.0234
vn -0.0046 -1.0000 -0.0008
vn -0.0044 -1.0000 0.0005
vn -0.0056 -1.0000 -0.0012
vn -0.0061 -1.0000 -0.0012
vn -0.0066 -1.0000 -0.0011
vn -0.0067 -1.0000 -0.0013
vn -0.0051 -1.0000 0.0025
vn -0.0064 -1.0000 -0.0006
vn -0.0045 -1.0000 0.0023
vn -0.0002 -1.0000 -0.0004
vn -0.0008 -1.0000 -0.0001
vn -0.0004 -1.0000 -0.0002
vn -0.0011 -1.0000 -0.0001
vn -0.0136 -0.9999 -0.0005
vn -0.0041 -1.0000 -0.0022
vn -0.0032 -1.0000 -0.0039
vn 0.0043 -1.0000 0.0007
vn -0.0023 -1.0000 -0.0023
vn -0.0002 -1.0000 0.0002
vn -0.0001 -1.0000 0.0002
vn -0.0178 -0.9998 0.0002
vn -1.0000 -0.0003 -0.0000
vn -0.0055 -1.0000 -0.0076
vn 0.0135 -0.9988 -0.0471
vn 0.0002 -1.0000 0.0023
vn -0.0076 -1.0000 0.0008
vn -0.0006 -1.0000 0.0000
vn -0.0006 -1.0000 0.0001
vn 0.0137 -0.9999 -0.0035
vn 0.0137 -0.9999 -0.0040
vn 0.0131 -0.9999 -0.0056
vn 0.0137 -0.9999 -0.0049
vn 0.0126 -0.9999 -0.0063
vn 0.0034 -0.9999 -0.0093
vn 0.0111 -0.9999 -0.0071
vn -0.0084 -0.9999 -0.0110
vn -0.0227 -0.9997 -0.0102
vn -0.0459 -0.9989 -0.0034
vn -0.0626 -0.9980 0.0036
vn -0.0489 -0.9988 -0.0077
vn -0.0059 -0.9990 -0.0449
vn 0.0154 -0.9976 -0.0670
vn 0.0605 -0.9913 -0.1169
vn 0.0468 -0.9941 -0.0982
vn 0.0064 -1.0000 0.0051
vn -0.0068 -1.0000 -0.0013
vn -0.0067 -1.0000 -0.0012
vn -0.0037 -1.0000 -0.0033
vn 0.0040 -1.0000 0.0010
vn 0.0067 -1.0000 0.0015
vn -0.0064 -1.0000 -0.0043
vn -0.0461 -0.9989 -0.0049
vn -0.0888 -0.9959 0.0139
vn -0.0810 -0.9967 0.0114
vn -0.0595 -0.9982 0.0022
vn 0.0137 -0.9999 0.0040
# 161 vertex normals

g Z020_FLOR_C_N_Z020_FLOR_C
usemtl diffuse_black_plasticSG
s 1
f 1//1 2//2 3//3 
f 4//4 3//3 2//2 
f 5//5 6//6 3//3 
f 6//6 7//7 8//8 
f 5//5 3//3 9//9 
f 9//9 3//3 10//10 
f 10//10 3//3 11//11 
f 11//11 3//3 12//12 
f 13//13 14//14 12//12 
f 12//12 14//14 15//15 
f 15//15 14//14 16//16 
f 14//14 17//17 16//16 
f 16//16 17//17 18//18 
f 18//18 17//17 19//19 
s 4
f 20//20 21//21 22//22 
f 21//21 20//20 23//23 
f 24//24 20//20 25//25 
f 26//26 20//20 27//27 
f 28//28 20//20 22//22 
f 20//20 28//28 29//29 
f 28//28 22//22 30//30 
f 30//30 22//22 31//31 
f 31//31 22//22 32//32 
f 32//32 22//22 33//32 
f 33//32 22//22 34//33 
f 34//33 22//22 35//34 
f 35//34 22//22 36//35 
f 22//22 37//36 36//35 
f 20//20 38//37 39//38 
f 40//39 20//20 41//39 
f 39//38 42//40 43//41 
f 39//38 44//42 20//20 
f 20//20 44//42 23//23 
f 39//38 45//43 46//44 
f 46//44 47//44 39//38 
f 48//45 39//38 49//46 
f 39//38 47//44 49//46 
s 10
f 50//47 51//47 52//47 
f 52//47 51//47 53//47 
s 4
f 21//21 54//48 22//22 
f 54//48 51//48 50//48 
f 51//48 54//48 21//21 
s 10
f 55//49 50//47 56//49 
f 57//49 56//49 50//47 
f 57//49 50//47 58//50 
f 58//50 50//47 59//51 
f 60//52 59//51 50//47 
f 60//52 50//47 61//49 
f 61//49 50//47 62//47 
f 62//47 50//47 63//47 
f 63//47 50//47 64//47 
f 50//47 52//47 64//47 
s 12
f 64//53 65//54 63//55 
f 64//53 52//56 65//54 
f 53//57 65//54 52//56 
f 66//58 53//57 67//58 
f 68//59 69//59 53//57 
f 70//59 53//57 69//59 
f 71//60 72//61 65//54 
f 73//62 65//54 74//63 
f 73//62 75//64 65//54 
f 76//65 65//54 77//66 
f 76//65 78//67 65//54 
f 79//68 65//54 78//67 
f 79//68 80//69 65//54 
f 81//70 65//54 80//69 
f 81//70 82//71 65//54 
f 83//72 65//54 82//71 
f 83//72 60//73 65//54 
f 65//54 60//73 61//74 
f 65//54 62//75 63//55 
f 65//54 61//74 62//75 
s 4
f 6//76 84//77 3//76 
f 84//77 6//76 44//42 
f 39//38 84//77 44//42 
s 12
f 65//54 53//57 71//60 
s 4
f 20//20 85//78 27//27 
f 20//20 86//79 85//78 
f 20//20 29//29 86//79 
f 87//26 20//20 26//26 
f 25//25 20//20 87//26 
f 88//80 20//20 89//24 
f 89//24 20//20 24//24 
f 41//39 20//20 88//80 
f 38//37 20//20 40//39 
f 39//38 90//81 91//82 
f 39//38 91//82 45//43 
f 39//38 43//41 90//81 
f 39//38 92//83 42//40 
f 39//38 38//37 92//83 
s 1
f 13//13 3//3 93//84 
f 94//85 3//3 4//4 
f 95//86 3//3 94//85 
f 93//84 3//3 96//87 
f 96//87 3//3 95//86 
f 12//12 3//3 13//13 
f 6//6 5//5 7//7 
f 6//6 8//8 97//88 
f 98//1 99//89 100//90 
f 101//91 100//90 99//89 
f 102//92 99//89 6//6 
f 6//6 103//93 104//94 
f 102//92 105//95 99//89 
f 105//95 106//96 99//89 
f 106//96 107//97 99//89 
f 107//97 108//98 99//89 
f 109//99 108//98 110//100 
f 108//98 111//101 110//100 
f 111//101 112//102 110//100 
f 110//100 112//102 113//103 
f 112//102 114//104 113//103 
f 114//104 115//105 113//103 
s 4
f 116//106 117//107 21//21 
f 21//21 23//23 116//106 
f 118//108 119//109 116//106 
f 120//110 121//111 116//106 
f 122//112 117//107 116//106 
f 116//106 123//113 122//112 
f 122//112 124//114 117//107 
f 124//114 125//115 117//107 
f 125//115 126//116 117//107 
f 126//116 127//116 117//107 
f 127//116 128//117 117//107 
f 128//117 129//118 117//107 
f 129//118 130//36 117//107 
f 117//107 130//36 131//36 
f 116//106 132//119 133//120 
f 134//121 135//121 116//106 
f 132//119 136//122 137//123 
f 132//119 116//106 44//42 
f 116//106 23//23 44//42 
f 132//119 138//124 139//125 
f 138//124 132//119 140//124 
f 141//45 142//126 132//119 
f 132//119 142//126 140//124 
s 10
f 143//49 144//49 51//47 
f 144//49 53//47 51//47 
s 4
f 21//21 117//107 145//48 
f 145//48 143//48 51//48 
f 51//48 21//21 145//48 
s 10
f 146//47 147//47 143//49 
f 148//47 143//49 147//47 
f 148//47 149//127 143//49 
f 149//127 150//51 143//49 
f 151//52 143//49 150//51 
f 151//52 152//47 143//49 
f 152//47 153//47 143//49 
f 153//47 154//47 143//49 
f 154//47 155//49 143//49 
f 143//49 155//49 144//49 
s 12
f 155//128 154//129 156//130 
f 155//128 156//130 144//131 
f 53//57 144//131 156//130 
f 157//132 67//58 53//57 
f 158//133 53//57 159//133 
f 160//133 159//133 53//57 
f 161//134 156//130 162//135 
f 163//136 164//137 156//130 
f 163//136 156//130 165//138 
f 166//139 167//140 156//130 
f 166//139 156//130 168//141 
f 169//142 168//141 156//130 
f 169//142 156//130 170//143 
f 171//144 170//143 156//130 
f 171//144 156//130 172//145 
f 173//146 172//145 156//130 
f 173//146 156//130 151//147 
f 156//130 152//148 151//147 
f 156//130 154//129 153//149 
f 156//130 153//149 152//148 
s 4
f 6//76 99//76 174//76 
f 174//76 44//42 6//76 
f 132//119 44//42 174//76 
s 12
f 156//130 175//150 53//57 
s 4
f 116//106 121//111 176//151 
f 116//106 176//151 177//152 
f 116//106 177//152 123//113 
f 178//110 120//110 116//106 
f 119//109 178//110 116//106 
f 179//153 180//108 116//106 
f 180//108 118//108 116//106 
f 135//121 179//153 116//106 
f 133//120 134//121 116//106 
f 132//119 181//154 182//155 
f 132//119 139//125 181//154 
f 132//119 182//155 136//122 
f 132//119 137//123 183//156 
f 132//119 183//156 133//120 
s 1
f 109//99 184//157 99//89 
f 185//158 101//91 99//89 
f 186//159 185//158 99//89 
f 184//157 187//160 99//89 
f 187//160 186//159 99//89 
f 108//98 109//99 99//89 
f 6//6 104//94 102//92 
f 6//6 97//88 103//93 
s 12
f 72//61 188//161 65//54 
f 71//60 53//57 70//59 
f 189//59 68//59 53//57 
f 189//59 53//57 66//58 
f 190//133 157//132 53//57 
f 190//133 53//57 158//133 
f 175//150 160//133 53//57 
f 175//150 156//130 161//134 
f 75//64 77//66 65//54 
f 74//63 65//54 188//161 
f 164//137 162//135 156//130 
f 165//138 156//130 167//140 
# 208 faces

