# 3ds Max Wavefront OBJ Exporter v0.97b - (c)2007 guruware
# File Created: 11.01.2016 11:22:04

mtllib Z020_265B_L.mtl

#
# object Z020_265B_L_DTaSI_Z020_265B_L
#

v  20.0805 63.4482 -83.1578
v  29.6034 63.2489 -83.0748
v  20.0805 53.6766 -84.9115
v  29.6034 53.3663 -84.8538
v  79.8227 43.4763 -85.9273
v  66.8159 44.4088 -85.9485
v  79.8227 50.8252 -84.7122
v  66.8159 51.8374 -84.6832
v  -11.5596 85.5781 -77.7075
v  -0.1177 85.6545 -77.6773
v  -9.8961 75.4675 -80.4487
v  0.4234 75.2735 -80.4729
v  1.0228 63.7778 -83.2119
v  11.3872 63.6206 -83.2048
v  1.5287 54.0727 -84.9368
v  11.3872 53.8868 -84.9381
v  66.8159 80.3098 -78.0151
v  79.8227 73.5838 -79.5113
v  66.8159 73.8820 -79.9258
v  79.8227 68.4892 -80.9604
v  66.8159 82.1265 -77.2152
v  79.8227 75.8611 -78.5911
v  29.6034 93.0051 -75.2542
v  20.0805 94.0280 -75.0471
v  29.6034 95.0319 -74.4906
v  20.0805 96.2210 -74.2402
v  -14.3911 63.9292 -83.2409
v  -7.9436 63.8954 -83.2202
v  -12.5298 54.3400 -84.9303
v  -6.3865 54.2231 -84.9331
v  -18.4144 85.4806 -77.7418
v  -16.5128 75.2943 -80.5173
v  -12.9803 94.6573 -74.8511
v  -20.1193 94.6126 -74.8410
v  -13.1451 96.5209 -74.0283
v  -20.4462 96.3636 -74.0201
v  41.5948 62.1929 -83.1037
v  41.5948 52.9674 -84.7820
v  54.4250 45.2429 -85.9653
v  54.4250 52.5541 -84.7017
v  20.0805 47.0970 -85.9837
v  11.3872 47.4293 -85.9736
v  1.8617 47.6850 -85.9508
v  -5.3796 47.8719 -85.9327
v  -11.2894 48.0245 -85.9179
v  79.8227 64.0623 -82.0174
v  66.8159 67.8689 -81.3464
v  66.8159 59.7281 -83.2684
v  54.4250 61.3666 -83.1055
v  97.2000 49.4729 -84.7509
v  89.8073 50.0482 -84.7344
v  96.9723 54.7233 -83.9215
v  89.8073 55.7064 -83.8150
v  97.5150 42.2077 -85.8985
v  89.8073 42.7603 -85.9110
v  89.8073 68.0014 -80.7078
v  89.8073 70.6542 -79.7250
v  89.8073 63.7612 -81.9128
v  89.8073 60.6853 -82.6457
v  20.0805 85.0958 -77.7396
v  11.3872 85.5975 -77.6866
v  11.3872 94.8096 -74.8854
v  41.5948 81.5138 -78.4151
v  29.6034 83.6620 -78.0135
v  41.5948 90.9045 -75.6849
v  54.4250 77.7347 -79.2219
v  54.4250 86.1872 -76.6863
v  96.9422 58.2110 -83.1110
v  96.9246 60.2474 -82.6378
v  11.3872 74.9315 -80.5261
v  96.8647 67.1964 -80.4590
v  96.8911 64.1318 -81.5095
v  79.8227 57.8621 -83.4810
v  54.4250 87.9055 -75.9451
v  54.4250 69.9235 -81.1282
v  41.5948 92.8902 -74.9323
v  41.5948 72.0146 -80.8651
v  41.5948 45.9355 -85.9722
v  29.6034 73.6502 -80.6244
v  29.6034 46.5829 -85.9786
v  20.0805 74.3658 -80.5703
v  11.3872 97.0492 -74.0560
v  -0.5911 94.7347 -74.8685
v  -0.6982 96.7889 -74.0424
# 84 vertices

vn 0.0108 0.2048 -0.9787
vn 0.0132 0.2036 -0.9790
vn 0.0093 0.1702 -0.9854
vn 0.0117 0.1717 -0.9851
vn 0.0125 0.1624 -0.9866
vn 0.0121 0.1671 -0.9859
vn 0.0103 0.1673 -0.9858
vn 0.0111 0.1722 -0.9850
vn 0.0001 0.2804 -0.9599
vn 0.0003 0.2770 -0.9609
vn 0.0026 0.2475 -0.9689
vn 0.0024 0.2456 -0.9694
vn 0.0034 0.2065 -0.9784
vn 0.0063 0.2053 -0.9787
vn 0.0029 0.1681 -0.9858
vn 0.0050 0.1687 -0.9857
vn 0.0486 0.3117 -0.9489
vn 0.0523 0.3044 -0.9511
vn 0.0279 0.2586 -0.9656
vn 0.0277 0.2530 -0.9671
vn 0.0941 0.4009 -0.9113
vn 0.0880 0.3742 -0.9231
vn 0.0159 0.2977 -0.9545
vn 0.0111 0.3007 -0.9537
vn 0.0231 0.3519 -0.9357
vn 0.0159 0.3454 -0.9383
vn 0.0042 0.2106 -0.9776
vn 0.0035 0.2080 -0.9781
vn 0.0030 0.1682 -0.9858
vn 0.0027 0.1677 -0.9858
vn -0.0000 0.2833 -0.9590
vn 0.0031 0.2488 -0.9685
vn -0.0035 0.3192 -0.9477
vn -0.0044 0.3267 -0.9451
vn -0.0079 0.4045 -0.9145
vn -0.0101 0.4229 -0.9061
vn 0.0142 0.2009 -0.9795
vn 0.0113 0.1734 -0.9848
vn 0.0108 0.1699 -0.9854
vn 0.0111 0.1742 -0.9846
vn 0.0080 0.1614 -0.9869
vn 0.0039 0.1588 -0.9873
vn 0.0021 0.1572 -0.9876
vn 0.0019 0.1561 -0.9877
vn 0.0020 0.1554 -0.9879
vn 0.0171 0.2307 -0.9729
vn 0.0185 0.2293 -0.9732
vn 0.0138 0.2033 -0.9790
vn 0.0141 0.2023 -0.9792
vn 0.0110 0.1574 -0.9875
vn 0.0105 0.1600 -0.9871
vn 0.0115 0.1817 -0.9833
vn 0.0113 0.1913 -0.9815
vn 0.0128 0.1566 -0.9876
vn 0.0124 0.1587 -0.9872
vn 0.0519 0.2987 -0.9529
vn 0.0796 0.3481 -0.9341
vn 0.0289 0.2547 -0.9666
vn 0.0163 0.2298 -0.9731
vn 0.0111 0.2707 -0.9626
vn 0.0048 0.2735 -0.9619
vn 0.0030 0.3037 -0.9528
vn 0.0182 0.2659 -0.9638
vn 0.0140 0.2674 -0.9635
vn 0.0270 0.2951 -0.9551
vn 0.0234 0.2638 -0.9643
vn 0.0385 0.3052 -0.9515
vn 0.0159 0.2272 -0.9737
vn 0.0272 0.2528 -0.9671
vn 0.0064 0.2436 -0.9698
vn 0.0706 0.3276 -0.9422
vn 0.0487 0.2906 -0.9556
vn 0.0122 0.1994 -0.9798
vn 0.0791 0.3925 -0.9163
vn 0.0180 0.2298 -0.9731
vn 0.0434 0.3539 -0.9343
vn 0.0150 0.2355 -0.9718
vn 0.0103 0.1675 -0.9858
vn 0.0128 0.2407 -0.9705
vn 0.0101 0.1642 -0.9864
vn 0.0114 0.2423 -0.9701
vn 0.0030 0.3489 -0.9371
vn -0.0029 0.3111 -0.9504
vn -0.0066 0.3743 -0.9273
# 84 vertex normals

vt 0.5816 0.9081 0.0000
vt 0.6150 0.9075 0.0000
vt 0.5828 0.9428 0.0000
vt 0.6163 0.9427 0.0000
vt 0.7937 0.9711 0.0000
vt 0.7480 0.9695 0.0000
vt 0.7928 0.9450 0.0000
vt 0.7470 0.9432 0.0000
vt 0.4678 0.8320 0.0000
vt 0.5079 0.8303 0.0000
vt 0.4749 0.8686 0.0000
vt 0.5111 0.8680 0.0000
vt 0.5147 0.9094 0.0000
vt 0.5511 0.9086 0.0000
vt 0.5177 0.9438 0.0000
vt 0.5523 0.9432 0.0000
vt 0.7434 0.8406 0.0000
vt 0.7899 0.8631 0.0000
vt 0.7442 0.8641 0.0000
vt 0.7905 0.8817 0.0000
vt 0.7432 0.8337 0.0000
vt 0.7896 0.8546 0.0000
vt 0.6112 0.7996 0.0000
vt 0.5777 0.7971 0.0000
vt 0.6110 0.7920 0.0000
vt 0.5774 0.7890 0.0000
vt 0.4606 0.9108 0.0000
vt 0.4832 0.9101 0.0000
vt 0.4683 0.9446 0.0000
vt 0.4899 0.9443 0.0000
vt 0.4437 0.8332 0.0000
vt 0.4517 0.8700 0.0000
vt 0.4616 0.7989 0.0000
vt 0.4366 0.7999 0.0000
vt 0.4608 0.7918 0.0000
vt 0.4352 0.7933 0.0000
vt 0.6572 0.9097 0.0000
vt 0.6584 0.9425 0.0000
vt 0.7044 0.9682 0.0000
vt 0.7034 0.9423 0.0000
vt 0.5836 0.9661 0.0000
vt 0.5531 0.9661 0.0000
vt 0.5197 0.9663 0.0000
vt 0.4942 0.9666 0.0000
vt 0.4735 0.9668 0.0000
vt 0.7911 0.8977 0.0000
vt 0.7450 0.8858 0.0000
vt 0.7460 0.9151 0.0000
vt 0.7023 0.9109 0.0000
vt 0.8539 0.9475 0.0000
vt 0.8279 0.9465 0.0000
vt 0.8524 0.9290 0.0000
vt 0.8272 0.9264 0.0000
vt 0.8559 0.9732 0.0000
vt 0.8288 0.9722 0.0000
vt 0.8256 0.8819 0.0000
vt 0.8253 0.8721 0.0000
vt 0.8262 0.8974 0.0000
vt 0.8266 0.9085 0.0000
vt 0.5788 0.8298 0.0000
vt 0.5483 0.8291 0.0000
vt 0.5471 0.7954 0.0000
vt 0.6548 0.8399 0.0000
vt 0.6124 0.8338 0.0000
vt 0.6536 0.8056 0.0000
vt 0.7003 0.8519 0.0000
vt 0.6992 0.8210 0.0000
vt 0.8519 0.9164 0.0000
vt 0.8516 0.9091 0.0000
vt 0.5496 0.8679 0.0000
vt 0.8505 0.8836 0.0000
vt 0.8510 0.8949 0.0000
vt 0.7919 0.9200 0.0000
vt 0.6990 0.8145 0.0000
vt 0.7012 0.8801 0.0000
vt 0.6533 0.7982 0.0000
vt 0.6560 0.8744 0.0000
vt 0.6593 0.9674 0.0000
vt 0.6137 0.8701 0.0000
vt 0.6171 0.9667 0.0000
vt 0.5802 0.8687 0.0000
vt 0.5468 0.7870 0.0000
vt 0.5051 0.7971 0.0000
vt 0.5044 0.7894 0.0000
# 84 texture coords

g Z020_265B_L_DTaSI_Z020_265B_L
usemtl windowglass_1SG
s 1
f 1/1/1 2/2/2 3/3/3 
f 3/3/3 2/2/2 4/4/4 
f 5/5/5 6/6/6 7/7/7 
f 7/7/7 6/6/6 8/8/8 
f 9/9/9 10/10/10 11/11/11 
f 11/11/11 10/10/10 12/12/12 
f 13/13/13 14/14/14 15/15/15 
f 15/15/15 14/14/14 16/16/16 
f 17/17/17 18/18/18 19/19/19 
f 19/19/19 18/18/18 20/20/20 
f 21/21/21 22/22/22 17/17/17 
f 17/17/17 22/22/22 18/18/18 
f 23/23/23 24/24/24 25/25/25 
f 25/25/25 24/24/24 26/26/26 
f 27/27/27 28/28/28 29/29/29 
f 29/29/29 28/28/28 30/30/30 
f 31/31/31 9/9/9 32/32/32 
f 32/32/32 9/9/9 11/11/11 
f 33/33/33 34/34/34 35/35/35 
f 35/35/35 34/34/34 36/36/36 
f 2/2/2 37/37/37 4/4/4 
f 4/4/4 37/37/37 38/38/38 
f 28/28/28 13/13/13 30/30/30 
f 30/30/30 13/13/13 15/15/15 
f 6/6/6 39/39/39 8/8/8 
f 8/8/8 39/39/39 40/40/40 
f 41/41/41 42/42/42 3/3/3 
f 3/3/3 42/42/42 16/16/16 
f 15/15/15 16/16/16 43/43/43 
f 43/43/43 16/16/16 42/42/42 
f 30/30/30 15/15/15 44/44/44 
f 44/44/44 15/15/15 43/43/43 
f 29/29/29 30/30/30 45/45/45 
f 45/45/45 30/30/30 44/44/44 
f 46/46/46 47/47/47 20/20/20 
f 20/20/20 47/47/47 19/19/19 
f 8/8/8 40/40/40 48/48/48 
f 48/48/48 40/40/40 49/49/49 
f 50/50/50 51/51/51 52/52/52 
f 52/52/52 51/51/51 53/53/53 
f 54/54/54 55/55/55 50/50/50 
f 50/50/50 55/55/55 51/51/51 
f 56/56/56 18/18/18 57/57/57 
f 57/57/57 18/18/18 22/22/22 
f 18/18/18 56/56/56 20/20/20 
f 20/20/20 56/56/56 58/58/58 
f 59/59/59 46/46/46 58/58/58 
f 58/58/58 46/46/46 20/20/20 
f 9/9/9 31/31/31 33/33/33 
f 33/33/33 31/31/31 34/34/34 
f 60/60/60 61/61/61 24/24/24 
f 24/24/24 61/61/61 62/62/62 
f 63/63/63 64/64/64 65/65/65 
f 65/65/65 64/64/64 23/23/23 
f 66/66/66 63/63/63 67/67/67 
f 67/67/67 63/63/63 65/65/65 
f 68/68/68 59/59/59 69/69/69 
f 69/69/69 59/59/59 58/58/58 
f 12/12/12 70/70/70 13/13/13 
f 13/13/13 70/70/70 14/14/14 
f 32/32/32 11/11/11 27/27/27 
f 27/27/27 11/11/11 28/28/28 
f 57/57/57 71/71/71 56/56/56 
f 56/56/56 71/71/71 72/72/72 
f 56/56/56 72/72/72 58/58/58 
f 58/58/58 72/72/72 69/69/69 
f 59/59/59 68/68/68 53/53/53 
f 53/53/53 68/68/68 52/52/52 
f 55/55/55 5/5/5 51/51/51 
f 51/51/51 5/5/5 7/7/7 
f 73/73/73 53/53/53 7/7/7 
f 7/7/7 53/53/53 51/51/51 
f 46/46/46 59/59/59 73/73/73 
f 73/73/73 59/59/59 53/53/53 
f 17/17/17 67/67/67 21/21/21 
f 21/21/21 67/67/67 74/74/74 
f 47/47/47 46/46/46 48/48/48 
f 48/48/48 46/46/46 73/73/73 
f 47/47/47 75/75/75 19/19/19 
f 19/19/19 75/75/75 66/66/66 
f 19/19/19 66/66/66 17/17/17 
f 17/17/17 66/66/66 67/67/67 
f 75/75/75 47/47/47 49/49/49 
f 49/49/49 47/47/47 48/48/48 
f 76/76/76 74/74/74 65/65/65 
f 65/65/65 74/74/74 67/67/67 
f 25/25/25 76/76/76 23/23/23 
f 23/23/23 76/76/76 65/65/65 
f 75/75/75 77/77/77 66/66/66 
f 66/66/66 77/77/77 63/63/63 
f 39/39/39 78/78/78 40/40/40 
f 40/40/40 78/78/78 38/38/38 
f 37/37/37 49/49/49 38/38/38 
f 38/38/38 49/49/49 40/40/40 
f 77/77/77 75/75/75 37/37/37 
f 37/37/37 75/75/75 49/49/49 
f 64/64/64 63/63/63 79/79/79 
f 79/79/79 63/63/63 77/77/77 
f 78/78/78 80/80/80 38/38/38 
f 38/38/38 80/80/80 4/4/4 
f 37/37/37 2/2/2 77/77/77 
f 77/77/77 2/2/2 79/79/79 
f 3/3/3 16/16/16 1/1/1 
f 1/1/1 16/16/16 14/14/14 
f 60/60/60 64/64/64 81/81/81 
f 81/81/81 64/64/64 79/79/79 
f 82/82/82 26/26/26 62/62/62 
f 62/62/62 26/26/26 24/24/24 
f 3/3/3 4/4/4 41/41/41 
f 41/41/41 4/4/4 80/80/80 
f 64/64/64 60/60/60 23/23/23 
f 23/23/23 60/60/60 24/24/24 
f 2/2/2 1/1/1 79/79/79 
f 79/79/79 1/1/1 81/81/81 
f 61/61/61 60/60/60 70/70/70 
f 70/70/70 60/60/60 81/81/81 
f 62/62/62 83/83/83 82/82/82 
f 82/82/82 83/83/83 84/84/84 
f 61/61/61 10/10/10 62/62/62 
f 62/62/62 10/10/10 83/83/83 
f 70/70/70 81/81/81 14/14/14 
f 14/14/14 81/81/81 1/1/1 
f 10/10/10 61/61/61 12/12/12 
f 12/12/12 61/61/61 70/70/70 
f 11/11/11 12/12/12 28/28/28 
f 28/28/28 12/12/12 13/13/13 
f 35/35/35 84/84/84 33/33/33 
f 33/33/33 84/84/84 83/83/83 
f 10/10/10 9/9/9 83/83/83 
f 83/83/83 9/9/9 33/33/33 
f 7/7/7 8/8/8 73/73/73 
f 73/73/73 8/8/8 48/48/48 
# 132 faces

