# 3ds Max Wavefront OBJ Exporter v0.97b - (c)2007 guruware
# File Created: 11.01.2016 11:16:45

mtllib Z020_18A5_L.mtl

#
# object Z020_18A5_L_DaS_Z020_18A5_L
#

v  38.4207 99.4527 -73.9184
v  38.5611 99.5485 -73.6655
v  48.8714 96.8615 -74.5118
v  49.0070 96.9732 -74.2527
v  48.6191 96.6588 -74.7511
v  48.2854 96.3939 -74.8998
v  38.1460 99.2505 -74.1732
v  37.8093 98.9930 -74.3297
v  58.2535 93.0561 -75.5704
v  57.9702 92.7778 -75.7151
v  -33.6861 104.1551 -72.8428
v  -33.7257 103.6919 -73.0443
v  -49.5468 103.9848 -72.6644
v  -49.5663 103.4870 -72.8841
v  -17.9981 104.0970 -72.9952
v  -18.0408 103.6684 -73.1836
v  -33.6652 104.4009 -72.5847
v  -33.6577 104.4923 -72.3433
v  -17.9630 104.3402 -72.7358
v  -17.9400 104.4272 -72.4970
v  -49.5434 104.2305 -72.4053
v  -49.5481 104.3227 -72.1621
v  -2.9317 99.7793 -74.2898
v  -2.8977 100.4491 -74.1176
v  11.3611 99.3663 -74.3978
v  11.4613 99.9815 -74.2407
v  -18.2997 99.8237 -74.2567
v  -18.2542 100.5227 -74.0684
v  -65.0368 98.4195 -74.1836
v  -65.0814 99.2220 -73.9357
v  -49.7599 99.1721 -74.1984
v  -49.7225 99.9364 -73.9736
v  35.0998 96.8693 -75.0517
v  35.6406 97.2701 -74.9195
v  45.4901 94.4429 -75.5826
v  46.0896 94.7913 -75.4547
v  39.0691 99.8811 -71.5793
v  39.0913 99.8956 -71.4466
v  49.5522 97.3239 -72.0770
v  49.5766 97.3388 -71.9386
v  49.4620 97.2684 -72.4664
v  38.9869 99.8277 -71.9516
v  49.2565 97.1420 -73.3537
v  38.7996 99.7060 -72.7999
v  59.2026 93.6407 -72.8453
v  59.0960 93.5896 -73.2447
v  -2.3890 104.5764 -70.4549
v  -2.3793 104.5961 -70.3198
v  12.4571 103.7535 -70.7119
v  12.4713 103.7719 -70.5776
v  -17.8302 104.8782 -70.2672
v  -17.8251 104.8989 -70.1315
v  -2.4248 104.5034 -70.8463
v  -17.8486 104.8017 -70.6672
v  -2.5063 104.3370 -71.7381
v  -17.8907 104.6272 -71.5787
v  12.4044 103.6858 -71.0935
v  -65.5204 104.4604 -69.5413
v  -49.6222 104.8411 -69.7504
v  -65.5152 104.4353 -69.6779
v  -49.6187 104.8182 -69.8878
v  -65.4958 104.3424 -70.0834
v  -49.6057 104.7336 -70.2961
v  23.8809 98.4533 -74.6542
v  24.2026 98.9610 -74.5114
v  25.7687 101.4422 -73.6981
v  25.5447 101.1451 -73.8597
v  25.9639 101.6613 -73.4353
v  26.0694 101.7469 -73.1917
v  12.0825 103.2704 -73.0818
v  12.1451 103.3517 -72.8450
v  11.9895 103.0361 -73.3444
v  11.8959 102.6797 -73.5133
v  26.2643 101.9117 -72.3268
v  26.4213 102.0471 -71.4780
v  12.2844 103.5314 -71.9632
v  -33.8564 102.0413 -73.5439
v  -33.9879 100.3608 -74.0191
v  -49.6426 101.7266 -73.4410
v  -18.1500 102.1111 -73.6390
v  47.2042 95.5846 -75.1930
v  36.7290 98.1325 -74.6425
v  57.1004 91.9000 -76.0080
v  56.2367 91.0246 -76.2750
v  39.0987 99.9004 -71.3171
v  26.5151 102.1278 -70.8445
v  26.5089 102.1225 -70.9731
v  12.4761 103.7780 -70.4500
v  -2.3761 104.6027 -70.1967
v  -17.8235 104.9058 -70.0128
v  -49.6233 104.8487 -69.6327
v  -65.5221 104.4688 -69.4239
v  59.2350 93.6531 -72.7030
v  59.2557 93.6535 -72.5643
v  49.5847 97.3439 -71.8044
v  -2.6370 104.0633 -72.8752
v  -2.5986 104.1461 -72.6389
v  -2.6870 103.8235 -73.1360
v  -2.7331 103.4258 -73.3140
v  -34.0450 99.6308 -74.2245
v  -33.6515 104.7008 -71.4125
v  -33.6494 104.8825 -70.4872
v  -49.5761 104.5409 -71.2265
v  -2.8208 101.9535 -73.7299
v  11.6722 101.3450 -73.8925
v  -33.6482 104.9911 -69.8270
v  -33.6482 104.9839 -69.9444
v  -65.3773 103.5740 -72.4451
v  -65.3414 103.0441 -72.6910
v  -65.3972 103.8137 -72.1815
v  -65.4079 103.8997 -71.9382
v  -65.2109 101.1493 -73.3266
v  58.8996 93.5228 -74.1584
v  58.6171 93.3654 -75.0765
v  -65.4518 104.1306 -71.0074
v  26.4902 102.1064 -71.1055
v  -33.6485 104.9623 -70.0812
v  58.4792 93.2592 -75.3354
v  55.8331 90.6176 -76.4132
v  24.8702 100.0620 -74.2029
# 120 vertices

vn 0.1417 0.8021 -0.5802
vn 0.1827 0.9442 -0.2740
vn 0.1913 0.7589 -0.6225
vn 0.2589 0.9162 -0.3059
vn 0.1111 0.5530 -0.8257
vn 0.0397 0.3360 -0.9410
vn 0.0883 0.6023 -0.7934
vn 0.0320 0.3553 -0.9342
vn 0.1344 0.5470 -0.8263
vn 0.0441 0.3297 -0.9430
vn -0.0108 0.5453 -0.8382
vn -0.0104 0.3156 -0.9488
vn -0.0204 0.5424 -0.8399
vn -0.0168 0.3258 -0.9453
vn -0.0020 0.5556 -0.8315
vn -0.0052 0.3088 -0.9511
vn -0.0087 0.8293 -0.5587
vn -0.0058 0.9688 -0.2477
vn 0.0039 0.8337 -0.5522
vn 0.0086 0.9704 -0.2412
vn -0.0222 0.8298 -0.5576
vn -0.0209 0.9667 -0.2549
vn -0.0011 0.2492 -0.9685
vn -0.0015 0.2498 -0.9683
vn -0.0009 0.2475 -0.9689
vn -0.0007 0.2476 -0.9689
vn -0.0036 0.2605 -0.9655
vn -0.0042 0.2612 -0.9653
vn -0.0183 0.2945 -0.9555
vn -0.0195 0.2988 -0.9541
vn -0.0128 0.2829 -0.9591
vn -0.0137 0.2852 -0.9584
vn 0.0126 0.2973 -0.9547
vn 0.0145 0.2903 -0.9568
vn 0.0267 0.3034 -0.9525
vn 0.0245 0.2892 -0.9570
vn 0.1948 0.9660 -0.1700
vn 0.1993 0.9754 -0.0940
vn 0.2824 0.9410 -0.1867
vn 0.2902 0.9513 -0.1037
vn 0.2785 0.9400 -0.1970
vn 0.1934 0.9642 -0.1812
vn 0.2731 0.9356 -0.2236
vn 0.1908 0.9603 -0.2037
vn 0.3362 0.9216 -0.1941
vn 0.3364 0.9245 -0.1791
vn 0.0343 0.9838 -0.1762
vn 0.0357 0.9940 -0.1031
vn 0.0809 0.9814 -0.1741
vn 0.0833 0.9917 -0.0983
vn 0.0100 0.9838 -0.1790
vn 0.0111 0.9941 -0.1082
vn 0.0337 0.9819 -0.1862
vn 0.0097 0.9821 -0.1884
vn 0.0330 0.9796 -0.1984
vn 0.0093 0.9796 -0.2009
vn 0.0798 0.9795 -0.1848
vn -0.0323 0.9908 -0.1313
vn -0.0179 0.9927 -0.1191
vn -0.0333 0.9763 -0.2138
vn -0.0190 0.9809 -0.1938
vn -0.0341 0.9739 -0.2244
vn -0.0197 0.9788 -0.2036
vn 0.0020 0.2693 -0.9631
vn 0.0035 0.2676 -0.9635
vn 0.0617 0.6085 -0.7912
vn 0.0174 0.3370 -0.9414
vn 0.1026 0.8267 -0.5532
vn 0.1295 0.9593 -0.2511
vn 0.0594 0.8374 -0.5434
vn 0.0756 0.9680 -0.2391
vn 0.0322 0.5870 -0.8090
vn 0.0057 0.3096 -0.9508
vn 0.1343 0.9710 -0.1976
vn 0.1362 0.9741 -0.1804
vn 0.0784 0.9771 -0.1978
vn -0.0095 0.2817 -0.9595
vn -0.0085 0.2726 -0.9621
vn -0.0151 0.2941 -0.9557
vn -0.0050 0.2711 -0.9625
vn 0.0262 0.2949 -0.9552
vn 0.0191 0.3027 -0.9529
vn 0.0276 0.2866 -0.9577
vn 0.0259 0.2799 -0.9597
vn 0.2010 0.9784 -0.0481
vn 0.1426 0.9886 -0.0478
vn 0.1411 0.9855 -0.0940
vn 0.0843 0.9952 -0.0506
vn 0.0364 0.9979 -0.0544
vn 0.0117 0.9982 -0.0583
vn -0.0173 0.9977 -0.0648
vn -0.0317 0.9969 -0.0714
vn 0.3471 0.9317 -0.1071
vn 0.3522 0.9343 -0.0557
vn 0.2921 0.9549 -0.0534
vn 0.0234 0.8378 -0.5455
vn 0.0317 0.9710 -0.2371
vn 0.0102 0.5681 -0.8229
vn -0.0005 0.3035 -0.9528
vn -0.0078 0.2716 -0.9624
vn -0.0052 0.9786 -0.2057
vn -0.0047 0.9812 -0.1928
vn -0.0203 0.9763 -0.2156
vn -0.0017 0.2610 -0.9653
vn 0.0009 0.2608 -0.9654
vn -0.0026 0.9981 -0.0610
vn -0.0032 0.9937 -0.1124
vn -0.0300 0.5486 -0.8356
vn -0.0236 0.3402 -0.9401
vn -0.0356 0.8415 -0.5391
vn -0.0355 0.9646 -0.2614
vn -0.0213 0.3084 -0.9510
vn 0.3294 0.9204 -0.2107
vn 0.3111 0.8988 -0.3088
vn -0.0349 0.9718 -0.2330
vn 0.1376 0.9759 -0.1695
vn -0.0042 0.9830 -0.1836
vn 0.2284 0.7507 -0.6199
vn -0.0658 0.0382 -0.9971
vn 0.0075 0.2824 -0.9593
# 120 vertex normals

vt 0.5593 0.7190 0.0000
vt 0.5595 0.7185 0.0000
vt 0.5796 0.7223 0.0000
vt 0.5799 0.7218 0.0000
vt 0.5791 0.7230 0.0000
vt 0.5785 0.7236 0.0000
vt 0.5587 0.7197 0.0000
vt 0.5581 0.7203 0.0000
vt 0.5979 0.7273 0.0000
vt 0.5974 0.7279 0.0000
vt 0.4186 0.7087 0.0000
vt 0.4186 0.7096 0.0000
vt 0.3877 0.7075 0.0000
vt 0.3877 0.7085 0.0000
vt 0.4492 0.7101 0.0000
vt 0.4492 0.7110 0.0000
vt 0.4187 0.7080 0.0000
vt 0.4187 0.7075 0.0000
vt 0.4493 0.7094 0.0000
vt 0.4493 0.7089 0.0000
vt 0.3877 0.7068 0.0000
vt 0.3877 0.7063 0.0000
vt 0.4786 0.7198 0.0000
vt 0.4787 0.7185 0.0000
vt 0.5065 0.7212 0.0000
vt 0.5067 0.7200 0.0000
vt 0.4486 0.7187 0.0000
vt 0.4487 0.7173 0.0000
vt 0.3575 0.7171 0.0000
vt 0.3574 0.7155 0.0000
vt 0.3873 0.7173 0.0000
vt 0.3874 0.7157 0.0000
vt 0.5528 0.7249 0.0000
vt 0.5538 0.7240 0.0000
vt 0.5730 0.7280 0.0000
vt 0.5742 0.7272 0.0000
vt 0.5605 0.7145 0.0000
vt 0.5606 0.7143 0.0000
vt 0.5810 0.7178 0.0000
vt 0.5810 0.7175 0.0000
vt 0.5808 0.7185 0.0000
vt 0.5604 0.7152 0.0000
vt 0.5804 0.7202 0.0000
vt 0.5600 0.7168 0.0000
vt 0.5998 0.7221 0.0000
vt 0.5996 0.7228 0.0000
vt 0.4797 0.7062 0.0000
vt 0.4797 0.7059 0.0000
vt 0.5086 0.7085 0.0000
vt 0.5087 0.7082 0.0000
vt 0.4496 0.7045 0.0000
vt 0.4496 0.7042 0.0000
vt 0.4796 0.7069 0.0000
vt 0.4495 0.7052 0.0000
vt 0.4794 0.7087 0.0000
vt 0.4494 0.7071 0.0000
vt 0.5085 0.7092 0.0000
vt 0.3566 0.7005 0.0000
vt 0.3876 0.7014 0.0000
vt 0.3566 0.7007 0.0000
vt 0.3876 0.7017 0.0000
vt 0.3566 0.7016 0.0000
vt 0.3876 0.7025 0.0000
vt 0.5309 0.7228 0.0000
vt 0.5315 0.7217 0.0000
vt 0.5346 0.7166 0.0000
vt 0.5341 0.7172 0.0000
vt 0.5350 0.7159 0.0000
vt 0.5352 0.7154 0.0000
vt 0.5079 0.7131 0.0000
vt 0.5080 0.7126 0.0000
vt 0.5077 0.7138 0.0000
vt 0.5075 0.7145 0.0000
vt 0.5355 0.7137 0.0000
vt 0.5359 0.7121 0.0000
vt 0.5083 0.7109 0.0000
vt 0.4183 0.7130 0.0000
vt 0.4181 0.7164 0.0000
vt 0.3875 0.7121 0.0000
vt 0.4489 0.7141 0.0000
vt 0.5764 0.7254 0.0000
vt 0.5560 0.7222 0.0000
vt 0.5957 0.7299 0.0000
vt 0.5940 0.7318 0.0000
vt 0.5606 0.7140 0.0000
vt 0.5360 0.7109 0.0000
vt 0.5360 0.7111 0.0000
vt 0.5087 0.7079 0.0000
vt 0.4797 0.7057 0.0000
vt 0.4496 0.7040 0.0000
vt 0.3876 0.7012 0.0000
vt 0.3566 0.7002 0.0000
vt 0.5998 0.7219 0.0000
vt 0.5999 0.7216 0.0000
vt 0.5810 0.7173 0.0000
vt 0.4792 0.7110 0.0000
vt 0.4793 0.7105 0.0000
vt 0.4791 0.7117 0.0000
vt 0.4790 0.7125 0.0000
vt 0.4179 0.7178 0.0000
vt 0.4187 0.7056 0.0000
vt 0.4187 0.7038 0.0000
vt 0.3877 0.7044 0.0000
vt 0.4788 0.7155 0.0000
vt 0.5071 0.7172 0.0000
vt 0.4187 0.7025 0.0000
vt 0.4187 0.7027 0.0000
vt 0.3568 0.7065 0.0000
vt 0.3569 0.7076 0.0000
vt 0.3568 0.7058 0.0000
vt 0.3568 0.7053 0.0000
vt 0.3572 0.7115 0.0000
vt 0.5992 0.7245 0.0000
vt 0.5986 0.7262 0.0000
vt 0.3567 0.7034 0.0000
vt 0.5360 0.7114 0.0000
vt 0.4187 0.7030 0.0000
vt 0.5984 0.7267 0.0000
vt 0.5932 0.7327 0.0000
vt 0.5328 0.7195 0.0000
# 120 texture coords

g Z020_18A5_L_DaS_Z020_18A5_L
usemtl paint_whiteSG
s 1
f 1/1/1 2/2/2 3/3/3 
f 3/3/3 2/2/2 4/4/4 
f 5/5/5 6/6/6 7/7/7 
f 7/7/7 6/6/6 8/8/8 
f 9/9/9 10/10/10 5/5/5 
f 5/5/5 10/10/10 6/6/6 
f 11/11/11 12/12/12 13/13/13 
f 13/13/13 12/12/12 14/14/14 
f 15/15/15 16/16/16 11/11/11 
f 11/11/11 16/16/16 12/12/12 
f 17/17/17 18/18/18 19/19/19 
f 19/19/19 18/18/18 20/20/20 
f 21/21/21 22/22/22 17/17/17 
f 17/17/17 22/22/22 18/18/18 
f 23/23/23 24/24/24 25/25/25 
f 25/25/25 24/24/24 26/26/26 
f 27/27/27 28/28/28 23/23/23 
f 23/23/23 28/28/28 24/24/24 
f 29/29/29 30/30/30 31/31/31 
f 31/31/31 30/30/30 32/32/32 
f 33/33/33 34/34/34 35/35/35 
f 35/35/35 34/34/34 36/36/36 
f 37/37/37 38/38/38 39/39/39 
f 39/39/39 38/38/38 40/40/40 
f 39/39/39 41/41/41 37/37/37 
f 37/37/37 41/41/41 42/42/42 
f 41/41/41 43/43/43 42/42/42 
f 42/42/42 43/43/43 44/44/44 
f 45/45/45 46/46/46 39/39/39 
f 39/39/39 46/46/46 41/41/41 
f 47/47/47 48/48/48 49/49/49 
f 49/49/49 48/48/48 50/50/50 
f 51/51/51 52/52/52 47/47/47 
f 47/47/47 52/52/52 48/48/48 
f 47/47/47 53/53/53 51/51/51 
f 51/51/51 53/53/53 54/54/54 
f 53/53/53 55/55/55 54/54/54 
f 54/54/54 55/55/55 56/56/56 
f 49/49/49 57/57/57 47/47/47 
f 47/47/47 57/57/57 53/53/53 
f 58/58/58 59/59/59 60/60/60 
f 60/60/60 59/59/59 61/61/61 
f 60/60/60 61/61/61 62/62/62 
f 62/62/62 61/61/61 63/63/63 
f 64/64/64 65/65/65 33/33/33 
f 33/33/33 65/65/65 34/34/34 
f 25/25/25 26/26/26 64/64/64 
f 64/64/64 26/26/26 65/65/65 
f 7/7/7 8/8/8 66/66/66 
f 66/66/66 8/8/8 67/67/67 
f 68/68/68 69/69/69 1/1/1 
f 1/1/1 69/69/69 2/2/2 
f 70/70/70 71/71/71 68/68/68 
f 68/68/68 71/71/71 69/69/69 
f 66/66/66 67/67/67 72/72/72 
f 72/72/72 67/67/67 73/73/73 
f 44/44/44 2/2/2 74/74/74 
f 74/74/74 2/2/2 69/69/69 
f 74/74/74 75/75/75 44/44/44 
f 44/44/44 75/75/75 42/42/42 
f 76/76/76 57/57/57 74/74/74 
f 74/74/74 57/57/57 75/75/75 
f 74/74/74 69/69/69 76/76/76 
f 76/76/76 69/69/69 71/71/71 
f 77/77/77 78/78/78 79/79/79 
f 79/79/79 78/78/78 32/32/32 
f 80/80/80 28/28/28 77/77/77 
f 77/77/77 28/28/28 78/78/78 
f 77/77/77 12/12/12 80/80/80 
f 80/80/80 12/12/12 16/16/16 
f 79/79/79 14/14/14 77/77/77 
f 77/77/77 14/14/14 12/12/12 
f 81/81/81 36/36/36 82/82/82 
f 82/82/82 36/36/36 34/34/34 
f 83/83/83 84/84/84 81/81/81 
f 81/81/81 84/84/84 36/36/36 
f 82/82/82 8/8/8 81/81/81 
f 81/81/81 8/8/8 6/6/6 
f 85/85/85 38/38/38 86/86/86 
f 86/86/86 38/38/38 87/87/87 
f 87/87/87 50/50/50 86/86/86 
f 86/86/86 50/50/50 88/88/88 
f 88/88/88 50/50/50 89/89/89 
f 89/89/89 50/50/50 48/48/48 
f 48/48/48 52/52/52 89/89/89 
f 89/89/89 52/52/52 90/90/90 
f 91/91/91 59/59/59 92/92/92 
f 92/92/92 59/59/59 58/58/58 
f 93/93/93 40/40/40 94/94/94 
f 94/94/94 40/40/40 95/95/95 
f 40/40/40 38/38/38 95/95/95 
f 95/95/95 38/38/38 85/85/85 
f 19/19/19 20/20/20 96/96/96 
f 96/96/96 20/20/20 97/97/97 
f 98/98/98 99/99/99 15/15/15 
f 15/15/15 99/99/99 16/16/16 
f 72/72/72 73/73/73 98/98/98 
f 98/98/98 73/73/73 99/99/99 
f 96/96/96 97/97/97 70/70/70 
f 70/70/70 97/97/97 71/71/71 
f 100/100/100 78/78/78 27/27/27 
f 27/27/27 78/78/78 28/28/28 
f 31/31/31 32/32/32 100/100/100 
f 100/100/100 32/32/32 78/78/78 
f 56/56/56 20/20/20 101/101/101 
f 101/101/101 20/20/20 18/18/18 
f 101/101/101 102/102/102 56/56/56 
f 56/56/56 102/102/102 54/54/54 
f 101/101/101 103/103/103 102/102/102 
f 102/102/102 103/103/103 63/63/63 
f 18/18/18 22/22/22 101/101/101 
f 101/101/101 22/22/22 103/103/103 
f 80/80/80 16/16/16 104/104/104 
f 104/104/104 16/16/16 99/99/99 
f 104/104/104 24/24/24 80/80/80 
f 80/80/80 24/24/24 28/28/28 
f 105/105/105 26/26/26 104/104/104 
f 104/104/104 26/26/26 24/24/24 
f 104/104/104 99/99/99 105/105/105 
f 105/105/105 99/99/99 73/73/73 
f 90/90/90 52/52/52 106/106/106 
f 106/106/106 52/52/52 107/107/107 
f 107/107/107 59/59/59 106/106/106 
f 106/106/106 59/59/59 91/91/91 
f 13/13/13 14/14/14 108/108/108 
f 108/108/108 14/14/14 109/109/109 
f 21/21/21 110/110/110 22/22/22 
f 22/22/22 110/110/110 111/111/111 
f 79/79/79 32/32/32 112/112/112 
f 112/112/112 32/32/32 30/30/30 
f 112/112/112 109/109/109 79/79/79 
f 79/79/79 109/109/109 14/14/14 
f 43/43/43 4/4/4 44/44/44 
f 44/44/44 4/4/4 2/2/2 
f 113/113/113 114/114/114 43/43/43 
f 43/43/43 114/114/114 4/4/4 
f 55/55/55 53/53/53 76/76/76 
f 76/76/76 53/53/53 57/57/57 
f 55/55/55 97/97/97 56/56/56 
f 56/56/56 97/97/97 20/20/20 
f 76/76/76 71/71/71 55/55/55 
f 55/55/55 71/71/71 97/97/97 
f 62/62/62 63/63/63 115/115/115 
f 115/115/115 63/63/63 103/103/103 
f 115/115/115 103/103/103 111/111/111 
f 111/111/111 103/103/103 22/22/22 
f 116/116/116 75/75/75 49/49/49 
f 49/49/49 75/75/75 57/57/57 
f 37/37/37 42/42/42 116/116/116 
f 116/116/116 42/42/42 75/75/75 
f 116/116/116 87/87/87 37/37/37 
f 37/37/37 87/87/87 38/38/38 
f 49/49/49 50/50/50 116/116/116 
f 116/116/116 50/50/50 87/87/87 
f 102/102/102 63/63/63 117/117/117 
f 117/117/117 63/63/63 61/61/61 
f 51/51/51 54/54/54 117/117/117 
f 117/117/117 54/54/54 102/102/102 
f 107/107/107 52/52/52 117/117/117 
f 117/117/117 52/52/52 51/51/51 
f 61/61/61 59/59/59 117/117/117 
f 117/117/117 59/59/59 107/107/107 
f 118/118/118 9/9/9 3/3/3 
f 3/3/3 9/9/9 5/5/5 
f 3/3/3 5/5/5 1/1/1 
f 1/1/1 5/5/5 7/7/7 
f 1/1/1 7/7/7 68/68/68 
f 68/68/68 7/7/7 66/66/66 
f 11/11/11 17/17/17 15/15/15 
f 15/15/15 17/17/17 19/19/19 
f 17/17/17 11/11/11 21/21/21 
f 21/21/21 11/11/11 13/13/13 
f 13/13/13 108/108/108 21/21/21 
f 21/21/21 108/108/108 110/110/110 
f 15/15/15 19/19/19 98/98/98 
f 98/98/98 19/19/19 96/96/96 
f 68/68/68 66/66/66 70/70/70 
f 70/70/70 66/66/66 72/72/72 
f 70/70/70 72/72/72 96/96/96 
f 96/96/96 72/72/72 98/98/98 
f 114/114/114 118/118/118 4/4/4 
f 4/4/4 118/118/118 3/3/3 
f 84/84/84 119/119/119 36/36/36 
f 36/36/36 119/119/119 35/35/35 
f 93/93/93 45/45/45 40/40/40 
f 40/40/40 45/45/45 39/39/39 
f 10/10/10 83/83/83 6/6/6 
f 6/6/6 83/83/83 81/81/81 
f 46/46/46 113/113/113 41/41/41 
f 41/41/41 113/113/113 43/43/43 
f 120/120/120 65/65/65 105/105/105 
f 105/105/105 65/65/65 26/26/26 
f 82/82/82 34/34/34 120/120/120 
f 120/120/120 34/34/34 65/65/65 
f 105/105/105 73/73/73 120/120/120 
f 120/120/120 73/73/73 67/67/67 
f 120/120/120 67/67/67 82/82/82 
f 82/82/82 67/67/67 8/8/8 
# 198 faces

#
# object Z020_18A5_L_DaS_Z020_18A5_L_E
#

v  -2.9317 99.7793 -74.2898
v  -2.9627 99.4583 -74.0964
v  -18.2997 99.8237 -74.2567
v  -18.3263 99.4967 -74.0657
v  11.3611 99.3663 -74.3978
v  11.3005 99.0579 -74.2021
v  -49.7599 99.1721 -74.1984
v  -49.7738 98.8394 -74.0098
v  -65.0368 98.4195 -74.1836
v  -65.0352 98.0935 -73.9924
v  45.4901 94.4429 -75.5826
v  45.2048 94.2245 -75.3684
v  35.0998 96.8693 -75.0517
v  34.8708 96.6175 -74.8504
v  55.8331 90.6176 -76.4132
v  55.6371 90.3763 -76.1984
v  23.8809 98.4533 -74.6542
v  23.7405 98.1698 -74.4576
v  44.9180 93.3252 -73.5636
v  34.6028 95.7046 -73.1411
v  55.1327 89.5503 -74.3250
v  -34.0671 99.2988 -74.0355
v  -34.1224 98.2498 -72.3608
v  -49.7905 97.7670 -72.3351
v  -18.4309 98.4795 -72.3903
v  23.5021 97.2394 -72.7802
v  11.1007 98.1045 -72.5251
v  -34.0450 99.6308 -74.2245
v  -3.1168 98.4744 -72.4201
v  -65.0346 97.0125 -72.3168
# 30 vertices

vn -0.0125 -0.5154 -0.8569
vn -0.0139 -0.7097 -0.7043
vn 0.0005 -0.5045 -0.8634
vn 0.0025 -0.7007 -0.7134
vn -0.0398 -0.5298 -0.8472
vn -0.0451 -0.7182 -0.6943
vn 0.0180 -0.4937 -0.8695
vn 0.0263 -0.6873 -0.7259
vn 0.0237 -0.5056 -0.8624
vn 0.0334 -0.6952 -0.7180
vn -0.2250 -0.5169 -0.8260
vn -0.2463 -0.7079 -0.6620
vn -0.1444 -0.5351 -0.8324
vn -0.1570 -0.7188 -0.6772
vn -0.2570 -0.5177 -0.8161
vn -0.3011 -0.6678 -0.6807
vn -0.0853 -0.5393 -0.8378
vn -0.0932 -0.7215 -0.6861
vn -0.2778 -0.8407 -0.4648
vn -0.1744 -0.8566 -0.4857
vn -0.3396 -0.8230 -0.4554
vn 0.0136 -0.6919 -0.7219
vn 0.0179 -0.8474 -0.5307
vn 0.0330 -0.8417 -0.5389
vn 0.0045 -0.8546 -0.5193
vn -0.1015 -0.8636 -0.4939
vn -0.0480 -0.8656 -0.4985
vn 0.0086 -0.4951 -0.8688
vn -0.0140 -0.8615 -0.5076
vn 0.0409 -0.8396 -0.5417
# 30 vertex normals

vt 0.4786 0.7198 0.0000
vt 0.4786 0.7206 0.0000
vt 0.4486 0.7187 0.0000
vt 0.4486 0.7195 0.0000
vt 0.5065 0.7212 0.0000
vt 0.5064 0.7219 0.0000
vt 0.3873 0.7173 0.0000
vt 0.3873 0.7180 0.0000
vt 0.3575 0.7171 0.0000
vt 0.3575 0.7178 0.0000
vt 0.5730 0.7280 0.0000
vt 0.5725 0.7286 0.0000
vt 0.5528 0.7249 0.0000
vt 0.5523 0.7255 0.0000
vt 0.5932 0.7327 0.0000
vt 0.5928 0.7333 0.0000
vt 0.5309 0.7228 0.0000
vt 0.5306 0.7234 0.0000
vt 0.5719 0.7324 0.0000
vt 0.5518 0.7293 0.0000
vt 0.5918 0.7369 0.0000
vt 0.4179 0.7186 0.0000
vt 0.4178 0.7224 0.0000
vt 0.3872 0.7219 0.0000
vt 0.4484 0.7233 0.0000
vt 0.5302 0.7271 0.0000
vt 0.5060 0.7257 0.0000
vt 0.4179 0.7178 0.0000
vt 0.4783 0.7243 0.0000
vt 0.3575 0.7217 0.0000
# 30 texture coords

g Z020_18A5_L_DaS_Z020_18A5_L_E
usemtl paint_whiteSG
s 9
f 121/121/121 122/122/122 123/123/123 
f 123/123/123 122/122/122 124/124/124 
f 125/125/125 126/126/126 121/121/121 
f 121/121/121 126/126/126 122/122/122 
f 127/127/127 128/128/128 129/129/129 
f 129/129/129 128/128/128 130/130/130 
f 131/131/131 132/132/132 133/133/133 
f 133/133/133 132/132/132 134/134/134 
f 135/135/135 136/136/136 131/131/131 
f 131/131/131 136/136/136 132/132/132 
f 133/133/133 134/134/134 137/137/137 
f 137/137/137 134/134/134 138/138/138 
f 137/137/137 138/138/138 125/125/125 
f 125/125/125 138/138/138 126/126/126 
f 132/132/132 139/139/139 134/134/134 
f 134/134/134 139/139/139 140/140/140 
f 136/136/136 141/141/141 132/132/132 
f 132/132/132 141/141/141 139/139/139 
f 142/142/142 143/143/143 128/128/128 
f 128/128/128 143/143/143 144/144/144 
f 143/143/143 142/142/142 145/145/145 
f 145/145/145 142/142/142 124/124/124 
f 138/138/138 146/146/146 126/126/126 
f 126/126/126 146/146/146 147/147/147 
f 134/134/134 140/140/140 138/138/138 
f 138/138/138 140/140/140 146/146/146 
f 123/123/123 124/124/124 148/148/148 
f 148/148/148 124/124/124 142/142/142 
f 148/148/148 142/142/142 127/127/127 
f 127/127/127 142/142/142 128/128/128 
f 145/145/145 124/124/124 149/149/149 
f 149/149/149 124/124/124 122/122/122 
f 126/126/126 147/147/147 122/122/122 
f 122/122/122 147/147/147 149/149/149 
f 128/128/128 144/144/144 130/130/130 
f 130/130/130 144/144/144 150/150/150 
# 36 faces

