# 3ds Max Wavefront OBJ Exporter v0.97b - (c)2007 guruware
# File Created: 30.11.2015 11:44:18

mtllib M720_182C_C.mtl

#
# object M720_182C_C_D_M720_182C_C
#

v  144.8454 62.1157 0.0000
v  144.4380 62.1818 -9.7040
v  137.2323 57.0709 0.0000
v  137.1438 57.0363 -9.3721
v  143.3305 62.0187 -18.3879
v  136.3961 56.6142 -18.0021
v  142.1499 61.7528 -26.9493
v  134.8365 56.3451 -27.0156
v  140.7149 61.4521 -34.6026
v  132.8205 55.9974 -36.0168
v  139.1089 61.1638 -41.0182
v  130.4106 55.5817 -44.9560
v  137.4829 60.9105 -46.2558
v  135.8361 60.6873 -50.7536
v  133.4949 60.4031 -56.0751
v  129.9087 59.9873 -63.3373
v  127.6405 55.1039 -53.6887
v  124.5528 54.5659 -62.0862
v  125.6924 59.5366 -70.7457
v  120.6589 54.3632 -70.1748
v  121.6055 59.1660 -76.3413
v  116.5850 54.3885 -77.7893
v  117.8193 58.8942 -80.4172
v  112.2087 55.0088 -84.3668
v  114.3611 58.6045 -84.0739
v  110.4772 58.2561 -87.6370
v  108.7169 55.8768 -88.4242
v  108.7691 58.0506 -89.0596
v  144.4380 62.1818 9.7040
v  137.1438 57.0363 9.3721
v  143.3305 62.0187 18.3879
v  136.3961 56.6142 18.0021
v  142.1499 61.7528 26.9493
v  134.8365 56.3451 27.0156
v  140.7149 61.4521 34.6026
v  132.8205 55.9974 36.0168
v  139.1089 61.1638 41.0182
v  130.4106 55.5817 44.9559
v  137.4829 60.9105 46.2558
v  135.8361 60.6873 50.7536
v  133.4949 60.4031 56.0751
v  127.6405 55.1039 53.6887
v  129.9087 59.9873 63.3373
v  124.5528 54.5659 62.0862
v  125.6924 59.5366 70.7457
v  120.6589 54.3632 70.1748
v  121.6055 59.1660 76.3413
v  116.5850 54.3885 77.7893
v  117.8193 58.8942 80.4172
v  112.2087 55.0088 84.3667
v  114.3611 58.6045 84.0739
v  110.4772 58.2561 87.6370
v  108.7170 55.8768 88.4242
v  106.5461 57.5184 -90.5424
v  106.4340 56.6648 -89.7773
v  102.8134 58.5370 -90.7736
v  103.3373 58.2386 -90.8244
v  106.5461 57.5184 90.5424
v  108.7691 58.0506 89.0596
v  106.4340 56.6648 89.7773
v  102.8134 58.5370 90.7736
v  103.3373 58.2386 90.8244
# 62 vertices

vn -0.5524 0.8336 -0.0000
vn -0.5676 0.8228 0.0297
vn -0.5644 0.8255 -0.0000
vn -0.5884 0.8082 0.0250
vn -0.6001 0.7987 0.0441
vn -0.6065 0.7934 0.0511
vn -0.5993 0.7972 0.0728
vn -0.5880 0.8043 0.0855
vn -0.5830 0.8068 0.0954
vn -0.5764 0.8101 0.1078
vn -0.5769 0.8076 0.1221
vn -0.5794 0.8024 0.1431
vn -0.5761 0.8025 0.1555
vn -0.5895 0.7876 0.1796
vn -0.5974 0.7664 0.2364
vn -0.6352 0.7283 0.2572
vn -0.6160 0.7606 0.2051
vn -0.6594 0.6995 0.2754
vn -0.6446 0.6814 0.3467
vn -0.6640 0.6528 0.3648
vn -0.6605 0.5974 0.4548
vn -0.6848 0.5417 0.4874
vn -0.6828 0.4561 0.5708
vn -0.6882 0.3731 0.6222
vn -0.6725 0.3494 0.6524
vn -0.6626 0.2871 0.6918
vn -0.5912 0.2655 0.7616
vn -0.5468 0.3739 0.7491
vn -0.5676 0.8228 -0.0297
vn -0.5884 0.8082 -0.0250
vn -0.6001 0.7987 -0.0441
vn -0.6065 0.7934 -0.0511
vn -0.5993 0.7972 -0.0728
vn -0.5880 0.8043 -0.0855
vn -0.5830 0.8068 -0.0954
vn -0.5764 0.8101 -0.1078
vn -0.5769 0.8076 -0.1221
vn -0.5794 0.8024 -0.1431
vn -0.5761 0.8025 -0.1555
vn -0.5895 0.7876 -0.1796
vn -0.5974 0.7664 -0.2364
vn -0.6160 0.7606 -0.2051
vn -0.6352 0.7283 -0.2572
vn -0.6594 0.6995 -0.2754
vn -0.6446 0.6814 -0.3467
vn -0.6640 0.6528 -0.3648
vn -0.6605 0.5974 -0.4548
vn -0.6848 0.5417 -0.4874
vn -0.6828 0.4561 -0.5708
vn -0.6882 0.3731 -0.6222
vn -0.6725 0.3494 -0.6524
vn -0.6626 0.2871 -0.6918
vn -0.5912 0.2655 -0.7616
vn -0.5382 0.6007 0.5912
vn -0.4932 0.4435 0.7484
vn 0.1317 0.6520 0.7467
vn 0.1804 0.4642 -0.8672
vn -0.5382 0.6007 -0.5912
vn -0.5468 0.3739 -0.7492
vn -0.4932 0.4435 -0.7484
vn 0.1804 0.4642 0.8672
vn 0.1317 0.6520 -0.7467
# 62 vertex normals

g M720_182C_C_D_M720_182C_C
usemtl diffuse_black_plasticSG
s 1
f 1//1 2//2 3//3 
f 3//3 2//2 4//4 
f 2//2 5//5 4//4 
f 4//4 5//5 6//6 
f 5//5 7//7 6//6 
f 6//6 7//7 8//8 
f 7//7 9//9 8//8 
f 8//8 9//9 10//10 
f 9//9 11//11 10//10 
f 10//10 11//11 12//12 
f 11//11 13//13 12//12 
f 12//12 13//13 14//14 
f 15//15 16//16 17//17 
f 17//17 16//16 18//18 
f 12//12 14//14 17//17 
f 17//17 14//14 15//15 
f 16//16 19//19 18//18 
f 18//18 19//19 20//20 
f 19//19 21//21 20//20 
f 20//20 21//21 22//22 
f 21//21 23//23 22//22 
f 22//22 23//23 24//24 
f 23//23 25//25 24//24 
f 25//25 26//26 24//24 
f 24//24 26//26 27//27 
f 26//26 28//28 27//27 
f 1//1 3//3 29//29 
f 3//3 30//30 29//29 
f 29//29 30//30 31//31 
f 30//30 32//32 31//31 
f 31//31 32//32 33//33 
f 32//32 34//34 33//33 
f 33//33 34//34 35//35 
f 34//34 36//36 35//35 
f 35//35 36//36 37//37 
f 36//36 38//38 37//37 
f 37//37 38//38 39//39 
f 38//38 40//40 39//39 
f 41//41 42//42 43//43 
f 42//42 44//44 43//43 
f 38//38 42//42 40//40 
f 42//42 41//41 40//40 
f 43//43 44//44 45//45 
f 44//44 46//46 45//45 
f 45//45 46//46 47//47 
f 46//46 48//48 47//47 
f 47//47 48//48 49//49 
f 48//48 50//50 49//49 
f 49//49 50//50 51//51 
f 51//51 50//50 52//52 
f 50//50 53//53 52//52 
f 54//54 55//55 28//28 
f 27//27 28//28 55//55 
s off
f 54//56 56//56 55//56 
f 56//57 54//57 57//57 
s 1
f 58//58 59//59 60//60 
f 52//52 53//53 59//59 
f 53//53 60//60 59//59 
s off
f 58//61 61//61 62//61 
f 61//62 58//62 60//62 
# 60 faces

