# 3ds Max Wavefront OBJ Exporter v0.97b - (c)2007 guruware
# File Created: 30.11.2015 11:42:42

mtllib M720_40SG_R.mtl

#
# object M720_40SG_R_DTaSI_M720_40SG_R
#

v  -137.5597 99.8450 84.0286
v  -142.5848 99.5507 84.1184
v  -137.7406 93.0349 86.4597
v  -142.9277 92.8568 86.4817
v  -143.2352 86.5353 88.6961
v  -140.1146 86.5252 88.7450
v  -137.7778 91.6001 86.9705
v  -142.1202 105.8540 81.8710
v  -137.3963 106.1816 81.7584
v  -155.1629 98.1027 84.6181
v  -161.3661 97.3755 84.8687
v  -156.1339 92.1960 86.6122
v  -164.3539 91.7779 86.6738
v  -163.9337 86.1663 88.4643
v  -156.4100 86.4219 88.5291
v  -170.3097 85.4303 88.5525
v  -170.5089 88.9060 87.4906
v  -165.5586 97.4533 84.8620
v  -168.7453 94.0903 85.9185
v  -160.4338 101.8393 83.3604
v  -154.4181 103.0897 82.8888
v  -148.5325 99.0700 84.2822
v  -149.0123 92.5823 86.5361
v  -149.3500 86.5035 88.6186
v  -147.9935 105.6457 81.9545
v  -131.8770 106.4798 81.6837
v  -130.9124 106.5095 81.6816
v  -132.0888 111.2922 79.9419
v  -128.6327 111.4602 79.9008
v  -156.7233 76.5768 91.7068
v  -156.9090 71.3932 93.3118
v  -149.8918 76.1385 92.0851
v  -150.1608 70.9451 93.7593
v  -147.3722 70.7642 93.9443
v  -149.3649 66.4367 95.2946
v  -150.3934 66.4759 95.2267
v  -170.7637 77.4796 90.9206
v  -170.8913 72.3915 92.3985
v  -163.9492 77.0341 91.3051
v  -164.0043 71.8857 92.8484
v  -163.9962 67.0497 94.3463
v  -157.0750 66.7262 94.7953
v  -180.5619 78.9773 90.1191
v  -182.0342 75.6487 90.9506
v  -176.2920 77.9974 90.5642
v  -177.3882 72.8807 91.9655
v  -176.0079 68.0713 93.4475
v  -170.5592 67.5189 93.8799
v  -142.6881 80.9365 90.6601
v  -143.5020 80.9708 90.6303
v  -149.6258 81.2029 90.4117
v  -156.5473 81.4247 90.1643
v  -163.8884 81.6097 89.9010
v  -170.5106 81.7180 89.6725
v  -174.4889 84.9512 88.6009
v  -175.3970 81.8516 89.4867
v  -178.5520 82.0562 89.3368
v  -174.1786 87.6815 87.8005
v  -137.4095 110.8569 80.0775
v  -141.4473 110.3202 80.2658
v  -145.6575 109.3513 80.6160
v  -150.0133 107.7400 81.2114
v  -147.8533 108.6202 80.8855
v  -154.6425 105.4171 82.0674
v  -159.0555 102.7827 83.0238
v  -161.5112 100.9737 83.6673
v  -171.7262 90.6338 86.9571
v  -176.3144 85.0424 88.5314
v  -182.2266 73.1410 91.6406
v  -182.1623 72.2576 91.8895
v  -181.7862 71.1482 92.2324
v  -181.4186 70.5910 92.4072
v  -180.6956 69.8508 92.6678
v  -178.8480 68.8339 93.0722
v  -133.9143 99.9903 84.0095
v  -137.1119 93.0461 86.4644
v  -131.8783 104.4119 82.4308
v  -145.0448 75.8186 92.3518
v  -143.5983 78.9598 91.3186
# 79 vertices

vn -0.0061 0.3367 0.9416
vn -0.0023 0.3347 0.9423
vn -0.0087 0.3354 0.9420
vn -0.0072 0.3322 0.9432
vn -0.0137 0.3291 0.9442
vn -0.0119 0.3314 0.9434
vn -0.0095 0.3348 0.9422
vn -0.0003 0.3374 0.9414
vn -0.0041 0.3383 0.9410
vn 0.0001 0.3239 0.9461
vn 0.0028 0.3150 0.9491
vn -0.0079 0.3179 0.9481
vn -0.0087 0.3048 0.9524
vn -0.0201 0.3015 0.9533
vn -0.0169 0.3130 0.9496
vn -0.0217 0.2911 0.9565
vn -0.0135 0.2927 0.9561
vn 0.0014 0.3084 0.9513
vn -0.0064 0.2961 0.9551
vn 0.0070 0.3231 0.9463
vn 0.0045 0.3314 0.9435
vn -0.0006 0.3307 0.9437
vn -0.0069 0.3263 0.9452
vn -0.0146 0.3227 0.9464
vn 0.0023 0.3364 0.9417
vn -0.0064 0.3396 0.9405
vn -0.0074 0.3401 0.9403
vn -0.0059 0.3403 0.9403
vn -0.0054 0.3407 0.9402
vn -0.0335 0.3007 0.9531
vn -0.0417 0.3010 0.9527
vn -0.0358 0.3096 0.9502
vn -0.0452 0.3107 0.9494
vn -0.0390 0.3125 0.9491
vn -0.0465 0.3146 0.9481
vn -0.0500 0.3139 0.9481
vn -0.0332 0.2829 0.9586
vn -0.0410 0.2825 0.9584
vn -0.0346 0.2909 0.9561
vn -0.0413 0.2918 0.9556
vn -0.0453 0.2984 0.9534
vn -0.0466 0.3074 0.9505
vn -0.0398 0.2644 0.9636
vn -0.0461 0.2670 0.9626
vn -0.0385 0.2723 0.9614
vn -0.0495 0.2759 0.9599
vn -0.0469 0.2838 0.9577
vn -0.0449 0.2904 0.9559
vn -0.0184 0.3279 0.9445
vn -0.0197 0.3258 0.9452
vn -0.0242 0.3168 0.9482
vn -0.0257 0.3042 0.9523
vn -0.0277 0.2937 0.9555
vn -0.0273 0.2861 0.9578
vn -0.0234 0.2840 0.9585
vn -0.0285 0.2798 0.9596
vn -0.0313 0.2747 0.9610
vn -0.0186 0.2860 0.9580
vn -0.0035 0.3389 0.9408
vn -0.0006 0.3383 0.9410
vn 0.0016 0.3384 0.9410
vn 0.0047 0.3361 0.9418
vn 0.0036 0.3381 0.9411
vn 0.0062 0.3334 0.9428
vn 0.0056 0.3309 0.9436
vn 0.0098 0.3170 0.9484
vn -0.0097 0.2887 0.9574
vn -0.0241 0.2813 0.9593
vn -0.0502 0.2680 0.9621
vn -0.0509 0.2732 0.9606
vn -0.0498 0.2745 0.9603
vn -0.0518 0.2764 0.9596
vn -0.0552 0.2822 0.9578
vn -0.0530 0.2812 0.9582
vn -0.0077 0.3376 0.9412
vn -0.0114 0.3363 0.9417
vn -0.0067 0.3394 0.9406
vn -0.0285 0.3168 0.9481
vn -0.0217 0.3237 0.9459
# 79 vertex normals

vt 0.2065 0.1690 0.0000
vt 0.1869 0.1669 0.0000
vt 0.2070 0.1423 0.0000
vt 0.1867 0.1406 0.0000
vt 0.1866 0.1158 0.0000
vt 0.1989 0.1163 0.0000
vt 0.2071 0.1366 0.0000
vt 0.1876 0.1917 0.0000
vt 0.2060 0.1938 0.0000
vt 0.1378 0.1590 0.0000
vt 0.1136 0.1551 0.0000
vt 0.1351 0.1357 0.0000
vt 0.1029 0.1326 0.0000
vt 0.1056 0.1107 0.0000
vt 0.1350 0.1130 0.0000
vt 0.0807 0.1067 0.0000
vt 0.0793 0.1203 0.0000
vt 0.0972 0.1546 0.0000
vt 0.0853 0.1409 0.0000
vt 0.1165 0.1727 0.0000
vt 0.1399 0.1787 0.0000
vt 0.1636 0.1640 0.0000
vt 0.1629 0.1385 0.0000
vt 0.1627 0.1146 0.0000
vt 0.1646 0.1899 0.0000
vt 0.2276 0.1960 0.0000
vt 0.2314 0.1963 0.0000
vt 0.2259 0.2148 0.0000
vt 0.2394 0.2161 0.0000
vt 0.1355 0.0744 0.0000
vt 0.1357 0.0540 0.0000
vt 0.1624 0.0739 0.0000
vt 0.1622 0.0535 0.0000
vt 0.1732 0.0533 0.0000
vt 0.1662 0.0359 0.0000
vt 0.1621 0.0359 0.0000
vt 0.0803 0.0754 0.0000
vt 0.0807 0.0555 0.0000
vt 0.1071 0.0749 0.0000
vt 0.1078 0.0547 0.0000
vt 0.1087 0.0357 0.0000
vt 0.1359 0.0357 0.0000
vt 0.0417 0.0796 0.0000
vt 0.0365 0.0663 0.0000
vt 0.0586 0.0765 0.0000
vt 0.0552 0.0562 0.0000
vt 0.0614 0.0376 0.0000
vt 0.0829 0.0364 0.0000
vt 0.1898 0.0940 0.0000
vt 0.1866 0.0939 0.0000
vt 0.1625 0.0938 0.0000
vt 0.1353 0.0934 0.0000
vt 0.1065 0.0928 0.0000
vt 0.0806 0.0921 0.0000
vt 0.0644 0.1041 0.0000
vt 0.0614 0.0917 0.0000
vt 0.0490 0.0920 0.0000
vt 0.0651 0.1148 0.0000
vt 0.2051 0.2122 0.0000
vt 0.1894 0.2094 0.0000
vt 0.1731 0.2048 0.0000
vt 0.1563 0.1977 0.0000
vt 0.1646 0.2016 0.0000
vt 0.1386 0.1878 0.0000
vt 0.1217 0.1767 0.0000
vt 0.1124 0.1692 0.0000
vt 0.0742 0.1268 0.0000
vt 0.0572 0.1041 0.0000
vt 0.0362 0.0564 0.0000
vt 0.0366 0.0529 0.0000
vt 0.0382 0.0487 0.0000
vt 0.0398 0.0465 0.0000
vt 0.0427 0.0438 0.0000
vt 0.0502 0.0401 0.0000
vt 0.2208 0.1702 0.0000
vt 0.2095 0.1424 0.0000
vt 0.2280 0.1879 0.0000
vt 0.1814 0.0735 0.0000
vt 0.1865 0.0860 0.0000
# 79 texture coords

g M720_40SG_R_DTaSI_M720_40SG_R
usemtl windowglass_1SG
s 1
f 1/1/1 2/2/2 3/3/3 
f 2/2/2 4/4/4 3/3/3 
f 5/5/5 6/6/6 4/4/4 
f 3/3/3 4/4/4 7/7/7 
f 4/4/4 6/6/6 7/7/7 
f 2/2/2 1/1/1 8/8/8 
f 1/1/1 9/9/9 8/8/8 
f 10/10/10 11/11/11 12/12/12 
f 11/11/11 13/13/13 12/12/12 
f 14/14/14 15/15/15 13/13/13 
f 15/15/15 12/12/12 13/13/13 
f 16/16/16 14/14/14 17/17/17 
f 14/14/14 13/13/13 17/17/17 
f 11/11/11 18/18/18 13/13/13 
f 18/18/18 19/19/19 13/13/13 
f 11/11/11 10/10/10 20/20/20 
f 10/10/10 21/21/21 20/20/20 
f 2/2/2 22/22/22 4/4/4 
f 22/22/22 23/23/23 4/4/4 
f 24/24/24 5/5/5 23/23/23 
f 5/5/5 4/4/4 23/23/23 
f 15/15/15 24/24/24 12/12/12 
f 24/24/24 23/23/23 12/12/12 
f 22/22/22 10/10/10 23/23/23 
f 10/10/10 12/12/12 23/23/23 
f 22/22/22 2/2/2 25/25/25 
f 2/2/2 8/8/8 25/25/25 
f 10/10/10 22/22/22 21/21/21 
f 22/22/22 25/25/25 21/21/21 
f 26/26/26 27/27/27 28/28/28 
f 27/27/27 29/29/29 28/28/28 
f 30/30/30 31/31/31 32/32/32 
f 31/31/31 33/33/33 32/32/32 
f 34/34/34 33/33/33 35/35/35 
f 33/33/33 36/36/36 35/35/35 
f 37/37/37 38/38/38 39/39/39 
f 38/38/38 40/40/40 39/39/39 
f 31/31/31 30/30/30 40/40/40 
f 30/30/30 39/39/39 40/40/40 
f 40/40/40 41/41/41 31/31/31 
f 41/41/41 42/42/42 31/31/31 
f 43/43/43 44/44/44 45/45/45 
f 44/44/44 46/46/46 45/45/45 
f 37/37/37 45/45/45 38/38/38 
f 45/45/45 46/46/46 38/38/38 
f 46/46/46 47/47/47 38/38/38 
f 47/47/47 48/48/48 38/38/38 
f 6/6/6 5/5/5 49/49/49 
f 5/5/5 50/50/50 49/49/49 
f 24/24/24 15/15/15 51/51/51 
f 15/15/15 52/52/52 51/51/51 
f 5/5/5 24/24/24 50/50/50 
f 24/24/24 51/51/51 50/50/50 
f 52/52/52 30/30/30 51/51/51 
f 30/30/30 32/32/32 51/51/51 
f 14/14/14 16/16/16 53/53/53 
f 16/16/16 54/54/54 53/53/53 
f 15/15/15 14/14/14 52/52/52 
f 14/14/14 53/53/53 52/52/52 
f 30/30/30 52/52/52 39/39/39 
f 52/52/52 53/53/53 39/39/39 
f 54/54/54 37/37/37 53/53/53 
f 37/37/37 39/39/39 53/53/53 
f 16/16/16 55/55/55 54/54/54 
f 55/55/55 56/56/56 54/54/54 
f 45/45/45 37/37/37 56/56/56 
f 37/37/37 54/54/54 56/56/56 
f 43/43/43 45/45/45 57/57/57 
f 45/45/45 56/56/56 57/57/57 
f 55/55/55 16/16/16 58/58/58 
f 16/16/16 17/17/17 58/58/58 
f 28/28/28 59/59/59 26/26/26 
f 59/59/59 9/9/9 26/26/26 
f 59/59/59 60/60/60 9/9/9 
f 60/60/60 8/8/8 9/9/9 
f 60/60/60 61/61/61 8/8/8 
f 61/61/61 25/25/25 8/8/8 
f 62/62/62 25/25/25 63/63/63 
f 25/25/25 61/61/61 63/63/63 
f 64/64/64 21/21/21 62/62/62 
f 21/21/21 25/25/25 62/62/62 
f 64/64/64 65/65/65 21/21/21 
f 65/65/65 20/20/20 21/21/21 
f 18/18/18 11/11/11 66/66/66 
f 11/11/11 20/20/20 66/66/66 
f 67/67/67 17/17/17 19/19/19 
f 17/17/17 13/13/13 19/19/19 
f 67/67/67 58/58/58 17/17/17 
f 68/68/68 55/55/55 58/58/58 
f 57/57/57 56/56/56 68/68/68 
f 56/56/56 55/55/55 68/68/68 
f 44/44/44 69/69/69 46/46/46 
f 69/69/69 70/70/70 46/46/46 
f 70/70/70 71/71/71 46/46/46 
f 72/72/72 46/46/46 71/71/71 
f 72/72/72 73/73/73 46/46/46 
f 46/46/46 73/73/73 74/74/74 
f 46/46/46 74/74/74 47/47/47 
f 41/41/41 40/40/40 48/48/48 
f 40/40/40 38/38/38 48/48/48 
f 36/36/36 33/33/33 42/42/42 
f 33/33/33 31/31/31 42/42/42 
f 75/75/75 1/1/1 76/76/76 
f 1/1/1 3/3/3 76/76/76 
f 76/76/76 3/3/3 7/7/7 
f 1/1/1 75/75/75 9/9/9 
f 75/75/75 77/77/77 9/9/9 
f 77/77/77 26/26/26 9/9/9 
f 27/27/27 26/26/26 77/77/77 
f 78/78/78 32/32/32 34/34/34 
f 32/32/32 33/33/33 34/34/34 
f 49/49/49 50/50/50 79/79/79 
f 32/32/32 78/78/78 51/51/51 
f 78/78/78 79/79/79 51/51/51 
f 79/79/79 50/50/50 51/51/51 
# 115 faces

