# 3ds Max Wavefront OBJ Exporter v0.97b - (c)2007 guruware
# File Created: 30.11.2015 11:44:39

mtllib M720_226A_R.mtl

#
# object M720_226A_R_DaS_M720_226A_R
#

v  -102.7397 -37.7003 102.6703
v  -112.6079 -37.5964 102.6418
v  -104.3889 -43.1615 100.6767
v  -112.2227 -42.9473 100.7591
v  -116.1344 -42.8403 101.3356
v  -116.3496 -37.3806 102.6846
v  -89.4858 -43.3020 100.6769
v  -89.4974 -38.1860 102.6046
v  -72.2414 -43.4638 100.6771
v  -72.2414 -38.3442 102.6828
v  -57.6498 -38.5005 102.7585
v  -57.6498 -43.6219 100.6774
v  -44.9156 -43.7784 100.6776
v  -44.9156 -38.6554 102.8253
v  -32.3204 -38.7792 102.9057
v  -32.7412 -44.0174 100.7803
v  -19.2332 -44.0209 101.4985
v  -25.1621 -38.7679 102.9980
v  -19.3050 -38.7592 103.0776
v  -6.7980 -44.0215 100.7806
v  -7.1863 -39.0149 102.9771
v  4.9009 -39.1241 102.9730
v  4.9009 -44.2507 100.6781
v  34.5490 -44.4111 100.6779
v  34.4478 -39.2568 102.9180
v  17.9779 -44.3262 100.6780
v  17.9653 -39.1962 102.9629
v  55.7166 -44.5062 100.6776
v  55.4254 -39.2975 102.8370
v  74.6016 -44.5826 100.6774
v  74.1964 -39.3289 102.7521
v  84.4795 -39.3629 102.6947
v  84.7706 -44.6146 100.6774
v  89.4537 -39.3951 102.6588
v  89.5549 -44.6192 100.6774
v  93.6801 -39.4187 102.6315
v  93.6927 -44.6191 100.6775
v  97.7856 -39.4317 102.6098
v  97.7856 -40.4246 102.2399
v  95.7427 -44.6191 100.6775
# 40 vertices

vn -0.0049 -0.3430 0.9393
vn 0.0073 -0.3120 0.9501
vn -0.0029 -0.3384 0.9410
vn 0.0653 -0.3270 0.9428
vn 0.0636 -0.2813 0.9575
vn -0.0058 -0.2737 0.9618
vn -0.0056 -0.3530 0.9356
vn -0.0079 -0.3526 0.9357
vn -0.0054 -0.3687 0.9295
vn -0.0065 -0.3607 0.9326
vn -0.0074 -0.3726 0.9280
vn -0.0061 -0.3798 0.9250
vn -0.0101 -0.3866 0.9222
vn -0.0098 -0.3812 0.9244
vn -0.0237 -0.3451 0.9383
vn -0.0248 -0.3781 0.9254
vn -0.0038 -0.3270 0.9450
vn -0.0122 -0.2872 0.9578
vn -0.0054 -0.2875 0.9578
vn 0.0165 -0.4029 0.9151
vn 0.0172 -0.3631 0.9316
vn -0.0016 -0.4064 0.9137
vn -0.0013 -0.4080 0.9130
vn -0.0003 -0.3934 0.9194
vn 0.0006 -0.4013 0.9159
vn -0.0011 -0.4041 0.9147
vn -0.0010 -0.4074 0.9132
vn 0.0001 -0.3778 0.9259
vn 0.0015 -0.3881 0.9216
vn 0.0005 -0.3644 0.9313
vn 0.0020 -0.3724 0.9281
vn 0.0024 -0.3613 0.9324
vn 0.0010 -0.3572 0.9340
vn 0.0027 -0.3559 0.9345
vn 0.0012 -0.3536 0.9354
vn 0.0026 -0.3527 0.9357
vn 0.0009 -0.3504 0.9366
vn 0.0026 -0.3499 0.9368
vn 0.0014 -0.3491 0.9371
vn -0.0000 -0.3491 0.9371
# 40 vertex normals

vt 0.3990 0.0196 0.0000
vt 0.3824 0.0197 0.0000
vt 0.3962 0.0104 0.0000
vt 0.3831 0.0108 0.0000
vt 0.3765 0.0109 0.0000
vt 0.3762 0.0201 0.0000
vt 0.4212 0.0102 0.0000
vt 0.4212 0.0187 0.0000
vt 0.4501 0.0099 0.0000
vt 0.4501 0.0185 0.0000
vt 0.4746 0.0182 0.0000
vt 0.4746 0.0096 0.0000
vt 0.4959 0.0094 0.0000
vt 0.4959 0.0180 0.0000
vt 0.5171 0.0177 0.0000
vt 0.5164 0.0090 0.0000
vt 0.5390 0.0090 0.0000
vt 0.5291 0.0178 0.0000
vt 0.5389 0.0178 0.0000
vt 0.5599 0.0090 0.0000
vt 0.5592 0.0174 0.0000
vt 0.5795 0.0172 0.0000
vt 0.5795 0.0086 0.0000
vt 0.6292 0.0083 0.0000
vt 0.6290 0.0169 0.0000
vt 0.6014 0.0084 0.0000
vt 0.6014 0.0170 0.0000
vt 0.6647 0.0081 0.0000
vt 0.6642 0.0169 0.0000
vt 0.6964 0.0080 0.0000
vt 0.6957 0.0168 0.0000
vt 0.7129 0.0168 0.0000
vt 0.7134 0.0080 0.0000
vt 0.7213 0.0167 0.0000
vt 0.7215 0.0080 0.0000
vt 0.7284 0.0167 0.0000
vt 0.7284 0.0080 0.0000
vt 0.7353 0.0167 0.0000
vt 0.7353 0.0150 0.0000
vt 0.7318 0.0080 0.0000
# 40 texture coords

g M720_226A_R_DaS_M720_226A_R
usemtl paint_whiteSG
s 1
f 1/1/1 2/2/2 3/3/3 
f 2/2/2 4/4/4 3/3/3 
f 4/4/4 2/2/2 5/5/5 
f 2/2/2 6/6/6 5/5/5 
f 3/3/3 7/7/7 1/1/1 
f 7/7/7 8/8/8 1/1/1 
f 9/9/9 10/10/10 7/7/7 
f 10/10/10 8/8/8 7/7/7 
f 10/10/10 9/9/9 11/11/11 
f 9/9/9 12/12/12 11/11/11 
f 13/13/13 14/14/14 12/12/12 
f 14/14/14 11/11/11 12/12/12 
f 15/15/15 14/14/14 16/16/16 
f 14/14/14 13/13/13 16/16/16 
f 16/16/16 17/17/17 15/15/15 
f 15/15/15 17/17/17 18/18/18 
f 17/17/17 19/19/19 18/18/18 
f 20/20/20 21/21/21 17/17/17 
f 21/21/21 19/19/19 17/17/17 
f 21/21/21 20/20/20 22/22/22 
f 20/20/20 23/23/23 22/22/22 
f 24/24/24 25/25/25 26/26/26 
f 25/25/25 27/27/27 26/26/26 
f 28/28/28 29/29/29 24/24/24 
f 29/29/29 25/25/25 24/24/24 
f 30/30/30 31/31/31 28/28/28 
f 31/31/31 29/29/29 28/28/28 
f 31/31/31 30/30/30 32/32/32 
f 30/30/30 33/33/33 32/32/32 
f 32/32/32 33/33/33 34/34/34 
f 33/33/33 35/35/35 34/34/34 
f 36/36/36 37/37/37 38/38/38 
f 38/38/38 37/37/37 39/39/39 
f 39/39/39 37/37/37 40/40/40 
f 34/34/34 35/35/35 36/36/36 
f 35/35/35 37/37/37 36/36/36 
f 22/22/22 23/23/23 27/27/27 
f 23/23/23 26/26/26 27/27/27 
# 38 faces

#
# object M720_226A_R_DaS_M720_226A_R_E
#

v  97.7856 -39.4317 102.6098
v  97.7856 -40.4246 102.2399
v  98.2785 -39.4321 102.6075
v  97.7826 -39.2063 101.9711
v  93.6801 -39.4187 102.6315
v  93.6771 -39.1916 101.9934
v  98.2754 -39.2015 101.9707
v  97.7843 -40.1882 101.6053
v  89.4537 -39.3951 102.6588
v  89.4505 -39.1659 102.0215
v  84.4795 -39.3629 102.6947
v  84.4763 -39.1304 102.0586
v  74.1964 -39.3289 102.7521
v  74.1935 -39.0900 102.1184
v  55.4254 -39.2975 102.8370
v  55.4230 -39.0490 102.2069
v  34.4478 -39.2568 102.9180
v  34.4462 -38.9988 102.2918
v  17.9653 -39.1962 102.9629
v  17.9653 -38.9323 102.3392
v  4.9009 -39.1241 102.9730
v  4.9025 -38.8590 102.3498
v  -7.1863 -39.0149 102.9771
v  -7.1845 -38.7611 102.3493
v  -19.3050 -38.7592 103.0776
v  -19.3006 -38.5230 102.4429
v  -25.1621 -38.7679 102.9980
v  -25.1550 -38.5314 102.3635
v  -32.3204 -38.7792 102.9057
v  -32.3136 -38.5322 102.2751
v  -44.9156 -38.6554 102.8253
v  -44.9091 -38.4065 102.1954
v  -57.6498 -38.5005 102.7585
v  -57.6435 -38.2569 102.1266
v  -72.2414 -38.3442 102.6828
v  -72.2358 -38.1085 102.0480
v  -89.4974 -38.1860 102.6046
v  -89.4918 -37.9712 101.9626
v  -102.7397 -37.7003 102.6703
v  -102.7437 -37.5051 102.0219
v  95.7427 -44.6191 100.6775
v  95.6443 -44.6191 100.0096
# 42 vertices

vn 0.0030 0.6911 0.7228
vn 0.0041 -0.3491 0.9371
vn 0.7019 0.2275 0.6750
vn -0.0021 0.9429 0.3330
vn 0.0063 0.9422 0.3351
vn 0.0063 0.9421 0.3354
vn 0.8442 0.5069 0.1741
vn 0.9083 -0.3916 -0.1470
vn 0.9083 -0.3914 -0.1478
vn 0.0082 0.9410 0.3382
vn 0.0083 0.9409 0.3386
vn 0.0071 0.9393 0.3431
vn 0.0072 0.9391 0.3435
vn 0.0044 0.9358 0.3525
vn 0.0044 0.9357 0.3528
vn 0.0035 0.9303 0.3667
vn 0.0035 0.9302 0.3670
vn 0.0041 0.9247 0.3808
vn 0.0041 0.9246 0.3810
vn 0.0051 0.9210 0.3895
vn 0.0051 0.9210 0.3896
vn 0.0070 0.9202 0.3914
vn 0.0069 0.9203 0.3912
vn 0.0144 0.9271 0.3746
vn 0.0143 0.9270 0.3748
vn 0.0083 0.9371 0.3489
vn 0.0082 0.9369 0.3494
vn -0.0060 0.9370 0.3492
vn -0.0060 0.9369 0.3497
vn 0.0011 0.9313 0.3643
vn 0.0011 0.9311 0.3648
vn 0.0082 0.9300 0.3676
vn 0.0082 0.9300 0.3675
vn 0.0086 0.9329 0.3599
vn 0.0086 0.9331 0.3596
vn 0.0073 0.9373 0.3484
vn 0.0073 0.9375 0.3478
vn 0.0212 0.9479 0.3178
vn 0.0209 0.9480 0.3175
vn 0.0363 0.9476 0.3174
vn 0.0349 0.9570 0.2879
vn 0.9097 -0.3932 -0.1339
vn 0.9097 -0.3925 -0.1352
# 43 vertex normals

vt 0.7353 0.0167 0.0000
vt 0.7353 0.0150 0.0000
vt 0.7361 0.0167 0.0000
vt 0.7352 0.0170 0.0000
vt 0.7284 0.0167 0.0000
vt 0.7284 0.0171 0.0000
vt 0.7361 0.0170 0.0000
vt 0.7353 0.0154 0.0000
vt 0.7213 0.0167 0.0000
vt 0.7213 0.0171 0.0000
vt 0.7129 0.0168 0.0000
vt 0.7129 0.0172 0.0000
vt 0.6957 0.0168 0.0000
vt 0.6957 0.0172 0.0000
vt 0.6642 0.0169 0.0000
vt 0.6642 0.0173 0.0000
vt 0.6290 0.0169 0.0000
vt 0.6290 0.0174 0.0000
vt 0.6014 0.0170 0.0000
vt 0.6014 0.0175 0.0000
vt 0.5795 0.0172 0.0000
vt 0.5795 0.0176 0.0000
vt 0.5592 0.0174 0.0000
vt 0.5592 0.0178 0.0000
vt 0.5389 0.0178 0.0000
vt 0.5389 0.0182 0.0000
vt 0.5291 0.0178 0.0000
vt 0.5291 0.0182 0.0000
vt 0.5171 0.0177 0.0000
vt 0.5171 0.0182 0.0000
vt 0.4959 0.0180 0.0000
vt 0.4960 0.0184 0.0000
vt 0.4746 0.0182 0.0000
vt 0.4746 0.0186 0.0000
vt 0.4501 0.0185 0.0000
vt 0.4501 0.0189 0.0000
vt 0.4212 0.0187 0.0000
vt 0.4212 0.0191 0.0000
vt 0.3990 0.0196 0.0000
vt 0.3990 0.0199 0.0000
vt 0.7318 0.0080 0.0000
vt 0.7318 0.0083 0.0000
# 42 texture coords

g M720_226A_R_DaS_M720_226A_R_E
usemtl paint_whiteSG
s 1
f 41/41/41 42/42/42 43/43/43 
s 9
f 41/41/41 44/44/44 45/45/45 
f 44/44/44 46/46/46 45/45/45 
f 43/43/43 47/47/47 41/41/41 
f 47/47/47 44/44/44 41/41/41 
s 10
f 43/43/43 42/42/48 47/47/47 
f 42/42/48 48/48/49 47/47/47 
s 9
f 49/49/50 50/50/51 51/51/52 
f 50/50/51 52/52/53 51/51/52 
f 45/45/45 46/46/46 49/49/50 
f 46/46/46 50/50/51 49/49/50 
f 51/51/52 52/52/53 53/53/54 
f 52/52/53 54/54/55 53/53/54 
f 53/53/54 54/54/55 55/55/56 
f 54/54/55 56/56/57 55/55/56 
f 55/55/56 56/56/57 57/57/58 
f 56/56/57 58/58/59 57/57/58 
f 57/57/58 58/58/59 59/59/60 
f 58/58/59 60/60/61 59/59/60 
f 59/59/60 60/60/61 61/61/62 
f 60/60/61 62/62/63 61/61/62 
f 61/61/62 62/62/63 63/63/64 
f 62/62/63 64/64/65 63/63/64 
f 65/65/66 63/63/64 66/66/67 
f 63/63/64 64/64/65 66/66/67 
f 65/65/66 66/66/67 67/67/68 
f 66/66/67 68/68/69 67/67/68 
f 67/67/68 68/68/69 69/69/70 
f 68/68/69 70/70/71 69/69/70 
f 69/69/70 70/70/71 71/71/72 
f 70/70/71 72/72/73 71/71/72 
f 71/71/72 72/72/73 73/73/74 
f 72/72/73 74/74/75 73/73/74 
f 73/73/74 74/74/75 75/75/76 
f 74/74/75 76/76/77 75/75/76 
f 75/75/76 76/76/77 77/77/78 
f 76/76/77 78/78/79 77/77/78 
f 77/77/78 78/78/79 79/79/80 
s off
f 78/78/81 80/80/81 79/79/81 
s 10
f 81/81/82 82/82/83 42/42/48 
f 82/82/83 48/48/49 42/42/48 
# 41 faces

