# 3ds Max Wavefront OBJ Exporter v0.97b - (c)2007 guruware
# File Created: 30.11.2015 11:42:33

mtllib M720_38SG_L.mtl

#
# object M720_38SG_L_DTaSI_M720_38SG_L
#

v  -137.5597 99.8450 -84.0286
v  -137.7406 93.0349 -86.4597
v  -142.5848 99.5507 -84.1184
v  -142.9277 92.8568 -86.4817
v  -143.2352 86.5353 -88.6961
v  -140.1146 86.5252 -88.7450
v  -137.7778 91.6001 -86.9705
v  -142.1202 105.8540 -81.8710
v  -137.3963 106.1816 -81.7584
v  -155.1629 98.1027 -84.6181
v  -156.1339 92.1960 -86.6122
v  -161.3661 97.3755 -84.8687
v  -164.3539 91.7779 -86.6738
v  -163.9337 86.1663 -88.4643
v  -156.4100 86.4219 -88.5291
v  -170.3097 85.4303 -88.5525
v  -170.5089 88.9060 -87.4906
v  -165.5586 97.4533 -84.8621
v  -168.7453 94.0903 -85.9185
v  -160.4338 101.8393 -83.3604
v  -154.4181 103.0897 -82.8888
v  -148.5325 99.0700 -84.2822
v  -149.0123 92.5823 -86.5361
v  -149.3500 86.5035 -88.6186
v  -147.9935 105.6457 -81.9545
v  -131.8770 106.4798 -81.6837
v  -132.0888 111.2922 -79.9419
v  -130.9124 106.5095 -81.6816
v  -128.6327 111.4602 -79.9008
v  -156.7233 76.5768 -91.7069
v  -149.8918 76.1385 -92.0851
v  -156.9090 71.3932 -93.3118
v  -150.1608 70.9451 -93.7593
v  -147.3722 70.7642 -93.9443
v  -149.3649 66.4367 -95.2946
v  -150.3934 66.4759 -95.2267
v  -170.7637 77.4796 -90.9206
v  -163.9492 77.0341 -91.3051
v  -170.8913 72.3915 -92.3985
v  -164.0043 71.8857 -92.8484
v  -163.9962 67.0496 -94.3463
v  -157.0750 66.7262 -94.7953
v  -180.5619 78.9773 -90.1191
v  -176.2920 77.9974 -90.5642
v  -182.0342 75.6487 -90.9506
v  -177.3882 72.8807 -91.9655
v  -176.0079 68.0713 -93.4475
v  -170.5592 67.5189 -93.8799
v  -142.6881 80.9365 -90.6601
v  -143.5020 80.9708 -90.6303
v  -149.6258 81.2029 -90.4117
v  -156.5473 81.4247 -90.1643
v  -163.8884 81.6097 -89.9010
v  -170.5106 81.7180 -89.6725
v  -174.4889 84.9512 -88.6009
v  -175.3970 81.8516 -89.4867
v  -178.5520 82.0562 -89.3368
v  -174.1786 87.6815 -87.8005
v  -137.4095 110.8569 -80.0775
v  -141.4473 110.3202 -80.2658
v  -145.6575 109.3513 -80.6160
v  -150.0133 107.7400 -81.2114
v  -147.8533 108.6202 -80.8855
v  -154.6425 105.4171 -82.0674
v  -159.0555 102.7827 -83.0238
v  -161.5112 100.9738 -83.6673
v  -171.7262 90.6338 -86.9571
v  -176.3144 85.0424 -88.5314
v  -182.2266 73.1410 -91.6406
v  -182.1623 72.2576 -91.8896
v  -181.7862 71.1482 -92.2324
v  -181.4186 70.5910 -92.4072
v  -180.6956 69.8508 -92.6678
v  -178.8480 68.8339 -93.0722
v  -133.9143 99.9903 -84.0095
v  -137.1119 93.0461 -86.4644
v  -131.8783 104.4119 -82.4308
v  -145.0448 75.8186 -92.3518
v  -143.5983 78.9599 -91.3186
# 79 vertices

vn -0.0061 0.3367 -0.9416
vn -0.0088 0.3354 -0.9420
vn -0.0023 0.3347 -0.9423
vn -0.0072 0.3322 -0.9432
vn -0.0137 0.3291 -0.9442
vn -0.0119 0.3314 -0.9434
vn -0.0095 0.3348 -0.9422
vn -0.0003 0.3374 -0.9414
vn -0.0041 0.3383 -0.9410
vn 0.0001 0.3239 -0.9461
vn -0.0079 0.3179 -0.9481
vn 0.0028 0.3150 -0.9491
vn -0.0087 0.3048 -0.9524
vn -0.0201 0.3015 -0.9533
vn -0.0169 0.3130 -0.9496
vn -0.0217 0.2911 -0.9565
vn -0.0135 0.2927 -0.9561
vn 0.0014 0.3084 -0.9513
vn -0.0064 0.2961 -0.9551
vn 0.0070 0.3231 -0.9463
vn 0.0045 0.3314 -0.9435
vn -0.0006 0.3307 -0.9437
vn -0.0069 0.3263 -0.9452
vn -0.0146 0.3227 -0.9464
vn 0.0023 0.3364 -0.9417
vn -0.0064 0.3396 -0.9405
vn -0.0059 0.3403 -0.9403
vn -0.0074 0.3401 -0.9403
vn -0.0054 0.3407 -0.9402
vn -0.0335 0.3007 -0.9531
vn -0.0358 0.3096 -0.9502
vn -0.0417 0.3010 -0.9527
vn -0.0452 0.3107 -0.9494
vn -0.0390 0.3125 -0.9491
vn -0.0465 0.3146 -0.9481
vn -0.0500 0.3139 -0.9481
vn -0.0332 0.2829 -0.9586
vn -0.0346 0.2909 -0.9561
vn -0.0410 0.2825 -0.9584
vn -0.0413 0.2918 -0.9556
vn -0.0453 0.2984 -0.9534
vn -0.0466 0.3074 -0.9505
vn -0.0398 0.2644 -0.9636
vn -0.0385 0.2723 -0.9614
vn -0.0461 0.2670 -0.9626
vn -0.0495 0.2759 -0.9599
vn -0.0469 0.2838 -0.9577
vn -0.0449 0.2904 -0.9559
vn -0.0184 0.3279 -0.9445
vn -0.0197 0.3258 -0.9452
vn -0.0242 0.3168 -0.9482
vn -0.0257 0.3042 -0.9523
vn -0.0277 0.2937 -0.9555
vn -0.0272 0.2861 -0.9578
vn -0.0234 0.2840 -0.9585
vn -0.0285 0.2798 -0.9596
vn -0.0313 0.2747 -0.9610
vn -0.0186 0.2860 -0.9580
vn -0.0035 0.3389 -0.9408
vn -0.0006 0.3383 -0.9410
vn 0.0016 0.3384 -0.9410
vn 0.0047 0.3361 -0.9418
vn 0.0036 0.3381 -0.9411
vn 0.0062 0.3333 -0.9428
vn 0.0056 0.3309 -0.9436
vn 0.0098 0.3170 -0.9484
vn -0.0097 0.2887 -0.9574
vn -0.0241 0.2813 -0.9593
vn -0.0502 0.2680 -0.9621
vn -0.0509 0.2732 -0.9606
vn -0.0498 0.2744 -0.9603
vn -0.0518 0.2764 -0.9596
vn -0.0552 0.2822 -0.9578
vn -0.0530 0.2812 -0.9582
vn -0.0077 0.3376 -0.9412
vn -0.0115 0.3363 -0.9417
vn -0.0067 0.3394 -0.9406
vn -0.0285 0.3168 -0.9481
vn -0.0217 0.3237 -0.9459
# 79 vertex normals

vt 0.1949 0.8432 0.0000
vt 0.1953 0.8699 0.0000
vt 0.1752 0.8452 0.0000
vt 0.1749 0.8714 0.0000
vt 0.1747 0.8963 0.0000
vt 0.1870 0.8958 0.0000
vt 0.1953 0.8756 0.0000
vt 0.1761 0.8204 0.0000
vt 0.1945 0.8183 0.0000
vt 0.1262 0.8528 0.0000
vt 0.1233 0.8761 0.0000
vt 0.1019 0.8566 0.0000
vt 0.0911 0.8790 0.0000
vt 0.0936 0.9010 0.0000
vt 0.1231 0.8988 0.0000
vt 0.0687 0.9048 0.0000
vt 0.0674 0.8912 0.0000
vt 0.0855 0.8570 0.0000
vt 0.0735 0.8706 0.0000
vt 0.1049 0.8390 0.0000
vt 0.1283 0.8331 0.0000
vt 0.1520 0.8480 0.0000
vt 0.1511 0.8735 0.0000
vt 0.1508 0.8974 0.0000
vt 0.1531 0.8221 0.0000
vt 0.2161 0.8163 0.0000
vt 0.2146 0.7975 0.0000
vt 0.2199 0.8160 0.0000
vt 0.2281 0.7963 0.0000
vt 0.1234 0.9374 0.0000
vt 0.1502 0.9381 0.0000
vt 0.1235 0.9578 0.0000
vt 0.1500 0.9585 0.0000
vt 0.1610 0.9588 0.0000
vt 0.1538 0.9760 0.0000
vt 0.1498 0.9760 0.0000
vt 0.0682 0.9361 0.0000
vt 0.0950 0.9368 0.0000
vt 0.0685 0.9560 0.0000
vt 0.0956 0.9570 0.0000
vt 0.0964 0.9759 0.0000
vt 0.1236 0.9761 0.0000
vt 0.0296 0.9317 0.0000
vt 0.0465 0.9349 0.0000
vt 0.0243 0.9450 0.0000
vt 0.0430 0.9551 0.0000
vt 0.0491 0.9738 0.0000
vt 0.0706 0.9751 0.0000
vt 0.1777 0.9181 0.0000
vt 0.1745 0.9181 0.0000
vt 0.1505 0.9182 0.0000
vt 0.1233 0.9184 0.0000
vt 0.0945 0.9188 0.0000
vt 0.0685 0.9194 0.0000
vt 0.0524 0.9074 0.0000
vt 0.0494 0.9197 0.0000
vt 0.0370 0.9194 0.0000
vt 0.0532 0.8966 0.0000
vt 0.1938 0.8000 0.0000
vt 0.1780 0.8028 0.0000
vt 0.1617 0.8072 0.0000
vt 0.1448 0.8142 0.0000
vt 0.1532 0.8104 0.0000
vt 0.1271 0.8240 0.0000
vt 0.1102 0.8350 0.0000
vt 0.1008 0.8425 0.0000
vt 0.0624 0.8847 0.0000
vt 0.0453 0.9073 0.0000
vt 0.0239 0.9549 0.0000
vt 0.0243 0.9583 0.0000
vt 0.0260 0.9626 0.0000
vt 0.0275 0.9647 0.0000
vt 0.0305 0.9675 0.0000
vt 0.0379 0.9712 0.0000
vt 0.2092 0.8421 0.0000
vt 0.1977 0.8698 0.0000
vt 0.2165 0.8244 0.0000
vt 0.1693 0.9386 0.0000
vt 0.1745 0.9260 0.0000
# 79 texture coords

g M720_38SG_L_DTaSI_M720_38SG_L
usemtl windowglass_1SG
s 1
f 1/1/1 2/2/2 3/3/3 
f 3/3/3 2/2/2 4/4/4 
f 5/5/5 4/4/4 6/6/6 
f 2/2/2 7/7/7 4/4/4 
f 4/4/4 7/7/7 6/6/6 
f 3/3/3 8/8/8 1/1/1 
f 1/1/1 8/8/8 9/9/9 
f 10/10/10 11/11/11 12/12/12 
f 12/12/12 11/11/11 13/13/13 
f 14/14/14 13/13/13 15/15/15 
f 15/15/15 13/13/13 11/11/11 
f 16/16/16 17/17/17 14/14/14 
f 14/14/14 17/17/17 13/13/13 
f 12/12/12 13/13/13 18/18/18 
f 18/18/18 13/13/13 19/19/19 
f 12/12/12 20/20/20 10/10/10 
f 10/10/10 20/20/20 21/21/21 
f 3/3/3 4/4/4 22/22/22 
f 22/22/22 4/4/4 23/23/23 
f 24/24/24 23/23/23 5/5/5 
f 5/5/5 23/23/23 4/4/4 
f 15/15/15 11/11/11 24/24/24 
f 24/24/24 11/11/11 23/23/23 
f 22/22/22 23/23/23 10/10/10 
f 10/10/10 23/23/23 11/11/11 
f 22/22/22 25/25/25 3/3/3 
f 3/3/3 25/25/25 8/8/8 
f 10/10/10 21/21/21 22/22/22 
f 22/22/22 21/21/21 25/25/25 
f 26/26/26 27/27/27 28/28/28 
f 28/28/28 27/27/27 29/29/29 
f 30/30/30 31/31/31 32/32/32 
f 32/32/32 31/31/31 33/33/33 
f 34/34/34 35/35/35 33/33/33 
f 33/33/33 35/35/35 36/36/36 
f 37/37/37 38/38/38 39/39/39 
f 39/39/39 38/38/38 40/40/40 
f 32/32/32 40/40/40 30/30/30 
f 30/30/30 40/40/40 38/38/38 
f 40/40/40 32/32/32 41/41/41 
f 41/41/41 32/32/32 42/42/42 
f 43/43/43 44/44/44 45/45/45 
f 45/45/45 44/44/44 46/46/46 
f 37/37/37 39/39/39 44/44/44 
f 44/44/44 39/39/39 46/46/46 
f 46/46/46 39/39/39 47/47/47 
f 47/47/47 39/39/39 48/48/48 
f 6/6/6 49/49/49 5/5/5 
f 5/5/5 49/49/49 50/50/50 
f 24/24/24 51/51/51 15/15/15 
f 15/15/15 51/51/51 52/52/52 
f 5/5/5 50/50/50 24/24/24 
f 24/24/24 50/50/50 51/51/51 
f 52/52/52 51/51/51 30/30/30 
f 30/30/30 51/51/51 31/31/31 
f 14/14/14 53/53/53 16/16/16 
f 16/16/16 53/53/53 54/54/54 
f 15/15/15 52/52/52 14/14/14 
f 14/14/14 52/52/52 53/53/53 
f 30/30/30 38/38/38 52/52/52 
f 52/52/52 38/38/38 53/53/53 
f 54/54/54 53/53/53 37/37/37 
f 37/37/37 53/53/53 38/38/38 
f 16/16/16 54/54/54 55/55/55 
f 55/55/55 54/54/54 56/56/56 
f 44/44/44 56/56/56 37/37/37 
f 37/37/37 56/56/56 54/54/54 
f 43/43/43 57/57/57 44/44/44 
f 44/44/44 57/57/57 56/56/56 
f 55/55/55 58/58/58 16/16/16 
f 16/16/16 58/58/58 17/17/17 
f 27/27/27 26/26/26 59/59/59 
f 59/59/59 26/26/26 9/9/9 
f 59/59/59 9/9/9 60/60/60 
f 60/60/60 9/9/9 8/8/8 
f 60/60/60 8/8/8 61/61/61 
f 61/61/61 8/8/8 25/25/25 
f 62/62/62 63/63/63 25/25/25 
f 25/25/25 63/63/63 61/61/61 
f 64/64/64 62/62/62 21/21/21 
f 21/21/21 62/62/62 25/25/25 
f 64/64/64 21/21/21 65/65/65 
f 65/65/65 21/21/21 20/20/20 
f 18/18/18 66/66/66 12/12/12 
f 12/12/12 66/66/66 20/20/20 
f 67/67/67 19/19/19 17/17/17 
f 17/17/17 19/19/19 13/13/13 
f 67/67/67 17/17/17 58/58/58 
f 68/68/68 58/58/58 55/55/55 
f 57/57/57 68/68/68 56/56/56 
f 56/56/56 68/68/68 55/55/55 
f 45/45/45 46/46/46 69/69/69 
f 69/69/69 46/46/46 70/70/70 
f 70/70/70 46/46/46 71/71/71 
f 72/72/72 71/71/71 46/46/46 
f 72/72/72 46/46/46 73/73/73 
f 46/46/46 74/74/74 73/73/73 
f 46/46/46 47/47/47 74/74/74 
f 41/41/41 48/48/48 40/40/40 
f 40/40/40 48/48/48 39/39/39 
f 36/36/36 42/42/42 33/33/33 
f 33/33/33 42/42/42 32/32/32 
f 75/75/75 76/76/76 1/1/1 
f 1/1/1 76/76/76 2/2/2 
f 76/76/76 7/7/7 2/2/2 
f 1/1/1 9/9/9 75/75/75 
f 75/75/75 9/9/9 77/77/77 
f 77/77/77 9/9/9 26/26/26 
f 28/28/28 77/77/77 26/26/26 
f 78/78/78 34/34/34 31/31/31 
f 31/31/31 34/34/34 33/33/33 
f 49/49/49 79/79/79 50/50/50 
f 31/31/31 51/51/51 78/78/78 
f 78/78/78 51/51/51 79/79/79 
f 79/79/79 51/51/51 50/50/50 
# 115 faces

