# 3ds Max Wavefront OBJ Exporter v0.97b - (c)2007 guruware
# File Created: 30.11.2015 11:48:40

mtllib M720_FLOR_C.mtl

#
# object M720_FLOR_C_N_M720_FLOR_C
#

v  166.2381 -43.5653 -60.6847
v  217.7940 -42.3215 -60.6817
v  166.2381 -43.5653 0.0000
v  217.7940 -42.3215 0.0000
v  116.8508 -44.6554 -60.6835
v  116.8508 -44.6554 0.0000
v  116.8508 -44.6554 -101.3614
v  114.1233 -44.6554 -100.7631
v  114.1233 -44.6554 -60.6834
v  111.3538 -44.6191 -100.6776
v  111.3538 -44.6191 -60.6834
v  104.9426 -44.6191 -100.6776
v  108.2420 -44.6191 -100.6776
v  104.9426 -44.6191 -60.6834
v  108.2420 -44.6191 -60.6834
v  97.7856 -44.6191 -100.6775
v  101.5057 -44.6191 -100.6776
v  97.7856 -44.6191 -60.6834
v  101.5057 -44.6191 -60.6834
v  89.5549 -44.6192 -100.6774
v  93.6927 -44.6191 -100.6775
v  89.5549 -44.6192 -60.6834
v  93.6927 -44.6191 -60.6834
v  84.7706 -44.6146 -100.6774
v  84.7706 -44.6147 -60.6834
v  74.6016 -44.5826 -100.6774
v  74.6016 -44.5826 -60.6834
v  55.7166 -44.5062 -100.6776
v  55.7166 -44.5062 -60.6834
v  34.5490 -44.4111 -100.6779
v  34.5490 -44.4111 -60.6834
v  17.9779 -44.3262 -100.6780
v  17.9779 -44.3262 -60.6834
v  4.9009 -44.2507 -100.6781
v  4.9009 -44.2507 -60.6834
v  -6.7980 -44.0215 -100.7806
v  -6.7980 -44.0215 -60.6834
v  -19.2332 -44.0209 -101.4985
v  -19.2332 -44.0209 -60.6836
v  -32.7412 -44.0174 -100.7803
v  -32.7412 -44.0174 -60.6834
v  -44.9156 -43.7784 -100.6776
v  -44.9156 -43.7784 -60.6834
v  -57.6498 -43.6219 -100.6774
v  -57.6498 -43.6219 -60.6834
v  -72.2414 -43.4638 -100.6771
v  -72.2414 -43.4638 -60.6834
v  -89.4858 -43.3020 -100.6769
v  -89.4858 -43.3020 -60.6834
v  -104.3889 -43.1615 -100.6767
v  -104.3889 -43.1615 -60.6834
v  -116.1344 -42.8403 -101.3356
v  -112.2227 -42.9473 -100.7591
v  -116.1344 -42.8403 -60.6835
v  -112.2227 -42.9473 -60.6834
v  114.1233 -44.6554 0.0000
v  111.3538 -44.6191 0.0000
v  104.9426 -44.6191 0.0000
v  108.2420 -44.6191 0.0000
v  97.7856 -44.6191 0.0000
v  101.5057 -44.6191 0.0000
v  89.5549 -44.6192 0.0000
v  93.6927 -44.6191 0.0000
v  84.7706 -44.6146 0.0000
v  74.6016 -44.5826 0.0000
v  55.7166 -44.5062 0.0000
v  34.5490 -44.4111 0.0000
v  17.9779 -44.3262 0.0000
v  4.9009 -44.2507 0.0000
v  -6.7980 -44.0215 0.0000
v  -19.2332 -44.0209 0.0000
v  -32.7412 -44.0174 0.0000
v  -44.9156 -43.7784 0.0000
v  -57.6498 -43.6219 0.0000
v  -72.2414 -43.4638 0.0000
v  -89.4858 -43.3020 0.0000
v  -104.3889 -43.1615 0.0000
v  -116.1344 -42.8403 0.0000
v  -112.2227 -42.9473 0.0000
v  -167.5246 -42.8501 -60.6848
v  -167.5246 -42.8501 0.0000
v  -219.3072 -42.4468 -60.6825
v  -219.3072 -42.4468 0.0000
v  -219.3072 -42.4468 -96.8733
v  -222.2947 -42.0491 -96.1002
v  -225.2819 -41.6513 -95.7333
v  -228.5453 -41.2168 -95.0329
v  -231.8405 -40.7783 -93.8079
v  -234.9745 -40.3615 -91.9632
v  -237.9181 -39.9703 -89.4790
v  -240.6254 -39.6107 -86.4770
v  -242.8294 -39.3182 -83.4637
v  -243.5976 -39.2164 -82.2201
v  -244.8871 -39.0455 -79.6743
v  -245.9255 -38.9084 -76.6473
v  -246.9523 -38.7731 -72.4537
v  -247.9202 -38.6462 -66.8979
v  -248.7344 -38.5403 -60.2109
v  -249.8779 -38.3920 -49.2677
v  -249.3817 -38.4564 -53.8803
v  -250.6081 -38.2970 -43.0877
v  -250.2705 -38.3409 -45.9402
v  -251.1774 -38.2234 -37.1095
v  -250.9075 -38.2582 -40.2380
v  -251.6866 -38.1581 -30.2900
v  -251.4320 -38.1907 -33.7920
v  -252.2267 -38.0899 -20.1371
v  -251.9523 -38.1243 -25.9233
v  -252.6201 -38.0424 -6.9216
v  -252.4634 -38.0608 -13.5083
v  -252.6999 -38.0343 0.0000
v  217.7940 -42.3215 -93.6744
v  219.9162 -42.3215 -92.3350
v  221.9856 -42.3261 -91.5368
v  224.2737 -42.3255 -90.4863
v  227.3685 -42.3254 -88.1065
v  231.8055 -42.3254 -83.4448
v  237.0694 -42.3254 -76.3302
v  246.8075 -42.3254 -57.8729
v  242.3621 -42.3254 -67.1660
v  251.7303 -42.3254 -43.7648
v  249.7797 -42.3254 -50.2088
v  254.5583 -42.3254 -31.8699
v  253.2687 -42.3254 -37.7322
v  256.5928 -42.3254 -20.5829
v  255.6503 -42.3254 -26.1190
v  257.8365 -42.3254 -10.2573
v  257.4334 -42.3254 -15.3464
v  258.0731 -42.3254 0.0000
v  257.9195 -42.3254 -5.1284
v  166.2381 -43.5653 60.6847
v  217.7940 -42.3215 60.6817
v  116.8508 -44.6554 60.6835
v  116.8508 -44.6554 101.3615
v  114.1233 -44.6554 100.7631
v  114.1233 -44.6554 60.6834
v  111.3538 -44.6191 100.6776
v  111.3538 -44.6191 60.6834
v  104.9426 -44.6191 100.6776
v  104.9426 -44.6191 60.6834
v  108.2420 -44.6191 100.6776
v  108.2420 -44.6191 60.6834
v  97.7856 -44.6191 100.6775
v  97.7856 -44.6191 60.6834
v  101.5057 -44.6191 100.6776
v  101.5057 -44.6191 60.6834
v  89.5549 -44.6192 100.6774
v  89.5549 -44.6192 60.6834
v  93.6927 -44.6191 100.6775
v  93.6927 -44.6191 60.6834
v  84.7706 -44.6146 100.6774
v  84.7706 -44.6146 60.6834
v  74.6016 -44.5826 100.6774
v  74.6016 -44.5826 60.6834
v  55.7166 -44.5062 100.6776
v  55.7166 -44.5062 60.6834
v  34.5490 -44.4111 100.6779
v  34.5490 -44.4111 60.6834
v  17.9779 -44.3262 100.6780
v  17.9779 -44.3262 60.6834
v  4.9009 -44.2507 100.6781
v  4.9009 -44.2507 60.6834
v  -6.7980 -44.0215 100.7806
v  -6.7980 -44.0215 60.6834
v  -19.2332 -44.0209 101.4985
v  -19.2332 -44.0209 60.6836
v  -32.7412 -44.0174 100.7803
v  -32.7412 -44.0174 60.6834
v  -44.9156 -43.7784 100.6776
v  -44.9156 -43.7784 60.6834
v  -57.6498 -43.6219 100.6774
v  -57.6498 -43.6219 60.6834
v  -72.2414 -43.4638 100.6771
v  -72.2414 -43.4638 60.6834
v  -89.4858 -43.3020 100.6769
v  -89.4858 -43.3020 60.6834
v  -104.3889 -43.1615 100.6767
v  -104.3889 -43.1615 60.6834
v  -116.1344 -42.8403 101.3356
v  -116.1344 -42.8403 60.6835
v  -112.2227 -42.9473 100.7591
v  -112.2227 -42.9473 60.6834
v  -167.5246 -42.8501 60.6848
v  -219.3072 -42.4468 60.6825
v  -219.3072 -42.4468 96.8733
v  -222.2947 -42.0491 96.1002
v  -225.2819 -41.6513 95.7333
v  -228.5453 -41.2168 95.0329
v  -231.8405 -40.7783 93.8079
v  -234.9745 -40.3615 91.9632
v  -237.9181 -39.9703 89.4790
v  -240.6254 -39.6107 86.4770
v  -242.8294 -39.3182 83.4637
v  -243.5976 -39.2164 82.2201
v  -244.8871 -39.0456 79.6743
v  -245.9255 -38.9083 76.6473
v  -246.9523 -38.7731 72.4537
v  -247.9202 -38.6462 66.8979
v  -248.7344 -38.5403 60.2109
v  -249.8779 -38.3920 49.2677
v  -249.3817 -38.4564 53.8804
v  -250.6081 -38.2970 43.0877
v  -250.2705 -38.3409 45.9402
v  -251.1774 -38.2234 37.1095
v  -250.9075 -38.2582 40.2380
v  -251.6866 -38.1581 30.2900
v  -251.4320 -38.1907 33.7920
v  -252.2267 -38.0899 20.1371
v  -251.9523 -38.1243 25.9233
v  -252.6201 -38.0424 6.9216
v  -252.4634 -38.0608 13.5083
v  217.7940 -42.3215 93.6744
v  219.9162 -42.3215 92.3350
v  221.9856 -42.3261 91.5368
v  224.2737 -42.3255 90.4863
v  227.3685 -42.3254 88.1065
v  231.8055 -42.3254 83.4448
v  237.0694 -42.3254 76.3302
v  246.8075 -42.3254 57.8729
v  242.3621 -42.3254 67.1660
v  251.7303 -42.3254 43.7648
v  249.7797 -42.3254 50.2088
v  254.5583 -42.3254 31.8699
v  253.2687 -42.3254 37.7322
v  256.5928 -42.3254 20.5829
v  255.6503 -42.3254 26.1190
v  257.8365 -42.3254 10.2573
v  257.4334 -42.3254 15.3464
v  257.9195 -42.3254 5.1284
# 229 vertices

vn 0.0227 -0.9997 -0.0000
vn 0.0021 -1.0000 0.0000
vn 0.0234 -0.9997 -0.0000
vn 0.0120 -0.9999 -0.0000
vn 0.0044 -1.0000 -0.0000
vn 0.0147 -0.9999 -0.0000
vn 0.0000 -1.0000 -0.0000
vn -0.0044 -1.0000 -0.0000
vn -0.0087 -1.0000 -0.0000
vn -0.0066 -1.0000 -0.0000
vn -0.0052 -1.0000 -0.0000
vn -0.0006 -1.0000 -0.0000
vn -0.0005 -1.0000 -0.0000
vn -0.0024 -1.0000 -0.0000
vn -0.0021 -1.0000 -0.0000
vn -0.0037 -1.0000 -0.0000
vn -0.0036 -1.0000 -0.0000
vn -0.0043 -1.0000 -0.0000
vn -0.0049 -1.0000 -0.0000
vn -0.0048 -1.0000 -0.0000
vn -0.0056 -1.0000 -0.0000
vn -0.0054 -1.0000 -0.0000
vn -0.0150 -0.9999 -0.0000
vn -0.0127 -0.9999 -0.0000
vn -0.0098 -1.0000 -0.0000
vn -0.0002 -1.0000 -0.0000
vn -0.0067 -1.0000 -0.0000
vn -0.0132 -0.9999 -0.0000
vn -0.0160 -0.9999 -0.0000
vn -0.0152 -0.9999 -0.0000
vn -0.0113 -0.9999 -0.0000
vn -0.0116 -0.9999 -0.0000
vn -0.0099 -1.0000 -0.0000
vn -0.0101 -0.9999 -0.0000
vn -0.0094 -1.0000 -0.0000
vn -0.0214 -0.9998 -0.0000
vn -0.0184 -0.9998 -0.0000
vn -0.0273 -0.9996 -0.0000
vn -0.0163 -0.9999 -0.0000
vn -0.0003 -1.0000 -0.0000
vn -0.0017 -1.0000 -0.0000
vn -0.0034 -1.0000 -0.0000
vn -0.0042 -1.0000 -0.0000
vn -0.0047 -1.0000 -0.0000
vn -0.0053 -1.0000 -0.0000
vn -0.0104 -0.9999 -0.0000
vn -0.0131 -0.9999 -0.0000
vn -0.0001 -1.0000 -0.0000
vn -0.0172 -0.9999 -0.0000
vn -0.0118 -0.9999 -0.0000
vn -0.0103 -0.9999 -0.0000
vn -0.0154 -0.9999 -0.0000
vn -0.0182 -0.9998 -0.0000
vn -0.0051 -1.0000 -0.0000
vn -0.0025 -1.0000 -0.0000
vn -0.1274 -0.9918 -0.0002
vn -0.0489 -0.9988 -0.0000
vn -0.1320 -0.9913 -0.0000
vn -0.1320 -0.9913 0.0000
vn -0.1319 -0.9913 -0.0000
vn -0.1318 -0.9913 -0.0001
vn -0.1317 -0.9913 -0.0001
vn -0.1317 -0.9913 -0.0002
vn -0.1316 -0.9913 -0.0002
vn -0.1316 -0.9913 -0.0003
vn -0.1316 -0.9913 -0.0004
vn -0.1313 -0.9913 -0.0000
vn -0.0000 -1.0000 -0.0000
vn -0.0011 -1.0000 -0.0001
vn -0.0010 -1.0000 0.0000
vn 0.0001 -1.0000 0.0001
vn -0.0001 -1.0000 0.0001
vn -0.0001 -1.0000 0.0000
vn 0.0021 -1.0000 -0.0000
vn -0.1274 -0.9918 0.0002
vn -0.1319 -0.9913 0.0000
vn -0.1318 -0.9913 0.0001
vn -0.1317 -0.9913 0.0001
vn -0.1317 -0.9913 0.0002
vn -0.1316 -0.9913 0.0002
vn -0.1316 -0.9913 0.0003
vn -0.1316 -0.9913 0.0004
vn -0.0011 -1.0000 0.0001
vn -0.0010 -1.0000 -0.0000
vn 0.0001 -1.0000 -0.0001
vn -0.0001 -1.0000 -0.0001
# 86 vertex normals

g M720_FLOR_C_N_M720_FLOR_C
usemtl diffuse_black_plasticSG
s 1
f 1//1 2//2 3//3 
f 3//3 2//2 4//4 
f 5//5 1//1 6//6 
f 6//6 1//1 3//3 
f 7//7 5//5 8//8 
f 8//8 5//5 9//9 
f 8//8 9//9 10//10 
f 10//10 9//9 11//11 
f 12//7 13//7 14//7 
f 14//7 13//7 15//7 
f 13//7 10//10 15//7 
f 15//7 10//10 11//11 
f 16//7 17//7 18//7 
f 18//7 17//7 19//7 
f 17//7 12//7 19//7 
f 19//7 12//7 14//7 
f 20//12 21//7 22//13 
f 22//13 21//7 23//7 
f 21//7 16//7 23//7 
f 23//7 16//7 18//7 
f 24//14 20//12 25//15 
f 25//15 20//12 22//13 
f 26//16 24//14 27//17 
f 27//17 24//14 25//15 
f 28//18 26//16 29//18 
f 29//18 26//16 27//17 
f 30//19 28//18 31//20 
f 31//20 28//18 29//18 
f 32//21 30//19 33//22 
f 33//22 30//19 31//20 
f 34//23 32//21 35//24 
f 35//24 32//21 33//22 
f 36//10 34//23 37//25 
f 37//25 34//23 35//24 
f 38//26 36//10 39//26 
f 39//26 36//10 37//25 
f 38//26 39//26 40//27 
f 40//27 39//26 41//28 
f 40//27 41//28 42//29 
f 42//29 41//28 43//30 
f 44//31 42//29 45//32 
f 45//32 42//29 43//30 
f 46//33 44//31 47//34 
f 47//34 44//31 45//32 
f 48//35 46//33 49//35 
f 49//35 46//33 47//34 
f 50//36 48//35 51//37 
f 51//37 48//35 49//35 
f 52//38 53//38 54//39 
f 54//39 53//38 55//38 
f 53//38 50//36 55//38 
f 55//38 50//36 51//37 
f 9//9 5//5 56//8 
f 56//8 5//5 6//6 
f 11//11 9//9 57//9 
f 57//9 9//9 56//8 
f 14//7 15//7 58//7 
f 58//7 15//7 59//7 
f 15//7 11//11 59//7 
f 59//7 11//11 57//9 
f 18//7 19//7 60//7 
f 60//7 19//7 61//7 
f 19//7 14//7 61//7 
f 61//7 14//7 58//7 
f 22//13 23//7 62//40 
f 62//40 23//7 63//7 
f 23//7 18//7 63//7 
f 63//7 18//7 60//7 
f 25//15 22//13 64//41 
f 64//41 22//13 62//40 
f 27//17 25//15 65//42 
f 65//42 25//15 64//41 
f 29//18 27//17 66//43 
f 66//43 27//17 65//42 
f 31//20 29//18 67//44 
f 67//44 29//18 66//43 
f 33//22 31//20 68//45 
f 68//45 31//20 67//44 
f 35//24 33//22 69//46 
f 69//46 33//22 68//45 
f 37//25 35//24 70//47 
f 70//47 35//24 69//46 
f 39//26 37//25 71//48 
f 71//48 37//25 70//47 
f 41//28 39//26 72//27 
f 72//27 39//26 71//48 
f 43//30 41//28 73//49 
f 73//49 41//28 72//27 
f 45//32 43//30 74//50 
f 74//50 43//30 73//49 
f 47//34 45//32 75//51 
f 75//51 45//32 74//50 
f 49//35 47//34 76//35 
f 76//35 47//34 75//51 
f 51//37 49//35 77//52 
f 77//52 49//35 76//35 
f 54//39 55//38 78//53 
f 78//53 55//38 79//38 
f 55//38 51//37 79//38 
f 79//38 51//37 77//52 
f 80//54 54//39 81//55 
f 81//55 54//39 78//53 
f 82//56 80//54 83//57 
f 83//57 80//54 81//55 
f 84//58 82//56 85//59 
f 86//59 85//59 82//56 
f 86//59 82//56 87//60 
f 88//60 87//60 82//56 
f 88//60 82//56 89//61 
f 90//61 89//61 82//56 
f 90//61 82//56 91//62 
f 92//62 91//62 82//56 
f 92//62 82//56 93//63 
f 94//63 93//63 82//56 
f 94//63 82//56 95//64 
f 96//65 95//64 82//56 
f 96//65 82//56 97//65 
f 82//56 98//65 97//65 
f 99//65 100//65 82//56 
f 100//65 98//65 82//56 
f 101//65 102//65 82//56 
f 102//65 99//65 82//56 
f 103//65 104//65 82//56 
f 104//65 101//65 82//56 
f 105//65 106//65 82//56 
f 106//65 103//65 82//56 
f 107//66 108//65 82//56 
f 108//65 105//65 82//56 
f 109//66 110//66 82//56 
f 110//66 107//66 82//56 
f 111//67 109//66 82//56 
f 82//56 83//57 111//67 
f 112//68 113//69 2//2 
f 113//69 114//70 2//2 
f 114//70 115//71 2//2 
f 115//71 116//72 2//2 
f 116//72 117//72 2//2 
f 117//72 118//72 2//2 
f 119//72 2//2 120//72 
f 2//2 118//72 120//72 
f 121//73 2//2 122//73 
f 2//2 119//72 122//73 
f 123//73 2//2 124//73 
f 2//2 121//73 124//73 
f 125//73 2//2 126//73 
f 2//2 123//73 126//73 
f 127//73 2//2 128//73 
f 2//2 125//73 128//73 
f 129//48 2//2 130//73 
f 2//2 127//73 130//73 
f 2//2 129//48 4//4 
f 131//1 3//3 132//74 
f 3//3 4//4 132//74 
f 133//5 6//6 131//1 
f 6//6 3//3 131//1 
f 134//68 135//8 133//5 
f 135//8 136//9 133//5 
f 135//8 137//10 136//9 
f 137//10 138//11 136//9 
f 139//7 140//7 141//7 
f 140//7 142//7 141//7 
f 141//7 142//7 137//10 
f 142//7 138//11 137//10 
f 143//7 144//7 145//7 
f 144//7 146//7 145//7 
f 145//7 146//7 139//7 
f 146//7 140//7 139//7 
f 147//12 148//13 149//7 
f 148//13 150//7 149//7 
f 149//7 150//7 143//7 
f 150//7 144//7 143//7 
f 151//14 152//15 147//12 
f 152//15 148//13 147//12 
f 153//16 154//17 151//14 
f 154//17 152//15 151//14 
f 155//18 156//18 153//16 
f 156//18 154//17 153//16 
f 157//19 158//20 155//18 
f 158//20 156//18 155//18 
f 159//21 160//22 157//19 
f 160//22 158//20 157//19 
f 161//23 162//24 159//21 
f 162//24 160//22 159//21 
f 163//10 164//25 161//23 
f 164//25 162//24 161//23 
f 165//26 166//26 163//10 
f 166//26 164//25 163//10 
f 165//26 167//27 166//26 
f 167//27 168//28 166//26 
f 167//27 169//29 168//28 
f 169//29 170//30 168//28 
f 171//31 172//32 169//29 
f 172//32 170//30 169//29 
f 173//33 174//34 171//31 
f 174//34 172//32 171//31 
f 175//35 176//35 173//33 
f 176//35 174//34 173//33 
f 177//36 178//37 175//35 
f 178//37 176//35 175//35 
f 179//38 180//39 181//38 
f 180//39 182//38 181//38 
f 181//38 182//38 177//36 
f 182//38 178//37 177//36 
f 136//9 56//8 133//5 
f 56//8 6//6 133//5 
f 138//11 57//9 136//9 
f 57//9 56//8 136//9 
f 140//7 58//7 142//7 
f 58//7 59//7 142//7 
f 142//7 59//7 138//11 
f 59//7 57//9 138//11 
f 144//7 60//7 146//7 
f 60//7 61//7 146//7 
f 146//7 61//7 140//7 
f 61//7 58//7 140//7 
f 148//13 62//40 150//7 
f 62//40 63//7 150//7 
f 150//7 63//7 144//7 
f 63//7 60//7 144//7 
f 152//15 64//41 148//13 
f 64//41 62//40 148//13 
f 154//17 65//42 152//15 
f 65//42 64//41 152//15 
f 156//18 66//43 154//17 
f 66//43 65//42 154//17 
f 158//20 67//44 156//18 
f 67//44 66//43 156//18 
f 160//22 68//45 158//20 
f 68//45 67//44 158//20 
f 162//24 69//46 160//22 
f 69//46 68//45 160//22 
f 164//25 70//47 162//24 
f 70//47 69//46 162//24 
f 166//26 71//48 164//25 
f 71//48 70//47 164//25 
f 168//28 72//27 166//26 
f 72//27 71//48 166//26 
f 170//30 73//49 168//28 
f 73//49 72//27 168//28 
f 172//32 74//50 170//30 
f 74//50 73//49 170//30 
f 174//34 75//51 172//32 
f 75//51 74//50 172//32 
f 176//35 76//35 174//34 
f 76//35 75//51 174//34 
f 178//37 77//52 176//35 
f 77//52 76//35 176//35 
f 180//39 78//53 182//38 
f 78//53 79//38 182//38 
f 182//38 79//38 178//37 
f 79//38 77//52 178//37 
f 183//54 81//55 180//39 
f 81//55 78//53 180//39 
f 184//75 83//57 183//54 
f 83//57 81//55 183//54 
f 185//58 186//58 184//75 
f 187//58 184//75 186//58 
f 187//58 188//76 184//75 
f 189//76 184//75 188//76 
f 189//76 190//77 184//75 
f 191//77 184//75 190//77 
f 191//77 192//78 184//75 
f 193//78 184//75 192//78 
f 193//78 194//79 184//75 
f 195//79 184//75 194//79 
f 195//79 196//80 184//75 
f 197//81 184//75 196//80 
f 197//81 198//81 184//75 
f 184//75 198//81 199//81 
f 200//81 184//75 201//81 
f 201//81 184//75 199//81 
f 202//81 184//75 203//81 
f 203//81 184//75 200//81 
f 204//81 184//75 205//81 
f 205//81 184//75 202//81 
f 206//81 184//75 207//81 
f 207//81 184//75 204//81 
f 208//82 184//75 209//81 
f 209//81 184//75 206//81 
f 210//82 184//75 211//82 
f 211//82 184//75 208//82 
f 111//67 184//75 210//82 
f 184//75 111//67 83//57 
f 212//7 132//74 213//83 
f 213//83 132//74 214//84 
f 214//84 132//74 215//85 
f 215//85 132//74 216//86 
f 216//86 132//74 217//86 
f 217//86 132//74 218//86 
f 219//86 220//86 132//74 
f 132//74 220//86 218//86 
f 221//48 222//48 132//74 
f 132//74 222//48 219//86 
f 223//48 224//48 132//74 
f 132//74 224//48 221//48 
f 225//48 226//48 132//74 
f 132//74 226//48 223//48 
f 227//48 228//48 132//74 
f 132//74 228//48 225//48 
f 129//48 229//48 132//74 
f 132//74 229//48 227//48 
f 132//74 4//4 129//48 
# 302 faces

