# 3ds Max Wavefront OBJ Exporter v0.97b - (c)2007 guruware
# File Created: 30.11.2015 11:45:10

mtllib M720_265B_L.mtl

#
# object M720_265B_L_DTaSI_M720_265B_L
#

v  -17.4560 102.2336 -83.4286
v  -5.2851 100.7473 -83.7998
v  -17.7235 95.7187 -86.0294
v  -5.5713 94.3447 -86.3562
v  -5.1378 106.2688 -81.6181
v  -17.2352 107.6062 -81.2984
v  6.3507 92.9136 -86.7077
v  6.5198 99.2839 -84.1662
v  -18.5448 75.7225 -94.0130
v  -6.4839 74.7669 -94.1719
v  -18.7751 70.1136 -96.2525
v  -6.7370 69.2839 -96.3608
v  -18.2946 81.8150 -91.5806
v  -6.2087 80.7263 -91.7932
v  5.5471 73.7775 -94.3316
v  5.7705 79.5858 -92.0196
v  5.3422 68.4300 -96.4617
v  -18.0140 88.6468 -88.8530
v  -5.8987 87.4119 -89.1245
v  6.0304 86.0989 -89.4258
v  -18.9919 64.8343 -98.3609
v  -6.9750 64.1282 -98.4203
v  -19.1537 60.8955 -99.9368
v  -7.1525 60.2825 -99.9600
v  5.1498 63.4092 -98.4656
v  5.0069 59.6667 -99.9650
v  50.8233 83.4023 -89.7148
v  58.7328 77.4955 -91.7951
v  51.0114 78.6364 -91.5083
v  57.0904 76.3610 -92.2447
v  51.7577 73.6347 -93.3215
v  59.3876 72.3387 -93.6218
v  39.9302 86.6206 -88.6206
v  45.3437 89.1145 -87.5852
v  37.5771 92.3772 -86.3832
v  28.3763 94.7536 -85.5723
v  28.9133 89.0675 -87.8288
v  53.9231 59.6369 -98.1763
v  42.0466 60.7384 -98.3332
v  53.4400 63.6246 -96.7803
v  41.8386 65.0581 -96.7118
v  54.2230 56.9291 -99.1576
v  42.2019 57.6565 -99.5211
v  29.8038 61.7784 -98.4419
v  29.8884 58.3759 -99.7916
v  29.6970 66.4099 -96.6321
v  52.6778 68.4568 -95.1222
v  41.5867 69.9716 -94.9024
v  41.2972 75.2900 -92.9369
v  29.5841 71.4556 -94.6831
v  29.4610 76.9143 -92.5771
v  40.9161 80.9059 -90.8170
v  29.2891 82.8867 -90.2549
v  61.0843 58.9774 -98.0651
v  61.3928 56.5483 -98.9017
v  60.6082 62.7263 -96.8146
v  60.0110 67.4294 -95.2639
v  28.3398 98.9740 -83.8890
v  23.1504 100.7723 -83.2675
v  18.2866 98.0293 -84.4459
v  17.8365 91.2648 -87.1516
v  14.6250 102.9679 -82.5631
v  5.8465 104.5929 -82.0847
v  17.6731 84.6210 -89.7906
v  17.5962 78.3382 -92.2745
v  17.5415 72.7073 -94.4962
v  17.4923 67.5101 -96.5503
v  17.4466 62.6516 -98.4807
v  17.4145 59.0404 -99.9264
v  -26.4409 96.4384 -85.8378
v  -27.5486 103.1411 -83.1940
v  -23.0630 75.9991 -93.9280
v  -24.0887 82.2056 -91.4669
v  -22.1212 70.3003 -96.1915
v  -25.2425 89.1871 -88.7032
v  -21.2367 64.9487 -98.3208
v  -20.5780 60.9631 -99.9116
v  58.6590 78.0766 -91.5900
v  52.4849 83.5454 -89.6643
v  38.8157 93.5531 -85.9050
v  42.0456 91.4491 -86.7035
v  33.1781 96.7156 -84.7032
v  35.9923 95.2485 -85.2565
v  19.3780 101.8599 -82.9029
v  -28.4709 108.7217 -81.0079
# 85 vertices

vn 0.0138 0.3687 -0.9294
vn 0.0167 0.3685 -0.9295
vn 0.0132 0.3700 -0.9289
vn 0.0170 0.3701 -0.9288
vn 0.0164 0.3674 -0.9299
vn 0.0133 0.3675 -0.9299
vn 0.0172 0.3700 -0.9289
vn 0.0171 0.3685 -0.9295
vn 0.0109 0.3702 -0.9289
vn 0.0175 0.3699 -0.9289
vn 0.0102 0.3704 -0.9288
vn 0.0177 0.3700 -0.9289
vn 0.0116 0.3702 -0.9289
vn 0.0173 0.3699 -0.9289
vn 0.0189 0.3690 -0.9293
vn 0.0181 0.3691 -0.9292
vn 0.0196 0.3693 -0.9291
vn 0.0124 0.3701 -0.9289
vn 0.0171 0.3700 -0.9289
vn 0.0175 0.3695 -0.9291
vn 0.0096 0.3708 -0.9287
vn 0.0178 0.3705 -0.9287
vn 0.0119 0.3711 -0.9285
vn 0.0180 0.3710 -0.9284
vn 0.0200 0.3704 -0.9287
vn 0.0206 0.3713 -0.9283
vn 0.0095 0.3511 -0.9363
vn 0.0120 0.3405 -0.9402
vn 0.0165 0.3489 -0.9370
vn 0.0189 0.3402 -0.9402
vn 0.0201 0.3386 -0.9407
vn 0.0226 0.3305 -0.9435
vn 0.0135 0.3635 -0.9315
vn 0.0074 0.3595 -0.9331
vn 0.0113 0.3686 -0.9295
vn 0.0160 0.3708 -0.9286
vn 0.0156 0.3681 -0.9297
vn 0.0444 0.3403 -0.9393
vn 0.0411 0.3554 -0.9338
vn 0.0362 0.3328 -0.9423
vn 0.0345 0.3488 -0.9365
vn 0.0489 0.3404 -0.9390
vn 0.0455 0.3559 -0.9334
vn 0.0333 0.3652 -0.9303
vn 0.0370 0.3666 -0.9297
vn 0.0294 0.3610 -0.9321
vn 0.0274 0.3314 -0.9431
vn 0.0270 0.3471 -0.9375
vn 0.0205 0.3512 -0.9361
vn 0.0246 0.3595 -0.9328
vn 0.0202 0.3612 -0.9323
vn 0.0162 0.3576 -0.9337
vn 0.0171 0.3644 -0.9311
vn 0.0473 0.3324 -0.9420
vn 0.0512 0.3310 -0.9422
vn 0.0389 0.3241 -0.9452
vn 0.0298 0.3218 -0.9463
vn 0.0169 0.3705 -0.9287
vn 0.0168 0.3700 -0.9289
vn 0.0173 0.3695 -0.9291
vn 0.0169 0.3697 -0.9290
vn 0.0179 0.3676 -0.9298
vn 0.0168 0.3669 -0.9301
vn 0.0176 0.3680 -0.9297
vn 0.0192 0.3667 -0.9301
vn 0.0214 0.3663 -0.9303
vn 0.0235 0.3672 -0.9299
vn 0.0250 0.3693 -0.9290
vn 0.0268 0.3706 -0.9284
vn 0.0106 0.3693 -0.9293
vn 0.0118 0.3677 -0.9299
vn 0.0057 0.3700 -0.9290
vn 0.0073 0.3698 -0.9291
vn 0.0042 0.3703 -0.9289
vn 0.0089 0.3695 -0.9292
vn 0.0028 0.3707 -0.9288
vn 0.0018 0.3712 -0.9285
vn 0.0008 0.3329 -0.9430
vn -0.0002 0.3378 -0.9412
vn 0.0090 0.3685 -0.9296
vn 0.0093 0.3661 -0.9305
vn 0.0140 0.3717 -0.9283
vn 0.0093 0.3697 -0.9291
vn 0.0123 0.3665 -0.9303
# 84 vertex normals

vt 0.6655 0.8167 0.0000
vt 0.7134 0.8206 0.0000
vt 0.6654 0.8423 0.0000
vt 0.7133 0.8458 0.0000
vt 0.7131 0.7989 0.0000
vt 0.6655 0.7956 0.0000
vt 0.7602 0.8495 0.0000
vt 0.7599 0.8245 0.0000
vt 0.6653 0.9208 0.0000
vt 0.7128 0.9227 0.0000
vt 0.6653 0.9428 0.0000
vt 0.7126 0.9442 0.0000
vt 0.6654 0.8969 0.0000
vt 0.7129 0.8992 0.0000
vt 0.7601 0.9247 0.0000
vt 0.7601 0.9018 0.0000
vt 0.7601 0.9457 0.0000
vt 0.6654 0.8700 0.0000
vt 0.7131 0.8730 0.0000
vt 0.7601 0.8763 0.0000
vt 0.6653 0.9635 0.0000
vt 0.7125 0.9644 0.0000
vt 0.6653 0.9790 0.0000
vt 0.7124 0.9795 0.0000
vt 0.7601 0.9654 0.0000
vt 0.7602 0.9801 0.0000
vt 0.9361 0.8799 0.0000
vt 0.9680 0.9018 0.0000
vt 0.9376 0.8985 0.0000
vt 0.9618 0.9065 0.0000
vt 0.9413 0.9180 0.0000
vt 0.9714 0.9219 0.0000
vt 0.8929 0.8689 0.0000
vt 0.9137 0.8583 0.0000
vt 0.8828 0.8467 0.0000
vt 0.8463 0.8389 0.0000
vt 0.8493 0.8611 0.0000
vt 0.9520 0.9725 0.0000
vt 0.9052 0.9701 0.0000
vt 0.9494 0.9570 0.0000
vt 0.9037 0.9532 0.0000
vt 0.9535 0.9831 0.0000
vt 0.9063 0.9821 0.0000
vt 0.8571 0.9679 0.0000
vt 0.8579 0.9812 0.0000
vt 0.8559 0.9498 0.0000
vt 0.9457 0.9382 0.0000
vt 0.9020 0.9340 0.0000
vt 0.9000 0.9132 0.0000
vt 0.8547 0.9300 0.0000
vt 0.8533 0.9086 0.0000
vt 0.8976 0.8912 0.0000
vt 0.8517 0.8852 0.0000
vt 0.9801 0.9740 0.0000
vt 0.9817 0.9835 0.0000
vt 0.9777 0.9594 0.0000
vt 0.9746 0.9410 0.0000
vt 0.8455 0.8223 0.0000
vt 0.8249 0.8161 0.0000
vt 0.8062 0.8276 0.0000
vt 0.8055 0.8542 0.0000
vt 0.7911 0.8088 0.0000
vt 0.7565 0.8038 0.0000
vt 0.8059 0.8803 0.0000
vt 0.8066 0.9049 0.0000
vt 0.8073 0.9270 0.0000
vt 0.8079 0.9474 0.0000
vt 0.8085 0.9664 0.0000
vt 0.8089 0.9806 0.0000
vt 0.6311 0.8408 0.0000
vt 0.6258 0.8147 0.0000
vt 0.6476 0.9204 0.0000
vt 0.6426 0.8962 0.0000
vt 0.6522 0.9426 0.0000
vt 0.6370 0.8690 0.0000
vt 0.6565 0.9634 0.0000
vt 0.6597 0.9790 0.0000
vt 0.9676 0.8995 0.0000
vt 0.9426 0.8790 0.0000
vt 0.8874 0.8419 0.0000
vt 0.9004 0.8497 0.0000
vt 0.8648 0.8304 0.0000
vt 0.8761 0.8357 0.0000
vt 0.8099 0.8124 0.0000
vt 0.6213 0.7930 0.0000
# 85 texture coords

g M720_265B_L_DTaSI_M720_265B_L
usemtl windowglass_1SG
s 1
f 1/1/1 2/2/2 3/3/3 
f 3/3/3 2/2/2 4/4/4 
f 2/2/2 1/1/1 5/5/5 
f 5/5/5 1/1/1 6/6/6 
f 7/7/7 4/4/4 8/8/8 
f 8/8/8 4/4/4 2/2/2 
f 9/9/9 10/10/10 11/11/11 
f 11/11/11 10/10/10 12/12/12 
f 13/13/13 14/14/14 9/9/9 
f 9/9/9 14/14/14 10/10/10 
f 15/15/15 10/10/10 16/16/16 
f 16/16/16 10/10/10 14/14/14 
f 17/17/17 12/12/12 15/15/15 
f 15/15/15 12/12/12 10/10/10 
f 18/18/18 19/19/19 13/13/13 
f 13/13/13 19/19/19 14/14/14 
f 3/3/3 4/4/4 18/18/18 
f 18/18/18 4/4/4 19/19/19 
f 20/20/20 19/19/19 7/7/7 
f 7/7/7 19/19/19 4/4/4 
f 16/16/16 14/14/14 20/20/20 
f 20/20/20 14/14/14 19/19/19 
f 21/21/21 22/22/22 23/23/23 
f 23/23/23 22/22/22 24/24/24 
f 11/11/11 12/12/12 21/21/21 
f 21/21/21 12/12/12 22/22/22 
f 25/25/25 22/22/22 17/17/17 
f 17/17/17 22/22/22 12/12/12 
f 26/26/26 24/24/24 25/25/25 
f 25/25/25 24/24/24 22/22/22 
f 27/27/27 28/28/28 29/29/29 
f 29/29/29 28/28/28 30/30/30 
f 29/29/29 30/30/30 31/31/31 
f 31/31/31 30/30/30 32/32/32 
f 27/27/27 33/33/33 34/34/34 
f 34/34/34 33/33/33 35/35/35 
f 36/36/36 35/35/35 37/37/37 
f 37/37/37 35/35/35 33/33/33 
f 38/38/38 39/39/39 40/40/40 
f 40/40/40 39/39/39 41/41/41 
f 42/42/42 43/43/43 38/38/38 
f 38/38/38 43/43/43 39/39/39 
f 44/44/44 39/39/39 45/45/45 
f 45/45/45 39/39/39 43/43/43 
f 46/46/46 41/41/41 44/44/44 
f 44/44/44 41/41/41 39/39/39 
f 47/47/47 48/48/48 31/31/31 
f 31/31/31 48/48/48 49/49/49 
f 40/40/40 41/41/41 47/47/47 
f 47/47/47 41/41/41 48/48/48 
f 50/50/50 48/48/48 46/46/46 
f 46/46/46 48/48/48 41/41/41 
f 51/51/51 49/49/49 50/50/50 
f 50/50/50 49/49/49 48/48/48 
f 29/29/29 52/52/52 27/27/27 
f 27/27/27 52/52/52 33/33/33 
f 31/31/31 49/49/49 29/29/29 
f 29/29/29 49/49/49 52/52/52 
f 53/53/53 52/52/52 51/51/51 
f 51/51/51 52/52/52 49/49/49 
f 37/37/37 33/33/33 53/53/53 
f 53/53/53 33/33/33 52/52/52 
f 38/38/38 54/54/54 42/42/42 
f 42/42/42 54/54/54 55/55/55 
f 40/40/40 56/56/56 38/38/38 
f 38/38/38 56/56/56 54/54/54 
f 47/47/47 57/57/57 40/40/40 
f 40/40/40 57/57/57 56/56/56 
f 31/31/31 32/32/32 47/47/47 
f 47/47/47 32/32/32 57/57/57 
f 58/58/58 36/36/36 59/59/59 
f 59/59/59 36/36/36 60/60/60 
f 37/37/37 61/61/61 36/36/36 
f 36/36/36 61/61/61 60/60/60 
f 8/8/8 60/60/60 7/7/7 
f 7/7/7 60/60/60 61/61/61 
f 60/60/60 8/8/8 62/62/62 
f 62/62/62 8/8/8 63/63/63 
f 53/53/53 64/64/64 37/37/37 
f 37/37/37 64/64/64 61/61/61 
f 51/51/51 65/65/65 53/53/53 
f 53/53/53 65/65/65 64/64/64 
f 20/20/20 64/64/64 16/16/16 
f 16/16/16 64/64/64 65/65/65 
f 7/7/7 61/61/61 20/20/20 
f 20/20/20 61/61/61 64/64/64 
f 50/50/50 66/66/66 51/51/51 
f 51/51/51 66/66/66 65/65/65 
f 46/46/46 67/67/67 50/50/50 
f 50/50/50 67/67/67 66/66/66 
f 15/15/15 66/66/66 17/17/17 
f 17/17/17 66/66/66 67/67/67 
f 16/16/16 65/65/65 15/15/15 
f 15/15/15 65/65/65 66/66/66 
f 44/44/44 68/68/68 46/46/46 
f 46/46/46 68/68/68 67/67/67 
f 45/45/45 69/69/69 44/44/44 
f 44/44/44 69/69/69 68/68/68 
f 25/25/25 68/68/68 26/26/26 
f 26/26/26 68/68/68 69/69/69 
f 17/17/17 67/67/67 25/25/25 
f 25/25/25 67/67/67 68/68/68 
f 3/3/3 70/70/70 1/1/1 
f 1/1/1 70/70/70 71/71/71 
f 9/9/9 72/72/72 13/13/13 
f 13/13/13 72/72/72 73/73/73 
f 11/11/11 74/74/74 9/9/9 
f 9/9/9 74/74/74 72/72/72 
f 18/18/18 75/75/75 3/3/3 
f 3/3/3 75/75/75 70/70/70 
f 13/13/13 73/73/73 18/18/18 
f 18/18/18 73/73/73 75/75/75 
f 21/21/21 76/76/76 11/11/11 
f 11/11/11 76/76/76 74/74/74 
f 23/23/23 77/77/77 21/21/21 
f 21/21/21 77/77/77 76/76/76 
f 28/28/28 32/32/32 30/30/30 
f 78/78/78 28/28/28 79/79/79 
f 79/79/79 28/28/28 27/27/27 
f 34/34/34 79/79/79 27/27/27 
f 80/80/80 81/81/81 35/35/35 
f 82/82/82 83/83/83 35/35/35 
f 58/58/58 82/82/82 36/36/36 
f 36/36/36 82/82/82 35/35/35 
f 35/35/35 81/81/81 34/34/34 
f 35/35/35 83/83/83 80/80/80 
f 62/62/62 84/84/16 60/60/60 
f 60/60/60 84/84/16 59/59/59 
f 5/5/5 63/63/63 2/2/2 
f 2/2/2 63/63/63 8/8/8 
f 85/85/84 6/6/6 71/71/71 
f 71/71/71 6/6/6 1/1/1 
# 132 faces

