# 3ds Max Wavefront OBJ Exporter v0.97b - (c)2007 guruware
# File Created: 23.11.2015 11:14:20

mtllib H713_FLOR_C.mtl

#
# object H713_FLOR_C_N_H713_FLOR_C
#

v  225.0135 -35.1861 105.7498
v  225.0134 -35.1861 83.9650
v  230.3201 -35.2110 105.2719
v  225.0134 -34.5459 0.0001
v  247.8034 -35.2712 0.0001
v  247.7443 -35.2711 4.1552
v  247.5703 -35.2712 8.9039
v  247.2844 -35.2711 14.8396
v  246.9298 -35.2711 21.3129
v  246.5500 -35.2712 27.6738
v  246.1612 -35.2711 33.9206
v  245.7797 -35.2711 40.0513
v  245.4656 -35.2712 45.1000
v  245.2789 -35.2711 48.1006
v  245.0963 -35.2711 51.2265
v  244.7946 -35.2712 56.6514
v  244.5134 -35.2712 61.7688
v  231.4236 -35.2162 105.1723
v  231.8839 -35.2184 105.0324
v  232.1382 -35.2199 104.7151
v  232.5231 -35.2227 104.2065
v  233.3756 -35.2292 103.4930
v  234.4956 -35.2371 102.6454
v  235.6829 -35.2439 101.7346
v  236.7832 -35.2501 100.8239
v  237.6419 -35.2563 99.9765
v  238.3595 -35.2617 98.6567
v  239.0358 -35.2652 96.3291
v  239.6599 -35.2650 93.5961
v  240.2201 -35.2588 91.0601
v  240.7072 -35.2504 88.8125
v  241.1116 -35.2434 86.9450
v  241.4739 -35.2386 84.8153
v  241.8352 -35.2371 81.7817
v  242.1499 -35.2371 78.6325
v  242.3731 -35.2371 76.1561
v  242.5392 -35.2371 74.1503
v  242.6832 -35.2371 72.4122
v  244.0733 -35.2712 64.5318
v  242.9547 -35.2371 64.8614
v  244.3922 -35.2711 63.9721
v  243.1809 -35.2371 65.2917
v  243.1378 -35.2371 66.0670
v  243.0721 -35.2371 67.2453
v  242.9921 -35.2371 68.5530
v  242.9057 -35.2371 69.7166
v  242.8053 -35.2371 70.9363
v  123.2279 -35.9846 83.9650
v  123.2279 -35.9846 0.0000
v  -94.5098 -35.9434 -0.0000
v  -94.5099 -35.9434 83.9649
v  123.2279 -35.9846 114.4550
v  118.3395 -35.9866 114.4550
v  -94.5099 -35.9434 107.5953
v  -93.6110 -35.9435 107.5953
v  -91.8530 -35.9436 107.5954
v  -89.9903 -35.9375 107.5968
v  117.4255 -35.9866 114.4550
v  116.9597 -35.9864 114.2798
v  116.3599 -35.9869 113.7542
v  115.5236 -35.9879 112.8588
v  114.3488 -35.9893 111.5744
v  113.3133 -35.9907 110.4352
v  112.8953 -35.9912 109.9753
v  112.0197 -35.9923 109.0121
v  111.5480 -35.9929 108.4931
v  110.3691 -35.9944 107.1962
v  108.5686 -35.9848 105.8430
v  -88.7773 -35.9190 107.6009
v  -87.8972 -35.9005 107.6050
v  -87.0330 -35.8943 107.6064
v  -86.0071 -35.8947 107.4110
v  -84.6416 -35.8959 106.8248
v  -83.0016 -35.8968 105.9809
v  -81.1518 -35.8966 105.0124
v  106.2324 -35.9520 105.1554
v  102.6477 -35.9187 104.8619
v  97.1019 -35.9075 104.6910
v  91.0783 -35.9074 104.5900
v  86.0598 -35.9072 104.5057
v  79.2428 -35.9066 104.4007
v  67.8235 -35.9053 104.2373
v  53.3458 -35.9037 104.0929
v  37.3538 -35.9024 104.0450
v  21.0505 -35.9013 104.0396
v  5.6391 -35.9004 104.0226
v  -12.4655 -35.8995 104.0032
v  -36.8481 -35.8989 103.9907
v  -59.3428 -35.8981 103.9840
v  -71.7835 -35.8970 103.9816
v  -77.8324 -35.8963 104.2393
v  -196.4325 -22.6960 83.9648
v  -196.4324 -22.6960 -0.0001
v  -263.2115 -19.5179 -0.0001
v  -263.1422 -19.5211 4.1163
v  -262.9870 -19.5283 8.7596
v  -262.7983 -19.5371 14.4570
v  -262.5627 -19.5481 21.0587
v  -262.2660 -19.5620 28.4152
v  -261.9236 -19.5761 35.5450
v  -261.5497 -19.5879 41.4667
v  -260.8756 -19.6115 48.9495
v  -259.6320 -19.6614 60.7622
v  -258.9317 -19.7135 72.3325
v  -256.6600 -19.7722 83.5951
v  -255.5095 -19.8176 88.4211
v  -254.0530 -19.8782 92.7520
v  -252.3275 -19.9518 95.7738
v  -250.3801 -20.0424 97.9392
v  -248.2580 -20.1540 99.7009
v  -244.9403 -20.3128 101.4312
v  -239.4066 -20.5449 103.5024
v  -232.9661 -20.8374 105.2905
v  -226.9281 -21.1776 106.1715
v  -221.7810 -21.4811 106.4739
v  -218.0128 -21.6635 106.5263
v  -215.6095 -21.7591 106.5495
v  -214.5575 -21.8028 106.7643
v  -213.0509 -21.8789 107.1475
v  -209.2840 -22.0720 107.6759
v  -205.4057 -22.2704 108.3180
v  -196.4325 -22.6960 109.7880
v  -197.6570 -22.6387 109.7918
v  -203.5656 -22.3621 109.0424
v  -199.9370 -22.5319 109.7991
v  -202.2480 -22.4238 109.6144
v  225.0136 -35.1861 -105.7496
v  230.3202 -35.2110 -105.2718
v  225.0134 -35.1861 -83.9649
v  247.7443 -35.2712 -4.1550
v  247.5703 -35.2711 -8.9037
v  247.2844 -35.2711 -14.8395
v  246.9298 -35.2711 -21.3127
v  246.5500 -35.2712 -27.6736
v  246.1612 -35.2711 -33.9204
v  245.7797 -35.2711 -40.0512
v  245.4656 -35.2711 -45.0999
v  245.2789 -35.2711 -48.1004
v  245.0963 -35.2711 -51.2264
v  244.7946 -35.2711 -56.6513
v  244.5134 -35.2711 -61.7687
v  231.4237 -35.2162 -105.1721
v  231.8840 -35.2184 -105.0323
v  232.1383 -35.2199 -104.7150
v  232.5232 -35.2227 -104.2063
v  233.3757 -35.2292 -103.4928
v  234.4957 -35.2371 -102.6452
v  235.6830 -35.2439 -101.7345
v  236.7833 -35.2501 -100.8238
v  237.6420 -35.2563 -99.9763
v  238.3595 -35.2617 -98.6566
v  239.0359 -35.2652 -96.3290
v  239.6600 -35.2650 -93.5960
v  240.2202 -35.2588 -91.0599
v  240.7073 -35.2504 -88.8124
v  241.1116 -35.2434 -86.9448
v  241.4740 -35.2386 -84.8152
v  241.8352 -35.2371 -81.7815
v  242.1499 -35.2371 -78.6323
v  242.3731 -35.2371 -76.1560
v  242.5393 -35.2371 -74.1501
v  242.6833 -35.2371 -72.4121
v  244.0733 -35.2711 -64.5316
v  244.3923 -35.2711 -63.9720
v  242.9547 -35.2371 -64.8613
v  243.1809 -35.2371 -65.2916
v  243.1378 -35.2371 -66.0668
v  242.8054 -35.2371 -70.9361
v  242.9057 -35.2371 -69.7165
v  242.9922 -35.2371 -68.5529
v  243.0722 -35.2371 -67.2451
v  123.2279 -35.9846 -83.9649
v  123.2279 -35.9846 -114.4550
v  118.3396 -35.9866 -114.4549
v  -94.5098 -35.9434 -83.9650
v  -94.5098 -35.9434 -107.5954
v  -93.6109 -35.9435 -107.5954
v  -91.8529 -35.9436 -107.5955
v  -89.9902 -35.9375 -107.5969
v  117.4256 -35.9866 -114.4549
v  116.9598 -35.9864 -114.2797
v  116.3600 -35.9869 -113.7541
v  115.5237 -35.9879 -112.8587
v  114.3488 -35.9893 -111.5743
v  113.3134 -35.9907 -110.4351
v  112.8953 -35.9912 -109.9752
v  112.0198 -35.9923 -109.0120
v  111.5480 -35.9929 -108.4930
v  110.3691 -35.9944 -107.1961
v  108.5687 -35.9848 -105.8430
v  -88.7772 -35.9190 -107.6010
v  -87.8971 -35.9005 -107.6051
v  -87.0329 -35.8943 -107.6064
v  -86.0070 -35.8947 -107.4111
v  -84.6416 -35.8959 -106.8249
v  -83.0015 -35.8968 -105.9810
v  -81.1517 -35.8966 -105.0124
v  106.2325 -35.9520 -105.1553
v  102.6478 -35.9187 -104.8618
v  97.1020 -35.9075 -104.6910
v  91.0783 -35.9074 -104.5899
v  86.0599 -35.9071 -104.5057
v  79.2429 -35.9066 -104.4007
v  67.8236 -35.9053 -104.2372
v  53.3459 -35.9037 -104.0928
v  37.3538 -35.9024 -104.0450
v  21.0505 -35.9013 -104.0396
v  5.6391 -35.9004 -104.0226
v  -12.4654 -35.8995 -104.0032
v  -36.8481 -35.8989 -103.9908
v  -59.3428 -35.8981 -103.9840
v  -71.7835 -35.8970 -103.9816
v  -77.8324 -35.8963 -104.2393
v  -196.4324 -22.6960 -83.9650
v  -263.1422 -19.5211 -4.1164
v  -262.9870 -19.5283 -8.7597
v  -262.7983 -19.5371 -14.4572
v  -262.5627 -19.5481 -21.0589
v  -262.2660 -19.5620 -28.4153
v  -261.9235 -19.5761 -35.5451
v  -261.5497 -19.5879 -41.4668
v  -260.8755 -19.6115 -48.9496
v  -259.6320 -19.6614 -60.7623
v  -258.9601 -19.7135 -72.3326
v  -256.6600 -19.7722 -83.5952
v  -255.5094 -19.8176 -88.4213
v  -254.0529 -19.8782 -92.7522
v  -252.3275 -19.9518 -95.7740
v  -250.3801 -20.0424 -97.9393
v  -248.2579 -20.1540 -99.7010
v  -244.9402 -20.3128 -101.4313
v  -239.4065 -20.5449 -103.5026
v  -232.9661 -20.8374 -105.2907
v  -226.9281 -21.1776 -106.1717
v  -221.7809 -21.4811 -106.4740
v  -218.0127 -21.6635 -106.5264
v  -215.6095 -21.7592 -106.5496
v  -214.5575 -21.8028 -106.7645
v  -213.0509 -21.8789 -107.1477
v  -209.2839 -22.0721 -107.6760
v  -205.4057 -22.2704 -108.3181
v  -203.5655 -22.3621 -109.0425
v  -196.4324 -22.6960 -109.7881
v  -197.6570 -22.6387 -109.7919
v  -199.9369 -22.5319 -109.7992
v  -202.2479 -22.4238 -109.6145
# 246 vertices

vn -0.0047 -1.0000 -0.0000
vn 0.0096 -0.9999 -0.0044
vn 0.0062 -1.0000 -0.0001
vn -0.0316 -0.9995 -0.0071
vn -0.0039 -1.0000 -0.0001
vn -0.0043 -1.0000 -0.0002
vn -0.0045 -1.0000 -0.0002
vn -0.0046 -1.0000 -0.0003
vn -0.0047 -1.0000 -0.0003
vn -0.0041 -1.0000 0.0003
vn -0.0047 -1.0000 0.0000
vn -0.0050 -1.0000 0.0001
vn -0.0059 -1.0000 0.0004
vn -0.0068 -1.0000 0.0007
vn -0.0061 -1.0000 0.0004
vn -0.0056 -1.0000 0.0001
vn -0.0060 -1.0000 0.0004
vn -0.0064 -1.0000 0.0007
vn -0.0060 -1.0000 0.0003
vn -0.0052 -1.0000 -0.0005
vn -0.0041 -1.0000 -0.0019
vn -0.0031 -1.0000 -0.0036
vn -0.0028 -1.0000 -0.0043
vn -0.0029 -1.0000 -0.0035
vn -0.0031 -1.0000 -0.0016
vn -0.0031 -1.0000 -0.0005
vn -0.0031 -1.0000 -0.0003
vn -0.0365 -0.9991 -0.0208
vn 0.0133 -0.9998 0.0155
vn -0.0249 -0.9997 -0.0021
vn 0.0000 -1.0000 -0.0000
vn -0.0026 -1.0000 0.0002
vn 0.0000 -1.0000 0.0001
vn -0.0030 -1.0000 -0.0002
vn -0.0062 -1.0000 -0.0005
vn 0.0021 -1.0000 0.0001
vn 0.0033 -1.0000 -0.0000
vn -0.0415 -0.9991 -0.0000
vn -0.0408 -0.9992 0.0000
vn 0.0004 -1.0000 -0.0000
vn 0.0003 -1.0000 -0.0000
vn -0.0000 -1.0000 -0.0000
vn -0.0001 -1.0000 -0.0000
vn 0.0018 -1.0000 -0.0002
vn 0.0087 -1.0000 -0.0014
vn -0.0001 -1.0000 -0.0001
vn 0.0002 -1.0000 -0.0000
vn 0.0008 -1.0000 0.0001
vn 0.0010 -1.0000 0.0002
vn 0.0011 -1.0000 0.0002
vn -0.0013 -1.0000 -0.0011
vn -0.0080 -1.0000 -0.0054
vn 0.0181 -0.9998 -0.0034
vn 0.0129 -0.9999 -0.0018
vn 0.0027 -1.0000 0.0012
vn 0.0000 -1.0000 0.0021
vn 0.0003 -1.0000 0.0020
vn 0.0007 -1.0000 0.0017
vn 0.0007 -1.0000 0.0018
vn -0.0003 -1.0000 0.0013
vn -0.0351 -0.9424 0.3326
vn -0.0028 -0.9996 0.0276
vn -0.0001 -1.0000 0.0024
vn -0.0001 -1.0000 0.0025
vn -0.0001 -1.0000 0.0028
vn -0.0002 -1.0000 0.0032
vn -0.0001 -1.0000 0.0030
vn -0.0001 -1.0000 0.0026
vn -0.0000 -1.0000 0.0024
vn -0.0000 -1.0000 0.0023
vn 0.0001 -1.0000 0.0022
vn -0.1084 -0.9941 0.0000
vn -0.0973 -0.9953 -0.0000
vn -0.0475 -0.9989 0.0000
vn -0.0476 -0.9989 0.0000
vn -0.0476 -0.9989 0.0001
vn -0.0480 -0.9988 0.0005
vn -0.0484 -0.9988 0.0011
vn -0.0479 -0.9988 -0.0000
vn -0.0478 -0.9989 0.0007
vn -0.0485 -0.9988 0.0040
vn -0.0485 -0.9988 0.0022
vn -0.0484 -0.9988 0.0027
vn -0.0484 -0.9988 0.0029
vn -0.0490 -0.9988 0.0005
vn -0.0495 -0.9988 -0.0018
vn -0.0477 -0.9989 0.0039
vn -0.0459 -0.9989 0.0090
vn -0.0486 -0.9988 0.0038
vn -0.0557 -0.9984 -0.0083
vn -0.0564 -0.9984 -0.0096
vn -0.0468 -0.9989 0.0010
vn -0.0404 -0.9992 0.0072
vn -0.0461 -0.9989 0.0025
vn -0.0507 -0.9987 -0.0011
vn -0.0509 -0.9987 -0.0013
vn -0.0504 -0.9987 -0.0011
vn -0.0467 -0.9989 -0.0000
vn -0.0468 -0.9989 -0.0000
vn -0.0482 -0.9988 -0.0004
vn 0.0096 -0.9999 0.0044
vn -0.0304 -0.9995 0.0072
vn -0.0043 -1.0000 0.0002
vn -0.0045 -1.0000 0.0002
vn -0.0046 -1.0000 0.0003
vn -0.0047 -1.0000 0.0003
vn -0.0041 -1.0000 -0.0003
vn -0.0050 -1.0000 -0.0001
vn -0.0059 -1.0000 -0.0004
vn -0.0068 -1.0000 -0.0007
vn -0.0061 -1.0000 -0.0004
vn -0.0056 -1.0000 -0.0001
vn -0.0060 -1.0000 -0.0004
vn -0.0064 -1.0000 -0.0007
vn -0.0060 -1.0000 -0.0003
vn -0.0052 -1.0000 0.0005
vn -0.0041 -1.0000 0.0019
vn -0.0031 -1.0000 0.0036
vn -0.0028 -1.0000 0.0043
vn -0.0029 -1.0000 0.0035
vn -0.0031 -1.0000 0.0016
vn -0.0031 -1.0000 0.0005
vn -0.0031 -1.0000 0.0003
vn -0.0030 -1.0000 0.0002
vn -0.0365 -0.9991 0.0208
vn -0.0249 -0.9997 0.0021
vn 0.0133 -0.9998 -0.0155
vn 0.0000 -1.0000 0.0000
vn -0.0026 -1.0000 -0.0003
vn 0.1492 -0.9887 -0.0140
vn 0.0021 -1.0000 -0.0001
vn 0.0003 -1.0000 0.0000
vn -0.0408 -0.9992 -0.0000
vn 0.0018 -1.0000 0.0002
vn 0.0087 -1.0000 0.0014
vn -0.0001 -1.0000 0.0001
vn 0.0002 -1.0000 0.0000
vn 0.0008 -1.0000 -0.0001
vn 0.0010 -1.0000 -0.0002
vn 0.0011 -1.0000 -0.0002
vn -0.0012 -1.0000 0.0011
vn -0.0080 -1.0000 0.0054
vn 0.0181 -0.9998 0.0034
vn 0.0129 -0.9999 0.0018
vn 0.0027 -1.0000 -0.0012
vn 0.0000 -1.0000 -0.0021
vn 0.0003 -1.0000 -0.0020
vn 0.0007 -1.0000 -0.0018
vn -0.0003 -1.0000 -0.0013
vn -0.0351 -0.9424 -0.3325
vn -0.0028 -0.9996 -0.0276
vn -0.0001 -1.0000 -0.0023
vn -0.0001 -1.0000 -0.0025
vn -0.0001 -1.0000 -0.0028
vn -0.0002 -1.0000 -0.0032
vn -0.0001 -1.0000 -0.0030
vn -0.0001 -1.0000 -0.0026
vn -0.0000 -1.0000 -0.0024
vn -0.0000 -1.0000 -0.0023
vn -0.0001 -1.0000 -0.0024
vn 0.0001 -1.0000 -0.0022
vn -0.1088 -0.9941 -0.0000
vn -0.0476 -0.9989 -0.0000
vn -0.0476 -0.9989 -0.0001
vn -0.0480 -0.9988 -0.0005
vn -0.0484 -0.9988 -0.0011
vn -0.0479 -0.9989 0.0001
vn -0.0478 -0.9989 -0.0007
vn -0.0485 -0.9988 -0.0041
vn -0.0485 -0.9988 -0.0022
vn -0.0484 -0.9988 -0.0027
vn -0.0484 -0.9988 -0.0029
vn -0.0490 -0.9988 -0.0005
vn -0.0495 -0.9988 0.0018
vn -0.0477 -0.9989 -0.0039
vn -0.0459 -0.9989 -0.0090
vn -0.0486 -0.9988 -0.0038
vn -0.0557 -0.9984 0.0083
vn -0.0564 -0.9984 0.0096
vn -0.0468 -0.9989 -0.0010
vn -0.0404 -0.9992 -0.0072
vn -0.0460 -0.9989 -0.0025
vn -0.0507 -0.9987 0.0011
vn -0.0510 -0.9987 0.0013
vn -0.0504 -0.9987 0.0011
vn -0.0482 -0.9988 0.0004
vn -0.0468 -0.9989 0.0000
# 187 vertex normals

g H713_FLOR_C_N_H713_FLOR_C
usemtl diffuse_black_plasticSG
s 1
f 1//1 2//2 3//1 
f 4//3 5//4 2//2 
f 5//4 6//5 2//2 
f 6//5 7//6 2//2 
f 7//6 8//7 2//2 
f 8//7 9//8 2//2 
f 9//8 10//9 2//2 
f 10//9 11//9 2//2 
f 11//9 12//9 2//2 
f 12//9 13//9 2//2 
f 13//9 14//9 2//2 
f 14//9 15//9 2//2 
f 15//9 16//9 2//2 
f 16//9 17//10 2//2 
f 3//1 2//2 18//11 
f 18//11 2//2 19//12 
f 19//12 2//2 20//13 
f 20//13 2//2 21//14 
f 21//14 2//2 22//14 
f 22//14 2//2 23//15 
f 23//15 2//2 24//16 
f 24//16 2//2 25//17 
f 25//17 2//2 26//18 
f 26//18 2//2 27//19 
f 27//19 2//2 28//20 
f 28//20 2//2 29//21 
f 29//21 2//2 30//22 
f 30//22 2//2 31//23 
f 31//23 2//2 32//24 
f 32//24 2//2 33//25 
f 33//25 2//2 34//26 
f 34//26 2//2 35//27 
f 35//27 2//2 36//27 
f 36//27 2//2 37//27 
f 37//27 2//2 38//27 
f 39//28 40//29 41//30 
f 42//31 43//32 40//29 
f 44//33 45//34 43//32 
f 46//35 47//34 45//34 
f 41//30 40//29 17//10 
f 17//10 40//29 2//2 
f 40//29 43//32 2//2 
f 43//32 45//34 2//2 
f 45//34 47//34 2//2 
f 2//2 47//34 38//27 
f 48//36 49//37 2//2 
f 2//2 49//37 4//3 
f 50//38 49//37 51//39 
f 49//37 48//36 51//39 
f 52//40 53//41 48//36 
f 54//42 51//39 55//43 
f 55//43 51//39 56//44 
f 56//44 51//39 57//45 
f 53//41 58//46 48//36 
f 58//46 59//47 48//36 
f 59//47 60//48 48//36 
f 60//48 61//49 48//36 
f 61//49 62//50 48//36 
f 62//50 63//50 48//36 
f 63//50 64//50 48//36 
f 64//50 65//50 48//36 
f 65//50 66//50 48//36 
f 66//50 67//51 48//36 
f 67//51 68//52 48//36 
f 57//45 51//39 69//53 
f 69//53 51//39 70//54 
f 70//54 51//39 71//55 
f 71//55 51//39 72//56 
f 72//56 51//39 73//57 
f 73//57 51//39 74//58 
f 74//58 51//39 75//59 
f 68//52 76//60 48//36 
f 48//36 76//60 51//39 
f 76//60 77//61 51//39 
f 77//61 78//62 51//39 
f 78//62 79//63 51//39 
f 79//63 80//64 51//39 
f 80//64 81//65 51//39 
f 81//65 82//66 51//39 
f 82//66 83//67 51//39 
f 83//67 84//68 51//39 
f 84//68 85//64 51//39 
f 85//64 86//64 51//39 
f 86//64 87//69 51//39 
f 87//69 88//70 51//39 
f 88//70 89//70 51//39 
f 89//70 90//63 51//39 
f 90//63 91//71 51//39 
f 51//39 91//71 75//59 
f 92//72 93//73 51//39 
f 51//39 93//73 50//38 
f 94//74 93//73 95//74 
f 93//73 92//72 95//74 
f 95//74 92//72 96//75 
f 96//75 92//72 97//75 
f 97//75 92//72 98//75 
f 98//75 92//72 99//76 
f 99//76 92//72 100//77 
f 100//77 92//72 101//78 
f 101//78 92//72 102//78 
f 102//78 92//72 103//79 
f 103//79 92//72 104//80 
f 104//80 92//72 105//81 
f 105//81 92//72 106//82 
f 106//82 92//72 107//83 
f 107//83 92//72 108//84 
f 108//84 92//72 109//85 
f 109//85 92//72 110//86 
f 110//86 92//72 111//87 
f 111//87 92//72 112//88 
f 112//88 92//72 113//89 
f 113//89 92//72 114//90 
f 114//90 92//72 115//91 
f 115//91 92//72 116//92 
f 116//92 92//72 117//93 
f 117//93 92//72 118//94 
f 118//94 92//72 119//95 
f 119//95 92//72 120//96 
f 120//96 92//72 121//97 
f 122//98 123//99 92//72 
f 121//97 92//72 124//100 
f 123//99 125//98 92//72 
f 125//98 126//99 92//72 
f 92//72 126//99 124//100 
f 127//1 128//1 129//101 
f 5//4 4//3 130//102 
f 4//3 129//101 130//102 
f 130//102 129//101 131//103 
f 131//103 129//101 132//104 
f 132//104 129//101 133//105 
f 133//105 129//101 134//106 
f 134//106 129//101 135//106 
f 135//106 129//101 136//106 
f 136//106 129//101 137//106 
f 137//106 129//101 138//106 
f 138//106 129//101 139//106 
f 139//106 129//101 140//106 
f 140//106 129//101 141//107 
f 128//1 142//1 129//101 
f 142//1 143//108 129//101 
f 143//108 144//109 129//101 
f 144//109 145//110 129//101 
f 145//110 146//110 129//101 
f 146//110 147//111 129//101 
f 147//111 148//112 129//101 
f 148//112 149//113 129//101 
f 149//113 150//114 129//101 
f 150//114 151//115 129//101 
f 151//115 152//116 129//101 
f 152//116 153//117 129//101 
f 153//117 154//118 129//101 
f 154//118 155//119 129//101 
f 155//119 156//120 129//101 
f 156//120 157//121 129//101 
f 157//121 158//122 129//101 
f 158//122 159//123 129//101 
f 159//123 160//123 129//101 
f 160//123 161//123 129//101 
f 161//123 162//124 129//101 
f 163//125 164//126 165//127 
f 166//128 165//127 167//129 
f 168//130 169//124 162//124 
f 170//31 171//124 169//124 
f 164//126 141//107 165//127 
f 141//107 129//101 165//127 
f 165//127 129//101 167//129 
f 167//129 129//101 171//124 
f 171//124 129//101 169//124 
f 129//101 162//124 169//124 
f 172//131 129//101 49//37 
f 49//37 129//101 4//3 
f 173//40 172//131 174//132 
f 49//37 50//38 172//131 
f 50//38 175//133 172//131 
f 176//42 177//43 175//133 
f 177//43 178//134 175//133 
f 178//134 179//135 175//133 
f 174//132 172//131 180//136 
f 180//136 172//131 181//137 
f 181//137 172//131 182//138 
f 182//138 172//131 183//139 
f 183//139 172//131 184//140 
f 184//140 172//131 185//140 
f 185//140 172//131 186//140 
f 186//140 172//131 187//140 
f 187//140 172//131 188//140 
f 188//140 172//131 189//141 
f 189//141 172//131 190//142 
f 179//135 191//143 175//133 
f 191//143 192//144 175//133 
f 192//144 193//145 175//133 
f 193//145 194//146 175//133 
f 194//146 195//147 175//133 
f 195//147 196//148 175//133 
f 196//148 197//148 175//133 
f 190//142 172//131 198//149 
f 172//131 175//133 198//149 
f 198//149 175//133 199//150 
f 199//150 175//133 200//151 
f 200//151 175//133 201//152 
f 201//152 175//133 202//153 
f 202//153 175//133 203//154 
f 203//154 175//133 204//155 
f 204//155 175//133 205//156 
f 205//156 175//133 206//157 
f 206//157 175//133 207//153 
f 207//153 175//133 208//153 
f 208//153 175//133 209//158 
f 209//158 175//133 210//159 
f 210//159 175//133 211//159 
f 211//159 175//133 212//160 
f 212//160 175//133 213//161 
f 175//133 197//148 213//161 
f 214//162 175//133 93//73 
f 93//73 175//133 50//38 
f 93//73 94//74 214//162 
f 94//74 215//163 214//162 
f 215//163 216//163 214//162 
f 216//163 217//163 214//162 
f 217//163 218//163 214//162 
f 218//163 219//164 214//162 
f 219//164 220//165 214//162 
f 220//165 221//166 214//162 
f 221//166 222//166 214//162 
f 222//166 223//167 214//162 
f 223//167 224//168 214//162 
f 224//168 225//169 214//162 
f 225//169 226//170 214//162 
f 226//170 227//171 214//162 
f 227//171 228//172 214//162 
f 228//172 229//173 214//162 
f 229//173 230//174 214//162 
f 230//174 231//175 214//162 
f 231//175 232//176 214//162 
f 232//176 233//177 214//162 
f 233//177 234//178 214//162 
f 234//178 235//179 214//162 
f 235//179 236//180 214//162 
f 236//180 237//181 214//162 
f 237//181 238//182 214//162 
f 238//182 239//183 214//162 
f 239//183 240//184 214//162 
f 240//184 241//185 214//162 
f 241//185 242//186 214//162 
f 243//99 214//162 244//99 
f 244//99 214//162 245//98 
f 245//98 214//162 246//187 
f 242//186 246//187 214//162 
# 248 faces

