# 3ds Max Wavefront OBJ Exporter v0.97b - (c)2007 guruware
# File Created: 30.11.2015 12:55:51

mtllib P158_181C_R.mtl

#
# object P158_181C_R_1_DaS_P158_181C_R
#

v  103.2395 51.5819 89.1506
v  93.2267 58.6262 86.8005
v  100.9511 51.0956 89.7900
v  91.8474 57.9472 87.4376
v  110.1645 46.4981 90.7880
v  106.9345 46.2725 91.4090
v  103.5729 45.7176 92.1033
v  101.3484 47.9365 91.3021
v  99.2698 50.0499 90.5279
v  96.6022 52.4005 89.6655
v  90.9707 57.1359 87.9577
v  59.3468 79.3601 79.0627
v  49.7764 84.2467 76.9492
v  58.8299 78.7527 79.5737
v  49.2585 83.6362 77.4620
v  70.0184 73.3657 81.4560
v  69.3695 72.7243 82.0142
v  57.8522 78.0378 80.0929
v  68.5257 72.0752 82.4631
v  44.0086 86.1054 76.3311
v  48.8503 82.6904 78.0561
v  43.2568 85.3734 76.8599
v  34.4695 91.0736 73.6660
v  29.6639 92.8419 72.7622
v  34.0463 90.4462 74.2823
v  29.3230 92.1470 73.4200
v  33.5113 89.6220 74.9063
v  29.0641 91.2147 74.0955
v  33.9714 93.4950 68.9710
v  33.8834 93.6472 68.4433
v  31.2298 94.5179 68.4353
v  31.8359 94.9602 65.7400
v  33.8953 93.8807 67.4375
v  34.1257 94.1059 66.1649
v  35.5718 92.3106 71.1318
v  34.6021 92.8390 70.4312
v  30.7884 94.1372 70.0669
v  34.2324 93.1177 69.9133
v  81.6840 66.2195 84.1228
v  80.8396 65.5535 84.7083
v  80.1119 64.9147 85.1508
v  105.5478 51.8974 88.2197
v  113.2980 46.5970 89.8221
v  106.2334 51.9839 87.6542
v  114.1516 46.6235 89.2687
v  94.6539 59.1626 85.8990
v  95.1564 59.3155 85.3181
v  107.1050 52.0653 86.5015
v  95.8338 59.4659 84.1973
v  115.2104 46.6300 88.0980
v  83.5441 67.2376 81.5528
v  82.9759 67.0659 82.6274
v  82.5910 66.8671 83.2231
v  70.7016 74.0541 80.5489
v  71.0281 74.2813 79.9445
v  71.5330 74.4561 78.9243
v  60.6740 80.5216 76.5876
v  60.2406 80.3266 77.5527
v  59.9400 80.0795 78.1574
v  50.3383 84.9835 76.0304
v  50.6267 85.2415 75.4252
v  50.9920 85.4651 74.5064
v  30.1955 93.5692 71.7128
v  35.0047 91.7918 72.6420
v  30.4601 93.8356 71.0657
v  35.2723 92.0512 72.0117
v  42.1230 89.1767 73.5157
v  41.7037 88.9773 74.0994
v  42.4443 89.4221 72.6265
v  94.1018 58.9644 86.3322
v  104.7017 51.7903 88.6589
v  112.1770 46.5744 90.2729
v  82.2137 66.6124 83.6653
v  70.3997 73.7696 81.0042
v  59.6666 79.7764 78.6181
v  50.0743 84.6737 76.4979
v  40.7989 88.4004 74.9943
v  34.7538 91.4959 73.1475
v  41.2962 88.7376 74.5527
v  29.9462 93.2709 72.2314
v  118.0922 43.9375 90.0666
v  117.1475 43.9434 90.6132
v  119.2644 43.9023 88.8765
v  115.8795 43.9663 91.0696
v  113.5759 43.9613 91.5959
v  109.8340 43.8795 92.2051
v  105.1214 43.7313 92.8559
v  40.1167 87.8989 75.5032
v  39.2865 87.2476 76.0201
# 89 vertices

vn 0.1645 0.5071 0.8461
vn 0.1683 0.5318 0.8300
vn 0.1279 0.4667 0.8751
vn 0.1276 0.4858 0.8647
vn 0.1623 0.4942 0.8541
vn 0.1251 0.4511 0.8837
vn 0.1127 0.4365 0.8926
vn 0.1188 0.4408 0.8897
vn 0.1108 0.4480 0.8872
vn 0.1107 0.4507 0.8858
vn 0.1027 0.4565 0.8838
vn 0.1520 0.6056 0.7811
vn 0.1359 0.6212 0.7718
vn 0.1028 0.5363 0.8378
vn 0.0863 0.5443 0.8344
vn 0.1710 0.5923 0.7874
vn 0.1172 0.5234 0.8440
vn 0.0814 0.5101 0.8563
vn 0.0875 0.4877 0.8686
vn 0.0967 0.5810 0.8081
vn 0.0659 0.5113 0.8569
vn 0.0730 0.5355 0.8414
vn 0.1314 0.6860 0.7157
vn 0.1082 0.6944 0.7114
vn 0.0905 0.6134 0.7846
vn 0.0673 0.6179 0.7834
vn 0.0684 0.5736 0.8163
vn 0.0484 0.5775 0.8150
vn 0.2873 0.9171 0.2764
vn 0.3038 0.9272 0.2193
vn 0.2668 0.9327 0.2427
vn 0.2692 0.9389 0.2145
vn 0.3053 0.9267 0.2189
vn 0.3051 0.9268 0.2192
vn 0.2811 0.8917 0.3548
vn 0.2824 0.9125 0.2959
vn 0.2508 0.9149 0.3162
vn 0.2836 0.9145 0.2886
vn 0.1750 0.5660 0.8056
vn 0.1312 0.5114 0.8493
vn 0.1066 0.4810 0.8702
vn 0.3351 0.6957 0.6353
vn 0.3291 0.6788 0.6565
vn 0.4262 0.7806 0.4572
vn 0.4266 0.7713 0.4724
vn 0.3403 0.7224 0.6019
vn 0.4223 0.7959 0.4339
vn 0.4514 0.7985 0.3984
vn 0.4454 0.8113 0.3787
vn 0.4515 0.7906 0.4135
vn 0.4330 0.8258 0.3613
vn 0.4110 0.8119 0.4145
vn 0.3366 0.7471 0.5732
vn 0.3210 0.7644 0.5591
vn 0.3913 0.8265 0.4047
vn 0.4142 0.8406 0.3491
vn 0.3852 0.8557 0.3456
vn 0.3611 0.8398 0.4053
vn 0.2927 0.7764 0.5581
vn 0.2624 0.7905 0.5534
vn 0.3255 0.8525 0.4090
vn 0.3484 0.8697 0.3497
vn 0.1982 0.8451 0.4965
vn 0.2264 0.8306 0.5087
vn 0.2331 0.8904 0.3909
vn 0.2665 0.8767 0.4005
vn 0.2935 0.8638 0.4095
vn 0.2407 0.8091 0.5361
vn 0.3125 0.8809 0.3554
vn 0.2421 0.6178 0.7481
vn 0.2364 0.5894 0.7725
vn 0.2337 0.5753 0.7838
vn 0.2466 0.6517 0.7173
vn 0.2406 0.6776 0.6950
vn 0.2173 0.6904 0.6900
vn 0.1925 0.7051 0.6825
vn 0.1353 0.6630 0.7363
vn 0.1767 0.7606 0.6247
vn 0.1819 0.7309 0.6577
vn 0.1534 0.7746 0.6136
vn 0.4338 0.7753 0.4590
vn 0.3371 0.6850 0.6459
vn 0.4498 0.7883 0.4198
vn 0.2476 0.5885 0.7696
vn 0.1711 0.5020 0.8478
vn 0.1272 0.4504 0.8837
vn 0.1120 0.4301 0.8958
vn 0.0940 0.5933 0.7995
vn 0.0754 0.5600 0.8250
# 89 vertex normals

vt 0.5284 0.1890 0.0000
vt 0.5134 0.1992 0.0000
vt 0.5247 0.1879 0.0000
vt 0.5111 0.1979 0.0000
vt 0.5387 0.1814 0.0000
vt 0.5336 0.1807 0.0000
vt 0.5281 0.1796 0.0000
vt 0.5249 0.1829 0.0000
vt 0.5218 0.1861 0.0000
vt 0.5179 0.1895 0.0000
vt 0.5096 0.1965 0.0000
vt 0.4621 0.2287 0.0000
vt 0.4475 0.2359 0.0000
vt 0.4612 0.2275 0.0000
vt 0.4466 0.2347 0.0000
vt 0.4783 0.2200 0.0000
vt 0.4772 0.2187 0.0000
vt 0.4595 0.2261 0.0000
vt 0.4757 0.2175 0.0000
vt 0.4386 0.2386 0.0000
vt 0.4458 0.2331 0.0000
vt 0.4373 0.2372 0.0000
vt 0.4243 0.2467 0.0000
vt 0.4169 0.2492 0.0000
vt 0.4237 0.2453 0.0000
vt 0.4163 0.2477 0.0000
vt 0.4229 0.2438 0.0000
vt 0.4160 0.2460 0.0000
vt 0.4237 0.2552 0.0000
vt 0.4236 0.2562 0.0000
vt 0.4193 0.2568 0.0000
vt 0.4203 0.2612 0.0000
vt 0.4236 0.2578 0.0000
vt 0.4240 0.2598 0.0000
vt 0.4262 0.2509 0.0000
vt 0.4247 0.2524 0.0000
vt 0.4186 0.2541 0.0000
vt 0.4241 0.2535 0.0000
vt 0.4960 0.2100 0.0000
vt 0.4945 0.2087 0.0000
vt 0.4933 0.2076 0.0000
vt 0.5322 0.1901 0.0000
vt 0.5438 0.1823 0.0000
vt 0.5333 0.1908 0.0000
vt 0.5452 0.1828 0.0000
vt 0.5158 0.2007 0.0000
vt 0.5166 0.2014 0.0000
vt 0.5348 0.1921 0.0000
vt 0.5178 0.2028 0.0000
vt 0.5470 0.1841 0.0000
vt 0.4993 0.2138 0.0000
vt 0.4982 0.2124 0.0000
vt 0.4976 0.2116 0.0000
vt 0.4795 0.2216 0.0000
vt 0.4801 0.2225 0.0000
vt 0.4810 0.2239 0.0000
vt 0.4645 0.2326 0.0000
vt 0.4637 0.2313 0.0000
vt 0.4632 0.2303 0.0000
vt 0.4486 0.2377 0.0000
vt 0.4491 0.2386 0.0000
vt 0.4498 0.2399 0.0000
vt 0.4177 0.2513 0.0000
vt 0.4251 0.2486 0.0000
vt 0.4181 0.2524 0.0000
vt 0.4256 0.2496 0.0000
vt 0.4361 0.2448 0.0000
vt 0.4354 0.2440 0.0000
vt 0.4368 0.2462 0.0000
vt 0.5148 0.2000 0.0000
vt 0.5308 0.1896 0.0000
vt 0.5420 0.1819 0.0000
vt 0.4969 0.2109 0.0000
vt 0.4790 0.2209 0.0000
vt 0.4627 0.2295 0.0000
vt 0.4481 0.2369 0.0000
vt 0.4338 0.2424 0.0000
vt 0.4247 0.2477 0.0000
vt 0.4347 0.2432 0.0000
vt 0.4173 0.2503 0.0000
vt 0.5511 0.1790 0.0000
vt 0.5496 0.1785 0.0000
vt 0.5531 0.1801 0.0000
vt 0.5475 0.1781 0.0000
vt 0.5438 0.1775 0.0000
vt 0.5378 0.1769 0.0000
vt 0.5303 0.1766 0.0000
vt 0.4326 0.2413 0.0000
vt 0.4312 0.2401 0.0000
# 89 texture coords

g P158_181C_R_1_DaS_P158_181C_R
usemtl paint_whiteSG
s 8
f 1/1/1 2/2/2 3/3/3 
f 2/2/2 4/4/4 3/3/3 
f 5/5/5 1/1/1 6/6/6 
f 1/1/1 3/3/3 6/6/6 
f 6/6/6 3/3/3 7/7/7 
f 7/7/7 3/3/3 8/8/8 
f 8/8/8 3/3/3 9/9/9 
f 3/3/3 4/4/4 9/9/9 
f 9/9/9 4/4/4 10/10/10 
f 10/10/10 4/4/4 11/11/11 
f 12/12/12 13/13/13 14/14/14 
f 13/13/13 15/15/15 14/14/14 
f 16/16/16 12/12/12 17/17/17 
f 12/12/12 14/14/14 17/17/17 
f 18/18/18 19/19/19 14/14/14 
f 19/19/19 17/17/17 14/14/14 
f 15/15/15 20/20/20 21/21/21 
f 20/20/20 22/22/22 21/21/21 
f 23/23/23 24/24/24 25/25/25 
f 24/24/24 26/26/26 25/25/25 
f 27/27/27 25/25/25 28/28/28 
f 25/25/25 26/26/26 28/28/28 
f 29/29/29 30/30/30 31/31/31 
f 31/31/31 30/30/30 32/32/32 
f 30/30/30 33/33/33 32/32/32 
f 34/34/34 32/32/32 33/33/33 
f 35/35/35 36/36/36 37/37/37 
f 36/36/36 38/38/38 37/37/37 
f 38/38/38 29/29/29 37/37/37 
f 29/29/29 31/31/31 37/37/37 
f 39/39/39 16/16/16 40/40/40 
f 16/16/16 17/17/17 40/40/40 
f 2/2/2 39/39/39 4/4/4 
f 39/39/39 40/40/40 4/4/4 
f 41/41/41 11/11/11 40/40/40 
f 11/11/11 4/4/4 40/40/40 
f 19/19/19 41/41/41 17/17/17 
f 41/41/41 40/40/40 17/17/17 
f 42/42/42 43/43/43 44/44/44 
f 43/43/43 45/45/45 44/44/44 
f 46/46/46 42/42/42 47/47/47 
f 42/42/42 44/44/44 47/47/47 
f 48/48/48 49/49/49 44/44/44 
f 49/49/49 47/47/47 44/44/44 
f 50/50/50 48/48/48 45/45/45 
f 48/48/48 44/44/44 45/45/45 
f 49/49/49 51/51/51 47/47/47 
f 51/51/51 52/52/52 47/47/47 
f 53/53/53 46/46/46 52/52/52 
f 46/46/46 47/47/47 52/52/52 
f 54/54/54 53/53/53 55/55/55 
f 53/53/53 52/52/52 55/55/55 
f 51/51/51 56/56/56 52/52/52 
f 56/56/56 55/55/55 52/52/52 
f 56/56/56 57/57/57 55/55/55 
f 57/57/57 58/58/58 55/55/55 
f 59/59/59 54/54/54 58/58/58 
f 54/54/54 55/55/55 58/58/58 
f 60/60/60 59/59/59 61/61/61 
f 59/59/59 58/58/58 61/61/61 
f 57/57/57 62/62/62 58/58/58 
f 62/62/62 61/61/61 58/58/58 
f 63/63/63 64/64/64 65/65/65 
f 64/64/64 66/66/66 65/65/65 
f 61/61/61 67/67/67 60/60/60 
f 67/67/67 68/68/68 60/60/60 
f 64/64/64 68/68/68 66/66/66 
f 68/68/68 67/67/67 66/66/66 
f 69/69/69 35/35/35 67/67/67 
f 35/35/35 66/66/66 67/67/67 
f 62/62/62 69/69/69 61/61/61 
f 69/69/69 67/67/67 61/61/61 
f 2/2/2 1/1/1 70/70/70 
f 1/1/1 71/71/71 70/70/70 
f 42/42/42 46/46/46 71/71/71 
f 46/46/46 70/70/70 71/71/71 
f 43/43/43 42/42/42 72/72/72 
f 42/42/42 71/71/71 72/72/72 
f 1/1/1 5/5/5 71/71/71 
f 5/5/5 72/72/72 71/71/71 
f 46/46/46 53/53/53 70/70/70 
f 53/53/53 73/73/73 70/70/70 
f 39/39/39 2/2/2 73/73/73 
f 2/2/2 70/70/70 73/73/73 
f 16/16/16 39/39/39 74/74/74 
f 39/39/39 73/73/73 74/74/74 
f 53/53/53 54/54/54 73/73/73 
f 54/54/54 74/74/74 73/73/73 
f 54/54/54 59/59/59 74/74/74 
f 59/59/59 75/75/75 74/74/74 
f 12/12/12 16/16/16 75/75/75 
f 16/16/16 74/74/74 75/75/75 
f 76/76/76 13/13/13 75/75/75 
f 13/13/13 12/12/12 75/75/75 
f 59/59/59 60/60/60 75/75/75 
f 60/60/60 76/76/76 75/75/75 
f 23/23/23 77/77/77 78/78/78 
f 77/77/77 79/79/79 78/78/78 
f 68/68/68 64/64/64 79/79/79 
f 64/64/64 78/78/78 79/79/79 
f 76/76/76 79/79/79 13/13/13 
f 79/79/79 77/77/77 13/13/13 
f 64/64/64 63/63/63 78/78/78 
f 63/63/63 80/80/80 78/78/78 
f 24/24/24 23/23/23 80/80/80 
f 23/23/23 78/78/78 80/80/80 
f 81/81/81 45/45/45 82/82/82 
f 45/45/45 43/43/43 82/82/82 
f 45/45/45 81/81/81 50/50/50 
f 81/81/81 83/83/83 50/50/50 
f 72/72/72 84/84/84 43/43/43 
f 84/84/84 82/82/82 43/43/43 
f 84/84/84 72/72/72 85/85/85 
f 72/72/72 5/5/5 85/85/85 
f 6/6/6 86/86/86 5/5/5 
f 86/86/86 85/85/85 5/5/5 
f 7/7/7 87/87/87 6/6/6 
f 87/87/87 86/86/86 6/6/6 
f 35/35/35 37/37/37 66/66/66 
f 37/37/37 65/65/65 66/66/66 
f 21/21/21 18/18/18 15/15/15 
f 18/18/18 14/14/14 15/15/15 
f 20/20/20 88/88/88 22/22/22 
f 88/88/88 89/89/89 22/22/22 
f 79/79/79 76/76/76 68/68/68 
f 76/76/76 60/60/60 68/68/68 
f 88/88/88 20/20/20 77/77/77 
f 77/77/77 20/20/20 13/13/13 
f 20/20/20 15/15/15 13/13/13 
f 25/25/25 88/88/88 23/23/23 
f 88/88/88 77/77/77 23/23/23 
f 27/27/27 89/89/89 25/25/25 
f 89/89/89 88/88/88 25/25/25 
# 133 faces

#
# object P158_181C_R_1_DaS_P158_181C_R_E
#

v  118.0922 43.9375 90.0666
v  118.3157 42.8187 90.0666
v  119.2644 43.9023 88.8765
v  119.5715 42.7810 88.7917
v  119.3713 43.7830 88.7916
v  117.1475 43.9434 90.6132
v  117.3710 42.8246 90.6132
v  115.8795 43.9663 91.0696
v  116.1030 42.8475 91.0696
v  113.5759 43.9613 91.5959
v  113.7993 42.8424 91.5959
v  109.8340 43.8795 92.2051
v  110.0574 42.8529 92.2051
v  105.1214 43.7313 92.8559
v  105.3932 43.2786 92.8323
v  105.4460 43.0740 92.8333
v  34.1257 94.1059 66.1649
v  33.8888 93.9698 65.6718
v  31.8359 94.9602 65.7400
v  31.7670 94.7487 65.2838
v  68.5257 72.0752 82.4631
v  68.4916 71.8714 82.0846
v  80.1119 64.9147 85.1508
v  80.0733 64.7167 84.7697
v  57.8522 78.0378 80.0929
v  57.8236 77.8281 79.7172
v  43.2568 85.3734 76.8599
v  43.2294 85.1519 76.4910
v  48.8503 82.6904 78.0561
v  48.8246 82.4747 77.6836
v  90.9707 57.1359 87.9577
v  90.9276 56.9423 87.5748
v  96.6022 52.4005 89.6655
v  96.5571 52.2088 89.2819
v  103.5729 45.7176 92.1033
v  103.5267 45.5334 91.7162
v  105.0857 43.4781 92.5201
v  101.3484 47.9365 91.3021
v  101.3023 47.7504 90.9159
v  99.2698 50.0499 90.5279
v  99.2242 49.8610 90.1430
v  29.0641 91.2147 74.0955
v  29.0552 90.9883 73.7287
v  33.5113 89.6220 74.9063
v  33.4928 89.3935 74.5411
v  39.2865 87.2476 76.0201
v  39.2597 87.0200 75.6549
v  119.1503 43.5664 88.6546
v  115.2416 46.5337 87.9609
v  115.1014 46.2965 87.8644
v  107.1243 51.9750 86.3625
v  106.9851 51.7362 86.2684
v  95.8408 59.3812 84.0567
v  95.7043 59.1394 83.9664
v  71.5338 74.3723 78.7847
v  71.4066 74.1223 78.7036
v  60.6735 80.4393 76.4483
v  60.5540 80.1846 76.3703
v  50.9903 85.3857 74.3664
v  50.8807 85.1267 74.2882
v  42.4431 89.3449 72.4850
v  42.3442 89.0825 72.4040
v  35.5727 92.2342 70.9892
v  35.4844 91.9688 70.9060
v  83.5458 67.1543 81.4123
v  83.4133 66.9086 81.3266
v  34.0615 93.3385 68.9655
v  33.9755 93.0696 68.8918
v  33.9609 93.5042 68.3998
v  33.8720 93.2334 68.3363
v  33.9725 93.7325 67.4147
v  33.8835 93.4618 67.3512
v  34.1986 93.9540 66.1624
v  34.1077 93.6824 66.1063
v  34.6541 92.7305 70.3127
v  34.5709 92.4634 70.2290
v  34.3038 92.9938 69.8220
v  34.2206 92.7267 69.7383
v  115.2104 46.6300 88.0980
v  107.1050 52.0653 86.5015
v  95.8338 59.4659 84.1973
v  83.5441 67.2376 81.5528
v  71.5330 74.4561 78.9243
v  60.6740 80.5216 76.5876
v  50.9920 85.4651 74.5064
v  42.4443 89.4221 72.6265
v  35.5718 92.3106 71.1318
v  34.6021 92.8390 70.4312
v  33.8953 93.8807 67.4375
v  33.8834 93.6472 68.4433
v  33.9714 93.4950 68.9710
v  34.2324 93.1177 69.9133
# 92 vertices

vn 0.5975 0.1194 0.7930
vn 0.6199 0.1238 0.7748
vn 0.7074 0.1413 0.6926
vn 0.4110 0.0821 0.9079
vn 0.4303 0.0860 0.8986
vn 0.2739 0.0547 0.9602
vn 0.2885 0.0576 0.9557
vn 0.1880 0.0378 0.9814
vn 0.1955 0.0390 0.9799
vn 0.1467 0.0321 0.9887
vn 0.1500 0.0324 0.9882
vn 0.1358 0.0298 0.9903
vn 0.1352 0.0339 0.9902
vn 0.1347 0.0384 0.9901
vn 0.7500 0.6600 -0.0441
vn 0.3841 0.8247 -0.4151
vn 0.3800 0.8176 -0.4326
vn 0.3793 0.8163 -0.4356
vn -0.5272 -0.7274 0.4393
vn -0.5272 -0.7275 0.4391
vn -0.5717 -0.7029 0.4233
vn -0.5717 -0.7029 0.4232
vn -0.4987 -0.7401 0.4512
vn -0.4987 -0.7402 0.4510
vn -0.4573 -0.7468 0.4828
vn -0.4573 -0.7472 0.4822
vn -0.4741 -0.7472 0.4657
vn -0.4741 -0.7475 0.4653
vn -0.6287 -0.6632 0.4061
vn -0.6672 -0.6321 0.3941
vn -0.6671 -0.6320 0.3943
vn -0.7617 -0.5450 0.3504
vn -0.7616 -0.5424 0.3546
vn -0.7962 -0.4459 0.4090
vn -0.7953 -0.4403 0.4166
vn -0.7231 -0.5844 0.3683
vn -0.7231 -0.5846 0.3680
vn -0.7021 -0.6028 0.3790
vn -0.7021 -0.6029 0.3790
vn -0.3716 -0.7859 0.4942
vn -0.3716 -0.7855 0.4949
vn -0.3912 -0.7714 0.5019
vn -0.3913 -0.7710 0.5024
vn -0.4324 -0.7507 0.4995
vn -0.4324 -0.7509 0.4993
vn 0.4584 0.0916 -0.8840
vn 0.3986 0.1630 -0.9025
vn 0.4618 0.3231 -0.8260
vn 0.4795 0.5048 -0.7178
vn 0.3124 0.1935 -0.9300
vn 0.4768 0.4996 -0.7232
vn 0.3104 0.1861 -0.9322
vn 0.4712 0.4926 -0.7316
vn 0.3086 0.1748 -0.9350
vn 0.4459 0.4874 -0.7508
vn 0.2947 0.1559 -0.9428
vn 0.4279 0.4957 -0.7558
vn 0.2863 0.1554 -0.9454
vn 0.4131 0.5113 -0.7536
vn 0.2855 0.1643 -0.9442
vn 0.3985 0.5312 -0.7477
vn 0.2867 0.1823 -0.9405
vn 0.5468 0.4903 -0.6787
vn 0.4570 0.1249 -0.8807
vn 0.4616 0.4872 -0.7414
vn 0.3041 0.1632 -0.9386
vn 0.9722 0.1642 -0.1669
vn 0.9314 -0.2189 -0.2907
vn 0.9923 0.1124 -0.0513
vn 0.9489 -0.2756 -0.1538
vn 0.9914 0.0710 0.1096
vn 0.9479 -0.3174 0.0257
vn 0.9807 0.0562 0.1873
vn 0.9357 -0.3355 0.1095
vn 0.7666 0.3637 -0.5291
vn 0.7127 -0.0020 -0.7014
vn 0.9127 0.2533 -0.3207
vn 0.8706 -0.1216 -0.4767
vn 0.5651 0.7302 -0.3841
vn 0.5678 0.7496 -0.3401
vn 0.5612 0.7274 -0.3948
vn 0.5528 0.7256 -0.4098
vn 0.5396 0.7272 -0.4243
vn 0.5194 0.7341 -0.4375
vn 0.4942 0.7478 -0.4434
vn 0.4683 0.7661 -0.4402
vn 0.4416 0.7861 -0.4324
vn 0.5249 0.7517 -0.3992
vn 0.7024 0.6508 -0.2883
vn 0.8842 0.4336 0.1736
vn 0.8847 0.4631 0.0527
vn 0.8675 0.4970 -0.0201
vn 0.8161 0.5634 -0.1287
# 93 vertex normals

vt 0.5511 0.1790 0.0000
vt 0.5514 0.1778 0.0000
vt 0.5531 0.1801 0.0000
vt 0.5535 0.1792 0.0000
vt 0.5533 0.1801 0.0000
vt 0.5496 0.1785 0.0000
vt 0.5498 0.1771 0.0000
vt 0.5475 0.1781 0.0000
vt 0.5478 0.1765 0.0000
vt 0.5438 0.1775 0.0000
vt 0.5440 0.1758 0.0000
vt 0.5378 0.1769 0.0000
vt 0.5380 0.1753 0.0000
vt 0.5303 0.1766 0.0000
vt 0.5307 0.1759 0.0000
vt 0.5307 0.1756 0.0000
vt 0.4240 0.2598 0.0000
vt 0.4241 0.2607 0.0000
vt 0.4203 0.2612 0.0000
vt 0.4203 0.2620 0.0000
vt 0.4757 0.2175 0.0000
vt 0.4756 0.2170 0.0000
vt 0.4933 0.2076 0.0000
vt 0.4931 0.2070 0.0000
vt 0.4595 0.2261 0.0000
vt 0.4594 0.2256 0.0000
vt 0.4373 0.2372 0.0000
vt 0.4372 0.2366 0.0000
vt 0.4458 0.2331 0.0000
vt 0.4457 0.2325 0.0000
vt 0.5096 0.1965 0.0000
vt 0.5094 0.1960 0.0000
vt 0.5179 0.1895 0.0000
vt 0.5178 0.1890 0.0000
vt 0.5281 0.1796 0.0000
vt 0.5280 0.1792 0.0000
vt 0.5302 0.1762 0.0000
vt 0.5249 0.1829 0.0000
vt 0.5248 0.1825 0.0000
vt 0.5218 0.1861 0.0000
vt 0.5217 0.1856 0.0000
vt 0.4160 0.2460 0.0000
vt 0.4158 0.2453 0.0000
vt 0.4229 0.2438 0.0000
vt 0.4227 0.2432 0.0000
vt 0.4312 0.2401 0.0000
vt 0.4311 0.2395 0.0000
vt 0.5530 0.1806 0.0000
vt 0.5471 0.1842 0.0000
vt 0.5469 0.1846 0.0000
vt 0.5349 0.1923 0.0000
vt 0.5347 0.1927 0.0000
vt 0.5179 0.2030 0.0000
vt 0.5177 0.2034 0.0000
vt 0.4811 0.2241 0.0000
vt 0.4809 0.2245 0.0000
vt 0.4646 0.2328 0.0000
vt 0.4644 0.2332 0.0000
vt 0.4498 0.2402 0.0000
vt 0.4497 0.2406 0.0000
vt 0.4368 0.2464 0.0000
vt 0.4367 0.2468 0.0000
vt 0.4263 0.2512 0.0000
vt 0.4265 0.2515 0.0000
vt 0.4993 0.2140 0.0000
vt 0.4991 0.2144 0.0000
vt 0.4240 0.2552 0.0000
vt 0.4244 0.2553 0.0000
vt 0.4238 0.2562 0.0000
vt 0.4243 0.2562 0.0000
vt 0.4238 0.2578 0.0000
vt 0.4242 0.2578 0.0000
vt 0.4242 0.2597 0.0000
vt 0.4245 0.2596 0.0000
vt 0.4249 0.2526 0.0000
vt 0.4253 0.2529 0.0000
vt 0.4244 0.2536 0.0000
vt 0.4248 0.2537 0.0000
vt 0.5470 0.1841 0.0000
vt 0.5348 0.1921 0.0000
vt 0.5178 0.2028 0.0000
vt 0.4993 0.2138 0.0000
vt 0.4810 0.2239 0.0000
vt 0.4645 0.2326 0.0000
vt 0.4498 0.2399 0.0000
vt 0.4368 0.2462 0.0000
vt 0.4262 0.2509 0.0000
vt 0.4247 0.2524 0.0000
vt 0.4236 0.2578 0.0000
vt 0.4236 0.2562 0.0000
vt 0.4237 0.2552 0.0000
vt 0.4241 0.2535 0.0000
# 92 texture coords

g P158_181C_R_1_DaS_P158_181C_R_E
usemtl paint_whiteSG
s 1
f 90/90/90 91/91/91 92/92/92 
f 93/93/92 94/94/92 91/91/91 
f 92/92/92 91/91/91 94/94/92 
f 95/95/93 96/96/94 90/90/90 
f 96/96/94 91/91/91 90/90/90 
f 97/97/95 98/98/96 95/95/93 
f 98/98/96 96/96/94 95/95/93 
f 99/99/97 100/100/98 97/97/95 
f 100/100/98 98/98/96 97/97/95 
f 101/101/99 102/102/100 99/99/97 
f 102/102/100 100/100/98 99/99/97 
f 103/103/101 104/104/102 101/101/99 
f 102/102/100 101/101/99 105/105/103 
f 105/105/103 101/101/99 104/104/102 
s 7
f 106/106/104 107/107/105 108/108/106 
f 107/107/105 109/109/107 108/108/106 
s 26
f 110/110/108 111/111/109 112/112/110 
f 111/111/109 113/113/111 112/112/110 
f 114/114/112 115/115/113 110/110/108 
f 115/115/113 111/111/109 110/110/108 
f 116/116/114 117/117/115 118/118/116 
f 117/117/115 119/119/117 118/118/116 
f 120/120/118 121/121/118 122/122/119 
f 121/121/118 123/123/120 122/122/119 
f 112/112/110 113/113/111 120/120/118 
f 113/113/111 121/121/118 120/120/118 
f 124/124/121 125/125/122 103/103/123 
f 125/125/122 126/126/124 103/103/123 
f 127/127/125 128/128/126 124/124/121 
f 128/128/126 125/125/122 124/124/121 
f 129/129/127 130/130/128 127/127/125 
f 130/130/128 128/128/126 127/127/125 
f 129/129/127 122/122/119 130/130/128 
f 122/122/119 123/123/120 130/130/128 
f 131/131/129 132/132/130 133/133/131 
f 132/132/130 134/134/132 133/133/131 
f 133/133/131 134/134/132 135/135/133 
f 134/134/132 136/136/134 135/135/133 
f 118/118/116 119/119/117 114/114/112 
f 119/119/117 115/115/113 114/114/112 
f 135/135/133 136/136/134 116/116/114 
f 136/136/134 117/117/115 116/116/114 
s 34
f 93/93/135 137/137/136 94/94/137 
f 138/138/138 139/139/139 140/140/140 
f 139/139/139 141/141/141 140/140/140 
f 140/140/140 141/141/141 142/142/142 
f 141/141/141 143/143/143 142/142/142 
f 144/144/144 145/145/145 146/146/146 
f 145/145/145 147/147/147 146/146/146 
f 146/146/146 147/147/147 148/148/148 
f 147/147/147 149/149/149 148/148/148 
f 148/148/148 149/149/149 150/150/150 
f 149/149/149 151/151/151 150/150/150 
f 150/150/150 151/151/151 152/152/152 
f 151/151/151 153/153/153 152/152/152 
f 142/142/142 143/143/143 154/154/154 
f 143/143/143 155/155/155 154/154/154 
f 154/154/154 155/155/155 144/144/144 
f 155/155/155 145/145/145 144/144/144 
f 94/94/137 137/137/136 138/138/138 
f 137/137/136 139/139/139 138/138/138 
f 156/156/156 157/157/157 158/158/158 
f 157/157/157 159/159/159 158/158/158 
f 160/160/160 158/158/158 161/161/161 
f 158/158/158 159/159/159 161/161/161 
f 162/162/162 160/160/160 163/163/163 
f 160/160/160 161/161/161 163/163/163 
f 152/152/152 153/153/153 164/164/164 
f 153/153/153 165/165/165 164/164/164 
f 166/166/166 164/164/164 167/167/167 
f 164/164/164 165/165/165 167/167/167 
f 156/156/156 166/166/166 157/157/157 
f 166/166/166 167/167/167 157/157/157 
s 38
f 168/168/168 92/92/169 138/138/138 
f 92/92/169 94/94/137 138/138/138 
f 138/138/138 140/140/140 168/168/168 
f 140/140/140 169/169/170 168/168/168 
f 140/140/140 142/142/142 169/169/170 
f 142/142/142 170/170/171 169/169/170 
f 142/142/142 154/154/154 170/170/171 
f 154/154/154 171/171/172 170/170/171 
f 172/172/173 171/171/172 144/144/144 
f 171/171/172 154/154/154 144/144/144 
f 144/144/144 146/146/146 172/172/173 
f 146/146/146 173/173/174 172/172/173 
f 146/146/146 148/148/148 173/173/174 
f 148/148/148 174/174/175 173/173/174 
f 148/148/148 150/150/150 174/174/175 
f 150/150/150 175/175/176 174/174/175 
f 150/150/150 152/152/152 175/175/176 
f 152/152/152 176/176/177 175/175/176 
f 176/176/177 152/152/152 177/177/178 
f 152/152/152 164/164/164 177/177/178 
f 106/106/104 178/178/179 162/162/162 
f 178/178/179 160/160/160 162/162/162 
f 178/178/179 179/179/180 160/160/160 
f 179/179/180 158/158/158 160/160/160 
f 179/179/180 180/180/181 158/158/158 
f 180/180/181 156/156/156 158/158/158 
f 180/180/181 181/181/182 156/156/156 
f 181/181/182 166/166/166 156/156/156 
f 181/181/182 177/177/178 166/166/166 
f 177/177/178 164/164/164 166/166/166 
# 103 faces

