# 3ds Max Wavefront OBJ Exporter v0.97b - (c)2007 guruware
# File Created: 04.01.2016 12:41:03

mtllib Y613_181C_L.mtl

#
# object Y613_181C_L_DaS_Y613_181C_L
#

v  129.9098 66.8490 -84.4567
v  126.7114 65.0492 -87.2878
v  121.2937 72.8993 -83.3030
v  117.2928 71.8342 -85.9781
v  113.3287 78.3841 -82.3152
v  109.3741 77.6757 -84.8223
v  106.5361 83.0135 -81.3903
v  103.5846 81.7157 -84.0573
v  99.6286 87.5956 -80.4635
v  96.8306 86.1188 -83.0581
v  91.4483 92.1637 -79.3348
v  88.3963 91.1354 -81.8931
v  84.0417 96.0020 -78.4375
v  80.9941 95.2272 -80.9352
v  77.3443 99.3065 -77.6849
v  76.0434 97.7790 -80.3157
v  71.0875 102.1783 -77.0235
v  70.7903 100.1951 -79.6977
v  66.0935 104.0828 -76.6092
v  64.5460 104.6936 -76.4420
v  63.1256 102.7540 -78.9980
v  65.3347 104.7073 -75.8356
v  65.0171 105.2758 -74.7579
v  138.5515 60.1808 -85.6333
v  134.8594 59.1959 -88.2427
v  146.5435 53.6806 -86.8776
v  145.8233 52.8629 -88.0707
v  143.5173 53.6864 -88.3951
v  141.2077 54.6063 -88.8797
v  149.2259 51.4827 -87.3145
v  1.8500 113.2274 -71.3346
v  1.8838 113.8542 -71.5762
v  1.8743 112.7283 -72.6273
v  1.9079 113.3551 -72.8689
v  1.9388 112.7120 -74.5342
v  1.9098 112.1441 -74.1941
v  2.0173 111.5145 -75.9200
v  1.9928 111.0052 -75.4815
v  -111.0943 116.4341 -71.5472
v  -114.0958 116.3504 -71.5581
v  -111.0832 115.8233 -71.2659
v  -114.0798 115.7402 -71.2757
v  -87.4482 116.7401 -71.4311
v  -87.4482 116.1272 -71.1542
v  -64.3239 116.5552 -71.3370
v  -64.3363 115.9388 -71.0683
v  -40.1895 115.8234 -71.4487
v  -40.2115 115.2027 -71.1908
v  -13.6599 114.7107 -71.5416
v  -13.6900 114.0860 -71.2943
v  11.8665 113.2609 -71.7085
v  11.8251 112.6337 -71.4693
v  1.8494 113.2277 -71.3339
v  32.5229 111.5434 -72.0688
v  32.4645 110.9157 -71.8345
v  47.4914 109.6911 -72.6664
v  47.4060 109.0674 -72.4302
v  57.7733 107.8270 -73.0543
v  57.6453 107.2153 -72.8073
v  65.3259 105.6574 -73.6541
v  65.1721 105.0539 -73.4002
# 61 vertices

vn 0.3291 0.5883 -0.7387
vn 0.3251 0.5900 -0.7391
vn 0.3267 0.5994 -0.7308
vn 0.3298 0.6023 -0.7270
vn 0.3378 0.6132 -0.7141
vn 0.3397 0.6214 -0.7060
vn 0.3402 0.6365 -0.6921
vn 0.3368 0.6394 -0.6912
vn 0.3032 0.6546 -0.6925
vn 0.2981 0.6624 -0.6873
vn 0.3046 0.6926 -0.6539
vn 0.3066 0.7040 -0.6406
vn 0.3093 0.7271 -0.6130
vn 0.3090 0.7360 -0.6024
vn 0.2956 0.7523 -0.5888
vn 0.2960 0.7552 -0.5849
vn 0.2630 0.7607 -0.5934
vn 0.2549 0.7561 -0.6028
vn 0.2002 0.7441 -0.6374
vn 0.1944 0.8081 -0.5561
vn 0.1669 0.7396 -0.6520
vn 0.2876 0.8730 -0.3939
vn 0.2292 0.8984 -0.3747
vn 0.3564 0.5904 -0.7242
vn 0.3513 0.5883 -0.7283
vn 0.4025 0.6235 -0.6702
vn 0.3829 0.6114 -0.6925
vn 0.3275 0.5707 -0.7530
vn 0.3733 0.5932 -0.7133
vn 0.4020 0.6239 -0.6702
vn -0.9986 0.0406 -0.0344
vn -0.9986 0.0405 -0.0343
vn -0.9986 0.0397 -0.0358
vn -0.9986 0.0388 -0.0350
vn -0.9986 0.0216 -0.0489
vn -0.9986 0.0207 -0.0489
vn -0.9981 -0.0006 -0.0619
vn -0.9982 -0.0043 -0.0606
vn -0.0103 0.4180 0.9084
vn -0.0146 0.4195 0.9077
vn -0.0103 0.4181 0.9083
vn -0.0146 0.4197 0.9075
vn -0.0050 0.4116 0.9114
vn -0.0050 0.4118 0.9113
vn 0.0083 0.3992 0.9168
vn 0.0083 0.3994 0.9167
vn 0.0179 0.3831 0.9236
vn 0.0179 0.3833 0.9234
vn 0.0201 0.3671 0.9299
vn 0.0201 0.3674 0.9299
vn 0.0419 0.3535 0.9345
vn 0.0266 0.3593 0.9328
vn 0.0419 0.3536 0.9344
vn 0.0267 0.3595 0.9328
vn 0.0596 0.3441 0.9370
vn 0.0596 0.3442 0.9370
vn 0.0866 0.3427 0.9354
vn 0.0865 0.3425 0.9355
vn 0.1300 0.3477 0.9286
vn 0.1291 0.3476 0.9287
vn 0.1716 0.3442 0.9231
vn 0.1716 0.3445 0.9230
# 62 vertex normals

vt 0.6071 0.7868 0.0000
vt 0.6020 0.7914 0.0000
vt 0.5939 0.7785 0.0000
vt 0.5875 0.7820 0.0000
vt 0.5818 0.7709 0.0000
vt 0.5754 0.7737 0.0000
vt 0.5716 0.7639 0.0000
vt 0.5665 0.7677 0.0000
vt 0.5610 0.7567 0.0000
vt 0.5561 0.7608 0.0000
vt 0.5480 0.7491 0.0000
vt 0.5426 0.7528 0.0000
vt 0.5355 0.7429 0.0000
vt 0.5298 0.7468 0.0000
vt 0.5234 0.7377 0.0000
vt 0.5208 0.7430 0.0000
vt 0.5118 0.7333 0.0000
vt 0.5110 0.7393 0.0000
vt 0.5028 0.7302 0.0000
vt 0.5000 0.7291 0.0000
vt 0.4971 0.7347 0.0000
vt 0.5016 0.7284 0.0000
vt 0.5015 0.7262 0.0000
vt 0.6205 0.7958 0.0000
vt 0.6146 0.7992 0.0000
vt 0.6331 0.8045 0.0000
vt 0.6318 0.8065 0.0000
vt 0.6282 0.8059 0.0000
vt 0.6246 0.8052 0.0000
vt 0.6373 0.8076 0.0000
vt 0.4130 0.7207 0.0000
vt 0.4139 0.7207 0.0000
vt 0.4130 0.7227 0.0000
vt 0.4140 0.7226 0.0000
vt 0.4142 0.7250 0.0000
vt 0.4133 0.7253 0.0000
vt 0.4144 0.7274 0.0000
vt 0.4143 0.7281 0.0000
vt 0.2543 0.7169 0.0000
vt 0.2500 0.7167 0.0000
vt 0.2543 0.7159 0.0000
vt 0.2500 0.7158 0.0000
vt 0.2876 0.7177 0.0000
vt 0.2876 0.7167 0.0000
vt 0.3202 0.7185 0.0000
vt 0.3202 0.7175 0.0000
vt 0.3543 0.7195 0.0000
vt 0.3543 0.7185 0.0000
vt 0.3919 0.7205 0.0000
vt 0.3919 0.7195 0.0000
vt 0.4277 0.7209 0.0000
vt 0.4277 0.7199 0.0000
vt 0.4139 0.7197 0.0000
vt 0.4566 0.7220 0.0000
vt 0.4567 0.7210 0.0000
vt 0.4776 0.7234 0.0000
vt 0.4776 0.7225 0.0000
vt 0.4919 0.7245 0.0000
vt 0.4919 0.7236 0.0000
vt 0.5026 0.7260 0.0000
vt 0.5027 0.7251 0.0000
# 61 texture coords

g Y613_181C_L_DaS_Y613_181C_L
usemtl paint_whiteSG
s 3
f 1/1/1 2/2/2 3/3/3 
f 3/3/3 2/2/2 4/4/4 
f 3/3/3 4/4/4 5/5/5 
f 5/5/5 4/4/4 6/6/6 
f 5/5/5 6/6/6 7/7/7 
f 7/7/7 6/6/6 8/8/8 
f 7/7/7 8/8/8 9/9/9 
f 9/9/9 8/8/8 10/10/10 
f 9/9/9 10/10/10 11/11/11 
f 11/11/11 10/10/10 12/12/12 
f 11/11/11 12/12/12 13/13/13 
f 13/13/13 12/12/12 14/14/14 
f 13/13/13 14/14/14 15/15/15 
f 15/15/15 14/14/14 16/16/16 
f 17/17/17 15/15/15 18/18/18 
f 18/18/18 15/15/15 16/16/16 
f 17/17/17 18/18/18 19/19/19 
f 20/20/20 19/19/19 21/21/21 
f 21/21/21 19/19/19 18/18/18 
f 19/19/19 20/20/20 22/22/22 
f 23/23/23 22/22/22 20/20/20 
f 24/24/24 25/25/25 1/1/1 
f 1/1/1 25/25/25 2/2/2 
f 26/26/26 27/27/27 24/24/24 
f 27/27/27 28/28/28 24/24/24 
f 25/25/25 24/24/24 29/29/29 
f 29/29/29 24/24/24 28/28/28 
f 30/30/30 27/27/27 26/26/26 
s 9
f 31/31/31 32/32/32 33/33/33 
f 33/33/33 32/32/32 34/34/34 
f 35/35/35 36/36/36 34/34/34 
f 34/34/34 36/36/36 33/33/33 
f 35/35/35 37/37/37 36/36/36 
f 36/36/36 37/37/37 38/38/38 
s 11
f 39/39/39 40/40/40 41/41/41 
f 41/41/41 40/40/40 42/42/42 
f 43/43/43 39/39/39 44/44/44 
f 44/44/44 39/39/39 41/41/41 
f 45/45/45 43/43/43 46/46/46 
f 46/46/46 43/43/43 44/44/44 
f 47/47/47 45/45/45 48/48/48 
f 48/48/48 45/45/45 46/46/46 
f 49/49/49 47/47/47 50/50/50 
f 50/50/50 47/47/47 48/48/48 
f 51/51/51 32/32/52 52/52/53 
f 52/52/53 32/32/52 53/53/54 
f 32/32/52 49/49/49 53/53/54 
f 53/53/54 49/49/49 50/50/50 
f 54/54/55 51/51/51 55/55/56 
f 55/55/56 51/51/51 52/52/53 
f 56/56/57 54/54/55 57/57/58 
f 57/57/58 54/54/55 55/55/56 
f 58/58/59 56/56/57 59/59/60 
f 59/59/60 56/56/57 57/57/58 
f 58/58/59 59/59/60 60/60/61 
s off
f 60/60/61 59/59/62 61/61/62 
# 56 faces

#
# object Y613_181C_L_DaS_Y613_181C_L_E
#

v  148.9489 51.0201 -86.9124
v  145.5694 52.3873 -87.6695
v  149.2259 51.4827 -87.3145
v  145.8233 52.8629 -88.0707
v  143.2711 53.2346 -87.9648
v  143.5173 53.6864 -88.3951
v  140.9460 54.1914 -88.4194
v  141.2077 54.6063 -88.8797
v  126.4954 64.6280 -86.8102
v  117.0622 71.4285 -85.4937
v  126.7114 65.0492 -87.2878
v  117.2928 71.8342 -85.9781
v  109.3741 77.6757 -84.8223
v  109.1273 77.2718 -84.3406
v  103.5846 81.7157 -84.0573
v  103.3399 81.2620 -83.6303
v  96.5996 85.6296 -82.6592
v  96.8306 86.1188 -83.0581
v  88.3963 91.1354 -81.8931
v  88.1771 90.6697 -81.4610
v  80.9941 95.2272 -80.9352
v  80.7891 94.7727 -80.4838
v  75.8656 97.3064 -79.8725
v  70.6514 99.7045 -79.2595
v  76.0434 97.7790 -80.3157
v  70.7903 100.1951 -79.6977
v  63.1256 102.7540 -78.9980
v  63.0127 102.2561 -78.5603
v  134.8594 59.1959 -88.2427
v  134.5771 58.7913 -87.7102
# 30 vertices

vn -0.0797 -0.6263 -0.7755
vn -0.0946 -0.6164 -0.7817
vn -0.0794 -0.6254 -0.7762
vn -0.0916 -0.6130 -0.7847
vn -0.1301 -0.6457 -0.7524
vn -0.1282 -0.6470 -0.7516
vn -0.2959 -0.6168 -0.7294
vn -0.2945 -0.6205 -0.7268
vn -0.4770 -0.5409 -0.6927
vn -0.4903 -0.5387 -0.6851
vn -0.4775 -0.5411 -0.6922
vn -0.4905 -0.5390 -0.6848
vn -0.4804 -0.5354 -0.6946
vn -0.4788 -0.5339 -0.6970
vn -0.4281 -0.4876 -0.7609
vn -0.4272 -0.4868 -0.7620
vn -0.4004 -0.4606 -0.7922
vn -0.3992 -0.4589 -0.7938
vn -0.3991 -0.5145 -0.7590
vn -0.3997 -0.5161 -0.7575
vn -0.3908 -0.5530 -0.7358
vn -0.3907 -0.5536 -0.7355
vn -0.3630 -0.5609 -0.7440
vn -0.3094 -0.5833 -0.7510
vn -0.3632 -0.5611 -0.7438
vn -0.3088 -0.5836 -0.7511
vn -0.2693 -0.6007 -0.7528
vn -0.2692 -0.6006 -0.7529
vn -0.4783 -0.5567 -0.6792
vn -0.4790 -0.5574 -0.6782
# 30 vertex normals

vt 0.6371 0.8085 0.0000
vt 0.6317 0.8075 0.0000
vt 0.6373 0.8076 0.0000
vt 0.6318 0.8065 0.0000
vt 0.6281 0.8069 0.0000
vt 0.6282 0.8059 0.0000
vt 0.6244 0.8062 0.0000
vt 0.6246 0.8052 0.0000
vt 0.6015 0.7922 0.0000
vt 0.5870 0.7828 0.0000
vt 0.6020 0.7914 0.0000
vt 0.5875 0.7820 0.0000
vt 0.5754 0.7737 0.0000
vt 0.5748 0.7745 0.0000
vt 0.5665 0.7677 0.0000
vt 0.5659 0.7685 0.0000
vt 0.5556 0.7617 0.0000
vt 0.5561 0.7608 0.0000
vt 0.5426 0.7528 0.0000
vt 0.5421 0.7538 0.0000
vt 0.5298 0.7468 0.0000
vt 0.5293 0.7479 0.0000
vt 0.5203 0.7441 0.0000
vt 0.5106 0.7404 0.0000
vt 0.5208 0.7430 0.0000
vt 0.5110 0.7393 0.0000
vt 0.4971 0.7347 0.0000
vt 0.4968 0.7358 0.0000
vt 0.6146 0.7992 0.0000
vt 0.6143 0.8000 0.0000
# 30 texture coords

g Y613_181C_L_DaS_Y613_181C_L_E
usemtl paint_whiteSG
s 1
f 62/62/63 63/63/64 64/64/65 
f 64/64/65 63/63/64 65/65/66 
f 66/66/67 67/67/68 63/63/64 
f 63/63/64 67/67/68 65/65/66 
f 66/66/67 68/68/69 67/67/68 
f 67/67/68 68/68/69 69/69/70 
f 70/70/71 71/71/72 72/72/73 
f 72/72/73 71/71/72 73/73/74 
f 73/73/74 71/71/72 74/74/75 
f 74/74/75 71/71/72 75/75/76 
f 74/74/75 75/75/76 76/76/77 
f 76/76/77 75/75/76 77/77/78 
f 77/77/78 78/78/79 76/76/77 
f 76/76/77 78/78/79 79/79/80 
f 79/79/80 78/78/79 80/80/81 
f 80/80/81 78/78/79 81/81/82 
f 80/80/81 81/81/82 82/82/83 
f 82/82/83 81/81/82 83/83/84 
f 84/84/85 85/85/86 86/86/87 
f 86/86/87 85/85/86 87/87/88 
f 88/88/89 87/87/88 89/89/90 
f 89/89/90 87/87/88 85/85/86 
f 82/82/83 83/83/84 86/86/87 
f 86/86/87 83/83/84 84/84/85 
f 69/69/70 68/68/69 90/90/91 
f 90/90/91 68/68/69 91/91/92 
f 90/90/91 91/91/92 72/72/73 
f 72/72/73 91/91/92 70/70/71 
# 28 faces

