# 3ds Max Wavefront OBJ Exporter v0.97b - (c)2007 guruware
# File Created: 30.11.2015 11:09:30

mtllib LX24_265B_L.mtl

#
# object LX24_265B_L_DTaSI_LX24_265B_L
#

v  90.4506 52.5488 -86.6659
v  86.5850 51.6448 -87.3848
v  78.9825 59.8830 -84.0184
v  76.1210 59.1785 -84.5071
v  66.3384 67.2420 -81.5873
v  61.1754 65.6366 -82.5762
v  16.2523 86.1245 -73.8072
v  15.4979 84.2296 -74.9503
v  5.4008 87.3642 -73.1079
v  5.5841 85.0475 -74.5185
v  25.5668 84.5117 -74.6364
v  24.6315 82.5267 -75.8024
v  73.6688 42.3604 -92.4692
v  83.1385 41.8092 -92.3606
v  74.3864 39.8166 -93.7665
v  84.4117 39.2500 -93.6584
v  96.7064 38.6351 -93.4263
v  94.2723 41.2249 -92.1710
v  98.2661 38.5571 -93.3969
v  62.3178 40.5211 -93.8688
v  50.9063 41.1810 -93.8815
v  61.9147 43.0625 -92.5815
v  50.7611 43.7263 -92.6220
v  53.8867 73.9252 -79.0775
v  48.6713 73.5186 -79.4892
v  42.7712 79.1101 -77.0468
v  38.6437 78.1116 -77.6951
v  33.8671 82.4340 -75.6005
v  31.0514 81.0541 -76.4636
v  107.6947 38.4836 -92.9333
v  102.4864 41.2862 -91.7922
v  106.2396 41.3303 -91.4388
v  102.9170 42.6308 -91.0246
v  61.2745 48.0509 -90.2795
v  50.4362 48.7414 -90.4145
v  60.5329 54.3523 -87.6145
v  49.7888 55.2417 -87.6972
v  100.0234 46.1061 -89.1273
v  98.0313 46.0251 -89.4077
v  90.6760 45.7412 -89.9222
v  98.3308 44.3170 -90.3548
v  70.3166 53.4211 -87.5257
v  77.7207 52.6702 -87.4583
v  72.2622 47.2941 -90.0974
v  80.8570 46.6557 -89.9726
v  58.8721 60.6020 -84.9359
v  66.5996 59.0458 -85.1895
v  72.2145 57.8130 -85.4099
v  49.0052 61.8675 -84.8670
v  47.8417 68.1892 -82.0049
v  35.0321 70.2236 -81.5860
v  29.7789 76.5534 -78.7879
v  38.9221 73.5030 -79.8936
v  20.9319 79.3148 -77.6867
v  18.6893 73.6313 -80.5286
v  14.1774 81.5686 -76.5476
v  6.8073 80.7745 -77.0664
v  -16.6403 88.9497 -72.1193
v  -6.5402 88.3054 -72.5336
v  -12.7570 86.1107 -73.9017
v  -1.6969 85.4749 -74.2745
v  23.6039 42.7310 -93.8501
v  10.5709 43.4470 -93.8413
v  23.1840 45.3272 -92.6517
v  10.0341 46.0402 -92.6731
v  20.8523 64.7941 -84.7256
v  5.7978 65.8118 -84.7150
v  4.1145 74.2223 -80.5704
v  21.7049 57.2443 -87.9036
v  7.5161 58.0467 -87.9870
v  22.5973 50.4094 -90.6929
v  8.9864 51.1304 -90.7971
v  1.4462 80.7956 -77.0889
v  -20.5462 86.5282 -73.6515
v  -21.0742 89.1919 -71.9614
v  -3.6092 44.2131 -93.8556
v  -12.2619 44.6991 -93.8763
v  -4.1412 46.7740 -92.7426
v  -12.7541 47.2253 -92.8077
v  -8.2760 66.4958 -84.7204
v  -16.6023 66.8312 -84.7134
v  -9.9916 74.2750 -80.7638
v  -18.1547 74.5806 -80.7018
v  -6.6243 58.7246 -88.0543
v  -15.0634 59.0864 -88.1010
v  -5.1825 51.8191 -90.8941
v  -13.7215 52.2225 -90.9503
v  -11.6607 81.1151 -76.9787
v  -19.5341 81.4644 -76.8130
v  37.4468 44.5114 -92.6526
v  37.6299 41.9436 -93.8822
v  37.0746 49.5697 -90.5654
v  36.4075 56.2735 -87.7965
v  35.4861 63.4250 -84.8006
# 94 vertices

vn 0.0640 0.4418 -0.8948
vn 0.0554 0.4240 -0.9040
vn 0.0551 0.4150 -0.9082
vn 0.0578 0.4136 -0.9086
vn 0.0500 0.4027 -0.9139
vn 0.0460 0.4127 -0.9097
vn 0.0093 0.5129 -0.8584
vn 0.0106 0.5101 -0.8601
vn 0.0033 0.5207 -0.8537
vn 0.0041 0.5167 -0.8561
vn 0.0169 0.5002 -0.8658
vn 0.0220 0.4855 -0.8740
vn 0.0377 0.4508 -0.8918
vn 0.0404 0.4625 -0.8857
vn 0.0357 0.4624 -0.8860
vn 0.0384 0.4669 -0.8835
vn 0.0400 0.4660 -0.8839
vn 0.0389 0.4679 -0.8829
vn 0.0402 0.4598 -0.8871
vn 0.0320 0.4561 -0.8893
vn 0.0274 0.4454 -0.8949
vn 0.0341 0.4358 -0.8994
vn 0.0292 0.4197 -0.9072
vn 0.0394 0.4200 -0.9067
vn 0.0386 0.4250 -0.9044
vn 0.0354 0.4376 -0.8985
vn 0.0336 0.4424 -0.8962
vn 0.0337 0.4753 -0.8792
vn 0.0244 0.4665 -0.8842
vn 0.0567 0.4651 -0.8834
vn 0.0480 0.4624 -0.8854
vn 0.0794 0.4975 -0.8638
vn 0.0855 0.5151 -0.8529
vn 0.0389 0.4060 -0.9130
vn 0.0343 0.3947 -0.9182
vn 0.0429 0.3982 -0.9163
vn 0.0384 0.3926 -0.9189
vn 0.0994 0.5191 -0.8489
vn 0.0688 0.4710 -0.8794
vn 0.0435 0.4445 -0.8947
vn 0.0407 0.4761 -0.8785
vn 0.0472 0.4037 -0.9137
vn 0.0523 0.4136 -0.9089
vn 0.0424 0.4191 -0.9070
vn 0.0453 0.4314 -0.9010
vn 0.0462 0.4037 -0.9137
vn 0.0511 0.4073 -0.9119
vn 0.0586 0.4170 -0.9070
vn 0.0417 0.4064 -0.9128
vn 0.0410 0.4210 -0.9061
vn 0.0350 0.4289 -0.9027
vn 0.0293 0.4363 -0.8993
vn 0.0362 0.4273 -0.9034
vn 0.0175 0.4615 -0.8870
vn 0.0253 0.4404 -0.8975
vn 0.0108 0.4756 -0.8796
vn 0.0134 0.4781 -0.8782
vn 0.0005 0.5328 -0.8462
vn 0.0010 0.5263 -0.8503
vn 0.0016 0.5275 -0.8495
vn 0.0028 0.5208 -0.8536
vn 0.0233 0.4229 -0.9059
vn 0.0236 0.4152 -0.9094
vn 0.0244 0.3841 -0.9230
vn 0.0238 0.3731 -0.9275
vn 0.0303 0.4149 -0.9093
vn 0.0233 0.4200 -0.9072
vn 0.0185 0.4562 -0.8897
vn 0.0297 0.3860 -0.9220
vn 0.0252 0.3874 -0.9216
vn 0.0279 0.3728 -0.9275
vn 0.0252 0.3680 -0.9295
vn 0.0079 0.4902 -0.8716
vn 0.0009 0.5313 -0.8472
vn -0.0008 0.5356 -0.8444
vn 0.0250 0.4038 -0.9145
vn 0.0271 0.3956 -0.9180
vn 0.0243 0.3661 -0.9303
vn 0.0248 0.3630 -0.9315
vn 0.0182 0.4281 -0.9035
vn 0.0148 0.4353 -0.9002
vn 0.0115 0.4692 -0.8830
vn 0.0090 0.4764 -0.8792
vn 0.0220 0.3914 -0.9200
vn 0.0200 0.3951 -0.9184
vn 0.0237 0.3698 -0.9288
vn 0.0229 0.3740 -0.9271
vn 0.0050 0.5023 -0.8647
vn 0.0032 0.5101 -0.8601
vn 0.0264 0.4017 -0.9154
vn 0.0249 0.4339 -0.9006
vn 0.0311 0.3830 -0.9232
vn 0.0348 0.3875 -0.9212
vn 0.0367 0.4084 -0.9121
# 94 vertex normals

vt 0.0854 0.0830 0.0000
vt 0.0990 0.0789 0.0000
vt 0.1263 0.1098 0.0000
vt 0.1363 0.1067 0.0000
vt 0.1712 0.1363 0.0000
vt 0.1893 0.1295 0.0000
vt 0.3482 0.2070 0.0000
vt 0.3508 0.1992 0.0000
vt 0.3865 0.2119 0.0000
vt 0.3858 0.2023 0.0000
vt 0.3153 0.2007 0.0000
vt 0.3186 0.1926 0.0000
vt 0.1441 0.0409 0.0000
vt 0.1106 0.0398 0.0000
vt 0.1414 0.0308 0.0000
vt 0.1059 0.0297 0.0000
vt 0.0624 0.0288 0.0000
vt 0.0712 0.0388 0.0000
vt 0.0569 0.0287 0.0000
vt 0.1841 0.0324 0.0000
vt 0.2245 0.0340 0.0000
vt 0.1857 0.0424 0.0000
vt 0.2251 0.0441 0.0000
vt 0.2153 0.1609 0.0000
vt 0.2337 0.1589 0.0000
vt 0.2546 0.1802 0.0000
vt 0.2691 0.1759 0.0000
vt 0.2860 0.1928 0.0000
vt 0.2959 0.1870 0.0000
vt 0.0236 0.0297 0.0000
vt 0.0422 0.0401 0.0000
vt 0.0289 0.0410 0.0000
vt 0.0407 0.0455 0.0000
vt 0.1882 0.0618 0.0000
vt 0.2265 0.0634 0.0000
vt 0.1911 0.0859 0.0000
vt 0.2291 0.0883 0.0000
vt 0.0511 0.0594 0.0000
vt 0.0582 0.0585 0.0000
vt 0.0841 0.0564 0.0000
vt 0.0570 0.0517 0.0000
vt 0.1565 0.0835 0.0000
vt 0.1303 0.0816 0.0000
vt 0.1493 0.0602 0.0000
vt 0.1189 0.0587 0.0000
vt 0.1972 0.1098 0.0000
vt 0.1699 0.1048 0.0000
vt 0.1500 0.1008 0.0000
vt 0.2321 0.1137 0.0000
vt 0.2364 0.1381 0.0000
vt 0.2816 0.1449 0.0000
vt 0.3003 0.1691 0.0000
vt 0.2680 0.1580 0.0000
vt 0.3316 0.1794 0.0000
vt 0.3394 0.1570 0.0000
vt 0.3554 0.1882 0.0000
vt 0.3814 0.1848 0.0000
vt 0.4644 0.2182 0.0000
vt 0.4287 0.2157 0.0000
vt 0.4506 0.2064 0.0000
vt 0.4115 0.2040 0.0000
vt 0.3211 0.0382 0.0000
vt 0.3672 0.0402 0.0000
vt 0.3227 0.0483 0.0000
vt 0.3692 0.0502 0.0000
vt 0.3315 0.1225 0.0000
vt 0.3847 0.1254 0.0000
vt 0.3908 0.1585 0.0000
vt 0.3283 0.0936 0.0000
vt 0.3784 0.0957 0.0000
vt 0.3249 0.0675 0.0000
vt 0.3730 0.0693 0.0000
vt 0.4004 0.1847 0.0000
vt 0.4781 0.2081 0.0000
vt 0.4800 0.2192 0.0000
vt 0.4174 0.0423 0.0000
vt 0.4480 0.0436 0.0000
vt 0.4193 0.0521 0.0000
vt 0.4498 0.0533 0.0000
vt 0.4345 0.1273 0.0000
vt 0.4639 0.1282 0.0000
vt 0.4407 0.1581 0.0000
vt 0.4695 0.1591 0.0000
vt 0.4284 0.0975 0.0000
vt 0.4583 0.0984 0.0000
vt 0.4232 0.0711 0.0000
vt 0.4534 0.0721 0.0000
vt 0.4467 0.1857 0.0000
vt 0.4745 0.1870 0.0000
vt 0.2722 0.0461 0.0000
vt 0.2715 0.0360 0.0000
vt 0.2737 0.0654 0.0000
vt 0.2763 0.0910 0.0000
vt 0.2798 0.1183 0.0000
# 94 texture coords

g LX24_265B_L_DTaSI_LX24_265B_L
usemtl windowglass_1SG
s 1
f 1/1/1 2/2/2 3/3/3 
f 3/3/3 2/2/2 4/4/4 
f 3/3/3 4/4/4 5/5/5 
f 5/5/5 4/4/4 6/6/6 
f 7/7/7 8/8/8 9/9/9 
f 9/9/9 8/8/8 10/10/10 
f 11/11/11 12/12/12 7/7/7 
f 7/7/7 12/12/12 8/8/8 
f 13/13/13 14/14/14 15/15/15 
f 15/15/15 14/14/14 16/16/16 
f 17/17/17 18/18/18 19/19/19 
f 20/20/20 21/21/21 22/22/22 
f 22/22/22 21/21/21 23/23/23 
f 24/24/24 25/25/25 26/26/26 
f 26/26/26 25/25/25 27/27/27 
f 5/5/5 6/6/6 24/24/24 
f 24/24/24 6/6/6 25/25/25 
f 28/28/28 29/29/29 11/11/11 
f 26/26/26 27/27/27 28/28/28 
f 28/28/28 27/27/27 29/29/29 
f 30/30/30 19/19/19 31/31/31 
f 31/31/31 19/19/19 18/18/18 
f 30/30/30 31/31/31 32/32/32 
f 32/32/32 31/31/31 33/33/33 
f 22/22/22 23/23/23 34/34/34 
f 34/34/34 23/23/23 35/35/35 
f 34/34/34 35/35/35 36/36/36 
f 36/36/36 35/35/35 37/37/37 
f 32/32/32 33/33/33 38/38/38 
f 38/38/38 33/33/33 39/39/39 
f 38/38/38 39/39/39 1/1/1 
f 1/1/1 39/39/39 2/2/2 
f 2/2/2 39/39/39 40/40/40 
f 40/40/40 39/39/39 41/41/41 
f 39/39/39 33/33/33 41/41/41 
f 41/41/41 33/33/33 31/31/31 
f 31/31/31 18/18/18 41/41/41 
f 41/41/41 18/18/18 40/40/40 
f 42/42/42 43/43/43 44/44/44 
f 44/44/44 43/43/43 45/45/45 
f 44/44/44 45/45/45 13/13/13 
f 13/13/13 45/45/45 14/14/14 
f 46/46/46 6/6/6 47/47/47 
f 48/48/48 6/6/6 4/4/4 
f 48/48/48 4/4/4 43/43/43 
f 43/43/43 42/42/42 48/48/48 
f 48/48/48 42/42/42 47/47/47 
f 46/46/46 49/49/49 6/6/6 
f 6/6/6 49/49/49 50/50/50 
f 49/49/49 46/46/46 37/37/37 
f 37/37/37 46/46/46 36/36/36 
f 51/51/51 52/52/52 53/53/53 
f 52/52/52 27/27/27 53/53/53 
f 53/53/53 27/27/27 25/25/25 
f 50/50/50 25/25/25 6/6/6 
f 52/52/52 29/29/29 27/27/27 
f 54/54/54 55/55/55 56/56/56 
f 56/56/56 55/55/55 57/57/57 
f 57/57/57 10/10/10 56/56/56 
f 56/56/56 10/10/10 8/8/8 
f 56/56/56 8/8/8 54/54/54 
f 54/54/54 8/8/8 12/12/12 
f 58/58/58 59/59/59 60/60/60 
f 60/60/60 59/59/59 61/61/61 
f 10/10/10 61/61/61 9/9/9 
f 9/9/9 61/61/61 59/59/59 
f 62/62/62 63/63/63 64/64/64 
f 64/64/64 63/63/63 65/65/65 
f 66/66/66 67/67/67 55/55/55 
f 55/55/55 67/67/67 68/68/68 
f 69/69/69 70/70/70 66/66/66 
f 66/66/66 70/70/70 67/67/67 
f 71/71/71 72/72/72 69/69/69 
f 69/69/69 72/72/72 70/70/70 
f 64/64/64 65/65/65 71/71/71 
f 71/71/71 65/65/65 72/72/72 
f 61/61/61 10/10/10 73/73/73 
f 73/73/73 10/10/10 57/57/57 
f 73/73/73 57/57/57 68/68/68 
f 68/68/68 57/57/57 55/55/55 
f 60/60/60 74/74/74 58/58/58 
f 58/58/58 74/74/74 75/75/75 
f 76/76/76 77/77/77 78/78/78 
f 78/78/78 77/77/77 79/79/79 
f 80/80/80 81/81/81 82/82/82 
f 82/82/82 81/81/81 83/83/83 
f 84/84/84 85/85/85 80/80/80 
f 80/80/80 85/85/85 81/81/81 
f 86/86/86 87/87/87 84/84/84 
f 84/84/84 87/87/87 85/85/85 
f 78/78/78 79/79/79 86/86/86 
f 86/86/86 79/79/79 87/87/87 
f 88/88/88 89/89/89 60/60/60 
f 60/60/60 89/89/89 74/74/74 
f 82/82/82 83/83/83 88/88/88 
f 88/88/88 83/83/83 89/89/89 
f 60/60/60 61/61/61 88/88/88 
f 88/88/88 61/61/61 73/73/73 
f 88/88/88 73/73/73 82/82/82 
f 82/82/82 73/73/73 68/68/68 
f 82/82/82 68/68/68 80/80/80 
f 80/80/80 68/68/68 67/67/67 
f 80/80/80 67/67/67 84/84/84 
f 84/84/84 67/67/67 70/70/70 
f 84/84/84 70/70/70 86/86/86 
f 86/86/86 70/70/70 72/72/72 
f 86/86/86 72/72/72 78/78/78 
f 78/78/78 72/72/72 65/65/65 
f 78/78/78 65/65/65 76/76/76 
f 76/76/76 65/65/65 63/63/63 
f 64/64/64 90/90/90 62/62/62 
f 62/62/62 90/90/90 91/91/91 
f 71/71/71 92/92/92 64/64/64 
f 64/64/64 92/92/92 90/90/90 
f 69/69/69 93/93/93 71/71/71 
f 71/71/71 93/93/93 92/92/92 
f 66/66/66 94/94/94 69/69/69 
f 69/69/69 94/94/94 93/93/93 
f 94/94/94 66/66/66 51/51/51 
f 51/51/51 66/66/66 55/55/55 
f 51/51/51 55/55/55 52/52/52 
f 52/52/52 55/55/55 54/54/54 
f 29/29/29 52/52/52 12/12/12 
f 12/12/12 52/52/52 54/54/54 
f 11/11/11 29/29/29 12/12/12 
f 21/21/21 91/91/91 23/23/23 
f 23/23/23 91/91/91 90/90/90 
f 23/23/23 90/90/90 35/35/35 
f 35/35/35 90/90/90 92/92/92 
f 35/35/35 92/92/92 37/37/37 
f 37/37/37 92/92/92 93/93/93 
f 94/94/94 49/49/49 93/93/93 
f 93/93/93 49/49/49 37/37/37 
f 49/49/49 94/94/94 50/50/50 
f 50/50/50 94/94/94 51/51/51 
f 51/51/51 53/53/53 50/50/50 
f 50/50/50 53/53/53 25/25/25 
f 22/22/22 13/13/13 20/20/20 
f 20/20/20 13/13/13 15/15/15 
f 34/34/34 44/44/44 22/22/22 
f 22/22/22 44/44/44 13/13/13 
f 36/36/36 42/42/42 34/34/34 
f 34/34/34 42/42/42 44/44/44 
f 42/42/42 36/36/36 47/47/47 
f 47/47/47 36/36/36 46/46/46 
f 14/14/14 18/18/18 16/16/16 
f 16/16/16 18/18/18 17/17/17 
f 45/45/45 40/40/40 14/14/14 
f 14/14/14 40/40/40 18/18/18 
f 43/43/43 2/2/2 45/45/45 
f 45/45/45 2/2/2 40/40/40 
f 43/43/43 4/4/4 2/2/2 
f 47/47/47 6/6/6 48/48/48 
# 153 faces

