# 3ds Max Wavefront OBJ Exporter v0.97b - (c)2007 guruware
# File Created: 30.11.2015 11:08:16

mtllib LX24_181C_R.mtl

#
# object LX24_181C_R_DaS_LX24_181C_R
#

v  103.3089 47.3839 86.3822
v  108.4850 44.0574 87.6380
v  104.7314 47.8827 84.2078
v  109.1365 45.0515 85.1538
v  101.0045 46.8347 88.8267
v  107.4775 42.5201 90.9003
v  102.0801 46.9341 88.0744
v  107.9359 43.2196 89.5955
v  46.3514 82.0146 69.8657
v  36.0203 86.3075 68.1935
v  45.3142 81.9511 71.6428
v  35.7503 85.8192 69.6444
v  91.8853 52.8978 86.4293
v  93.5569 53.5926 84.4221
v  94.7096 54.2444 82.3662
v  96.2207 55.1294 77.8993
v  83.7482 62.5821 76.0364
v  95.5765 54.7719 80.1201
v  83.2398 62.2454 78.1747
v  70.4474 70.0792 73.8845
v  69.9871 69.7932 75.9688
v  69.4698 69.2858 78.0010
v  82.5982 61.7049 80.2796
v  68.8490 68.5291 79.7487
v  81.7454 60.9682 82.1274
v  80.5327 60.1231 83.8109
v  68.0457 67.6309 81.3107
v  106.0297 48.2536 81.8635
v  109.7089 45.9250 82.5672
v  107.2888 48.3616 79.5666
v  110.1909 46.6603 79.8790
v  56.8616 76.5748 73.7365
v  57.3555 76.8260 71.7516
v  56.4133 76.0818 75.6714
v  44.7883 81.4704 73.5384
v  44.3772 80.7079 75.1928
v  55.9292 75.3345 77.3140
v  43.9403 79.6916 76.6370
v  55.4106 74.3165 78.7469
v  35.4237 85.1116 71.8034
v  35.0581 84.2766 73.5327
v  34.6753 83.1915 75.0717
# 42 vertices

vn 0.4019 0.7873 0.4676
vn 0.4081 0.7971 0.4451
vn 0.4302 0.8042 0.4102
vn 0.4308 0.8057 0.4065
vn 0.3349 0.7448 0.5772
vn 0.3466 0.7683 0.5381
vn 0.3679 0.7705 0.5205
vn 0.3729 0.7830 0.4979
vn 0.3613 0.9009 0.2404
vn 0.2542 0.9076 0.3341
vn 0.3392 0.8976 0.2814
vn 0.2516 0.9052 0.3426
vn 0.3545 0.7496 0.5589
vn 0.3794 0.7685 0.5152
vn 0.4253 0.8030 0.4174
vn 0.4689 0.8400 0.2729
vn 0.4608 0.8532 0.2442
vn 0.4576 0.8302 0.3185
vn 0.4488 0.8433 0.2958
vn 0.4362 0.8735 0.2162
vn 0.4241 0.8651 0.2678
vn 0.3871 0.8331 0.3950
vn 0.4112 0.8111 0.4159
vn 0.3330 0.7782 0.5324
vn 0.3542 0.7604 0.5444
vn 0.3227 0.7323 0.5996
vn 0.3050 0.7493 0.5878
vn 0.4567 0.8251 0.3326
vn 0.4518 0.8227 0.3450
vn 0.4656 0.8338 0.2966
vn 0.4558 0.8344 0.3100
vn 0.3895 0.8826 0.2632
vn 0.4050 0.8891 0.2132
vn 0.3513 0.8529 0.3862
vn 0.3036 0.8718 0.3845
vn 0.2506 0.8095 0.5310
vn 0.2908 0.7870 0.5442
vn 0.2209 0.7644 0.6057
vn 0.2572 0.7429 0.6180
vn 0.2356 0.8892 0.3922
vn 0.1894 0.8284 0.5271
vn 0.1659 0.7858 0.5958
# 42 vertex normals

vt 0.7404 0.1990 0.0000
vt 0.7498 0.1921 0.0000
vt 0.7441 0.2025 0.0000
vt 0.7523 0.1967 0.0000
vt 0.7352 0.1952 0.0000
vt 0.7465 0.1858 0.0000
vt 0.7374 0.1963 0.0000
vt 0.7479 0.1884 0.0000
vt 0.6374 0.2694 0.0000
vt 0.6179 0.2749 0.0000
vt 0.6348 0.2665 0.0000
vt 0.6165 0.2720 0.0000
vt 0.7193 0.2065 0.0000
vt 0.7230 0.2101 0.0000
vt 0.7258 0.2138 0.0000
vt 0.7308 0.2216 0.0000
vt 0.7078 0.2342 0.0000
vt 0.7285 0.2177 0.0000
vt 0.7056 0.2305 0.0000
vt 0.6831 0.2486 0.0000
vt 0.6811 0.2450 0.0000
vt 0.6791 0.2414 0.0000
vt 0.7033 0.2268 0.0000
vt 0.6773 0.2380 0.0000
vt 0.7010 0.2232 0.0000
vt 0.6983 0.2199 0.0000
vt 0.6754 0.2348 0.0000
vt 0.7477 0.2061 0.0000
vt 0.7547 0.2014 0.0000
vt 0.7515 0.2095 0.0000
vt 0.7565 0.2060 0.0000
vt 0.6562 0.2576 0.0000
vt 0.6579 0.2612 0.0000
vt 0.6547 0.2540 0.0000
vt 0.6331 0.2632 0.0000
vt 0.6318 0.2599 0.0000
vt 0.6535 0.2507 0.0000
vt 0.6308 0.2566 0.0000
vt 0.6523 0.2474 0.0000
vt 0.6152 0.2683 0.0000
vt 0.6144 0.2655 0.0000
vt 0.6141 0.2621 0.0000
# 42 texture coords

g LX24_181C_R_DaS_LX24_181C_R
usemtl paint_whiteSG
s 4
f 1/1/1 2/2/2 3/3/3 
f 2/2/2 4/4/4 3/3/3 
f 5/5/5 6/6/6 7/7/7 
f 6/6/6 8/8/8 7/7/7 
f 9/9/9 10/10/10 11/11/11 
f 10/10/10 12/12/12 11/11/11 
f 13/13/13 7/7/7 14/14/14 
f 7/7/7 1/1/1 14/14/14 
f 3/3/3 15/15/15 1/1/1 
f 15/15/15 14/14/14 1/1/1 
f 7/7/7 8/8/8 1/1/1 
f 8/8/8 2/2/2 1/1/1 
f 16/16/16 17/17/17 18/18/18 
f 17/17/17 19/19/19 18/18/18 
f 20/20/20 21/21/21 17/17/17 
f 21/21/21 19/19/19 17/17/17 
f 21/21/21 22/22/22 19/19/19 
f 22/22/22 23/23/23 19/19/19 
f 18/18/18 19/19/19 15/15/15 
f 19/19/19 23/23/23 15/15/15 
f 22/22/22 24/24/24 23/23/23 
f 24/24/24 25/25/25 23/23/23 
f 25/25/25 24/24/24 26/26/26 
f 24/24/24 27/27/27 26/26/26 
f 14/14/14 25/25/25 13/13/13 
f 25/25/25 26/26/26 13/13/13 
f 15/15/15 23/23/23 14/14/14 
f 23/23/23 25/25/25 14/14/14 
f 28/28/28 29/29/29 30/30/30 
f 29/29/29 31/31/31 30/30/30 
f 30/30/30 16/16/16 28/28/28 
f 16/16/16 18/18/18 28/28/28 
f 28/28/28 18/18/18 3/3/3 
f 18/18/18 15/15/15 3/3/3 
f 32/32/32 21/21/21 33/33/33 
f 21/21/21 20/20/20 33/33/33 
f 11/11/11 32/32/32 9/9/9 
f 32/32/32 33/33/33 9/9/9 
f 34/34/34 32/32/32 35/35/35 
f 32/32/32 11/11/11 35/35/35 
f 35/35/35 36/36/36 34/34/34 
f 36/36/36 37/37/37 34/34/34 
f 36/36/36 38/38/38 37/37/37 
f 38/38/38 39/39/39 37/37/37 
f 37/37/37 39/39/39 24/24/24 
f 39/39/39 27/27/27 24/24/24 
f 12/12/12 40/40/40 11/11/11 
f 40/40/40 35/35/35 11/11/11 
f 41/41/41 42/42/42 36/36/36 
f 42/42/42 38/38/38 36/36/36 
f 36/36/36 35/35/35 41/41/41 
f 35/35/35 40/40/40 41/41/41 
f 7/7/7 13/13/13 5/5/5 
f 3/3/3 4/4/4 28/28/28 
f 4/4/4 29/29/29 28/28/28 
f 22/22/22 21/21/21 34/34/34 
f 21/21/21 32/32/32 34/34/34 
f 24/24/24 22/22/22 37/37/37 
f 22/22/22 34/34/34 37/37/37 
# 59 faces

#
# object LX24_181C_R_DaS_LX24_181C_R_E
#

v  110.1909 46.6603 79.8790
v  110.0642 46.3774 79.9730
v  109.2972 45.2968 79.4541
v  109.2118 45.2587 79.8192
v  107.9359 43.2196 89.5955
v  107.4775 42.5201 90.9003
v  107.7989 42.9231 89.4038
v  107.3491 42.2293 90.6932
v  108.4850 44.0574 87.6380
v  108.3362 43.7546 87.4659
v  109.1365 45.0515 85.1538
v  108.9799 44.7452 84.9965
v  109.7089 45.9250 82.5672
v  109.5443 45.6127 82.4329
v  107.2888 48.3616 79.5666
v  107.3602 46.4873 79.1669
v  46.3514 82.0146 69.8657
v  57.3555 76.8260 71.7516
v  46.4193 81.7450 69.6667
v  57.4038 76.2733 71.4969
v  70.4952 69.1827 73.5792
v  70.4474 70.0792 73.8845
v  83.7482 62.5821 76.0364
v  83.7967 61.3384 75.6213
v  96.2207 55.1294 77.8993
v  96.2744 53.5577 77.5271
v  36.0203 86.3075 68.1935
v  35.9567 86.0562 67.7759
# 28 vertices

vn 0.9023 -0.4260 -0.0658
vn 0.8863 -0.4511 -0.1046
vn 0.7918 -0.6044 0.0884
vn 0.7818 -0.6120 0.1191
vn 0.8897 -0.4521 0.0630
vn 0.8919 -0.4467 0.0712
vn 0.8898 -0.4520 0.0626
vn 0.8925 -0.4452 0.0718
vn 0.8859 -0.4614 0.0479
vn 0.8854 -0.4625 0.0470
vn 0.8818 -0.4701 0.0389
vn 0.8814 -0.4707 0.0384
vn 0.8796 -0.4745 0.0353
vn 0.8779 -0.4775 0.0344
vn 0.2580 0.2116 -0.9427
vn 0.2303 0.1729 -0.9576
vn 0.2429 0.1986 -0.9495
vn 0.2328 0.1469 -0.9614
vn 0.3873 0.6110 -0.6904
vn 0.3496 0.4187 -0.8381
vn 0.3933 0.6056 -0.6918
vn 0.3495 0.4153 -0.8399
vn 0.3214 0.3203 -0.8911
vn 0.3194 0.3219 -0.8913
vn 0.3205 0.3113 -0.8947
vn 0.3190 0.3087 -0.8961
vn 0.2850 0.2322 -0.9300
vn 0.2822 0.2293 -0.9315
vn 0.3985 0.7578 -0.5167
vn 0.3983 0.7554 -0.5203
# 30 vertex normals

vt 0.7565 0.2060 0.0000
vt 0.7571 0.2061 0.0000
vt 0.7585 0.2084 0.0000
vt 0.7590 0.2079 0.0000
vt 0.7479 0.1884 0.0000
vt 0.7465 0.1858 0.0000
vt 0.7485 0.1881 0.0000
vt 0.7471 0.1855 0.0000
vt 0.7498 0.1921 0.0000
vt 0.7504 0.1917 0.0000
vt 0.7523 0.1967 0.0000
vt 0.7529 0.1964 0.0000
vt 0.7547 0.2014 0.0000
vt 0.7553 0.2012 0.0000
vt 0.7515 0.2095 0.0000
vt 0.7548 0.2112 0.0000
vt 0.6374 0.2694 0.0000
vt 0.6579 0.2612 0.0000
vt 0.6379 0.2699 0.0000
vt 0.6587 0.2619 0.0000
vt 0.6846 0.2497 0.0000
vt 0.6831 0.2486 0.0000
vt 0.7078 0.2342 0.0000
vt 0.7099 0.2355 0.0000
vt 0.7308 0.2216 0.0000
vt 0.7334 0.2232 0.0000
vt 0.6179 0.2749 0.0000
vt 0.6183 0.2748 0.0000
# 28 texture coords

g LX24_181C_R_DaS_LX24_181C_R_E
usemtl paint_whiteSG
s 1
f 43/43/43 44/44/44 45/45/45 
f 44/44/44 46/46/46 45/45/45 
f 47/47/47 48/48/48 49/49/49 
f 48/48/48 50/50/50 49/49/49 
f 51/51/51 52/52/52 53/53/53 
f 52/52/52 54/54/54 53/53/53 
f 43/43/43 55/55/55 44/44/44 
f 55/55/55 56/56/56 44/44/44 
f 53/53/53 54/54/54 55/55/55 
f 54/54/54 56/56/56 55/55/55 
f 47/47/47 49/49/49 51/51/51 
f 49/49/49 52/52/52 51/51/51 
s 6
f 57/57/57 43/43/58 58/58/59 
f 43/43/58 45/45/60 58/58/59 
f 59/59/61 60/60/62 61/61/63 
f 60/60/62 62/62/64 61/61/63 
f 63/63/65 62/62/64 64/64/66 
f 62/62/64 60/60/62 64/64/66 
f 64/64/66 65/65/67 63/63/65 
f 65/65/67 66/66/68 63/63/65 
f 65/65/67 67/67/69 66/66/68 
f 67/67/69 68/68/70 66/66/68 
f 58/58/59 68/68/70 57/57/57 
f 68/68/70 67/67/69 57/57/57 
f 69/69/71 59/59/61 70/70/72 
f 70/70/72 59/59/61 61/61/63 
# 26 faces

