# 3ds Max Wavefront OBJ Exporter v0.97b - (c)2007 guruware
# File Created: 30.11.2015 11:10:39

mtllib LX24_305B_L.mtl

#
# object LX24_305B_L_DTaSI_LX24_305B_L
#

v  -108.2041 75.4181 -81.1464
v  -111.7960 74.3353 -81.8133
v  -110.7991 77.0344 -80.2122
v  -112.0935 76.5410 -80.5142
v  -34.7583 89.5012 -71.8860
v  -32.2757 89.5037 -71.8481
v  -34.1905 87.0977 -73.4153
v  -32.0167 86.9976 -73.4500
v  -102.7133 81.2919 -77.7040
v  -93.7404 83.9026 -76.0561
v  -101.4899 80.7162 -78.0768
v  -100.2716 79.5883 -78.7733
v  -91.0020 82.5595 -76.9434
v  -111.8391 77.9666 -79.6675
v  -38.2911 48.3047 -92.8941
v  -27.9774 47.9087 -92.8851
v  -38.0660 45.8323 -93.8763
v  -27.7213 45.4308 -93.8925
v  -49.9578 86.8346 -73.7328
v  -61.6420 86.1145 -74.2286
v  -51.8467 89.1292 -72.2743
v  -63.1711 88.4684 -72.6692
v  -74.5710 87.4289 -73.3746
v  -73.5397 85.3687 -74.7911
v  -72.3910 49.5184 -92.9282
v  -60.5155 49.1060 -92.9110
v  -72.2435 47.0539 -93.9004
v  -60.3460 46.6377 -93.8758
v  -107.4547 50.6127 -93.1342
v  -96.0549 50.2640 -93.0453
v  -107.3095 48.1850 -94.1160
v  -95.9146 47.8236 -94.0228
v  -82.6701 47.3949 -93.9469
v  -82.8126 49.8490 -92.9728
v  -108.2738 48.2194 -94.1284
v  -108.6019 50.6521 -93.1479
v  -40.0808 67.5777 -84.7405
v  -29.9821 67.3086 -84.7126
v  -39.3492 59.8539 -88.2354
v  -29.1836 59.5818 -88.1862
v  -61.9951 67.9859 -84.8591
v  -73.7072 68.2419 -84.8842
v  -62.6770 76.4991 -80.2802
v  -74.5568 76.3023 -80.5903
v  -73.0649 60.7113 -88.3782
v  -61.2989 60.4138 -88.3305
v  -97.3205 75.2268 -81.2657
v  -97.1052 68.4476 -84.9879
v  -108.4725 68.3127 -85.1693
v  -83.9911 68.3829 -84.9015
v  -85.1606 75.6664 -80.9982
v  -83.4598 60.9587 -88.4244
v  -96.6847 61.2227 -88.5163
v  -108.0965 61.3661 -88.6508
v  -84.6330 85.9406 -74.5509
v  -83.0578 84.3724 -75.6217
v  -107.7256 55.1756 -91.2896
v  -109.2165 55.2091 -91.3117
v  -110.0423 61.3316 -88.7142
v  -96.3181 54.8728 -91.2004
v  -83.0821 54.5053 -91.1278
v  -72.6716 54.2097 -91.0834
v  -60.8421 53.8494 -91.0609
v  -38.7328 53.1556 -91.0316
v  -28.4844 52.8149 -91.0175
v  -40.9898 87.3593 -73.3316
v  -45.3909 82.5818 -76.4172
v  -39.5458 82.6064 -76.2871
v  -33.7355 82.6707 -76.2251
v  -41.1533 76.4576 -80.0058
v  -30.8181 75.3978 -80.4417
v  -63.1546 82.5024 -76.6366
v  -72.5244 82.3020 -76.8722
v  -53.9269 82.6043 -76.4767
v  -80.7459 82.2291 -77.0656
v  -89.3021 80.8849 -77.9841
v  -110.9458 68.0308 -85.3722
v  -42.1848 89.4530 -72.0139
v  -31.5322 82.3086 -76.4210
v  -112.2628 77.7958 -79.7720
v  -52.1563 76.5899 -80.0659
v  -51.4688 67.7664 -84.8258
v  -50.7339 60.1460 -88.2868
v  -50.2139 53.5226 -91.0426
v  -49.8417 48.7309 -92.8978
v  -49.6502 46.2597 -93.8607
# 86 vertices

vn 0.0043 0.4931 -0.8699
vn 0.0122 0.4953 -0.8687
vn 0.0020 0.5048 -0.8632
vn 0.0070 0.5086 -0.8610
vn 0.0109 0.5384 -0.8426
vn 0.0120 0.5391 -0.8422
vn 0.0088 0.5354 -0.8445
vn 0.0116 0.5374 -0.8432
vn -0.0091 0.5274 -0.8496
vn -0.0024 0.5464 -0.8375
vn -0.0054 0.5239 -0.8517
vn -0.0004 0.5046 -0.8634
vn 0.0045 0.5450 -0.8384
vn 0.0020 0.5062 -0.8624
vn 0.0136 0.3627 -0.9318
vn 0.0141 0.3644 -0.9311
vn 0.0136 0.3708 -0.9286
vn 0.0132 0.3778 -0.9258
vn 0.0049 0.5395 -0.8420
vn 0.0039 0.5511 -0.8344
vn 0.0026 0.5395 -0.8420
vn 0.0015 0.5539 -0.8326
vn 0.0060 0.5687 -0.8225
vn 0.0067 0.5650 -0.8250
vn 0.0146 0.3668 -0.9302
vn 0.0138 0.3643 -0.9312
vn 0.0151 0.3675 -0.9299
vn 0.0143 0.3648 -0.9310
vn 0.0185 0.3752 -0.9267
vn 0.0173 0.3723 -0.9279
vn 0.0193 0.3754 -0.9266
vn 0.0180 0.3725 -0.9279
vn 0.0166 0.3696 -0.9291
vn 0.0161 0.3692 -0.9292
vn 0.0249 0.3762 -0.9262
vn 0.0237 0.3761 -0.9263
vn 0.0138 0.4447 -0.8956
vn 0.0148 0.4393 -0.8982
vn 0.0143 0.4005 -0.9162
vn 0.0149 0.3991 -0.9168
vn 0.0126 0.4489 -0.8935
vn 0.0113 0.4493 -0.8933
vn 0.0127 0.4922 -0.8704
vn 0.0117 0.4922 -0.8704
vn 0.0135 0.4047 -0.9144
vn 0.0135 0.4022 -0.9154
vn 0.0009 0.4880 -0.8729
vn 0.0072 0.4612 -0.8873
vn 0.0103 0.4715 -0.8818
vn 0.0089 0.4524 -0.8918
vn 0.0045 0.4859 -0.8740
vn 0.0135 0.4094 -0.9123
vn 0.0142 0.4161 -0.9092
vn 0.0148 0.4223 -0.9063
vn 0.0090 0.5694 -0.8220
vn 0.0081 0.5655 -0.8247
vn 0.0174 0.3855 -0.9225
vn 0.0225 0.3869 -0.9218
vn 0.0220 0.4243 -0.9053
vn 0.0163 0.3826 -0.9238
vn 0.0152 0.3795 -0.9251
vn 0.0141 0.3774 -0.9259
vn 0.0134 0.3763 -0.9264
vn 0.0136 0.3753 -0.9268
vn 0.0141 0.3738 -0.9274
vn 0.0099 0.5345 -0.8451
vn 0.0103 0.5226 -0.8525
vn 0.0101 0.5231 -0.8522
vn 0.0099 0.5172 -0.8558
vn 0.0122 0.4875 -0.8731
vn 0.0137 0.4831 -0.8755
vn 0.0094 0.5320 -0.8467
vn 0.0116 0.5366 -0.8438
vn 0.0075 0.5275 -0.8495
vn 0.0109 0.5344 -0.8452
vn 0.0043 0.5117 -0.8591
vn 0.0187 0.4706 -0.8822
vn 0.0076 0.5364 -0.8439
vn 0.0082 0.5142 -0.8576
vn 0.0067 0.5098 -0.8603
vn 0.0115 0.4908 -0.8712
vn 0.0129 0.4477 -0.8941
vn 0.0140 0.4009 -0.9160
vn 0.0134 0.3757 -0.9266
vn 0.0135 0.3624 -0.9319
vn 0.0138 0.3644 -0.9311
# 86 vertex normals

vt 0.7771 0.1650 0.0000
vt 0.7899 0.1606 0.0000
vt 0.7863 0.1717 0.0000
vt 0.7909 0.1697 0.0000
vt 0.5162 0.2227 0.0000
vt 0.5074 0.2228 0.0000
vt 0.5143 0.2126 0.0000
vt 0.5066 0.2122 0.0000
vt 0.7574 0.1890 0.0000
vt 0.7255 0.1997 0.0000
vt 0.7531 0.1866 0.0000
vt 0.7488 0.1818 0.0000
vt 0.7159 0.1939 0.0000
vt 0.7899 0.1756 0.0000
vt 0.5298 0.0584 0.0000
vt 0.4933 0.0569 0.0000
vt 0.5291 0.0490 0.0000
vt 0.4924 0.0474 0.0000
vt 0.5702 0.2117 0.0000
vt 0.6117 0.2089 0.0000
vt 0.5768 0.2213 0.0000
vt 0.6170 0.2189 0.0000
vt 0.6574 0.2148 0.0000
vt 0.6539 0.2059 0.0000
vt 0.6508 0.0631 0.0000
vt 0.6087 0.0615 0.0000
vt 0.6503 0.0537 0.0000
vt 0.6081 0.0521 0.0000
vt 0.7752 0.0672 0.0000
vt 0.7347 0.0659 0.0000
vt 0.7747 0.0579 0.0000
vt 0.7343 0.0566 0.0000
vt 0.6873 0.0550 0.0000
vt 0.6878 0.0643 0.0000
vt 0.7782 0.0580 0.0000
vt 0.7793 0.0673 0.0000
vt 0.5358 0.1327 0.0000
vt 0.4999 0.1317 0.0000
vt 0.5334 0.1026 0.0000
vt 0.4973 0.1016 0.0000
vt 0.6135 0.1343 0.0000
vt 0.6550 0.1354 0.0000
vt 0.6156 0.1686 0.0000
vt 0.6578 0.1678 0.0000
vt 0.6529 0.1059 0.0000
vt 0.6112 0.1048 0.0000
vt 0.7385 0.1639 0.0000
vt 0.7380 0.1365 0.0000
vt 0.7783 0.1361 0.0000
vt 0.6915 0.1361 0.0000
vt 0.6954 0.1654 0.0000
vt 0.6898 0.1069 0.0000
vt 0.7367 0.1080 0.0000
vt 0.7772 0.1085 0.0000
vt 0.6932 0.2084 0.0000
vt 0.6877 0.2016 0.0000
vt 0.7760 0.0846 0.0000
vt 0.7813 0.0848 0.0000
vt 0.7841 0.1084 0.0000
vt 0.7356 0.0835 0.0000
vt 0.6886 0.0821 0.0000
vt 0.6517 0.0810 0.0000
vt 0.6097 0.0795 0.0000
vt 0.5313 0.0769 0.0000
vt 0.4950 0.0756 0.0000
vt 0.5384 0.2137 0.0000
vt 0.5542 0.1937 0.0000
vt 0.5334 0.1939 0.0000
vt 0.5128 0.1940 0.0000
vt 0.5393 0.1684 0.0000
vt 0.5027 0.1641 0.0000
vt 0.6171 0.1935 0.0000
vt 0.6504 0.1928 0.0000
vt 0.5844 0.1939 0.0000
vt 0.6795 0.1924 0.0000
vt 0.7099 0.1869 0.0000
vt 0.7871 0.1349 0.0000
vt 0.5426 0.2225 0.0000
vt 0.5050 0.1925 0.0000
vt 0.7914 0.1749 0.0000
vt 0.5783 0.1690 0.0000
vt 0.5761 0.1334 0.0000
vt 0.5737 0.1037 0.0000
vt 0.5720 0.0783 0.0000
vt 0.5708 0.0601 0.0000
vt 0.5702 0.0506 0.0000
# 86 texture coords

g LX24_305B_L_DTaSI_LX24_305B_L
usemtl windowglass_1SG
s 1
f 1/1/1 2/2/2 3/3/3 
f 3/3/3 2/2/2 4/4/4 
f 5/5/5 6/6/6 7/7/7 
f 7/7/7 6/6/6 8/8/8 
f 9/9/9 10/10/10 11/11/11 
f 11/11/11 10/10/10 12/12/12 
f 12/12/12 10/10/10 13/13/13 
f 14/14/14 9/9/9 3/3/3 
f 3/3/3 9/9/9 11/11/11 
f 3/3/3 11/11/11 1/1/1 
f 1/1/1 11/11/11 12/12/12 
f 15/15/15 16/16/16 17/17/17 
f 17/17/17 16/16/16 18/18/18 
f 19/19/19 20/20/20 21/21/21 
f 21/21/21 20/20/20 22/22/22 
f 23/23/23 22/22/22 24/24/24 
f 24/24/24 22/22/22 20/20/20 
f 25/25/25 26/26/26 27/27/27 
f 27/27/27 26/26/26 28/28/28 
f 29/29/29 30/30/30 31/31/31 
f 31/31/31 30/30/30 32/32/32 
f 33/33/33 32/32/32 34/34/34 
f 34/34/34 32/32/32 30/30/30 
f 31/31/31 35/35/35 29/29/29 
f 29/29/29 35/35/35 36/36/36 
f 37/37/37 38/38/38 39/39/39 
f 39/39/39 38/38/38 40/40/40 
f 41/41/41 42/42/42 43/43/43 
f 43/43/43 42/42/42 44/44/44 
f 42/42/42 41/41/41 45/45/45 
f 45/45/45 41/41/41 46/46/46 
f 47/47/47 48/48/48 1/1/1 
f 1/1/1 48/48/48 49/49/49 
f 50/50/50 48/48/48 51/51/51 
f 51/51/51 48/48/48 47/47/47 
f 52/52/52 53/53/53 50/50/50 
f 50/50/50 53/53/53 48/48/48 
f 49/49/49 48/48/48 54/54/54 
f 54/54/54 48/48/48 53/53/53 
f 55/55/55 23/23/23 56/56/56 
f 56/56/56 23/23/23 24/24/24 
f 10/10/10 55/55/55 13/13/13 
f 13/13/13 55/55/55 56/56/56 
f 57/57/57 58/58/58 54/54/54 
f 54/54/54 58/58/58 59/59/59 
f 29/29/29 36/36/36 57/57/57 
f 57/57/57 36/36/36 58/58/58 
f 54/54/54 53/53/53 57/57/57 
f 57/57/57 53/53/53 60/60/60 
f 61/61/61 60/60/60 52/52/52 
f 52/52/52 60/60/60 53/53/53 
f 34/34/34 30/30/30 61/61/61 
f 61/61/61 30/30/30 60/60/60 
f 57/57/57 60/60/60 29/29/29 
f 29/29/29 60/60/60 30/30/30 
f 45/45/45 46/46/46 62/62/62 
f 62/62/62 46/46/46 63/63/63 
f 62/62/62 63/63/63 25/25/25 
f 25/25/25 63/63/63 26/26/26 
f 39/39/39 40/40/40 64/64/64 
f 64/64/64 40/40/40 65/65/65 
f 64/64/64 65/65/65 15/15/15 
f 15/15/15 65/65/65 16/16/16 
f 19/19/19 66/66/66 67/67/67 
f 67/67/67 66/66/66 68/68/68 
f 66/66/66 7/7/7 68/68/68 
f 68/68/68 7/7/7 69/69/69 
f 68/68/68 69/69/69 70/70/70 
f 70/70/70 69/69/69 71/71/71 
f 67/67/67 68/68/68 70/70/70 
f 20/20/20 72/72/72 73/73/73 
f 20/20/20 73/73/73 24/24/24 
f 20/20/20 19/19/19 74/74/74 
f 72/72/72 43/43/43 73/73/73 
f 73/73/73 43/43/43 44/44/44 
f 75/75/75 76/76/76 56/56/56 
f 56/56/56 76/76/76 13/13/13 
f 56/56/56 24/24/24 75/75/75 
f 75/75/75 24/24/24 73/73/73 
f 73/73/73 44/44/44 75/75/75 
f 75/75/75 44/44/44 76/76/76 
f 76/76/76 47/47/47 12/12/12 
f 12/12/12 13/13/13 76/76/76 
f 47/47/47 76/76/76 51/51/51 
f 77/77/77 2/2/2 49/49/49 
f 49/49/49 2/2/2 1/1/1 
f 59/59/59 77/77/77 54/54/54 
f 54/54/54 77/77/77 49/49/49 
f 78/78/78 5/5/5 66/66/66 
f 66/66/66 5/5/5 7/7/7 
f 21/21/21 78/78/78 19/19/19 
f 19/19/19 78/78/78 66/66/66 
f 38/38/38 37/37/37 71/71/71 
f 71/71/71 37/37/37 70/70/70 
f 79/79/79 69/69/69 8/8/8 
f 8/8/8 69/69/69 7/7/7 
f 79/79/79 71/71/71 69/69/69 
f 47/47/47 1/1/1 12/12/12 
f 80/80/80 14/14/14 4/4/4 
f 4/4/4 14/14/14 3/3/3 
f 74/74/74 19/19/19 67/67/67 
f 74/74/74 67/67/67 81/81/81 
f 81/81/81 67/67/67 70/70/70 
f 81/81/81 70/70/70 82/82/82 
f 82/82/82 70/70/70 37/37/37 
f 39/39/39 83/83/83 37/37/37 
f 37/37/37 83/83/83 82/82/82 
f 64/64/64 84/84/84 39/39/39 
f 39/39/39 84/84/84 83/83/83 
f 15/15/15 85/85/85 64/64/64 
f 64/64/64 85/85/85 84/84/84 
f 17/17/17 86/86/86 15/15/15 
f 15/15/15 86/86/86 85/85/85 
f 81/81/81 43/43/43 74/74/74 
f 74/74/74 43/43/43 72/72/72 
f 82/82/82 41/41/41 81/81/81 
f 81/81/81 41/41/41 43/43/43 
f 41/41/41 82/82/82 46/46/46 
f 46/46/46 82/82/82 83/83/83 
f 46/46/46 83/83/83 63/63/63 
f 63/63/63 83/83/83 84/84/84 
f 63/63/63 84/84/84 26/26/26 
f 26/26/26 84/84/84 85/85/85 
f 26/26/26 85/85/85 28/28/28 
f 28/28/28 85/85/85 86/86/86 
f 42/42/42 50/50/50 44/44/44 
f 44/44/44 50/50/50 51/51/51 
f 45/45/45 52/52/52 42/42/42 
f 42/42/42 52/52/52 50/50/50 
f 62/62/62 61/61/61 45/45/45 
f 45/45/45 61/61/61 52/52/52 
f 25/25/25 34/34/34 62/62/62 
f 62/62/62 34/34/34 61/61/61 
f 27/27/27 33/33/33 25/25/25 
f 25/25/25 33/33/33 34/34/34 
f 51/51/51 76/76/76 44/44/44 
f 74/74/74 72/72/72 20/20/20 
# 137 faces

