# 3ds Max Wavefront OBJ Exporter v0.97b - (c)2007 guruware
# File Created: 30.11.2015 11:06:05

mtllib LX24_18A5_R.mtl

#
# object LX24_18A5_R_DaS_LX24_18A5_R
#

v  -51.8263 92.7225 67.6870
v  -52.1312 93.5533 65.2853
v  -64.4214 92.0285 68.1565
v  -64.5716 92.4816 66.9713
v  -64.6734 92.8570 65.7194
v  -52.3575 94.0759 62.9423
v  -64.9104 93.3775 63.3406
v  -64.1665 91.5025 69.2088
v  -51.5034 91.5810 69.7366
v  -63.8759 90.9174 70.1509
v  -63.4125 89.4390 71.8516
v  -51.1772 90.0634 71.5270
v  -39.4826 94.4544 62.5844
v  -39.3152 93.9275 64.8960
v  -25.4985 94.3126 62.5825
v  -25.4047 93.7951 64.8313
v  -39.0908 93.0816 67.2905
v  -25.2839 92.9538 67.1811
v  -38.8577 91.9096 69.3892
v  -38.6251 90.3811 71.2654
v  -25.1702 91.7737 69.3019
v  -25.0643 90.2290 71.2424
v  26.8866 88.2324 68.6594
v  26.4215 88.8417 66.8027
v  17.1047 90.1182 67.4829
v  17.1916 90.5600 65.6029
v  4.9815 92.1624 64.3039
v  4.8829 91.7165 66.3013
v  4.7367 90.9674 68.3923
v  16.8948 89.4174 69.4251
v  -9.9863 93.0059 65.3427
v  -10.0025 92.2016 67.5848
v  4.5408 89.8810 70.4031
v  16.6164 88.4130 71.3093
v  4.3172 88.4288 72.3334
v  16.3122 87.0587 73.1312
v  26.4410 86.6132 72.3394
v  26.0992 85.4175 74.0185
v  26.7636 87.5307 70.5597
v  -10.0502 91.0522 69.6783
v  -10.1174 89.5336 71.6443
v  36.0203 86.3075 68.1935
v  35.7503 85.8192 69.6444
v  35.4237 85.1116 71.8034
v  35.0581 84.2766 73.5327
v  -9.9843 93.4914 63.2074
v  34.6753 83.1915 75.0717
# 47 vertices

vn -0.0233 0.9134 0.4063
vn -0.0313 0.9606 0.2763
vn -0.0504 0.9103 0.4109
vn -0.0565 0.9432 0.3273
vn -0.0637 0.9676 0.2444
vn -0.0348 0.9748 0.2205
vn -0.0576 0.9744 0.2175
vn -0.0446 0.8646 0.5004
vn -0.0146 0.8209 0.5708
vn -0.0332 0.7799 0.6251
vn -0.0299 0.7503 0.6604
vn -0.0114 0.7626 0.6468
vn -0.0058 0.9749 0.2224
vn -0.0038 0.9602 0.2794
vn 0.0266 0.9745 0.2230
vn 0.0261 0.9594 0.2809
vn -0.0003 0.9128 0.4085
vn 0.0234 0.9120 0.4094
vn 0.0026 0.8279 0.5608
vn 0.0034 0.7759 0.6308
vn 0.0190 0.8317 0.5550
vn 0.0164 0.7832 0.6216
vn 0.1784 0.9336 0.3107
vn 0.1723 0.9487 0.2652
vn 0.1172 0.9486 0.2941
vn 0.1218 0.9651 0.2317
vn 0.0846 0.9716 0.2211
vn 0.0793 0.9557 0.2836
vn 0.0657 0.9091 0.4114
vn 0.1001 0.9043 0.4150
vn 0.0522 0.9581 0.2816
vn 0.0436 0.9110 0.4100
vn 0.0493 0.8377 0.5439
vn 0.0770 0.8363 0.5428
vn 0.0410 0.7963 0.6036
vn 0.0651 0.7962 0.6015
vn 0.1233 0.8367 0.5335
vn 0.1066 0.7995 0.5911
vn 0.1577 0.8976 0.4116
vn 0.0326 0.8354 0.5487
vn 0.0267 0.7910 0.6112
vn 0.2542 0.9076 0.3341
vn 0.2516 0.9052 0.3426
vn 0.2356 0.8892 0.3922
vn 0.1894 0.8284 0.5271
vn 0.0555 0.9736 0.2215
vn 0.1659 0.7858 0.5958
# 47 vertex normals

vt 0.4544 0.2825 0.0000
vt 0.4538 0.2872 0.0000
vt 0.4312 0.2815 0.0000
vt 0.4310 0.2838 0.0000
vt 0.4308 0.2862 0.0000
vt 0.4534 0.2916 0.0000
vt 0.4304 0.2906 0.0000
vt 0.4317 0.2793 0.0000
vt 0.4549 0.2782 0.0000
vt 0.4322 0.2773 0.0000
vt 0.4329 0.2731 0.0000
vt 0.4554 0.2739 0.0000
vt 0.4771 0.2922 0.0000
vt 0.4774 0.2879 0.0000
vt 0.5027 0.2919 0.0000
vt 0.5028 0.2877 0.0000
vt 0.4777 0.2833 0.0000
vt 0.5030 0.2832 0.0000
vt 0.4781 0.2789 0.0000
vt 0.4785 0.2744 0.0000
vt 0.5032 0.2787 0.0000
vt 0.5034 0.2742 0.0000
vt 0.5989 0.2765 0.0000
vt 0.5983 0.2801 0.0000
vt 0.5809 0.2806 0.0000
vt 0.5813 0.2841 0.0000
vt 0.5587 0.2877 0.0000
vt 0.5585 0.2839 0.0000
vt 0.5582 0.2799 0.0000
vt 0.5805 0.2768 0.0000
vt 0.5311 0.2863 0.0000
vt 0.5311 0.2819 0.0000
vt 0.5578 0.2757 0.0000
vt 0.5799 0.2729 0.0000
vt 0.5575 0.2713 0.0000
vt 0.5793 0.2688 0.0000
vt 0.5979 0.2692 0.0000
vt 0.5972 0.2654 0.0000
vt 0.5986 0.2728 0.0000
vt 0.5310 0.2776 0.0000
vt 0.5310 0.2730 0.0000
vt 0.6162 0.2752 0.0000
vt 0.6154 0.2725 0.0000
vt 0.6146 0.2684 0.0000
vt 0.6138 0.2649 0.0000
vt 0.5311 0.2903 0.0000
vt 0.6132 0.2615 0.0000
# 47 texture coords

g LX24_18A5_R_DaS_LX24_18A5_R
usemtl paint_whiteSG
s 1
f 1/1/1 2/2/2 3/3/3 
f 3/3/3 2/2/2 4/4/4 
f 4/4/4 2/2/2 5/5/5 
f 2/2/2 6/6/6 5/5/5 
f 6/6/6 7/7/7 5/5/5 
f 3/3/3 8/8/8 1/1/1 
f 1/1/1 8/8/8 9/9/9 
f 9/9/9 8/8/8 10/10/10 
f 10/10/10 11/11/11 9/9/9 
f 11/11/11 12/12/12 9/9/9 
f 13/13/13 14/14/14 15/15/15 
f 14/14/14 16/16/16 15/15/15 
f 6/6/6 2/2/2 13/13/13 
f 2/2/2 14/14/14 13/13/13 
f 2/2/2 1/1/1 14/14/14 
f 1/1/1 17/17/17 14/14/14 
f 14/14/14 17/17/17 16/16/16 
f 17/17/17 18/18/18 16/16/16 
f 9/9/9 12/12/12 19/19/19 
f 12/12/12 20/20/20 19/19/19 
f 19/19/19 20/20/20 21/21/21 
f 20/20/20 22/22/22 21/21/21 
f 23/23/23 24/24/24 25/25/25 
f 24/24/24 26/26/26 25/25/25 
f 27/27/27 28/28/28 26/26/26 
f 28/28/28 25/25/25 26/26/26 
f 28/28/28 29/29/29 25/25/25 
f 29/29/29 30/30/30 25/25/25 
f 16/16/16 18/18/18 31/31/31 
f 18/18/18 32/32/32 31/31/31 
f 31/31/31 32/32/32 28/28/28 
f 32/32/32 29/29/29 28/28/28 
f 29/29/29 33/33/33 30/30/30 
f 33/33/33 34/34/34 30/30/30 
f 33/33/33 35/35/35 34/34/34 
f 35/35/35 36/36/36 34/34/34 
f 34/34/34 36/36/36 37/37/37 
f 36/36/36 38/38/38 37/37/37 
f 30/30/30 34/34/34 39/39/39 
f 34/34/34 37/37/37 39/39/39 
f 18/18/18 21/21/21 32/32/32 
f 21/21/21 40/40/40 32/32/32 
f 21/21/21 22/22/22 40/40/40 
f 22/22/22 41/41/41 40/40/40 
f 40/40/40 41/41/41 33/33/33 
f 41/41/41 35/35/35 33/33/33 
f 32/32/32 40/40/40 29/29/29 
f 40/40/40 33/33/33 29/29/29 
f 24/24/24 23/23/23 42/42/42 
f 23/23/23 43/43/43 42/42/42 
f 23/23/23 39/39/39 43/43/43 
f 39/39/39 44/44/44 43/43/43 
f 39/39/39 37/37/37 44/44/44 
f 37/37/37 45/45/45 44/44/44 
f 21/21/21 18/18/18 19/19/19 
f 18/18/18 17/17/17 19/19/19 
f 1/1/1 9/9/9 17/17/17 
f 9/9/9 19/19/19 17/17/17 
f 25/25/25 30/30/30 23/23/23 
f 30/30/30 39/39/39 23/23/23 
f 28/28/28 27/27/27 31/31/31 
f 27/27/27 46/46/46 31/31/31 
f 15/15/15 16/16/16 46/46/46 
f 16/16/16 31/31/31 46/46/46 
f 37/37/37 38/38/38 45/45/45 
f 38/38/38 47/47/47 45/45/45 
# 66 faces

#
# object LX24_18A5_R_DaS_LX24_18A5_R_E
#

v  36.0203 86.3075 68.1935
v  35.9567 86.0562 67.7759
v  26.4215 88.8417 66.8027
v  26.3654 88.5767 66.5276
v  17.1916 90.5600 65.6029
v  17.1533 90.2921 65.3176
v  4.9815 92.1624 64.3039
v  4.9544 91.8912 64.0314
v  -9.9843 93.4914 63.2074
v  -10.0020 93.2192 62.9434
v  -25.4985 94.3126 62.5825
v  -25.5065 94.0402 62.3215
v  -52.3575 94.0759 62.9423
v  -39.4826 94.4544 62.5844
v  -52.3471 93.8079 62.6513
v  -39.4805 94.1842 62.3084
v  -64.9104 93.3775 63.3406
v  -64.8934 93.1100 63.0491
# 18 vertices

vn 0.2875 0.8006 -0.5256
vn 0.2872 0.7980 -0.5299
vn 0.2436 0.6757 -0.6957
vn 0.2406 0.6743 -0.6981
vn 0.1940 0.7018 -0.6855
vn 0.1915 0.7023 -0.6856
vn 0.1403 0.6950 -0.7052
vn 0.1384 0.6950 -0.7056
vn 0.0900 0.6903 -0.7179
vn 0.0889 0.6903 -0.7181
vn 0.0364 0.6910 -0.7220
vn 0.0360 0.6912 -0.7218
vn -0.0514 0.7338 -0.6775
vn -0.0159 0.7144 -0.6995
vn -0.0512 0.7336 -0.6777
vn -0.0156 0.7144 -0.6995
vn -0.0623 0.7335 -0.6768
vn -0.0623 0.7331 -0.6772
# 18 vertex normals

vt 0.6162 0.2752 0.0000
vt 0.6163 0.2761 0.0000
vt 0.5983 0.2801 0.0000
vt 0.5984 0.2808 0.0000
vt 0.5813 0.2841 0.0000
vt 0.5813 0.2848 0.0000
vt 0.5587 0.2877 0.0000
vt 0.5588 0.2884 0.0000
vt 0.5311 0.2903 0.0000
vt 0.5312 0.2910 0.0000
vt 0.5027 0.2919 0.0000
vt 0.5027 0.2926 0.0000
vt 0.4534 0.2916 0.0000
vt 0.4771 0.2922 0.0000
vt 0.4534 0.2923 0.0000
vt 0.4771 0.2929 0.0000
vt 0.4304 0.2906 0.0000
vt 0.4304 0.2913 0.0000
# 18 texture coords

g LX24_18A5_R_DaS_LX24_18A5_R_E
usemtl paint_whiteSG
s 5
f 48/48/48 49/49/49 50/50/50 
f 49/49/49 51/51/51 50/50/50 
f 52/52/52 53/53/53 54/54/54 
f 53/53/53 55/55/55 54/54/54 
f 56/56/56 57/57/57 58/58/58 
f 57/57/57 59/59/59 58/58/58 
f 60/60/60 61/61/61 62/62/62 
f 61/61/61 63/63/63 62/62/62 
f 50/50/50 51/51/51 52/52/52 
f 51/51/51 53/53/53 52/52/52 
f 54/54/54 55/55/55 56/56/56 
f 55/55/55 57/57/57 56/56/56 
f 58/58/58 59/59/59 61/61/61 
f 59/59/59 63/63/63 61/61/61 
s off
f 64/64/64 60/60/64 65/65/64 
s 5
f 60/60/60 62/62/62 65/65/65 
# 16 faces

