# 3ds Max Wavefront OBJ Exporter v0.97b - (c)2007 guruware
# File Created: 30.11.2015 11:08:05

mtllib LX24_181C_L.mtl

#
# object LX24_181C_L_DaS_LX24_181C_L
#

v  103.3088 47.3839 -86.3823
v  104.7313 47.8827 -84.2079
v  108.4850 44.0574 -87.6381
v  109.1365 45.0515 -85.1539
v  101.0045 46.8347 -88.8268
v  102.0800 46.9341 -88.0745
v  107.4774 42.5201 -90.9004
v  107.9359 43.2196 -89.5956
v  46.3513 82.0146 -69.8658
v  45.3142 81.9511 -71.6428
v  36.0203 86.3075 -68.1935
v  35.7503 85.8192 -69.6444
v  91.8853 52.8978 -86.4294
v  93.5568 53.5926 -84.4222
v  94.7096 54.2444 -82.3662
v  96.2207 55.1294 -77.8993
v  95.5765 54.7719 -80.1202
v  83.7482 62.5821 -76.0365
v  83.2398 62.2454 -78.1748
v  70.4474 70.0792 -73.8845
v  69.9870 69.7932 -75.9688
v  69.4698 69.2858 -78.0011
v  82.5982 61.7049 -80.2796
v  68.8489 68.5291 -79.7488
v  81.7453 60.9682 -82.1275
v  80.5326 60.1231 -83.8110
v  68.0456 67.6309 -81.3108
v  106.0296 48.2536 -81.8636
v  107.2887 48.3616 -79.5667
v  109.7090 45.9250 -82.5672
v  110.1908 46.6603 -79.8790
v  56.8616 76.5748 -73.7366
v  57.3555 76.8260 -71.7516
v  56.4132 76.0818 -75.6714
v  44.7883 81.4704 -73.5384
v  44.3772 80.7079 -75.1928
v  55.9292 75.3345 -77.3141
v  43.9403 79.6916 -76.6370
v  55.4106 74.3165 -78.7469
v  35.4237 85.1116 -71.8034
v  35.0580 84.2766 -73.5327
v  34.6753 83.1915 -75.0717
# 42 vertices

vn 0.4019 0.7873 -0.4676
vn 0.4302 0.8042 -0.4102
vn 0.4081 0.7971 -0.4451
vn 0.4307 0.8057 -0.4065
vn 0.3349 0.7448 -0.5772
vn 0.3679 0.7705 -0.5205
vn 0.3466 0.7683 -0.5381
vn 0.3729 0.7830 -0.4979
vn 0.3613 0.9009 -0.2404
vn 0.3392 0.8976 -0.2814
vn 0.2542 0.9076 -0.3341
vn 0.2516 0.9052 -0.3426
vn 0.3545 0.7496 -0.5589
vn 0.3794 0.7685 -0.5152
vn 0.4253 0.8030 -0.4174
vn 0.4689 0.8400 -0.2729
vn 0.4576 0.8302 -0.3185
vn 0.4608 0.8532 -0.2442
vn 0.4488 0.8433 -0.2958
vn 0.4362 0.8735 -0.2162
vn 0.4241 0.8651 -0.2678
vn 0.3871 0.8331 -0.3950
vn 0.4112 0.8111 -0.4159
vn 0.3329 0.7782 -0.5324
vn 0.3542 0.7604 -0.5444
vn 0.3227 0.7323 -0.5996
vn 0.3050 0.7493 -0.5878
vn 0.4567 0.8251 -0.3326
vn 0.4656 0.8338 -0.2966
vn 0.4518 0.8227 -0.3450
vn 0.4558 0.8344 -0.3099
vn 0.3895 0.8826 -0.2632
vn 0.4050 0.8891 -0.2132
vn 0.3513 0.8529 -0.3862
vn 0.3036 0.8718 -0.3845
vn 0.2506 0.8095 -0.5310
vn 0.2908 0.7870 -0.5442
vn 0.2209 0.7644 -0.6057
vn 0.2572 0.7429 -0.6180
vn 0.2356 0.8892 -0.3922
vn 0.1894 0.8284 -0.5271
vn 0.1659 0.7858 -0.5958
# 42 vertex normals

vt 0.7004 0.7902 0.0000
vt 0.7032 0.7882 0.0000
vt 0.7094 0.7945 0.0000
vt 0.7104 0.7924 0.0000
vt 0.6962 0.7932 0.0000
vt 0.6981 0.7921 0.0000
vt 0.7079 0.7992 0.0000
vt 0.7086 0.7970 0.0000
vt 0.5956 0.7204 0.0000
vt 0.5932 0.7231 0.0000
vt 0.5759 0.7140 0.0000
vt 0.5752 0.7163 0.0000
vt 0.6787 0.7833 0.0000
vt 0.6821 0.7802 0.0000
vt 0.6847 0.7771 0.0000
vt 0.6894 0.7707 0.0000
vt 0.6872 0.7738 0.0000
vt 0.6659 0.7567 0.0000
vt 0.6640 0.7600 0.0000
vt 0.6411 0.7425 0.0000
vt 0.6393 0.7459 0.0000
vt 0.6375 0.7493 0.0000
vt 0.6620 0.7635 0.0000
vt 0.6359 0.7525 0.0000
vt 0.6599 0.7666 0.0000
vt 0.6573 0.7696 0.0000
vt 0.6342 0.7555 0.0000
vt 0.7060 0.7865 0.0000
vt 0.7094 0.7849 0.0000
vt 0.7113 0.7904 0.0000
vt 0.7118 0.7887 0.0000
vt 0.6148 0.7332 0.0000
vt 0.6165 0.7300 0.0000
vt 0.6133 0.7365 0.0000
vt 0.5917 0.7263 0.0000
vt 0.5907 0.7293 0.0000
vt 0.6120 0.7396 0.0000
vt 0.5898 0.7323 0.0000
vt 0.6109 0.7426 0.0000
vt 0.5744 0.7197 0.0000
vt 0.5736 0.7227 0.0000
vt 0.5728 0.7258 0.0000
# 42 texture coords

g LX24_181C_L_DaS_LX24_181C_L
usemtl paint_whiteSG
s 4
f 1/1/1 2/2/2 3/3/3 
f 3/3/3 2/2/2 4/4/4 
f 5/5/5 6/6/6 7/7/7 
f 7/7/7 6/6/6 8/8/8 
f 9/9/9 10/10/10 11/11/11 
f 11/11/11 10/10/10 12/12/12 
f 13/13/13 14/14/14 6/6/6 
f 6/6/6 14/14/14 1/1/1 
f 2/2/2 1/1/1 15/15/15 
f 15/15/15 1/1/1 14/14/14 
f 6/6/6 1/1/1 8/8/8 
f 8/8/8 1/1/1 3/3/3 
f 16/16/16 17/17/17 18/18/18 
f 18/18/18 17/17/17 19/19/19 
f 20/20/20 18/18/18 21/21/21 
f 21/21/21 18/18/18 19/19/19 
f 21/21/21 19/19/19 22/22/22 
f 22/22/22 19/19/19 23/23/23 
f 17/17/17 15/15/15 19/19/19 
f 19/19/19 15/15/15 23/23/23 
f 22/22/22 23/23/23 24/24/24 
f 24/24/24 23/23/23 25/25/25 
f 25/25/25 26/26/26 24/24/24 
f 24/24/24 26/26/26 27/27/27 
f 14/14/14 13/13/13 25/25/25 
f 25/25/25 13/13/13 26/26/26 
f 15/15/15 14/14/14 23/23/23 
f 23/23/23 14/14/14 25/25/25 
f 28/28/28 29/29/29 30/30/30 
f 30/30/30 29/29/29 31/31/31 
f 29/29/29 28/28/28 16/16/16 
f 16/16/16 28/28/28 17/17/17 
f 28/28/28 2/2/2 17/17/17 
f 17/17/17 2/2/2 15/15/15 
f 32/32/32 33/33/33 21/21/21 
f 21/21/21 33/33/33 20/20/20 
f 10/10/10 9/9/9 32/32/32 
f 32/32/32 9/9/9 33/33/33 
f 34/34/34 35/35/35 32/32/32 
f 32/32/32 35/35/35 10/10/10 
f 35/35/35 34/34/34 36/36/36 
f 36/36/36 34/34/34 37/37/37 
f 36/36/36 37/37/37 38/38/38 
f 38/38/38 37/37/37 39/39/39 
f 37/37/37 24/24/24 39/39/39 
f 39/39/39 24/24/24 27/27/27 
f 12/12/12 10/10/10 40/40/40 
f 40/40/40 10/10/10 35/35/35 
f 41/41/41 36/36/36 42/42/42 
f 42/42/42 36/36/36 38/38/38 
f 36/36/36 41/41/41 35/35/35 
f 35/35/35 41/41/41 40/40/40 
f 6/6/6 5/5/5 13/13/13 
f 2/2/2 28/28/28 4/4/4 
f 4/4/4 28/28/28 30/30/30 
f 22/22/22 34/34/34 21/21/21 
f 21/21/21 34/34/34 32/32/32 
f 24/24/24 37/37/37 22/22/22 
f 22/22/22 37/37/37 34/34/34 
# 59 faces

#
# object LX24_181C_L_DaS_LX24_181C_L_E
#

v  110.1908 46.6603 -79.8790
v  109.2972 45.2968 -79.4542
v  110.0641 46.3774 -79.9731
v  109.2118 45.2587 -79.8193
v  107.9358 43.2196 -89.5955
v  107.7988 42.9231 -89.4039
v  107.4774 42.5201 -90.9003
v  107.3490 42.2293 -90.6933
v  108.4850 44.0574 -87.6380
v  109.1364 45.0515 -85.1539
v  108.3361 43.7546 -87.4660
v  108.9799 44.7452 -84.9966
v  109.7089 45.9249 -82.5672
v  109.5443 45.6127 -82.4330
v  107.2887 48.3616 -79.5667
v  107.3602 46.4873 -79.1670
v  46.3513 82.0146 -69.8658
v  46.4193 81.7450 -69.6668
v  57.3555 76.8260 -71.7516
v  57.4037 76.2733 -71.4970
v  70.4951 69.1827 -73.5792
v  70.4474 70.0792 -73.8845
v  83.7482 62.5821 -76.0365
v  83.7967 61.3384 -75.6214
v  96.2207 55.1294 -77.8993
v  96.2743 53.5577 -77.5272
v  36.0203 86.3075 -68.1935
v  35.9567 86.0562 -67.7759
# 28 vertices

vn 0.9023 -0.4261 0.0658
vn 0.7918 -0.6044 -0.0884
vn 0.8863 -0.4512 0.1046
vn 0.7818 -0.6120 -0.1191
vn 0.8898 -0.4520 -0.0631
vn 0.8898 -0.4520 -0.0627
vn 0.8919 -0.4466 -0.0713
vn 0.8926 -0.4451 -0.0719
vn 0.8859 -0.4615 -0.0478
vn 0.8818 -0.4700 -0.0390
vn 0.8853 -0.4625 -0.0470
vn 0.8814 -0.4707 -0.0384
vn 0.8795 -0.4745 -0.0352
vn 0.8779 -0.4776 -0.0344
vn 0.2580 0.2116 0.9427
vn 0.2429 0.1986 0.9495
vn 0.2303 0.1729 0.9576
vn 0.2329 0.1469 0.9613
vn 0.3873 0.6110 0.6904
vn 0.3933 0.6056 0.6918
vn 0.3496 0.4188 0.8381
vn 0.3495 0.4153 0.8399
vn 0.3214 0.3204 0.8911
vn 0.3194 0.3219 0.8913
vn 0.3205 0.3113 0.8947
vn 0.3190 0.3087 0.8961
vn 0.2850 0.2322 0.9300
vn 0.2822 0.2293 0.9315
vn 0.3985 0.7578 0.5167
vn 0.3983 0.7554 0.5203
# 30 vertex normals

vt 0.7118 0.7887 0.0000
vt 0.7137 0.7901 0.0000
vt 0.7120 0.7892 0.0000
vt 0.7133 0.7908 0.0000
vt 0.7086 0.7970 0.0000
vt 0.7093 0.7971 0.0000
vt 0.7079 0.7992 0.0000
vt 0.7087 0.7992 0.0000
vt 0.7094 0.7945 0.0000
vt 0.7104 0.7924 0.0000
vt 0.7101 0.7948 0.0000
vt 0.7111 0.7927 0.0000
vt 0.7113 0.7904 0.0000
vt 0.7119 0.7907 0.0000
vt 0.7094 0.7849 0.0000
vt 0.7127 0.7846 0.0000
vt 0.5956 0.7204 0.0000
vt 0.5961 0.7200 0.0000
vt 0.6165 0.7300 0.0000
vt 0.6173 0.7293 0.0000
vt 0.6425 0.7416 0.0000
vt 0.6411 0.7425 0.0000
vt 0.6659 0.7567 0.0000
vt 0.6680 0.7555 0.0000
vt 0.6894 0.7707 0.0000
vt 0.6921 0.7694 0.0000
vt 0.5759 0.7140 0.0000
vt 0.5763 0.7141 0.0000
# 28 texture coords

g LX24_181C_L_DaS_LX24_181C_L_E
usemtl paint_whiteSG
s 1
f 43/43/43 44/44/44 45/45/45 
f 45/45/45 44/44/44 46/46/46 
f 47/47/47 48/48/48 49/49/49 
f 49/49/49 48/48/48 50/50/50 
f 51/51/51 52/52/52 53/53/53 
f 53/53/53 52/52/52 54/54/54 
f 43/43/43 45/45/45 55/55/55 
f 55/55/55 45/45/45 56/56/56 
f 52/52/52 55/55/55 54/54/54 
f 54/54/54 55/55/55 56/56/56 
f 47/47/47 51/51/51 48/48/48 
f 48/48/48 51/51/51 53/53/53 
s 6
f 57/57/57 58/58/58 43/43/59 
f 43/43/59 58/58/58 44/44/60 
f 59/59/61 60/60/62 61/61/63 
f 61/61/63 60/60/62 62/62/64 
f 63/63/65 64/64/66 62/62/64 
f 62/62/64 64/64/66 61/61/63 
f 64/64/66 63/63/65 65/65/67 
f 65/65/67 63/63/65 66/66/68 
f 65/65/67 66/66/68 67/67/69 
f 67/67/69 66/66/68 68/68/70 
f 58/58/58 57/57/57 68/68/70 
f 68/68/70 57/57/57 67/67/69 
f 69/69/71 70/70/72 59/59/61 
f 70/70/72 60/60/62 59/59/61 
# 26 faces

