# 3ds Max Wavefront OBJ Exporter v0.97b - (c)2007 guruware
# File Created: 23.11.2015 10:45:02

mtllib H611_206A_L.mtl

#
# object H611_206A_L_D_H611_206A_L
#

v  63.8254 -54.6594 -97.8794
v  63.8244 -53.3371 -97.9920
v  70.5201 -54.6594 -97.8794
v  70.5190 -53.3371 -97.9919
v  57.2353 -54.6594 -97.8794
v  57.2344 -53.3371 -97.9919
v  100.9064 -53.3371 -97.9920
v  100.9075 -54.6594 -97.8794
v  95.8344 -53.3371 -97.9919
v  95.8358 -54.6594 -97.8794
v  105.0134 -53.3371 -97.9919
v  105.0144 -54.6594 -97.8794
v  90.0346 -53.3371 -97.9920
v  90.0360 -54.6594 -97.8794
v  83.7451 -54.6594 -97.8794
v  83.7437 -53.3371 -97.9919
v  50.8685 -53.3371 -97.9920
v  50.8695 -54.6594 -97.8794
v  44.6146 -53.3371 -97.9920
v  44.6158 -54.6594 -97.8794
v  77.2014 -55.9134 -97.1283
v  70.5214 -55.9134 -97.1283
v  77.2000 -54.6594 -97.8794
v  90.0377 -55.9134 -97.1283
v  83.7467 -55.9134 -97.1283
v  95.8373 -55.9134 -97.1283
v  100.9089 -55.9134 -97.1283
v  38.3603 -53.3371 -97.9920
v  38.3617 -54.6594 -97.8794
v  31.9951 -54.6594 -97.8794
v  31.9935 -53.3371 -97.9919
v  25.4019 -53.3371 -97.9920
v  25.4035 -54.6594 -97.8794
v  18.5636 -53.3371 -97.9920
v  18.5653 -54.6594 -97.8794
v  11.4569 -53.3371 -97.9920
v  11.4586 -54.6594 -97.8794
v  4.0617 -54.6594 -97.8794
v  4.0600 -53.3371 -97.9919
v  11.4605 -55.9134 -97.1283
v  18.5671 -55.9134 -97.1283
v  4.0637 -55.9134 -97.1283
v  25.4054 -55.9134 -97.1283
v  31.9968 -55.9134 -97.1283
v  -53.2703 -55.9134 -97.1283
v  -53.2717 -54.6594 -97.8794
v  -44.8223 -55.9134 -97.1283
v  -44.8242 -54.6594 -97.8793
v  -61.7315 -55.9134 -97.1283
v  -61.7326 -54.6594 -97.8794
v  -36.4078 -55.9134 -97.1283
v  -36.4100 -54.6594 -97.8794
v  -28.0493 -54.6594 -97.8794
v  -28.0469 -55.9134 -97.1283
v  -36.4120 -53.3371 -97.9920
v  -44.8258 -53.3371 -97.9919
v  -28.0515 -53.3371 -97.9919
v  -53.2730 -53.3371 -97.9920
v  -61.7335 -53.3371 -97.9919
v  -85.2995 -55.9134 -97.1283
v  -85.3002 -54.6594 -97.8794
v  -78.1897 -55.9134 -97.1283
v  -78.1905 -54.6594 -97.8793
v  -91.0717 -55.9134 -97.1283
v  -91.0723 -54.6594 -97.8793
v  105.0155 -55.9134 -97.1283
v  32.0012 -58.6812 -93.1910
v  25.4100 -58.6812 -93.1910
v  18.5718 -58.6812 -93.1910
v  -70.1859 -55.9134 -97.1283
v  -70.1867 -54.6594 -97.8794
v  -70.1875 -53.3371 -97.9920
v  -78.1912 -53.3371 -97.9920
v  4.0685 -58.6812 -93.1910
v  11.4652 -58.6812 -93.1910
v  -85.3009 -53.3371 -97.9920
v  -91.0729 -53.3371 -97.9920
v  -3.6490 -53.3371 -97.9920
v  -3.6471 -54.6594 -97.8794
v  -11.6103 -53.3371 -97.9920
v  -11.6083 -54.6594 -97.8794
v  115.5642 -53.3371 -97.9920
v  116.6093 -53.3371 -97.9920
v  115.5642 -54.6594 -97.8794
v  116.6093 -54.6594 -97.8794
v  113.4595 -54.6594 -97.8794
v  113.4595 -53.3371 -97.9920
v  111.3116 -53.3371 -97.9920
v  111.3119 -54.6594 -97.8794
v  113.4596 -55.9134 -97.1283
v  115.5642 -55.9134 -97.1283
v  111.3122 -55.9134 -97.1283
v  116.6093 -55.9134 -97.1283
v  107.9203 -55.9134 -97.1283
v  107.9195 -54.6594 -97.8794
v  107.9187 -53.3371 -97.9920
v  -99.4144 -54.6594 -97.8794
v  -101.7800 -54.6594 -97.8794
v  -99.4146 -53.3371 -97.9920
v  -101.7800 -53.3371 -97.9920
v  -103.9413 -54.6594 -97.8794
v  -103.9413 -53.3371 -97.9920
v  -104.9879 -54.6594 -97.8794
v  -104.9879 -53.3371 -97.9920
v  -103.9413 -55.9134 -97.1283
v  -104.9879 -55.9134 -97.1283
v  -101.7799 -55.9134 -97.1283
v  -99.4141 -55.9134 -97.1283
v  -97.7007 -55.9134 -97.1283
v  -97.7011 -54.6594 -97.8793
v  113.4598 -58.6812 -93.1910
v  111.3131 -58.6812 -93.1910
v  115.5642 -58.6812 -93.1910
v  116.6093 -58.6812 -93.1910
v  111.3139 -51.0656 -97.6101
v  113.4633 -51.0656 -97.6101
v  115.5684 -51.0656 -97.6101
v  116.6136 -51.0656 -97.6101
v  38.3633 -55.9134 -97.1283
v  38.3672 -58.6812 -93.1910
v  44.6204 -58.6812 -93.1910
v  44.6171 -55.9134 -97.1283
v  57.2388 -58.6812 -93.1910
v  50.8734 -58.6812 -93.1910
v  57.2363 -55.9134 -97.1283
v  50.8706 -55.9134 -97.1283
v  -103.9413 -58.6812 -93.1910
v  -101.7798 -58.6812 -93.1910
v  -104.9879 -58.6812 -93.1910
v  -99.4135 -58.6812 -93.1910
v  -101.7841 -51.0656 -97.6102
v  -103.9455 -51.0656 -97.6102
v  -99.4179 -51.0656 -97.6102
v  -104.9921 -51.0656 -97.6102
v  -61.7352 -51.0656 -97.6102
v  -70.1888 -51.0656 -97.6102
v  -78.1924 -51.0656 -97.6102
v  -19.7644 -53.3371 -97.9920
v  -19.7622 -54.6594 -97.8794
v  -91.0746 -51.0656 -97.6102
v  -85.3022 -51.0656 -97.6102
v  -19.7598 -55.9134 -97.1283
v  -11.6060 -55.9134 -97.1283
v  -3.6450 -55.9134 -97.1283
v  113.4598 -60.7222 -87.2577
v  111.3133 -60.7222 -87.2577
v  116.6093 -60.7222 -87.2577
v  115.5642 -60.7222 -87.2577
v  77.1987 -53.3371 -97.9920
v  -28.0409 -58.6812 -93.1910
v  -19.7538 -58.6812 -93.1910
v  -11.6003 -58.6812 -93.1910
v  -3.6397 -58.6812 -93.1910
v  18.5608 -51.0656 -97.6102
v  25.3991 -51.0656 -97.6102
v  4.0570 -51.0656 -97.6102
v  11.4541 -51.0656 -97.6102
v  31.9908 -51.0656 -97.6102
v  -28.0551 -51.0656 -97.6102
v  -36.4152 -51.0656 -97.6102
v  -44.8285 -51.0656 -97.6102
v  -53.2751 -51.0656 -97.6102
v  95.8410 -58.6812 -93.1910
v  100.9121 -58.6812 -93.1910
v  83.7508 -58.6812 -93.1910
v  90.0416 -58.6812 -93.1910
v  105.0182 -58.6812 -93.1910
v  107.9228 -60.7222 -87.2577
v  107.9224 -58.6812 -93.1910
v  105.0187 -60.7222 -87.2577
v  95.8418 -60.7222 -87.2577
v  90.0425 -60.7222 -87.2577
v  100.9128 -60.7222 -87.2577
v  105.0124 -51.0656 -97.6101
v  100.9046 -51.0656 -97.6101
v  95.8322 -51.0656 -97.6101
v  83.7413 -51.0656 -97.6101
v  90.0322 -51.0656 -97.6101
v  83.7516 -60.7222 -87.2577
v  70.5252 -60.7222 -87.2577
v  63.8297 -60.7222 -87.2577
v  70.5246 -58.6812 -93.1910
v  63.8292 -58.6812 -93.1910
v  77.2051 -58.6812 -93.1910
v  77.2058 -60.7222 -87.2577
v  57.2393 -60.7222 -87.2577
v  44.6211 -60.7222 -87.2577
v  38.3680 -60.7222 -87.2577
v  50.8740 -60.7222 -87.2577
v  32.0021 -60.7222 -87.2577
v  18.5728 -60.7222 -87.2577
v  11.4661 -60.7222 -87.2577
v  -91.0701 -58.6812 -93.1910
v  -85.2978 -58.6812 -93.1910
v  -78.1878 -58.6812 -93.1910
v  -61.7288 -58.6812 -93.1910
v  -70.1837 -58.6812 -93.1910
v  25.4109 -60.7222 -87.2577
v  4.0695 -60.7222 -87.2577
v  -11.5991 -60.7222 -87.2577
v  -19.7525 -60.7222 -87.2577
v  -3.6387 -60.7222 -87.2577
v  -28.0397 -60.7222 -87.2577
v  -44.8169 -60.7222 -87.2577
v  -53.2661 -60.7222 -87.2577
v  -44.8178 -58.6812 -93.1910
v  -53.2668 -58.6812 -93.1910
v  -36.4024 -58.6812 -93.1910
v  -36.4013 -60.7222 -87.2577
v  -61.7283 -60.7222 -87.2577
v  -78.1874 -60.7222 -87.2577
v  -85.2974 -60.7222 -87.2577
v  -70.1833 -60.7222 -87.2577
v  -91.0698 -60.7222 -87.2577
v  -97.6996 -60.7222 -87.2577
v  -99.4134 -60.7222 -87.2577
v  -97.6998 -58.6812 -93.1910
v  -101.7798 -60.7222 -87.2577
v  -95.0613 -58.6812 -93.1910
v  -95.0611 -60.7222 -87.2577
v  -3.6522 -51.0656 -97.6102
v  -11.6138 -51.0656 -97.6102
v  -19.7681 -51.0656 -97.6102
v  57.2328 -51.0656 -97.6102
v  63.8227 -51.0656 -97.6101
v  70.5171 -51.0656 -97.6101
v  77.1964 -51.0656 -97.6101
v  63.8265 -55.9134 -97.1283
v  44.6126 -51.0656 -97.6102
v  50.8668 -51.0656 -97.6102
v  38.3580 -51.0656 -97.6102
v  -95.0627 -55.9134 -97.1283
v  -95.0632 -54.6594 -97.8794
v  -95.0637 -53.3371 -97.9920
v  -97.7015 -53.3371 -97.9920
v  109.9205 -51.0656 -97.6101
v  107.9188 -51.0656 -97.6101
v  -97.7042 -51.0656 -97.6102
v  -95.0658 -51.0656 -97.6102
v  -103.9413 -60.7222 -87.2577
v  -104.9879 -60.7222 -87.2577
# 241 vertices

vn 0.0000 -0.3178 -0.9481
vn -0.0000 0.0747 -0.9972
vn 0.0000 0.0747 -0.9972
vn -0.0000 -0.3178 -0.9481
vn 0.0000 -0.3179 -0.9481
vn 0.0000 -0.7590 -0.6511
vn -0.0000 -0.7590 -0.6511
vn 0.0000 -0.8990 -0.4380
vn 0.0000 0.0748 -0.9972
vn 0.0000 0.0668 -0.9978
vn -0.0000 0.0684 -0.9977
vn -0.0000 -0.8990 -0.4380
vn 0.0000 0.1658 -0.9862
vn 0.0000 -0.9456 -0.3253
vn -0.0000 -0.9456 -0.3253
vn -0.0000 0.1658 -0.9862
# 16 vertex normals

g H611_206A_L_D_H611_206A_L
usemtl diffuse_black_plasticSG
s 12
f 1//1 2//2 3//1 
f 3//1 2//2 4//3 
f 1//1 5//4 2//2 
f 2//2 5//4 6//3 
f 7//2 8//4 9//3 
f 9//3 8//4 10//5 
f 7//2 11//2 8//4 
f 8//4 11//2 12//5 
f 13//3 9//3 14//1 
f 14//1 9//3 10//5 
f 14//1 15//1 13//3 
f 13//3 15//1 16//3 
f 17//3 18//1 19//3 
f 19//3 18//1 20//1 
f 17//3 6//3 18//1 
f 18//1 6//3 5//4 
f 21//6 22//6 23//4 
f 23//4 22//6 3//1 
f 24//7 25//6 14//1 
f 14//1 25//6 15//1 
f 14//1 10//5 24//7 
f 24//7 10//5 26//6 
f 27//7 26//6 8//4 
f 8//4 26//6 10//5 
f 28//2 19//3 29//1 
f 29//1 19//3 20//1 
f 29//1 30//4 28//2 
f 28//2 30//4 31//3 
f 32//3 33//1 34//3 
f 34//3 33//1 35//1 
f 32//3 31//3 33//1 
f 33//1 31//3 30//4 
f 36//2 34//3 37//4 
f 37//4 34//3 35//1 
f 37//4 38//4 36//2 
f 36//2 38//4 39//3 
f 37//4 35//1 40//7 
f 40//7 35//1 41//6 
f 40//7 42//7 37//4 
f 37//4 42//7 38//4 
f 43//6 41//6 33//1 
f 33//1 41//6 35//1 
f 33//1 30//4 43//6 
f 43//6 30//4 44//6 
f 45//6 46//1 47//6 
f 47//6 46//1 48//1 
f 45//6 49//6 46//1 
f 46//1 49//6 50//1 
f 51//6 47//6 52//5 
f 52//5 47//6 48//1 
f 52//5 53//4 51//6 
f 51//6 53//4 54//6 
f 55//2 52//5 56//3 
f 56//3 52//5 48//1 
f 55//2 57//3 52//5 
f 52//5 57//3 53//4 
f 58//3 56//3 46//1 
f 46//1 56//3 48//1 
f 46//1 50//1 58//3 
f 58//3 50//1 59//3 
f 60//6 61//4 62//6 
f 62//6 61//4 63//1 
f 60//6 64//6 61//4 
f 61//4 64//6 65//1 
f 8//4 12//5 27//7 
f 27//7 12//5 66//6 
f 67//8 68//8 44//6 
f 44//6 68//8 43//6 
f 41//6 43//6 69//8 
f 69//8 43//6 68//8 
f 70//6 62//6 71//4 
f 71//4 62//6 63//1 
f 71//4 50//1 70//6 
f 70//6 50//1 49//6 
f 72//3 71//4 73//3 
f 73//3 71//4 63//1 
f 72//3 59//3 71//4 
f 71//4 59//3 50//1 
f 42//7 40//7 74//8 
f 74//8 40//7 75//8 
f 76//2 73//3 61//4 
f 61//4 73//3 63//1 
f 69//8 75//8 41//6 
f 41//6 75//8 40//7 
f 61//4 65//1 76//2 
f 76//2 65//1 77//3 
f 78//3 79//5 80//3 
f 80//3 79//5 81//5 
f 78//3 39//3 79//5 
f 79//5 39//3 38//4 
f 82//3 83//9 84//1 
f 84//1 83//9 85//1 
f 86//1 87//3 84//1 
f 84//1 87//3 82//3 
f 87//3 86//1 88//10 
f 88//10 86//1 89//1 
f 90//6 86//1 91//6 
f 91//6 86//1 84//1 
f 86//1 90//6 89//1 
f 89//1 90//6 92//6 
f 84//1 85//1 91//6 
f 91//6 85//1 93//6 
f 94//7 95//4 92//6 
f 92//6 95//4 89//1 
f 94//7 66//6 95//4 
f 95//4 66//6 12//5 
f 95//4 96//11 89//1 
f 89//1 96//11 88//10 
f 95//4 12//5 96//11 
f 96//11 12//5 11//2 
f 97//5 98//1 99//3 
f 99//3 98//1 100//3 
f 101//1 102//3 98//1 
f 98//1 102//3 100//3 
f 101//1 103//1 102//3 
f 102//3 103//1 104//9 
f 105//6 106//6 101//1 
f 101//1 106//6 103//1 
f 101//1 98//1 105//6 
f 105//6 98//1 107//6 
f 107//6 98//1 108//6 
f 108//6 98//1 97//5 
f 108//6 97//5 109//6 
f 109//6 97//5 110//1 
f 111//8 112//8 90//6 
f 90//6 112//8 92//6 
f 91//6 113//12 90//6 
f 90//6 113//12 111//8 
f 93//6 114//12 91//6 
f 91//6 114//12 113//12 
f 88//10 115//13 87//3 
f 87//3 115//13 116//13 
f 117//13 82//3 116//13 
f 116//13 82//3 87//3 
f 118//13 83//9 117//13 
f 117//13 83//9 82//3 
f 44//6 119//6 67//8 
f 67//8 119//6 120//12 
f 121//8 120//12 122//6 
f 122//6 120//12 119//6 
f 123//8 124//8 125//6 
f 125//6 124//8 126//6 
f 122//6 126//6 121//8 
f 121//8 126//6 124//8 
f 127//8 105//6 128//8 
f 128//8 105//6 107//6 
f 129//8 106//6 127//8 
f 127//8 106//6 105//6 
f 107//6 108//6 128//8 
f 128//8 108//6 130//8 
f 100//3 102//3 131//13 
f 131//13 102//3 132//13 
f 99//3 100//3 133//13 
f 133//13 100//3 131//13 
f 134//13 132//13 104//9 
f 104//9 132//13 102//3 
f 59//3 72//3 135//13 
f 135//13 72//3 136//13 
f 137//13 136//13 73//3 
f 73//3 136//13 72//3 
f 138//2 80//3 139//5 
f 139//5 80//3 81//5 
f 139//5 53//4 138//2 
f 138//2 53//4 57//3 
f 77//3 140//13 76//2 
f 76//2 140//13 141//13 
f 137//13 73//3 141//13 
f 141//13 73//3 76//2 
f 139//5 81//5 142//6 
f 142//6 81//5 143//6 
f 142//6 54//6 139//5 
f 139//5 54//6 53//4 
f 144//7 143//6 79//5 
f 79//5 143//6 81//5 
f 79//5 38//4 144//7 
f 144//7 38//4 42//7 
f 111//8 145//14 112//8 
f 112//8 145//14 146//14 
f 114//12 147//15 113//12 
f 113//12 147//15 148//14 
f 23//4 15//1 21//6 
f 21//6 15//1 25//6 
f 149//2 23//4 4//3 
f 4//3 23//4 3//1 
f 149//2 16//3 23//4 
f 23//4 16//3 15//1 
f 111//8 113//12 145//14 
f 145//14 113//12 148//14 
f 54//6 142//6 150//8 
f 150//8 142//6 151//8 
f 152//8 151//8 143//6 
f 143//6 151//8 142//6 
f 74//8 153//12 42//7 
f 42//7 153//12 144//7 
f 143//6 144//7 152//8 
f 152//8 144//7 153//12 
f 154//13 155//13 34//3 
f 34//3 155//13 32//3 
f 156//13 157//16 39//3 
f 39//3 157//16 36//2 
f 34//3 36//2 154//13 
f 154//13 36//2 157//16 
f 31//3 32//3 158//13 
f 158//13 32//3 155//13 
f 57//3 55//2 159//13 
f 159//13 55//2 160//16 
f 161//13 160//16 56//3 
f 56//3 160//16 55//2 
f 59//3 135//13 58//3 
f 58//3 135//13 162//13 
f 56//3 58//3 161//13 
f 161//13 58//3 162//13 
f 26//6 27//7 163//8 
f 163//8 27//7 164//8 
f 25//6 24//7 165//12 
f 165//12 24//7 166//8 
f 163//8 166//8 26//6 
f 26//6 166//8 24//7 
f 167//8 164//8 66//6 
f 66//6 164//8 27//7 
f 168//14 169//12 146//14 
f 146//14 169//12 112//8 
f 167//8 169//12 170//14 
f 170//14 169//12 168//14 
f 171//14 172//14 163//8 
f 163//8 172//14 166//8 
f 167//8 170//14 164//8 
f 164//8 170//14 173//14 
f 11//2 7//2 174//13 
f 174//13 7//2 175//16 
f 176//13 175//16 9//3 
f 9//3 175//16 7//2 
f 177//13 178//16 16//3 
f 16//3 178//16 13//3 
f 9//3 13//3 176//13 
f 176//13 13//3 178//16 
f 171//14 163//8 173//14 
f 173//14 163//8 164//8 
f 165//12 166//8 179//14 
f 179//14 166//8 172//14 
f 180//14 181//14 182//8 
f 182//8 181//14 183//8 
f 165//12 179//14 184//8 
f 184//8 179//14 185//14 
f 180//14 182//8 185//14 
f 185//14 182//8 184//8 
f 123//8 183//8 186//14 
f 186//14 183//8 181//14 
f 187//14 188//14 121//8 
f 121//8 188//14 120//12 
f 123//8 186//14 124//8 
f 124//8 186//14 189//14 
f 187//14 121//8 189//14 
f 189//14 121//8 124//8 
f 67//8 120//12 190//14 
f 190//14 120//12 188//14 
f 191//14 192//14 69//8 
f 69//8 192//14 75//8 
f 64//6 60//6 193//8 
f 193//8 60//6 194//8 
f 195//8 194//8 62//6 
f 62//6 194//8 60//6 
f 196//12 197//8 49//6 
f 49//6 197//8 70//6 
f 195//8 62//6 197//8 
f 197//8 62//6 70//6 
f 67//8 190//14 68//8 
f 68//8 190//14 198//14 
f 191//14 69//8 198//14 
f 198//14 69//8 68//8 
f 74//8 75//8 199//14 
f 199//14 75//8 192//14 
f 200//14 201//14 152//8 
f 152//8 201//14 151//8 
f 74//8 199//14 153//12 
f 153//12 199//14 202//14 
f 200//14 152//8 202//14 
f 202//14 152//8 153//12 
f 150//8 151//8 203//14 
f 203//14 151//8 201//14 
f 204//14 205//14 206//8 
f 206//8 205//14 207//8 
f 150//8 203//14 208//8 
f 208//8 203//14 209//14 
f 204//14 206//8 209//14 
f 209//14 206//8 208//8 
f 196//12 207//8 210//14 
f 210//14 207//8 205//14 
f 211//14 212//14 195//8 
f 195//8 212//14 194//8 
f 196//12 210//14 197//8 
f 197//8 210//14 213//14 
f 211//14 195//8 213//14 
f 213//14 195//8 197//8 
f 193//8 194//8 214//14 
f 214//14 194//8 212//14 
f 215//14 216//14 217//8 
f 217//8 216//14 130//8 
f 216//14 218//14 130//8 
f 130//8 218//14 128//8 
f 193//8 214//14 219//12 
f 219//12 214//14 220//14 
f 215//14 217//8 220//14 
f 220//14 217//8 219//12 
f 49//6 45//6 196//12 
f 196//12 45//6 207//8 
f 206//8 207//8 47//6 
f 47//6 207//8 45//6 
f 150//8 208//8 54//6 
f 54//6 208//8 51//6 
f 47//6 51//6 206//8 
f 206//8 51//6 208//8 
f 39//3 78//3 156//13 
f 156//13 78//3 221//13 
f 222//13 221//13 80//3 
f 80//3 221//13 78//3 
f 159//13 223//16 57//3 
f 57//3 223//16 138//2 
f 80//3 138//2 222//13 
f 222//13 138//2 223//16 
f 224//13 225//16 6//3 
f 6//3 225//16 2//2 
f 4//3 2//2 226//13 
f 226//13 2//2 225//16 
f 16//3 149//2 177//13 
f 177//13 149//2 227//16 
f 226//13 227//16 4//3 
f 4//3 227//16 149//2 
f 165//12 184//8 25//6 
f 25//6 184//8 21//6 
f 22//6 21//6 182//8 
f 182//8 21//6 184//8 
f 125//6 228//6 123//8 
f 123//8 228//6 183//8 
f 182//8 183//8 22//6 
f 22//6 183//8 228//6 
f 229//13 230//13 19//3 
f 19//3 230//13 17//3 
f 158//13 231//16 31//3 
f 31//3 231//16 28//2 
f 19//3 28//2 229//13 
f 229//13 28//2 231//16 
f 224//13 6//3 230//13 
f 230//13 6//3 17//3 
f 232//7 109//6 233//4 
f 233//4 109//6 110//1 
f 233//4 65//1 232//7 
f 232//7 65//1 64//6 
f 234//3 233//4 235//3 
f 235//3 233//4 110//1 
f 234//3 77//3 233//4 
f 233//4 77//3 65//1 
f 99//3 235//3 97//5 
f 97//5 235//3 110//1 
f 228//6 1//1 22//6 
f 22//6 1//1 3//1 
f 228//6 125//6 1//1 
f 1//1 125//6 5//4 
f 92//6 112//8 94//7 
f 94//7 112//8 169//12 
f 167//8 66//6 169//12 
f 169//12 66//6 94//7 
f 88//10 96//11 236//16 
f 236//16 96//11 237//13 
f 11//2 174//13 96//11 
f 96//11 174//13 237//13 
f 235//3 99//3 238//13 
f 238//13 99//3 133//13 
f 77//3 234//3 140//13 
f 140//13 234//3 239//13 
f 119//6 44//6 29//1 
f 29//1 44//6 30//4 
f 238//13 239//13 235//3 
f 235//3 239//13 234//3 
f 29//1 20//1 119//6 
f 119//6 20//1 122//6 
f 126//6 122//6 18//1 
f 18//1 122//6 20//1 
f 127//8 128//8 240//14 
f 240//14 128//8 218//14 
f 241//14 129//8 240//14 
f 240//14 129//8 127//8 
f 217//8 130//8 109//6 
f 109//6 130//8 108//6 
f 18//1 5//4 126//6 
f 126//6 5//4 125//6 
f 64//6 193//8 232//7 
f 232//7 193//8 219//12 
f 217//8 109//6 219//12 
f 219//12 109//6 232//7 
f 236//16 115//13 88//10 
# 391 faces

#
# object H611_206A_L_D_H611_206A_L_E
#

v  31.9908 -51.1274 -97.2997
v  38.3580 -51.1274 -97.2997
v  31.9908 -51.0656 -97.6102
v  38.3580 -51.0656 -97.6102
v  44.6126 -51.1274 -97.2997
v  44.6126 -51.0656 -97.6102
v  111.3139 -51.0656 -97.6101
v  111.3139 -51.1274 -97.2997
v  113.4633 -51.0656 -97.6101
v  113.4633 -51.1274 -97.2997
v  109.9205 -51.1274 -97.2997
v  109.9205 -51.0656 -97.6101
v  -103.9455 -51.0656 -97.6102
v  -103.9455 -51.1274 -97.2997
v  -101.7841 -51.0656 -97.6102
v  -101.7841 -51.1274 -97.2997
v  105.0124 -51.1274 -97.2997
v  107.9188 -51.1274 -97.2997
v  105.0124 -51.0656 -97.6101
v  107.9188 -51.0656 -97.6101
v  57.2328 -51.1274 -97.2997
v  63.8227 -51.1274 -97.2997
v  57.2328 -51.0656 -97.6102
v  63.8227 -51.0656 -97.6101
v  77.1964 -51.1274 -97.2997
v  83.7413 -51.1274 -97.2997
v  77.1964 -51.0656 -97.6101
v  83.7413 -51.0656 -97.6101
v  70.5171 -51.1274 -97.2997
v  70.5171 -51.0656 -97.6101
v  50.8668 -51.1274 -97.2997
v  50.8668 -51.0656 -97.6102
v  -104.9921 -51.1274 -97.2997
v  -104.9921 -51.0656 -97.6102
v  -70.1888 -51.1274 -97.2997
v  -61.7352 -51.1274 -97.2997
v  -70.1888 -51.0656 -97.6102
v  -61.7352 -51.0656 -97.6102
v  -78.1924 -51.1274 -97.2997
v  -78.1924 -51.0656 -97.6102
v  -85.3022 -51.1274 -97.2997
v  -85.3022 -51.0656 -97.6102
v  -91.0746 -51.1274 -97.2997
v  -91.0746 -51.0656 -97.6102
v  -36.4152 -51.1274 -97.2997
v  -28.0551 -51.1274 -97.2997
v  -36.4152 -51.0656 -97.6102
v  -28.0551 -51.0656 -97.6102
v  -44.8285 -51.1274 -97.2997
v  -44.8285 -51.0656 -97.6102
v  -53.2751 -51.1274 -97.2997
v  -53.2751 -51.0656 -97.6102
v  -11.6138 -51.1274 -97.2997
v  -3.6522 -51.1274 -97.2997
v  -11.6138 -51.0656 -97.6102
v  -3.6522 -51.0656 -97.6102
v  -19.7681 -51.1274 -97.2997
v  -19.7681 -51.0656 -97.6102
v  -99.4179 -51.1274 -97.2997
v  -97.7042 -51.1274 -97.2997
v  -99.4179 -51.0656 -97.6102
v  -97.7042 -51.0656 -97.6102
v  -95.0658 -51.1274 -97.2997
v  -95.0658 -51.0656 -97.6102
v  115.5684 -51.1274 -97.2997
v  116.6136 -51.1274 -97.2997
v  115.5684 -51.0656 -97.6101
v  116.6136 -51.0656 -97.6101
v  25.3991 -51.1274 -97.2997
v  25.3991 -51.0656 -97.6102
v  18.5608 -51.1274 -97.2997
v  18.5608 -51.0656 -97.6102
v  11.4541 -51.1274 -97.2997
v  11.4541 -51.0656 -97.6102
v  4.0570 -51.1274 -97.2997
v  4.0570 -51.0656 -97.6102
v  100.9046 -51.1274 -97.2997
v  100.9046 -51.0656 -97.6101
v  95.8322 -51.1274 -97.2997
v  95.8322 -51.0656 -97.6101
v  90.0322 -51.1274 -97.2997
v  90.0322 -51.0656 -97.6101
# 82 vertices

vn 0.0000 0.9808 0.1951
vn 0.0000 0.9808 0.1952
vn -0.0000 0.9808 0.1952
vn -0.0000 0.9808 0.1951
# 4 vertex normals

g H611_206A_L_D_H611_206A_L_E
usemtl diffuse_black_plasticSG
s 1
f 242//17 243//17 244//17 
f 244//17 243//17 245//17 
f 243//17 246//17 245//17 
f 245//17 246//17 247//17 
f 248//18 249//18 250//18 
f 250//18 249//18 251//19 
f 252//18 249//18 253//18 
f 253//18 249//18 248//18 
f 254//17 255//17 256//17 
f 256//17 255//17 257//17 
f 258//18 259//18 260//18 
f 260//18 259//18 261//18 
f 262//17 263//19 264//20 
f 264//20 263//19 265//19 
f 266//18 267//18 268//18 
f 268//18 267//18 269//18 
f 270//18 266//18 271//18 
f 271//18 266//18 268//18 
f 263//19 270//18 265//19 
f 265//19 270//18 271//18 
f 272//17 262//17 273//17 
f 273//17 262//17 264//20 
f 246//17 272//17 247//17 
f 247//17 272//17 273//17 
f 274//17 255//17 275//17 
f 275//17 255//17 254//17 
f 276//17 277//17 278//17 
f 278//17 277//17 279//17 
f 280//17 276//17 281//17 
f 281//17 276//17 278//17 
f 282//17 280//17 283//17 
f 283//17 280//17 281//17 
f 284//17 282//17 285//17 
f 285//17 282//17 283//17 
f 286//17 287//17 288//17 
f 288//17 287//17 289//17 
f 290//17 286//17 291//17 
f 291//17 286//17 288//17 
f 277//17 292//17 279//17 
f 279//17 292//17 293//17 
f 292//17 290//17 293//17 
f 293//17 290//17 291//17 
f 294//17 295//17 296//17 
f 296//17 295//17 297//17 
f 287//17 298//17 289//17 
f 289//17 298//17 299//17 
f 298//17 294//17 299//17 
f 299//17 294//17 296//17 
f 300//17 301//17 302//17 
f 302//17 301//17 303//17 
f 304//17 284//17 305//17 
f 305//17 284//17 285//17 
f 301//17 304//17 303//17 
f 303//17 304//17 305//17 
f 259//18 252//18 261//18 
f 261//18 252//18 253//18 
f 306//20 307//17 308//20 
f 308//20 307//17 309//17 
f 250//18 251//19 308//20 
f 308//20 251//19 306//20 
f 310//17 242//17 311//17 
f 311//17 242//17 244//17 
f 312//17 310//17 313//17 
f 313//17 310//17 311//17 
f 314//17 312//17 315//17 
f 315//17 312//17 313//17 
f 316//17 314//17 317//17 
f 317//17 314//17 315//17 
f 318//18 258//18 319//18 
f 319//18 258//18 260//18 
f 320//18 318//18 321//18 
f 321//18 318//18 319//18 
f 322//18 320//18 323//18 
f 323//18 320//18 321//18 
f 267//18 322//18 269//18 
f 269//18 322//18 323//18 
f 295//17 316//17 297//17 
f 297//17 316//17 317//17 
f 256//17 257//17 302//17 
f 302//17 257//17 300//17 
# 80 faces

