# 3ds Max Wavefront OBJ Exporter v0.97b - (c)2007 guruware
# File Created: 23.11.2015 10:44:33

mtllib H611_181C_L.mtl

#
# object H611_181C_L_DaS_H611_181C_L
#

v  105.9938 54.2827 -80.0793
v  105.3195 53.6430 -80.8832
v  98.8111 58.1642 -79.2763
v  112.4776 49.8105 -81.6732
v  111.7352 49.1347 -82.5040
v  106.4668 54.7967 -79.2223
v  112.9849 50.3343 -80.7866
v  99.4004 58.7962 -78.4819
v  99.8463 59.3162 -77.6381
v  66.6079 82.2100 -67.3194
v  59.9118 85.7768 -66.0525
v  64.2546 83.8375 -65.7828
v  92.7017 63.3065 -76.9027
v  93.1273 63.8467 -76.0569
v  85.9020 67.7696 -75.3632
v  86.3135 68.3418 -74.5014
v  92.1835 62.6095 -77.7264
v  85.4377 66.9701 -76.2388
v  104.2803 52.8653 -81.6650
v  62.5430 84.9681 -64.5262
v  53.7359 89.0579 -63.7880
v  54.5620 89.5439 -59.7463
v  61.2665 86.4571 -60.7699
v  53.4411 88.7829 -64.9627
v  47.3764 91.6086 -62.7701
v  41.6383 94.0410 -58.1918
v  48.0989 92.0486 -58.8841
v  118.8475 45.4238 -83.2421
v  124.8576 41.3172 -84.7200
v  124.0527 40.5945 -85.6091
v  119.3968 45.9753 -82.3081
v  125.4548 41.9217 -83.7199
v  125.8892 40.6239 -84.9721
v  111.4494 47.7666 -83.4696
v  118.0846 44.7283 -84.0959
v  116.9467 43.8539 -84.9079
v  111.1628 47.9706 -83.3947
v  45.3561 87.3513 -69.9589
v  51.6969 85.0929 -70.5531
v  51.3486 83.1120 -71.8864
v  38.7445 87.3039 -70.7241
v  39.0179 89.1676 -69.5229
v  32.3120 88.7866 -70.3758
v  32.5675 90.5950 -69.2163
v  58.1552 82.3387 -71.3338
v  52.0816 86.3354 -69.4215
v  58.5505 83.5182 -70.2366
v  52.4666 87.1341 -68.3667
v  58.9422 84.2768 -69.2229
v  45.7264 88.6415 -68.8037
v  46.1009 89.4729 -67.7121
v  39.3693 90.4917 -68.3524
v  39.7290 91.3481 -67.2297
v  32.8948 91.9417 -68.0367
v  33.2347 92.8146 -66.8905
v  65.9950 81.4034 -69.3239
v  66.3126 81.8452 -68.3257
v  73.1626 77.8802 -69.6829
v  59.2928 84.8803 -68.1834
v  59.6126 85.3673 -67.1244
v  65.6440 80.8459 -70.3101
v  72.8450 77.4781 -70.6388
v  72.4926 76.9644 -71.5825
v  79.7657 73.2294 -72.0811
v  79.4089 72.7554 -72.9948
v  86.6803 68.7826 -73.6040
v  80.0878 73.5980 -71.1496
v  87.0134 69.1246 -72.6797
v  80.3867 73.8965 -70.2065
v  87.3242 69.4009 -71.7375
v  80.6739 74.0633 -69.2575
v  87.6238 69.5692 -70.7865
v  73.4571 78.2080 -68.7189
v  73.7399 78.3914 -67.7509
v  66.8921 82.4182 -66.3091
v  41.0009 93.5646 -61.9393
v  34.4880 95.1554 -61.3147
v  35.0580 95.5972 -57.6773
v  61.5256 85.8795 -62.7343
v  93.5115 64.2628 -75.1607
v  93.8646 64.5859 -74.2267
v  100.6367 60.0268 -75.7706
v  100.2539 59.7183 -76.7276
v  106.9021 55.1973 -78.2814
v  113.4505 50.7477 -79.7986
v  107.3248 55.4923 -77.2913
v  113.9084 51.0478 -78.7551
v  107.7601 55.6899 -76.2869
v  114.3926 51.2315 -77.7022
v  108.2017 55.7783 -75.2752
v  114.7931 51.2903 -76.5352
v  101.0082 60.2661 -74.7871
v  101.3741 60.4080 -73.7904
v  94.1972 64.8470 -73.2676
v  94.5193 65.0020 -72.2958
v  110.6545 48.3324 -83.2617
v  127.0585 41.7281 -82.8148
v  126.5262 41.2253 -83.9624
v  126.9056 43.1447 -80.0805
v  127.3402 43.4437 -78.7677
v  128.2740 42.8768 -78.9134
v  125.9806 42.4122 -82.5892
v  126.4570 42.8121 -81.3640
v  127.5104 42.1550 -81.5665
v  123.9430 38.7865 -86.8060
v  122.7566 39.6481 -86.4785
v  127.9064 42.5292 -80.2551
v  120.8456 47.0039 -78.9687
v  121.3268 47.2017 -77.7935
v  120.3671 46.7586 -80.1280
v  119.8937 46.4180 -81.2556
v  53.1373 88.3205 -66.1253
v  46.7683 90.7505 -65.3178
v  47.0761 91.2667 -64.0536
v  40.6968 93.2669 -63.3286
v  34.1835 94.8218 -62.7912
v  40.3872 92.7031 -64.6912
v  33.8755 94.2240 -64.2347
v  40.0664 92.0743 -66.0004
v  33.5604 93.5651 -65.6121
v  46.4457 90.1643 -66.5437
v  52.8155 87.7834 -67.2640
v  64.4738 77.3170 -73.5539
v  64.8459 79.0354 -72.3296
v  71.6814 75.2969 -73.5036
v  57.7938 80.4728 -72.6238
v  78.1341 69.8946 -75.8632
v  71.2876 73.7543 -74.6444
v  78.5745 71.2372 -74.8189
v  79.0056 72.1411 -73.8852
v  72.0940 76.3022 -72.5102
v  65.2485 80.1342 -71.2802
v  91.5211 61.7229 -78.5564
v  84.9122 65.8475 -77.1780
v  97.9730 57.4267 -80.0387
v  125.0893 39.8689 -85.8813
v  45.0477 85.4321 -71.2208
# 137 vertices

vn 0.3000 0.6740 -0.6751
vn 0.2228 0.5949 -0.7723
vn 0.2368 0.6108 -0.7555
vn 0.2939 0.6699 -0.6818
vn 0.2152 0.5880 -0.7797
vn 0.3703 0.7389 -0.5629
vn 0.3705 0.7394 -0.5622
vn 0.3018 0.6798 -0.6685
vn 0.3666 0.7382 -0.5662
vn 0.4005 0.8415 -0.3625
vn 0.3800 0.8784 -0.2899
vn 0.4055 0.8679 -0.2871
vn 0.2967 0.6796 -0.6709
vn 0.3594 0.7375 -0.5717
vn 0.2869 0.6765 -0.6783
vn 0.3496 0.7369 -0.5785
vn 0.2331 0.6141 -0.7540
vn 0.2214 0.6075 -0.7629
vn 0.1894 0.5587 -0.8075
vn 0.4058 0.8843 -0.2310
vn 0.3605 0.9083 -0.2122
vn 0.3646 0.9131 -0.1824
vn 0.3911 0.8979 -0.2021
vn 0.3194 0.8773 -0.3581
vn 0.3010 0.9322 -0.2010
vn 0.2444 0.9561 -0.1615
vn 0.3072 0.9376 -0.1633
vn 0.2916 0.6706 -0.6821
vn 0.2883 0.6699 -0.6842
vn 0.2037 0.5817 -0.7875
vn 0.3667 0.7401 -0.5637
vn 0.3600 0.7386 -0.5700
vn 0.2844 0.6709 -0.6849
vn 0.1715 0.5437 -0.8216
vn 0.2078 0.5847 -0.7842
vn 0.1692 0.5424 -0.8229
vn 0.1721 0.5438 -0.8214
vn 0.1207 0.5821 -0.8041
vn 0.1416 0.5819 -0.8008
vn 0.1222 0.5395 -0.8331
vn 0.0862 0.5314 -0.8427
vn 0.1006 0.5822 -0.8068
vn 0.0679 0.5317 -0.8442
vn 0.0801 0.5850 -0.8071
vn 0.1608 0.5848 -0.7951
vn 0.1933 0.6837 -0.7037
vn 0.2197 0.6775 -0.7019
vn 0.2403 0.7669 -0.5951
vn 0.2719 0.7546 -0.5972
vn 0.1660 0.6902 -0.7043
vn 0.2054 0.7809 -0.5899
vn 0.1364 0.6980 -0.7030
vn 0.1690 0.7944 -0.5834
vn 0.1082 0.7046 -0.7013
vn 0.1324 0.8071 -0.5753
vn 0.3389 0.7899 -0.5111
vn 0.3686 0.8181 -0.4415
vn 0.3958 0.8095 -0.4336
vn 0.3074 0.8011 -0.5136
vn 0.3338 0.8306 -0.4457
vn 0.2983 0.7452 -0.5964
vn 0.3635 0.7828 -0.5051
vn 0.3195 0.7398 -0.5921
vn 0.3832 0.7790 -0.4963
vn 0.3362 0.7373 -0.5859
vn 0.3981 0.7775 -0.4869
vn 0.4166 0.8042 -0.4240
vn 0.4315 0.8013 -0.4143
vn 0.4488 0.8256 -0.3421
vn 0.4611 0.8192 -0.3410
vn 0.4677 0.8355 -0.2884
vn 0.4767 0.8277 -0.2961
vn 0.4294 0.8332 -0.3485
vn 0.4485 0.8449 -0.2914
vn 0.4283 0.8536 -0.2964
vn 0.2399 0.9528 -0.1862
vn 0.1854 0.9666 -0.1768
vn 0.1890 0.9706 -0.1490
vn 0.3948 0.8930 -0.2163
vn 0.4088 0.7772 -0.4784
vn 0.4417 0.7997 -0.4067
vn 0.4490 0.7991 -0.3999
vn 0.4162 0.7772 -0.4719
vn 0.4202 0.7780 -0.4671
vn 0.4202 0.7793 -0.4648
vn 0.4531 0.8003 -0.3927
vn 0.4526 0.8023 -0.3892
vn 0.4819 0.8144 -0.3233
vn 0.4888 0.8244 -0.2852
vn 0.4973 0.8182 -0.2886
vn 0.5056 0.8328 -0.2253
vn 0.4753 0.8141 -0.3337
vn 0.4886 0.8209 -0.2956
vn 0.4699 0.8166 -0.3353
vn 0.4852 0.8241 -0.2923
vn 0.1768 0.5393 -0.8233
vn 0.4012 0.7861 -0.4702
vn 0.3540 0.7415 -0.5700
vn 0.4540 0.8179 -0.3535
vn 0.4589 0.8217 -0.3380
vn 0.4496 0.8271 -0.3373
vn 0.4093 0.7818 -0.4705
vn 0.4391 0.8059 -0.3972
vn 0.4299 0.8109 -0.3970
vn 0.1612 0.5380 -0.8274
vn 0.1639 0.5362 -0.8280
vn 0.4450 0.8233 -0.3525
vn 0.4595 0.8198 -0.3418
vn 0.4588 0.8262 -0.3269
vn 0.4465 0.8044 -0.3920
vn 0.4157 0.7810 -0.4662
vn 0.2918 0.8460 -0.4462
vn 0.2465 0.8619 -0.4432
vn 0.2671 0.8925 -0.3634
vn 0.2174 0.9166 -0.3355
vn 0.1668 0.9292 -0.3299
vn 0.1994 0.8767 -0.4378
vn 0.1536 0.8899 -0.4295
vn 0.1872 0.8461 -0.4990
vn 0.1456 0.8593 -0.4904
vn 0.2295 0.8311 -0.5066
vn 0.2703 0.8157 -0.5114
vn 0.1554 0.5506 -0.8202
vn 0.1796 0.5882 -0.7885
vn 0.1945 0.5935 -0.7810
vn 0.1368 0.5453 -0.8270
vn 0.1824 0.5655 -0.8043
vn 0.1668 0.5584 -0.8126
vn 0.2093 0.5996 -0.7725
vn 0.2743 0.6742 -0.6857
vn 0.2596 0.6729 -0.6927
vn 0.2411 0.6743 -0.6980
vn 0.2045 0.5822 -0.7869
vn 0.1916 0.5755 -0.7950
vn 0.2089 0.5781 -0.7888
vn 0.1991 0.5806 -0.7895
vn 0.1015 0.5351 -0.8387
# 137 vertex normals

vt 0.6980 0.8030 0.0000
vt 0.6967 0.8046 0.0000
vt 0.6854 0.7967 0.0000
vt 0.7092 0.8108 0.0000
vt 0.7079 0.8125 0.0000
vt 0.6989 0.8014 0.0000
vt 0.7102 0.8092 0.0000
vt 0.6865 0.7951 0.0000
vt 0.6874 0.7935 0.0000
vt 0.6302 0.7501 0.0000
vt 0.6181 0.7435 0.0000
vt 0.6263 0.7457 0.0000
vt 0.6748 0.7872 0.0000
vt 0.6757 0.7855 0.0000
vt 0.6628 0.7794 0.0000
vt 0.6636 0.7777 0.0000
vt 0.6738 0.7890 0.0000
vt 0.6620 0.7814 0.0000
vt 0.6949 0.8064 0.0000
vt 0.6235 0.7424 0.0000
vt 0.6073 0.7363 0.0000
vt 0.6101 0.7298 0.0000
vt 0.6222 0.7349 0.0000
vt 0.6065 0.7383 0.0000
vt 0.5965 0.7313 0.0000
vt 0.5876 0.7202 0.0000
vt 0.5993 0.7248 0.0000
vt 0.7201 0.8183 0.0000
vt 0.7307 0.8250 0.0000
vt 0.7293 0.8271 0.0000
vt 0.7211 0.8166 0.0000
vt 0.7318 0.8229 0.0000
vt 0.7328 0.8261 0.0000
vt 0.7074 0.8153 0.0000
vt 0.7188 0.8201 0.0000
vt 0.7170 0.8221 0.0000
vt 0.7069 0.8150 0.0000
vt 0.5921 0.7457 0.0000
vt 0.6031 0.7496 0.0000
vt 0.6027 0.7537 0.0000
vt 0.5807 0.7464 0.0000
vt 0.5810 0.7426 0.0000
vt 0.5695 0.7438 0.0000
vt 0.5697 0.7403 0.0000
vt 0.6144 0.7543 0.0000
vt 0.6037 0.7468 0.0000
vt 0.6151 0.7516 0.0000
vt 0.6044 0.7445 0.0000
vt 0.6158 0.7494 0.0000
vt 0.5927 0.7428 0.0000
vt 0.5934 0.7404 0.0000
vt 0.5816 0.7395 0.0000
vt 0.5823 0.7371 0.0000
vt 0.5702 0.7372 0.0000
vt 0.5708 0.7348 0.0000
vt 0.6285 0.7537 0.0000
vt 0.6293 0.7518 0.0000
vt 0.6414 0.7591 0.0000
vt 0.6165 0.7474 0.0000
vt 0.6173 0.7454 0.0000
vt 0.6277 0.7555 0.0000
vt 0.6406 0.7608 0.0000
vt 0.6397 0.7625 0.0000
vt 0.6526 0.7683 0.0000
vt 0.6517 0.7699 0.0000
vt 0.6644 0.7761 0.0000
vt 0.6534 0.7667 0.0000
vt 0.6653 0.7746 0.0000
vt 0.6542 0.7651 0.0000
vt 0.6661 0.7730 0.0000
vt 0.6551 0.7637 0.0000
vt 0.6671 0.7716 0.0000
vt 0.6422 0.7575 0.0000
vt 0.6432 0.7560 0.0000
vt 0.6311 0.7485 0.0000
vt 0.5853 0.7270 0.0000
vt 0.5729 0.7240 0.0000
vt 0.5743 0.7169 0.0000
vt 0.6221 0.7385 0.0000
vt 0.6765 0.7840 0.0000
vt 0.6774 0.7824 0.0000
vt 0.6893 0.7904 0.0000
vt 0.6884 0.7920 0.0000
vt 0.6999 0.7998 0.0000
vt 0.7112 0.8075 0.0000
vt 0.7010 0.7983 0.0000
vt 0.7124 0.8059 0.0000
vt 0.7022 0.7968 0.0000
vt 0.7136 0.8044 0.0000
vt 0.7034 0.7954 0.0000
vt 0.7149 0.8028 0.0000
vt 0.6904 0.7889 0.0000
vt 0.6915 0.7874 0.0000
vt 0.6784 0.7809 0.0000
vt 0.6794 0.7794 0.0000
vt 0.7060 0.8143 0.0000
vt 0.7348 0.8216 0.0000
vt 0.7339 0.8239 0.0000
vt 0.7344 0.8168 0.0000
vt 0.7353 0.8150 0.0000
vt 0.7366 0.8156 0.0000
vt 0.7327 0.8208 0.0000
vt 0.7336 0.8188 0.0000
vt 0.7354 0.8194 0.0000
vt 0.7292 0.8310 0.0000
vt 0.7271 0.8295 0.0000
vt 0.7361 0.8174 0.0000
vt 0.7244 0.8115 0.0000
vt 0.7256 0.8098 0.0000
vt 0.7232 0.8131 0.0000
vt 0.7222 0.8148 0.0000
vt 0.6058 0.7403 0.0000
vt 0.5949 0.7359 0.0000
vt 0.5957 0.7335 0.0000
vt 0.5844 0.7295 0.0000
vt 0.5723 0.7268 0.0000
vt 0.5836 0.7321 0.0000
vt 0.5718 0.7296 0.0000
vt 0.5829 0.7346 0.0000
vt 0.5713 0.7322 0.0000
vt 0.5941 0.7382 0.0000
vt 0.6051 0.7424 0.0000
vt 0.6255 0.7638 0.0000
vt 0.6262 0.7602 0.0000
vt 0.6381 0.7668 0.0000
vt 0.6139 0.7583 0.0000
vt 0.6494 0.7768 0.0000
vt 0.6374 0.7700 0.0000
vt 0.6501 0.7739 0.0000
vt 0.6509 0.7717 0.0000
vt 0.6389 0.7644 0.0000
vt 0.6269 0.7576 0.0000
vt 0.6727 0.7910 0.0000
vt 0.6612 0.7838 0.0000
vt 0.6839 0.7985 0.0000
vt 0.7313 0.8285 0.0000
vt 0.5917 0.7497 0.0000
# 137 texture coords

g H611_181C_L_DaS_H611_181C_L
usemtl paint_whiteSG
s 1
f 1/1/1 2/2/2 3/3/3 
f 1/1/1 4/4/4 5/5/5 
f 1/1/1 6/6/6 7/7/7 
f 1/1/1 8/8/8 9/9/9 
f 10/10/10 11/11/11 12/12/12 
f 13/13/13 8/8/8 3/3/3 
f 13/13/13 14/14/14 9/9/9 
f 13/13/13 15/15/15 16/16/16 
f 13/13/13 17/17/17 18/18/18 
f 19/19/19 2/2/2 5/5/5 
f 20/20/20 12/12/12 11/11/11 
f 21/21/21 22/22/22 23/23/23 
f 11/11/11 24/24/24 21/21/21 
f 22/22/22 21/21/21 25/25/25 
f 26/26/26 27/27/27 25/25/25 
f 28/28/28 29/29/29 30/30/30 
f 28/28/28 31/31/31 32/32/32 
f 30/30/30 29/29/29 33/33/33 
f 28/28/28 4/4/4 7/7/7 
f 34/34/34 5/5/5 35/35/35 
f 28/28/28 35/35/35 5/5/5 
f 36/36/36 35/35/35 30/30/30 
f 34/34/34 37/37/37 5/5/5 
f 38/38/38 39/39/39 40/40/40 
f 41/41/41 42/42/42 38/38/38 
f 41/41/41 43/43/43 44/44/44 
f 40/40/40 39/39/39 45/45/45 
f 46/46/46 39/39/39 38/38/38 
f 46/46/46 47/47/47 45/45/45 
f 46/46/46 48/48/48 49/49/49 
f 46/46/46 50/50/50 51/51/51 
f 52/52/52 50/50/50 38/38/38 
f 52/52/52 53/53/53 51/51/51 
f 52/52/52 54/54/54 55/55/55 
f 52/52/52 42/42/42 44/44/44 
f 56/56/56 57/57/57 58/58/58 
f 56/56/56 59/59/59 60/60/60 
f 56/56/56 61/61/61 49/49/49 
f 56/56/56 62/62/62 63/63/63 
f 64/64/64 62/62/62 58/58/58 
f 64/64/64 65/65/65 63/63/63 
f 64/64/64 66/66/66 16/16/16 
f 64/64/64 67/67/67 68/68/68 
f 69/69/69 67/67/67 58/58/58 
f 69/69/69 70/70/70 68/68/68 
f 69/69/69 71/71/71 72/72/72 
f 69/69/69 73/73/73 74/74/74 
f 10/10/10 73/73/73 58/58/58 
f 10/10/10 75/75/75 74/74/74 
f 76/76/76 77/77/77 78/78/78 
f 79/79/79 20/20/20 11/11/11 
f 10/10/10 57/57/57 60/60/60 
f 80/80/80 81/81/81 82/82/82 
f 80/80/80 66/66/66 68/68/68 
f 80/80/80 14/14/14 16/16/16 
f 80/80/80 83/83/83 9/9/9 
f 84/84/84 83/83/83 82/82/82 
f 84/84/84 6/6/6 9/9/9 
f 84/84/84 85/85/85 7/7/7 
f 84/84/84 86/86/86 87/87/87 
f 88/88/88 86/86/86 82/82/82 
f 88/88/88 89/89/89 87/87/87 
f 88/88/88 90/90/90 91/91/91 
f 88/88/88 92/92/92 93/93/93 
f 94/94/94 92/92/92 82/82/82 
f 94/94/94 95/95/95 93/93/93 
f 94/94/94 70/70/70 72/72/72 
f 94/94/94 81/81/81 68/68/68 
f 37/37/37 96/96/96 5/5/5 
f 97/97/97 98/98/98 32/32/32 
f 99/99/99 100/100/100 101/101/101 
f 29/29/29 32/32/32 98/98/98 
f 102/102/102 103/103/103 104/104/104 
f 105/105/105 106/106/106 30/30/30 
f 107/107/107 104/104/104 103/103/103 
f 108/108/108 99/99/99 103/103/103 
f 108/108/108 109/109/109 100/100/100 
f 108/108/108 89/89/89 91/91/91 
f 108/108/108 110/110/110 87/87/87 
f 111/111/111 110/110/110 103/103/103 
f 111/111/111 85/85/85 87/87/87 
f 111/111/111 31/31/31 7/7/7 
f 111/111/111 102/102/102 32/32/32 
f 24/24/24 112/112/112 113/113/113 
f 24/24/24 11/11/11 60/60/60 
f 24/24/24 114/114/114 25/25/25 
f 115/115/115 114/114/114 113/113/113 
f 115/115/115 76/76/76 25/25/25 
f 115/115/115 116/116/116 77/77/77 
f 115/115/115 117/117/117 118/118/118 
f 119/119/119 117/117/117 113/113/113 
f 119/119/119 120/120/120 118/118/118 
f 119/119/119 53/53/53 55/55/55 
f 119/119/119 121/121/121 51/51/51 
f 122/122/122 121/121/121 113/113/113 
f 122/122/122 48/48/48 51/51/51 
f 122/122/122 59/59/59 49/49/49 
f 122/122/122 112/112/112 60/60/60 
f 123/123/123 124/124/124 125/125/125 
f 123/123/123 126/126/126 45/45/45 
f 127/127/127 128/128/128 125/125/125 
f 127/127/127 129/129/129 18/18/18 
f 130/130/130 129/129/129 125/125/125 
f 130/130/130 15/15/15 18/18/18 
f 130/130/130 65/65/65 16/16/16 
f 130/130/130 131/131/131 63/63/63 
f 132/132/132 131/131/131 125/125/125 
f 132/132/132 61/61/61 63/63/63 
f 132/132/132 47/47/47 49/49/49 
f 132/132/132 124/124/124 45/45/45 
f 133/133/133 17/17/17 3/3/3 
f 133/133/133 134/134/134 18/18/18 
f 19/19/19 135/135/135 3/3/3 
f 8/8/8 1/1/1 3/3/3 
f 2/2/2 1/1/1 5/5/5 
f 4/4/4 1/1/1 7/7/7 
f 6/6/6 1/1/1 9/9/9 
f 75/75/75 10/10/10 12/12/12 
f 17/17/17 13/13/13 3/3/3 
f 8/8/8 13/13/13 9/9/9 
f 14/14/14 13/13/13 16/16/16 
f 15/15/15 13/13/13 18/18/18 
f 96/96/96 19/19/19 5/5/5 
f 79/79/79 21/21/21 23/23/23 
f 79/79/79 11/11/11 21/21/21 
f 27/27/27 22/22/22 25/25/25 
f 76/76/76 26/26/26 25/25/25 
f 35/35/35 28/28/28 30/30/30 
f 29/29/29 28/28/28 32/32/32 
f 136/136/136 30/30/30 33/33/33 
f 31/31/31 28/28/28 7/7/7 
f 36/36/36 34/34/34 35/35/35 
f 4/4/4 28/28/28 5/5/5 
f 106/106/106 36/36/36 30/30/30 
f 137/137/137 38/38/38 40/40/40 
f 137/137/137 41/41/41 38/38/38 
f 42/42/42 41/41/41 44/44/44 
f 126/126/126 40/40/40 45/45/45 
f 50/50/50 46/46/46 38/38/38 
f 39/39/39 46/46/46 45/45/45 
f 47/47/47 46/46/46 49/49/49 
f 48/48/48 46/46/46 51/51/51 
f 42/42/42 52/52/52 38/38/38 
f 50/50/50 52/52/52 51/51/51 
f 53/53/53 52/52/52 55/55/55 
f 54/54/54 52/52/52 44/44/44 
f 62/62/62 56/56/56 58/58/58 
f 57/57/57 56/56/56 60/60/60 
f 59/59/59 56/56/56 49/49/49 
f 61/61/61 56/56/56 63/63/63 
f 67/67/67 64/64/64 58/58/58 
f 62/62/62 64/64/64 63/63/63 
f 65/65/65 64/64/64 16/16/16 
f 66/66/66 64/64/64 68/68/68 
f 73/73/73 69/69/69 58/58/58 
f 67/67/67 69/69/69 68/68/68 
f 70/70/70 69/69/69 72/72/72 
f 71/71/71 69/69/69 74/74/74 
f 57/57/57 10/10/10 58/58/58 
f 73/73/73 10/10/10 74/74/74 
f 26/26/26 76/76/76 78/78/78 
f 11/11/11 10/10/10 60/60/60 
f 83/83/83 80/80/80 82/82/82 
f 81/81/81 80/80/80 68/68/68 
f 66/66/66 80/80/80 16/16/16 
f 14/14/14 80/80/80 9/9/9 
f 86/86/86 84/84/84 82/82/82 
f 83/83/83 84/84/84 9/9/9 
f 6/6/6 84/84/84 7/7/7 
f 85/85/85 84/84/84 87/87/87 
f 92/92/92 88/88/88 82/82/82 
f 86/86/86 88/88/88 87/87/87 
f 89/89/89 88/88/88 91/91/91 
f 90/90/90 88/88/88 93/93/93 
f 81/81/81 94/94/94 82/82/82 
f 92/92/92 94/94/94 93/93/93 
f 95/95/95 94/94/94 72/72/72 
f 70/70/70 94/94/94 68/68/68 
f 102/102/102 97/97/97 32/32/32 
f 107/107/107 99/99/99 101/101/101 
f 33/33/33 29/29/29 98/98/98 
f 97/97/97 102/102/102 104/104/104 
f 136/136/136 105/105/105 30/30/30 
f 99/99/99 107/107/107 103/103/103 
f 110/110/110 108/108/108 103/103/103 
f 99/99/99 108/108/108 100/100/100 
f 109/109/109 108/108/108 91/91/91 
f 89/89/89 108/108/108 87/87/87 
f 102/102/102 111/111/111 103/103/103 
f 110/110/110 111/111/111 87/87/87 
f 85/85/85 111/111/111 7/7/7 
f 31/31/31 111/111/111 32/32/32 
f 114/114/114 24/24/24 113/113/113 
f 112/112/112 24/24/24 60/60/60 
f 21/21/21 24/24/24 25/25/25 
f 117/117/117 115/115/115 113/113/113 
f 114/114/114 115/115/115 25/25/25 
f 76/76/76 115/115/115 77/77/77 
f 116/116/116 115/115/115 118/118/118 
f 121/121/121 119/119/119 113/113/113 
f 117/117/117 119/119/119 118/118/118 
f 120/120/120 119/119/119 55/55/55 
f 53/53/53 119/119/119 51/51/51 
f 112/112/112 122/122/122 113/113/113 
f 121/121/121 122/122/122 51/51/51 
f 48/48/48 122/122/122 49/49/49 
f 59/59/59 122/122/122 60/60/60 
f 128/128/128 123/123/123 125/125/125 
f 124/124/124 123/123/123 45/45/45 
f 129/129/129 127/127/127 125/125/125 
f 134/134/134 127/127/127 18/18/18 
f 131/131/131 130/130/130 125/125/125 
f 129/129/129 130/130/130 18/18/18 
f 15/15/15 130/130/130 16/16/16 
f 65/65/65 130/130/130 63/63/63 
f 124/124/124 132/132/132 125/125/125 
f 131/131/131 132/132/132 63/63/63 
f 61/61/61 132/132/132 49/49/49 
f 47/47/47 132/132/132 45/45/45 
f 135/135/135 133/133/133 3/3/3 
f 17/17/17 133/133/133 18/18/18 
f 2/2/2 19/19/19 3/3/3 
# 222 faces

