# 3ds Max Wavefront OBJ Exporter v0.97b - (c)2007 guruware
# File Created: 23.11.2015 10:50:40

mtllib H611_FLOR_C.mtl

#
# object H611_FLOR_C_N_H611_FLOR_C
#

v  205.8437 -57.0671 -65.0961
v  206.5750 -57.0671 -93.4282
v  207.3581 -57.0671 -93.3944
v  -261.5594 -47.3710 -34.9479
v  -193.2688 -55.4181 -65.0961
v  -193.2688 -55.4181 0.0000
v  -258.9387 -47.6799 -65.5566
v  -233.4969 -50.6778 -91.6993
v  -228.1236 -51.3110 -91.9658
v  -222.8053 -51.9377 -92.1514
v  -259.3657 -47.6295 -62.1845
v  -254.3233 -48.2237 -82.1328
v  -242.8817 -49.5719 -90.7686
v  -238.5436 -50.0831 -91.3131
v  -194.1523 -55.3140 -92.8231
v  -193.2689 -55.4181 -92.8325
v  -202.6468 -54.3131 -92.6432
v  -199.0839 -54.7329 -92.7290
v  -206.1996 -53.8944 -92.5604
v  -196.1987 -55.0729 -92.7931
v  205.8437 -57.0671 0.0000
v  254.8118 -57.0671 -2.8281
v  254.8192 -57.0671 -1.6969
v  254.8228 -57.0671 -1.1312
v  254.8266 -57.0671 -0.5656
v  254.8302 -57.0671 0.0000
v  -260.2231 -47.5285 -53.5295
v  -259.7892 -47.5796 -58.2269
v  -253.0357 -48.3754 -84.5816
v  -256.8577 -47.9251 -75.9304
v  -255.8937 -48.0387 -78.5819
v  -257.4822 -47.8515 -73.6159
v  -246.1295 -49.1892 -90.0272
v  -262.5423 -47.2552 0.0000
v  -262.5058 -47.2595 -7.0086
v  -248.5277 -48.9067 -89.0633
v  -251.7398 -48.5281 -86.3660
v  -260.6814 -47.4745 -47.9380
v  -261.1360 -47.4209 -41.6712
v  -262.3929 -47.2728 -14.0124
v  -262.1999 -47.2956 -21.0067
v  -261.9232 -47.3282 -27.9868
v  -258.4941 -47.7323 -68.4974
v  -258.0182 -47.7883 -71.1610
v  225.1298 -57.0671 -88.7837
v  226.5068 -57.0671 -87.9987
v  223.7216 -57.0671 -89.4827
v  239.4928 -57.0671 -72.0778
v  241.0587 -57.0671 -69.0730
v  -104.9879 -60.7222 -65.0961
v  -104.9879 -60.7222 0.0000
v  220.8436 -57.0671 -90.6726
v  222.2901 -57.0671 -90.1082
v  213.4213 -57.0671 -92.7025
v  209.9104 -57.0671 -93.1834
v  251.1781 -57.0671 -40.2201
v  251.8066 -57.0671 -37.0680
v  116.6093 -60.7222 -65.0961
v  254.7469 -57.0671 -5.4864
v  254.6315 -57.0671 -8.1445
v  254.4856 -57.0671 -11.1676
v  254.3090 -57.0671 -14.3940
v  254.1010 -57.0671 -17.6615
v  253.8548 -57.0671 -20.9489
v  253.5637 -57.0671 -24.2350
v  253.2208 -57.0671 -27.4984
v  -217.9240 -52.5128 -92.2946
v  -209.5914 -53.4947 -92.4901
v  -213.5094 -53.0330 -92.4044
v  252.3508 -57.0671 -33.9041
v  252.8194 -57.0671 -30.7179
v  235.1716 -57.0671 -79.3597
v  236.4891 -57.0671 -77.3052
v  250.4566 -57.0671 -43.3714
v  249.6391 -57.0671 -46.5322
v  248.7222 -57.0671 -49.7132
v  247.7028 -57.0671 -52.9249
v  246.5775 -57.0671 -56.1778
v  245.3485 -57.0671 -59.4455
v  244.0177 -57.0671 -62.7016
v  242.5871 -57.0671 -65.9196
v  237.9495 -57.0671 -74.8498
v  207.3582 -57.0671 -93.3944
v  233.9506 -57.0671 -81.0872
v  232.7790 -57.0671 -82.5616
v  231.6102 -57.0671 -83.8565
v  230.3974 -57.0671 -85.0460
v  219.3898 -57.0671 -91.1882
v  205.8436 -57.0671 -93.4510
v  229.1418 -57.0671 -86.1316
v  216.4443 -57.0671 -92.0611
v  -104.9879 -60.7222 -87.2577
v  -103.9413 -60.7222 -87.2577
v  -11.5991 -60.7222 -87.2577
v  -19.7525 -60.7222 -87.2577
v  -28.0397 -60.7222 -87.2577
v  -36.4013 -60.7222 -87.2577
v  -44.8169 -60.7222 -87.2577
v  -53.2661 -60.7222 -87.2577
v  -61.7283 -60.7222 -87.2577
v  -70.1833 -60.7222 -87.2577
v  -78.1874 -60.7222 -87.2577
v  -85.2974 -60.7222 -87.2577
v  -91.0698 -60.7222 -87.2577
v  -95.0611 -60.7222 -87.2577
v  -97.6996 -60.7222 -87.2577
v  -99.4134 -60.7222 -87.2577
v  -101.7798 -60.7222 -87.2577
v  -3.6387 -60.7222 -87.2577
v  4.0695 -60.7222 -87.2577
v  11.4661 -60.7222 -87.2577
v  18.5728 -60.7222 -87.2577
v  25.4109 -60.7222 -87.2577
v  32.0021 -60.7222 -87.2577
v  38.3680 -60.7222 -87.2577
v  44.6211 -60.7222 -87.2577
v  50.8740 -60.7222 -87.2577
v  57.2393 -60.7222 -87.2577
v  63.8297 -60.7222 -87.2577
v  70.5252 -60.7222 -87.2577
v  77.2058 -60.7222 -87.2577
v  83.7516 -60.7222 -87.2577
v  90.0425 -60.7222 -87.2577
v  95.8418 -60.7222 -87.2577
v  100.9128 -60.7222 -87.2577
v  105.0187 -60.7222 -87.2577
v  107.9228 -60.7222 -87.2577
v  111.3133 -60.7222 -87.2577
v  113.4598 -60.7222 -87.2577
v  115.5642 -60.7222 -87.2577
v  116.6093 -60.7222 -87.2577
v  227.8445 -57.0671 -87.1153
v  116.6093 -60.7222 0.0000
v  -250.3175 -48.6958 -87.8514
v  205.8437 -57.0671 65.0961
v  207.3581 -57.0671 93.3944
v  206.5750 -57.0671 93.4282
v  -261.5594 -47.3710 34.9479
v  -193.2688 -55.4181 65.0961
v  -258.9387 -47.6799 65.5566
v  -228.1236 -51.3110 91.9658
v  -233.4969 -50.6778 91.6993
v  -222.8053 -51.9377 92.1514
v  -259.3657 -47.6295 62.1845
v  -254.3233 -48.2237 82.1328
v  -238.5436 -50.0831 91.3131
v  -242.8817 -49.5719 90.7686
v  -194.1523 -55.3140 92.8231
v  -193.2689 -55.4181 92.8325
v  -202.6468 -54.3131 92.6432
v  -199.0839 -54.7329 92.7290
v  -206.1996 -53.8944 92.5604
v  -196.1987 -55.0729 92.7931
v  254.8192 -57.0671 1.6969
v  254.8118 -57.0671 2.8281
v  254.8266 -57.0671 0.5656
v  254.8228 -57.0671 1.1312
v  -260.2231 -47.5285 53.5295
v  -259.7892 -47.5796 58.2269
v  -253.0357 -48.3754 84.5816
v  -256.8577 -47.9251 75.9304
v  -255.8937 -48.0387 78.5819
v  -257.4822 -47.8515 73.6159
v  -246.1295 -49.1892 90.0272
v  -262.5058 -47.2595 7.0086
v  -248.5277 -48.9067 89.0633
v  -251.7398 -48.5281 86.3660
v  -260.6814 -47.4745 47.9380
v  -261.1360 -47.4209 41.6712
v  -262.1999 -47.2956 21.0067
v  -262.3929 -47.2728 14.0124
v  -261.9232 -47.3282 27.9868
v  -258.4941 -47.7323 68.4974
v  -258.0182 -47.7883 71.1610
v  226.5068 -57.0671 87.9987
v  225.1298 -57.0671 88.7837
v  223.7216 -57.0671 89.4827
v  241.0587 -57.0671 69.0730
v  239.4928 -57.0671 72.0778
v  -104.9879 -60.7222 65.0961
v  222.2901 -57.0671 90.1082
v  220.8436 -57.0671 90.6726
v  213.4213 -57.0671 92.7025
v  209.9104 -57.0671 93.1834
v  251.1781 -57.0671 40.2201
v  251.8066 -57.0671 37.0680
v  116.6093 -60.7222 65.0961
v  254.7469 -57.0671 5.4864
v  254.6315 -57.0671 8.1445
v  254.4856 -57.0671 11.1676
v  254.3090 -57.0671 14.3940
v  254.1010 -57.0671 17.6615
v  253.8548 -57.0671 20.9489
v  253.5637 -57.0671 24.2350
v  253.2208 -57.0671 27.4984
v  -217.9240 -52.5128 92.2946
v  -209.5914 -53.4947 92.4901
v  -213.5094 -53.0330 92.4044
v  252.8194 -57.0671 30.7179
v  252.3508 -57.0671 33.9041
v  236.4891 -57.0671 77.3052
v  235.1716 -57.0671 79.3597
v  250.4566 -57.0671 43.3714
v  249.6391 -57.0671 46.5322
v  248.7222 -57.0671 49.7132
v  247.7028 -57.0671 52.9249
v  246.5775 -57.0671 56.1778
v  245.3485 -57.0671 59.4455
v  244.0177 -57.0671 62.7016
v  242.5871 -57.0671 65.9196
v  237.9495 -57.0671 74.8498
v  207.3582 -57.0671 93.3944
v  233.9506 -57.0671 81.0872
v  232.7790 -57.0671 82.5616
v  231.6102 -57.0671 83.8565
v  230.3974 -57.0671 85.0460
v  219.3898 -57.0671 91.1882
v  205.8436 -57.0671 93.4510
v  229.1418 -57.0671 86.1316
v  216.4443 -57.0671 92.0611
v  -104.9879 -60.7222 87.2577
v  -103.9413 -60.7222 87.2577
v  -11.5991 -60.7222 87.2577
v  -19.7525 -60.7222 87.2577
v  -28.0397 -60.7222 87.2577
v  -36.4013 -60.7222 87.2577
v  -44.8169 -60.7222 87.2577
v  -53.2661 -60.7222 87.2577
v  -61.7283 -60.7222 87.2577
v  -70.1833 -60.7222 87.2577
v  -78.1874 -60.7222 87.2577
v  -85.2974 -60.7222 87.2577
v  -91.0698 -60.7222 87.2577
v  -95.0611 -60.7222 87.2577
v  -97.6996 -60.7222 87.2577
v  -99.4134 -60.7222 87.2577
v  -101.7798 -60.7222 87.2577
v  -3.6387 -60.7222 87.2577
v  4.0695 -60.7222 87.2577
v  11.4661 -60.7222 87.2577
v  18.5728 -60.7222 87.2577
v  25.4109 -60.7222 87.2577
v  32.0021 -60.7222 87.2577
v  38.3680 -60.7222 87.2577
v  44.6211 -60.7222 87.2577
v  50.8740 -60.7222 87.2577
v  57.2393 -60.7222 87.2577
v  63.8297 -60.7222 87.2577
v  70.5252 -60.7222 87.2577
v  77.2058 -60.7222 87.2577
v  83.7516 -60.7222 87.2577
v  90.0425 -60.7222 87.2577
v  95.8418 -60.7222 87.2577
v  100.9128 -60.7222 87.2577
v  105.0187 -60.7222 87.2577
v  107.9228 -60.7222 87.2577
v  111.3133 -60.7222 87.2577
v  113.4598 -60.7222 87.2577
v  115.5642 -60.7222 87.2577
v  116.6093 -60.7222 87.2577
v  227.8445 -57.0671 87.1153
v  -250.3175 -48.6958 87.8514
# 262 vertices

vn 0.0300 -0.9995 -0.0000
vn 0.0000 -1.0000 -0.0000
vn -0.1170 -0.9931 -0.0000
vn -0.0844 -0.9964 -0.0000
vn -0.0807 -0.9967 -0.0000
vn -0.1170 -0.9931 0.0000
vn 0.0319 -0.9995 -0.0000
vn 0.0000 -1.0000 0.0000
vn -0.1170 -0.9931 0.0001
vn -0.0000 -1.0000 -0.0000
vn -0.0164 -0.9999 -0.0000
vn -0.0171 -0.9999 -0.0000
vn -0.0000 -1.0000 0.0000
vn 0.0114 -0.9999 -0.0000
vn 0.0118 -0.9999 -0.0000
vn 0.0000 0.0000 -0.0000
vn -0.1170 -0.9931 -0.0001
# 17 vertex normals

g H611_FLOR_C_N_H611_FLOR_C
usemtl diffuse_black_plasticSG
s 1
f 1//1 2//2 3//2 
f 4//3 5//4 6//5 
f 7//3 8//6 9//3 
f 9//3 10//6 5//4 
f 11//3 9//3 5//4 
f 12//3 13//3 14//3 
f 15//3 16//3 5//4 
f 17//3 18//6 5//4 
f 17//6 17//3 5//4 
f 19//6 17//6 5//4 
f 20//6 20//3 5//4 
f 15//3 15//3 5//4 
f 21//7 22//2 23//2 
f 23//2 24//8 21//7 
f 24//8 25//2 21//7 
f 21//7 25//2 26//2 
f 27//3 28//3 5//4 
f 20//3 15//3 5//4 
f 12//6 29//6 13//3 
f 18//6 20//6 5//4 
f 30//6 31//3 14//3 
f 32//6 30//6 14//3 
f 33//3 13//3 29//6 
f 6//5 34//3 35//3 
f 36//9 33//3 37//6 
f 38//6 27//3 5//4 
f 4//3 39//3 5//4 
f 6//5 40//3 41//6 
f 6//5 35//3 40//3 
f 6//5 41//6 42//3 
f 43//3 44//6 8//6 
f 1//1 45//10 46//2 
f 1//1 47//2 45//10 
f 1//1 48//2 49//2 
f 5//4 50//11 51//12 
f 1//1 52//2 53//2 
f 1//1 54//2 54//2 
f 1//1 55//2 54//2 
f 56//2 57//13 21//7 
f 58//14 1//1 21//7 
f 21//7 59//8 22//2 
f 21//7 60//2 59//8 
f 21//7 61//2 60//2 
f 21//7 62//2 61//2 
f 21//7 63//2 62//2 
f 21//7 64//2 63//2 
f 21//7 65//10 64//2 
f 21//7 66//2 65//10 
f 39//3 38//6 5//4 
f 32//6 14//3 8//6 
f 10//6 67//3 5//4 
f 7//3 43//3 8//6 
f 68//6 19//6 5//4 
f 67//3 69//3 5//4 
f 69//3 68//6 5//4 
f 21//7 70//13 71//2 
f 21//7 57//13 70//13 
f 1//1 72//8 73//2 
f 1//1 74//2 56//2 
f 1//1 75//13 74//2 
f 1//1 76//13 75//13 
f 1//1 77//2 76//13 
f 1//1 78//2 77//2 
f 1//1 79//8 78//2 
f 1//1 80//2 79//8 
f 1//1 81//2 80//2 
f 1//1 49//2 81//2 
f 21//7 71//2 66//2 
f 1//1 82//2 48//2 
f 1//1 55//2 55//2 
f 1//1 83//2 55//2 
f 1//1 3//2 83//2 
f 1//1 53//2 47//2 
f 1//1 73//2 82//2 
f 1//1 84//8 72//8 
f 1//1 85//2 84//8 
f 1//1 86//8 85//2 
f 1//1 87//2 86//8 
f 1//1 88//2 52//2 
f 1//1 89//2 2//2 
f 1//1 90//10 87//2 
f 1//1 91//2 88//2 
f 92//2 93//2 50//11 
f 58//14 50//11 94//2 
f 94//2 50//11 95//8 
f 96//2 95//8 50//11 
f 97//8 96//2 50//11 
f 97//8 50//11 98//2 
f 98//2 50//11 99//8 
f 99//8 50//11 100//2 
f 50//11 101//2 100//2 
f 101//2 50//11 102//2 
f 102//2 50//11 103//2 
f 103//2 50//11 104//2 
f 104//2 50//11 105//2 
f 50//11 106//2 105//2 
f 106//2 50//11 107//2 
f 107//2 50//11 108//2 
f 50//11 93//2 108//2 
f 94//2 109//2 58//14 
f 109//2 110//2 58//14 
f 110//2 111//2 58//14 
f 111//2 112//2 58//14 
f 112//2 113//8 58//14 
f 113//8 114//8 58//14 
f 114//8 115//2 58//14 
f 115//2 116//2 58//14 
f 116//2 117//2 58//14 
f 117//2 118//2 58//14 
f 118//2 119//2 58//14 
f 119//2 120//2 58//14 
f 120//2 121//8 58//14 
f 121//8 122//2 58//14 
f 122//2 123//2 58//14 
f 123//2 124//2 58//14 
f 124//2 125//2 58//14 
f 125//2 126//2 58//14 
f 126//2 127//2 58//14 
f 127//2 128//2 58//14 
f 128//2 129//2 58//14 
f 129//2 130//2 58//14 
f 130//2 131//2 58//14 
f 1//1 132//8 90//10 
f 58//14 133//15 51//12 
f 1//1 91//16 91//2 
f 1//1 91//2 91//16 
f 1//1 46//2 132//8 
f 1//1 54//2 91//2 
f 42//3 4//3 6//5 
f 11//3 7//3 9//3 
f 28//3 11//3 5//4 
f 31//3 12//3 14//3 
f 12//3 12//6 13//3 
f 37//6 33//3 29//6 
f 134//6 36//9 37//6 
f 6//5 5//4 51//12 
f 1//1 56//2 21//7 
f 133//15 58//14 21//7 
f 44//6 32//6 8//6 
f 50//11 58//14 51//12 
f 135//1 136//2 137//2 
f 138//3 6//5 139//4 
f 140//3 141//3 142//3 
f 141//3 139//4 143//3 
f 144//3 139//4 141//3 
f 145//6 146//6 147//6 
f 148//3 139//4 149//3 
f 150//3 139//4 151//3 
f 150//3 139//4 150//3 
f 152//3 139//4 150//3 
f 153//3 139//4 153//3 
f 148//3 139//4 148//3 
f 154//8 155//8 21//7 
f 26//2 156//2 21//7 
f 154//8 21//7 157//2 
f 21//7 156//2 157//2 
f 158//3 139//4 159//3 
f 153//3 139//4 148//3 
f 145//3 147//6 160//3 
f 151//3 139//4 153//3 
f 161//3 146//6 162//6 
f 163//3 146//6 161//3 
f 164//6 160//3 147//6 
f 6//5 165//6 34//3 
f 166//17 167//3 164//6 
f 168//3 139//4 158//3 
f 138//3 139//4 169//3 
f 6//5 170//3 171//3 
f 6//5 171//3 165//6 
f 6//5 172//6 170//3 
f 173//3 142//3 174//6 
f 135//1 175//2 176//13 
f 135//1 176//13 177//2 
f 135//1 178//2 179//2 
f 139//4 51//12 180//11 
f 135//1 181//8 182//8 
f 135//1 183//2 183//2 
f 135//1 183//2 184//2 
f 185//2 21//7 186//10 
f 187//14 21//7 135//1 
f 21//7 155//8 188//2 
f 21//7 188//2 189//2 
f 21//7 189//2 190//2 
f 21//7 190//2 191//2 
f 21//7 191//2 192//2 
f 21//7 192//2 193//2 
f 21//7 193//2 194//10 
f 21//7 194//10 195//2 
f 169//3 139//4 168//3 
f 163//3 142//3 146//6 
f 143//3 139//4 196//6 
f 140//3 142//3 173//3 
f 197//3 139//4 152//3 
f 196//6 139//4 198//6 
f 198//6 139//4 197//3 
f 21//7 199//8 200//10 
f 21//7 200//10 186//10 
f 135//1 201//2 202//2 
f 135//1 185//2 203//8 
f 135//1 203//8 204//10 
f 135//1 204//10 205//10 
f 135//1 205//10 206//8 
f 135//1 206//8 207//8 
f 135//1 207//8 208//2 
f 135//1 208//2 209//2 
f 135//1 209//2 210//2 
f 135//1 210//2 178//2 
f 21//7 195//2 199//8 
f 135//1 179//2 211//2 
f 135//1 184//2 184//2 
f 135//1 184//2 212//2 
f 135//1 212//2 136//2 
f 135//1 177//2 181//8 
f 135//1 211//2 201//2 
f 135//1 202//2 213//2 
f 135//1 213//2 214//2 
f 135//1 214//2 215//2 
f 135//1 215//2 216//8 
f 135//1 182//8 217//2 
f 135//1 137//2 218//2 
f 135//1 216//8 219//13 
f 135//1 217//2 220//2 
f 221//2 180//11 222//2 
f 187//14 223//2 180//11 
f 223//2 224//2 180//11 
f 225//8 180//11 224//2 
f 226//2 180//11 225//8 
f 226//2 227//2 180//11 
f 227//2 228//2 180//11 
f 228//2 229//2 180//11 
f 180//11 229//2 230//8 
f 230//8 231//2 180//11 
f 231//2 232//8 180//11 
f 232//8 233//2 180//11 
f 233//2 234//8 180//11 
f 180//11 234//8 235//2 
f 235//2 236//2 180//11 
f 236//2 237//2 180//11 
f 180//11 237//2 222//2 
f 223//2 187//14 238//8 
f 238//8 187//14 239//2 
f 239//2 187//14 240//8 
f 240//8 187//14 241//2 
f 241//2 187//14 242//2 
f 242//2 187//14 243//2 
f 243//2 187//14 244//8 
f 244//8 187//14 245//2 
f 245//2 187//14 246//8 
f 246//8 187//14 247//8 
f 247//8 187//14 248//2 
f 248//2 187//14 249//8 
f 249//8 187//14 250//2 
f 250//2 187//14 251//2 
f 251//2 187//14 252//8 
f 252//8 187//14 253//2 
f 253//2 187//14 254//2 
f 254//2 187//14 255//8 
f 255//8 187//14 256//2 
f 256//2 187//14 257//2 
f 257//2 187//14 258//2 
f 258//2 187//14 259//2 
f 259//2 187//14 260//2 
f 135//1 219//13 261//2 
f 187//14 51//12 133//15 
f 135//1 220//2 220//16 
f 135//1 220//16 220//2 
f 135//1 261//2 175//2 
f 135//1 220//2 183//2 
f 172//6 6//5 138//3 
f 144//3 141//3 140//3 
f 159//3 139//4 144//3 
f 162//6 146//6 145//6 
f 145//6 147//6 145//3 
f 167//3 160//3 164//6 
f 262//3 167//3 166//17 
f 6//5 51//12 139//4 
f 135//1 21//7 185//2 
f 133//15 21//7 187//14 
f 174//6 142//3 163//3 
f 180//11 51//12 187//14 
# 280 faces

