# 3ds Max Wavefront OBJ Exporter v0.97b - (c)2007 guruware
# File Created: 16.10.2015 14:46:48

mtllib U236_17_345A_C.mtl

#
# object U236_17_345A_C_1_DaS_U236_17_345A_C
#

v  -24.2952 69.7121 -15.1347
v  -24.2989 69.1718 -22.6014
v  -31.2999 69.6738 -15.1348
v  -31.2987 69.1103 -22.6016
v  -31.2995 70.0540 -7.6028
v  -24.2903 70.0845 -7.6028
v  -31.2988 70.1983 -0.0382
v  -24.2876 70.2288 -0.0382
v  -31.2987 69.1103 22.5251
v  -24.2989 69.1717 22.5250
v  -31.2999 69.6738 15.0583
v  -24.2952 69.7121 15.0582
v  -31.2995 70.0540 7.5263
v  -24.2903 70.0845 7.5263
v  -17.2159 69.6698 -15.1347
v  -17.2235 69.1495 -22.6013
v  -17.2035 70.1797 -0.0382
v  -17.2077 70.0355 -7.6028
v  -3.3079 69.3034 -15.1342
v  3.3042 68.9564 -15.1329
v  -3.3124 68.7682 -22.6005
v  3.2983 68.4055 -22.5981
v  -3.3040 69.6741 -7.6026
v  3.3078 69.3321 -7.6020
v  -3.3021 69.8183 -0.0382
v  3.3091 69.4761 -0.0382
v  -10.1841 69.5374 -15.1347
v  -10.1905 69.0156 -22.6013
v  -10.1774 69.9036 -7.6028
v  -10.1740 70.0479 -0.0382
v  -17.2159 69.6698 15.0582
v  -17.2235 69.1495 22.5249
v  -17.2077 70.0355 7.5263
v  -3.3079 69.3035 15.0578
v  -3.3124 68.7682 22.5241
v  3.3042 68.9564 15.0564
v  3.2983 68.4055 22.5216
v  -3.3040 69.6741 7.5261
v  3.3078 69.3321 7.5255
v  -10.1841 69.5374 15.0582
v  -10.1905 69.0155 22.5249
v  -10.1774 69.9036 7.5263
# 42 vertices

vn -0.0002 0.9981 -0.0608
vn -0.0026 0.9964 -0.0842
vn -0.0110 0.9980 -0.0624
vn -0.0129 0.9962 -0.0866
vn -0.0101 0.9993 -0.0346
vn 0.0011 0.9994 -0.0342
vn -0.0099 1.0000 -0.0000
vn 0.0013 1.0000 -0.0000
vn -0.0129 0.9962 0.0866
vn -0.0026 0.9964 0.0842
vn -0.0110 0.9980 0.0624
vn -0.0002 0.9981 0.0608
vn -0.0101 0.9993 0.0346
vn 0.0011 0.9994 0.0342
vn 0.0121 0.9982 -0.0595
vn 0.0112 0.9965 -0.0825
vn 0.0128 0.9999 -0.0000
vn 0.0127 0.9993 -0.0339
vn 0.0433 0.9972 -0.0603
vn 0.0640 0.9961 -0.0614
vn 0.0450 0.9955 -0.0839
vn 0.0654 0.9942 -0.0857
vn 0.0425 0.9985 -0.0341
vn 0.0633 0.9974 -0.0343
vn 0.0424 0.9991 -0.0000
vn 0.0632 0.9980 -0.0000
vn 0.0265 0.9979 -0.0594
vn 0.0273 0.9962 -0.0825
vn 0.0261 0.9991 -0.0339
vn 0.0260 0.9997 -0.0000
vn 0.0121 0.9982 0.0595
vn 0.0112 0.9965 0.0825
vn 0.0127 0.9993 0.0339
vn 0.0433 0.9972 0.0603
vn 0.0450 0.9955 0.0839
vn 0.0640 0.9961 0.0614
vn 0.0654 0.9942 0.0857
vn 0.0425 0.9985 0.0341
vn 0.0633 0.9974 0.0343
vn 0.0265 0.9979 0.0594
vn 0.0273 0.9962 0.0825
vn 0.0261 0.9991 0.0339
# 42 vertex normals

vt 0.3825 0.5324 0.0000
vt 0.3825 0.5472 0.0000
vt 0.3686 0.5324 0.0000
vt 0.3686 0.5472 0.0000
vt 0.3686 0.5175 0.0000
vt 0.3825 0.5175 0.0000
vt 0.3686 0.5026 0.0000
vt 0.3825 0.5026 0.0000
vt 0.3686 0.4581 0.0000
vt 0.3825 0.4581 0.0000
vt 0.3686 0.4728 0.0000
vt 0.3825 0.4728 0.0000
vt 0.3686 0.4877 0.0000
vt 0.3825 0.4877 0.0000
vt 0.3965 0.5324 0.0000
vt 0.3966 0.5472 0.0000
vt 0.3965 0.5026 0.0000
vt 0.3965 0.5175 0.0000
vt 0.4240 0.5324 0.0000
vt 0.4371 0.5325 0.0000
vt 0.4242 0.5472 0.0000
vt 0.4372 0.5472 0.0000
vt 0.4239 0.5176 0.0000
vt 0.4370 0.5176 0.0000
vt 0.4239 0.5026 0.0000
vt 0.4370 0.5026 0.0000
vt 0.4104 0.5324 0.0000
vt 0.4105 0.5472 0.0000
vt 0.4104 0.5175 0.0000
vt 0.4104 0.5026 0.0000
vt 0.3965 0.4728 0.0000
vt 0.3966 0.4581 0.0000
vt 0.3965 0.4877 0.0000
vt 0.4240 0.4728 0.0000
vt 0.4242 0.4580 0.0000
vt 0.4371 0.4728 0.0000
vt 0.4372 0.4580 0.0000
vt 0.4239 0.4877 0.0000
vt 0.4370 0.4877 0.0000
vt 0.4104 0.4728 0.0000
vt 0.4105 0.4581 0.0000
vt 0.4104 0.4877 0.0000
# 42 texture coords

g U236_17_345A_C_1_DaS_U236_17_345A_C
usemtl paint_blueSG
s 1
f 1/1/1 2/2/2 3/3/3 
f 3/3/3 2/2/2 4/4/4 
f 3/3/3 5/5/5 1/1/1 
f 1/1/1 5/5/5 6/6/6 
f 7/7/7 8/8/8 5/5/5 
f 5/5/5 8/8/8 6/6/6 
f 9/9/9 10/10/10 11/11/11 
f 11/11/11 10/10/10 12/12/12 
f 11/11/11 12/12/12 13/13/13 
f 13/13/13 12/12/12 14/14/14 
f 7/7/7 13/13/13 8/8/8 
f 8/8/8 13/13/13 14/14/14 
s 4
f 15/15/15 16/16/16 1/1/1 
f 1/1/1 16/16/16 2/2/2 
f 17/17/17 18/18/18 8/8/8 
f 8/8/8 18/18/18 6/6/6 
f 1/1/1 6/6/6 15/15/15 
f 15/15/15 6/6/6 18/18/18 
f 19/19/19 20/20/20 21/21/21 
f 21/21/21 20/20/20 22/22/22 
f 23/23/23 24/24/24 19/19/19 
f 19/19/19 24/24/24 20/20/20 
f 25/25/25 26/26/26 23/23/23 
f 23/23/23 26/26/26 24/24/24 
f 15/15/15 27/27/27 16/16/16 
f 16/16/16 27/27/27 28/28/28 
f 21/21/21 28/28/28 19/19/19 
f 19/19/19 28/28/28 27/27/27 
f 15/15/15 18/18/18 27/27/27 
f 27/27/27 18/18/18 29/29/29 
f 17/17/17 30/30/30 18/18/18 
f 18/18/18 30/30/30 29/29/29 
f 25/25/25 23/23/23 30/30/30 
f 30/30/30 23/23/23 29/29/29 
f 19/19/19 27/27/27 23/23/23 
f 23/23/23 27/27/27 29/29/29 
f 31/31/31 12/12/12 32/32/32 
f 32/32/32 12/12/12 10/10/10 
f 33/33/33 14/14/14 31/31/31 
f 31/31/31 14/14/14 12/12/12 
f 17/17/17 8/8/8 33/33/33 
f 33/33/33 8/8/8 14/14/14 
f 34/34/34 35/35/35 36/36/36 
f 36/36/36 35/35/35 37/37/37 
f 25/25/25 38/38/38 26/26/26 
f 26/26/26 38/38/38 39/39/39 
f 36/36/36 39/39/39 34/34/34 
f 34/34/34 39/39/39 38/38/38 
f 40/40/40 41/41/41 34/34/34 
f 34/34/34 41/41/41 35/35/35 
f 31/31/31 32/32/32 40/40/40 
f 40/40/40 32/32/32 41/41/41 
f 31/31/31 40/40/40 33/33/33 
f 33/33/33 40/40/40 42/42/42 
f 34/34/34 38/38/38 40/40/40 
f 40/40/40 38/38/38 42/42/42 
f 25/25/25 30/30/30 38/38/38 
f 38/38/38 30/30/30 42/42/42 
f 17/17/17 33/33/33 30/30/30 
f 30/30/30 33/33/33 42/42/42 
# 60 faces

