# 3ds Max Wavefront OBJ Exporter v0.97b - (c)2007 guruware
# File Created: 13.11.2015 14:12:58

mtllib E233_181C_R.mtl

#
# object E233_181C_R_DaS_E233_181C_R
#

v  91.4757 52.8473 82.4959
v  90.7994 50.7254 84.9931
v  100.3377 46.9940 84.9021
v  99.7967 44.0910 87.7201
v  107.4385 38.7424 89.8590
v  108.0102 42.1645 86.7931
v  106.0831 35.8092 91.9134
v  104.9382 37.2384 91.2101
v  99.2800 42.7894 88.6563
v  100.2702 42.0244 88.9724
v  101.3345 41.0181 89.4323
v  102.4517 39.8543 89.9800
v  103.5815 38.7170 90.5069
v  97.8765 43.9514 88.1452
v  96.3531 45.2625 87.5593
v  94.5225 46.7590 86.9073
v  92.4564 48.2948 86.2707
v  90.2361 49.9449 85.5868
v  80.1957 57.7604 82.0747
v  81.0969 59.1969 79.8593
v  79.4272 57.0418 82.7593
v  69.1129 64.2678 79.3941
v  68.0622 63.6071 80.0727
v  70.2536 65.3279 77.3102
v  60.0015 70.6480 75.1044
v  58.9646 69.7470 77.1365
v  58.0328 69.1600 77.8968
v  49.1835 74.2441 75.3142
v  48.7396 73.4310 76.1284
v  50.0321 75.2445 73.2117
v  39.8857 79.3031 71.5567
v  39.1387 78.1303 73.7686
v  38.8530 77.0731 74.6887
v  50.6308 75.9752 70.6157
v  40.4452 80.0543 69.0067
v  70.9000 66.1936 74.5882
v  60.6562 71.3994 72.4556
v  91.8243 54.3977 79.5002
v  81.6055 60.3214 77.0222
v  108.3255 44.5776 83.4756
v  100.6238 49.0839 81.7210
v  107.4106 33.4528 93.3694
v  110.5229 37.4661 90.2809
v  112.7414 39.8304 87.5953
v  114.2058 41.5674 84.4410
v  50.5457 75.8288 70.5917
v  40.3895 79.9749 68.9831
v  70.7430 65.9154 74.5614
v  60.5367 71.1880 72.4305
v  91.5869 53.9829 79.4667
v  81.4079 59.9734 76.9927
v  108.0260 44.0542 83.4345
v  100.3521 48.6117 81.6830
v  113.8538 41.0216 84.3944
# 54 vertices

vn 0.3272 0.7538 0.5699
vn 0.2483 0.6608 0.7083
vn 0.2970 0.7116 0.6368
vn 0.2210 0.6233 0.7501
vn 0.1840 0.6075 0.7727
vn 0.2615 0.6938 0.6710
vn 0.1037 0.5496 0.8290
vn 0.1380 0.5250 0.8398
vn 0.1448 0.5388 0.8299
vn 0.1360 0.5242 0.8407
vn 0.1386 0.5289 0.8373
vn 0.1378 0.5267 0.8388
vn 0.1376 0.5256 0.8396
vn 0.1447 0.5378 0.8305
vn 0.1328 0.5288 0.8383
vn 0.1378 0.5324 0.8352
vn 0.1397 0.5337 0.8341
vn 0.1355 0.5361 0.8332
vn 0.2552 0.6966 0.6705
vn 0.3429 0.7946 0.5011
vn 0.1590 0.5845 0.7957
vn 0.2482 0.7197 0.6484
vn 0.1466 0.5893 0.7945
vn 0.3407 0.8215 0.4572
vn 0.3310 0.8448 0.4204
vn 0.2631 0.7626 0.5910
vn 0.1818 0.6572 0.7315
vn 0.2307 0.7794 0.5825
vn 0.1483 0.6582 0.7381
vn 0.2992 0.8624 0.4083
vn 0.2580 0.8703 0.4195
vn 0.1891 0.7704 0.6089
vn 0.1182 0.6347 0.7637
vn 0.3234 0.8886 0.3253
vn 0.2856 0.9004 0.3283
vn 0.3755 0.8545 0.3590
vn 0.3556 0.8726 0.3348
vn 0.3746 0.8077 0.4554
vn 0.3819 0.8350 0.3962
vn 0.3178 0.7560 0.5723
vn 0.3510 0.7726 0.5290
vn 0.0932 0.5608 0.8227
vn 0.1427 0.6137 0.7765
vn 0.2418 0.7212 0.6491
vn 0.2905 0.7686 0.5700
vn 0.1904 0.0497 -0.9805
vn 0.1886 0.0514 -0.9807
vn 0.1906 0.1537 -0.9696
vn 0.1819 0.1611 -0.9700
vn 0.2031 -0.0204 -0.9789
vn 0.2028 -0.0200 -0.9790
vn 0.1958 0.0055 -0.9806
vn 0.1950 0.0064 -0.9808
vn 0.2148 -0.0444 -0.9756
vn 0.2149 -0.0443 -0.9756
vn 0.2092 -0.0361 -0.9772
vn 0.2092 -0.0359 -0.9772
vn 0.1816 -0.0269 -0.9830
vn 0.1824 -0.0272 -0.9828
vn 0.2101 -0.0423 -0.9768
vn 0.1544 -0.0153 -0.9879
vn 0.1545 -0.0151 -0.9879
# 62 vertex normals

vt 0.6599 0.2566 0.0000
vt 0.6584 0.2507 0.0000
vt 0.6760 0.2459 0.0000
vt 0.6750 0.2386 0.0000
vt 0.6892 0.2301 0.0000
vt 0.6903 0.2382 0.0000
vt 0.6868 0.2227 0.0000
vt 0.6847 0.2253 0.0000
vt 0.6742 0.2356 0.0000
vt 0.6760 0.2342 0.0000
vt 0.6780 0.2323 0.0000
vt 0.6801 0.2302 0.0000
vt 0.6822 0.2281 0.0000
vt 0.6716 0.2378 0.0000
vt 0.6688 0.2402 0.0000
vt 0.6654 0.2430 0.0000
vt 0.6616 0.2458 0.0000
vt 0.6575 0.2489 0.0000
vt 0.6388 0.2638 0.0000
vt 0.6407 0.2685 0.0000
vt 0.6374 0.2620 0.0000
vt 0.6183 0.2759 0.0000
vt 0.6164 0.2742 0.0000
vt 0.6207 0.2799 0.0000
vt 0.6018 0.2899 0.0000
vt 0.5995 0.2861 0.0000
vt 0.5978 0.2845 0.0000
vt 0.5814 0.2944 0.0000
vt 0.5806 0.2924 0.0000
vt 0.5832 0.2985 0.0000
vt 0.5645 0.3056 0.0000
vt 0.5629 0.3014 0.0000
vt 0.5623 0.2991 0.0000
vt 0.5849 0.3032 0.0000
vt 0.5660 0.3101 0.0000
vt 0.6227 0.2848 0.0000
vt 0.6037 0.2947 0.0000
vt 0.6612 0.2627 0.0000
vt 0.6424 0.2738 0.0000
vt 0.6912 0.2452 0.0000
vt 0.6770 0.2527 0.0000
vt 0.6898 0.2212 0.0000
vt 0.6952 0.2299 0.0000
vt 0.6989 0.2356 0.0000
vt 0.7014 0.2402 0.0000
vt 0.5850 0.3035 0.0000
vt 0.5660 0.3103 0.0000
vt 0.6229 0.2854 0.0000
vt 0.6039 0.2951 0.0000
vt 0.6617 0.2635 0.0000
vt 0.6428 0.2744 0.0000
vt 0.6916 0.2462 0.0000
vt 0.6775 0.2535 0.0000
vt 0.7034 0.2411 0.0000
# 54 texture coords

g E233_181C_R_DaS_E233_181C_R
usemtl paint_whiteSG
s 1
f 1/1/1 2/2/2 3/3/3 
f 2/2/2 4/4/4 3/3/3 
f 5/5/5 6/6/6 4/4/4 
f 6/6/6 3/3/3 4/4/4 
f 7/7/7 5/5/5 8/8/8 
f 4/4/4 9/9/9 5/5/5 
f 9/9/9 10/10/10 5/5/5 
f 10/10/10 11/11/11 5/5/5 
f 11/11/11 12/12/12 5/5/5 
f 12/12/12 13/13/13 5/5/5 
f 5/5/5 13/13/13 8/8/8 
f 9/9/9 4/4/4 14/14/14 
f 4/4/4 2/2/2 14/14/14 
f 14/14/14 2/2/2 15/15/15 
f 15/15/15 2/2/2 16/16/16 
f 16/16/16 2/2/2 17/17/17 
f 17/17/17 2/2/2 18/18/18 
f 2/2/2 1/1/1 19/19/19 
f 1/1/1 20/20/20 19/19/19 
f 19/19/19 21/21/21 2/2/2 
f 21/21/21 18/18/18 2/2/2 
f 19/19/19 22/22/22 21/21/21 
f 22/22/22 23/23/23 21/21/21 
f 24/24/24 22/22/22 20/20/20 
f 22/22/22 19/19/19 20/20/20 
f 24/24/24 25/25/25 22/22/22 
f 25/25/25 26/26/26 22/22/22 
f 22/22/22 26/26/26 23/23/23 
f 26/26/26 27/27/27 23/23/23 
f 26/26/26 28/28/28 27/27/27 
f 28/28/28 29/29/29 27/27/27 
f 25/25/25 30/30/30 26/26/26 
f 30/30/30 28/28/28 26/26/26 
f 30/30/30 31/31/31 28/28/28 
f 31/31/31 32/32/32 28/28/28 
f 32/32/32 33/33/33 28/28/28 
f 33/33/33 29/29/29 28/28/28 
f 30/30/30 34/34/34 31/31/31 
f 34/34/34 35/35/35 31/31/31 
f 24/24/24 36/36/36 25/25/25 
f 36/36/36 37/37/37 25/25/25 
f 34/34/34 30/30/30 37/37/37 
f 30/30/30 25/25/25 37/37/37 
f 1/1/1 38/38/38 20/20/20 
f 38/38/38 39/39/39 20/20/20 
f 36/36/36 24/24/24 39/39/39 
f 24/24/24 20/20/20 39/39/39 
f 6/6/6 40/40/40 3/3/3 
f 40/40/40 41/41/41 3/3/3 
f 38/38/38 1/1/1 41/41/41 
f 1/1/1 3/3/3 41/41/41 
f 42/42/42 43/43/43 7/7/7 
f 43/43/43 5/5/5 7/7/7 
f 6/6/6 5/5/5 44/44/44 
f 5/5/5 43/43/43 44/44/44 
f 40/40/40 6/6/6 45/45/45 
f 6/6/6 44/44/44 45/45/45 
s 17
f 34/34/46 46/46/47 35/35/48 
f 46/46/47 47/47/49 35/35/48 
f 36/36/50 48/48/51 37/37/52 
f 48/48/51 49/49/53 37/37/52 
f 37/37/52 49/49/53 34/34/46 
f 49/49/53 46/46/47 34/34/46 
f 38/38/54 50/50/55 39/39/56 
f 50/50/55 51/51/57 39/39/56 
f 39/39/56 51/51/57 36/36/50 
f 51/51/57 48/48/51 36/36/50 
f 40/40/58 52/52/59 41/41/60 
f 52/52/59 53/53/60 41/41/60 
f 38/38/54 41/41/60 50/50/55 
f 41/41/60 53/53/60 50/50/55 
f 45/45/61 54/54/62 40/40/58 
f 54/54/62 52/52/59 40/40/58 
# 73 faces

#
# object E233_181C_R_DaS_E233_181C_R_E
#

v  107.4106 33.4528 93.3694
v  106.0831 35.8092 91.9134
v  107.3514 33.0428 92.7773
v  106.0083 35.4204 91.3096
v  104.9382 37.2384 91.2101
v  104.8366 36.8584 90.6039
v  103.5815 38.7170 90.5069
v  103.4787 38.3354 89.9019
v  102.4517 39.8543 89.9800
v  102.3474 39.4713 89.3762
v  101.3345 41.0181 89.4323
v  101.2291 40.6332 88.8299
v  100.2702 42.0244 88.9724
v  100.1632 41.6379 88.3713
v  99.2800 42.7894 88.6563
v  99.1739 42.4011 88.0562
v  97.8765 43.9514 88.1452
v  97.7729 43.5623 87.5451
v  96.3531 45.2625 87.5593
v  96.2500 44.8743 86.9586
v  94.5225 46.7590 86.9073
v  94.4201 46.3715 86.3060
v  92.4564 48.2948 86.2707
v  92.3548 47.9082 85.6687
v  90.2361 49.9449 85.5868
v  90.1298 49.5507 84.9907
v  79.4272 57.0418 82.7593
v  79.3170 56.6285 82.1770
v  68.0622 63.6071 80.0727
v  67.9443 63.1736 79.5069
v  58.0328 69.1600 77.8968
v  57.9101 68.6996 77.3539
v  48.7396 73.4310 76.1284
v  48.6342 72.9577 75.5928
v  38.8530 77.0731 74.6887
v  38.7697 76.6123 74.1385
v  110.5229 37.4661 90.2809
v  110.4221 37.0253 89.7202
v  112.7414 39.8304 87.5953
v  112.5678 39.3135 87.1285
v  114.2058 41.5674 84.4410
v  113.8538 41.0216 84.3944
# 42 vertices

vn -0.0572 -0.8189 0.5711
vn -0.8513 -0.3852 0.3561
vn -0.0440 -0.8188 0.5724
vn -0.8512 -0.3869 0.3546
vn -0.7789 -0.4642 0.4216
vn -0.7786 -0.4661 0.4201
vn -0.7425 -0.5023 0.4431
vn -0.7423 -0.5026 0.4432
vn -0.7346 -0.5081 0.4498
vn -0.7345 -0.5087 0.4492
vn -0.7236 -0.5172 0.4570
vn -0.7233 -0.5174 0.4572
vn -0.6652 -0.5687 0.4838
vn -0.6649 -0.5688 0.4841
vn -0.6396 -0.5889 0.4941
vn -0.6396 -0.5891 0.4938
vn -0.6634 -0.5704 0.4844
vn -0.6635 -0.5703 0.4843
vn -0.6607 -0.5738 0.4840
vn -0.6607 -0.5735 0.4843
vn -0.6308 -0.5990 0.4932
vn -0.6309 -0.5988 0.4934
vn -0.6095 -0.6156 0.4996
vn -0.6094 -0.6163 0.4988
vn -0.5834 -0.6254 0.5182
vn -0.5834 -0.6265 0.5169
vn -0.5322 -0.6396 0.5546
vn -0.5322 -0.6396 0.5547
vn -0.4923 -0.6381 0.5919
vn -0.4923 -0.6383 0.5918
vn -0.4473 -0.6296 0.6353
vn -0.4474 -0.6303 0.6345
vn -0.3811 -0.6549 0.6526
vn -0.3811 -0.6544 0.6531
vn -0.3472 -0.6924 0.6325
vn -0.3471 -0.6914 0.6336
vn 0.8383 -0.4915 0.2358
vn 0.8384 -0.4911 0.2363
vn 0.8591 -0.4736 0.1939
vn 0.8613 -0.4680 0.1979
vn 0.8339 -0.5451 0.0870
vn 0.8397 -0.5351 0.0927
# 42 vertex normals

vt 0.6898 0.2212 0.0000
vt 0.6868 0.2227 0.0000
vt 0.6909 0.2205 0.0000
vt 0.6867 0.2220 0.0000
vt 0.6847 0.2253 0.0000
vt 0.6845 0.2246 0.0000
vt 0.6822 0.2281 0.0000
vt 0.6820 0.2274 0.0000
vt 0.6801 0.2302 0.0000
vt 0.6799 0.2295 0.0000
vt 0.6780 0.2323 0.0000
vt 0.6778 0.2316 0.0000
vt 0.6760 0.2342 0.0000
vt 0.6758 0.2335 0.0000
vt 0.6742 0.2356 0.0000
vt 0.6740 0.2349 0.0000
vt 0.6716 0.2378 0.0000
vt 0.6714 0.2371 0.0000
vt 0.6688 0.2402 0.0000
vt 0.6686 0.2395 0.0000
vt 0.6654 0.2430 0.0000
vt 0.6652 0.2423 0.0000
vt 0.6616 0.2458 0.0000
vt 0.6614 0.2451 0.0000
vt 0.6575 0.2489 0.0000
vt 0.6573 0.2481 0.0000
vt 0.6374 0.2620 0.0000
vt 0.6372 0.2613 0.0000
vt 0.6164 0.2742 0.0000
vt 0.6162 0.2734 0.0000
vt 0.5978 0.2845 0.0000
vt 0.5976 0.2836 0.0000
vt 0.5806 0.2924 0.0000
vt 0.5804 0.2915 0.0000
vt 0.5623 0.2991 0.0000
vt 0.5621 0.2983 0.0000
vt 0.6952 0.2299 0.0000
vt 0.6962 0.2292 0.0000
vt 0.6989 0.2356 0.0000
vt 0.6999 0.2350 0.0000
vt 0.7014 0.2402 0.0000
vt 0.7034 0.2411 0.0000
# 42 texture coords

g E233_181C_R_DaS_E233_181C_R_E
usemtl paint_whiteSG
s 5
f 55/55/63 56/56/64 57/57/65 
f 56/56/64 58/58/66 57/57/65 
f 59/59/67 60/60/68 56/56/64 
f 60/60/68 58/58/66 56/56/64 
f 59/59/67 61/61/69 60/60/68 
f 61/61/69 62/62/70 60/60/68 
f 63/63/71 64/64/72 61/61/69 
f 64/64/72 62/62/70 61/61/69 
f 65/65/73 66/66/74 63/63/71 
f 66/66/74 64/64/72 63/63/71 
f 65/65/73 67/67/75 66/66/74 
f 67/67/75 68/68/76 66/66/74 
f 69/69/77 70/70/78 67/67/75 
f 70/70/78 68/68/76 67/67/75 
f 69/69/77 71/71/79 70/70/78 
f 71/71/79 72/72/80 70/70/78 
f 73/73/81 74/74/82 71/71/79 
f 74/74/82 72/72/80 71/71/79 
f 75/75/83 76/76/84 73/73/81 
f 76/76/84 74/74/82 73/73/81 
f 77/77/85 78/78/86 75/75/83 
f 78/78/86 76/76/84 75/75/83 
f 79/79/87 80/80/88 77/77/85 
f 80/80/88 78/78/86 77/77/85 
f 81/81/89 82/82/90 79/79/87 
f 82/82/90 80/80/88 79/79/87 
f 81/81/89 83/83/91 82/82/90 
f 83/83/91 84/84/92 82/82/90 
f 85/85/93 86/86/94 83/83/91 
f 86/86/94 84/84/92 83/83/91 
f 87/87/95 88/88/96 85/85/93 
f 88/88/96 86/86/94 85/85/93 
f 89/89/97 90/90/98 87/87/95 
f 90/90/98 88/88/96 87/87/95 
s 21
f 91/91/99 55/55/63 92/92/100 
f 55/55/63 57/57/65 92/92/100 
f 93/93/101 91/91/99 94/94/102 
f 91/91/99 92/92/100 94/94/102 
f 95/95/103 93/93/101 96/96/104 
f 93/93/101 94/94/102 96/96/104 
# 40 faces

