# 3ds Max Wavefront OBJ Exporter v0.97b - (c)2007 guruware
# File Created: 11.01.2016 14:28:37

mtllib Z187_304H_L.mtl

#
# object Z187_304H_L_DTaSI_Z187_304H_L
#

v  -126.7564 43.3958 -87.0826
v  -123.3521 43.3596 -87.1958
v  -127.0716 38.9283 -89.4908
v  -122.8405 38.7850 -89.6520
v  -148.5702 58.4015 -76.2385
v  -148.0934 59.3232 -75.6547
v  -139.7384 56.0562 -79.0585
v  -140.3483 62.6111 -74.4033
v  -124.0629 49.7189 -83.7739
v  -125.9687 49.6700 -83.7362
v  -124.6638 55.1927 -80.7785
v  -133.8222 49.3166 -83.4449
v  -132.0959 58.2429 -78.3342
v  -125.1602 60.2273 -77.6768
v  -144.7827 49.5513 -82.3985
v  -134.0528 43.4371 -86.6750
v  -126.0541 67.5565 -72.5877
v  -148.3966 59.0549 -75.8020
v  -148.5520 58.7545 -75.9923
v  -146.5500 53.6788 -79.7385
v  -134.1061 39.1532 -89.0797
v  -142.2095 43.4832 -86.2196
v  -140.4606 39.3563 -88.7083
# 23 vertices

vn -0.0399 0.4777 -0.8776
vn -0.0227 0.4726 -0.8810
vn -0.0303 0.4750 -0.8795
vn -0.0176 0.4714 -0.8817
vn -0.1118 0.5634 -0.8186
vn -0.1094 0.5693 -0.8148
vn -0.0836 0.5333 -0.8418
vn -0.0960 0.5677 -0.8176
vn -0.0282 0.4745 -0.8798
vn -0.0494 0.4778 -0.8771
vn -0.0677 0.5035 -0.8614
vn -0.0623 0.4952 -0.8665
vn -0.0804 0.5410 -0.8371
vn -0.0775 0.5471 -0.8335
vn -0.0750 0.5056 -0.8595
vn -0.0448 0.4864 -0.8726
vn -0.0888 0.5641 -0.8209
vn -0.1118 0.5724 -0.8123
vn -0.1042 0.5379 -0.8366
vn -0.0390 0.4867 -0.8727
vn -0.0593 0.5021 -0.8628
vn -0.0424 0.4981 -0.8661
# 22 vertex normals

vt 0.0876 0.9442 0.0000
vt 0.0980 0.9440 0.0000
vt 0.0871 0.9595 0.0000
vt 0.1000 0.9597 0.0000
vt 0.0205 0.8927 0.0000
vt 0.0217 0.8895 0.0000
vt 0.0467 0.9016 0.0000
vt 0.0436 0.8784 0.0000
vt 0.0949 0.9222 0.0000
vt 0.0891 0.9226 0.0000
vt 0.0916 0.9036 0.0000
vt 0.0656 0.9243 0.0000
vt 0.0688 0.8937 0.0000
vt 0.0884 0.8864 0.0000
vt 0.0329 0.9237 0.0000
vt 0.0656 0.9443 0.0000
vt 0.0841 0.8609 0.0000
vt 0.0209 0.8905 0.0000
vt 0.0205 0.8915 0.0000
vt 0.0270 0.9096 0.0000
vt 0.0658 0.9589 0.0000
vt 0.0415 0.9444 0.0000
vt 0.0470 0.9584 0.0000
# 23 texture coords

g Z187_304H_L_DTaSI_Z187_304H_L
usemtl windowglass_1SG
s 1
f 1/1/1 2/2/2 3/3/3 
f 2/2/2 4/4/4 3/3/3 
f 5/5/5 6/6/6 7/7/7 
f 7/7/7 6/6/6 8/8/8 
f 9/9/9 10/10/10 11/11/11 
f 12/12/12 11/11/11 10/10/10 
f 13/13/13 14/14/14 11/11/11 
f 15/15/15 7/7/7 12/12/12 
f 16/16/16 12/12/12 1/1/1 
f 12/12/12 10/10/10 1/1/1 
f 8/8/8 17/17/17 13/13/13 
f 17/17/17 14/14/14 13/13/13 
f 6/6/6 5/5/5 18/18/18 
f 5/5/5 19/19/18 18/18/18 
f 20/20/19 5/5/5 7/7/7 
f 10/10/10 9/9/9 1/1/1 
f 9/9/9 2/2/2 1/1/1 
f 7/7/7 15/15/15 20/20/19 
f 3/3/3 21/21/20 1/1/1 
f 21/21/20 16/16/16 1/1/1 
f 16/16/16 22/22/21 12/12/12 
f 22/22/21 15/15/15 12/12/12 
f 21/21/20 23/23/22 16/16/16 
f 23/23/22 22/22/21 16/16/16 
f 12/12/12 13/13/13 11/11/11 
f 8/8/8 13/13/13 7/7/7 
f 12/12/12 7/7/7 13/13/13 
# 27 faces

