# 3ds Max Wavefront OBJ Exporter v0.97b - (c)2007 guruware
# File Created: 11.01.2016 14:31:34

mtllib Z187_WLCH_C.mtl

#
# object Z187_WLCH_C_N_Z187_WLCH_C
#

v  -113.3981 -40.2249 -64.1276
v  -114.0286 -33.2045 -64.1276
v  -114.0286 -33.2045 -103.2457
v  -115.9199 -25.9016 -64.1276
v  -115.9199 -25.9016 -103.5617
v  -113.3974 -46.1986 -64.1276
v  -113.3981 -40.2249 -102.5344
v  -119.0746 -18.7447 -64.1276
v  -119.0746 -18.7447 -103.6706
v  -113.3953 -50.3613 -64.1276
v  -113.3974 -46.1986 -101.6314
v  -123.4951 -12.1623 -64.1276
v  -123.4951 -12.1623 -103.7611
v  -113.3924 -53.6186 -64.1276
v  -113.3953 -50.3613 -100.7403
v  -129.0154 -6.5442 -64.1276
v  -129.0154 -6.5442 -103.8129
v  -135.4695 -2.2801 -64.1276
v  -135.4695 -2.2801 -103.8062
v  -142.6263 0.7570 -64.1276
v  -142.6263 0.7570 -103.7535
v  -150.2548 2.6938 -64.1276
v  -150.2548 2.6938 -103.6675
v  -158.1192 3.3872 -64.1276
v  -158.1192 3.3872 -103.5643
v  -165.9836 2.6938 -64.1276
v  -165.9836 2.6938 -103.4600
v  -173.6122 0.7570 -64.1276
v  -173.6122 0.7570 -103.3331
v  -180.7690 -2.2801 -64.1276
v  -180.7690 -2.2801 -103.1620
v  -187.2231 -6.5442 -64.1276
v  -187.2231 -6.5442 -102.9856
v  -192.7433 -12.1623 -64.1276
v  -192.7433 -12.1623 -102.8429
v  -197.0989 -18.6148 -64.1276
v  -197.0989 -18.6148 -102.6407
v  -200.0588 -25.3821 -64.1276
v  -200.0588 -25.3821 -102.2863
v  -201.9114 -31.7727 -64.1276
v  -201.9114 -31.7727 -101.7338
v  -202.9450 -37.0948 -64.1276
v  -202.9450 -37.0948 -100.9377
v  -203.4438 -41.8876 -64.1276
v  -203.4438 -41.8876 -99.9361
v  -203.6922 -46.6898 -64.1276
v  -203.6922 -46.6898 -98.7675
v  -203.8153 -51.4968 -64.1276
v  -203.8153 -51.4968 -97.5154
v  -113.7191 -36.6504 -102.8966
v  -114.9971 -29.4649 -103.4075
v  -117.5394 -22.2276 -103.6176
v  -121.3839 -15.3061 -103.7179
v  -113.3924 -53.6186 -99.8551
v  -126.3933 -9.2127 -103.7883
v  -132.1549 -4.4700 -103.8097
v  -139.5952 -0.5293 -103.7758
v  -146.3098 1.6922 -103.7120
v  -154.2545 3.0465 -103.6150
v  -162.0243 3.0429 -103.5125
v  -169.6485 1.7633 -103.3990
v  -176.9928 -0.6776 -103.2523
v  -183.9540 -4.3843 -103.0750
v  -189.8427 -9.2103 -102.9179
v  -196.0747 -17.0974 -102.6883
v  -198.4727 -21.7557 -102.4762
v  -200.9201 -28.3532 -102.0294
v  -202.4090 -34.3350 -101.3505
v  -203.1912 -39.4605 -100.4433
v  -203.5614 -44.1608 -99.3829
v  -203.7533 -49.0747 -98.1463
v  189.4444 -1.0778 -64.1276
v  182.2876 1.9592 -64.1276
v  182.2876 1.9592 -103.0573
v  174.6590 3.8960 -64.1276
v  174.6590 3.8960 -103.1005
v  195.8985 -5.3420 -64.1276
v  189.4444 -1.0778 -102.9281
v  166.7946 4.5894 -64.1276
v  166.7946 4.5894 -103.1244
v  201.4187 -10.9601 -64.1276
v  195.8985 -5.3420 -102.7567
v  158.9302 3.8960 -64.1276
v  158.9302 3.8960 -103.1963
v  205.8392 -17.5424 -64.1276
v  201.4187 -10.9601 -102.5875
v  151.3017 1.9592 -64.1276
v  151.3017 1.9592 -103.2946
v  208.9939 -24.6994 -64.1276
v  205.8392 -17.5424 -102.3742
v  144.1449 -1.0778 -64.1276
v  144.1449 -1.0778 -103.3976
v  210.8853 -32.2663 -64.1276
v  208.9939 -24.6994 -102.0707
v  137.6908 -5.3420 -64.1276
v  137.6908 -5.3420 -103.5549
v  211.5157 -40.0787 -64.1276
v  210.8853 -32.2663 -101.6052
v  132.1705 -10.9601 -64.1276
v  132.1705 -10.9601 -103.8159
v  211.5172 -47.0780 -64.1276
v  211.5157 -40.0787 -100.9062
v  127.7500 -17.5424 -64.1276
v  127.7500 -17.5424 -103.9913
v  211.5218 -52.2058 -64.1276
v  211.5172 -47.0780 -100.1712
v  124.5953 -24.6994 -64.1276
v  124.5953 -24.6994 -103.8918
v  211.5279 -56.3978 -64.1276
v  211.5218 -52.2058 -99.5980
v  122.7039 -31.3548 -64.1276
v  122.7039 -31.3548 -103.6296
v  122.0735 -36.4327 -64.1276
v  122.0735 -36.4327 -103.3167
v  122.0735 -40.5611 -64.1276
v  122.0735 -40.5611 -102.9520
v  122.0735 -44.3679 -64.1276
v  122.0735 -44.3679 -102.5339
v  122.0728 -47.8029 -64.1276
v  122.0728 -47.8029 -101.9510
v  122.0706 -50.8162 -64.1276
v  122.0706 -50.8162 -101.0919
v  122.0678 -53.6186 -64.1276
v  122.0678 -53.6186 -100.0947
v  185.9517 0.4043 -102.9912
v  178.4320 2.9381 -103.0791
v  191.1856 -2.2283 -102.8818
v  170.9229 4.2254 -103.1119
v  197.7672 -7.2439 -102.6994
v  163.0785 4.2618 -103.1584
v  203.5309 -14.1053 -102.4856
v  155.1928 2.9472 -103.2444
v  207.4115 -21.1094 -102.2229
v  148.0034 0.5596 -103.3421
v  209.9069 -28.3518 -101.8460
v  140.8829 -3.2330 -103.4771
v  211.1960 -36.1175 -101.2606
v  134.9383 -8.1432 -103.6850
v  211.5164 -43.4728 -100.5498
v  130.0838 -14.0672 -103.8987
v  211.5194 -49.5053 -99.8999
v  126.2175 -21.0191 -103.9430
v  211.5279 -56.3978 -99.1057
v  123.6063 -28.1796 -103.7547
v  122.3992 -33.8096 -103.4783
v  193.1905 -3.5529 -102.8286
v  -194.3976 -14.6130 -102.7661
v  -113.3981 -40.2249 64.1276
v  -114.0286 -33.2045 103.2457
v  -114.0286 -33.2045 64.1276
v  -115.9199 -25.9016 103.5617
v  -115.9199 -25.9016 64.1276
v  -113.3974 -46.1986 64.1276
v  -113.3981 -40.2249 102.5344
v  -119.0746 -18.7447 103.6706
v  -119.0746 -18.7447 64.1276
v  -113.3953 -50.3613 64.1276
v  -113.3974 -46.1986 101.6314
v  -123.4951 -12.1623 103.7611
v  -123.4951 -12.1623 64.1276
v  -113.3924 -53.6186 64.1276
v  -113.3953 -50.3613 100.7403
v  -129.0154 -6.5442 103.8129
v  -129.0154 -6.5442 64.1276
v  -135.4695 -2.2801 103.8062
v  -135.4695 -2.2801 64.1276
v  -142.6263 0.7570 103.7535
v  -142.6263 0.7570 64.1276
v  -150.2548 2.6938 103.6675
v  -150.2548 2.6938 64.1276
v  -158.1192 3.3872 103.5643
v  -158.1192 3.3872 64.1276
v  -165.9836 2.6938 103.4600
v  -165.9836 2.6938 64.1276
v  -173.6122 0.7570 103.3331
v  -173.6122 0.7570 64.1276
v  -180.7690 -2.2801 103.1620
v  -180.7690 -2.2801 64.1276
v  -187.2231 -6.5442 102.9856
v  -187.2231 -6.5442 64.1276
v  -192.7433 -12.1623 102.8429
v  -192.7433 -12.1623 64.1276
v  -197.0989 -18.6148 102.6407
v  -197.0989 -18.6148 64.1276
v  -200.0588 -25.3821 102.2863
v  -200.0588 -25.3821 64.1276
v  -201.9114 -31.7727 101.7338
v  -201.9114 -31.7727 64.1276
v  -202.9450 -37.0948 100.9377
v  -202.9450 -37.0948 64.1276
v  -203.4438 -41.8876 99.9361
v  -203.4438 -41.8876 64.1276
v  -203.6922 -46.6898 98.7675
v  -203.6922 -46.6898 64.1276
v  -203.8153 -51.4968 97.5154
v  -203.8153 -51.4968 64.1276
v  -113.7191 -36.6504 102.8966
v  -114.9971 -29.4649 103.4075
v  -117.5394 -22.2276 103.6176
v  -121.3839 -15.3061 103.7179
v  -113.3924 -53.6186 99.8551
v  -126.3933 -9.2127 103.7883
v  -132.1549 -4.4700 103.8097
v  -139.5952 -0.5293 103.7758
v  -146.3098 1.6922 103.7120
v  -154.2545 3.0465 103.6150
v  -162.0243 3.0429 103.5125
v  -169.6485 1.7633 103.3990
v  -176.9928 -0.6776 103.2523
v  -183.9540 -4.3843 103.0750
v  -189.8427 -9.2103 102.9179
v  -196.0747 -17.0974 102.6883
v  -198.4727 -21.7557 102.4762
v  -200.9201 -28.3532 102.0294
v  -202.4090 -34.3350 101.3505
v  -203.1912 -39.4605 100.4433
v  -203.5614 -44.1608 99.3829
v  -203.7533 -49.0747 98.1463
v  189.4444 -1.0778 64.1276
v  182.2876 1.9592 103.0573
v  182.2876 1.9592 64.1276
v  174.6590 3.8960 103.1005
v  174.6590 3.8960 64.1276
v  195.8985 -5.3420 64.1276
v  189.4444 -1.0778 102.9281
v  166.7946 4.5894 103.1244
v  166.7946 4.5894 64.1276
v  201.4187 -10.9601 64.1276
v  195.8985 -5.3420 102.7567
v  158.9302 3.8960 103.1963
v  158.9302 3.8960 64.1276
v  205.8392 -17.5424 64.1276
v  201.4187 -10.9601 102.5875
v  151.3017 1.9592 103.2946
v  151.3017 1.9592 64.1276
v  208.9939 -24.6994 64.1276
v  205.8392 -17.5424 102.3742
v  144.1449 -1.0778 103.3976
v  144.1449 -1.0778 64.1276
v  210.8853 -32.2663 64.1276
v  208.9939 -24.6994 102.0707
v  137.6908 -5.3420 103.5549
v  137.6908 -5.3420 64.1276
v  211.5157 -40.0787 64.1276
v  210.8853 -32.2663 101.6052
v  132.1705 -10.9601 103.8159
v  132.1705 -10.9601 64.1276
v  211.5172 -47.0780 64.1276
v  211.5157 -40.0787 100.9062
v  127.7500 -17.5424 103.9913
v  127.7500 -17.5424 64.1276
v  211.5218 -52.2058 64.1276
v  211.5172 -47.0780 100.1712
v  124.5953 -24.6994 103.8918
v  124.5953 -24.6994 64.1276
v  211.5279 -56.3978 64.1276
v  211.5218 -52.2058 99.5980
v  122.7039 -31.3548 103.6296
v  122.7039 -31.3548 64.1276
v  122.0735 -36.4327 103.3167
v  122.0735 -36.4327 64.1276
v  122.0735 -40.5611 102.9520
v  122.0735 -40.5611 64.1276
v  122.0735 -44.3679 102.5339
v  122.0735 -44.3679 64.1276
v  122.0728 -47.8029 101.9510
v  122.0728 -47.8029 64.1276
v  122.0706 -50.8162 101.0919
v  122.0706 -50.8162 64.1276
v  122.0678 -53.6186 100.0947
v  122.0678 -53.6186 64.1276
v  185.9517 0.4043 102.9912
v  178.4320 2.9381 103.0791
v  191.1856 -2.2283 102.8818
v  170.9229 4.2254 103.1119
v  197.7672 -7.2439 102.6994
v  163.0785 4.2618 103.1584
v  203.5309 -14.1053 102.4856
v  155.1928 2.9472 103.2444
v  207.4115 -21.1094 102.2229
v  148.0034 0.5596 103.3421
v  209.9069 -28.3518 101.8460
v  140.8829 -3.2330 103.4771
v  211.1960 -36.1175 101.2606
v  134.9383 -8.1432 103.6850
v  211.5164 -43.4728 100.5498
v  130.0838 -14.0672 103.8987
v  211.5194 -49.5053 99.8999
v  126.2175 -21.0191 103.9430
v  211.5279 -56.3978 99.1057
v  123.6063 -28.1796 103.7547
v  122.3992 -33.8096 103.4783
v  193.1905 -3.5529 102.8286
v  -194.3976 -14.6130 102.7661
# 294 vertices

vn -0.9989 -0.0476 -0.0000
vn -0.9852 -0.1712 -0.0000
vn -0.9846 -0.1746 -0.0000
vn -0.9450 -0.3271 -0.0000
vn -0.9445 -0.3284 -0.0000
vn -1.0000 -0.0003 -0.0000
vn -0.9993 -0.0376 -0.0000
vn -0.8770 -0.4804 -0.0000
vn -0.8765 -0.4815 -0.0000
vn -1.0000 -0.0007 -0.0000
vn -0.7771 -0.6294 -0.0000
vn -0.7759 -0.6309 -0.0000
vn -1.0000 -0.0009 -0.0000
vn -1.0000 -0.0006 -0.0000
vn -0.6391 -0.7691 -0.0000
vn -0.6406 -0.7679 -0.0000
vn -0.4753 -0.8798 -0.0000
vn -0.4727 -0.8812 -0.0000
vn -0.3213 -0.9470 -0.0000
vn -0.3201 -0.9474 -0.0000
vn -0.1700 -0.9854 -0.0000
vn -0.1731 -0.9849 -0.0000
vn -0.0030 -1.0000 -0.0000
vn -0.0057 -1.0000 -0.0000
vn 0.1647 -0.9863 -0.0000
vn 0.1601 -0.9871 -0.0000
vn 0.3164 -0.9486 -0.0000
vn 0.3105 -0.9506 -0.0000
vn 0.4699 -0.8827 -0.0000
vn 0.4645 -0.8856 -0.0000
vn 0.6337 -0.7736 -0.0000
vn 0.6280 -0.7782 -0.0000
vn 0.7713 -0.6365 -0.0000
vn 0.7606 -0.6492 -0.0000
vn 0.8734 -0.4870 -0.0000
vn 0.8812 -0.4727 -0.0000
vn 0.9384 -0.3456 -0.0000
vn 0.9355 -0.3534 -0.0000
vn 0.9706 -0.2407 -0.0000
vn 0.9691 -0.2467 -0.0000
vn 0.9885 -0.1513 -0.0000
vn 0.9875 -0.1577 -0.0000
vn 0.9969 -0.0786 -0.0000
vn 0.9965 -0.0834 -0.0000
vn 0.9992 -0.0392 -0.0000
vn 0.9991 -0.0417 -0.0000
vn 0.9997 -0.0256 -0.0000
vn 0.9997 -0.0256 0.0000
vn 0.0000 0.0000 -1.0000
vn -0.0000 0.0000 -1.0000
vn -0.9960 -0.0894 -0.0000
vn -0.9681 -0.2507 -0.0000
vn -0.9151 -0.4033 -0.0000
vn -0.8302 -0.5575 -0.0000
vn -0.7133 -0.7009 -0.0000
vn -0.5512 -0.8343 -0.0000
vn -0.3906 -0.9205 -0.0000
vn -0.2461 -0.9693 -0.0000
vn -0.0878 -0.9961 -0.0000
vn 0.0878 -0.9961 -0.0000
vn 0.2461 -0.9693 -0.0000
vn 0.3906 -0.9205 -0.0000
vn 0.5512 -0.8343 -0.0000
vn 0.7133 -0.7009 -0.0000
vn 0.8288 -0.5595 -0.0000
vn 0.9162 -0.4007 -0.0000
vn 0.9605 -0.2784 -0.0000
vn 0.9817 -0.1906 -0.0000
vn 0.9946 -0.1035 -0.0000
vn 0.9987 -0.0516 -0.0000
vn -0.4752 -0.8799 -0.0000
vn -0.3212 -0.9470 -0.0000
vn -0.3228 -0.9465 -0.0000
vn -0.1699 -0.9855 -0.0000
vn -0.1736 -0.9848 -0.0000
vn -0.6398 -0.7685 -0.0000
vn -0.4597 -0.8881 -0.0000
vn -0.0028 -1.0000 -0.0000
vn -0.0091 -1.0000 -0.0000
vn -0.7768 -0.6297 -0.0000
vn -0.6357 -0.7719 -0.0000
vn 0.1649 -0.9863 -0.0000
vn 0.1608 -0.9870 -0.0000
vn -0.7686 -0.6397 -0.0000
vn 0.3166 -0.9486 -0.0000
vn 0.3117 -0.9502 -0.0000
vn -0.9468 -0.3218 -0.0000
vn -0.8763 -0.4817 -0.0000
vn 0.4703 -0.8825 -0.0000
vn 0.4669 -0.8843 -0.0000
vn -0.9872 -0.1596 -0.0000
vn -0.9463 -0.3233 -0.0000
vn 0.6341 -0.7732 -0.0000
vn 0.6335 -0.7738 -0.0000
vn -0.9991 -0.0416 -0.0000
vn -0.9867 -0.1628 -0.0000
vn 0.7735 -0.6338 -0.0000
vn 0.7712 -0.6367 -0.0000
vn -1.0000 -0.0005 -0.0000
vn -0.9990 -0.0438 -0.0000
vn 0.8743 -0.4854 -0.0000
vn 0.8718 -0.4898 -0.0000
vn -1.0000 -0.0011 -0.0000
vn 0.9385 -0.3452 -0.0000
vn 0.9378 -0.3472 -0.0000
vn -1.0000 -0.0015 -0.0000
vn -1.0000 -0.0012 -0.0000
vn 0.9773 -0.2119 -0.0000
vn 0.9764 -0.2162 -0.0000
vn 0.9976 -0.0686 -0.0000
vn 0.9986 -0.0534 -0.0000
vn 1.0000 0.0000 -0.0000
vn 1.0000 -0.0000 -0.0000
vn 1.0000 -0.0001 -0.0000
vn 1.0000 -0.0004 -0.0000
vn 1.0000 -0.0009 -0.0000
vn 1.0000 -0.0008 -0.0000
vn 1.0000 -0.0010 -0.0000
vn -0.2461 -0.9692 -0.0000
vn 0.2461 -0.9692 -0.0000
vn -0.9150 -0.4033 0.0000
vn -0.9702 -0.2425 -0.0000
vn -0.9968 -0.0804 -0.0000
vn -1.0000 -0.0002 -0.0000
vn 0.8302 -0.5575 -0.0000
vn 0.9150 -0.4033 -0.0000
vn 0.9619 -0.2734 -0.0000
vn 0.9924 -0.1232 -0.0000
vn 0.0000 0.0000 1.0000
vn -0.0000 0.0000 1.0000
vn 0.8288 -0.5595 0.0000
vn -0.5513 -0.8343 -0.0000
vn -0.9150 -0.4033 -0.0000
# 133 vertex normals

g Z187_WLCH_C_N_Z187_WLCH_C
usemtl diffuse_black_plasticSG
s 1
f 1//1 2//2 3//3 
f 2//2 4//4 5//5 
f 6//6 1//1 7//7 
f 4//4 8//8 9//9 
f 10//10 6//6 11//6 
f 8//8 12//11 13//12 
f 14//13 10//10 15//14 
f 12//11 16//15 17//16 
f 16//15 18//17 19//18 
f 18//17 20//19 21//20 
f 20//19 22//21 23//22 
f 22//21 24//23 25//24 
f 24//23 26//25 27//26 
f 26//25 28//27 29//28 
f 28//27 30//29 31//30 
f 30//29 32//31 33//32 
f 32//31 34//33 35//34 
f 34//33 36//35 37//36 
f 36//35 38//37 39//38 
f 38//37 40//39 41//40 
f 40//39 42//41 43//42 
f 42//41 44//43 45//44 
f 44//43 46//45 47//46 
f 46//45 48//47 49//48 
s 23
f 46//49 44//49 6//49 
f 48//49 46//49 10//49 
f 42//49 1//49 6//49 
f 2//49 1//49 22//49 
f 24//50 22//49 1//49 
f 40//49 26//49 1//49 
f 4//50 2//49 20//49 
f 12//49 8//49 20//49 
f 18//49 16//49 12//49 
f 38//49 28//49 26//49 
f 30//49 28//49 34//49 
f 36//49 34//49 28//49 
s 1
f 50//51 1//1 3//3 
f 51//52 2//2 5//5 
f 11//6 6//6 7//7 
f 52//53 4//4 9//9 
f 15//14 10//10 11//6 
f 53//54 8//8 13//12 
f 54//13 14//13 15//14 
f 55//55 12//11 17//16 
f 56//56 16//15 19//18 
f 57//57 18//17 21//20 
f 58//58 20//19 23//22 
f 59//59 22//21 25//24 
f 60//60 24//23 27//26 
f 61//61 26//25 29//28 
f 62//62 28//27 31//30 
f 63//63 30//29 33//32 
f 64//64 32//31 35//34 
f 65//65 34//33 37//36 
f 66//66 36//35 39//38 
f 67//67 38//37 41//40 
f 68//68 40//39 43//42 
f 69//69 42//41 45//44 
f 70//70 44//43 47//46 
f 71//47 46//45 49//48 
s 23
f 10//49 46//49 6//49 
f 14//49 48//49 10//49 
f 44//49 42//49 6//49 
f 20//49 2//49 22//49 
f 26//49 24//50 1//49 
f 42//49 40//49 1//49 
f 8//49 4//50 20//49 
f 18//49 12//49 20//49 
f 40//49 38//49 26//49 
f 32//49 30//49 34//49 
f 38//49 36//49 28//49 
s 29
f 72//71 73//72 74//73 
f 73//72 75//74 76//75 
f 77//76 72//71 78//77 
f 75//74 79//78 80//79 
f 81//80 77//76 82//81 
f 79//78 83//82 84//83 
f 85//8 81//80 86//84 
f 83//82 87//85 88//86 
f 89//87 85//8 90//88 
f 87//85 91//89 92//90 
f 93//91 89//87 94//92 
f 91//89 95//93 96//94 
f 97//95 93//91 98//96 
f 95//93 99//97 100//98 
f 101//99 97//95 102//100 
f 99//97 103//101 104//102 
f 105//103 101//99 106//99 
f 103//101 107//104 108//105 
f 109//106 105//103 110//107 
f 107//104 111//108 112//109 
f 111//108 113//110 114//111 
f 113//110 115//112 116//113 
f 115//112 117//114 118//114 
f 117//114 119//115 120//115 
f 119//115 121//116 122//117 
f 121//116 123//118 124//118 
s 54
f 121//49 119//49 101//49 
f 123//49 121//49 105//49 
f 97//49 101//49 117//49 
f 119//49 117//49 101//49 
f 75//49 93//49 97//49 
f 79//49 97//49 115//49 
f 73//49 89//49 93//49 
f 85//49 89//49 73//49 
f 72//49 77//50 81//49 
f 107//49 87//49 83//49 
f 91//50 87//49 99//49 
f 103//49 99//49 87//49 
f 111//49 107//49 115//49 
s 29
f 125//57 72//71 74//73 
f 126//119 73//72 76//75 
f 127//56 77//76 78//77 
f 128//59 75//74 80//79 
f 129//55 81//80 82//81 
f 130//60 79//78 84//83 
f 131//54 85//8 86//84 
f 132//120 83//82 88//86 
f 133//121 89//87 90//88 
f 134//62 87//85 92//90 
f 135//122 93//91 94//92 
f 136//63 91//89 96//94 
f 137//123 97//95 98//96 
f 138//64 95//93 100//98 
f 139//124 101//99 102//100 
f 140//125 99//97 104//102 
f 141//13 105//103 106//99 
f 142//126 103//101 108//105 
f 143//106 109//106 110//107 
f 144//127 107//104 112//109 
f 145//128 111//108 114//111 
f 114//111 113//110 116//113 
f 116//113 115//112 118//114 
f 118//114 117//114 120//115 
f 120//115 119//115 122//117 
f 122//117 121//116 124//118 
s 54
f 105//49 121//49 101//49 
f 109//49 123//49 105//49 
f 115//49 97//49 117//49 
f 79//49 75//49 97//49 
f 83//49 79//49 115//49 
f 75//49 73//49 93//49 
f 81//49 85//49 73//49 
f 73//49 72//49 81//49 
f 115//49 107//49 83//49 
f 95//49 91//50 99//49 
f 107//49 103//49 87//49 
f 113//50 111//49 115//49 
s 29
f 108//105 107//104 144//127 
f 112//109 111//108 145//128 
f 104//102 103//101 142//126 
f 100//98 99//97 140//125 
f 96//94 95//93 138//64 
f 92//90 91//89 136//63 
f 88//86 87//85 134//62 
f 84//83 83//82 132//120 
f 80//79 79//78 130//60 
f 76//75 75//74 128//59 
f 74//73 73//72 126//119 
f 78//77 72//71 125//57 
f 82//81 77//76 146//56 
f 146//56 77//76 127//56 
f 86//84 81//80 129//55 
f 90//88 85//8 131//54 
f 94//92 89//87 133//121 
f 98//96 93//91 135//122 
f 102//100 97//95 137//123 
f 106//99 101//99 139//124 
f 110//107 105//103 141//13 
s 1
f 3//3 2//2 51//52 
f 7//7 1//1 50//51 
f 5//5 4//4 52//53 
f 9//9 8//8 53//54 
f 13//12 12//11 55//55 
f 17//16 16//15 56//56 
f 19//18 18//17 57//57 
f 21//20 20//19 58//58 
f 23//22 22//21 59//59 
f 25//24 24//23 60//60 
f 27//26 26//25 61//61 
f 29//28 28//27 62//62 
f 31//30 30//29 63//63 
f 33//32 32//31 64//64 
f 35//34 34//33 147//65 
f 147//65 34//33 65//65 
f 37//36 36//35 66//66 
f 39//38 38//37 67//67 
f 41//40 40//39 68//68 
f 43//42 42//41 69//69 
f 45//44 44//43 70//70 
f 47//46 46//45 71//47 
s 60
f 148//1 149//3 150//2 
f 150//2 151//5 152//4 
f 153//6 154//7 148//1 
f 152//4 155//9 156//8 
f 157//10 158//6 153//6 
f 156//8 159//12 160//11 
f 161//13 162//14 157//10 
f 160//11 163//16 164//15 
f 164//15 165//18 166//17 
f 166//17 167//20 168//19 
f 168//19 169//22 170//21 
f 170//21 171//24 172//23 
f 172//23 173//26 174//25 
f 174//25 175//28 176//27 
f 176//27 177//30 178//29 
f 178//29 179//32 180//31 
f 180//31 181//34 182//33 
f 182//33 183//36 184//35 
f 184//35 185//38 186//37 
f 186//37 187//40 188//39 
f 188//39 189//42 190//41 
f 190//41 191//44 192//43 
f 192//43 193//46 194//45 
f 194//45 195//47 196//47 
s 84
f 194//129 153//129 192//129 
f 196//129 157//129 194//129 
f 190//129 153//129 148//129 
f 150//129 170//129 148//129 
f 172//129 148//129 170//129 
f 188//129 148//129 174//129 
f 152//130 168//129 150//129 
f 160//129 168//129 156//129 
f 166//129 160//129 164//129 
f 186//129 174//129 176//129 
f 178//129 182//129 176//129 
f 184//129 176//129 182//129 
s 60
f 197//51 149//3 148//1 
f 198//52 151//5 150//2 
f 158//6 154//7 153//6 
f 199//53 155//9 152//4 
f 162//14 158//6 157//10 
f 200//54 159//12 156//8 
f 201//13 162//14 161//13 
f 202//55 163//16 160//11 
f 203//56 165//18 164//15 
f 204//57 167//20 166//17 
f 205//58 169//22 168//19 
f 206//59 171//24 170//21 
f 207//60 173//26 172//23 
f 208//61 175//28 174//25 
f 209//62 177//30 176//27 
f 210//63 179//32 178//29 
f 211//64 181//34 180//31 
f 212//131 183//36 182//33 
f 213//66 185//38 184//35 
f 214//67 187//40 186//37 
f 215//68 189//42 188//39 
f 216//69 191//44 190//41 
f 217//70 193//46 192//43 
f 218//47 195//47 194//45 
s 84
f 157//129 153//129 194//129 
f 161//129 157//129 196//129 
f 192//129 153//129 190//129 
f 168//129 170//129 150//129 
f 174//129 148//129 172//129 
f 190//129 148//129 188//129 
f 156//129 168//129 152//130 
f 166//129 168//129 160//129 
f 188//129 174//129 186//129 
f 180//129 182//129 178//129 
f 186//129 176//129 184//129 
s 90
f 219//71 220//73 221//72 
f 221//72 222//75 223//74 
f 224//76 225//77 219//71 
f 223//74 226//79 227//78 
f 228//80 229//81 224//76 
f 227//78 230//83 231//82 
f 232//8 233//84 228//80 
f 231//82 234//86 235//85 
f 236//87 237//88 232//8 
f 235//85 238//90 239//89 
f 240//91 241//92 236//87 
f 239//89 242//94 243//93 
f 244//95 245//96 240//91 
f 243//93 246//98 247//97 
f 248//99 249//100 244//95 
f 247//97 250//102 251//101 
f 252//103 253//99 248//99 
f 251//101 254//105 255//104 
f 256//106 257//107 252//103 
f 255//104 258//109 259//108 
f 259//108 260//111 261//110 
f 261//110 262//112 263//112 
f 263//112 264//114 265//114 
f 265//114 266//115 267//115 
f 267//115 268//117 269//116 
f 269//116 270//118 271//118 
s 111
f 269//129 248//129 267//129 
f 271//129 252//129 269//129 
f 244//129 265//129 248//129 
f 267//129 248//129 265//129 
f 223//129 244//129 240//129 
f 227//129 263//129 244//129 
f 221//129 240//129 236//129 
f 232//129 221//129 236//129 
f 219//129 228//130 224//130 
f 255//129 231//129 235//129 
f 239//130 247//129 235//129 
f 251//129 235//129 247//129 
f 259//129 263//129 255//129 
s 90
f 272//57 220//73 219//71 
f 273//119 222//75 221//72 
f 274//132 225//77 224//76 
f 275//59 226//79 223//74 
f 276//55 229//81 228//80 
f 277//60 230//83 227//78 
f 278//54 233//84 232//8 
f 279//120 234//86 231//82 
f 280//133 237//88 236//87 
f 281//62 238//90 235//85 
f 282//122 241//92 240//91 
f 283//63 242//94 239//89 
f 284//123 245//96 244//95 
f 285//64 246//98 243//93 
f 286//124 249//100 248//99 
f 287//125 250//102 247//97 
f 288//13 253//99 252//103 
f 289//126 254//105 251//101 
f 290//106 257//107 256//106 
f 291//127 258//109 255//104 
f 292//128 260//111 259//108 
f 260//111 262//112 261//110 
f 262//112 264//114 263//112 
f 264//114 266//115 265//114 
f 266//115 268//117 267//115 
f 268//117 270//118 269//116 
s 111
f 252//129 248//129 269//129 
f 256//129 252//129 271//129 
f 263//129 265//129 244//129 
f 227//129 244//129 223//129 
f 231//129 263//129 227//129 
f 223//129 240//129 221//129 
f 228//130 221//129 232//129 
f 221//129 228//130 219//129 
f 263//129 231//129 255//129 
f 243//129 247//129 239//130 
f 255//129 235//129 251//129 
f 261//130 263//129 259//129 
s 90
f 254//105 291//127 255//104 
f 258//109 292//128 259//108 
f 250//102 289//126 251//101 
f 246//98 287//125 247//97 
f 242//94 285//64 243//93 
f 238//90 283//63 239//89 
f 234//86 281//62 235//85 
f 230//83 279//120 231//82 
f 226//79 277//60 227//78 
f 222//75 275//59 223//74 
f 220//73 273//119 221//72 
f 225//77 272//57 219//71 
f 229//81 293//56 224//76 
f 293//56 274//132 224//76 
f 233//84 276//55 228//80 
f 237//88 278//54 232//8 
f 241//92 280//133 236//87 
f 245//96 282//122 240//91 
f 249//100 284//123 244//95 
f 253//99 286//124 248//99 
f 257//107 288//13 252//103 
s 60
f 149//3 198//52 150//2 
f 154//7 197//51 148//1 
f 151//5 199//53 152//4 
f 155//9 200//54 156//8 
f 159//12 202//55 160//11 
f 163//16 203//56 164//15 
f 165//18 204//57 166//17 
f 167//20 205//58 168//19 
f 169//22 206//59 170//21 
f 171//24 207//60 172//23 
f 173//26 208//61 174//25 
f 175//28 209//62 176//27 
f 177//30 210//63 178//29 
f 179//32 211//64 180//31 
f 181//34 294//65 182//33 
f 294//65 212//131 182//33 
f 183//36 213//66 184//35 
f 185//38 214//67 186//37 
f 187//40 215//68 188//39 
f 189//42 216//69 190//41 
f 191//44 217//70 192//43 
f 193//46 218//47 194//45 
# 382 faces

