# 3ds Max Wavefront OBJ Exporter v0.97b - (c)2007 guruware
# File Created: 30.11.2015 11:29:13

mtllib M261_18A5_R.mtl

#
# object M261_18A5_R_DaS_M261_18A5_R
#

v  37.5400 74.2442 66.9489
v  33.0590 75.9921 66.3287
v  36.5015 73.8455 68.0648
v  32.0682 75.5518 67.4323
v  31.2548 75.1548 68.0687
v  35.6131 73.4667 68.7012
v  29.1898 77.0594 65.9426
v  28.3958 76.5772 67.0419
v  24.6773 77.8313 65.6782
v  24.1546 77.3068 66.7546
v  23.7320 76.8348 67.3818
v  27.7462 76.1407 67.6823
v  18.0049 78.5660 65.4699
v  17.7638 78.0209 66.4862
v  -9.3803 80.1479 65.2562
v  -9.3195 79.5307 66.1481
v  4.3123 79.3570 65.3630
v  4.2222 78.7758 66.3171
v  17.5718 77.5425 67.0661
v  34.9427 73.0397 69.1218
v  30.7714 74.7123 68.4976
v  27.4796 75.5824 68.1734
v  23.6232 76.1576 67.9259
v  17.5618 76.8021 67.6133
v  4.1739 77.4880 67.3557
v  4.1512 78.2686 66.8394
v  -9.2140 78.1740 67.0982
v  -9.2694 78.9946 66.6128
v  33.5699 76.2154 65.4734
v  38.1761 74.4871 66.0431
v  30.6285 74.5167 68.6034
v  34.7119 72.8143 69.2516
v  17.6411 76.5228 67.7533
v  23.5763 75.9540 68.0277
v  4.2211 77.2078 67.4949
v  -9.1990 77.8927 67.2366
v  27.3560 75.3569 68.2872
v  4.3618 79.6916 64.5092
v  -9.4152 80.5061 64.4285
v  18.1388 78.8771 64.5899
v  24.9675 78.1129 64.7705
v  29.6285 77.3152 65.0284
v  -21.7183 79.8537 66.1509
v  -21.7899 80.5094 65.2616
v  -34.1171 80.1767 66.1537
v  -34.1995 80.8709 65.2671
v  -21.6566 79.2768 66.6163
v  -34.0438 79.5590 66.6197
v  -21.5774 78.4321 67.0974
v  -33.9408 78.6902 67.0965
v  -33.8693 78.0876 67.3859
v  -21.5341 77.9902 67.3112
v  -21.8294 80.8744 64.4429
v  -34.2436 81.2427 64.4573
v  -61.8627 80.8112 65.3490
v  -61.7858 80.0511 66.3053
v  -44.8102 81.0187 65.2902
v  -44.7345 80.2959 66.1936
v  -61.7236 79.3648 66.8703
v  -44.6723 79.6482 66.6846
v  -61.9052 81.1929 64.5488
v  -44.8524 81.3952 64.4845
v  -44.6801 78.7686 67.1727
v  -61.7819 78.4860 67.3960
v  -61.9178 77.9402 67.6642
v  -44.7529 78.1659 67.4624
# 66 vertices

vn 0.2620 0.8454 0.4655
vn 0.2318 0.8544 0.4651
vn 0.2286 0.7928 0.5649
vn 0.1911 0.7917 0.5802
vn 0.1395 0.6884 0.7118
vn 0.1612 0.6832 0.7123
vn 0.1642 0.8911 0.4230
vn 0.1352 0.8283 0.5438
vn 0.1057 0.9075 0.4065
vn 0.0862 0.8421 0.5324
vn 0.0511 0.7050 0.7074
vn 0.0923 0.7147 0.6933
vn 0.0616 0.9067 0.4173
vn 0.0506 0.8372 0.5445
vn 0.0363 0.8705 0.4908
vn 0.0288 0.7643 0.6442
vn 0.0457 0.8900 0.4537
vn 0.0357 0.8028 0.5951
vn 0.0288 0.6777 0.7348
vn 0.1048 0.5731 0.8128
vn 0.0938 0.5861 0.8048
vn 0.0573 0.5952 0.8016
vn 0.0270 0.5894 0.8074
vn 0.0153 0.5586 0.8293
vn 0.0120 0.5269 0.8499
vn 0.0198 0.6267 0.7790
vn 0.0108 0.4941 0.8694
vn 0.0162 0.5760 0.8173
vn 0.2585 0.8846 0.3883
vn 0.2720 0.8644 0.4228
vn 0.0393 0.4524 0.8909
vn 0.0511 0.4585 0.8872
vn 0.0041 0.4492 0.8934
vn 0.0042 0.4462 0.8949
vn 0.0056 0.4456 0.8952
vn 0.0070 0.4417 0.8971
vn 0.0159 0.4436 0.8961
vn 0.0509 0.9288 0.3669
vn 0.0396 0.9175 0.3957
vn 0.0675 0.9377 0.3409
vn 0.1173 0.9374 0.3280
vn 0.1826 0.9204 0.3457
vn 0.0198 0.7406 0.6717
vn 0.0247 0.8587 0.5119
vn 0.0160 0.7197 0.6941
vn 0.0192 0.8475 0.5304
vn 0.0130 0.5551 0.8317
vn 0.0118 0.5373 0.8433
vn 0.0103 0.4761 0.8793
vn 0.0101 0.4632 0.8862
vn 0.0092 0.4337 0.9010
vn 0.0090 0.4363 0.8998
vn 0.0272 0.9134 0.4061
vn 0.0208 0.9090 0.4163
vn -0.0082 0.8400 0.5425
vn -0.0061 0.7266 0.6870
vn -0.0001 0.8408 0.5413
vn 0.0015 0.7132 0.7010
vn -0.0004 0.5701 0.8216
vn 0.0039 0.5399 0.8417
vn -0.0091 0.9024 0.4309
vn -0.0008 0.9059 0.4235
vn 0.0054 0.4651 0.8853
vn 0.0036 0.4829 0.8757
vn 0.0048 0.4401 0.8979
vn 0.0063 0.4327 0.9015
# 66 vertex normals

vt 0.5754 0.2614 0.0000
vt 0.5668 0.2648 0.0000
vt 0.5734 0.2607 0.0000
vt 0.5649 0.2639 0.0000
vt 0.5634 0.2632 0.0000
vt 0.5717 0.2599 0.0000
vt 0.5594 0.2668 0.0000
vt 0.5579 0.2659 0.0000
vt 0.5507 0.2683 0.0000
vt 0.5497 0.2673 0.0000
vt 0.5489 0.2664 0.0000
vt 0.5566 0.2651 0.0000
vt 0.5379 0.2697 0.0000
vt 0.5374 0.2687 0.0000
vt 0.4853 0.2728 0.0000
vt 0.4854 0.2716 0.0000
vt 0.5116 0.2712 0.0000
vt 0.5114 0.2701 0.0000
vt 0.5371 0.2678 0.0000
vt 0.5704 0.2591 0.0000
vt 0.5624 0.2623 0.0000
vt 0.5561 0.2640 0.0000
vt 0.5487 0.2651 0.0000
vt 0.5371 0.2663 0.0000
vt 0.5113 0.2676 0.0000
vt 0.5113 0.2691 0.0000
vt 0.4856 0.2690 0.0000
vt 0.4855 0.2705 0.0000
vt 0.5678 0.2652 0.0000
vt 0.5767 0.2619 0.0000
vt 0.5622 0.2619 0.0000
vt 0.5700 0.2587 0.0000
vt 0.5372 0.2658 0.0000
vt 0.5486 0.2647 0.0000
vt 0.5114 0.2671 0.0000
vt 0.4857 0.2684 0.0000
vt 0.5559 0.2636 0.0000
vt 0.5117 0.2719 0.0000
vt 0.4852 0.2734 0.0000
vt 0.5382 0.2703 0.0000
vt 0.5513 0.2688 0.0000
vt 0.5602 0.2673 0.0000
vt 0.4616 0.2722 0.0000
vt 0.4615 0.2734 0.0000
vt 0.4378 0.2728 0.0000
vt 0.4376 0.2741 0.0000
vt 0.4617 0.2711 0.0000
vt 0.4379 0.2716 0.0000
vt 0.4619 0.2695 0.0000
vt 0.4381 0.2700 0.0000
vt 0.4383 0.2688 0.0000
vt 0.4620 0.2686 0.0000
vt 0.4614 0.2742 0.0000
vt 0.4376 0.2749 0.0000
vt 0.3845 0.2740 0.0000
vt 0.3847 0.2726 0.0000
vt 0.4173 0.2744 0.0000
vt 0.4174 0.2730 0.0000
vt 0.3848 0.2713 0.0000
vt 0.4175 0.2718 0.0000
vt 0.3844 0.2748 0.0000
vt 0.4172 0.2752 0.0000
vt 0.4175 0.2701 0.0000
vt 0.3847 0.2696 0.0000
vt 0.3844 0.2685 0.0000
vt 0.4174 0.2689 0.0000
# 66 texture coords

g M261_18A5_R_DaS_M261_18A5_R
usemtl paint_whiteSG
s 6
f 1/1/1 2/2/2 3/3/3 
f 3/3/3 2/2/2 4/4/4 
f 5/5/5 6/6/6 4/4/4 
f 4/4/4 6/6/6 3/3/3 
f 2/2/2 7/7/7 4/4/4 
f 4/4/4 7/7/7 8/8/8 
f 7/7/7 9/9/9 8/8/8 
f 8/8/8 9/9/9 10/10/10 
f 11/11/11 12/12/12 10/10/10 
f 10/10/10 12/12/12 8/8/8 
f 12/12/12 5/5/5 8/8/8 
f 8/8/8 5/5/5 4/4/4 
f 9/9/9 13/13/13 10/10/10 
f 10/10/10 13/13/13 14/14/14 
f 15/15/15 16/16/16 17/17/17 
f 17/17/17 16/16/16 18/18/18 
f 19/19/19 11/11/11 14/14/14 
f 14/14/14 11/11/11 10/10/10 
f 6/6/6 5/5/5 20/20/20 
f 20/20/20 5/5/5 21/21/21 
f 5/5/5 12/12/12 21/21/21 
f 21/21/21 12/12/12 22/22/22 
f 12/12/12 11/11/11 22/22/22 
f 22/22/22 11/11/11 23/23/23 
f 23/23/23 11/11/11 24/24/24 
f 24/24/24 11/11/11 19/19/19 
f 25/25/25 26/26/26 27/27/27 
f 27/27/27 26/26/26 28/28/28 
f 2/2/2 1/1/1 29/29/29 
f 29/29/29 1/1/1 30/30/30 
f 31/31/31 32/32/32 21/21/21 
f 21/21/21 32/32/32 20/20/20 
f 24/24/24 33/33/33 23/23/23 
f 23/23/23 33/33/33 34/34/34 
f 35/35/35 25/25/25 36/36/36 
f 36/36/36 25/25/25 27/27/27 
f 37/37/37 31/31/31 22/22/22 
f 22/22/22 31/31/31 21/21/21 
f 22/22/22 23/23/23 37/37/37 
f 37/37/37 23/23/23 34/34/34 
f 17/17/17 38/38/38 15/15/15 
f 15/15/15 38/38/38 39/39/39 
f 13/13/13 9/9/9 40/40/40 
f 40/40/40 9/9/9 41/41/41 
f 9/9/9 7/7/7 41/41/41 
f 41/41/41 7/7/7 42/42/42 
f 7/7/7 2/2/2 42/42/42 
f 42/42/42 2/2/2 29/29/29 
f 43/43/43 44/44/44 45/45/45 
f 45/45/45 44/44/44 46/46/46 
f 47/47/47 43/43/43 48/48/48 
f 48/48/48 43/43/43 45/45/45 
f 49/49/49 47/47/47 50/50/50 
f 50/50/50 47/47/47 48/48/48 
f 50/50/50 51/51/51 49/49/49 
f 49/49/49 51/51/51 52/52/52 
f 44/44/44 53/53/53 46/46/46 
f 46/46/46 53/53/53 54/54/54 
f 55/55/55 56/56/56 57/57/57 
f 57/57/57 56/56/56 58/58/58 
f 56/56/56 59/59/59 58/58/58 
f 58/58/58 59/59/59 60/60/60 
f 61/61/61 55/55/55 62/62/62 
f 62/62/62 55/55/55 57/57/57 
f 60/60/60 59/59/59 63/63/63 
f 63/63/63 59/59/59 64/64/64 
f 65/65/65 66/66/66 64/64/64 
f 64/64/64 66/66/66 63/63/63 
f 45/45/45 46/46/46 58/58/58 
f 58/58/58 46/46/46 57/57/57 
f 48/48/48 45/45/45 60/60/60 
f 60/60/60 45/45/45 58/58/58 
f 46/46/46 54/54/54 57/57/57 
f 57/57/57 54/54/54 62/62/62 
f 50/50/50 48/48/48 63/63/63 
f 63/63/63 48/48/48 60/60/60 
f 66/66/66 51/51/51 63/63/63 
f 63/63/63 51/51/51 50/50/50 
f 26/26/26 18/18/18 28/28/28 
f 28/28/28 18/18/18 16/16/16 
f 33/33/33 24/24/24 35/35/35 
f 35/35/35 24/24/24 25/25/25 
f 26/26/26 25/25/25 19/19/19 
f 19/19/19 25/25/25 24/24/24 
f 14/14/14 18/18/18 19/19/19 
f 19/19/19 18/18/18 26/26/26 
f 18/18/18 14/14/14 17/17/17 
f 17/17/17 14/14/14 13/13/13 
f 40/40/40 38/38/38 13/13/13 
f 13/13/13 38/38/38 17/17/17 
f 49/49/49 52/52/52 27/27/27 
f 27/27/27 52/52/52 36/36/36 
f 47/47/47 49/49/49 28/28/28 
f 28/28/28 49/49/49 27/27/27 
f 43/43/43 47/47/47 16/16/16 
f 16/16/16 47/47/47 28/28/28 
f 44/44/44 43/43/43 15/15/15 
f 15/15/15 43/43/43 16/16/16 
f 53/53/53 44/44/44 39/39/39 
f 39/39/39 44/44/44 15/15/15 
# 100 faces

#
# object M261_18A5_R_DaS_M261_18A5_R_E
#

v  23.5743 75.7915 67.7023
v  23.5763 75.9539 68.0277
v  17.6399 76.3604 67.4279
v  17.6411 76.5228 67.7533
v  4.2192 77.0461 67.1691
v  4.2211 77.2078 67.4949
v  34.6931 72.6496 68.9278
v  34.7119 72.8143 69.2516
v  30.6145 74.3518 68.2794
v  30.6285 74.5167 68.6034
v  27.3492 75.1939 67.9622
v  27.3560 75.3569 68.2872
v  -9.2014 77.7318 66.9104
v  -9.1990 77.8927 67.2366
v  -21.5371 77.8274 66.9765
v  -21.5341 77.9902 67.3112
v  -44.7557 78.0006 67.1195
v  -44.7529 78.1659 67.4624
v  -61.9180 77.7712 67.3231
v  -61.9178 77.9402 67.6642
v  -33.8728 77.9229 67.0426
v  -33.8693 78.0876 67.3859
v  24.9086 78.0204 64.6014
v  24.9675 78.1129 64.7705
v  29.6144 77.2149 64.8618
v  29.6285 77.3152 65.0284
v  33.5699 76.2154 65.4734
v  33.5951 76.1124 65.2952
v  17.5345 78.8146 64.4190
v  18.1388 78.8771 64.5899
v  4.0993 79.6017 64.3443
v  4.3618 79.6916 64.5092
v  37.9186 74.5289 65.7737
v  38.1761 74.4871 66.0431
v  -34.2436 81.2427 64.4573
v  -21.8294 80.8743 64.4429
v  -34.2515 81.1185 64.2696
v  -21.7937 80.7536 64.2696
v  -44.8600 81.2719 64.2975
v  -44.8524 81.3952 64.4845
v  -61.9128 81.0705 64.3628
v  -61.9052 81.1929 64.5488
v  -9.3358 80.3887 64.2696
v  -9.4152 80.5060 64.4285
# 44 vertices

vn -0.1379 -0.8858 0.4431
vn -0.1379 -0.8858 0.4432
vn -0.0801 -0.8917 0.4455
vn -0.0801 -0.8917 0.4454
vn -0.0542 -0.8943 0.4442
vn -0.4049 -0.8053 0.4330
vn -0.4049 -0.8054 0.4328
vn -0.3353 -0.8336 0.4389
vn -0.3352 -0.8339 0.4384
vn -0.2166 -0.8708 0.4414
vn -0.2165 -0.8709 0.4412
vn -0.0294 -0.8963 0.4426
vn -0.0294 -0.8963 0.4425
vn -0.0045 -0.8992 0.4375
vn -0.0045 -0.8993 0.4374
vn 0.0069 -0.9008 0.4342
vn 0.0069 -0.9008 0.4343
vn 0.0170 -0.8960 0.4437
vn 0.0170 -0.8959 0.4439
vn -0.0039 -0.9016 0.4326
vn 0.1353 0.8479 -0.5126
vn 0.1459 0.8457 -0.5134
vn 0.2275 0.8262 -0.5154
vn 0.2294 0.8251 -0.5163
vn 0.3146 0.8418 -0.4387
vn 0.3218 0.8388 -0.4391
vn 0.0585 0.8529 -0.5189
vn 0.0943 0.7812 -0.6171
vn 0.0527 0.8391 -0.5414
vn 0.0523 0.8396 -0.5407
vn 0.3660 0.9058 -0.2133
vn 0.3661 0.9068 -0.2092
vn 0.0174 0.8336 -0.5521
vn 0.0239 0.8227 -0.5680
vn 0.0172 0.8336 -0.5521
vn 0.0239 0.8225 -0.5682
vn -0.0009 0.8349 -0.5504
vn -0.0005 0.8349 -0.5504
vn -0.0120 0.8357 -0.5491
vn 0.0409 0.8135 -0.5802
vn 0.0338 0.8122 -0.5824
# 41 vertex normals

vt 0.5486 0.2644 0.0000
vt 0.5486 0.2647 0.0000
vt 0.5372 0.2655 0.0000
vt 0.5372 0.2658 0.0000
vt 0.5114 0.2668 0.0000
vt 0.5114 0.2671 0.0000
vt 0.5700 0.2584 0.0000
vt 0.5700 0.2587 0.0000
vt 0.5621 0.2616 0.0000
vt 0.5622 0.2619 0.0000
vt 0.5559 0.2632 0.0000
vt 0.5559 0.2636 0.0000
vt 0.4857 0.2681 0.0000
vt 0.4857 0.2684 0.0000
vt 0.4620 0.2683 0.0000
vt 0.4620 0.2686 0.0000
vt 0.4174 0.2686 0.0000
vt 0.4174 0.2689 0.0000
vt 0.3844 0.2682 0.0000
vt 0.3844 0.2685 0.0000
vt 0.4383 0.2685 0.0000
vt 0.4383 0.2688 0.0000
vt 0.5512 0.2687 0.0000
vt 0.5513 0.2688 0.0000
vt 0.5602 0.2671 0.0000
vt 0.5602 0.2673 0.0000
vt 0.5678 0.2652 0.0000
vt 0.5679 0.2650 0.0000
vt 0.5370 0.2702 0.0000
vt 0.5382 0.2703 0.0000
vt 0.5112 0.2717 0.0000
vt 0.5117 0.2719 0.0000
vt 0.5762 0.2620 0.0000
vt 0.5767 0.2619 0.0000
vt 0.4376 0.2749 0.0000
vt 0.4614 0.2742 0.0000
vt 0.4375 0.2746 0.0000
vt 0.4615 0.2739 0.0000
vt 0.4172 0.2749 0.0000
vt 0.4172 0.2752 0.0000
vt 0.3844 0.2745 0.0000
vt 0.3844 0.2748 0.0000
vt 0.4854 0.2732 0.0000
vt 0.4852 0.2734 0.0000
# 44 texture coords

g M261_18A5_R_DaS_M261_18A5_R_E
usemtl paint_whiteSG
s 1
f 67/67/67 68/68/68 69/69/69 
f 69/69/69 68/68/68 70/70/70 
f 69/69/69 70/70/70 71/71/71 
f 71/71/71 70/70/70 72/72/71 
f 73/73/72 74/74/73 75/75/74 
f 75/75/74 74/74/73 76/76/75 
f 75/75/74 76/76/75 77/77/76 
f 77/77/76 76/76/75 78/78/77 
f 78/78/77 68/68/68 77/77/76 
f 77/77/76 68/68/68 67/67/67 
f 79/79/78 80/80/79 81/81/80 
f 81/81/80 80/80/79 82/82/81 
f 83/83/82 84/84/83 85/85/84 
f 85/85/84 84/84/83 86/86/85 
f 87/87/86 88/88/86 83/83/82 
f 83/83/82 88/88/86 84/84/83 
s 17
f 89/89/87 90/90/88 91/91/89 
f 91/91/89 90/90/88 92/92/90 
f 92/92/90 93/93/91 91/91/89 
f 91/91/89 93/93/91 94/94/92 
f 95/95/93 96/96/94 89/89/87 
f 89/89/87 96/96/94 90/90/88 
f 97/97/95 98/98/96 95/95/93 
f 95/95/93 98/98/96 96/96/94 
f 94/94/92 93/93/91 99/99/97 
f 99/99/97 93/93/91 100/100/98 
f 101/101/99 102/102/100 103/103/101 
f 103/103/101 102/102/100 104/104/102 
f 105/105/103 106/106/104 103/103/101 
f 103/103/101 106/106/104 101/101/99 
f 107/107/105 108/108/105 105/105/103 
f 105/105/103 108/108/105 106/106/104 
s 1
f 71/71/71 72/72/71 79/79/78 
f 79/79/78 72/72/71 80/80/79 
s 17
f 109/109/106 110/110/107 97/97/95 
f 97/97/95 110/110/107 98/98/96 
s 1
f 81/81/80 82/82/81 87/87/86 
f 87/87/86 82/82/81 88/88/86 
s 17
f 102/102/100 110/110/107 104/104/102 
f 104/104/102 110/110/107 109/109/106 
# 40 faces

