# 3ds Max Wavefront OBJ Exporter v0.97b - (c)2007 guruware
# File Created: 21.12.2015 13:31:23

mtllib Y192_40SG_R.mtl

#
# object Y192_40SG_R_1_DTaSI_Y192_40SG_R
#

v  -161.7550 84.1723 92.6280
v  -163.5644 80.4329 94.2966
v  -161.2379 81.1891 93.9882
v  -162.6771 68.5786 99.6713
v  -161.2311 65.6633 100.9594
v  -161.8506 67.8233 100.0035
v  -161.0034 67.4533 100.1648
v  -164.3807 65.1497 101.2780
v  -164.0705 69.8491 99.1306
v  -167.1576 67.6398 100.1093
v  -164.6912 70.4094 98.8676
v  -166.5930 72.1200 98.0458
v  -146.9011 66.1377 100.6988
v  -138.3483 79.3677 95.3582
v  -148.5527 70.9769 98.6558
v  -143.4130 78.4652 95.6385
v  -149.6273 69.3948 99.3269
v  -150.7521 68.1060 99.8740
v  -140.2632 82.9994 93.7609
v  -140.8340 82.1550 94.1009
v  -171.0750 82.7008 92.8941
v  -167.7325 79.0762 94.7426
v  -171.8561 77.5102 95.2774
v  -168.3286 78.2653 95.0952
v  -168.7223 77.6172 95.3785
v  -172.6347 72.3490 97.6475
v  -168.6001 73.9576 97.0914
v  -169.0327 76.1959 96.0264
v  -169.0838 75.8416 96.1892
v  -168.8074 74.1617 96.9862
v  -177.8102 76.7589 95.2916
v  -177.3857 79.0828 94.2445
v  -176.9574 81.4218 93.1906
v  -155.8457 63.4391 101.8579
v  -148.9470 62.9717 101.9771
v  -154.9008 65.9551 100.7918
v  -167.3044 66.4748 100.6459
v  -164.4255 64.4739 101.5869
v  -161.4377 64.0257 101.6865
v  -172.7182 71.7960 97.9011
v  -179.1105 80.9605 93.2960
v  -179.3979 79.6518 93.8701
v  -179.6824 78.3511 94.4408
v  -176.7837 82.3620 92.7682
v  -178.9839 81.5367 93.0431
v  -160.3854 88.0601 90.9072
v  -170.7892 84.6309 92.0095
v  -126.8383 97.1567 88.1798
v  -144.9573 92.3656 89.6013
v  -129.7842 92.6109 90.0129
v  -146.4252 88.4245 91.2730
v  -160.0988 67.1389 100.2987
v  -154.2282 67.1388 100.2899
v  -155.6130 67.1398 100.2712
v  -158.4941 82.1136 93.6315
v  -147.4617 85.6754 92.4377
v  -144.7654 86.5633 92.1126
v  -143.2827 87.0508 91.9518
v  -141.4668 86.8307 92.1010
v  -140.5696 86.2164 92.3888
v  -139.9359 84.7889 93.0130
v  -152.3015 67.3090 100.2141
v  -158.2754 67.1299 100.2916
v  -160.3389 88.3245 90.6029
v  -160.2759 87.3422 88.3956
v  -170.7479 84.8607 91.7209
v  -170.6883 83.8618 89.5207
v  -176.6764 81.5203 90.3137
v  -176.7345 82.5315 92.5086
v  -144.8148 91.6150 87.1092
v  -144.8725 92.5837 89.3227
v  -126.6502 96.3303 85.7287
v  -126.6982 97.2870 87.9477
v  -178.9341 81.6757 92.7980
v  -178.8649 80.6646 90.6035
v  -129.6593 92.6269 89.9642
v  -138.2562 79.3685 95.3139
v  -146.8421 66.1229 100.6592
v  -176.7480 82.5247 92.6499
v  -170.7597 84.8384 91.8697
v  -170.7478 84.8607 91.7209
v  -160.3388 88.3245 90.6029
v  -160.3526 88.2927 90.7560
v  -179.3255 80.9033 93.2649
v  -179.3936 80.8368 93.1528
v  -179.5870 79.6838 93.7983
v  -179.6473 79.6456 93.6732
v  -179.8471 78.4697 94.3294
v  -179.9001 78.4591 94.1916
v  -138.2227 79.3278 95.1945
v  -129.6125 92.5925 89.8428
v  -146.8225 66.0748 100.5422
v  -126.6983 97.2870 87.9477
v  -126.7349 97.2877 88.0832
v  -144.8957 92.5629 89.4696
v  -126.5974 97.7925 87.9563
v  -126.5534 96.8303 85.7394
v  -126.6502 96.3304 85.7287
v  -126.6612 97.2631 88.0602
v  -149.8291 61.5193 102.4823
v  -149.8821 61.5068 102.5233
v  -149.8355 61.4537 102.4077
v  -149.9065 61.4211 102.4216
v  -149.9340 60.4736 100.1982
v  -149.8581 60.5137 100.1811
v  -149.7585 60.6431 100.1283
v  -149.7505 61.5608 102.3638
v  -149.7653 61.6115 102.4800
v  -148.8998 62.9471 101.9410
v  -148.8775 62.9067 101.8207
v  -178.9484 81.6764 92.9358
v  -179.1255 81.5610 92.9438
v  -179.1740 81.5379 92.8493
v  -179.0923 80.5305 90.6538
v  -178.8648 80.6646 90.6035
v  -179.2814 81.3629 92.9229
v  -179.1976 80.3537 90.7283
v  -179.2099 81.4416 93.0295
v  -126.7027 97.1766 88.1301
v  -126.6531 97.1418 88.0090
v  -126.6211 96.1626 85.7987
v  -138.2090 78.3827 92.9701
v  -146.8153 65.1651 98.3034
v  -129.5930 91.6105 87.6334
# 124 vertices

vn -0.0359 0.4137 0.9097
vn -0.0388 0.4228 0.9054
vn -0.0168 0.4124 0.9109
vn 0.0240 0.4140 0.9100
vn 0.0158 0.4046 0.9144
vn 0.0031 0.4054 0.9141
vn 0.0041 0.4053 0.9142
vn 0.0088 0.4143 0.9101
vn -0.0004 0.4157 0.9095
vn -0.0296 0.4203 0.9069
vn -0.0134 0.4190 0.9079
vn -0.0394 0.4221 0.9057
vn 0.0005 0.3757 0.9267
vn -0.0080 0.3804 0.9248
vn -0.0164 0.3841 0.9231
vn -0.0177 0.3857 0.9224
vn 0.0018 0.3895 0.9210
vn -0.0284 0.3899 0.9204
vn -0.0220 0.3947 0.9185
vn -0.0435 0.4224 0.9054
vn -0.0411 0.4236 0.9049
vn -0.0473 0.4222 0.9052
vn -0.0432 0.4225 0.9053
vn -0.0436 0.4223 0.9054
vn -0.0473 0.4227 0.9050
vn -0.0437 0.4225 0.9053
vn -0.0436 0.4224 0.9054
vn -0.0515 0.4209 0.9057
vn -0.0508 0.4175 0.9072
vn -0.0468 0.4198 0.9064
vn 0.0088 0.3885 0.9214
vn 0.0072 0.3733 0.9277
vn 0.0059 0.3866 0.9222
vn -0.0234 0.4206 0.9070
vn 0.0170 0.4147 0.9098
vn 0.0186 0.4040 0.9146
vn -0.0460 0.4223 0.9053
vn -0.0581 0.4159 0.9076
vn -0.0700 0.4134 0.9078
vn -0.0617 0.4169 0.9069
vn -0.0539 0.4389 0.8969
vn -0.0652 0.4397 0.8958
vn -0.0393 0.4224 0.9056
vn -0.0474 0.4335 0.8999
vn -0.0311 0.4125 0.9104
vn -0.0353 0.4093 0.9117
vn -0.0232 0.3875 0.9216
vn -0.0321 0.4001 0.9159
vn 0.0055 0.4051 0.9142
vn 0.0006 0.3900 0.9208
vn 0.0018 0.4032 0.9151
vn -0.0291 0.4004 0.9159
vn -0.0289 0.3992 0.9164
vn -0.0238 0.3934 0.9191
vn -0.0284 0.3898 0.9204
vn 0.0055 0.4051 0.9143
vn -0.2965 0.8695 -0.3950
vn -0.2969 0.8691 -0.3956
vn -0.3470 0.8506 -0.3950
vn -0.3477 0.8500 -0.3958
vn -0.3792 0.8365 -0.3957
vn -0.3787 0.8371 -0.3948
vn -0.2661 0.8804 -0.3926
vn -0.2659 0.8807 -0.3920
vn -0.2584 0.8849 -0.3876
vn -0.2583 0.8851 -0.3871
vn -0.3785 0.8364 -0.3963
vn -0.3794 0.8357 -0.3970
vn 0.7248 -0.2051 0.6578
vn 0.7443 -0.2293 0.6273
vn 0.7852 -0.2874 0.5485
vn -0.2410 0.8072 0.5389
vn -0.2008 0.7686 0.6075
vn -0.3596 0.9330 0.0115
vn -0.3153 0.9418 0.1167
vn -0.2642 0.9489 0.1728
vn -0.1656 0.7506 0.6397
vn -0.5163 0.4345 0.7380
vn -0.8806 0.3350 0.3351
vn -0.5624 0.4291 0.7068
vn -0.8856 0.3310 0.3258
vn -0.4906 0.4366 0.7541
vn -0.8893 0.3292 0.3173
vn 0.8562 -0.4696 0.2153
vn 0.8559 -0.4649 0.2264
vn 0.8563 -0.4748 0.2032
vn -0.2551 0.9640 -0.0745
vn -0.2487 0.9638 0.0963
vn -0.2320 0.9555 0.1822
vn -0.1674 0.7971 0.5802
vn -0.9750 0.1963 -0.1045
vn -0.9760 0.1918 -0.1037
vn -0.9751 0.1957 -0.1044
vn -0.9761 0.1912 -0.1036
vn -0.9226 0.1783 0.3421
vn -0.9077 0.2332 0.3489
vn -0.8607 0.3596 0.3603
vn 0.3406 0.9362 0.0868
vn 0.7301 -0.5534 0.4010
vn 0.4938 -0.6975 0.5193
vn 0.6967 -0.6610 0.2787
vn 0.4479 -0.8222 0.3514
vn 0.4978 -0.8001 0.3347
vn 0.7212 -0.6405 0.2638
vn 0.8550 -0.4809 0.1944
vn 0.8552 -0.4796 0.1967
vn 0.8482 -0.4376 0.2985
vn 0.8143 -0.3368 0.4727
vn 0.8509 -0.4295 0.3023
vn -0.4760 0.8419 -0.2542
vn -0.2616 0.8181 0.5122
vn -0.5031 0.7828 0.3663
vn -0.6953 0.6507 -0.3052
vn -0.7092 0.6301 -0.3161
vn -0.5305 0.7628 -0.3696
vn -0.8906 0.4345 -0.1342
vn -0.8757 0.4250 -0.2289
vn -0.4974 0.4818 0.7214
vn 0.4003 0.4520 0.7972
vn 0.7488 -0.2277 0.6224
vn 0.8803 -0.4245 0.2120
vn 0.9501 -0.0652 0.3051
vn 0.9952 -0.0806 0.0554
vn 0.9940 -0.0936 0.0565
vn 0.9938 -0.0957 0.0568
vn 0.8563 -0.4737 0.2060
vn 0.8562 -0.4777 0.1966
vn 0.8561 -0.4697 0.2156
vn 0.8557 -0.4689 0.2190
# 129 vertex normals

vt 0.0768 0.1612 0.0000
vt 0.0706 0.1485 0.0000
vt 0.0785 0.1511 0.0000
vt 0.0736 0.1083 0.0000
vt 0.0785 0.0984 0.0000
vt 0.0764 0.1057 0.0000
vt 0.0793 0.1045 0.0000
vt 0.0679 0.0966 0.0000
vt 0.0689 0.1126 0.0000
vt 0.0584 0.1051 0.0000
vt 0.0668 0.1145 0.0000
vt 0.0604 0.1203 0.0000
vt 0.1272 0.1000 0.0000
vt 0.1562 0.1449 0.0000
vt 0.1216 0.1164 0.0000
vt 0.1390 0.1418 0.0000
vt 0.1179 0.1110 0.0000
vt 0.1141 0.1067 0.0000
vt 0.1497 0.1572 0.0000
vt 0.1477 0.1543 0.0000
vt 0.0451 0.1562 0.0000
vt 0.0565 0.1439 0.0000
vt 0.0425 0.1386 0.0000
vt 0.0545 0.1411 0.0000
vt 0.0531 0.1389 0.0000
vt 0.0399 0.1211 0.0000
vt 0.0535 0.1265 0.0000
vt 0.0521 0.1341 0.0000
vt 0.0519 0.1329 0.0000
vt 0.0528 0.1272 0.0000
vt 0.0223 0.1360 0.0000
vt 0.0237 0.1439 0.0000
vt 0.0252 0.1518 0.0000
vt 0.0968 0.0908 0.0000
vt 0.1202 0.0893 0.0000
vt 0.1000 0.0994 0.0000
vt 0.0579 0.1011 0.0000
vt 0.0677 0.0944 0.0000
vt 0.0778 0.0928 0.0000
vt 0.0396 0.1192 0.0000
vt 0.0179 0.1503 0.0000
vt 0.0169 0.1458 0.0000
vt 0.0159 0.1414 0.0000
vt 0.0258 0.1550 0.0000
vt 0.0183 0.1522 0.0000
vt 0.0814 0.1744 0.0000
vt 0.0461 0.1627 0.0000
vt 0.1952 0.2052 0.0000
vt 0.1338 0.1890 0.0000
vt 0.1852 0.1898 0.0000
vt 0.1288 0.1756 0.0000
vt 0.0824 0.1034 0.0000
vt 0.1023 0.1034 0.0000
vt 0.0976 0.1034 0.0000
vt 0.0878 0.1542 0.0000
vt 0.1253 0.1663 0.0000
vt 0.1344 0.1693 0.0000
vt 0.1394 0.1709 0.0000
vt 0.1456 0.1702 0.0000
vt 0.1486 0.1681 0.0000
vt 0.1508 0.1633 0.0000
vt 0.1088 0.1040 0.0000
vt 0.0886 0.1034 0.0000
vt 0.0816 0.1753 0.0000
vt 0.0818 0.1719 0.0000
vt 0.0463 0.1635 0.0000
vt 0.0465 0.1601 0.0000
vt 0.0261 0.1522 0.0000
vt 0.0259 0.1556 0.0000
vt 0.1342 0.1864 0.0000
vt 0.1340 0.1897 0.0000
vt 0.1959 0.2024 0.0000
vt 0.1957 0.2057 0.0000
vt 0.0185 0.1527 0.0000
vt 0.0187 0.1493 0.0000
vt 0.1857 0.1899 0.0000
vt 0.1565 0.1449 0.0000
vt 0.1274 0.0999 0.0000
vt 0.0462 0.1634 0.0000
vt 0.0815 0.1752 0.0000
vt 0.0172 0.1501 0.0000
vt 0.0169 0.1499 0.0000
vt 0.0163 0.1460 0.0000
vt 0.0161 0.1458 0.0000
vt 0.0154 0.1418 0.0000
vt 0.0152 0.1418 0.0000
vt 0.1566 0.1447 0.0000
vt 0.1858 0.1897 0.0000
vt 0.1274 0.0998 0.0000
vt 0.1956 0.2057 0.0000
vt 0.1340 0.1896 0.0000
vt 0.1960 0.2056 0.0000
vt 0.1962 0.2024 0.0000
vt 0.1958 0.2056 0.0000
vt 0.1172 0.0843 0.0000
vt 0.1170 0.0843 0.0000
vt 0.1172 0.0841 0.0000
vt 0.1170 0.0840 0.0000
vt 0.1169 0.0808 0.0000
vt 0.1171 0.0809 0.0000
vt 0.1175 0.0814 0.0000
vt 0.1175 0.0845 0.0000
vt 0.1174 0.0846 0.0000
vt 0.1204 0.0892 0.0000
vt 0.1205 0.0890 0.0000
vt 0.0184 0.1527 0.0000
vt 0.0178 0.1523 0.0000
vt 0.0177 0.1522 0.0000
vt 0.0179 0.1488 0.0000
vt 0.0173 0.1516 0.0000
vt 0.0176 0.1482 0.0000
vt 0.0176 0.1519 0.0000
vt 0.1957 0.2053 0.0000
vt 0.1959 0.2052 0.0000
vt 0.1960 0.2019 0.0000
vt 0.1567 0.1415 0.0000
vt 0.1275 0.0967 0.0000
vt 0.1859 0.1864 0.0000
# 118 texture coords

g Y192_40SG_R_1_DTaSI_Y192_40SG_R
usemtl windowglass_blackSG
s 1
f 1/1/1 2/2/2 3/3/3 
f 4/4/4 5/5/5 6/6/6 
f 7/7/7 6/6/6 5/5/5 
f 5/5/5 4/4/4 8/8/8 
f 4/4/4 9/9/9 8/8/8 
f 8/8/8 9/9/9 10/10/10 
f 9/9/9 11/11/11 10/10/10 
f 11/11/11 12/12/12 10/10/10 
f 13/13/13 14/14/14 15/15/15 
f 14/14/14 16/16/16 15/15/15 
f 15/15/15 17/17/17 13/13/13 
f 13/13/13 17/17/17 18/18/17 
f 19/19/18 20/20/19 14/14/14 
f 20/20/19 16/16/16 14/14/14 
f 1/1/1 21/21/20 2/2/2 
f 21/21/20 22/22/21 2/2/2 
f 21/21/20 23/23/22 24/24/23 
f 24/24/23 23/23/22 25/25/24 
f 10/10/10 12/12/12 26/26/25 
f 12/12/12 27/27/26 26/26/25 
f 23/23/22 26/26/25 28/28/24 
f 28/28/24 26/26/25 29/29/27 
f 27/27/26 30/30/27 26/26/25 
f 26/26/25 30/30/27 29/29/27 
f 26/26/25 23/23/22 31/31/28 
f 23/23/22 32/32/29 31/31/28 
f 32/32/29 23/23/22 33/33/30 
f 23/23/22 21/21/20 33/33/30 
f 34/34/31 35/35/32 36/36/33 
f 35/35/32 13/13/13 36/36/33 
f 10/10/10 37/37/34 8/8/8 
f 37/37/34 38/38/35 8/8/8 
f 5/5/5 8/8/8 39/39/36 
f 8/8/8 38/38/35 39/39/36 
f 26/26/25 40/40/37 10/10/10 
f 40/40/37 37/37/34 10/10/10 
f 40/40/37 26/26/25 31/31/28 
f 33/33/30 41/41/38 32/32/29 
f 41/41/38 42/42/39 32/32/29 
f 31/31/28 32/32/29 43/43/40 
f 32/32/29 42/42/39 43/43/40 
f 44/44/41 45/45/42 33/33/30 
f 45/45/42 41/41/38 33/33/30 
f 46/46/43 47/47/44 1/1/1 
f 47/47/44 21/21/20 1/1/1 
f 33/33/30 21/21/20 44/44/41 
f 21/21/20 47/47/44 44/44/41 
f 48/48/45 49/49/46 50/50/47 
f 49/49/46 51/51/48 50/50/47 
f 39/39/36 34/34/31 5/5/5 
f 34/34/31 36/36/33 5/5/5 
f 5/5/5 52/52/49 7/7/7 
f 36/36/33 53/53/50 54/54/51 
f 3/3/3 55/55/52 1/1/1 
f 56/56/53 51/51/48 55/55/52 
f 51/51/48 1/1/1 55/55/52 
f 1/1/1 51/51/48 46/46/43 
f 51/51/48 49/49/46 46/46/43 
f 51/51/48 56/56/53 57/57/54 
f 51/51/48 58/58/18 50/50/47 
f 58/58/18 59/59/55 50/50/47 
f 50/50/47 59/59/55 60/60/18 
f 51/51/48 57/57/54 58/58/18 
f 14/14/14 50/50/47 19/19/18 
f 19/19/18 50/50/47 61/61/18 
f 50/50/47 60/60/18 61/61/18 
f 53/53/50 36/36/33 13/13/13 
f 62/62/17 53/53/50 13/13/13 
f 18/18/17 62/62/17 13/13/13 
f 5/5/5 36/36/33 52/52/49 
f 52/52/49 36/36/33 63/63/56 
f 63/63/56 36/36/33 54/54/51 
f 21/21/20 24/24/23 22/22/21 
f 23/23/22 28/28/24 25/25/24 
s 11
f 64/64/57 65/65/58 66/66/59 
f 65/65/58 67/67/60 66/66/59 
f 68/68/61 69/69/62 67/67/60 
f 69/69/62 66/66/59 67/67/60 
f 70/70/63 71/71/64 72/72/65 
f 71/71/64 73/73/66 72/72/65 
f 69/69/62 68/68/61 74/74/67 
f 68/68/61 75/75/68 74/74/67 
f 65/65/58 64/64/57 70/70/63 
f 64/64/57 71/71/64 70/70/63 
s 1
f 76/76/69 50/50/47 77/77/70 
f 50/50/47 14/14/14 77/77/70 
f 77/77/70 14/14/14 78/78/71 
f 14/14/14 13/13/13 78/78/71 
f 79/69/72 80/79/73 69/69/74 
f 80/79/73 81/66/75 69/69/74 
f 82/64/76 81/66/75 83/80/77 
f 81/66/75 80/79/73 83/80/77 
f 84/81/78 85/82/79 86/83/80 
f 85/82/79 87/84/81 86/83/80 
f 88/85/82 86/83/80 89/86/83 
f 86/83/80 87/84/81 89/86/83 
f 77/77/70 90/87/84 76/76/69 
f 90/87/84 91/88/85 76/76/69 
f 78/78/71 92/89/86 77/77/70 
f 92/89/86 90/87/84 77/77/70 
f 93/73/87 71/71/88 94/90/89 
f 71/71/88 95/91/90 94/90/89 
s 18
f 96/92/91 97/93/92 93/73/93 
f 97/93/92 98/72/94 93/73/93 
s 19
f 96/92/95 93/73/96 99/94/97 
f 93/73/96 94/90/98 99/94/97 
s 1
f 100/95/99 101/96/100 102/97/101 
f 101/96/100 103/98/102 102/97/101 
f 104/99/103 105/100/104 103/98/102 
f 105/100/104 102/97/101 103/98/102 
f 105/100/104 106/101/105 102/97/101 
f 106/101/105 107/102/106 102/97/101 
f 102/97/101 107/102/106 100/95/99 
f 107/102/106 108/103/107 100/95/99 
f 108/103/107 107/102/106 109/104/108 
f 107/102/106 110/105/109 109/104/108 
f 78/78/71 13/13/13 109/104/108 
f 13/13/13 35/35/32 109/104/108 
f 43/43/40 42/42/39 88/85/82 
f 42/42/39 86/83/80 88/85/82 
f 86/83/80 42/42/39 84/81/78 
f 42/42/39 41/41/38 84/81/78 
f 69/69/74 74/74/110 79/69/72 
f 74/74/110 111/106/111 79/69/72 
f 111/106/111 74/74/110 112/107/112 
f 74/74/110 113/108/113 112/107/112 
f 114/109/114 113/108/113 115/75/115 
f 113/108/113 74/74/110 115/75/115 
f 113/108/113 114/109/114 116/110/116 
f 114/109/114 117/111/117 116/110/116 
f 112/107/112 113/108/113 118/112/118 
f 113/108/113 116/110/116 118/112/118 
f 118/112/118 116/110/116 84/81/78 
f 116/110/116 85/82/79 84/81/78 
f 79/69/72 111/106/111 44/44/41 
f 111/106/111 45/45/42 44/44/41 
f 84/81/78 41/41/38 118/112/118 
f 41/41/38 45/45/42 118/112/118 
f 118/112/118 45/45/42 112/107/112 
f 45/45/42 111/106/111 112/107/112 
f 83/80/77 80/79/73 46/46/43 
f 80/79/73 47/47/44 46/46/43 
f 44/44/41 47/47/44 79/69/72 
f 47/47/44 80/79/73 79/69/72 
f 94/90/89 95/91/90 48/48/45 
f 95/91/90 49/49/46 48/48/45 
f 99/94/119 94/90/89 119/113/120 
f 94/90/89 48/48/45 119/113/120 
f 119/113/120 48/48/45 76/76/69 
f 48/48/45 50/50/47 76/76/69 
f 76/76/69 91/88/85 119/113/120 
f 91/88/85 120/114/121 119/113/120 
f 119/113/120 120/114/121 99/94/122 
f 120/114/121 96/92/123 99/94/122 
f 96/92/123 120/114/121 97/93/124 
f 120/114/121 121/115/125 97/93/124 
f 46/46/43 49/49/46 83/80/77 
f 49/49/46 95/91/90 83/80/77 
f 83/80/77 95/91/90 82/64/76 
f 95/91/90 71/71/88 82/64/76 
f 90/87/84 92/89/86 122/116/126 
f 92/89/86 123/117/127 122/116/126 
f 122/116/126 124/118/128 90/87/84 
f 124/118/128 91/88/85 90/87/84 
f 92/89/86 107/102/106 123/117/127 
f 107/102/106 106/101/105 123/117/127 
f 124/118/128 121/115/129 91/88/85 
f 121/115/129 120/114/121 91/88/85 
f 109/104/108 110/105/109 78/78/71 
f 110/105/109 92/89/86 78/78/71 
# 170 faces

#
# object Y192_40SG_R_Y192_40SG_R_2_DTaSI
#

v  -166.2431 74.8973 96.7666
v  -163.9809 71.2071 98.5100
v  -160.0947 74.5945 96.9951
v  -161.2379 81.1891 93.9882
v  -158.4941 82.1136 93.6315
v  -150.6674 77.1726 96.0400
v  -163.5644 80.4329 94.2966
v  -168.3286 78.2653 95.0952
v  -167.7325 79.0762 94.7426
v  -168.7223 77.6172 95.3785
v  -169.0327 76.1959 96.0264
v  -169.0838 75.8416 96.1892
v  -168.6000 73.9576 97.0915
v  -168.8074 74.1617 96.9862
v  -166.5930 72.1201 98.0458
v  -164.6912 70.4094 98.8676
v  -164.0705 69.8491 99.1306
v  -162.6771 68.5786 99.6713
v  -161.0034 67.4533 100.1648
v  -161.8506 67.8233 100.0035
v  -155.6130 67.1398 100.2712
v  -158.2754 67.1299 100.2916
v  -160.0988 67.1389 100.2987
v  -154.2282 67.1388 100.2899
v  -152.3015 67.3090 100.2141
v  -150.7521 68.1060 99.8740
v  -149.6273 69.3948 99.3269
v  -148.5527 70.9769 98.6558
v  -143.4130 78.4652 95.6385
v  -144.7654 86.5633 92.1126
v  -140.8340 82.1550 94.1010
v  -143.2827 87.0508 91.9519
v  -141.4668 86.8307 92.1011
v  -140.2632 82.9994 93.7609
v  -140.5695 86.2165 92.3889
v  -139.9359 84.7890 93.0130
v  -147.4617 85.6754 92.4377
# 37 vertices

vn -0.0215 0.4179 0.9082
vn -0.0060 0.4141 0.9102
vn -0.0149 0.4052 0.9141
vn -0.0176 0.4123 0.9109
vn -0.0245 0.4064 0.9134
vn -0.0209 0.3970 0.9176
vn -0.0198 0.4154 0.9094
vn -0.0417 0.4233 0.9050
vn -0.0411 0.4236 0.9049
vn -0.0436 0.4223 0.9054
vn -0.0437 0.4223 0.9054
vn -0.0436 0.4224 0.9054
vn -0.0437 0.4225 0.9053
vn -0.0224 0.4206 0.9070
vn -0.0132 0.4188 0.9080
vn 0.0197 0.4145 0.9098
vn 0.0036 0.4056 0.9140
vn 0.0045 0.4052 0.9142
vn 0.0030 0.4054 0.9141
vn -0.0106 0.3966 0.9179
vn 0.0055 0.4051 0.9143
vn -0.0058 0.3918 0.9200
vn 0.0018 0.3895 0.9210
vn -0.0105 0.3859 0.9225
vn -0.0192 0.3931 0.9193
vn -0.0221 0.3947 0.9186
vn -0.0208 0.3956 0.9182
vn -0.0284 0.3898 0.9204
vn -0.0284 0.3899 0.9204
vn -0.0247 0.3979 0.9171
# 30 vertex normals

vt 0.0615 0.1297 0.0000
vt 0.0692 0.1172 0.0000
vt 0.0824 0.1287 0.0000
vt 0.0785 0.1511 0.0000
vt 0.0878 0.1542 0.0000
vt 0.1144 0.1374 0.0000
vt 0.0706 0.1485 0.0000
vt 0.0545 0.1411 0.0000
vt 0.0565 0.1439 0.0000
vt 0.0531 0.1389 0.0000
vt 0.0521 0.1341 0.0000
vt 0.0519 0.1329 0.0000
vt 0.0535 0.1265 0.0000
vt 0.0528 0.1272 0.0000
vt 0.0604 0.1203 0.0000
vt 0.0668 0.1145 0.0000
vt 0.0689 0.1126 0.0000
vt 0.0736 0.1083 0.0000
vt 0.0793 0.1045 0.0000
vt 0.0764 0.1057 0.0000
vt 0.0976 0.1034 0.0000
vt 0.0886 0.1034 0.0000
vt 0.0824 0.1034 0.0000
vt 0.1023 0.1034 0.0000
vt 0.1088 0.1040 0.0000
vt 0.1141 0.1067 0.0000
vt 0.1179 0.1110 0.0000
vt 0.1216 0.1164 0.0000
vt 0.1390 0.1418 0.0000
vt 0.1344 0.1693 0.0000
vt 0.1477 0.1543 0.0000
vt 0.1394 0.1709 0.0000
vt 0.1456 0.1702 0.0000
vt 0.1497 0.1572 0.0000
vt 0.1486 0.1681 0.0000
vt 0.1508 0.1633 0.0000
vt 0.1253 0.1663 0.0000
# 37 texture coords

g Y192_40SG_R_Y192_40SG_R_2_DTaSI
usemtl windowglass_1SG
s 1
f 125/119/130 126/120/131 127/121/132 
f 128/122/133 127/121/132 129/123/134 
f 127/121/132 130/124/135 129/123/134 
f 128/122/133 131/125/136 127/121/132 
f 131/125/136 125/119/130 127/121/132 
f 132/126/137 125/119/130 133/127/138 
f 125/119/130 131/125/136 133/127/138 
f 132/126/137 134/128/139 125/119/130 
f 135/129/140 125/119/130 134/128/139 
f 135/129/140 136/130/141 125/119/130 
f 137/131/142 125/119/130 138/132/141 
f 125/119/130 136/130/141 138/132/141 
f 139/133/143 125/119/130 137/131/142 
f 140/134/144 126/120/131 139/133/143 
f 126/120/131 125/119/130 139/133/143 
f 141/135/145 126/120/131 140/134/144 
f 126/120/131 141/135/145 142/136/146 
f 143/137/147 127/121/132 144/138/148 
f 144/138/148 127/121/132 142/136/146 
f 127/121/132 126/120/131 142/136/146 
f 145/139/149 127/121/132 146/140/150 
f 146/140/150 127/121/132 147/141/150 
f 147/141/150 127/121/132 143/137/147 
f 148/142/151 130/124/135 145/139/149 
f 145/139/149 130/124/135 127/121/132 
f 148/142/151 149/143/152 130/124/135 
f 149/143/152 150/144/152 130/124/135 
f 150/144/152 151/145/152 130/124/135 
f 130/124/135 151/145/152 152/146/153 
f 153/147/154 130/124/135 152/146/153 
f 154/148/155 155/149/156 156/150/157 
f 156/150/157 155/149/156 157/151/158 
f 155/149/156 158/152/158 157/151/158 
f 157/151/158 158/152/158 159/153/158 
f 159/153/158 158/152/158 160/154/158 
f 130/124/135 153/147/154 161/155/159 
f 153/147/154 155/149/156 161/155/159 
f 161/155/159 155/149/156 154/148/155 
f 130/124/135 161/155/159 129/123/134 
# 39 faces

