# 3ds Max Wavefront OBJ Exporter v0.97b - (c)2007 guruware
# File Created: 21.12.2015 13:35:25

mtllib Y192_305B_L.mtl

#
# object Y192_305B_L_DTaSI_Y192_305B_L
#

v  -130.6007 85.1317 -92.9794
v  -129.3925 88.1112 -91.7890
v  -124.3605 85.0867 -92.9992
v  -124.3605 90.9189 -90.6876
v  -127.7881 90.5281 -90.8266
v  -44.9387 96.4216 -89.2811
v  -41.0640 96.4633 -89.3160
v  -44.9387 90.7186 -91.4184
v  -40.2517 90.7067 -91.4725
v  -76.5016 90.7988 -91.0614
v  -76.5016 95.6066 -89.2122
v  -69.1255 90.7800 -91.1406
v  -69.1255 95.8824 -89.1896
v  -96.3999 67.5284 -99.9668
v  -90.3961 67.3071 -100.0654
v  -96.3999 62.2483 -102.0217
v  -90.3961 61.9291 -102.1520
v  -124.3605 63.7348 -101.4418
v  -130.7054 64.0722 -101.3375
v  -124.3605 68.5591 -99.5367
v  -130.6819 68.7921 -99.4696
v  -44.9387 65.6313 -100.8378
v  -36.6696 65.3264 -100.9802
v  -44.9387 59.5123 -103.1407
v  -35.7806 59.0254 -103.3407
v  -96.3999 84.8845 -93.2109
v  -90.3961 84.8410 -93.2625
v  -96.3999 79.4129 -95.3418
v  -90.3961 79.3440 -95.3958
v  -90.3961 94.6083 -89.4719
v  -90.3961 90.8338 -90.9368
v  -96.3999 94.0515 -89.6410
v  -96.3999 90.8488 -90.8882
v  -53.5156 96.3294 -89.2037
v  -53.5156 90.7404 -91.3139
v  -60.7201 96.1967 -89.1639
v  -60.7201 90.7588 -91.2300
v  -44.9387 101.2717 -87.4675
v  -41.7486 101.3311 -87.4921
v  -60.7201 100.9246 -87.3691
v  -53.5156 101.1108 -87.4015
v  -69.1255 100.5130 -87.4199
v  -76.5016 100.1517 -87.4643
v  -90.3961 98.9341 -87.7922
v  -96.3999 98.2651 -87.9988
v  -124.3605 94.3107 -89.3356
v  -115.7836 91.9331 -90.3366
v  -115.7836 95.6786 -88.8580
v  -44.9387 78.8212 -95.8775
v  -53.5156 78.9199 -95.7772
v  -44.9387 84.5114 -93.7448
v  -53.5156 84.5736 -93.6423
v  -38.5641 78.7479 -95.9524
v  -39.3717 84.4709 -93.8085
v  -83.8777 95.2127 -89.2884
v  -83.8777 90.8174 -90.9881
v  -83.8777 99.6604 -87.5679
v  -102.2322 67.7434 -99.8710
v  -102.2322 62.5583 -101.8952
v  -102.2322 79.4800 -95.2888
v  -102.2322 73.7019 -97.5447
v  -96.3999 73.5465 -97.6248
v  -102.2322 93.5107 -89.8052
v  -102.2322 90.8635 -90.8398
v  -102.2322 97.6153 -88.1995
v  -108.2360 92.8427 -90.0262
v  -108.2360 90.8785 -90.7964
v  -108.2360 96.7940 -88.4747
v  -115.7836 90.8974 -90.7448
v  -115.7836 68.2429 -99.6637
v  -115.7836 63.2788 -101.6150
v  -125.3986 94.1279 -89.4006
v  -44.9387 55.0826 -104.8103
v  -35.1277 54.3929 -105.0762
v  -53.5156 59.9683 -102.9536
v  -53.5156 55.6856 -104.5778
v  -60.7201 60.3513 -102.7966
v  -60.7201 56.1944 -104.3807
v  -69.1255 56.7887 -104.1500
v  -69.1255 60.7982 -102.6138
v  -76.5016 61.1903 -102.4535
v  -76.5016 57.3102 -103.9476
v  -83.8777 61.5825 -102.2935
v  -83.8777 57.8340 -103.7434
v  -90.3961 58.3012 -103.5596
v  -96.3999 58.7316 -103.3902
v  -102.2322 59.1496 -103.2257
v  -108.2360 62.8775 -101.7676
v  -108.2360 59.5808 -103.0582
v  -115.7836 60.1264 -102.8537
v  -124.3605 60.7465 -102.6214
v  -130.7197 61.2078 -102.4693
v  -53.5156 65.9475 -100.6885
v  -60.7201 66.2131 -100.5646
v  -69.1255 66.5229 -100.4215
v  -76.5016 66.7948 -100.2963
v  -83.8777 67.0668 -100.1725
v  -108.2360 67.9647 -99.7758
v  -37.6088 71.9795 -98.4879
v  -44.9387 72.1749 -98.3770
v  -53.5156 72.4035 -98.2443
v  -60.7201 72.5956 -98.1354
v  -69.1255 72.8196 -98.0111
v  -76.5016 73.0162 -97.9022
v  -83.8777 73.2128 -97.7959
v  -90.3961 73.3865 -97.7070
v  -108.2360 73.8618 -97.4667
v  -115.7836 74.0630 -97.3752
v  -124.3605 74.2915 -97.2722
v  -130.6537 74.4591 -97.2243
v  -60.7201 79.0027 -95.6968
v  -69.1255 79.0994 -95.6072
v  -76.5016 79.1842 -95.5285
v  -83.8777 79.2690 -95.4539
v  -108.2360 79.5490 -95.2394
v  -115.7836 79.6356 -95.1833
v  -124.3605 79.7341 -95.1207
v  -130.6272 79.8059 -95.1028
v  -60.7201 84.6259 -93.5601
v  -69.1255 84.6869 -93.4705
v  -76.5016 84.7404 -93.3915
v  -83.8777 84.7938 -93.3174
v  -102.2322 84.9267 -93.1600
v  -108.2360 84.9702 -93.1134
v  -115.7836 85.0247 -93.0594
# 125 vertices

vn -0.0003 0.3706 -0.9288
vn -0.0005 0.3707 -0.9287
vn -0.0029 0.3686 -0.9296
vn -0.0052 0.3692 -0.9294
vn -0.0031 0.3696 -0.9292
vn -0.0126 0.3508 -0.9364
vn -0.0116 0.3499 -0.9367
vn -0.0104 0.3514 -0.9362
vn -0.0094 0.3500 -0.9367
vn -0.0087 0.3593 -0.9332
vn -0.0100 0.3589 -0.9333
vn -0.0090 0.3575 -0.9339
vn -0.0104 0.3570 -0.9340
vn -0.0020 0.3626 -0.9319
vn -0.0020 0.3617 -0.9323
vn -0.0010 0.3626 -0.9319
vn -0.0011 0.3616 -0.9323
vn 0.0020 0.3671 -0.9302
vn 0.0040 0.3676 -0.9300
vn 0.0012 0.3672 -0.9301
vn 0.0034 0.3679 -0.9299
vn -0.0032 0.3521 -0.9360
vn -0.0027 0.3508 -0.9364
vn -0.0018 0.3523 -0.9359
vn -0.0014 0.3509 -0.9364
vn -0.0055 0.3629 -0.9318
vn -0.0053 0.3618 -0.9323
vn -0.0043 0.3628 -0.9319
vn -0.0042 0.3617 -0.9323
vn -0.0073 0.3619 -0.9322
vn -0.0064 0.3620 -0.9322
vn -0.0075 0.3630 -0.9317
vn -0.0066 0.3631 -0.9317
vn -0.0119 0.3529 -0.9356
vn -0.0102 0.3536 -0.9353
vn -0.0110 0.3550 -0.9348
vn -0.0094 0.3556 -0.9346
vn -0.0138 0.3502 -0.9366
vn -0.0130 0.3498 -0.9367
vn -0.0120 0.3545 -0.9350
vn -0.0130 0.3522 -0.9358
vn -0.0113 0.3566 -0.9342
vn -0.0109 0.3585 -0.9335
vn -0.0079 0.3617 -0.9323
vn -0.0081 0.3629 -0.9318
vn -0.0061 0.3695 -0.9292
vn -0.0061 0.3673 -0.9301
vn -0.0065 0.3669 -0.9302
vn -0.0067 0.3517 -0.9361
vn -0.0067 0.3536 -0.9354
vn -0.0083 0.3511 -0.9363
vn -0.0085 0.3531 -0.9355
vn -0.0063 0.3506 -0.9365
vn -0.0078 0.3501 -0.9367
vn -0.0084 0.3606 -0.9327
vn -0.0074 0.3609 -0.9326
vn -0.0092 0.3604 -0.9328
vn -0.0017 0.3636 -0.9315
vn -0.0007 0.3636 -0.9316
vn -0.0039 0.3638 -0.9315
vn -0.0028 0.3637 -0.9315
vn -0.0031 0.3627 -0.9319
vn -0.0070 0.3642 -0.9313
vn -0.0062 0.3642 -0.9313
vn -0.0076 0.3640 -0.9314
vn -0.0063 0.3655 -0.9308
vn -0.0053 0.3654 -0.9308
vn -0.0067 0.3652 -0.9309
vn -0.0050 0.3670 -0.9302
vn -0.0003 0.3659 -0.9307
vn 0.0006 0.3657 -0.9307
vn -0.0055 0.3707 -0.9287
vn -0.0010 0.3523 -0.9359
vn -0.0007 0.3507 -0.9365
vn -0.0018 0.3542 -0.9352
vn -0.0009 0.3543 -0.9351
vn -0.0015 0.3559 -0.9345
vn -0.0008 0.3558 -0.9345
vn -0.0007 0.3575 -0.9339
vn -0.0014 0.3575 -0.9339
vn -0.0013 0.3591 -0.9333
vn -0.0006 0.3591 -0.9333
vn -0.0012 0.3606 -0.9327
vn -0.0007 0.3605 -0.9328
vn -0.0006 0.3615 -0.9324
vn -0.0005 0.3625 -0.9320
vn -0.0003 0.3634 -0.9316
vn 0.0001 0.3645 -0.9312
vn 0.0005 0.3644 -0.9312
vn 0.0010 0.3656 -0.9308
vn 0.0023 0.3669 -0.9302
vn 0.0043 0.3674 -0.9301
vn -0.0033 0.3541 -0.9352
vn -0.0029 0.3558 -0.9346
vn -0.0028 0.3575 -0.9339
vn -0.0026 0.3591 -0.9333
vn -0.0023 0.3606 -0.9327
vn -0.0008 0.3646 -0.9312
vn -0.0043 0.3507 -0.9365
vn -0.0049 0.3520 -0.9360
vn -0.0050 0.3540 -0.9352
vn -0.0044 0.3557 -0.9346
vn -0.0043 0.3575 -0.9339
vn -0.0041 0.3591 -0.9333
vn -0.0036 0.3606 -0.9327
vn -0.0031 0.3617 -0.9323
vn -0.0019 0.3647 -0.9311
vn -0.0014 0.3660 -0.9306
vn 0.0002 0.3674 -0.9301
vn 0.0024 0.3683 -0.9297
vn -0.0060 0.3555 -0.9347
vn -0.0059 0.3573 -0.9340
vn -0.0056 0.3591 -0.9333
vn -0.0048 0.3606 -0.9327
vn -0.0030 0.3649 -0.9310
vn -0.0026 0.3664 -0.9305
vn -0.0009 0.3680 -0.9298
vn 0.0011 0.3691 -0.9294
vn -0.0077 0.3552 -0.9348
vn -0.0075 0.3571 -0.9340
vn -0.0071 0.3589 -0.9333
vn -0.0062 0.3606 -0.9327
vn -0.0051 0.3640 -0.9314
vn -0.0042 0.3651 -0.9309
vn -0.0039 0.3667 -0.9303
# 125 vertex normals

vt 0.1861 0.8450 0.0000
vt 0.1896 0.8357 0.0000
vt 0.2043 0.8451 0.0000
vt 0.2043 0.8269 0.0000
vt 0.1943 0.8281 0.0000
vt 0.4353 0.8101 0.0000
vt 0.4466 0.8100 0.0000
vt 0.4353 0.8278 0.0000
vt 0.4490 0.8279 0.0000
vt 0.3435 0.8274 0.0000
vt 0.3435 0.8124 0.0000
vt 0.3650 0.8275 0.0000
vt 0.3649 0.8116 0.0000
vt 0.2857 0.9000 0.0000
vt 0.3032 0.9007 0.0000
vt 0.2857 0.9165 0.0000
vt 0.3032 0.9175 0.0000
vt 0.2043 0.9119 0.0000
vt 0.1859 0.9109 0.0000
vt 0.2043 0.8968 0.0000
vt 0.1859 0.8962 0.0000
vt 0.4355 0.9058 0.0000
vt 0.4596 0.9067 0.0000
vt 0.4355 0.9248 0.0000
vt 0.4622 0.9263 0.0000
vt 0.2856 0.8458 0.0000
vt 0.3031 0.8460 0.0000
vt 0.2857 0.8629 0.0000
vt 0.3031 0.8631 0.0000
vt 0.3031 0.8155 0.0000
vt 0.3031 0.8273 0.0000
vt 0.2856 0.8172 0.0000
vt 0.2856 0.8272 0.0000
vt 0.4103 0.8103 0.0000
vt 0.4104 0.8277 0.0000
vt 0.3894 0.8107 0.0000
vt 0.3894 0.8276 0.0000
vt 0.4353 0.7950 0.0000
vt 0.4446 0.7949 0.0000
vt 0.3894 0.7960 0.0000
vt 0.4103 0.7955 0.0000
vt 0.3649 0.7972 0.0000
vt 0.3435 0.7983 0.0000
vt 0.3030 0.8020 0.0000
vt 0.2856 0.8040 0.0000
vt 0.2043 0.8162 0.0000
vt 0.2292 0.8237 0.0000
vt 0.2292 0.8120 0.0000
vt 0.4354 0.8648 0.0000
vt 0.4105 0.8645 0.0000
vt 0.4354 0.8471 0.0000
vt 0.4104 0.8469 0.0000
vt 0.4540 0.8650 0.0000
vt 0.4516 0.8473 0.0000
vt 0.3220 0.8136 0.0000
vt 0.3220 0.8273 0.0000
vt 0.3220 0.7997 0.0000
vt 0.2687 0.8993 0.0000
vt 0.2688 0.9155 0.0000
vt 0.2687 0.8627 0.0000
vt 0.2687 0.8807 0.0000
vt 0.2857 0.8812 0.0000
vt 0.2686 0.8188 0.0000
vt 0.2686 0.8271 0.0000
vt 0.2686 0.8060 0.0000
vt 0.2512 0.8209 0.0000
vt 0.2512 0.8270 0.0000
vt 0.2512 0.8086 0.0000
vt 0.2292 0.8270 0.0000
vt 0.2293 0.8978 0.0000
vt 0.2293 0.9133 0.0000
vt 0.2012 0.8168 0.0000
vt 0.4356 0.9386 0.0000
vt 0.4641 0.9407 0.0000
vt 0.4106 0.9234 0.0000
vt 0.4106 0.9368 0.0000
vt 0.3896 0.9223 0.0000
vt 0.3896 0.9352 0.0000
vt 0.3652 0.9334 0.0000
vt 0.3651 0.9209 0.0000
vt 0.3437 0.9197 0.0000
vt 0.3437 0.9318 0.0000
vt 0.3222 0.9185 0.0000
vt 0.3222 0.9302 0.0000
vt 0.3032 0.9288 0.0000
vt 0.2857 0.9275 0.0000
vt 0.2688 0.9262 0.0000
vt 0.2513 0.9146 0.0000
vt 0.2513 0.9249 0.0000
vt 0.2293 0.9232 0.0000
vt 0.2043 0.9213 0.0000
vt 0.1858 0.9199 0.0000
vt 0.4105 0.9048 0.0000
vt 0.3896 0.9040 0.0000
vt 0.3651 0.9031 0.0000
vt 0.3436 0.9023 0.0000
vt 0.3222 0.9014 0.0000
vt 0.2513 0.8987 0.0000
vt 0.4568 0.8861 0.0000
vt 0.4355 0.8855 0.0000
vt 0.4105 0.8847 0.0000
vt 0.3895 0.8842 0.0000
vt 0.3651 0.8835 0.0000
vt 0.3436 0.8829 0.0000
vt 0.3221 0.8822 0.0000
vt 0.3032 0.8817 0.0000
vt 0.2512 0.8802 0.0000
vt 0.2293 0.8796 0.0000
vt 0.2043 0.8789 0.0000
vt 0.1860 0.8784 0.0000
vt 0.3895 0.8642 0.0000
vt 0.3650 0.8639 0.0000
vt 0.3436 0.8636 0.0000
vt 0.3221 0.8633 0.0000
vt 0.2512 0.8625 0.0000
vt 0.2293 0.8622 0.0000
vt 0.2043 0.8619 0.0000
vt 0.1861 0.8617 0.0000
vt 0.3895 0.8467 0.0000
vt 0.3650 0.8465 0.0000
vt 0.3435 0.8463 0.0000
vt 0.3221 0.8461 0.0000
vt 0.2687 0.8457 0.0000
vt 0.2512 0.8455 0.0000
vt 0.2292 0.8453 0.0000
# 125 texture coords

g Y192_305B_L_DTaSI_Y192_305B_L
usemtl windowglass_1SG
s 1
f 1/1/1 2/2/2 3/3/3 
f 4/4/4 3/3/3 5/5/5 
f 2/2/2 5/5/5 3/3/3 
f 6/6/6 7/7/7 8/8/8 
f 7/7/7 9/9/9 8/8/8 
f 10/10/10 11/11/11 12/12/12 
f 11/11/11 13/13/13 12/12/12 
f 14/14/14 15/15/15 16/16/16 
f 15/15/15 17/17/17 16/16/16 
f 18/18/18 19/19/19 20/20/20 
f 19/19/19 21/21/21 20/20/20 
f 22/22/22 23/23/23 24/24/24 
f 23/23/23 25/25/25 24/24/24 
f 26/26/26 27/27/27 28/28/28 
f 27/27/27 29/29/29 28/28/28 
f 30/30/30 31/31/31 32/32/32 
f 31/31/31 33/33/33 32/32/32 
f 34/34/34 35/35/35 36/36/36 
f 35/35/35 37/37/37 36/36/36 
f 38/38/38 39/39/39 6/6/6 
f 39/39/39 7/7/7 6/6/6 
f 36/36/36 40/40/40 34/34/34 
f 40/40/40 41/41/41 34/34/34 
f 42/42/42 13/13/13 43/43/43 
f 13/13/13 11/11/11 43/43/43 
f 44/44/44 30/30/30 45/45/45 
f 30/30/30 32/32/32 45/45/45 
f 4/4/4 46/46/46 47/47/47 
f 46/46/46 48/48/48 47/47/47 
f 49/49/49 50/50/50 51/51/51 
f 50/50/50 52/52/52 51/51/51 
f 35/35/35 34/34/34 8/8/8 
f 34/34/34 6/6/6 8/8/8 
f 34/34/34 41/41/41 6/6/6 
f 41/41/41 38/38/38 6/6/6 
f 36/36/36 37/37/37 13/13/13 
f 37/37/37 12/12/12 13/13/13 
f 53/53/53 49/49/49 54/54/54 
f 49/49/49 51/51/51 54/54/54 
f 13/13/13 42/42/42 36/36/36 
f 42/42/42 40/40/40 36/36/36 
f 11/11/11 10/10/10 55/55/55 
f 10/10/10 56/56/56 55/55/55 
f 55/55/55 57/57/57 11/11/11 
f 57/57/57 43/43/43 11/11/11 
f 57/57/57 55/55/55 44/44/44 
f 55/55/55 30/30/30 44/44/44 
f 55/55/55 56/56/56 30/30/30 
f 56/56/56 31/31/31 30/30/30 
f 58/58/58 14/14/14 59/59/59 
f 14/14/14 16/16/16 59/59/59 
f 60/60/60 28/28/28 61/61/61 
f 28/28/28 62/62/62 61/61/61 
f 32/32/32 33/33/33 63/63/63 
f 33/33/33 64/64/64 63/63/63 
f 45/45/45 32/32/32 65/65/65 
f 32/32/32 63/63/63 65/65/65 
f 63/63/63 64/64/64 66/66/66 
f 64/64/64 67/67/67 66/66/66 
f 66/66/66 68/68/68 63/63/63 
f 68/68/68 65/65/65 63/63/63 
f 69/69/69 47/47/47 67/67/67 
f 47/47/47 66/66/66 67/67/67 
f 68/68/68 66/66/66 48/48/48 
f 66/66/66 47/47/47 48/48/48 
f 69/69/69 4/4/4 47/47/47 
f 20/20/20 70/70/70 18/18/18 
f 70/70/70 71/71/71 18/18/18 
f 46/46/46 4/4/4 72/72/72 
f 4/4/4 5/5/5 72/72/72 
f 24/24/24 25/25/25 73/73/73 
f 25/25/25 74/74/74 73/73/73 
f 75/75/75 24/24/24 76/76/76 
f 24/24/24 73/73/73 76/76/76 
f 77/77/77 75/75/75 78/78/78 
f 75/75/75 76/76/76 78/78/78 
f 78/78/78 79/79/79 77/77/77 
f 79/79/79 80/80/80 77/77/77 
f 81/81/81 80/80/80 82/82/82 
f 80/80/80 79/79/79 82/82/82 
f 83/83/83 81/81/81 84/84/84 
f 81/81/81 82/82/82 84/84/84 
f 17/17/17 83/83/83 85/85/85 
f 83/83/83 84/84/84 85/85/85 
f 85/85/85 86/86/86 17/17/17 
f 86/86/86 16/16/16 17/17/17 
f 59/59/59 16/16/16 87/87/87 
f 16/16/16 86/86/86 87/87/87 
f 88/88/88 59/59/59 89/89/89 
f 59/59/59 87/87/87 89/89/89 
f 71/71/71 88/88/88 90/90/90 
f 88/88/88 89/89/89 90/90/90 
f 90/90/90 91/91/91 71/71/71 
f 91/91/91 18/18/18 71/71/71 
f 19/19/19 18/18/18 92/92/92 
f 18/18/18 91/91/91 92/92/92 
f 24/24/24 75/75/75 22/22/22 
f 75/75/75 93/93/93 22/22/22 
f 75/75/75 77/77/77 93/93/93 
f 77/77/77 94/94/94 93/93/93 
f 95/95/95 94/94/94 80/80/80 
f 94/94/94 77/77/77 80/80/80 
f 80/80/80 81/81/81 95/95/95 
f 81/81/81 96/96/96 95/95/95 
f 97/97/97 96/96/96 83/83/83 
f 96/96/96 81/81/81 83/83/83 
f 15/15/15 97/97/97 17/17/17 
f 97/97/97 83/83/83 17/17/17 
f 98/98/98 58/58/58 88/88/88 
f 58/58/58 59/59/59 88/88/88 
f 70/70/70 98/98/98 71/71/71 
f 98/98/98 88/88/88 71/71/71 
f 23/23/23 22/22/22 99/99/99 
f 22/22/22 100/100/100 99/99/99 
f 22/22/22 93/93/93 100/100/100 
f 93/93/93 101/101/101 100/100/100 
f 102/102/102 101/101/101 94/94/94 
f 101/101/101 93/93/93 94/94/94 
f 94/94/94 95/95/95 102/102/102 
f 95/95/95 103/103/103 102/102/102 
f 95/95/95 96/96/96 103/103/103 
f 96/96/96 104/104/104 103/103/103 
f 105/105/105 104/104/104 97/97/97 
f 104/104/104 96/96/96 97/97/97 
f 106/106/106 105/105/105 15/15/15 
f 105/105/105 97/97/97 15/15/15 
f 15/15/15 14/14/14 106/106/106 
f 14/14/14 62/62/62 106/106/106 
f 61/61/61 62/62/62 58/58/58 
f 62/62/62 14/14/14 58/58/58 
f 107/107/107 61/61/61 98/98/98 
f 61/61/61 58/58/58 98/98/98 
f 108/108/108 107/107/107 70/70/70 
f 107/107/107 98/98/98 70/70/70 
f 109/109/109 108/108/108 20/20/20 
f 108/108/108 70/70/70 20/20/20 
f 20/20/20 21/21/21 109/109/109 
f 21/21/21 110/110/110 109/109/109 
f 99/99/99 100/100/100 53/53/53 
f 100/100/100 49/49/49 53/53/53 
f 100/100/100 101/101/101 49/49/49 
f 101/101/101 50/50/50 49/49/49 
f 111/111/111 50/50/50 102/102/102 
f 50/50/50 101/101/101 102/102/102 
f 102/102/102 103/103/103 111/111/111 
f 103/103/103 112/112/112 111/111/111 
f 103/103/103 104/104/104 112/112/112 
f 104/104/104 113/113/113 112/112/112 
f 114/114/114 113/113/113 105/105/105 
f 113/113/113 104/104/104 105/105/105 
f 29/29/29 114/114/114 106/106/106 
f 114/114/114 105/105/105 106/106/106 
f 28/28/28 29/29/29 62/62/62 
f 29/29/29 106/106/106 62/62/62 
f 115/115/115 60/60/60 107/107/107 
f 60/60/60 61/61/61 107/107/107 
f 107/107/107 108/108/108 115/115/115 
f 108/108/108 116/116/116 115/115/115 
f 108/108/108 109/109/109 116/116/116 
f 109/109/109 117/117/117 116/116/116 
f 109/109/109 110/110/110 117/117/117 
f 110/110/110 118/118/118 117/117/117 
f 119/119/119 52/52/52 111/111/111 
f 52/52/52 50/50/50 111/111/111 
f 120/120/120 119/119/119 112/112/112 
f 119/119/119 111/111/111 112/112/112 
f 121/121/121 120/120/120 113/113/113 
f 120/120/120 112/112/112 113/113/113 
f 122/122/122 121/121/121 114/114/114 
f 121/121/121 113/113/113 114/114/114 
f 27/27/27 122/122/122 29/29/29 
f 122/122/122 114/114/114 29/29/29 
f 123/123/123 26/26/26 60/60/60 
f 26/26/26 28/28/28 60/60/60 
f 124/124/124 123/123/123 115/115/115 
f 123/123/123 60/60/60 115/115/115 
f 115/115/115 116/116/116 124/124/124 
f 116/116/116 125/125/125 124/124/124 
f 116/116/116 117/117/117 125/125/125 
f 117/117/117 3/3/3 125/125/125 
f 1/1/1 3/3/3 118/118/118 
f 3/3/3 117/117/117 118/118/118 
f 8/8/8 9/9/9 51/51/51 
f 9/9/9 54/54/54 51/51/51 
f 51/51/51 52/52/52 8/8/8 
f 52/52/52 35/35/35 8/8/8 
f 37/37/37 35/35/35 119/119/119 
f 35/35/35 52/52/52 119/119/119 
f 12/12/12 37/37/37 120/120/120 
f 37/37/37 119/119/119 120/120/120 
f 120/120/120 121/121/121 12/12/12 
f 121/121/121 10/10/10 12/12/12 
f 56/56/56 10/10/10 122/122/122 
f 10/10/10 121/121/121 122/122/122 
f 31/31/31 56/56/56 27/27/27 
f 56/56/56 122/122/122 27/27/27 
f 27/27/27 26/26/26 31/31/31 
f 26/26/26 33/33/33 31/31/31 
f 64/64/64 33/33/33 123/123/123 
f 33/33/33 26/26/26 123/123/123 
f 67/67/67 64/64/64 124/124/124 
f 64/64/64 123/123/123 124/124/124 
f 124/124/124 125/125/125 67/67/67 
f 125/125/125 69/69/69 67/67/67 
f 125/125/125 3/3/3 69/69/69 
f 3/3/3 4/4/4 69/69/69 
# 206 faces

