# 3ds Max Wavefront OBJ Exporter v0.97b - (c)2007 guruware
# File Created: 21.12.2015 13:32:50

mtllib Y192_181C_L.mtl

#
# object Y192_181C_L_DaS_Y192_181C_L
#

v  44.3278 97.1620 -83.5459
v  62.8268 90.8648 -84.8857
v  44.4087 95.4113 -86.4313
v  62.6810 89.5131 -87.5834
v  35.9994 101.0099 -79.6689
v  44.3331 98.4189 -80.3683
v  36.0067 99.6533 -83.0247
v  35.9995 101.4395 -78.2367
v  44.3348 98.7880 -79.1035
v  35.9813 101.4515 -77.9841
v  44.3198 98.7783 -78.9476
v  43.4084 90.3714 -89.8036
v  34.9037 93.0816 -89.2807
v  43.3983 90.5870 -89.7555
v  34.9629 93.2655 -89.2461
v  62.8507 92.2529 -81.2267
v  62.8448 91.8311 -82.2284
v  62.8339 92.2665 -81.0469
v  44.1832 93.5049 -88.3933
v  62.3095 87.4546 -89.4459
v  35.1524 94.2362 -88.8604
v  43.9547 92.1987 -89.2061
v  35.4569 95.8871 -88.0531
v  130.0882 64.1339 -88.8265
v  128.1023 65.2647 -88.5897
v  130.0858 64.1136 -88.5083
v  128.0983 65.2400 -88.2833
v  83.9348 74.9046 -92.9672
v  61.6711 83.8038 -91.1226
v  83.9320 75.1848 -92.8845
v  61.6623 84.0557 -91.0522
v  113.3039 72.1382 -87.6691
v  101.5041 77.1897 -86.3597
v  113.3380 72.4871 -86.8346
v  101.5186 77.5707 -85.4974
v  85.0702 84.1231 -83.6921
v  101.4973 77.5727 -85.2758
v  85.0511 84.1491 -83.4861
v  113.3181 72.4594 -86.5946
v  101.4607 76.2006 -88.3962
v  113.2102 71.1667 -89.5632
v  101.3728 74.6621 -90.7400
v  113.0313 69.6167 -91.7724
v  85.1459 81.1474 -89.4287
v  85.1264 82.5688 -86.8743
v  85.0593 83.7132 -84.6133
v  101.1252 72.6660 -92.5242
v  112.5753 67.6651 -93.5522
v  100.6534 70.5940 -93.8826
v  111.9749 65.6562 -94.9054
v  84.9652 79.0715 -91.1810
v  125.9763 57.0349 -96.9670
v  125.9001 56.9263 -96.9509
v  124.2970 57.8620 -96.7624
v  124.2243 57.7449 -96.7505
v  126.9288 58.3814 -96.4984
v  125.2191 59.3338 -96.3001
v  111.2370 64.0113 -95.2859
v  119.3698 60.2863 -96.1637
v  111.2134 63.8204 -95.3097
v  119.3195 60.1404 -96.1645
v  120.3124 61.8709 -95.7790
v  99.9407 68.7404 -94.2443
v  99.9336 68.4926 -94.3034
v  120.9951 63.5592 -94.4645
v  126.0831 60.9154 -95.1072
v  121.5994 65.5234 -92.7124
v  126.9888 62.7231 -93.3845
v  121.9987 66.9873 -90.5770
v  127.6036 64.0851 -91.2817
v  122.2255 67.9056 -88.7430
v  127.9630 64.9496 -89.4623
v  127.8251 59.8967 -95.3263
v  122.3128 68.2329 -87.8956
v  122.3007 68.2009 -87.6213
v  129.9319 63.8226 -89.7077
v  128.8327 61.6521 -93.6133
v  129.5241 62.9781 -91.5218
v  35.7794 97.8170 -86.0528
v  84.5913 77.1027 -92.4162
v  62.1776 86.0305 -90.5554
# 81 vertices

vn 0.2552 0.8689 -0.4242
vn 0.2763 0.8779 -0.3911
vn 0.2126 0.7822 -0.5856
vn 0.2277 0.7704 -0.5956
vn 0.2510 0.9073 -0.3373
vn 0.2744 0.9031 -0.3302
vn 0.2265 0.8706 -0.4367
vn 0.2684 0.9334 -0.2380
vn 0.2905 0.9290 -0.2293
vn 0.3027 0.9528 -0.0234
vn 0.3290 0.9401 0.0889
vn 0.0091 0.2186 -0.9758
vn 0.0003 0.1851 -0.9827
vn 0.0335 0.2990 -0.9537
vn 0.0403 0.3305 -0.9429
vn 0.2900 0.8999 -0.3257
vn 0.2855 0.8950 -0.3428
vn 0.3336 0.9419 -0.0396
vn 0.1532 0.6340 -0.7580
vn 0.1666 0.6254 -0.7623
vn 0.0689 0.4070 -0.9108
vn 0.0738 0.4138 -0.9074
vn 0.1324 0.6019 -0.7875
vn 0.4514 0.8495 -0.2732
vn 0.4236 0.8658 -0.2664
vn 0.4992 0.8644 0.0603
vn 0.4710 0.8787 0.0778
vn 0.0331 0.2831 -0.9585
vn 0.0280 0.2698 -0.9625
vn 0.0125 0.2387 -0.9710
vn 0.0169 0.2428 -0.9699
vn 0.3307 0.8438 -0.4227
vn 0.3063 0.8581 -0.4121
vn 0.3659 0.8897 -0.2732
vn 0.3302 0.8898 -0.3150
vn 0.2994 0.8901 -0.3436
vn 0.3824 0.9236 0.0279
vn 0.3439 0.9351 -0.0859
vn 0.4175 0.8982 0.1376
vn 0.2922 0.8251 -0.4836
vn 0.3076 0.8019 -0.5122
vn 0.2424 0.7244 -0.6453
vn 0.2546 0.7061 -0.6608
vn 0.2336 0.7467 -0.6228
vn 0.2827 0.8487 -0.4470
vn 0.2878 0.8639 -0.4133
vn 0.1717 0.5822 -0.7947
vn 0.1859 0.5779 -0.7947
vn 0.0776 0.3808 -0.9214
vn 0.0918 0.4009 -0.9115
vn 0.1584 0.5731 -0.8041
vn 0.0291 0.2721 -0.9618
vn -0.1424 -0.0448 -0.9888
vn 0.0195 0.2535 -0.9671
vn -0.1286 -0.0208 -0.9915
vn 0.1347 0.4280 -0.8937
vn 0.1232 0.4206 -0.8989
vn -0.0022 0.2160 -0.9764
vn -0.0053 0.2201 -0.9755
vn -0.0419 0.1283 -0.9909
vn -0.0938 0.0375 -0.9949
vn 0.1018 0.4221 -0.9008
vn -0.0030 0.1986 -0.9801
vn 0.0092 0.2315 -0.9728
vn 0.1987 0.5859 -0.7857
vn 0.2121 0.5736 -0.7912
vn 0.2642 0.6887 -0.6752
vn 0.2799 0.6806 -0.6771
vn 0.3260 0.7871 -0.5236
vn 0.3473 0.7751 -0.5278
vn 0.3559 0.8310 -0.4275
vn 0.3803 0.8188 -0.4300
vn 0.2279 0.5630 -0.7944
vn 0.3978 0.8796 -0.2609
vn 0.4464 0.8863 0.1231
vn 0.4076 0.8043 -0.4325
vn 0.3023 0.6658 -0.6821
vn 0.3727 0.7603 -0.5320
vn 0.1893 0.7794 -0.5972
vn 0.0747 0.3829 -0.9208
vn 0.0834 0.4184 -0.9044
# 81 vertex normals

vt 0.5115 0.7404 0.0000
vt 0.5398 0.7507 0.0000
vt 0.5110 0.7456 0.0000
vt 0.5390 0.7552 0.0000
vt 0.4998 0.7305 0.0000
vt 0.5124 0.7353 0.0000
vt 0.4989 0.7361 0.0000
vt 0.5003 0.7283 0.0000
vt 0.5128 0.7333 0.0000
vt 0.5004 0.7279 0.0000
vt 0.5129 0.7331 0.0000
vt 0.5090 0.7551 0.0000
vt 0.4959 0.7504 0.0000
vt 0.5090 0.7548 0.0000
vt 0.4960 0.7501 0.0000
vt 0.5408 0.7448 0.0000
vt 0.5406 0.7464 0.0000
vt 0.5409 0.7445 0.0000
vt 0.5103 0.7498 0.0000
vt 0.5382 0.7594 0.0000
vt 0.4964 0.7485 0.0000
vt 0.5099 0.7521 0.0000
vt 0.4970 0.7457 0.0000
vt 0.6382 0.7868 0.0000
vt 0.6358 0.7856 0.0000
vt 0.6383 0.7864 0.0000
vt 0.6360 0.7852 0.0000
vt 0.5709 0.7788 0.0000
vt 0.5372 0.7656 0.0000
vt 0.5709 0.7784 0.0000
vt 0.5372 0.7652 0.0000
vt 0.6149 0.7772 0.0000
vt 0.5979 0.7698 0.0000
vt 0.6152 0.7759 0.0000
vt 0.5981 0.7685 0.0000
vt 0.5740 0.7584 0.0000
vt 0.5982 0.7682 0.0000
vt 0.5740 0.7581 0.0000
vt 0.6153 0.7756 0.0000
vt 0.5974 0.7731 0.0000
vt 0.6144 0.7802 0.0000
vt 0.5969 0.7772 0.0000
vt 0.6139 0.7840 0.0000
vt 0.5728 0.7679 0.0000
vt 0.5733 0.7636 0.0000
vt 0.5737 0.7598 0.0000
vt 0.5964 0.7810 0.0000
vt 0.6132 0.7877 0.0000
vt 0.5957 0.7847 0.0000
vt 0.6124 0.7912 0.0000
vt 0.5724 0.7719 0.0000
vt 0.6334 0.8017 0.0000
vt 0.6334 0.8019 0.0000
vt 0.6308 0.8009 0.0000
vt 0.6307 0.8011 0.0000
vt 0.6340 0.7995 0.0000
vt 0.6316 0.7986 0.0000
vt 0.6115 0.7937 0.0000
vt 0.6234 0.7983 0.0000
vt 0.6114 0.7940 0.0000
vt 0.6234 0.7985 0.0000
vt 0.6245 0.7959 0.0000
vt 0.5948 0.7875 0.0000
vt 0.5948 0.7878 0.0000
vt 0.6254 0.7929 0.0000
vt 0.6326 0.7959 0.0000
vt 0.6262 0.7892 0.0000
vt 0.6337 0.7925 0.0000
vt 0.6269 0.7857 0.0000
vt 0.6347 0.7893 0.0000
vt 0.6276 0.7829 0.0000
vt 0.6354 0.7867 0.0000
vt 0.6351 0.7970 0.0000
vt 0.6279 0.7817 0.0000
vt 0.6281 0.7813 0.0000
vt 0.6380 0.7879 0.0000
vt 0.6364 0.7937 0.0000
vt 0.6375 0.7904 0.0000
vt 0.4978 0.7415 0.0000
vt 0.5718 0.7754 0.0000
vt 0.5380 0.7621 0.0000
# 81 texture coords

g Y192_181C_L_DaS_Y192_181C_L
usemtl paint_whiteSG
s 2
f 1/1/1 2/2/2 3/3/3 
f 3/3/3 2/2/2 4/4/4 
f 5/5/5 6/6/6 7/7/7 
f 7/7/7 6/6/6 1/1/1 
f 8/8/8 9/9/9 5/5/5 
f 5/5/5 9/9/9 6/6/6 
f 10/10/10 11/11/11 8/8/8 
f 8/8/8 11/11/11 9/9/9 
f 12/12/12 13/13/13 14/14/14 
f 14/14/14 13/13/13 15/15/15 
f 9/9/9 16/16/16 6/6/6 
f 6/6/6 16/16/16 17/17/17 
f 16/16/16 9/9/9 18/18/18 
f 18/18/18 9/9/9 11/11/11 
f 6/6/6 17/17/17 1/1/1 
f 1/1/1 17/17/17 2/2/2 
f 3/3/3 4/4/4 19/19/19 
f 19/19/19 4/4/4 20/20/20 
f 21/21/21 22/22/22 15/15/15 
f 15/15/15 22/22/22 14/14/14 
f 23/23/23 19/19/19 21/21/21 
f 21/21/21 19/19/19 22/22/22 
f 24/24/24 25/25/25 26/26/26 
f 26/26/26 25/25/25 27/27/27 
f 28/28/28 29/29/29 30/30/30 
f 30/30/30 29/29/29 31/31/31 
f 32/32/32 33/33/33 34/34/34 
f 34/34/34 33/33/33 35/35/35 
f 35/35/35 36/36/36 37/37/37 
f 37/37/37 36/36/36 38/38/38 
f 34/34/34 35/35/35 39/39/39 
f 39/39/39 35/35/35 37/37/37 
f 40/40/40 41/41/41 42/42/42 
f 42/42/42 41/41/41 43/43/43 
f 44/44/44 4/4/4 45/45/45 
f 45/45/45 4/4/4 2/2/2 
f 40/40/40 45/45/45 33/33/33 
f 33/33/33 45/45/45 46/46/46 
f 33/33/33 32/32/32 40/40/40 
f 40/40/40 32/32/32 41/41/41 
f 42/42/42 43/43/43 47/47/47 
f 47/47/47 43/43/43 48/48/48 
f 47/47/47 48/48/48 49/49/49 
f 49/49/49 48/48/48 50/50/50 
f 4/4/4 44/44/44 20/20/20 
f 20/20/20 44/44/44 51/51/51 
f 52/52/52 53/53/53 54/54/54 
f 54/54/54 53/53/53 55/55/55 
f 56/56/56 52/52/52 57/57/57 
f 57/57/57 52/52/52 54/54/54 
f 58/58/58 59/59/59 60/60/60 
f 60/60/60 59/59/59 61/61/61 
f 58/58/58 50/50/50 59/59/59 
f 59/59/59 50/50/50 62/62/62 
f 59/59/59 62/62/62 54/54/54 
f 54/54/54 62/62/62 57/57/57 
f 59/59/59 54/54/54 61/61/61 
f 61/61/61 54/54/54 55/55/55 
f 63/63/63 58/58/58 64/64/64 
f 64/64/64 58/58/58 60/60/60 
f 30/30/30 63/63/63 28/28/28 
f 28/28/28 63/63/63 64/64/64 
f 65/65/65 66/66/66 62/62/62 
f 62/62/62 66/66/66 57/57/57 
f 48/48/48 65/65/65 50/50/50 
f 50/50/50 65/65/65 62/62/62 
f 43/43/43 67/67/67 48/48/48 
f 48/48/48 67/67/67 65/65/65 
f 67/67/67 68/68/68 65/65/65 
f 65/65/65 68/68/68 66/66/66 
f 69/69/69 70/70/70 67/67/67 
f 67/67/67 70/70/70 68/68/68 
f 41/41/41 69/69/69 43/43/43 
f 43/43/43 69/69/69 67/67/67 
f 32/32/32 71/71/71 41/41/41 
f 41/41/41 71/71/71 69/69/69 
f 71/71/71 72/72/72 69/69/69 
f 69/69/69 72/72/72 70/70/70 
f 66/66/66 73/73/73 57/57/57 
f 57/57/57 73/73/73 56/56/56 
f 34/34/34 74/74/74 32/32/32 
f 32/32/32 74/74/74 71/71/71 
f 74/74/74 34/34/34 75/75/75 
f 75/75/75 34/34/34 39/39/39 
f 25/25/25 74/74/74 27/27/27 
f 27/27/27 74/74/74 75/75/75 
f 16/16/16 36/36/36 17/17/17 
f 17/17/17 36/36/36 46/46/46 
f 36/36/36 16/16/16 38/38/38 
f 17/17/17 46/46/46 2/2/2 
f 2/2/2 46/46/46 45/45/45 
f 25/25/25 24/24/24 72/72/72 
f 72/72/72 24/24/24 76/76/76 
f 36/36/36 35/35/35 46/46/46 
f 46/46/46 35/35/35 33/33/33 
f 73/73/73 66/66/66 77/77/77 
f 77/77/77 66/66/66 68/68/68 
f 70/70/70 78/78/78 68/68/68 
f 68/68/68 78/78/78 77/77/77 
f 78/78/78 70/70/70 76/76/76 
f 76/76/76 70/70/70 72/72/72 
f 74/74/74 25/25/25 71/71/71 
f 71/71/71 25/25/25 72/72/72 
f 7/7/7 1/1/1 79/79/79 
f 79/79/79 1/1/1 3/3/3 
f 79/79/79 3/3/3 23/23/23 
f 23/23/23 3/3/3 19/19/19 
f 49/49/49 50/50/50 63/63/63 
f 63/63/63 50/50/50 58/58/58 
f 30/30/30 31/31/31 80/80/80 
f 80/80/80 31/31/31 81/81/81 
f 42/42/42 44/44/44 40/40/40 
f 40/40/40 44/44/44 45/45/45 
f 47/47/47 51/51/51 42/42/42 
f 42/42/42 51/51/51 44/44/44 
f 51/51/51 47/47/47 80/80/80 
f 80/80/80 47/47/47 49/49/49 
f 80/80/80 49/49/49 30/30/30 
f 30/30/30 49/49/49 63/63/63 
f 31/31/31 14/14/14 81/81/81 
f 81/81/81 14/14/14 22/22/22 
f 29/29/29 12/12/12 31/31/31 
f 31/31/31 12/12/12 14/14/14 
f 80/80/80 81/81/81 51/51/51 
f 51/51/51 81/81/81 20/20/20 
f 19/19/19 20/20/20 22/22/22 
f 22/22/22 20/20/20 81/81/81 
# 127 faces

#
# object Y192_181C_L_DaS_Y192_181C_L_E
#

v  43.4084 90.3714 -89.8036
v  43.3970 90.1052 -88.5574
v  34.9037 93.0816 -89.2807
v  34.8843 92.8590 -88.0267
v  35.9813 101.4515 -77.9841
v  36.1532 101.1853 -77.8824
v  44.3198 98.7783 -78.9476
v  44.2749 98.6220 -78.8618
v  36.1321 100.8505 -77.7879
v  44.1502 98.1449 -78.7561
v  35.4632 98.0099 -77.3108
v  43.5212 95.4796 -78.2229
v  62.6438 91.6502 -80.8157
v  61.9389 89.1413 -80.1611
v  62.7835 92.1202 -80.9454
v  62.8339 92.2665 -81.0469
v  126.9288 58.3814 -96.4984
v  125.6212 56.3735 -95.8590
v  125.9763 57.0349 -96.9670
v  125.9001 56.9263 -96.9509
v  128.0207 60.1891 -93.6711
v  127.8251 59.8967 -95.3263
v  128.8327 61.6521 -93.6133
v  128.7884 61.5126 -91.9747
v  129.5241 62.9781 -91.5218
v  129.2760 62.4475 -90.5020
v  129.7997 63.5061 -88.3284
v  129.9319 63.8226 -89.7077
v  130.0882 64.1339 -88.8265
v  130.0174 63.9629 -88.3831
v  130.0858 64.1136 -88.5083
v  124.3827 57.0157 -95.4848
v  124.2243 57.7449 -96.7505
v  119.4336 59.7575 -94.8963
v  119.3195 60.1404 -96.1645
v  111.2618 63.6464 -94.0486
v  111.2134 63.8204 -95.3097
v  99.9255 68.2085 -93.0605
v  86.8933 73.3758 -91.9853
v  99.9336 68.4926 -94.3034
v  83.9348 74.9046 -92.9672
v  83.9001 74.5626 -91.7383
v  61.6412 83.4747 -89.8903
v  61.6711 83.8038 -91.1226
v  127.8109 64.6237 -88.1046
v  126.7106 62.2938 -87.4309
v  128.6830 61.1795 -87.6792
v  128.0280 65.0845 -88.1622
v  128.0983 65.2400 -88.2833
v  100.3661 74.6262 -84.3959
v  101.2571 76.9620 -85.0347
v  84.0336 81.2067 -82.4957
v  84.8349 83.5456 -83.2262
v  113.0567 71.8371 -86.3885
v  112.0836 69.4952 -85.9064
v  122.0225 67.5785 -87.4348
v  120.9749 65.2408 -86.9484
v  101.4973 77.5727 -85.2758
v  85.0511 84.1491 -83.4861
v  101.4336 77.4249 -85.1613
v  84.9938 84.0092 -83.3710
v  113.2496 72.3014 -86.4840
v  113.3181 72.4594 -86.5946
v  122.3007 68.2009 -87.6213
v  122.2301 68.0418 -87.5068
v  62.8507 92.2529 -81.2267
# 66 vertices

vn -0.3281 -0.9229 -0.2013
vn -0.3290 -0.9229 -0.2002
vn -0.3086 -0.9296 -0.2014
vn -0.3129 -0.9343 -0.1707
vn 0.2517 0.4829 0.8387
vn 0.2324 0.4014 0.8859
vn 0.2408 0.4138 0.8780
vn 0.2086 0.2962 0.9321
vn 0.1794 0.1955 0.9642
vn 0.1667 0.1620 0.9726
vn 0.1607 0.1326 0.9781
vn 0.1620 0.1588 0.9739
vn 0.1778 0.2057 0.9623
vn 0.1751 0.2034 0.9633
vn 0.2268 0.3536 0.9075
vn 0.2665 0.4860 0.8323
vn 0.8416 -0.5401 -0.0003
vn 0.8329 -0.5527 -0.0278
vn 0.8206 -0.5665 -0.0751
vn 0.8093 -0.5809 -0.0874
vn 0.8691 -0.4945 -0.0119
vn 0.8673 -0.4976 -0.0146
vn 0.8798 -0.4751 -0.0167
vn 0.8902 -0.4553 -0.0147
vn 0.8980 -0.4398 -0.0103
vn 0.9009 -0.4340 -0.0084
vn 0.9042 -0.4268 -0.0140
vn 0.9047 -0.4258 -0.0094
vn 0.9045 -0.4263 -0.0144
vn 0.9020 -0.4312 -0.0225
vn 0.9041 -0.4268 -0.0205
vn -0.5134 -0.7056 -0.4884
vn -0.4741 -0.7752 -0.4175
vn -0.4775 -0.7558 -0.4481
vn -0.4617 -0.7989 -0.3854
vn -0.4471 -0.8626 -0.2366
vn -0.4424 -0.8701 -0.2172
vn -0.4054 -0.9064 -0.1184
vn -0.4046 -0.9079 -0.1097
vn -0.3780 -0.9020 -0.2086
vn -0.3776 -0.8919 -0.2489
vn -0.3784 -0.9023 -0.2066
vn -0.3764 -0.8901 -0.2570
vn -0.3760 -0.8899 -0.2583
vn -0.3606 -0.8992 -0.2480
vn -0.3605 -0.8990 -0.2489
vn 0.1683 0.1166 0.9788
vn 0.1966 0.1825 0.9633
vn 0.1774 0.1145 0.9775
vn 0.2147 0.1656 0.9625
vn 0.2541 0.2768 0.9267
vn 0.2595 0.2770 0.9252
vn 0.3469 0.4733 0.8097
vn 0.3643 0.4900 0.7920
vn 0.1903 0.1865 0.9639
vn 0.1889 0.1921 0.9630
vn 0.1908 0.2306 0.9542
vn 0.1920 0.2313 0.9537
vn 0.1745 0.1301 0.9760
vn 0.1777 0.1267 0.9759
vn 0.1647 0.1038 0.9809
vn 0.1759 0.1333 0.9753
vn 0.2987 0.5006 0.8125
vn 0.2915 0.5335 0.7939
vn 0.2468 0.3538 0.9022
vn 0.2463 0.3901 0.8872
vn 0.2409 0.3004 0.9229
vn 0.3013 0.4557 0.8376
vn 0.3190 0.4563 0.8307
vn 0.2432 0.2785 0.9291
vn 0.3391 0.9399 -0.0392
# 71 vertex normals

vt 0.5090 0.7551 0.0000
vt 0.5083 0.7569 0.0000
vt 0.4959 0.7504 0.0000
vt 0.4952 0.7522 0.0000
vt 0.5004 0.7279 0.0000
vt 0.5008 0.7277 0.0000
vt 0.5129 0.7331 0.0000
vt 0.5130 0.7328 0.0000
vt 0.5011 0.7273 0.0000
vt 0.5133 0.7321 0.0000
vt 0.5031 0.7232 0.0000
vt 0.5152 0.7283 0.0000
vt 0.5413 0.7436 0.0000
vt 0.5430 0.7399 0.0000
vt 0.5410 0.7443 0.0000
vt 0.5409 0.7445 0.0000
vt 0.6340 0.7995 0.0000
vt 0.6351 0.8026 0.0000
vt 0.6334 0.8017 0.0000
vt 0.6334 0.8019 0.0000
vt 0.6372 0.7960 0.0000
vt 0.6351 0.7970 0.0000
vt 0.6364 0.7937 0.0000
vt 0.6385 0.7927 0.0000
vt 0.6375 0.7904 0.0000
vt 0.6392 0.7899 0.0000
vt 0.6393 0.7860 0.0000
vt 0.6380 0.7879 0.0000
vt 0.6382 0.7868 0.0000
vt 0.6386 0.7863 0.0000
vt 0.6383 0.7864 0.0000
vt 0.6326 0.8036 0.0000
vt 0.6305 0.8032 0.0000
vt 0.6307 0.8011 0.0000
vt 0.6229 0.8004 0.0000
vt 0.6234 0.7985 0.0000
vt 0.6108 0.7957 0.0000
vt 0.6114 0.7940 0.0000
vt 0.5941 0.7896 0.0000
vt 0.5747 0.7822 0.0000
vt 0.5948 0.7878 0.0000
vt 0.5709 0.7788 0.0000
vt 0.5702 0.7806 0.0000
vt 0.5365 0.7674 0.0000
vt 0.5372 0.7656 0.0000
vt 0.6365 0.7843 0.0000
vt 0.6382 0.7812 0.0000
vt 0.6411 0.7829 0.0000
vt 0.6361 0.7849 0.0000
vt 0.6360 0.7852 0.0000
vt 0.6001 0.7637 0.0000
vt 0.5986 0.7672 0.0000
vt 0.5759 0.7535 0.0000
vt 0.5744 0.7571 0.0000
vt 0.6157 0.7746 0.0000
vt 0.6172 0.7713 0.0000
vt 0.6285 0.7804 0.0000
vt 0.6301 0.7772 0.0000
vt 0.5982 0.7682 0.0000
vt 0.5740 0.7581 0.0000
vt 0.5983 0.7679 0.0000
vt 0.5741 0.7578 0.0000
vt 0.6154 0.7753 0.0000
vt 0.6153 0.7756 0.0000
vt 0.6281 0.7813 0.0000
vt 0.6282 0.7811 0.0000
vt 0.5408 0.7448 0.0000
# 67 texture coords

g Y192_181C_L_DaS_Y192_181C_L_E
usemtl paint_whiteSG
s 1
f 82/82/82 83/83/83 84/84/84 
s off
f 84/84/85 83/83/85 85/85/85 
s 5
f 86/86/86 87/87/87 88/88/88 
f 88/88/88 87/87/87 89/89/89 
f 87/87/87 90/90/90 89/89/89 
f 89/89/89 90/90/90 91/91/91 
f 90/90/90 92/92/92 91/91/91 
f 91/91/91 92/92/92 93/93/93 
f 91/91/91 93/93/93 94/94/94 
f 94/94/94 93/93/93 95/95/95 
f 96/96/96 97/97/97 89/89/89 
f 89/89/89 97/97/97 88/88/88 
f 89/89/89 91/91/91 96/96/96 
f 96/96/96 91/91/91 94/94/94 
s 10
f 98/98/98 99/99/99 100/100/100 
f 99/99/99 101/101/101 100/100/100 
f 99/99/99 98/98/98 102/102/102 
f 102/102/102 98/98/98 103/103/103 
f 103/103/103 104/104/104 102/102/102 
f 102/102/102 104/104/104 105/105/105 
f 104/104/104 106/106/106 105/105/105 
f 105/105/105 106/106/106 107/107/107 
f 108/108/108 107/107/107 109/109/109 
f 109/109/109 107/107/107 106/106/106 
f 109/109/109 110/110/110 108/108/108 
f 108/108/108 110/110/110 111/111/111 
f 111/111/111 110/110/110 112/112/112 
s 1
f 99/113/113 113/114/114 101/101/115 
f 101/101/115 113/114/114 114/115/116 
f 113/114/114 115/116/117 114/115/116 
f 114/115/116 115/116/117 116/117/118 
f 115/116/117 117/118/119 116/117/118 
f 116/117/118 117/118/119 118/119/120 
f 119/120/121 120/121/122 121/122/123 
f 121/122/123 120/121/122 122/123/124 
f 123/124/125 122/123/124 120/121/122 
f 118/119/120 117/118/119 121/122/123 
f 121/122/123 117/118/119 119/120/121 
f 123/124/125 124/125/126 122/123/124 
f 122/123/124 124/125/126 125/126/127 
s 5
f 126/127/128 127/128/129 108/108/130 
f 108/108/130 127/128/129 128/129/131 
f 129/130/132 126/127/128 111/111/133 
f 111/111/133 126/127/128 108/108/130 
f 130/131/134 129/130/132 112/112/135 
f 112/112/135 129/130/132 111/111/133 
f 131/132/136 132/133/137 133/134/138 
f 133/134/138 132/133/137 134/135/139 
f 135/136/140 136/137/141 137/138/142 
f 137/138/142 136/137/141 138/139/143 
f 136/137/141 135/136/140 131/132/136 
f 131/132/136 135/136/140 132/133/137 
f 137/138/142 138/139/143 126/127/128 
f 126/127/128 138/139/143 127/128/129 
f 139/140/144 140/141/145 141/142/146 
f 141/142/146 140/141/145 142/143/147 
f 141/142/146 142/143/147 132/133/137 
f 132/133/137 142/143/147 134/135/139 
f 141/142/146 132/133/137 143/144/148 
f 143/144/148 132/133/137 135/136/140 
f 141/142/146 143/144/148 139/140/144 
f 139/140/144 143/144/148 144/145/149 
f 145/146/150 144/145/149 146/147/151 
f 146/147/151 144/145/149 143/144/148 
f 143/144/148 135/136/140 146/147/151 
f 146/147/151 135/136/140 137/138/142 
f 146/147/151 137/138/142 129/130/132 
f 129/130/132 137/138/142 126/127/128 
f 146/147/151 129/130/132 145/146/150 
f 145/146/150 129/130/132 130/131/134 
f 142/143/147 96/96/96 134/135/139 
f 134/135/139 96/96/96 94/94/94 
f 140/141/145 97/97/97 142/143/147 
f 142/143/147 97/97/97 96/96/96 
s 2
f 140/141/152 147/148/152 97/97/152 
s 5
f 94/94/94 95/95/95 134/135/139 
f 134/135/139 95/95/95 133/134/138 
s 1
f 83/83/83 82/82/82 124/125/126 
f 124/125/126 82/82/82 125/126/127 
# 79 faces

