# 3ds Max Wavefront OBJ Exporter v0.97b - (c)2007 guruware
# File Created: 21.12.2015 13:35:45

mtllib Y192_325B_R.mtl

#
# object Y192_325B_R_DTaSI_Y192_325B_R
#

v  -130.6007 85.1317 92.9794
v  -124.3605 85.0867 92.9992
v  -129.3925 88.1112 91.7890
v  -124.3605 90.9189 90.6876
v  -127.7881 90.5281 90.8266
v  -44.9387 96.4216 89.2811
v  -44.9387 90.7186 91.4184
v  -41.0640 96.4633 89.3160
v  -40.2517 90.7067 91.4725
v  -76.5016 90.7988 91.0614
v  -69.1255 90.7800 91.1406
v  -76.5016 95.6066 89.2122
v  -69.1255 95.8824 89.1896
v  -96.3999 67.5284 99.9668
v  -96.3999 62.2483 102.0217
v  -90.3961 67.3071 100.0654
v  -90.3961 61.9291 102.1520
v  -124.3605 63.7348 101.4418
v  -124.3605 68.5591 99.5367
v  -130.7054 64.0722 101.3375
v  -130.6819 68.7921 99.4696
v  -44.9387 65.6313 100.8378
v  -44.9387 59.5123 103.1407
v  -36.6696 65.3264 100.9802
v  -35.7806 59.0254 103.3407
v  -96.3999 84.8845 93.2109
v  -96.3999 79.4129 95.3418
v  -90.3961 84.8410 93.2625
v  -90.3961 79.3440 95.3958
v  -90.3961 94.6083 89.4719
v  -96.3999 94.0515 89.6410
v  -90.3961 90.8338 90.9368
v  -96.3999 90.8488 90.8882
v  -53.5156 96.3294 89.2037
v  -60.7201 96.1967 89.1639
v  -53.5156 90.7404 91.3139
v  -60.7201 90.7588 91.2300
v  -44.9387 101.2717 87.4675
v  -41.7486 101.3311 87.4921
v  -60.7201 100.9246 87.3691
v  -53.5156 101.1108 87.4015
v  -69.1255 100.5130 87.4199
v  -76.5016 100.1517 87.4643
v  -90.3961 98.9341 87.7922
v  -96.3999 98.2651 87.9988
v  -115.7836 91.9331 90.3366
v  -124.3605 94.3107 89.3356
v  -115.7836 95.6786 88.8580
v  -44.9387 78.8212 95.8775
v  -44.9387 84.5114 93.7448
v  -53.5156 78.9199 95.7772
v  -53.5156 84.5736 93.6423
v  -38.5641 78.7479 95.9524
v  -39.3717 84.4709 93.8085
v  -83.8777 95.2127 89.2884
v  -83.8777 90.8174 90.9881
v  -83.8777 99.6604 87.5679
v  -102.2322 67.7434 99.8710
v  -102.2322 62.5583 101.8952
v  -102.2322 79.4800 95.2888
v  -102.2322 73.7019 97.5447
v  -96.3999 73.5465 97.6248
v  -102.2322 93.5107 89.8052
v  -102.2322 90.8635 90.8398
v  -102.2322 97.6153 88.1995
v  -108.2360 92.8427 90.0262
v  -108.2360 90.8785 90.7964
v  -108.2360 96.7940 88.4747
v  -115.7836 90.8974 90.7448
v  -115.7836 68.2429 99.6637
v  -115.7836 63.2788 101.6150
v  -125.3986 94.1279 89.4006
v  -44.9387 55.0826 104.8103
v  -35.1277 54.3929 105.0762
v  -53.5156 59.9683 102.9536
v  -53.5156 55.6856 104.5778
v  -60.7201 60.3513 102.7966
v  -60.7201 56.1944 104.3807
v  -69.1255 56.7887 104.1500
v  -69.1255 60.7982 102.6138
v  -76.5016 61.1903 102.4535
v  -76.5016 57.3102 103.9476
v  -83.8777 61.5825 102.2935
v  -83.8777 57.8340 103.7434
v  -90.3961 58.3012 103.5596
v  -96.3999 58.7316 103.3902
v  -102.2322 59.1496 103.2257
v  -108.2360 62.8775 101.7676
v  -108.2360 59.5808 103.0582
v  -115.7836 60.1264 102.8537
v  -124.3605 60.7465 102.6214
v  -130.7197 61.2078 102.4693
v  -53.5156 65.9475 100.6885
v  -60.7201 66.2131 100.5646
v  -69.1255 66.5229 100.4215
v  -76.5016 66.7948 100.2963
v  -83.8777 67.0668 100.1725
v  -108.2360 67.9647 99.7758
v  -37.6088 71.9795 98.4879
v  -44.9387 72.1749 98.3770
v  -53.5156 72.4035 98.2443
v  -60.7201 72.5956 98.1354
v  -69.1255 72.8196 98.0111
v  -76.5016 73.0162 97.9022
v  -83.8777 73.2128 97.7959
v  -90.3961 73.3865 97.7070
v  -108.2360 73.8618 97.4667
v  -115.7836 74.0630 97.3752
v  -124.3605 74.2915 97.2722
v  -130.6537 74.4591 97.2243
v  -60.7201 79.0027 95.6968
v  -69.1255 79.0994 95.6072
v  -76.5016 79.1842 95.5285
v  -83.8777 79.2690 95.4539
v  -108.2360 79.5490 95.2394
v  -115.7836 79.6356 95.1833
v  -124.3605 79.7341 95.1207
v  -130.6272 79.8059 95.1028
v  -60.7201 84.6259 93.5601
v  -69.1255 84.6869 93.4705
v  -76.5016 84.7404 93.3915
v  -83.8777 84.7938 93.3174
v  -102.2322 84.9267 93.1600
v  -108.2360 84.9702 93.1134
v  -115.7836 85.0247 93.0594
# 125 vertices

vn -0.0003 0.3706 0.9288
vn -0.0029 0.3686 0.9296
vn -0.0005 0.3707 0.9287
vn -0.0052 0.3692 0.9294
vn -0.0031 0.3696 0.9292
vn -0.0126 0.3508 0.9364
vn -0.0104 0.3514 0.9362
vn -0.0116 0.3499 0.9367
vn -0.0094 0.3500 0.9367
vn -0.0087 0.3593 0.9332
vn -0.0090 0.3575 0.9339
vn -0.0100 0.3589 0.9333
vn -0.0104 0.3570 0.9340
vn -0.0020 0.3626 0.9319
vn -0.0010 0.3626 0.9319
vn -0.0020 0.3617 0.9323
vn -0.0011 0.3616 0.9323
vn 0.0020 0.3671 0.9302
vn 0.0012 0.3672 0.9301
vn 0.0040 0.3676 0.9300
vn 0.0034 0.3679 0.9299
vn -0.0032 0.3521 0.9360
vn -0.0018 0.3523 0.9359
vn -0.0027 0.3508 0.9364
vn -0.0014 0.3509 0.9364
vn -0.0055 0.3629 0.9318
vn -0.0043 0.3628 0.9319
vn -0.0053 0.3618 0.9323
vn -0.0042 0.3617 0.9323
vn -0.0073 0.3619 0.9322
vn -0.0075 0.3630 0.9317
vn -0.0064 0.3620 0.9322
vn -0.0066 0.3631 0.9317
vn -0.0119 0.3529 0.9356
vn -0.0110 0.3550 0.9348
vn -0.0102 0.3536 0.9353
vn -0.0094 0.3556 0.9346
vn -0.0138 0.3502 0.9366
vn -0.0130 0.3498 0.9367
vn -0.0120 0.3545 0.9350
vn -0.0130 0.3522 0.9358
vn -0.0113 0.3566 0.9342
vn -0.0109 0.3585 0.9335
vn -0.0079 0.3617 0.9323
vn -0.0081 0.3629 0.9318
vn -0.0061 0.3673 0.9301
vn -0.0061 0.3695 0.9292
vn -0.0065 0.3669 0.9302
vn -0.0067 0.3517 0.9361
vn -0.0083 0.3511 0.9363
vn -0.0067 0.3536 0.9354
vn -0.0085 0.3531 0.9355
vn -0.0063 0.3506 0.9365
vn -0.0078 0.3501 0.9367
vn -0.0084 0.3606 0.9327
vn -0.0074 0.3609 0.9326
vn -0.0092 0.3604 0.9328
vn -0.0017 0.3636 0.9315
vn -0.0007 0.3636 0.9316
vn -0.0039 0.3638 0.9315
vn -0.0028 0.3637 0.9315
vn -0.0031 0.3627 0.9319
vn -0.0070 0.3642 0.9313
vn -0.0062 0.3642 0.9313
vn -0.0076 0.3640 0.9314
vn -0.0063 0.3655 0.9308
vn -0.0053 0.3654 0.9308
vn -0.0067 0.3652 0.9309
vn -0.0050 0.3670 0.9302
vn -0.0003 0.3659 0.9307
vn 0.0006 0.3657 0.9307
vn -0.0055 0.3707 0.9287
vn -0.0010 0.3523 0.9359
vn -0.0007 0.3507 0.9365
vn -0.0018 0.3542 0.9352
vn -0.0009 0.3543 0.9351
vn -0.0015 0.3559 0.9345
vn -0.0008 0.3558 0.9345
vn -0.0007 0.3575 0.9339
vn -0.0014 0.3575 0.9339
vn -0.0013 0.3591 0.9333
vn -0.0006 0.3591 0.9333
vn -0.0012 0.3606 0.9327
vn -0.0007 0.3605 0.9328
vn -0.0006 0.3615 0.9324
vn -0.0005 0.3625 0.9320
vn -0.0003 0.3634 0.9316
vn 0.0001 0.3645 0.9312
vn 0.0005 0.3644 0.9312
vn 0.0010 0.3656 0.9308
vn 0.0023 0.3669 0.9302
vn 0.0043 0.3674 0.9301
vn -0.0033 0.3541 0.9352
vn -0.0029 0.3558 0.9346
vn -0.0028 0.3575 0.9339
vn -0.0026 0.3591 0.9333
vn -0.0023 0.3606 0.9327
vn -0.0008 0.3646 0.9312
vn -0.0043 0.3507 0.9365
vn -0.0049 0.3520 0.9360
vn -0.0050 0.3540 0.9352
vn -0.0044 0.3557 0.9346
vn -0.0043 0.3575 0.9339
vn -0.0041 0.3591 0.9333
vn -0.0036 0.3606 0.9327
vn -0.0031 0.3617 0.9323
vn -0.0019 0.3647 0.9311
vn -0.0014 0.3660 0.9306
vn 0.0002 0.3674 0.9301
vn 0.0024 0.3683 0.9297
vn -0.0060 0.3555 0.9347
vn -0.0059 0.3573 0.9340
vn -0.0056 0.3591 0.9333
vn -0.0048 0.3606 0.9327
vn -0.0030 0.3649 0.9310
vn -0.0026 0.3664 0.9305
vn -0.0009 0.3680 0.9298
vn 0.0011 0.3691 0.9294
vn -0.0077 0.3552 0.9348
vn -0.0075 0.3571 0.9340
vn -0.0071 0.3589 0.9333
vn -0.0062 0.3606 0.9327
vn -0.0051 0.3640 0.9314
vn -0.0042 0.3651 0.9309
vn -0.0039 0.3667 0.9303
# 125 vertex normals

vt 0.1850 0.1647 0.0000
vt 0.2031 0.1646 0.0000
vt 0.1885 0.1741 0.0000
vt 0.2031 0.1829 0.0000
vt 0.1931 0.1817 0.0000
vt 0.4341 0.1996 0.0000
vt 0.4342 0.1819 0.0000
vt 0.4454 0.1997 0.0000
vt 0.4478 0.1818 0.0000
vt 0.3423 0.1823 0.0000
vt 0.3638 0.1822 0.0000
vt 0.3423 0.1973 0.0000
vt 0.3638 0.1981 0.0000
vt 0.2845 0.1097 0.0000
vt 0.2846 0.0932 0.0000
vt 0.3020 0.1090 0.0000
vt 0.3020 0.0922 0.0000
vt 0.2032 0.0978 0.0000
vt 0.2032 0.1129 0.0000
vt 0.1847 0.0988 0.0000
vt 0.1848 0.1136 0.0000
vt 0.4343 0.1039 0.0000
vt 0.4344 0.0849 0.0000
vt 0.4584 0.1030 0.0000
vt 0.4610 0.0834 0.0000
vt 0.2845 0.1639 0.0000
vt 0.2845 0.1468 0.0000
vt 0.3019 0.1638 0.0000
vt 0.3020 0.1466 0.0000
vt 0.3019 0.1943 0.0000
vt 0.2844 0.1925 0.0000
vt 0.3019 0.1825 0.0000
vt 0.2845 0.1825 0.0000
vt 0.4092 0.1994 0.0000
vt 0.3882 0.1990 0.0000
vt 0.4092 0.1820 0.0000
vt 0.3883 0.1821 0.0000
vt 0.4341 0.2147 0.0000
vt 0.4434 0.2148 0.0000
vt 0.3882 0.2137 0.0000
vt 0.4092 0.2143 0.0000
vt 0.3637 0.2125 0.0000
vt 0.3423 0.2115 0.0000
vt 0.3019 0.2078 0.0000
vt 0.2844 0.2057 0.0000
vt 0.2280 0.1860 0.0000
vt 0.2031 0.1935 0.0000
vt 0.2280 0.1977 0.0000
vt 0.4342 0.1449 0.0000
vt 0.4342 0.1626 0.0000
vt 0.4093 0.1453 0.0000
vt 0.4093 0.1628 0.0000
vt 0.4528 0.1447 0.0000
vt 0.4504 0.1625 0.0000
vt 0.3209 0.1961 0.0000
vt 0.3209 0.1824 0.0000
vt 0.3208 0.2100 0.0000
vt 0.2676 0.1104 0.0000
vt 0.2676 0.0942 0.0000
vt 0.2675 0.1471 0.0000
vt 0.2675 0.1290 0.0000
vt 0.2845 0.1285 0.0000
vt 0.2675 0.1909 0.0000
vt 0.2675 0.1826 0.0000
vt 0.2675 0.2037 0.0000
vt 0.2500 0.1888 0.0000
vt 0.2500 0.1827 0.0000
vt 0.2500 0.2012 0.0000
vt 0.2281 0.1828 0.0000
vt 0.2281 0.1119 0.0000
vt 0.2281 0.0964 0.0000
vt 0.2001 0.1929 0.0000
vt 0.4344 0.0711 0.0000
vt 0.4630 0.0690 0.0000
vt 0.4094 0.0863 0.0000
vt 0.4094 0.0730 0.0000
vt 0.3884 0.0874 0.0000
vt 0.3885 0.0745 0.0000
vt 0.3640 0.0763 0.0000
vt 0.3640 0.0888 0.0000
vt 0.3425 0.0900 0.0000
vt 0.3425 0.0779 0.0000
vt 0.3210 0.0912 0.0000
vt 0.3210 0.0795 0.0000
vt 0.3021 0.0809 0.0000
vt 0.2846 0.0822 0.0000
vt 0.2676 0.0835 0.0000
vt 0.2501 0.0952 0.0000
vt 0.2501 0.0849 0.0000
vt 0.2281 0.0865 0.0000
vt 0.2032 0.0884 0.0000
vt 0.1847 0.0898 0.0000
vt 0.4094 0.1049 0.0000
vt 0.3884 0.1057 0.0000
vt 0.3639 0.1066 0.0000
vt 0.3425 0.1075 0.0000
vt 0.3210 0.1083 0.0000
vt 0.2501 0.1111 0.0000
vt 0.4556 0.1237 0.0000
vt 0.4343 0.1243 0.0000
vt 0.4093 0.1250 0.0000
vt 0.3884 0.1256 0.0000
vt 0.3639 0.1263 0.0000
vt 0.3424 0.1269 0.0000
vt 0.3210 0.1275 0.0000
vt 0.3020 0.1280 0.0000
vt 0.2501 0.1295 0.0000
vt 0.2281 0.1301 0.0000
vt 0.2031 0.1308 0.0000
vt 0.1848 0.1313 0.0000
vt 0.3883 0.1455 0.0000
vt 0.3639 0.1458 0.0000
vt 0.3424 0.1461 0.0000
vt 0.3209 0.1464 0.0000
vt 0.2501 0.1473 0.0000
vt 0.2281 0.1475 0.0000
vt 0.2031 0.1479 0.0000
vt 0.1849 0.1481 0.0000
vt 0.3883 0.1630 0.0000
vt 0.3638 0.1632 0.0000
vt 0.3424 0.1634 0.0000
vt 0.3209 0.1636 0.0000
vt 0.2675 0.1641 0.0000
vt 0.2500 0.1642 0.0000
vt 0.2281 0.1644 0.0000
# 125 texture coords

g Y192_325B_R_DTaSI_Y192_325B_R
usemtl windowglass_1SG
s 1
f 1/1/1 2/2/2 3/3/3 
f 4/4/4 5/5/5 2/2/2 
f 3/3/3 2/2/2 5/5/5 
f 6/6/6 7/7/7 8/8/8 
f 8/8/8 7/7/7 9/9/9 
f 10/10/10 11/11/11 12/12/12 
f 12/12/12 11/11/11 13/13/13 
f 14/14/14 15/15/15 16/16/16 
f 16/16/16 15/15/15 17/17/17 
f 18/18/18 19/19/19 20/20/20 
f 20/20/20 19/19/19 21/21/21 
f 22/22/22 23/23/23 24/24/24 
f 24/24/24 23/23/23 25/25/25 
f 26/26/26 27/27/27 28/28/28 
f 28/28/28 27/27/27 29/29/29 
f 30/30/30 31/31/31 32/32/32 
f 32/32/32 31/31/31 33/33/33 
f 34/34/34 35/35/35 36/36/36 
f 36/36/36 35/35/35 37/37/37 
f 38/38/38 6/6/6 39/39/39 
f 39/39/39 6/6/6 8/8/8 
f 35/35/35 34/34/34 40/40/40 
f 40/40/40 34/34/34 41/41/41 
f 42/42/42 43/43/43 13/13/13 
f 13/13/13 43/43/43 12/12/12 
f 44/44/44 45/45/45 30/30/30 
f 30/30/30 45/45/45 31/31/31 
f 4/4/4 46/46/46 47/47/47 
f 47/47/47 46/46/46 48/48/48 
f 49/49/49 50/50/50 51/51/51 
f 51/51/51 50/50/50 52/52/52 
f 36/36/36 7/7/7 34/34/34 
f 34/34/34 7/7/7 6/6/6 
f 34/34/34 6/6/6 41/41/41 
f 41/41/41 6/6/6 38/38/38 
f 35/35/35 13/13/13 37/37/37 
f 37/37/37 13/13/13 11/11/11 
f 53/53/53 54/54/54 49/49/49 
f 49/49/49 54/54/54 50/50/50 
f 13/13/13 35/35/35 42/42/42 
f 42/42/42 35/35/35 40/40/40 
f 12/12/12 55/55/55 10/10/10 
f 10/10/10 55/55/55 56/56/56 
f 55/55/55 12/12/12 57/57/57 
f 57/57/57 12/12/12 43/43/43 
f 57/57/57 44/44/44 55/55/55 
f 55/55/55 44/44/44 30/30/30 
f 55/55/55 30/30/30 56/56/56 
f 56/56/56 30/30/30 32/32/32 
f 58/58/58 59/59/59 14/14/14 
f 14/14/14 59/59/59 15/15/15 
f 60/60/60 61/61/61 27/27/27 
f 27/27/27 61/61/61 62/62/62 
f 31/31/31 63/63/63 33/33/33 
f 33/33/33 63/63/63 64/64/64 
f 45/45/45 65/65/65 31/31/31 
f 31/31/31 65/65/65 63/63/63 
f 63/63/63 66/66/66 64/64/64 
f 64/64/64 66/66/66 67/67/67 
f 66/66/66 63/63/63 68/68/68 
f 68/68/68 63/63/63 65/65/65 
f 69/69/69 67/67/67 46/46/46 
f 46/46/46 67/67/67 66/66/66 
f 68/68/68 48/48/48 66/66/66 
f 66/66/66 48/48/48 46/46/46 
f 69/69/69 46/46/46 4/4/4 
f 19/19/19 18/18/18 70/70/70 
f 70/70/70 18/18/18 71/71/71 
f 47/47/47 72/72/72 4/4/4 
f 4/4/4 72/72/72 5/5/5 
f 23/23/23 73/73/73 25/25/25 
f 25/25/25 73/73/73 74/74/74 
f 75/75/75 76/76/76 23/23/23 
f 23/23/23 76/76/76 73/73/73 
f 77/77/77 78/78/78 75/75/75 
f 75/75/75 78/78/78 76/76/76 
f 78/78/78 77/77/77 79/79/79 
f 79/79/79 77/77/77 80/80/80 
f 81/81/81 82/82/82 80/80/80 
f 80/80/80 82/82/82 79/79/79 
f 83/83/83 84/84/84 81/81/81 
f 81/81/81 84/84/84 82/82/82 
f 17/17/17 85/85/85 83/83/83 
f 83/83/83 85/85/85 84/84/84 
f 85/85/85 17/17/17 86/86/86 
f 86/86/86 17/17/17 15/15/15 
f 59/59/59 87/87/87 15/15/15 
f 15/15/15 87/87/87 86/86/86 
f 88/88/88 89/89/89 59/59/59 
f 59/59/59 89/89/89 87/87/87 
f 71/71/71 90/90/90 88/88/88 
f 88/88/88 90/90/90 89/89/89 
f 90/90/90 71/71/71 91/91/91 
f 91/91/91 71/71/71 18/18/18 
f 20/20/20 92/92/92 18/18/18 
f 18/18/18 92/92/92 91/91/91 
f 23/23/23 22/22/22 75/75/75 
f 75/75/75 22/22/22 93/93/93 
f 75/75/75 93/93/93 77/77/77 
f 77/77/77 93/93/93 94/94/94 
f 95/95/95 80/80/80 94/94/94 
f 94/94/94 80/80/80 77/77/77 
f 80/80/80 95/95/95 81/81/81 
f 81/81/81 95/95/95 96/96/96 
f 97/97/97 83/83/83 96/96/96 
f 96/96/96 83/83/83 81/81/81 
f 16/16/16 17/17/17 97/97/97 
f 97/97/97 17/17/17 83/83/83 
f 98/98/98 88/88/88 58/58/58 
f 58/58/58 88/88/88 59/59/59 
f 70/70/70 71/71/71 98/98/98 
f 98/98/98 71/71/71 88/88/88 
f 24/24/24 99/99/99 22/22/22 
f 22/22/22 99/99/99 100/100/100 
f 22/22/22 100/100/100 93/93/93 
f 93/93/93 100/100/100 101/101/101 
f 102/102/102 94/94/94 101/101/101 
f 101/101/101 94/94/94 93/93/93 
f 94/94/94 102/102/102 95/95/95 
f 95/95/95 102/102/102 103/103/103 
f 95/95/95 103/103/103 96/96/96 
f 96/96/96 103/103/103 104/104/104 
f 105/105/105 97/97/97 104/104/104 
f 104/104/104 97/97/97 96/96/96 
f 106/106/106 16/16/16 105/105/105 
f 105/105/105 16/16/16 97/97/97 
f 16/16/16 106/106/106 14/14/14 
f 14/14/14 106/106/106 62/62/62 
f 61/61/61 58/58/58 62/62/62 
f 62/62/62 58/58/58 14/14/14 
f 107/107/107 98/98/98 61/61/61 
f 61/61/61 98/98/98 58/58/58 
f 108/108/108 70/70/70 107/107/107 
f 107/107/107 70/70/70 98/98/98 
f 109/109/109 19/19/19 108/108/108 
f 108/108/108 19/19/19 70/70/70 
f 19/19/19 109/109/109 21/21/21 
f 21/21/21 109/109/109 110/110/110 
f 99/99/99 53/53/53 100/100/100 
f 100/100/100 53/53/53 49/49/49 
f 100/100/100 49/49/49 101/101/101 
f 101/101/101 49/49/49 51/51/51 
f 111/111/111 102/102/102 51/51/51 
f 51/51/51 102/102/102 101/101/101 
f 102/102/102 111/111/111 103/103/103 
f 103/103/103 111/111/111 112/112/112 
f 103/103/103 112/112/112 104/104/104 
f 104/104/104 112/112/112 113/113/113 
f 114/114/114 105/105/105 113/113/113 
f 113/113/113 105/105/105 104/104/104 
f 29/29/29 106/106/106 114/114/114 
f 114/114/114 106/106/106 105/105/105 
f 27/27/27 62/62/62 29/29/29 
f 29/29/29 62/62/62 106/106/106 
f 115/115/115 107/107/107 60/60/60 
f 60/60/60 107/107/107 61/61/61 
f 107/107/107 115/115/115 108/108/108 
f 108/108/108 115/115/115 116/116/116 
f 108/108/108 116/116/116 109/109/109 
f 109/109/109 116/116/116 117/117/117 
f 109/109/109 117/117/117 110/110/110 
f 110/110/110 117/117/117 118/118/118 
f 119/119/119 111/111/111 52/52/52 
f 52/52/52 111/111/111 51/51/51 
f 120/120/120 112/112/112 119/119/119 
f 119/119/119 112/112/112 111/111/111 
f 121/121/121 113/113/113 120/120/120 
f 120/120/120 113/113/113 112/112/112 
f 122/122/122 114/114/114 121/121/121 
f 121/121/121 114/114/114 113/113/113 
f 28/28/28 29/29/29 122/122/122 
f 122/122/122 29/29/29 114/114/114 
f 123/123/123 60/60/60 26/26/26 
f 26/26/26 60/60/60 27/27/27 
f 124/124/124 115/115/115 123/123/123 
f 123/123/123 115/115/115 60/60/60 
f 115/115/115 124/124/124 116/116/116 
f 116/116/116 124/124/124 125/125/125 
f 116/116/116 125/125/125 117/117/117 
f 117/117/117 125/125/125 2/2/2 
f 1/1/1 118/118/118 2/2/2 
f 2/2/2 118/118/118 117/117/117 
f 7/7/7 50/50/50 9/9/9 
f 9/9/9 50/50/50 54/54/54 
f 50/50/50 7/7/7 52/52/52 
f 52/52/52 7/7/7 36/36/36 
f 37/37/37 119/119/119 36/36/36 
f 36/36/36 119/119/119 52/52/52 
f 11/11/11 120/120/120 37/37/37 
f 37/37/37 120/120/120 119/119/119 
f 120/120/120 11/11/11 121/121/121 
f 121/121/121 11/11/11 10/10/10 
f 56/56/56 122/122/122 10/10/10 
f 10/10/10 122/122/122 121/121/121 
f 32/32/32 28/28/28 56/56/56 
f 56/56/56 28/28/28 122/122/122 
f 28/28/28 32/32/32 26/26/26 
f 26/26/26 32/32/32 33/33/33 
f 64/64/64 123/123/123 33/33/33 
f 33/33/33 123/123/123 26/26/26 
f 67/67/67 124/124/124 64/64/64 
f 64/64/64 124/124/124 123/123/123 
f 124/124/124 67/67/67 125/125/125 
f 125/125/125 67/67/67 69/69/69 
f 125/125/125 69/69/69 2/2/2 
f 2/2/2 69/69/69 4/4/4 
# 206 faces

