# 3ds Max Wavefront OBJ Exporter v0.97b - (c)2007 guruware
# File Created: 02.11.2015 13:18:43

mtllib U843_9A_324H_R.mtl

#
# object U843_9A_324H_R_1_DTaSI_U843_9A_324H_R
#

v  -59.3396 60.7691 67.2783
v  -61.3065 60.8395 67.3115
v  -59.6888 55.8653 69.3215
v  -61.8442 55.9482 69.3658
v  -58.6080 70.4113 62.6420
v  -60.1960 70.4514 62.6711
v  -58.9873 65.5653 65.0241
v  -60.7698 65.6224 65.0575
v  -73.2975 35.9412 76.8269
v  -63.7448 35.7118 76.3772
v  -72.0132 40.9968 75.2600
v  -63.3070 40.7692 74.8131
v  -62.8079 74.5218 60.8002
v  -68.5728 74.6384 60.9240
v  -64.0690 70.5828 62.7456
v  -70.1945 70.8365 62.8768
v  -59.6452 74.4743 60.7228
v  -62.3450 51.0218 71.3268
v  -60.0400 50.9302 71.2821
v  -58.1731 75.3178 60.1851
v  -59.5236 75.3445 60.2150
v  -58.2495 74.4568 60.6866
v  -60.7703 40.6924 74.7119
v  -62.8489 45.9268 73.1745
v  -60.3961 45.8468 73.0812
v  -61.1389 35.6439 76.2649
v  -62.5170 75.4031 60.2816
v  -65.4157 65.8128 65.1943
v  -70.6974 46.1485 73.6065
v  -68.2027 75.5147 60.4077
v  -66.7222 61.0746 67.4956
v  -71.9996 66.1056 65.4727
v  -69.3527 51.2711 71.6679
v  -68.0462 56.1787 69.6626
v  -80.4972 36.1881 77.1049
v  -74.0208 30.9160 78.0983
v  -81.3884 31.1724 78.0994
v  -64.1771 30.5734 78.0966
v  -61.5042 30.4804 78.0962
v  -79.5778 41.2853 75.5905
v  -78.4193 46.4621 73.9826
v  -76.8857 51.5191 72.1328
v  -75.3789 56.4227 70.1303
v  -73.7049 61.3704 67.8584
# 44 vertices

vn 0.0422 0.4056 0.9131
# 1 vertex normals

vt 0.2030 0.3146 0.0000
vt 0.2109 0.3144 0.0000
vt 0.2044 0.3345 0.0000
vt 0.2131 0.3341 0.0000
vt 0.2000 0.2756 0.0000
vt 0.2064 0.2755 0.0000
vt 0.2015 0.2952 0.0000
vt 0.2087 0.2950 0.0000
vt 0.2594 0.4151 0.0000
vt 0.2208 0.4160 0.0000
vt 0.2542 0.3946 0.0000
vt 0.2190 0.3956 0.0000
vt 0.2170 0.2590 0.0000
vt 0.2403 0.2585 0.0000
vt 0.2221 0.2749 0.0000
vt 0.2469 0.2739 0.0000
vt 0.2042 0.2592 0.0000
vt 0.2151 0.3541 0.0000
vt 0.2058 0.3545 0.0000
vt 0.1982 0.2558 0.0000
vt 0.2037 0.2557 0.0000
vt 0.1985 0.2593 0.0000
vt 0.2087 0.3959 0.0000
vt 0.2172 0.3747 0.0000
vt 0.2072 0.3750 0.0000
vt 0.2102 0.4163 0.0000
vt 0.2158 0.2554 0.0000
vt 0.2275 0.2942 0.0000
vt 0.2489 0.3738 0.0000
vt 0.2388 0.2550 0.0000
vt 0.2328 0.3134 0.0000
vt 0.2542 0.2930 0.0000
vt 0.2435 0.3531 0.0000
vt 0.2382 0.3332 0.0000
vt 0.2886 0.4141 0.0000
vt 0.2624 0.4354 0.0000
vt 0.2922 0.4344 0.0000
vt 0.2225 0.4368 0.0000
vt 0.2117 0.4372 0.0000
vt 0.2848 0.3935 0.0000
vt 0.2802 0.3725 0.0000
vt 0.2740 0.3521 0.0000
vt 0.2679 0.3322 0.0000
vt 0.2611 0.3122 0.0000
# 44 texture coords

g U843_9A_324H_R_1_DTaSI_U843_9A_324H_R
usemtl windowglass_1SG
s 1
f 1/1/1 2/2/1 3/3/1 
f 3/3/1 2/2/1 4/4/1 
f 5/5/1 6/6/1 7/7/1 
f 7/7/1 6/6/1 8/8/1 
f 9/9/1 10/10/1 11/11/1 
f 11/11/1 10/10/1 12/12/1 
f 13/13/1 14/14/1 15/15/1 
f 15/15/1 14/14/1 16/16/1 
f 17/17/1 13/13/1 6/6/1 
f 6/6/1 13/13/1 15/15/1 
f 18/18/1 19/19/1 4/4/1 
f 4/4/1 19/19/1 3/3/1 
f 7/7/1 8/8/1 1/1/1 
f 1/1/1 8/8/1 2/2/1 
f 20/20/1 21/21/1 22/22/1 
f 22/22/1 21/21/1 17/17/1 
f 12/12/1 23/23/1 24/24/1 
f 24/24/1 23/23/1 25/25/1 
f 10/10/1 26/26/1 12/12/1 
f 12/12/1 26/26/1 23/23/1 
f 21/21/1 27/27/1 17/17/1 
f 17/17/1 27/27/1 13/13/1 
f 6/6/1 15/15/1 8/8/1 
f 8/8/1 15/15/1 28/28/1 
f 24/24/1 29/29/1 12/12/1 
f 12/12/1 29/29/1 11/11/1 
f 27/27/1 30/30/1 13/13/1 
f 13/13/1 30/30/1 14/14/1 
f 31/31/1 2/2/1 28/28/1 
f 28/28/1 2/2/1 8/8/1 
f 15/15/1 16/16/1 28/28/1 
f 28/28/1 16/16/1 32/32/1 
f 29/29/1 24/24/1 33/33/1 
f 33/33/1 24/24/1 18/18/1 
f 34/34/1 4/4/1 31/31/1 
f 31/31/1 4/4/1 2/2/1 
f 9/9/1 35/35/1 36/36/1 
f 36/36/1 35/35/1 37/37/1 
f 10/10/1 9/9/1 38/38/1 
f 38/38/1 9/9/1 36/36/1 
f 38/38/1 39/39/1 10/10/1 
f 10/10/1 39/39/1 26/26/1 
f 22/22/1 17/17/1 5/5/1 
f 5/5/1 17/17/1 6/6/1 
f 19/19/1 18/18/1 25/25/1 
f 25/25/1 18/18/1 24/24/1 
f 33/33/1 18/18/1 34/34/1 
f 34/34/1 18/18/1 4/4/1 
f 11/11/1 40/40/1 9/9/1 
f 9/9/1 40/40/1 35/35/1 
f 29/29/1 41/41/1 11/11/1 
f 11/11/1 41/41/1 40/40/1 
f 33/33/1 42/42/1 29/29/1 
f 29/29/1 42/42/1 41/41/1 
f 34/34/1 43/43/1 33/33/1 
f 33/33/1 43/43/1 42/42/1 
f 31/31/1 44/44/1 34/34/1 
f 34/34/1 44/44/1 43/43/1 
f 28/28/1 32/32/1 31/31/1 
f 31/31/1 32/32/1 44/44/1 
# 60 faces

