# 3ds Max Wavefront OBJ Exporter v0.97b - (c)2007 guruware
# File Created: 02.11.2015 13:19:13

mtllib U843_9A_345A_C.mtl

#
# object U843_9A_345A_C_1_DaS_U843_9A_345A_C
#

v  -20.7051 82.1179 5.9170
v  -8.0115 81.8206 5.9011
v  -20.6916 82.1674 2.9448
v  -8.0153 81.8715 0.0065
v  0.8743 81.0838 24.1530
v  0.8643 81.2661 17.7895
v  -8.0138 81.3845 24.1525
v  -8.0133 81.5655 17.8064
v  0.8644 81.5211 5.9018
v  9.7420 81.2178 5.8994
v  0.8726 81.5716 0.0065
v  9.7482 81.2682 0.0064
v  18.6138 80.3718 24.1555
v  18.6153 80.5540 17.7829
v  9.7491 80.7803 24.1538
v  9.7420 80.9627 17.7866
v  18.6139 80.6936 11.9264
v  27.5193 80.1180 11.9277
v  27.5124 79.9798 17.7998
v  18.6140 80.8599 0.0068
v  18.6154 80.8090 5.8962
v  27.5272 80.2824 0.0067
v  27.5248 80.2321 5.9036
v  34.3102 79.2097 24.1593
v  34.3306 79.3880 17.8140
v  27.4856 79.8019 24.1570
v  -20.7094 81.7771 21.1359
v  -20.7085 81.8629 17.8399
v  9.7420 81.1024 11.9252
v  34.3461 79.5241 11.9306
v  34.3553 79.6375 5.9083
v  0.8644 81.4058 11.9247
v  0.8643 80.9011 29.6743
v  -8.0137 81.2006 29.7088
v  0.8643 80.7461 34.0632
v  -8.0134 81.0468 34.0701
v  18.6153 80.0341 34.0536
v  18.6153 80.1890 29.6667
v  9.7419 80.4429 34.0553
v  9.7419 80.5977 29.6709
v  27.4924 79.6209 29.6932
v  34.2906 79.0352 29.7171
v  34.2731 78.8919 33.9544
v  27.4834 79.4710 34.0297
v  -20.7089 81.3466 34.0577
v  -20.7094 81.4980 29.7599
v  -8.0124 81.7055 11.9244
v  -20.7060 82.0670 8.9592
v  -20.6860 81.9392 14.8889
v  -20.6774 81.5884 27.1681
v  34.3570 79.6869 0.0075
v  -8.0115 81.8206 -5.9913
v  -20.7041 82.1694 -2.9319
v  -20.7051 82.1179 -6.0072
v  9.7420 81.2178 -5.9896
v  0.8644 81.5211 -5.9920
v  9.7420 80.9627 -17.8768
v  18.6153 80.5540 -17.8731
v  9.7612 80.7825 -24.1537
v  18.6242 80.3739 -24.1554
v  27.5124 79.9798 -17.8900
v  27.4974 80.1214 -11.9273
v  18.6297 80.6946 -11.9263
v  27.5248 80.2321 -5.9938
v  18.6154 80.8090 -5.9864
v  27.4719 79.8055 -24.1571
v  34.3103 79.2124 -24.1592
v  34.3306 79.3880 -17.9043
v  -20.7085 81.8629 -17.9301
v  -8.0133 81.5655 -17.8966
v  -20.6821 81.7788 -21.1363
v  -8.0102 81.3871 -24.1524
v  34.3191 79.5284 -11.9295
v  34.3553 79.6375 -5.9985
v  9.7626 81.1034 -11.9251
v  0.8988 81.4066 -11.9246
v  0.8643 81.2661 -17.8797
v  -8.0135 81.0499 -34.0706
v  -8.0137 81.2005 -29.7991
v  -8.0023 81.0495 -34.0706
v  0.8643 80.9011 -29.7645
v  0.8643 80.7493 -34.0638
v  9.7419 80.5977 -29.7611
v  18.6153 80.1890 -29.7569
v  9.7419 80.4460 -34.0559
v  9.7792 80.4443 -34.0558
v  18.6196 80.0371 -34.0542
v  27.4924 79.6209 -29.7834
v  27.4836 79.4741 -34.0304
v  34.2735 78.8950 -33.9552
v  34.2906 79.0352 -29.8073
v  -20.7094 81.4979 -29.8501
v  -20.7089 81.3498 -34.0582
v  -20.6715 81.3489 -34.0582
v  0.8957 81.0858 -24.1529
v  -20.6892 82.0681 -8.9595
v  -8.0100 81.7073 -11.9243
v  27.4486 79.4759 -34.0308
v  -20.6861 81.9416 -14.8885
v  -20.6775 81.5916 -27.1676
v  -20.7097 81.5924 -27.1676
v  0.9257 80.7472 -34.0638
# 102 vertices

vn 0.0204 0.9997 0.0167
vn 0.0277 0.9995 0.0168
vn 0.0204 0.9998 0.0084
vn 0.0277 0.9996 0.0001
vn 0.0340 0.9989 0.0310
vn 0.0340 0.9991 0.0261
vn 0.0277 0.9991 0.0309
vn 0.0277 0.9993 0.0261
vn 0.0339 0.9993 0.0168
vn 0.0401 0.9991 0.0168
vn 0.0339 0.9994 0.0001
vn 0.0401 0.9992 0.0001
vn 0.0550 0.9980 0.0309
vn 0.0552 0.9981 0.0260
vn 0.0401 0.9987 0.0310
vn 0.0401 0.9989 0.0261
vn 0.0553 0.9982 0.0214
vn 0.0741 0.9970 0.0213
vn 0.0739 0.9969 0.0258
vn 0.0554 0.9985 0.0001
vn 0.0553 0.9983 0.0167
vn 0.0743 0.9972 0.0001
vn 0.0742 0.9971 0.0167
vn 0.1442 0.9891 0.0288
vn 0.1464 0.9889 0.0256
vn 0.0736 0.9968 0.0305
vn 0.0205 0.9994 0.0285
vn 0.0205 0.9995 0.0260
vn 0.0401 0.9990 0.0215
vn 0.1466 0.9890 0.0211
vn 0.1467 0.9890 0.0165
vn 0.0339 0.9992 0.0215
vn 0.0340 0.9988 0.0353
vn 0.0278 0.9990 0.0352
vn 0.0340 0.9986 0.0394
vn 0.0277 0.9988 0.0395
vn 0.0547 0.9977 0.0392
vn 0.0549 0.9979 0.0351
vn 0.0401 0.9984 0.0394
vn 0.0401 0.9986 0.0353
vn 0.0733 0.9967 0.0347
vn 0.1394 0.9897 0.0315
vn 0.1355 0.9901 0.0362
vn 0.0728 0.9966 0.0386
vn 0.0206 0.9990 0.0395
vn 0.0206 0.9992 0.0352
vn 0.0277 0.9994 0.0215
vn 0.0205 0.9996 0.0191
vn 0.0205 0.9995 0.0237
vn 0.0206 0.9992 0.0332
vn 0.1467 0.9892 0.0001
vn 0.0277 0.9995 -0.0168
vn 0.0204 0.9998 -0.0081
vn 0.0204 0.9997 -0.0167
vn 0.0401 0.9991 -0.0168
vn 0.0339 0.9993 -0.0168
vn 0.0401 0.9989 -0.0261
vn 0.0552 0.9981 -0.0260
vn 0.0401 0.9987 -0.0309
vn 0.0551 0.9980 -0.0308
vn 0.0739 0.9969 -0.0258
vn 0.0740 0.9970 -0.0212
vn 0.0553 0.9982 -0.0214
vn 0.0742 0.9971 -0.0167
vn 0.0553 0.9983 -0.0167
vn 0.0736 0.9968 -0.0305
vn 0.1443 0.9891 -0.0287
vn 0.1464 0.9889 -0.0256
vn 0.0205 0.9995 -0.0260
vn 0.0277 0.9993 -0.0261
vn 0.0205 0.9994 -0.0285
vn 0.0277 0.9991 -0.0309
vn 0.1463 0.9890 -0.0210
vn 0.1467 0.9890 -0.0165
vn 0.0401 0.9990 -0.0214
vn 0.0340 0.9992 -0.0214
vn 0.0340 0.9991 -0.0261
vn 0.0277 0.9988 -0.0394
vn 0.0278 0.9990 -0.0352
vn 0.0340 0.9988 -0.0353
vn 0.0340 0.9986 -0.0393
vn 0.0401 0.9986 -0.0353
vn 0.0549 0.9979 -0.0351
vn 0.0401 0.9984 -0.0393
vn 0.0547 0.9977 -0.0391
vn 0.0733 0.9967 -0.0347
vn 0.0728 0.9966 -0.0385
vn 0.1356 0.9901 -0.0361
vn 0.1394 0.9897 -0.0315
vn 0.0206 0.9992 -0.0352
vn 0.0206 0.9990 -0.0394
vn 0.0207 0.9990 -0.0394
vn 0.0340 0.9989 -0.0309
vn 0.0205 0.9996 -0.0190
vn 0.0277 0.9994 -0.0214
vn 0.0728 0.9966 -0.0386
vn 0.0205 0.9995 -0.0236
vn 0.0206 0.9992 -0.0331
# 98 vertex normals

vt 0.4921 0.5964 0.0000
vt 0.5174 0.5964 0.0000
vt 0.4921 0.6023 0.0000
vt 0.5174 0.6081 0.0000
vt 0.5352 0.5600 0.0000
vt 0.5352 0.5727 0.0000
vt 0.5174 0.5570 0.0000
vt 0.5174 0.5727 0.0000
vt 0.5351 0.5964 0.0000
vt 0.5528 0.5964 0.0000
vt 0.5352 0.6082 0.0000
vt 0.5528 0.6082 0.0000
vt 0.5703 0.5601 0.0000
vt 0.5702 0.5728 0.0000
vt 0.5528 0.5601 0.0000
vt 0.5528 0.5727 0.0000
vt 0.5702 0.5844 0.0000
vt 0.5876 0.5845 0.0000
vt 0.5876 0.5728 0.0000
vt 0.5702 0.6082 0.0000
vt 0.5702 0.5964 0.0000
vt 0.5876 0.6082 0.0000
vt 0.5876 0.5964 0.0000
vt 0.6009 0.5601 0.0000
vt 0.6009 0.5728 0.0000
vt 0.5876 0.5601 0.0000
vt 0.4921 0.5661 0.0000
vt 0.4921 0.5726 0.0000
vt 0.5528 0.5844 0.0000
vt 0.6009 0.5845 0.0000
vt 0.6009 0.5964 0.0000
vt 0.5352 0.5844 0.0000
vt 0.5351 0.5490 0.0000
vt 0.5174 0.5490 0.0000
vt 0.5352 0.5403 0.0000
vt 0.5174 0.5402 0.0000
vt 0.5703 0.5405 0.0000
vt 0.5703 0.5491 0.0000
vt 0.5528 0.5404 0.0000
vt 0.5528 0.5491 0.0000
vt 0.5876 0.5491 0.0000
vt 0.6009 0.5491 0.0000
vt 0.6009 0.5408 0.0000
vt 0.5877 0.5406 0.0000
vt 0.4921 0.5403 0.0000
vt 0.4921 0.5489 0.0000
vt 0.5174 0.5844 0.0000
vt 0.4920 0.5903 0.0000
vt 0.4921 0.5785 0.0000
vt 0.4921 0.5540 0.0000
vt 0.6009 0.6082 0.0000
vt 0.5174 0.6201 0.0000
vt 0.4921 0.6140 0.0000
vt 0.4921 0.6201 0.0000
vt 0.5528 0.6201 0.0000
vt 0.5351 0.6201 0.0000
vt 0.5528 0.6438 0.0000
vt 0.5703 0.6438 0.0000
vt 0.5529 0.6563 0.0000
vt 0.5703 0.6563 0.0000
vt 0.5877 0.6438 0.0000
vt 0.5876 0.6319 0.0000
vt 0.5703 0.6319 0.0000
vt 0.5876 0.6201 0.0000
vt 0.5703 0.6201 0.0000
vt 0.5876 0.6562 0.0000
vt 0.6009 0.6562 0.0000
vt 0.6010 0.6438 0.0000
vt 0.4921 0.6439 0.0000
vt 0.5174 0.6438 0.0000
vt 0.4921 0.6503 0.0000
vt 0.5174 0.6563 0.0000
vt 0.6009 0.6319 0.0000
vt 0.6009 0.6201 0.0000
vt 0.5529 0.6319 0.0000
vt 0.5352 0.6319 0.0000
vt 0.5351 0.6438 0.0000
vt 0.5174 0.6761 0.0000
vt 0.5174 0.6675 0.0000
vt 0.5351 0.6675 0.0000
vt 0.5351 0.6761 0.0000
vt 0.5528 0.6675 0.0000
vt 0.5703 0.6674 0.0000
vt 0.5528 0.6760 0.0000
vt 0.5529 0.6760 0.0000
vt 0.5704 0.6759 0.0000
vt 0.5877 0.6674 0.0000
vt 0.5877 0.6757 0.0000
vt 0.6009 0.6756 0.0000
vt 0.6009 0.6674 0.0000
vt 0.4921 0.6676 0.0000
vt 0.4921 0.6760 0.0000
vt 0.5352 0.6563 0.0000
vt 0.4921 0.6260 0.0000
vt 0.5174 0.6319 0.0000
vt 0.5876 0.6757 0.0000
vt 0.4921 0.6378 0.0000
vt 0.4921 0.6623 0.0000
vt 0.5353 0.6761 0.0000
# 99 texture coords

g U843_9A_345A_C_1_DaS_U843_9A_345A_C
usemtl paint_whiteSG
s 1
f 1/1/1 2/2/2 3/3/3 
f 3/3/3 2/2/2 4/4/4 
f 5/5/5 6/6/6 7/7/7 
f 7/7/7 6/6/6 8/8/8 
f 9/9/9 10/10/10 11/11/11 
f 11/11/11 10/10/10 12/12/12 
f 13/13/13 14/14/14 15/15/15 
f 15/15/15 14/14/14 16/16/16 
f 17/17/17 14/14/14 18/18/18 
f 18/18/18 14/14/14 19/19/19 
f 20/20/20 21/21/21 22/22/22 
f 22/22/22 21/21/21 23/23/23 
f 24/24/24 25/25/25 26/26/26 
f 26/26/26 25/25/25 19/19/19 
f 4/4/4 2/2/2 11/11/11 
f 11/11/11 2/2/2 9/9/9 
f 7/7/7 8/8/8 27/27/27 
f 27/27/27 8/8/8 28/28/28 
f 17/17/17 21/21/21 29/29/29 
f 29/29/29 21/21/21 10/10/10 
f 30/30/30 31/31/31 18/18/18 
f 18/18/18 31/31/31 23/23/23 
f 32/32/32 6/6/6 29/29/29 
f 29/29/29 6/6/6 16/16/16 
f 33/33/33 34/34/34 35/35/35 
f 35/35/35 34/34/34 36/36/36 
f 37/37/37 38/38/38 39/39/39 
f 39/39/39 38/38/38 40/40/40 
f 13/13/13 38/38/38 26/26/26 
f 26/26/26 38/38/38 41/41/41 
f 42/42/42 41/41/41 43/43/43 
f 43/43/43 41/41/41 44/44/44 
f 36/36/36 34/34/34 45/45/45 
f 45/45/45 34/34/34 46/46/46 
f 33/33/33 40/40/40 5/5/5 
f 5/5/5 40/40/40 15/15/15 
f 47/47/47 2/2/2 48/48/48 
f 48/48/48 2/2/2 1/1/1 
f 47/47/47 8/8/8 32/32/32 
f 32/32/32 8/8/8 6/6/6 
f 34/34/34 33/33/33 7/7/7 
f 7/7/7 33/33/33 5/5/5 
f 29/29/29 10/10/10 32/32/32 
f 32/32/32 10/10/10 9/9/9 
f 29/29/29 16/16/16 17/17/17 
f 17/17/17 16/16/16 14/14/14 
f 15/15/15 40/40/40 13/13/13 
f 13/13/13 40/40/40 38/38/38 
f 26/26/26 19/19/19 13/13/13 
f 13/13/13 19/19/19 14/14/14 
f 44/44/44 41/41/41 37/37/37 
f 37/37/37 41/41/41 38/38/38 
f 18/18/18 23/23/23 17/17/17 
f 17/17/17 23/23/23 21/21/21 
f 18/18/18 19/19/19 30/30/30 
f 30/30/30 19/19/19 25/25/25 
f 26/26/26 41/41/41 24/24/24 
f 24/24/24 41/41/41 42/42/42 
f 32/32/32 9/9/9 47/47/47 
f 47/47/47 9/9/9 2/2/2 
f 28/28/28 8/8/8 49/49/49 
f 49/49/49 8/8/8 47/47/47 
f 46/46/46 34/34/34 50/50/50 
f 50/50/50 34/34/34 7/7/7 
f 22/22/22 23/23/23 51/51/51 
f 51/51/51 23/23/23 31/31/31 
f 15/15/15 16/16/16 5/5/5 
f 5/5/5 16/16/16 6/6/6 
f 39/39/39 40/40/40 35/35/35 
f 35/35/35 40/40/40 33/33/33 
f 4/4/4 52/52/52 53/53/53 
f 53/53/53 52/52/52 54/54/54 
f 12/12/12 55/55/55 11/11/11 
f 11/11/11 55/55/55 56/56/56 
f 57/57/57 58/58/58 59/59/59 
f 59/59/59 58/58/58 60/60/60 
f 61/61/61 58/58/58 62/62/62 
f 62/62/62 58/58/58 63/63/63 
f 64/64/64 65/65/65 22/22/22 
f 22/22/22 65/65/65 20/20/20 
f 66/66/66 61/61/61 67/67/67 
f 67/67/67 61/61/61 68/68/68 
f 11/11/11 56/56/56 4/4/4 
f 4/4/4 56/56/56 52/52/52 
f 69/69/69 70/70/70 71/71/71 
f 71/71/71 70/70/70 72/72/72 
f 62/62/62 64/64/64 73/73/73 
f 73/73/73 64/64/64 74/74/74 
f 75/75/75 57/57/57 76/76/76 
f 76/76/76 57/57/57 77/77/77 
f 78/78/78 79/79/79 80/78/78 
f 81/80/80 82/81/81 79/79/79 
f 80/78/78 79/79/79 82/81/81 
f 83/82/82 84/83/83 85/84/84 
f 85/84/84 84/83/83 86/85/84 
f 84/83/83 87/86/85 86/85/84 
f 88/87/86 84/83/83 66/66/66 
f 66/66/66 84/83/83 60/60/60 
f 89/88/87 88/87/86 90/89/88 
f 90/89/88 88/87/86 91/90/89 
f 79/79/79 78/78/78 92/91/90 
f 93/92/91 92/91/90 94/92/92 
f 94/92/92 92/91/90 78/78/78 
f 59/59/59 83/82/82 95/93/93 
f 95/93/93 83/82/82 81/80/80 
f 54/54/54 52/52/52 96/94/94 
f 96/94/94 52/52/52 97/95/95 
f 76/76/76 77/77/77 97/95/95 
f 97/95/95 77/77/77 70/70/70 
f 95/93/93 81/80/80 72/72/72 
f 72/72/72 81/80/80 79/79/79 
f 63/63/63 58/58/58 75/75/75 
f 75/75/75 58/58/58 57/57/57 
f 60/60/60 84/83/83 59/59/59 
f 59/59/59 84/83/83 83/82/82 
f 84/83/83 88/87/86 87/86/85 
f 89/88/87 98/96/96 88/87/86 
f 98/96/96 87/86/85 88/87/86 
f 68/68/68 61/61/61 73/73/73 
f 73/73/73 61/61/61 62/62/62 
f 91/90/89 88/87/86 67/67/67 
f 67/67/67 88/87/86 66/66/66 
f 97/95/95 70/70/70 99/97/97 
f 99/97/97 70/70/70 69/69/69 
f 72/72/72 79/79/79 100/98/98 
f 92/91/90 101/98/98 79/79/79 
f 79/79/79 101/98/98 100/98/98 
f 20/20/20 65/65/65 12/12/12 
f 12/12/12 65/65/65 55/55/55 
f 74/74/74 64/64/64 51/51/51 
f 51/51/51 64/64/64 22/22/22 
f 77/77/77 57/57/57 95/93/93 
f 95/93/93 57/57/57 59/59/59 
f 81/80/80 83/82/82 82/81/81 
f 82/81/81 83/82/82 102/99/81 
f 83/82/82 85/84/84 102/99/81 
f 3/3/3 4/4/4 53/53/53 
f 50/50/50 7/7/7 27/27/27 
f 49/49/49 47/47/47 48/48/48 
f 52/52/52 56/56/56 97/95/95 
f 97/95/95 56/56/56 76/76/76 
f 99/97/97 96/94/94 97/95/95 
f 70/70/70 77/77/77 72/72/72 
f 72/72/72 77/77/77 95/93/93 
f 100/98/98 71/71/71 72/72/72 
f 56/56/56 55/55/55 76/76/76 
f 76/76/76 55/55/55 75/75/75 
f 55/55/55 65/65/65 75/75/75 
f 75/75/75 65/65/65 63/63/63 
f 12/12/12 10/10/10 20/20/20 
f 20/20/20 10/10/10 21/21/21 
f 65/65/65 64/64/64 63/63/63 
f 63/63/63 64/64/64 62/62/62 
f 66/66/66 60/60/60 61/61/61 
f 61/61/61 60/60/60 58/58/58 
# 155 faces

