# 3ds Max Wavefront OBJ Exporter v0.97b - (c)2007 guruware
# File Created: 30.11.2015 11:53:45

mtllib N664_9A_265B_L.mtl

#
# object N664_9A_265B_L_DTaSI_N664_9A_265B_L
#

v  62.5179 58.4259 -73.6578
v  56.9945 58.3997 -74.0100
v  56.8810 61.7880 -72.3171
v  68.3950 30.2457 -84.0173
v  75.5748 29.8671 -83.6695
v  68.2732 23.8151 -85.6929
v  75.4608 23.4184 -85.4253
v  75.6396 36.2891 -81.8026
v  68.4875 36.6421 -82.2152
v  75.5905 42.4030 -79.7556
v  68.5121 42.8344 -80.1563
v  83.4969 29.5145 -83.3123
v  87.0115 29.3762 -83.1534
v  83.5857 23.0230 -85.0600
v  87.3031 22.8421 -84.8928
v  86.6609 35.8541 -81.2374
v  83.3540 35.9643 -81.4209
v  86.2424 41.9485 -79.1586
v  83.1202 42.0685 -79.3580
v  30.7788 65.9170 -71.8983
v  33.9778 71.5851 -68.5041
v  38.4314 65.5277 -71.5847
v  36.3949 71.0116 -68.6818
v  46.0841 65.1385 -71.2711
v  46.7208 67.2835 -70.0469
v  49.1139 66.1120 -70.5274
v  51.4482 64.8402 -71.0618
v  3.2148 75.6782 -67.8630
v  8.9350 75.2175 -67.8783
v  7.4220 67.1604 -72.4515
v  51.7555 58.7203 -74.1956
v  46.0921 59.0668 -74.3962
v  45.9824 50.9038 -78.2023
v  53.4377 50.5580 -77.8959
v  45.8108 44.0490 -81.1370
v  53.6222 43.6574 -80.8469
v  53.5247 37.3658 -82.8863
v  45.7141 37.7365 -83.1449
v  45.5991 31.3964 -84.8247
v  53.4071 31.0104 -84.5949
v  45.4760 25.0188 -86.3734
v  53.2808 24.6154 -86.1670
v  38.3386 59.4220 -74.7042
v  30.5851 59.7772 -75.0121
v  30.3464 51.7332 -78.6890
v  38.1644 51.3185 -78.4457
v  30.1479 44.6962 -81.6345
v  37.9793 44.3726 -81.3857
v  37.8129 38.0671 -83.3625
v  29.9118 38.3976 -83.5801
v  37.6290 31.7149 -85.0230
v  37.4374 25.3265 -86.5546
v  29.6589 32.0334 -85.2213
v  29.3988 25.6342 -86.7357
v  23.1632 66.2021 -72.1447
v  22.8469 60.0046 -75.4046
v  14.9122 66.5399 -72.4037
v  14.8678 60.2344 -75.8096
v  14.7942 52.3089 -79.1690
v  22.5703 52.0210 -78.9290
v  14.6128 45.4705 -82.0077
v  22.3803 45.0833 -81.8211
v  22.1845 38.7197 -83.7458
v  14.4573 39.0419 -83.9116
v  14.2876 32.6665 -85.5108
v  21.9733 32.3500 -85.3661
v  14.1106 26.2609 -86.9964
v  21.7537 25.9252 -86.8625
v  7.3582 60.3094 -76.0924
v  7.3646 52.5296 -79.4623
v  7.3196 45.8701 -81.9916
v  7.4059 39.2917 -83.9576
v  7.4412 32.9628 -85.5588
v  7.4586 26.6031 -87.0463
v  83.3752 44.0307 -78.4980
v  61.2151 30.6244 -84.3651
v  61.0857 24.2119 -85.9605
v  61.3353 36.9951 -82.6278
v  61.4337 43.2658 -80.5569
v  61.7496 50.0889 -77.5662
v  30.9273 72.2038 -68.3578
v  26.0937 73.0599 -68.1524
v  73.8559 48.5711 -77.2991
v  68.1036 49.2794 -77.3784
v  73.0173 51.5528 -76.1116
v  67.7362 55.0748 -74.8804
v  77.8095 48.0726 -77.2157
v  44.6833 68.1659 -69.7077
v  38.2858 70.4658 -68.8783
v  40.4593 69.7548 -69.1305
v  20.9104 73.8430 -67.9450
v  1.5930 67.6432 -72.4887
v  1.2197 75.8065 -67.8328
v  14.9630 74.5720 -67.7721
v  42.6032 68.9646 -69.4160
v  3.1708 33.1477 -85.5887
v  3.3815 26.8129 -87.0769
v  2.9313 39.4502 -83.9867
v  2.6011 46.1287 -81.9811
v  2.3073 52.6799 -79.6619
v  1.9649 60.3632 -76.2954
# 101 vertices

vn 0.0606 0.4185 -0.9062
vn 0.0571 0.4297 -0.9012
vn 0.0544 0.4530 -0.8898
vn 0.0598 0.2603 -0.9637
vn 0.0581 0.2678 -0.9617
vn 0.0549 0.2509 -0.9665
vn 0.0554 0.2586 -0.9644
vn 0.0637 0.2970 -0.9528
vn 0.0681 0.2919 -0.9540
vn 0.0675 0.3470 -0.9354
vn 0.0723 0.3549 -0.9321
vn 0.0565 0.2706 -0.9610
vn 0.0565 0.2710 -0.9609
vn 0.0554 0.2605 -0.9639
vn 0.0549 0.2597 -0.9641
vn 0.0627 0.3022 -0.9512
vn 0.0607 0.3001 -0.9520
vn 0.0682 0.3281 -0.9422
vn 0.0652 0.3432 -0.9370
vn 0.0535 0.4681 -0.8820
vn 0.0581 0.4868 -0.8716
vn 0.0581 0.4614 -0.8853
vn 0.0583 0.4863 -0.8719
vn 0.0589 0.4600 -0.8860
vn 0.0613 0.4810 -0.8746
vn 0.0606 0.4800 -0.8752
vn 0.0581 0.4566 -0.8878
vn 0.0353 0.4908 -0.8706
vn 0.0507 0.4907 -0.8699
vn 0.0462 0.4795 -0.8763
vn 0.0573 0.4363 -0.8980
vn 0.0564 0.4353 -0.8985
vn 0.0530 0.4068 -0.9120
vn 0.0566 0.4074 -0.9115
vn 0.0480 0.3499 -0.9356
vn 0.0523 0.3541 -0.9337
vn 0.0456 0.2831 -0.9580
vn 0.0418 0.2790 -0.9594
vn 0.0374 0.2452 -0.9688
vn 0.0409 0.2482 -0.9678
vn 0.0356 0.2351 -0.9713
vn 0.0391 0.2378 -0.9705
vn 0.0549 0.4332 -0.8996
vn 0.0532 0.4306 -0.9010
vn 0.0484 0.3997 -0.9154
vn 0.0502 0.4042 -0.9133
vn 0.0415 0.3427 -0.9385
vn 0.0442 0.3464 -0.9371
vn 0.0382 0.2749 -0.9607
vn 0.0353 0.2711 -0.9619
vn 0.0339 0.2419 -0.9697
vn 0.0321 0.2321 -0.9722
vn 0.0310 0.2388 -0.9706
vn 0.0292 0.2291 -0.9730
vn 0.0485 0.4766 -0.8778
vn 0.0514 0.4296 -0.9016
vn 0.0480 0.4822 -0.8747
vn 0.0470 0.4299 -0.9016
vn 0.0428 0.3862 -0.9214
vn 0.0466 0.3933 -0.9182
vn 0.0317 0.3334 -0.9423
vn 0.0387 0.3393 -0.9399
vn 0.0324 0.2672 -0.9631
vn 0.0243 0.2652 -0.9639
vn 0.0231 0.2351 -0.9717
vn 0.0282 0.2360 -0.9713
vn 0.0229 0.2260 -0.9739
vn 0.0268 0.2265 -0.9736
vn 0.0423 0.4317 -0.9010
vn 0.0385 0.3797 -0.9243
vn 0.0244 0.3251 -0.9454
vn 0.0155 0.2665 -0.9637
vn 0.0170 0.2363 -0.9715
vn 0.0178 0.2273 -0.9737
vn 0.0678 0.3879 -0.9192
vn 0.0500 0.2525 -0.9663
vn 0.0468 0.2422 -0.9691
vn 0.0563 0.2871 -0.9562
vn 0.0625 0.3568 -0.9321
vn 0.0634 0.4069 -0.9113
vn 0.0492 0.4883 -0.8713
vn 0.0454 0.4887 -0.8712
vn 0.0659 0.3912 -0.9179
vn 0.0685 0.3989 -0.9144
vn 0.0557 0.3925 -0.9181
vn 0.0642 0.4072 -0.9111
vn 0.0677 0.3870 -0.9196
vn 0.0625 0.4806 -0.8747
vn 0.0559 0.4811 -0.8749
vn 0.0419 0.4942 -0.8684
vn 0.0427 0.4764 -0.8782
vn 0.0188 0.4960 -0.8681
vn 0.0496 0.4933 -0.8685
vn 0.0604 0.4795 -0.8755
vn 0.0605 0.4795 -0.8755
vn 0.0170 0.2379 -0.9711
vn 0.0179 0.2285 -0.9734
vn 0.0155 0.2689 -0.9630
vn 0.0247 0.3192 -0.9474
vn 0.0387 0.3769 -0.9255
vn 0.0422 0.4345 -0.8997
# 101 vertex normals

vt 0.7705 0.2139 0.0000
vt 0.7700 0.1953 0.0000
vt 0.7828 0.1950 0.0000
vt 0.6693 0.2336 0.0000
vt 0.6686 0.2578 0.0000
vt 0.6470 0.2333 0.0000
vt 0.6461 0.2575 0.0000
vt 0.6910 0.2579 0.0000
vt 0.6917 0.2338 0.0000
vt 0.7127 0.2577 0.0000
vt 0.7136 0.2339 0.0000
vt 0.6679 0.2844 0.0000
vt 0.6676 0.2963 0.0000
vt 0.6453 0.2848 0.0000
vt 0.6449 0.2973 0.0000
vt 0.6903 0.2950 0.0000
vt 0.6904 0.2839 0.0000
vt 0.7120 0.2936 0.0000
vt 0.7121 0.2831 0.0000
vt 0.7964 0.1072 0.0000
vt 0.8181 0.1199 0.0000
vt 0.7955 0.1330 0.0000
vt 0.8164 0.1263 0.0000
vt 0.7946 0.1587 0.0000
vt 0.8029 0.1609 0.0000
vt 0.7986 0.1690 0.0000
vt 0.7939 0.1768 0.0000
vt 0.8324 0.0143 0.0000
vt 0.8309 0.0333 0.0000
vt 0.7995 0.0314 0.0000
vt 0.7708 0.1777 0.0000
vt 0.7717 0.1586 0.0000
vt 0.7414 0.1581 0.0000
vt 0.7407 0.1832 0.0000
vt 0.7163 0.1574 0.0000
vt 0.7154 0.1837 0.0000
vt 0.6932 0.1834 0.0000
vt 0.6941 0.1571 0.0000
vt 0.6720 0.1568 0.0000
vt 0.6711 0.1831 0.0000
vt 0.6500 0.1565 0.0000
vt 0.6489 0.1828 0.0000
vt 0.7724 0.1325 0.0000
vt 0.7732 0.1064 0.0000
vt 0.7435 0.1055 0.0000
vt 0.7424 0.1318 0.0000
vt 0.7178 0.1047 0.0000
vt 0.7171 0.1311 0.0000
vt 0.6949 0.1306 0.0000
vt 0.6957 0.1040 0.0000
vt 0.6728 0.1300 0.0000
vt 0.6507 0.1295 0.0000
vt 0.6736 0.1032 0.0000
vt 0.6515 0.1024 0.0000
vt 0.7970 0.0816 0.0000
vt 0.7735 0.0803 0.0000
vt 0.7978 0.0538 0.0000
vt 0.7737 0.0535 0.0000
vt 0.7448 0.0531 0.0000
vt 0.7441 0.0793 0.0000
vt 0.7199 0.0525 0.0000
vt 0.7189 0.0786 0.0000
vt 0.6965 0.0780 0.0000
vt 0.6974 0.0520 0.0000
vt 0.6753 0.0515 0.0000
vt 0.6745 0.0774 0.0000
vt 0.6532 0.0510 0.0000
vt 0.6523 0.0767 0.0000
vt 0.7737 0.0318 0.0000
vt 0.7451 0.0321 0.0000
vt 0.7210 0.0323 0.0000
vt 0.6980 0.0326 0.0000
vt 0.6760 0.0328 0.0000
vt 0.6540 0.0330 0.0000
vt 0.7193 0.2840 0.0000
vt 0.6702 0.2094 0.0000
vt 0.6479 0.2091 0.0000
vt 0.6923 0.2097 0.0000
vt 0.7145 0.2100 0.0000
vt 0.7396 0.2112 0.0000
vt 0.8209 0.1069 0.0000
vt 0.8236 0.0917 0.0000
vt 0.7351 0.2520 0.0000
vt 0.7372 0.2326 0.0000
vt 0.7459 0.2492 0.0000
vt 0.7585 0.2314 0.0000
vt 0.7336 0.2653 0.0000
vt 0.8061 0.1541 0.0000
vt 0.8145 0.1326 0.0000
vt 0.8119 0.1399 0.0000
vt 0.8261 0.0764 0.0000
vt 0.8013 0.0090 0.0000
vt 0.8329 0.0081 0.0000
vt 0.8290 0.0543 0.0000
vt 0.8090 0.1471 0.0000
vt 0.6767 0.0141 0.0000
vt 0.6548 0.0150 0.0000
vt 0.6986 0.0132 0.0000
vt 0.7220 0.0121 0.0000
vt 0.7454 0.0111 0.0000
vt 0.7737 0.0101 0.0000
# 101 texture coords

g N664_9A_265B_L_DTaSI_N664_9A_265B_L
usemtl windowglass_1SG
s 1
f 1/1/1 2/2/2 3/3/3 
f 4/4/4 5/5/5 6/6/6 
f 6/6/6 5/5/5 7/7/7 
f 8/8/8 9/9/9 10/10/10 
f 10/10/10 9/9/9 11/11/11 
f 12/12/12 13/13/13 14/14/14 
f 14/14/14 13/13/13 15/15/15 
f 16/16/16 17/17/17 18/18/18 
f 18/18/18 17/17/17 19/19/19 
f 20/20/20 21/21/21 22/22/22 
f 22/22/22 21/21/21 23/23/23 
f 24/24/24 25/25/25 26/26/26 
f 27/27/27 24/24/24 26/26/26 
f 28/28/28 29/29/29 30/30/30 
f 31/31/31 32/32/32 27/27/27 
f 27/27/27 32/32/32 24/24/24 
f 33/33/33 34/34/34 35/35/35 
f 35/35/35 34/34/34 36/36/36 
f 37/37/37 38/38/38 36/36/36 
f 36/36/36 38/38/38 35/35/35 
f 39/39/39 40/40/40 41/41/41 
f 41/41/41 40/40/40 42/42/42 
f 43/43/43 44/44/44 22/22/22 
f 22/22/22 44/44/44 20/20/20 
f 45/45/45 46/46/46 47/47/47 
f 47/47/47 46/46/46 48/48/48 
f 48/48/48 49/49/49 47/47/47 
f 47/47/47 49/49/49 50/50/50 
f 51/51/51 52/52/52 53/53/53 
f 53/53/53 52/52/52 54/54/54 
f 55/55/55 56/56/56 57/57/57 
f 57/57/57 56/56/56 58/58/58 
f 59/59/59 60/60/60 61/61/61 
f 61/61/61 60/60/60 62/62/62 
f 63/63/63 64/64/64 62/62/62 
f 62/62/62 64/64/64 61/61/61 
f 65/65/65 66/66/66 67/67/67 
f 67/67/67 66/66/66 68/68/68 
f 30/30/30 57/57/57 69/69/69 
f 69/69/69 57/57/57 58/58/58 
f 70/70/70 59/59/59 71/71/71 
f 71/71/71 59/59/59 61/61/61 
f 64/64/64 72/72/72 61/61/61 
f 61/61/61 72/72/72 71/71/71 
f 73/73/73 65/65/65 74/74/74 
f 74/74/74 65/65/65 67/67/67 
f 19/19/19 75/75/75 18/18/18 
f 34/34/34 33/33/33 31/31/31 
f 31/31/31 33/33/33 32/32/32 
f 46/46/46 45/45/45 43/43/43 
f 43/43/43 45/45/45 44/44/44 
f 56/56/56 60/60/60 58/58/58 
f 58/58/58 60/60/60 59/59/59 
f 70/70/70 69/69/69 59/59/59 
f 59/59/59 69/69/69 58/58/58 
f 40/40/40 39/39/39 37/37/37 
f 37/37/37 39/39/39 38/38/38 
f 9/9/9 8/8/8 4/4/4 
f 4/4/4 8/8/8 5/5/5 
f 17/17/17 16/16/16 12/12/12 
f 12/12/12 16/16/16 13/13/13 
f 49/49/49 51/51/51 50/50/50 
f 50/50/50 51/51/51 53/53/53 
f 66/66/66 65/65/65 63/63/63 
f 63/63/63 65/65/65 64/64/64 
f 72/72/72 64/64/64 73/73/73 
f 73/73/73 64/64/64 65/65/65 
f 76/76/76 4/4/4 77/77/77 
f 77/77/77 4/4/4 6/6/6 
f 78/78/78 9/9/9 76/76/76 
f 76/76/76 9/9/9 4/4/4 
f 9/9/9 78/78/78 11/11/11 
f 11/11/11 78/78/78 79/79/79 
f 79/79/79 36/36/36 80/80/80 
f 80/80/80 36/36/36 34/34/34 
f 27/27/27 3/3/3 31/31/31 
f 31/31/31 3/3/3 2/2/2 
f 2/2/2 34/34/34 31/31/31 
f 78/78/78 37/37/37 79/79/79 
f 79/79/79 37/37/37 36/36/36 
f 76/76/76 40/40/40 78/78/78 
f 78/78/78 40/40/40 37/37/37 
f 40/40/40 76/76/76 42/42/42 
f 42/42/42 76/76/76 77/77/77 
f 32/32/32 43/43/43 24/24/24 
f 24/24/24 43/43/43 22/22/22 
f 33/33/33 46/46/46 32/32/32 
f 32/32/32 46/46/46 43/43/43 
f 46/46/46 33/33/33 48/48/48 
f 48/48/48 33/33/33 35/35/35 
f 38/38/38 49/49/49 35/35/35 
f 35/35/35 49/49/49 48/48/48 
f 39/39/39 51/51/51 38/38/38 
f 38/38/38 51/51/51 49/49/49 
f 51/51/51 39/39/39 52/52/52 
f 52/52/52 39/39/39 41/41/41 
f 81/81/81 20/20/20 82/82/82 
f 82/82/82 20/20/20 55/55/55 
f 20/20/20 44/44/44 55/55/55 
f 55/55/55 44/44/44 56/56/56 
f 44/44/44 45/45/45 56/56/56 
f 56/56/56 45/45/45 60/60/60 
f 60/60/60 45/45/45 62/62/62 
f 62/62/62 45/45/45 47/47/47 
f 50/50/50 63/63/63 47/47/47 
f 47/47/47 63/63/63 62/62/62 
f 50/50/50 53/53/53 63/63/63 
f 63/63/63 53/53/53 66/66/66 
f 68/68/68 66/66/66 54/54/54 
f 54/54/54 66/66/66 53/53/53 
f 5/5/5 12/12/12 7/7/7 
f 7/7/7 12/12/12 14/14/14 
f 8/8/8 17/17/17 5/5/5 
f 5/5/5 17/17/17 12/12/12 
f 17/17/17 8/8/8 19/19/19 
f 19/19/19 8/8/8 10/10/10 
f 10/10/10 11/11/11 83/83/83 
f 83/83/83 11/11/11 84/84/84 
f 1/1/1 80/80/80 2/2/2 
f 2/2/2 80/80/80 34/34/34 
f 83/83/83 84/84/84 85/85/85 
f 85/85/85 84/84/84 86/86/86 
f 87/87/87 83/83/83 85/85/85 
f 24/24/24 88/88/88 25/25/25 
f 22/22/22 89/89/89 90/90/89 
f 20/20/20 81/81/81 21/21/21 
f 91/91/90 82/82/82 55/55/55 
f 87/87/87 75/75/75 10/10/10 
f 10/10/10 75/75/75 19/19/19 
f 87/87/87 10/10/10 83/83/83 
f 28/28/28 92/92/91 93/93/92 
f 55/55/55 57/57/57 91/91/90 
f 91/91/90 57/57/57 94/94/93 
f 84/84/84 80/80/80 86/86/86 
f 86/86/86 80/80/80 1/1/1 
f 11/11/11 79/79/79 84/84/84 
f 84/84/84 79/79/79 80/80/80 
f 22/22/22 95/95/94 24/24/24 
f 24/24/24 95/95/94 88/88/95 
f 22/22/22 23/23/23 89/89/89 
f 22/22/22 90/90/89 95/95/94 
f 96/96/96 73/73/73 97/97/97 
f 97/97/97 73/73/73 74/74/74 
f 98/98/98 72/72/72 96/96/96 
f 96/96/96 72/72/72 73/73/73 
f 72/72/72 98/98/98 71/71/71 
f 71/71/71 98/98/98 99/99/99 
f 100/100/100 70/70/70 99/99/99 
f 99/99/99 70/70/70 71/71/71 
f 101/101/101 69/69/69 100/100/100 
f 100/100/100 69/69/69 70/70/70 
f 92/92/91 30/30/30 101/101/101 
f 101/101/101 30/30/30 69/69/69 
f 30/30/30 29/29/29 57/57/57 
f 57/57/57 29/29/29 94/94/93 
f 28/28/28 30/30/30 92/92/91 
# 156 faces

