# 3ds Max Wavefront OBJ Exporter v0.97b - (c)2007 guruware
# File Created: 30.11.2015 11:49:46

mtllib N664_9A_18A5_R.mtl

#
# object N664_9A_18A5_R_1_DaS_N664_9A_18A5_R
#

v  45.8996 75.8102 59.1102
v  44.1148 76.4253 59.1496
v  45.7144 75.6761 60.8991
v  43.9856 76.2679 60.8759
v  45.3512 75.0620 62.8318
v  43.6443 75.6472 62.7536
v  44.8863 74.2324 64.5646
v  43.1950 74.8002 64.4454
v  44.3301 73.1578 66.1272
v  42.6475 73.7119 65.9619
v  41.9627 72.2429 67.3388
v  43.6538 71.6971 67.5862
v  41.4133 77.1453 60.8233
v  41.4976 77.3174 59.1903
v  41.1079 76.4954 62.6257
v  40.7060 75.6104 64.2538
v  40.2169 74.4969 65.7126
v  39.5800 72.9925 67.1079
v  38.7051 78.2080 59.2083
v  38.6590 78.0372 60.7645
v  38.4101 77.3418 62.5089
v  38.0789 76.4017 64.0808
v  37.6907 75.2406 65.4912
v  37.2112 73.6785 66.9088
v  35.7078 78.9185 60.7369
v  35.7191 79.0982 59.2275
v  35.5102 78.1614 62.4436
v  35.2432 77.1564 63.9651
v  34.9321 75.9401 65.3261
v  34.5593 74.3577 66.6936
v  32.2215 79.8137 60.7451
v  32.4126 79.9633 59.2556
v  32.0730 78.9863 62.4296
v  31.8686 77.9095 63.9058
v  31.6334 76.6284 65.2187
v  31.3666 75.0233 66.5238
v  26.9509 80.9481 60.7974
v  26.9468 81.1523 59.3227
v  26.8266 80.0484 62.4573
v  26.6570 78.8939 63.8797
v  26.4643 77.5434 65.1352
v  21.4253 81.8763 60.8728
v  21.4322 82.0904 59.3983
v  21.3306 80.9267 62.5156
v  21.1996 79.7170 63.9026
v  21.0522 78.3170 65.1204
v  20.8966 76.6458 66.3498
v  26.2550 75.9146 66.3811
v  15.6214 82.6457 60.9652
v  15.6305 82.8843 59.4784
v  15.5513 81.6566 62.5954
v  15.4529 80.4151 63.9581
v  15.3393 78.9878 65.1583
v  15.2149 77.2896 66.3546
v  3.5172 83.8045 61.1176
v  3.4456 84.0889 59.6203
v  -1.4060 84.1529 61.1739
v  -1.4192 84.3848 59.6841
v  -1.4173 83.1563 62.7946
v  3.4864 82.7812 62.7487
v  3.4416 81.5315 64.1049
v  -1.4050 81.9115 64.1850
v  -1.4062 80.4277 65.5025
v  3.3864 80.0896 65.3955
v  3.3273 78.3654 66.4691
v  -1.4102 78.7153 66.5408
v  -6.9366 84.7011 59.7652
v  -6.9019 84.4850 61.2380
v  -6.8920 83.5432 62.8363
v  -6.8499 82.3087 64.2887
v  -6.7713 80.7514 65.5934
v  -6.7190 79.0657 66.6345
v  9.4847 83.2980 61.0471
v  9.5460 83.5668 59.5528
v  9.4330 82.2784 62.6781
v  9.3604 81.0258 64.0252
v  9.2762 79.5958 65.2816
v  9.1836 77.8763 66.3979
v  45.9140 75.4990 58.1908
v  44.0418 76.1255 58.1208
v  45.9196 75.7353 58.6998
v  44.1089 76.3663 58.7344
v  41.4902 76.9532 58.1067
v  41.5003 77.2519 58.7775
v  26.7602 80.4018 58.2423
v  26.9122 81.0395 58.9496
v  32.1594 79.3765 58.2029
v  32.3589 79.8667 58.8711
v  21.3258 81.2171 58.2694
v  21.4152 81.9700 59.0312
v  15.5571 81.9212 58.2887
v  15.6199 82.7639 59.1140
v  -1.4169 84.2884 59.2946
v  3.4419 83.9791 59.2516
v  -1.4299 83.4901 58.3531
v  3.4184 83.1101 58.3397
v  -6.9313 84.5772 59.3400
v  -6.9313 83.8879 58.3647
v  9.5387 83.4488 59.1885
v  9.4923 82.5616 58.3148
v  38.7184 78.1243 58.8024
v  38.7015 77.7653 58.1329
v  35.7100 79.0036 58.8318
v  35.6108 78.5830 58.1673
# 104 vertices

vn 0.3234 0.9402 0.1069
vn 0.3219 0.9404 0.1098
vn 0.3114 0.9222 0.2294
vn 0.3076 0.9207 0.2403
vn 0.2778 0.8691 0.4093
vn 0.2712 0.8660 0.4201
vn 0.2314 0.8059 0.5450
vn 0.2229 0.8009 0.5557
vn 0.1632 0.7140 0.6809
vn 0.1606 0.7063 0.6894
vn 0.1279 0.6507 0.7485
vn 0.1244 0.6597 0.7412
vn 0.2967 0.9211 0.2521
vn 0.3118 0.9433 0.1134
vn 0.2578 0.8612 0.4380
vn 0.2087 0.7928 0.5726
vn 0.1537 0.6988 0.6986
vn 0.1271 0.6452 0.7534
vn 0.2936 0.9491 0.1141
vn 0.2781 0.9229 0.2664
vn 0.2388 0.8539 0.4624
vn 0.1908 0.7804 0.5955
vn 0.1401 0.6910 0.7092
vn 0.1170 0.6439 0.7561
vn 0.2505 0.9247 0.2868
vn 0.2668 0.9565 0.1183
vn 0.2128 0.8444 0.4916
vn 0.1689 0.7638 0.6230
vn 0.1240 0.6766 0.7258
vn 0.1038 0.6346 0.7658
vn 0.2129 0.9270 0.3089
vn 0.2304 0.9649 0.1257
vn 0.1810 0.8309 0.5261
vn 0.1440 0.7407 0.6562
vn 0.1083 0.6545 0.7482
vn 0.0930 0.6165 0.7819
vn 0.1787 0.9272 0.3293
vn 0.1891 0.9728 0.1339
vn 0.1519 0.8181 0.5547
vn 0.1223 0.7195 0.6836
vn 0.0955 0.6351 0.7665
vn 0.1425 0.9261 0.3494
vn 0.1506 0.9780 0.1446
vn 0.1220 0.8057 0.5797
vn 0.1005 0.7003 0.7068
vn 0.0820 0.6174 0.7824
vn 0.0745 0.5857 0.8071
vn 0.0845 0.6006 0.7950
vn 0.1148 0.9233 0.3665
vn 0.1217 0.9796 0.1599
vn 0.0989 0.7969 0.5960
vn 0.0853 0.6912 0.7176
vn 0.0738 0.6054 0.7925
vn 0.0681 0.5676 0.8205
vn 0.0765 0.9224 0.3785
vn 0.0762 0.9817 0.1745
vn 0.0650 0.9281 0.3667
vn 0.0634 0.9854 0.1582
vn 0.0645 0.8023 0.5934
vn 0.0713 0.7945 0.6031
vn 0.0674 0.6981 0.7128
vn 0.0623 0.7020 0.7094
vn 0.0556 0.5922 0.8039
vn 0.0613 0.5962 0.8005
vn 0.0561 0.5288 0.8469
vn 0.0506 0.5220 0.8515
vn 0.0601 0.9871 0.1483
vn 0.0618 0.9324 0.3560
vn 0.0621 0.8086 0.5851
vn 0.0602 0.7054 0.7062
vn 0.0528 0.5929 0.8035
vn 0.0477 0.5219 0.8517
vn 0.0928 0.9211 0.3780
vn 0.0974 0.9797 0.1751
vn 0.0820 0.7929 0.6038
vn 0.0746 0.6927 0.7173
vn 0.0674 0.5991 0.7979
vn 0.0623 0.5456 0.8358
vn 0.3010 0.8705 -0.3895
vn 0.2949 0.8734 -0.3875
vn 0.2734 0.8712 -0.4078
vn 0.1257 0.7304 -0.6713
vn 0.1654 0.7698 -0.6165
vn 0.0956 0.7060 -0.7017
vn 0.0772 0.6977 -0.7122
vn 0.0474 0.7660 -0.6410
vn 0.0534 0.7265 -0.6851
vn 0.0460 0.7890 -0.6127
vn 0.0640 0.7037 -0.7076
vn 0.2422 0.8496 -0.4684
vn 0.2065 0.8127 -0.5449
# 91 vertex normals

vt 0.5670 0.3203 0.0000
vt 0.5632 0.3203 0.0000
vt 0.5671 0.3168 0.0000
vt 0.5634 0.3168 0.0000
vt 0.5672 0.3127 0.0000
vt 0.5635 0.3129 0.0000
vt 0.5672 0.3088 0.0000
vt 0.5635 0.3090 0.0000
vt 0.5671 0.3048 0.0000
vt 0.5635 0.3051 0.0000
vt 0.5634 0.3009 0.0000
vt 0.5670 0.3005 0.0000
vt 0.5578 0.3171 0.0000
vt 0.5575 0.3204 0.0000
vt 0.5580 0.3132 0.0000
vt 0.5582 0.3095 0.0000
vt 0.5583 0.3057 0.0000
vt 0.5583 0.3014 0.0000
vt 0.5514 0.3206 0.0000
vt 0.5518 0.3174 0.0000
vt 0.5522 0.3136 0.0000
vt 0.5525 0.3099 0.0000
vt 0.5529 0.3062 0.0000
vt 0.5533 0.3019 0.0000
vt 0.5454 0.3177 0.0000
vt 0.5449 0.3208 0.0000
vt 0.5460 0.3140 0.0000
vt 0.5466 0.3103 0.0000
vt 0.5471 0.3065 0.0000
vt 0.5477 0.3023 0.0000
vt 0.5380 0.3180 0.0000
vt 0.5378 0.3210 0.0000
vt 0.5388 0.3141 0.0000
vt 0.5396 0.3104 0.0000
vt 0.5403 0.3067 0.0000
vt 0.5412 0.3025 0.0000
vt 0.5271 0.3181 0.0000
vt 0.5263 0.3211 0.0000
vt 0.5280 0.3142 0.0000
vt 0.5290 0.3105 0.0000
vt 0.5300 0.3067 0.0000
vt 0.5158 0.3180 0.0000
vt 0.5149 0.3210 0.0000
vt 0.5170 0.3140 0.0000
vt 0.5182 0.3103 0.0000
vt 0.5193 0.3065 0.0000
vt 0.5207 0.3022 0.0000
vt 0.5311 0.3026 0.0000
vt 0.5043 0.3176 0.0000
vt 0.5033 0.3208 0.0000
vt 0.5057 0.3137 0.0000
vt 0.5070 0.3098 0.0000
vt 0.5083 0.3060 0.0000
vt 0.5098 0.3017 0.0000
vt 0.4810 0.3175 0.0000
vt 0.4797 0.3207 0.0000
vt 0.4715 0.3178 0.0000
vt 0.4703 0.3210 0.0000
vt 0.4731 0.3137 0.0000
vt 0.4825 0.3134 0.0000
vt 0.4839 0.3094 0.0000
vt 0.4747 0.3096 0.0000
vt 0.4763 0.3054 0.0000
vt 0.4855 0.3053 0.0000
vt 0.4871 0.3010 0.0000
vt 0.4780 0.3011 0.0000
vt 0.4598 0.3214 0.0000
vt 0.4612 0.3182 0.0000
vt 0.4627 0.3143 0.0000
vt 0.4643 0.3102 0.0000
vt 0.4661 0.3059 0.0000
vt 0.4678 0.3016 0.0000
vt 0.4924 0.3174 0.0000
vt 0.4914 0.3206 0.0000
vt 0.4939 0.3134 0.0000
vt 0.4953 0.3095 0.0000
vt 0.4967 0.3055 0.0000
vt 0.4983 0.3012 0.0000
vt 0.4440 0.3804 0.0000
vt 0.4401 0.3804 0.0000
vt 0.4438 0.3793 0.0000
vt 0.4401 0.3792 0.0000
vt 0.4349 0.3804 0.0000
vt 0.4348 0.3789 0.0000
vt 0.4055 0.3793 0.0000
vt 0.4056 0.3774 0.0000
vt 0.4162 0.3797 0.0000
vt 0.4164 0.3780 0.0000
vt 0.3948 0.3789 0.0000
vt 0.3948 0.3768 0.0000
vt 0.3834 0.3786 0.0000
vt 0.3834 0.3763 0.0000
vt 0.3499 0.3755 0.0000
vt 0.3594 0.3757 0.0000
vt 0.3499 0.3779 0.0000
vt 0.3594 0.3782 0.0000
vt 0.3392 0.3750 0.0000
vt 0.3391 0.3773 0.0000
vt 0.3714 0.3760 0.0000
vt 0.3714 0.3784 0.0000
vt 0.4438 0.3785 0.0000
vt 0.4401 0.3783 0.0000
vt 0.4348 0.3781 0.0000
vt 0.4057 0.3766 0.0000
vt 0.4165 0.3773 0.0000
vt 0.3948 0.3760 0.0000
vt 0.3834 0.3755 0.0000
vt 0.3714 0.3752 0.0000
vt 0.3594 0.3750 0.0000
vt 0.3499 0.3747 0.0000
vt 0.3391 0.3742 0.0000
vt 0.4291 0.3779 0.0000
vt 0.4291 0.3787 0.0000
vt 0.4293 0.3802 0.0000
vt 0.4231 0.3784 0.0000
vt 0.4231 0.3776 0.0000
vt 0.4231 0.3800 0.0000
# 117 texture coords

g N664_9A_18A5_R_1_DaS_N664_9A_18A5_R
usemtl paint_whiteSG
s 1
f 1/1/1 2/2/2 3/3/3 
f 3/3/3 2/2/2 4/4/4 
f 3/3/3 4/4/4 5/5/5 
f 5/5/5 4/4/4 6/6/6 
f 7/7/7 8/8/8 9/9/9 
f 9/9/9 8/8/8 10/10/10 
f 11/11/11 12/12/12 10/10/10 
f 10/10/10 12/12/12 9/9/9 
f 13/13/13 4/4/4 14/14/14 
f 14/14/14 4/4/4 2/2/2 
f 4/4/4 13/13/13 6/6/6 
f 6/6/6 13/13/13 15/15/15 
f 6/6/6 15/15/15 8/8/8 
f 8/8/8 15/15/15 16/16/16 
f 8/8/8 16/16/16 10/10/10 
f 10/10/10 16/16/16 17/17/17 
f 18/18/18 11/11/11 17/17/17 
f 17/17/17 11/11/11 10/10/10 
f 19/19/19 20/20/20 14/14/14 
f 14/14/14 20/20/20 13/13/13 
f 13/13/13 20/20/20 15/15/15 
f 15/15/15 20/20/20 21/21/21 
f 16/16/16 15/15/15 22/22/22 
f 22/22/22 15/15/15 21/21/21 
f 22/22/22 23/23/23 16/16/16 
f 16/16/16 23/23/23 17/17/17 
f 23/23/23 24/24/24 17/17/17 
f 17/17/17 24/24/24 18/18/18 
f 20/20/20 19/19/19 25/25/25 
f 25/25/25 19/19/19 26/26/26 
f 21/21/21 20/20/20 27/27/27 
f 27/27/27 20/20/20 25/25/25 
f 27/27/27 28/28/28 21/21/21 
f 21/21/21 28/28/28 22/22/22 
f 28/28/28 29/29/29 22/22/22 
f 22/22/22 29/29/29 23/23/23 
f 29/29/29 30/30/30 23/23/23 
f 23/23/23 30/30/30 24/24/24 
f 31/31/31 25/25/25 32/32/32 
f 32/32/32 25/25/25 26/26/26 
f 27/27/27 25/25/25 33/33/33 
f 33/33/33 25/25/25 31/31/31 
f 33/33/33 34/34/34 27/27/27 
f 27/27/27 34/34/34 28/28/28 
f 34/34/34 35/35/35 28/28/28 
f 28/28/28 35/35/35 29/29/29 
f 35/35/35 36/36/36 29/29/29 
f 29/29/29 36/36/36 30/30/30 
f 37/37/37 31/31/31 38/38/38 
f 38/38/38 31/31/31 32/32/32 
f 37/37/37 39/39/39 31/31/31 
f 31/31/31 39/39/39 33/33/33 
f 39/39/39 40/40/40 33/33/33 
f 33/33/33 40/40/40 34/34/34 
f 35/35/35 34/34/34 41/41/41 
f 41/41/41 34/34/34 40/40/40 
f 37/37/37 38/38/38 42/42/42 
f 42/42/42 38/38/38 43/43/43 
f 42/42/42 44/44/44 37/37/37 
f 37/37/37 44/44/44 39/39/39 
f 44/44/44 45/45/45 39/39/39 
f 39/39/39 45/45/45 40/40/40 
f 45/45/45 46/46/46 40/40/40 
f 40/40/40 46/46/46 41/41/41 
f 46/46/46 47/47/47 41/41/41 
f 41/41/41 47/47/47 48/48/48 
f 42/42/42 43/43/43 49/49/49 
f 49/49/49 43/43/43 50/50/50 
f 44/44/44 42/42/42 51/51/51 
f 51/51/51 42/42/42 49/49/49 
f 51/51/51 52/52/52 44/44/44 
f 44/44/44 52/52/52 45/45/45 
f 52/52/52 53/53/53 45/45/45 
f 45/45/45 53/53/53 46/46/46 
f 53/53/53 54/54/54 46/46/46 
f 46/46/46 54/54/54 47/47/47 
f 55/55/55 56/56/56 57/57/57 
f 57/57/57 56/56/56 58/58/58 
f 57/57/57 59/59/59 55/55/55 
f 55/55/55 59/59/59 60/60/60 
f 61/61/61 60/60/60 62/62/62 
f 62/62/62 60/60/60 59/59/59 
f 62/62/62 63/63/63 61/61/61 
f 61/61/61 63/63/63 64/64/64 
f 65/65/65 64/64/64 66/66/66 
f 66/66/66 64/64/64 63/63/63 
f 67/67/67 68/68/68 58/58/58 
f 58/58/58 68/68/68 57/57/57 
f 68/68/68 69/69/69 57/57/57 
f 57/57/57 69/69/69 59/59/59 
f 69/69/69 70/70/70 59/59/59 
f 59/59/59 70/70/70 62/62/62 
f 70/70/70 71/71/71 62/62/62 
f 62/62/62 71/71/71 63/63/63 
f 66/66/66 63/63/63 72/72/72 
f 72/72/72 63/63/63 71/71/71 
f 41/41/41 48/48/48 35/35/35 
f 35/35/35 48/48/48 36/36/36 
f 5/5/5 6/6/6 7/7/7 
f 7/7/7 6/6/6 8/8/8 
f 73/73/73 74/74/74 55/55/55 
f 55/55/55 74/74/74 56/56/56 
f 55/55/55 60/60/60 73/73/73 
f 73/73/73 60/60/60 75/75/75 
f 76/76/76 75/75/75 61/61/61 
f 61/61/61 75/75/75 60/60/60 
f 61/61/61 64/64/64 76/76/76 
f 76/76/76 64/64/64 77/77/77 
f 64/64/64 65/65/65 77/77/77 
f 77/77/77 65/65/65 78/78/78 
f 50/50/50 74/74/74 49/49/49 
f 49/49/49 74/74/74 73/73/73 
f 73/73/73 75/75/75 49/49/49 
f 49/49/49 75/75/75 51/51/51 
f 52/52/52 51/51/51 76/76/76 
f 76/76/76 51/51/51 75/75/75 
f 76/76/76 77/77/77 52/52/52 
f 52/52/52 77/77/77 53/53/53 
f 54/54/54 53/53/53 78/78/78 
f 78/78/78 53/53/53 77/77/77 
f 79/79/79 80/80/80 81/81/79 
f 81/81/79 80/80/80 82/82/80 
f 80/80/80 83/83/81 82/82/80 
f 82/82/80 83/83/81 84/84/81 
f 85/85/82 86/86/82 87/87/83 
f 87/87/83 86/86/82 88/88/83 
f 89/89/84 90/90/84 85/85/82 
f 85/85/82 90/90/84 86/86/82 
f 89/89/84 91/91/85 90/90/84 
f 90/90/84 91/91/85 92/92/85 
f 93/93/86 94/94/87 95/95/86 
f 95/95/86 94/94/87 96/96/87 
f 97/97/88 93/93/86 98/98/88 
f 98/98/88 93/93/86 95/95/86 
f 99/99/89 92/92/85 100/100/89 
f 100/100/89 92/92/85 91/91/85 
f 81/81/79 82/82/80 1/101/1 
f 1/101/1 82/82/80 2/102/2 
f 14/103/14 2/102/2 84/84/81 
f 84/84/81 2/102/2 82/82/80 
f 86/86/82 38/104/38 88/88/83 
f 88/88/83 38/104/38 32/105/32 
f 86/86/82 90/90/84 38/104/38 
f 38/104/38 90/90/84 43/106/43 
f 90/90/84 92/92/85 43/106/43 
f 43/106/43 92/92/85 50/107/50 
f 92/92/85 99/99/89 50/107/50 
f 50/107/50 99/99/89 74/108/74 
f 94/94/87 93/93/86 56/109/56 
f 56/109/56 93/93/86 58/110/58 
f 93/93/86 97/97/88 58/110/58 
f 58/110/58 97/97/88 67/111/67 
f 19/112/19 14/103/14 101/113/90 
f 101/113/90 14/103/14 84/84/81 
f 83/83/81 102/114/90 84/84/81 
f 84/84/81 102/114/90 101/113/90 
f 101/113/90 103/115/91 19/112/19 
f 19/112/19 103/115/91 26/116/26 
f 103/115/91 101/113/90 104/117/91 
f 104/117/91 101/113/90 102/114/90 
f 88/88/83 32/105/32 103/115/91 
f 103/115/91 32/105/32 26/116/26 
f 87/87/83 88/88/83 104/117/91 
f 104/117/91 88/88/83 103/115/91 
f 99/99/89 94/94/87 74/108/74 
f 74/108/74 94/94/87 56/109/56 
f 94/94/87 99/99/89 96/96/87 
f 96/96/87 99/99/89 100/100/89 
# 168 faces

#
# object N664_9A_18A5_R_N664_9A_18A5_R_2_D
#

v  -7.8509 84.0833 59.7998
v  -7.8553 83.8561 60.8781
v  -7.0724 84.0861 59.8025
v  -7.0500 83.8570 60.8781
v  -7.0436 82.9721 62.3733
v  -7.8575 82.9721 62.3741
v  -7.8490 81.8365 63.7076
v  -7.0164 81.8365 63.7076
v  -7.8318 80.4409 64.8648
v  -6.9657 80.4473 64.8648
v  -7.7627 78.6603 66.3354
v  -6.9480 78.6157 66.3354
v  -7.0743 83.9638 59.3568
v  -7.8538 83.9649 59.3566
v  -7.0822 83.2156 58.2021
v  -7.8586 83.2145 58.2023
# 16 vertices

vn -0.0020 0.9974 0.0717
vn -0.0011 0.9170 0.3988
vn -0.0021 0.9972 0.0743
vn -0.0011 0.9167 0.3996
vn 0.0001 0.8132 0.5820
vn 0.0001 0.8135 0.5816
vn -0.0011 0.7012 0.7130
vn -0.0011 0.7001 0.7141
vn 0.0069 0.6350 0.7725
vn 0.0070 0.6349 0.7726
vn 0.0144 0.6316 0.7752
vn -0.0002 0.8787 -0.4775
vn -0.0002 0.8783 -0.4780
vn -0.0000 0.8388 -0.5444
# 14 vertex normals

vt 0.0199 0.9856 0.0000
vt 0.0199 0.9857 0.0000
vt 0.0199 0.9858 0.0000
vt 0.0199 0.9859 0.0000
vt 0.0199 0.9855 0.0000
# 5 texture coords

g N664_9A_18A5_R_N664_9A_18A5_R_2_D
usemtl diffuse_holesSG
s 1
f 105/118/92 106/119/93 107/118/94 
f 107/118/94 106/119/93 108/119/95 
f 108/119/95 106/119/93 109/119/96 
f 109/119/96 106/119/93 110/119/97 
f 110/119/97 111/120/98 109/119/96 
f 109/119/96 111/120/98 112/120/99 
f 111/120/98 113/121/100 112/120/99 
f 112/120/99 113/121/100 114/121/101 
f 113/121/100 115/121/102 114/121/101 
f 114/121/101 115/121/102 116/121/102 
f 107/118/94 117/118/103 105/118/92 
f 105/118/92 117/118/103 118/118/104 
f 117/118/103 119/122/105 118/118/104 
f 118/118/104 119/122/105 120/122/105 
# 14 faces

#
# object N664_9A_18A5_R_1_DaS_N664_9A_18A5_R_E
#

v  41.8432 71.7757 67.0932
v  43.5377 71.2272 67.3440
v  41.9627 72.2429 67.3388
v  43.6538 71.6971 67.5862
v  39.5800 72.9925 67.1079
v  39.4608 72.5279 66.8571
v  37.2112 73.6785 66.9088
v  37.1042 73.2132 66.6541
v  34.5593 74.3577 66.6936
v  34.4684 73.8926 66.4323
v  31.3666 75.0233 66.5238
v  31.3470 74.5521 66.2528
v  26.2550 75.9146 66.3811
v  26.1887 75.4584 66.0977
v  20.8966 76.6458 66.3498
v  20.8424 76.1937 66.0574
v  15.2149 77.2896 66.3546
v  15.1636 76.8374 66.0843
v  3.3521 77.9133 66.1669
v  9.0731 77.4333 66.1163
v  3.3273 78.3654 66.4691
v  9.1836 77.8763 66.3979
v  -6.9480 78.6157 66.3354
v  -1.4476 78.2681 66.2358
v  -6.7190 79.0657 66.6345
v  -1.4102 78.7153 66.5408
v  -7.0724 84.0861 59.8025
v  -7.0500 83.8570 60.8781
v  -6.9366 84.7011 59.7652
v  -6.9019 84.4850 61.2380
v  -7.0436 82.9721 62.3733
v  -6.8920 83.5432 62.8363
v  -7.0164 81.8365 63.7076
v  -6.8499 82.3087 64.2887
v  -6.9657 80.4473 64.8648
v  -6.7713 80.7514 65.5934
v  46.0170 75.3863 57.9619
v  44.0240 76.1292 57.8914
v  45.9140 75.4990 58.1908
v  44.0418 76.1255 58.1208
v  41.4939 76.9467 57.8779
v  41.4902 76.9532 58.1067
v  26.7538 80.3496 58.0327
v  26.7602 80.4018 58.2423
v  32.1393 79.3374 57.9871
v  32.1594 79.3765 58.2029
v  21.3329 81.1579 58.0624
v  21.3258 81.2171 58.2694
v  15.5591 81.8606 58.0827
v  15.5571 81.9212 58.2887
v  9.4948 82.5084 58.1012
v  9.4923 82.5616 58.3148
v  3.4203 83.0483 58.1373
v  -1.4014 83.3882 58.1939
v  3.4184 83.1101 58.3397
v  -1.4299 83.4901 58.3531
v  -6.9426 83.8217 58.2143
v  -6.9313 83.8879 58.3647
v  38.7015 77.7653 58.1329
v  38.7133 77.7435 57.9065
v  35.6120 78.5496 57.9454
v  35.6108 78.5830 58.1673
v  -7.0822 83.2156 58.2021
v  -7.0743 83.9638 59.3568
v  -6.9313 84.5772 59.3400
# 65 vertices

vn -0.2381 -0.4034 0.8835
vn -0.2564 -0.3930 0.8831
vn -0.2378 -0.4037 0.8834
vn -0.2558 -0.3922 0.8836
vn -0.2086 -0.4233 0.8816
vn -0.2086 -0.4220 0.8823
vn -0.1933 -0.4375 0.8782
vn -0.1933 -0.4359 0.8790
vn -0.1674 -0.4593 0.8723
vn -0.1674 -0.4570 0.8736
vn -0.1288 -0.4910 0.8616
vn -0.1312 -0.4887 0.8625
vn -0.0954 -0.5157 0.8514
vn -0.0954 -0.5145 0.8522
vn -0.0674 -0.5353 0.8420
vn -0.0674 -0.5356 0.8418
vn -0.0501 -0.5081 0.8598
vn -0.0501 -0.5096 0.8590
vn -0.0347 -0.5566 0.8301
vn -0.0402 -0.5297 0.8472
vn -0.0337 -0.5560 0.8305
vn -0.0410 -0.5282 0.8481
vn -0.6280 -0.1832 0.7563
vn -0.0256 -0.5611 0.8273
vn -0.6312 -0.2071 0.7474
vn -0.0257 -0.5618 0.8269
vn -0.9755 0.2198 0.0026
vn -0.9787 0.1894 0.0785
vn -0.9773 0.2120 -0.0055
vn -0.9794 0.1841 0.0827
vn -0.9795 0.1588 0.1243
vn -0.9790 0.1588 0.1280
vn -0.9766 0.1347 0.1679
vn -0.9755 0.1342 0.1746
vn -0.9680 0.1267 0.2165
vn -0.9708 0.1122 0.2121
vn 0.3436 0.8946 -0.2856
vn 0.3143 0.9491 -0.0201
vn 0.3429 0.8995 -0.2708
vn 0.3134 0.9496 -0.0090
vn 0.2916 0.9563 -0.0224
vn 0.2912 0.9564 -0.0234
vn 0.1597 0.9568 -0.2431
vn 0.1594 0.9569 -0.2428
vn 0.1993 0.9609 -0.1922
vn 0.2004 0.9606 -0.1926
vn 0.1292 0.9546 -0.2683
vn 0.1279 0.9547 -0.2688
vn 0.1085 0.9540 -0.2796
vn 0.1081 0.9541 -0.2792
vn 0.0929 0.9663 -0.2402
vn 0.0925 0.9663 -0.2404
vn 0.0747 0.9541 -0.2899
vn 0.0646 0.8477 -0.5265
vn 0.0742 0.9531 -0.2936
vn 0.0645 0.8465 -0.5285
vn -0.6855 0.6833 -0.2513
vn -0.7779 0.5696 -0.2653
vn 0.2633 0.9614 -0.0804
vn 0.2647 0.9612 -0.0774
vn 0.2350 0.9616 -0.1420
vn 0.2340 0.9615 -0.1444
vn -0.9604 0.2467 -0.1292
vn -0.9667 0.2272 -0.1179
vn -0.9709 0.2180 -0.0988
# 65 vertex normals

vt 0.5634 0.2999 0.0000
vt 0.5670 0.2995 0.0000
vt 0.5634 0.3009 0.0000
vt 0.5670 0.3005 0.0000
vt 0.5583 0.3014 0.0000
vt 0.5583 0.3003 0.0000
vt 0.5533 0.3019 0.0000
vt 0.5533 0.3008 0.0000
vt 0.5477 0.3023 0.0000
vt 0.5479 0.3012 0.0000
vt 0.5412 0.3025 0.0000
vt 0.5415 0.3014 0.0000
vt 0.5311 0.3026 0.0000
vt 0.5313 0.3015 0.0000
vt 0.5207 0.3022 0.0000
vt 0.5210 0.3011 0.0000
vt 0.5098 0.3017 0.0000
vt 0.5102 0.3006 0.0000
vt 0.4876 0.2998 0.0000
vt 0.4986 0.3001 0.0000
vt 0.4871 0.3010 0.0000
vt 0.4983 0.3012 0.0000
vt 0.4678 0.3004 0.0000
vt 0.4784 0.2999 0.0000
vt 0.4678 0.3016 0.0000
vt 0.4780 0.3011 0.0000
vt 0.4588 0.3210 0.0000
vt 0.4598 0.3185 0.0000
vt 0.4598 0.3214 0.0000
vt 0.4612 0.3182 0.0000
vt 0.4612 0.3145 0.0000
vt 0.4627 0.3143 0.0000
vt 0.4628 0.3105 0.0000
vt 0.4643 0.3102 0.0000
vt 0.4644 0.3063 0.0000
vt 0.4661 0.3059 0.0000
vt 0.4670 0.3012 0.0000
vt 0.4442 0.3809 0.0000
vt 0.4401 0.3809 0.0000
vt 0.4440 0.3804 0.0000
vt 0.4401 0.3804 0.0000
vt 0.4349 0.3808 0.0000
vt 0.4349 0.3804 0.0000
vt 0.4055 0.3797 0.0000
vt 0.4055 0.3793 0.0000
vt 0.4161 0.3801 0.0000
vt 0.4162 0.3797 0.0000
vt 0.3948 0.3793 0.0000
vt 0.3948 0.3789 0.0000
vt 0.3834 0.3790 0.0000
vt 0.3834 0.3786 0.0000
vt 0.3714 0.3788 0.0000
vt 0.3714 0.3784 0.0000
vt 0.3594 0.3786 0.0000
vt 0.3500 0.3782 0.0000
vt 0.3594 0.3782 0.0000
vt 0.3499 0.3779 0.0000
vt 0.3391 0.3776 0.0000
vt 0.3391 0.3773 0.0000
vt 0.4293 0.3802 0.0000
vt 0.4293 0.3806 0.0000
vt 0.4231 0.3804 0.0000
vt 0.4231 0.3800 0.0000
vt 0.3381 0.3782 0.0000
vt 0.3382 0.3756 0.0000
vt 0.3392 0.3750 0.0000
vt 0.3380 0.3747 0.0000
vt 0.3391 0.3742 0.0000
# 68 texture coords

g N664_9A_18A5_R_1_DaS_N664_9A_18A5_R_E
usemtl paint_whiteSG
s 1
f 121/123/106 122/124/107 123/125/108 
f 123/125/108 122/124/107 124/126/109 
f 125/127/110 126/128/111 123/125/108 
f 123/125/108 126/128/111 121/123/106 
f 127/129/112 128/130/113 125/127/110 
f 125/127/110 128/130/113 126/128/111 
f 129/131/114 130/132/115 127/129/112 
f 127/129/112 130/132/115 128/130/113 
f 131/133/116 132/134/117 129/131/114 
f 129/131/114 132/134/117 130/132/115 
f 133/135/118 134/136/119 131/133/116 
f 131/133/116 134/136/119 132/134/117 
f 135/137/120 136/138/121 133/135/118 
f 133/135/118 136/138/121 134/136/119 
f 137/139/122 138/140/123 135/137/120 
f 135/137/120 138/140/123 136/138/121 
f 139/141/124 140/142/125 141/143/126 
f 141/143/126 140/142/125 142/144/127 
f 143/145/128 144/146/129 145/147/130 
f 145/147/130 144/146/129 146/148/131 
f 146/148/131 144/146/129 141/143/126 
f 141/143/126 144/146/129 139/141/124 
f 140/142/125 138/140/123 142/144/127 
f 142/144/127 138/140/123 137/139/122 
f 147/149/132 148/150/133 149/151/134 
f 149/151/134 148/150/133 150/152/135 
f 148/150/133 151/153/136 150/152/135 
f 150/152/135 151/153/136 152/154/137 
f 151/153/136 153/155/138 152/154/137 
f 152/154/137 153/155/138 154/156/139 
f 153/155/138 155/157/140 154/156/139 
f 154/156/139 155/157/140 156/158/141 
f 156/158/141 155/157/140 145/147/130 
f 145/147/130 155/157/140 143/159/128 
f 157/160/142 158/161/143 159/162/144 
f 159/162/144 158/161/143 160/163/145 
f 161/164/146 162/165/147 158/161/143 
f 158/161/143 162/165/147 160/163/145 
f 163/166/148 164/167/149 165/168/150 
f 165/168/150 164/167/149 166/169/151 
f 163/166/148 167/170/152 164/167/149 
f 164/167/149 167/170/152 168/171/153 
f 167/170/152 169/172/154 168/171/153 
f 168/171/153 169/172/154 170/173/155 
f 169/172/154 171/174/156 170/173/155 
f 170/173/155 171/174/156 172/175/157 
f 173/176/158 174/177/159 175/178/160 
f 175/178/160 174/177/159 176/179/161 
f 174/177/159 177/180/162 176/179/161 
f 176/179/161 177/180/162 178/181/163 
f 179/182/164 162/165/147 180/183/165 
f 180/183/165 162/165/147 161/164/146 
f 180/183/165 181/184/166 179/182/164 
f 179/182/164 181/184/166 182/185/167 
f 166/169/151 182/185/167 165/168/150 
f 165/168/150 182/185/167 181/184/166 
f 171/174/156 173/176/158 172/175/157 
f 172/175/157 173/176/158 175/178/160 
f 183/186/168 184/187/169 178/181/163 
f 178/181/163 184/187/169 185/188/170 
f 184/187/169 147/189/132 185/188/170 
f 185/188/170 147/189/132 149/190/134 
f 177/180/162 183/186/168 178/181/163 
# 63 faces

