# 3ds Max Wavefront OBJ Exporter v0.97b - (c)2007 guruware
# File Created: 04.01.2016 12:57:19

mtllib Y651_325B_R.mtl

#
# object Y651_325B_R_DTaSI_Y651_325B_R
#

v  -37.3866 58.8055 97.3908
v  -38.0816 67.6909 93.9863
v  -44.7822 59.1026 97.3596
v  -45.3946 67.9183 94.0088
v  -52.8926 78.8080 89.9728
v  -52.5572 68.1089 94.0048
v  -45.8894 78.6438 89.9357
v  -52.1592 59.3691 97.2945
v  -80.6460 79.4251 90.0364
v  -80.5825 68.8317 93.9260
v  -73.7436 79.2967 90.0831
v  -73.8824 68.6765 93.9931
v  -53.5021 97.2192 82.6068
v  -53.2073 88.4401 86.2889
v  -46.7917 97.0864 82.5697
v  -46.3551 88.2922 86.2422
v  -38.5586 78.4446 89.8749
v  -39.0005 88.1028 86.1701
v  -73.6084 88.8804 86.4279
v  -73.4813 97.6144 82.7173
v  -80.6963 88.9869 86.3826
v  -80.7388 97.6960 82.6706
v  -39.4225 97.1841 82.3834
v  -39.8023 105.2934 78.4041
v  -47.1989 105.2494 78.5599
v  -53.8150 110.1344 76.0573
v  -53.7781 105.3591 78.5802
v  -47.2258 110.0553 76.0395
v  -73.3664 105.6857 78.6408
v  -80.4312 105.7288 78.6134
v  -73.4333 110.3697 76.1104
v  -80.5135 110.3506 76.1194
v  -74.1230 60.1624 97.1004
v  -80.7504 60.3503 97.0080
v  -39.7171 109.9858 75.9683
v  -32.0625 109.9148 75.8957
v  -32.2621 105.3383 78.2453
v  -26.0024 109.8586 75.8382
v  -25.8287 105.6390 78.0123
v  -25.4948 97.5267 81.9853
v  -31.9102 97.2836 82.1936
v  -31.5030 87.9097 86.0967
v  -25.0944 87.8002 86.0310
v  -24.6911 78.0023 89.8032
v  -31.0855 78.2415 89.8130
v  -30.6264 67.4590 93.9634
v  -24.2408 67.0609 94.0372
v  -23.8786 58.2628 97.4477
v  -29.8474 58.5026 97.4226
v  -59.5258 59.6352 97.2294
v  -59.7096 68.2993 94.0009
v  -67.0330 59.9063 97.1631
v  -66.9985 68.4933 93.9969
v  -67.0128 79.1390 90.0474
v  -59.8859 78.9719 90.0098
v  -60.0497 88.5878 86.3355
v  -67.0228 88.7383 86.3830
v  -67.0319 97.4868 82.6816
v  -60.2030 97.3517 82.6439
v  -60.3479 105.4686 78.6005
v  -67.0431 105.5802 78.6212
v  -67.1004 110.2937 76.0932
v  -60.3949 110.2133 76.0751
v  -97.3017 60.8193 96.7774
v  -97.3673 69.2205 93.7578
v  -99.3904 60.8785 96.7483
v  -99.8839 69.0788 93.8265
v  -100.5248 79.7291 89.9463
v  -98.0078 79.7480 89.9191
v  -98.5945 89.2559 86.2680
v  -101.1037 89.3491 86.2501
v  -99.1456 97.9028 82.5522
v  -101.6301 98.0966 82.4876
v  -102.1126 106.1149 78.4230
v  -99.6785 105.8463 78.5390
v  -102.3626 110.2693 76.1408
v  -100.4272 110.2970 76.1447
v  -87.1753 110.3327 76.1279
v  -94.1518 110.3139 76.1367
v  -87.0784 105.7694 78.5877
v  -93.7118 105.8099 78.5621
v  -87.5674 97.7727 82.6267
v  -93.6628 97.8411 82.5875
v  -87.3652 89.0871 86.3399
v  -93.2769 89.1760 86.3020
v  -87.1405 79.5459 89.9925
v  -92.8616 79.6523 89.9539
v  -92.4041 69.1056 93.8075
v  -86.8865 68.9778 93.8628
v  -86.9860 60.5269 96.9212
v  -92.4167 60.6809 96.8455
# 91 vertices

vn 0.0113 0.3594 0.9331
vn 0.0140 0.3581 0.9336
vn 0.0085 0.3566 0.9342
vn 0.0114 0.3556 0.9346
vn 0.0129 0.3548 0.9349
vn 0.0088 0.3528 0.9357
vn 0.0151 0.3564 0.9342
vn 0.0054 0.3535 0.9354
vn -0.0000 0.3503 0.9366
vn -0.0015 0.3433 0.9392
vn 0.0065 0.3505 0.9365
vn 0.0040 0.3445 0.9388
vn 0.0131 0.4147 0.9099
vn 0.0141 0.3715 0.9283
vn 0.0156 0.4130 0.9106
vn 0.0164 0.3715 0.9283
vn 0.0172 0.3580 0.9336
vn 0.0185 0.3718 0.9281
vn 0.0067 0.3729 0.9278
vn 0.0056 0.4202 0.9074
vn -0.0004 0.3739 0.9275
vn -0.0010 0.4211 0.9070
vn 0.0176 0.4125 0.9108
vn 0.0159 0.4480 0.8939
vn 0.0134 0.4501 0.8929
vn 0.0087 0.4678 0.8838
vn 0.0105 0.4527 0.8916
vn 0.0111 0.4650 0.8852
vn 0.0044 0.4597 0.8881
vn -0.0006 0.4597 0.8881
vn 0.0037 0.4753 0.8798
vn -0.0003 0.4750 0.8800
vn 0.0015 0.3438 0.9390
vn -0.0030 0.3420 0.9397
vn 0.0136 0.4613 0.8871
vn 0.0138 0.4571 0.8893
vn 0.0144 0.4463 0.8948
vn 0.0116 0.4574 0.8892
vn 0.0117 0.4467 0.8946
vn 0.0141 0.4111 0.9115
vn 0.0160 0.4113 0.9114
vn 0.0172 0.3719 0.9281
vn 0.0157 0.3717 0.9282
vn 0.0143 0.3600 0.9328
vn 0.0160 0.3593 0.9331
vn 0.0129 0.3603 0.9328
vn 0.0116 0.3613 0.9324
vn 0.0106 0.3618 0.9322
vn 0.0108 0.3613 0.9324
vn 0.0053 0.3502 0.9366
vn 0.0088 0.3499 0.9367
vn 0.0052 0.3469 0.9379
vn 0.0087 0.3470 0.9378
vn 0.0129 0.3516 0.9360
vn 0.0129 0.3532 0.9355
vn 0.0141 0.3718 0.9282
vn 0.0141 0.3722 0.9280
vn 0.0131 0.4182 0.9082
vn 0.0131 0.4165 0.9091
vn 0.0106 0.4552 0.8903
vn 0.0105 0.4577 0.8891
vn 0.0088 0.4733 0.8809
vn 0.0088 0.4705 0.8823
vn -0.0031 0.3387 0.9409
vn 0.0011 0.3407 0.9402
vn -0.0015 0.3378 0.9412
vn 0.0066 0.3399 0.9405
vn 0.0074 0.3506 0.9365
vn 0.0025 0.3503 0.9366
vn 0.0020 0.3762 0.9265
vn 0.0073 0.3775 0.9260
vn 0.0021 0.4228 0.9062
vn 0.0093 0.4252 0.9050
vn 0.0073 0.4619 0.8869
vn 0.0022 0.4599 0.8880
vn -0.0087 0.4811 0.8766
vn -0.0007 0.4752 0.8799
vn -0.0003 0.4746 0.8802
vn -0.0004 0.4741 0.8805
vn -0.0006 0.4596 0.8881
vn -0.0006 0.4595 0.8882
vn -0.0010 0.4219 0.9066
vn -0.0010 0.4221 0.9065
vn -0.0004 0.3747 0.9271
vn -0.0004 0.3754 0.9268
vn -0.0000 0.3502 0.9367
vn 0.0000 0.3501 0.9367
vn -0.0015 0.3414 0.9399
vn -0.0015 0.3423 0.9396
vn -0.0030 0.3407 0.9402
vn -0.0031 0.3396 0.9406
# 91 vertex normals

vt 0.5692 0.0255 0.0000
vt 0.5663 0.0535 0.0000
vt 0.5459 0.0259 0.0000
vt 0.5433 0.0536 0.0000
vt 0.5188 0.0873 0.0000
vt 0.5207 0.0536 0.0000
vt 0.5409 0.0873 0.0000
vt 0.5227 0.0261 0.0000
vt 0.4314 0.0870 0.0000
vt 0.4324 0.0536 0.0000
vt 0.4531 0.0871 0.0000
vt 0.4535 0.0537 0.0000
vt 0.5154 0.1452 0.0000
vt 0.5170 0.1176 0.0000
vt 0.5365 0.1453 0.0000
vt 0.5386 0.1177 0.0000
vt 0.5640 0.0873 0.0000
vt 0.5618 0.1176 0.0000
vt 0.4528 0.1173 0.0000
vt 0.4524 0.1448 0.0000
vt 0.4304 0.1171 0.0000
vt 0.4296 0.1445 0.0000
vt 0.5597 0.1462 0.0000
vt 0.5579 0.1717 0.0000
vt 0.5346 0.1710 0.0000
vt 0.5134 0.1858 0.0000
vt 0.5139 0.1708 0.0000
vt 0.5341 0.1861 0.0000
vt 0.4522 0.1702 0.0000
vt 0.4299 0.1698 0.0000
vt 0.4516 0.1850 0.0000
vt 0.4293 0.1843 0.0000
vt 0.4535 0.0268 0.0000
vt 0.4326 0.0269 0.0000
vt 0.5578 0.1865 0.0000
vt 0.5819 0.1869 0.0000
vt 0.5816 0.1725 0.0000
vt 0.6009 0.1872 0.0000
vt 0.6018 0.1739 0.0000
vt 0.6035 0.1484 0.0000
vt 0.5834 0.1471 0.0000
vt 0.5854 0.1176 0.0000
vt 0.6056 0.1178 0.0000
vt 0.6077 0.0870 0.0000
vt 0.5875 0.0872 0.0000
vt 0.5898 0.0533 0.0000
vt 0.6100 0.0526 0.0000
vt 0.6118 0.0249 0.0000
vt 0.5930 0.0252 0.0000
vt 0.4995 0.0264 0.0000
vt 0.4982 0.0536 0.0000
vt 0.4758 0.0266 0.0000
vt 0.4752 0.0536 0.0000
vt 0.4743 0.0872 0.0000
vt 0.4968 0.0872 0.0000
vt 0.4955 0.1175 0.0000
vt 0.4735 0.1174 0.0000
vt 0.4728 0.1449 0.0000
vt 0.4943 0.1451 0.0000
vt 0.4932 0.1706 0.0000
vt 0.4721 0.1704 0.0000
vt 0.4715 0.1852 0.0000
vt 0.4926 0.1855 0.0000
vt 0.3804 0.0270 0.0000
vt 0.3795 0.0535 0.0000
vt 0.3738 0.0270 0.0000
vt 0.3716 0.0528 0.0000
vt 0.3687 0.0863 0.0000
vt 0.3767 0.0866 0.0000
vt 0.3741 0.1165 0.0000
vt 0.3661 0.1165 0.0000
vt 0.3716 0.1436 0.0000
vt 0.3638 0.1440 0.0000
vt 0.3616 0.1693 0.0000
vt 0.3693 0.1686 0.0000
vt 0.3605 0.1823 0.0000
vt 0.3666 0.1826 0.0000
vt 0.4083 0.1837 0.0000
vt 0.3863 0.1831 0.0000
vt 0.4090 0.1694 0.0000
vt 0.3881 0.1690 0.0000
vt 0.4081 0.1442 0.0000
vt 0.3889 0.1439 0.0000
vt 0.4094 0.1168 0.0000
vt 0.3908 0.1166 0.0000
vt 0.4109 0.0868 0.0000
vt 0.3929 0.0867 0.0000
vt 0.3952 0.0535 0.0000
vt 0.4126 0.0536 0.0000
vt 0.4129 0.0269 0.0000
vt 0.3958 0.0270 0.0000
# 91 texture coords

g Y651_325B_R_DTaSI_Y651_325B_R
usemtl windowglass_1SG
s 1
f 1/1/1 2/2/2 3/3/3 
f 3/3/3 2/2/2 4/4/4 
f 5/5/5 6/6/6 7/7/7 
f 7/7/7 6/6/6 4/4/4 
f 3/3/3 4/4/4 8/8/8 
f 8/8/8 4/4/4 6/6/6 
f 9/9/9 10/10/10 11/11/11 
f 11/11/11 10/10/10 12/12/12 
f 13/13/13 14/14/14 15/15/15 
f 15/15/15 14/14/14 16/16/16 
f 7/7/7 16/16/16 5/5/5 
f 5/5/5 16/16/16 14/14/14 
f 17/17/17 18/18/18 7/7/7 
f 7/7/7 18/18/18 16/16/16 
f 19/19/19 20/20/20 21/21/21 
f 21/21/21 20/20/20 22/22/22 
f 23/23/23 24/24/24 15/15/15 
f 15/15/15 24/24/24 25/25/25 
f 26/26/26 27/27/27 28/28/28 
f 28/28/28 27/27/27 25/25/25 
f 15/15/15 25/25/25 13/13/13 
f 13/13/13 25/25/25 27/27/27 
f 29/29/29 30/30/30 20/20/20 
f 20/20/20 30/30/30 22/22/22 
f 31/31/31 32/32/32 29/29/29 
f 29/29/29 32/32/32 30/30/30 
f 33/33/33 12/12/12 34/34/34 
f 34/34/34 12/12/12 10/10/10 
f 11/11/11 19/19/19 9/9/9 
f 9/9/9 19/19/19 21/21/21 
f 7/7/7 4/4/4 17/17/17 
f 17/17/17 4/4/4 2/2/2 
f 15/15/15 16/16/16 23/23/23 
f 23/23/23 16/16/16 18/18/18 
f 28/28/28 25/25/25 35/35/35 
f 35/35/35 25/25/25 24/24/24 
f 36/36/36 37/37/37 38/38/38 
f 38/38/38 37/37/37 39/39/39 
f 40/40/40 39/39/39 41/41/41 
f 41/41/41 39/39/39 37/37/37 
f 41/41/41 42/42/42 40/40/40 
f 40/40/40 42/42/42 43/43/43 
f 44/44/44 43/43/43 45/45/45 
f 45/45/45 43/43/43 42/42/42 
f 45/45/45 46/46/46 44/44/44 
f 44/44/44 46/46/46 47/47/47 
f 48/48/48 47/47/47 49/49/49 
f 49/49/49 47/47/47 46/46/46 
f 50/50/50 51/51/51 52/52/52 
f 52/52/52 51/51/51 53/53/53 
f 54/54/54 53/53/53 55/55/55 
f 55/55/55 53/53/53 51/51/51 
f 55/55/55 56/56/56 54/54/54 
f 54/54/54 56/56/56 57/57/57 
f 58/58/58 57/57/57 59/59/59 
f 59/59/59 57/57/57 56/56/56 
f 59/59/59 60/60/60 58/58/58 
f 58/58/58 60/60/60 61/61/61 
f 62/62/62 61/61/61 63/63/63 
f 63/63/63 61/61/61 60/60/60 
f 64/64/64 65/65/65 66/66/66 
f 66/66/66 65/65/65 67/67/67 
f 68/68/68 67/67/67 69/69/69 
f 69/69/69 67/67/67 65/65/65 
f 69/69/69 70/70/70 68/68/68 
f 68/68/68 70/70/70 71/71/71 
f 70/70/70 72/72/72 71/71/71 
f 71/71/71 72/72/72 73/73/73 
f 74/74/74 73/73/73 75/75/75 
f 75/75/75 73/73/73 72/72/72 
f 76/76/76 74/74/74 77/77/77 
f 77/77/77 74/74/74 75/75/75 
f 78/78/78 79/79/79 80/80/80 
f 80/80/80 79/79/79 81/81/81 
f 80/80/80 81/81/81 82/82/82 
f 82/82/82 81/81/81 83/83/83 
f 84/84/84 82/82/82 85/85/85 
f 85/85/85 82/82/82 83/83/83 
f 86/86/86 84/84/84 87/87/87 
f 87/87/87 84/84/84 85/85/85 
f 87/87/87 88/88/88 86/86/86 
f 86/86/86 88/88/88 89/89/89 
f 90/90/90 89/89/89 91/91/91 
f 91/91/91 89/89/89 88/88/88 
f 77/77/77 75/75/75 79/79/79 
f 79/79/79 75/75/75 81/81/81 
f 83/83/83 81/81/81 72/72/72 
f 72/72/72 81/81/81 75/75/75 
f 85/85/85 83/83/83 70/70/70 
f 70/70/70 83/83/83 72/72/72 
f 87/87/87 85/85/85 69/69/69 
f 69/69/69 85/85/85 70/70/70 
f 88/88/88 87/87/87 65/65/65 
f 65/65/65 87/87/87 69/69/69 
f 91/91/91 88/88/88 64/64/64 
f 64/64/64 88/88/88 65/65/65 
f 32/32/32 78/78/78 30/30/30 
f 30/30/30 78/78/78 80/80/80 
f 30/30/30 80/80/80 22/22/22 
f 22/22/22 80/80/80 82/82/82 
f 21/21/21 22/22/22 84/84/84 
f 84/84/84 22/22/22 82/82/82 
f 9/9/9 21/21/21 86/86/86 
f 86/86/86 21/21/21 84/84/84 
f 10/10/10 9/9/9 89/89/89 
f 89/89/89 9/9/9 86/86/86 
f 34/34/34 10/10/10 90/90/90 
f 90/90/90 10/10/10 89/89/89 
f 31/31/31 29/29/29 62/62/62 
f 62/62/62 29/29/29 61/61/61 
f 58/58/58 61/61/61 20/20/20 
f 20/20/20 61/61/61 29/29/29 
f 57/57/57 58/58/58 19/19/19 
f 19/19/19 58/58/58 20/20/20 
f 54/54/54 57/57/57 11/11/11 
f 11/11/11 57/57/57 19/19/19 
f 53/53/53 54/54/54 12/12/12 
f 12/12/12 54/54/54 11/11/11 
f 52/52/52 53/53/53 33/33/33 
f 33/33/33 53/53/53 12/12/12 
f 63/63/63 60/60/60 26/26/26 
f 26/26/26 60/60/60 27/27/27 
f 13/13/13 27/27/27 59/59/59 
f 59/59/59 27/27/27 60/60/60 
f 14/14/14 13/13/13 56/56/56 
f 56/56/56 13/13/13 59/59/59 
f 5/5/5 14/14/14 55/55/55 
f 55/55/55 14/14/14 56/56/56 
f 6/6/6 5/5/5 51/51/51 
f 51/51/51 5/5/5 55/55/55 
f 8/8/8 6/6/6 50/50/50 
f 50/50/50 6/6/6 51/51/51 
f 49/49/49 46/46/46 1/1/1 
f 1/1/1 46/46/46 2/2/2 
f 17/17/17 2/2/2 45/45/45 
f 45/45/45 2/2/2 46/46/46 
f 18/18/18 17/17/17 42/42/42 
f 42/42/42 17/17/17 45/45/45 
f 23/23/23 18/18/18 41/41/41 
f 41/41/41 18/18/18 42/42/42 
f 24/24/24 23/23/23 37/37/37 
f 37/37/37 23/23/23 41/41/41 
f 35/35/35 24/24/24 36/36/36 
f 36/36/36 24/24/24 37/37/37 
# 144 faces

