# 3ds Max Wavefront OBJ Exporter v0.97b - (c)2007 guruware
# File Created: 04.01.2016 12:54:15

mtllib Y651_181C_L.mtl

#
# object Y651_181C_L_DaS_Y651_181C_L
#

v  73.8992 86.7361 -84.7708
v  74.0004 86.7996 -84.6975
v  83.7830 79.7823 -87.2574
v  83.9005 79.8375 -87.1907
v  64.5944 93.2389 -82.3464
v  64.5100 93.1675 -82.4263
v  57.8496 97.5289 -80.8363
v  57.9200 97.6048 -80.7515
v  52.6829 100.6747 -79.5806
v  52.6219 100.5967 -79.6693
v  91.9272 73.8541 -89.2735
v  92.0570 73.9035 -89.2119
v  98.2884 68.4882 -91.1327
v  98.4329 68.5329 -91.0830
v  103.2363 63.3169 -93.0968
v  102.9913 63.2610 -93.1260
v  98.6312 68.5935 -91.0167
v  105.9082 58.8434 -94.9294
v  106.1996 58.9008 -94.9350
v  104.1337 63.4919 -92.8671
v  107.3684 59.0547 -94.7169
v  99.2906 68.7853 -90.7723
v  111.3858 64.3968 -90.1411
v  108.9106 64.2689 -91.3062
v  104.8171 69.8474 -88.2923
v  102.7986 69.6601 -89.3367
v  113.6472 59.6821 -93.0198
v  116.7234 59.7563 -91.7177
v  113.7729 64.3982 -88.8617
v  119.6091 59.7175 -90.2792
v  106.8547 69.9100 -87.1511
v  97.4860 75.4025 -86.3714
v  95.7128 75.1546 -87.4106
v  88.7816 81.5657 -84.1757
v  87.2024 81.2480 -85.2557
v  99.3111 75.5274 -85.2417
v  90.3990 81.7599 -83.0128
v  78.0932 88.8409 -81.5025
v  76.8166 88.4359 -82.6000
v  67.8750 95.5753 -78.9714
v  66.9088 95.0890 -80.0872
v  79.3748 89.1168 -80.3440
v  68.8128 95.9268 -77.8156
v  60.5812 100.1162 -77.2019
v  59.8325 99.5778 -78.3613
v  54.9518 103.2724 -75.8709
v  54.3312 102.7058 -77.0825
v  61.2871 100.5186 -76.0086
v  55.2798 104.0014 -74.5621
v  120.3613 56.6318 -92.8216
v  116.6068 56.6005 -94.1782
v  118.2871 54.6372 -94.9453
v  122.5676 54.6372 -93.5849
v  123.9063 56.5936 -91.3093
v  109.0521 56.2292 -95.8866
v  112.4332 56.4302 -95.2236
v  109.7393 54.6372 -96.5658
v  113.5541 54.6372 -95.9560
v  110.1899 59.3817 -94.0491
v  106.2592 63.8882 -92.2425
v  100.8180 69.2235 -90.1878
v  94.0435 74.6609 -88.2688
v  92.7817 74.1798 -88.8678
v  85.6996 80.6831 -86.1697
v  84.5568 80.1460 -86.8182
v  75.5500 87.7728 -83.5750
v  74.5657 87.1547 -84.2880
v  65.8859 94.3331 -81.1231
v  65.0655 93.6381 -81.9001
v  58.9979 98.7673 -79.4526
v  58.3133 98.0289 -80.2776
v  53.6172 101.8689 -78.2232
v  53.0238 101.1104 -79.0854
v  107.3595 56.0356 -96.0817
v  107.6747 56.1061 -96.0961
v  107.8298 54.6372 -96.6753
v  108.1866 54.6372 -96.7268
v  106.9447 55.9899 -95.9297
v  107.1648 55.9926 -96.0726
v  107.3976 54.6372 -96.4999
v  107.6171 54.6372 -96.6449
v  105.7192 58.8061 -94.9269
v  92.2306 73.9697 -89.1294
v  84.0578 79.9115 -87.1014
v  74.1359 86.8847 -84.5993
v  64.7073 93.3346 -82.2394
v  52.7646 100.7791 -79.4619
v  58.0143 97.7064 -80.6380
v  102.8231 63.2218 -93.1487
v  126.8905 54.6372 -91.8703
v  126.6654 54.6372 -91.9716
# 91 vertices

vn -0.1193 0.1823 -0.9760
vn 0.2055 0.5811 -0.7875
vn -0.1161 0.1810 -0.9766
vn 0.1960 0.5574 -0.8068
vn 0.2166 0.6029 -0.7678
vn -0.1170 0.1850 -0.9757
vn -0.0992 0.2085 -0.9730
vn 0.2197 0.6291 -0.7457
vn 0.2027 0.6617 -0.7218
vn 0.2034 0.6615 -0.7218
vn -0.1253 0.1877 -0.9742
vn 0.1903 0.5297 -0.8266
vn -0.1646 0.2076 -0.9643
vn 0.1485 0.4723 -0.8688
vn 0.1133 0.4503 -0.8856
vn 0.0264 0.3873 -0.9216
vn 0.1658 0.4922 -0.8545
vn -0.0815 0.3367 -0.9381
vn 0.0757 0.4263 -0.9014
vn 0.1543 0.4809 -0.8631
vn 0.1408 0.4630 -0.8751
vn 0.1754 0.5050 -0.8451
vn 0.3350 0.6299 -0.7007
vn 0.2629 0.5719 -0.7770
vn 0.3292 0.6510 -0.6840
vn 0.2674 0.5960 -0.7571
vn 0.2541 0.5530 -0.7935
vn 0.3237 0.6175 -0.7168
vn 0.3578 0.6474 -0.6729
vn 0.3374 0.6451 -0.6856
vn 0.3508 0.6623 -0.6621
vn 0.3270 0.6795 -0.6568
vn 0.2718 0.6248 -0.7319
vn 0.3298 0.7046 -0.6283
vn 0.2756 0.6497 -0.7085
vn 0.3450 0.6909 -0.6353
vn 0.3466 0.7178 -0.6039
vn 0.3364 0.7259 -0.6000
vn 0.2806 0.6692 -0.6881
vn 0.3436 0.7500 -0.5651
vn 0.2867 0.6907 -0.6639
vn 0.3540 0.7412 -0.5703
vn 0.3622 0.7669 -0.5298
vn 0.3422 0.7790 -0.5254
vn 0.2855 0.7210 -0.6314
vn 0.2976 0.8015 -0.5186
vn 0.2655 0.7549 -0.5997
vn 0.3628 0.7951 -0.4860
vn 0.2783 0.8098 -0.5164
vn 0.2916 0.6110 -0.7359
vn 0.2378 0.5367 -0.8095
vn 0.2392 0.5356 -0.8099
vn 0.2846 0.6128 -0.7372
vn 0.2972 0.6382 -0.7102
vn 0.1353 0.4465 -0.8845
vn 0.1758 0.4761 -0.8616
vn 0.1341 0.4401 -0.8879
vn 0.1757 0.4695 -0.8653
vn 0.1828 0.4939 -0.8501
vn 0.1914 0.5125 -0.8371
vn 0.2034 0.5350 -0.8200
vn 0.2123 0.5621 -0.7993
vn 0.1883 0.5339 -0.8243
vn 0.2175 0.5873 -0.7796
vn 0.1944 0.5601 -0.8053
vn 0.2248 0.6087 -0.7609
vn 0.2039 0.5833 -0.7862
vn 0.2332 0.6301 -0.7407
vn 0.2144 0.6053 -0.7666
vn 0.2341 0.6579 -0.7159
vn 0.2166 0.6319 -0.7442
vn 0.2166 0.6905 -0.6902
vn 0.2000 0.6638 -0.7207
vn -0.1171 0.3354 -0.9348
vn 0.0647 0.4147 -0.9076
vn -0.1325 0.3508 -0.9270
vn 0.0669 0.4157 -0.9071
vn -0.6608 0.0205 -0.7503
vn -0.3290 0.2360 -0.9144
vn -0.6419 0.1057 -0.7594
vn -0.3018 0.2845 -0.9099
vn -0.3111 0.1980 -0.9295
vn 0.1893 0.5319 -0.8254
vn 0.1952 0.5587 -0.8061
vn 0.2049 0.5820 -0.7869
vn 0.2158 0.6038 -0.7673
vn 0.2020 0.6625 -0.7213
vn 0.2188 0.6303 -0.7449
vn -0.2478 0.1961 -0.9488
vn 0.2839 0.6382 -0.7157
vn 0.0000 1.0000 -0.0006
# 91 vertex normals

vt 0.5409 0.7369 0.0000
vt 0.5411 0.7368 0.0000
vt 0.5576 0.7486 0.0000
vt 0.5578 0.7485 0.0000
vt 0.5253 0.7260 0.0000
vt 0.5251 0.7261 0.0000
vt 0.5139 0.7188 0.0000
vt 0.5141 0.7186 0.0000
vt 0.5053 0.7135 0.0000
vt 0.5052 0.7136 0.0000
vt 0.5713 0.7586 0.0000
vt 0.5715 0.7585 0.0000
vt 0.5820 0.7676 0.0000
vt 0.5822 0.7675 0.0000
vt 0.5903 0.7763 0.0000
vt 0.5899 0.7764 0.0000
vt 0.5825 0.7674 0.0000
vt 0.5948 0.7838 0.0000
vt 0.5953 0.7837 0.0000
vt 0.5918 0.7760 0.0000
vt 0.5972 0.7834 0.0000
vt 0.5837 0.7671 0.0000
vt 0.6037 0.7738 0.0000
vt 0.5996 0.7747 0.0000
vt 0.5929 0.7651 0.0000
vt 0.5895 0.7656 0.0000
vt 0.6070 0.7824 0.0000
vt 0.6119 0.7813 0.0000
vt 0.6077 0.7730 0.0000
vt 0.6171 0.7807 0.0000
vt 0.5965 0.7645 0.0000
vt 0.5808 0.7557 0.0000
vt 0.5777 0.7564 0.0000
vt 0.5665 0.7455 0.0000
vt 0.5637 0.7464 0.0000
vt 0.5841 0.7551 0.0000
vt 0.5695 0.7446 0.0000
vt 0.5483 0.7328 0.0000
vt 0.5458 0.7340 0.0000
vt 0.5312 0.7205 0.0000
vt 0.5293 0.7222 0.0000
vt 0.5508 0.7318 0.0000
vt 0.5331 0.7188 0.0000
vt 0.5187 0.7128 0.0000
vt 0.5173 0.7147 0.0000
vt 0.5097 0.7082 0.0000
vt 0.5086 0.7100 0.0000
vt 0.5201 0.7110 0.0000
vt 0.5103 0.7060 0.0000
vt 0.6156 0.7866 0.0000
vt 0.6108 0.7876 0.0000
vt 0.6124 0.7909 0.0000
vt 0.6167 0.7911 0.0000
vt 0.6202 0.7874 0.0000
vt 0.6001 0.7882 0.0000
vt 0.6053 0.7878 0.0000
vt 0.6012 0.7909 0.0000
vt 0.6072 0.7909 0.0000
vt 0.6020 0.7829 0.0000
vt 0.5954 0.7753 0.0000
vt 0.5862 0.7663 0.0000
vt 0.5748 0.7572 0.0000
vt 0.5727 0.7580 0.0000
vt 0.5609 0.7473 0.0000
vt 0.5589 0.7480 0.0000
vt 0.5437 0.7352 0.0000
vt 0.5421 0.7362 0.0000
vt 0.5275 0.7241 0.0000
vt 0.5261 0.7253 0.0000
vt 0.5159 0.7167 0.0000
vt 0.5147 0.7179 0.0000
vt 0.5072 0.7115 0.0000
vt 0.5058 0.7127 0.0000
vt 0.5972 0.7885 0.0000
vt 0.5978 0.7884 0.0000
vt 0.5980 0.7909 0.0000
vt 0.5986 0.7909 0.0000
vt 0.5965 0.7886 0.0000
vt 0.5969 0.7886 0.0000
vt 0.5973 0.7909 0.0000
vt 0.5977 0.7909 0.0000
vt 0.5945 0.7839 0.0000
vt 0.5718 0.7584 0.0000
vt 0.5580 0.7484 0.0000
vt 0.5413 0.7366 0.0000
vt 0.5255 0.7258 0.0000
vt 0.5054 0.7133 0.0000
vt 0.5142 0.7185 0.0000
vt 0.5896 0.7764 0.0000
vt 0.6212 0.7912 0.0000
vt 0.6209 0.7912 0.0000
# 91 texture coords

g Y651_181C_L_DaS_Y651_181C_L
usemtl paint_whiteSG
s 9
f 1/1/1 2/2/2 3/3/3 
f 3/3/3 2/2/2 4/4/4 
f 2/2/2 1/1/1 5/5/5 
f 5/5/5 1/1/1 6/6/6 
f 7/7/7 8/8/8 6/6/6 
f 6/6/6 8/8/8 5/5/5 
f 8/8/8 7/7/7 9/9/9 
f 9/9/9 7/7/7 10/10/10 
f 11/11/11 12/12/12 13/13/13 
f 13/13/13 12/12/12 14/14/14 
f 12/12/12 11/11/11 4/4/4 
f 4/4/4 11/11/11 3/3/3 
f 15/15/15 16/16/16 17/17/17 
f 17/17/17 16/16/16 14/14/14 
f 16/16/16 15/15/15 18/18/18 
f 18/18/18 15/15/15 19/19/19 
f 15/15/15 20/20/20 19/19/19 
f 19/19/19 20/20/20 21/21/21 
f 20/20/20 15/15/15 22/22/22 
f 22/22/22 15/15/15 17/17/17 
f 23/23/23 24/24/24 25/25/25 
f 25/25/25 24/24/24 26/26/26 
f 24/24/24 23/23/23 27/27/27 
f 27/27/27 23/23/23 28/28/28 
f 23/23/23 29/29/29 28/28/28 
f 28/28/28 29/29/29 30/30/30 
f 29/29/29 23/23/23 31/31/31 
f 31/31/31 23/23/23 25/25/25 
f 32/32/32 33/33/33 34/34/34 
f 34/34/34 33/33/33 35/35/35 
f 33/33/33 32/32/32 26/26/26 
f 26/26/26 32/32/32 25/25/25 
f 32/32/32 36/36/36 25/25/25 
f 25/25/25 36/36/36 31/31/31 
f 36/36/36 32/32/32 37/37/37 
f 37/37/37 32/32/32 34/34/34 
f 38/38/38 39/39/39 40/40/40 
f 40/40/40 39/39/39 41/41/41 
f 39/39/39 38/38/38 35/35/35 
f 35/35/35 38/38/38 34/34/34 
f 38/38/38 42/42/42 34/34/34 
f 34/34/34 42/42/42 37/37/37 
f 42/42/42 38/38/38 43/43/43 
f 43/43/43 38/38/38 40/40/40 
f 44/44/44 45/45/45 46/46/46 
f 46/46/46 45/45/45 47/47/47 
f 45/45/45 44/44/44 41/41/41 
f 41/41/41 44/44/44 40/40/40 
f 44/44/44 48/48/48 40/40/40 
f 40/40/40 48/48/48 43/43/43 
f 48/48/48 44/44/44 49/49/49 
f 49/49/49 44/44/44 46/46/46 
f 50/50/50 51/51/51 28/28/28 
f 28/28/28 51/51/51 27/27/27 
f 51/51/51 50/50/50 52/52/52 
f 52/52/52 50/50/50 53/53/53 
f 54/54/54 50/50/50 30/30/30 
f 30/30/30 50/50/50 28/28/28 
f 55/55/55 56/56/56 57/57/57 
f 57/57/57 56/56/56 58/58/58 
f 51/51/51 56/56/56 27/27/27 
f 27/27/27 56/56/56 59/59/59 
f 56/56/56 55/55/55 59/59/59 
f 59/59/59 55/55/55 21/21/21 
f 60/60/60 20/20/20 61/61/61 
f 61/61/61 20/20/20 22/22/22 
f 20/20/20 60/60/60 21/21/21 
f 21/21/21 60/60/60 59/59/59 
f 60/60/60 24/24/24 59/59/59 
f 59/59/59 24/24/24 27/27/27 
f 24/24/24 60/60/60 26/26/26 
f 26/26/26 60/60/60 61/61/61 
f 62/62/62 63/63/63 64/64/64 
f 64/64/64 63/63/63 65/65/65 
f 63/63/63 62/62/62 22/22/22 
f 22/22/22 62/62/62 61/61/61 
f 62/62/62 33/33/33 61/61/61 
f 61/61/61 33/33/33 26/26/26 
f 33/33/33 62/62/62 35/35/35 
f 35/35/35 62/62/62 64/64/64 
f 66/66/66 67/67/67 68/68/68 
f 68/68/68 67/67/67 69/69/69 
f 67/67/67 66/66/66 65/65/65 
f 65/65/65 66/66/66 64/64/64 
f 66/66/66 39/39/39 64/64/64 
f 64/64/64 39/39/39 35/35/35 
f 39/39/39 66/66/66 41/41/41 
f 41/41/41 66/66/66 68/68/68 
f 70/70/70 71/71/71 72/72/72 
f 72/72/72 71/71/71 73/73/73 
f 71/71/71 70/70/70 69/69/69 
f 69/69/69 70/70/70 68/68/68 
f 70/70/70 45/45/45 68/68/68 
f 68/68/68 45/45/45 41/41/41 
f 45/45/45 70/70/70 47/47/47 
f 47/47/47 70/70/70 72/72/72 
f 74/74/74 75/75/75 76/76/76 
f 76/76/76 75/75/75 77/77/77 
f 55/55/55 75/75/75 21/21/21 
f 21/21/21 75/75/75 19/19/19 
f 75/75/75 74/74/74 19/19/19 
f 19/19/19 74/74/74 18/18/18 
f 78/78/78 79/79/79 80/80/80 
f 80/80/80 79/79/79 81/81/81 
f 74/74/74 79/79/79 18/18/18 
f 18/18/18 79/79/79 82/82/82 
f 79/79/79 78/78/78 82/82/82 
f 83/83/83 12/12/12 84/84/84 
f 84/84/84 12/12/12 4/4/4 
f 12/12/12 83/83/83 14/14/14 
f 14/14/14 83/83/83 17/17/17 
f 83/83/83 63/63/63 17/17/17 
f 17/17/17 63/63/63 22/22/22 
f 63/63/63 83/83/83 65/65/65 
f 65/65/65 83/83/83 84/84/84 
f 85/85/85 2/2/2 86/86/86 
f 86/86/86 2/2/2 5/5/5 
f 2/2/2 85/85/85 4/4/4 
f 4/4/4 85/85/85 84/84/84 
f 85/85/85 67/67/67 84/84/84 
f 84/84/84 67/67/67 65/65/65 
f 67/67/67 85/85/85 69/69/69 
f 69/69/69 85/85/85 86/86/86 
f 87/87/87 88/88/88 9/9/9 
f 9/9/9 88/88/88 8/8/8 
f 8/8/8 88/88/88 5/5/5 
f 5/5/5 88/88/88 86/86/86 
f 88/88/88 71/71/71 86/86/86 
f 86/86/86 71/71/71 69/69/69 
f 71/71/71 88/88/88 73/73/73 
f 73/73/73 88/88/88 87/87/87 
f 16/16/16 89/89/89 14/14/14 
f 14/14/14 89/89/89 13/13/13 
f 89/89/89 16/16/16 82/82/82 
f 82/82/82 16/16/16 18/18/18 
f 50/50/50 54/54/54 53/53/53 
f 53/53/53 54/54/54 90/90/90 
f 56/56/56 51/51/51 58/58/58 
f 58/58/58 51/51/51 52/52/52 
f 75/75/75 55/55/55 77/77/77 
f 77/77/77 55/55/55 57/57/57 
f 79/79/79 74/74/74 81/81/81 
f 81/81/81 74/74/74 76/76/76 
s off
f 53/53/91 90/90/91 91/91/91 
# 144 faces

#
# object Y651_181C_L_DaS_Y651_181C_L_E
#

v  118.2871 54.6372 -94.9453
v  122.5676 54.6372 -93.5849
v  118.1555 54.3203 -94.4468
v  122.4037 54.2805 -93.1233
v  107.3976 54.6372 -96.4999
v  107.7821 54.5719 -96.0420
v  107.0217 54.6372 -96.1051
v  107.4698 54.6147 -95.6972
v  113.5541 54.6372 -95.9560
v  113.4556 54.3556 -95.4285
v  109.7393 54.6372 -96.5658
v  109.6680 54.3734 -96.0248
v  108.1866 54.6372 -96.7268
v  108.1987 54.4017 -96.1730
v  107.8298 54.6372 -96.6753
v  107.9106 54.4239 -96.1136
v  107.6171 54.6372 -96.6449
v  107.8223 54.4801 -96.1147
v  106.7194 54.6372 -95.7590
v  107.1764 54.6214 -95.3606
v  126.6654 54.6372 -91.9716
v  126.8905 54.6372 -91.8703
v  126.4791 54.2651 -91.5306
v  126.6935 54.2655 -91.4335
v  61.6854 99.9560 -75.1529
v  61.2871 100.5186 -76.0086
v  56.3889 103.4337 -73.7112
v  55.2798 104.0014 -74.5621
v  68.8128 95.9268 -77.8156
v  68.6743 95.3703 -76.9548
v  79.0479 88.5687 -79.4773
v  79.3748 89.1168 -80.3440
v  90.3990 81.7599 -83.0128
v  90.0577 81.2217 -82.1409
v  98.9548 74.9998 -84.3666
v  99.3111 75.5274 -85.2417
v  106.8547 69.9100 -87.1511
v  106.5446 69.3911 -86.2761
v  113.6327 63.8835 -87.9914
v  113.7729 64.3982 -88.8617
v  119.6091 59.7175 -90.2792
v  119.6436 59.2033 -89.4159
v  123.9063 56.5936 -91.3093
v  124.0018 56.0765 -90.4535
v  56.5401 103.5183 -71.9773
v  55.4290 104.0860 -72.8382
v  126.9186 54.1357 -91.1507
v  73.8992 86.7361 -84.7708
v  73.7422 86.6924 -84.6868
v  64.5100 93.1675 -82.4263
v  64.3707 93.1140 -82.3484
v  83.6083 79.7491 -87.1672
v  83.7830 79.7823 -87.2574
v  57.8496 97.5289 -80.8363
v  57.7240 97.4693 -80.7627
v  52.6219 100.5967 -79.6693
v  52.5061 100.5335 -79.5990
v  91.9272 73.8541 -89.2735
v  91.7387 73.8290 -89.1786
v  98.0878 68.4705 -91.0291
v  98.2884 68.4882 -91.1327
v  57.4642 97.4167 -80.4010
v  52.2601 100.4735 -79.2407
v  57.1372 97.3677 -79.8952
v  51.9490 100.4152 -78.7384
v  63.7455 93.0365 -81.4710
v  64.0928 93.0723 -81.9818
v  73.4394 86.6670 -84.3132
v  73.0636 86.6508 -83.7946
v  82.8738 79.7462 -86.2593
v  83.2796 79.7414 -86.7860
v  91.3889 73.8359 -88.7915
v  90.9583 73.8588 -88.2584
v  97.2711 68.5300 -90.0971
v  97.7210 68.4908 -90.6356
v  106.9447 55.9899 -95.9297
v  106.5535 56.0405 -95.5135
v  105.4976 58.8028 -94.7889
v  105.1088 58.8475 -94.3770
v  106.0766 56.1178 -94.9607
v  104.6364 58.9162 -93.8282
v  102.6097 63.2124 -93.0273
v  102.2295 63.2461 -92.6242
v  101.7658 63.3014 -92.0803
v  105.7192 58.8061 -94.9269
v  102.8231 63.2218 -93.1487
v  106.4277 55.0587 -95.4076
# 87 vertices

vn 0.1341 -0.8520 -0.5061
vn 0.1917 -0.8104 -0.5537
vn 0.1338 -0.8517 -0.5067
vn 0.1923 -0.8076 -0.5575
vn -0.0790 -0.9940 -0.0752
vn -0.0845 -0.9964 -0.0117
vn -0.0556 -0.9981 -0.0248
vn -0.0587 -0.9982 0.0146
vn 0.0818 -0.8842 -0.4598
vn 0.0805 -0.8863 -0.4561
vn 0.0473 -0.9020 -0.4290
vn 0.0451 -0.9003 -0.4329
vn -0.0079 -0.9203 -0.3910
vn -0.0381 -0.9249 -0.3782
vn -0.0863 -0.9427 -0.3222
vn -0.3172 -0.9009 -0.2964
vn -0.0947 -0.9639 -0.2489
vn -0.3930 -0.8862 -0.2454
vn -0.5195 -0.6506 -0.5539
vn -0.6364 -0.6303 0.4446
vn -0.0285 -0.9995 -0.0168
vn -0.0294 -0.9996 -0.0057
vn 0.2362 -0.7905 -0.5651
vn 0.9982 -0.0015 -0.0607
vn 0.2371 -0.7899 -0.5655
vn 0.2538 -0.7902 -0.5579
vn 0.5603 0.7839 0.2677
vn 0.5636 0.7918 0.2354
vn 0.4981 0.8663 -0.0373
vn 0.4901 0.8697 -0.0586
vn 0.5569 0.6588 0.5058
vn 0.5571 0.6537 0.5122
vn 0.5385 0.6072 0.5842
vn 0.5387 0.6053 0.5859
vn 0.5517 0.5957 0.5837
vn 0.5504 0.5968 0.5839
vn 0.5651 0.5843 0.5824
vn 0.5668 0.5837 0.5814
vn 0.5872 0.5903 0.5538
vn 0.5853 0.5886 0.5577
vn 0.6176 0.6298 0.4711
vn 0.6182 0.6289 0.4715
vn 0.6127 0.6873 0.3901
vn 0.6103 0.6919 0.3856
vn 0.5805 0.7231 0.3744
vn 0.5755 0.7235 0.3812
vn 0.5053 0.8587 -0.0859
vn 0.5053 0.8586 -0.0859
vn 0.5659 0.6866 0.4563
vn -0.3996 -0.2559 -0.8802
vn -0.5068 -0.4676 -0.7242
vn -0.3932 -0.2604 -0.8818
vn -0.4983 -0.4792 -0.7226
vn -0.5121 -0.4611 -0.7247
vn -0.4042 -0.2578 -0.8776
vn -0.3829 -0.2799 -0.8804
vn -0.4811 -0.5053 -0.7164
vn -0.3722 -0.3001 -0.8783
vn -0.3712 -0.2982 -0.8794
vn -0.4175 -0.2094 -0.8843
vn -0.5287 -0.4182 -0.7386
vn -0.5696 -0.2923 -0.7682
vn -0.4506 -0.0942 -0.8877
vn -0.5429 -0.7055 -0.4555
vn -0.5218 -0.7074 -0.4767
vn -0.5263 -0.7316 -0.4333
vn -0.5393 -0.7303 -0.4194
vn -0.5279 -0.7419 -0.4133
vn -0.5687 -0.6977 -0.4356
vn -0.5677 -0.6761 -0.4697
vn -0.5789 -0.6616 -0.4766
vn -0.5818 -0.6821 -0.4430
vn -0.5896 -0.6721 -0.4480
vn -0.5864 -0.6511 -0.4819
vn -0.6124 -0.6083 -0.5049
vn -0.6082 -0.6444 -0.4635
vn -0.6646 -0.5407 -0.5158
vn -0.6734 -0.4770 -0.5648
vn -0.7244 0.0047 -0.6894
vn -0.7443 -0.0389 -0.6667
vn -0.6336 -0.0553 -0.7717
vn -0.7413 -0.1718 -0.6488
vn -0.7603 -0.0852 -0.6440
vn -0.7534 -0.2140 -0.6218
vn -0.6109 -0.1530 -0.7768
vn -0.7229 -0.3036 -0.6207
vn -0.7281 -0.3585 -0.5842
vn -0.5287 0.0478 -0.8475
vn -0.4948 -0.0094 -0.8690
vn -0.7541 0.0258 -0.6562
vn -0.7339 0.0405 -0.6780
vn -0.7532 0.0259 -0.6573
# 92 vertex normals

vt 0.6124 0.7909 0.0000
vt 0.6167 0.7911 0.0000
vt 0.6124 0.7914 0.0000
vt 0.6164 0.7921 0.0000
vt 0.5973 0.7909 0.0000
vt 0.5979 0.7910 0.0000
vt 0.5967 0.7909 0.0000
vt 0.5974 0.7909 0.0000
vt 0.6072 0.7909 0.0000
vt 0.6075 0.7913 0.0000
vt 0.6012 0.7909 0.0000
vt 0.6011 0.7913 0.0000
vt 0.5986 0.7909 0.0000
vt 0.5986 0.7913 0.0000
vt 0.5980 0.7909 0.0000
vt 0.5982 0.7912 0.0000
vt 0.5977 0.7909 0.0000
vt 0.5980 0.7911 0.0000
vt 0.5962 0.7909 0.0000
vt 0.5969 0.7909 0.0000
vt 0.6209 0.7912 0.0000
vt 0.6212 0.7912 0.0000
vt 0.6207 0.7922 0.0000
vt 0.6210 0.7921 0.0000
vt 0.5215 0.7100 0.0000
vt 0.5201 0.7110 0.0000
vt 0.5124 0.7052 0.0000
vt 0.5103 0.7060 0.0000
vt 0.5331 0.7188 0.0000
vt 0.5341 0.7175 0.0000
vt 0.5517 0.7303 0.0000
vt 0.5508 0.7318 0.0000
vt 0.5695 0.7446 0.0000
vt 0.5703 0.7432 0.0000
vt 0.5849 0.7538 0.0000
vt 0.5841 0.7551 0.0000
vt 0.5965 0.7645 0.0000
vt 0.5974 0.7633 0.0000
vt 0.6088 0.7720 0.0000
vt 0.6077 0.7730 0.0000
vt 0.6171 0.7807 0.0000
vt 0.6187 0.7800 0.0000
vt 0.6202 0.7874 0.0000
vt 0.6215 0.7868 0.0000
vt 0.5129 0.7028 0.0000
vt 0.5110 0.7038 0.0000
vt 0.6220 0.7918 0.0000
vt 0.5409 0.7369 0.0000
vt 0.5407 0.7370 0.0000
vt 0.5251 0.7261 0.0000
vt 0.5249 0.7262 0.0000
vt 0.5573 0.7486 0.0000
vt 0.5576 0.7486 0.0000
vt 0.5139 0.7188 0.0000
vt 0.5137 0.7189 0.0000
vt 0.5052 0.7136 0.0000
vt 0.5050 0.7137 0.0000
vt 0.5713 0.7586 0.0000
vt 0.5710 0.7586 0.0000
vt 0.5816 0.7676 0.0000
vt 0.5820 0.7676 0.0000
vt 0.5133 0.7189 0.0000
vt 0.5045 0.7138 0.0000
vt 0.5127 0.7190 0.0000
vt 0.5040 0.7139 0.0000
vt 0.5239 0.7263 0.0000
vt 0.5244 0.7262 0.0000
vt 0.5402 0.7370 0.0000
vt 0.5395 0.7370 0.0000
vt 0.5560 0.7486 0.0000
vt 0.5567 0.7487 0.0000
vt 0.5704 0.7586 0.0000
vt 0.5696 0.7585 0.0000
vt 0.5803 0.7675 0.0000
vt 0.5810 0.7676 0.0000
vt 0.5965 0.7886 0.0000
vt 0.5959 0.7885 0.0000
vt 0.5941 0.7839 0.0000
vt 0.5934 0.7838 0.0000
vt 0.5951 0.7884 0.0000
vt 0.5927 0.7837 0.0000
vt 0.5892 0.7764 0.0000
vt 0.5886 0.7764 0.0000
vt 0.5878 0.7763 0.0000
vt 0.5945 0.7839 0.0000
vt 0.5896 0.7764 0.0000
vt 0.5957 0.7902 0.0000
# 87 texture coords

g Y651_181C_L_DaS_Y651_181C_L_E
usemtl paint_whiteSG
s 1
f 92/92/92 93/93/93 94/94/94 
f 93/93/93 95/95/95 94/94/94 
s 2
f 96/96/96 97/97/97 98/98/98 
f 97/97/97 99/99/99 98/98/98 
s 1
f 100/100/100 101/101/101 102/102/102 
f 101/101/101 103/103/103 102/102/102 
f 92/92/92 94/94/94 100/100/100 
f 94/94/94 101/101/101 100/100/100 
f 104/104/104 105/105/105 106/106/106 
f 105/105/105 107/107/107 106/106/106 
f 104/104/104 102/102/102 105/105/105 
f 102/102/102 103/103/103 105/105/105 
f 108/108/108 109/109/109 96/96/110 
s off
f 109/109/111 97/97/111 96/96/111 
s 1
f 108/108/108 106/106/106 109/109/109 
f 106/106/106 107/107/107 109/109/109 
s 2
f 98/98/98 99/99/99 110/110/112 
f 99/99/99 111/111/113 110/110/112 
s 1
f 112/112/114 113/113/115 114/114/116 
f 113/113/115 115/115/117 114/114/116 
f 93/93/93 112/112/114 95/95/95 
f 112/112/114 114/114/116 95/95/95 
s 7
f 116/116/118 117/117/119 118/118/120 
f 118/118/120 117/117/119 119/119/121 
f 117/117/119 116/116/118 120/120/122 
f 120/120/122 116/116/118 121/121/123 
f 121/121/123 122/122/124 120/120/122 
f 120/120/122 122/122/124 123/123/125 
f 124/124/126 123/123/125 125/125/127 
f 125/125/127 123/123/125 122/122/124 
f 125/125/127 126/126/128 124/124/126 
f 124/124/126 126/126/128 127/127/129 
f 128/128/130 127/127/129 129/129/131 
f 129/129/131 127/127/129 126/126/128 
f 129/129/131 130/130/132 128/128/130 
f 128/128/130 130/130/132 131/131/133 
f 131/131/133 130/130/132 132/132/134 
f 132/132/134 130/130/132 133/133/135 
f 132/132/134 133/133/135 134/134/136 
f 134/134/136 133/133/135 135/135/137 
s 8
f 136/136/138 118/118/139 137/137/139 
f 137/137/139 118/118/139 119/119/139 
s 7
f 138/138/140 113/113/115 135/135/137 
f 135/135/137 113/113/115 134/134/136 
s 9
f 139/139/141 140/140/142 141/141/143 
f 141/141/143 140/140/142 142/142/144 
f 140/140/142 139/139/141 143/143/145 
f 143/143/145 139/139/141 144/144/146 
f 145/145/147 146/146/148 147/147/149 
s off
f 147/147/150 146/146/150 148/148/150 
s 9
f 146/146/148 145/145/147 142/142/144 
f 142/142/144 145/145/147 141/141/143 
f 149/149/151 150/150/152 144/144/146 
f 144/144/146 150/150/152 143/143/145 
f 150/150/152 149/149/151 151/151/153 
f 151/151/153 149/149/151 152/152/154 
f 146/146/148 153/153/155 148/148/156 
f 148/148/156 153/153/155 154/154/157 
f 153/153/155 155/155/158 154/154/157 
f 154/154/157 155/155/158 156/156/159 
f 155/155/158 153/153/155 157/157/160 
f 157/157/160 153/153/155 158/158/161 
f 153/153/155 146/146/148 158/158/161 
f 158/158/161 146/146/148 142/142/144 
f 140/140/142 159/159/162 142/142/144 
f 142/142/144 159/159/162 158/158/161 
f 159/159/162 160/160/163 158/158/161 
f 158/158/161 160/160/163 157/157/160 
f 160/160/163 159/159/162 161/161/164 
f 161/161/164 159/159/162 162/162/165 
f 159/159/162 140/140/142 162/162/165 
f 162/162/165 140/140/142 143/143/145 
f 150/150/152 163/163/166 143/143/145 
f 143/143/145 163/163/166 162/162/165 
f 163/163/166 164/164/167 162/162/165 
f 162/162/165 164/164/167 161/161/164 
f 164/164/167 163/163/166 165/165/168 
f 165/165/168 163/163/166 166/166/169 
f 163/163/166 150/150/152 166/166/169 
f 166/166/169 150/150/152 151/151/153 
f 167/167/170 168/168/171 169/169/172 
f 169/169/172 168/168/171 170/170/173 
f 168/168/171 171/171/174 170/170/173 
f 170/170/173 171/171/174 172/172/175 
f 173/173/176 174/174/177 151/151/153 
f 151/151/153 174/174/177 166/166/169 
f 174/174/177 175/175/178 166/166/169 
f 166/166/169 175/175/178 165/165/168 
f 175/175/178 174/174/177 172/172/175 
f 172/172/175 174/174/177 170/170/173 
f 174/174/177 173/173/176 170/170/173 
f 170/170/173 173/173/176 169/169/172 
f 176/176/179 167/167/170 169/169/172 
f 177/177/180 173/173/176 152/152/154 
f 152/152/154 173/173/176 151/151/153 
f 173/173/176 177/177/180 169/169/172 
f 169/169/172 177/177/180 176/176/179 
f 171/171/174 168/168/171 178/178/181 
f 98/98/182 110/110/183 168/168/171 
f 168/168/171 110/110/183 178/178/181 
f 168/168/171 167/167/170 98/98/182 
f 98/98/182 167/167/170 96/96/110 
# 102 faces

