# 3ds Max Wavefront OBJ Exporter v0.97b - (c)2007 guruware
# File Created: 20.12.2015 15:10:18

mtllib Y175_18_541D_L.mtl

#
# object Y175_18_541D_L_2_N_Y175_18_541D_L
#

v  -229.7668 21.9308 -63.3615
v  -232.0647 7.3872 -63.6420
v  -230.1110 21.6186 -61.6211
v  -230.4102 21.0991 -60.4441
v  -230.6898 20.4513 -59.5179
v  -232.6940 6.7974 -60.4880
v  -231.9939 15.8134 -55.3296
v  -233.2682 6.2013 -57.3836
v  -232.7003 12.9058 -53.0462
v  -233.8366 5.6015 -54.2813
v  -231.2842 18.6162 -57.7923
v  -233.5243 9.7178 -50.9665
v  -234.5560 4.8137 -50.0823
v  -234.6173 4.8703 -49.4693
v  -234.6102 5.0495 -49.1078
v  -234.5531 5.3364 -48.9846
v  -234.4986 5.8243 -48.9152
v  -228.8324 22.0224 -67.6058
v  -231.3338 7.8880 -66.8997
v  -227.8441 22.0609 -71.0068
v  -229.3148 14.1889 -70.7041
v  -226.8548 22.0729 -73.8584
v  -227.5166 19.1576 -73.6033
v  -225.9736 22.1511 -75.3965
v  -232.5362 7.1373 -63.7847
v  -231.7605 7.6588 -67.1905
v  -229.6880 14.0839 -71.0836
v  -227.8470 19.0501 -74.0082
v  -226.1529 22.4757 -75.8752
v  -226.7525 22.4730 -74.8164
v  -227.2049 22.4710 -74.0177
v  -228.2114 22.4576 -71.1211
v  -229.2083 22.4161 -67.6959
v  -230.1522 22.3238 -63.4054
v  -230.5081 22.0215 -61.5872
v  -230.8250 21.4555 -60.3541
v  -231.1162 20.7696 -59.3787
v  -231.6889 18.8982 -57.5772
v  -232.4301 16.0918 -55.1286
v  -233.1372 13.1724 -52.8232
v  -233.9620 9.9659 -50.7278
v  -234.9469 5.9737 -48.6873
v  -235.0444 5.3184 -48.6462
v  -235.1126 4.8912 -48.9391
v  -235.1073 4.6849 -49.4400
v  -235.0481 4.5671 -50.1467
v  -234.3161 5.3620 -54.4118
v  -233.7440 5.9551 -57.5186
v  -233.1674 6.5475 -60.6254
v  -233.0433 6.6712 -61.2681
# 50 vertices

vn -0.9695 0.1578 -0.1875
vn -0.9701 0.1576 -0.1845
vn -0.9730 0.1566 -0.1695
vn -0.9743 0.1557 -0.1627
vn -0.9756 0.1547 -0.1558
vn -0.9780 0.1548 -0.1400
vn -0.9781 0.1568 -0.1368
vn -0.9780 0.1663 -0.1255
vn -0.9774 0.1697 -0.1263
vn -0.9778 0.1529 -0.1433
vn -0.9759 0.1771 -0.1274
vn -0.9761 0.1784 -0.1237
vn -0.9769 0.1839 -0.1086
vn -0.9608 0.1595 -0.2268
vn -0.9645 0.1590 -0.2110
vn -0.9482 0.1631 -0.2726
vn -0.9520 0.1609 -0.2603
vn -0.9259 0.1669 -0.3390
vn -0.9348 0.1689 -0.3124
vn -0.8608 0.1529 -0.4854
vn -0.4790 0.8767 0.0452
vn -0.6345 0.6685 0.3880
vn -0.6342 0.6693 0.3871
vn -0.6776 0.5336 0.5061
vn -0.6778 0.5336 0.5058
vn -0.6686 0.5601 0.4892
vn -0.6674 0.5611 0.4896
vn -0.8586 0.3338 0.3891
vn -0.6198 0.6006 0.5051
vn -0.5670 -0.7473 -0.3466
vn -0.5710 -0.7439 -0.3473
vn -0.6622 -0.7022 -0.2615
vn -0.6723 -0.6952 -0.2544
vn -0.6823 -0.6966 -0.2219
vn -0.6902 -0.6994 -0.1856
vn -0.6902 -0.6994 -0.1857
vn -0.6928 -0.6947 -0.1935
vn -0.6928 -0.6947 -0.1933
vn -0.6743 -0.6576 -0.3360
vn -0.6281 -0.5921 -0.5049
vn -0.6282 -0.5922 -0.5047
vn -0.6041 -0.4798 -0.6363
vn -0.6041 -0.4799 -0.6363
vn -0.6089 -0.4317 -0.6655
vn -0.6087 -0.4322 -0.6654
vn -0.6023 -0.4151 -0.6818
vn -0.6022 -0.4151 -0.6819
vn -0.5890 -0.3682 -0.7193
vn -0.5891 -0.3684 -0.7192
vn -0.5632 -0.3032 -0.7687
vn -0.5631 -0.3031 -0.7688
vn -0.5416 -0.2342 -0.8074
vn -0.5416 -0.2366 -0.8066
vn -0.4984 0.2724 -0.8231
vn -0.4984 0.2726 -0.8230
vn -0.4298 0.6964 -0.5747
vn -0.4275 0.7051 -0.5657
vn -0.3859 0.8882 -0.2493
vn -0.3858 0.8882 -0.2496
vn -0.4528 0.8898 0.0560
vn -0.4526 0.8900 0.0552
vn -0.4640 0.8818 0.0848
vn -0.4746 0.8765 0.0805
vn -0.4796 0.8740 0.0781
vn -0.4789 0.8747 0.0753
vn -0.4774 0.8760 0.0677
# 66 vertex normals

vt 0.7839 0.3195 0.0000
vt 0.7494 0.0941 0.0000
vt 0.8102 0.3103 0.0000
vt 0.8274 0.2993 0.0000
vt 0.8405 0.2869 0.0000
vt 0.7973 0.0770 0.0000
vt 0.8956 0.2048 0.0000
vt 0.8442 0.0602 0.0000
vt 0.9247 0.1543 0.0000
vt 0.8910 0.0435 0.0000
vt 0.8635 0.2541 0.0000
vt 0.9503 0.0998 0.0000
vt 0.9542 0.0216 0.0000
vt 0.9637 0.0212 0.0000
vt 0.9694 0.0232 0.0000
vt 0.9718 0.0274 0.0000
vt 0.9739 0.0347 0.0000
vt 0.7177 0.3321 0.0000
vt 0.6999 0.1106 0.0000
vt 0.6638 0.3423 0.0000
vt 0.6528 0.2187 0.0000
vt 0.6181 0.3513 0.0000
vt 0.6163 0.3047 0.0000
vt 0.5917 0.3583 0.0000
vt 0.7465 0.0859 0.0000
vt 0.6938 0.1045 0.0000
vt 0.6451 0.2153 0.0000
vt 0.6088 0.3014 0.0000
vt 0.5829 0.3611 0.0000
vt 0.5888 0.3669 0.0000
vt 0.6066 0.3624 0.0000
vt 0.6195 0.3596 0.0000
vt 0.6654 0.3506 0.0000
vt 0.7193 0.3405 0.0000
vt 0.7860 0.3278 0.0000
vt 0.8140 0.3183 0.0000
vt 0.8328 0.3062 0.0000
vt 0.8470 0.2924 0.0000
vt 0.8706 0.2585 0.0000
vt 0.9029 0.2093 0.0000
vt 0.9324 0.1583 0.0000
vt 0.9583 0.1031 0.0000
vt 0.9819 0.0361 0.0000
vt 0.9808 0.0238 0.0000
vt 0.9747 0.0160 0.0000
vt 0.9651 0.0128 0.0000
vt 0.9526 0.0132 0.0000
vt 0.8882 0.0354 0.0000
vt 0.8413 0.0522 0.0000
vt 0.7945 0.0689 0.0000
vt 0.7847 0.0723 0.0000
# 51 texture coords

g Y175_18_541D_L_2_N_Y175_18_541D_L
usemtl diffuse_lightSG
s 1
f 1/1/1 2/2/2 3/3/3 
f 3/3/3 2/2/2 4/4/3 
f 4/4/3 2/2/2 5/5/4 
f 5/5/4 2/2/2 6/6/5 
s 2
f 7/7/6 8/8/7 9/9/8 
f 9/9/8 8/8/7 10/10/9 
s 3
f 5/5/4 6/6/5 11/11/10 
f 11/11/10 6/6/5 7/7/6 
f 6/6/5 8/8/7 7/7/6 
s 4
f 9/9/8 10/10/9 12/12/11 
f 12/12/11 10/10/9 13/13/12 
s 5
f 13/13/12 14/14/13 12/12/11 
f 14/14/13 15/15/13 12/12/11 
f 15/15/13 16/16/13 12/12/11 
f 16/16/13 17/17/13 12/12/11 
s 6
f 18/18/14 19/19/15 1/1/1 
f 1/1/1 19/19/15 2/2/2 
s 7
f 20/20/16 21/21/17 18/18/14 
f 18/18/14 21/21/17 19/19/15 
s 8
f 22/22/18 23/23/19 20/20/16 
f 20/20/16 23/23/19 21/21/17 
s off
f 22/22/18 24/24/20 23/23/19 
s 9
f 2/2/21 19/19/22 25/25/21 
f 25/25/21 19/19/22 26/26/23 
s 10
f 26/26/23 19/19/22 27/27/24 
f 27/27/24 19/19/22 21/21/25 
s 11
f 27/27/24 21/21/25 28/28/26 
f 28/28/26 21/21/25 23/23/27 
s 12
f 23/23/27 24/24/28 28/28/26 
f 28/28/26 24/24/28 29/29/29 
s off
f 29/29/29 24/24/28 29/30/30 
s 13
f 29/30/30 24/24/28 30/31/31 
f 30/31/31 24/24/28 22/22/32 
s 14
f 31/32/33 22/22/32 32/33/34 
f 32/33/34 22/22/32 20/20/34 
s 15
f 20/20/34 18/18/35 32/33/34 
f 32/33/34 18/18/35 33/34/36 
s 16
f 18/18/35 1/1/37 33/34/36 
f 33/34/36 1/1/37 34/35/38 
s 17
f 1/1/37 3/3/39 34/35/38 
f 34/35/38 3/3/39 35/36/39 
s 18
f 35/36/39 3/3/39 36/37/40 
f 36/37/40 3/3/39 4/4/41 
s 19
f 4/4/41 5/5/42 36/37/40 
f 36/37/40 5/5/42 37/38/43 
s 20
f 37/38/43 5/5/42 38/39/44 
f 38/39/44 5/5/42 11/11/45 
s 21
f 39/40/46 38/39/44 7/7/47 
f 7/7/47 38/39/44 11/11/45 
s 22
f 39/40/46 7/7/47 40/41/48 
f 40/41/48 7/7/47 9/9/49 
s 23
f 9/9/49 12/12/50 40/41/48 
f 40/41/48 12/12/50 41/42/51 
s 24
f 12/12/50 17/17/52 41/42/51 
f 41/42/51 17/17/52 42/43/53 
s 25
f 42/43/53 17/17/52 43/44/54 
f 43/44/54 17/17/52 16/16/55 
s 26
f 16/16/55 15/15/56 43/44/54 
f 43/44/54 15/15/56 44/45/57 
s 27
f 44/45/57 15/15/56 45/46/58 
f 45/46/58 15/15/56 14/14/59 
s 28
f 14/14/59 13/13/60 45/46/58 
f 45/46/58 13/13/60 46/47/61 
s 29
f 46/47/61 13/13/60 47/48/62 
f 47/48/62 13/13/60 10/10/62 
s 30
f 47/48/62 10/10/62 48/49/63 
f 48/49/63 10/10/62 8/8/63 
s 31
f 48/49/63 8/8/63 49/50/64 
f 49/50/64 8/8/63 6/6/65 
s off
f 49/50/64 6/6/65 50/51/66 
s 32
f 6/6/65 2/2/21 50/51/66 
f 50/51/66 2/2/21 25/25/21 
s off
f 22/22/32 31/32/33 30/31/31 
# 73 faces

#
# object Y175_18_541D_L_Y175_18_541D_L_1_DTaSI
#

v  -231.4548 22.0741 -64.2972
v  -232.2961 16.9330 -64.4568
v  -231.7571 21.8186 -62.5766
v  -232.7560 16.7200 -61.3515
v  -232.0570 21.2898 -61.2664
v  -230.5528 22.1103 -68.2627
v  -229.5154 22.1246 -71.7528
v  -231.4721 17.2122 -68.5311
v  -230.2796 17.4631 -72.5294
v  -228.2473 22.1300 -75.1397
v  -232.3114 20.6937 -60.3806
v  -232.8519 18.8391 -58.4775
v  -233.1810 16.5251 -58.4642
v  -234.2037 11.7025 -55.6938
v  -235.2688 6.4897 -55.3657
v  -234.9480 10.2546 -52.0093
v  -235.9063 5.7605 -51.2125
v  -235.9341 5.8399 -50.7771
v  -235.9381 5.9394 -50.4492
v  -235.8986 6.1500 -50.2640
v  -235.8377 6.5430 -50.3310
v  -233.5551 16.0876 -55.9915
v  -233.8764 11.8949 -58.4417
v  -232.5362 7.1373 -63.7847
v  -233.4626 7.6219 -64.4982
v  -231.7605 7.6588 -67.1905
v  -232.9168 7.9413 -66.7501
v  -232.5127 7.8729 -67.2487
v  -233.9564 7.1764 -61.9672
v  -233.0433 6.6712 -61.2681
v  -234.0738 7.0581 -61.3235
v  -233.1674 6.5475 -60.6254
v  -234.6163 6.4936 -58.2181
v  -233.7440 5.9551 -57.5186
v  -235.1509 5.9314 -55.1213
v  -234.3161 5.3620 -54.4118
v  -235.8317 5.1965 -50.9282
v  -235.0481 4.5671 -50.1467
v  -235.8817 5.3195 -50.2843
v  -235.1073 4.6849 -49.4400
v  -235.8838 5.5052 -49.8658
v  -235.1126 4.8912 -48.9391
v  -235.8252 5.8260 -49.6338
v  -235.0444 5.3184 -48.6462
v  -235.7376 6.3674 -49.6267
v  -234.9469 5.9737 -48.6873
v  -234.7557 10.2830 -51.4684
v  -233.9620 9.9659 -50.7278
v  -233.9451 13.4502 -53.4834
v  -233.1372 13.1724 -52.8232
v  -233.2589 16.3434 -55.7645
v  -232.4301 16.0918 -55.1286
v  -232.5524 19.1182 -58.2304
v  -231.6889 18.8982 -57.5772
v  -232.0134 20.9533 -60.0504
v  -231.1162 20.7696 -59.3787
v  -231.7431 21.6082 -61.0188
v  -230.8250 21.4555 -60.3541
v  -231.4510 22.1433 -62.2412
v  -230.5081 22.0215 -61.5872
v  -231.1263 22.4216 -64.0618
v  -230.1522 22.3238 -63.4054
v  -230.1879 22.4768 -68.1510
v  -229.2083 22.4161 -67.6959
v  -229.1596 22.5015 -71.5967
v  -228.2114 22.4576 -71.1211
v  -228.1548 22.5086 -74.4188
v  -227.2049 22.4710 -74.0177
v  -227.7548 22.5107 -75.2026
v  -226.7525 22.4730 -74.8164
v  -233.0030 8.4912 -67.2305
v  -233.6262 8.1430 -64.7089
v  -234.1257 7.7027 -62.1150
v  -234.2299 7.5924 -61.5335
v  -234.7572 7.0411 -58.4376
v  -234.1709 13.3518 -54.0231
v  -231.8027 12.6566 -69.7206
v  -232.1608 12.5952 -68.6248
v  -232.9668 12.3155 -64.5839
v  -233.4216 12.0949 -61.4315
v  -229.8194 17.4461 -72.9730
v  -227.7601 21.9770 -75.5273
v  -228.9474 17.3498 -73.1964
v  -226.9702 21.6089 -75.6561
v  -231.8591 8.4866 -67.8676
v  -232.5596 8.5222 -67.6803
v  -227.2640 22.5296 -75.7073
v  -226.1529 22.4757 -75.8752
v  -231.3370 12.6490 -70.1790
v  -230.4705 12.5822 -70.4464
# 90 vertices

vn -0.9768 0.1594 -0.1433
vn -0.9728 0.1583 -0.1693
vn -0.9790 0.1486 -0.1393
vn -0.9418 0.1957 -0.2735
vn -0.9586 0.1682 -0.2299
vn -0.9297 0.2017 -0.3083
vn -0.9163 0.2073 -0.3427
vn -0.9789 0.1437 -0.1453
vn -0.9808 0.1435 -0.1319
vn -0.9779 0.1720 -0.1185
vn -0.9746 0.1894 -0.1192
vn -0.9766 0.1733 -0.1276
vn -0.9774 0.1908 -0.0911
vn -0.9828 0.1407 -0.1195
vn -0.9784 0.1637 -0.1264
vn -0.3157 -0.9232 -0.2191
vn -0.3108 -0.9285 -0.2034
vn -0.3000 -0.9084 -0.2912
vn -0.2569 -0.8133 -0.5220
vn -0.3188 -0.9197 -0.2293
vn -0.3226 -0.9179 -0.2309
vn -0.3308 -0.9141 -0.2343
vn -0.3502 -0.9074 -0.2325
vn -0.3523 -0.9066 -0.2324
vn -0.3742 -0.8973 -0.2341
vn -0.3853 -0.8924 -0.2350
vn -0.4209 -0.8771 -0.2314
vn -0.4336 -0.8713 -0.2300
vn -0.5077 -0.8485 -0.1494
vn -0.6750 -0.7338 0.0766
vn -0.7335 -0.6555 0.1798
vn -0.7645 -0.5952 0.2478
vn -0.8178 -0.3840 0.4286
vn -0.8177 -0.2313 0.5271
vn -0.7908 -0.0408 0.6107
vn -0.7370 0.1328 0.6627
vn -0.5806 0.4109 0.7029
vn -0.5302 0.4762 0.7015
vn -0.4950 0.5054 0.7068
vn -0.4135 0.5660 0.7132
vn -0.3902 0.5894 0.7073
vn -0.3459 0.6309 0.6945
vn -0.3369 0.6463 0.6847
vn -0.3216 0.6714 0.6677
vn -0.3187 0.6835 0.6567
vn -0.3120 0.7103 0.6310
vn -0.2927 0.7397 0.6059
vn -0.2210 0.8315 0.5097
vn -0.1856 0.8697 0.4574
vn -0.1327 0.9162 0.3780
vn -0.0720 0.9565 0.2826
vn 0.0048 0.9874 0.1585
vn 0.0388 0.9957 0.0847
vn 0.0628 0.9975 0.0317
vn 0.0552 0.9981 0.0280
vn 0.0434 0.9988 0.0225
vn 0.0401 0.9990 0.0198
vn 0.0355 0.9992 0.0160
vn 0.0344 0.9993 0.0168
vn 0.0311 0.9993 0.0192
vn 0.0352 0.9989 0.0308
vn -0.9695 0.1457 -0.1972
vn -0.9752 0.1696 -0.1424
vn -0.9748 0.1774 -0.1354
vn -0.9782 0.1571 -0.1358
vn -0.9494 0.1421 -0.2802
vn -0.9649 0.1421 -0.2207
vn -0.9745 0.1513 -0.1657
vn -0.9777 0.1592 -0.1371
vn -0.2904 -0.3701 -0.8825
vn -0.2875 -0.3872 -0.8760
vn -0.2713 -0.3244 -0.9062
vn -0.2645 -0.4607 -0.8472
vn -0.1728 -0.6025 -0.7792
vn -0.1065 0.6838 -0.7219
vn -0.0956 0.7361 -0.6701
vn -0.2831 -0.4119 -0.8661
vn -0.2810 -0.4212 -0.8623
# 78 vertex normals

vt 0.9142 0.8909 0.0000
vt 0.9146 0.8701 0.0000
vt 0.9208 0.8901 0.0000
vt 0.9275 0.8696 0.0000
vt 0.9263 0.8878 0.0000
vt 0.8983 0.8915 0.0000
vt 0.8839 0.8917 0.0000
vt 0.8978 0.8713 0.0000
vt 0.8812 0.8726 0.0000
vt 0.8703 0.8909 0.0000
vt 0.9309 0.8856 0.0000
vt 0.9389 0.8791 0.0000
vt 0.9396 0.8694 0.0000
vt 0.9528 0.8495 0.0000
vt 0.9558 0.8267 0.0000
vt 0.9690 0.8442 0.0000
vt 0.9728 0.8258 0.0000
vt 0.9749 0.8263 0.0000
vt 0.9762 0.8268 0.0000
vt 0.9769 0.8277 0.0000
vt 0.9765 0.8293 0.0000
vt 0.9501 0.8682 0.0000
vt 0.9409 0.8498 0.0000
vt 0.9158 0.8259 0.0000
vt 0.9145 0.8313 0.0000
vt 0.9011 0.8299 0.0000
vt 0.9056 0.8336 0.0000
vt 0.9031 0.8328 0.0000
vt 0.9256 0.8289 0.0000
vt 0.9275 0.8234 0.0000
vt 0.9288 0.8284 0.0000
vt 0.9306 0.8229 0.0000
vt 0.9429 0.8260 0.0000
vt 0.9451 0.8208 0.0000
vt 0.9570 0.8241 0.0000
vt 0.9594 0.8194 0.0000
vt 0.9743 0.8234 0.0000
vt 0.9785 0.8192 0.0000
vt 0.9770 0.8242 0.0000
vt 0.9819 0.8207 0.0000
vt 0.9787 0.8251 0.0000
vt 0.9842 0.8223 0.0000
vt 0.9796 0.8265 0.0000
vt 0.9855 0.8246 0.0000
vt 0.9795 0.8288 0.0000
vt 0.9853 0.8280 0.0000
vt 0.9714 0.8447 0.0000
vt 0.9761 0.8454 0.0000
vt 0.9619 0.8579 0.0000
vt 0.9664 0.8591 0.0000
vt 0.9512 0.8700 0.0000
vt 0.9555 0.8715 0.0000
vt 0.9400 0.8808 0.0000
vt 0.9442 0.8828 0.0000
vt 0.9321 0.8873 0.0000
vt 0.9360 0.8901 0.0000
vt 0.9273 0.8899 0.0000
vt 0.9310 0.8933 0.0000
vt 0.9220 0.8919 0.0000
vt 0.9250 0.8958 0.0000
vt 0.9148 0.8929 0.0000
vt 0.9171 0.8971 0.0000
vt 0.8984 0.8936 0.0000
vt 0.8993 0.8979 0.0000
vt 0.8840 0.8938 0.0000
vt 0.8845 0.8982 0.0000
vt 0.8723 0.8931 0.0000
vt 0.8717 0.8973 0.0000
vt 0.8690 0.8928 0.0000
vt 0.8677 0.8969 0.0000
vt 0.9040 0.8359 0.0000
vt 0.9140 0.8337 0.0000
vt 0.9250 0.8315 0.0000
vt 0.9280 0.8310 0.0000
vt 0.9420 0.8285 0.0000
vt 0.9595 0.8571 0.0000
vt 0.8930 0.8526 0.0000
vt 0.8978 0.8523 0.0000
vt 0.9148 0.8509 0.0000
vt 0.9280 0.8502 0.0000
vt 0.8779 0.8726 0.0000
vt 0.8678 0.8907 0.0000
vt 0.8744 0.8720 0.0000
vt 0.8644 0.8900 0.0000
vt 0.8985 0.8344 0.0000
vt 0.9013 0.8357 0.0000
vt 0.8665 0.8930 0.0000
vt 0.8626 0.8950 0.0000
vt 0.8898 0.8526 0.0000
vt 0.8861 0.8517 0.0000
# 90 texture coords

g Y175_18_541D_L_Y175_18_541D_L_1_DTaSI
usemtl lightglass_1SG
s 1
f 51/52/67 52/53/68 53/54/67 
f 52/53/68 54/55/69 53/54/67 
f 55/56/67 53/54/67 54/55/69 
f 56/57/70 57/58/70 58/59/71 
f 58/59/71 57/58/70 59/60/72 
f 52/53/68 51/52/67 58/59/71 
f 58/59/71 51/52/67 56/57/70 
f 59/60/72 57/58/70 60/61/73 
f 55/56/67 54/55/69 61/62/74 
f 61/62/74 54/55/69 62/63/74 
f 62/63/74 54/55/69 63/64/75 
f 64/65/76 65/66/77 66/67/78 
f 66/67/78 65/66/77 67/68/77 
f 67/68/77 68/69/79 66/67/78 
f 68/69/79 69/70/79 66/67/78 
f 69/70/79 70/71/79 66/67/78 
f 70/71/79 71/72/79 66/67/78 
f 64/65/76 72/73/80 73/74/81 
f 73/74/81 72/73/80 63/64/75 
f 74/75/82 75/76/83 76/77/84 
f 75/76/83 77/78/83 76/77/84 
f 77/78/83 78/79/85 76/77/84 
f 75/76/83 74/75/82 79/80/86 
f 79/80/86 74/75/82 80/81/87 
f 79/80/86 80/81/87 81/82/88 
f 81/82/88 80/81/87 82/83/89 
f 81/82/88 82/83/89 83/84/90 
f 83/84/90 82/83/89 84/85/91 
f 83/84/90 84/85/91 85/86/92 
f 85/86/92 84/85/91 86/87/93 
f 85/86/92 86/87/93 87/88/94 
f 87/88/94 86/87/93 88/89/95 
f 87/88/94 88/89/95 89/90/96 
f 89/90/96 88/89/95 90/91/97 
f 89/90/96 90/91/97 91/92/98 
f 91/92/98 90/91/97 92/93/99 
f 91/92/98 92/93/99 93/94/100 
f 93/94/100 92/93/99 94/95/101 
f 95/96/102 93/94/100 96/97/103 
f 96/97/103 93/94/100 94/95/101 
f 97/98/104 95/96/102 98/99/105 
f 98/99/105 95/96/102 96/97/103 
f 99/100/106 97/98/104 100/101/107 
f 100/101/107 97/98/104 98/99/105 
f 101/102/108 99/100/106 102/103/109 
f 102/103/109 99/100/106 100/101/107 
f 103/104/110 101/102/108 104/105/111 
f 104/105/111 101/102/108 102/103/109 
f 105/106/112 103/104/110 106/107/113 
f 106/107/113 103/104/110 104/105/111 
f 107/108/114 105/106/112 108/109/115 
f 108/109/115 105/106/112 106/107/113 
f 109/110/116 107/108/114 110/111/117 
f 110/111/117 107/108/114 108/109/115 
f 111/112/118 109/110/116 112/113/119 
f 112/113/119 109/110/116 110/111/117 
f 113/114/120 111/112/118 114/115/121 
f 114/115/121 111/112/118 112/113/119 
f 115/116/122 113/114/120 116/117/123 
f 116/117/123 113/114/120 114/115/121 
f 117/118/124 115/116/122 118/119/125 
f 118/119/125 115/116/122 116/117/123 
f 117/118/124 118/119/125 119/120/126 
f 119/120/126 118/119/125 120/121/127 
f 121/122/128 77/78/83 122/123/128 
f 122/123/128 77/78/83 75/76/83 
f 79/80/86 123/124/129 75/76/83 
f 75/76/83 123/124/129 122/123/128 
f 81/82/88 124/125/129 79/80/86 
f 79/80/86 124/125/129 123/124/129 
f 83/84/90 125/126/130 81/82/88 
f 81/82/88 125/126/130 124/125/129 
f 85/86/92 65/66/77 83/84/90 
f 83/84/90 65/66/77 125/126/130 
f 87/88/94 67/68/77 85/86/92 
f 85/86/92 67/68/77 65/66/77 
f 89/90/96 68/69/79 87/88/94 
f 87/88/94 68/69/79 67/68/77 
f 91/92/98 69/70/79 89/90/96 
f 89/90/96 69/70/79 68/69/79 
f 93/94/100 70/71/79 91/92/98 
f 91/92/98 70/71/79 69/70/79 
f 71/72/79 70/71/79 95/96/102 
f 95/96/102 70/71/79 93/94/100 
f 66/67/78 71/72/79 97/98/104 
f 97/98/104 71/72/79 95/96/102 
f 126/127/131 66/67/78 99/100/106 
f 99/100/106 66/67/78 97/98/104 
f 72/73/80 126/127/131 101/102/108 
f 101/102/108 126/127/131 99/100/106 
f 103/104/110 62/63/74 101/102/108 
f 101/102/108 62/63/74 72/73/80 
f 105/106/112 61/62/74 103/104/110 
f 103/104/110 61/62/74 62/63/74 
f 55/56/67 61/62/74 107/108/114 
f 107/108/114 61/62/74 105/106/112 
f 53/54/67 55/56/67 109/110/116 
f 109/110/116 55/56/67 107/108/114 
f 51/52/67 53/54/67 111/112/118 
f 111/112/118 53/54/67 109/110/116 
f 56/57/70 51/52/67 113/114/120 
f 113/114/120 51/52/67 111/112/118 
f 57/58/70 56/57/70 115/116/122 
f 115/116/122 56/57/70 113/114/120 
f 60/61/73 57/58/70 117/118/124 
f 117/118/124 57/58/70 115/116/122 
f 60/61/73 117/118/124 119/120/126 
f 59/60/72 127/128/132 58/59/71 
f 58/59/71 127/128/132 128/129/133 
f 58/59/71 128/129/133 52/53/68 
f 52/53/68 128/129/133 129/130/134 
f 52/53/68 129/130/134 54/55/69 
f 54/55/69 129/130/134 130/131/135 
f 54/55/69 130/131/135 63/64/75 
f 63/64/75 130/131/135 73/74/81 
f 121/122/128 128/129/133 127/128/132 
f 122/123/128 129/130/134 121/122/128 
f 121/122/128 129/130/134 128/129/133 
f 124/125/129 130/131/135 123/124/129 
f 129/130/134 122/123/128 130/131/135 
f 122/123/128 123/124/129 130/131/135 
f 130/131/135 124/125/129 73/74/81 
f 73/74/81 124/125/129 125/126/130 
f 73/74/81 125/126/130 64/65/76 
f 64/65/76 125/126/130 65/66/77 
f 66/67/78 126/127/131 64/65/76 
f 72/73/80 62/63/74 63/64/75 
f 126/127/131 72/73/80 64/65/76 
f 131/132/136 132/133/136 133/134/137 
f 133/134/137 132/133/136 134/135/138 
f 76/77/84 78/79/85 135/136/139 
f 135/136/139 78/79/85 136/137/140 
f 132/133/136 137/138/141 134/135/138 
f 134/135/138 137/138/141 138/139/142 
f 139/140/143 131/132/136 140/141/144 
f 140/141/144 131/132/136 133/134/137 
f 136/137/140 139/140/143 135/136/139 
f 135/136/139 139/140/143 140/141/144 
f 131/132/136 139/140/143 59/60/72 
f 59/60/72 139/140/143 127/128/132 
f 59/60/72 60/61/73 131/132/136 
f 131/132/136 60/61/73 132/133/136 
f 77/78/83 121/122/128 78/79/85 
f 78/79/85 121/122/128 136/137/140 
f 60/61/73 119/120/126 132/133/136 
f 132/133/136 119/120/126 137/138/141 
f 121/122/128 127/128/132 136/137/140 
f 136/137/140 127/128/132 139/140/143 
f 119/120/126 120/121/127 137/138/141 
f 137/138/141 120/121/127 138/139/142 
# 150 faces

