# 3ds Max Wavefront OBJ Exporter v0.97b - (c)2007 guruware
# File Created: 11.12.2015 17:57:40

mtllib SC30_40SG_R.mtl

#
# object SC30_40SG_R_1_DTaSI_SC30_40SG_R
#

v  -63.1698 88.8198 69.5673
v  -67.4385 88.5425 69.7721
v  -63.1143 86.5629 71.2340
v  -67.4385 86.3368 71.4010
v  -136.2639 73.0574 81.2078
v  -136.2480 74.2473 80.3291
v  -138.3553 72.9697 81.2726
v  -114.8201 79.6652 76.3279
v  -114.8216 81.8832 74.6900
v  -122.8459 79.4071 76.5186
v  -130.6960 76.7853 78.4548
v  -122.9039 73.6177 80.7940
v  -130.6846 73.2914 81.0350
v  -62.7217 70.6419 82.9916
v  -67.4385 70.5309 83.0736
v  -62.5855 65.1479 87.0490
v  -67.4385 65.1206 87.0691
v  -114.8133 69.4040 83.9058
v  -122.9481 69.2110 84.0484
v  -114.8102 64.8541 87.2659
v  -122.9922 64.8080 87.2999
v  -138.9521 69.3824 83.9217
v  -139.6439 71.9989 81.9895
v  -140.4124 70.3646 83.1964
v  -140.2505 69.4380 83.8807
v  -139.2338 67.6895 85.1720
v  -140.1346 71.2867 82.5155
v  -67.4385 60.1356 90.7505
v  -73.1686 60.1776 90.7195
v  -73.1686 65.0883 87.0929
v  -87.0981 60.2798 90.6440
v  -87.0981 65.0100 87.1508
v  -94.6440 60.3352 90.6031
v  -94.6440 64.9675 87.1822
v  -114.8073 60.4831 90.4939
v  -123.0349 60.5435 90.4493
v  -130.6436 60.5993 90.4081
v  -130.6571 64.7649 87.3318
v  -131.6116 61.1082 90.0323
v  -130.6709 69.0281 84.1834
v  -100.6417 74.5513 80.1045
v  -107.6942 74.2555 80.3230
v  -100.6417 69.7434 83.6552
v  -107.6936 69.5744 83.7800
v  -87.0981 75.1193 79.6851
v  -94.6440 74.8028 79.9188
v  -87.0981 70.0662 83.4168
v  -94.6440 69.8872 83.5490
v  -67.4385 75.9438 79.0762
v  -73.1686 75.7035 79.2537
v  -73.1686 70.3958 83.1734
v  -62.8579 76.1359 78.9343
v  -100.6417 84.3735 72.8509
v  -100.6417 84.8809 72.4762
v  -107.6954 83.5610 73.4509
v  -100.6417 64.9338 87.2071
v  -107.6929 64.8941 87.2364
v  -100.6417 60.3792 90.5706
v  -107.6922 60.4309 90.5324
v  -94.6440 84.7778 72.5523
v  -87.0981 85.2865 72.1766
v  -94.6440 85.8880 71.7324
v  -87.0981 86.7121 71.1238
v  -80.2601 60.2296 90.6810
v  -80.2601 65.0485 87.1224
v  -80.2601 85.6662 71.8963
v  -80.2601 87.4290 70.5944
v  -80.2601 70.2282 83.2972
v  -80.2601 75.4061 79.4733
v  -73.1686 86.0370 71.6224
v  -73.1686 88.1032 70.0965
v  -62.5453 60.0997 90.7770
v  -107.6951 79.8944 76.1587
v  -114.8163 73.9569 80.5435
v  -136.3750 64.7328 87.3555
v  -134.6483 63.3061 88.4091
v  -133.7219 64.7477 87.3445
v  -133.7754 62.5830 88.9431
v  -133.4538 75.6109 79.3221
v  -133.5140 73.1727 81.1226
v  -133.6132 69.1540 84.0904
v  -136.3144 69.2696 84.0051
v  -137.8849 66.0473 86.3847
v  -62.5184 56.7175 93.2748
v  -67.4385 56.8526 93.1750
v  -73.1686 57.0097 93.0590
v  -80.2601 57.2038 92.9156
v  -87.0981 57.3901 92.7780
v  -94.6440 57.5928 92.6283
v  -100.6417 57.7319 92.5257
v  -107.6919 57.8969 92.4039
v  -114.8057 58.0672 92.2781
v  -123.0544 58.5983 91.8858
v  -128.8995 59.8340 90.9732
v  -127.1260 59.1986 91.4425
v  -62.9857 81.3325 75.0967
v  -67.4385 81.1893 75.2024
v  -73.1686 81.0050 75.3385
v  -87.0981 80.5569 75.6694
v  -80.2601 80.7769 75.5070
v  -94.6440 80.3142 75.8486
v  -100.6417 80.1213 75.9911
# 102 vertices

vn -0.0000 0.5941 0.8044
vn 0.0000 0.5941 0.8044
vn 0.0000 0.5940 0.8044
# 3 vertex normals

vt 0.4937 0.1603 0.0000
vt 0.4791 0.1585 0.0000
vt 0.4943 0.1507 0.0000
vt 0.4795 0.1491 0.0000
vt 0.2460 0.0834 0.0000
vt 0.2459 0.0885 0.0000
vt 0.2389 0.0827 0.0000
vt 0.3184 0.1144 0.0000
vt 0.3180 0.1238 0.0000
vt 0.2909 0.1122 0.0000
vt 0.2645 0.1000 0.0000
vt 0.2917 0.0876 0.0000
vt 0.2651 0.0851 0.0000
vt 0.4983 0.0830 0.0000
vt 0.4821 0.0819 0.0000
vt 0.4997 0.0596 0.0000
vt 0.4830 0.0588 0.0000
vt 0.3201 0.0707 0.0000
vt 0.2923 0.0688 0.0000
vt 0.3209 0.0514 0.0000
vt 0.2928 0.0501 0.0000
vt 0.2374 0.0674 0.0000
vt 0.2346 0.0784 0.0000
vt 0.2323 0.0714 0.0000
vt 0.2330 0.0675 0.0000
vt 0.2367 0.0602 0.0000
vt 0.2331 0.0753 0.0000
vt 0.4839 0.0376 0.0000
vt 0.4642 0.0370 0.0000
vt 0.4634 0.0579 0.0000
vt 0.4165 0.0356 0.0000
vt 0.4157 0.0557 0.0000
vt 0.3907 0.0348 0.0000
vt 0.3899 0.0545 0.0000
vt 0.3216 0.0328 0.0000
vt 0.2934 0.0319 0.0000
vt 0.2673 0.0311 0.0000
vt 0.2666 0.0489 0.0000
vt 0.2639 0.0332 0.0000
vt 0.2658 0.0670 0.0000
vt 0.3678 0.0945 0.0000
vt 0.3437 0.0923 0.0000
vt 0.3686 0.0741 0.0000
vt 0.3444 0.0724 0.0000
vt 0.4141 0.0988 0.0000
vt 0.3883 0.0964 0.0000
vt 0.4149 0.0773 0.0000
vt 0.3891 0.0755 0.0000
vt 0.4812 0.1049 0.0000
vt 0.4617 0.1031 0.0000
vt 0.4625 0.0805 0.0000
vt 0.4969 0.1063 0.0000
vt 0.3661 0.1363 0.0000
vt 0.3660 0.1385 0.0000
vt 0.3421 0.1319 0.0000
vt 0.3694 0.0536 0.0000
vt 0.3452 0.0525 0.0000
vt 0.3701 0.0342 0.0000
vt 0.3460 0.0335 0.0000
vt 0.3866 0.1389 0.0000
vt 0.4124 0.1420 0.0000
vt 0.3864 0.1436 0.0000
vt 0.4121 0.1481 0.0000
vt 0.4399 0.0363 0.0000
vt 0.4391 0.0568 0.0000
vt 0.4357 0.1446 0.0000
vt 0.4354 0.1521 0.0000
vt 0.4383 0.0789 0.0000
vt 0.4374 0.1009 0.0000
vt 0.4599 0.1471 0.0000
vt 0.4596 0.1559 0.0000
vt 0.5006 0.0381 0.0000
vt 0.3427 0.1163 0.0000
vt 0.3193 0.0901 0.0000
vt 0.2470 0.0479 0.0000
vt 0.2532 0.0421 0.0000
vt 0.2561 0.0484 0.0000
vt 0.2563 0.0391 0.0000
vt 0.2552 0.0946 0.0000
vt 0.2554 0.0843 0.0000
vt 0.2557 0.0671 0.0000
vt 0.2465 0.0673 0.0000
vt 0.2416 0.0533 0.0000
vt 0.5013 0.0237 0.0000
vt 0.4844 0.0236 0.0000
vt 0.4648 0.0235 0.0000
vt 0.4405 0.0234 0.0000
vt 0.4170 0.0233 0.0000
vt 0.3911 0.0232 0.0000
vt 0.3706 0.0229 0.0000
vt 0.3464 0.0227 0.0000
vt 0.3220 0.0225 0.0000
vt 0.2937 0.0236 0.0000
vt 0.2734 0.0281 0.0000
vt 0.2796 0.0256 0.0000
vt 0.4956 0.1284 0.0000
vt 0.4804 0.1272 0.0000
vt 0.4608 0.1257 0.0000
vt 0.4131 0.1219 0.0000
vt 0.4365 0.1238 0.0000
vt 0.3873 0.1199 0.0000
vt 0.3668 0.1182 0.0000
# 102 texture coords

g SC30_40SG_R_1_DTaSI_SC30_40SG_R
usemtl windowglass_1SG
s 1
f 1/1/1 2/2/2 3/3/2 
f 3/3/2 2/2/2 4/4/2 
f 5/5/1 6/6/1 7/7/2 
f 8/8/2 9/9/2 10/10/1 
f 10/10/1 11/11/2 12/12/2 
f 12/12/2 11/11/2 13/13/2 
f 14/14/2 15/15/2 16/16/2 
f 16/16/2 15/15/2 17/17/2 
f 18/18/1 19/19/2 20/20/1 
f 20/20/1 19/19/2 21/21/2 
f 22/22/2 7/7/2 23/23/2 
f 23/23/2 24/24/2 22/22/2 
f 22/22/2 24/24/2 25/25/2 
f 26/26/2 22/22/2 25/25/2 
f 27/27/1 24/24/2 23/23/2 
f 28/28/2 17/17/2 29/29/2 
f 29/29/2 17/17/2 30/30/2 
f 31/31/2 32/32/2 33/33/2 
f 33/33/2 32/32/2 34/34/2 
f 20/20/1 21/21/2 35/35/2 
f 35/35/2 21/21/2 36/36/2 
f 37/37/1 36/36/2 38/38/1 
f 38/38/1 36/36/2 21/21/2 
f 39/39/2 37/37/1 38/38/1 
f 19/19/2 40/40/2 21/21/2 
f 21/21/2 40/40/2 38/38/1 
f 12/12/2 13/13/2 19/19/2 
f 19/19/2 13/13/2 40/40/2 
f 41/41/1 42/42/2 43/43/2 
f 43/43/2 42/42/2 44/44/2 
f 45/45/2 46/46/2 47/47/2 
f 47/47/2 46/46/2 48/48/1 
f 49/49/2 50/50/1 15/15/2 
f 15/15/2 50/50/1 51/51/2 
f 52/52/2 49/49/2 14/14/2 
f 14/14/2 49/49/2 15/15/2 
f 53/53/2 54/54/2 55/55/2 
f 43/43/2 44/44/2 56/56/1 
f 56/56/1 44/44/2 57/57/2 
f 58/58/1 56/56/1 59/59/1 
f 59/59/1 56/56/1 57/57/2 
f 60/60/2 61/61/1 62/62/1 
f 62/62/1 61/61/1 63/63/1 
f 34/34/2 32/32/2 48/48/1 
f 48/48/1 32/32/2 47/47/2 
f 64/64/2 65/65/1 31/31/2 
f 31/31/2 65/65/1 32/32/2 
f 61/61/1 66/66/2 63/63/1 
f 63/63/1 66/66/2 67/67/2 
f 32/32/2 65/65/1 47/47/2 
f 47/47/2 65/65/1 68/68/2 
f 47/47/2 68/68/2 45/45/2 
f 45/45/2 68/68/2 69/69/1 
f 70/70/1 4/4/2 71/71/1 
f 71/71/1 4/4/2 2/2/2 
f 30/30/2 17/17/2 51/51/2 
f 51/51/2 17/17/2 15/15/2 
f 72/72/2 16/16/2 28/28/2 
f 28/28/2 16/16/2 17/17/2 
f 55/55/2 9/9/2 73/73/2 
f 73/73/2 9/9/2 8/8/2 
f 42/42/2 74/74/2 44/44/2 
f 44/44/2 74/74/2 18/18/1 
f 44/44/2 18/18/1 57/57/2 
f 57/57/2 18/18/1 20/20/1 
f 20/20/1 35/35/2 57/57/2 
f 57/57/2 35/35/2 59/59/1 
f 74/74/2 12/12/2 18/18/1 
f 18/18/1 12/12/2 19/19/2 
f 75/75/1 76/76/2 77/77/2 
f 76/76/2 78/78/2 77/77/2 
f 11/11/2 79/79/2 13/13/2 
f 13/13/2 79/79/2 80/80/1 
f 13/13/2 80/80/1 40/40/2 
f 40/40/2 80/80/1 81/81/1 
f 38/38/1 40/40/2 77/77/2 
f 77/77/2 40/40/2 81/81/1 
f 39/39/2 38/38/1 78/78/2 
f 78/78/2 38/38/1 77/77/2 
f 79/79/2 6/6/1 80/80/1 
f 80/80/1 6/6/1 5/5/1 
f 80/80/1 5/5/1 81/81/1 
f 81/81/1 5/5/1 82/82/1 
f 77/77/2 81/81/1 75/75/1 
f 75/75/1 81/81/1 82/82/1 
f 22/22/2 82/82/1 7/7/2 
f 7/7/2 82/82/1 5/5/1 
f 75/75/1 82/82/1 83/83/1 
f 22/22/2 26/26/2 82/82/1 
f 82/82/1 26/26/2 83/83/1 
f 84/84/2 72/72/2 85/85/1 
f 85/85/1 72/72/2 28/28/2 
f 85/85/1 28/28/2 86/86/1 
f 86/86/1 28/28/2 29/29/2 
f 87/87/1 64/64/2 88/88/1 
f 88/88/1 64/64/2 31/31/2 
f 88/88/1 31/31/2 89/89/3 
f 89/89/3 31/31/2 33/33/2 
f 90/90/2 58/58/1 91/91/1 
f 91/91/1 58/58/1 59/59/1 
f 91/91/1 59/59/1 92/92/1 
f 92/92/1 59/59/1 35/35/2 
f 92/92/1 35/35/2 93/93/2 
f 93/93/2 35/35/2 36/36/2 
f 37/37/1 94/94/1 36/36/2 
f 93/93/2 36/36/2 95/95/1 
f 95/95/1 36/36/2 94/94/1 
f 96/96/2 97/97/2 52/52/2 
f 52/52/2 97/97/2 49/49/2 
f 50/50/1 49/49/2 98/98/1 
f 98/98/1 49/49/2 97/97/2 
f 45/45/2 69/69/1 99/99/1 
f 99/99/1 69/69/1 100/100/1 
f 46/46/2 45/45/2 101/101/2 
f 101/101/2 45/45/2 99/99/1 
f 102/102/2 73/73/2 41/41/1 
f 41/41/1 73/73/2 42/42/2 
f 73/73/2 8/8/2 42/42/2 
f 42/42/2 8/8/2 74/74/2 
f 8/8/2 10/10/1 74/74/2 
f 74/74/2 10/10/1 12/12/2 
f 97/97/2 96/96/2 4/4/2 
f 4/4/2 96/96/2 3/3/2 
f 98/98/1 97/97/2 70/70/1 
f 70/70/1 97/97/2 4/4/2 
f 99/99/1 100/100/1 61/61/1 
f 61/61/1 100/100/1 66/66/2 
f 101/101/2 99/99/1 60/60/2 
f 60/60/2 99/99/1 61/61/1 
f 53/53/2 55/55/2 102/102/2 
f 102/102/2 55/55/2 73/73/2 
f 66/66/2 70/70/1 67/67/2 
f 67/67/2 70/70/1 71/71/1 
f 100/100/1 98/98/1 66/66/2 
f 66/66/2 98/98/1 70/70/1 
f 69/69/1 50/50/1 100/100/1 
f 100/100/1 50/50/1 98/98/1 
f 68/68/2 51/51/2 69/69/1 
f 69/69/1 51/51/2 50/50/1 
f 65/65/1 30/30/2 68/68/2 
f 68/68/2 30/30/2 51/51/2 
f 29/29/2 30/30/2 64/64/2 
f 64/64/2 30/30/2 65/65/1 
f 86/86/1 29/29/2 87/87/1 
f 87/87/1 29/29/2 64/64/2 
f 62/62/1 54/54/2 60/60/2 
f 60/60/2 54/54/2 53/53/2 
f 60/60/2 53/53/2 101/101/2 
f 101/101/2 53/53/2 102/102/2 
f 101/101/2 102/102/2 46/46/2 
f 46/46/2 102/102/2 41/41/1 
f 46/46/2 41/41/1 48/48/1 
f 48/48/1 41/41/1 43/43/2 
f 48/48/1 43/43/2 34/34/2 
f 34/34/2 43/43/2 56/56/1 
f 33/33/2 34/34/2 58/58/1 
f 58/58/1 34/34/2 56/56/1 
f 89/89/3 33/33/2 90/90/2 
f 90/90/2 33/33/2 58/58/1 
# 159 faces

#
# object SC30_40SG_R_SC30_40SG_R_2_DTaSI
#

v  -59.5938 53.8332 95.3206
v  -62.5184 56.7175 93.2748
v  -67.4385 54.0690 95.1461
v  -67.4385 56.8526 93.1750
v  -60.1670 91.7041 67.5230
v  -63.1698 88.8198 69.5673
v  -60.0539 86.7584 71.1529
v  -63.1143 86.5629 71.2340
v  -67.4385 91.1962 67.8957
v  -75.6750 90.4312 68.4571
v  -67.4385 88.5425 69.7721
v  -73.1686 88.1032 70.0965
v  -85.6456 89.3126 69.2782
v  -95.1827 88.1906 70.1018
v  -87.0981 86.7121 71.1238
v  -94.6440 85.8880 71.7324
v  -116.8313 83.5209 73.5291
v  -114.8216 81.8832 74.6900
v  -105.6901 86.3133 71.4796
v  -107.6954 83.5610 73.4509
v  -124.5588 81.0050 75.3758
v  -129.9076 78.9908 76.8541
v  -122.8459 79.4071 76.5186
v  -130.6960 76.7853 78.4548
v  -133.4538 75.6109 79.3221
v  -134.2461 77.5070 77.9432
v  -136.2480 74.2473 80.3291
v  -138.2337 75.6810 79.2834
v  -140.3370 74.5130 80.1407
v  -138.3553 72.9697 81.2726
v  -142.6488 73.0058 81.2470
v  -139.6439 71.9989 81.9895
v  -144.0625 71.8606 82.0875
v  -140.1346 71.2867 82.5155
v  -144.6008 71.0204 82.7042
v  -140.4124 70.3646 83.1964
v  -144.9055 69.9326 83.5026
v  -140.2505 69.4380 83.8807
v  -144.7279 68.8395 84.3049
v  -143.6125 66.7768 85.8189
v  -139.2338 67.6895 85.1720
v  -131.6116 61.1082 90.0323
v  -133.7754 62.5830 88.9431
v  -135.2506 59.0128 91.5174
v  -136.8780 60.0879 90.7284
v  -134.1887 58.4126 91.9580
v  -130.6436 60.5993 90.4081
v  -132.2753 57.5098 92.6206
v  -128.8995 59.8340 90.9732
v  -130.3298 56.7602 93.1708
v  -127.1260 59.1986 91.4425
v  -127.3639 56.2294 93.5604
v  -123.0832 55.7235 93.9317
v  -123.0544 58.5983 91.8858
v  -59.5260 63.7785 88.0196
v  -59.6754 70.2597 83.2625
v  -62.5855 65.1479 87.0490
v  -62.7217 70.6419 82.9916
v  -62.5453 60.0997 90.7770
v  -59.4986 60.0773 90.7361
v  -138.5820 61.6057 89.6143
v  -134.6483 63.3061 88.4091
v  -140.4763 63.2888 88.3790
v  -136.3750 64.7328 87.3555
v  -142.1328 64.8396 87.2408
v  -137.8849 66.0473 86.3847
v  -59.8248 76.7410 78.5055
v  -62.8579 76.1359 78.9343
v  -100.6417 84.8809 72.4762
v  -95.1827 54.8804 94.5506
v  -94.6440 57.5928 92.6283
v  -105.6901 55.1402 94.3599
v  -100.6417 57.7318 92.5257
v  -107.6919 57.8969 92.4039
v  -87.0981 57.3901 92.7780
v  -85.6456 54.6049 94.7527
v  -80.2601 87.4290 70.5945
v  -75.6750 54.3117 94.9680
v  -73.1686 57.0097 93.0590
v  -80.2600 57.2038 92.9156
v  -114.9684 55.3696 94.1915
v  -114.8057 58.0672 92.2781
v  -59.9321 81.4306 75.0634
v  -62.9857 81.3325 75.0967
# 84 vertices

vn 0.0077 0.5837 0.8119
vn 0.0085 0.5847 0.8112
vn -0.0007 0.5779 0.8161
vn -0.0006 0.5779 0.8161
vn -0.0072 0.5832 0.8123
vn -0.0070 0.5835 0.8121
vn -0.0172 0.5916 0.8060
vn -0.0153 0.5925 0.8054
vn 0.0018 0.5773 0.8165
vn 0.0023 0.5775 0.8164
vn 0.0019 0.5773 0.8165
vn 0.0022 0.5773 0.8165
vn 0.0025 0.5778 0.8162
vn 0.0032 0.5784 0.8158
vn 0.0025 0.5779 0.8161
vn 0.0032 0.5785 0.8157
vn 0.0046 0.5823 0.8130
vn 0.0044 0.5817 0.8134
vn 0.0041 0.5801 0.8145
vn 0.0048 0.5800 0.8146
vn 0.0039 0.5845 0.8114
vn 0.0037 0.5863 0.8101
vn 0.0040 0.5844 0.8115
vn 0.0033 0.5869 0.8096
vn 0.0035 0.5891 0.8081
vn 0.0027 0.5888 0.8083
vn 0.0019 0.5905 0.8071
vn 0.0011 0.5908 0.8068
vn 0.0000 0.5920 0.8059
vn 0.0014 0.5920 0.8060
vn -0.0009 0.5926 0.8055
vn 0.0002 0.5929 0.8053
vn -0.0015 0.5927 0.8054
vn -0.0006 0.5938 0.8046
vn -0.0020 0.5922 0.8058
vn -0.0017 0.5937 0.8047
vn -0.0023 0.5919 0.8060
vn -0.0033 0.5923 0.8057
vn -0.0026 0.5910 0.8066
vn -0.0033 0.5907 0.8069
vn -0.0047 0.5914 0.8064
vn -0.0072 0.5864 0.8100
vn -0.0072 0.5872 0.8094
vn -0.0062 0.5862 0.8102
vn -0.0058 0.5869 0.8096
vn -0.0057 0.5846 0.8113
vn -0.0064 0.5847 0.8112
vn -0.0055 0.5838 0.8119
vn -0.0060 0.5838 0.8119
vn -0.0043 0.5823 0.8130
vn -0.0037 0.5814 0.8136
vn -0.0027 0.5806 0.8142
vn -0.0016 0.5796 0.8149
vn -0.0018 0.5800 0.8146
vn 0.0107 0.5928 0.8052
vn 0.0030 0.5934 0.8049
vn 0.0088 0.5928 0.8053
vn 0.0030 0.5941 0.8044
vn 0.0141 0.5934 0.8048
vn 0.0164 0.5922 0.8056
vn -0.0057 0.5878 0.8090
vn -0.0068 0.5882 0.8087
vn -0.0050 0.5885 0.8085
vn -0.0061 0.5888 0.8082
vn -0.0043 0.5896 0.8077
vn -0.0055 0.5900 0.8074
vn -0.0051 0.5925 0.8055
vn -0.0035 0.5928 0.8053
vn 0.0037 0.5799 0.8147
vn -0.0006 0.5783 0.8158
vn -0.0005 0.5784 0.8158
vn -0.0006 0.5784 0.8158
vn -0.0005 0.5784 0.8157
vn -0.0006 0.5782 0.8159
vn -0.0006 0.5781 0.8159
vn 0.0025 0.5775 0.8164
vn -0.0006 0.5780 0.8161
vn -0.0007 0.5780 0.8160
vn -0.0007 0.5782 0.8159
vn -0.0007 0.5786 0.8156
vn -0.0008 0.5788 0.8155
vn -0.0112 0.5924 0.8056
vn -0.0094 0.5931 0.8051
# 83 vertex normals

vt 0.5123 0.0120 0.0000
vt 0.5013 0.0237 0.0000
vt 0.4849 0.0120 0.0000
vt 0.4844 0.0236 0.0000
vt 0.5035 0.1728 0.0000
vt 0.4937 0.1603 0.0000
vt 0.5047 0.1518 0.0000
vt 0.4943 0.1507 0.0000
vt 0.4787 0.1697 0.0000
vt 0.4506 0.1653 0.0000
vt 0.4791 0.1585 0.0000
vt 0.4596 0.1559 0.0000
vt 0.4167 0.1592 0.0000
vt 0.3842 0.1532 0.0000
vt 0.4121 0.1481 0.0000
vt 0.3864 0.1436 0.0000
vt 0.3108 0.1304 0.0000
vt 0.3180 0.1238 0.0000
vt 0.3485 0.1438 0.0000
vt 0.3421 0.1319 0.0000
vt 0.2848 0.1187 0.0000
vt 0.2668 0.1095 0.0000
vt 0.2909 0.1122 0.0000
vt 0.2645 0.1000 0.0000
vt 0.2552 0.0946 0.0000
vt 0.2522 0.1026 0.0000
vt 0.2459 0.0885 0.0000
vt 0.2388 0.0943 0.0000
vt 0.2318 0.0890 0.0000
vt 0.2389 0.0827 0.0000
vt 0.2242 0.0823 0.0000
vt 0.2346 0.0784 0.0000
vt 0.2195 0.0773 0.0000
vt 0.2331 0.0753 0.0000
vt 0.2178 0.0736 0.0000
vt 0.2323 0.0714 0.0000
vt 0.2169 0.0690 0.0000
vt 0.2330 0.0675 0.0000
vt 0.2177 0.0643 0.0000
vt 0.2219 0.0557 0.0000
vt 0.2367 0.0602 0.0000
vt 0.2639 0.0332 0.0000
vt 0.2563 0.0391 0.0000
vt 0.2518 0.0239 0.0000
vt 0.2461 0.0282 0.0000
vt 0.2556 0.0215 0.0000
vt 0.2673 0.0311 0.0000
vt 0.2623 0.0179 0.0000
vt 0.2734 0.0281 0.0000
vt 0.2690 0.0150 0.0000
vt 0.2796 0.0256 0.0000
vt 0.2793 0.0131 0.0000
vt 0.2940 0.0115 0.0000
vt 0.2937 0.0236 0.0000
vt 0.5104 0.0543 0.0000
vt 0.5088 0.0818 0.0000
vt 0.4997 0.0596 0.0000
vt 0.4983 0.0830 0.0000
vt 0.5006 0.0381 0.0000
vt 0.5111 0.0386 0.0000
vt 0.2400 0.0344 0.0000
vt 0.2532 0.0421 0.0000
vt 0.2332 0.0413 0.0000
vt 0.2470 0.0479 0.0000
vt 0.2273 0.0477 0.0000
vt 0.2416 0.0533 0.0000
vt 0.5072 0.1093 0.0000
vt 0.4969 0.1063 0.0000
vt 0.3660 0.1385 0.0000
vt 0.3897 0.0117 0.0000
vt 0.3911 0.0232 0.0000
vt 0.3537 0.0114 0.0000
vt 0.3706 0.0229 0.0000
vt 0.3464 0.0227 0.0000
vt 0.4170 0.0233 0.0000
vt 0.4224 0.0118 0.0000
vt 0.4354 0.1521 0.0000
vt 0.4566 0.0119 0.0000
vt 0.4648 0.0235 0.0000
vt 0.4405 0.0234 0.0000
vt 0.3219 0.0111 0.0000
vt 0.3220 0.0225 0.0000
vt 0.5060 0.1292 0.0000
vt 0.4956 0.1284 0.0000
# 84 texture coords

g SC30_40SG_R_SC30_40SG_R_2_DTaSI
usemtl windowglass_blackSG
s 1
f 103/103/4 104/104/5 105/105/6 
f 104/104/5 106/106/7 105/105/6 
f 107/107/8 108/108/9 109/109/10 
f 108/108/9 110/110/11 109/109/10 
f 111/111/12 112/112/13 113/113/14 
f 112/112/13 114/114/15 113/113/14 
f 115/115/16 116/116/17 117/117/18 
f 116/116/17 118/118/19 117/117/18 
f 119/119/20 120/120/21 121/121/22 
f 120/120/21 122/122/23 121/121/22 
f 123/123/24 124/124/25 125/125/26 
f 124/124/25 126/126/27 125/125/26 
f 127/127/28 128/128/29 129/129/30 
f 128/128/29 130/130/31 129/129/30 
f 131/131/32 132/132/33 130/130/31 
f 132/132/33 129/129/30 130/130/31 
f 133/133/34 134/134/35 131/131/32 
f 134/134/35 132/132/33 131/131/32 
f 135/135/36 136/136/37 133/133/34 
f 136/136/37 134/134/35 133/133/34 
f 137/137/38 138/138/39 135/135/36 
f 138/138/39 136/136/37 135/135/36 
f 137/137/38 139/139/40 138/138/39 
f 139/139/40 140/140/41 138/138/39 
f 141/141/42 140/140/41 139/139/40 
f 141/141/42 142/142/43 140/140/41 
f 142/142/43 143/143/44 140/140/41 
f 144/144/45 145/145/46 146/146/47 
f 145/145/46 147/147/48 146/146/47 
f 146/146/47 148/148/49 144/144/45 
f 148/148/49 149/149/50 144/144/45 
f 148/148/49 150/150/51 149/149/50 
f 150/150/51 151/151/52 149/149/50 
f 150/150/51 152/152/53 151/151/52 
f 152/152/53 153/153/54 151/151/52 
f 152/152/53 154/154/55 153/153/54 
f 155/155/56 156/156/57 154/154/55 
f 156/156/57 153/153/54 154/154/55 
f 157/157/58 158/158/59 159/159/60 
f 158/158/59 160/160/61 159/159/60 
f 159/159/60 161/161/62 157/157/58 
f 161/161/62 162/162/63 157/157/58 
f 163/163/64 147/147/48 164/164/65 
f 147/147/48 145/145/46 164/164/65 
f 165/165/66 163/163/64 166/166/67 
f 163/163/64 164/164/65 166/166/67 
f 167/167/68 165/165/66 168/168/69 
f 165/165/66 166/166/67 168/168/69 
f 142/142/43 167/167/68 143/143/44 
f 167/167/68 168/168/69 143/143/44 
f 169/169/70 170/170/71 158/158/59 
f 170/170/71 160/160/61 158/158/59 
f 171/171/72 118/118/19 121/121/22 
f 118/118/19 116/116/17 121/121/22 
f 172/172/73 173/173/73 174/174/74 
f 175/175/75 176/176/76 174/174/74 
f 173/173/73 172/172/73 177/177/77 
f 172/172/73 178/178/78 177/177/77 
f 179/179/79 114/114/15 115/115/16 
f 114/114/15 112/112/13 115/115/16 
f 180/180/80 181/181/81 178/178/78 
f 182/182/82 177/177/77 178/178/78 
f 181/181/81 180/180/80 106/106/7 
f 180/180/80 105/105/6 106/106/7 
f 113/113/14 108/108/9 111/111/12 
f 108/108/9 107/107/8 111/111/12 
f 174/174/74 176/176/76 183/183/83 
f 176/176/76 184/184/84 183/183/83 
f 120/120/21 119/119/20 125/125/26 
f 119/119/20 123/123/24 125/125/26 
f 183/183/83 184/184/84 155/155/56 
f 184/184/84 156/156/57 155/155/56 
f 124/124/25 128/128/29 126/126/27 
f 128/128/29 127/127/28 126/126/27 
f 161/161/62 104/104/5 162/162/63 
f 104/104/5 103/103/4 162/162/63 
f 185/185/85 186/186/86 169/169/70 
f 186/186/86 170/170/71 169/169/70 
f 186/186/86 185/185/85 110/110/11 
f 185/185/85 109/109/10 110/110/11 
f 122/122/23 171/171/72 121/121/22 
f 181/181/81 182/182/82 178/178/78 
f 173/173/73 175/175/75 174/174/74 
f 117/117/18 179/179/79 115/115/16 
# 84 faces

