# 3ds Max Wavefront OBJ Exporter v0.97b - (c)2007 guruware
# File Created: 23.11.2015 11:23:54

mtllib H812_18A5_R.mtl

#
# object H812_18A5_R_1_DaS_H812_18A5_R
#

v  27.7639 110.3415 82.4333
v  20.2695 113.1129 81.7101
v  26.1497 109.6157 83.9815
v  18.8692 112.3417 83.2511
v  23.8628 108.0849 85.1626
v  16.4974 110.9882 84.3757
v  25.9702 111.4044 80.9138
v  20.6693 113.3120 80.5802
v  26.0181 111.4497 80.7062
v  28.5630 110.4835 81.0361
v  12.4210 115.6477 79.9816
v  3.1178 117.6408 79.3864
v  12.0680 115.4230 81.0666
v  2.7825 117.3851 80.4504
v  10.8317 114.4755 82.6380
v  1.6039 116.2462 82.0583
v  8.7647 112.7875 83.8475
v  -0.3563 114.1949 83.3635
v  -9.3295 117.9136 81.4202
v  -11.2167 115.6031 82.7946
v  -8.1821 119.1929 79.7882
v  -20.7160 120.7444 79.1000
v  -21.8318 119.3680 80.7508
v  -23.6464 116.8867 82.1768
v  -20.3167 121.1158 77.8087
v  -7.8371 119.4871 78.6863
v  -51.6981 123.3321 75.6040
v  -50.0545 122.6689 77.7252
v  -34.2467 122.4149 76.8291
v  -34.7101 121.9371 78.4056
v  -35.7669 120.4989 80.0771
v  -50.9979 121.1964 79.4261
v  -37.4748 117.9209 81.5466
v  -52.5318 118.5804 80.9403
v  -3.0781 113.0795 83.8354
v  -13.6623 114.5783 83.2007
v  -25.8387 115.6870 82.6413
v  -39.5639 116.2897 82.1883
v  -54.5242 116.2786 81.8857
v  -84.1357 121.0867 78.2746
v  -100.4358 120.5325 77.7776
v  -85.0669 118.5137 79.9034
v  -101.0388 118.0142 79.4634
v  -83.6263 122.5750 76.4722
v  -100.1733 122.0125 75.9137
v  -67.3886 121.3502 78.8247
v  -68.6469 118.7402 80.3941
v  -66.6400 122.8377 77.0784
v  -83.3656 123.3473 74.0858
v  -66.1946 123.5857 74.7440
v  -83.3429 123.3990 73.6738
v  -100.1093 122.8059 73.4648
v  -100.1072 122.9296 72.5370
v  -70.3243 115.6978 81.7256
v  -86.9014 114.5564 81.7176
v  -102.1244 114.1059 81.3781
v  5.9461 111.2605 84.5450
v  13.9119 109.1207 85.2670
v  -102.0471 113.0952 81.8061
v  21.6024 106.5020 85.8991
# 60 vertices

vn 0.2860 0.8121 0.5087
vn 0.2363 0.8480 0.4744
vn 0.1772 0.6287 0.7572
vn 0.1492 0.6610 0.7354
vn 0.0845 0.4398 0.8941
vn 0.0665 0.4578 0.8866
vn 0.3109 0.9112 0.2704
vn 0.2764 0.9250 0.2608
vn 0.3109 0.9112 0.2703
vn 0.3529 0.8890 0.2918
vn 0.2162 0.9400 0.2640
vn 0.1626 0.9468 0.2777
vn 0.1755 0.8613 0.4768
vn 0.1246 0.8529 0.5069
vn 0.1008 0.6696 0.7359
vn 0.0633 0.6466 0.7602
vn 0.0376 0.4685 0.8827
vn 0.0203 0.4675 0.8838
vn 0.0395 0.6274 0.7777
vn 0.0088 0.4637 0.8860
vn 0.0894 0.8448 0.5276
vn 0.0598 0.8473 0.5278
vn 0.0200 0.6184 0.7856
vn -0.0019 0.4606 0.8876
vn 0.0855 0.9503 0.2993
vn 0.1222 0.9489 0.2908
vn 0.0072 0.9559 0.2936
vn 0.0095 0.8779 0.4787
vn 0.0498 0.9522 0.3014
vn 0.0320 0.8562 0.5157
vn 0.0028 0.6184 0.7859
vn -0.0140 0.6264 0.7794
vn -0.0119 0.4592 0.8882
vn -0.0216 0.4621 0.8866
vn 0.0020 0.3845 0.9231
vn -0.0060 0.3801 0.9249
vn -0.0126 0.3809 0.9245
vn -0.0186 0.3872 0.9218
vn -0.0247 0.3994 0.9165
vn -0.0395 0.6540 0.7554
vn -0.0487 0.6695 0.7412
vn -0.0358 0.4789 0.8771
vn -0.0415 0.4968 0.8669
vn -0.0373 0.8829 0.4680
vn -0.0508 0.8853 0.4622
vn -0.0285 0.6390 0.7687
vn -0.0295 0.4705 0.8819
vn -0.0199 0.8777 0.4787
vn -0.0326 0.9598 0.2789
vn -0.0131 0.9530 0.3026
vn -0.0277 0.9920 0.1235
vn -0.0472 0.9619 0.2693
vn -0.0405 0.9904 0.1319
vn -0.0298 0.4161 0.9088
vn -0.0348 0.4312 0.9016
vn -0.0381 0.4373 0.8985
vn 0.0138 0.3924 0.9197
vn 0.0356 0.3873 0.9213
vn -0.0351 0.3883 0.9209
vn 0.0486 0.3653 0.9296
# 60 vertex normals

vt 0.5360 0.3108 0.0000
vt 0.5232 0.3164 0.0000
vt 0.5327 0.3085 0.0000
vt 0.5205 0.3138 0.0000
vt 0.5274 0.3062 0.0000
vt 0.5164 0.3110 0.0000
vt 0.5333 0.3147 0.0000
vt 0.5243 0.3182 0.0000
vt 0.5337 0.3148 0.0000
vt 0.5377 0.3126 0.0000
vt 0.5101 0.3226 0.0000
vt 0.4941 0.3260 0.0000
vt 0.5093 0.3208 0.0000
vt 0.4934 0.3242 0.0000
vt 0.5070 0.3178 0.0000
vt 0.4913 0.3210 0.0000
vt 0.5034 0.3144 0.0000
vt 0.4879 0.3169 0.0000
vt 0.4727 0.3239 0.0000
vt 0.4695 0.3193 0.0000
vt 0.4747 0.3274 0.0000
vt 0.4533 0.3301 0.0000
vt 0.4514 0.3265 0.0000
vt 0.4484 0.3216 0.0000
vt 0.4541 0.3324 0.0000
vt 0.4754 0.3293 0.0000
vt 0.4006 0.3372 0.0000
vt 0.4034 0.3335 0.0000
vt 0.4303 0.3351 0.0000
vt 0.4295 0.3323 0.0000
vt 0.4278 0.3285 0.0000
vt 0.4019 0.3297 0.0000
vt 0.4250 0.3235 0.0000
vt 0.3994 0.3245 0.0000
vt 0.4833 0.3148 0.0000
vt 0.4653 0.3174 0.0000
vt 0.4447 0.3194 0.0000
vt 0.4214 0.3205 0.0000
vt 0.3961 0.3202 0.0000
vt 0.3457 0.3293 0.0000
vt 0.3184 0.3287 0.0000
vt 0.3443 0.3241 0.0000
vt 0.3174 0.3236 0.0000
vt 0.3465 0.3332 0.0000
vt 0.3187 0.3327 0.0000
vt 0.3741 0.3298 0.0000
vt 0.3721 0.3246 0.0000
vt 0.3752 0.3338 0.0000
vt 0.3467 0.3375 0.0000
vt 0.3758 0.3379 0.0000
vt 0.3467 0.3382 0.0000
vt 0.3187 0.3370 0.0000
vt 0.3186 0.3385 0.0000
vt 0.3693 0.3190 0.0000
vt 0.3412 0.3168 0.0000
vt 0.3156 0.3163 0.0000
vt 0.4986 0.3116 0.0000
vt 0.5120 0.3077 0.0000
vt 0.3157 0.3145 0.0000
vt 0.5247 0.3028 0.0000
# 60 texture coords

g H812_18A5_R_1_DaS_H812_18A5_R
usemtl paint_whiteSG
s 7
f 1/1/1 2/2/2 3/3/3 
f 3/3/3 2/2/2 4/4/4 
f 3/3/3 4/4/4 5/5/5 
f 5/5/5 4/4/4 6/6/6 
f 1/1/1 7/7/7 2/2/2 
f 7/7/7 8/8/8 2/2/2 
f 9/9/9 7/7/7 10/10/10 
f 10/10/10 7/7/7 1/1/1 
f 11/11/11 12/12/12 13/13/13 
f 13/13/13 12/12/12 14/14/14 
f 8/8/8 11/11/11 2/2/2 
f 2/2/2 11/11/11 13/13/13 
f 15/15/15 16/16/16 17/17/17 
f 17/17/17 16/16/16 18/18/18 
f 4/4/4 15/15/15 6/6/6 
f 15/15/15 17/17/17 6/6/6 
f 2/2/2 13/13/13 4/4/4 
f 15/15/15 4/4/4 13/13/13 
f 13/13/13 14/14/14 15/15/15 
f 15/15/15 14/14/14 16/16/16 
f 16/16/16 19/19/19 18/18/18 
f 19/19/19 20/20/20 18/18/18 
f 14/14/14 21/21/21 16/16/16 
f 19/19/19 16/16/16 21/21/21 
f 21/21/21 22/22/22 19/19/19 
f 19/19/19 22/22/22 23/23/23 
f 19/19/19 23/23/23 20/20/20 
f 20/20/20 23/23/23 24/24/24 
f 22/22/22 21/21/21 25/25/25 
f 21/21/21 26/26/26 25/25/25 
f 21/21/21 14/14/14 26/26/26 
f 14/14/14 12/12/12 26/26/26 
f 27/27/27 28/28/28 29/29/29 
f 30/30/30 29/29/29 28/28/28 
f 30/30/30 22/22/22 29/29/29 
f 22/22/22 25/25/25 29/29/29 
f 31/31/31 32/32/32 33/33/33 
f 33/33/33 32/32/32 34/34/34 
f 23/23/23 31/31/31 24/24/24 
f 31/31/31 33/33/33 24/24/24 
f 22/22/22 30/30/30 23/23/23 
f 31/31/31 23/23/23 30/30/30 
f 30/30/30 28/28/28 31/31/31 
f 31/31/31 28/28/28 32/32/32 
f 18/18/18 20/20/20 35/35/35 
f 35/35/35 20/20/20 36/36/36 
f 20/20/20 24/24/24 36/36/36 
f 36/36/36 24/24/24 37/37/37 
f 33/33/33 34/34/34 38/38/38 
f 38/38/38 34/34/34 39/39/39 
f 24/24/24 33/33/33 37/37/37 
f 37/37/37 33/33/33 38/38/38 
f 40/40/40 41/41/41 42/42/42 
f 41/41/41 43/43/43 42/42/42 
f 44/44/44 45/45/45 40/40/40 
f 41/41/41 40/40/40 45/45/45 
f 32/32/32 46/46/46 34/34/34 
f 46/46/46 47/47/47 34/34/34 
f 28/28/28 48/48/48 32/32/32 
f 46/46/46 32/32/32 48/48/48 
f 48/48/48 44/44/44 46/46/46 
f 46/46/46 44/44/44 40/40/40 
f 46/46/46 40/40/40 47/47/47 
f 47/47/47 40/40/40 42/42/42 
f 49/49/49 50/50/50 51/51/51 
f 50/50/50 49/49/49 48/48/48 
f 48/48/48 49/49/49 44/44/44 
f 28/28/28 27/27/27 48/48/48 
f 48/48/48 27/27/27 50/50/50 
f 49/49/49 52/52/52 44/44/44 
f 52/52/52 45/45/45 44/44/44 
f 53/53/53 52/52/52 51/51/51 
f 51/51/51 52/52/52 49/49/49 
f 34/34/34 47/47/47 39/39/39 
f 39/39/39 47/47/47 54/54/54 
f 42/42/42 43/43/43 55/55/55 
f 56/56/56 55/55/55 43/43/43 
f 35/35/35 57/57/57 18/18/18 
f 57/57/57 17/17/17 18/18/18 
f 57/57/57 58/58/58 17/17/17 
f 17/17/17 58/58/58 6/6/6 
f 47/47/47 42/42/42 54/54/54 
f 54/54/54 42/42/42 55/55/55 
f 59/59/59 55/55/55 56/56/56 
f 58/58/58 60/60/60 6/6/6 
f 5/5/5 6/6/6 60/60/60 
# 86 faces

#
# object H812_18A5_R_1_DaS_H812_18A5_R_E
#

v  13.5756 108.6535 84.7533
v  13.9119 109.1207 85.2670
v  5.9461 111.2605 84.5450
v  5.6765 110.7753 84.0373
v  -70.3243 115.6978 81.7256
v  -86.9014 114.5564 81.7176
v  -86.7242 114.0279 81.2361
v  -70.2591 115.1841 81.2314
v  -54.5242 116.2786 81.8857
v  -54.5010 115.7634 81.3912
v  -39.5900 115.7744 81.6930
v  -39.5639 116.2897 82.1883
v  -25.9205 115.1741 82.1444
v  -25.8387 115.6870 82.6413
v  -13.8020 114.0708 82.7014
v  -13.6623 114.5783 83.2007
v  -3.2804 112.5808 83.3326
v  -3.0781 113.0795 83.8354
v  21.2128 106.0529 85.3795
v  21.6024 106.5020 85.8991
v  -102.0471 113.0952 81.8061
v  -101.9149 112.5869 81.3115
v  -83.3429 123.3990 73.6738
v  -83.3429 122.9946 73.6738
v  -100.1072 122.9296 72.5370
v  -100.1072 122.5251 72.5370
v  -66.1946 123.5857 74.7440
v  -66.1946 123.1813 74.7440
v  -51.6981 123.3321 75.6040
v  -51.6981 122.9277 75.6040
v  -34.2467 122.4149 76.8291
v  -34.2467 122.0104 76.8291
v  -20.3167 121.1158 77.8087
v  -20.3167 120.7113 77.8087
v  -7.8371 119.4871 78.6863
v  3.1178 117.6408 79.3864
v  -7.8371 119.0826 78.6863
v  3.1178 117.2363 79.3864
v  12.4210 115.6477 79.9816
v  12.4210 115.2432 79.9816
v  20.6693 113.3120 80.5802
v  20.6693 112.9076 80.5802
v  25.9702 111.4044 80.9138
v  25.9702 110.9977 80.9138
v  26.0181 111.4497 80.7062
v  26.0181 111.0406 80.7062
# 46 vertices

vn -0.2510 -0.6286 0.7361
vn -0.2574 -0.6250 0.7370
vn -0.2177 -0.6453 0.7322
vn -0.2099 -0.6489 0.7314
vn 0.0338 -0.6903 0.7227
vn 0.0571 -0.6622 0.7471
vn 0.0547 -0.6627 0.7469
vn 0.0329 -0.6907 0.7224
vn 0.0021 -0.6924 0.7215
vn 0.0019 -0.6924 0.7215
vn -0.0336 -0.6918 0.7213
vn -0.0346 -0.6917 0.7213
vn -0.0736 -0.6879 0.7220
vn -0.0761 -0.6876 0.7221
vn -0.1153 -0.6803 0.7238
vn -0.1194 -0.6794 0.7240
vn -0.1613 -0.6676 0.7269
vn -0.1679 -0.6654 0.7274
vn -0.2711 -0.6182 0.7378
vn -0.2712 -0.6182 0.7377
vn 0.0704 -0.6862 0.7240
vn 0.0703 -0.6855 0.7247
vn 0.0649 0.0000 -0.9979
vn 0.0650 0.0000 -0.9979
vn 0.0677 0.0000 -0.9977
vn 0.0608 0.0000 -0.9982
vn 0.0645 0.0000 -0.9979
vn 0.0647 0.0000 -0.9979
vn 0.0701 0.0000 -0.9975
vn 0.0673 0.0000 -0.9977
vn 0.0638 0.0000 -0.9980
vn 0.0667 0.0000 -0.9978
vn 0.0674 0.0000 -0.9977
vn 0.0688 0.0000 -0.9976
vn 0.0686 0.0000 -0.9976
vn -0.5724 0.0000 -0.8200
vn -0.6352 0.0000 -0.7723
vn -0.9743 0.0000 -0.2250
# 38 vertex normals

vt 0.5112 0.3066 0.0000
vt 0.5120 0.3077 0.0000
vt 0.4986 0.3116 0.0000
vt 0.4980 0.3105 0.0000
vt 0.3693 0.3190 0.0000
vt 0.3412 0.3168 0.0000
vt 0.3416 0.3156 0.0000
vt 0.3695 0.3178 0.0000
vt 0.3961 0.3202 0.0000
vt 0.3961 0.3190 0.0000
vt 0.4214 0.3193 0.0000
vt 0.4214 0.3205 0.0000
vt 0.4445 0.3182 0.0000
vt 0.4447 0.3194 0.0000
vt 0.4650 0.3163 0.0000
vt 0.4653 0.3174 0.0000
vt 0.4829 0.3136 0.0000
vt 0.4833 0.3148 0.0000
vt 0.5238 0.3018 0.0000
vt 0.5247 0.3028 0.0000
vt 0.3157 0.3145 0.0000
vt 0.3160 0.3133 0.0000
vt 0.3467 0.3382 0.0000
vt 0.3467 0.3389 0.0000
vt 0.3186 0.3385 0.0000
vt 0.3186 0.3392 0.0000
vt 0.3758 0.3379 0.0000
vt 0.3758 0.3386 0.0000
vt 0.4006 0.3372 0.0000
vt 0.4006 0.3379 0.0000
vt 0.4303 0.3351 0.0000
vt 0.4304 0.3357 0.0000
vt 0.4541 0.3324 0.0000
vt 0.4543 0.3331 0.0000
vt 0.4754 0.3293 0.0000
vt 0.4941 0.3260 0.0000
vt 0.4756 0.3299 0.0000
vt 0.4944 0.3267 0.0000
vt 0.5101 0.3226 0.0000
vt 0.5105 0.3232 0.0000
vt 0.5243 0.3182 0.0000
vt 0.5247 0.3187 0.0000
vt 0.5333 0.3147 0.0000
vt 0.5334 0.3153 0.0000
vt 0.5337 0.3148 0.0000
vt 0.5337 0.3154 0.0000
# 46 texture coords

g H812_18A5_R_1_DaS_H812_18A5_R_E
usemtl paint_whiteSG
s 1
f 61/61/61 62/62/62 63/63/63 
f 64/64/64 61/61/61 63/63/63 
f 65/65/65 66/66/66 67/67/67 
f 67/67/67 68/68/68 65/65/65 
f 69/69/69 65/65/65 68/68/68 
f 68/68/68 70/70/70 69/69/69 
f 71/71/71 72/72/72 69/69/69 
f 70/70/70 71/71/71 69/69/69 
f 73/73/73 74/74/74 72/72/72 
f 71/71/71 73/73/73 72/72/72 
f 75/75/75 76/76/76 74/74/74 
f 73/73/73 75/75/75 74/74/74 
f 77/77/77 78/78/78 76/76/76 
f 75/75/75 77/77/77 76/76/76 
f 64/64/64 63/63/63 78/78/78 
f 77/77/77 64/64/64 78/78/78 
f 79/79/79 80/80/80 62/62/62 
f 61/61/61 79/79/79 62/62/62 
f 81/81/81 82/82/82 66/66/66 
f 82/82/82 67/67/67 66/66/66 
s 15
f 83/83/83 84/84/84 85/85/85 
s off
f 85/85/85 84/84/85 86/86/85 
s 15
f 87/87/86 88/88/86 83/83/83 
f 83/83/83 88/88/86 84/84/84 
f 87/87/86 89/89/87 88/88/86 
f 89/89/87 90/90/88 88/88/86 
f 89/89/87 91/91/89 90/90/88 
f 91/91/89 92/92/89 90/90/88 
f 91/91/89 93/93/89 92/92/89 
f 93/93/89 94/94/89 92/92/89 
f 95/95/90 96/96/91 97/97/92 
f 96/96/91 98/98/91 97/97/92 
f 93/93/89 95/95/90 94/94/89 
f 95/95/90 97/97/92 94/94/89 
f 96/96/91 99/99/93 98/98/91 
f 99/99/93 100/100/94 98/98/91 
f 99/99/93 101/101/95 100/100/94 
f 101/101/95 102/102/92 100/100/94 
f 101/101/95 103/103/96 102/102/92 
f 103/103/96 104/104/97 102/102/92 
f 105/105/98 106/106/98 103/103/96 
f 103/103/96 106/106/98 104/104/97 
# 42 faces

