# 3ds Max Wavefront OBJ Exporter v0.97b - (c)2007 guruware
# File Created: 23.11.2015 11:26:18

mtllib H812_181C_R.mtl

#
# object H812_181C_R_1_DaS_H812_181C_R
#

v  33.7663 106.1417 84.8878
v  26.1497 109.6157 83.9815
v  30.0325 105.1368 85.9403
v  23.8628 108.0849 85.1626
v  35.8838 106.7222 83.3584
v  27.7639 110.3415 82.4333
v  62.7349 85.8140 90.6525
v  54.7470 91.5464 89.3545
v  53.0022 91.7450 89.3826
v  43.1705 97.0338 88.2193
v  46.7447 96.7763 88.0900
v  38.1948 101.2835 86.9481
v  33.9062 101.4444 87.1358
v  27.0910 104.3468 86.4025
v  42.3196 101.9486 85.9799
v  51.4173 97.0460 87.2269
v  54.0528 97.2463 85.7740
v  44.6523 102.3524 84.4810
v  70.0279 85.3045 90.0160
v  60.5851 91.4740 88.5898
v  73.9813 85.2126 88.6739
v  63.8507 91.4988 87.1889
v  64.7118 91.5595 85.9311
v  54.7722 97.3431 84.5071
v  45.3005 102.4911 83.2064
v  36.4903 106.9011 82.0640
v  49.4365 100.2545 83.7426
v  72.6992 79.1645 91.9574
v  79.9508 78.6091 91.4524
v  82.6090 71.9456 93.4021
v  90.0511 71.8497 92.8181
v  84.3794 78.4905 90.1772
v  94.5145 71.8476 91.5929
v  102.2071 64.2282 94.2492
v  100.0259 65.4884 94.0313
v  99.2741 60.8925 95.4625
v  92.6457 65.4001 94.6212
v  103.6318 65.8486 92.8354
v  95.8197 71.8717 90.3885
v  104.2007 66.4955 91.4546
v  85.5956 78.5188 88.9232
v  75.0286 85.2492 87.4093
v  91.0602 65.5638 94.6369
v  28.5630 110.4835 81.0361
v  98.1952 59.6655 95.7832
v  21.6024 106.5020 85.8991
# 46 vertices

vn 0.1845 0.5995 0.7788
vn 0.1772 0.6287 0.7572
vn 0.0918 0.4328 0.8968
vn 0.0845 0.4398 0.8941
vn 0.3145 0.7967 0.5161
vn 0.2860 0.8121 0.5087
vn 0.1090 0.3697 0.9227
vn 0.1106 0.3901 0.9141
vn 0.0506 0.3042 0.9513
vn 0.0581 0.3429 0.9376
vn 0.1080 0.4126 0.9045
vn 0.0977 0.4271 0.8989
vn 0.0539 0.3560 0.9329
vn 0.0519 0.3549 0.9335
vn 0.2022 0.5928 0.7796
vn 0.2145 0.5662 0.7958
vn 0.3562 0.7521 0.5546
vn 0.3337 0.7762 0.5349
vn 0.1755 0.4585 0.8712
vn 0.1988 0.5123 0.8355
vn 0.3418 0.6769 0.6519
vn 0.3595 0.7231 0.5898
vn 0.4480 0.8233 0.3485
vn 0.4388 0.8416 0.3149
vn 0.4066 0.8628 0.3006
vn 0.3811 0.8748 0.2990
vn 0.4216 0.8536 0.3061
vn 0.0934 0.3324 0.9385
vn 0.1563 0.4196 0.8942
vn 0.0803 0.3070 0.9483
vn 0.1408 0.3942 0.9082
vn 0.3210 0.6388 0.6992
vn 0.3047 0.6166 0.7259
vn 0.1323 0.3868 0.9126
vn 0.1427 0.3948 0.9076
vn 0.0601 0.2684 0.9614
vn 0.0676 0.2845 0.9563
vn 0.3209 0.6391 0.6990
vn 0.4309 0.7609 0.4850
vn 0.4132 0.7473 0.5203
vn 0.4414 0.7777 0.4476
vn 0.4495 0.7998 0.3979
vn 0.0336 0.2321 0.9721
vn 0.3529 0.8890 0.2918
vn 0.0310 0.2273 0.9733
vn 0.0486 0.3653 0.9296
# 46 vertex normals

vt 0.5503 0.3023 0.0000
vt 0.5366 0.3089 0.0000
vt 0.5434 0.2999 0.0000
vt 0.5309 0.3062 0.0000
vt 0.5546 0.3048 0.0000
vt 0.5401 0.3115 0.0000
vt 0.6046 0.2644 0.0000
vt 0.5895 0.2748 0.0000
vt 0.5863 0.2751 0.0000
vt 0.5678 0.2846 0.0000
vt 0.5744 0.2843 0.0000
vt 0.5585 0.2927 0.0000
vt 0.5506 0.2928 0.0000
vt 0.5380 0.2983 0.0000
vt 0.5661 0.2945 0.0000
vt 0.5831 0.2855 0.0000
vt 0.5884 0.2873 0.0000
vt 0.5708 0.2967 0.0000
vt 0.6183 0.2641 0.0000
vt 0.6004 0.2754 0.0000
vt 0.6260 0.2652 0.0000
vt 0.6068 0.2768 0.0000
vt 0.6090 0.2785 0.0000
vt 0.5903 0.2892 0.0000
vt 0.5726 0.2986 0.0000
vt 0.5562 0.3068 0.0000
vt 0.5803 0.2946 0.0000
vt 0.6235 0.2522 0.0000
vt 0.6371 0.2519 0.0000
vt 0.6424 0.2391 0.0000
vt 0.6561 0.2397 0.0000
vt 0.6456 0.2528 0.0000
vt 0.6645 0.2406 0.0000
vt 0.6783 0.2259 0.0000
vt 0.6744 0.2281 0.0000
vt 0.6732 0.2197 0.0000
vt 0.6611 0.2276 0.0000
vt 0.6810 0.2293 0.0000
vt 0.6675 0.2420 0.0000
vt 0.6827 0.2316 0.0000
vt 0.6484 0.2543 0.0000
vt 0.6285 0.2668 0.0000
vt 0.6582 0.2278 0.0000
vt 0.5418 0.3138 0.0000
vt 0.6713 0.2177 0.0000
vt 0.5280 0.3025 0.0000
# 46 texture coords

g H812_181C_R_1_DaS_H812_181C_R
usemtl paint_whiteSG
s 1
f 1/1/1 2/2/2 3/3/3 
f 2/2/2 4/4/4 3/3/3 
f 5/5/5 6/6/6 1/1/1 
f 2/2/2 1/1/1 6/6/6 
f 7/7/7 8/8/8 9/9/9 
f 10/10/10 9/9/9 11/11/11 
f 9/9/9 8/8/8 11/11/11 
f 12/12/12 3/3/3 13/13/13 
f 13/13/13 3/3/3 14/14/14 
f 13/13/13 10/10/10 12/12/12 
f 10/10/10 11/11/11 12/12/12 
f 15/15/15 1/1/1 12/12/12 
f 12/12/12 1/1/1 3/3/3 
f 16/16/16 15/15/15 11/11/11 
f 15/15/15 12/12/12 11/11/11 
f 17/17/17 18/18/18 16/16/16 
f 15/15/15 16/16/16 18/18/18 
f 18/18/18 5/5/5 15/15/15 
f 15/15/15 5/5/5 1/1/1 
f 19/19/19 20/20/20 7/7/7 
f 20/20/20 8/8/8 7/7/7 
f 21/21/21 22/22/22 19/19/19 
f 20/20/20 19/19/19 22/22/22 
f 22/22/22 17/17/17 20/20/20 
f 20/20/20 17/17/17 16/16/16 
f 20/20/20 16/16/16 8/8/8 
f 8/8/8 16/16/16 11/11/11 
f 23/23/23 24/24/24 22/22/22 
f 24/24/24 17/17/17 22/22/22 
f 25/25/25 26/26/26 18/18/18 
f 26/26/26 5/5/5 18/18/18 
f 18/18/18 17/17/17 27/27/27 
f 27/27/27 17/17/17 24/24/24 
f 27/27/27 25/25/25 18/18/18 
f 7/7/7 28/28/28 19/19/19 
f 28/28/28 29/29/29 19/19/19 
f 28/28/28 30/30/30 29/29/29 
f 30/30/30 31/31/31 29/29/29 
f 29/29/29 31/31/31 32/32/32 
f 32/32/32 31/31/31 33/33/33 
f 32/32/32 21/21/21 29/29/29 
f 29/29/29 21/21/21 19/19/19 
f 34/34/34 35/35/35 36/36/36 
f 36/36/36 35/35/35 37/37/37 
f 38/38/38 35/35/35 34/34/34 
f 33/33/33 38/38/38 39/39/39 
f 38/38/38 40/40/40 39/39/39 
f 31/31/31 35/35/35 33/33/33 
f 33/33/33 35/35/35 38/38/38 
f 30/30/30 37/37/37 31/31/31 
f 37/37/37 35/35/35 31/31/31 
f 41/41/41 42/42/42 32/32/32 
f 42/42/42 21/21/21 32/32/32 
f 43/43/43 37/37/37 30/30/30 
f 42/42/42 23/23/23 21/21/21 
f 21/21/21 23/23/23 22/22/22 
f 39/39/39 41/41/41 33/33/33 
f 33/33/33 41/41/41 32/32/32 
f 26/26/26 44/44/44 5/5/5 
f 5/5/5 44/44/44 6/6/6 
f 43/43/43 45/45/45 37/37/37 
f 45/45/45 36/36/36 37/37/37 
f 3/3/3 4/4/4 14/14/14 
f 14/14/14 4/4/4 46/46/46 
# 64 faces

#
# object H812_181C_R_1_DaS_H812_181C_R_E
#

v  72.1194 78.8128 91.4079
v  72.6992 79.1645 91.9574
v  62.7349 85.8140 90.6525
v  62.2366 85.3937 90.1187
v  82.0126 71.6059 92.8491
v  82.6090 71.9456 93.4021
v  26.6684 103.9106 85.8788
v  27.0910 104.3468 86.4025
v  21.6024 106.5020 85.8991
v  21.2128 106.0529 85.3795
v  33.4542 101.0209 86.6083
v  33.9062 101.4444 87.1358
v  42.6829 96.6272 87.6865
v  43.1705 97.0338 88.2193
v  52.4772 91.3584 88.8437
v  53.0022 91.7450 89.3826
v  90.4512 65.2338 94.0810
v  91.0602 65.5638 94.6369
v  97.5983 59.3183 95.2265
v  98.1952 59.6655 95.7832
v  102.2071 64.2282 94.2492
v  99.2741 60.8925 95.4625
v  101.6355 63.7745 93.6507
v  98.7025 60.4387 94.8641
v  103.6318 65.8486 92.8354
v  103.0602 65.3949 92.2370
v  103.4971 65.8917 91.1765
v  104.2007 66.4955 91.4546
# 28 vertices

vn -0.4337 -0.4778 0.7639
vn -0.4392 -0.4711 0.7649
vn -0.4135 -0.4872 0.7692
vn -0.4103 -0.4906 0.7688
vn -0.4500 -0.4580 0.7666
vn -0.4516 -0.4559 0.7669
vn -0.3123 -0.5907 0.7440
vn -0.3176 -0.5867 0.7449
vn -0.3025 -0.5972 0.7429
vn -0.3025 -0.5971 0.7429
vn -0.3374 -0.5716 0.7479
vn -0.3435 -0.5666 0.7490
vn -0.3629 -0.5502 0.7520
vn -0.3687 -0.5449 0.7531
vn -0.3897 -0.5254 0.7564
vn -0.3970 -0.5173 0.7581
vn -0.4620 -0.4423 0.7687
vn -0.4670 -0.4350 0.7699
vn -0.4740 -0.4233 0.7721
vn -0.4739 -0.4232 0.7722
vn 0.6984 -0.7030 -0.1341
vn 0.7131 -0.6816 -0.1643
vn 0.7042 -0.6949 -0.1458
vn 0.7036 -0.6867 -0.1828
vn 0.6782 -0.7286 -0.0954
vn 0.6795 -0.7271 -0.0978
vn 0.6660 -0.7423 -0.0734
vn 0.6681 -0.7085 -0.2273
vn 0.6490 -0.7195 -0.2472
# 29 vertex normals

vt 0.6222 0.2513 0.0000
vt 0.6235 0.2522 0.0000
vt 0.6046 0.2644 0.0000
vt 0.6034 0.2633 0.0000
vt 0.6410 0.2383 0.0000
vt 0.6424 0.2391 0.0000
vt 0.5370 0.2973 0.0000
vt 0.5380 0.2983 0.0000
vt 0.5280 0.3025 0.0000
vt 0.5270 0.3014 0.0000
vt 0.5495 0.2918 0.0000
vt 0.5506 0.2928 0.0000
vt 0.5667 0.2836 0.0000
vt 0.5678 0.2846 0.0000
vt 0.5850 0.2741 0.0000
vt 0.5863 0.2751 0.0000
vt 0.6569 0.2269 0.0000
vt 0.6582 0.2278 0.0000
vt 0.6703 0.2167 0.0000
vt 0.6713 0.2177 0.0000
vt 0.6774 0.2269 0.0000
vt 0.6727 0.2200 0.0000
vt 0.6779 0.2253 0.0000
vt 0.6734 0.2184 0.0000
vt 0.6812 0.2296 0.0000
vt 0.6817 0.2280 0.0000
vt 0.6828 0.2289 0.0000
vt 0.6841 0.2300 0.0000
vt 0.6713 0.2173 0.0000
vt 0.6719 0.2159 0.0000
# 30 texture coords

g H812_181C_R_1_DaS_H812_181C_R_E
usemtl paint_whiteSG
s 9
f 47/47/47 48/48/48 49/49/49 
f 50/50/50 47/47/47 49/49/49 
f 51/51/51 52/52/52 48/48/48 
f 47/47/47 51/51/51 48/48/48 
f 53/53/53 54/54/54 55/55/55 
f 56/56/56 53/53/53 55/55/55 
f 57/57/57 58/58/58 54/54/54 
f 53/53/53 57/57/57 54/54/54 
f 59/59/59 60/60/60 58/58/58 
f 57/57/57 59/59/59 58/58/58 
f 61/61/61 62/62/62 60/60/60 
f 59/59/59 61/61/61 60/60/60 
f 62/62/62 61/61/61 50/50/50 
f 62/62/62 50/50/50 49/49/49 
f 52/52/52 51/51/51 63/63/63 
f 52/52/52 63/63/63 64/64/64 
f 65/65/65 66/66/66 64/64/64 
f 65/65/65 64/64/64 63/63/63 
s 15
f 67/67/67 68/68/68 69/69/69 
f 68/68/68 70/70/70 69/69/69 
f 71/71/71 67/67/67 72/72/72 
f 67/67/67 69/69/69 72/72/72 
f 71/71/71 73/73/73 74/74/73 
f 68/68/68 66/75/74 70/70/70 
f 66/75/74 65/76/75 70/70/70 
f 71/71/71 72/72/72 73/73/73 
# 26 faces

