# 3ds Max Wavefront OBJ Exporter v0.97b - (c)2007 guruware
# File Created: 14.12.2015 12:35:44

mtllib U721_38SG_L.mtl

#
# object U721_38SG_L_1_DTaSI_U721_38SG_L
#

v  -193.7489 110.1713 -77.4171
v  -192.7748 108.5076 -78.2678
v  -195.6827 109.1568 -77.9429
v  -200.6173 102.2228 -81.0930
v  -197.6001 107.7180 -78.6767
v  -194.2398 101.4618 -81.4076
v  -166.8696 78.9772 -89.9598
v  -154.0426 78.7054 -90.2858
v  -167.3156 69.1307 -92.8833
v  -154.1562 68.8318 -93.2806
v  -178.6758 79.3301 -89.5755
v  -179.4798 69.5304 -92.4334
v  -201.3528 72.0213 -90.9353
v  -198.5179 81.5312 -88.1994
v  -189.3560 70.0972 -91.9305
v  -188.3649 79.7907 -89.1126
v  -179.9295 64.3134 -93.8262
v  -196.2924 91.7384 -84.9383
v  -203.9504 93.7436 -84.0902
v  -203.2270 102.6856 -80.8245
v  -209.4951 95.3804 -83.4353
v  -214.3085 87.3192 -86.0090
v  -208.7720 84.5776 -87.0059
v  -128.1065 114.7305 -76.4610
v  -129.0529 108.8188 -79.2293
v  -141.2697 114.4033 -76.3891
v  -141.2884 108.6392 -79.1353
v  -189.4227 111.6390 -76.6932
v  -185.4009 109.2245 -78.0646
v  -191.8586 110.8506 -77.0708
v  -184.7801 112.5512 -76.3435
v  -176.2544 109.0465 -78.3501
v  -175.7463 113.2537 -76.2570
v  -200.4019 105.4040 -79.7002
v  -125.5751 108.9408 -79.2282
v  -122.3990 114.8048 -76.5276
v  -141.2932 98.7610 -83.3009
v  -130.8166 98.8628 -83.3944
v  -187.5743 112.0719 -76.5180
v  -216.1574 83.7924 -87.1096
v  -212.4084 77.6874 -89.0631
v  -217.8563 79.2723 -88.4898
v  -217.5992 80.2672 -88.1902
v  -217.8452 78.4852 -88.7252
v  -217.5717 77.6676 -88.9835
v  -217.1063 76.9931 -89.2026
v  -216.4265 76.3027 -89.4107
v  -215.6138 75.6357 -89.6142
v  -207.8703 71.4794 -90.9453
v  -214.6463 74.9971 -89.8139
v  -197.4706 66.8641 -92.4764
v  -202.6680 68.7850 -91.7401
v  -154.1986 63.3360 -94.8464
v  -143.1432 68.8137 -93.5092
v  -144.7178 62.9911 -95.1692
v  -189.8398 65.2720 -93.2306
v  -165.2269 113.7127 -76.3442
v  -165.5168 108.8484 -78.6442
v  -153.8106 99.0948 -82.9876
v  -165.9724 99.6026 -82.5903
v  -153.6920 108.6943 -78.9142
v  -153.9274 88.9446 -86.8168
v  -140.5706 88.6488 -87.1258
v  -139.4043 78.6998 -90.5281
v  -186.4457 100.8011 -81.7694
v  -187.4131 90.5049 -85.5906
v  -177.0819 100.1995 -82.1655
v  -177.8824 89.9230 -86.0305
v  -166.4225 89.3891 -86.4459
v  -153.5999 114.0865 -76.3100
v  -167.5669 63.7249 -94.3679
v  -135.5410 88.7791 -87.1442
# 72 vertices

vn 0.0011 0.4558 -0.8901
vn -0.0067 0.4144 -0.9101
vn 0.0017 0.4536 -0.8912
vn -0.0116 0.3593 -0.9331
vn 0.0070 0.4050 -0.9143
vn -0.0086 0.3685 -0.9296
vn -0.0195 0.3032 -0.9527
vn -0.0175 0.3063 -0.9518
vn -0.0231 0.2786 -0.9601
vn -0.0216 0.2841 -0.9585
vn -0.0261 0.3009 -0.9533
vn -0.0299 0.2746 -0.9611
vn -0.0274 0.2780 -0.9602
vn -0.0265 0.2975 -0.9544
vn -0.0348 0.2764 -0.9604
vn -0.0330 0.2987 -0.9538
vn -0.0316 0.2607 -0.9649
vn -0.0218 0.3247 -0.9456
vn -0.0177 0.3237 -0.9460
vn -0.0230 0.3515 -0.9359
vn -0.0152 0.3242 -0.9459
vn -0.0171 0.3111 -0.9502
vn -0.0194 0.3053 -0.9520
vn -0.0156 0.4259 -0.9046
vn -0.0137 0.4041 -0.9146
vn -0.0154 0.4294 -0.9030
vn -0.0136 0.4047 -0.9143
vn -0.0181 0.4708 -0.8821
vn -0.0167 0.4161 -0.9092
vn -0.0180 0.4625 -0.8864
vn -0.0216 0.4583 -0.8885
vn -0.0187 0.4129 -0.9106
vn -0.0221 0.4439 -0.8958
vn -0.0025 0.4012 -0.9160
vn -0.0146 0.4102 -0.9119
vn -0.0161 0.4254 -0.9048
vn -0.0128 0.3709 -0.9286
vn -0.0122 0.3755 -0.9268
vn -0.0242 0.4628 -0.8861
vn -0.0172 0.2984 -0.9543
vn -0.0188 0.2877 -0.9575
vn -0.0163 0.2900 -0.9569
vn -0.0131 0.2968 -0.9549
vn -0.0169 0.2902 -0.9568
vn -0.0159 0.2971 -0.9547
vn -0.0147 0.2917 -0.9564
vn -0.0125 0.2774 -0.9607
vn -0.0131 0.2784 -0.9604
vn -0.0205 0.2734 -0.9617
vn -0.0147 0.2801 -0.9599
vn -0.0390 0.2600 -0.9648
vn -0.0306 0.2529 -0.9670
vn -0.0237 0.2749 -0.9612
vn -0.0180 0.2893 -0.9571
vn -0.0225 0.2797 -0.9598
vn -0.0357 0.2633 -0.9640
vn -0.0193 0.4296 -0.9028
vn -0.0176 0.4060 -0.9137
vn -0.0143 0.3713 -0.9284
vn -0.0159 0.3724 -0.9279
vn -0.0142 0.4067 -0.9134
vn -0.0152 0.3367 -0.9415
vn -0.0140 0.3365 -0.9416
vn -0.0154 0.3100 -0.9506
vn -0.0147 0.3744 -0.9271
vn -0.0245 0.3303 -0.9436
vn -0.0161 0.3743 -0.9272
vn -0.0203 0.3355 -0.9418
vn -0.0172 0.3369 -0.9414
vn -0.0133 0.4342 -0.9007
vn -0.0257 0.2663 -0.9636
vn -0.0120 0.3445 -0.9387
# 72 vertex normals

vt 0.1085 0.8146 0.0000
vt 0.1119 0.8208 0.0000
vt 0.1020 0.8186 0.0000
vt 0.0859 0.8447 0.0000
vt 0.0956 0.8242 0.0000
vt 0.1076 0.8470 0.0000
vt 0.2023 0.9262 0.0000
vt 0.2457 0.9264 0.0000
vt 0.2016 0.9610 0.0000
vt 0.2462 0.9613 0.0000
vt 0.1622 0.9256 0.0000
vt 0.1603 0.9602 0.0000
vt 0.0860 0.9523 0.0000
vt 0.0948 0.9186 0.0000
vt 0.1268 0.9586 0.0000
vt 0.1294 0.9244 0.0000
vt 0.1592 0.9785 0.0000
vt 0.1015 0.8822 0.0000
vt 0.0754 0.8754 0.0000
vt 0.0770 0.8431 0.0000
vt 0.0564 0.8699 0.0000
vt 0.0408 0.8990 0.0000
vt 0.0598 0.9084 0.0000
vt 0.3304 0.7937 0.0000
vt 0.3277 0.8157 0.0000
vt 0.2858 0.7957 0.0000
vt 0.2863 0.8172 0.0000
vt 0.1230 0.8088 0.0000
vt 0.1368 0.8177 0.0000
vt 0.1148 0.8119 0.0000
vt 0.1386 0.8051 0.0000
vt 0.1678 0.8179 0.0000
vt 0.1692 0.8020 0.0000
vt 0.0864 0.8330 0.0000
vt 0.3395 0.8151 0.0000
vt 0.3497 0.7930 0.0000
vt 0.2872 0.8534 0.0000
vt 0.3227 0.8524 0.0000
vt 0.1292 0.8071 0.0000
vt 0.0349 0.9116 0.0000
vt 0.0481 0.9330 0.0000
vt 0.0295 0.9277 0.0000
vt 0.0303 0.9242 0.0000
vt 0.0296 0.9305 0.0000
vt 0.0306 0.9334 0.0000
vt 0.0322 0.9358 0.0000
vt 0.0346 0.9381 0.0000
vt 0.0374 0.9404 0.0000
vt 0.0640 0.9546 0.0000
vt 0.0407 0.9426 0.0000
vt 0.0996 0.9702 0.0000
vt 0.0818 0.9637 0.0000
vt 0.2465 0.9806 0.0000
vt 0.2835 0.9607 0.0000
vt 0.2786 0.9813 0.0000
vt 0.1256 0.9755 0.0000
vt 0.2048 0.7998 0.0000
vt 0.2042 0.8179 0.0000
vt 0.2448 0.8530 0.0000
vt 0.2035 0.8519 0.0000
vt 0.2443 0.8178 0.0000
vt 0.2452 0.8898 0.0000
vt 0.2905 0.8900 0.0000
vt 0.2953 0.9255 0.0000
vt 0.1341 0.8489 0.0000
vt 0.1317 0.8861 0.0000
vt 0.1658 0.8505 0.0000
vt 0.1640 0.8877 0.0000
vt 0.2029 0.8889 0.0000
vt 0.2441 0.7976 0.0000
vt 0.2012 0.9799 0.0000
vt 0.3075 0.8892 0.0000
# 72 texture coords

g U721_38SG_L_1_DTaSI_U721_38SG_L
usemtl windowglass_1SG
s 1
f 1/1/1 2/2/2 3/3/3 
f 4/4/4 5/5/5 6/6/6 
f 6/6/6 5/5/5 2/2/2 
f 7/7/7 8/8/8 9/9/9 
f 9/9/9 8/8/8 10/10/10 
f 7/7/7 9/9/9 11/11/11 
f 11/11/11 9/9/9 12/12/12 
f 13/13/13 14/14/14 15/15/15 
f 15/15/15 14/14/14 16/16/16 
f 17/17/17 15/15/15 12/12/12 
f 6/6/6 18/18/18 4/4/4 
f 4/4/4 18/18/18 19/19/19 
f 4/4/4 19/19/19 20/20/20 
f 20/20/20 19/19/19 21/21/21 
f 22/22/22 21/21/21 23/23/23 
f 23/23/23 21/21/21 19/19/19 
f 23/23/23 19/19/19 14/14/14 
f 14/14/14 19/19/19 18/18/18 
f 24/24/24 25/25/25 26/26/26 
f 26/26/26 25/25/25 27/27/27 
f 28/28/28 29/29/29 30/30/30 
f 29/29/29 31/31/31 32/32/32 
f 32/32/32 31/31/31 33/33/33 
f 20/20/20 34/34/34 4/4/4 
f 25/25/25 24/24/24 35/35/35 
f 35/35/35 24/24/24 36/36/36 
f 37/37/37 27/27/27 38/38/38 
f 38/38/38 27/27/27 25/25/25 
f 31/31/31 29/29/29 39/39/39 
f 29/29/29 28/28/28 39/39/39 
f 30/30/30 2/2/2 1/1/1 
f 2/2/2 5/5/5 3/3/3 
f 23/23/23 40/40/40 22/22/22 
f 34/34/34 5/5/5 4/4/4 
f 41/41/41 42/42/42 43/43/43 
f 41/41/41 44/44/44 42/42/42 
f 41/41/41 45/45/45 44/44/44 
f 41/41/41 46/46/46 45/45/45 
f 41/41/41 47/47/47 46/46/46 
f 41/41/41 48/48/48 47/47/47 
f 49/49/49 41/41/41 13/13/13 
f 41/41/41 50/50/50 48/48/48 
f 51/51/51 52/52/52 13/13/13 
f 49/49/49 13/13/13 52/52/52 
f 53/53/53 54/54/54 55/55/55 
f 51/51/51 15/15/15 56/56/56 
f 13/13/13 41/41/41 14/14/14 
f 14/14/14 41/41/41 23/23/23 
f 40/40/40 41/41/41 43/43/43 
f 57/57/57 58/58/58 33/33/33 
f 33/33/33 58/58/58 32/32/32 
f 59/59/59 60/60/60 61/61/61 
f 61/61/61 60/60/60 58/58/58 
f 59/59/59 37/37/37 62/62/62 
f 62/62/62 37/37/37 63/63/63 
f 62/62/62 63/63/63 8/8/8 
f 8/8/8 63/63/63 64/64/64 
f 35/35/35 38/38/38 25/25/25 
f 65/65/65 66/66/66 6/6/6 
f 6/6/6 66/66/66 18/18/18 
f 67/67/67 60/60/60 68/68/68 
f 68/68/68 60/60/60 69/69/69 
f 11/11/11 68/68/68 7/7/7 
f 7/7/7 68/68/68 69/69/69 
f 8/8/8 7/7/7 62/62/62 
f 62/62/62 7/7/7 69/69/69 
f 6/6/6 2/2/2 65/65/65 
f 65/65/65 2/2/2 29/29/29 
f 65/65/65 29/29/29 67/67/67 
f 67/67/67 29/29/29 32/32/32 
f 61/61/61 70/70/70 27/27/27 
f 27/27/27 70/70/70 26/26/26 
f 58/58/58 57/57/57 61/61/61 
f 61/61/61 57/57/57 70/70/70 
f 61/61/61 27/27/27 59/59/59 
f 59/59/59 27/27/27 37/37/37 
f 9/9/9 10/10/10 71/71/71 
f 71/71/71 10/10/10 53/53/53 
f 15/15/15 16/16/16 12/12/12 
f 12/12/12 16/16/16 11/11/11 
f 56/56/56 15/15/15 17/17/17 
f 9/9/9 71/71/71 12/12/12 
f 12/12/12 71/71/71 17/17/17 
f 29/29/29 2/2/2 30/30/30 
f 50/50/50 41/41/41 49/49/49 
f 64/64/64 54/54/54 8/8/8 
f 8/8/8 54/54/54 10/10/10 
f 10/10/10 54/54/54 53/53/53 
f 38/38/38 72/72/72 37/37/37 
f 37/37/37 72/72/72 63/63/63 
f 13/13/13 15/15/15 51/51/51 
f 23/23/23 41/41/41 40/40/40 
f 63/63/63 72/72/72 64/64/64 
f 58/58/58 60/60/60 32/32/32 
f 32/32/32 60/60/60 67/67/67 
f 66/66/66 65/65/65 68/68/68 
f 68/68/68 65/65/65 67/67/67 
f 18/18/18 66/66/66 14/14/14 
f 14/14/14 66/66/66 16/16/16 
f 16/16/16 66/66/66 11/11/11 
f 11/11/11 66/66/66 68/68/68 
f 62/62/62 69/69/69 59/59/59 
f 59/59/59 69/69/69 60/60/60 
# 103 faces

