# 3ds Max Wavefront OBJ Exporter v0.97b - (c)2007 guruware
# File Created: 14.12.2015 12:40:11

mtllib U721_325B_R.mtl

#
# object U721_325B_R_1_DTaSI_U721_325B_R
#

v  -72.5658 115.6469 76.7594
v  -81.9763 115.6734 76.6791
v  -72.8905 108.5463 79.9483
v  -82.0744 108.5946 79.8643
v  -74.7923 77.3132 91.2582
v  -83.6677 77.5056 91.2337
v  -75.4240 67.0669 94.2292
v  -84.1969 67.3008 94.2016
v  -66.6511 66.8330 94.2568
v  -67.0890 60.2486 96.1158
v  -75.9501 60.5119 96.0750
v  -88.8392 115.6361 76.6250
v  -95.7020 115.5989 76.5710
v  -88.6428 108.6026 79.8004
v  -95.6888 108.9884 79.6166
v  -95.6693 98.3081 84.0219
v  -95.6517 87.8684 87.8699
v  -88.8985 98.0594 84.1342
v  -89.0210 87.7211 87.8263
v  -89.2771 77.5612 91.1467
v  -95.6348 77.5461 91.2599
v  -89.6739 67.4202 94.1530
v  -95.6164 67.2108 94.2960
v  -82.6049 98.0001 84.2043
v  -63.7066 108.4979 80.0322
v  -64.4423 97.8051 84.3765
v  -73.5236 97.9026 84.2904
v  -41.5235 65.7083 94.4968
v  -41.5225 76.2872 91.4426
v  -45.3061 66.2192 94.3283
v  -44.8219 76.5910 91.3305
v  -56.1399 59.9146 96.1741
v  -45.1907 59.5806 96.2324
v  -55.9786 66.5261 94.2925
v  -65.9169 77.1208 91.2827
v  -55.3694 76.8559 91.3066
v  -54.1454 97.6538 84.4710
v  -43.8485 97.5023 84.5655
v  -53.5350 108.3756 80.1318
v  -43.3633 108.2532 80.2313
v  -63.1553 115.6205 76.8397
v  -52.8862 115.4645 76.9548
v  -54.7576 87.1919 88.1135
v  -44.3354 86.9868 88.1697
v  -41.5198 86.8913 88.2291
v  -65.1799 87.3971 88.0574
v  -41.5173 97.6136 84.5633
v  -41.5160 108.5715 80.1483
v  -41.5157 115.2864 77.0857
v  -42.6171 115.3086 77.0699
v  -41.5235 59.4650 96.2556
v  -74.1582 87.5425 88.0025
v  -83.1365 87.6878 87.9475
v  -84.8112 60.7753 96.0343
v  -90.4298 60.9370 96.0110
v  -95.5800 61.0853 95.9896
# 56 vertices

vn -0.0065 0.4098 0.9121
vn -0.0077 0.4103 0.9119
vn -0.0062 0.3908 0.9204
vn -0.0070 0.3918 0.9200
vn 0.0032 0.2912 0.9566
vn -0.0026 0.2937 0.9559
vn 0.0041 0.2755 0.9613
vn 0.0009 0.2766 0.9610
vn 0.0042 0.2754 0.9613
vn 0.0035 0.2714 0.9625
vn 0.0038 0.2706 0.9627
vn -0.0092 0.4110 0.9116
vn -0.0054 0.4146 0.9100
vn -0.0060 0.3930 0.9195
vn -0.0019 0.3962 0.9182
vn -0.0021 0.3644 0.9312
vn 0.0104 0.3262 0.9452
vn -0.0039 0.3615 0.9324
vn -0.0005 0.3235 0.9462
vn 0.0034 0.2965 0.9550
vn 0.0157 0.2964 0.9549
vn 0.0054 0.2794 0.9602
vn 0.0141 0.2768 0.9608
vn -0.0053 0.3603 0.9328
vn -0.0051 0.3898 0.9209
vn -0.0037 0.3552 0.9348
vn -0.0047 0.3580 0.9337
vn -0.0045 0.2761 0.9611
vn -0.0063 0.2835 0.9589
vn 0.0021 0.2768 0.9609
vn 0.0013 0.2851 0.9585
vn 0.0037 0.2732 0.9619
vn 0.0030 0.2744 0.9616
vn 0.0045 0.2761 0.9611
vn 0.0039 0.2889 0.9574
vn 0.0045 0.2867 0.9580
vn -0.0030 0.3522 0.9359
vn -0.0061 0.3502 0.9367
vn -0.0041 0.3888 0.9213
vn -0.0074 0.3886 0.9214
vn -0.0052 0.4093 0.9124
vn -0.0040 0.4093 0.9124
vn 0.0010 0.3122 0.9500
vn -0.0024 0.3089 0.9511
vn -0.0092 0.3070 0.9517
vn 0.0004 0.3166 0.9486
vn -0.0153 0.3503 0.9365
vn -0.0256 0.3921 0.9196
vn -0.0104 0.4105 0.9118
vn -0.0041 0.4093 0.9124
vn 0.0025 0.2712 0.9625
vn -0.0006 0.3206 0.9472
vn -0.0060 0.3233 0.9463
vn 0.0026 0.2713 0.9625
vn 0.0039 0.2751 0.9614
vn 0.0087 0.2710 0.9625
# 56 vertex normals

vt 0.4892 0.2118 0.0000
vt 0.4572 0.2111 0.0000
vt 0.4889 0.1854 0.0000
vt 0.4576 0.1847 0.0000
vt 0.4857 0.0721 0.0000
vt 0.4555 0.0718 0.0000
vt 0.4846 0.0357 0.0000
vt 0.4547 0.0356 0.0000
vt 0.5145 0.0358 0.0000
vt 0.5137 0.0125 0.0000
vt 0.4835 0.0125 0.0000
vt 0.4338 0.2104 0.0000
vt 0.4104 0.2096 0.0000
vt 0.4352 0.1842 0.0000
vt 0.4112 0.1849 0.0000
vt 0.4124 0.1457 0.0000
vt 0.4136 0.1078 0.0000
vt 0.4355 0.1454 0.0000
vt 0.4362 0.1080 0.0000
vt 0.4363 0.0716 0.0000
vt 0.4147 0.0708 0.0000
vt 0.4360 0.0355 0.0000
vt 0.4158 0.0341 0.0000
vt 0.4570 0.1457 0.0000
vt 0.5202 0.1861 0.0000
vt 0.5189 0.1467 0.0000
vt 0.4879 0.1462 0.0000
vt 0.6002 0.0344 0.0000
vt 0.5991 0.0718 0.0000
vt 0.5873 0.0358 0.0000
vt 0.5879 0.0726 0.0000
vt 0.5510 0.0124 0.0000
vt 0.5883 0.0123 0.0000
vt 0.5509 0.0358 0.0000
vt 0.5160 0.0723 0.0000
vt 0.5519 0.0724 0.0000
vt 0.5539 0.1471 0.0000
vt 0.5890 0.1476 0.0000
vt 0.5549 0.1865 0.0000
vt 0.5895 0.1870 0.0000
vt 0.5213 0.2126 0.0000
vt 0.5563 0.2130 0.0000
vt 0.5529 0.1093 0.0000
vt 0.5885 0.1096 0.0000
vt 0.5981 0.1095 0.0000
vt 0.5174 0.1090 0.0000
vt 0.5970 0.1481 0.0000
vt 0.5958 0.1883 0.0000
vt 0.5951 0.2134 0.0000
vt 0.5913 0.2133 0.0000
vt 0.6008 0.0123 0.0000
vt 0.4868 0.1087 0.0000
vt 0.4562 0.1083 0.0000
vt 0.4533 0.0125 0.0000
vt 0.4341 0.0125 0.0000
vt 0.4165 0.0125 0.0000
# 56 texture coords

g U721_325B_R_1_DTaSI_U721_325B_R
usemtl windowglass_1SG
s 1
f 1/1/1 2/2/2 3/3/3 
f 3/3/3 2/2/2 4/4/4 
f 5/5/5 6/6/6 7/7/7 
f 7/7/7 6/6/6 8/8/8 
f 9/9/9 7/7/7 10/10/10 
f 10/10/10 7/7/7 11/11/11 
f 12/12/12 13/13/13 14/14/14 
f 14/14/14 13/13/13 15/15/15 
f 16/16/16 17/17/17 18/18/18 
f 18/18/18 17/17/17 19/19/19 
f 20/20/20 19/19/19 21/21/21 
f 21/21/21 19/19/19 17/17/17 
f 22/22/22 20/20/20 23/23/23 
f 23/23/23 20/20/20 21/21/21 
f 18/18/18 24/24/24 14/14/14 
f 14/14/14 24/24/24 4/4/4 
f 25/25/25 3/3/3 26/26/26 
f 26/26/26 3/3/3 27/27/27 
f 28/28/28 29/29/29 30/30/30 
f 30/30/30 29/29/29 31/31/31 
f 32/32/32 33/33/33 34/34/34 
f 34/34/34 33/33/33 30/30/30 
f 9/9/9 34/34/34 35/35/35 
f 35/35/35 34/34/34 36/36/36 
f 37/37/37 38/38/38 39/39/39 
f 39/39/39 38/38/38 40/40/40 
f 25/25/25 39/39/39 41/41/41 
f 41/41/41 39/39/39 42/42/42 
f 36/36/36 31/31/31 43/43/43 
f 43/43/43 31/31/31 44/44/44 
f 29/29/29 45/45/45 31/31/31 
f 31/31/31 45/45/45 44/44/44 
f 46/46/46 43/43/43 26/26/26 
f 26/26/26 43/43/43 37/37/37 
f 45/45/45 47/47/47 44/44/44 
f 44/44/44 47/47/47 38/38/38 
f 48/48/48 49/49/49 40/40/40 
f 40/40/40 49/49/49 50/50/50 
f 51/51/51 28/28/28 33/33/33 
f 33/33/33 28/28/28 30/30/30 
f 47/47/47 48/48/48 38/38/38 
f 38/38/38 48/48/48 40/40/40 
f 27/27/27 24/24/24 52/52/52 
f 52/52/52 24/24/24 53/53/53 
f 46/46/46 52/52/52 35/35/35 
f 35/35/35 52/52/52 5/5/5 
f 3/3/3 25/25/25 1/1/1 
f 1/1/1 25/25/25 41/41/41 
f 7/7/7 9/9/9 5/5/5 
f 5/5/5 9/9/9 35/35/35 
f 54/54/54 11/11/11 8/8/8 
f 8/8/8 11/11/11 7/7/7 
f 8/8/8 22/22/22 54/54/54 
f 54/54/54 22/22/22 55/55/55 
f 14/14/14 4/4/4 12/12/12 
f 12/12/12 4/4/4 2/2/2 
f 24/24/24 18/18/18 53/53/53 
f 53/53/53 18/18/18 19/19/19 
f 53/53/53 19/19/19 6/6/6 
f 6/6/6 19/19/19 20/20/20 
f 14/14/14 15/15/15 18/18/18 
f 18/18/18 15/15/15 16/16/16 
f 24/24/24 27/27/27 4/4/4 
f 4/4/4 27/27/27 3/3/3 
f 34/34/34 9/9/9 32/32/32 
f 32/32/32 9/9/9 10/10/10 
f 31/31/31 36/36/36 30/30/30 
f 30/30/30 36/36/36 34/34/34 
f 39/39/39 25/25/25 37/37/37 
f 37/37/37 25/25/25 26/26/26 
f 50/50/50 42/42/42 40/40/40 
f 40/40/40 42/42/42 39/39/39 
f 43/43/43 46/46/46 36/36/36 
f 36/36/36 46/46/46 35/35/35 
f 38/38/38 37/37/37 44/44/44 
f 44/44/44 37/37/37 43/43/43 
f 52/52/52 46/46/46 27/27/27 
f 27/27/27 46/46/46 26/26/26 
f 6/6/6 5/5/5 53/53/53 
f 53/53/53 5/5/5 52/52/52 
f 55/55/55 22/22/22 56/56/56 
f 56/56/56 22/22/22 23/23/23 
f 6/6/6 20/20/20 8/8/8 
f 8/8/8 20/20/20 22/22/22 
# 84 faces

