# 3ds Max Wavefront OBJ Exporter v0.97b - (c)2007 guruware
# File Created: 20.12.2015 14:48:40

mtllib Y173_FLOR_C.mtl

#
# object Y173_FLOR_C_1_N_Y173_FLOR_C
#

v  226.9875 -46.9858 87.2829
v  251.7142 -46.9858 79.9174
v  230.9659 -46.9858 87.6596
v  236.0280 -46.9858 87.8237
v  241.1665 -46.9858 87.3614
v  245.3750 -46.9858 85.8661
v  248.8296 -46.9858 83.3695
v  -233.9009 -37.2970 88.9082
v  -234.0906 -37.3610 88.8282
v  -234.5567 -37.3804 67.3440
v  -235.8000 -37.3575 88.3074
v  -267.1208 -36.8663 64.5735
v  -266.2819 -36.8663 70.9379
v  -239.1945 -37.2943 87.2888
v  -264.9489 -36.8663 75.4312
v  -262.9026 -36.8663 78.4782
v  -259.9285 -36.8663 80.5071
v  -257.2475 -36.8663 81.6901
v  -256.0827 -36.8663 82.2037
v  -253.4752 -36.9274 83.0229
v  -246.4660 -37.1104 85.1227
v  -267.7487 -36.8663 44.6517
v  -267.7489 -36.8663 56.7224
v  -267.7480 -36.8663 30.4451
v  -267.7480 -36.8663 -16.6902
v  -267.7480 -36.8663 -0.0056
v  -267.7480 -36.8663 16.6789
v  118.3151 -53.2853 -71.0658
v  119.1418 -53.2853 -85.8706
v  104.5332 -53.6347 -85.9941
v  104.5296 -53.6347 85.9829
v  119.1382 -53.2853 85.8594
v  103.7703 -53.6529 -86.0006
v  103.7667 -53.6529 85.9893
v  95.5821 -53.7862 -86.0964
v  100.3862 -53.7338 -86.0292
v  95.5785 -53.7862 86.0852
v  100.3826 -53.7338 86.0179
v  62.8341 -53.8037 -86.6987
v  62.8305 -53.8037 86.6875
v  23.4176 -53.8037 -87.4327
v  23.4140 -53.8037 87.4215
v  -11.8929 -53.8037 -88.0902
v  -11.8965 -53.8037 88.0790
v  -22.7348 -53.8037 -88.3073
v  -22.7384 -53.8037 88.2961
v  226.9875 -46.9858 -87.2941
v  230.9659 -46.9858 -87.6708
v  251.7142 -46.9858 -79.9286
v  236.0280 -46.9858 -87.8350
v  241.1665 -46.9858 -87.3726
v  248.8296 -46.9858 -83.3808
v  245.3750 -46.9858 -85.8773
v  -233.9009 -37.2970 -88.9194
v  -234.5567 -37.3804 -67.3552
v  -234.0906 -37.3610 -88.8394
v  -235.8000 -37.3575 -88.3186
v  -267.1208 -36.8663 -64.5847
v  -266.2819 -36.8663 -70.9491
v  -239.1945 -37.2943 -87.3000
v  -264.9489 -36.8663 -75.4424
v  -262.9026 -36.8663 -78.4894
v  -259.9285 -36.8663 -80.5183
v  -257.2475 -36.8663 -81.7013
v  -256.0827 -36.8663 -82.2149
v  -253.4752 -36.9274 -83.0341
v  -246.4660 -37.1104 -85.1339
v  -267.7454 -36.8663 -56.7151
v  -267.7487 -36.8663 -44.6629
v  -267.7480 -36.8663 -30.4563
v  -49.3024 -53.8037 -88.9079
v  -49.3059 -53.8037 88.8967
v  -100.6882 -53.8037 89.9912
v  -101.5112 -53.8037 71.0546
v  -97.5632 -53.8037 89.9495
v  -91.5613 -53.8037 89.8693
v  -81.3591 -53.8037 89.6343
v  -81.3555 -53.8037 -89.6455
v  -188.9483 -43.1448 -71.0658
v  -233.7960 -37.3085 -89.0039
v  -188.1217 -43.1448 -96.9086
v  -231.1752 -37.7312 -89.4620
v  -222.6833 -38.7975 -91.0292
v  -216.1592 -39.5853 -92.2361
v  -209.4199 -40.3991 -93.4829
v  -202.8990 -41.2345 -94.6801
v  -190.5019 -42.9548 -96.6723
v  -194.3100 -42.5567 -96.2066
v  -192.9571 -42.7586 -96.4275
v  -197.7432 -42.0012 -95.6062
v  -91.5613 -53.8037 -89.8805
v  -101.5112 -53.8037 -71.0658
v  -97.5632 -53.8037 -89.9607
v  -100.6846 -53.8037 -90.0024
v  -233.7996 -37.3085 88.9927
v  -188.9483 -43.1448 71.0546
v  -188.1253 -43.1448 96.8973
v  -231.1787 -37.7312 89.4508
v  -222.6833 -38.7975 91.0179
v  -209.4199 -40.3991 93.4717
v  -202.8990 -41.2345 94.6689
v  -197.7432 -42.0012 95.5950
v  -192.9571 -42.7586 96.4163
v  -194.3100 -42.5567 96.1954
v  -190.5019 -42.9548 96.6611
v  118.3151 -53.2853 71.0546
v  258.5970 -46.9858 66.8512
v  256.6905 -46.9858 70.9731
v  208.0403 -48.7709 71.0546
v  254.2562 -46.9858 75.7148
v  223.3462 -47.1900 86.9143
v  266.3254 -46.9858 12.3203
v  265.8250 -46.9858 23.2845
v  265.3449 -46.9858 31.5259
v  264.5627 -46.9858 39.0577
v  263.1578 -46.9858 47.8932
v  261.6959 -46.9858 55.7183
v  260.7438 -46.9858 60.2194
v  260.0981 -46.9858 62.7114
v  259.5591 -46.9858 64.5102
v  219.2955 -47.8024 86.7721
v  211.7114 -48.7709 86.7393
v  208.8670 -48.7709 86.7366
v  216.0016 -48.4338 86.7509
v  214.6410 -48.6949 86.7421
v  213.7106 -48.7519 86.7401
v  208.0403 -48.7709 -71.0658
v  266.5807 -46.9858 -0.0056
v  266.3254 -46.9858 -12.3315
v  258.5970 -46.9858 -66.8625
v  256.6905 -46.9858 -70.9843
v  254.2562 -46.9858 -75.7260
v  223.3462 -47.1900 -86.9255
v  265.8250 -46.9858 -23.2957
v  265.3449 -46.9858 -31.5371
v  264.5627 -46.9858 -39.0690
v  263.1578 -46.9858 -47.9044
v  261.6959 -46.9858 -55.7295
v  260.7438 -46.9858 -60.2306
v  260.0981 -46.9858 -62.7226
v  259.5591 -46.9858 -64.5214
v  219.2955 -47.8024 -86.7833
v  216.0016 -48.4338 -86.7621
v  208.8670 -48.7709 -86.7478
v  214.6410 -48.6949 -86.7533
v  213.7106 -48.7519 -86.7513
v  211.7114 -48.7709 -86.7506
# 147 vertices

vn 0.0246 -0.9965 0.0795
vn 0.0308 -0.9985 0.0449
vn 0.0000 -1.0000 0.0000
vn 0.0000 -1.0000 -0.0000
vn -0.1242 -0.9922 0.0076
vn 0.0484 -0.9988 -0.0001
vn -0.1107 -0.9939 0.0008
vn -0.0120 -0.9999 0.0004
vn -0.0159 -0.9999 0.0016
vn -0.0159 -0.9999 0.0031
vn -0.0228 -0.9997 -0.0010
vn -0.0152 -0.9999 0.0065
vn -0.0135 -0.9998 0.0119
vn -0.0110 -0.9998 0.0179
vn -0.0093 -0.9997 0.0211
vn -0.0159 -0.9998 0.0116
vn -0.0246 -0.9997 -0.0008
vn -0.0252 -0.9997 -0.0017
vn -0.0155 -0.9999 -0.0000
vn -0.0156 -0.9999 0.0004
vn 0.0512 -0.9987 -0.0000
vn 0.0239 -0.9997 0.0000
vn 0.0000 0.0000 -0.0000
vn 0.0240 -0.9997 0.0000
vn 0.0239 -0.9997 -0.0000
vn 0.0018 -1.0000 -0.0000
vn 0.0162 -0.9999 -0.0000
vn 0.0002 -1.0000 -0.0000
vn 0.0246 -0.9965 -0.0795
vn 0.0307 -0.9985 -0.0448
vn -0.1242 -0.9922 -0.0077
vn -0.0887 -0.9961 -0.0007
vn 0.0484 -0.9988 0.0001
vn -0.0120 -0.9999 -0.0004
vn -0.0159 -0.9999 -0.0016
vn -0.0159 -0.9999 -0.0031
vn -0.0228 -0.9997 0.0010
vn -0.0152 -0.9999 -0.0065
vn -0.0135 -0.9998 -0.0119
vn -0.0110 -0.9998 -0.0179
vn -0.0093 -0.9997 -0.0211
vn -0.0159 -0.9998 -0.0116
vn -0.0246 -0.9997 0.0008
vn -0.0252 -0.9997 0.0017
vn -0.0155 -0.9999 0.0000
vn -0.1015 -0.9948 -0.0000
vn -0.0000 -1.0000 -0.0000
vn -0.1225 -0.9925 -0.0001
vn -0.1434 -0.9890 0.0367
vn -0.1394 -0.9898 0.0287
vn -0.1247 -0.9922 -0.0054
vn -0.1218 -0.9925 -0.0104
vn -0.1237 -0.9923 -0.0086
vn -0.1339 -0.9910 -0.0011
vn -0.0799 -0.9968 -0.0025
vn -0.0798 -0.9968 -0.0026
vn -0.1548 -0.9879 0.0099
vn -0.1044 -0.9945 0.0014
vn -0.1501 -0.9886 0.0077
vn -0.0957 -0.9954 -0.0000
vn -0.0000 -1.0000 0.0000
vn -0.1438 -0.9889 -0.0378
vn -0.1225 -0.9925 0.0001
vn -0.1394 -0.9898 -0.0287
vn -0.1242 -0.9922 0.0062
vn -0.1229 -0.9924 0.0093
vn -0.1339 -0.9910 0.0011
vn -0.1501 -0.9886 -0.0077
vn -0.0799 -0.9968 0.0025
vn -0.1044 -0.9945 -0.0014
vn -0.1548 -0.9879 -0.0099
vn 0.0514 -0.9987 -0.0000
vn 0.0366 -0.9992 0.0159
vn 0.0367 -0.9992 0.0177
vn 0.0452 -0.9990 0.0009
vn 0.0366 -0.9991 0.0199
vn 0.0784 -0.9966 0.0236
vn 0.0306 -0.9995 0.0001
vn 0.0322 -0.9995 0.0016
vn 0.0327 -0.9995 0.0023
vn 0.0339 -0.9994 0.0041
vn 0.0348 -0.9994 0.0058
vn 0.0352 -0.9994 0.0068
vn 0.0355 -0.9993 0.0079
vn 0.0358 -0.9993 0.0097
vn 0.0362 -0.9993 0.0125
vn 0.1607 -0.9855 -0.0544
vn 0.0046 -1.0000 -0.0011
vn 0.1882 -0.9793 -0.0744
vn 0.1524 -0.9865 -0.0593
vn 0.0313 -0.9995 -0.0101
vn 0.0459 -0.9989 -0.0009
vn 0.0300 -0.9995 0.0004
vn 0.0314 -0.9995 -0.0008
vn 0.0366 -0.9992 -0.0159
vn 0.0367 -0.9992 -0.0177
vn 0.0366 -0.9991 -0.0199
vn 0.0784 -0.9966 -0.0236
vn 0.0322 -0.9995 -0.0016
vn 0.0327 -0.9995 -0.0023
vn 0.0339 -0.9994 -0.0041
vn 0.0348 -0.9994 -0.0058
vn 0.0352 -0.9994 -0.0068
vn 0.0355 -0.9993 -0.0079
vn 0.0358 -0.9993 -0.0097
vn 0.0362 -0.9993 -0.0125
vn 0.1607 -0.9855 0.0544
vn 0.1882 -0.9793 0.0744
vn 0.1523 -0.9865 0.0593
vn 0.0313 -0.9995 0.0101
vn 0.0046 -1.0000 0.0011
# 111 vertex normals

g Y173_FLOR_C_1_N_Y173_FLOR_C
usemtl diffuse_black_plasticSG
s 1
f 1//1 2//2 3//3 
f 3//3 2//2 4//4 
f 4//4 2//2 5//3 
f 5//3 2//2 6//4 
f 2//2 7//3 6//4 
f 8//5 9//6 10//7 
f 9//6 11//8 10//7 
f 12//9 10//7 13//10 
f 11//8 14//11 10//7 
f 13//10 10//7 15//12 
f 15//12 10//7 16//13 
f 16//13 10//7 17//14 
f 17//14 10//7 18//15 
f 18//15 10//7 19//16 
f 19//16 10//7 20//17 
f 20//17 10//7 21//18 
f 21//18 10//7 14//11 
f 22//19 10//7 23//20 
f 10//7 12//9 23//20 
f 22//19 24//19 10//7 
f 25//19 10//7 26//19 
f 10//7 27//19 26//19 
f 27//19 10//7 24//19 
f 28//21 29//22 29//23 
f 30//22 29//22 31//22 
f 31//22 29//22 32//24 
f 33//22 30//22 34//25 
f 34//25 30//22 31//22 
f 35//26 36//27 37//26 
f 37//26 36//27 38//27 
f 35//26 37//26 39//28 
f 39//28 37//26 40//28 
f 39//28 40//28 41//4 
f 41//4 40//28 42//4 
f 41//4 42//4 43//4 
f 43//4 42//4 44//4 
f 36//27 33//22 38//27 
f 38//27 33//22 34//25 
f 43//4 44//4 45//4 
f 45//4 44//4 46//4 
f 47//29 48//4 49//30 
f 49//30 48//4 50//4 
f 50//4 51//4 49//30 
f 49//30 51//4 52//4 
f 51//4 53//4 52//4 
f 54//31 55//32 56//33 
f 56//33 55//32 57//34 
f 58//35 59//36 55//32 
f 57//34 55//32 60//37 
f 59//36 61//38 55//32 
f 55//32 61//38 62//39 
f 62//39 63//40 55//32 
f 55//32 63//40 64//41 
f 64//41 65//42 55//32 
f 55//32 65//42 66//43 
f 66//43 67//44 55//32 
f 55//32 67//44 60//37 
f 58//35 55//32 68//19 
f 68//19 55//32 10//7 
f 68//19 10//7 69//19 
f 69//19 10//7 70//45 
f 25//19 70//45 10//7 
f 45//4 46//4 71//4 
f 71//4 46//4 72//4 
f 73//23 74//46 73//23 
f 73//23 74//46 73//4 
f 73//4 74//46 75//4 
f 74//46 76//47 75//4 
f 77//4 71//4 72//4 
f 78//4 71//4 77//4 
f 79//48 10//7 55//32 
f 80//49 79//48 54//31 
f 79//48 55//32 54//31 
f 81//23 79//48 81//23 
f 80//49 82//50 79//48 
f 82//50 83//51 79//48 
f 79//48 84//52 85//53 
f 85//53 86//54 79//48 
f 79//48 87//55 81//56 
f 81//56 81//23 79//48 
f 81//23 81//23 79//48 
f 79//48 81//23 81//23 
f 79//48 88//57 89//58 
f 90//59 79//48 86//54 
f 78//4 77//4 91//4 
f 91//4 77//4 92//60 
f 77//4 76//47 92//60 
f 76//47 74//46 92//60 
f 93//61 92//60 94//3 
f 91//4 92//60 93//61 
f 88//57 79//48 90//59 
f 87//55 79//48 89//58 
f 95//62 8//5 96//63 
f 10//7 96//63 8//5 
f 96//63 10//7 79//48 
f 97//23 97//23 96//63 
f 95//62 96//63 98//64 
f 98//64 96//63 99//65 
f 99//65 96//63 100//66 
f 100//66 96//63 101//67 
f 96//63 102//68 101//67 
f 97//69 96//63 97//23 
f 97//23 96//63 97//23 
f 97//23 96//63 97//23 
f 74//46 96//63 92//60 
f 92//60 96//63 79//48 
f 96//63 103//70 104//71 
f 96//63 105//69 103//70 
f 105//69 96//63 97//69 
f 102//68 96//63 104//71 
f 84//52 79//48 83//51 
f 28//21 106//72 29//22 
f 29//22 106//72 32//24 
f 106//72 32//23 32//24 
f 107//73 108//74 109//75 
f 108//74 110//76 109//75 
f 109//75 110//76 2//2 
f 2//2 1//1 109//75 
f 109//75 1//1 111//77 
f 112//78 113//79 109//75 
f 113//79 114//80 109//75 
f 114//80 115//81 109//75 
f 109//75 115//81 116//82 
f 116//82 117//83 109//75 
f 117//83 118//84 109//75 
f 109//75 118//84 119//85 
f 119//85 120//86 109//75 
f 109//75 120//86 107//73 
f 111//77 121//87 109//75 
f 109//75 122//88 123//4 
f 123//4 123//23 109//75 
f 109//75 123//23 123//23 
f 123//23 123//23 109//75 
f 109//75 123//23 123//23 
f 124//89 109//75 121//87 
f 125//90 109//75 124//89 
f 109//75 126//91 122//88 
f 126//91 109//75 125//90 
f 109//75 106//72 127//92 
f 127//92 106//72 28//21 
f 127//92 112//78 109//75 
f 112//78 127//92 128//93 
f 128//93 127//92 129//94 
f 130//95 127//92 131//96 
f 131//96 127//92 132//97 
f 132//97 127//92 49//30 
f 49//30 127//92 47//29 
f 47//29 127//92 133//98 
f 129//94 127//92 134//99 
f 134//99 127//92 135//100 
f 135//100 127//92 136//101 
f 136//101 127//92 137//102 
f 137//102 127//92 138//103 
f 138//103 127//92 139//104 
f 139//104 127//92 140//105 
f 140//105 127//92 141//106 
f 141//106 127//92 130//95 
f 133//98 127//92 142//107 
f 127//92 143//108 142//107 
f 144//4 127//92 144//23 
f 144//23 127//92 144//23 
f 144//23 127//92 144//23 
f 144//23 127//92 144//23 
f 127//92 145//109 143//108 
f 127//92 146//110 145//109 
f 147//111 127//92 144//4 
f 146//110 127//92 147//111 
# 167 faces

