# 3ds Max Wavefront OBJ Exporter v0.97b - (c)2007 guruware
# File Created: 04.12.2015 17:31:18

mtllib P710_18A5_R.mtl

#
# object P710_18A5_R_DaS_P710_18A5_R
#

v  36.1814 115.2904 77.3573
v  35.5275 114.5048 79.2285
v  42.1821 112.8700 78.3468
v  41.7735 111.9069 80.3029
v  28.7228 117.5394 76.4768
v  28.1751 116.7458 78.3479
v  30.2867 118.0350 74.3070
v  37.1626 115.6728 75.6789
v  43.9018 113.3172 76.2156
v  27.6867 115.8015 79.6625
v  34.8301 113.5844 80.5430
v  41.0095 110.9509 81.6445
v  20.4600 119.0493 76.0013
v  20.0816 118.2530 77.8725
v  11.2475 120.1169 75.7505
v  11.0297 119.3206 77.6217
v  11.4377 120.7620 73.6179
v  20.8173 119.6844 73.8884
v  10.8517 118.3682 78.9363
v  19.7723 117.3007 79.1870
v  -21.9120 122.0267 77.0276
v  -21.8581 122.8230 75.1564
v  -34.2844 122.8679 76.7975
v  -34.2634 123.6704 74.9263
v  -21.8140 123.4562 73.0782
v  -34.2463 124.3042 72.8737
v  -10.1080 122.5489 73.2528
v  -10.1872 121.9097 75.3548
v  -10.2840 121.1134 77.2259
v  -21.4932 120.2290 79.0028
v  -21.9560 121.0743 78.3421
v  -34.5638 120.9290 78.9430
v  -34.3015 121.9135 78.1120
v  -10.3630 120.1611 78.5405
v  -75.7955 125.5421 74.0053
v  -75.8055 124.6709 75.8764
v  -61.5405 124.9363 74.3272
v  -61.5505 124.0905 76.1983
v  -89.6781 125.1916 75.6189
v  -89.6688 126.0820 73.7478
v  -75.7874 126.2314 72.0412
v  -89.6612 126.7873 71.8076
v  -61.5323 125.6045 72.3325
v  -75.8137 123.6936 77.1911
v  -89.6857 124.2078 76.9335
v  -61.5586 123.1217 77.5129
v  38.8419 115.3837 74.9425
v  36.9983 116.2087 74.0104
v  43.0087 114.1143 74.2609
v  43.3843 113.7619 75.3514
v  36.6967 117.0068 70.8578
v  36.4955 116.6899 72.5623
v  42.8863 114.7451 71.2841
v  42.8532 114.4277 72.8689
v  29.4586 118.6869 72.2305
v  29.7398 119.0161 70.4108
v  21.0633 120.1533 71.8483
v  11.5328 121.2610 71.5187
v  21.2480 120.5206 69.9226
v  11.5789 121.6623 69.5350
v  -21.7993 123.9195 71.1423
v  -34.2405 124.7527 71.0145
v  -21.7993 124.2836 69.3401
v  -34.2405 125.1011 69.2889
v  -10.0816 123.4129 69.3657
v  -10.0816 123.0299 71.2458
v  -75.7847 126.6633 70.4476
v  -89.6586 127.2157 70.2860
v  -75.7847 126.9638 69.0556
v  -89.6586 127.5020 68.9909
v  -61.5296 126.3614 69.1222
v  -61.5296 126.0409 70.6475
v  1.0526 121.6838 73.4194
v  1.0901 122.1818 71.3446
v  1.0901 122.5827 69.3900
v  0.9399 121.0390 75.5439
v  0.8022 120.2427 77.4150
v  0.6897 119.2904 78.7296
v  -47.5855 124.9912 72.6176
v  -47.5828 125.4320 70.8430
v  -47.5828 125.7713 69.1874
v  -47.5937 124.3436 74.6421
v  -47.6036 123.5227 76.5132
v  -47.6118 122.5622 77.8277
v  -75.8227 122.5044 78.1283
v  -84.4608 122.7034 78.0573
v  -89.6656 122.8837 77.9669
v  -61.6408 122.0929 78.3174
v  -47.8830 121.5726 78.5844
v  -10.3088 119.5374 79.0439
v  0.6338 118.6782 79.2326
v  10.7558 117.7164 79.4765
v  19.5724 116.5468 79.8153
v  27.3804 115.0981 80.2548
v  34.4951 113.0745 80.9828
v  40.5799 110.4561 82.0812
# 96 vertices

vn 0.2487 0.8803 0.4041
vn 0.2145 0.8212 0.5289
vn 0.2877 0.8519 0.4376
vn 0.2627 0.7889 0.5555
vn 0.1766 0.9095 0.3764
vn 0.1596 0.8465 0.5079
vn 0.2074 0.9351 0.2875
vn 0.2697 0.9019 0.3375
vn 0.2838 0.8750 0.3923
vn 0.1184 0.7306 0.6724
vn 0.1602 0.7202 0.6750
vn 0.1934 0.6946 0.6929
vn 0.1219 0.9272 0.3542
vn 0.1080 0.8631 0.4933
vn 0.0874 0.9346 0.3449
vn 0.0782 0.8705 0.4860
vn 0.0912 0.9598 0.2655
vn 0.1277 0.9537 0.2722
vn 0.0624 0.7511 0.6573
vn 0.0834 0.7404 0.6670
vn 0.0553 0.8746 0.4816
vn 0.0624 0.9380 0.3410
vn 0.0413 0.8748 0.4827
vn 0.0484 0.9378 0.3438
vn 0.0657 0.9623 0.2639
vn 0.0522 0.9623 0.2668
vn 0.0706 0.9619 0.2640
vn 0.0676 0.9374 0.3416
vn 0.0604 0.8737 0.4827
vn 0.0337 0.6269 0.7784
vn 0.0423 0.7412 0.6700
vn 0.0209 0.6401 0.7680
vn 0.0299 0.7401 0.6719
vn 0.0482 0.7546 0.6544
vn 0.0302 0.9259 0.3766
vn 0.0239 0.8648 0.5015
vn 0.0314 0.9306 0.3646
vn 0.0245 0.8687 0.4947
vn 0.0225 0.8620 0.5065
vn 0.0271 0.9222 0.3858
vn 0.0343 0.9532 0.3005
vn 0.0301 0.9500 0.3109
vn 0.0360 0.9571 0.2876
vn 0.0137 0.7207 0.6931
vn 0.0147 0.7284 0.6850
vn 0.0141 0.7275 0.6859
vn 0.3014 0.9182 0.2570
vn 0.2858 0.9299 0.2315
vn 0.3162 0.9309 0.1829
vn 0.3050 0.9182 0.2529
vn 0.2895 0.9343 0.2079
vn 0.2859 0.9355 0.2078
vn 0.3211 0.9267 0.1952
vn 0.3193 0.9294 0.1850
vn 0.1941 0.9569 0.2162
vn 0.2064 0.9568 0.2047
vn 0.1304 0.9672 0.2179
vn 0.0934 0.9717 0.2171
vn 0.1318 0.9713 0.1982
vn 0.0943 0.9753 0.1995
vn 0.0673 0.9741 0.2159
vn 0.0544 0.9747 0.2169
vn 0.0677 0.9779 0.1976
vn 0.0550 0.9787 0.1977
vn 0.0723 0.9773 0.1990
vn 0.0720 0.9735 0.2169
vn 0.0373 0.9705 0.2381
vn 0.0323 0.9688 0.2457
vn 0.0384 0.9767 0.2110
vn 0.0331 0.9759 0.2158
vn 0.0401 0.9778 0.2057
vn 0.0391 0.9726 0.2294
vn 0.0754 0.9615 0.2643
vn 0.0770 0.9730 0.2176
vn 0.0774 0.9767 0.2003
vn 0.0721 0.9368 0.3422
vn 0.0644 0.8729 0.4836
vn 0.0515 0.7550 0.6537
vn 0.0400 0.9605 0.2754
vn 0.0428 0.9742 0.2217
vn 0.0437 0.9787 0.2008
vn 0.0356 0.9351 0.3526
vn 0.0286 0.8725 0.4878
vn 0.0164 0.7276 0.6858
vn 0.0077 0.6188 0.7855
vn 0.0077 0.6154 0.7882
vn 0.0085 0.6063 0.7952
vn 0.0077 0.6156 0.7880
vn 0.0071 0.6065 0.7951
vn 0.0362 0.6296 0.7760
vn 0.0388 0.6322 0.7738
vn 0.0476 0.6331 0.7726
vn 0.0624 0.6292 0.7747
vn 0.0823 0.6209 0.7796
vn 0.1042 0.6096 0.7858
vn 0.1254 0.5932 0.7952
# 96 vertex normals

vt 0.5021 0.7810 0.0000
vt 0.5035 0.7845 0.0000
vt 0.4913 0.7850 0.0000
vt 0.4922 0.7888 0.0000
vt 0.5155 0.7773 0.0000
vt 0.5166 0.7809 0.0000
vt 0.5125 0.7736 0.0000
vt 0.5002 0.7781 0.0000
vt 0.4879 0.7814 0.0000
vt 0.5174 0.7837 0.0000
vt 0.5047 0.7874 0.0000
vt 0.4936 0.7917 0.0000
vt 0.5302 0.7750 0.0000
vt 0.5309 0.7785 0.0000
vt 0.5466 0.7735 0.0000
vt 0.5470 0.7771 0.0000
vt 0.5462 0.7696 0.0000
vt 0.5294 0.7711 0.0000
vt 0.5473 0.7800 0.0000
vt 0.5315 0.7814 0.0000
vt 0.6055 0.7738 0.0000
vt 0.6054 0.7702 0.0000
vt 0.6275 0.7728 0.0000
vt 0.6275 0.7692 0.0000
vt 0.6053 0.7664 0.0000
vt 0.6274 0.7654 0.0000
vt 0.5845 0.7675 0.0000
vt 0.5847 0.7714 0.0000
vt 0.5849 0.7750 0.0000
vt 0.6047 0.7786 0.0000
vt 0.6055 0.7767 0.0000
vt 0.6279 0.7780 0.0000
vt 0.6275 0.7757 0.0000
vt 0.5850 0.7778 0.0000
vt 0.7012 0.7679 0.0000
vt 0.7011 0.7716 0.0000
vt 0.6759 0.7684 0.0000
vt 0.6758 0.7720 0.0000
vt 0.7257 0.7713 0.0000
vt 0.7257 0.7676 0.0000
vt 0.7012 0.7643 0.0000
vt 0.7258 0.7640 0.0000
vt 0.6760 0.7646 0.0000
vt 0.7010 0.7745 0.0000
vt 0.7256 0.7742 0.0000
vt 0.6758 0.7749 0.0000
vt 0.4970 0.7773 0.0000
vt 0.5002 0.7750 0.0000
vt 0.4891 0.7775 0.0000
vt 0.4887 0.7796 0.0000
vt 0.5002 0.7692 0.0000
vt 0.5008 0.7722 0.0000
vt 0.4888 0.7720 0.0000
vt 0.4891 0.7749 0.0000
vt 0.5137 0.7696 0.0000
vt 0.5129 0.7664 0.0000
vt 0.5288 0.7674 0.0000
vt 0.5459 0.7657 0.0000
vt 0.5282 0.7639 0.0000
vt 0.5457 0.7621 0.0000
vt 0.6052 0.7628 0.0000
vt 0.6274 0.7620 0.0000
vt 0.6051 0.7595 0.0000
vt 0.6274 0.7588 0.0000
vt 0.5843 0.7604 0.0000
vt 0.5844 0.7638 0.0000
vt 0.7013 0.7613 0.0000
vt 0.7258 0.7612 0.0000
vt 0.7013 0.7588 0.0000
vt 0.7259 0.7588 0.0000
vt 0.6761 0.7588 0.0000
vt 0.6760 0.7615 0.0000
vt 0.5647 0.7685 0.0000
vt 0.5645 0.7647 0.0000
vt 0.5644 0.7611 0.0000
vt 0.5649 0.7724 0.0000
vt 0.5652 0.7760 0.0000
vt 0.5654 0.7789 0.0000
vt 0.6512 0.7649 0.0000
vt 0.6513 0.7617 0.0000
vt 0.6513 0.7587 0.0000
vt 0.6512 0.7687 0.0000
vt 0.6511 0.7724 0.0000
vt 0.6511 0.7752 0.0000
vt 0.7010 0.7772 0.0000
vt 0.7163 0.7772 0.0000
vt 0.7255 0.7772 0.0000
vt 0.6759 0.7772 0.0000
vt 0.6515 0.7775 0.0000
vt 0.5849 0.7793 0.0000
vt 0.5654 0.7803 0.0000
vt 0.5475 0.7815 0.0000
vt 0.5318 0.7831 0.0000
vt 0.5179 0.7853 0.0000
vt 0.5052 0.7886 0.0000
vt 0.4943 0.7929 0.0000
# 96 texture coords

g P710_18A5_R_DaS_P710_18A5_R
usemtl paint_whiteSG
s 4
f 1/1/1 2/2/2 3/3/3 
f 3/3/3 2/2/2 4/4/4 
f 1/1/1 5/5/5 2/2/2 
f 2/2/2 5/5/5 6/6/6 
f 5/5/5 1/1/1 7/7/7 
f 7/7/7 1/1/1 8/8/8 
f 1/1/1 3/3/3 8/8/8 
f 8/8/8 3/3/3 9/9/9 
f 10/10/10 11/11/11 6/6/6 
f 6/6/6 11/11/11 2/2/2 
f 11/11/11 12/12/12 2/2/2 
f 2/2/2 12/12/12 4/4/4 
f 5/5/5 13/13/13 6/6/6 
f 6/6/6 13/13/13 14/14/14 
f 13/13/13 15/15/15 14/14/14 
f 14/14/14 15/15/15 16/16/16 
f 15/15/15 13/13/13 17/17/17 
f 17/17/17 13/13/13 18/18/18 
f 13/13/13 5/5/5 18/18/18 
f 18/18/18 5/5/5 7/7/7 
f 19/19/19 20/20/20 16/16/16 
f 16/16/16 20/20/20 14/14/14 
f 20/20/20 10/10/10 14/14/14 
f 14/14/14 10/10/10 6/6/6 
f 21/21/21 22/22/22 23/23/23 
f 23/23/23 22/22/22 24/24/24 
f 22/22/22 25/25/25 24/24/24 
f 24/24/24 25/25/25 26/26/26 
f 25/25/25 22/22/22 27/27/27 
f 27/27/27 22/22/22 28/28/28 
f 22/22/22 21/21/21 28/28/28 
f 28/28/28 21/21/21 29/29/29 
f 30/30/30 31/31/31 32/32/32 
f 32/32/32 31/31/31 33/33/33 
f 31/31/31 21/21/21 33/33/33 
f 33/33/33 21/21/21 23/23/23 
f 21/21/21 31/31/31 29/29/29 
f 29/29/29 31/31/31 34/34/34 
f 35/35/35 36/36/36 37/37/37 
f 37/37/37 36/36/36 38/38/38 
f 36/36/36 35/35/35 39/39/39 
f 39/39/39 35/35/35 40/40/40 
f 35/35/35 41/41/41 40/40/40 
f 40/40/40 41/41/41 42/42/42 
f 41/41/41 35/35/35 43/43/43 
f 43/43/43 35/35/35 37/37/37 
f 44/44/44 36/36/36 45/45/45 
f 45/45/45 36/36/36 39/39/39 
f 36/36/36 44/44/44 38/38/38 
f 38/38/38 44/44/44 46/46/46 
f 47/47/47 48/48/48 8/8/8 
f 8/8/8 48/48/48 7/7/7 
f 48/48/48 47/47/47 49/49/49 
f 49/49/49 47/47/47 50/50/50 
f 50/50/50 47/47/47 9/9/9 
f 9/9/9 47/47/47 8/8/8 
f 51/51/51 52/52/52 53/53/53 
f 53/53/53 52/52/52 54/54/54 
f 52/52/52 48/48/48 54/54/54 
f 54/54/54 48/48/48 49/49/49 
f 48/48/48 52/52/52 7/7/7 
f 7/7/7 52/52/52 55/55/55 
f 55/55/55 52/52/52 56/56/56 
f 56/56/56 52/52/52 51/51/51 
f 57/57/57 58/58/58 18/18/18 
f 18/18/18 58/58/58 17/17/17 
f 57/57/57 59/59/59 58/58/58 
f 58/58/58 59/59/59 60/60/60 
f 57/57/57 55/55/55 59/59/59 
f 59/59/59 55/55/55 56/56/56 
f 57/57/57 18/18/18 55/55/55 
f 55/55/55 18/18/18 7/7/7 
f 25/25/25 61/61/61 26/26/26 
f 26/26/26 61/61/61 62/62/62 
f 61/61/61 63/63/63 62/62/62 
f 62/62/62 63/63/63 64/64/64 
f 63/63/63 61/61/61 65/65/65 
f 65/65/65 61/61/61 66/66/66 
f 61/61/61 25/25/25 66/66/66 
f 66/66/66 25/25/25 27/27/27 
f 41/41/41 67/67/67 42/42/42 
f 42/42/42 67/67/67 68/68/68 
f 67/67/67 69/69/69 68/68/68 
f 68/68/68 69/69/69 70/70/70 
f 69/69/69 67/67/67 71/71/71 
f 71/71/71 67/67/67 72/72/72 
f 67/67/67 41/41/41 72/72/72 
f 72/72/72 41/41/41 43/43/43 
f 73/73/73 74/74/74 27/27/27 
f 27/27/27 74/74/74 66/66/66 
f 74/74/74 75/75/75 66/66/66 
f 66/66/66 75/75/75 65/65/65 
f 75/75/75 74/74/74 60/60/60 
f 60/60/60 74/74/74 58/58/58 
f 74/74/74 73/73/73 58/58/58 
f 58/58/58 73/73/73 17/17/17 
f 76/76/76 28/28/28 77/77/77 
f 77/77/77 28/28/28 29/29/29 
f 28/28/28 76/76/76 27/27/27 
f 27/27/27 76/76/76 73/73/73 
f 76/76/76 15/15/15 73/73/73 
f 73/73/73 15/15/15 17/17/17 
f 15/15/15 76/76/76 16/16/16 
f 16/16/16 76/76/76 77/77/77 
f 34/34/34 78/78/78 29/29/29 
f 29/29/29 78/78/78 77/77/77 
f 78/78/78 19/19/19 77/77/77 
f 77/77/77 19/19/19 16/16/16 
f 79/79/79 80/80/80 43/43/43 
f 43/43/43 80/80/80 72/72/72 
f 80/80/80 81/81/81 72/72/72 
f 72/72/72 81/81/81 71/71/71 
f 81/81/81 80/80/80 64/64/64 
f 64/64/64 80/80/80 62/62/62 
f 80/80/80 79/79/79 62/62/62 
f 62/62/62 79/79/79 26/26/26 
f 82/82/82 83/83/83 24/24/24 
f 24/24/24 83/83/83 23/23/23 
f 83/83/83 82/82/82 38/38/38 
f 38/38/38 82/82/82 37/37/37 
f 82/82/82 79/79/79 37/37/37 
f 37/37/37 79/79/79 43/43/43 
f 79/79/79 82/82/82 26/26/26 
f 26/26/26 82/82/82 24/24/24 
f 84/84/84 83/83/83 46/46/46 
f 46/46/46 83/83/83 38/38/38 
f 83/83/83 84/84/84 23/23/23 
f 23/23/23 84/84/84 33/33/33 
f 44/44/44 45/45/45 85/85/85 
f 85/85/85 45/45/45 86/86/86 
f 45/45/45 87/87/87 86/86/86 
f 44/44/44 85/85/85 46/46/46 
f 46/46/46 85/85/85 88/88/88 
f 84/84/84 46/46/46 89/89/89 
f 89/89/89 46/46/46 88/88/88 
f 33/33/33 84/84/84 32/32/32 
f 32/32/32 84/84/84 89/89/89 
f 31/31/31 30/30/30 34/34/34 
f 34/34/34 30/30/30 90/90/90 
f 91/91/91 78/78/78 90/90/90 
f 90/90/90 78/78/78 34/34/34 
f 19/19/19 78/78/78 92/92/92 
f 92/92/92 78/78/78 91/91/91 
f 20/20/20 19/19/19 93/93/93 
f 93/93/93 19/19/19 92/92/92 
f 10/10/10 20/20/20 94/94/94 
f 94/94/94 20/20/20 93/93/93 
f 11/11/11 10/10/10 95/95/95 
f 95/95/95 10/10/10 94/94/94 
f 12/12/12 11/11/11 96/96/96 
f 96/96/96 11/11/11 95/95/95 
# 151 faces

#
# object P710_18A5_R_DaS_P710_18A5_R_E
#

v  43.0087 114.1143 74.2609
v  43.3843 113.7619 75.3514
v  43.1216 113.1000 74.0382
v  43.4676 112.7619 75.0847
v  43.9479 112.3345 75.8904
v  43.9018 113.3172 76.2156
v  42.8532 114.4277 72.8689
v  42.9783 113.4113 72.6531
v  42.8863 114.7451 71.2841
v  43.0141 113.7293 71.0537
v  -89.6643 122.4172 77.3328
v  -84.4643 122.2784 77.4075
v  -89.6618 122.7846 78.0202
v  -84.4608 122.7034 78.0573
v  -75.8227 122.5044 78.1283
v  -75.8286 122.0234 77.5152
v  -61.6408 122.0929 78.3174
v  -61.6467 121.6142 77.7024
v  -47.8830 121.5726 78.5844
v  -47.8896 121.0910 77.9718
v  -34.5792 120.4386 78.3374
v  -34.5638 120.9290 78.9430
v  -21.4932 120.2290 79.0028
v  -21.5190 119.7373 78.3987
v  -10.3088 119.5374 79.0439
v  -10.3370 119.0466 78.4392
v  0.6338 118.6782 79.2326
v  0.6035 118.1856 78.6294
v  10.7558 117.7164 79.4765
v  10.7186 117.2236 78.8738
v  19.5724 116.5468 79.8153
v  19.5231 116.0570 79.2111
v  27.3804 115.0981 80.2548
v  27.3153 114.6145 79.6472
v  34.4951 113.0745 80.9828
v  34.4129 112.6004 80.3698
v  40.5799 110.4561 82.0812
v  40.4809 109.9950 81.4608
v  -89.6656 122.8837 77.9669
v  42.7780 114.5044 70.9226
v  36.6967 117.0068 70.8578
v  36.5990 116.7329 70.6025
v  29.7398 119.0161 70.4108
v  29.6692 118.7304 70.1578
v  21.2480 120.5206 69.9226
v  21.2027 120.2273 69.6731
v  11.5789 121.6623 69.5350
v  11.5465 121.3661 69.2904
v  -10.0816 123.4129 69.3657
v  -10.1062 123.1180 69.1118
v  -21.7993 124.2836 69.3401
v  -21.8224 123.9880 69.0900
v  -34.2405 125.1011 69.2889
v  -34.2595 124.8052 69.0400
v  1.0901 122.5827 69.3900
v  1.0637 122.2873 69.1396
v  -47.5828 125.7713 69.1874
v  -47.5978 125.4571 69.0293
v  -75.7847 126.9638 69.0556
v  -75.7978 126.6346 68.9713
v  -89.6586 127.5020 68.9909
v  -89.6699 127.1737 68.9025
v  -61.5296 126.3614 69.1222
v  -61.5433 126.0308 69.0446
# 64 vertices

vn 0.9741 0.1483 -0.1708
vn 0.9233 0.1720 -0.3435
vn 0.9736 0.1439 -0.1771
vn 0.9182 0.1706 -0.3576
vn 0.8841 0.1837 -0.4297
vn 0.8832 0.1861 -0.4305
vn 0.9919 0.1258 -0.0177
vn 0.9922 0.1238 -0.0167
vn 0.9925 0.1141 0.0444
vn 0.9924 0.1147 0.0451
vn -0.0303 -0.8815 0.4712
vn -0.0212 -0.8376 0.5458
vn -0.0290 -0.8776 0.4785
vn -0.0204 -0.8367 0.5473
vn -0.0308 -0.7878 0.6152
vn -0.0310 -0.7863 0.6171
vn -0.0363 -0.7884 0.6141
vn -0.0487 -0.7849 0.6177
vn -0.0487 -0.7850 0.6176
vn -0.0494 -0.7757 0.6292
vn -0.0494 -0.7756 0.6293
vn -0.0473 -0.7737 0.6318
vn -0.0608 -0.7736 0.6307
vn -0.0800 -0.7702 0.6328
vn -0.0800 -0.7701 0.6329
vn -0.1071 -0.7665 0.6333
vn -0.1508 -0.7618 0.6301
vn -0.1508 -0.7619 0.6299
vn -0.2247 -0.7504 0.6216
vn -0.2247 -0.7507 0.6213
vn -0.3405 -0.7209 0.6036
vn -0.3405 -0.7213 0.6032
vn -0.4064 -0.7008 0.5863
vn -0.4064 -0.7012 0.5858
vn 0.0011 0.4736 0.8807
vn 0.3127 0.7447 -0.5896
vn 0.3110 0.7404 -0.5959
vn 0.2446 0.6167 -0.7482
vn 0.2421 0.6137 -0.7515
vn 0.1919 0.6238 -0.7576
vn 0.1897 0.6242 -0.7579
vn 0.1307 0.6306 -0.7651
vn 0.1295 0.6306 -0.7653
vn 0.0856 0.6290 -0.7727
vn 0.0850 0.6291 -0.7727
vn 0.0500 0.6492 -0.7589
vn 0.0473 0.6430 -0.7644
vn 0.0473 0.6429 -0.7645
vn 0.0417 0.6417 -0.7658
vn 0.0415 0.6402 -0.7671
vn 0.0585 0.6421 -0.7644
vn 0.0583 0.6423 -0.7642
vn 0.0230 0.4502 -0.8926
vn 0.0228 0.4467 -0.8944
vn 0.0148 0.2475 -0.9688
vn 0.0148 0.2478 -0.9687
vn 0.0149 0.2593 -0.9657
vn 0.0149 0.2594 -0.9656
vn 0.0114 0.2301 -0.9731
vn 0.0113 0.2284 -0.9735
# 60 vertex normals

vt 0.4891 0.7775 0.0000
vt 0.4887 0.7796 0.0000
vt 0.4873 0.7774 0.0000
vt 0.4869 0.7794 0.0000
vt 0.4862 0.7810 0.0000
vt 0.4879 0.7814 0.0000
vt 0.4891 0.7749 0.0000
vt 0.4873 0.7750 0.0000
vt 0.4888 0.7720 0.0000
vt 0.4869 0.7721 0.0000
vt 0.7255 0.7780 0.0000
vt 0.7163 0.7780 0.0000
vt 0.7255 0.7773 0.0000
vt 0.7163 0.7772 0.0000
vt 0.7010 0.7772 0.0000
vt 0.7010 0.7780 0.0000
vt 0.6759 0.7772 0.0000
vt 0.6758 0.7781 0.0000
vt 0.6515 0.7775 0.0000
vt 0.6515 0.7783 0.0000
vt 0.6279 0.7788 0.0000
vt 0.6279 0.7780 0.0000
vt 0.6047 0.7786 0.0000
vt 0.6047 0.7795 0.0000
vt 0.5849 0.7793 0.0000
vt 0.5849 0.7801 0.0000
vt 0.5654 0.7803 0.0000
vt 0.5655 0.7811 0.0000
vt 0.5475 0.7815 0.0000
vt 0.5475 0.7824 0.0000
vt 0.5318 0.7831 0.0000
vt 0.5319 0.7840 0.0000
vt 0.5179 0.7853 0.0000
vt 0.5180 0.7862 0.0000
vt 0.5052 0.7886 0.0000
vt 0.5053 0.7894 0.0000
vt 0.4943 0.7929 0.0000
vt 0.4945 0.7937 0.0000
vt 0.7255 0.7772 0.0000
vt 0.4886 0.7712 0.0000
vt 0.5002 0.7692 0.0000
vt 0.5000 0.7685 0.0000
vt 0.5129 0.7664 0.0000
vt 0.5128 0.7657 0.0000
vt 0.5282 0.7639 0.0000
vt 0.5282 0.7632 0.0000
vt 0.5457 0.7621 0.0000
vt 0.5457 0.7614 0.0000
vt 0.5843 0.7604 0.0000
vt 0.5843 0.7597 0.0000
vt 0.6051 0.7595 0.0000
vt 0.6051 0.7589 0.0000
vt 0.6274 0.7588 0.0000
vt 0.6274 0.7582 0.0000
vt 0.5644 0.7611 0.0000
vt 0.5644 0.7604 0.0000
vt 0.6513 0.7587 0.0000
vt 0.6513 0.7581 0.0000
vt 0.7013 0.7588 0.0000
vt 0.7013 0.7582 0.0000
vt 0.7259 0.7588 0.0000
vt 0.7259 0.7582 0.0000
vt 0.6761 0.7588 0.0000
vt 0.6761 0.7582 0.0000
# 64 texture coords

g P710_18A5_R_DaS_P710_18A5_R_E
usemtl paint_whiteSG
s 1
f 97/97/97 98/98/98 99/99/99 
f 99/99/99 98/98/98 100/100/100 
f 101/101/101 100/100/100 102/102/102 
f 102/102/102 100/100/100 98/98/98 
f 103/103/103 104/104/104 105/105/105 
f 105/105/105 104/104/104 106/106/106 
f 99/99/99 104/104/104 97/97/97 
f 97/97/97 104/104/104 103/103/103 
s 3
f 107/107/107 108/108/108 109/109/109 
f 109/109/109 108/108/108 110/110/110 
f 110/110/110 108/108/108 111/111/111 
f 111/111/111 108/108/108 112/112/112 
f 111/111/111 112/112/112 113/113/113 
f 113/113/113 112/112/112 114/114/113 
f 113/113/113 114/114/113 115/115/114 
f 115/115/114 114/114/113 116/116/115 
f 116/116/115 117/117/116 115/115/114 
f 115/115/114 117/117/116 118/118/117 
f 118/118/117 117/117/116 119/119/118 
f 119/119/118 117/117/116 120/120/118 
f 119/119/118 120/120/118 121/121/119 
f 121/121/119 120/120/118 122/122/119 
f 121/121/119 122/122/119 123/123/120 
f 123/123/120 122/122/119 124/124/121 
f 123/123/120 124/124/121 125/125/122 
f 125/125/122 124/124/121 126/126/122 
f 125/125/122 126/126/122 127/127/123 
f 127/127/123 126/126/122 128/128/124 
f 127/127/123 128/128/124 129/129/125 
f 129/129/125 128/128/124 130/130/126 
f 129/129/125 130/130/126 131/131/127 
f 131/131/127 130/130/126 132/132/128 
f 131/131/127 132/132/128 133/133/129 
f 133/133/129 132/132/128 134/134/130 
s 4
f 110/110/131 135/135/131 109/109/131 
s 18
f 105/105/132 136/136/133 137/137/134 
f 137/137/134 136/136/133 138/138/135 
f 137/137/134 138/138/135 139/139/136 
f 139/139/136 138/138/135 140/140/137 
f 139/139/136 140/140/137 141/141/138 
f 141/141/138 140/140/137 142/142/139 
f 141/141/138 142/142/139 143/143/140 
f 143/143/140 142/142/139 144/144/141 
f 145/145/142 146/146/142 147/147/143 
f 147/147/143 146/146/142 148/148/144 
f 147/147/143 148/148/144 149/149/145 
f 149/149/145 148/148/144 150/150/146 
f 143/143/140 144/144/141 151/151/147 
f 151/151/147 144/144/141 152/152/148 
f 151/151/147 152/152/148 145/145/142 
f 145/145/142 152/152/148 146/146/142 
f 149/149/145 150/150/146 153/153/149 
f 153/153/149 150/150/146 154/154/150 
f 155/155/151 156/156/152 157/157/153 
f 157/157/153 156/156/152 158/158/154 
f 159/159/155 160/160/156 155/155/151 
f 155/155/151 160/160/156 156/156/152 
f 153/153/149 154/154/150 159/159/155 
f 159/159/155 154/154/150 160/160/156 
# 59 faces

