# 3ds Max Wavefront OBJ Exporter v0.97b - (c)2007 guruware
# File Created: 09.11.2015 11:08:09

mtllib X8163_325B_R.mtl

#
# object X8163_325B_R_DTaSI_X8163_325B_R
#

v  -65.4946 43.9401 86.8435
v  -65.4947 42.9568 87.5297
v  -52.6087 43.5473 86.9641
v  -52.6090 42.4986 87.6950
v  -39.3752 42.0236 87.8455
v  -39.3749 43.1357 87.0727
v  -101.6189 68.0108 76.5039
v  -90.1439 68.0823 76.3584
v  -101.6245 73.9349 73.7108
v  -90.1528 74.5963 73.2512
v  -39.3373 66.6959 75.7295
v  -39.3244 74.6367 71.6805
v  -52.5774 67.2389 75.8471
v  -52.5666 74.9982 71.9215
v  -65.4860 75.1232 72.2936
v  -65.4886 67.6753 75.9919
v  -90.1117 43.8319 87.2280
v  -90.1119 44.7473 86.5893
v  -101.5994 44.2679 87.0974
v  -101.5995 45.2054 86.4488
v  -78.0302 44.3296 86.7186
v  -78.0300 43.4065 87.3639
v  -78.0506 67.9664 76.1736
v  -78.0561 74.9925 72.7576
v  -65.4923 54.6866 81.9436
v  -65.4937 48.9157 84.3792
v  -52.5961 54.1717 81.9985
v  -52.6037 48.4815 84.4708
v  -39.3690 48.0368 84.5394
v  -39.3598 53.6447 82.0205
v  -90.1256 55.6345 81.7886
v  -90.1174 49.7816 84.1618
v  -78.0390 55.1758 81.8733
v  -78.0338 49.3430 84.2748
v  -101.6027 50.2365 84.0362
v  -101.6077 56.0557 81.6819
v  -65.4907 60.8489 79.2191
v  -52.5873 60.2986 79.2099
v  -39.3492 59.7131 79.1768
v  -90.1346 61.7185 79.2246
v  -78.0448 61.3307 79.2279
v  -101.6132 61.9980 79.1878
v  -52.5588 80.9212 68.7063
v  -39.3151 80.7749 68.3453
v  -65.4841 80.6898 69.3118
v  -78.0596 80.1526 70.0251
v  -90.1586 79.3121 70.7686
v  -101.6281 78.1091 71.5066
v  -33.6673 42.6405 87.2685
v  -33.5058 41.7464 87.8853
v  -34.4313 47.6698 84.6587
v  -35.2362 53.3945 82.0737
v  -36.1236 59.5796 79.1754
v  -37.1680 66.6744 75.6922
v  -38.3664 74.6758 71.6424
v  -109.3152 77.0394 71.9709
v  -109.2374 73.2971 73.9803
v  -109.1317 67.8637 76.5552
v  -109.0233 62.1329 79.1202
v  -108.9163 56.3009 81.5743
v  -108.8120 50.5109 83.9210
v  -108.7135 45.4818 86.3293
v  -108.6908 44.5332 86.9830
# 63 vertices

vn 0.0070 0.4681 0.8836
vn 0.0097 0.5722 0.8200
vn 0.0081 0.4752 0.8798
vn 0.0105 0.5717 0.8204
vn 0.0143 0.5706 0.8211
vn 0.0094 0.4823 0.8760
vn 0.0046 0.4173 0.9088
vn 0.0137 0.4202 0.9073
vn 0.0031 0.4440 0.8960
vn 0.0153 0.4463 0.8948
vn 0.0242 0.4477 0.8939
vn 0.0272 0.4637 0.8856
vn 0.0251 0.4437 0.8958
vn 0.0290 0.4617 0.8866
vn 0.0294 0.4562 0.8894
vn 0.0248 0.4358 0.8997
vn 0.0117 0.5722 0.8200
vn 0.0075 0.4586 0.8886
vn 0.0109 0.5691 0.8222
vn 0.0060 0.4564 0.8898
vn 0.0069 0.4623 0.8867
vn 0.0103 0.5729 0.8195
vn 0.0205 0.4269 0.9041
vn 0.0242 0.4510 0.8922
vn 0.0115 0.3971 0.9177
vn 0.0076 0.4152 0.9097
vn 0.0137 0.4068 0.9134
vn 0.0092 0.4238 0.9057
vn 0.0092 0.4330 0.9013
vn 0.0133 0.4162 0.9092
vn 0.0074 0.3827 0.9238
vn 0.0064 0.4038 0.9148
vn 0.0097 0.3885 0.9214
vn 0.0068 0.4083 0.9128
vn 0.0040 0.4020 0.9156
vn 0.0032 0.3814 0.9244
vn 0.0177 0.4167 0.9089
vn 0.0198 0.4257 0.9046
vn 0.0193 0.4328 0.9013
vn 0.0105 0.4006 0.9162
vn 0.0151 0.4075 0.9131
vn 0.0042 0.3980 0.9174
vn 0.0309 0.4768 0.8785
vn 0.0290 0.4771 0.8784
vn 0.0303 0.4728 0.8807
vn 0.0254 0.4685 0.8831
vn 0.0153 0.4662 0.8846
vn 0.0013 0.4667 0.8844
vn 0.0122 0.4858 0.8740
vn 0.0214 0.5703 0.8211
vn 0.0100 0.4394 0.8982
vn 0.0124 0.4176 0.9085
vn 0.0175 0.4332 0.9011
vn 0.0196 0.4479 0.8939
vn 0.0169 0.4628 0.8863
vn -0.0096 0.4707 0.8822
vn -0.0050 0.4450 0.8955
vn -0.0020 0.4181 0.9084
vn -0.0014 0.3983 0.9172
vn -0.0010 0.3818 0.9242
vn 0.0005 0.4010 0.9161
vn 0.0029 0.4545 0.8908
vn 0.0082 0.5677 0.8232
# 63 vertex normals

vt 0.3822 0.0207 0.0000
vt 0.3824 0.0154 0.0000
vt 0.4395 0.0213 0.0000
vt 0.4397 0.0157 0.0000
vt 0.4986 0.0160 0.0000
vt 0.4984 0.0220 0.0000
vt 0.2166 0.1298 0.0000
vt 0.2676 0.1326 0.0000
vt 0.2153 0.1589 0.0000
vt 0.2662 0.1646 0.0000
vt 0.4935 0.1381 0.0000
vt 0.4919 0.1777 0.0000
vt 0.4346 0.1375 0.0000
vt 0.4330 0.1761 0.0000
vt 0.3756 0.1734 0.0000
vt 0.3772 0.1365 0.0000
vt 0.2729 0.0147 0.0000
vt 0.2727 0.0196 0.0000
vt 0.2217 0.0145 0.0000
vt 0.2215 0.0195 0.0000
vt 0.3264 0.0200 0.0000
vt 0.3266 0.0151 0.0000
vt 0.3213 0.1348 0.0000
vt 0.3198 0.1695 0.0000
vt 0.3799 0.0731 0.0000
vt 0.3811 0.0453 0.0000
vt 0.4373 0.0734 0.0000
vt 0.4385 0.0459 0.0000
vt 0.4974 0.0465 0.0000
vt 0.4962 0.0738 0.0000
vt 0.2703 0.0724 0.0000
vt 0.2716 0.0445 0.0000
vt 0.3241 0.0727 0.0000
vt 0.3253 0.0448 0.0000
vt 0.2204 0.0443 0.0000
vt 0.2192 0.0721 0.0000
vt 0.3786 0.1029 0.0000
vt 0.4360 0.1032 0.0000
vt 0.4950 0.1035 0.0000
vt 0.2690 0.1016 0.0000
vt 0.3228 0.1024 0.0000
vt 0.2179 0.1006 0.0000
vt 0.4317 0.2061 0.0000
vt 0.4906 0.2088 0.0000
vt 0.3744 0.2014 0.0000
vt 0.3187 0.1955 0.0000
vt 0.2651 0.1883 0.0000
vt 0.2144 0.1799 0.0000
vt 0.5238 0.0207 0.0000
vt 0.5248 0.0160 0.0000
vt 0.5194 0.0458 0.0000
vt 0.5146 0.0735 0.0000
vt 0.5093 0.1036 0.0000
vt 0.5032 0.1385 0.0000
vt 0.4961 0.1781 0.0000
vt 0.1805 0.1732 0.0000
vt 0.1817 0.1544 0.0000
vt 0.1833 0.1277 0.0000
vt 0.1850 0.0999 0.0000
vt 0.1867 0.0719 0.0000
vt 0.1884 0.0443 0.0000
vt 0.1899 0.0195 0.0000
vt 0.1902 0.0144 0.0000
# 63 texture coords

g X8163_325B_R_DTaSI_X8163_325B_R
usemtl windowglass_1SG
s 1
f 1/1/1 2/2/2 3/3/3 
f 2/2/2 4/4/4 3/3/3 
f 5/5/5 6/6/6 4/4/4 
f 6/6/6 3/3/3 4/4/4 
f 7/7/7 8/8/8 9/9/9 
f 8/8/8 10/10/10 9/9/9 
f 11/11/11 12/12/12 13/13/13 
f 12/12/12 14/14/14 13/13/13 
f 15/15/15 16/16/16 14/14/14 
f 16/16/16 13/13/13 14/14/14 
f 17/17/17 18/18/18 19/19/19 
f 18/18/18 20/20/20 19/19/19 
f 18/18/18 17/17/17 21/21/21 
f 17/17/17 22/22/22 21/21/21 
f 2/2/2 1/1/1 22/22/22 
f 1/1/1 21/21/21 22/22/22 
f 23/23/23 16/16/16 24/24/24 
f 16/16/16 15/15/15 24/24/24 
f 8/8/8 23/23/23 10/10/10 
f 23/23/23 24/24/24 10/10/10 
f 25/25/25 26/26/26 27/27/27 
f 26/26/26 28/28/28 27/27/27 
f 29/29/29 30/30/30 28/28/28 
f 30/30/30 27/27/27 28/28/28 
f 6/6/6 29/29/29 3/3/3 
f 29/29/29 28/28/28 3/3/3 
f 26/26/26 1/1/1 28/28/28 
f 1/1/1 3/3/3 28/28/28 
f 31/31/31 32/32/32 33/33/33 
f 32/32/32 34/34/34 33/33/33 
f 26/26/26 25/25/25 34/34/34 
f 25/25/25 33/33/33 34/34/34 
f 1/1/1 26/26/26 21/21/21 
f 26/26/26 34/34/34 21/21/21 
f 32/32/32 18/18/18 34/34/34 
f 18/18/18 21/21/21 34/34/34 
f 18/18/18 32/32/32 20/20/20 
f 32/32/32 35/35/35 20/20/20 
f 32/32/32 31/31/31 35/35/35 
f 31/31/31 36/36/36 35/35/35 
f 16/16/16 37/37/37 13/13/13 
f 37/37/37 38/38/38 13/13/13 
f 39/39/39 11/11/11 38/38/38 
f 11/11/11 13/13/13 38/38/38 
f 30/30/30 39/39/39 27/27/27 
f 39/39/39 38/38/38 27/27/27 
f 37/37/37 25/25/25 38/38/38 
f 25/25/25 27/27/27 38/38/38 
f 8/8/8 40/40/40 23/23/23 
f 40/40/40 41/41/41 23/23/23 
f 37/37/37 16/16/16 41/41/41 
f 16/16/16 23/23/23 41/41/41 
f 25/25/25 37/37/37 33/33/33 
f 37/37/37 41/41/41 33/33/33 
f 40/40/40 31/31/31 41/41/41 
f 31/31/31 33/33/33 41/41/41 
f 31/31/31 40/40/40 36/36/36 
f 40/40/40 42/42/42 36/36/36 
f 40/40/40 8/8/8 42/42/42 
f 8/8/8 7/7/7 42/42/42 
f 43/43/43 14/14/14 44/44/44 
f 14/14/14 12/12/12 44/44/44 
f 43/43/43 45/45/45 14/14/14 
f 45/45/45 15/15/15 14/14/14 
f 45/45/45 46/46/46 15/15/15 
f 46/46/46 24/24/24 15/15/15 
f 46/46/46 47/47/47 24/24/24 
f 47/47/47 10/10/10 24/24/24 
f 47/47/47 48/48/48 10/10/10 
f 48/48/48 9/9/9 10/10/10 
f 6/6/6 5/5/5 49/49/49 
f 5/5/5 50/50/50 49/49/49 
f 29/29/29 6/6/6 51/51/51 
f 6/6/6 49/49/49 51/51/51 
f 30/30/30 29/29/29 52/52/52 
f 29/29/29 51/51/51 52/52/52 
f 39/39/39 30/30/30 53/53/53 
f 30/30/30 52/52/52 53/53/53 
f 11/11/11 39/39/39 54/54/54 
f 39/39/39 53/53/53 54/54/54 
f 12/12/12 11/11/11 55/55/55 
f 11/11/11 54/54/54 55/55/55 
f 44/44/44 12/12/12 55/55/55 
f 48/48/48 56/56/56 9/9/9 
f 56/56/56 57/57/57 9/9/9 
f 58/58/58 7/7/7 57/57/57 
f 7/7/7 9/9/9 57/57/57 
f 58/58/58 59/59/59 7/7/7 
f 59/59/59 42/42/42 7/7/7 
f 59/59/59 60/60/60 42/42/42 
f 60/60/60 36/36/36 42/42/42 
f 60/60/60 61/61/61 36/36/36 
f 61/61/61 35/35/35 36/36/36 
f 61/61/61 62/62/62 35/35/35 
f 62/62/62 20/20/20 35/35/35 
f 62/62/62 63/63/63 20/20/20 
f 63/63/63 19/19/19 20/20/20 
# 97 faces

