# 3ds Max Wavefront OBJ Exporter v0.97b - (c)2007 guruware
# File Created: 26.10.2015 10:11:09

mtllib J715_8A_34DG_L.mtl

#
# object J715_8A_34DG_L_1_DTaSI_J715_8A_34DG_L
#

v  -114.1487 74.7403 -83.3841
v  -113.9309 81.1688 -82.6829
v  -101.0532 74.7403 -83.3395
v  -101.0742 81.1688 -82.6373
v  -89.1970 74.7403 -83.3162
v  -89.1970 81.1688 -82.6144
v  -79.5784 74.7403 -83.2906
v  -79.5737 81.1688 -82.5888
v  -113.4944 94.0025 -81.0853
v  -113.3101 99.3983 -80.2967
v  -101.1172 94.0025 -81.0369
v  -101.1362 99.3695 -80.2518
v  -79.5737 94.0025 -80.9888
v  -89.1970 94.0025 -81.0149
v  -79.6387 99.3209 -80.2166
v  -89.1970 99.3461 -80.2356
v  -161.9932 94.0025 -80.6050
v  -161.5366 98.5089 -79.9900
v  -157.5283 94.0025 -80.7054
v  -157.5317 99.4081 -79.9324
v  -161.1411 100.2240 -79.7486
v  -159.2188 103.1318 -79.3606
v  -160.3911 101.8182 -79.5320
v  -157.6680 81.1686 -82.2780
v  -157.7358 74.7403 -82.9693
v  -163.2979 81.1681 -82.1398
v  -163.9517 74.7403 -82.8145
v  -164.3262 68.4859 -83.3921
v  -157.8037 67.5421 -83.6398
v  -163.8862 67.2462 -83.5142
v  -76.2468 64.9022 -84.2096
v  -77.5049 64.1512 -84.2837
v  -79.5854 67.5477 -83.9714
v  -73.6969 68.3819 -83.8790
v  -74.2859 67.0453 -84.0043
v  -75.1501 65.8658 -84.1158
v  -75.4973 103.2062 -79.6136
v  -74.4331 101.9774 -79.8348
v  -79.5730 87.5875 -81.8039
v  -73.4327 81.1686 -82.5676
v  -73.4122 87.5873 -81.7839
v  -73.3820 98.4212 -80.3472
v  -73.7040 100.5143 -80.0425
v  -73.5096 69.8282 -83.7421
v  -73.4608 74.7403 -83.2697
v  -157.7207 104.0768 -79.2156
v  -148.9961 105.0333 -79.2171
v  -148.9961 99.4247 -80.1045
v  -154.3403 105.0364 -79.1082
v  -156.0918 104.7784 -79.1207
v  -114.5283 63.4952 -84.4243
v  -114.3918 67.5421 -84.0634
v  -103.7615 63.4979 -84.3878
v  -101.1228 67.5421 -84.0185
v  -137.7834 63.4984 -84.3810
v  -137.7119 67.5421 -84.0251
v  -125.9021 63.4950 -84.4433
v  -125.8584 67.5421 -84.0837
v  -157.8403 63.5055 -83.9942
v  -148.9961 63.5021 -84.1956
v  -148.9961 67.5421 -83.8383
v  -162.3257 65.1520 -83.7400
v  -161.2949 64.3314 -83.8366
v  -159.8423 63.7259 -83.9241
v  -164.3892 70.4283 -83.2137
v  -162.6455 87.5868 -81.3868
v  -157.5986 87.5873 -81.5064
v  -101.0955 87.5875 -81.8521
v  -113.7126 87.5875 -81.8991
v  -148.9961 81.1686 -82.4715
v  -148.9961 87.5873 -81.6951
v  -148.9961 94.0025 -80.8892
v  -148.9961 74.7403 -83.1662
v  -94.1770 63.4982 -84.3734
v  -89.2859 67.5421 -83.9961
v  -89.1970 87.5875 -81.8298
v  -137.5840 74.7403 -83.3512
v  -137.4692 81.1688 -82.6554
v  -137.3538 87.5873 -81.8775
v  -137.2383 94.0025 -81.0699
v  -137.1394 99.4359 -80.2811
v  -125.7102 74.7403 -83.4068
v  -125.5769 81.1688 -82.7084
v  -125.4434 87.5875 -81.9270
v  -125.3096 94.0025 -81.1155
v  -125.1956 99.4232 -80.3252
v  -84.5896 63.4984 -84.3600
v  -101.1570 105.0148 -79.3350
v  -89.1968 104.9824 -79.3272
v  -73.3947 94.0025 -80.9705
v  -137.0371 105.0259 -79.3868
v  -125.0771 105.0256 -79.4231
v  -113.1169 105.0228 -79.3853
v  -80.0215 104.9593 -79.3182
v  -163.1797 66.1446 -83.6337
v  -78.8752 63.6449 -84.3347
v  -80.3364 63.4984 -84.3546
v  -78.3896 104.7385 -79.3479
v  -76.8914 104.0701 -79.4637
# 99 vertices

vn 0.0031 0.1007 -0.9949
vn 0.0031 0.1148 -0.9934
vn 0.0023 0.1007 -0.9949
vn 0.0023 0.1148 -0.9934
vn 0.0023 0.1011 -0.9949
vn 0.0031 0.1343 -0.9909
vn 0.0031 0.1526 -0.9883
vn 0.0023 0.1343 -0.9909
vn 0.0015 0.1503 -0.9886
vn 0.0015 0.1518 -0.9884
vn -0.0168 0.1335 -0.9909
vn -0.0168 0.1473 -0.9890
vn -0.0168 0.1503 -0.9885
vn -0.0168 0.1510 -0.9884
vn -0.0153 0.1548 -0.9878
vn -0.0168 0.1534 -0.9880
vn -0.0168 0.1141 -0.9933
vn -0.0168 0.0999 -0.9949
vn -0.0183 0.1137 -0.9933
vn -0.0183 0.0999 -0.9948
vn -0.0183 0.0923 -0.9956
vn -0.0168 0.0912 -0.9957
vn -0.0183 0.0912 -0.9957
vn 0.0023 0.0931 -0.9957
vn 0.0023 0.0938 -0.9956
vn 0.0023 0.0950 -0.9955
vn 0.0023 0.0935 -0.9956
vn 0.0023 0.1556 -0.9878
vn 0.0015 0.1534 -0.9882
vn 0.0023 0.1236 -0.9923
vn 0.0031 0.1236 -0.9923
vn 0.0023 0.1464 -0.9892
vn 0.0015 0.1510 -0.9885
vn 0.0023 0.0961 -0.9954
vn 0.0031 0.1011 -0.9949
vn -0.0153 0.1556 -0.9877
vn -0.0153 0.1572 -0.9874
vn -0.0153 0.1503 -0.9885
vn 0.0023 0.0889 -0.9960
vn 0.0023 0.0919 -0.9958
vn 0.0031 0.0888 -0.9960
vn 0.0023 0.0927 -0.9957
vn -0.0107 0.0881 -0.9961
vn -0.0107 0.0916 -0.9957
vn -0.0015 0.0885 -0.9961
vn -0.0015 0.0916 -0.9958
vn -0.0183 0.0881 -0.9959
vn -0.0153 0.0882 -0.9960
vn -0.0153 0.0916 -0.9957
vn -0.0183 0.0893 -0.9958
vn -0.0183 0.0885 -0.9959
vn -0.0183 0.0946 -0.9953
vn -0.0183 0.1228 -0.9923
vn -0.0168 0.1228 -0.9923
vn -0.0153 0.1141 -0.9934
vn -0.0153 0.1228 -0.9923
vn -0.0153 0.1335 -0.9909
vn -0.0153 0.0999 -0.9949
vn 0.0023 0.0912 -0.9958
vn -0.0107 0.1003 -0.9949
vn -0.0107 0.1141 -0.9934
vn -0.0092 0.1228 -0.9924
vn -0.0092 0.1335 -0.9910
vn -0.0092 0.1510 -0.9885
vn -0.0015 0.1003 -0.9950
vn -0.0015 0.1145 -0.9934
vn -0.0008 0.1228 -0.9924
vn -0.0008 0.1343 -0.9909
vn 0.0000 0.1518 -0.9884
vn 0.0031 0.1602 -0.9871
vn 0.0015 0.1594 -0.9872
vn 0.0023 0.1335 -0.9910
vn -0.0092 0.1580 -0.9874
vn 0.0000 0.1587 -0.9873
vn 0.0038 0.1594 -0.9872
vn 0.0015 0.1587 -0.9873
vn -0.0183 0.0900 -0.9958
vn 0.0015 0.1580 -0.9874
vn 0.0023 0.1572 -0.9876
# 79 vertex normals

vt 0.2649 0.6263 0.0000
vt 0.2660 0.5927 0.0000
vt 0.3328 0.6262 0.0000
vt 0.3327 0.5927 0.0000
vt 0.3942 0.6262 0.0000
vt 0.3942 0.5927 0.0000
vt 0.4441 0.6262 0.0000
vt 0.4441 0.5927 0.0000
vt 0.2683 0.5257 0.0000
vt 0.2692 0.4975 0.0000
vt 0.3324 0.5257 0.0000
vt 0.3323 0.4976 0.0000
vt 0.4441 0.5257 0.0000
vt 0.3942 0.5257 0.0000
vt 0.4438 0.4978 0.0000
vt 0.3942 0.4977 0.0000
vt 0.0169 0.5254 0.0000
vt 0.0192 0.5018 0.0000
vt 0.0400 0.5254 0.0000
vt 0.0400 0.4971 0.0000
vt 0.0213 0.4928 0.0000
vt 0.0313 0.4776 0.0000
vt 0.0252 0.4845 0.0000
vt 0.0393 0.5925 0.0000
vt 0.0390 0.6260 0.0000
vt 0.0101 0.5924 0.0000
vt 0.0067 0.6259 0.0000
vt 0.0048 0.6585 0.0000
vt 0.0386 0.6635 0.0000
vt 0.0071 0.6650 0.0000
vt 0.4613 0.6774 0.0000
vt 0.4548 0.6813 0.0000
vt 0.4440 0.6637 0.0000
vt 0.4745 0.6593 0.0000
vt 0.4715 0.6663 0.0000
vt 0.4670 0.6724 0.0000
vt 0.4652 0.4774 0.0000
vt 0.4707 0.4839 0.0000
vt 0.4441 0.5592 0.0000
vt 0.4759 0.5927 0.0000
vt 0.4760 0.5592 0.0000
vt 0.4762 0.5025 0.0000
vt 0.4745 0.4916 0.0000
vt 0.4755 0.6518 0.0000
vt 0.4758 0.6262 0.0000
vt 0.0390 0.4726 0.0000
vt 0.0843 0.4677 0.0000
vt 0.0843 0.4972 0.0000
vt 0.0565 0.4676 0.0000
vt 0.0475 0.4690 0.0000
vt 0.2629 0.6848 0.0000
vt 0.2636 0.6637 0.0000
vt 0.3187 0.6848 0.0000
vt 0.3324 0.6637 0.0000
vt 0.1424 0.6847 0.0000
vt 0.1428 0.6637 0.0000
vt 0.2040 0.6848 0.0000
vt 0.2042 0.6637 0.0000
vt 0.0384 0.6845 0.0000
vt 0.0843 0.6846 0.0000
vt 0.0843 0.6636 0.0000
vt 0.0152 0.6759 0.0000
vt 0.0205 0.6801 0.0000
vt 0.0280 0.6833 0.0000
vt 0.0045 0.6484 0.0000
vt 0.0135 0.5589 0.0000
vt 0.0397 0.5590 0.0000
vt 0.3325 0.5592 0.0000
vt 0.2671 0.5592 0.0000
vt 0.0843 0.5926 0.0000
vt 0.0843 0.5591 0.0000
vt 0.0843 0.5256 0.0000
vt 0.0843 0.6261 0.0000
vt 0.3684 0.6848 0.0000
vt 0.3937 0.6637 0.0000
vt 0.3942 0.5592 0.0000
vt 0.1434 0.6262 0.0000
vt 0.1440 0.5927 0.0000
vt 0.1446 0.5592 0.0000
vt 0.1452 0.5257 0.0000
vt 0.1457 0.4972 0.0000
vt 0.2050 0.6263 0.0000
vt 0.2057 0.5927 0.0000
vt 0.2063 0.5592 0.0000
vt 0.2070 0.5257 0.0000
vt 0.2076 0.4973 0.0000
vt 0.4181 0.6848 0.0000
vt 0.3322 0.4679 0.0000
vt 0.3942 0.4681 0.0000
vt 0.4761 0.5256 0.0000
vt 0.1462 0.4679 0.0000
vt 0.2082 0.4679 0.0000
vt 0.2702 0.4679 0.0000
vt 0.4418 0.4682 0.0000
vt 0.0107 0.6707 0.0000
vt 0.4477 0.6840 0.0000
vt 0.4401 0.6848 0.0000
vt 0.4502 0.4694 0.0000
vt 0.4580 0.4729 0.0000
# 99 texture coords

g J715_8A_34DG_L_1_DTaSI_J715_8A_34DG_L
usemtl windowglass_SG
s 1
f 1/1/1 2/2/2 3/3/1 
f 3/3/1 2/2/2 4/4/2 
s 2
f 5/5/3 6/6/4 7/7/5 
f 7/7/5 6/6/4 8/8/4 
s 3
f 9/9/6 10/10/7 11/11/6 
f 11/11/6 10/10/7 12/12/7 
s 4
f 13/13/8 14/14/8 15/15/9 
f 15/15/9 14/14/8 16/16/10 
s 5
f 17/17/11 18/18/12 19/19/11 
f 19/19/11 18/18/12 20/20/13 
s off
f 18/18/12 21/21/14 20/20/13 
s 6
f 22/22/15 20/20/13 23/23/16 
f 20/20/13 21/21/14 23/23/16 
s 7
f 24/24/17 25/25/18 26/26/19 
f 26/26/19 25/25/18 27/27/20 
s off
f 28/28/21 29/29/22 30/30/23 
f 31/31/24 32/32/24 33/33/25 
f 33/33/25 34/34/26 35/35/25 
f 31/31/24 33/33/25 36/36/27 
f 33/33/25 35/35/25 36/36/27 
f 15/15/9 37/37/28 38/38/29 
s 8
f 8/8/4 39/39/30 40/40/2 
f 40/40/2 39/39/30 41/41/31 
s off
f 42/42/32 15/15/9 43/43/33 
s 9
f 33/33/25 7/7/5 44/44/34 
f 44/44/34 7/7/5 45/45/35 
s 10
f 40/40/2 45/45/35 8/8/4 
f 8/8/4 45/45/35 7/7/5 
s off
f 22/22/15 46/46/36 20/20/13 
s 11
f 47/47/37 48/48/38 49/49/37 
f 49/49/37 48/48/38 20/20/13 
s 12
f 49/49/37 20/20/13 50/50/37 
f 50/50/37 20/20/13 46/46/36 
s 13
f 51/51/39 52/52/40 53/53/41 
f 53/53/41 52/52/40 54/54/42 
s 14
f 55/55/43 56/56/44 57/57/45 
f 57/57/45 56/56/44 58/58/46 
s 15
f 59/59/47 29/29/22 60/60/48 
f 60/60/48 29/29/22 61/61/49 
s off
f 62/62/50 29/29/22 63/63/51 
f 64/64/47 29/29/22 59/59/47 
s 16
f 29/29/22 65/65/52 25/25/18 
f 25/25/18 65/65/52 27/27/20 
s 17
f 26/26/19 66/66/53 24/24/17 
f 24/24/17 66/66/53 67/67/54 
s 18
f 11/11/6 68/68/31 9/9/6 
f 9/9/6 68/68/31 69/69/31 
s 19
f 24/24/17 67/67/54 70/70/55 
f 70/70/55 67/67/54 71/71/56 
s 20
f 72/72/57 19/19/11 48/48/38 
f 48/48/38 19/19/11 20/20/13 
s 21
f 3/3/1 54/54/42 1/1/1 
f 1/1/1 54/54/42 52/52/40 
s 22
f 29/29/22 25/25/18 61/61/49 
f 61/61/49 25/25/18 73/73/58 
s 23
f 70/70/55 73/73/58 24/24/17 
f 24/24/17 73/73/58 25/25/18 
s off
f 74/74/59 54/54/42 75/75/27 
s 24
f 13/13/8 39/39/30 14/14/8 
f 14/14/8 39/39/30 76/76/30 
s 25
f 7/7/5 33/33/25 5/5/3 
f 5/5/3 33/33/25 75/75/27 
s 26
f 60/60/48 61/61/49 55/55/43 
f 55/55/43 61/61/49 56/56/44 
s 27
f 61/61/49 73/73/58 56/56/44 
f 56/56/44 73/73/58 77/77/60 
s 28
f 73/73/58 70/70/55 77/77/60 
f 77/77/60 70/70/55 78/78/61 
s 29
f 70/70/55 71/71/56 78/78/61 
f 78/78/61 71/71/56 79/79/62 
s 30
f 72/72/57 48/48/38 80/80/63 
f 80/80/63 48/48/38 81/81/64 
s 31
f 56/56/44 77/77/60 58/58/46 
f 58/58/46 77/77/60 82/82/65 
s 32
f 77/77/60 78/78/61 82/82/65 
f 82/82/65 78/78/61 83/83/66 
s 33
f 78/78/61 79/79/62 83/83/66 
f 83/83/66 79/79/62 84/84/67 
s 34
f 80/80/63 81/81/64 85/85/68 
f 85/85/68 81/81/64 86/86/69 
s 35
f 57/57/45 58/58/46 51/51/39 
f 51/51/39 58/58/46 52/52/40 
s 36
f 58/58/46 82/82/65 52/52/40 
f 52/52/40 82/82/65 1/1/1 
s 37
f 82/82/65 83/83/66 1/1/1 
f 1/1/1 83/83/66 2/2/2 
s 38
f 83/83/66 84/84/67 2/2/2 
f 2/2/2 84/84/67 69/69/31 
s 39
f 85/85/68 86/86/69 9/9/6 
f 9/9/6 86/86/69 10/10/7 
s off
f 87/87/42 74/74/59 75/75/27 
s 40
f 88/88/70 89/89/71 12/12/7 
f 12/12/7 89/89/71 16/16/10 
s 41
f 14/14/8 11/11/6 16/16/10 
f 16/16/10 11/11/6 12/12/7 
s 42
f 11/11/6 14/14/8 68/68/31 
f 68/68/31 14/14/8 76/76/30 
s 43
f 4/4/2 6/6/4 3/3/1 
f 3/3/1 6/6/4 5/5/3 
s 44
f 5/5/3 75/75/27 3/3/1 
f 3/3/1 75/75/27 54/54/42 
s off
f 15/15/9 38/38/29 43/43/33 
s 45
f 90/90/72 13/13/8 42/42/32 
f 42/42/32 13/13/8 15/15/9 
s 46
f 48/48/38 47/47/37 81/81/64 
f 81/81/64 47/47/37 91/91/73 
s 47
f 81/81/64 91/91/73 86/86/69 
f 86/86/69 91/91/73 92/92/74 
s 48
f 86/86/69 92/92/74 10/10/7 
f 10/10/7 92/92/74 93/93/75 
s 49
f 10/10/7 93/93/75 12/12/7 
f 12/12/7 93/93/75 88/88/70 
s 50
f 89/89/71 94/94/76 16/16/10 
f 16/16/10 94/94/76 15/15/9 
s 51
f 39/39/30 13/13/8 41/41/31 
f 41/41/31 13/13/8 90/90/72 
s 52
f 66/66/53 17/17/11 67/67/54 
f 67/67/54 17/17/11 19/19/11 
s 53
f 68/68/31 4/4/2 69/69/31 
f 69/69/31 4/4/2 2/2/2 
s 54
f 67/67/54 19/19/11 71/71/56 
f 71/71/56 19/19/11 72/72/57 
s 55
f 39/39/30 8/8/4 76/76/30 
f 76/76/30 8/8/4 6/6/4 
s 56
f 71/71/56 72/72/57 79/79/62 
f 79/79/62 72/72/57 80/80/63 
s 57
f 79/79/62 80/80/63 84/84/67 
f 84/84/67 80/80/63 85/85/68 
s 58
f 84/84/67 85/85/68 69/69/31 
f 69/69/31 85/85/68 9/9/6 
s 59
f 6/6/4 4/4/2 76/76/30 
f 76/76/30 4/4/2 68/68/31 
s off
f 28/28/21 65/65/52 29/29/22 
f 29/29/22 95/95/77 30/30/23 
f 62/62/50 95/95/77 29/29/22 
f 64/64/47 63/63/51 29/29/22 
f 74/74/59 53/53/41 54/54/42 
f 33/33/25 44/44/34 34/34/26 
f 32/32/24 96/96/24 33/33/25 
f 96/96/24 97/97/42 33/33/25 
s 60
f 97/97/42 87/87/42 33/33/25 
f 33/33/25 87/87/42 75/75/27 
s off
f 94/94/76 98/98/78 15/15/9 
f 98/98/78 99/99/79 15/15/9 
f 15/15/9 99/99/79 37/37/28 
# 145 faces

