# 3ds Max Wavefront OBJ Exporter v0.97b - (c)2007 guruware
# File Created: 13.11.2015 17:00:17

mtllib H026_305B_L.mtl

#
# object H026_305B_L_DTaSI_H026_305B_L
#

v  -49.9981 85.2522 -69.9654
v  -50.0026 80.4476 -72.2038
v  -56.1084 85.1635 -70.0068
v  -56.0943 80.4769 -72.1903
v  -49.9857 75.7877 -74.3749
v  -56.0803 75.8960 -74.3246
v  -62.2488 75.9855 -74.2830
v  -62.2603 80.4729 -72.1922
v  -62.2187 85.0749 -70.0481
v  -68.5207 76.0489 -74.2533
v  -68.5311 80.4240 -72.2149
v  -74.5333 76.0642 -74.2475
v  -74.5429 80.3091 -72.2747
v  -74.8656 84.6234 -70.2581
v  -68.5421 84.8492 -70.1531
v  -85.0152 83.7475 -70.7721
v  -85.0184 79.8294 -72.5298
v  -90.1254 83.0750 -71.0291
v  -90.1230 79.4856 -72.6747
v  -85.0126 75.9062 -74.3274
v  -90.1197 75.7772 -74.3827
v  -95.6514 75.5684 -74.4794
v  -95.6527 78.9262 -72.9324
v  -95.2357 82.4025 -71.2861
v  -102.0144 78.0013 -73.3549
v  -102.0142 75.2257 -74.6538
v  -108.7924 75.3734 -74.5753
v  -108.7923 76.8937 -73.9053
v  -108.7922 78.4139 -73.1640
v  -102.0139 80.4082 -72.2285
v  -101.9796 37.0388 -92.4322
v  -108.7974 37.1985 -92.3583
v  -101.9883 42.2225 -90.0156
v  -108.7967 42.2974 -89.9809
v  -108.7961 47.3963 -87.6034
v  -101.9957 47.5940 -87.5114
v  -95.6160 47.5352 -87.5390
v  -95.6034 42.1435 -90.0522
v  -95.1618 36.8790 -92.5062
v  -90.0524 36.7757 -92.5539
v  -90.0655 42.0564 -90.0927
v  -90.0774 47.4637 -87.5724
v  -84.9688 47.3849 -87.6092
v  -84.9603 41.9648 -90.1352
v  -84.9429 36.6723 -92.6017
v  -74.7950 36.4657 -92.6972
v  -74.4789 41.7673 -90.2268
v  -68.4428 36.3198 -92.7646
v  -68.4509 41.6381 -90.2866
v  -74.4840 47.2089 -87.6912
v  -68.4600 47.0853 -87.7485
v  -62.1732 46.9463 -87.8129
v  -62.1588 41.4970 -90.3519
v  -62.0907 36.1739 -92.8320
v  -108.7953 53.4954 -84.7597
v  -102.0006 53.3408 -84.8323
v  -108.7945 59.5946 -81.9159
v  -102.0040 58.8612 -82.2587
v  -95.6315 58.6668 -82.3501
v  -95.6249 53.2093 -84.8941
v  -90.0871 53.1240 -84.9342
v  -90.0951 58.5711 -82.3954
v  -84.9860 58.5227 -82.4186
v  -84.9776 53.0605 -84.9642
v  -68.4712 52.7905 -85.0903
v  -74.4924 52.9092 -85.0351
v  -74.5019 58.3960 -82.4785
v  -68.4828 58.2817 -82.5317
v  -62.2024 58.1438 -82.5958
v  -62.1881 52.6523 -85.1544
v  -102.0070 63.5534 -80.0712
v  -108.7940 63.7350 -79.9854
v  -108.7935 67.8754 -78.0549
v  -102.0098 67.7324 -78.1240
v  -95.6426 67.6955 -78.1417
v  -95.6373 63.4089 -80.1396
v  -90.1021 63.3384 -80.1734
v  -90.1085 67.6752 -78.1520
v  -85.0000 67.6603 -78.1600
v  -84.9934 63.3026 -80.1909
v  -68.4929 63.0868 -80.2928
v  -74.5102 63.1973 -80.2413
v  -74.5178 67.5902 -78.1943
v  -68.5022 67.4897 -78.2414
v  -62.2263 67.3576 -78.3029
v  -62.2149 62.9491 -80.3569
v  -95.6477 71.7867 -76.2354
v  -90.1146 71.8310 -76.2151
v  -85.0065 71.8557 -76.2048
v  -68.5112 71.7739 -76.2452
v  -74.5252 71.8518 -76.2086
v  -62.2376 71.6584 -76.2990
v  -102.0124 71.7129 -76.2713
v  -108.7929 71.6244 -76.3151
v  -56.0534 67.2137 -78.3698
v  -56.0668 71.5266 -76.3603
v  -49.9697 71.3835 -76.4268
v  -49.9539 67.0618 -78.4403
v  -56.0247 57.9984 -82.6633
v  -56.0396 62.8021 -80.4251
v  -49.9379 62.6491 -80.4962
v  -49.9205 57.8482 -82.7329
v  -55.9896 46.8045 -87.8786
v  -56.0076 52.5088 -85.2209
v  -49.9005 52.3618 -85.2890
v  -49.8797 46.6611 -87.9450
v  -55.9543 36.0371 -92.8952
v  -55.9718 41.3567 -90.4168
v  -49.8596 41.2168 -90.4815
v  -49.8178 35.9004 -92.9584
v  -36.6972 80.2770 -72.2828
v  -35.4413 75.2590 -74.6206
v  -37.1001 78.6435 -73.0439
v  -36.6432 75.0749 -74.7064
v  -39.0980 75.4570 -74.5285
v  -39.2286 79.9281 -72.4455
v  -37.9532 85.2951 -69.9451
v  -33.2890 66.6596 -78.6268
v  -35.5761 66.6985 -78.6088
v  -34.3652 70.9593 -76.6237
v  -36.1256 71.0205 -76.5953
v  -38.8016 66.7749 -78.5734
v  -38.9535 71.1045 -76.5563
v  -31.1163 57.9785 -82.6711
v  -34.4150 57.5423 -82.8745
v  -32.2026 62.3190 -80.6489
v  -35.0240 62.3273 -80.6452
v  -38.4804 57.5807 -82.8568
v  -38.6487 62.3729 -80.6242
v  -28.0704 45.8084 -88.3406
v  -32.9476 46.1981 -88.1594
v  -29.5933 51.8934 -85.5058
v  -33.6954 51.9790 -85.4662
v  -38.0761 46.3653 -88.0819
v  -38.2821 52.0805 -85.4193
v  -25.4544 35.3564 -93.2097
v  -31.5882 35.4936 -93.1464
v  -26.7624 40.5824 -90.7751
v  -32.2543 40.7601 -90.6929
v  -37.7219 35.6307 -93.0830
v  -37.8846 40.9282 -90.6150
v  -43.9756 85.2736 -69.9552
v  -43.9551 80.3970 -72.2272
v  -43.9352 75.6680 -74.4304
v  -43.8988 66.9058 -78.5127
v  -43.9167 71.2342 -76.4961
v  -43.8606 57.6958 -82.8035
v  -43.8805 62.4931 -80.5685
v  -43.8143 46.5171 -88.0116
v  -43.8379 52.2136 -85.3577
v  -43.7699 35.7655 -93.0207
v  -43.7918 41.0772 -90.5460
v  -79.9319 80.1074 -72.3881
v  -79.9404 84.1854 -70.5151
v  -79.9239 76.0092 -74.2773
v  -79.9101 67.6395 -78.1707
v  -79.9168 71.8709 -76.1989
v  -79.8956 58.4703 -82.4435
v  -79.9032 63.2624 -80.2104
v  -79.8790 47.3044 -87.6468
v  -79.8870 52.9940 -84.9954
v  -79.8734 41.8723 -90.1781
v  -79.8690 36.5690 -92.6494
# 163 vertices

vn 0.0000 0.4223 -0.9065
vn 0.0000 0.4223 -0.9064
vn -0.0000 0.4223 -0.9064
vn 0.0002 0.4222 -0.9065
vn 0.0005 0.4223 -0.9064
vn 0.0010 0.4211 -0.9070
vn 0.0026 0.4218 -0.9067
vn 0.0046 0.4237 -0.9058
vn 0.0002 0.4226 -0.9063
vn 0.0017 0.4120 -0.9112
vn -0.0011 0.4145 -0.9100
vn -0.0065 0.4143 -0.9101
vn -0.0026 0.4191 -0.9079
vn -0.0005 0.4189 -0.9080
vn -0.0003 0.4197 -0.9077
vn 0.0006 0.4207 -0.9072
vn -0.0006 0.4225 -0.9063
vn -0.0035 0.4243 -0.9055
vn 0.0010 0.4254 -0.9050
vn 0.0009 0.4185 -0.9082
vn -0.0016 0.4121 -0.9111
vn 0.0013 0.4219 -0.9067
vn 0.0008 0.4311 -0.9023
vn -0.0005 0.4252 -0.9051
vn 0.0001 0.4225 -0.9064
vn 0.0000 0.4226 -0.9063
vn 0.0000 0.4225 -0.9063
vn -0.0000 0.4226 -0.9063
vn -0.0000 0.4225 -0.9063
vn -0.0000 0.4225 -0.9064
vn 0.0000 0.4225 -0.9064
vn 0.0001 0.4224 -0.9064
vn -0.0000 0.4224 -0.9064
vn 0.0000 0.4224 -0.9064
vn 0.0001 0.4223 -0.9064
vn -0.0001 0.4226 -0.9063
vn -0.0001 0.4225 -0.9064
vn -0.0001 0.4225 -0.9063
vn -0.0001 0.4224 -0.9064
vn -0.0002 0.4225 -0.9064
vn -0.0001 0.4218 -0.9067
vn -0.0002 0.4222 -0.9065
vn -0.0001 0.4223 -0.9064
vn -0.0002 0.4224 -0.9064
vn 0.0004 0.4213 -0.9069
vn -0.0003 0.4214 -0.9069
vn 0.0001 0.4221 -0.9065
vn 0.0001 0.4206 -0.9072
vn -0.0002 0.4201 -0.9075
vn 0.0001 0.4223 -0.9065
vn 0.0038 0.4171 -0.9088
vn 0.0076 0.4196 -0.9077
vn 0.0008 0.4197 -0.9077
vn -0.0001 0.4217 -0.9067
# 54 vertex normals

vt 0.3861 0.8171 0.0000
vt 0.3862 0.8341 0.0000
vt 0.3665 0.8175 0.0000
vt 0.3666 0.8341 0.0000
vt 0.3863 0.8505 0.0000
vt 0.3668 0.8503 0.0000
vt 0.3470 0.8501 0.0000
vt 0.3469 0.8342 0.0000
vt 0.3469 0.8180 0.0000
vt 0.3270 0.8500 0.0000
vt 0.3268 0.8345 0.0000
vt 0.3077 0.8501 0.0000
vt 0.3076 0.8351 0.0000
vt 0.3064 0.8198 0.0000
vt 0.3267 0.8189 0.0000
vt 0.2740 0.8233 0.0000
vt 0.2740 0.8371 0.0000
vt 0.2576 0.8257 0.0000
vt 0.2577 0.8384 0.0000
vt 0.2741 0.8509 0.0000
vt 0.2578 0.8514 0.0000
vt 0.2401 0.8523 0.0000
vt 0.2400 0.8405 0.0000
vt 0.2412 0.8281 0.0000
vt 0.2196 0.8439 0.0000
vt 0.2197 0.8537 0.0000
vt 0.1980 0.8533 0.0000
vt 0.1980 0.8481 0.0000
vt 0.1979 0.8429 0.0000
vt 0.2196 0.8355 0.0000
vt 0.2207 0.9886 0.0000
vt 0.1989 0.9881 0.0000
vt 0.2206 0.9702 0.0000
vt 0.1988 0.9701 0.0000
vt 0.1987 0.9521 0.0000
vt 0.2204 0.9513 0.0000
vt 0.2409 0.9513 0.0000
vt 0.2410 0.9704 0.0000
vt 0.2426 0.9890 0.0000
vt 0.2589 0.9892 0.0000
vt 0.2588 0.9706 0.0000
vt 0.2586 0.9515 0.0000
vt 0.2750 0.9516 0.0000
vt 0.2751 0.9708 0.0000
vt 0.2753 0.9895 0.0000
vt 0.3078 0.9900 0.0000
vt 0.3087 0.9713 0.0000
vt 0.3282 0.9904 0.0000
vt 0.3280 0.9716 0.0000
vt 0.3085 0.9520 0.0000
vt 0.3278 0.9523 0.0000
vt 0.3480 0.9527 0.0000
vt 0.3482 0.9719 0.0000
vt 0.3485 0.9907 0.0000
vt 0.1985 0.9306 0.0000
vt 0.2203 0.9310 0.0000
vt 0.1984 0.9090 0.0000
vt 0.2201 0.9115 0.0000
vt 0.2405 0.9120 0.0000
vt 0.2407 0.9313 0.0000
vt 0.2584 0.9315 0.0000
vt 0.2583 0.9122 0.0000
vt 0.2746 0.9123 0.0000
vt 0.2748 0.9316 0.0000
vt 0.3277 0.9322 0.0000
vt 0.3084 0.9319 0.0000
vt 0.3082 0.9125 0.0000
vt 0.3275 0.9128 0.0000
vt 0.3476 0.9131 0.0000
vt 0.3478 0.9325 0.0000
vt 0.2200 0.8949 0.0000
vt 0.1983 0.8944 0.0000
vt 0.1982 0.8797 0.0000
vt 0.2199 0.8801 0.0000
vt 0.2403 0.8801 0.0000
vt 0.2404 0.8952 0.0000
vt 0.2581 0.8954 0.0000
vt 0.2580 0.8801 0.0000
vt 0.2744 0.8800 0.0000
vt 0.2745 0.8954 0.0000
vt 0.3274 0.8958 0.0000
vt 0.3081 0.8955 0.0000
vt 0.3080 0.8800 0.0000
vt 0.3272 0.8802 0.0000
vt 0.3473 0.8806 0.0000
vt 0.3475 0.8961 0.0000
vt 0.2402 0.8656 0.0000
vt 0.2579 0.8654 0.0000
vt 0.2743 0.8652 0.0000
vt 0.3271 0.8651 0.0000
vt 0.3078 0.8650 0.0000
vt 0.3472 0.8654 0.0000
vt 0.2198 0.8660 0.0000
vt 0.1981 0.8665 0.0000
vt 0.3671 0.8809 0.0000
vt 0.3670 0.8657 0.0000
vt 0.3865 0.8661 0.0000
vt 0.3866 0.8814 0.0000
vt 0.3674 0.9135 0.0000
vt 0.3672 0.8965 0.0000
vt 0.3868 0.8969 0.0000
vt 0.3870 0.9139 0.0000
vt 0.3678 0.9531 0.0000
vt 0.3676 0.9329 0.0000
vt 0.3872 0.9333 0.0000
vt 0.3874 0.9534 0.0000
vt 0.3682 0.9911 0.0000
vt 0.3680 0.9723 0.0000
vt 0.3876 0.9727 0.0000
vt 0.3878 0.9914 0.0000
vt 0.4288 0.8344 0.0000
vt 0.4329 0.8521 0.0000
vt 0.4275 0.8402 0.0000
vt 0.4291 0.8528 0.0000
vt 0.4212 0.8515 0.0000
vt 0.4207 0.8357 0.0000
vt 0.4246 0.8167 0.0000
vt 0.4400 0.8824 0.0000
vt 0.4327 0.8823 0.0000
vt 0.4365 0.8672 0.0000
vt 0.4308 0.8671 0.0000
vt 0.4224 0.8821 0.0000
vt 0.4218 0.8668 0.0000
vt 0.4472 0.9130 0.0000
vt 0.4366 0.9146 0.0000
vt 0.4436 0.8977 0.0000
vt 0.4346 0.8978 0.0000
vt 0.4236 0.9146 0.0000
vt 0.4230 0.8977 0.0000
vt 0.4572 0.9560 0.0000
vt 0.4416 0.9547 0.0000
vt 0.4522 0.9345 0.0000
vt 0.4391 0.9343 0.0000
vt 0.4252 0.9542 0.0000
vt 0.4244 0.9340 0.0000
vt 0.4659 0.9928 0.0000
vt 0.4462 0.9925 0.0000
vt 0.4615 0.9744 0.0000
vt 0.4439 0.9739 0.0000
vt 0.4266 0.9921 0.0000
vt 0.4259 0.9734 0.0000
vt 0.4053 0.8169 0.0000
vt 0.4055 0.8341 0.0000
vt 0.4057 0.8508 0.0000
vt 0.4060 0.8818 0.0000
vt 0.4059 0.8665 0.0000
vt 0.4064 0.9143 0.0000
vt 0.4062 0.8974 0.0000
vt 0.4068 0.9538 0.0000
vt 0.4066 0.9337 0.0000
vt 0.4072 0.9918 0.0000
vt 0.4070 0.9730 0.0000
vt 0.2903 0.8359 0.0000
vt 0.2902 0.8216 0.0000
vt 0.2904 0.8504 0.0000
vt 0.2907 0.8800 0.0000
vt 0.2906 0.8650 0.0000
vt 0.2909 0.9124 0.0000
vt 0.2908 0.8954 0.0000
vt 0.2913 0.9518 0.0000
vt 0.2911 0.9317 0.0000
vt 0.2914 0.9710 0.0000
vt 0.2916 0.9897 0.0000
# 163 texture coords

g H026_305B_L_DTaSI_H026_305B_L
usemtl windowglass_1SG
s 1
f 1/1/1 2/2/2 3/3/2 
f 3/3/2 2/2/2 4/4/2 
f 5/5/2 6/6/2 2/2/2 
f 2/2/2 6/6/2 4/4/2 
f 6/6/2 7/7/2 4/4/2 
f 4/4/2 7/7/2 8/8/3 
f 8/8/3 9/9/3 4/4/2 
f 4/4/2 9/9/3 3/3/2 
f 7/7/2 10/10/4 8/8/3 
f 8/8/3 10/10/4 11/11/5 
f 12/12/6 13/13/7 10/10/4 
f 10/10/4 13/13/7 11/11/5 
f 14/14/8 15/15/9 13/13/7 
f 13/13/7 15/15/9 11/11/5 
f 9/9/3 8/8/3 15/15/9 
f 15/15/9 8/8/3 11/11/5 
f 16/16/10 17/17/11 18/18/12 
f 18/18/12 17/17/11 19/19/13 
f 17/17/11 20/20/14 19/19/13 
f 19/19/13 20/20/14 21/21/15 
f 22/22/16 23/23/17 21/21/15 
f 21/21/15 23/23/17 19/19/13 
f 23/23/17 24/24/18 19/19/13 
f 19/19/13 24/24/18 18/18/12 
f 23/23/17 22/22/16 25/25/19 
f 25/25/19 22/22/16 26/26/20 
f 27/27/21 28/28/22 26/26/20 
f 26/26/20 28/28/22 25/25/19 
f 28/28/22 29/29/23 25/25/19 
f 25/25/19 29/29/23 30/30/24 
f 24/24/18 23/23/17 30/30/24 
f 30/30/24 23/23/17 25/25/19 
f 31/31/25 32/32/26 33/33/27 
f 33/33/27 32/32/26 34/34/26 
f 34/34/26 35/35/28 33/33/27 
f 33/33/27 35/35/28 36/36/29 
f 36/36/29 37/37/30 33/33/27 
f 33/33/27 37/37/30 38/38/31 
f 39/39/25 31/31/25 38/38/31 
f 38/38/31 31/31/25 33/33/27 
f 40/40/32 39/39/25 41/41/31 
f 41/41/31 39/39/25 38/38/31 
f 37/37/30 42/42/30 38/38/31 
f 38/38/31 42/42/30 41/41/31 
f 42/42/30 43/43/33 41/41/31 
f 41/41/31 43/43/33 44/44/34 
f 45/45/32 40/40/32 44/44/34 
f 44/44/34 40/40/32 41/41/31 
f 46/46/32 47/47/32 48/48/35 
f 48/48/35 47/47/32 49/49/35 
f 50/50/34 51/51/2 47/47/32 
f 47/47/32 51/51/2 49/49/35 
f 51/51/2 52/52/35 49/49/35 
f 49/49/35 52/52/35 53/53/35 
f 54/54/35 48/48/35 53/53/35 
f 53/53/35 48/48/35 49/49/35 
f 35/35/28 55/55/36 36/36/29 
f 36/36/29 55/55/36 56/56/37 
f 57/57/36 58/58/38 55/55/36 
f 55/55/36 58/58/38 56/56/37 
f 58/58/38 59/59/37 56/56/37 
f 56/56/37 59/59/37 60/60/37 
f 37/37/30 36/36/29 60/60/37 
f 60/60/37 36/36/29 56/56/37 
f 42/42/30 37/37/30 61/61/37 
f 61/61/37 37/37/30 60/60/37 
f 59/59/37 62/62/37 60/60/37 
f 60/60/37 62/62/37 61/61/37 
f 62/62/37 63/63/39 61/61/37 
f 61/61/37 63/63/39 64/64/39 
f 43/43/33 42/42/30 64/64/39 
f 64/64/39 42/42/30 61/61/37 
f 51/51/2 50/50/34 65/65/2 
f 65/65/2 50/50/34 66/66/34 
f 67/67/33 68/68/2 66/66/34 
f 66/66/34 68/68/2 65/65/2 
f 68/68/2 69/69/2 65/65/2 
f 65/65/2 69/69/2 70/70/2 
f 52/52/35 51/51/2 70/70/2 
f 70/70/2 51/51/2 65/65/2 
f 58/58/38 57/57/36 71/71/37 
f 71/71/37 57/57/36 72/72/40 
f 73/73/41 74/74/42 72/72/40 
f 72/72/40 74/74/42 71/71/37 
f 74/74/42 75/75/43 71/71/37 
f 71/71/37 75/75/43 76/76/37 
f 59/59/37 58/58/38 76/76/37 
f 76/76/37 58/58/38 71/71/37 
f 62/62/37 59/59/37 77/77/40 
f 77/77/40 59/59/37 76/76/37 
f 75/75/43 78/78/39 76/76/37 
f 76/76/37 78/78/39 77/77/40 
f 78/78/39 79/79/44 77/77/40 
f 77/77/40 79/79/44 80/80/39 
f 63/63/39 62/62/37 80/80/39 
f 80/80/39 62/62/37 77/77/40 
f 68/68/2 67/67/33 81/81/2 
f 81/81/2 67/67/33 82/82/33 
f 83/83/39 84/84/3 82/82/33 
f 82/82/33 84/84/3 81/81/2 
f 84/84/3 85/85/2 81/81/2 
f 81/81/2 85/85/2 86/86/2 
f 69/69/2 68/68/2 86/86/2 
f 86/86/2 68/68/2 81/81/2 
f 75/75/43 87/87/45 78/78/39 
f 78/78/39 87/87/45 88/88/41 
f 87/87/45 22/22/16 88/88/41 
f 88/88/41 22/22/16 21/21/15 
f 20/20/14 89/89/46 21/21/15 
f 21/21/15 89/89/46 88/88/41 
f 89/89/46 79/79/44 88/88/41 
f 88/88/41 79/79/44 78/78/39 
f 84/84/3 83/83/39 90/90/3 
f 90/90/3 83/83/39 91/91/47 
f 12/12/6 10/10/4 91/91/47 
f 91/91/47 10/10/4 90/90/3 
f 10/10/4 7/7/2 90/90/3 
f 90/90/3 7/7/2 92/92/2 
f 85/85/2 84/84/3 92/92/2 
f 92/92/2 84/84/3 90/90/3 
f 87/87/45 75/75/43 93/93/48 
f 93/93/48 75/75/43 74/74/42 
f 74/74/42 73/73/41 93/93/48 
f 93/93/48 73/73/41 94/94/49 
f 27/27/21 26/26/20 94/94/49 
f 94/94/49 26/26/20 93/93/48 
f 22/22/16 87/87/45 26/26/20 
f 26/26/20 87/87/45 93/93/48 
f 95/95/2 85/85/2 96/96/2 
f 96/96/2 85/85/2 92/92/2 
f 7/7/2 6/6/2 92/92/2 
f 92/92/2 6/6/2 96/96/2 
f 6/6/2 5/5/2 96/96/2 
f 96/96/2 5/5/2 97/97/2 
f 98/98/2 95/95/2 97/97/2 
f 97/97/2 95/95/2 96/96/2 
f 99/99/2 69/69/2 100/100/2 
f 100/100/2 69/69/2 86/86/2 
f 85/85/2 95/95/2 86/86/2 
f 86/86/2 95/95/2 100/100/2 
f 95/95/2 98/98/2 100/100/2 
f 100/100/2 98/98/2 101/101/2 
f 102/102/35 99/99/2 101/101/2 
f 101/101/2 99/99/2 100/100/2 
f 103/103/35 52/52/35 104/104/35 
f 104/104/35 52/52/35 70/70/2 
f 69/69/2 99/99/2 70/70/2 
f 70/70/2 99/99/2 104/104/35 
f 99/99/2 102/102/35 104/104/35 
f 104/104/35 102/102/35 105/105/35 
f 106/106/35 103/103/35 105/105/35 
f 105/105/35 103/103/35 104/104/35 
f 107/107/35 54/54/35 108/108/35 
f 108/108/35 54/54/35 53/53/35 
f 52/52/35 103/103/35 53/53/35 
f 53/53/35 103/103/35 108/108/35 
f 103/103/35 106/106/35 108/108/35 
f 108/108/35 106/106/35 109/109/35 
f 110/110/35 107/107/35 109/109/35 
f 109/109/35 107/107/35 108/108/35 
f 111/111/1 112/112/1 113/113/1 
f 113/113/1 112/112/1 114/114/1 
f 114/114/1 115/115/1 113/113/1 
f 113/113/1 115/115/1 116/116/1 
f 117/117/1 111/111/1 116/116/1 
f 116/116/1 111/111/1 113/113/1 
f 118/118/50 119/119/50 120/120/50 
f 120/120/50 119/119/50 121/121/1 
f 119/119/50 122/122/1 121/121/1 
f 121/121/1 122/122/1 123/123/1 
f 115/115/1 114/114/1 123/123/1 
f 123/123/1 114/114/1 121/121/1 
f 114/114/1 112/112/1 121/121/1 
f 121/121/1 112/112/1 120/120/50 
f 124/124/50 125/125/50 126/126/50 
f 126/126/50 125/125/50 127/127/50 
f 125/125/50 128/128/50 127/127/50 
f 127/127/50 128/128/50 129/129/50 
f 122/122/1 119/119/50 129/129/50 
f 129/129/50 119/119/50 127/127/50 
f 119/119/50 118/118/50 127/127/50 
f 127/127/50 118/118/50 126/126/50 
f 130/130/50 131/131/50 132/132/50 
f 132/132/50 131/131/50 133/133/50 
f 131/131/50 134/134/50 133/133/50 
f 133/133/50 134/134/50 135/135/50 
f 128/128/50 125/125/50 135/135/50 
f 135/135/50 125/125/50 133/133/50 
f 125/125/50 124/124/50 133/133/50 
f 133/133/50 124/124/50 132/132/50 
f 136/136/50 137/137/50 138/138/50 
f 138/138/50 137/137/50 139/139/50 
f 137/137/50 140/140/50 139/139/50 
f 139/139/50 140/140/50 141/141/50 
f 134/134/50 131/131/50 141/141/50 
f 141/141/50 131/131/50 139/139/50 
f 131/131/50 130/130/50 139/139/50 
f 139/139/50 130/130/50 138/138/50 
f 1/1/1 142/142/1 2/2/2 
f 2/2/2 142/142/1 143/143/1 
f 117/117/1 116/116/1 142/142/1 
f 142/142/1 116/116/1 143/143/1 
f 115/115/1 144/144/1 116/116/1 
f 116/116/1 144/144/1 143/143/1 
f 144/144/1 5/5/2 143/143/1 
f 143/143/1 5/5/2 2/2/2 
f 122/122/1 145/145/1 123/123/1 
f 123/123/1 145/145/1 146/146/1 
f 145/145/1 98/98/2 146/146/1 
f 146/146/1 98/98/2 97/97/2 
f 5/5/2 144/144/1 97/97/2 
f 97/97/2 144/144/1 146/146/1 
f 144/144/1 115/115/1 146/146/1 
f 146/146/1 115/115/1 123/123/1 
f 128/128/50 147/147/50 129/129/50 
f 129/129/50 147/147/50 148/148/1 
f 147/147/50 102/102/35 148/148/1 
f 148/148/1 102/102/35 101/101/2 
f 98/98/2 145/145/1 101/101/2 
f 101/101/2 145/145/1 148/148/1 
f 145/145/1 122/122/1 148/148/1 
f 148/148/1 122/122/1 129/129/50 
f 134/134/50 149/149/50 135/135/50 
f 135/135/50 149/149/50 150/150/50 
f 149/149/50 106/106/35 150/150/50 
f 150/150/50 106/106/35 105/105/35 
f 102/102/35 147/147/50 105/105/35 
f 105/105/35 147/147/50 150/150/50 
f 147/147/50 128/128/50 150/150/50 
f 150/150/50 128/128/50 135/135/50 
f 140/140/50 151/151/50 141/141/50 
f 141/141/50 151/151/50 152/152/50 
f 151/151/50 110/110/35 152/152/50 
f 152/152/50 110/110/35 109/109/35 
f 106/106/35 149/149/50 109/109/35 
f 109/109/35 149/149/50 152/152/50 
f 149/149/50 134/134/50 152/152/50 
f 152/152/50 134/134/50 141/141/50 
f 17/17/11 16/16/10 153/153/51 
f 153/153/51 16/16/10 154/154/52 
f 14/14/8 13/13/7 154/154/52 
f 154/154/52 13/13/7 153/153/51 
f 13/13/7 12/12/6 153/153/51 
f 153/153/51 12/12/6 155/155/53 
f 20/20/14 17/17/11 155/155/53 
f 155/155/53 17/17/11 153/153/51 
f 83/83/39 156/156/39 91/91/47 
f 91/91/47 156/156/39 157/157/54 
f 156/156/39 79/79/44 157/157/54 
f 157/157/54 79/79/44 89/89/46 
f 89/89/46 20/20/14 157/157/54 
f 157/157/54 20/20/14 155/155/53 
f 12/12/6 91/91/47 155/155/53 
f 155/155/53 91/91/47 157/157/54 
f 67/67/33 158/158/39 82/82/33 
f 82/82/33 158/158/39 159/159/39 
f 158/158/39 63/63/39 159/159/39 
f 159/159/39 63/63/39 80/80/39 
f 79/79/44 156/156/39 80/80/39 
f 80/80/39 156/156/39 159/159/39 
f 156/156/39 83/83/39 159/159/39 
f 159/159/39 83/83/39 82/82/33 
f 50/50/34 160/160/34 66/66/34 
f 66/66/34 160/160/34 161/161/33 
f 160/160/34 43/43/33 161/161/33 
f 161/161/33 43/43/33 64/64/39 
f 63/63/39 158/158/39 64/64/39 
f 64/64/39 158/158/39 161/161/33 
f 158/158/39 67/67/33 161/161/33 
f 161/161/33 67/67/33 66/66/34 
f 47/47/32 46/46/32 162/162/34 
f 162/162/34 46/46/32 163/163/32 
f 163/163/32 45/45/32 162/162/34 
f 162/162/34 45/45/32 44/44/34 
f 43/43/33 160/160/34 44/44/34 
f 44/44/34 160/160/34 162/162/34 
f 160/160/34 50/50/34 162/162/34 
f 162/162/34 50/50/34 47/47/32 
# 278 faces

