# 3ds Max Wavefront OBJ Exporter v0.97b - (c)2007 guruware
# File Created: 13.11.2015 17:00:38

mtllib H026_324H_R.mtl

#
# object H026_324H_R_DTaSI_H026_324H_R
#

v  -113.0521 76.9172 73.0828
v  -119.5818 72.7379 75.1093
v  -113.6960 72.3892 75.3413
v  -126.1115 68.5585 77.1358
v  -119.3977 67.9441 77.5006
v  -114.1261 68.0020 77.5207
v  -131.2290 64.4000 79.2124
v  -125.7268 64.0190 79.4311
v  -136.3464 60.2414 81.2889
v  -131.1767 59.1984 81.8478
v  -125.5462 59.1860 81.8837
v  -138.7290 53.9088 84.4422
v  -135.3819 53.7962 84.5559
v  -141.1115 47.5761 87.5954
v  -138.4325 47.6387 87.5773
v  -135.3318 47.5417 87.6700
v  -125.7135 36.8027 92.6435
v  -125.4226 42.0057 90.3346
v  -130.7064 36.9209 92.6280
v  -130.8110 42.1067 90.2786
v  -125.4968 47.4804 87.7978
v  -130.9217 47.5816 87.7061
v  -135.3096 42.2016 90.2091
v  -135.6992 37.0391 92.6124
v  -119.3706 47.3592 87.8577
v  -119.3216 41.8785 90.3726
v  -119.2750 36.6538 92.6580
v  -112.8364 36.5050 92.6725
v  -114.1294 41.7661 90.3967
v  -114.1574 47.2542 87.8950
v  -138.9336 37.1578 92.5570
v  -138.7414 42.3105 90.1309
v  -141.6397 42.4263 90.0485
v  -142.1679 37.2765 92.5015
v  -125.5784 53.4832 84.8046
v  -119.4757 59.1220 81.9380
v  -119.4241 53.3517 84.8839
v  -114.1880 53.2550 84.9360
v  -114.2175 59.0155 82.0132
v  -131.0446 53.6345 84.6876
v  -119.5189 63.9360 79.5066
v  -114.2419 63.7828 79.6205
v  -111.3651 75.8582 73.6802
v  -111.4936 77.5339 72.8555
v  -109.9401 76.8069 73.2673
v  -109.9376 77.4788 72.9478
v  -109.9351 78.1506 72.6282
v  -110.0896 36.4423 92.6773
v  -110.0702 41.6809 90.4208
v  -111.4630 36.4737 92.6749
v  -111.4672 41.7096 90.4111
v  -110.0507 46.9195 88.1642
v  -111.4717 47.2021 87.9192
v  -110.0275 53.1858 84.9980
v  -111.4766 53.2080 84.9712
v  -110.0043 59.4520 81.8318
v  -111.4813 58.9675 82.0623
v  -111.4852 63.7213 79.6880
v  -109.9886 63.7057 79.7322
v  -109.9728 67.9595 77.6325
v  -111.4887 68.0207 77.5569
v  -109.9565 72.3832 75.4499
v  -111.4924 72.4171 75.3780
# 63 vertices

vn -0.0283 0.4453 0.8949
vn -0.0084 0.4463 0.8949
vn -0.0180 0.4460 0.8949
vn -0.0064 0.4493 0.8934
vn -0.0071 0.4473 0.8943
vn -0.0113 0.4459 0.8950
vn -0.0046 0.4518 0.8921
vn -0.0048 0.4508 0.8926
vn -0.0086 0.4512 0.8924
vn -0.0061 0.4533 0.8913
vn -0.0040 0.4537 0.8911
vn -0.0120 0.4474 0.8943
vn -0.0113 0.4489 0.8935
vn -0.0042 0.4387 0.8986
vn -0.0083 0.4364 0.8997
vn -0.0129 0.4393 0.8982
vn 0.0056 0.4039 0.9148
vn 0.0015 0.4136 0.9105
vn 0.0017 0.4130 0.9107
vn -0.0042 0.4192 0.9079
vn -0.0030 0.4338 0.9010
vn -0.0085 0.4377 0.8991
vn -0.0060 0.4247 0.9053
vn 0.0000 0.4234 0.9060
vn 0.0010 0.4310 0.9023
vn 0.0040 0.4094 0.9124
vn 0.0063 0.4000 0.9165
vn 0.0060 0.3977 0.9175
vn 0.0039 0.4066 0.9136
vn 0.0009 0.4287 0.9035
vn -0.0028 0.4274 0.9041
vn -0.0062 0.4280 0.9038
vn -0.0052 0.4298 0.9029
vn 0.0003 0.4300 0.9028
vn -0.0045 0.4514 0.8923
vn -0.0038 0.4525 0.8917
vn -0.0014 0.4495 0.8933
vn -0.0024 0.4475 0.8943
vn -0.0060 0.4506 0.8927
vn -0.0085 0.4503 0.8928
vn -0.0056 0.4492 0.8934
vn -0.0091 0.4473 0.8943
vn -0.0327 0.4427 0.8961
vn -0.0379 0.4341 0.9000
vn -0.0352 0.4370 0.8988
vn -0.0383 0.4293 0.9023
vn 0.0074 0.3956 0.9184
vn 0.0037 0.3960 0.9182
vn 0.0055 0.3964 0.9180
vn -0.0094 0.4022 0.9155
vn -0.0457 0.4196 0.9065
vn -0.0241 0.4289 0.9031
vn -0.0230 0.4483 0.8936
vn -0.0054 0.4450 0.8955
vn -0.0125 0.4468 0.8945
vn -0.0075 0.4498 0.8931
vn -0.0156 0.4450 0.8954
vn -0.0219 0.4426 0.8965
vn -0.0251 0.4430 0.8962
vn -0.0213 0.4443 0.8956
vn -0.0315 0.4429 0.8960
vn -0.0264 0.4435 0.8959
# 62 vertex normals

vt 0.1291 0.1729 0.0000
vt 0.1091 0.1598 0.0000
vt 0.1269 0.1579 0.0000
vt 0.0880 0.1459 0.0000
vt 0.1091 0.1430 0.0000
vt 0.1254 0.1428 0.0000
vt 0.0713 0.1313 0.0000
vt 0.0888 0.1296 0.0000
vt 0.0546 0.1170 0.0000
vt 0.0711 0.1127 0.0000
vt 0.0890 0.1123 0.0000
vt 0.0465 0.0938 0.0000
vt 0.0573 0.0933 0.0000
vt 0.0385 0.0712 0.0000
vt 0.0472 0.0712 0.0000
vt 0.0572 0.0707 0.0000
vt 0.0878 0.0324 0.0000
vt 0.0888 0.0506 0.0000
vt 0.0718 0.0328 0.0000
vt 0.0715 0.0510 0.0000
vt 0.0887 0.0701 0.0000
vt 0.0713 0.0706 0.0000
vt 0.0571 0.0514 0.0000
vt 0.0558 0.0332 0.0000
vt 0.1082 0.0696 0.0000
vt 0.1083 0.0502 0.0000
vt 0.1084 0.0320 0.0000
vt 0.1291 0.0315 0.0000
vt 0.1249 0.0498 0.0000
vt 0.1249 0.0692 0.0000
vt 0.0455 0.0336 0.0000
vt 0.0461 0.0518 0.0000
vt 0.0368 0.0523 0.0000
vt 0.0351 0.0340 0.0000
vt 0.0886 0.0917 0.0000
vt 0.1082 0.1118 0.0000
vt 0.1082 0.0911 0.0000
vt 0.1248 0.0907 0.0000
vt 0.1248 0.1113 0.0000
vt 0.0712 0.0925 0.0000
vt 0.1084 0.1289 0.0000
vt 0.1249 0.1281 0.0000
vt 0.1341 0.1694 0.0000
vt 0.1337 0.1751 0.0000
vt 0.1384 0.1725 0.0000
vt 0.1384 0.1747 0.0000
vt 0.1385 0.1767 0.0000
vt 0.1378 0.0313 0.0000
vt 0.1379 0.0496 0.0000
vt 0.1335 0.0314 0.0000
vt 0.1335 0.0497 0.0000
vt 0.1380 0.0678 0.0000
vt 0.1335 0.0690 0.0000
vt 0.1381 0.0904 0.0000
vt 0.1334 0.0905 0.0000
vt 0.1381 0.1127 0.0000
vt 0.1334 0.1110 0.0000
vt 0.1334 0.1278 0.0000
vt 0.1381 0.1277 0.0000
vt 0.1382 0.1425 0.0000
vt 0.1335 0.1428 0.0000
vt 0.1383 0.1576 0.0000
vt 0.1336 0.1578 0.0000
# 63 texture coords

g H026_324H_R_DTaSI_H026_324H_R
usemtl windowglass_1SG
s 1
f 1/1/1 2/2/2 3/3/3 
f 4/4/4 5/5/5 2/2/2 
f 5/5/5 6/6/6 2/2/2 
f 2/2/2 6/6/6 3/3/3 
f 4/4/4 7/7/7 8/8/8 
f 9/9/9 10/10/10 7/7/7 
f 10/10/10 11/11/11 7/7/7 
f 7/7/7 11/11/11 8/8/8 
f 9/9/9 12/12/12 13/13/13 
f 12/12/12 14/14/14 15/15/15 
f 15/15/15 16/16/16 12/12/12 
f 12/12/12 16/16/16 13/13/13 
f 17/17/17 18/18/18 19/19/19 
f 19/19/19 18/18/18 20/20/20 
f 18/18/18 21/21/21 20/20/20 
f 20/20/20 21/21/21 22/22/22 
f 16/16/16 23/23/23 22/22/22 
f 22/22/22 23/23/23 20/20/20 
f 24/24/24 19/19/19 23/23/23 
f 23/23/23 19/19/19 20/20/20 
f 21/21/21 18/18/18 25/25/25 
f 25/25/25 18/18/18 26/26/26 
f 18/18/18 17/17/17 26/26/26 
f 26/26/26 17/17/17 27/27/27 
f 28/28/28 29/29/29 27/27/27 
f 27/27/27 29/29/29 26/26/26 
f 29/29/29 30/30/30 26/26/26 
f 26/26/26 30/30/30 25/25/25 
f 31/31/31 24/24/24 32/32/32 
f 32/32/32 24/24/24 23/23/23 
f 16/16/16 15/15/15 23/23/23 
f 23/23/23 15/15/15 32/32/32 
f 14/14/14 33/33/33 15/15/15 
f 15/15/15 33/33/33 32/32/32 
f 34/34/34 31/31/31 33/33/33 
f 33/33/33 31/31/31 32/32/32 
f 11/11/11 35/35/35 36/36/36 
f 36/36/36 35/35/35 37/37/37 
f 35/35/35 21/21/21 37/37/37 
f 37/37/37 21/21/21 25/25/25 
f 30/30/30 38/38/38 25/25/25 
f 25/25/25 38/38/38 37/37/37 
f 38/38/38 39/39/39 37/37/37 
f 37/37/37 39/39/39 36/36/36 
f 9/9/9 13/13/13 10/10/10 
f 10/10/10 13/13/13 40/40/40 
f 16/16/16 22/22/22 13/13/13 
f 13/13/13 22/22/22 40/40/40 
f 21/21/21 35/35/35 22/22/22 
f 22/22/22 35/35/35 40/40/40 
f 11/11/11 10/10/10 35/35/35 
f 35/35/35 10/10/10 40/40/40 
f 4/4/4 8/8/8 5/5/5 
f 5/5/5 8/8/8 41/41/41 
f 11/11/11 36/36/36 8/8/8 
f 8/8/8 36/36/36 41/41/41 
f 39/39/39 42/42/42 36/36/36 
f 36/36/36 42/42/42 41/41/41 
f 6/6/6 5/5/5 42/42/42 
f 42/42/42 5/5/5 41/41/41 
f 1/1/1 43/43/43 44/44/44 
f 43/43/43 45/45/45 44/44/44 
f 44/44/44 45/45/45 46/46/46 
f 46/46/46 47/47/46 44/44/44 
f 48/48/47 49/49/48 50/50/49 
f 50/50/49 49/49/48 51/51/50 
f 49/49/48 52/52/51 51/51/50 
f 51/51/50 52/52/51 53/53/52 
f 30/30/30 29/29/29 53/53/52 
f 53/53/52 29/29/29 51/51/50 
f 29/29/29 28/28/28 51/51/50 
f 51/51/50 28/28/28 50/50/49 
f 52/52/51 54/54/53 53/53/52 
f 53/53/52 54/54/53 55/55/54 
f 56/56/55 57/57/56 54/54/53 
f 54/54/53 57/57/56 55/55/54 
f 39/39/39 38/38/38 57/57/56 
f 57/57/56 38/38/38 55/55/54 
f 38/38/38 30/30/30 55/55/54 
f 55/55/54 30/30/30 53/53/52 
f 57/57/56 56/56/55 58/58/57 
f 58/58/57 56/56/55 59/59/58 
f 59/59/58 60/60/59 58/58/57 
f 58/58/57 60/60/59 61/61/60 
f 6/6/6 42/42/42 61/61/60 
f 61/61/60 42/42/42 58/58/57 
f 42/42/42 39/39/39 58/58/57 
f 58/58/57 39/39/39 57/57/56 
f 60/60/59 62/62/61 61/61/60 
f 61/61/60 62/62/61 63/63/62 
f 45/45/45 43/43/43 62/62/61 
f 62/62/61 43/43/43 63/63/62 
f 1/1/1 3/3/3 43/43/43 
f 43/43/43 3/3/3 63/63/62 
f 6/6/6 61/61/60 3/3/3 
f 3/3/3 61/61/60 63/63/62 
# 96 faces

