# 3ds Max Wavefront OBJ Exporter v0.97b - (c)2007 guruware
# File Created: 13.11.2015 17:00:07

mtllib H026_304H_L.mtl

#
# object H026_304H_L_DTaSI_H026_304H_L
#

v  -113.6847 72.4690 -75.3015
v  -119.5818 72.7379 -75.1093
v  -113.0521 76.9172 -73.0828
v  -119.4870 68.1934 -77.3755
v  -126.1115 68.5585 -77.1358
v  -114.1261 68.0020 -77.5207
v  -125.8274 64.1042 -79.3876
v  -131.2290 64.4000 -79.2124
v  -131.0957 59.4776 -81.7068
v  -136.3464 60.2414 -81.2889
v  -125.5462 59.1860 -81.8837
v  -135.6331 53.7428 -84.5786
v  -138.7290 53.9088 -84.4422
v  -141.1115 47.5761 -87.5954
v  -138.4274 47.5305 -87.6314
v  -135.3318 47.5417 -87.6700
v  -130.8110 42.1067 -90.2786
v  -125.4226 42.0057 -90.3346
v  -130.7064 36.9209 -92.6280
v  -125.7135 36.8027 -92.6435
v  -125.4968 47.4804 -87.7978
v  -130.9217 47.5816 -87.7061
v  -135.3096 42.2016 -90.2091
v  -135.6992 37.0391 -92.6124
v  -119.3216 41.8785 -90.3726
v  -119.3706 47.3592 -87.8577
v  -119.2750 36.6538 -92.6580
v  -114.1294 41.7661 -90.3967
v  -112.8364 36.5050 -92.6725
v  -114.1574 47.2542 -87.8950
v  -138.9336 37.1578 -92.5570
v  -138.7414 42.3105 -90.1309
v  -141.6397 42.4263 -90.0485
v  -142.1679 37.2765 -92.5015
v  -119.4241 53.3517 -84.8839
v  -125.5784 53.4832 -84.8046
v  -119.4757 59.1220 -81.9380
v  -114.1880 53.2550 -84.9360
v  -114.2175 59.0155 -82.0132
v  -131.0446 53.6345 -84.6876
v  -119.3176 63.9301 -79.5110
v  -114.2419 63.7828 -79.6205
v  -111.4936 77.5339 -72.8555
v  -111.3651 75.8582 -73.6802
v  -109.9401 76.8069 -73.2673
v  -109.9376 77.4788 -72.9478
v  -109.9351 78.1506 -72.6282
v  -111.4672 41.7096 -90.4111
v  -110.0702 41.6809 -90.4208
v  -111.4630 36.4737 -92.6749
v  -110.0896 36.4423 -92.6773
v  -110.0507 46.9195 -87.9761
v  -111.4717 47.2021 -87.9192
v  -111.4766 53.2080 -84.9712
v  -110.0275 53.1858 -84.9980
v  -111.4813 58.9675 -82.0623
v  -110.0043 59.4520 -81.8318
v  -111.4852 63.7213 -79.6880
v  -109.9886 63.7057 -79.7322
v  -109.9728 67.9595 -77.6325
v  -111.4887 68.0207 -77.5569
v  -111.4924 72.4171 -75.3780
v  -109.9565 72.3832 -75.4499
# 63 vertices

vn -0.0119 0.4461 -0.8949
vn -0.0084 0.4463 -0.8949
vn -0.0181 0.4473 -0.8942
vn -0.0073 0.4471 -0.8945
vn -0.0067 0.4497 -0.8932
vn -0.0107 0.4458 -0.8950
vn -0.0048 0.4511 -0.8925
vn -0.0046 0.4518 -0.8921
vn -0.0056 0.4528 -0.8916
vn -0.0064 0.4513 -0.8924
vn -0.0038 0.4543 -0.8909
vn -0.0117 0.4489 -0.8935
vn -0.0139 0.4479 -0.8940
vn -0.0046 0.4386 -0.8987
vn -0.0088 0.4394 -0.8982
vn -0.0121 0.4384 -0.8987
vn -0.0040 0.4184 -0.9083
vn 0.0011 0.4136 -0.9104
vn 0.0023 0.4132 -0.9106
vn 0.0058 0.4041 -0.9147
vn -0.0031 0.4344 -0.9007
vn -0.0084 0.4369 -0.8995
vn -0.0052 0.4239 -0.9057
vn 0.0032 0.4229 -0.9062
vn 0.0040 0.4094 -0.9124
vn 0.0010 0.4317 -0.9020
vn 0.0066 0.4002 -0.9164
vn 0.0048 0.4064 -0.9137
vn 0.0068 0.3982 -0.9173
vn 0.0017 0.4294 -0.9031
vn -0.0010 0.4275 -0.9040
vn -0.0071 0.4286 -0.9035
vn -0.0065 0.4296 -0.9030
vn 0.0003 0.4300 -0.9028
vn -0.0013 0.4495 -0.8933
vn -0.0041 0.4506 -0.8927
vn -0.0037 0.4530 -0.8915
vn -0.0015 0.4475 -0.8943
vn -0.0049 0.4510 -0.8925
vn -0.0085 0.4502 -0.8929
vn -0.0055 0.4493 -0.8934
vn -0.0083 0.4477 -0.8941
vn -0.0382 0.4376 -0.8984
vn -0.0330 0.4448 -0.8950
vn -0.0345 0.4400 -0.8973
vn -0.0383 0.4293 -0.9023
vn 0.0045 0.4071 -0.9134
vn 0.0025 0.4098 -0.9122
vn 0.0070 0.3963 -0.9181
vn 0.0074 0.3956 -0.9184
vn 0.0444 0.4210 -0.9060
vn 0.0158 0.4264 -0.9044
vn -0.0056 0.4460 -0.8950
vn -0.0056 0.4448 -0.8956
vn -0.0078 0.4497 -0.8932
vn -0.0089 0.4484 -0.8938
vn -0.0146 0.4451 -0.8953
vn -0.0219 0.4426 -0.8965
vn -0.0263 0.4430 -0.8961
vn -0.0198 0.4446 -0.8955
vn -0.0254 0.4435 -0.8959
vn -0.0319 0.4433 -0.8958
# 62 vertex normals

vt 0.1697 0.8640 0.0000
vt 0.1518 0.8621 0.0000
vt 0.1722 0.8496 0.0000
vt 0.1514 0.8780 0.0000
vt 0.1303 0.8762 0.0000
vt 0.1680 0.8790 0.0000
vt 0.1307 0.8920 0.0000
vt 0.1134 0.8903 0.0000
vt 0.1132 0.9083 0.0000
vt 0.0956 0.9055 0.0000
vt 0.1312 0.9096 0.0000
vt 0.0986 0.9290 0.0000
vt 0.0887 0.9287 0.0000
vt 0.0822 0.9506 0.0000
vt 0.0902 0.9508 0.0000
vt 0.0997 0.9508 0.0000
vt 0.1134 0.9700 0.0000
vt 0.1307 0.9705 0.0000
vt 0.1136 0.9883 0.0000
vt 0.1296 0.9887 0.0000
vt 0.1306 0.9512 0.0000
vt 0.1135 0.9508 0.0000
vt 0.0990 0.9695 0.0000
vt 0.0976 0.9878 0.0000
vt 0.1502 0.9711 0.0000
vt 0.1502 0.9518 0.0000
vt 0.1502 0.9894 0.0000
vt 0.1669 0.9716 0.0000
vt 0.1708 0.9900 0.0000
vt 0.1669 0.9523 0.0000
vt 0.0873 0.9873 0.0000
vt 0.0880 0.9690 0.0000
vt 0.0788 0.9685 0.0000
vt 0.0769 0.9868 0.0000
vt 0.1503 0.9305 0.0000
vt 0.1307 0.9300 0.0000
vt 0.1506 0.9100 0.0000
vt 0.1670 0.9309 0.0000
vt 0.1672 0.9105 0.0000
vt 0.1132 0.9293 0.0000
vt 0.1514 0.8931 0.0000
vt 0.1673 0.8937 0.0000
vt 0.1768 0.8476 0.0000
vt 0.1769 0.8532 0.0000
vt 0.1810 0.8503 0.0000
vt 0.1812 0.8484 0.0000
vt 0.1814 0.8465 0.0000
vt 0.1754 0.9719 0.0000
vt 0.1799 0.9720 0.0000
vt 0.1752 0.9901 0.0000
vt 0.1796 0.9902 0.0000
vt 0.1801 0.9537 0.0000
vt 0.1755 0.9525 0.0000
vt 0.1757 0.9311 0.0000
vt 0.1803 0.9313 0.0000
vt 0.1758 0.9108 0.0000
vt 0.1804 0.9091 0.0000
vt 0.1759 0.8940 0.0000
vt 0.1806 0.8941 0.0000
vt 0.1807 0.8794 0.0000
vt 0.1761 0.8791 0.0000
vt 0.1762 0.8644 0.0000
vt 0.1808 0.8646 0.0000
# 63 texture coords

g H026_304H_L_DTaSI_H026_304H_L
usemtl windowglass_1SG
s 1
f 1/1/1 2/2/2 3/3/3 
f 2/2/2 4/4/4 5/5/5 
f 4/4/4 2/2/2 6/6/6 
f 6/6/6 2/2/2 1/1/1 
f 7/7/7 8/8/8 5/5/5 
f 8/8/8 9/9/9 10/10/10 
f 9/9/9 8/8/8 11/11/11 
f 11/11/11 8/8/8 7/7/7 
f 12/12/12 13/13/13 10/10/10 
f 14/14/14 13/13/13 15/15/15 
f 15/15/15 13/13/13 16/16/16 
f 16/16/16 13/13/13 12/12/12 
f 17/17/17 18/18/18 19/19/19 
f 19/19/19 18/18/18 20/20/20 
f 18/18/18 17/17/17 21/21/21 
f 21/21/21 17/17/17 22/22/22 
f 17/17/17 23/23/23 22/22/22 
f 22/22/22 23/23/23 16/16/16 
f 17/17/17 19/19/19 23/23/23 
f 23/23/23 19/19/19 24/24/24 
f 25/25/25 18/18/18 26/26/26 
f 26/26/26 18/18/18 21/21/21 
f 18/18/18 25/25/25 20/20/20 
f 20/20/20 25/25/25 27/27/27 
f 25/25/25 28/28/28 27/27/27 
f 27/27/27 28/28/28 29/29/29 
f 28/28/28 25/25/25 30/30/30 
f 30/30/30 25/25/25 26/26/26 
f 31/31/31 32/32/32 24/24/24 
f 24/24/24 32/32/32 23/23/23 
f 32/32/32 15/15/15 23/23/23 
f 23/23/23 15/15/15 16/16/16 
f 32/32/32 33/33/33 15/15/15 
f 15/15/15 33/33/33 14/14/14 
f 32/32/32 31/31/31 33/33/33 
f 33/33/33 31/31/31 34/34/34 
f 35/35/35 36/36/36 37/37/37 
f 37/37/37 36/36/36 11/11/11 
f 36/36/36 35/35/35 21/21/21 
f 21/21/21 35/35/35 26/26/26 
f 35/35/35 38/38/38 26/26/26 
f 26/26/26 38/38/38 30/30/30 
f 38/38/38 35/35/35 39/39/39 
f 39/39/39 35/35/35 37/37/37 
f 40/40/40 12/12/12 9/9/9 
f 9/9/9 12/12/12 10/10/10 
f 40/40/40 22/22/22 12/12/12 
f 12/12/12 22/22/22 16/16/16 
f 40/40/40 36/36/36 22/22/22 
f 22/22/22 36/36/36 21/21/21 
f 40/40/40 9/9/9 36/36/36 
f 36/36/36 9/9/9 11/11/11 
f 41/41/41 7/7/7 4/4/4 
f 4/4/4 7/7/7 5/5/5 
f 41/41/41 37/37/37 7/7/7 
f 7/7/7 37/37/37 11/11/11 
f 41/41/41 42/42/42 37/37/37 
f 37/37/37 42/42/42 39/39/39 
f 41/41/41 4/4/4 42/42/42 
f 42/42/42 4/4/4 6/6/6 
f 43/43/43 44/44/44 3/3/3 
f 44/44/44 43/43/43 45/45/45 
f 45/45/45 43/43/43 46/46/46 
f 46/46/46 43/43/43 47/47/46 
f 48/48/47 49/49/48 50/50/49 
f 50/50/49 49/49/48 51/51/50 
f 49/49/48 48/48/47 52/52/51 
f 52/52/51 48/48/47 53/53/52 
f 48/48/47 28/28/28 53/53/52 
f 53/53/52 28/28/28 30/30/30 
f 28/28/28 48/48/47 29/29/29 
f 29/29/29 48/48/47 50/50/49 
f 54/54/53 55/55/54 53/53/52 
f 53/53/52 55/55/54 52/52/51 
f 54/54/53 56/56/55 55/55/54 
f 55/55/54 56/56/55 57/57/56 
f 54/54/53 38/38/38 56/56/55 
f 56/56/55 38/38/38 39/39/39 
f 38/38/38 54/54/53 30/30/30 
f 30/30/30 54/54/53 53/53/52 
f 56/56/55 58/58/57 57/57/56 
f 57/57/56 58/58/57 59/59/58 
f 59/59/58 58/58/57 60/60/59 
f 60/60/59 58/58/57 61/61/60 
f 58/58/57 42/42/42 61/61/60 
f 61/61/60 42/42/42 6/6/6 
f 42/42/42 58/58/57 39/39/39 
f 39/39/39 58/58/57 56/56/55 
f 62/62/61 63/63/62 61/61/60 
f 61/61/60 63/63/62 60/60/59 
f 62/62/61 44/44/44 63/63/62 
f 63/63/62 44/44/44 45/45/45 
f 62/62/61 1/1/1 44/44/44 
f 44/44/44 1/1/1 3/3/3 
f 62/62/61 61/61/60 1/1/1 
f 1/1/1 61/61/60 6/6/6 
# 96 faces

