# 3ds Max Wavefront OBJ Exporter v0.97b - (c)2007 guruware
# File Created: 13.11.2015 17:00:47

mtllib H026_325B_R.mtl

#
# object H026_325B_R_DTaSI_H026_325B_R
#

v  -56.0943 80.4769 72.1903
v  -50.0026 80.4476 72.2038
v  -56.1084 85.1635 70.0068
v  -49.9981 85.2522 69.9654
v  -56.0803 75.8960 74.3246
v  -49.9857 75.7877 74.3749
v  -62.2488 75.9855 74.2830
v  -62.2603 80.4729 72.1922
v  -62.2187 85.0749 70.0481
v  -68.5311 80.4240 72.2149
v  -68.5207 76.0489 74.2533
v  -74.5429 80.3049 72.2747
v  -74.5333 76.0631 74.2475
v  -68.5421 84.8492 70.1531
v  -74.8656 84.6234 70.2581
v  -90.1230 79.4689 72.6747
v  -85.0184 79.8043 72.5298
v  -90.1254 83.0984 71.0291
v  -85.0152 83.6806 70.7721
v  -85.0126 75.8999 74.3274
v  -90.1197 75.7730 74.3827
v  -95.6527 78.8913 72.9324
v  -95.6514 75.5596 74.4794
v  -95.2357 82.4025 71.2861
v  -102.0144 77.8784 73.4120
v  -102.0142 75.1950 74.6538
v  -108.7923 76.6480 74.0026
v  -108.7924 75.3734 74.5753
v  -108.7922 77.9225 73.4298
v  -102.0139 80.3941 72.3580
v  -101.9796 37.0388 92.4322
v  -101.9883 42.2225 90.0156
v  -108.7974 37.1985 92.3583
v  -108.7967 42.2974 89.9809
v  -108.7961 47.3963 87.6034
v  -101.9957 47.5940 87.5114
v  -95.6160 47.5352 87.5390
v  -95.6034 42.1435 90.0522
v  -95.1618 36.8790 92.5062
v  -90.0524 36.7757 92.5539
v  -90.0655 42.0564 90.0927
v  -90.0774 47.4637 87.5724
v  -84.9688 47.3849 87.6092
v  -84.9603 41.9648 90.1352
v  -84.9429 36.6723 92.6017
v  -68.4509 41.6381 90.2866
v  -74.4789 41.7673 90.2268
v  -68.4428 36.3198 92.7646
v  -74.7950 36.4657 92.6972
v  -68.4600 47.0853 87.7485
v  -74.4840 47.2089 87.6912
v  -62.1732 46.9463 87.8129
v  -62.1588 41.4970 90.3519
v  -62.0907 36.1739 92.8320
v  -102.0006 53.3408 84.8323
v  -108.7953 53.4954 84.7597
v  -102.0040 58.8612 82.2587
v  -108.7945 59.5946 81.9159
v  -95.6315 58.6668 82.3501
v  -95.6249 53.2093 84.8941
v  -90.0871 53.1240 84.9342
v  -90.0951 58.5711 82.3954
v  -84.9860 58.5227 82.4186
v  -84.9776 53.0605 84.9642
v  -68.4712 52.7905 85.0903
v  -74.4924 52.9092 85.0351
v  -68.4828 58.2817 82.5317
v  -74.5019 58.3960 82.4785
v  -62.2024 58.1438 82.5958
v  -62.1881 52.6523 85.1544
v  -102.0070 63.5534 80.0712
v  -108.7940 63.7350 79.9854
v  -102.0098 67.7324 78.1240
v  -108.7935 67.8754 78.0549
v  -95.6426 67.6955 78.1417
v  -95.6373 63.4089 80.1396
v  -90.1021 63.3384 80.1734
v  -90.1085 67.6752 78.1520
v  -85.0000 67.6603 78.1600
v  -84.9934 63.3026 80.1909
v  -68.4929 63.0868 80.2928
v  -74.5102 63.1973 80.2413
v  -68.5022 67.4897 78.2414
v  -74.5178 67.5902 78.1943
v  -62.2263 67.3576 78.3029
v  -62.2149 62.9491 80.3569
v  -90.1146 71.8310 76.2151
v  -95.6477 71.7867 76.2354
v  -85.0065 71.8557 76.2048
v  -68.5112 71.7739 76.2452
v  -74.5252 71.8518 76.2086
v  -62.2376 71.6584 76.2990
v  -102.0124 71.7129 76.2713
v  -108.7929 71.6244 76.3151
v  -56.0534 67.2137 78.3698
v  -56.0668 71.5266 76.3603
v  -49.9697 71.3835 76.4268
v  -49.9539 67.0618 78.4403
v  -56.0247 57.9984 82.6633
v  -56.0396 62.8021 80.4251
v  -49.9379 62.6491 80.4962
v  -49.9205 57.8482 82.7329
v  -55.9896 46.8045 87.8786
v  -56.0076 52.5088 85.2209
v  -49.9005 52.3618 85.2890
v  -49.8797 46.6611 87.9450
v  -55.9543 36.0371 92.8952
v  -55.9718 41.3567 90.4168
v  -49.8596 41.2168 90.4815
v  -49.8178 35.9004 92.9584
v  -36.6972 80.2770 72.2828
v  -37.1001 78.6435 73.0439
v  -35.4413 75.2590 74.6206
v  -36.6432 75.0749 74.7064
v  -39.0980 75.4570 74.5285
v  -39.2286 79.9281 72.4455
v  -37.9532 85.2951 69.9451
v  -36.1256 71.0205 76.5953
v  -35.5761 66.6985 78.6088
v  -34.3652 70.9593 76.6237
v  -33.2890 66.6596 78.6268
v  -38.8016 66.7749 78.5734
v  -38.9535 71.1045 76.5563
v  -35.0240 62.3273 80.6452
v  -34.4150 57.5423 82.8745
v  -32.2026 62.3190 80.6489
v  -31.1163 57.9785 82.6711
v  -38.4804 57.5807 82.8568
v  -38.6487 62.3729 80.6242
v  -33.6954 51.9790 85.4662
v  -32.9476 46.1981 88.1594
v  -29.5933 51.8934 85.5058
v  -28.0704 45.8084 88.3406
v  -38.0761 46.3653 88.0819
v  -38.2821 52.0805 85.4193
v  -32.2543 40.7601 90.6929
v  -31.5882 35.4936 93.1464
v  -26.7624 40.5824 90.7751
v  -25.4544 35.3564 93.2097
v  -37.7219 35.6307 93.0830
v  -37.8846 40.9282 90.6150
v  -43.9551 80.3970 72.2272
v  -43.9756 85.2736 69.9552
v  -43.9352 75.6680 74.4304
v  -43.9167 71.2342 76.4961
v  -43.8988 66.9058 78.5127
v  -43.8805 62.4931 80.5685
v  -43.8606 57.6958 82.8035
v  -43.8379 52.2136 85.3577
v  -43.8143 46.5171 88.0116
v  -43.7918 41.0772 90.5460
v  -43.7699 35.7655 93.0207
v  -79.9319 80.0907 72.3881
v  -79.9404 84.1520 70.5151
v  -79.9239 76.0051 74.2773
v  -79.9168 71.8709 76.1989
v  -79.9101 67.6395 78.1707
v  -79.9032 63.2624 80.2104
v  -79.8956 58.4703 82.4435
v  -79.8870 52.9940 84.9954
v  -79.8790 47.3044 87.6468
v  -79.8734 41.8723 90.1781
v  -79.8690 36.5690 92.6494
# 163 vertices

vn 0.0000 0.4223 0.9064
vn 0.0000 0.4223 0.9065
vn -0.0000 0.4223 0.9064
vn 0.0003 0.4223 0.9064
vn 0.0001 0.4222 0.9065
vn 0.0018 0.4219 0.9066
vn 0.0007 0.4215 0.9068
vn 0.0001 0.4225 0.9064
vn 0.0032 0.4233 0.9060
vn -0.0029 0.4180 0.9085
vn -0.0000 0.4158 0.9094
vn -0.0043 0.4129 0.9107
vn 0.0027 0.4149 0.9099
vn -0.0004 0.4199 0.9076
vn -0.0006 0.4207 0.9072
vn 0.0039 0.4160 0.9094
vn 0.0003 0.4213 0.9069
vn 0.0018 0.4201 0.9075
vn 0.0038 0.4074 0.9133
vn 0.0008 0.4193 0.9078
vn 0.0027 0.4133 0.9106
vn 0.0004 0.4154 0.9096
vn 0.0050 0.3982 0.9173
vn 0.0103 0.3986 0.9171
vn 0.0000 0.4225 0.9063
vn 0.0000 0.4226 0.9063
vn -0.0000 0.4226 0.9063
vn -0.0000 0.4225 0.9063
vn -0.0000 0.4225 0.9064
vn 0.0000 0.4225 0.9064
vn 0.0001 0.4224 0.9064
vn -0.0000 0.4224 0.9064
vn 0.0000 0.4224 0.9064
vn 0.0001 0.4223 0.9064
vn -0.0001 0.4225 0.9064
vn -0.0001 0.4226 0.9063
vn -0.0001 0.4225 0.9063
vn -0.0001 0.4224 0.9064
vn -0.0002 0.4225 0.9064
vn -0.0002 0.4222 0.9065
vn -0.0001 0.4218 0.9067
vn -0.0001 0.4223 0.9064
vn -0.0002 0.4224 0.9064
vn -0.0002 0.4221 0.9066
vn 0.0001 0.4221 0.9066
vn -0.0003 0.4217 0.9067
vn 0.0000 0.4222 0.9065
vn 0.0001 0.4216 0.9068
vn 0.0004 0.4211 0.9070
vn 0.0001 0.4223 0.9065
vn 0.0027 0.4186 0.9082
vn 0.0054 0.4204 0.9073
vn 0.0005 0.4205 0.9073
vn -0.0001 0.4219 0.9067
# 54 vertex normals

vt 0.3242 0.1916 0.0000
vt 0.3438 0.1915 0.0000
vt 0.3242 0.2082 0.0000
vt 0.3438 0.2085 0.0000
vt 0.3243 0.1754 0.0000
vt 0.3438 0.1751 0.0000
vt 0.3045 0.1758 0.0000
vt 0.3045 0.1916 0.0000
vt 0.3046 0.2079 0.0000
vt 0.2844 0.1915 0.0000
vt 0.2844 0.1760 0.0000
vt 0.2652 0.1910 0.0000
vt 0.2652 0.1761 0.0000
vt 0.2844 0.2071 0.0000
vt 0.2641 0.2063 0.0000
vt 0.2153 0.1881 0.0000
vt 0.2316 0.1893 0.0000
vt 0.2153 0.2007 0.0000
vt 0.2316 0.2029 0.0000
vt 0.2316 0.1755 0.0000
vt 0.2153 0.1751 0.0000
vt 0.1976 0.1861 0.0000
vt 0.1975 0.1743 0.0000
vt 0.1989 0.1985 0.0000
vt 0.1772 0.1825 0.0000
vt 0.1772 0.1730 0.0000
vt 0.1555 0.1782 0.0000
vt 0.1555 0.1737 0.0000
vt 0.1555 0.1826 0.0000
vt 0.1772 0.1906 0.0000
vt 0.1772 0.0382 0.0000
vt 0.1772 0.0565 0.0000
vt 0.1554 0.0388 0.0000
vt 0.1554 0.0568 0.0000
vt 0.1554 0.0748 0.0000
vt 0.1772 0.0755 0.0000
vt 0.1976 0.0753 0.0000
vt 0.1976 0.0563 0.0000
vt 0.1990 0.0377 0.0000
vt 0.2154 0.0373 0.0000
vt 0.2154 0.0559 0.0000
vt 0.2153 0.0750 0.0000
vt 0.2317 0.0748 0.0000
vt 0.2317 0.0556 0.0000
vt 0.2318 0.0369 0.0000
vt 0.2846 0.0544 0.0000
vt 0.2653 0.0549 0.0000
vt 0.2846 0.0356 0.0000
vt 0.2643 0.0362 0.0000
vt 0.2846 0.0737 0.0000
vt 0.2653 0.0741 0.0000
vt 0.3047 0.0732 0.0000
vt 0.3047 0.0539 0.0000
vt 0.3050 0.0351 0.0000
vt 0.1772 0.0958 0.0000
vt 0.1554 0.0964 0.0000
vt 0.1772 0.1153 0.0000
vt 0.1554 0.1179 0.0000
vt 0.1976 0.1146 0.0000
vt 0.1976 0.0954 0.0000
vt 0.2153 0.0950 0.0000
vt 0.2153 0.1143 0.0000
vt 0.2317 0.1141 0.0000
vt 0.2317 0.0948 0.0000
vt 0.2846 0.0938 0.0000
vt 0.2653 0.0943 0.0000
vt 0.2845 0.1132 0.0000
vt 0.2652 0.1136 0.0000
vt 0.3046 0.1127 0.0000
vt 0.3047 0.0933 0.0000
vt 0.1772 0.1319 0.0000
vt 0.1554 0.1326 0.0000
vt 0.1772 0.1467 0.0000
vt 0.1554 0.1472 0.0000
vt 0.1976 0.1465 0.0000
vt 0.1976 0.1314 0.0000
vt 0.2153 0.1311 0.0000
vt 0.2153 0.1465 0.0000
vt 0.2316 0.1464 0.0000
vt 0.2317 0.1310 0.0000
vt 0.2845 0.1302 0.0000
vt 0.2652 0.1306 0.0000
vt 0.2845 0.1458 0.0000
vt 0.2652 0.1461 0.0000
vt 0.3046 0.1453 0.0000
vt 0.3046 0.1297 0.0000
vt 0.2153 0.1611 0.0000
vt 0.1976 0.1610 0.0000
vt 0.2316 0.1612 0.0000
vt 0.2845 0.1609 0.0000
vt 0.2652 0.1612 0.0000
vt 0.3046 0.1605 0.0000
vt 0.1772 0.1607 0.0000
vt 0.1555 0.1604 0.0000
vt 0.3244 0.1448 0.0000
vt 0.3243 0.1600 0.0000
vt 0.3438 0.1595 0.0000
vt 0.3439 0.1442 0.0000
vt 0.3244 0.1122 0.0000
vt 0.3244 0.1292 0.0000
vt 0.3439 0.1286 0.0000
vt 0.3440 0.1117 0.0000
vt 0.3245 0.0727 0.0000
vt 0.3245 0.0928 0.0000
vt 0.3440 0.0923 0.0000
vt 0.3441 0.0721 0.0000
vt 0.3246 0.0346 0.0000
vt 0.3246 0.0534 0.0000
vt 0.3441 0.0529 0.0000
vt 0.3443 0.0341 0.0000
vt 0.3864 0.1909 0.0000
vt 0.3851 0.1851 0.0000
vt 0.3904 0.1732 0.0000
vt 0.3865 0.1725 0.0000
vt 0.3787 0.1739 0.0000
vt 0.3783 0.1897 0.0000
vt 0.3824 0.2086 0.0000
vt 0.3882 0.1582 0.0000
vt 0.3899 0.1429 0.0000
vt 0.3938 0.1580 0.0000
vt 0.3973 0.1428 0.0000
vt 0.3796 0.1432 0.0000
vt 0.3791 0.1585 0.0000
vt 0.3917 0.1275 0.0000
vt 0.3936 0.1106 0.0000
vt 0.4007 0.1274 0.0000
vt 0.4042 0.1121 0.0000
vt 0.3806 0.1107 0.0000
vt 0.3801 0.1276 0.0000
vt 0.3959 0.0909 0.0000
vt 0.3983 0.0705 0.0000
vt 0.4091 0.0906 0.0000
vt 0.4139 0.0691 0.0000
vt 0.3819 0.0711 0.0000
vt 0.3812 0.0913 0.0000
vt 0.4005 0.0513 0.0000
vt 0.4026 0.0327 0.0000
vt 0.4181 0.0506 0.0000
vt 0.4223 0.0322 0.0000
vt 0.3830 0.0331 0.0000
vt 0.3825 0.0519 0.0000
vt 0.3631 0.1913 0.0000
vt 0.3631 0.2086 0.0000
vt 0.3632 0.1746 0.0000
vt 0.3632 0.1590 0.0000
vt 0.3633 0.1437 0.0000
vt 0.3633 0.1281 0.0000
vt 0.3634 0.1111 0.0000
vt 0.3634 0.0918 0.0000
vt 0.3635 0.0716 0.0000
vt 0.3636 0.0524 0.0000
vt 0.3636 0.0336 0.0000
vt 0.2479 0.1903 0.0000
vt 0.2479 0.2046 0.0000
vt 0.2479 0.1759 0.0000
vt 0.2479 0.1613 0.0000
vt 0.2479 0.1463 0.0000
vt 0.2480 0.1309 0.0000
vt 0.2480 0.1139 0.0000
vt 0.2480 0.0946 0.0000
vt 0.2480 0.0745 0.0000
vt 0.2480 0.0553 0.0000
vt 0.2480 0.0365 0.0000
# 163 texture coords

g H026_325B_R_DTaSI_H026_325B_R
usemtl windowglass_1SG
s 1
f 1/1/1 2/2/1 3/3/1 
f 3/3/1 2/2/1 4/4/2 
f 1/1/1 5/5/1 2/2/1 
f 2/2/1 5/5/1 6/6/1 
f 5/5/1 1/1/1 7/7/1 
f 7/7/1 1/1/1 8/8/3 
f 8/8/3 1/1/1 9/9/3 
f 9/9/3 1/1/1 3/3/1 
f 10/10/4 11/11/5 8/8/3 
f 8/8/3 11/11/5 7/7/1 
f 10/10/4 12/12/6 11/11/5 
f 11/11/5 12/12/6 13/13/7 
f 10/10/4 14/14/8 12/12/6 
f 12/12/6 14/14/8 15/15/9 
f 10/10/4 8/8/3 14/14/8 
f 14/14/8 8/8/3 9/9/3 
f 16/16/10 17/17/11 18/18/12 
f 18/18/12 17/17/11 19/19/13 
f 17/17/11 16/16/10 20/20/14 
f 20/20/14 16/16/10 21/21/15 
f 16/16/10 22/22/16 21/21/15 
f 21/21/15 22/22/16 23/23/17 
f 22/22/16 16/16/10 24/24/18 
f 24/24/18 16/16/10 18/18/12 
f 22/22/16 25/25/19 23/23/17 
f 23/23/17 25/25/19 26/26/20 
f 25/25/19 27/27/21 26/26/20 
f 26/26/20 27/27/21 28/28/22 
f 27/27/21 25/25/19 29/29/23 
f 29/29/23 25/25/19 30/30/24 
f 25/25/19 22/22/16 30/30/24 
f 30/30/24 22/22/16 24/24/18 
f 31/31/8 32/32/25 33/33/26 
f 33/33/26 32/32/25 34/34/26 
f 34/34/26 32/32/25 35/35/27 
f 35/35/27 32/32/25 36/36/28 
f 36/36/28 32/32/25 37/37/29 
f 37/37/29 32/32/25 38/38/30 
f 32/32/25 31/31/8 38/38/30 
f 38/38/30 31/31/8 39/39/8 
f 40/40/31 41/41/30 39/39/8 
f 39/39/8 41/41/30 38/38/30 
f 41/41/30 42/42/29 38/38/30 
f 38/38/30 42/42/29 37/37/29 
f 42/42/29 41/41/30 43/43/32 
f 43/43/32 41/41/30 44/44/33 
f 41/41/30 40/40/31 44/44/33 
f 44/44/33 40/40/31 45/45/31 
f 46/46/34 47/47/31 48/48/34 
f 48/48/34 47/47/31 49/49/31 
f 46/46/34 50/50/1 47/47/31 
f 47/47/31 50/50/1 51/51/33 
f 50/50/1 46/46/34 52/52/34 
f 52/52/34 46/46/34 53/53/34 
f 46/46/34 48/48/34 53/53/34 
f 53/53/34 48/48/34 54/54/34 
f 55/55/35 56/56/36 36/36/28 
f 36/36/28 56/56/36 35/35/27 
f 55/55/35 57/57/37 56/56/36 
f 56/56/36 57/57/37 58/58/36 
f 57/57/37 55/55/35 59/59/35 
f 59/59/35 55/55/35 60/60/35 
f 55/55/35 36/36/28 60/60/35 
f 60/60/35 36/36/28 37/37/29 
f 42/42/29 61/61/35 37/37/29 
f 37/37/29 61/61/35 60/60/35 
f 61/61/35 62/62/35 60/60/35 
f 60/60/35 62/62/35 59/59/35 
f 62/62/35 61/61/35 63/63/38 
f 63/63/38 61/61/35 64/64/38 
f 61/61/35 42/42/29 64/64/38 
f 64/64/38 42/42/29 43/43/32 
f 50/50/1 65/65/1 51/51/33 
f 51/51/33 65/65/1 66/66/33 
f 65/65/1 67/67/1 66/66/33 
f 66/66/33 67/67/1 68/68/32 
f 67/67/1 65/65/1 69/69/1 
f 69/69/1 65/65/1 70/70/1 
f 65/65/1 50/50/1 70/70/1 
f 70/70/1 50/50/1 52/52/34 
f 57/57/37 71/71/35 58/58/36 
f 58/58/36 71/71/35 72/72/39 
f 71/71/35 73/73/40 72/72/39 
f 72/72/39 73/73/40 74/74/41 
f 73/73/40 71/71/35 75/75/42 
f 75/75/42 71/71/35 76/76/35 
f 71/71/35 57/57/37 76/76/35 
f 76/76/35 57/57/37 59/59/35 
f 62/62/35 77/77/39 59/59/35 
f 59/59/35 77/77/39 76/76/35 
f 77/77/39 78/78/38 76/76/35 
f 76/76/35 78/78/38 75/75/42 
f 78/78/38 77/77/39 79/79/43 
f 79/79/43 77/77/39 80/80/38 
f 77/77/39 62/62/35 80/80/38 
f 80/80/38 62/62/35 63/63/38 
f 67/67/1 81/81/1 68/68/32 
f 68/68/32 81/81/1 82/82/32 
f 81/81/1 83/83/3 82/82/32 
f 82/82/32 83/83/3 84/84/38 
f 83/83/3 81/81/1 85/85/1 
f 85/85/1 81/81/1 86/86/1 
f 81/81/1 67/67/1 86/86/1 
f 86/86/1 67/67/1 69/69/1 
f 87/87/44 88/88/45 78/78/38 
f 78/78/38 88/88/45 75/75/42 
f 88/88/45 87/87/44 23/23/17 
f 23/23/17 87/87/44 21/21/15 
f 87/87/44 89/89/46 21/21/15 
f 21/21/15 89/89/46 20/20/14 
f 89/89/46 87/87/44 79/79/43 
f 79/79/43 87/87/44 78/78/38 
f 83/83/3 90/90/3 84/84/38 
f 84/84/38 90/90/3 91/91/47 
f 90/90/3 11/11/5 91/91/47 
f 91/91/47 11/11/5 13/13/7 
f 11/11/5 90/90/3 7/7/1 
f 7/7/1 90/90/3 92/92/1 
f 90/90/3 83/83/3 92/92/1 
f 92/92/1 83/83/3 85/85/1 
f 88/88/45 93/93/48 75/75/42 
f 75/75/42 93/93/48 73/73/40 
f 73/73/40 93/93/48 74/74/41 
f 74/74/41 93/93/48 94/94/49 
f 93/93/48 26/26/20 94/94/49 
f 94/94/49 26/26/20 28/28/22 
f 93/93/48 88/88/45 26/26/20 
f 26/26/20 88/88/45 23/23/17 
f 95/95/1 96/96/1 85/85/1 
f 85/85/1 96/96/1 92/92/1 
f 96/96/1 5/5/1 92/92/1 
f 92/92/1 5/5/1 7/7/1 
f 5/5/1 96/96/1 6/6/1 
f 6/6/1 96/96/1 97/97/1 
f 96/96/1 95/95/1 97/97/1 
f 97/97/1 95/95/1 98/98/1 
f 99/99/1 100/100/1 69/69/1 
f 69/69/1 100/100/1 86/86/1 
f 100/100/1 95/95/1 86/86/1 
f 86/86/1 95/95/1 85/85/1 
f 95/95/1 100/100/1 98/98/1 
f 98/98/1 100/100/1 101/101/1 
f 100/100/1 99/99/1 101/101/1 
f 101/101/1 99/99/1 102/102/34 
f 103/103/34 104/104/34 52/52/34 
f 52/52/34 104/104/34 70/70/1 
f 104/104/34 99/99/1 70/70/1 
f 70/70/1 99/99/1 69/69/1 
f 99/99/1 104/104/34 102/102/34 
f 102/102/34 104/104/34 105/105/34 
f 104/104/34 103/103/34 105/105/34 
f 105/105/34 103/103/34 106/106/34 
f 107/107/34 108/108/34 54/54/34 
f 54/54/34 108/108/34 53/53/34 
f 108/108/34 103/103/34 53/53/34 
f 53/53/34 103/103/34 52/52/34 
f 103/103/34 108/108/34 106/106/34 
f 106/106/34 108/108/34 109/109/34 
f 108/108/34 107/107/34 109/109/34 
f 109/109/34 107/107/34 110/110/34 
f 111/111/2 112/112/2 113/113/2 
f 113/113/2 112/112/2 114/114/2 
f 114/114/2 112/112/2 115/115/2 
f 115/115/2 112/112/2 116/116/2 
f 112/112/2 111/111/2 116/116/2 
f 116/116/2 111/111/2 117/117/2 
f 118/118/2 119/119/50 120/120/50 
f 120/120/50 119/119/50 121/121/50 
f 119/119/50 118/118/2 122/122/2 
f 122/122/2 118/118/2 123/123/2 
f 118/118/2 114/114/2 123/123/2 
f 123/123/2 114/114/2 115/115/2 
f 114/114/2 118/118/2 113/113/2 
f 113/113/2 118/118/2 120/120/50 
f 124/124/50 125/125/50 126/126/50 
f 126/126/50 125/125/50 127/127/50 
f 125/125/50 124/124/50 128/128/50 
f 128/128/50 124/124/50 129/129/50 
f 124/124/50 119/119/50 129/129/50 
f 129/129/50 119/119/50 122/122/2 
f 119/119/50 124/124/50 121/121/50 
f 121/121/50 124/124/50 126/126/50 
f 130/130/50 131/131/50 132/132/50 
f 132/132/50 131/131/50 133/133/50 
f 131/131/50 130/130/50 134/134/50 
f 134/134/50 130/130/50 135/135/50 
f 130/130/50 125/125/50 135/135/50 
f 135/135/50 125/125/50 128/128/50 
f 125/125/50 130/130/50 127/127/50 
f 127/127/50 130/130/50 132/132/50 
f 136/136/50 137/137/50 138/138/50 
f 138/138/50 137/137/50 139/139/50 
f 137/137/50 136/136/50 140/140/50 
f 140/140/50 136/136/50 141/141/50 
f 136/136/50 131/131/50 141/141/50 
f 141/141/50 131/131/50 134/134/50 
f 131/131/50 136/136/50 133/133/50 
f 133/133/50 136/136/50 138/138/50 
f 142/142/2 143/143/2 2/2/1 
f 2/2/1 143/143/2 4/4/2 
f 142/142/2 116/116/2 143/143/2 
f 143/143/2 116/116/2 117/117/2 
f 142/142/2 144/144/2 116/116/2 
f 116/116/2 144/144/2 115/115/2 
f 144/144/2 142/142/2 6/6/1 
f 6/6/1 142/142/2 2/2/1 
f 145/145/2 146/146/2 123/123/2 
f 123/123/2 146/146/2 122/122/2 
f 146/146/2 145/145/2 98/98/1 
f 98/98/1 145/145/2 97/97/1 
f 145/145/2 144/144/2 97/97/1 
f 97/97/1 144/144/2 6/6/1 
f 144/144/2 145/145/2 115/115/2 
f 115/115/2 145/145/2 123/123/2 
f 147/147/2 148/148/50 129/129/50 
f 129/129/50 148/148/50 128/128/50 
f 148/148/50 147/147/2 102/102/34 
f 102/102/34 147/147/2 101/101/1 
f 147/147/2 146/146/2 101/101/1 
f 101/101/1 146/146/2 98/98/1 
f 146/146/2 147/147/2 122/122/2 
f 122/122/2 147/147/2 129/129/50 
f 149/149/50 150/150/50 135/135/50 
f 135/135/50 150/150/50 134/134/50 
f 150/150/50 149/149/50 106/106/34 
f 106/106/34 149/149/50 105/105/34 
f 149/149/50 148/148/50 105/105/34 
f 105/105/34 148/148/50 102/102/34 
f 148/148/50 149/149/50 128/128/50 
f 128/128/50 149/149/50 135/135/50 
f 151/151/50 152/152/50 141/141/50 
f 141/141/50 152/152/50 140/140/50 
f 152/152/50 151/151/50 110/110/34 
f 110/110/34 151/151/50 109/109/34 
f 151/151/50 150/150/50 109/109/34 
f 109/109/34 150/150/50 106/106/34 
f 150/150/50 151/151/50 134/134/50 
f 134/134/50 151/151/50 141/141/50 
f 17/17/11 153/153/51 19/19/13 
f 19/19/13 153/153/51 154/154/52 
f 153/153/51 12/12/6 154/154/52 
f 154/154/52 12/12/6 15/15/9 
f 12/12/6 153/153/51 13/13/7 
f 13/13/7 153/153/51 155/155/53 
f 153/153/51 17/17/11 155/155/53 
f 155/155/53 17/17/11 20/20/14 
f 156/156/54 157/157/38 91/91/47 
f 91/91/47 157/157/38 84/84/38 
f 157/157/38 156/156/54 79/79/43 
f 79/79/43 156/156/54 89/89/46 
f 89/89/46 156/156/54 20/20/14 
f 20/20/14 156/156/54 155/155/53 
f 156/156/54 91/91/47 155/155/53 
f 155/155/53 91/91/47 13/13/7 
f 158/158/38 159/159/38 82/82/32 
f 82/82/32 159/159/38 68/68/32 
f 159/159/38 158/158/38 63/63/38 
f 63/63/38 158/158/38 80/80/38 
f 158/158/38 157/157/38 80/80/38 
f 80/80/38 157/157/38 79/79/43 
f 157/157/38 158/158/38 84/84/38 
f 84/84/38 158/158/38 82/82/32 
f 160/160/32 161/161/33 66/66/33 
f 66/66/33 161/161/33 51/51/33 
f 161/161/33 160/160/32 43/43/32 
f 43/43/32 160/160/32 64/64/38 
f 160/160/32 159/159/38 64/64/38 
f 64/64/38 159/159/38 63/63/38 
f 159/159/38 160/160/32 68/68/32 
f 68/68/32 160/160/32 66/66/33 
f 47/47/31 162/162/33 49/49/31 
f 49/49/31 162/162/33 163/163/31 
f 163/163/31 162/162/33 45/45/31 
f 45/45/31 162/162/33 44/44/33 
f 162/162/33 161/161/33 44/44/33 
f 44/44/33 161/161/33 43/43/32 
f 161/161/33 162/162/33 51/51/33 
f 51/51/33 162/162/33 47/47/31 
# 278 faces

