# 3ds Max Wavefront OBJ Exporter v0.97b - (c)2007 guruware
# File Created: 23.11.2015 10:55:44

mtllib H612_265B_L.mtl

#
# object H612_265B_L_DTaSI_H612_265B_L
#

v  29.3865 92.7411 -77.4572
v  37.9897 91.6230 -78.0035
v  29.1775 86.8167 -80.0516
v  37.7806 85.9613 -80.4613
v  29.7001 98.9755 -74.4348
v  38.3099 97.4582 -75.1974
v  17.6555 45.9707 -94.4271
v  17.0936 51.4333 -92.7139
v  19.3743 45.9016 -94.4309
v  20.2921 51.5731 -92.6392
v  28.1556 51.2785 -92.6697
v  28.3610 58.5328 -90.3709
v  20.3623 58.8167 -90.3132
v  27.9948 45.5459 -94.4490
v  36.6078 45.1890 -94.4639
v  36.7665 50.9543 -92.6997
v  36.9698 58.2204 -90.4308
v  28.5716 65.9508 -87.9225
v  20.4339 66.2563 -87.8234
v  37.1783 65.6059 -88.0306
v  37.3831 72.7789 -85.5529
v  28.7782 73.2237 -85.3708
v  20.5033 73.6004 -85.2105
v  12.6919 94.1772 -76.7367
v  20.7278 93.6218 -77.0012
v  13.3220 88.0748 -79.4330
v  20.6402 87.4980 -79.7071
v  11.9747 101.0567 -73.2943
v  20.8942 100.1591 -73.8045
v  14.0333 81.1739 -82.2908
v  20.5703 80.7829 -82.4581
v  16.3195 58.9637 -90.2945
v  15.5507 66.4385 -87.7827
v  14.7884 73.8440 -85.1314
v  78.8603 56.4863 -90.5492
v  86.9646 55.6372 -90.6466
v  78.9866 49.2365 -92.7207
v  87.1336 48.5129 -92.7918
v  70.6936 49.6412 -92.7324
v  70.6378 56.9105 -90.5563
v  70.7080 43.7429 -94.4759
v  79.0243 43.3499 -94.4666
v  87.1766 42.9433 -94.4539
v  95.0690 47.8164 -92.8528
v  94.8899 54.7673 -90.7424
v  95.1084 42.5277 -94.4396
v  102.7635 42.1075 -94.4250
v  102.4768 47.1408 -92.9197
v  102.3164 53.8335 -90.8780
v  94.4014 61.6184 -88.6058
v  86.4938 62.7092 -88.4749
v  101.9014 60.5399 -88.7463
v  101.4615 67.0763 -86.4562
v  93.6387 67.9585 -86.5086
v  101.3845 70.4060 -85.2362
v  85.7602 68.8007 -86.5275
v  78.5179 63.5316 -88.3921
v  77.9537 69.7630 -86.4062
v  70.4693 64.0215 -88.3675
v  70.1937 70.4866 -86.2799
v  45.5028 57.9040 -90.4857
v  53.9578 57.5817 -90.5295
v  45.3367 50.6320 -92.7240
v  53.8550 50.3084 -92.7396
v  45.2098 44.8356 -94.4742
v  53.7766 44.4804 -94.4796
v  62.3108 49.9795 -92.7435
v  62.3357 57.2513 -90.5553
v  62.2840 44.1180 -94.4803
v  62.3160 64.4466 -88.3180
v  54.0510 64.8529 -88.2383
v  62.2346 71.1317 -86.1238
v  54.1236 71.7280 -85.9426
v  45.6724 65.2397 -88.1390
v  45.8378 72.2787 -85.7478
v  46.6416 95.5729 -76.0979
v  46.3515 90.2646 -78.6297
v  54.7785 93.2189 -77.0800
v  54.4555 88.7461 -79.2756
v  62.2985 87.0161 -79.9628
v  62.6796 90.4649 -78.2615
v  84.9278 73.7554 -84.7945
v  84.6344 77.6212 -83.2714
v  92.1056 76.0049 -83.4309
v  70.3534 87.3063 -79.5499
v  77.7024 83.8199 -80.9109
v  69.9441 85.3091 -80.5458
v  107.5933 66.3908 -86.5019
v  107.9214 53.1881 -90.9952
v  107.7625 59.5635 -88.9760
v  84.6969 80.1648 -82.1987
v  77.4220 79.2533 -82.9558
v  70.0006 80.8438 -82.5049
v  77.5981 74.8225 -84.6663
v  70.0960 76.0510 -84.3431
v  92.9077 72.1416 -84.9575
v  46.1633 84.9304 -80.9287
v  54.2655 83.7476 -81.4313
v  108.0827 46.4927 -93.0239
v  54.1767 78.0729 -83.6515
v  45.9985 78.9099 -83.3122
v  37.5832 79.6466 -82.9912
v  62.1328 77.1377 -83.9951
v  62.1074 82.3996 -81.9604
v  28.9798 80.2729 -82.7036
v  108.1953 41.7951 -94.4164
# 106 vertices

vn -0.0042 0.4196 -0.9077
vn -0.0021 0.4163 -0.9092
vn -0.0057 0.3882 -0.9216
vn -0.0047 0.3848 -0.9230
vn -0.0035 0.4371 -0.8994
vn -0.0007 0.4341 -0.9008
vn 0.0100 0.3002 -0.9538
vn 0.0085 0.3037 -0.9527
vn 0.0102 0.2998 -0.9540
vn 0.0078 0.3019 -0.9533
vn 0.0071 0.2989 -0.9543
vn 0.0042 0.3076 -0.9515
vn 0.0044 0.3111 -0.9504
vn 0.0088 0.2962 -0.9551
vn 0.0098 0.2917 -0.9565
vn 0.0079 0.2953 -0.9554
vn 0.0047 0.3034 -0.9528
vn 0.0007 0.3221 -0.9467
vn 0.0015 0.3260 -0.9454
vn 0.0012 0.3176 -0.9482
vn -0.0021 0.3379 -0.9412
vn -0.0024 0.3424 -0.9395
vn -0.0011 0.3464 -0.9381
vn -0.0029 0.4280 -0.9038
vn -0.0032 0.4227 -0.9063
vn -0.0033 0.3941 -0.9190
vn -0.0048 0.3915 -0.9202
vn -0.0062 0.4470 -0.8945
vn -0.0039 0.4414 -0.8973
vn -0.0026 0.3720 -0.9282
vn -0.0036 0.3684 -0.9297
vn 0.0063 0.3129 -0.9498
vn 0.0036 0.3285 -0.9445
vn 0.0007 0.3496 -0.9369
vn 0.0175 0.2904 -0.9567
vn 0.0202 0.2920 -0.9562
vn 0.0163 0.2860 -0.9581
vn 0.0177 0.2876 -0.9576
vn 0.0141 0.2854 -0.9583
vn 0.0138 0.2906 -0.9567
vn 0.0140 0.2837 -0.9588
vn 0.0155 0.2847 -0.9585
vn 0.0166 0.2863 -0.9580
vn 0.0179 0.2894 -0.9570
vn 0.0207 0.2953 -0.9552
vn 0.0172 0.2874 -0.9576
vn 0.0171 0.2868 -0.9578
vn 0.0166 0.2898 -0.9570
vn 0.0171 0.2975 -0.9546
vn 0.0283 0.3094 -0.9505
vn 0.0247 0.3017 -0.9531
vn 0.0233 0.3186 -0.9476
vn 0.0352 0.3340 -0.9419
vn 0.0381 0.3305 -0.9430
vn 0.0413 0.3510 -0.9355
vn 0.0322 0.3208 -0.9466
vn 0.0185 0.2993 -0.9540
vn 0.0202 0.3157 -0.9486
vn 0.0126 0.3007 -0.9536
vn 0.0109 0.3177 -0.9481
vn 0.0057 0.2993 -0.9541
vn 0.0075 0.2955 -0.9553
vn 0.0087 0.2916 -0.9565
vn 0.0099 0.2885 -0.9574
vn 0.0104 0.2883 -0.9575
vn 0.0112 0.2855 -0.9583
vn 0.0118 0.2863 -0.9581
vn 0.0102 0.2925 -0.9562
vn 0.0125 0.2839 -0.9588
vn 0.0079 0.3041 -0.9526
vn 0.0044 0.3083 -0.9513
vn 0.0051 0.3225 -0.9466
vn 0.0013 0.3277 -0.9448
vn 0.0022 0.3129 -0.9498
vn -0.0010 0.3329 -0.9429
vn 0.0073 0.4309 -0.9024
vn 0.0035 0.4140 -0.9103
vn 0.0152 0.4372 -0.8992
vn 0.0090 0.4168 -0.9089
vn 0.0172 0.4152 -0.9096
vn 0.0231 0.4400 -0.8977
vn 0.0426 0.3501 -0.9357
vn 0.0511 0.3751 -0.9256
vn 0.0552 0.3760 -0.9250
vn 0.0346 0.4399 -0.8974
vn 0.0373 0.4070 -0.9127
vn 0.0280 0.4132 -0.9102
vn 0.0263 0.3373 -0.9410
vn 0.0147 0.2962 -0.9550
vn 0.0167 0.3205 -0.9471
vn 0.0513 0.3930 -0.9181
vn 0.0332 0.3828 -0.9232
vn 0.0190 0.3804 -0.9246
vn 0.0253 0.3430 -0.9390
vn 0.0116 0.3433 -0.9391
vn 0.0464 0.3623 -0.9309
vn -0.0026 0.3817 -0.9243
vn 0.0010 0.3798 -0.9251
vn 0.0162 0.2883 -0.9574
vn -0.0007 0.3516 -0.9362
vn -0.0032 0.3562 -0.9344
vn -0.0043 0.3605 -0.9327
vn 0.0038 0.3470 -0.9379
vn 0.0077 0.3785 -0.9256
vn -0.0048 0.3646 -0.9311
vn 0.0179 0.2846 -0.9585
# 106 vertex normals

vt 0.7345 0.8240 0.0000
vt 0.7621 0.8274 0.0000
vt 0.7343 0.8447 0.0000
vt 0.7619 0.8471 0.0000
vt 0.7350 0.8018 0.0000
vt 0.7627 0.8066 0.0000
vt 0.7000 0.9838 0.0000
vt 0.6979 0.9656 0.0000
vt 0.7055 0.9839 0.0000
vt 0.7081 0.9649 0.0000
vt 0.7333 0.9652 0.0000
vt 0.7335 0.9410 0.0000
vt 0.7079 0.9406 0.0000
vt 0.7331 0.9844 0.0000
vt 0.7606 0.9849 0.0000
vt 0.7608 0.9657 0.0000
vt 0.7611 0.9414 0.0000
vt 0.7337 0.9160 0.0000
vt 0.7077 0.9156 0.0000
vt 0.7613 0.9166 0.0000
vt 0.7615 0.8924 0.0000
vt 0.7340 0.8914 0.0000
vt 0.7075 0.8906 0.0000
vt 0.6810 0.8200 0.0000
vt 0.7068 0.8214 0.0000
vt 0.6835 0.8413 0.0000
vt 0.7070 0.8428 0.0000
vt 0.6782 0.7954 0.0000
vt 0.7068 0.7981 0.0000
vt 0.6863 0.8651 0.0000
vt 0.7072 0.8660 0.0000
vt 0.6950 0.9404 0.0000
vt 0.6921 0.9153 0.0000
vt 0.6892 0.8902 0.0000
vt 0.8950 0.9438 0.0000
vt 0.9210 0.9459 0.0000
vt 0.8958 0.9679 0.0000
vt 0.9219 0.9696 0.0000
vt 0.8693 0.9673 0.0000
vt 0.8687 0.9431 0.0000
vt 0.8697 0.9868 0.0000
vt 0.8963 0.9874 0.0000
vt 0.9223 0.9881 0.0000
vt 0.9473 0.9712 0.0000
vt 0.9463 0.9481 0.0000
vt 0.9477 0.9887 0.0000
vt 0.9722 0.9894 0.0000
vt 0.9710 0.9727 0.0000
vt 0.9701 0.9505 0.0000
vt 0.9444 0.9252 0.0000
vt 0.9191 0.9224 0.0000
vt 0.9684 0.9281 0.0000
vt 0.9666 0.9060 0.0000
vt 0.9416 0.9040 0.0000
vt 0.9661 0.8947 0.0000
vt 0.9164 0.9021 0.0000
vt 0.8936 0.9204 0.0000
vt 0.8914 0.8996 0.0000
vt 0.8678 0.9195 0.0000
vt 0.8666 0.8978 0.0000
vt 0.7883 0.9418 0.0000
vt 0.8154 0.9423 0.0000
vt 0.7882 0.9661 0.0000
vt 0.8155 0.9665 0.0000
vt 0.7881 0.9853 0.0000
vt 0.8155 0.9858 0.0000
vt 0.8425 0.9669 0.0000
vt 0.8422 0.9427 0.0000
vt 0.8427 0.9863 0.0000
vt 0.8417 0.9187 0.0000
vt 0.8153 0.9180 0.0000
vt 0.8411 0.8963 0.0000
vt 0.8151 0.8948 0.0000
vt 0.7885 0.9173 0.0000
vt 0.7886 0.8935 0.0000
vt 0.7895 0.8128 0.0000
vt 0.7890 0.8316 0.0000
vt 0.8157 0.8204 0.0000
vt 0.8150 0.8363 0.0000
vt 0.8402 0.8418 0.0000
vt 0.8411 0.8294 0.0000
vt 0.9134 0.8853 0.0000
vt 0.9122 0.8721 0.0000
vt 0.9362 0.8765 0.0000
vt 0.8659 0.8398 0.0000
vt 0.8896 0.8513 0.0000
vt 0.8648 0.8470 0.0000
vt 0.9862 0.9077 0.0000
vt 0.9881 0.9522 0.0000
vt 0.9872 0.9309 0.0000
vt 0.9122 0.8632 0.0000
vt 0.8891 0.8674 0.0000
vt 0.8653 0.8626 0.0000
vt 0.8900 0.8825 0.0000
vt 0.8659 0.8790 0.0000
vt 0.9390 0.8898 0.0000
vt 0.7888 0.8502 0.0000
vt 0.8148 0.8538 0.0000
vt 0.9890 0.9744 0.0000
vt 0.8149 0.8733 0.0000
vt 0.7887 0.8709 0.0000
vt 0.7617 0.8689 0.0000
vt 0.8404 0.8759 0.0000
vt 0.8399 0.8579 0.0000
vt 0.7341 0.8673 0.0000
vt 0.9896 0.9900 0.0000
# 106 texture coords

g H612_265B_L_DTaSI_H612_265B_L
usemtl windowglass_1SG
s 1
f 1/1/1 2/2/2 3/3/3 
f 3/3/3 2/2/2 4/4/4 
f 5/5/5 6/6/6 1/1/1 
f 1/1/1 6/6/6 2/2/2 
f 7/7/7 8/8/8 9/9/9 
f 9/9/9 8/8/8 10/10/10 
f 11/11/11 10/10/10 12/12/12 
f 12/12/12 10/10/10 13/13/13 
f 11/11/11 14/14/14 10/10/10 
f 10/10/10 14/14/14 9/9/9 
f 15/15/15 14/14/14 16/16/16 
f 16/16/16 14/14/14 11/11/11 
f 16/16/16 11/11/11 17/17/17 
f 17/17/17 11/11/11 12/12/12 
f 12/12/12 13/13/13 18/18/18 
f 18/18/18 13/13/13 19/19/19 
f 17/17/17 12/12/12 20/20/20 
f 20/20/20 12/12/12 18/18/18 
f 20/20/20 18/18/18 21/21/21 
f 21/21/21 18/18/18 22/22/22 
f 18/18/18 19/19/19 22/22/22 
f 22/22/22 19/19/19 23/23/23 
f 24/24/24 25/25/25 26/26/26 
f 26/26/26 25/25/25 27/27/27 
f 28/28/28 29/29/29 24/24/24 
f 24/24/24 29/29/29 25/25/25 
f 26/26/26 27/27/27 30/30/30 
f 30/30/30 27/27/27 31/31/31 
f 10/10/10 8/8/8 13/13/13 
f 13/13/13 8/8/8 32/32/32 
f 13/13/13 32/32/32 19/19/19 
f 19/19/19 32/32/32 33/33/33 
f 19/19/19 33/33/33 23/23/23 
f 23/23/23 33/33/33 34/34/34 
f 35/35/35 36/36/36 37/37/37 
f 37/37/37 36/36/36 38/38/38 
f 37/37/37 39/39/39 35/35/35 
f 35/35/35 39/39/39 40/40/40 
f 39/39/39 37/37/37 41/41/41 
f 41/41/41 37/37/37 42/42/42 
f 43/43/43 42/42/42 38/38/38 
f 38/38/38 42/42/42 37/37/37 
f 44/44/44 38/38/38 45/45/45 
f 45/45/45 38/38/38 36/36/36 
f 38/38/38 44/44/44 43/43/43 
f 43/43/43 44/44/44 46/46/46 
f 47/47/47 46/46/46 48/48/48 
f 48/48/48 46/46/46 44/44/44 
f 48/48/48 44/44/44 49/49/49 
f 49/49/49 44/44/44 45/45/45 
f 45/45/45 36/36/36 50/50/50 
f 50/50/50 36/36/36 51/51/51 
f 49/49/49 45/45/45 52/52/52 
f 52/52/52 45/45/45 50/50/50 
f 53/53/53 54/54/54 55/55/55 
f 50/50/50 51/51/51 54/54/54 
f 54/54/54 51/51/51 56/56/56 
f 36/36/36 35/35/35 51/51/51 
f 51/51/51 35/35/35 57/57/57 
f 51/51/51 57/57/57 56/56/56 
f 56/56/56 57/57/57 58/58/58 
f 57/57/57 59/59/59 58/58/58 
f 58/58/58 59/59/59 60/60/60 
f 59/59/59 57/57/57 40/40/40 
f 40/40/40 57/57/57 35/35/35 
f 61/61/61 62/62/62 63/63/63 
f 63/63/63 62/62/62 64/64/64 
f 63/63/63 16/16/16 61/61/61 
f 61/61/61 16/16/16 17/17/17 
f 16/16/16 63/63/63 15/15/15 
f 15/15/15 63/63/63 65/65/65 
f 66/66/66 65/65/65 64/64/64 
f 64/64/64 65/65/65 63/63/63 
f 67/67/67 64/64/64 68/68/68 
f 68/68/68 64/64/64 62/62/62 
f 64/64/64 67/67/67 66/66/66 
f 66/66/66 67/67/67 69/69/69 
f 41/41/41 69/69/69 39/39/39 
f 39/39/39 69/69/69 67/67/67 
f 39/39/39 67/67/67 40/40/40 
f 40/40/40 67/67/67 68/68/68 
f 68/68/68 62/62/62 70/70/70 
f 70/70/70 62/62/62 71/71/71 
f 40/40/40 68/68/68 59/59/59 
f 59/59/59 68/68/68 70/70/70 
f 59/59/59 70/70/70 60/60/60 
f 60/60/60 70/70/70 72/72/72 
f 70/70/70 71/71/71 72/72/72 
f 72/72/72 71/71/71 73/73/73 
f 62/62/62 61/61/61 71/71/71 
f 71/71/71 61/61/61 74/74/74 
f 71/71/71 74/74/74 73/73/73 
f 73/73/73 74/74/74 75/75/75 
f 74/74/74 20/20/20 75/75/75 
f 75/75/75 20/20/20 21/21/21 
f 20/20/20 74/74/74 17/17/17 
f 17/17/17 74/74/74 61/61/61 
f 6/6/6 76/76/76 2/2/2 
f 2/2/2 76/76/76 77/77/77 
f 76/76/76 78/78/78 77/77/77 
f 77/77/77 78/78/78 79/79/79 
f 80/80/80 79/79/79 81/81/81 
f 81/81/81 79/79/79 78/78/78 
f 82/82/82 83/83/83 84/84/84 
f 85/85/85 86/86/86 87/87/87 
f 87/87/87 80/80/80 85/85/85 
f 85/85/85 80/80/80 81/81/81 
f 29/29/29 5/5/5 25/25/25 
f 25/25/25 5/5/5 1/1/1 
f 55/55/55 88/88/88 53/53/53 
f 89/89/89 49/49/49 90/90/90 
f 90/90/90 49/49/49 52/52/52 
f 86/86/86 91/91/91 92/92/92 
f 92/92/92 91/91/91 83/83/83 
f 87/87/87 86/86/86 93/93/93 
f 93/93/93 86/86/86 92/92/92 
f 82/82/82 94/94/94 83/83/83 
f 83/83/83 94/94/94 92/92/92 
f 94/94/94 95/95/95 92/92/92 
f 92/92/92 95/95/95 93/93/93 
f 95/95/95 94/94/94 60/60/60 
f 60/60/60 94/94/94 58/58/58 
f 94/94/94 82/82/82 58/58/58 
f 58/58/58 82/82/82 56/56/56 
f 54/54/54 56/56/56 96/96/96 
f 96/96/96 56/56/56 82/82/82 
f 77/77/77 79/79/79 97/97/97 
f 97/97/97 79/79/79 98/98/98 
f 2/2/2 77/77/77 4/4/4 
f 4/4/4 77/77/77 97/97/97 
f 49/49/49 89/89/89 48/48/48 
f 48/48/48 89/89/89 99/99/99 
f 100/100/100 101/101/101 98/98/98 
f 98/98/98 101/101/101 97/97/97 
f 101/101/101 102/102/102 97/97/97 
f 97/97/97 102/102/102 4/4/4 
f 102/102/102 101/101/101 21/21/21 
f 21/21/21 101/101/101 75/75/75 
f 101/101/101 100/100/100 75/75/75 
f 75/75/75 100/100/100 73/73/73 
f 103/103/103 100/100/100 104/104/104 
f 104/104/104 100/100/100 98/98/98 
f 100/100/100 103/103/103 73/73/73 
f 73/73/73 103/103/103 72/72/72 
f 103/103/103 95/95/95 72/72/72 
f 72/72/72 95/95/95 60/60/60 
f 95/95/95 103/103/103 93/93/93 
f 93/93/93 103/103/103 104/104/104 
f 79/79/79 80/80/80 98/98/98 
f 98/98/98 80/80/80 104/104/104 
f 80/80/80 87/87/87 104/104/104 
f 104/104/104 87/87/87 93/93/93 
f 30/30/30 31/31/31 34/34/34 
f 34/34/34 31/31/31 23/23/23 
f 105/105/105 31/31/31 3/3/3 
f 3/3/3 31/31/31 27/27/27 
f 31/31/31 105/105/105 23/23/23 
f 23/23/23 105/105/105 22/22/22 
f 105/105/105 102/102/102 22/22/22 
f 22/22/22 102/102/102 21/21/21 
f 102/102/102 105/105/105 4/4/4 
f 4/4/4 105/105/105 3/3/3 
f 25/25/25 1/1/1 27/27/27 
f 27/27/27 1/1/1 3/3/3 
f 106/106/106 47/47/47 99/99/99 
f 99/99/99 47/47/47 48/48/48 
f 53/53/53 88/88/88 52/52/52 
f 52/52/52 88/88/88 90/90/90 
f 52/52/52 50/50/50 53/53/53 
f 53/53/53 50/50/50 54/54/54 
f 55/55/55 54/54/54 96/96/96 
f 84/84/84 83/83/83 91/91/91 
f 96/96/96 82/82/82 84/84/84 
f 84/84/84 55/55/55 96/96/96 
# 174 faces

