# 3ds Max Wavefront OBJ Exporter v0.97b - (c)2007 guruware
# File Created: 23.11.2015 11:00:55

mtllib H612_FLOR_C.mtl

#
# object H612_FLOR_C_N_H612_FLOR_C
#

v  -228.4256 -44.9014 -92.5435
v  -224.5898 -45.4025 -92.8659
v  -196.5707 -49.0620 -62.6628
v  -232.4672 -44.3736 -92.1107
v  -261.0769 -40.6369 -70.3638
v  -263.9120 -40.2666 -62.3297
v  -262.5009 -40.4509 -66.5437
v  -265.2632 -40.0901 -57.6983
v  -266.5071 -39.9277 -52.6259
v  -267.5965 -39.7853 -47.0891
v  -255.6774 -41.3421 -81.8039
v  -249.9243 -42.0935 -87.4486
v  -248.0443 -42.3391 -88.4482
v  -254.3767 -41.5120 -83.6356
v  -251.5638 -41.8794 -86.3712
v  -253.0267 -41.6883 -85.1292
v  -196.5707 -49.0620 0.0000
v  -270.3743 -39.4226 -21.3945
v  -269.9202 -39.4819 -28.2403
v  -270.6808 -39.3825 -14.3650
v  -270.8536 -39.3600 -7.2131
v  -270.9067 -39.3530 0.0000
v  -198.3439 -48.8304 -93.2321
v  -196.5707 -49.0620 -93.1956
v  -202.0141 -48.3510 -93.2930
v  -200.1480 -48.5948 -93.2656
v  -203.9731 -48.0951 -93.3113
v  223.9740 -50.9012 0.0000
v  265.2812 -50.9012 -29.8130
v  265.9048 -50.9012 -25.6268
v  264.5199 -50.9012 -33.9295
v  -206.0560 -47.8231 -93.3174
v  -208.2570 -47.5357 -93.3130
v  -210.5703 -47.2335 -93.2996
v  -212.9902 -46.9174 -93.2789
v  -221.2196 -45.8426 -93.0733
v  -215.5110 -46.5882 -93.2525
v  -218.2237 -46.2339 -93.1931
v  -245.8406 -42.6269 -89.3650
v  -243.2299 -42.9679 -90.1944
v  -256.9930 -41.1703 -79.5472
v  -103.1706 -52.5537 -62.6628
v  -103.1706 -52.5536 0.0000
v  130.0855 -52.5536 -62.6628
v  223.9740 -50.9012 -62.6627
v  263.5995 -50.9012 -37.9560
v  -268.5296 -39.6635 -41.1425
v  -269.3047 -39.5623 -34.8413
v  -236.4550 -43.8527 -91.5718
v  -240.1292 -43.3729 -90.9315
v  -259.6876 -40.8183 -73.8135
v  -80.1279 -52.5536 -92.3236
v  -75.6596 -52.5536 -92.3231
v  -77.2533 -52.5537 -62.6628
v  -258.3280 -40.9959 -76.8791
v  246.6638 -50.9012 -78.4219
v  248.2276 -50.9012 -75.9110
v  245.1463 -50.9012 -80.6528
v  243.6719 -50.9012 -82.6035
v  242.2371 -50.9012 -84.2737
v  240.8381 -50.9012 -85.6630
v  239.4556 -50.9012 -86.8000
v  238.0698 -50.9012 -87.7128
v  256.1307 -50.9012 -60.1821
v  257.5367 -50.9012 -56.7028
v  254.6500 -50.9012 -63.5811
v  253.0859 -50.9012 -66.9045
v  251.4720 -50.9012 -70.1013
v  249.8415 -50.9012 -73.1205
v  235.2103 -50.9012 -88.9795
v  236.6612 -50.9012 -88.4299
v  233.7169 -50.9012 -89.3848
v  232.1813 -50.9012 -89.6692
v  230.6033 -50.9012 -89.8557
v  228.9830 -50.9012 -89.9676
v  227.3310 -50.9012 -90.0236
v  225.6578 -50.9012 -90.0422
v  223.9740 -50.9012 -90.0422
v  267.5867 -50.9012 -4.2872
v  267.6445 -50.9012 0.0000
v  262.5476 -50.9012 -41.8914
v  261.3915 -50.9012 -45.7344
v  260.1588 -50.9012 -49.4837
v  258.8767 -50.9012 -53.1383
v  267.4238 -50.9012 -8.5721
v  267.1667 -50.9012 -12.8526
v  266.8262 -50.9012 -17.1264
v  266.4127 -50.9012 -21.3912
v  -224.5898 -45.4024 92.8659
v  -228.4256 -44.9014 92.5435
v  -196.5707 -49.0619 62.6628
v  -232.4672 -44.3735 92.1106
v  -261.0769 -40.6368 70.3637
v  -262.5009 -40.4509 66.5437
v  -263.9120 -40.2666 62.3297
v  -265.2632 -40.0901 57.6983
v  -266.5071 -39.9276 52.6259
v  -267.5965 -39.7854 47.0890
v  -255.6774 -41.3421 81.8038
v  -256.9930 -41.1703 79.5472
v  -248.0443 -42.3390 88.4482
v  -254.3767 -41.5120 83.6356
v  -249.9243 -42.0935 87.4487
v  -253.0267 -41.6883 85.1291
v  -251.5638 -41.8794 86.3712
v  -270.3743 -39.4226 21.3945
v  -269.9202 -39.4818 28.2403
v  -270.6808 -39.3825 14.3650
v  -270.8536 -39.3599 7.2131
v  -196.5707 -49.0620 93.1956
v  -198.3439 -48.8303 93.2321
v  -200.1480 -48.5947 93.2655
v  -202.0141 -48.3510 93.2930
v  -203.9731 -48.0951 93.3113
v  265.2812 -50.9011 29.8131
v  265.9048 -50.9011 25.6269
v  264.5199 -50.9011 33.9296
v  -206.0560 -47.8231 93.3174
v  -208.2570 -47.5356 93.3130
v  -210.5703 -47.2335 93.2996
v  -212.9902 -46.9174 93.2789
v  -221.2196 -45.8426 93.0733
v  -215.5110 -46.5882 93.2525
v  -218.2237 -46.2339 93.1931
v  -245.8406 -42.6269 89.3650
v  130.0855 -52.5536 62.6628
v  130.0855 -52.5536 0.0000
v  263.5995 -50.9011 37.9561
v  223.9740 -50.9011 62.6628
v  -268.5296 -39.6635 41.1425
v  -269.3047 -39.5622 34.8413
v  -236.4550 -43.8527 91.5718
v  -259.6876 -40.8183 73.8135
v  -240.1292 -43.3728 90.9315
v  -258.3280 -40.9959 76.8791
v  -103.1706 -52.5536 92.3254
v  -103.1706 -52.5536 62.6628
v  -101.1907 -52.5536 92.3254
v  -77.2533 -52.5536 62.6628
v  -243.2299 -42.9678 90.1944
v  246.6638 -50.9011 78.4220
v  248.2276 -50.9011 75.9111
v  245.1463 -50.9011 80.6529
v  243.6719 -50.9011 82.6036
v  242.2371 -50.9011 84.2738
v  240.8381 -50.9011 85.6631
v  239.4556 -50.9011 86.8001
v  238.0698 -50.9011 87.7129
v  256.1307 -50.9011 60.1822
v  257.5367 -50.9011 56.7029
v  254.6500 -50.9011 63.5812
v  253.0859 -50.9011 66.9046
v  251.4720 -50.9011 70.1014
v  249.8415 -50.9011 73.1206
v  235.2103 -50.9011 88.9795
v  236.6612 -50.9011 88.4299
v  233.7169 -50.9011 89.3849
v  232.1813 -50.9011 89.6692
v  230.6033 -50.9011 89.8558
v  228.9830 -50.9011 89.9677
v  227.3310 -50.9011 90.0236
v  225.6578 -50.9011 90.0423
v  223.9740 -50.9011 90.0423
v  267.5867 -50.9012 4.2872
v  262.5476 -50.9011 41.8915
v  261.3915 -50.9011 45.7344
v  260.1588 -50.9011 49.4838
v  258.8767 -50.9011 53.1383
v  267.4238 -50.9012 8.5722
v  267.1667 -50.9011 12.8527
v  266.8262 -50.9011 17.1264
v  266.4127 -50.9011 21.3913
v  -70.4262 -52.5536 -92.3227
v  -25.4186 -52.5536 0.0000
v  -51.3359 -52.5537 -62.6628
v  -51.3360 -52.5536 62.6628
v  -75.6596 -52.5536 92.3231
v  -70.4262 -52.5536 92.3227
v  -49.3318 -52.5536 -92.3221
v  -41.3608 -52.5536 -92.3232
v  -25.4186 -52.5537 -62.6628
v  -25.4186 -52.5536 62.6628
v  -49.3318 -52.5536 92.3221
v  -40.9680 -52.5536 92.3220
v  -25.4186 -52.5536 -92.3254
v  -16.7795 -52.5536 -92.3254
v  0.4988 -52.5537 -62.6628
v  0.4988 -52.5536 62.6628
v  -23.7407 -52.5536 92.3220
v  -15.1271 -52.5536 92.3220
v  2.1002 -52.5536 -92.3220
v  10.7138 -52.5536 -92.3220
v  52.3335 -52.5536 0.0000
v  26.4161 -52.5537 -62.6628
v  26.4161 -52.5536 62.6628
v  2.1002 -52.5536 92.3220
v  10.7138 -52.5536 92.3220
v  27.9411 -52.5536 -92.3220
v  36.5548 -52.5536 -92.3220
v  52.3335 -52.5536 -62.6628
v  52.3335 -52.5536 62.6628
v  27.9411 -52.5536 92.3220
v  36.5548 -52.5536 92.3220
v  53.7527 -52.5536 -92.3220
v  62.2784 -52.5536 -92.3220
v  78.2508 -52.5536 -62.6628
v  78.2508 -52.5536 62.6628
v  53.7527 -52.5536 92.3220
v  62.2784 -52.5536 92.3220
v  79.0365 -52.5536 -92.3220
v  86.9054 -52.5536 -92.3220
v  104.1682 -52.5536 -62.6628
v  104.1682 -52.5536 62.6628
v  79.0365 -52.5536 92.3220
v  86.9054 -52.5536 92.3220
v  128.1946 -52.5536 -92.3254
v  130.0855 -52.5536 -92.3254
v  128.1946 -52.5536 92.3254
v  130.0855 -52.5536 92.3254
v  -83.9485 -52.5536 -92.3240
v  -87.2385 -52.5536 -92.3244
v  -90.0983 -52.5536 -92.3247
v  -92.6286 -52.5536 -92.3250
v  -94.9298 -52.5536 -92.3252
v  -97.1024 -52.5536 -92.3253
v  -99.1787 -52.5536 -92.3253
v  -101.1907 -52.5536 -92.3254
v  -103.1706 -52.5536 -92.3254
v  -64.3108 -52.5536 -92.3224
v  -57.1960 -52.5536 -92.3222
v  -33.3897 -52.5536 -92.3243
v  -6.5135 -52.5536 -92.3220
v  19.3275 -52.5536 -92.3220
v  45.1684 -52.5536 -92.3220
v  70.7161 -52.5536 -92.3220
v  93.9885 -52.5536 -92.3221
v  99.9516 -52.5536 -92.3223
v  104.4605 -52.5536 -92.3225
v  126.2715 -52.5536 -92.3253
v  124.2840 -52.5536 -92.3252
v  122.1999 -52.5536 -92.3251
v  119.9870 -52.5536 -92.3248
v  117.6824 -52.5536 -92.3245
v  115.3232 -52.5536 -92.3241
v  112.9466 -52.5536 -92.3236
v  110.5896 -52.5536 -92.3232
v  107.8837 -52.5536 -92.3228
v  -99.1787 -52.5536 92.3253
v  -97.1024 -52.5536 92.3253
v  -94.9298 -52.5536 92.3252
v  -92.6286 -52.5536 92.3250
v  -90.0983 -52.5536 92.3247
v  -87.2385 -52.5536 92.3244
v  -83.9485 -52.5536 92.3240
v  -80.1279 -52.5536 92.3236
v  -64.3108 -52.5536 92.3224
v  -57.1960 -52.5536 92.3222
v  -32.3544 -52.5536 92.3220
v  -6.5135 -52.5536 92.3220
v  19.3275 -52.5536 92.3220
v  45.1684 -52.5536 92.3220
v  70.7161 -52.5536 92.3220
v  93.9885 -52.5536 92.3221
v  99.9516 -52.5536 92.3223
v  104.4605 -52.5536 92.3225
v  126.2715 -52.5536 92.3253
v  124.2840 -52.5536 92.3252
v  122.1999 -52.5536 92.3251
v  119.9870 -52.5536 92.3248
v  117.6824 -52.5536 92.3245
v  115.3232 -52.5536 92.3241
v  112.9466 -52.5536 92.3236
v  110.5896 -52.5536 92.3232
v  107.8837 -52.5536 92.3228
# 274 vertices

vn -0.1295 -0.9916 0.0000
vn -0.0763 -0.9971 -0.0000
vn -0.1295 -0.9916 -0.0000
vn -0.1296 -0.9916 -0.0001
vn -0.1294 -0.9916 0.0001
vn -0.0716 -0.9974 -0.0000
vn 0.0143 -0.9999 -0.0000
vn 0.0000 -1.0000 -0.0000
vn 0.0000 -1.0000 0.0000
vn -0.0270 -0.9996 0.0000
vn -0.0235 -0.9997 0.0000
vn 0.0128 -0.9999 0.0000
vn 0.0136 -0.9999 -0.0000
vn -0.0000 -1.0000 -0.0000
vn -0.0000 -1.0000 0.0000
vn 0.0128 -0.9999 -0.0000
vn 0.0104 -0.9999 -0.0000
vn -0.0271 -0.9996 -0.0000
# 18 vertex normals

g H612_FLOR_C_N_H612_FLOR_C
usemtl diffuse_black_plasticSG
s 1
f 1//1 2//1 3//2 
f 4//3 1//1 3//2 
f 5//1 4//3 3//2 
f 6//3 7//1 3//2 
f 8//3 6//3 3//2 
f 9//1 8//3 3//2 
f 10//1 9//1 3//2 
f 11//1 12//3 13//3 
f 14//4 15//1 12//3 
f 14//4 16//5 15//1 
f 17//6 18//3 19//3 
f 17//6 20//3 18//3 
f 17//6 21//3 20//3 
f 17//6 22//1 21//3 
f 23//1 24//1 3//2 
f 25//1 26//1 3//2 
f 27//3 25//1 3//2 
f 28//7 29//8 30//9 
f 28//7 31//8 29//8 
f 32//3 27//3 3//2 
f 26//1 23//1 3//2 
f 33//1 32//3 3//2 
f 34//1 33//1 3//2 
f 35//1 34//1 3//2 
f 2//1 36//3 3//2 
f 37//3 35//1 3//2 
f 38//3 37//3 3//2 
f 36//3 38//3 3//2 
f 39//1 40//1 41//3 
f 3//2 42//10 43//11 
f 44//12 45//13 28//7 
f 46//8 31//8 28//7 
f 47//3 10//1 3//2 
f 48//3 47//3 3//2 
f 48//3 3//2 17//6 
f 49//1 4//3 5//1 
f 50//1 49//1 51//3 
f 52//8 53//8 54//9 
f 43//11 42//10 54//9 
f 40//1 50//1 55//1 
f 45//13 56//9 57//14 
f 45//13 58//8 56//9 
f 45//13 59//14 58//8 
f 45//13 60//8 59//14 
f 45//13 61//9 60//8 
f 45//13 62//14 61//9 
f 45//13 63//14 62//14 
f 45//13 64//8 65//8 
f 45//13 66//8 64//8 
f 45//13 67//8 66//8 
f 45//13 68//8 67//8 
f 45//13 69//8 68//8 
f 45//13 70//14 71//8 
f 45//13 72//14 70//14 
f 45//13 73//8 72//14 
f 45//13 74//14 73//8 
f 45//13 75//9 74//14 
f 45//13 76//8 75//9 
f 45//13 77//14 76//8 
f 45//13 78//8 77//14 
f 28//7 79//9 80//8 
f 45//13 71//8 63//14 
f 45//13 81//8 46//8 
f 45//13 82//8 81//8 
f 45//13 83//15 82//8 
f 45//13 84//8 83//15 
f 45//13 65//8 84//8 
f 28//7 85//8 79//9 
f 28//7 86//8 85//8 
f 28//7 87//14 86//8 
f 28//7 88//9 87//14 
f 28//7 30//9 88//9 
f 45//13 57//14 69//8 
f 89//3 90//3 91//2 
f 90//3 92//1 91//2 
f 93//1 94//1 91//2 
f 94//1 95//3 91//2 
f 95//3 96//3 91//2 
f 96//3 97//1 91//2 
f 97//1 98//1 91//2 
f 99//3 100//3 101//3 
f 102//1 99//3 103//3 
f 104//3 102//1 105//3 
f 106//3 17//6 107//1 
f 108//3 17//6 106//3 
f 109//1 17//6 108//3 
f 22//1 17//6 109//1 
f 110//3 111//3 91//2 
f 112//1 113//3 91//2 
f 113//3 114//3 91//2 
f 115//15 28//7 116//8 
f 117//8 28//7 115//15 
f 114//3 118//1 91//2 
f 111//3 112//1 91//2 
f 118//1 119//3 91//2 
f 119//3 120//3 91//2 
f 120//3 121//3 91//2 
f 122//3 89//3 91//2 
f 121//3 123//3 91//2 
f 123//3 124//1 91//2 
f 124//1 122//3 91//2 
f 125//3 101//3 100//3 
f 91//2 17//6 43//11 
f 126//16 127//17 28//7 
f 128//8 129//13 28//7 
f 98//1 130//3 91//2 
f 130//3 131//3 91//2 
f 131//3 107//1 17//6 
f 132//3 133//3 93//1 
f 134//1 135//3 133//3 
f 136//8 137//18 138//14 
f 43//11 139//8 137//18 
f 140//3 100//3 135//3 
f 141//8 129//13 142//8 
f 143//8 129//13 141//8 
f 144//8 129//13 143//8 
f 145//15 129//13 144//8 
f 146//15 129//13 145//15 
f 147//15 129//13 146//15 
f 148//8 129//13 147//15 
f 149//8 129//13 150//8 
f 151//8 129//13 149//8 
f 152//8 129//13 151//8 
f 153//9 129//13 152//8 
f 154//15 129//13 153//9 
f 155//14 129//13 156//8 
f 157//15 129//13 155//14 
f 158//15 129//13 157//15 
f 159//8 129//13 158//15 
f 160//8 129//13 159//8 
f 161//14 129//13 160//8 
f 162//8 129//13 161//14 
f 163//14 129//13 162//8 
f 164//8 28//7 80//8 
f 156//8 129//13 148//8 
f 165//9 129//13 128//8 
f 166//14 129//13 165//9 
f 167//8 129//13 166//14 
f 168//9 129//13 167//8 
f 150//8 129//13 168//9 
f 169//15 28//7 164//8 
f 170//15 28//7 169//15 
f 171//8 28//7 170//15 
f 172//8 28//7 171//8 
f 116//8 28//7 172//8 
f 142//8 129//13 154//15 
f 7//1 5//1 3//2 
f 41//3 11//1 13//3 
f 11//1 14//4 12//3 
f 13//3 39//1 41//3 
f 17//6 3//2 43//11 
f 127//17 44//12 28//7 
f 45//13 46//8 28//7 
f 19//3 48//3 17//6 
f 51//3 49//1 5//1 
f 55//1 50//1 51//3 
f 41//3 40//1 55//1 
f 92//1 93//1 91//2 
f 103//3 99//3 101//3 
f 105//3 102//1 103//3 
f 140//3 125//3 100//3 
f 137//18 91//2 43//11 
f 129//13 126//16 28//7 
f 117//8 128//8 28//7 
f 91//2 131//3 17//6 
f 92//1 132//3 93//1 
f 132//3 134//1 133//3 
f 134//1 140//3 135//3 
f 53//8 173//8 54//9 
f 174//9 43//11 175//9 
f 175//9 43//11 54//9 
f 174//9 176//8 43//11 
f 43//11 176//8 139//8 
f 177//8 139//8 178//8 
f 179//8 180//8 175//9 
f 174//9 175//9 181//8 
f 174//9 182//8 176//8 
f 183//8 176//8 184//8 
f 185//8 186//8 181//8 
f 174//9 181//8 187//8 
f 174//9 188//8 182//8 
f 189//8 182//8 190//8 
f 191//14 192//8 187//8 
f 193//8 174//9 194//9 
f 194//9 174//9 187//8 
f 193//8 195//8 174//9 
f 174//9 195//8 188//8 
f 196//8 188//8 197//8 
f 198//8 199//8 194//9 
f 193//8 194//9 200//8 
f 193//8 201//8 195//8 
f 202//8 195//8 203//8 
f 204//9 205//8 200//8 
f 193//8 200//8 206//8 
f 193//8 207//8 201//8 
f 208//8 201//8 209//8 
f 210//9 211//9 206//8 
f 127//17 193//8 212//8 
f 212//8 193//8 206//8 
f 127//17 213//8 193//8 
f 193//8 213//8 207//8 
f 214//8 207//8 215//8 
f 216//8 217//8 44//12 
f 127//17 212//8 44//12 
f 127//17 126//16 213//8 
f 218//8 126//16 219//14 
f 220//8 52//8 54//9 
f 221//14 220//8 54//9 
f 222//14 221//14 54//9 
f 223//8 222//14 54//9 
f 224//8 223//8 42//10 
f 223//8 54//9 42//10 
f 225//8 224//8 42//10 
f 226//14 225//8 42//10 
f 227//14 226//14 42//10 
f 228//8 227//14 42//10 
f 173//8 229//14 54//9 
f 230//14 175//9 229//14 
f 229//14 175//9 54//9 
f 230//14 179//8 175//9 
f 231//14 181//8 180//8 
f 180//8 181//8 175//9 
f 231//14 185//8 181//8 
f 232//8 187//8 186//8 
f 186//8 187//8 181//8 
f 232//8 191//14 187//8 
f 233//8 194//9 192//8 
f 192//8 194//9 187//8 
f 233//8 198//8 194//9 
f 234//8 200//8 199//8 
f 199//8 200//8 194//9 
f 234//8 204//9 200//8 
f 235//8 206//8 205//8 
f 205//8 206//8 200//8 
f 235//8 210//9 206//8 
f 211//9 236//9 206//8 
f 237//8 212//8 236//9 
f 236//9 212//8 206//8 
f 237//8 238//14 212//8 
f 239//8 216//8 44//12 
f 240//8 239//8 44//12 
f 241//15 240//8 44//12 
f 242//15 241//15 44//12 
f 242//15 44//12 243//14 
f 243//14 44//12 212//8 
f 244//9 243//14 212//8 
f 245//14 244//9 212//8 
f 246//14 245//14 212//8 
f 247//9 246//14 212//8 
f 238//14 247//9 212//8 
f 138//14 137//18 248//14 
f 248//14 137//18 249//8 
f 249//8 137//18 250//8 
f 250//8 137//18 251//8 
f 251//8 137//18 252//14 
f 137//18 139//8 252//14 
f 252//14 139//8 253//14 
f 253//14 139//8 254//8 
f 254//8 139//8 255//8 
f 255//8 139//8 177//8 
f 178//8 139//8 256//8 
f 256//8 139//8 176//8 
f 256//8 176//8 257//14 
f 257//14 176//8 183//8 
f 176//8 182//8 184//8 
f 184//8 182//8 258//14 
f 258//14 182//8 189//8 
f 182//8 188//8 190//8 
f 190//8 188//8 259//8 
f 259//8 188//8 196//8 
f 188//8 195//8 197//8 
f 197//8 195//8 260//8 
f 260//8 195//8 202//8 
f 195//8 201//8 203//8 
f 203//8 201//8 261//8 
f 261//8 201//8 208//8 
f 201//8 207//8 209//8 
f 209//8 207//8 262//8 
f 262//8 207//8 214//8 
f 215//8 207//8 263//8 
f 263//8 207//8 213//8 
f 263//8 213//8 264//8 
f 264//8 213//8 265//14 
f 266//8 126//16 218//8 
f 267//8 126//16 266//8 
f 268//14 126//16 267//8 
f 269//14 126//16 268//14 
f 269//14 270//8 126//16 
f 270//8 213//8 126//16 
f 271//8 213//8 270//8 
f 272//14 213//8 271//8 
f 273//14 213//8 272//14 
f 274//8 213//8 273//14 
f 265//14 213//8 274//8 
# 294 faces

