# 3ds Max Wavefront OBJ Exporter v0.97b - (c)2007 guruware
# File Created: 23.11.2015 10:51:50

mtllib H612_18A5_R.mtl

#
# object H612_18A5_R_DaS_H612_18A5_R
#

v  -32.0572 109.4222 66.8885
v  -23.2257 109.0371 67.4946
v  -23.1902 109.3003 67.0282
v  -1.8077 108.3682 68.0306
v  3.8774 108.3395 67.7629
v  -5.1961 108.8027 67.4407
v  2.0025 106.9206 70.0595
v  2.6040 105.5764 71.3018
v  3.3986 106.8498 70.1080
v  30.0069 102.8641 72.8575
v  38.4591 99.7187 74.7083
v  38.6501 101.3860 73.5960
v  47.0120 99.5458 74.4573
v  54.9354 95.5411 76.6488
v  55.1851 97.2929 75.4454
v  47.9443 102.1616 71.0621
v  56.5189 100.3649 70.8515
v  48.3339 102.6900 69.8313
v  39.9516 104.5953 68.9338
v  39.5595 104.0528 70.1714
v  39.2072 103.4061 71.3491
v  47.5894 101.5265 72.2335
v  55.7849 99.2266 73.2431
v  56.1380 99.8504 72.0766
v  64.2404 97.0692 73.2215
v  63.8920 96.4549 74.3844
v  72.0087 93.1598 75.6635
v  72.3514 93.7678 74.5032
v  72.7072 94.2627 73.2864
v  64.6092 97.5719 72.0011
v  64.9916 98.0003 70.7425
v  73.0717 94.6823 72.0318
v  73.4404 94.8915 70.7584
v  65.3807 98.2189 69.4647
v  57.3275 101.0393 68.3041
v  56.9186 100.8066 69.5875
v  48.7468 103.1473 68.5609
v  49.1712 103.3964 67.2708
v  40.8024 105.3341 66.3591
v  40.3704 105.0684 67.6564
v  12.9663 107.6751 68.1953
v  22.3628 107.3329 67.4867
v  13.3057 108.2496 66.9349
v  4.1731 108.9208 66.4964
v  3.6155 107.6600 68.9730
v  12.6656 107.0016 69.3984
v  21.6666 106.1013 69.9343
v  21.9940 106.7673 68.7397
v  30.8839 105.5739 69.3978
v  30.5400 104.9169 70.5837
v  31.2697 106.1289 68.1526
v  31.6835 106.6158 66.8678
v  32.1114 106.8961 65.5633
v  23.1698 108.1242 64.8832
v  22.7594 107.8316 66.1947
v  13.6709 108.7579 65.6363
v  14.0491 109.0607 64.3186
v  4.8207 109.7473 63.8694
v  4.4913 109.4367 65.1923
v  46.8012 97.8392 75.6074
v  12.0746 103.2941 72.7998
v  12.2084 104.9018 71.7266
v  62.9354 92.7870 77.8153
v  63.2618 94.5766 76.5644
v  71.3345 91.3462 77.8181
v  63.5706 95.6919 75.4707
v  71.6832 92.4011 76.7484
v  55.4692 98.4571 74.3317
v  47.2809 100.7491 73.3257
v  38.9080 102.6206 72.4472
v  1.3773 107.4749 69.2951
v  0.5087 107.9388 68.6593
v  -40.8018 109.5178 66.7601
v  -32.0749 109.1586 67.3550
v  -49.4899 109.5835 66.6399
v  -40.8088 109.2539 67.2266
v  -4.7065 109.9100 64.8620
v  -14.0585 109.6977 65.9306
v  -4.9603 109.3888 66.1700
v  -4.4437 110.2260 63.5354
v  -13.6879 110.5420 63.2910
v  -13.8764 110.2224 64.6201
v  -22.9724 110.4183 64.4413
v  -22.8555 110.7402 63.1107
v  -31.8903 110.8655 62.9688
v  -31.9486 110.5425 64.3003
v  -32.0049 110.0146 65.6130
v  -23.0853 109.8916 65.7533
v  -14.2276 109.1084 67.2040
v  21.0117 102.4014 73.3144
v  21.1654 104.0219 72.2363
v  29.8345 101.2245 73.9473
v  30.2522 104.1238 71.6903
v  21.3947 105.3014 71.0510
v  12.4165 106.1959 70.5250
v  -5.2761 108.5411 67.9055
v  -0.5165 108.2137 68.2321
v  -49.4851 110.1768 65.3645
v  -40.7811 110.1108 65.4846
v  -40.7588 110.6394 64.1716
v  -40.7357 110.9632 62.8400
v  -49.4744 111.0299 62.7202
v  -49.4798 110.7057 64.0517
v  -14.2849 108.8458 67.6699
v  2.8457 103.9597 72.3859
v  70.8500 89.5582 79.1037
v  -49.4915 109.3195 67.1061
# 107 vertices

vn 0.0044 0.8974 0.4411
vn 0.0065 0.8706 0.4919
vn 0.0080 0.8975 0.4409
vn 0.0273 0.8732 0.4866
vn 0.0371 0.8907 0.4531
vn 0.0239 0.8990 0.4373
vn 0.0143 0.7677 0.6407
vn 0.0085 0.6167 0.7872
vn 0.0209 0.7345 0.6783
vn 0.0307 0.6120 0.7902
vn 0.0293 0.5523 0.8331
vn 0.0447 0.6108 0.7905
vn 0.0623 0.6106 0.7895
vn 0.0637 0.5584 0.8271
vn 0.0852 0.6115 0.7866
vn 0.1656 0.8667 0.4705
vn 0.2235 0.8845 0.4096
vn 0.1806 0.8941 0.4099
vn 0.1414 0.9015 0.4091
vn 0.1287 0.8737 0.4692
vn 0.1110 0.8270 0.5512
vn 0.1434 0.8206 0.5532
vn 0.1796 0.8126 0.5544
vn 0.2054 0.8580 0.4708
vn 0.2472 0.8469 0.4709
vn 0.2171 0.8028 0.5553
vn 0.2547 0.7909 0.5564
vn 0.2880 0.8338 0.4709
vn 0.3103 0.8586 0.4081
vn 0.2674 0.8727 0.4085
vn 0.2932 0.9014 0.3187
vn 0.3380 0.8859 0.3178
vn 0.3566 0.8998 0.2514
vn 0.3124 0.9160 0.2518
vn 0.2632 0.9311 0.2526
vn 0.2465 0.9149 0.3196
vn 0.2008 0.9258 0.3203
vn 0.2174 0.9426 0.2535
vn 0.1713 0.9525 0.2519
vn 0.1579 0.9344 0.3194
vn 0.0519 0.8856 0.4616
vn 0.0801 0.9110 0.4046
vn 0.0578 0.9137 0.4023
vn 0.0403 0.9156 0.4000
vn 0.0302 0.8415 0.5393
vn 0.0434 0.8390 0.5424
vn 0.0613 0.8360 0.5453
vn 0.0722 0.8827 0.4643
vn 0.0977 0.8789 0.4668
vn 0.0834 0.8320 0.5485
vn 0.1075 0.9070 0.4072
vn 0.1211 0.9406 0.3171
vn 0.1332 0.9591 0.2497
vn 0.0998 0.9641 0.2462
vn 0.0906 0.9449 0.3146
vn 0.0661 0.9479 0.3117
vn 0.0736 0.9671 0.2433
vn 0.0518 0.9693 0.2404
vn 0.0464 0.9497 0.3098
vn 0.0439 0.5543 0.8311
vn 0.0049 0.5551 0.8318
vn 0.0120 0.6166 0.7872
vn 0.0867 0.5602 0.8238
vn 0.1094 0.6107 0.7843
vn 0.1363 0.6101 0.7805
vn 0.1690 0.7230 0.6699
vn 0.2041 0.7174 0.6661
vn 0.1365 0.7266 0.6734
vn 0.1058 0.7298 0.6754
vn 0.0798 0.7322 0.6764
vn 0.0320 0.8359 0.5480
vn 0.0343 0.8581 0.5123
vn 0.0020 0.8973 0.4413
vn 0.0032 0.8706 0.4920
vn -0.0009 0.8972 0.4416
vn 0.0010 0.8704 0.4924
vn 0.0310 0.9511 0.3074
vn 0.0163 0.9175 0.3974
vn 0.0267 0.9167 0.3986
vn 0.0349 0.9706 0.2382
vn 0.0220 0.9713 0.2367
vn 0.0194 0.9516 0.3069
vn 0.0114 0.9520 0.3060
vn 0.0132 0.9716 0.2361
vn 0.0085 0.9717 0.2361
vn 0.0072 0.9518 0.3066
vn 0.0053 0.9177 0.3973
vn 0.0092 0.9176 0.3973
vn 0.0146 0.8973 0.4413
vn 0.0106 0.5533 0.8329
vn 0.0201 0.6142 0.7889
vn 0.0185 0.5522 0.8335
vn 0.0583 0.7351 0.6754
vn 0.0415 0.7376 0.6740
vn 0.0281 0.7393 0.6728
vn 0.0188 0.8700 0.4928
vn 0.0276 0.8704 0.4916
vn -0.0002 0.9175 0.3978
vn 0.0029 0.9176 0.3976
vn 0.0045 0.9518 0.3066
vn 0.0057 0.9716 0.2364
vn 0.0023 0.9716 0.2366
vn 0.0013 0.9517 0.3070
vn 0.0126 0.8704 0.4922
vn 0.0030 0.5573 0.8303
vn 0.1080 0.5609 0.8208
vn -0.0018 0.8703 0.4926
# 107 vertex normals

vt 0.4919 0.7080 0.0000
vt 0.4759 0.7095 0.0000
vt 0.4758 0.7086 0.0000
vt 0.4371 0.7116 0.0000
vt 0.4268 0.7111 0.0000
vt 0.4432 0.7102 0.0000
vt 0.4302 0.7160 0.0000
vt 0.4291 0.7191 0.0000
vt 0.4276 0.7160 0.0000
vt 0.3794 0.7244 0.0000
vt 0.3641 0.7307 0.0000
vt 0.3637 0.7271 0.0000
vt 0.3486 0.7302 0.0000
vt 0.3342 0.7377 0.0000
vt 0.3338 0.7339 0.0000
vt 0.3469 0.7225 0.0000
vt 0.3313 0.7240 0.0000
vt 0.3462 0.7201 0.0000
vt 0.3614 0.7168 0.0000
vt 0.3621 0.7192 0.0000
vt 0.3627 0.7216 0.0000
vt 0.3475 0.7248 0.0000
vt 0.3327 0.7286 0.0000
vt 0.3320 0.7263 0.0000
vt 0.3174 0.7308 0.0000
vt 0.3180 0.7331 0.0000
vt 0.3033 0.7383 0.0000
vt 0.3027 0.7361 0.0000
vt 0.3020 0.7339 0.0000
vt 0.3167 0.7285 0.0000
vt 0.3160 0.7262 0.0000
vt 0.3013 0.7317 0.0000
vt 0.3007 0.7297 0.0000
vt 0.3153 0.7240 0.0000
vt 0.3299 0.7194 0.0000
vt 0.3306 0.7216 0.0000
vt 0.3454 0.7177 0.0000
vt 0.3447 0.7154 0.0000
vt 0.3598 0.7120 0.0000
vt 0.3606 0.7144 0.0000
vt 0.4103 0.7124 0.0000
vt 0.3933 0.7117 0.0000
vt 0.4097 0.7099 0.0000
vt 0.4262 0.7086 0.0000
vt 0.4272 0.7136 0.0000
vt 0.4108 0.7149 0.0000
vt 0.3945 0.7167 0.0000
vt 0.3939 0.7142 0.0000
vt 0.3778 0.7165 0.0000
vt 0.3784 0.7189 0.0000
vt 0.3771 0.7140 0.0000
vt 0.3764 0.7116 0.0000
vt 0.3756 0.7092 0.0000
vt 0.3918 0.7068 0.0000
vt 0.3925 0.7092 0.0000
vt 0.4090 0.7074 0.0000
vt 0.4083 0.7050 0.0000
vt 0.4250 0.7036 0.0000
vt 0.4256 0.7061 0.0000
vt 0.3490 0.7339 0.0000
vt 0.4119 0.7241 0.0000
vt 0.4117 0.7206 0.0000
vt 0.3197 0.7421 0.0000
vt 0.3191 0.7382 0.0000
vt 0.3045 0.7431 0.0000
vt 0.3186 0.7354 0.0000
vt 0.3039 0.7405 0.0000
vt 0.3333 0.7310 0.0000
vt 0.3481 0.7272 0.0000
vt 0.3633 0.7240 0.0000
vt 0.4313 0.7143 0.0000
vt 0.4329 0.7129 0.0000
vt 0.5077 0.7074 0.0000
vt 0.4919 0.7089 0.0000
vt 0.5235 0.7069 0.0000
vt 0.5077 0.7084 0.0000
vt 0.4423 0.7051 0.0000
vt 0.4593 0.7068 0.0000
vt 0.4428 0.7077 0.0000
vt 0.4418 0.7027 0.0000
vt 0.4586 0.7017 0.0000
vt 0.4589 0.7042 0.0000
vt 0.4754 0.7035 0.0000
vt 0.4752 0.7010 0.0000
vt 0.4916 0.7004 0.0000
vt 0.4917 0.7028 0.0000
vt 0.4918 0.7054 0.0000
vt 0.4756 0.7060 0.0000
vt 0.4596 0.7093 0.0000
vt 0.3957 0.7258 0.0000
vt 0.3954 0.7223 0.0000
vt 0.3797 0.7280 0.0000
vt 0.3790 0.7213 0.0000
vt 0.3950 0.7191 0.0000
vt 0.4113 0.7174 0.0000
vt 0.4433 0.7112 0.0000
vt 0.4347 0.7120 0.0000
vt 0.5235 0.7043 0.0000
vt 0.5077 0.7049 0.0000
vt 0.5077 0.7023 0.0000
vt 0.5076 0.6998 0.0000
vt 0.5234 0.6993 0.0000
vt 0.5235 0.7018 0.0000
vt 0.4597 0.7103 0.0000
vt 0.4286 0.7225 0.0000
vt 0.3054 0.7470 0.0000
vt 0.5235 0.7078 0.0000
# 107 texture coords

g H612_18A5_R_DaS_H612_18A5_R
usemtl paint_whiteSG
s 9
f 1/1/1 2/2/2 3/3/3 
f 4/4/4 5/5/5 6/6/6 
f 7/7/7 8/8/8 9/9/9 
f 10/10/10 11/11/11 12/12/12 
f 13/13/13 14/14/14 15/15/15 
f 16/16/16 17/17/17 18/18/18 
f 16/16/16 19/19/19 20/20/20 
f 16/16/16 21/21/21 22/22/22 
f 16/16/16 23/23/23 24/24/24 
f 25/25/25 17/17/17 24/24/24 
f 25/25/25 23/23/23 26/26/26 
f 25/25/25 27/27/27 28/28/28 
f 25/25/25 29/29/29 30/30/30 
f 31/31/31 17/17/17 30/30/30 
f 31/31/31 29/29/29 32/32/32 
f 31/31/31 33/33/33 34/34/34 
f 31/31/31 35/35/35 36/36/36 
f 37/37/37 17/17/17 36/36/36 
f 37/37/37 35/35/35 38/38/38 
f 37/37/37 39/39/39 40/40/40 
f 37/37/37 19/19/19 18/18/18 
f 41/41/41 42/42/42 43/43/43 
f 41/41/41 44/44/44 5/5/5 
f 41/41/41 45/45/45 46/46/46 
f 41/41/41 47/47/47 48/48/48 
f 49/49/49 42/42/42 48/48/48 
f 49/49/49 47/47/47 50/50/50 
f 49/49/49 21/21/21 20/20/20 
f 49/49/49 19/19/19 51/51/51 
f 52/52/52 42/42/42 51/51/51 
f 52/52/52 19/19/19 40/40/40 
f 52/52/52 39/39/39 53/53/53 
f 52/52/52 54/54/54 55/55/55 
f 56/56/56 42/42/42 55/55/55 
f 56/56/56 54/54/54 57/57/57 
f 56/56/56 58/58/58 59/59/59 
f 56/56/56 44/44/44 43/43/43 
f 12/12/12 60/60/60 13/13/13 
f 8/8/8 61/61/61 62/62/62 
f 15/15/15 63/63/63 64/64/64 
f 63/63/63 65/65/65 64/64/64 
f 66/66/66 15/15/15 64/64/64 
f 66/66/66 65/65/65 67/67/67 
f 66/66/66 27/27/27 26/26/26 
f 66/66/66 23/23/23 68/68/68 
f 69/69/69 15/15/15 68/68/68 
f 69/69/69 23/23/23 22/22/22 
f 69/69/69 21/21/21 70/70/70 
f 69/69/69 12/12/12 13/13/13 
f 71/71/71 5/5/5 72/72/72 
f 73/73/73 74/74/74 1/1/1 
f 75/75/75 76/76/76 73/73/73 
f 77/77/77 78/78/78 79/79/79 
f 77/77/77 44/44/44 59/59/59 
f 77/77/77 58/58/58 80/80/80 
f 77/77/77 81/81/81 82/82/82 
f 83/83/83 78/78/78 82/82/82 
f 83/83/83 81/81/81 84/84/84 
f 83/83/83 85/85/85 86/86/86 
f 83/83/83 87/87/87 88/88/88 
f 3/3/3 78/78/78 88/88/88 
f 3/3/3 87/87/87 1/1/1 
f 6/6/6 78/78/78 89/89/89 
f 6/6/6 44/44/44 79/79/79 
f 62/62/62 90/90/90 91/91/91 
f 91/91/91 92/92/92 10/10/10 
f 93/93/93 91/91/91 10/10/10 
f 93/93/93 12/12/12 70/70/70 
f 93/93/93 21/21/21 50/50/50 
f 93/93/93 47/47/47 94/94/94 
f 95/95/95 91/91/91 94/94/94 
f 95/95/95 47/47/47 46/46/46 
f 95/95/95 45/45/45 9/9/9 
f 95/95/95 8/8/8 62/62/62 
f 4/4/4 6/6/6 96/96/96 
f 72/72/72 5/5/5 97/97/97 
f 7/7/7 45/45/45 71/71/71 
f 73/73/73 98/98/98 75/75/75 
f 73/73/73 87/87/87 99/99/99 
f 100/100/100 98/98/98 99/99/99 
f 100/100/100 87/87/87 86/86/86 
f 100/100/100 85/85/85 101/101/101 
f 100/100/100 102/102/102 103/103/103 
f 3/3/3 104/104/104 89/89/89 
f 89/89/89 96/96/96 6/6/6 
f 74/74/74 2/2/2 1/1/1 
f 97/97/97 5/5/5 4/4/4 
f 92/92/92 11/11/11 10/10/10 
f 60/60/60 14/14/14 13/13/13 
f 24/24/24 17/17/17 16/16/16 
f 18/18/18 19/19/19 16/16/16 
f 20/20/20 21/21/21 16/16/16 
f 22/22/22 23/23/23 16/16/16 
f 30/30/30 17/17/17 25/25/25 
f 24/24/24 23/23/23 25/25/25 
f 26/26/26 27/27/27 25/25/25 
f 28/28/28 29/29/29 25/25/25 
f 36/36/36 17/17/17 31/31/31 
f 30/30/30 29/29/29 31/31/31 
f 32/32/32 33/33/33 31/31/31 
f 34/34/34 35/35/35 31/31/31 
f 18/18/18 17/17/17 37/37/37 
f 36/36/36 35/35/35 37/37/37 
f 38/38/38 39/39/39 37/37/37 
f 40/40/40 19/19/19 37/37/37 
f 48/48/48 42/42/42 41/41/41 
f 43/43/43 44/44/44 41/41/41 
f 5/5/5 45/45/45 41/41/41 
f 46/46/46 47/47/47 41/41/41 
f 51/51/51 42/42/42 49/49/49 
f 48/48/48 47/47/47 49/49/49 
f 50/50/50 21/21/21 49/49/49 
f 20/20/20 19/19/19 49/49/49 
f 55/55/55 42/42/42 52/52/52 
f 51/51/51 19/19/19 52/52/52 
f 40/40/40 39/39/39 52/52/52 
f 53/53/53 54/54/54 52/52/52 
f 43/43/43 42/42/42 56/56/56 
f 55/55/55 54/54/54 56/56/56 
f 57/57/57 58/58/58 56/56/56 
f 59/59/59 44/44/44 56/56/56 
f 11/11/11 60/60/60 12/12/12 
f 105/105/105 61/61/61 8/8/8 
f 14/14/14 63/63/63 15/15/15 
f 106/106/106 65/65/65 63/63/63 
f 68/68/68 15/15/15 66/66/66 
f 64/64/64 65/65/65 66/66/66 
f 67/67/67 27/27/27 66/66/66 
f 26/26/26 23/23/23 66/66/66 
f 13/13/13 15/15/15 69/69/69 
f 68/68/68 23/23/23 69/69/69 
f 22/22/22 21/21/21 69/69/69 
f 70/70/70 12/12/12 69/69/69 
f 45/45/45 5/5/5 71/71/71 
f 76/76/76 74/74/74 73/73/73 
f 107/107/107 76/76/76 75/75/75 
f 82/82/82 78/78/78 77/77/77 
f 79/79/79 44/44/44 77/77/77 
f 59/59/59 58/58/58 77/77/77 
f 80/80/80 81/81/81 77/77/77 
f 88/88/88 78/78/78 83/83/83 
f 82/82/82 81/81/81 83/83/83 
f 84/84/84 85/85/85 83/83/83 
f 86/86/86 87/87/87 83/83/83 
f 89/89/89 78/78/78 3/3/3 
f 88/88/88 87/87/87 3/3/3 
f 79/79/79 78/78/78 6/6/6 
f 5/5/5 44/44/44 6/6/6 
f 61/61/61 90/90/90 62/62/62 
f 90/90/90 92/92/92 91/91/91 
f 94/94/94 91/91/91 93/93/93 
f 10/10/10 12/12/12 93/93/93 
f 70/70/70 21/21/21 93/93/93 
f 50/50/50 47/47/47 93/93/93 
f 62/62/62 91/91/91 95/95/95 
f 94/94/94 47/47/47 95/95/95 
f 46/46/46 45/45/45 95/95/95 
f 9/9/9 8/8/8 95/95/95 
f 9/9/9 45/45/45 7/7/7 
f 99/99/99 98/98/98 73/73/73 
f 1/1/1 87/87/87 73/73/73 
f 103/103/103 98/98/98 100/100/100 
f 99/99/99 87/87/87 100/100/100 
f 86/86/86 85/85/85 100/100/100 
f 101/101/101 102/102/102 100/100/100 
f 2/2/2 104/104/104 3/3/3 
f 104/104/104 96/96/96 89/89/89 
# 167 faces

#
# object H612_18A5_R_DaS_H612_18A5_R_E
#

v  -32.0760 108.8721 67.1929
v  -40.8088 109.2539 67.2266
v  -40.8091 108.9675 67.0645
v  -0.5202 107.9355 68.0563
v  -1.8077 108.3682 68.0306
v  -1.8149 108.0885 67.8571
v  0.5009 107.6621 68.4809
v  -0.5165 108.2137 68.2321
v  -5.2761 108.5411 67.9055
v  -5.2832 108.2570 67.7394
v  1.3664 107.2041 69.1081
v  0.5087 107.9388 68.6593
v  1.9969 106.6726 69.8407
v  1.3773 107.4749 69.2951
v  2.6025 105.3714 71.0429
v  2.0025 106.9206 70.0595
v  2.8464 103.7871 72.1052
v  2.6040 105.5764 71.3018
v  -49.4915 109.3195 67.1061
v  -49.4909 109.0330 66.9440
v  -14.2892 108.5593 67.5078
v  -23.2257 109.0371 67.4946
v  -23.2279 108.7505 67.3326
v  -32.0749 109.1586 67.3550
v  -14.2849 108.8458 67.6699
v  2.8457 103.9597 72.3859
# 26 vertices

vn -0.0193 -0.4920 0.8704
vn -0.0170 -0.4923 0.8703
vn -0.3204 -0.5023 0.8032
vn -0.1236 -0.5214 0.8443
vn -0.1233 -0.5201 0.8452
vn -0.5603 -0.4373 0.7034
vn -0.3206 -0.5031 0.8026
vn -0.0468 -0.5040 0.8624
vn -0.0466 -0.5032 0.8629
vn -0.7496 -0.3540 0.5592
vn -0.5608 -0.4386 0.7022
vn -0.8956 -0.2773 0.3479
vn -0.7520 -0.3600 0.5522
vn -0.9752 -0.1684 0.1439
vn -0.8968 -0.2842 0.3391
vn -0.9923 -0.1053 0.0649
vn -0.9753 -0.1711 0.1399
vn -0.0158 -0.4925 0.8702
vn -0.0332 -0.4917 0.8701
vn -0.0240 -0.4918 0.8704
vn -0.0332 -0.4919 0.8700
vn -0.9924 -0.1062 0.0628
vn -0.0158 -0.4923 0.8703
# 23 vertex normals

vt 0.4919 0.7095 0.0000
vt 0.5077 0.7084 0.0000
vt 0.5077 0.7090 0.0000
vt 0.4347 0.7126 0.0000
vt 0.4371 0.7116 0.0000
vt 0.4371 0.7122 0.0000
vt 0.4329 0.7134 0.0000
vt 0.4347 0.7120 0.0000
vt 0.4433 0.7112 0.0000
vt 0.4434 0.7118 0.0000
vt 0.4313 0.7148 0.0000
vt 0.4329 0.7129 0.0000
vt 0.4302 0.7162 0.0000
vt 0.4313 0.7143 0.0000
vt 0.4291 0.7192 0.0000
vt 0.4302 0.7160 0.0000
vt 0.4286 0.7225 0.0000
vt 0.4291 0.7191 0.0000
vt 0.5235 0.7078 0.0000
vt 0.5235 0.7084 0.0000
vt 0.4597 0.7109 0.0000
vt 0.4759 0.7095 0.0000
vt 0.4759 0.7101 0.0000
vt 0.4919 0.7089 0.0000
vt 0.4597 0.7103 0.0000
# 25 texture coords

g H612_18A5_R_DaS_H612_18A5_R_E
usemtl paint_whiteSG
s 1
f 108/108/108 109/109/109 110/110/109 
f 111/111/110 112/112/111 113/113/112 
f 114/114/113 115/115/114 111/111/110 
f 113/113/112 116/116/115 117/117/116 
f 118/118/117 119/119/118 114/114/113 
f 120/120/119 121/121/120 118/118/117 
f 122/122/121 123/123/122 120/120/119 
f 124/124/123 125/125/124 122/122/121 
s off
f 110/110/125 126/126/125 127/127/125 
s 1
f 128/128/126 129/129/127 130/130/127 
f 130/130/127 131/131/108 108/108/108 
f 117/117/116 132/132/128 128/128/126 
f 131/131/108 109/109/109 108/108/108 
f 115/115/114 112/112/111 111/111/110 
f 119/119/118 115/115/114 114/114/113 
f 112/112/111 116/116/115 113/113/112 
f 121/121/120 119/119/118 118/118/117 
f 123/123/122 121/121/120 120/120/119 
f 125/125/124 123/123/122 122/122/121 
f 133/124/129 125/125/124 124/124/123 
f 109/109/109 126/126/130 110/110/109 
f 132/132/128 129/129/127 128/128/126 
f 129/129/127 131/131/108 130/130/127 
f 116/116/115 132/132/128 117/117/116 
# 24 faces

