# 3ds Max Wavefront OBJ Exporter v0.97b - (c)2007 guruware
# File Created: 23.11.2015 10:56:16

mtllib H612_285B_R.mtl

#
# object H612_285B_R_DTaSI_H612_285B_R
#

v  29.3865 92.7411 77.4572
v  29.1775 86.8167 80.0516
v  37.9897 91.6230 78.0035
v  37.7806 85.9613 80.4613
v  29.7001 98.9755 74.4348
v  38.3099 97.4583 75.1974
v  20.2921 51.5731 92.6392
v  17.0936 51.4333 92.7139
v  19.3743 45.9016 94.4309
v  17.6555 45.9707 94.4271
v  20.3623 58.8167 90.3132
v  28.3610 58.5328 90.3709
v  28.1556 51.2785 92.6697
v  27.9948 45.5459 94.4490
v  36.6078 45.1890 94.4639
v  36.7665 50.9543 92.6997
v  36.9698 58.2204 90.4308
v  20.4339 66.2563 87.8234
v  28.5716 65.9508 87.9225
v  37.1783 65.6059 88.0306
v  37.3831 72.7789 85.5529
v  28.7782 73.2237 85.3708
v  20.5033 73.6004 85.2105
v  20.6402 87.4980 79.7071
v  20.7278 93.6218 77.0012
v  13.3220 88.0748 79.4330
v  12.6919 94.1772 76.7367
v  20.8942 100.1592 73.8045
v  11.9747 101.0566 73.2943
v  20.5703 80.7829 82.4581
v  14.0333 81.1739 82.2908
v  16.3195 58.9637 90.2945
v  15.5507 66.4385 87.7827
v  14.7884 73.8440 85.1314
v  87.1336 48.5129 92.7918
v  86.9646 55.6372 90.6466
v  78.9866 49.2365 92.7207
v  78.8603 56.4863 90.5492
v  70.6378 56.9105 90.5563
v  70.6936 49.6412 92.7324
v  70.7080 43.7429 94.4759
v  79.0243 43.3499 94.4666
v  87.1766 42.9433 94.4539
v  94.8899 54.7673 90.7424
v  95.0690 47.8164 92.8528
v  95.1084 42.5277 94.4396
v  102.7635 42.1075 94.4250
v  102.4768 47.1408 92.9197
v  102.3164 53.8335 90.8780
v  86.4938 62.7092 88.4749
v  94.4014 61.6184 88.6058
v  101.9014 60.5399 88.7463
v  101.4615 67.0763 86.4562
v  101.3845 70.4060 85.2362
v  93.6387 67.9585 86.5086
v  85.7602 68.8007 86.5275
v  78.5179 63.5316 88.3921
v  77.9537 69.7630 86.4062
v  70.1937 70.4866 86.2799
v  70.4693 64.0215 88.3675
v  53.8550 50.3084 92.7396
v  53.9578 57.5817 90.5295
v  45.3367 50.6320 92.7240
v  45.5028 57.9040 90.4857
v  45.2098 44.8356 94.4742
v  53.7766 44.4804 94.4796
v  62.3357 57.2513 90.5553
v  62.3108 49.9795 92.7435
v  62.2840 44.1180 94.4803
v  54.0510 64.8529 88.2383
v  62.3160 64.4466 88.3180
v  62.2346 71.1317 86.1238
v  54.1236 71.7280 85.9426
v  45.6724 65.2397 88.1390
v  45.8378 72.2787 85.7478
v  46.3515 90.2646 78.6297
v  46.6416 95.5729 76.0979
v  54.4555 88.7461 79.2756
v  54.7785 93.2189 77.0801
v  62.2985 87.0161 79.9628
v  62.6796 90.4649 78.2615
v  84.9278 73.7554 84.7945
v  92.1056 76.0049 83.4309
v  84.6344 77.6212 83.2714
v  70.3534 87.3064 79.5499
v  69.9441 85.3091 80.5458
v  77.7024 83.8199 80.9110
v  107.5933 66.3908 86.5019
v  107.7625 59.5635 88.9760
v  107.9214 53.1881 90.9952
v  77.4220 79.2533 82.9558
v  84.6969 80.1648 82.1987
v  70.0006 80.8438 82.5049
v  77.5981 74.8225 84.6663
v  70.0960 76.0510 84.3431
v  92.9077 72.1416 84.9575
v  46.1633 84.9304 80.9287
v  54.2655 83.7476 81.4313
v  108.0827 46.4927 93.0239
v  54.1767 78.0729 83.6515
v  45.9985 78.9099 83.3122
v  37.5832 79.6466 82.9912
v  62.1328 77.1377 83.9951
v  62.1074 82.3996 81.9604
v  28.9798 80.2729 82.7036
v  108.1953 41.7951 94.4164
# 106 vertices

vn -0.0042 0.4196 0.9077
vn -0.0057 0.3882 0.9216
vn -0.0021 0.4163 0.9092
vn -0.0047 0.3848 0.9230
vn -0.0035 0.4371 0.8994
vn -0.0007 0.4341 0.9008
vn 0.0078 0.3019 0.9533
vn 0.0085 0.3037 0.9527
vn 0.0102 0.2998 0.9540
vn 0.0100 0.3002 0.9538
vn 0.0044 0.3111 0.9504
vn 0.0042 0.3076 0.9515
vn 0.0071 0.2989 0.9543
vn 0.0088 0.2962 0.9551
vn 0.0098 0.2917 0.9565
vn 0.0079 0.2953 0.9554
vn 0.0047 0.3034 0.9528
vn 0.0015 0.3260 0.9454
vn 0.0007 0.3221 0.9467
vn 0.0012 0.3176 0.9482
vn -0.0021 0.3379 0.9412
vn -0.0024 0.3424 0.9395
vn -0.0011 0.3464 0.9381
vn -0.0048 0.3915 0.9202
vn -0.0032 0.4227 0.9063
vn -0.0033 0.3941 0.9190
vn -0.0029 0.4280 0.9038
vn -0.0039 0.4414 0.8973
vn -0.0062 0.4470 0.8945
vn -0.0036 0.3684 0.9297
vn -0.0026 0.3720 0.9282
vn 0.0063 0.3129 0.9498
vn 0.0036 0.3285 0.9445
vn 0.0007 0.3496 0.9369
vn 0.0177 0.2876 0.9576
vn 0.0202 0.2920 0.9562
vn 0.0163 0.2860 0.9581
vn 0.0175 0.2904 0.9567
vn 0.0138 0.2906 0.9567
vn 0.0141 0.2854 0.9583
vn 0.0140 0.2837 0.9588
vn 0.0155 0.2847 0.9585
vn 0.0166 0.2863 0.9580
vn 0.0207 0.2953 0.9552
vn 0.0179 0.2894 0.9570
vn 0.0172 0.2874 0.9576
vn 0.0171 0.2868 0.9578
vn 0.0166 0.2898 0.9570
vn 0.0171 0.2975 0.9546
vn 0.0247 0.3017 0.9531
vn 0.0283 0.3094 0.9505
vn 0.0233 0.3186 0.9476
vn 0.0352 0.3340 0.9419
vn 0.0413 0.3510 0.9355
vn 0.0381 0.3305 0.9430
vn 0.0322 0.3208 0.9466
vn 0.0185 0.2993 0.9540
vn 0.0202 0.3157 0.9486
vn 0.0109 0.3177 0.9481
vn 0.0126 0.3007 0.9536
vn 0.0099 0.2885 0.9574
vn 0.0075 0.2955 0.9553
vn 0.0087 0.2916 0.9565
vn 0.0057 0.2993 0.9541
vn 0.0104 0.2883 0.9575
vn 0.0112 0.2855 0.9583
vn 0.0102 0.2925 0.9562
vn 0.0118 0.2863 0.9581
vn 0.0125 0.2839 0.9588
vn 0.0044 0.3083 0.9513
vn 0.0079 0.3041 0.9526
vn 0.0051 0.3225 0.9466
vn 0.0013 0.3277 0.9448
vn 0.0022 0.3129 0.9498
vn -0.0010 0.3329 0.9429
vn 0.0035 0.4140 0.9103
vn 0.0073 0.4309 0.9024
vn 0.0090 0.4168 0.9089
vn 0.0152 0.4372 0.8992
vn 0.0172 0.4152 0.9096
vn 0.0231 0.4400 0.8977
vn 0.0426 0.3501 0.9357
vn 0.0552 0.3760 0.9250
vn 0.0511 0.3751 0.9256
vn 0.0346 0.4399 0.8974
vn 0.0280 0.4132 0.9102
vn 0.0373 0.4070 0.9127
vn 0.0263 0.3373 0.9410
vn 0.0167 0.3205 0.9471
vn 0.0147 0.2962 0.9550
vn 0.0332 0.3828 0.9232
vn 0.0513 0.3930 0.9181
vn 0.0190 0.3804 0.9246
vn 0.0253 0.3430 0.9390
vn 0.0116 0.3433 0.9391
vn 0.0464 0.3623 0.9309
vn -0.0026 0.3817 0.9243
vn 0.0010 0.3798 0.9251
vn 0.0162 0.2883 0.9574
vn -0.0007 0.3516 0.9362
vn -0.0032 0.3562 0.9344
vn -0.0043 0.3605 0.9327
vn 0.0038 0.3470 0.9379
vn 0.0077 0.3785 0.9256
vn -0.0048 0.3646 0.9311
vn 0.0179 0.2846 0.9585
# 106 vertex normals

vt 0.7269 0.1764 0.0000
vt 0.7267 0.1557 0.0000
vt 0.7545 0.1731 0.0000
vt 0.7543 0.1533 0.0000
vt 0.7273 0.1986 0.0000
vt 0.7550 0.1938 0.0000
vt 0.7007 0.0355 0.0000
vt 0.6905 0.0347 0.0000
vt 0.6982 0.0165 0.0000
vt 0.6927 0.0165 0.0000
vt 0.7005 0.0597 0.0000
vt 0.7261 0.0594 0.0000
vt 0.7259 0.0352 0.0000
vt 0.7257 0.0160 0.0000
vt 0.7533 0.0156 0.0000
vt 0.7534 0.0348 0.0000
vt 0.7536 0.0591 0.0000
vt 0.7002 0.0848 0.0000
vt 0.7263 0.0844 0.0000
vt 0.7538 0.0838 0.0000
vt 0.7540 0.1081 0.0000
vt 0.7264 0.1090 0.0000
vt 0.6999 0.1097 0.0000
vt 0.6993 0.1575 0.0000
vt 0.6991 0.1790 0.0000
vt 0.6759 0.1590 0.0000
vt 0.6733 0.1803 0.0000
vt 0.6990 0.2022 0.0000
vt 0.6704 0.2049 0.0000
vt 0.6996 0.1343 0.0000
vt 0.6787 0.1352 0.0000
vt 0.6876 0.0599 0.0000
vt 0.6846 0.0850 0.0000
vt 0.6816 0.1101 0.0000
vt 0.9145 0.0312 0.0000
vt 0.9136 0.0549 0.0000
vt 0.8885 0.0328 0.0000
vt 0.8876 0.0569 0.0000
vt 0.8613 0.0575 0.0000
vt 0.8619 0.0334 0.0000
vt 0.8623 0.0138 0.0000
vt 0.8889 0.0133 0.0000
vt 0.9150 0.0127 0.0000
vt 0.9389 0.0528 0.0000
vt 0.9399 0.0297 0.0000
vt 0.9404 0.0121 0.0000
vt 0.9649 0.0114 0.0000
vt 0.9636 0.0281 0.0000
vt 0.9627 0.0504 0.0000
vt 0.9116 0.0784 0.0000
vt 0.9369 0.0756 0.0000
vt 0.9610 0.0728 0.0000
vt 0.9591 0.0949 0.0000
vt 0.9586 0.1062 0.0000
vt 0.9341 0.0968 0.0000
vt 0.9089 0.0987 0.0000
vt 0.8861 0.0803 0.0000
vt 0.8839 0.1011 0.0000
vt 0.8590 0.1028 0.0000
vt 0.8603 0.0812 0.0000
vt 0.8081 0.0341 0.0000
vt 0.8080 0.0583 0.0000
vt 0.7808 0.0345 0.0000
vt 0.7809 0.0587 0.0000
vt 0.7808 0.0152 0.0000
vt 0.8082 0.0148 0.0000
vt 0.8348 0.0579 0.0000
vt 0.8351 0.0338 0.0000
vt 0.8354 0.0143 0.0000
vt 0.8078 0.0826 0.0000
vt 0.8343 0.0819 0.0000
vt 0.8336 0.1044 0.0000
vt 0.8076 0.1057 0.0000
vt 0.7810 0.0833 0.0000
vt 0.7811 0.1070 0.0000
vt 0.7813 0.1689 0.0000
vt 0.7818 0.1878 0.0000
vt 0.8074 0.1642 0.0000
vt 0.8080 0.1802 0.0000
vt 0.8326 0.1589 0.0000
vt 0.8335 0.1712 0.0000
vt 0.9059 0.1154 0.0000
vt 0.9286 0.1243 0.0000
vt 0.9046 0.1287 0.0000
vt 0.8583 0.1608 0.0000
vt 0.8571 0.1537 0.0000
vt 0.8820 0.1494 0.0000
vt 0.9787 0.0933 0.0000
vt 0.9798 0.0701 0.0000
vt 0.9807 0.0488 0.0000
vt 0.8815 0.1334 0.0000
vt 0.9046 0.1375 0.0000
vt 0.8577 0.1381 0.0000
vt 0.8824 0.1182 0.0000
vt 0.8583 0.1217 0.0000
vt 0.9314 0.1111 0.0000
vt 0.7812 0.1503 0.0000
vt 0.8072 0.1468 0.0000
vt 0.9816 0.0265 0.0000
vt 0.8073 0.1273 0.0000
vt 0.7811 0.1296 0.0000
vt 0.7541 0.1315 0.0000
vt 0.8328 0.1247 0.0000
vt 0.8323 0.1428 0.0000
vt 0.7266 0.1331 0.0000
vt 0.9822 0.0109 0.0000
# 106 texture coords

g H612_285B_R_DTaSI_H612_285B_R
usemtl windowglass_1SG
s 1
f 1/1/1 2/2/2 3/3/3 
f 3/3/3 2/2/2 4/4/4 
f 5/5/5 1/1/1 6/6/6 
f 6/6/6 1/1/1 3/3/3 
f 7/7/7 8/8/8 9/9/9 
f 9/9/9 8/8/8 10/10/10 
f 11/11/11 7/7/7 12/12/12 
f 12/12/12 7/7/7 13/13/13 
f 9/9/9 14/14/14 7/7/7 
f 7/7/7 14/14/14 13/13/13 
f 15/15/15 16/16/16 14/14/14 
f 14/14/14 16/16/16 13/13/13 
f 16/16/16 17/17/17 13/13/13 
f 13/13/13 17/17/17 12/12/12 
f 18/18/18 11/11/11 19/19/19 
f 19/19/19 11/11/11 12/12/12 
f 17/17/17 20/20/20 12/12/12 
f 12/12/12 20/20/20 19/19/19 
f 20/20/20 21/21/21 19/19/19 
f 19/19/19 21/21/21 22/22/22 
f 23/23/23 18/18/18 22/22/22 
f 22/22/22 18/18/18 19/19/19 
f 24/24/24 25/25/25 26/26/26 
f 26/26/26 25/25/25 27/27/27 
f 25/25/25 28/28/28 27/27/27 
f 27/27/27 28/28/28 29/29/29 
f 30/30/30 24/24/24 31/31/31 
f 31/31/31 24/24/24 26/26/26 
f 32/32/32 8/8/8 11/11/11 
f 11/11/11 8/8/8 7/7/7 
f 33/33/33 32/32/32 18/18/18 
f 18/18/18 32/32/32 11/11/11 
f 34/34/34 33/33/33 23/23/23 
f 23/23/23 33/33/33 18/18/18 
f 35/35/35 36/36/36 37/37/37 
f 37/37/37 36/36/36 38/38/38 
f 39/39/39 40/40/40 38/38/38 
f 38/38/38 40/40/40 37/37/37 
f 40/40/40 41/41/41 37/37/37 
f 37/37/37 41/41/41 42/42/42 
f 43/43/43 35/35/35 42/42/42 
f 42/42/42 35/35/35 37/37/37 
f 36/36/36 35/35/35 44/44/44 
f 44/44/44 35/35/35 45/45/45 
f 35/35/35 43/43/43 45/45/45 
f 45/45/45 43/43/43 46/46/46 
f 47/47/47 48/48/48 46/46/46 
f 46/46/46 48/48/48 45/45/45 
f 48/48/48 49/49/49 45/45/45 
f 45/45/45 49/49/49 44/44/44 
f 50/50/50 36/36/36 51/51/51 
f 51/51/51 36/36/36 44/44/44 
f 49/49/49 52/52/52 44/44/44 
f 44/44/44 52/52/52 51/51/51 
f 53/53/53 54/54/54 55/55/55 
f 56/56/56 50/50/50 55/55/55 
f 55/55/55 50/50/50 51/51/51 
f 36/36/36 50/50/50 38/38/38 
f 38/38/38 50/50/50 57/57/57 
f 50/50/50 56/56/56 57/57/57 
f 57/57/57 56/56/56 58/58/58 
f 59/59/59 60/60/60 58/58/58 
f 58/58/58 60/60/60 57/57/57 
f 60/60/60 39/39/39 57/57/57 
f 57/57/57 39/39/39 38/38/38 
f 61/61/61 62/62/62 63/63/63 
f 63/63/63 62/62/62 64/64/64 
f 17/17/17 16/16/16 64/64/64 
f 64/64/64 16/16/16 63/63/63 
f 16/16/16 15/15/15 63/63/63 
f 63/63/63 15/15/15 65/65/65 
f 66/66/66 61/61/61 65/65/65 
f 65/65/65 61/61/61 63/63/63 
f 62/62/62 61/61/61 67/67/67 
f 67/67/67 61/61/61 68/68/68 
f 61/61/61 66/66/66 68/68/68 
f 68/68/68 66/66/66 69/69/69 
f 41/41/41 40/40/40 69/69/69 
f 69/69/69 40/40/40 68/68/68 
f 40/40/40 39/39/39 68/68/68 
f 68/68/68 39/39/39 67/67/67 
f 70/70/70 62/62/62 71/71/71 
f 71/71/71 62/62/62 67/67/67 
f 39/39/39 60/60/60 67/67/67 
f 67/67/67 60/60/60 71/71/71 
f 60/60/60 59/59/59 71/71/71 
f 71/71/71 59/59/59 72/72/72 
f 73/73/73 70/70/70 72/72/72 
f 72/72/72 70/70/70 71/71/71 
f 62/62/62 70/70/70 64/64/64 
f 64/64/64 70/70/70 74/74/74 
f 70/70/70 73/73/73 74/74/74 
f 74/74/74 73/73/73 75/75/75 
f 21/21/21 20/20/20 75/75/75 
f 75/75/75 20/20/20 74/74/74 
f 20/20/20 17/17/17 74/74/74 
f 74/74/74 17/17/17 64/64/64 
f 76/76/76 77/77/77 3/3/3 
f 3/3/3 77/77/77 6/6/6 
f 78/78/78 79/79/79 76/76/76 
f 76/76/76 79/79/79 77/77/77 
f 80/80/80 81/81/81 78/78/78 
f 78/78/78 81/81/81 79/79/79 
f 82/82/82 83/83/83 84/84/84 
f 85/85/85 86/86/86 87/87/87 
f 81/81/81 80/80/80 85/85/85 
f 85/85/85 80/80/80 86/86/86 
f 1/1/1 5/5/5 25/25/25 
f 25/25/25 5/5/5 28/28/28 
f 54/54/54 53/53/53 88/88/88 
f 52/52/52 49/49/49 89/89/89 
f 89/89/89 49/49/49 90/90/90 
f 87/87/87 91/91/91 92/92/92 
f 92/92/92 91/91/91 84/84/84 
f 86/86/86 93/93/93 87/87/87 
f 87/87/87 93/93/93 91/91/91 
f 91/91/91 94/94/94 84/84/84 
f 84/84/84 94/94/94 82/82/82 
f 93/93/93 95/95/95 91/91/91 
f 91/91/91 95/95/95 94/94/94 
f 95/95/95 59/59/59 94/94/94 
f 94/94/94 59/59/59 58/58/58 
f 56/56/56 82/82/82 58/58/58 
f 58/58/58 82/82/82 94/94/94 
f 55/55/55 96/96/96 56/56/56 
f 56/56/56 96/96/96 82/82/82 
f 76/76/76 97/97/97 78/78/78 
f 78/78/78 97/97/97 98/98/98 
f 97/97/97 76/76/76 4/4/4 
f 4/4/4 76/76/76 3/3/3 
f 99/99/99 90/90/90 48/48/48 
f 48/48/48 90/90/90 49/49/49 
f 100/100/100 98/98/98 101/101/101 
f 101/101/101 98/98/98 97/97/97 
f 4/4/4 102/102/102 97/97/97 
f 97/97/97 102/102/102 101/101/101 
f 102/102/102 21/21/21 101/101/101 
f 101/101/101 21/21/21 75/75/75 
f 73/73/73 100/100/100 75/75/75 
f 75/75/75 100/100/100 101/101/101 
f 103/103/103 104/104/104 100/100/100 
f 100/100/100 104/104/104 98/98/98 
f 72/72/72 103/103/103 73/73/73 
f 73/73/73 103/103/103 100/100/100 
f 59/59/59 95/95/95 72/72/72 
f 72/72/72 95/95/95 103/103/103 
f 104/104/104 103/103/103 93/93/93 
f 93/93/93 103/103/103 95/95/95 
f 104/104/104 80/80/80 98/98/98 
f 98/98/98 80/80/80 78/78/78 
f 93/93/93 86/86/86 104/104/104 
f 104/104/104 86/86/86 80/80/80 
f 23/23/23 30/30/30 34/34/34 
f 34/34/34 30/30/30 31/31/31 
f 105/105/105 2/2/2 30/30/30 
f 30/30/30 2/2/2 24/24/24 
f 22/22/22 105/105/105 23/23/23 
f 23/23/23 105/105/105 30/30/30 
f 21/21/21 102/102/102 22/22/22 
f 22/22/22 102/102/102 105/105/105 
f 2/2/2 105/105/105 4/4/4 
f 4/4/4 105/105/105 102/102/102 
f 2/2/2 1/1/1 24/24/24 
f 24/24/24 1/1/1 25/25/25 
f 106/106/106 99/99/99 47/47/47 
f 47/47/47 99/99/99 48/48/48 
f 53/53/53 52/52/52 88/88/88 
f 88/88/88 52/52/52 89/89/89 
f 52/52/52 53/53/53 51/51/51 
f 51/51/51 53/53/53 55/55/55 
f 54/54/54 96/96/96 55/55/55 
f 83/83/83 92/92/92 84/84/84 
f 96/96/96 83/83/83 82/82/82 
f 83/83/83 96/96/96 54/54/54 
# 174 faces

