# 3ds Max Wavefront OBJ Exporter v0.97b - (c)2007 guruware
# File Created: 14.12.2015 11:58:29

mtllib U416_38SG_L.mtl

#
# object U416_38SG_L_DTaSI_U416_38SG_L
#

v  -121.1691 60.4285 -72.3712
v  -121.0246 59.4406 -72.9469
v  -125.6721 58.4558 -73.3072
v  -125.1730 54.9555 -75.3319
v  -120.8329 55.4060 -75.2756
v  -129.3846 54.0574 -75.5576
v  -129.6657 56.4219 -74.2250
v  -116.4622 62.4038 -71.4224
v  -116.3467 60.5552 -72.5058
v  -112.0314 63.9307 -70.8208
v  -111.8159 61.4738 -72.2602
v  -111.6250 59.2979 -73.5350
v  -111.4997 55.3888 -75.5854
v  -116.3273 55.6730 -75.2864
v  -107.7931 65.4310 -70.1355
v  -106.6195 62.3168 -72.0603
v  -136.6747 51.9126 -76.2001
v  -134.9513 53.4526 -75.4364
v  -133.1654 52.9062 -75.9373
v  -129.1801 51.7435 -76.8366
v  -129.3710 47.5417 -79.0417
v  -133.5607 47.7570 -78.7238
v  -137.8049 50.5451 -76.8731
v  -137.6986 47.4443 -78.6237
v  -127.7796 35.2443 -85.4802
v  -123.9141 35.3281 -85.4558
v  -124.8291 33.9437 -86.2245
v  -123.3575 33.4850 -86.4538
v  -128.7440 38.7433 -83.6156
v  -124.3042 38.7429 -83.6658
v  -119.5429 35.3475 -85.4426
v  -119.8712 38.7257 -83.6835
v  -132.3623 38.7303 -83.5374
v  -131.4980 37.9144 -83.9967
v  -129.3832 36.2066 -84.9495
v  -120.5273 47.2844 -79.4169
v  -116.1020 47.2066 -79.5089
v  -120.2207 42.8884 -81.5927
v  -115.0288 42.8160 -81.6394
v  -124.9967 47.3604 -79.2833
v  -129.1153 42.9818 -81.4140
v  -124.6863 42.9384 -81.5251
v  -133.4367 43.0054 -81.2560
v  -137.6840 46.7170 -79.0207
v  -137.6557 45.3752 -79.7531
v  -136.8428 43.9425 -80.5778
v  -136.1585 42.9469 -81.1512
v  -133.9014 40.1978 -82.7179
v  -134.7624 41.2030 -82.1530
v  -135.6642 42.2978 -81.5257
v  -138.2705 47.3672 -78.6185
v  -116.3195 51.4260 -77.4519
v  -120.7231 51.4402 -77.3413
v  -111.3002 51.3037 -77.6032
v  -125.1197 51.4428 -77.1893
v  -118.4099 35.3442 -85.4390
v  -119.4376 32.8522 -86.7903
v  -116.8901 38.7040 -83.6838
v  -113.0664 47.1482 -79.5636
v  -109.6041 55.2944 -75.6807
v  -108.0253 59.0084 -73.8183
v  -107.4189 60.4363 -73.0619
v  -105.0123 66.1810 -69.7684
v  -137.9978 50.2420 -77.0246
v  -138.1676 49.9443 -77.1752
v  -138.3281 49.4104 -77.4609
v  -138.4150 48.9866 -77.6916
v  -138.4781 48.5081 -77.9556
v  -138.4389 48.0534 -78.2156
v  -120.8690 33.0490 -86.6823
# 70 vertices

vn -0.0377 0.5005 -0.8649
vn -0.0364 0.4978 -0.8665
vn -0.0424 0.4969 -0.8668
vn -0.0447 0.4783 -0.8771
vn -0.0327 0.4783 -0.8776
vn -0.0534 0.4791 -0.8761
vn -0.0639 0.4922 -0.8681
vn -0.0466 0.5029 -0.8631
vn -0.0477 0.4994 -0.8651
vn -0.0497 0.5020 -0.8634
vn -0.0451 0.4982 -0.8659
vn -0.0370 0.4810 -0.8759
vn -0.0234 0.4531 -0.8911
vn -0.0350 0.4766 -0.8784
vn -0.0384 0.5108 -0.8588
vn -0.0406 0.5048 -0.8623
vn -0.0719 0.4922 -0.8675
vn -0.0842 0.5097 -0.8562
vn -0.0691 0.4902 -0.8689
vn -0.0484 0.4740 -0.8792
vn -0.0364 0.4627 -0.8858
vn -0.0561 0.4761 -0.8776
vn -0.0687 0.4866 -0.8709
vn -0.0711 0.4852 -0.8715
vn -0.0078 0.4720 -0.8816
vn 0.0004 0.4722 -0.8815
vn 0.0038 0.4835 -0.8753
vn 0.0051 0.4763 -0.8792
vn -0.0157 0.4645 -0.8854
vn -0.0061 0.4588 -0.8885
vn 0.0018 0.4708 -0.8822
vn 0.0008 0.4560 -0.8900
vn -0.0235 0.4658 -0.8846
vn -0.0199 0.4714 -0.8817
vn -0.0154 0.4684 -0.8834
vn -0.0149 0.4445 -0.8957
vn -0.0094 0.4365 -0.8997
vn -0.0056 0.4456 -0.8952
vn -0.0021 0.4410 -0.8975
vn -0.0245 0.4532 -0.8911
vn -0.0250 0.4600 -0.8876
vn -0.0136 0.4521 -0.8919
vn -0.0415 0.4714 -0.8810
vn -0.0582 0.4774 -0.8768
vn -0.0529 0.4784 -0.8766
vn -0.0432 0.4780 -0.8773
vn -0.0440 0.4748 -0.8790
vn -0.0314 0.4653 -0.8846
vn -0.0391 0.4681 -0.8828
vn -0.0433 0.4720 -0.8806
vn -0.0729 0.4816 -0.8734
vn -0.0204 0.4476 -0.8940
vn -0.0264 0.4561 -0.8895
vn -0.0160 0.4377 -0.8990
vn -0.0377 0.4651 -0.8845
vn 0.0039 0.4665 -0.8845
vn 0.0016 0.4753 -0.8798
vn 0.0032 0.4530 -0.8915
vn -0.0079 0.4322 -0.9017
vn -0.0258 0.4550 -0.8901
vn -0.0353 0.4819 -0.8755
vn -0.0453 0.4836 -0.8741
vn -0.0269 0.5182 -0.8548
vn -0.0842 0.4877 -0.8690
vn -0.0815 0.4882 -0.8689
vn -0.0784 0.4888 -0.8689
vn -0.0773 0.4891 -0.8688
vn -0.0761 0.4898 -0.8685
vn -0.0749 0.4907 -0.8681
vn 0.0005 0.4745 -0.8803
# 70 vertex normals

vt 0.2615 0.9003 0.0000
vt 0.2635 0.9034 0.0000
vt 0.2516 0.9126 0.0000
vt 0.2585 0.9235 0.0000
vt 0.2704 0.9164 0.0000
vt 0.2477 0.9318 0.0000
vt 0.2432 0.9244 0.0000
vt 0.2720 0.8877 0.0000
vt 0.2752 0.8936 0.0000
vt 0.2825 0.8770 0.0000
vt 0.2869 0.8848 0.0000
vt 0.2909 0.8918 0.0000
vt 0.2973 0.9042 0.0000
vt 0.2829 0.9096 0.0000
vt 0.2923 0.8665 0.0000
vt 0.3007 0.8754 0.0000
vt 0.2298 0.9480 0.0000
vt 0.2324 0.9407 0.0000
vt 0.2385 0.9403 0.0000
vt 0.2519 0.9391 0.0000
vt 0.2578 0.9529 0.0000
vt 0.2453 0.9576 0.0000
vt 0.2286 0.9539 0.0000
vt 0.2338 0.9639 0.0000
vt 0.2811 0.9904 0.0000
vt 0.2920 0.9849 0.0000
vt 0.2916 0.9907 0.0000
vt 0.2965 0.9902 0.0000
vt 0.2730 0.9804 0.0000
vt 0.2857 0.9744 0.0000
vt 0.3045 0.9789 0.0000
vt 0.2984 0.9685 0.0000
vt 0.2626 0.9852 0.0000
vt 0.2663 0.9867 0.0000
vt 0.2750 0.9894 0.0000
vt 0.2836 0.9420 0.0000
vt 0.2964 0.9364 0.0000
vt 0.2911 0.9556 0.0000
vt 0.3060 0.9489 0.0000
vt 0.2706 0.9477 0.0000
vt 0.2654 0.9672 0.0000
vt 0.2782 0.9615 0.0000
vt 0.2530 0.9728 0.0000
vt 0.2349 0.9662 0.0000
vt 0.2371 0.9706 0.0000
vt 0.2417 0.9742 0.0000
vt 0.2452 0.9765 0.0000
vt 0.2559 0.9825 0.0000
vt 0.2519 0.9804 0.0000
vt 0.2476 0.9780 0.0000
vt 0.2322 0.9648 0.0000
vt 0.2894 0.9232 0.0000
vt 0.2767 0.9290 0.0000
vt 0.3040 0.9170 0.0000
vt 0.2641 0.9348 0.0000
vt 0.3077 0.9774 0.0000
vt 0.3086 0.9869 0.0000
vt 0.3069 0.9645 0.0000
vt 0.3051 0.9325 0.0000
vt 0.3029 0.9020 0.0000
vt 0.3017 0.8880 0.0000
vt 0.3013 0.8825 0.0000
vt 0.2992 0.8604 0.0000
vt 0.2285 0.9551 0.0000
vt 0.2285 0.9563 0.0000
vt 0.2289 0.9582 0.0000
vt 0.2293 0.9597 0.0000
vt 0.2298 0.9614 0.0000
vt 0.2307 0.9628 0.0000
vt 0.3042 0.9882 0.0000
# 70 texture coords

g U416_38SG_L_DTaSI_U416_38SG_L
usemtl windowglass_1SG
s 1
f 1/1/1 2/2/2 3/3/3 
f 4/4/4 3/3/3 5/5/5 
f 5/5/5 3/3/3 2/2/2 
f 6/6/6 7/7/7 4/4/4 
f 4/4/4 7/7/7 3/3/3 
f 8/8/8 9/9/9 1/1/1 
f 1/1/1 9/9/9 2/2/2 
f 8/8/8 10/10/10 9/9/9 
f 11/11/11 12/12/12 9/9/9 
f 13/13/13 14/14/14 12/12/12 
f 12/12/12 14/14/14 9/9/9 
f 5/5/5 2/2/2 14/14/14 
f 14/14/14 2/2/2 9/9/9 
f 10/10/10 15/15/15 11/11/11 
f 11/11/11 15/15/15 16/16/16 
f 17/17/17 18/18/18 19/19/19 
f 18/18/18 7/7/7 19/19/19 
f 6/6/6 20/20/20 19/19/19 
f 21/21/21 22/22/22 20/20/20 
f 20/20/20 22/22/22 19/19/19 
f 19/19/19 22/22/22 17/17/17 
f 17/17/17 22/22/22 23/23/23 
f 22/22/22 24/24/24 23/23/23 
f 25/25/25 26/26/26 27/27/27 
f 26/26/26 28/28/28 27/27/27 
f 29/29/29 30/30/30 25/25/25 
f 30/30/30 26/26/26 25/25/25 
f 31/31/31 26/26/26 32/32/32 
f 32/32/32 26/26/26 30/30/30 
f 33/33/33 29/29/29 34/34/34 
f 25/25/25 35/35/35 29/29/29 
f 34/34/34 29/29/29 35/35/35 
f 36/36/36 37/37/37 38/38/38 
f 38/38/38 37/37/37 39/39/39 
f 21/21/21 40/40/40 41/41/41 
f 41/41/41 40/40/40 42/42/42 
f 38/38/38 42/42/42 36/36/36 
f 36/36/36 42/42/42 40/40/40 
f 32/32/32 30/30/30 38/38/38 
f 38/38/38 30/30/30 42/42/42 
f 41/41/41 42/42/42 29/29/29 
f 29/29/29 42/42/42 30/30/30 
f 22/22/22 43/43/43 24/24/24 
f 24/24/24 43/43/43 44/44/44 
f 44/44/44 43/43/43 45/45/45 
f 45/45/45 43/43/43 46/46/46 
f 46/46/46 43/43/43 47/47/47 
f 41/41/41 43/43/43 21/21/21 
f 21/21/21 43/43/43 22/22/22 
f 29/29/29 33/33/33 41/41/41 
f 33/33/33 48/48/48 41/41/41 
f 48/48/48 43/43/43 41/41/41 
f 48/48/48 49/49/49 43/43/43 
f 47/47/47 43/43/43 50/50/50 
f 50/50/50 43/43/43 49/49/49 
f 45/45/45 51/51/51 44/44/44 
f 51/51/51 24/24/24 44/44/44 
f 14/14/14 52/52/52 5/5/5 
f 5/5/5 52/52/52 53/53/53 
f 54/54/54 52/52/52 13/13/13 
f 13/13/13 52/52/52 14/14/14 
f 53/53/53 52/52/52 36/36/36 
f 36/36/36 52/52/52 37/37/37 
f 4/4/4 55/55/55 6/6/6 
f 6/6/6 55/55/55 20/20/20 
f 5/5/5 53/53/53 4/4/4 
f 4/4/4 53/53/53 55/55/55 
f 36/36/36 40/40/40 53/53/53 
f 53/53/53 40/40/40 55/55/55 
f 20/20/20 55/55/55 21/21/21 
f 21/21/21 55/55/55 40/40/40 
f 56/56/56 57/57/57 31/31/31 
f 58/58/58 56/56/56 32/32/32 
f 32/32/32 56/56/56 31/31/31 
f 38/38/38 39/39/39 32/32/32 
f 32/32/32 39/39/39 58/58/58 
f 59/59/59 39/39/39 37/37/37 
f 52/52/52 54/54/54 37/37/37 
f 54/54/54 59/59/59 37/37/37 
f 60/60/60 54/54/54 13/13/13 
f 13/13/13 12/12/12 60/60/60 
f 60/60/60 12/12/12 61/61/61 
f 12/12/12 11/11/11 61/61/61 
f 61/61/61 11/11/11 62/62/62 
f 11/11/11 16/16/16 62/62/62 
f 63/63/63 16/16/16 15/15/15 
f 23/23/23 24/24/24 64/64/64 
f 64/64/64 24/24/24 65/65/65 
f 65/65/65 24/24/24 66/66/66 
f 66/66/66 24/24/24 67/67/67 
f 67/67/67 24/24/24 68/68/68 
f 68/68/68 24/24/24 69/69/69 
f 24/24/24 51/51/51 69/69/69 
f 26/26/26 31/31/31 28/28/28 
f 28/28/28 31/31/31 70/70/70 
f 57/57/57 70/70/70 31/31/31 
f 7/7/7 6/6/6 19/19/19 
f 10/10/10 11/11/11 9/9/9 
# 98 faces

