# 3ds Max Wavefront OBJ Exporter v0.97b - (c)2007 guruware
# File Created: 04.12.2015 17:51:20

mtllib P740_38SG_L.mtl

#
# object P740_38SG_L_1_DTaSI_P740_38SG_L
#

v  -146.5209 65.4860 -89.9794
v  -147.5049 63.3582 -90.7846
v  -158.2517 65.9758 -89.6488
v  -159.2803 63.9264 -90.4375
v  -129.2794 100.5702 -74.7597
v  -129.4240 100.2422 -74.9322
v  -140.0556 99.8593 -75.0057
v  -140.3328 99.1160 -75.3992
v  -151.6297 96.8040 -76.2246
v  -154.6214 95.7179 -76.6219
v  -152.3183 97.6472 -75.7268
v  -155.7381 96.6490 -76.0765
v  -148.7112 98.7001 -75.3579
v  -144.0915 98.5691 -75.5792
v  -148.3824 97.7393 -75.9041
v  -160.6085 93.5435 -77.3565
v  -167.3854 89.9204 -78.6491
v  -161.9187 94.0588 -77.0075
v  -169.5281 90.1604 -78.3632
v  -158.9180 95.4722 -76.4878
v  -157.6564 94.6042 -77.0131
v  -180.6955 66.9979 -88.4049
v  -182.0813 65.0168 -89.2012
v  -189.6820 67.6113 -87.5159
v  -191.4829 65.4717 -88.3689
v  -169.8396 66.4580 -89.1236
v  -170.9760 64.4859 -89.9030
v  -169.7024 88.2682 -79.3193
v  -173.7910 87.4457 -79.4203
v  -173.8147 85.5941 -80.3821
v  -137.4884 62.9048 -90.9200
v  -136.8934 65.0851 -90.0935
v  -137.2188 64.0908 -90.4628
v  -141.2574 65.6138 -89.9235
v  -140.2368 65.9327 -89.8130
v  -139.5352 66.3792 -89.6592
v  -134.5683 69.5736 -88.5649
v  -137.3655 69.6669 -88.5330
v  -131.0651 75.7639 -86.2819
v  -133.8072 75.8244 -86.2553
v  -127.1798 82.5664 -83.4591
v  -129.8939 82.5958 -83.4423
v  -123.3323 89.4390 -80.3484
v  -125.9377 89.4408 -80.3448
v  -121.5531 92.5648 -78.8412
v  -124.1438 92.5444 -78.8489
v  -122.2510 95.8191 -77.2704
v  -120.6809 98.6873 -75.7651
v  -119.6764 95.8619 -77.2514
v  -116.4740 100.9869 -74.5635
v  -120.6851 99.5471 -75.3128
v  -121.9210 100.5832 -74.7659
v  -121.1500 100.2656 -74.9342
v  -115.9035 102.7757 -73.4530
v  -115.1135 102.8086 -73.4308
v  -128.8427 102.2139 -73.7391
v  -140.0188 100.8434 -74.3891
v  -144.4862 100.2364 -74.5880
v  -148.9592 99.2680 -74.9888
v  -156.1151 97.0119 -75.8292
v  -152.6325 98.2631 -75.4202
v  -162.5935 94.4052 -76.7484
v  -159.5182 95.7833 -76.2335
v  -177.5999 84.8194 -80.4415
v  -176.8860 83.4126 -81.2524
v  -181.0701 82.1754 -81.4457
v  -179.5260 81.2328 -82.0957
v  -184.6799 79.3452 -82.4825
v  -182.5255 78.5070 -83.1340
v  -188.2704 76.3290 -83.5597
v  -187.0231 74.3481 -84.6427
v  -191.9859 73.2075 -84.6648
v  -188.8769 72.6534 -85.2600
v  -194.8670 70.2732 -85.7524
v  -193.9963 71.3466 -85.3280
v  -189.9366 71.2262 -85.8255
v  -195.0906 68.0363 -86.7766
v  -190.5622 68.6754 -86.9400
v  -190.4347 70.0787 -86.3043
v  -195.1409 69.4531 -86.1063
v  -194.9091 66.9019 -87.3427
v  -194.5461 66.0462 -87.7903
v  -194.0367 65.5842 -88.0677
v  -191.5698 65.1645 -88.5891
v  -182.1545 64.7325 -89.4013
v  -192.5384 65.2514 -88.4416
v  -171.0612 64.2004 -90.1004
v  -159.3771 63.6265 -90.6444
v  -147.5960 63.0149 -91.0285
v  -137.5229 62.5810 -91.1460
v  -137.2228 63.7676 -89.6060
v  -136.8949 64.7785 -89.2307
v  -137.4976 62.4790 -90.1168
v  -134.5676 69.2672 -87.7020
v  -131.0637 75.4293 -85.4297
v  -127.1786 82.2015 -82.6193
v  -123.3315 89.0510 -79.5190
v  -121.5525 92.1668 -78.0164
v  -116.4741 100.5325 -73.7691
v  -119.6755 95.4499 -76.4337
v  -115.1152 102.3259 -72.6526
v  -137.5364 62.0578 -90.3946
# 102 vertices

vn -0.0031 0.3552 -0.9348
vn -0.0037 0.3921 -0.9199
vn -0.0163 0.3659 -0.9305
vn -0.0177 0.3984 -0.9171
vn -0.0099 0.5220 -0.8529
vn -0.0083 0.4684 -0.8835
vn -0.0196 0.5039 -0.8635
vn -0.0207 0.4740 -0.8803
vn -0.0520 0.4763 -0.8777
vn -0.0489 0.4624 -0.8853
vn -0.0411 0.4607 -0.8866
vn -0.0579 0.4716 -0.8799
vn -0.0431 0.5037 -0.8628
vn -0.0282 0.4830 -0.8752
vn -0.0382 0.4840 -0.8742
vn -0.0619 0.4469 -0.8924
vn -0.0688 0.4464 -0.8922
vn -0.0710 0.4570 -0.8866
vn -0.0693 0.4524 -0.8891
vn -0.0682 0.4765 -0.8765
vn -0.0558 0.4559 -0.8883
vn -0.0463 0.3996 -0.9155
vn -0.0503 0.4309 -0.9010
vn -0.0687 0.4170 -0.9063
vn -0.0709 0.4458 -0.8923
vn -0.0304 0.3818 -0.9237
vn -0.0323 0.4129 -0.9102
vn -0.0694 0.4558 -0.8874
vn -0.0733 0.4597 -0.8850
vn -0.0774 0.4611 -0.8840
vn 0.0069 0.4025 -0.9154
vn 0.0023 0.3324 -0.9431
vn 0.0043 0.3531 -0.9356
vn 0.0022 0.3225 -0.9466
vn 0.0021 0.3217 -0.9468
vn 0.0024 0.3226 -0.9465
vn 0.0003 0.3395 -0.9406
vn 0.0008 0.3329 -0.9430
vn -0.0009 0.3717 -0.9283
vn -0.0008 0.3607 -0.9327
vn -0.0013 0.4029 -0.9153
vn -0.0013 0.3942 -0.9190
vn -0.0009 0.4229 -0.9062
vn -0.0010 0.4171 -0.9089
vn -0.0007 0.4346 -0.9006
vn -0.0008 0.4346 -0.9006
vn -0.0008 0.4444 -0.8958
vn -0.0014 0.4652 -0.8852
vn -0.0011 0.4561 -0.8899
vn -0.0037 0.5180 -0.8554
vn -0.0017 0.4655 -0.8851
vn -0.0016 0.4650 -0.8853
vn -0.0016 0.4653 -0.8852
vn -0.0037 0.5283 -0.8490
vn 0.0018 0.5271 -0.8498
vn -0.0083 0.5291 -0.8485
vn -0.0202 0.5313 -0.8470
vn -0.0356 0.5247 -0.8505
vn -0.0492 0.5230 -0.8509
vn -0.0785 0.5062 -0.8588
vn -0.0262 0.4382 -0.8985
vn -0.0877 0.4815 -0.8721
vn -0.0912 0.5155 -0.8520
vn -0.0876 0.4627 -0.8822
vn -0.0898 0.4622 -0.8822
vn -0.0969 0.4515 -0.8870
vn -0.0970 0.4525 -0.8865
vn -0.0985 0.4379 -0.8936
vn -0.0987 0.4412 -0.8920
vn -0.0940 0.4313 -0.8973
vn -0.0957 0.4319 -0.8968
vn -0.0963 0.4282 -0.8985
vn -0.0952 0.4301 -0.8978
vn -0.0948 0.4241 -0.9006
vn -0.0972 0.4301 -0.8975
vn -0.0960 0.4247 -0.9002
vn -0.0904 0.4271 -0.8997
vn -0.0923 0.4168 -0.9043
vn -0.0939 0.4180 -0.9036
vn -0.0929 0.4217 -0.9020
vn -0.0878 0.4333 -0.8970
vn -0.0882 0.4330 -0.8971
vn -0.0849 0.4504 -0.8888
vn -0.0453 0.5904 -0.8058
vn -0.0336 0.5812 -0.8131
vn -0.0685 0.5929 -0.8023
vn -0.0179 0.5722 -0.8199
vn -0.0046 0.5688 -0.8225
vn 0.0085 0.5775 -0.8163
vn 0.0148 0.5715 -0.8204
vn 0.9689 -0.2328 -0.0834
vn 0.9097 -0.3917 -0.1381
vn 0.9699 -0.2281 -0.0854
vn 0.9098 -0.3916 -0.1376
vn 0.9851 -0.1580 -0.0674
vn 0.9865 -0.1493 -0.0679
vn 0.8889 -0.4312 -0.1546
vn 0.8889 -0.4316 -0.1538
vn 0.8838 -0.4349 -0.1722
vn 0.8838 -0.4350 -0.1723
vn 0.8873 -0.4228 -0.1843
vn 0.8872 -0.4225 -0.1852
vn 0.8901 -0.4127 -0.1933
vn 0.8901 -0.4124 -0.1941
vn 0.8893 -0.4116 -0.1995
vn 0.8892 -0.4119 -0.1994
vn 0.8667 -0.4331 -0.2475
vn 0.8664 -0.4337 -0.2473
vn 0.8799 -0.4234 -0.2158
vn 0.8797 -0.4244 -0.2143
vn 0.8418 -0.4616 -0.2798
vn 0.8410 -0.4606 -0.2839
vn 0.9961 -0.0797 -0.0376
vn 0.9967 -0.0748 -0.0298
# 114 vertex normals

vt 0.1863 0.9642 0.0000
vt 0.1835 0.9712 0.0000
vt 0.1504 0.9635 0.0000
vt 0.1475 0.9702 0.0000
vt 0.2344 0.8466 0.0000
vt 0.2341 0.8478 0.0000
vt 0.2017 0.8498 0.0000
vt 0.2009 0.8524 0.0000
vt 0.1668 0.8608 0.0000
vt 0.1577 0.8646 0.0000
vt 0.1645 0.8579 0.0000
vt 0.1542 0.8615 0.0000
vt 0.1754 0.8542 0.0000
vt 0.1895 0.8544 0.0000
vt 0.1766 0.8575 0.0000
vt 0.1397 0.8721 0.0000
vt 0.1194 0.8844 0.0000
vt 0.1356 0.8704 0.0000
vt 0.1128 0.8836 0.0000
vt 0.1446 0.8655 0.0000
vt 0.1486 0.8684 0.0000
vt 0.0817 0.9612 0.0000
vt 0.0777 0.9678 0.0000
vt 0.0540 0.9594 0.0000
vt 0.0488 0.9665 0.0000
vt 0.1150 0.9625 0.0000
vt 0.1117 0.9691 0.0000
vt 0.1126 0.8900 0.0000
vt 0.1001 0.8928 0.0000
vt 0.1003 0.8991 0.0000
vt 0.2141 0.9719 0.0000
vt 0.2157 0.9647 0.0000
vt 0.2148 0.9680 0.0000
vt 0.2023 0.9634 0.0000
vt 0.2054 0.9622 0.0000
vt 0.2075 0.9607 0.0000
vt 0.2223 0.9500 0.0000
vt 0.2138 0.9499 0.0000
vt 0.2323 0.9296 0.0000
vt 0.2240 0.9296 0.0000
vt 0.2434 0.9068 0.0000
vt 0.2351 0.9070 0.0000
vt 0.2542 0.8837 0.0000
vt 0.2462 0.8839 0.0000
vt 0.2592 0.8730 0.0000
vt 0.2513 0.8733 0.0000
vt 0.2566 0.8622 0.0000
vt 0.2609 0.8523 0.0000
vt 0.2644 0.8618 0.0000
vt 0.2734 0.8442 0.0000
vt 0.2608 0.8494 0.0000
vt 0.2569 0.8460 0.0000
vt 0.2593 0.8470 0.0000
vt 0.2748 0.8379 0.0000
vt 0.2772 0.8378 0.0000
vt 0.2355 0.8409 0.0000
vt 0.2016 0.8464 0.0000
vt 0.1881 0.8487 0.0000
vt 0.1745 0.8523 0.0000
vt 0.1530 0.8602 0.0000
vt 0.1635 0.8559 0.0000
vt 0.1335 0.8692 0.0000
vt 0.1427 0.8644 0.0000
vt 0.0888 0.9018 0.0000
vt 0.0912 0.9065 0.0000
vt 0.0785 0.9107 0.0000
vt 0.0834 0.9139 0.0000
vt 0.0678 0.9202 0.0000
vt 0.0746 0.9230 0.0000
vt 0.0572 0.9302 0.0000
vt 0.0613 0.9369 0.0000
vt 0.0462 0.9407 0.0000
vt 0.0558 0.9426 0.0000
vt 0.0377 0.9505 0.0000
vt 0.0403 0.9469 0.0000
vt 0.0528 0.9473 0.0000
vt 0.0373 0.9579 0.0000
vt 0.0512 0.9558 0.0000
vt 0.0514 0.9512 0.0000
vt 0.0370 0.9532 0.0000
vt 0.0381 0.9617 0.0000
vt 0.0393 0.9646 0.0000
vt 0.0409 0.9662 0.0000
vt 0.0486 0.9676 0.0000
vt 0.0775 0.9688 0.0000
vt 0.0456 0.9673 0.0000
vt 0.1115 0.9701 0.0000
vt 0.1473 0.9713 0.0000
vt 0.1833 0.9725 0.0000
vt 0.2140 0.9730 0.0000
vt 0.2154 0.9682 0.0000
vt 0.2163 0.9649 0.0000
vt 0.2151 0.9684 0.0000
vt 0.2160 0.9651 0.0000
vt 0.2147 0.9721 0.0000
vt 0.2144 0.9727 0.0000
vt 0.2229 0.9502 0.0000
vt 0.2227 0.9504 0.0000
vt 0.2330 0.9297 0.0000
vt 0.2327 0.9300 0.0000
vt 0.2440 0.9069 0.0000
vt 0.2438 0.9073 0.0000
vt 0.2549 0.8837 0.0000
vt 0.2547 0.8841 0.0000
vt 0.2599 0.8730 0.0000
vt 0.2597 0.8735 0.0000
vt 0.2742 0.8441 0.0000
vt 0.2740 0.8447 0.0000
vt 0.2652 0.8618 0.0000
vt 0.2649 0.8623 0.0000
vt 0.2780 0.8376 0.0000
vt 0.2778 0.8384 0.0000
vt 0.2147 0.9733 0.0000
vt 0.2144 0.9742 0.0000
# 114 texture coords

g P740_38SG_L_1_DTaSI_P740_38SG_L
usemtl windowglass_blackSG
s 1
f 1/1/1 2/2/2 3/3/3 
f 3/3/3 2/2/2 4/4/4 
f 5/5/5 6/6/6 7/7/7 
f 7/7/7 6/6/6 8/8/8 
f 9/9/9 10/10/10 11/11/11 
f 11/11/11 10/10/10 12/12/12 
f 7/7/7 8/8/8 13/13/13 
f 8/8/8 14/14/14 13/13/13 
f 15/15/15 13/13/13 14/14/14 
f 16/16/16 17/17/17 18/18/18 
f 18/18/18 17/17/17 19/19/19 
f 20/20/20 12/12/12 21/21/21 
f 21/21/21 12/12/12 10/10/10 
f 18/18/18 20/20/20 16/16/16 
f 16/16/16 20/20/20 21/21/21 
f 22/22/22 23/23/23 24/24/24 
f 24/24/24 23/23/23 25/25/25 
f 26/26/26 27/27/27 22/22/22 
f 22/22/22 27/27/27 23/23/23 
f 3/3/3 4/4/4 26/26/26 
f 26/26/26 4/4/4 27/27/27 
f 17/17/17 28/28/28 19/19/19 
f 19/19/19 28/28/28 29/29/29 
f 29/29/29 28/28/28 30/30/30 
f 2/2/2 1/1/1 31/31/31 
f 32/32/32 33/33/33 1/1/1 
f 33/33/33 31/31/31 1/1/1 
f 1/1/1 34/34/34 32/32/32 
f 34/34/34 35/35/35 32/32/32 
f 35/35/35 36/36/36 32/32/32 
f 37/37/37 32/32/32 38/38/38 
f 32/32/32 36/36/36 38/38/38 
f 39/39/39 37/37/37 40/40/40 
f 40/40/40 37/37/37 38/38/38 
f 41/41/41 39/39/39 42/42/42 
f 42/42/42 39/39/39 40/40/40 
f 43/43/43 41/41/41 44/44/44 
f 44/44/44 41/41/41 42/42/42 
f 45/45/45 43/43/43 46/46/46 
f 46/46/46 43/43/43 44/44/44 
f 47/47/47 48/48/48 49/49/49 
f 49/49/49 48/48/48 50/50/50 
f 48/48/48 51/51/51 50/50/50 
f 6/6/6 5/5/5 52/52/52 
f 5/5/5 50/50/50 52/52/52 
f 52/52/52 50/50/50 53/53/53 
f 50/50/50 51/51/51 53/53/53 
f 50/50/50 54/54/54 55/55/55 
f 5/5/5 56/56/56 50/50/50 
f 50/50/50 56/56/56 54/54/54 
f 7/7/7 57/57/57 5/5/5 
f 5/5/5 57/57/57 56/56/56 
f 57/57/57 7/7/7 58/58/58 
f 59/59/59 58/58/58 13/13/13 
f 58/58/58 7/7/7 13/13/13 
f 60/60/60 61/61/61 12/12/12 
f 12/12/12 61/61/61 11/11/11 
f 62/62/62 63/63/63 18/18/18 
f 18/18/18 63/63/63 20/20/20 
f 63/63/63 60/60/60 20/20/20 
f 60/60/60 12/12/12 20/20/20 
f 19/19/19 62/62/62 18/18/18 
f 29/29/29 30/30/30 64/64/64 
f 64/64/64 30/30/30 65/65/65 
f 64/64/64 65/65/65 66/66/66 
f 66/66/66 65/65/65 67/67/67 
f 68/68/68 66/66/66 69/69/69 
f 69/69/69 66/66/66 67/67/67 
f 70/70/70 68/68/68 71/71/71 
f 71/71/71 68/68/68 69/69/69 
f 72/72/72 70/70/70 73/73/73 
f 73/73/73 70/70/70 71/71/71 
f 74/74/74 75/75/75 76/76/76 
f 75/75/75 72/72/72 76/76/76 
f 72/72/72 73/73/73 76/76/76 
f 24/24/24 77/77/77 78/78/78 
f 76/76/76 79/79/79 74/74/74 
f 77/77/77 80/80/80 78/78/78 
f 78/78/78 80/80/80 79/79/79 
f 80/80/80 74/74/74 79/79/79 
f 24/24/24 25/25/25 77/77/77 
f 77/77/77 25/25/25 81/81/81 
f 81/81/81 25/25/25 82/82/82 
f 83/83/83 82/82/82 25/25/25 
f 84/84/84 25/25/25 85/85/85 
f 85/85/85 25/25/25 23/23/23 
f 84/84/84 86/86/86 25/25/25 
f 25/25/25 86/86/86 83/83/83 
f 85/85/85 23/23/23 87/87/87 
f 87/87/87 23/23/23 27/27/27 
f 87/87/87 27/27/27 88/88/88 
f 88/88/88 27/27/27 4/4/4 
f 88/88/88 4/4/4 89/89/89 
f 89/89/89 4/4/4 2/2/2 
f 31/31/31 90/90/90 2/2/2 
f 2/2/2 90/90/90 89/89/89 
f 61/61/61 59/59/59 11/11/11 
f 11/11/11 59/59/59 13/13/13 
f 15/15/15 9/9/9 13/13/13 
f 13/13/13 9/9/9 11/11/11 
f 49/49/49 45/45/45 47/47/47 
f 47/47/47 45/45/45 46/46/46 
s 12
f 33/91/91 32/92/92 91/93/93 
f 91/93/93 32/92/92 92/94/94 
f 33/91/91 91/93/93 31/95/95 
f 31/95/95 91/93/93 93/96/96 
f 37/97/97 94/98/98 32/92/92 
f 32/92/92 94/98/98 92/94/94 
f 39/99/99 95/100/100 37/97/97 
f 37/97/97 95/100/100 94/98/98 
f 39/99/99 41/101/101 95/100/100 
f 95/100/100 41/101/101 96/102/102 
f 41/101/101 43/103/103 96/102/102 
f 96/102/102 43/103/103 97/104/104 
f 43/103/103 45/105/105 97/104/104 
f 97/104/104 45/105/105 98/106/106 
f 50/107/107 99/108/108 49/109/109 
f 49/109/109 99/108/108 100/110/110 
f 50/107/107 55/111/111 99/108/108 
f 99/108/108 55/111/111 101/112/112 
f 90/113/113 31/95/95 102/114/114 
f 102/114/114 31/95/95 93/96/96 
f 49/109/109 100/110/110 45/105/105 
f 45/105/105 100/110/110 98/106/106 
# 124 faces

#
# object P740_38SG_L_P740_38SG_L_2_DTaSI
#

v  -149.7036 82.8127 -83.0957
v  -146.1386 89.9559 -79.8927
v  -138.0161 82.6837 -83.3923
v  -134.7074 89.4468 -80.3329
v  -152.9097 76.1806 -85.8801
v  -141.3019 75.9897 -86.1823
v  -159.9841 82.9369 -82.5930
v  -155.6997 89.8361 -79.5167
v  -163.9942 76.4036 -85.3521
v  -168.8631 82.9609 -82.0779
v  -173.6242 76.8157 -84.6525
v  -180.4469 77.6984 -83.7625
v  -174.7517 83.3089 -81.4906
v  -189.6820 67.6113 -87.5159
v  -185.5867 72.0669 -85.8899
v  -180.6955 66.9979 -88.4049
v  -177.5810 71.1290 -86.8790
v  -169.8395 66.4580 -89.1236
v  -167.3229 70.5727 -87.6243
v  -158.2517 65.9758 -89.6488
v  -155.9908 70.2377 -88.1385
v  -144.3283 69.8990 -88.4536
v  -146.5209 65.4860 -89.9794
v  -152.8570 95.4319 -76.8915
v  -131.1943 96.2242 -77.0451
v  -143.1002 95.9050 -77.0468
v  -121.9210 100.5832 -74.7659
v  -121.1500 100.2656 -74.9342
v  -120.6850 99.5471 -75.3128
v  -121.9767 99.7788 -75.1888
v  -129.4240 100.2422 -74.9322
v  -129.7632 99.4723 -75.3370
v  -140.3328 99.1161 -75.3992
v  -141.7621 98.0684 -75.9253
v  -144.0915 98.5691 -75.5792
v  -146.4182 97.3195 -76.1881
v  -148.3824 97.7393 -75.9041
v  -151.6297 96.8040 -76.2246
v  -154.6214 95.7554 -76.6219
v  -160.6085 93.5810 -77.3565
v  -160.9042 92.1251 -78.0615
v  -167.3853 89.9204 -78.6492
v  -167.5687 88.2575 -79.4762
v  -169.7024 88.2682 -79.3193
v  -173.8147 85.5941 -80.3821
v  -176.8859 83.4126 -81.2524
v  -179.5260 81.2328 -82.0957
v  -182.5255 78.5070 -83.1340
v  -187.0231 74.3481 -84.6427
v  -188.8769 72.6534 -85.2600
v  -189.9366 71.2262 -85.8255
v  -190.5622 68.6754 -86.9400
v  -190.4346 70.0787 -86.3043
v  -137.3654 69.6669 -88.5330
v  -139.5352 66.3792 -89.6592
v  -141.2574 65.6138 -89.9235
v  -140.2368 65.9327 -89.8130
v  -133.8072 75.8244 -86.2553
v  -129.8939 82.5958 -83.4423
v  -125.9377 89.4408 -80.3448
v  -124.1438 92.5444 -78.8489
v  -122.2510 95.8191 -77.2704
v  -165.7156 86.8491 -80.3855
v  -163.5608 89.2083 -79.3077
v  -120.6809 98.6873 -75.7651
# 65 vertices

vn -0.0283 0.4098 -0.9117
vn -0.0265 0.4299 -0.9025
vn -0.0111 0.4034 -0.9150
vn -0.0088 0.4274 -0.9040
vn -0.0266 0.3831 -0.9233
vn -0.0115 0.3741 -0.9273
vn -0.0438 0.4188 -0.9070
vn -0.0478 0.4363 -0.8985
vn -0.0413 0.3963 -0.9172
vn -0.0554 0.4286 -0.9018
vn -0.0546 0.4077 -0.9115
vn -0.0713 0.4173 -0.9060
vn -0.0653 0.4367 -0.8972
vn -0.0699 0.3980 -0.9147
vn -0.0719 0.4035 -0.9122
vn -0.0575 0.3852 -0.9211
vn -0.0545 0.3892 -0.9195
vn -0.0392 0.3648 -0.9303
vn -0.0386 0.3737 -0.9267
vn -0.0240 0.3467 -0.9377
vn -0.0241 0.3578 -0.9335
vn -0.0113 0.3473 -0.9377
vn -0.0116 0.3333 -0.9428
vn -0.0430 0.4456 -0.8942
vn -0.0070 0.4496 -0.8932
vn -0.0203 0.4461 -0.8948
vn -0.0015 0.4654 -0.8851
vn -0.0014 0.4656 -0.8850
vn -0.0015 0.4655 -0.8850
vn -0.0054 0.4673 -0.8841
vn -0.0059 0.4673 -0.8841
vn -0.0113 0.4613 -0.8872
vn -0.0151 0.4682 -0.8835
vn -0.0273 0.4784 -0.8777
vn -0.0332 0.4602 -0.8872
vn -0.0335 0.4511 -0.8919
vn -0.0489 0.4716 -0.8804
vn -0.0536 0.4492 -0.8918
vn -0.0575 0.4446 -0.8939
vn -0.0536 0.4349 -0.8989
vn -0.0714 0.4502 -0.8901
vn -0.0703 0.4543 -0.8881
vn -0.0632 0.4509 -0.8903
vn -0.0672 0.4574 -0.8867
vn -0.0779 0.4457 -0.8918
vn -0.0810 0.4423 -0.8932
vn -0.1000 0.4376 -0.8936
vn -0.0980 0.4298 -0.8976
vn -0.0956 0.4288 -0.8984
vn -0.0947 0.4208 -0.9022
vn -0.0923 0.4155 -0.9049
vn -0.0942 0.4179 -0.9036
vn -0.0002 0.3432 -0.9393
vn 0.0001 0.3242 -0.9460
vn 0.0017 0.3256 -0.9455
vn 0.0007 0.3249 -0.9458
vn -0.0012 0.3729 -0.9279
vn -0.0012 0.4032 -0.9151
vn -0.0009 0.4229 -0.9062
vn -0.0021 0.4361 -0.8999
vn -0.0020 0.4536 -0.8912
vn -0.0563 0.4442 -0.8942
vn -0.0570 0.4421 -0.8952
vn -0.0016 0.4654 -0.8851
# 64 vertex normals

vt 0.1768 0.9093 0.0000
vt 0.1867 0.8853 0.0000
vt 0.2124 0.9090 0.0000
vt 0.2216 0.8863 0.0000
vt 0.1679 0.9313 0.0000
vt 0.2032 0.9312 0.0000
vt 0.1454 0.9093 0.0000
vt 0.1576 0.8861 0.0000
vt 0.1340 0.9311 0.0000
vt 0.1183 0.9095 0.0000
vt 0.1046 0.9301 0.0000
vt 0.0836 0.9273 0.0000
vt 0.1002 0.9085 0.0000
vt 0.0566 0.9608 0.0000
vt 0.0686 0.9461 0.0000
vt 0.0842 0.9627 0.0000
vt 0.0932 0.9490 0.0000
vt 0.1174 0.9640 0.0000
vt 0.1246 0.9504 0.0000
vt 0.1527 0.9649 0.0000
vt 0.1592 0.9509 0.0000
vt 0.1947 0.9513 0.0000
vt 0.1885 0.9657 0.0000
vt 0.1655 0.8672 0.0000
vt 0.2313 0.8633 0.0000
vt 0.1951 0.8652 0.0000
vt 0.2588 0.8478 0.0000
vt 0.2612 0.8488 0.0000
vt 0.2628 0.8512 0.0000
vt 0.2588 0.8505 0.0000
vt 0.2361 0.8496 0.0000
vt 0.2352 0.8522 0.0000
vt 0.2031 0.8542 0.0000
vt 0.1989 0.8578 0.0000
vt 0.1917 0.8562 0.0000
vt 0.1848 0.8606 0.0000
vt 0.1788 0.8593 0.0000
vt 0.1690 0.8626 0.0000
vt 0.1600 0.8662 0.0000
vt 0.1420 0.8737 0.0000
vt 0.1413 0.8786 0.0000
vt 0.1218 0.8861 0.0000
vt 0.1215 0.8917 0.0000
vt 0.1150 0.8917 0.0000
vt 0.1028 0.9008 0.0000
vt 0.0937 0.9081 0.0000
vt 0.0859 0.9155 0.0000
vt 0.0771 0.9246 0.0000
vt 0.0639 0.9384 0.0000
vt 0.0584 0.9441 0.0000
vt 0.0554 0.9488 0.0000
vt 0.0538 0.9573 0.0000
vt 0.0540 0.9526 0.0000
vt 0.2159 0.9514 0.0000
vt 0.2096 0.9622 0.0000
vt 0.2044 0.9648 0.0000
vt 0.2075 0.9637 0.0000
vt 0.2260 0.9312 0.0000
vt 0.2371 0.9086 0.0000
vt 0.2482 0.8856 0.0000
vt 0.2533 0.8750 0.0000
vt 0.2586 0.8639 0.0000
vt 0.1274 0.8964 0.0000
vt 0.1336 0.8884 0.0000
vt 0.2629 0.8541 0.0000
# 65 texture coords

g P740_38SG_L_P740_38SG_L_2_DTaSI
usemtl windowglass_1SG
s 1
f 103/115/115 104/116/116 105/117/117 
f 105/117/117 104/116/116 106/118/118 
f 107/119/119 103/115/115 108/120/120 
f 108/120/120 103/115/115 105/117/117 
f 109/121/121 110/122/122 103/115/115 
f 103/115/115 110/122/122 104/116/116 
f 111/123/123 109/121/121 107/119/119 
f 109/121/121 103/115/115 107/119/119 
f 109/121/121 111/123/123 112/124/124 
f 111/123/123 113/125/125 112/124/124 
f 114/126/126 115/127/127 113/125/125 
f 113/125/125 115/127/127 112/124/124 
f 116/128/128 117/129/129 118/130/130 
f 118/130/130 117/129/129 119/131/131 
f 117/129/129 114/126/126 119/131/131 
f 114/126/126 113/125/125 119/131/131 
f 120/132/132 121/133/133 122/134/134 
f 122/134/134 121/133/133 123/135/135 
f 118/130/130 119/131/131 120/132/132 
f 120/132/132 119/131/131 121/133/133 
f 111/123/123 121/133/133 113/125/125 
f 113/125/125 121/133/133 119/131/131 
f 107/119/119 123/135/135 111/123/123 
f 111/123/123 123/135/135 121/133/133 
f 108/120/120 124/136/136 107/119/119 
f 107/119/119 124/136/136 123/135/135 
f 122/134/134 123/135/135 125/137/137 
f 125/137/137 123/135/135 124/136/136 
f 110/122/122 126/138/138 104/116/116 
f 127/139/139 106/118/118 128/140/140 
f 128/140/140 106/118/118 104/116/116 
f 129/141/141 130/142/142 131/143/143 
f 132/144/141 129/141/141 131/143/143 
f 129/141/141 132/144/141 133/145/144 
f 133/145/144 132/144/141 134/146/145 
f 133/145/144 134/146/145 135/147/146 
f 135/147/146 134/146/145 136/148/147 
f 135/147/146 136/148/147 137/149/148 
f 136/148/147 138/150/149 137/149/148 
f 138/150/149 139/151/150 137/149/148 
f 140/152/151 126/138/138 141/153/152 
f 142/154/153 141/153/152 143/155/154 
f 143/155/154 141/153/152 126/138/138 
f 142/154/153 143/155/154 144/156/155 
f 144/156/155 143/155/154 145/157/156 
f 145/157/156 146/158/157 144/156/155 
f 146/158/157 145/157/156 147/159/158 
f 147/159/158 145/157/156 115/127/127 
f 147/159/158 115/127/127 148/160/159 
f 148/160/159 115/127/127 149/161/160 
f 149/161/160 115/127/127 114/126/126 
f 150/162/161 149/161/160 114/126/126 
f 117/129/129 151/163/162 114/126/126 
f 114/126/126 151/163/162 150/162/161 
f 152/164/163 151/163/162 117/129/129 
f 153/165/164 152/164/163 117/129/129 
f 116/128/128 154/166/165 117/129/129 
f 154/166/165 155/167/166 117/129/129 
f 155/167/166 153/165/164 117/129/129 
f 156/168/167 157/169/168 124/136/136 
f 125/137/137 124/136/136 158/170/169 
f 157/169/168 159/171/170 124/136/136 
f 159/171/170 158/170/169 124/136/136 
f 160/172/171 156/168/167 108/120/120 
f 108/120/120 156/168/167 124/136/136 
f 161/173/172 160/172/171 105/117/117 
f 105/117/117 160/172/171 108/120/120 
f 162/174/173 161/173/172 106/118/118 
f 106/118/118 161/173/172 105/117/117 
f 163/175/174 162/174/173 106/118/118 
f 164/176/175 163/175/174 127/139/139 
f 127/139/139 163/175/174 106/118/118 
f 112/124/124 165/177/176 109/121/121 
f 110/122/122 109/121/121 166/178/177 
f 166/178/177 109/121/121 165/177/176 
f 145/157/156 112/124/124 115/127/127 
f 112/124/124 145/157/156 165/177/176 
f 166/178/177 165/177/176 145/157/156 
f 143/155/154 166/178/177 145/157/156 
f 128/140/140 138/150/149 136/148/147 
f 134/146/145 127/139/139 136/148/147 
f 136/148/147 127/139/139 128/140/140 
f 127/139/139 134/146/145 164/176/175 
f 132/144/141 164/176/175 134/146/145 
f 164/176/175 132/144/141 167/179/178 
f 167/179/178 132/144/141 131/143/143 
f 126/138/138 128/140/140 104/116/116 
f 110/122/122 166/178/177 126/138/138 
f 138/150/149 128/140/140 126/138/138 
f 138/150/149 126/138/138 139/151/150 
f 139/151/150 126/138/138 140/152/151 
f 166/178/177 143/155/154 126/138/138 
# 92 faces

