# 3ds Max Wavefront OBJ Exporter v0.97b - (c)2007 guruware
# File Created: 04.12.2015 17:55:03

mtllib P740_285B_R.mtl

#
# object P740_285B_R_DTaSI_P740_285B_R
#

v  -1.3393 101.4180 72.2517
v  5.3888 100.8565 72.5379
v  5.2958 101.0837 72.4189
v  10.6253 78.6634 82.6336
v  10.9356 71.1638 85.6012
v  19.2870 78.3865 82.6974
v  19.5981 70.9559 85.6123
v  10.2861 86.1213 79.5344
v  18.9755 85.6414 79.7094
v  9.8913 93.6971 76.1765
v  18.5974 92.8842 76.5278
v  -0.4929 94.6391 75.7678
v  28.2071 91.8223 76.9771
v  27.7867 98.6936 73.5368
v  16.9881 99.8884 73.0313
v  36.4434 96.6448 74.4128
v  41.2123 90.2488 77.4857
v  44.4571 93.8884 75.5221
v  20.0125 55.3247 91.6405
v  20.0429 58.1482 90.4236
v  11.4783 55.7148 91.6164
v  11.3949 58.4897 90.4091
v  11.2004 63.9341 88.3631
v  19.8110 63.6758 88.3679
v  30.0362 57.7384 90.4460
v  30.1796 54.8600 91.6691
v  44.1364 57.1587 90.4441
v  44.3781 54.2036 91.6680
v  92.6680 70.9171 84.6084
v  93.0458 66.4748 86.5798
v  92.7889 70.8569 84.6308
v  -22.5754 102.3426 71.8229
v  -22.1557 100.1646 73.0995
v  -9.7153 101.9106 71.9936
v  -10.8017 94.6898 75.7897
v  58.2496 56.5493 90.4533
v  58.5766 53.5473 91.6668
v  70.9627 55.9182 90.5170
v  71.3931 52.9192 91.7116
v  28.5870 85.0978 79.9010
v  28.9703 78.0785 82.7674
v  41.7394 84.3908 80.0597
v  42.3365 77.7097 82.8044
v  29.3615 70.7225 85.6247
v  55.5784 77.3700 82.8139
v  54.8747 83.9053 80.0043
v  42.9786 70.4348 85.6150
v  56.6865 70.1248 85.6099
v  43.6315 62.9602 88.3646
v  29.7447 63.3783 88.3729
v  57.5664 62.5228 88.3627
v  67.7168 77.2207 82.6575
v  68.8423 69.4842 85.7178
v  70.0321 61.8465 88.4749
v  81.3178 68.3410 85.9993
v  82.6374 61.0991 88.6139
v  83.7119 55.2489 90.5961
v  84.2097 52.2912 91.7563
v  -21.1104 94.7405 75.8117
v  -9.6635 86.9720 79.2608
v  0.3451 86.6676 79.3338
v  -8.5435 79.2559 82.5209
v  1.0949 78.9684 82.5629
v  -7.4608 71.6509 85.5723
v  1.7908 71.3835 85.5895
v  -6.4601 64.5052 88.3260
v  2.4228 64.1977 88.3581
v  -5.7226 59.1956 90.3320
v  2.8860 58.8266 90.3942
v  3.0964 56.0979 91.5928
v  3.0630 56.9800 91.1583
v  -5.3805 56.4897 91.5196
v  54.2751 89.6819 77.2156
v  66.6596 83.9590 79.5083
v  79.6607 77.6639 81.9957
v  93.4453 59.6610 89.0595
v  93.7514 54.4401 90.8384
v  93.8963 51.7482 91.9095
v  -19.6720 87.2764 79.1878
v  -18.1818 79.5434 82.4788
v  -16.7124 71.9182 85.5550
v  -15.3431 64.8127 88.2940
v  -14.3306 59.5586 90.2722
v  -13.8574 56.8815 91.4463
# 84 vertices

vn 0.0019 0.4619 0.8869
vn 0.0027 0.4562 0.8899
vn 0.0011 0.4643 0.8857
vn 0.0052 0.3761 0.9266
vn 0.0075 0.3628 0.9318
vn 0.0051 0.3731 0.9278
vn 0.0074 0.3598 0.9330
vn 0.0033 0.3948 0.9188
vn 0.0034 0.3916 0.9201
vn 0.0026 0.4296 0.9030
vn 0.0046 0.4260 0.9047
vn 0.0037 0.4325 0.9016
vn 0.0103 0.4223 0.9064
vn 0.0108 0.4482 0.8939
vn 0.0047 0.4495 0.8933
vn 0.0196 0.4463 0.8946
vn 0.0247 0.4207 0.9069
vn 0.0359 0.4495 0.8925
vn 0.0149 0.3952 0.9185
vn 0.0125 0.3646 0.9311
vn 0.0150 0.3989 0.9169
vn 0.0126 0.3672 0.9300
vn 0.0100 0.3549 0.9349
vn 0.0098 0.3517 0.9360
vn 0.0132 0.3607 0.9326
vn 0.0160 0.3910 0.9202
vn 0.0141 0.3535 0.9353
vn 0.0169 0.3832 0.9235
vn 0.0210 0.4021 0.9154
vn 0.0114 0.3640 0.9313
vn 0.0339 0.4077 0.9125
vn 0.0056 0.5064 0.8623
vn 0.0082 0.4712 0.8820
vn 0.0072 0.4656 0.8850
vn 0.0061 0.4360 0.8999
vn 0.0132 0.3467 0.9379
vn 0.0158 0.3759 0.9265
vn 0.0118 0.3422 0.9396
vn 0.0144 0.3714 0.9283
vn 0.0079 0.3891 0.9212
vn 0.0072 0.3707 0.9287
vn 0.0170 0.3937 0.9191
vn 0.0100 0.3718 0.9283
vn 0.0080 0.3568 0.9341
vn 0.0156 0.3808 0.9245
vn 0.0253 0.4141 0.9099
vn 0.0088 0.3538 0.9353
vn 0.0107 0.3526 0.9357
vn 0.0109 0.3426 0.9394
vn 0.0102 0.3482 0.9374
vn 0.0108 0.3375 0.9413
vn 0.0253 0.3963 0.9178
vn 0.0154 0.3605 0.9326
vn 0.0100 0.3351 0.9421
vn 0.0147 0.3731 0.9277
vn 0.0083 0.3333 0.9428
vn 0.0088 0.3378 0.9412
vn 0.0108 0.3670 0.9301
vn 0.0040 0.4297 0.9030
vn 0.0056 0.4007 0.9162
vn 0.0043 0.3983 0.9173
vn 0.0072 0.3818 0.9242
vn 0.0061 0.3792 0.9253
vn 0.0086 0.3671 0.9301
vn 0.0078 0.3656 0.9307
vn 0.0089 0.3580 0.9337
vn 0.0091 0.3576 0.9338
vn 0.0099 0.3705 0.9288
vn 0.0102 0.3619 0.9321
vn 0.0095 0.4302 0.9027
vn 0.0104 0.4052 0.9142
vn 0.0134 0.4038 0.9148
vn 0.0294 0.4326 0.9011
vn 0.0284 0.4230 0.9057
vn 0.0242 0.3970 0.9175
vn 0.0051 0.3325 0.9431
vn 0.0043 0.3406 0.9402
vn 0.0060 0.3700 0.9290
vn 0.0050 0.4035 0.9150
vn 0.0066 0.3846 0.9231
vn 0.0083 0.3690 0.9294
vn 0.0089 0.3584 0.9335
vn 0.0093 0.3679 0.9298
vn 0.0107 0.4032 0.9151
# 84 vertex normals

vt 0.6148 0.1769 0.0000
vt 0.6356 0.1761 0.0000
vt 0.6352 0.1768 0.0000
vt 0.6559 0.1046 0.0000
vt 0.6582 0.0805 0.0000
vt 0.6826 0.1050 0.0000
vt 0.6849 0.0811 0.0000
vt 0.6535 0.1287 0.0000
vt 0.6803 0.1285 0.0000
vt 0.6508 0.1533 0.0000
vt 0.6778 0.1519 0.0000
vt 0.6187 0.1548 0.0000
vt 0.7075 0.1499 0.0000
vt 0.7049 0.1723 0.0000
vt 0.6714 0.1746 0.0000
vt 0.7319 0.1670 0.0000
vt 0.7478 0.1468 0.0000
vt 0.7571 0.1592 0.0000
vt 0.6890 0.0308 0.0000
vt 0.6886 0.0400 0.0000
vt 0.6627 0.0308 0.0000
vt 0.6619 0.0398 0.0000
vt 0.6603 0.0573 0.0000
vt 0.6869 0.0577 0.0000
vt 0.7194 0.0402 0.0000
vt 0.7203 0.0309 0.0000
vt 0.7628 0.0405 0.0000
vt 0.7641 0.0310 0.0000
vt 0.9096 0.0922 0.0000
vt 0.9116 0.0778 0.0000
vt 0.9099 0.0920 0.0000
vt 0.5493 0.1768 0.0000
vt 0.5510 0.1697 0.0000
vt 0.5889 0.1773 0.0000
vt 0.5870 0.1534 0.0000
vt 0.8063 0.0407 0.0000
vt 0.8079 0.0311 0.0000
vt 0.8455 0.0406 0.0000
vt 0.8474 0.0310 0.0000
vt 0.7100 0.1281 0.0000
vt 0.7124 0.1055 0.0000
vt 0.7505 0.1278 0.0000
vt 0.7536 0.1063 0.0000
vt 0.7150 0.0818 0.0000
vt 0.7944 0.1072 0.0000
vt 0.7910 0.1283 0.0000
vt 0.7569 0.0830 0.0000
vt 0.7991 0.0841 0.0000
vt 0.7602 0.0591 0.0000
vt 0.7175 0.0583 0.0000
vt 0.8032 0.0598 0.0000
vt 0.8317 0.1086 0.0000
vt 0.8366 0.0838 0.0000
vt 0.8416 0.0595 0.0000
vt 0.8752 0.0821 0.0000
vt 0.8805 0.0590 0.0000
vt 0.8848 0.0404 0.0000
vt 0.8869 0.0310 0.0000
vt 0.5553 0.1521 0.0000
vt 0.5920 0.1285 0.0000
vt 0.6228 0.1290 0.0000
vt 0.5968 0.1037 0.0000
vt 0.6265 0.1042 0.0000
vt 0.6016 0.0793 0.0000
vt 0.6301 0.0798 0.0000
vt 0.6059 0.0564 0.0000
vt 0.6333 0.0568 0.0000
vt 0.6092 0.0394 0.0000
vt 0.6357 0.0395 0.0000
vt 0.6369 0.0307 0.0000
vt 0.6366 0.0336 0.0000
vt 0.6107 0.0307 0.0000
vt 0.7880 0.1471 0.0000
vt 0.8272 0.1304 0.0000
vt 0.8683 0.1120 0.0000
vt 0.9140 0.0560 0.0000
vt 0.9158 0.0393 0.0000
vt 0.9168 0.0307 0.0000
vt 0.5611 0.1280 0.0000
vt 0.5672 0.1032 0.0000
vt 0.5731 0.0787 0.0000
vt 0.5786 0.0561 0.0000
vt 0.5826 0.0393 0.0000
vt 0.5846 0.0307 0.0000
# 84 texture coords

g P740_285B_R_DTaSI_P740_285B_R
usemtl windowglass_1SG
s 1
f 1/1/1 2/2/2 3/3/3 
f 4/4/4 5/5/5 6/6/6 
f 6/6/6 5/5/5 7/7/7 
f 8/8/8 4/4/4 9/9/9 
f 9/9/9 4/4/4 6/6/6 
f 10/10/10 8/8/8 11/11/11 
f 11/11/11 8/8/8 9/9/9 
f 10/10/10 2/2/2 12/12/12 
f 12/12/12 2/2/2 1/1/1 
f 13/13/13 14/14/14 11/11/11 
f 11/11/11 14/14/14 15/15/15 
f 14/14/14 13/13/13 16/16/16 
f 16/16/16 13/13/13 17/17/17 
f 18/18/18 16/16/16 17/17/17 
f 19/19/19 20/20/20 21/21/21 
f 21/21/21 20/20/20 22/22/22 
f 23/23/23 22/22/22 24/24/24 
f 24/24/24 22/22/22 20/20/20 
f 5/5/5 23/23/23 7/7/7 
f 7/7/7 23/23/23 24/24/24 
f 25/25/25 26/26/26 27/27/27 
f 27/27/27 26/26/26 28/28/28 
f 29/29/29 30/30/30 31/31/31 
f 32/32/32 33/33/33 34/34/34 
f 34/34/34 33/33/33 35/35/35 
f 36/36/36 37/37/37 38/38/38 
f 38/38/38 37/37/37 39/39/39 
f 40/40/40 41/41/41 42/42/42 
f 42/42/42 41/41/41 43/43/43 
f 6/6/6 7/7/7 41/41/41 
f 41/41/41 7/7/7 44/44/44 
f 41/41/41 40/40/40 6/6/6 
f 6/6/6 40/40/40 9/9/9 
f 40/40/40 13/13/13 9/9/9 
f 9/9/9 13/13/13 11/11/11 
f 45/45/45 46/46/46 43/43/43 
f 43/43/43 46/46/46 42/42/42 
f 43/43/43 47/47/47 45/45/45 
f 45/45/45 47/47/47 48/48/48 
f 13/13/13 40/40/40 17/17/17 
f 17/17/17 40/40/40 42/42/42 
f 41/41/41 44/44/44 43/43/43 
f 43/43/43 44/44/44 47/47/47 
f 49/49/49 47/47/47 50/50/50 
f 50/50/50 47/47/47 44/44/44 
f 27/27/27 49/49/49 25/25/25 
f 25/25/25 49/49/49 50/50/50 
f 47/47/47 49/49/49 48/48/48 
f 48/48/48 49/49/49 51/51/51 
f 36/36/36 51/51/51 27/27/27 
f 27/27/27 51/51/51 49/49/49 
f 27/27/27 28/28/28 36/36/36 
f 36/36/36 28/28/28 37/37/37 
f 45/45/45 48/48/48 52/52/52 
f 52/52/52 48/48/48 53/53/53 
f 48/48/48 51/51/51 53/53/53 
f 53/53/53 51/51/51 54/54/54 
f 38/38/38 54/54/54 36/36/36 
f 36/36/36 54/54/54 51/51/51 
f 53/53/53 54/54/54 55/55/55 
f 55/55/55 54/54/54 56/56/56 
f 54/54/54 38/38/38 56/56/56 
f 56/56/56 38/38/38 57/57/57 
f 38/38/38 39/39/39 57/57/57 
f 57/57/57 39/39/39 58/58/58 
f 50/50/50 44/44/44 24/24/24 
f 24/24/24 44/44/44 7/7/7 
f 25/25/25 50/50/50 20/20/20 
f 20/20/20 50/50/50 24/24/24 
f 20/20/20 19/19/19 25/25/25 
f 25/25/25 19/19/19 26/26/26 
f 35/35/35 33/33/33 59/59/59 
f 35/35/35 60/60/60 12/12/12 
f 12/12/12 60/60/60 61/61/61 
f 60/60/60 62/62/62 61/61/61 
f 61/61/61 62/62/62 63/63/63 
f 62/62/62 64/64/64 63/63/63 
f 63/63/63 64/64/64 65/65/65 
f 64/64/64 66/66/66 65/65/65 
f 65/65/65 66/66/66 67/67/67 
f 66/66/66 68/68/68 67/67/67 
f 67/67/67 68/68/68 69/69/69 
f 70/70/70 71/71/71 72/72/72 
f 72/72/72 71/71/71 68/68/68 
f 69/69/69 68/68/68 71/71/71 
f 46/46/46 73/73/73 42/42/42 
f 42/42/42 73/73/73 17/17/17 
f 74/74/74 73/73/73 46/46/46 
f 46/46/46 45/45/45 74/74/74 
f 74/74/74 45/45/45 52/52/52 
f 52/52/52 75/75/75 74/74/74 
f 52/52/52 53/53/53 75/75/75 
f 75/75/75 53/53/53 55/55/55 
f 75/75/75 55/55/55 29/29/29 
f 29/29/29 55/55/55 30/30/30 
f 55/55/55 56/56/56 30/30/30 
f 30/30/30 56/56/56 76/76/76 
f 56/56/56 57/57/57 76/76/76 
f 76/76/76 57/57/57 77/77/77 
f 57/57/57 58/58/58 77/77/77 
f 77/77/77 58/58/58 78/78/78 
f 18/18/18 17/17/17 73/73/73 
f 59/59/59 79/79/79 35/35/35 
f 35/35/35 79/79/79 60/60/60 
f 62/62/62 60/60/60 80/80/80 
f 80/80/80 60/60/60 79/79/79 
f 64/64/64 62/62/62 81/81/81 
f 81/81/81 62/62/62 80/80/80 
f 66/66/66 64/64/64 82/82/82 
f 82/82/82 64/64/64 81/81/81 
f 68/68/68 66/66/66 83/83/83 
f 83/83/83 66/66/66 82/82/82 
f 72/72/72 68/68/68 84/84/84 
f 84/84/84 68/68/68 83/83/83 
f 1/1/1 35/35/35 12/12/12 
f 34/34/34 35/35/35 1/1/1 
f 12/12/12 61/61/61 10/10/10 
f 10/10/10 61/61/61 8/8/8 
f 61/61/61 63/63/63 8/8/8 
f 8/8/8 63/63/63 4/4/4 
f 63/63/63 65/65/65 4/4/4 
f 4/4/4 65/65/65 5/5/5 
f 65/65/65 67/67/67 5/5/5 
f 5/5/5 67/67/67 23/23/23 
f 67/67/67 69/69/69 23/23/23 
f 23/23/23 69/69/69 22/22/22 
f 69/69/69 71/71/71 22/22/22 
f 21/21/21 22/22/22 70/70/70 
f 70/70/70 22/22/22 71/71/71 
f 11/11/11 15/15/15 10/10/10 
f 10/10/10 15/15/15 2/2/2 
f 3/3/3 2/2/2 15/15/15 
# 132 faces

