# 3ds Max Wavefront OBJ Exporter v0.97b - (c)2007 guruware
# File Created: 04.12.2015 17:53:24

mtllib P740_181C_R.mtl

#
# object P740_181C_R_DaS_P740_181C_R
#

v  89.3967 80.4466 79.2796
v  86.7586 81.8606 78.5125
v  87.0504 81.6747 79.0799
v  79.8920 85.4100 77.4241
v  79.7461 85.5030 77.1404
v  59.4132 95.7238 72.6796
v  53.7449 98.2858 71.4511
v  53.6821 98.2629 71.7609
v  103.6833 70.2603 85.5628
v  104.8699 68.1967 86.8442
v  109.8375 67.1292 86.7870
v  108.2522 66.4971 87.4898
v  100.6023 71.0694 85.5015
v  97.5290 73.3914 84.3387
v  96.9951 73.1646 84.5997
v  83.9591 80.2645 81.6003
v  90.4771 76.7146 83.1000
v  90.7441 76.8279 82.9695
v  100.9270 74.3095 82.1212
v  107.0665 71.0708 83.3677
v  101.8046 73.7994 82.1276
v  107.6244 70.7021 83.2926
v  100.5636 74.3446 82.3341
v  106.5230 71.0946 83.7828
v  106.9251 71.0831 83.4859
v  95.5127 76.9844 80.3570
v  94.9802 77.3956 80.8068
v  92.4547 78.7155 79.8183
v  93.6015 77.9771 80.8925
v  86.5405 81.7535 79.2982
v  79.3881 85.4563 77.7234
v  93.1393 77.9837 81.1890
v  53.6148 98.1336 72.1714
v  53.6078 98.0726 72.2842
v  59.4199 95.5973 73.1750
v  59.4057 95.4754 73.4005
v  66.0734 92.4345 74.1575
v  66.0768 92.3713 74.4717
v  72.7337 89.1453 75.6353
v  72.2357 89.1592 76.1486
v  65.8207 92.3173 74.7746
v  103.8737 72.4375 82.1711
v  113.8121 67.0454 84.0693
v  113.4441 67.6049 84.4576
v  104.9188 70.7554 84.9690
v  98.7779 73.9105 83.7110
v  91.9032 77.4697 82.2593
v  85.0286 81.0289 80.8075
v  78.0161 84.5926 79.3363
v  77.1845 83.8101 80.0981
v  71.0036 88.1563 77.8650
v  64.4318 91.3289 76.5479
v  70.4100 87.3556 78.5958
v  63.9354 90.5614 77.2310
v  52.2749 96.9832 74.2077
v  51.8610 96.1873 74.8885
v  57.8599 94.5014 75.2307
v  57.4609 93.7671 75.8662
v  106.2990 71.0888 83.9764
v  105.9167 71.0387 84.3001
v  100.1527 74.2795 82.7051
v  99.7380 74.2140 83.0798
v  105.7094 71.0059 84.4875
v  92.7925 77.8809 81.5249
v  86.1825 81.6199 79.6965
v  79.2091 85.3896 77.9226
v  78.8733 85.2254 78.3493
v  85.8215 81.4846 80.0990
v  78.7163 85.1277 78.5772
v  92.6120 77.8133 81.7261
v  53.0403 97.8493 72.9419
v  58.4226 95.2043 74.3306
v  53.2502 97.9377 72.6950
v  58.8424 95.3811 73.8368
v  59.1702 95.4199 73.6089
v  53.4900 98.0448 72.3884
v  52.8371 97.7260 73.2519
v  65.0168 91.9875 75.6930
v  71.6110 88.7708 77.0554
v  65.2267 92.0760 75.4461
v  71.9250 88.9661 76.5996
v  65.5476 92.1930 75.1043
v  47.8098 100.6698 71.1679
v  47.9510 100.8021 70.7091
v  44.3543 101.9036 70.8654
v  44.4580 102.1366 70.2623
v  47.6579 100.4943 71.5532
v  44.4326 102.3038 69.5321
v  48.0767 100.8479 70.3556
v  85.5348 81.3575 80.3965
v  78.4534 84.9751 78.8949
v  92.4686 77.7497 81.8749
v  99.4025 74.1420 83.3533
v  105.5416 70.9699 84.6242
v  71.3720 88.5927 77.3933
v  64.7767 91.7974 76.0526
v  52.6048 97.4996 73.6713
v  58.1814 95.0022 74.7119
v  91.1357 79.4225 79.4348
v  107.3028 66.0213 87.9146
v  44.1566 101.5086 71.6315
v  47.2516 100.2478 72.1731
v  47.0281 99.9971 72.6306
v  43.9822 101.1416 72.1636
v  43.5763 100.6247 72.7179
v  46.6900 99.4649 73.1846
v  43.0465 99.6638 73.5345
v  46.2610 98.6074 73.9107
v  111.0598 67.6003 86.2270
v  111.6807 67.7979 85.8952
v  112.0344 67.8331 85.6188
v  112.4824 67.8447 85.2315
v  112.9232 67.8566 84.8507
v  113.2060 67.8321 84.6142
# 114 vertices

vn 0.4668 0.8801 0.0863
vn 0.4524 0.8900 0.0572
vn 0.3921 0.8683 0.3037
vn 0.3839 0.8720 0.3037
vn 0.4501 0.8909 0.0604
vn 0.3722 0.9002 0.2260
vn 0.3827 0.9124 0.1450
vn 0.3548 0.8990 0.2567
vn 0.1396 0.5863 0.7980
vn 0.1325 0.5751 0.8073
vn 0.1382 0.5765 0.8053
vn 0.1265 0.5560 0.8215
vn 0.1369 0.5820 0.8016
vn 0.1444 0.5970 0.7891
vn 0.1390 0.5892 0.7960
vn 0.1461 0.6062 0.7818
vn 0.1384 0.5901 0.7954
vn 0.1454 0.6008 0.7860
vn 0.4267 0.8918 0.1503
vn 0.4700 0.8826 -0.0142
vn 0.5004 0.7719 -0.3922
vn 0.4859 0.7290 -0.4822
vn 0.3228 0.8348 0.4461
vn 0.3478 0.8309 0.4342
vn 0.3550 0.8368 0.4168
vn 0.5071 0.8444 -0.1729
vn 0.4497 0.8814 0.1448
vn 0.5084 0.8418 -0.1810
vn 0.3545 0.8396 0.4115
vn 0.3096 0.8062 0.5041
vn 0.3198 0.8244 0.4670
vn 0.3085 0.7989 0.5163
vn 0.3234 0.8745 0.3616
vn 0.2741 0.8246 0.4949
vn 0.3544 0.8841 0.3046
vn 0.2866 0.8174 0.4997
vn 0.4021 0.8982 0.1779
vn 0.3644 0.8769 0.3134
vn 0.3703 0.8664 0.3349
vn 0.3302 0.8383 0.4338
vn 0.3013 0.8216 0.4840
vn 0.4839 0.7186 -0.4995
vn 0.4723 0.6948 -0.5424
vn 0.4803 0.7185 -0.5032
vn 0.1570 0.6128 0.7745
vn 0.1587 0.6171 0.7707
vn 0.1581 0.6187 0.7696
vn 0.1569 0.6206 0.7683
vn 0.1556 0.6228 0.7668
vn 0.1445 0.6071 0.7814
vn 0.1530 0.6254 0.7652
vn 0.1493 0.6273 0.7643
vn 0.1411 0.6082 0.7812
vn 0.1362 0.6081 0.7821
vn 0.1396 0.6296 0.7643
vn 0.1254 0.6066 0.7851
vn 0.1454 0.6293 0.7635
vn 0.1314 0.6072 0.7836
vn 0.3286 0.8173 0.4734
vn 0.3168 0.8081 0.4966
vn 0.3174 0.8113 0.4910
vn 0.3052 0.7965 0.5220
vn 0.3051 0.7968 0.5216
vn 0.2959 0.7878 0.5401
vn 0.2969 0.7926 0.5326
vn 0.2930 0.7933 0.5336
vn 0.2915 0.7921 0.5363
vn 0.2850 0.7808 0.5560
vn 0.2760 0.7756 0.5677
vn 0.2875 0.7788 0.5575
vn 0.2696 0.8166 0.5104
vn 0.2647 0.7958 0.5447
vn 0.2698 0.8180 0.5080
vn 0.2740 0.8066 0.5238
vn 0.2729 0.8049 0.5269
vn 0.2707 0.8195 0.5051
vn 0.2585 0.8022 0.5382
vn 0.2677 0.7850 0.5586
vn 0.2738 0.7825 0.5592
vn 0.2800 0.7995 0.5314
vn 0.2848 0.7945 0.5364
vn 0.2788 0.7985 0.5336
vn 0.2932 0.8620 0.4135
vn 0.3246 0.8956 0.3042
vn 0.2511 0.8582 0.4476
vn 0.2947 0.9134 0.2810
vn 0.2676 0.8262 0.4957
vn 0.2996 0.9264 0.2282
vn 0.3432 0.9094 0.2351
vn 0.2133 0.6963 0.6853
vn 0.2109 0.6971 0.6852
vn 0.2028 0.6790 0.7056
vn 0.2235 0.7045 0.6736
vn 0.2092 0.6848 0.6980
vn 0.2063 0.6993 0.6844
vn 0.2034 0.7036 0.6808
vn 0.1953 0.7157 0.6706
vn 0.1992 0.7089 0.6766
vn 0.5096 0.8322 -0.2186
vn 0.1095 0.5313 0.8401
vn 0.2280 0.8242 0.5185
vn 0.2534 0.8127 0.5246
vn 0.1895 0.7237 0.6636
vn 0.1712 0.7273 0.6647
vn 0.1208 0.6328 0.7648
vn 0.1332 0.6313 0.7640
vn 0.1081 0.6079 0.7866
vn 0.1189 0.6063 0.7863
vn 0.1579 0.6084 0.7778
vn 0.2418 0.7223 0.6479
vn 0.3325 0.8211 0.4639
vn 0.3479 0.8335 0.4293
vn 0.3583 0.8409 0.4055
vn 0.4612 0.8870 0.0233
# 114 vertex normals

vt 0.6657 0.2760 0.0000
vt 0.6611 0.2795 0.0000
vt 0.6613 0.2784 0.0000
vt 0.6481 0.2866 0.0000
vt 0.6480 0.2872 0.0000
vt 0.6102 0.3061 0.0000
vt 0.5997 0.3110 0.0000
vt 0.5995 0.3104 0.0000
vt 0.6922 0.2568 0.0000
vt 0.6944 0.2533 0.0000
vt 0.7025 0.2504 0.0000
vt 0.6999 0.2497 0.0000
vt 0.6865 0.2586 0.0000
vt 0.6808 0.2619 0.0000
vt 0.6799 0.2612 0.0000
vt 0.6559 0.2755 0.0000
vt 0.6677 0.2676 0.0000
vt 0.6682 0.2679 0.0000
vt 0.6871 0.2657 0.0000
vt 0.6983 0.2584 0.0000
vt 0.6889 0.2649 0.0000
vt 0.6995 0.2583 0.0000
vt 0.6864 0.2655 0.0000
vt 0.6974 0.2582 0.0000
vt 0.6981 0.2583 0.0000
vt 0.6773 0.2722 0.0000
vt 0.6760 0.2714 0.0000
vt 0.6715 0.2739 0.0000
vt 0.6734 0.2717 0.0000
vt 0.6604 0.2784 0.0000
vt 0.6471 0.2862 0.0000
vt 0.6725 0.2713 0.0000
vt 0.5993 0.3096 0.0000
vt 0.5993 0.3093 0.0000
vt 0.6101 0.3052 0.0000
vt 0.6101 0.3048 0.0000
vt 0.6226 0.3001 0.0000
vt 0.6225 0.2995 0.0000
vt 0.6349 0.2940 0.0000
vt 0.6339 0.2933 0.0000
vt 0.6220 0.2990 0.0000
vt 0.6927 0.2633 0.0000
vt 0.7106 0.2531 0.0000
vt 0.7097 0.2528 0.0000
vt 0.6944 0.2574 0.0000
vt 0.6830 0.2631 0.0000
vt 0.6703 0.2694 0.0000
vt 0.6576 0.2766 0.0000
vt 0.6446 0.2825 0.0000
vt 0.6432 0.2804 0.0000
vt 0.6315 0.2892 0.0000
vt 0.6194 0.2949 0.0000
vt 0.6305 0.2871 0.0000
vt 0.6185 0.2930 0.0000
vt 0.5968 0.3054 0.0000
vt 0.5961 0.3035 0.0000
vt 0.6072 0.3008 0.0000
vt 0.6065 0.2990 0.0000
vt 0.6970 0.2581 0.0000
vt 0.6963 0.2579 0.0000
vt 0.6856 0.2649 0.0000
vt 0.6848 0.2643 0.0000
vt 0.6959 0.2577 0.0000
vt 0.6719 0.2707 0.0000
vt 0.6597 0.2780 0.0000
vt 0.6468 0.2858 0.0000
vt 0.6461 0.2849 0.0000
vt 0.6590 0.2776 0.0000
vt 0.6458 0.2844 0.0000
vt 0.6716 0.2704 0.0000
vt 0.5982 0.3081 0.0000
vt 0.6082 0.3029 0.0000
vt 0.5986 0.3086 0.0000
vt 0.6090 0.3039 0.0000
vt 0.6096 0.3044 0.0000
vt 0.5991 0.3092 0.0000
vt 0.5978 0.3075 0.0000
vt 0.6204 0.2970 0.0000
vt 0.6327 0.2913 0.0000
vt 0.6208 0.2976 0.0000
vt 0.6333 0.2924 0.0000
vt 0.6214 0.2983 0.0000
vt 0.5885 0.3142 0.0000
vt 0.5888 0.3151 0.0000
vt 0.5822 0.3160 0.0000
vt 0.5824 0.3170 0.0000
vt 0.5882 0.3134 0.0000
vt 0.5824 0.3183 0.0000
vt 0.5891 0.3157 0.0000
vt 0.6585 0.2772 0.0000
vt 0.6453 0.2837 0.0000
vt 0.6713 0.2701 0.0000
vt 0.6842 0.2638 0.0000
vt 0.6956 0.2577 0.0000
vt 0.6322 0.2905 0.0000
vt 0.6200 0.2962 0.0000
vt 0.5974 0.3067 0.0000
vt 0.6077 0.3021 0.0000
vt 0.6690 0.2748 0.0000
vt 0.6989 0.2493 0.0000
vt 0.5819 0.3147 0.0000
vt 0.5875 0.3122 0.0000
vt 0.5871 0.3114 0.0000
vt 0.5816 0.3138 0.0000
vt 0.5808 0.3126 0.0000
vt 0.5864 0.3101 0.0000
vt 0.5797 0.3106 0.0000
vt 0.5856 0.3081 0.0000
vt 0.7046 0.2512 0.0000
vt 0.7057 0.2516 0.0000
vt 0.7064 0.2519 0.0000
vt 0.7074 0.2522 0.0000
vt 0.7084 0.2526 0.0000
vt 0.7090 0.2528 0.0000
# 114 texture coords

g P740_181C_R_DaS_P740_181C_R
usemtl paint_whiteSG
s 6
f 1/1/1 2/2/2 3/3/3 
f 3/3/3 2/2/2 4/4/4 
f 2/2/2 5/5/5 4/4/4 
f 6/6/6 7/7/7 8/8/8 
f 9/9/9 10/10/10 11/11/11 
f 11/11/11 10/10/10 12/12/12 
f 13/13/13 14/14/14 15/15/15 
f 16/16/16 17/17/17 18/18/18 
f 19/19/19 20/20/20 21/21/21 
f 21/21/21 20/20/20 22/22/22 
f 23/23/23 24/24/24 19/19/19 
f 19/19/19 24/24/24 25/25/25 
f 25/25/25 20/20/20 19/19/19 
f 21/21/21 26/26/26 19/19/19 
f 27/27/27 28/28/28 1/1/1 
f 27/27/27 1/1/1 29/29/29 
f 29/29/29 1/1/1 3/3/3 
f 3/3/3 4/4/4 30/30/30 
f 30/30/30 4/4/4 31/31/31 
f 29/29/29 3/3/3 32/32/32 
f 32/32/32 3/3/3 30/30/30 
f 33/33/33 34/34/34 35/35/35 
f 35/35/35 34/34/34 36/36/36 
f 8/8/8 33/33/33 6/6/6 
f 6/6/6 33/33/33 35/35/35 
f 37/37/37 38/38/38 39/39/39 
f 39/39/39 38/38/38 40/40/40 
f 40/40/40 38/38/38 41/41/41 
f 21/21/21 22/22/22 42/42/42 
f 42/42/42 22/22/22 43/43/43 
f 22/22/22 44/44/44 43/43/43 
f 21/21/21 42/42/42 26/26/26 
f 45/45/45 46/46/46 9/9/9 
f 9/9/9 46/46/46 14/14/14 
f 47/47/47 48/48/48 18/18/18 
f 18/18/18 48/48/48 16/16/16 
f 48/48/48 49/49/49 16/16/16 
f 16/16/16 49/49/49 50/50/50 
f 51/51/51 52/52/52 53/53/53 
f 53/53/53 52/52/52 54/54/54 
f 55/55/55 56/56/56 57/57/57 
f 57/57/57 56/56/56 58/58/58 
f 59/59/59 23/23/23 60/60/60 
f 60/60/60 23/23/23 61/61/61 
f 59/59/59 24/24/24 23/23/23 
f 62/62/62 63/63/63 61/61/61 
f 61/61/61 63/63/63 60/60/60 
f 32/32/32 30/30/30 64/64/64 
f 64/64/64 30/30/30 65/65/65 
f 30/30/30 31/31/31 65/65/65 
f 65/65/65 31/31/31 66/66/66 
f 67/67/67 68/68/68 66/66/66 
f 66/66/66 68/68/68 65/65/65 
f 67/67/67 69/69/69 68/68/68 
f 64/64/64 65/65/65 70/70/70 
f 70/70/70 65/65/65 68/68/68 
f 71/71/71 72/72/72 73/73/73 
f 73/73/73 72/72/72 74/74/74 
f 75/75/75 76/76/76 74/74/74 
f 74/74/74 76/76/76 73/73/73 
f 36/36/36 34/34/34 75/75/75 
f 75/75/75 34/34/34 76/76/76 
f 72/72/72 71/71/71 77/77/77 
f 78/78/78 79/79/79 80/80/80 
f 81/81/81 82/82/82 79/79/79 
f 79/79/79 82/82/82 80/80/80 
f 83/83/83 84/84/84 85/85/85 
f 85/85/85 84/84/84 86/86/86 
f 85/85/85 87/87/87 83/83/83 
f 88/88/88 86/86/86 89/89/89 
f 89/89/89 86/86/86 84/84/84 
f 68/68/68 69/69/69 90/90/90 
f 90/90/90 69/69/69 91/91/91 
f 92/92/92 90/90/90 47/47/47 
f 47/47/47 90/90/90 48/48/48 
f 93/93/93 94/94/94 62/62/62 
f 62/62/62 94/94/94 63/63/63 
f 94/94/94 93/93/93 45/45/45 
f 45/45/45 93/93/93 46/46/46 
f 79/79/79 78/78/78 95/95/95 
f 95/95/95 78/78/78 96/96/96 
f 97/97/97 98/98/98 77/77/77 
f 77/77/77 98/98/98 72/72/72 
f 55/55/55 57/57/57 97/97/97 
f 97/97/97 57/57/57 98/98/98 
f 2/2/2 1/1/1 99/99/99 
f 99/99/99 1/1/1 28/28/28 
f 100/100/100 12/12/12 10/10/10 
f 82/82/82 81/81/81 41/41/41 
f 41/41/41 81/81/81 40/40/40 
f 49/49/49 48/48/48 91/91/91 
f 91/91/91 48/48/48 90/90/90 
f 52/52/52 51/51/51 96/96/96 
f 96/96/96 51/51/51 95/95/95 
f 101/101/101 102/102/102 85/85/85 
f 85/85/85 102/102/102 87/87/87 
f 103/103/103 102/102/102 104/104/104 
f 104/104/104 102/102/102 101/101/101 
f 105/105/105 106/106/106 104/104/104 
f 104/104/104 106/106/106 103/103/103 
f 107/107/107 108/108/108 105/105/105 
f 105/105/105 108/108/108 106/106/106 
f 70/70/70 68/68/68 92/92/92 
f 92/92/92 68/68/68 90/90/90 
f 7/7/7 89/89/89 8/8/8 
f 8/8/8 89/89/89 84/84/84 
f 33/33/33 8/8/8 83/83/83 
f 83/83/83 8/8/8 84/84/84 
f 34/34/34 33/33/33 83/83/83 
f 76/76/76 34/34/34 83/83/83 
f 76/76/76 83/83/83 73/73/73 
f 73/73/73 83/83/83 87/87/87 
f 87/87/87 71/71/71 73/73/73 
f 71/71/71 87/87/87 77/77/77 
f 77/77/77 87/87/87 102/102/102 
f 103/103/103 97/97/97 102/102/102 
f 102/102/102 97/97/97 77/77/77 
f 106/106/106 55/55/55 103/103/103 
f 103/103/103 55/55/55 97/97/97 
f 56/56/56 55/55/55 108/108/108 
f 108/108/108 55/55/55 106/106/106 
f 6/6/6 35/35/35 37/37/37 
f 37/37/37 35/35/35 38/38/38 
f 38/38/38 35/35/35 41/41/41 
f 41/41/41 35/35/35 36/36/36 
f 75/75/75 82/82/82 36/36/36 
f 36/36/36 82/82/82 41/41/41 
f 82/82/82 75/75/75 80/80/80 
f 80/80/80 75/75/75 74/74/74 
f 72/72/72 78/78/78 74/74/74 
f 74/74/74 78/78/78 80/80/80 
f 78/78/78 72/72/72 96/96/96 
f 96/96/96 72/72/72 98/98/98 
f 98/98/98 57/57/57 96/96/96 
f 96/96/96 57/57/57 52/52/52 
f 54/54/54 52/52/52 58/58/58 
f 58/58/58 52/52/52 57/57/57 
f 4/4/4 5/5/5 39/39/39 
f 4/4/4 39/39/39 31/31/31 
f 31/31/31 39/39/39 40/40/40 
f 66/66/66 31/31/31 40/40/40 
f 81/81/81 67/67/67 40/40/40 
f 40/40/40 67/67/67 66/66/66 
f 79/79/79 69/69/69 81/81/81 
f 81/81/81 69/69/69 67/67/67 
f 69/69/69 79/79/79 91/91/91 
f 91/91/91 79/79/79 95/95/95 
f 51/51/51 49/49/49 95/95/95 
f 95/95/95 49/49/49 91/91/91 
f 49/49/49 51/51/51 50/50/50 
f 50/50/50 51/51/51 53/53/53 
f 17/17/17 15/15/15 18/18/18 
f 18/18/18 15/15/15 14/14/14 
f 46/46/46 47/47/47 14/14/14 
f 14/14/14 47/47/47 18/18/18 
f 93/93/93 92/92/92 46/46/46 
f 46/46/46 92/92/92 47/47/47 
f 93/93/93 70/70/70 92/92/92 
f 93/93/93 64/64/64 70/70/70 
f 62/62/62 32/32/32 93/93/93 
f 93/93/93 32/32/32 64/64/64 
f 61/61/61 29/29/29 62/62/62 
f 62/62/62 29/29/29 32/32/32 
f 23/23/23 27/27/27 61/61/61 
f 61/61/61 27/27/27 29/29/29 
f 28/28/28 27/27/27 26/26/26 
f 19/19/19 26/26/26 23/23/23 
f 26/26/26 27/27/27 23/23/23 
f 99/99/99 28/28/28 26/26/26 
f 109/109/109 45/45/45 11/11/11 
f 11/11/11 45/45/45 9/9/9 
f 110/110/110 94/94/94 109/109/109 
f 109/109/109 94/94/94 45/45/45 
f 63/63/63 94/94/94 110/110/110 
f 60/60/60 63/63/63 110/110/110 
f 111/111/111 59/59/59 110/110/110 
f 110/110/110 59/59/59 60/60/60 
f 112/112/112 24/24/24 111/111/111 
f 111/111/111 24/24/24 59/59/59 
f 24/24/24 112/112/112 25/25/25 
f 25/25/25 112/112/112 113/113/113 
f 114/114/114 20/20/20 113/113/113 
f 113/113/113 20/20/20 25/25/25 
f 20/20/20 114/114/114 22/22/22 
f 22/22/22 114/114/114 44/44/44 
f 13/13/13 9/9/9 14/14/14 
f 10/10/10 9/9/9 13/13/13 
# 187 faces

#
# object P740_181C_R_DaS_P740_181C_R_E
#

v  104.8699 68.1967 86.8442
v  104.7739 67.7583 86.1953
v  107.3028 66.0213 87.9146
v  107.2158 65.6031 87.2506
v  100.6023 71.0694 85.5015
v  100.4958 70.6134 84.8660
v  96.9951 73.1646 84.5997
v  96.8871 72.7033 83.9684
v  90.4771 76.7146 83.1000
v  90.3683 76.2490 82.4719
v  83.9591 80.2645 81.6003
v  77.1845 83.8101 80.0981
v  83.8494 79.7947 80.9754
v  77.0743 83.3353 79.4771
v  70.4100 87.3556 78.5958
v  63.9354 90.5614 77.2310
v  70.2991 86.8759 77.9788
v  63.8284 90.0818 76.6133
v  57.4609 93.7671 75.8662
v  51.8610 96.1873 74.8885
v  57.3578 93.2877 75.2477
v  51.7634 95.7078 74.2690
v  42.9630 99.1856 72.9123
v  46.1690 98.1280 73.2904
v  43.0465 99.6638 73.5345
v  46.2610 98.6074 73.9107
# 26 vertices

vn -0.6410 -0.5886 0.4925
vn -0.6407 -0.5894 0.4920
vn -0.6929 -0.5628 0.4506
vn -0.6927 -0.5659 0.4472
vn -0.5480 -0.6344 0.5452
vn -0.5475 -0.6335 0.5468
vn -0.5030 -0.6549 0.5640
vn -0.5028 -0.6546 0.5645
vn -0.4896 -0.6579 0.5722
vn -0.4895 -0.6577 0.5725
vn -0.4817 -0.6579 0.5789
vn -0.4736 -0.6572 0.5863
vn -0.4816 -0.6577 0.5793
vn -0.4735 -0.6570 0.5867
vn -0.4630 -0.6577 0.5943
vn -0.4541 -0.6639 0.5942
vn -0.4629 -0.6576 0.5944
vn -0.4542 -0.6640 0.5940
vn -0.4290 -0.6778 0.5970
vn -0.4039 -0.6916 0.5988
vn -0.4291 -0.6780 0.5968
vn -0.3129 -0.7323 0.6048
vn -0.3581 -0.7126 0.6034
vn -0.3126 -0.7318 0.6055
vn -0.3579 -0.7124 0.6036
# 25 vertex normals

vt 0.6944 0.2533 0.0000
vt 0.6942 0.2525 0.0000
vt 0.6989 0.2493 0.0000
vt 0.6987 0.2485 0.0000
vt 0.6865 0.2586 0.0000
vt 0.6863 0.2578 0.0000
vt 0.6802 0.2630 0.0000
vt 0.6796 0.2617 0.0000
vt 0.6681 0.2695 0.0000
vt 0.6675 0.2682 0.0000
vt 0.6559 0.2755 0.0000
vt 0.6435 0.2827 0.0000
vt 0.6554 0.2748 0.0000
vt 0.6428 0.2814 0.0000
vt 0.6309 0.2892 0.0000
vt 0.6189 0.2952 0.0000
vt 0.6303 0.2879 0.0000
vt 0.6183 0.2939 0.0000
vt 0.6068 0.3012 0.0000
vt 0.5964 0.3057 0.0000
vt 0.6063 0.2998 0.0000
vt 0.5959 0.3043 0.0000
vt 0.5796 0.3108 0.0000
vt 0.5855 0.3088 0.0000
vt 0.5800 0.3121 0.0000
vt 0.5859 0.3103 0.0000
# 26 texture coords

g P740_181C_R_DaS_P740_181C_R_E
usemtl paint_whiteSG
s 1
f 115/115/115 116/116/116 117/117/117 
f 117/117/117 116/116/116 118/118/118 
f 115/115/115 119/119/119 116/116/116 
f 116/116/116 119/119/119 120/120/120 
f 119/119/119 121/121/121 120/120/120 
f 120/120/120 121/121/121 122/122/122 
f 121/121/121 123/123/123 122/122/122 
f 122/122/122 123/123/123 124/124/124 
f 125/125/125 126/126/126 127/127/127 
f 127/127/127 126/126/126 128/128/128 
f 129/129/129 130/130/130 131/131/131 
f 131/131/131 130/130/130 132/132/132 
f 133/133/133 134/134/134 135/135/135 
f 135/135/135 134/134/134 136/136/134 
f 137/137/136 138/138/137 139/139/138 
f 139/139/138 138/138/137 140/140/139 
f 140/140/139 138/138/137 134/134/134 
f 134/134/134 138/138/137 136/136/134 
f 130/130/130 133/133/133 132/132/132 
f 132/132/132 133/133/133 135/135/135 
f 126/126/126 129/129/129 128/128/128 
f 128/128/128 129/129/129 131/131/131 
f 123/123/123 125/125/125 124/124/124 
f 124/124/124 125/125/125 127/127/127 
# 24 faces

