# 3ds Max Wavefront OBJ Exporter v0.97b - (c)2007 guruware
# File Created: 04.12.2015 17:51:30

mtllib P740_40SG_R.mtl

#
# object P740_40SG_R_1_DTaSI_P740_40SG_R
#

v  -149.7036 82.8127 83.0957
v  -138.0161 82.6837 83.3923
v  -146.1386 89.9559 79.8927
v  -134.7074 89.4468 80.3329
v  -152.9097 76.1806 85.8801
v  -141.3019 75.9897 86.1823
v  -159.9841 82.9369 82.5930
v  -155.6997 89.8361 79.5167
v  -163.9942 76.4036 85.3521
v  -168.8631 82.9609 82.0779
v  -173.6242 76.8157 84.6525
v  -180.4469 77.6984 83.7625
v  -174.7517 83.3089 81.4906
v  -189.6820 67.6113 87.5159
v  -180.6955 66.9979 88.4049
v  -185.5867 72.0669 85.8899
v  -177.5810 71.1290 86.8790
v  -169.8395 66.4580 89.1236
v  -158.2517 65.9758 89.6488
v  -167.3229 70.5727 87.6243
v  -155.9908 70.2377 88.1385
v  -144.3283 69.8990 88.4536
v  -146.5209 65.4860 89.9794
v  -152.8570 95.4319 76.8915
v  -131.1943 96.2242 77.0451
v  -143.1002 95.9050 77.0468
v  -121.9210 100.5832 74.7659
v  -120.6850 99.5471 75.3128
v  -121.1500 100.2656 74.9342
v  -121.9767 99.7788 75.1888
v  -129.7632 99.4723 75.3370
v  -129.4240 100.2422 74.9322
v  -140.3328 99.1161 75.3992
v  -141.7621 98.0684 75.9253
v  -144.0915 98.5691 75.5792
v  -146.4182 97.3195 76.1881
v  -148.3824 97.7393 75.9041
v  -151.6297 96.8040 76.2246
v  -154.6214 95.7554 76.6219
v  -160.6085 93.5810 77.3565
v  -160.9042 92.1251 78.0615
v  -167.3853 89.9204 78.6492
v  -167.5687 88.2575 79.4762
v  -169.7024 88.2682 79.3193
v  -173.8147 85.5941 80.3821
v  -176.8859 83.4126 81.2524
v  -179.5260 81.2328 82.0957
v  -182.5255 78.5070 83.1340
v  -187.0231 74.3481 84.6427
v  -188.8769 72.6534 85.2600
v  -189.9366 71.2262 85.8255
v  -190.5622 68.6754 86.9400
v  -190.4346 70.0787 86.3043
v  -137.3654 69.6669 88.5330
v  -139.5352 66.3792 89.6592
v  -141.2574 65.6138 89.9235
v  -140.2368 65.9327 89.8130
v  -133.8072 75.8244 86.2553
v  -129.8939 82.5958 83.4423
v  -125.9377 89.4408 80.3448
v  -124.1438 92.5444 78.8489
v  -122.2510 95.8191 77.2704
v  -165.7156 86.8491 80.3855
v  -163.5608 89.2083 79.3077
v  -120.6809 98.6873 75.7651
# 65 vertices

vn -0.0283 0.4098 0.9117
vn -0.0111 0.4034 0.9150
vn -0.0265 0.4299 0.9025
vn -0.0088 0.4274 0.9040
vn -0.0266 0.3831 0.9233
vn -0.0115 0.3741 0.9273
vn -0.0438 0.4188 0.9070
vn -0.0478 0.4363 0.8985
vn -0.0413 0.3963 0.9172
vn -0.0554 0.4286 0.9018
vn -0.0546 0.4077 0.9115
vn -0.0713 0.4173 0.9060
vn -0.0653 0.4367 0.8972
vn -0.0699 0.3980 0.9147
vn -0.0575 0.3852 0.9211
vn -0.0719 0.4035 0.9122
vn -0.0545 0.3892 0.9195
vn -0.0392 0.3648 0.9303
vn -0.0240 0.3467 0.9377
vn -0.0386 0.3737 0.9267
vn -0.0241 0.3578 0.9335
vn -0.0113 0.3473 0.9377
vn -0.0116 0.3333 0.9428
vn -0.0430 0.4456 0.8942
vn -0.0070 0.4496 0.8932
vn -0.0203 0.4461 0.8948
vn -0.0015 0.4654 0.8851
vn -0.0015 0.4655 0.8850
vn -0.0014 0.4656 0.8850
vn -0.0059 0.4673 0.8841
vn -0.0054 0.4673 0.8841
vn -0.0113 0.4613 0.8872
vn -0.0151 0.4682 0.8835
vn -0.0273 0.4784 0.8777
vn -0.0332 0.4602 0.8872
vn -0.0335 0.4511 0.8919
vn -0.0489 0.4716 0.8804
vn -0.0536 0.4492 0.8918
vn -0.0575 0.4446 0.8939
vn -0.0536 0.4349 0.8989
vn -0.0714 0.4502 0.8901
vn -0.0703 0.4543 0.8881
vn -0.0632 0.4509 0.8903
vn -0.0672 0.4574 0.8867
vn -0.0779 0.4457 0.8918
vn -0.0810 0.4423 0.8932
vn -0.1000 0.4376 0.8936
vn -0.0980 0.4298 0.8976
vn -0.0956 0.4288 0.8984
vn -0.0947 0.4208 0.9022
vn -0.0923 0.4155 0.9049
vn -0.0942 0.4179 0.9036
vn -0.0003 0.3432 0.9393
vn 0.0001 0.3242 0.9460
vn 0.0017 0.3256 0.9455
vn 0.0007 0.3249 0.9458
vn -0.0012 0.3729 0.9279
vn -0.0012 0.4032 0.9151
vn -0.0009 0.4229 0.9062
vn -0.0021 0.4361 0.8999
vn -0.0020 0.4535 0.8912
vn -0.0563 0.4442 0.8942
vn -0.0570 0.4421 0.8952
vn -0.0016 0.4654 0.8851
# 64 vertex normals

vt 0.1826 0.0966 0.0000
vt 0.2188 0.0978 0.0000
vt 0.1923 0.1204 0.0000
vt 0.2277 0.1204 0.0000
vt 0.1740 0.0746 0.0000
vt 0.2099 0.0756 0.0000
vt 0.1508 0.0957 0.0000
vt 0.1627 0.1188 0.0000
vt 0.1397 0.0739 0.0000
vt 0.1233 0.0947 0.0000
vt 0.1098 0.0741 0.0000
vt 0.0885 0.0762 0.0000
vt 0.1050 0.0952 0.0000
vt 0.0618 0.0423 0.0000
vt 0.0897 0.0413 0.0000
vt 0.0736 0.0572 0.0000
vt 0.0986 0.0551 0.0000
vt 0.1234 0.0409 0.0000
vt 0.1593 0.0409 0.0000
vt 0.1304 0.0545 0.0000
vt 0.1655 0.0550 0.0000
vt 0.2016 0.0555 0.0000
vt 0.1956 0.0410 0.0000
vt 0.1704 0.1376 0.0000
vt 0.2372 0.1431 0.0000
vt 0.2005 0.1404 0.0000
vt 0.2649 0.1588 0.0000
vt 0.2690 0.1556 0.0000
vt 0.2674 0.1579 0.0000
vt 0.2649 0.1562 0.0000
vt 0.2410 0.1540 0.0000
vt 0.2419 0.1566 0.0000
vt 0.2084 0.1514 0.0000
vt 0.2042 0.1477 0.0000
vt 0.1969 0.1490 0.0000
vt 0.1900 0.1446 0.0000
vt 0.1838 0.1457 0.0000
vt 0.1739 0.1422 0.0000
vt 0.1649 0.1384 0.0000
vt 0.1468 0.1306 0.0000
vt 0.1462 0.1257 0.0000
vt 0.1265 0.1178 0.0000
vt 0.1263 0.1123 0.0000
vt 0.1197 0.1121 0.0000
vt 0.1075 0.1028 0.0000
vt 0.0984 0.0953 0.0000
vt 0.0906 0.0879 0.0000
vt 0.0819 0.0786 0.0000
vt 0.0687 0.0646 0.0000
vt 0.0633 0.0588 0.0000
vt 0.0603 0.0540 0.0000
vt 0.0589 0.0456 0.0000
vt 0.0590 0.0502 0.0000
vt 0.2231 0.0558 0.0000
vt 0.2170 0.0449 0.0000
vt 0.2118 0.0422 0.0000
vt 0.2149 0.0434 0.0000
vt 0.2330 0.0762 0.0000
vt 0.2438 0.0987 0.0000
vt 0.2547 0.1216 0.0000
vt 0.2597 0.1321 0.0000
vt 0.2649 0.1431 0.0000
vt 0.1323 0.1078 0.0000
vt 0.1385 0.1159 0.0000
vt 0.2691 0.1528 0.0000
# 65 texture coords

g P740_40SG_R_1_DTaSI_P740_40SG_R
usemtl windowglass_1SG
s 1
f 1/1/1 2/2/2 3/3/3 
f 2/2/2 4/4/4 3/3/3 
f 5/5/5 6/6/6 1/1/1 
f 6/6/6 2/2/2 1/1/1 
f 7/7/7 1/1/1 8/8/8 
f 1/1/1 3/3/3 8/8/8 
f 9/9/9 5/5/5 7/7/7 
f 7/7/7 5/5/5 1/1/1 
f 7/7/7 10/10/10 9/9/9 
f 9/9/9 10/10/10 11/11/11 
f 12/12/12 11/11/11 13/13/13 
f 11/11/11 10/10/10 13/13/13 
f 14/14/14 15/15/15 16/16/16 
f 15/15/15 17/17/17 16/16/16 
f 16/16/16 17/17/17 12/12/12 
f 12/12/12 17/17/17 11/11/11 
f 18/18/18 19/19/19 20/20/20 
f 19/19/19 21/21/21 20/20/20 
f 15/15/15 18/18/18 17/17/17 
f 18/18/18 20/20/20 17/17/17 
f 9/9/9 11/11/11 20/20/20 
f 11/11/11 17/17/17 20/20/20 
f 5/5/5 9/9/9 21/21/21 
f 9/9/9 20/20/20 21/21/21 
f 6/6/6 5/5/5 22/22/22 
f 5/5/5 21/21/21 22/22/22 
f 19/19/19 23/23/23 21/21/21 
f 23/23/23 22/22/22 21/21/21 
f 8/8/8 3/3/3 24/24/24 
f 25/25/25 26/26/26 4/4/4 
f 26/26/26 3/3/3 4/4/4 
f 27/27/27 28/28/28 29/29/29 
f 30/30/27 28/28/28 27/27/27 
f 31/31/30 30/30/27 32/32/31 
f 32/32/31 30/30/27 27/27/27 
f 32/32/31 33/33/32 31/31/30 
f 33/33/32 34/34/33 31/31/30 
f 33/33/32 35/35/34 34/34/33 
f 34/34/33 35/35/34 36/36/35 
f 36/36/35 35/35/34 37/37/36 
f 38/38/37 39/39/38 24/24/24 
f 40/40/39 41/41/40 39/39/38 
f 39/39/38 41/41/40 24/24/24 
f 40/40/39 42/42/41 41/41/40 
f 41/41/40 42/42/41 43/43/42 
f 43/43/42 42/42/41 44/44/43 
f 44/44/43 45/45/44 43/43/42 
f 43/43/42 45/45/44 13/13/13 
f 45/45/44 46/46/45 13/13/13 
f 46/46/45 47/47/46 13/13/13 
f 47/47/46 12/12/12 13/13/13 
f 48/48/47 12/12/12 47/47/46 
f 16/16/16 12/12/12 49/49/48 
f 12/12/12 48/48/47 49/49/48 
f 50/50/49 16/16/16 49/49/48 
f 51/51/50 16/16/16 50/50/49 
f 14/14/14 16/16/16 52/52/51 
f 52/52/51 16/16/16 53/53/52 
f 53/53/52 16/16/16 51/51/50 
f 54/54/53 22/22/22 55/55/54 
f 23/23/23 56/56/55 22/22/22 
f 55/55/54 22/22/22 57/57/56 
f 57/57/56 22/22/22 56/56/55 
f 58/58/57 6/6/6 54/54/53 
f 6/6/6 22/22/22 54/54/53 
f 59/59/58 2/2/2 58/58/57 
f 2/2/2 6/6/6 58/58/57 
f 60/60/59 4/4/4 59/59/58 
f 4/4/4 2/2/2 59/59/58 
f 61/61/60 4/4/4 60/60/59 
f 62/62/61 25/25/25 61/61/60 
f 25/25/25 4/4/4 61/61/60 
f 10/10/10 7/7/7 63/63/62 
f 8/8/8 64/64/63 7/7/7 
f 7/7/7 64/64/63 63/63/62 
f 43/43/42 13/13/13 10/10/10 
f 10/10/10 63/63/62 43/43/42 
f 64/64/63 43/43/42 63/63/62 
f 41/41/40 43/43/42 64/64/63 
f 26/26/26 34/34/33 36/36/35 
f 31/31/30 34/34/33 25/25/25 
f 25/25/25 34/34/33 26/26/26 
f 25/25/25 62/62/61 31/31/30 
f 30/30/27 31/31/30 62/62/61 
f 62/62/61 65/65/64 30/30/27 
f 65/65/64 28/28/28 30/30/27 
f 24/24/24 3/3/3 26/26/26 
f 8/8/8 24/24/24 64/64/63 
f 36/36/35 24/24/24 26/26/26 
f 38/38/37 24/24/24 37/37/36 
f 37/37/36 24/24/24 36/36/35 
f 64/64/63 24/24/24 41/41/40 
# 92 faces

#
# object P740_40SG_R_P740_40SG_R_2_DTaSI
#

v  -146.5209 65.4860 89.9794
v  -158.2517 65.9758 89.6488
v  -147.5049 63.3582 90.7846
v  -159.2803 63.9264 90.4375
v  -129.2794 100.5702 74.7597
v  -140.0556 99.8593 75.0057
v  -129.4240 100.2422 74.9322
v  -140.3328 99.1161 75.3992
v  -151.6297 96.8040 76.2246
v  -152.3183 97.6472 75.7268
v  -154.6214 95.7554 76.6219
v  -155.7381 96.6490 76.0765
v  -148.7112 98.7001 75.3579
v  -144.0915 98.5691 75.5792
v  -148.3824 97.7393 75.9041
v  -160.6085 93.5810 77.3565
v  -161.9187 94.0588 77.0075
v  -167.3854 89.9204 78.6492
v  -169.5845 90.6841 78.1244
v  -158.9180 95.4722 76.4878
v  -180.6955 66.9979 88.4049
v  -189.6820 67.6113 87.5159
v  -182.0813 65.0168 89.2012
v  -191.4829 65.4717 88.3689
v  -169.8396 66.4580 89.1236
v  -170.9760 64.4859 89.9030
v  -169.7024 88.2682 79.3193
v  -173.8474 87.9694 79.1815
v  -173.8147 85.5941 80.3821
v  -137.4884 62.9048 90.9200
v  -136.8934 65.0851 90.0935
v  -137.2188 64.0908 90.4628
v  -141.2574 65.6138 89.9235
v  -140.2368 65.9327 89.8130
v  -139.5352 66.3792 89.6592
v  -134.5683 69.5736 88.5649
v  -137.3655 69.6669 88.5330
v  -131.0651 75.7639 86.2820
v  -133.8072 75.8244 86.2553
v  -127.1798 82.5664 83.4591
v  -129.8939 82.5958 83.4423
v  -123.3323 89.4390 80.3484
v  -125.9377 89.4408 80.3448
v  -121.5531 92.5648 78.8412
v  -124.1438 92.5444 78.8489
v  -122.2510 95.8191 77.2704
v  -119.6764 95.8619 77.2514
v  -120.6809 98.6873 75.7651
v  -116.4740 100.9869 74.5635
v  -120.6851 99.5471 75.3128
v  -121.9725 100.8079 74.6478
v  -121.9210 100.5832 74.7659
v  -121.1500 100.2656 74.9342
v  -114.9929 102.9258 73.2632
v  -115.8918 102.9096 73.0602
v  -128.8195 102.3111 73.3880
v  -122.3421 102.6238 73.1944
v  -139.9956 100.9405 74.0379
v  -144.4630 100.3335 74.2369
v  -148.9682 99.4231 74.5840
v  -156.1714 97.5356 75.4368
v  -152.5524 98.4128 74.9687
v  -162.6499 94.9289 76.5097
v  -159.5746 96.3070 75.9948
v  -177.6563 85.3430 80.2027
v  -176.8860 83.4126 81.2524
v  -181.1265 82.6990 81.2069
v  -179.5260 81.2328 82.0957
v  -184.7363 79.8689 82.2437
v  -182.5255 78.5070 83.1340
v  -188.5007 76.5147 83.5361
v  -187.0231 74.3481 84.6427
v  -191.9859 73.3865 84.5275
v  -188.8769 72.6534 85.2600
v  -195.1718 70.2497 85.6901
v  -189.9366 71.2262 85.8255
v  -194.3011 71.3231 85.2657
v  -190.5622 68.6754 86.9400
v  -195.3954 67.8338 86.8515
v  -190.4347 70.0787 86.3043
v  -195.4457 69.4296 86.0441
v  -195.2139 66.6994 87.4176
v  -194.8509 65.8437 87.8652
v  -194.3415 65.3817 88.1427
v  -191.5698 64.9620 88.8076
v  -182.1545 64.5300 89.6198
v  -192.5384 65.0489 88.5165
v  -171.0612 63.9979 90.3188
v  -159.3771 63.4240 91.0867
v  -147.5960 62.8124 91.3273
v  -137.5229 62.1578 91.3502
v  -137.2228 63.7676 89.6060
v  -136.8949 64.7785 89.2307
v  -137.4976 62.4790 90.1168
v  -134.5676 69.2672 87.7020
v  -131.0637 75.4293 85.4297
v  -127.1786 82.2015 82.6193
v  -123.3315 89.0510 79.5190
v  -121.5525 92.1668 78.0164
v  -116.4741 100.5325 73.7691
v  -119.6755 95.4499 76.4337
v  -115.1152 102.3259 72.6526
v  -137.5364 62.0578 90.3946
# 103 vertices

vn -0.0031 0.3552 0.9348
vn -0.0163 0.3659 0.9305
vn 0.0022 0.4486 0.8937
vn -0.0097 0.4957 0.8684
vn -0.0211 0.6048 0.7961
vn -0.0295 0.5917 0.8056
vn -0.0083 0.4684 0.8835
vn -0.0207 0.4740 0.8803
vn -0.0502 0.4774 0.8772
vn -0.0860 0.5838 0.8073
vn -0.0548 0.4697 0.8811
vn -0.0625 0.5080 0.8591
vn -0.0739 0.6100 0.7889
vn -0.0282 0.4830 0.8752
vn -0.0382 0.4840 0.8742
vn -0.0677 0.4572 0.8868
vn -0.0683 0.4519 0.8894
vn -0.0619 0.4394 0.8962
vn -0.0615 0.4424 0.8947
vn -0.0550 0.4716 0.8801
vn -0.0463 0.3996 0.9155
vn -0.0685 0.4169 0.9064
vn -0.0470 0.4662 0.8834
vn -0.0692 0.4699 0.8800
vn -0.0304 0.3818 0.9237
vn -0.0309 0.4522 0.8914
vn -0.0613 0.4459 0.8930
vn -0.0646 0.4486 0.8914
vn -0.0680 0.4502 0.8904
vn 0.0070 0.4097 0.9122
vn 0.0023 0.3324 0.9431
vn 0.0043 0.3531 0.9356
vn 0.0022 0.3225 0.9466
vn 0.0021 0.3217 0.9468
vn 0.0024 0.3226 0.9465
vn 0.0003 0.3395 0.9406
vn 0.0008 0.3329 0.9430
vn -0.0009 0.3717 0.9283
vn -0.0008 0.3607 0.9327
vn -0.0013 0.4029 0.9153
vn -0.0013 0.3942 0.9190
vn -0.0009 0.4229 0.9062
vn -0.0010 0.4171 0.9089
vn -0.0007 0.4346 0.9006
vn -0.0008 0.4346 0.9006
vn -0.0008 0.4444 0.8958
vn -0.0011 0.4561 0.8899
vn -0.0014 0.4652 0.8852
vn -0.0116 0.5813 0.8136
vn -0.0017 0.4655 0.8851
vn -0.0070 0.6074 0.7944
vn -0.0015 0.4650 0.8853
vn -0.0016 0.4653 0.8852
vn -0.1803 0.6392 0.7476
vn -0.0384 0.6227 0.7815
vn -0.0196 0.6223 0.7825
vn -0.0078 0.6231 0.7821
vn -0.0349 0.6621 0.7486
vn -0.0596 0.6659 0.7436
vn -0.1083 0.7061 0.6998
vn -0.0584 0.5564 0.8289
vn -0.1095 0.6697 0.7345
vn -0.0660 0.4532 0.8890
vn -0.0508 0.4761 0.8779
vn -0.0769 0.4513 0.8891
vn -0.0799 0.4510 0.8890
vn -0.0881 0.4439 0.8917
vn -0.0885 0.4439 0.8917
vn -0.0889 0.4323 0.8973
vn -0.0932 0.4349 0.8957
vn -0.0772 0.4176 0.9054
vn -0.0750 0.4193 0.9048
vn -0.1096 0.4271 0.8975
vn -0.1068 0.4189 0.9017
vn -0.1025 0.4271 0.8984
vn -0.1051 0.4319 0.8958
vn -0.1048 0.4377 0.8930
vn -0.0945 0.4205 0.9024
vn -0.0907 0.4388 0.8940
vn -0.1014 0.4194 0.9021
vn -0.0970 0.4369 0.8942
vn -0.0860 0.4336 0.8970
vn -0.0861 0.4341 0.8967
vn -0.0845 0.4482 0.8899
vn -0.0466 0.6561 0.7532
vn -0.0252 0.6540 0.7561
vn -0.0931 0.5273 0.8446
vn -0.0174 0.6502 0.7595
vn 0.0184 0.7876 0.6159
vn 0.0270 0.7049 0.7088
vn 0.0124 0.5084 0.8610
vn 0.9689 -0.2328 0.0834
vn 0.9699 -0.2281 0.0854
vn 0.9097 -0.3917 0.1381
vn 0.9098 -0.3916 0.1376
vn 0.9886 -0.1411 0.0518
vn 0.9865 -0.1493 0.0679
vn 0.8889 -0.4312 0.1546
vn 0.8889 -0.4316 0.1538
vn 0.8838 -0.4349 0.1722
vn 0.8838 -0.4350 0.1723
vn 0.8873 -0.4228 0.1843
vn 0.8872 -0.4225 0.1852
vn 0.8901 -0.4127 0.1933
vn 0.8901 -0.4124 0.1941
vn 0.8893 -0.4116 0.1995
vn 0.8892 -0.4119 0.1994
vn 0.8661 -0.4340 0.2480
vn 0.8799 -0.4234 0.2158
vn 0.8660 -0.4345 0.2475
vn 0.8797 -0.4244 0.2143
vn 0.8418 -0.4620 0.2791
vn 0.8410 -0.4605 0.2840
vn 0.9987 -0.0511 -0.0088
vn 0.9981 -0.0607 0.0068
# 115 vertex normals

vt 0.1974 0.0378 0.0000
vt 0.1591 0.0377 0.0000
vt 0.1946 0.0304 0.0000
vt 0.1562 0.0306 0.0000
vt 0.2466 0.1609 0.0000
vt 0.2117 0.1568 0.0000
vt 0.2462 0.1597 0.0000
vt 0.2109 0.1542 0.0000
vt 0.1746 0.1446 0.0000
vt 0.1722 0.1474 0.0000
vt 0.1650 0.1406 0.0000
vt 0.1612 0.1435 0.0000
vt 0.1837 0.1516 0.0000
vt 0.1988 0.1518 0.0000
vt 0.1850 0.1483 0.0000
vt 0.1460 0.1323 0.0000
vt 0.1416 0.1338 0.0000
vt 0.1246 0.1188 0.0000
vt 0.1172 0.1212 0.0000
vt 0.1511 0.1390 0.0000
vt 0.0858 0.0381 0.0000
vt 0.0563 0.0391 0.0000
vt 0.0817 0.0311 0.0000
vt 0.0509 0.0316 0.0000
vt 0.1213 0.0377 0.0000
vt 0.1180 0.0308 0.0000
vt 0.1174 0.1128 0.0000
vt 0.1039 0.1112 0.0000
vt 0.1045 0.1030 0.0000
vt 0.2273 0.0304 0.0000
vt 0.2288 0.0380 0.0000
vt 0.2280 0.0345 0.0000
vt 0.2145 0.0391 0.0000
vt 0.2178 0.0403 0.0000
vt 0.2200 0.0419 0.0000
vt 0.2356 0.0535 0.0000
vt 0.2265 0.0534 0.0000
vt 0.2458 0.0751 0.0000
vt 0.2369 0.0749 0.0000
vt 0.2571 0.0990 0.0000
vt 0.2483 0.0987 0.0000
vt 0.2683 0.1233 0.0000
vt 0.2598 0.1229 0.0000
vt 0.2734 0.1343 0.0000
vt 0.2650 0.1339 0.0000
vt 0.2705 0.1455 0.0000
vt 0.2789 0.1460 0.0000
vt 0.2750 0.1557 0.0000
vt 0.2882 0.1643 0.0000
vt 0.2748 0.1587 0.0000
vt 0.2703 0.1629 0.0000
vt 0.2705 0.1621 0.0000
vt 0.2731 0.1611 0.0000
vt 0.2926 0.1714 0.0000
vt 0.2896 0.1714 0.0000
vt 0.2477 0.1673 0.0000
vt 0.2687 0.1694 0.0000
vt 0.2116 0.1608 0.0000
vt 0.1971 0.1580 0.0000
vt 0.1826 0.1542 0.0000
vt 0.1596 0.1466 0.0000
vt 0.1712 0.1502 0.0000
vt 0.1390 0.1367 0.0000
vt 0.1488 0.1419 0.0000
vt 0.0920 0.1017 0.0000
vt 0.0949 0.0951 0.0000
vt 0.0812 0.0921 0.0000
vt 0.0867 0.0872 0.0000
vt 0.0700 0.0820 0.0000
vt 0.0775 0.0775 0.0000
vt 0.0584 0.0699 0.0000
vt 0.0636 0.0627 0.0000
vt 0.0476 0.0588 0.0000
vt 0.0579 0.0566 0.0000
vt 0.0378 0.0477 0.0000
vt 0.0548 0.0516 0.0000
vt 0.0405 0.0515 0.0000
vt 0.0532 0.0427 0.0000
vt 0.0376 0.0393 0.0000
vt 0.0534 0.0476 0.0000
vt 0.0371 0.0448 0.0000
vt 0.0384 0.0354 0.0000
vt 0.0398 0.0325 0.0000
vt 0.0415 0.0309 0.0000
vt 0.0507 0.0297 0.0000
vt 0.0815 0.0294 0.0000
vt 0.0475 0.0300 0.0000
vt 0.1178 0.0290 0.0000
vt 0.1560 0.0286 0.0000
vt 0.1945 0.0284 0.0000
vt 0.2274 0.0278 0.0000
vt 0.2279 0.0339 0.0000
vt 0.2288 0.0374 0.0000
vt 0.2272 0.0295 0.0000
vt 0.2355 0.0530 0.0000
vt 0.2457 0.0745 0.0000
vt 0.2571 0.0982 0.0000
vt 0.2682 0.1224 0.0000
vt 0.2734 0.1335 0.0000
vt 0.2881 0.1633 0.0000
vt 0.2788 0.1451 0.0000
vt 0.2922 0.1698 0.0000
vt 0.2272 0.0280 0.0000
# 103 texture coords

g P740_40SG_R_P740_40SG_R_2_DTaSI
usemtl windowglass_blackSG
s 1
f 66/66/65 67/67/66 68/68/67 
f 67/67/66 69/69/68 68/68/67 
f 70/70/69 71/71/70 72/72/71 
f 71/71/70 73/73/72 72/72/71 
f 74/74/73 75/75/74 76/76/75 
f 75/75/74 77/77/76 76/76/75 
f 71/71/70 78/78/77 73/73/72 
f 73/73/72 78/78/77 79/79/78 
f 80/80/79 79/79/78 78/78/77 
f 81/81/80 82/82/81 83/83/82 
f 82/82/81 84/84/83 83/83/82 
f 85/85/84 81/81/80 77/77/76 
f 81/81/80 76/76/75 77/77/76 
f 82/82/81 81/81/80 85/85/84 
f 86/86/85 87/87/86 88/88/87 
f 87/87/86 89/89/88 88/88/87 
f 90/90/89 86/86/85 91/91/90 
f 86/86/85 88/88/87 91/91/90 
f 67/67/66 90/90/89 69/69/68 
f 90/90/89 91/91/90 69/69/68 
f 83/83/82 84/84/83 92/92/91 
f 84/84/83 93/93/92 92/92/91 
f 93/93/92 94/94/93 92/92/91 
f 68/68/67 95/95/94 66/66/65 
f 96/96/95 66/66/65 97/97/96 
f 97/97/96 66/66/65 95/95/94 
f 66/66/65 96/96/95 98/98/97 
f 98/98/97 96/96/95 99/99/98 
f 99/99/98 96/96/95 100/100/99 
f 101/101/100 102/102/101 96/96/95 
f 96/96/95 102/102/101 100/100/99 
f 103/103/102 104/104/103 101/101/100 
f 104/104/103 102/102/101 101/101/100 
f 105/105/104 106/106/105 103/103/102 
f 106/106/105 104/104/103 103/103/102 
f 107/107/106 108/108/107 105/105/104 
f 108/108/107 106/106/105 105/105/104 
f 109/109/108 110/110/109 107/107/106 
f 110/110/109 108/108/107 107/107/106 
f 111/111/110 112/112/111 113/113/112 
f 112/112/111 114/114/113 113/113/112 
f 113/113/112 114/114/113 115/115/114 
f 116/116/115 72/72/71 117/117/116 
f 117/117/116 118/118/117 114/114/113 
f 114/114/113 118/118/117 115/115/114 
f 114/114/113 119/119/118 120/120/119 
f 70/70/69 116/116/115 121/121/120 
f 116/116/115 122/122/121 121/121/120 
f 71/71/70 70/70/69 123/123/122 
f 70/70/69 121/121/120 123/123/122 
f 123/123/122 124/124/123 71/71/70 
f 125/125/124 78/78/77 124/124/123 
f 124/124/123 78/78/77 71/71/70 
f 126/126/125 77/77/76 127/127/126 
f 77/77/76 75/75/74 127/127/126 
f 128/128/127 82/82/81 129/129/128 
f 82/82/81 85/85/84 129/129/128 
f 129/129/128 85/85/84 126/126/125 
f 126/126/125 85/85/84 77/77/76 
f 84/84/83 82/82/81 128/128/127 
f 93/93/92 130/130/129 94/94/93 
f 130/130/129 131/131/130 94/94/93 
f 130/130/129 132/132/131 131/131/130 
f 132/132/131 133/133/132 131/131/130 
f 134/134/133 135/135/134 132/132/131 
f 135/135/134 133/133/132 132/132/131 
f 136/136/135 137/137/136 134/134/133 
f 137/137/136 135/135/134 134/134/133 
f 138/138/137 139/139/138 136/136/135 
f 139/139/138 137/137/136 136/136/135 
f 140/140/139 141/141/140 142/142/141 
f 142/142/141 141/141/140 138/138/137 
f 138/138/137 141/141/140 139/139/138 
f 87/87/86 143/143/142 144/144/143 
f 141/141/140 140/140/139 145/145/144 
f 144/144/143 143/143/142 146/146/145 
f 143/143/142 145/145/144 146/146/145 
f 146/146/145 145/145/144 140/140/139 
f 87/87/86 144/144/143 89/89/88 
f 144/144/143 147/147/146 89/89/88 
f 147/147/146 148/148/147 89/89/88 
f 149/149/148 89/89/88 148/148/147 
f 150/150/149 151/151/150 89/89/88 
f 151/151/150 88/88/87 89/89/88 
f 150/150/149 89/89/88 152/152/151 
f 89/89/88 149/149/148 152/152/151 
f 151/151/150 153/153/152 88/88/87 
f 153/153/152 91/91/90 88/88/87 
f 153/153/152 154/154/153 91/91/90 
f 154/154/153 69/69/68 91/91/90 
f 154/154/153 155/155/154 69/69/68 
f 155/155/154 68/68/67 69/69/68 
f 95/95/94 68/68/67 156/156/155 
f 68/68/67 155/155/154 156/156/155 
f 127/127/126 75/75/74 125/125/124 
f 75/75/74 78/78/77 125/125/124 
f 80/80/79 78/78/77 74/74/73 
f 78/78/77 75/75/74 74/74/73 
f 112/112/111 111/111/110 109/109/108 
f 111/111/110 110/110/109 109/109/108 
s 20
f 97/97/156 157/157/157 96/96/158 
f 157/157/157 158/158/159 96/96/158 
f 97/97/156 95/95/160 157/157/157 
f 95/95/160 159/159/161 157/157/157 
f 101/101/162 96/96/158 160/160/163 
f 96/96/158 158/158/159 160/160/163 
f 103/103/164 101/101/162 161/161/165 
f 101/101/162 160/160/163 161/161/165 
f 103/103/164 161/161/165 105/105/166 
f 161/161/165 162/162/167 105/105/166 
f 105/105/166 162/162/167 107/107/168 
f 162/162/167 163/163/169 107/107/168 
f 107/107/168 163/163/169 109/109/170 
f 163/163/169 164/164/171 109/109/170 
f 114/114/172 112/112/173 165/165/174 
f 112/112/173 166/166/175 165/165/174 
f 114/114/172 165/165/174 119/119/176 
f 165/165/174 167/167/177 119/119/176 
f 156/156/178 168/168/179 95/95/160 
f 168/168/179 159/159/161 95/95/160 
f 112/112/173 109/109/170 166/166/175 
f 109/109/170 164/164/171 166/166/175 
s 1
f 116/116/115 117/117/116 114/114/113 
f 120/120/119 122/122/121 114/114/113 
f 114/114/113 122/122/121 116/116/115 
f 70/70/69 72/72/71 116/116/115 
# 126 faces

