# 3ds Max Wavefront OBJ Exporter v0.97b - (c)2007 guruware
# File Created: 23.11.2015 10:31:46

mtllib H128_FLOR_C.mtl

#
# object H128_FLOR_C_N_H128_FLOR_C
#

v  117.5040 -48.2061 -99.0702
v  117.5040 -48.2061 -64.1248
v  114.1521 -48.3890 -98.9096
v  117.5040 -48.2061 0.0000
v  99.0992 -48.4851 -98.7428
v  87.9786 -48.5399 -98.6967
v  106.8894 -48.4355 -98.8208
v  72.7560 -48.5925 -98.7154
v  54.9018 -48.6485 -98.7607
v  36.2069 -48.7115 -98.7855
v  17.5032 -48.7635 -98.7769
v  -0.5414 -48.7904 -98.7299
v  -105.3533 -48.8622 0.0000
v  -16.9549 -48.8143 -98.6364
v  -30.9969 -48.8585 -98.4937
v  -43.1547 -48.9141 -98.3248
v  -54.1259 -48.9652 -98.1578
v  -64.2197 -49.0006 -98.0152
v  -73.5080 -49.0145 -97.9188
v  -81.5024 -49.0177 -97.8934
v  -87.7647 -49.0243 -97.9487
v  -92.6176 -49.0461 -98.0319
v  -97.6872 -49.1077 -98.1009
v  -105.3533 -48.8622 -98.1382
v  -100.2549 -49.1406 -98.1173
v  -105.3533 -48.8622 -64.1345
v  -100.1114 -49.1423 -98.1200
v  -199.5494 -39.8175 -94.5128
v  -199.5494 -39.8175 -64.1305
v  -203.0960 -39.5861 -93.6898
v  -209.6412 -39.0927 -64.1197
v  212.0093 -43.9658 -64.1234
v  -199.5494 -39.8175 0.0000
v  266.5090 -40.8382 -7.4299
v  266.8127 -40.9662 0.0000
v  218.0292 -43.6740 0.0000
v  265.8544 -40.6954 -13.9861
v  265.3810 -40.5744 -20.2747
v  264.8705 -40.4788 -25.8740
v  264.3265 -40.4049 -30.6795
v  263.7843 -40.3540 -34.5101
v  263.2804 -40.3262 -37.2780
v  262.3647 -40.2977 -41.9052
v  261.5372 -40.2941 -45.0321
v  260.6276 -40.3033 -48.2947
v  259.7563 -40.3343 -51.2911
v  258.6938 -40.4219 -54.6991
v  257.4819 -40.6471 -58.0640
v  256.1916 -41.0604 -60.9408
v  254.4884 -41.7617 -63.9900
v  252.7954 -42.6953 -66.9772
v  251.3050 -43.5464 -70.4338
v  212.0093 -43.9658 -96.3191
v  214.2651 -43.9659 -95.7433
v  214.3235 -43.9659 -95.7289
v  214.5186 -43.9660 -95.6563
v  215.4090 -43.9662 -95.1952
v  219.1161 -43.9668 -93.2494
v  222.5918 -43.9677 -91.5837
v  225.3842 -43.9681 -90.3795
v  249.8890 -43.7879 -73.6980
v  248.7434 -43.8036 -75.6175
v  247.7167 -43.8023 -77.0359
v  246.5671 -43.8048 -78.4736
v  245.4177 -43.8133 -79.7271
v  243.5085 -43.8455 -81.6259
v  241.0251 -43.9099 -83.1322
v  238.3731 -43.9563 -84.4565
v  235.1625 -43.9682 -86.0379
v  231.0292 -43.9687 -87.9040
v  227.7101 -43.9683 -89.3664
v  -254.5765 -34.8599 -74.2374
v  -257.5905 -34.7127 -64.1239
v  -256.4055 -34.7595 -71.9884
v  -257.5905 -34.7127 -70.2589
v  -248.5058 -35.3323 -79.7244
v  -244.5106 -35.6736 -82.7969
v  -238.9628 -36.3209 -64.1211
v  -241.0557 -36.1291 -84.4565
v  -236.7079 -36.6475 -86.0076
v  -222.8584 -37.9343 -89.7484
v  -218.9799 -38.2894 -90.6450
v  -226.2660 -37.6238 -88.8879
v  -214.5130 -38.7057 -91.5559
v  -210.6304 -39.0634 -92.2961
v  -232.6441 -37.0322 -87.2246
v  -207.8615 -39.2895 -92.8097
v  -229.5446 -37.3194 -88.0477
v  -206.0117 -39.4084 -93.1461
v  -252.2576 -35.0343 -76.5410
v  -257.5905 -34.7127 0.0000
v  -258.0900 -34.6884 -69.4161
v  -258.1958 -34.6753 -69.1286
v  -258.2216 -34.6685 -68.9692
v  -258.2556 -34.6630 -68.6945
v  -258.3114 -34.6590 -68.2136
v  -258.4120 -34.6543 -67.3387
v  -258.5755 -34.6480 -65.9433
v  -258.8095 -34.6396 -64.1135
v  -259.1108 -34.6293 -61.9227
v  -259.4410 -34.6199 -59.1815
v  -259.7681 -34.6142 -55.6774
v  -260.1215 -34.6139 -51.3676
v  -260.5193 -34.6195 -46.2659
v  -260.8744 -34.6272 -40.4418
v  -261.1079 -34.6329 -34.0121
v  -261.2784 -34.6353 -27.2252
v  -261.4541 -34.6347 -20.3295
v  -261.6034 -34.6327 -13.4430
v  -261.7538 -34.6317 -6.9132
v  -261.7538 -34.6343 0.0000
v  117.5040 -48.2061 64.1248
v  114.1521 -48.3890 98.9097
v  117.5040 -48.2061 99.0702
v  87.9786 -48.5399 98.6967
v  99.0992 -48.4851 98.7428
v  106.8894 -48.4355 98.8208
v  72.7560 -48.5925 98.7154
v  54.9018 -48.6485 98.7607
v  36.2069 -48.7115 98.7855
v  17.5032 -48.7635 98.7769
v  -0.5414 -48.7904 98.7299
v  -16.9549 -48.8143 98.6364
v  -30.9969 -48.8585 98.4937
v  -43.1547 -48.9141 98.3248
v  -54.1259 -48.9652 98.1578
v  -64.2197 -49.0006 98.0152
v  -73.5080 -49.0146 97.9188
v  -81.5024 -49.0177 97.8934
v  -87.7647 -49.0243 97.9487
v  -92.6176 -49.0461 98.0319
v  -97.6872 -49.1077 98.1009
v  -105.3533 -48.8622 98.1382
v  -105.3533 -48.8622 64.1345
v  -100.2549 -49.1406 98.1173
v  -100.1114 -49.1423 98.1200
v  -209.6412 -39.0927 64.1197
v  -199.5494 -39.8175 64.1305
v  -203.0960 -39.5861 93.6898
v  -199.5494 -39.8175 94.5128
v  212.0093 -43.9658 64.1234
v  266.5090 -40.8382 7.4299
v  266.0838 -40.6954 13.9861
v  265.4641 -40.5744 20.2747
v  264.9537 -40.4788 25.8740
v  264.4097 -40.4049 30.6795
v  263.7706 -40.3540 34.5101
v  263.2666 -40.3262 37.2780
v  262.2119 -40.2977 41.9052
v  261.3982 -40.2941 45.0321
v  260.4885 -40.3033 48.2947
v  259.6172 -40.3343 51.2911
v  258.5547 -40.4219 54.6991
v  257.4103 -40.6471 58.0640
v  256.1201 -41.0604 60.9408
v  254.9122 -41.5434 63.1799
v  253.9214 -41.9800 64.8000
v  253.0891 -42.4324 66.1950
v  252.3220 -42.9582 67.7594
v  251.3448 -43.5464 70.4338
v  212.0093 -43.9658 96.0909
v  214.2651 -43.9659 95.5151
v  214.3235 -43.9659 95.5007
v  214.5186 -43.9660 95.4281
v  215.4090 -43.9662 94.9671
v  219.1161 -43.9668 93.0213
v  222.5918 -43.9677 91.3556
v  226.5471 -43.9682 89.6448
v  249.9288 -43.7879 73.6980
v  248.2698 -43.8030 76.3267
v  246.6068 -43.8048 78.4736
v  245.4575 -43.8133 79.7271
v  243.5085 -43.8455 81.3978
v  241.0251 -43.9099 82.9040
v  238.3731 -43.9563 84.2284
v  235.1625 -43.9682 85.8097
v  231.0292 -43.9687 87.6759
v  -205.0468 -39.4667 93.3228
v  -256.4055 -34.7595 71.9884
v  -256.4055 -34.7595 64.1236
v  -254.5765 -34.8599 74.2374
v  -257.5905 -34.7127 64.1239
v  -257.5905 -34.7127 70.2589
v  -250.9892 -35.1369 77.6397
v  -246.3369 -35.4998 81.4530
v  -238.9628 -36.3209 64.1211
v  -242.7776 -35.8920 83.7599
v  -239.0810 -36.3834 85.1960
v  -222.8584 -37.9343 89.7484
v  -218.9799 -38.2894 90.6450
v  -226.2660 -37.6238 88.8879
v  -214.5130 -38.7057 91.5559
v  -210.6304 -39.0634 92.2961
v  -234.0462 -36.9037 86.8197
v  -207.8615 -39.2895 92.8097
v  -229.5446 -37.3194 88.0477
v  -258.0900 -34.6884 69.4161
v  -258.1958 -34.6753 69.1286
v  -258.2216 -34.6685 68.9692
v  -258.2556 -34.6630 68.6945
v  -258.3114 -34.6590 68.2136
v  -258.4120 -34.6543 67.3387
v  -258.5755 -34.6480 65.9433
v  -258.8095 -34.6396 64.1135
v  -259.1108 -34.6293 61.9227
v  -259.4410 -34.6199 59.1815
v  -259.7681 -34.6142 55.6774
v  -260.1215 -34.6139 51.3676
v  -260.5193 -34.6195 46.2659
v  -260.8744 -34.6272 40.4418
v  -261.1079 -34.6328 34.0121
v  -261.2784 -34.6353 27.2252
v  -261.4541 -34.6347 20.3295
v  -261.6034 -34.6327 13.4430
v  -261.7538 -34.6317 6.9132
# 215 vertices

vn 0.0545 -0.9985 -0.0000
vn 0.0513 -0.9987 -0.0000
vn 0.0385 -0.9993 0.0005
vn 0.0149 -0.9999 -0.0000
vn 0.0057 -1.0000 0.0018
vn 0.0042 -1.0000 0.0021
vn 0.0064 -1.0000 0.0016
vn 0.0033 -1.0000 0.0024
vn 0.0032 -1.0000 0.0024
vn 0.0031 -1.0000 0.0026
vn 0.0021 -1.0000 0.0035
vn 0.0020 -1.0000 0.0024
vn -0.0072 -1.0000 -0.0000
vn 0.0023 -1.0000 0.0016
vn 0.0039 -1.0000 0.0029
vn 0.0047 -1.0000 0.0035
vn 0.0041 -1.0000 0.0032
vn 0.0025 -1.0000 0.0025
vn 0.0010 -1.0000 0.0019
vn 0.0007 -1.0000 0.0018
vn 0.0027 -1.0000 0.0021
vn 0.0083 -1.0000 0.0030
vn 0.0132 -0.9999 0.0035
vn -0.0545 -0.9985 -0.0000
vn -0.0401 -0.9992 0.0007
vn -0.0751 -0.9972 -0.0000
vn 0.0015 -1.0000 0.0029
vn -0.0651 -0.9979 -0.0000
vn -0.0760 -0.9971 0.0002
vn -0.0656 -0.9978 0.0014
vn -0.0819 -0.9966 0.0022
vn 0.0189 -0.9992 0.0356
vn -0.0889 -0.9960 -0.0000
vn 0.0548 -0.9982 -0.0233
vn 0.0554 -0.9985 -0.0000
vn 0.0601 -0.9982 0.0001
vn 0.0548 -0.9982 -0.0253
vn 0.0556 -0.9982 -0.0228
vn 0.0560 -0.9982 -0.0219
vn 0.0563 -0.9982 -0.0215
vn 0.0567 -0.9982 -0.0208
vn 0.0581 -0.9981 -0.0191
vn 0.0595 -0.9981 -0.0174
vn 0.0612 -0.9980 -0.0158
vn 0.0653 -0.9978 -0.0121
vn 0.0743 -0.9972 -0.0045
vn 0.0746 -0.9971 0.0135
vn 0.0620 -0.9949 0.0798
vn 0.0535 -0.9861 0.1572
vn 0.0496 -0.9707 0.2350
vn 0.0474 -0.9680 0.2465
vn 0.0335 -0.9892 0.1429
vn -0.0001 -1.0000 -0.0000
vn -0.0000 -1.0000 -0.0000
vn -0.0002 -1.0000 -0.0000
vn -0.0001 -1.0000 0.0000
vn 0.0135 -0.9993 0.0347
vn 0.0046 -1.0000 0.0007
vn 0.0037 -1.0000 -0.0024
vn 0.0047 -1.0000 0.0002
vn 0.0069 -1.0000 0.0051
vn 0.0114 -0.9998 0.0137
vn 0.0126 -0.9998 0.0163
vn 0.0066 -0.9999 0.0081
vn 0.0012 -1.0000 0.0014
vn -0.0000 -1.0000 0.0001
vn -0.0722 -0.9974 -0.0070
vn -0.0806 -0.9967 -0.0013
vn -0.0489 -0.9988 -0.0014
vn -0.0440 -0.9990 -0.0000
vn -0.0890 -0.9960 -0.0103
vn -0.1099 -0.9939 -0.0018
vn -0.0963 -0.9954 0.0012
vn -0.1231 -0.9924 0.0033
vn -0.1051 -0.9945 0.0040
vn -0.0906 -0.9959 0.0017
vn -0.0915 -0.9958 0.0021
vn -0.0918 -0.9958 0.0038
vn -0.0918 -0.9958 0.0023
vn -0.0862 -0.9963 0.0020
vn -0.0917 -0.9958 0.0056
vn -0.0723 -0.9974 0.0024
vn -0.0908 -0.9958 0.0058
vn -0.0619 -0.9981 0.0031
vn -0.0880 -0.9960 -0.0120
vn -0.0309 -0.9995 0.0000
vn -0.0782 -0.9969 0.0028
vn -0.1414 -0.9899 0.0097
vn -0.1443 -0.9895 0.0098
vn -0.0935 -0.9956 0.0028
vn -0.0683 -0.9977 -0.0011
vn -0.0620 -0.9981 -0.0023
vn -0.0604 -0.9982 -0.0028
vn -0.0523 -0.9986 -0.0012
vn -0.0350 -0.9994 -0.0005
vn -0.0293 -0.9996 -0.0007
vn -0.0204 -0.9998 -0.0010
vn -0.0108 -0.9999 -0.0014
vn -0.0061 -1.0000 -0.0016
vn -0.0081 -1.0000 -0.0015
vn -0.0129 -0.9999 -0.0010
vn -0.0168 -0.9999 -0.0006
vn -0.0189 -0.9998 -0.0002
vn -0.0192 -0.9998 -0.0002
vn -0.0189 -0.9998 -0.0003
vn -0.0188 -0.9998 -0.0000
vn 0.0385 -0.9993 -0.0005
vn 0.0042 -1.0000 -0.0021
vn 0.0057 -1.0000 -0.0018
vn 0.0064 -1.0000 -0.0016
vn 0.0033 -1.0000 -0.0024
vn 0.0032 -1.0000 -0.0024
vn 0.0031 -1.0000 -0.0026
vn 0.0021 -1.0000 -0.0035
vn 0.0020 -1.0000 -0.0025
vn 0.0023 -1.0000 -0.0016
vn 0.0039 -1.0000 -0.0029
vn 0.0047 -1.0000 -0.0035
vn 0.0041 -1.0000 -0.0032
vn 0.0025 -1.0000 -0.0025
vn 0.0010 -1.0000 -0.0019
vn 0.0007 -1.0000 -0.0018
vn 0.0027 -1.0000 -0.0021
vn 0.0083 -1.0000 -0.0030
vn 0.0132 -0.9999 -0.0035
vn -0.0401 -0.9992 -0.0007
vn 0.0015 -1.0000 -0.0029
vn -0.0818 -0.9966 -0.0022
vn -0.0760 -0.9971 -0.0002
vn -0.0657 -0.9978 -0.0014
vn 0.0225 -0.9983 -0.0544
vn 0.0550 -0.9982 0.0224
vn 0.0546 -0.9982 0.0249
vn 0.0552 -0.9982 0.0234
vn 0.0559 -0.9982 0.0219
vn 0.0557 -0.9982 0.0221
vn 0.0563 -0.9982 0.0215
vn 0.0575 -0.9981 0.0199
vn 0.0591 -0.9981 0.0181
vn 0.0614 -0.9980 0.0157
vn 0.0654 -0.9978 0.0121
vn 0.0745 -0.9972 0.0045
vn 0.0747 -0.9971 -0.0139
vn 0.0620 -0.9948 -0.0805
vn 0.0542 -0.9871 -0.1506
vn 0.0506 -0.9769 -0.2078
vn 0.0499 -0.9653 -0.2563
vn 0.0502 -0.9562 -0.2884
vn 0.0466 -0.9676 -0.2481
vn 0.0318 -0.9907 -0.1326
vn -0.0002 -1.0000 0.0000
vn 0.0132 -0.9994 -0.0336
vn 0.0045 -1.0000 -0.0002
vn 0.0046 -1.0000 0.0001
vn 0.0071 -1.0000 -0.0054
vn 0.0116 -0.9998 -0.0141
vn 0.0125 -0.9998 -0.0164
vn 0.0066 -0.9999 -0.0081
vn 0.0012 -1.0000 -0.0014
vn -0.0000 -1.0000 -0.0001
vn -0.0614 -0.9981 -0.0031
vn -0.0471 -0.9989 -0.0000
vn -0.0644 -0.9979 0.0025
vn -0.0682 -0.9977 0.0024
vn -0.0765 -0.9971 -0.0016
vn -0.0425 -0.9991 -0.0000
vn -0.0817 -0.9966 0.0049
vn -0.0936 -0.9956 0.0049
vn -0.0977 -0.9952 -0.0016
vn -0.1201 -0.9928 -0.0016
vn -0.1160 -0.9932 -0.0036
vn -0.0906 -0.9959 -0.0017
vn -0.0915 -0.9958 -0.0021
vn -0.0918 -0.9958 -0.0038
vn -0.0918 -0.9958 -0.0023
vn -0.0862 -0.9963 -0.0020
vn -0.0960 -0.9954 -0.0048
vn -0.0717 -0.9974 -0.0024
vn -0.0907 -0.9959 -0.0059
vn -0.0782 -0.9969 -0.0028
vn -0.1414 -0.9899 -0.0097
vn -0.1443 -0.9895 -0.0098
vn -0.0935 -0.9956 -0.0028
vn -0.0683 -0.9977 0.0011
vn -0.0620 -0.9981 0.0023
vn -0.0604 -0.9982 0.0028
vn -0.0523 -0.9986 0.0012
vn -0.0350 -0.9994 0.0005
vn -0.0293 -0.9996 0.0007
vn -0.0204 -0.9998 0.0010
vn -0.0108 -0.9999 0.0014
vn -0.0061 -1.0000 0.0016
vn -0.0081 -1.0000 0.0015
vn -0.0129 -0.9999 0.0010
vn -0.0168 -0.9999 0.0006
vn -0.0189 -0.9998 0.0002
vn -0.0192 -0.9998 0.0002
vn -0.0189 -0.9998 0.0003
# 198 vertex normals

g H128_FLOR_C_N_H128_FLOR_C
usemtl diffuse_black_plasticSG
s 1
f 1//1 2//2 3//3 
f 3//3 2//2 4//4 
f 5//5 4//4 6//6 
f 7//7 4//4 5//5 
f 8//8 6//6 4//4 
f 9//9 8//8 4//4 
f 10//10 9//9 4//4 
f 11//11 10//10 4//4 
f 11//11 4//4 12//12 
f 12//12 4//4 13//13 
f 12//12 13//13 14//14 
f 14//14 13//13 15//15 
f 15//15 13//13 16//16 
f 16//16 13//13 17//17 
f 17//17 13//13 18//18 
f 18//18 13//13 19//19 
f 19//19 13//13 20//20 
f 21//21 20//20 13//13 
f 22//22 21//21 13//13 
f 23//23 22//22 13//13 
f 24//24 25//25 26//26 
f 26//26 25//25 13//13 
f 27//27 23//23 13//13 
f 3//3 4//4 7//7 
f 25//25 27//27 13//13 
f 28//28 29//29 30//30 
f 30//30 29//29 31//31 
f 2//2 32//32 4//4 
f 31//31 29//29 33//33 
f 29//29 26//26 33//33 
f 33//33 26//26 13//13 
f 34//34 35//35 36//36 
f 37//37 34//34 36//36 
f 38//38 37//37 36//36 
f 39//39 38//38 36//36 
f 40//40 39//39 36//36 
f 41//41 40//40 36//36 
f 42//42 41//41 36//36 
f 43//43 42//42 36//36 
f 44//44 43//43 36//36 
f 45//45 44//44 36//36 
f 46//46 45//45 36//36 
f 46//46 36//36 47//47 
f 47//47 36//36 32//32 
f 48//48 47//47 32//32 
f 49//49 48//48 32//32 
f 50//50 49//49 32//32 
f 51//51 50//50 32//32 
f 52//52 51//51 32//32 
f 4//4 32//32 36//36 
f 53//53 54//54 32//32 
f 54//54 55//53 32//32 
f 55//53 56//55 32//32 
f 56//55 57//55 32//32 
f 57//55 58//55 32//32 
f 58//55 59//55 32//32 
f 59//55 60//56 32//32 
f 52//52 32//32 61//57 
f 61//57 32//32 62//58 
f 62//58 32//32 63//59 
f 63//59 32//32 64//60 
f 64//60 32//32 65//61 
f 65//61 32//32 66//62 
f 66//62 32//32 67//63 
f 67//63 32//32 68//64 
f 68//64 32//32 69//65 
f 69//65 32//32 70//66 
f 60//56 71//56 32//32 
f 32//32 71//56 70//66 
f 72//67 73//68 74//69 
f 74//69 73//68 75//70 
f 76//71 77//72 78//73 
f 73//68 76//71 78//73 
f 79//74 80//75 78//73 
f 77//72 79//74 78//73 
f 81//76 82//77 31//31 
f 81//76 31//31 83//78 
f 83//78 31//31 78//73 
f 84//79 85//80 31//31 
f 82//77 84//79 31//31 
f 80//75 86//81 78//73 
f 85//80 87//82 31//31 
f 88//83 83//78 78//73 
f 86//81 88//83 78//73 
f 89//84 30//30 31//31 
f 87//82 89//84 31//31 
f 76//71 73//68 90//85 
f 90//85 73//68 72//67 
f 73//68 78//73 91//86 
f 91//86 78//73 33//33 
f 78//73 31//31 33//33 
f 75//70 73//68 92//87 
f 92//87 73//68 93//88 
f 93//88 73//68 94//89 
f 94//89 73//68 95//90 
f 95//90 73//68 96//91 
f 96//91 73//68 97//92 
f 97//92 73//68 98//93 
f 98//93 73//68 99//94 
f 73//68 91//86 99//94 
f 99//94 91//86 100//95 
f 100//95 91//86 101//96 
f 101//96 91//86 102//97 
f 102//97 91//86 103//98 
f 103//98 91//86 104//99 
f 104//99 91//86 105//100 
f 105//100 91//86 106//101 
f 106//101 91//86 107//102 
f 107//102 91//86 108//103 
f 108//103 91//86 109//104 
f 109//104 91//86 110//105 
f 91//86 111//106 110//105 
f 4//4 112//2 113//107 
f 113//107 112//2 114//1 
f 115//108 4//4 116//109 
f 116//109 4//4 117//110 
f 118//111 4//4 115//108 
f 119//112 4//4 118//111 
f 120//113 4//4 119//112 
f 121//114 4//4 120//113 
f 13//13 4//4 122//115 
f 122//115 4//4 121//114 
f 123//116 13//13 122//115 
f 124//117 13//13 123//116 
f 125//118 13//13 124//117 
f 126//119 13//13 125//118 
f 127//120 13//13 126//119 
f 128//121 13//13 127//120 
f 129//122 13//13 128//121 
f 130//123 13//13 129//122 
f 131//124 13//13 130//123 
f 132//125 13//13 131//124 
f 133//24 134//26 135//126 
f 135//126 134//26 13//13 
f 136//127 13//13 132//125 
f 117//110 4//4 113//107 
f 135//126 13//13 136//127 
f 137//128 138//129 139//130 
f 139//130 138//129 140//28 
f 112//2 4//4 141//131 
f 137//128 33//33 138//129 
f 138//129 33//33 134//26 
f 134//26 33//33 13//13 
f 142//132 36//36 35//35 
f 143//133 36//36 142//132 
f 144//134 36//36 143//133 
f 145//135 36//36 144//134 
f 146//136 36//36 145//135 
f 147//137 36//36 146//136 
f 148//138 36//36 147//137 
f 149//139 36//36 148//138 
f 150//140 36//36 149//139 
f 151//141 36//36 150//140 
f 152//142 36//36 151//141 
f 141//131 36//36 153//143 
f 153//143 36//36 152//142 
f 154//144 141//131 153//143 
f 155//145 141//131 154//144 
f 156//146 141//131 155//145 
f 157//147 141//131 156//146 
f 158//148 141//131 157//147 
f 159//149 141//131 158//148 
f 160//150 141//131 159//149 
f 141//131 4//4 36//36 
f 161//53 141//131 162//54 
f 162//54 141//131 163//56 
f 163//56 141//131 164//151 
f 164//151 141//131 165//151 
f 165//151 141//131 166//151 
f 166//151 141//131 167//151 
f 167//151 141//131 168//53 
f 160//150 169//152 141//131 
f 169//152 170//153 141//131 
f 170//153 171//154 141//131 
f 171//154 172//155 141//131 
f 172//155 173//156 141//131 
f 173//156 174//157 141//131 
f 174//157 175//158 141//131 
f 175//158 176//159 141//131 
f 176//159 177//160 141//131 
f 141//131 177//160 168//53 
f 178//161 137//128 139//130 
f 179//162 180//163 181//164 
f 182//165 180//163 183//166 
f 183//166 180//163 179//162 
f 184//167 180//163 185//168 
f 185//168 180//163 186//169 
f 187//170 186//169 188//171 
f 185//168 186//169 187//170 
f 189//172 137//128 190//173 
f 189//172 191//174 137//128 
f 191//174 186//169 137//128 
f 192//175 137//128 193//176 
f 190//173 137//128 192//175 
f 188//171 186//169 194//177 
f 193//176 137//128 195//178 
f 196//179 186//169 191//174 
f 194//177 186//169 196//179 
f 195//178 137//128 178//161 
f 181//164 180//163 184//167 
f 182//165 91//86 180//163 
f 180//163 91//86 186//169 
f 186//169 91//86 33//33 
f 186//169 33//33 137//128 
f 183//166 197//180 182//165 
f 197//180 198//181 182//165 
f 198//181 199//182 182//165 
f 199//182 200//183 182//165 
f 200//183 201//184 182//165 
f 201//184 202//185 182//165 
f 202//185 203//186 182//165 
f 203//186 204//187 182//165 
f 182//165 204//187 91//86 
f 204//187 205//188 91//86 
f 205//188 206//189 91//86 
f 206//189 207//190 91//86 
f 207//190 208//191 91//86 
f 208//191 209//192 91//86 
f 209//192 210//193 91//86 
f 210//193 211//194 91//86 
f 211//194 212//195 91//86 
f 212//195 213//196 91//86 
f 213//196 214//197 91//86 
f 214//197 215//198 91//86 
f 215//198 111//106 91//86 
# 225 faces

