# 3ds Max Wavefront OBJ Exporter v0.97b - (c)2007 guruware
# File Created: 23.11.2015 10:26:39

mtllib H128_325B_R.mtl

#
# object H128_325B_R_DTaSI_H128_325B_R
#

v  -45.7812 86.2008 74.5697
v  -44.9028 77.7554 79.0795
v  -43.1759 86.2312 74.6133
v  -42.0676 77.6664 79.1746
v  -43.9655 68.6886 83.1960
v  -43.1728 60.9712 86.4310
v  -40.8693 68.5838 83.2839
v  -39.8568 60.8493 86.5122
v  -38.9274 53.6939 89.2550
v  -42.4446 53.8399 89.1786
v  -41.9318 48.7962 91.0003
v  -38.2731 48.6291 91.0739
v  -68.5143 78.1080 78.3549
v  -58.6942 78.0622 78.6403
v  -68.2355 85.4905 74.3454
v  -58.6942 85.9130 74.3989
v  -58.7276 61.4645 86.0431
v  -58.7150 69.0890 82.7823
v  -69.0019 61.6792 85.7727
v  -68.7836 69.2250 82.5024
v  -79.5255 61.8662 85.4663
v  -79.2273 69.3293 82.1873
v  -78.8568 78.1087 78.0376
v  -69.3187 49.9024 90.3801
v  -69.1912 54.7640 88.5450
v  -79.9412 50.2632 90.0769
v  -79.7763 55.0470 88.2419
v  -58.7342 54.4556 88.8094
v  -58.7364 49.5169 90.6416
v  -88.6197 78.1315 77.6926
v  -88.2686 83.9827 74.5081
v  -78.4805 84.8366 74.3730
v  -89.0856 69.4532 81.8444
v  -89.4578 62.0614 85.1340
v  -97.6399 62.2330 84.8287
v  -97.1816 69.5605 81.5364
v  -96.6095 78.1394 77.3937
v  -89.9515 50.6070 89.7434
v  -89.7595 55.3243 87.9113
v  -98.2406 50.8956 89.4306
v  -98.0081 55.5623 87.6032
v  -46.1110 89.8442 72.4496
v  -45.9791 88.2633 73.3928
v  -43.6433 89.8382 72.5183
v  -43.4260 88.3098 73.4304
v  -68.1819 87.3906 73.2389
v  -58.6968 87.8895 73.2567
v  -68.1590 88.9957 72.2695
v  -58.7003 89.4947 72.2928
v  -88.1916 85.6264 73.5515
v  -78.4075 86.6277 73.3262
v  -88.1410 87.2188 72.6082
v  -78.3754 88.2282 72.3616
v  -115.0103 56.0431 86.8204
v  -115.5837 62.5419 84.0439
v  -116.5244 56.0843 86.7472
v  -117.3343 62.5679 83.9652
v  -101.6331 83.6507 74.1816
v  -96.2239 84.5785 73.8567
v  -101.5467 85.0724 73.3764
v  -96.1471 86.1227 72.9638
v  -102.1015 78.0851 77.2040
v  -101.7289 82.3518 74.9202
v  -96.3048 83.1041 74.7059
v  -107.3031 62.4168 84.4167
v  -103.2710 62.3456 84.5970
v  -106.8762 69.6135 81.1540
v  -102.7483 69.6080 81.3177
v  -106.3376 77.9842 77.0764
v  -103.6999 55.7275 87.3627
v  -103.9760 51.0943 89.1854
v  -107.8897 51.2281 88.9982
v  -107.6584 55.8408 87.1758
v  -108.8220 81.7281 74.9819
v  -105.4340 82.7409 74.5480
v  -109.1304 82.7311 74.4130
v  -105.4433 83.9794 73.8540
v  -110.5974 77.8685 76.9525
v  -108.8922 80.8765 75.4568
v  -105.5523 81.6346 75.1689
v  -110.8215 62.4719 84.2577
v  -110.7443 69.6053 81.0027
v  -113.6899 62.5141 84.1290
v  -114.0308 69.5950 80.8754
v  -114.3436 77.7708 76.8412
v  -110.9060 51.3301 88.8500
v  -110.8759 55.9305 87.0201
v  -113.1531 51.4055 88.7396
v  -113.3754 55.9987 86.8993
v  -112.7132 81.3404 75.0459
v  -111.8575 80.6577 75.4585
v  -111.2411 80.3227 75.6708
v  -116.8148 77.7158 76.7626
v  -118.2002 69.5828 80.7136
v  -116.2065 69.5882 80.7911
v  -119.1255 77.6784 76.6849
v  -114.6058 51.4541 88.6682
v  -115.9470 51.4990 88.6023
v  -48.9932 49.1128 90.8558
v  -49.2500 54.1147 89.0289
v  -49.6135 61.1982 86.2724
v  -50.0074 68.8807 83.0251
v  -50.4711 77.9144 78.8958
v  -50.9279 86.1236 74.4893
v  -51.0306 88.1535 73.3247
v  -51.0975 89.7478 72.3716
v  -41.6709 46.2287 91.9120
v  -38.0263 46.1032 91.9654
v  -48.8625 46.5675 91.7699
v  -58.7372 47.0051 91.5583
v  -69.3829 47.4312 91.2981
v  -80.0236 47.8330 90.9945
v  -90.0466 48.2117 90.6590
v  -98.3553 48.5265 90.3435
v  -104.1130 48.7418 90.0960
v  -108.0050 48.8849 89.9093
v  -110.9201 48.9916 89.7656
v  -113.0400 49.0691 89.6611
v  -115.6216 49.2078 89.5164
v  -114.4001 49.1189 89.5940
# 120 vertices

vn -0.0200 0.4820 0.8760
vn -0.0166 0.4413 0.8972
vn -0.0185 0.4769 0.8788
vn -0.0148 0.4306 0.9024
vn -0.0130 0.3992 0.9168
vn -0.0094 0.3726 0.9280
vn -0.0112 0.3935 0.9192
vn -0.0079 0.3668 0.9303
vn -0.0051 0.3447 0.9387
vn -0.0064 0.3494 0.9370
vn -0.0041 0.3371 0.9415
vn -0.0032 0.3348 0.9423
vn -0.0261 0.4566 0.8893
vn -0.0223 0.4519 0.8918
vn -0.0274 0.4906 0.8709
vn -0.0254 0.4919 0.8703
vn -0.0143 0.3803 0.9247
vn -0.0180 0.4063 0.9136
vn -0.0190 0.3878 0.9215
vn -0.0231 0.4151 0.9095
vn -0.0225 0.3937 0.9190
vn -0.0250 0.4155 0.9092
vn -0.0280 0.4532 0.8910
vn -0.0129 0.3509 0.9363
vn -0.0152 0.3629 0.9317
vn -0.0170 0.3560 0.9343
vn -0.0196 0.3699 0.9289
vn -0.0111 0.3576 0.9338
vn -0.0087 0.3454 0.9384
vn -0.0305 0.4551 0.8899
vn -0.0315 0.4910 0.8706
vn -0.0298 0.4919 0.8701
vn -0.0277 0.4200 0.9071
vn -0.0245 0.3946 0.9185
vn -0.0278 0.3980 0.9170
vn -0.0304 0.4235 0.9054
vn -0.0327 0.4558 0.8895
vn -0.0209 0.3600 0.9327
vn -0.0229 0.3733 0.9274
vn -0.0254 0.3637 0.9312
vn -0.0268 0.3777 0.9255
vn -0.0229 0.5113 0.8591
vn -0.0221 0.5027 0.8642
vn -0.0223 0.5104 0.8596
vn -0.0214 0.4989 0.8664
vn -0.0294 0.5097 0.8599
vn -0.0272 0.5093 0.8601
vn -0.0297 0.5162 0.8559
vn -0.0268 0.5137 0.8575
vn -0.0323 0.5058 0.8620
vn -0.0312 0.5095 0.8599
vn -0.0320 0.5123 0.8582
vn -0.0314 0.5166 0.8556
vn -0.0343 0.3804 0.9242
vn -0.0351 0.4032 0.9144
vn -0.0347 0.3838 0.9227
vn -0.0356 0.4078 0.9124
vn -0.0335 0.4948 0.8684
vn -0.0328 0.5002 0.8653
vn -0.0320 0.4965 0.8674
vn -0.0319 0.5044 0.8629
vn -0.0348 0.4551 0.8897
vn -0.0339 0.4849 0.8739
vn -0.0327 0.4884 0.8720
vn -0.0343 0.3996 0.9161
vn -0.0317 0.4001 0.9159
vn -0.0357 0.4270 0.9036
vn -0.0335 0.4257 0.9042
vn -0.0361 0.4529 0.8908
vn -0.0306 0.3772 0.9256
vn -0.0299 0.3646 0.9307
vn -0.0326 0.3658 0.9301
vn -0.0332 0.3752 0.9264
vn -0.0349 0.4881 0.8721
vn -0.0343 0.4904 0.8708
vn -0.0336 0.4861 0.8733
vn -0.0327 0.4903 0.8710
vn -0.0360 0.4479 0.8933
vn -0.0334 0.4731 0.8804
vn -0.0345 0.4807 0.8762
vn -0.0348 0.3996 0.9160
vn -0.0357 0.4236 0.9051
vn -0.0352 0.4027 0.9146
vn -0.0364 0.4284 0.9028
vn -0.0400 0.4506 0.8918
vn -0.0334 0.3670 0.9296
vn -0.0343 0.3793 0.9246
vn -0.0334 0.3678 0.9293
vn -0.0343 0.3799 0.9244
vn -0.0399 0.4730 0.8802
vn -0.0401 0.4759 0.8786
vn -0.0374 0.4712 0.8812
vn -0.0393 0.4528 0.8907
vn -0.0366 0.4334 0.9005
vn -0.0364 0.4289 0.9026
vn -0.0373 0.4519 0.8913
vn -0.0334 0.3683 0.9291
vn -0.0338 0.3694 0.9287
vn -0.0055 0.3406 0.9402
vn -0.0079 0.3528 0.9357
vn -0.0110 0.3758 0.9266
vn -0.0147 0.4022 0.9154
vn -0.0183 0.4440 0.8958
vn -0.0217 0.4844 0.8746
vn -0.0240 0.5062 0.8621
vn -0.0246 0.5122 0.8585
vn -0.0030 0.3338 0.9427
vn -0.0023 0.3326 0.9431
vn -0.0041 0.3367 0.9416
vn -0.0070 0.3412 0.9400
vn -0.0111 0.3466 0.9379
vn -0.0154 0.3520 0.9359
vn -0.0196 0.3564 0.9341
vn -0.0246 0.3602 0.9325
vn -0.0289 0.3623 0.9316
vn -0.0320 0.3632 0.9312
vn -0.0328 0.3642 0.9307
vn -0.0328 0.3651 0.9304
vn -0.0330 0.3660 0.9300
vn -0.0328 0.3657 0.9302
# 120 vertex normals

vt 0.4752 0.1738 0.0000
vt 0.4800 0.1396 0.0000
vt 0.4846 0.1742 0.0000
vt 0.4902 0.1396 0.0000
vt 0.4850 0.1039 0.0000
vt 0.4892 0.0740 0.0000
vt 0.4961 0.1039 0.0000
vt 0.5011 0.0740 0.0000
vt 0.5057 0.0467 0.0000
vt 0.4930 0.0467 0.0000
vt 0.4957 0.0275 0.0000
vt 0.5089 0.0275 0.0000
vt 0.3950 0.1379 0.0000
vt 0.4303 0.1389 0.0000
vt 0.3945 0.1681 0.0000
vt 0.4288 0.1710 0.0000
vt 0.4332 0.0736 0.0000
vt 0.4319 0.1034 0.0000
vt 0.3962 0.0730 0.0000
vt 0.3956 0.1026 0.0000
vt 0.3583 0.0723 0.0000
vt 0.3580 0.1017 0.0000
vt 0.3577 0.1367 0.0000
vt 0.3970 0.0276 0.0000
vt 0.3967 0.0462 0.0000
vt 0.3588 0.0275 0.0000
vt 0.3585 0.0459 0.0000
vt 0.4343 0.0465 0.0000
vt 0.4352 0.0277 0.0000
vt 0.3226 0.1357 0.0000
vt 0.3227 0.1596 0.0000
vt 0.3578 0.1642 0.0000
vt 0.3225 0.1010 0.0000
vt 0.3225 0.0718 0.0000
vt 0.2930 0.0715 0.0000
vt 0.2933 0.1005 0.0000
vt 0.2938 0.1348 0.0000
vt 0.3227 0.0274 0.0000
vt 0.3226 0.0456 0.0000
vt 0.2928 0.0275 0.0000
vt 0.2928 0.0455 0.0000
vt 0.4733 0.1888 0.0000
vt 0.4741 0.1823 0.0000
vt 0.4822 0.1891 0.0000
vt 0.4833 0.1828 0.0000
vt 0.3943 0.1760 0.0000
vt 0.4284 0.1792 0.0000
vt 0.3941 0.1827 0.0000
vt 0.4280 0.1858 0.0000
vt 0.3226 0.1665 0.0000
vt 0.3577 0.1717 0.0000
vt 0.3225 0.1731 0.0000
vt 0.3575 0.1784 0.0000
vt 0.2315 0.0454 0.0000
vt 0.2283 0.0708 0.0000
vt 0.2261 0.0454 0.0000
vt 0.2220 0.0707 0.0000
vt 0.2746 0.1568 0.0000
vt 0.2939 0.1612 0.0000
vt 0.2747 0.1627 0.0000
vt 0.2939 0.1677 0.0000
vt 0.2740 0.1340 0.0000
vt 0.2746 0.1515 0.0000
vt 0.2939 0.1551 0.0000
vt 0.2582 0.0711 0.0000
vt 0.2727 0.0713 0.0000
vt 0.2584 0.0996 0.0000
vt 0.2733 0.1000 0.0000
vt 0.2588 0.1332 0.0000
vt 0.2723 0.0455 0.0000
vt 0.2721 0.0275 0.0000
vt 0.2580 0.0276 0.0000
vt 0.2581 0.0455 0.0000
vt 0.2491 0.1482 0.0000
vt 0.2611 0.1527 0.0000
vt 0.2478 0.1523 0.0000
vt 0.2609 0.1578 0.0000
vt 0.2435 0.1323 0.0000
vt 0.2490 0.1447 0.0000
vt 0.2609 0.1481 0.0000
vt 0.2455 0.0710 0.0000
vt 0.2445 0.0992 0.0000
vt 0.2352 0.0708 0.0000
vt 0.2327 0.0988 0.0000
vt 0.2300 0.1315 0.0000
vt 0.2471 0.0277 0.0000
vt 0.2465 0.0455 0.0000
vt 0.2390 0.0277 0.0000
vt 0.2374 0.0454 0.0000
vt 0.2352 0.1462 0.0000
vt 0.2384 0.1435 0.0000
vt 0.2407 0.1421 0.0000
vt 0.2211 0.1311 0.0000
vt 0.2176 0.0983 0.0000
vt 0.2248 0.0986 0.0000
vt 0.2131 0.1307 0.0000
vt 0.2338 0.0277 0.0000
vt 0.2290 0.0278 0.0000
vt 0.4703 0.0276 0.0000
vt 0.4685 0.0467 0.0000
vt 0.4660 0.0739 0.0000
vt 0.4632 0.1038 0.0000
vt 0.4599 0.1394 0.0000
vt 0.4567 0.1728 0.0000
vt 0.4559 0.1812 0.0000
vt 0.4554 0.1878 0.0000
vt 0.4971 0.0178 0.0000
vt 0.5102 0.0179 0.0000
vt 0.4711 0.0180 0.0000
vt 0.4356 0.0181 0.0000
vt 0.3972 0.0181 0.0000
vt 0.3589 0.0181 0.0000
vt 0.3227 0.0182 0.0000
vt 0.2928 0.0183 0.0000
vt 0.2720 0.0185 0.0000
vt 0.2580 0.0186 0.0000
vt 0.2475 0.0187 0.0000
vt 0.2398 0.0187 0.0000
vt 0.2305 0.0190 0.0000
vt 0.2349 0.0188 0.0000
# 120 texture coords

g H128_325B_R_DTaSI_H128_325B_R
usemtl windowglass_1SG
s 1
f 1/1/1 2/2/2 3/3/3 
f 3/3/3 2/2/2 4/4/4 
f 5/5/5 6/6/6 7/7/7 
f 7/7/7 6/6/6 8/8/8 
f 9/9/9 8/8/8 10/10/10 
f 10/10/10 8/8/8 6/6/6 
f 10/10/10 11/11/11 9/9/9 
f 9/9/9 11/11/11 12/12/12 
f 13/13/13 14/14/14 15/15/15 
f 15/15/15 14/14/14 16/16/16 
f 17/17/17 18/18/18 19/19/19 
f 19/19/19 18/18/18 20/20/20 
f 21/21/21 19/19/19 22/22/22 
f 22/22/22 19/19/19 20/20/20 
f 13/13/13 23/23/23 20/20/20 
f 20/20/20 23/23/23 22/22/22 
f 24/24/24 25/25/25 26/26/26 
f 26/26/26 25/25/25 27/27/27 
f 21/21/21 27/27/27 19/19/19 
f 19/19/19 27/27/27 25/25/25 
f 19/19/19 25/25/25 17/17/17 
f 17/17/17 25/25/25 28/28/28 
f 29/29/29 28/28/28 24/24/24 
f 24/24/24 28/28/28 25/25/25 
f 30/30/30 23/23/23 31/31/31 
f 31/31/31 23/23/23 32/32/32 
f 22/22/22 33/33/33 21/21/21 
f 21/21/21 33/33/33 34/34/34 
f 35/35/35 34/34/34 36/36/36 
f 36/36/36 34/34/34 33/33/33 
f 30/30/30 37/37/37 33/33/33 
f 33/33/33 37/37/37 36/36/36 
f 38/38/38 39/39/39 40/40/40 
f 40/40/40 39/39/39 41/41/41 
f 41/41/41 39/39/39 35/35/35 
f 35/35/35 39/39/39 34/34/34 
f 21/21/21 34/34/34 27/27/27 
f 27/27/27 34/34/34 39/39/39 
f 26/26/26 27/27/27 38/38/38 
f 38/38/38 27/27/27 39/39/39 
f 42/42/42 43/43/43 44/44/44 
f 44/44/44 43/43/43 45/45/45 
f 46/46/46 47/47/47 48/48/48 
f 48/48/48 47/47/47 49/49/49 
f 50/50/50 51/51/51 52/52/52 
f 52/52/52 51/51/51 53/53/53 
f 54/54/54 55/55/55 56/56/56 
f 56/56/56 55/55/55 57/57/57 
f 58/58/58 59/59/59 60/60/60 
f 60/60/60 59/59/59 61/61/61 
f 62/62/62 37/37/37 63/63/63 
f 63/63/63 37/37/37 64/64/64 
f 65/65/65 66/66/66 67/67/67 
f 67/67/67 66/66/66 68/68/68 
f 62/62/62 69/69/69 68/68/68 
f 68/68/68 69/69/69 67/67/67 
f 36/36/36 68/68/68 35/35/35 
f 35/35/35 68/68/68 66/66/66 
f 41/41/41 70/70/70 40/40/40 
f 40/40/40 70/70/70 71/71/71 
f 72/72/72 71/71/71 73/73/73 
f 73/73/73 71/71/71 70/70/70 
f 73/73/73 70/70/70 65/65/65 
f 65/65/65 70/70/70 66/66/66 
f 35/35/35 66/66/66 41/41/41 
f 41/41/41 66/66/66 70/70/70 
f 74/74/74 75/75/75 76/76/76 
f 76/76/76 75/75/75 77/77/77 
f 78/78/78 69/69/69 79/79/79 
f 79/79/79 69/69/69 80/80/80 
f 81/81/81 82/82/82 83/83/83 
f 83/83/83 82/82/82 84/84/84 
f 82/82/82 78/78/78 84/84/84 
f 84/84/84 78/78/78 85/85/85 
f 67/67/67 82/82/82 65/65/65 
f 65/65/65 82/82/82 81/81/81 
f 72/72/72 73/73/73 86/86/86 
f 86/86/86 73/73/73 87/87/87 
f 86/86/86 87/87/87 88/88/88 
f 88/88/88 87/87/87 89/89/89 
f 83/83/83 89/89/89 81/81/81 
f 81/81/81 89/89/89 87/87/87 
f 81/81/81 87/87/87 65/65/65 
f 65/65/65 87/87/87 73/73/73 
f 43/43/43 1/1/1 45/45/45 
f 45/45/45 1/1/1 3/3/3 
f 32/32/32 15/15/15 51/51/51 
f 51/51/51 15/15/15 46/46/46 
f 48/48/48 53/53/53 46/46/46 
f 46/46/46 53/53/53 51/51/51 
f 47/47/47 46/46/46 16/16/16 
f 16/16/16 46/46/46 15/15/15 
f 52/52/52 61/61/61 50/50/50 
f 50/50/50 61/61/61 59/59/59 
f 51/51/51 50/50/50 32/32/32 
f 32/32/32 50/50/50 31/31/31 
f 64/64/64 31/31/31 59/59/59 
f 59/59/59 31/31/31 50/50/50 
f 80/80/80 63/63/63 75/75/75 
f 75/75/75 63/63/63 58/58/58 
f 60/60/60 77/77/77 58/58/58 
f 58/58/58 77/77/77 75/75/75 
f 59/59/59 58/58/58 64/64/64 
f 64/64/64 58/58/58 63/63/63 
f 90/90/90 91/91/91 76/76/76 
f 76/76/76 91/91/91 74/74/74 
f 75/75/75 74/74/74 80/80/80 
f 80/80/80 74/74/74 79/79/79 
f 79/79/79 74/74/74 92/92/92 
f 92/92/92 74/74/74 91/91/91 
f 93/93/93 85/85/85 91/91/91 
f 91/91/91 85/85/85 92/92/92 
f 94/94/94 57/57/57 95/95/95 
f 95/95/95 57/57/57 55/55/55 
f 96/96/96 94/94/94 93/93/93 
f 93/93/93 94/94/94 95/95/95 
f 83/83/83 84/84/84 55/55/55 
f 55/55/55 84/84/84 95/95/95 
f 88/88/88 89/89/89 97/97/97 
f 97/97/97 89/89/89 54/54/54 
f 56/56/56 98/98/98 54/54/54 
f 54/54/54 98/98/98 97/97/97 
f 55/55/55 54/54/54 83/83/83 
f 83/83/83 54/54/54 89/89/89 
f 99/99/99 100/100/100 29/29/29 
f 29/29/29 100/100/100 28/28/28 
f 17/17/17 28/28/28 101/101/101 
f 101/101/101 28/28/28 100/100/100 
f 101/101/101 100/100/100 6/6/6 
f 6/6/6 100/100/100 10/10/10 
f 11/11/11 10/10/10 99/99/99 
f 99/99/99 10/10/10 100/100/100 
f 6/6/6 5/5/5 101/101/101 
f 101/101/101 5/5/5 102/102/102 
f 101/101/101 102/102/102 17/17/17 
f 17/17/17 102/102/102 18/18/18 
f 102/102/102 103/103/103 18/18/18 
f 18/18/18 103/103/103 14/14/14 
f 104/104/104 103/103/103 1/1/1 
f 1/1/1 103/103/103 2/2/2 
f 104/104/104 105/105/105 16/16/16 
f 16/16/16 105/105/105 47/47/47 
f 106/106/106 49/49/49 105/105/105 
f 105/105/105 49/49/49 47/47/47 
f 1/1/1 43/43/43 104/104/104 
f 104/104/104 43/43/43 105/105/105 
f 43/43/43 42/42/42 105/105/105 
f 105/105/105 42/42/42 106/106/106 
f 11/11/11 107/107/107 12/12/12 
f 12/12/12 107/107/107 108/108/108 
f 109/109/109 99/99/99 110/110/110 
f 110/110/110 99/99/99 29/29/29 
f 107/107/107 11/11/11 109/109/109 
f 109/109/109 11/11/11 99/99/99 
f 111/111/111 24/24/24 112/112/112 
f 112/112/112 24/24/24 26/26/26 
f 110/110/110 29/29/29 111/111/111 
f 111/111/111 29/29/29 24/24/24 
f 113/113/113 38/38/38 114/114/114 
f 114/114/114 38/38/38 40/40/40 
f 112/112/112 26/26/26 113/113/113 
f 113/113/113 26/26/26 38/38/38 
f 115/115/115 71/71/71 116/116/116 
f 116/116/116 71/71/71 72/72/72 
f 115/115/115 114/114/114 71/71/71 
f 71/71/71 114/114/114 40/40/40 
f 117/117/117 86/86/86 118/118/118 
f 118/118/118 86/86/86 88/88/88 
f 116/116/116 72/72/72 117/117/117 
f 117/117/117 72/72/72 86/86/86 
f 98/98/98 119/119/119 97/97/97 
f 97/97/97 119/119/119 120/120/120 
f 97/97/97 120/120/120 88/88/88 
f 88/88/88 120/120/120 118/118/118 
f 91/91/91 90/90/90 93/93/93 
f 93/93/93 90/90/90 96/96/96 
f 84/84/84 85/85/85 95/95/95 
f 95/95/95 85/85/85 93/93/93 
f 82/82/82 67/67/67 78/78/78 
f 78/78/78 67/67/67 69/69/69 
f 79/79/79 92/92/92 78/78/78 
f 78/78/78 92/92/92 85/85/85 
f 68/68/68 36/36/36 62/62/62 
f 62/62/62 36/36/36 37/37/37 
f 63/63/63 80/80/80 62/62/62 
f 62/62/62 80/80/80 69/69/69 
f 33/33/33 22/22/22 30/30/30 
f 30/30/30 22/22/22 23/23/23 
f 31/31/31 64/64/64 30/30/30 
f 30/30/30 64/64/64 37/37/37 
f 15/15/15 32/32/32 13/13/13 
f 13/13/13 32/32/32 23/23/23 
f 18/18/18 14/14/14 20/20/20 
f 20/20/20 14/14/14 13/13/13 
f 5/5/5 2/2/2 102/102/102 
f 102/102/102 2/2/2 103/103/103 
f 16/16/16 14/14/14 104/104/104 
f 104/104/104 14/14/14 103/103/103 
f 2/2/2 5/5/5 4/4/4 
f 4/4/4 5/5/5 7/7/7 
# 200 faces

