# 3ds Max Wavefront OBJ Exporter v0.97b - (c)2007 guruware
# File Created: 13.11.2015 16:07:56

mtllib E317_325B_R.mtl

#
# object E317_325B_R_DTaSI_E317_325B_R
#

v  -50.6597 43.7114 96.4718
v  -50.6442 42.3323 97.0092
v  -35.5737 43.1113 96.7162
v  -35.5101 41.7579 97.2304
v  -35.9830 51.8222 93.2950
v  -36.5453 63.7921 88.0720
v  -50.7050 52.4958 92.9394
v  -37.0608 74.7487 82.7428
v  -50.3397 64.4294 87.6454
v  -77.1764 53.4545 92.0525
v  -77.2029 44.5528 95.8068
v  -63.9313 44.1321 96.1393
v  -90.1273 44.9023 95.3659
v  -89.6176 53.8475 91.5183
v  -113.8777 45.5140 94.4136
v  -102.0588 54.2405 90.9841
v  -111.9758 54.5148 90.4487
v  -124.7036 45.7763 93.9023
v  -121.8928 54.7892 89.9134
v  -125.3571 54.8333 89.6933
v  -63.9407 52.9752 92.4960
v  -63.0550 64.8822 87.2131
v  -75.7703 65.3350 86.7808
v  -87.3504 65.5901 86.3607
v  -111.2423 65.8065 85.2127
v  -98.9306 65.8454 85.9407
v  -121.7261 66.0878 84.4887
v  -125.7978 59.4439 87.5102
v  -72.2596 75.0897 82.0141
v  -48.6990 75.1570 82.4471
v  -60.4775 75.0965 82.1767
v  -63.9201 42.7852 96.6831
v  -90.1226 43.5490 95.9542
v  -113.8165 44.1194 95.0533
v  -124.5839 44.3789 94.5553
v  -48.1633 78.2050 80.8318
v  -37.3123 78.2425 80.9065
v  -71.6096 76.7091 81.1930
v  -59.8865 77.4570 81.0124
v  -82.5230 75.0364 81.6713
v  -93.4353 73.3418 82.1074
v  -82.8475 74.2157 82.0608
v  -103.0900 71.1119 82.9285
v  -112.7382 68.8025 83.5854
v  -77.1960 43.2381 96.3570
v  -103.0517 45.2518 94.9249
v  -103.0491 43.8598 95.5514
# 47 vertices

vn -0.0070 0.3705 0.9288
vn -0.0051 0.3628 0.9319
vn -0.0005 0.3641 0.9314
vn -0.0002 0.3552 0.9348
vn -0.0031 0.3855 0.9227
vn -0.0069 0.4179 0.9085
vn -0.0104 0.3917 0.9200
vn -0.0075 0.4427 0.8967
vn -0.0122 0.4208 0.9071
vn -0.0199 0.3995 0.9165
vn -0.0156 0.3883 0.9214
vn -0.0142 0.3800 0.9249
vn -0.0236 0.3966 0.9177
vn -0.0261 0.4018 0.9154
vn -0.0350 0.4102 0.9113
vn -0.0305 0.4046 0.9140
vn -0.0405 0.4148 0.9090
vn -0.0342 0.4144 0.9094
vn -0.0410 0.4205 0.9063
vn -0.0522 0.4198 0.9061
vn -0.0166 0.3956 0.9183
vn -0.0163 0.4233 0.9058
vn -0.0209 0.4248 0.9050
vn -0.0249 0.4285 0.9032
vn -0.0505 0.4335 0.8997
vn -0.0348 0.4310 0.9017
vn -0.0492 0.4342 0.8995
vn -0.0394 0.4321 0.9010
vn -0.0208 0.4474 0.8941
vn -0.0125 0.4458 0.8951
vn -0.0184 0.4460 0.8949
vn -0.0107 0.3739 0.9274
vn -0.0197 0.3981 0.9171
vn -0.0324 0.4153 0.9091
vn -0.0326 0.4204 0.9068
vn -0.0107 0.4692 0.8830
vn -0.0077 0.4648 0.8854
vn -0.0188 0.4569 0.8893
vn -0.0188 0.4491 0.8933
vn -0.0322 0.4412 0.8968
vn -0.0289 0.4662 0.8842
vn -0.0298 0.4532 0.8909
vn -0.0461 0.4677 0.8827
vn -0.0491 0.4577 0.8878
vn -0.0150 0.3855 0.9226
vn -0.0264 0.4047 0.9141
vn -0.0254 0.4098 0.9118
# 47 vertex normals

vt 0.4703 0.0256 0.0000
vt 0.4705 0.0204 0.0000
vt 0.5238 0.0256 0.0000
vt 0.5243 0.0204 0.0000
vt 0.5210 0.0586 0.0000
vt 0.5171 0.1048 0.0000
vt 0.4687 0.0591 0.0000
vt 0.5137 0.1478 0.0000
vt 0.4682 0.1054 0.0000
vt 0.3745 0.0596 0.0000
vt 0.3757 0.0253 0.0000
vt 0.4230 0.0255 0.0000
vt 0.3298 0.0252 0.0000
vt 0.3302 0.0598 0.0000
vt 0.2450 0.0250 0.0000
vt 0.2858 0.0600 0.0000
vt 0.2504 0.0602 0.0000
vt 0.2064 0.0250 0.0000
vt 0.2150 0.0604 0.0000
vt 0.2026 0.0603 0.0000
vt 0.4216 0.0594 0.0000
vt 0.4229 0.1057 0.0000
vt 0.3776 0.1059 0.0000
vt 0.3364 0.1056 0.0000
vt 0.2511 0.1044 0.0000
vt 0.2951 0.1053 0.0000
vt 0.2137 0.1049 0.0000
vt 0.2003 0.0784 0.0000
vt 0.3886 0.1449 0.0000
vt 0.4723 0.1479 0.0000
vt 0.4304 0.1464 0.0000
vt 0.4233 0.0203 0.0000
vt 0.3300 0.0200 0.0000
vt 0.2455 0.0196 0.0000
vt 0.2071 0.0195 0.0000
vt 0.4737 0.1602 0.0000
vt 0.5123 0.1618 0.0000
vt 0.3906 0.1515 0.0000
vt 0.4322 0.1558 0.0000
vt 0.3520 0.1438 0.0000
vt 0.3134 0.1361 0.0000
vt 0.3510 0.1406 0.0000
vt 0.2793 0.1262 0.0000
vt 0.2453 0.1163 0.0000
vt 0.3760 0.0203 0.0000
vt 0.2837 0.0250 0.0000
vt 0.2840 0.0196 0.0000
# 47 texture coords

g E317_325B_R_DTaSI_E317_325B_R
usemtl windowglass_1SG
s 1
f 1/1/1 2/2/2 3/3/3 
f 2/2/2 4/4/4 3/3/3 
f 3/3/3 5/5/5 1/1/1 
f 5/5/5 6/6/6 7/7/7 
f 6/6/6 8/8/8 9/9/9 
f 10/10/10 11/11/11 12/12/12 
f 12/12/12 1/1/1 7/7/7 
f 13/13/13 10/10/10 14/14/14 
f 15/15/15 16/16/16 17/17/17 
f 18/18/18 19/19/19 20/20/20 
f 21/21/21 9/9/9 22/22/22 
f 14/14/14 23/23/23 24/24/24 
f 19/19/19 17/17/17 25/25/25 
f 17/17/17 26/26/26 25/25/25 
f 25/25/25 27/27/27 19/19/19 
f 27/27/27 28/28/28 19/19/19 
f 19/19/19 28/28/28 20/20/20 
f 23/23/23 22/22/22 29/29/29 
f 22/22/22 30/30/30 31/31/31 
f 32/32/32 1/1/1 12/12/12 
f 13/13/13 33/33/33 11/11/11 
f 34/34/34 15/15/15 35/35/35 
f 30/30/30 8/8/8 36/36/36 
f 8/8/8 37/37/37 36/36/36 
f 29/29/29 31/31/31 38/38/38 
f 30/30/30 36/36/36 39/39/39 
f 40/40/40 29/29/29 38/38/38 
f 26/26/26 24/24/24 41/41/41 
f 23/23/23 29/29/29 42/42/42 
f 41/41/41 43/43/43 26/26/26 
f 27/27/27 25/25/25 44/44/44 
f 10/10/10 21/21/21 23/23/23 
f 7/7/7 9/9/9 21/21/21 
f 16/16/16 14/14/14 26/26/26 
f 10/10/10 23/23/23 14/14/14 
f 14/14/14 24/24/24 26/26/26 
f 31/31/31 39/39/39 38/38/38 
f 21/21/21 22/22/22 23/23/23 
f 9/9/9 30/30/30 22/22/22 
f 22/22/22 31/31/31 29/29/29 
f 33/33/33 45/45/45 11/11/11 
f 11/11/11 10/10/10 13/13/13 
f 46/46/46 13/13/13 16/16/16 
f 46/46/46 47/47/47 13/13/13 
f 21/21/21 12/12/12 7/7/7 
f 12/12/12 11/11/11 45/45/45 
f 2/2/2 1/1/1 32/32/32 
f 10/10/10 12/12/12 21/21/21 
f 13/13/13 14/14/14 16/16/16 
f 47/47/47 33/33/33 13/13/13 
f 32/32/32 12/12/12 45/45/45 
f 18/18/18 15/15/15 19/19/19 
f 46/46/46 16/16/16 15/15/15 
f 15/15/15 17/17/17 19/19/19 
f 16/16/16 26/26/26 17/17/17 
f 43/43/43 25/25/25 26/26/26 
f 25/25/25 43/43/43 44/44/44 
f 41/41/41 42/42/42 40/40/40 
f 42/42/42 29/29/29 40/40/40 
f 24/24/24 42/42/42 41/41/41 
f 15/15/15 18/18/18 35/35/35 
f 47/47/47 46/46/46 34/34/34 
f 8/8/8 30/30/30 9/9/9 
f 6/6/6 9/9/9 7/7/7 
f 5/5/5 7/7/7 1/1/1 
f 23/23/23 42/42/42 24/24/24 
f 30/30/30 39/39/39 31/31/31 
f 46/46/46 15/15/15 34/34/34 
# 68 faces

