# 3ds Max Wavefront OBJ Exporter v0.97b - (c)2007 guruware
# File Created: 30.11.2015 12:50:23

mtllib P157_325B_R.mtl

#
# object P157_325B_R_DTaSI_P157_325B_R
#

v  -74.2529 53.0913 90.9120
v  -74.2303 48.4694 92.6200
v  -62.1357 52.6197 91.3040
v  -62.1132 48.0053 93.0022
v  -49.1136 52.1237 91.6861
v  -49.0909 47.5186 93.3738
v  -116.6071 55.0414 88.9239
v  -116.2587 50.3970 90.6792
v  -107.0623 54.5799 89.4581
v  -107.0397 49.9481 91.1895
v  -96.5966 54.0748 89.9834
v  -96.5740 49.4401 91.7068
v  -85.6916 53.5753 90.4714
v  -85.6690 48.9451 92.1872
v  -49.1174 57.4973 89.6785
v  -62.1378 57.9727 89.2876
v  -74.2508 58.4341 88.8820
v  -74.1695 64.3753 86.4968
v  -62.0861 63.9360 86.9204
v  -49.0771 63.4901 87.3189
v  -107.0620 59.9234 87.3780
v  -106.9931 65.8244 84.9298
v  -117.0093 60.3996 86.8064
v  -117.4520 66.2926 84.3229
v  -96.5935 59.4208 87.9240
v  -96.5053 65.3409 85.4943
v  -85.6877 58.9186 88.4280
v  -85.5934 64.8486 86.0207
v  -48.9701 70.0226 84.5461
v  -61.9538 70.4418 84.1447
v  -73.9675 70.8425 83.7066
v  -73.6863 77.4079 80.6393
v  -61.7516 77.1298 81.0453
v  -48.7907 76.7918 81.4228
v  -96.2518 71.7195 82.6686
v  -106.7512 72.1650 82.0995
v  -117.7391 69.6042 82.8234
v  -116.7672 72.5961 81.5143
v  -113.9391 79.3191 78.3961
v  -105.8478 78.3433 79.1617
v  -95.7038 77.9782 79.6938
v  -85.3548 71.2753 83.2088
v  -84.9966 77.6938 80.1799
v  -38.2896 63.1151 87.6224
v  -38.9539 69.6811 84.8199
v  -39.6426 76.4994 81.6645
v  -37.1295 51.6554 92.0335
v  -37.6778 57.0724 90.0082
v  -36.6631 47.0456 93.7261
v  -112.3977 82.6546 76.6788
v  -110.4306 83.9156 76.0695
v  -111.5745 84.2593 75.8375
v  -108.3733 86.7116 74.5311
v  -109.4879 86.3592 74.6925
v  -110.6865 85.3910 75.2132
v  -73.0742 88.7813 74.5980
v  -61.2379 89.0396 74.7484
v  -72.9272 90.8284 73.3578
v  -61.0862 91.6118 73.1916
v  -84.0325 89.8110 73.6291
v  -84.1567 88.4080 74.4787
v  -93.9528 88.0008 74.3720
v  -93.8366 88.7800 73.9001
v  -73.3803 83.5574 77.4963
v  -61.5023 83.5321 77.7913
v  -48.5464 83.3741 78.1018
v  -94.8188 83.5026 76.8619
v  -84.5701 83.5380 77.1824
v  -102.0417 87.2787 74.4561
v  -101.8178 87.7816 74.1785
v  -103.7066 83.5201 76.5320
v  -40.3141 83.1636 78.3107
v  -97.0385 46.2857 92.8796
v  -107.7638 46.8072 92.3499
v  -85.8630 45.7796 93.3710
v  -74.1405 45.2975 93.8121
v  -61.7228 44.8340 94.1988
v  -48.3775 44.3565 94.5711
v  -36.2953 43.9221 94.9039
v  -116.0351 47.2107 91.8923
v  -48.1051 92.1561 73.1229
v  -48.2790 89.0838 74.9740
v  -40.8968 88.9554 75.1505
v  -41.0797 90.5932 74.1640
v  -41.6329 91.5152 73.6020
v  -42.2783 91.9762 73.3158
v  -43.1543 92.2067 73.1648
# 87 vertices

vn -0.0191 0.3510 0.9362
vn -0.0187 0.3484 0.9372
vn -0.0156 0.3490 0.9370
vn -0.0151 0.3477 0.9375
vn -0.0140 0.3472 0.9377
vn -0.0136 0.3470 0.9377
vn -0.0355 0.3587 0.9328
vn -0.0350 0.3516 0.9355
vn -0.0325 0.3565 0.9337
vn -0.0318 0.3509 0.9359
vn -0.0278 0.3541 0.9348
vn -0.0273 0.3497 0.9365
vn -0.0235 0.3525 0.9355
vn -0.0232 0.3489 0.9369
vn -0.0141 0.3587 0.9333
vn -0.0161 0.3612 0.9324
vn -0.0196 0.3642 0.9311
vn -0.0205 0.3852 0.9226
vn -0.0167 0.3816 0.9242
vn -0.0139 0.3794 0.9251
vn -0.0330 0.3735 0.9271
vn -0.0333 0.3965 0.9174
vn -0.0358 0.3765 0.9257
vn -0.0357 0.3970 0.9171
vn -0.0283 0.3701 0.9286
vn -0.0291 0.3933 0.9189
vn -0.0239 0.3671 0.9299
vn -0.0247 0.3893 0.9208
vn -0.0133 0.4054 0.9140
vn -0.0171 0.4072 0.9132
vn -0.0217 0.4106 0.9115
vn -0.0225 0.4400 0.8977
vn -0.0174 0.4374 0.8991
vn -0.0132 0.4350 0.9003
vn -0.0295 0.4188 0.9076
vn -0.0327 0.4210 0.9065
vn -0.0355 0.4099 0.9115
vn -0.0346 0.4239 0.9051
vn -0.0320 0.4417 0.8966
vn -0.0313 0.4451 0.8950
vn -0.0297 0.4441 0.8955
vn -0.0263 0.4150 0.9094
vn -0.0272 0.4422 0.8965
vn -0.0128 0.3781 0.9257
vn -0.0114 0.4041 0.9147
vn -0.0100 0.4323 0.9017
vn -0.0136 0.3462 0.9381
vn -0.0135 0.3573 0.9339
vn -0.0134 0.3470 0.9378
vn -0.0271 0.4680 0.8833
vn -0.0303 0.4760 0.8789
vn -0.0312 0.4857 0.8736
vn -0.0317 0.4974 0.8670
vn -0.0318 0.5000 0.8655
vn -0.0261 0.4984 0.8666
vn -0.0235 0.4953 0.8684
vn -0.0187 0.4950 0.8687
vn -0.0241 0.5192 0.8543
vn -0.0192 0.5183 0.8550
vn -0.0284 0.5196 0.8539
vn -0.0277 0.4942 0.8689
vn -0.0315 0.4931 0.8694
vn -0.0326 0.5212 0.8528
vn -0.0229 0.4696 0.8826
vn -0.0179 0.4677 0.8837
vn -0.0142 0.4649 0.8852
vn -0.0305 0.4722 0.8810
vn -0.0271 0.4708 0.8818
vn -0.0330 0.4931 0.8693
vn -0.0349 0.4965 0.8673
vn -0.0317 0.4742 0.8798
vn -0.0100 0.4615 0.8871
vn -0.0272 0.3519 0.9356
vn -0.0318 0.3528 0.9351
vn -0.0230 0.3514 0.9359
vn -0.0183 0.3513 0.9361
vn -0.0146 0.3514 0.9361
vn -0.0133 0.3514 0.9361
vn -0.0131 0.3514 0.9361
vn -0.0345 0.3535 0.9348
vn -0.0154 0.5166 0.8561
vn -0.0153 0.4935 0.8696
vn -0.0112 0.4861 0.8738
vn -0.0118 0.5155 0.8568
vn -0.0125 0.5149 0.8571
vn -0.0125 0.5147 0.8573
vn -0.0125 0.5142 0.8576
# 87 vertex normals

vt 0.3688 0.0662 0.0000
vt 0.3695 0.0499 0.0000
vt 0.4116 0.0660 0.0000
vt 0.4123 0.0498 0.0000
vt 0.4576 0.0659 0.0000
vt 0.4582 0.0496 0.0000
vt 0.2193 0.0680 0.0000
vt 0.2211 0.0516 0.0000
vt 0.2530 0.0675 0.0000
vt 0.2537 0.0512 0.0000
vt 0.2900 0.0670 0.0000
vt 0.2906 0.0507 0.0000
vt 0.3285 0.0666 0.0000
vt 0.3291 0.0502 0.0000
vt 0.4569 0.0848 0.0000
vt 0.4110 0.0849 0.0000
vt 0.3682 0.0851 0.0000
vt 0.3678 0.1060 0.0000
vt 0.4104 0.1059 0.0000
vt 0.4563 0.1059 0.0000
vt 0.2524 0.0863 0.0000
vt 0.2519 0.1071 0.0000
vt 0.2173 0.0868 0.0000
vt 0.2150 0.1075 0.0000
vt 0.2893 0.0858 0.0000
vt 0.2889 0.1067 0.0000
vt 0.3278 0.0854 0.0000
vt 0.3274 0.1063 0.0000
vt 0.4559 0.1290 0.0000
vt 0.4101 0.1289 0.0000
vt 0.3677 0.1288 0.0000
vt 0.3679 0.1520 0.0000
vt 0.4100 0.1525 0.0000
vt 0.4557 0.1529 0.0000
vt 0.2890 0.1292 0.0000
vt 0.2520 0.1295 0.0000
vt 0.2136 0.1192 0.0000
vt 0.2166 0.1298 0.0000
vt 0.2258 0.1539 0.0000
vt 0.2544 0.1514 0.0000
vt 0.2902 0.1514 0.0000
vt 0.3275 0.1290 0.0000
vt 0.3280 0.1516 0.0000
vt 0.4944 0.1059 0.0000
vt 0.4913 0.1290 0.0000
vt 0.4880 0.1529 0.0000
vt 0.4999 0.0657 0.0000
vt 0.4973 0.0847 0.0000
vt 0.5021 0.0495 0.0000
vt 0.2308 0.1658 0.0000
vt 0.2376 0.1705 0.0000
vt 0.2335 0.1716 0.0000
vt 0.2445 0.1806 0.0000
vt 0.2406 0.1792 0.0000
vt 0.2365 0.1757 0.0000
vt 0.3687 0.1922 0.0000
vt 0.4104 0.1945 0.0000
vt 0.3689 0.1994 0.0000
vt 0.4106 0.2036 0.0000
vt 0.3299 0.1945 0.0000
vt 0.3297 0.1895 0.0000
vt 0.2952 0.1869 0.0000
vt 0.2955 0.1897 0.0000
vt 0.3682 0.1737 0.0000
vt 0.4101 0.1751 0.0000
vt 0.4558 0.1761 0.0000
vt 0.2927 0.1709 0.0000
vt 0.3288 0.1723 0.0000
vt 0.2668 0.1834 0.0000
vt 0.2675 0.1852 0.0000
vt 0.2613 0.1699 0.0000
vt 0.4848 0.1763 0.0000
vt 0.2894 0.0395 0.0000
vt 0.2515 0.0400 0.0000
vt 0.3288 0.0391 0.0000
vt 0.3702 0.0388 0.0000
vt 0.4140 0.0386 0.0000
vt 0.4611 0.0386 0.0000
vt 0.5037 0.0385 0.0000
vt 0.2223 0.0404 0.0000
vt 0.4563 0.2071 0.0000
vt 0.4560 0.1962 0.0000
vt 0.4821 0.1967 0.0000
vt 0.4812 0.2024 0.0000
vt 0.4792 0.2056 0.0000
vt 0.4768 0.2072 0.0000
vt 0.4737 0.2079 0.0000
# 87 texture coords

g P157_325B_R_DTaSI_P157_325B_R
usemtl windowglass_1SG
s 1
f 1/1/1 2/2/2 3/3/3 
f 3/3/3 2/2/2 4/4/4 
f 3/3/3 4/4/4 5/5/5 
f 5/5/5 4/4/4 6/6/6 
f 7/7/7 8/8/8 9/9/9 
f 9/9/9 8/8/8 10/10/10 
f 9/9/9 10/10/10 11/11/11 
f 11/11/11 10/10/10 12/12/12 
f 11/11/11 12/12/12 13/13/13 
f 13/13/13 12/12/12 14/14/14 
f 13/13/13 14/14/14 1/1/1 
f 1/1/1 14/14/14 2/2/2 
f 5/5/5 15/15/15 3/3/3 
f 3/3/3 15/15/15 16/16/16 
f 3/3/3 16/16/16 1/1/1 
f 1/1/1 16/16/16 17/17/17 
f 18/18/18 17/17/17 19/19/19 
f 19/19/19 17/17/17 16/16/16 
f 19/19/19 16/16/16 20/20/20 
f 20/20/20 16/16/16 15/15/15 
f 21/21/21 22/22/22 23/23/23 
f 23/23/23 22/22/22 24/24/24 
f 11/11/11 25/25/25 9/9/9 
f 9/9/9 25/25/25 21/21/21 
f 9/9/9 21/21/21 7/7/7 
f 7/7/7 21/21/21 23/23/23 
f 22/22/22 21/21/21 26/26/26 
f 26/26/26 21/21/21 25/25/25 
f 1/1/1 17/17/17 13/13/13 
f 13/13/13 17/17/17 27/27/27 
f 13/13/13 27/27/27 11/11/11 
f 11/11/11 27/27/27 25/25/25 
f 26/26/26 25/25/25 28/28/28 
f 28/28/28 25/25/25 27/27/27 
f 28/28/28 27/27/27 18/18/18 
f 18/18/18 27/27/27 17/17/17 
f 20/20/20 29/29/29 19/19/19 
f 19/19/19 29/29/29 30/30/30 
f 19/19/19 30/30/30 18/18/18 
f 18/18/18 30/30/30 31/31/31 
f 32/32/32 31/31/31 33/33/33 
f 33/33/33 31/31/31 30/30/30 
f 33/33/33 30/30/30 34/34/34 
f 34/34/34 30/30/30 29/29/29 
f 26/26/26 35/35/35 22/22/22 
f 22/22/22 35/35/35 36/36/36 
f 22/22/22 36/36/36 24/24/24 
f 24/24/24 36/36/36 37/37/37 
f 38/38/38 37/37/37 36/36/36 
f 38/38/38 36/36/36 39/39/39 
f 39/39/39 36/36/36 40/40/40 
f 41/41/41 40/40/40 35/35/35 
f 35/35/35 40/40/40 36/36/36 
f 18/18/18 31/31/31 28/28/28 
f 28/28/28 31/31/31 42/42/42 
f 28/28/28 42/42/42 26/26/26 
f 26/26/26 42/42/42 35/35/35 
f 35/35/35 42/42/42 41/41/41 
f 41/41/41 42/42/42 43/43/43 
f 43/43/43 42/42/42 32/32/32 
f 32/32/32 42/42/42 31/31/31 
f 44/44/44 45/45/45 20/20/20 
f 20/20/20 45/45/45 29/29/29 
f 34/34/34 29/29/29 46/46/46 
f 46/46/46 29/29/29 45/45/45 
f 47/47/47 48/48/48 5/5/5 
f 5/5/5 48/48/48 15/15/15 
f 20/20/20 15/15/15 44/44/44 
f 44/44/44 15/15/15 48/48/48 
f 5/5/5 6/6/6 47/47/47 
f 47/47/47 6/6/6 49/49/49 
f 50/50/50 51/51/51 52/52/52 
f 53/53/53 54/54/54 51/51/51 
f 54/54/54 55/55/55 51/51/51 
f 55/55/55 52/52/52 51/51/51 
f 56/56/56 57/57/57 58/58/58 
f 58/58/58 57/57/57 59/59/59 
f 58/58/58 60/60/60 56/56/56 
f 56/56/56 60/60/60 61/61/61 
f 62/62/62 61/61/61 63/63/63 
f 63/63/63 61/61/61 60/60/60 
f 64/64/64 65/65/65 56/56/56 
f 56/56/56 65/65/65 57/57/57 
f 66/66/66 57/57/57 65/65/65 
f 66/66/66 65/65/65 34/34/34 
f 34/34/34 65/65/65 33/33/33 
f 32/32/32 33/33/33 64/64/64 
f 64/64/64 33/33/33 65/65/65 
f 67/67/67 68/68/68 62/62/62 
f 62/62/62 68/68/68 61/61/61 
f 56/56/56 61/61/61 64/64/64 
f 64/64/64 61/61/61 68/68/68 
f 64/64/64 68/68/68 32/32/32 
f 32/32/32 68/68/68 43/43/43 
f 41/41/41 43/43/43 67/67/67 
f 67/67/67 43/43/43 68/68/68 
f 69/69/69 62/62/62 70/70/70 
f 70/70/70 62/62/62 63/63/63 
f 71/71/71 51/51/51 40/40/40 
f 39/39/39 40/40/40 50/50/50 
f 50/50/50 40/40/40 51/51/51 
f 70/70/70 53/53/53 69/69/69 
f 67/67/67 71/71/71 41/41/41 
f 41/41/41 71/71/71 40/40/40 
f 66/66/66 34/34/34 72/72/72 
f 72/72/72 34/34/34 46/46/46 
f 71/71/71 67/67/67 69/69/69 
f 69/69/69 67/67/67 62/62/62 
f 51/51/51 71/71/71 53/53/53 
f 53/53/53 71/71/71 69/69/69 
f 12/12/12 10/10/10 73/73/73 
f 73/73/73 10/10/10 74/74/74 
f 14/14/14 12/12/12 75/75/75 
f 75/75/75 12/12/12 73/73/73 
f 76/76/76 2/2/2 75/75/75 
f 75/75/75 2/2/2 14/14/14 
f 77/77/77 4/4/4 76/76/76 
f 76/76/76 4/4/4 2/2/2 
f 78/78/78 6/6/6 77/77/77 
f 77/77/77 6/6/6 4/4/4 
f 6/6/6 78/78/78 49/49/49 
f 49/49/49 78/78/78 79/79/79 
f 10/10/10 8/8/8 74/74/74 
f 74/74/74 8/8/8 80/80/80 
f 81/81/81 59/59/59 82/82/82 
f 82/82/82 59/59/59 57/57/57 
f 82/82/82 57/57/57 66/66/66 
f 82/82/82 66/66/66 83/83/83 
f 83/83/83 66/66/66 72/72/72 
f 82/82/82 84/84/84 81/81/81 
f 84/84/84 85/85/85 81/81/81 
f 85/85/85 86/86/86 81/81/81 
f 86/86/86 87/87/87 81/81/81 
f 84/84/84 82/82/82 83/83/83 
# 134 faces

