# 3ds Max Wavefront OBJ Exporter v0.97b - (c)2007 guruware
# File Created: 13.11.2015 13:39:48

mtllib X6164_20_182C_C.mtl

#
# object X6164_20_182C_C_D_X6164_20_182C_C
#

v  141.2170 40.1691 36.0621
v  140.2129 40.7054 36.0883
v  139.0468 40.1981 46.7515
v  138.4905 40.4980 46.7646
v  142.9456 40.1261 24.5264
v  141.5487 40.8657 24.5559
v  145.2502 38.4743 35.4046
v  146.9602 38.4607 24.0390
v  143.1024 38.4724 46.0149
v  142.4187 40.9694 12.4449
v  144.0973 40.0864 12.4262
v  142.7455 41.0071 0.0000
v  144.5368 40.0674 0.0000
v  148.0990 38.4433 12.1698
v  148.5334 38.4335 0.0000
v  152.0673 37.5721 12.1399
v  152.7770 37.5449 0.0000
v  151.1918 37.6872 11.8268
v  151.6122 37.6889 0.0000
v  150.0893 37.6765 23.3839
v  146.3552 37.6058 44.9802
v  148.4340 37.6513 34.5071
v  136.1943 40.1975 57.4851
v  140.6503 38.4432 55.6190
v  138.2056 38.3633 64.0469
v  134.2227 40.0320 64.6871
v  143.9820 37.5347 54.5868
v  141.6156 37.4337 63.1405
v  150.9486 37.5562 23.5293
v  149.4705 37.5060 34.0857
v  147.6797 37.4363 43.7038
v  145.2809 37.3418 53.7132
v  142.6131 37.3033 62.2264
v  138.1561 37.6670 70.7339
v  136.0804 38.2095 71.1288
v  131.7697 38.8665 77.4561
v  135.1902 38.0768 74.4446
v  132.0787 39.7256 71.8842
v  152.3944 39.0540 12.1403
v  153.1061 39.0365 0.0000
v  151.2725 39.0228 23.5298
v  149.7903 38.9521 34.0861
v  147.9944 38.8577 43.7042
v  145.2808 37.3418 53.7132
v  145.5888 38.7300 53.7137
v  142.6132 37.3033 62.2264
v  142.9134 38.6545 62.2269
v  140.6969 37.3691 66.4683
v  140.9917 38.6936 66.4688
v  138.4437 38.9563 70.7344
v  135.4693 39.3249 74.4450
v  132.0391 40.0670 77.4565
v  130.2006 39.4968 77.7498
v  129.7941 39.4477 78.6122
v  141.2170 40.1691 -36.0621
v  139.0468 40.1981 -46.7515
v  140.2129 40.7054 -36.0883
v  138.4905 40.4980 -46.7646
v  142.9456 40.1261 -24.5264
v  141.5487 40.8657 -24.5559
v  145.2502 38.4743 -35.4046
v  146.9602 38.4607 -24.0390
v  143.1024 38.4724 -46.0149
v  142.4187 40.9694 -12.4449
v  144.0973 40.0864 -12.4262
v  148.0990 38.4433 -12.1698
v  152.0673 37.5721 -12.1399
v  151.1918 37.6872 -11.8267
v  150.0893 37.6765 -23.3839
v  146.3552 37.6058 -44.9802
v  148.4340 37.6513 -34.5071
v  136.1943 40.1975 -57.4851
v  140.6503 38.4432 -55.6190
v  138.2056 38.3633 -64.0469
v  134.2227 40.0320 -64.6871
v  143.9820 37.5347 -54.5868
v  141.6156 37.4337 -63.1405
v  150.9486 37.5562 -23.5293
v  149.4705 37.5060 -34.0857
v  147.6797 37.4363 -43.7038
v  145.2809 37.3418 -53.7132
v  142.6131 37.3033 -62.2264
v  138.1561 37.6670 -70.7339
v  136.0804 38.2095 -71.1288
v  131.7697 38.8665 -77.4561
v  132.0787 39.7256 -71.8842
v  135.1902 38.0768 -74.4446
v  152.3944 39.0540 -12.1403
v  151.2725 39.0228 -23.5298
v  149.7903 38.9521 -34.0861
v  147.9944 38.8577 -43.7042
v  145.2808 37.3418 -53.7132
v  145.5888 38.7300 -53.7137
v  142.6132 37.3033 -62.2264
v  142.9134 38.6545 -62.2269
v  140.6969 37.3691 -66.4683
v  140.9917 38.6936 -66.4688
v  138.4437 38.9563 -70.7344
v  135.4693 39.3249 -74.4450
v  132.0391 40.0670 -77.4565
v  130.2006 39.4968 -77.7498
v  129.7941 39.4477 -78.6122
# 102 vertices

vn 0.4127 0.9081 0.0716
vn 0.4713 0.8783 0.0806
vn 0.4134 0.9054 0.0972
vn 0.4736 0.8736 0.1115
vn 0.4099 0.9108 0.0483
vn 0.4682 0.8820 0.0544
vn 0.3402 0.9385 0.0588
vn 0.3297 0.9433 0.0389
vn 0.3506 0.9331 0.0805
vn 0.4657 0.8845 0.0283
vn 0.4073 0.9130 0.0251
vn 0.4647 0.8855 -0.0000
vn 0.4061 0.9138 -0.0000
vn 0.3215 0.9467 0.0199
vn 0.3182 0.9480 -0.0000
vn 0.1273 0.9918 0.0097
vn 0.1286 0.9917 0.0053
vn 0.2132 0.9769 0.0133
vn 0.1227 0.9924 0.0045
vn 0.2040 0.9790 -0.0000
vn 0.2238 0.9743 0.0268
vn 0.2490 0.9667 0.0587
vn 0.2362 0.9708 0.0416
vn 0.4057 0.9061 0.1203
vn 0.3576 0.9283 0.1016
vn 0.3521 0.9285 0.1179
vn 0.3963 0.9076 0.1385
vn 0.2612 0.9623 0.0755
vn 0.2749 0.9571 0.0913
vn 0.1354 0.9906 0.0191
vn 0.1495 0.9884 0.0276
vn 0.1634 0.9858 0.0389
vn 0.1820 0.9818 0.0541
vn 0.1865 0.9804 0.0636
vn 0.2741 0.9562 0.1026
vn 0.3504 0.9269 0.1344
vn 0.3747 0.9128 0.1627
vn 0.3562 0.9223 0.1498
vn 0.3700 0.9166 0.1518
vn -0.9749 0.2152 -0.0575
vn -0.9749 0.2151 -0.0575
vn -0.9700 0.2143 -0.1145
vn -0.9700 0.2143 -0.1146
vn -0.9720 0.2148 -0.0952
vn -0.9721 0.2146 -0.0952
vn -0.9645 0.2133 -0.1555
vn -0.9647 0.2133 -0.1544
vn -0.9560 0.2117 -0.2031
vn -0.9563 0.2118 -0.2014
vn -0.9432 0.2094 -0.2579
vn -0.9439 0.2095 -0.2551
vn -0.9202 0.2046 -0.3337
vn -0.9219 0.2050 -0.3288
vn -0.8647 0.1926 -0.4638
vn -0.8670 0.1931 -0.4593
vn -0.8010 0.1789 -0.5714
vn -0.8037 0.1794 -0.5673
vn -0.7009 0.1570 -0.6958
vn -0.7035 0.1575 -0.6930
vn -0.6353 0.1428 -0.7589
vn -0.6353 0.1429 -0.7589
vn 0.2658 0.9596 0.0920
vn 0.3953 0.9011 0.1782
vn 0.4002 0.8847 0.2391
vn 0.4127 0.9081 -0.0716
vn 0.4134 0.9054 -0.0972
vn 0.4713 0.8783 -0.0806
vn 0.4736 0.8736 -0.1115
vn 0.4099 0.9108 -0.0483
vn 0.4682 0.8819 -0.0544
vn 0.3402 0.9385 -0.0588
vn 0.3297 0.9433 -0.0389
vn 0.3506 0.9331 -0.0805
vn 0.4657 0.8845 -0.0283
vn 0.4073 0.9130 -0.0251
vn 0.3215 0.9467 -0.0199
vn 0.1273 0.9918 -0.0097
vn 0.2132 0.9769 -0.0133
vn 0.1286 0.9917 -0.0053
vn 0.1227 0.9924 -0.0045
vn 0.2238 0.9743 -0.0268
vn 0.2490 0.9667 -0.0587
vn 0.2362 0.9708 -0.0416
vn 0.4057 0.9061 -0.1203
vn 0.3576 0.9283 -0.1016
vn 0.3521 0.9285 -0.1179
vn 0.3963 0.9076 -0.1385
vn 0.2612 0.9623 -0.0755
vn 0.2749 0.9571 -0.0913
vn 0.1354 0.9906 -0.0191
vn 0.1495 0.9884 -0.0276
vn 0.1634 0.9858 -0.0389
vn 0.1820 0.9818 -0.0541
vn 0.1865 0.9804 -0.0636
vn 0.2741 0.9562 -0.1026
vn 0.3504 0.9269 -0.1344
vn 0.3747 0.9128 -0.1627
vn 0.3700 0.9166 -0.1518
vn 0.3562 0.9223 -0.1498
vn -0.9749 0.2152 0.0575
vn -0.9749 0.2151 0.0575
vn -0.9700 0.2143 0.1145
vn -0.9720 0.2148 0.0952
vn -0.9700 0.2143 0.1146
vn -0.9721 0.2146 0.0952
vn -0.9645 0.2133 0.1555
vn -0.9647 0.2133 0.1544
vn -0.9560 0.2117 0.2031
vn -0.9563 0.2118 0.2014
vn -0.9432 0.2093 0.2579
vn -0.9439 0.2095 0.2551
vn -0.9202 0.2047 0.3337
vn -0.9219 0.2050 0.3288
vn -0.8647 0.1926 0.4638
vn -0.8670 0.1931 0.4593
vn -0.8010 0.1789 0.5714
vn -0.8037 0.1794 0.5673
vn -0.7009 0.1570 0.6958
vn -0.7035 0.1575 0.6930
vn -0.6353 0.1428 0.7589
vn -0.6353 0.1429 0.7589
vn 0.2658 0.9596 -0.0920
vn 0.3953 0.9011 -0.1782
vn 0.4002 0.8847 -0.2391
# 124 vertex normals

g X6164_20_182C_C_D_X6164_20_182C_C
usemtl diffuse_black_plasticSG
s 1
f 1//1 2//2 3//3 
f 2//2 4//4 3//3 
f 5//5 6//6 1//1 
f 6//6 2//2 1//1 
f 1//1 7//7 5//5 
f 5//5 7//7 8//8 
f 7//7 1//1 9//9 
f 1//1 3//3 9//9 
f 10//10 11//11 12//12 
f 12//12 11//11 13//13 
f 11//11 14//14 13//13 
f 13//13 14//14 15//15 
f 5//5 8//8 11//11 
f 11//11 8//8 14//14 
f 11//11 10//10 5//5 
f 10//10 6//6 5//5 
f 16//16 17//17 18//18 
f 18//18 17//19 19//20 
f 8//8 20//21 14//14 
f 18//18 14//14 20//21 
f 14//14 18//18 15//15 
f 18//18 19//20 15//15 
f 9//9 21//22 7//7 
f 22//23 7//7 21//22 
f 7//7 22//23 8//8 
f 22//23 20//21 8//8 
f 23//24 24//25 3//3 
f 3//3 24//25 9//9 
f 24//25 23//24 25//26 
f 23//24 26//27 25//26 
f 27//28 24//25 28//29 
f 28//29 24//25 25//26 
f 24//25 27//28 9//9 
f 27//28 21//22 9//9 
f 18//18 20//21 16//16 
f 20//21 29//30 16//16 
f 22//23 30//31 20//21 
f 20//21 30//31 29//30 
f 21//22 31//32 22//23 
f 22//23 31//32 30//31 
f 31//32 21//22 32//33 
f 21//22 27//28 32//33 
f 28//29 33//34 27//28 
f 27//28 33//34 32//33 
f 28//29 25//26 34//35 
f 25//26 35//36 34//35 
f 36//37 37//38 38//39 
f 35//36 38//39 37//38 
f 38//39 35//36 26//27 
f 35//36 25//26 26//27 
s off
f 16//40 39//40 17//40 
f 17//41 39//41 40//41 
s 8
f 29//42 41//43 16//44 
s off
f 16//45 41//45 39//45 
s 8
f 30//46 42//47 29//42 
f 29//42 42//47 41//43 
f 31//48 43//49 30//46 
f 30//46 43//49 42//47 
f 44//50 45//51 31//48 
f 31//48 45//51 43//49 
f 46//52 47//53 44//50 
f 44//50 47//53 45//51 
f 48//54 49//55 46//52 
f 46//52 49//55 47//53 
f 34//56 50//57 48//54 
f 48//54 50//57 49//55 
f 37//58 51//59 34//56 
f 34//56 51//59 50//57 
f 37//58 36//60 51//59 
f 36//60 52//61 51//59 
s 1
f 23//24 3//3 4//4 
f 28//29 48//62 33//34 
f 34//35 48//62 28//29 
f 37//38 34//35 35//36 
f 38//39 53//63 36//37 
f 53//63 54//64 36//37 
f 55//65 56//66 57//67 
f 57//67 56//66 58//68 
f 59//69 55//65 60//70 
f 60//70 55//65 57//67 
f 55//65 59//69 61//71 
f 59//69 62//72 61//71 
f 61//71 63//73 55//65 
f 55//65 63//73 56//66 
f 64//74 12//12 65//75 
f 12//12 13//13 65//75 
f 65//75 13//13 66//76 
f 13//13 15//15 66//76 
f 59//69 65//75 62//72 
f 65//75 66//76 62//72 
f 65//75 59//69 64//74 
f 64//74 59//69 60//70 
f 67//77 68//78 17//79 
f 68//78 19//20 17//80 
f 62//72 66//76 69//81 
f 68//78 69//81 66//76 
f 66//76 15//15 68//78 
f 68//78 15//15 19//20 
f 63//73 61//71 70//82 
f 71//83 70//82 61//71 
f 61//71 62//72 71//83 
f 71//83 62//72 69//81 
f 72//84 56//66 73//85 
f 56//66 63//73 73//85 
f 73//85 74//86 72//84 
f 72//84 74//86 75//87 
f 76//88 77//89 73//85 
f 77//89 74//86 73//85 
f 73//85 63//73 76//88 
f 76//88 63//73 70//82 
f 68//78 67//77 69//81 
f 69//81 67//77 78//90 
f 71//83 69//81 79//91 
f 69//81 78//90 79//91 
f 70//82 71//83 80//92 
f 71//83 79//91 80//92 
f 80//92 81//93 70//82 
f 70//82 81//93 76//88 
f 77//89 76//88 82//94 
f 76//88 81//93 82//94 
f 77//89 83//95 74//86 
f 74//86 83//95 84//96 
f 85//97 86//98 87//99 
f 84//96 87//99 86//98 
f 86//98 75//87 84//96 
f 84//96 75//87 74//86 
s off
f 67//100 17//100 88//100 
f 17//101 40//101 88//101 
s 21
f 78//102 67//103 89//104 
s off
f 67//105 88//105 89//105 
s 21
f 79//106 78//102 90//107 
f 78//102 89//104 90//107 
f 80//108 79//106 91//109 
f 79//106 90//107 91//109 
f 92//110 80//108 93//111 
f 80//108 91//109 93//111 
f 94//112 92//110 95//113 
f 92//110 93//111 95//113 
f 96//114 94//112 97//115 
f 94//112 95//113 97//115 
f 83//116 96//114 98//117 
f 96//114 97//115 98//117 
f 87//118 83//116 99//119 
f 83//116 98//117 99//119 
f 87//118 99//119 85//120 
f 85//120 99//119 100//121 
s 1
f 72//84 58//68 56//66 
f 77//89 82//94 96//122 
f 83//95 77//89 96//122 
f 87//99 84//96 83//95 
f 86//98 85//97 101//123 
f 101//123 85//97 102//124 
# 152 faces

