# 3ds Max Wavefront OBJ Exporter v0.97b - (c)2007 guruware
# File Created: 06.11.2015 17:48:32

mtllib X6164_20_181C_R.mtl

#
# object X6164_20_181C_R_DaS_X6164_20_181C_R
#

v  72.3562 72.8995 75.7431
v  81.3776 67.7075 77.3127
v  73.1938 73.2677 74.4102
v  82.1656 68.1549 75.8736
v  64.5811 77.8175 73.0102
v  63.8406 77.3216 74.4160
v  63.0410 75.4290 76.2761
v  71.3768 71.4782 77.3950
v  79.7031 66.8447 78.7680
v  54.4675 78.9892 75.2520
v  55.6880 81.0942 73.2857
v  88.0772 61.2988 80.5356
v  85.7752 60.9998 81.0487
v  78.9974 65.4935 79.6237
v  91.0471 61.6253 79.1708
v  100.9085 55.2205 81.1488
v  96.8277 55.1623 82.5419
v  103.9531 54.5772 79.9202
v  91.9040 62.1585 77.6423
v  106.2840 48.7573 84.6305
v  110.5055 49.0604 83.0782
v  115.2207 43.3727 86.3369
v  118.8450 44.0306 84.6961
v  56.4681 81.7409 71.6914
v  70.6740 70.6652 77.9288
v  62.0385 75.3816 76.4017
v  93.4862 55.5589 82.8043
v  101.0571 49.6145 84.8845
v  114.3598 48.2563 81.7753
v  121.4418 44.5798 82.4401
v  47.8091 84.2773 72.3480
v  50.5627 84.3850 70.6140
v  47.1684 81.9908 74.2394
v  104.5947 46.3181 86.2099
v  109.3574 42.1032 87.9320
v  107.4801 42.9342 87.6887
v  108.1983 41.7560 88.2742
v  48.7869 85.1654 70.3281
# 38 vertices

vn 0.2943 0.7322 0.6142
vn 0.3289 0.7247 0.6055
vn 0.3719 0.8081 0.4568
vn 0.3946 0.7928 0.4645
vn 0.3381 0.8180 0.4653
vn 0.2522 0.7178 0.6490
vn 0.1813 0.6143 0.7680
vn 0.1980 0.6073 0.7694
vn 0.2159 0.5951 0.7741
vn 0.1653 0.6231 0.7644
vn 0.2179 0.7058 0.6740
vn 0.2175 0.5783 0.7863
vn 0.1324 0.4749 0.8700
vn 0.1297 0.4813 0.8669
vn 0.3239 0.6975 0.6393
vn 0.3059 0.6814 0.6649
vn 0.2039 0.5616 0.8019
vn 0.3737 0.7542 0.5399
vn 0.3949 0.7737 0.4954
vn 0.1899 0.5574 0.8082
vn 0.2850 0.6769 0.6786
vn 0.2003 0.5856 0.7854
vn 0.2984 0.7064 0.6419
vn 0.3019 0.8237 0.4799
vn 0.1142 0.4754 0.8723
vn 0.0886 0.4625 0.8822
vn 0.1245 0.4642 0.8769
vn 0.1194 0.4651 0.8772
vn 0.3452 0.7507 0.5633
vn 0.3360 0.7502 0.5694
vn 0.1833 0.7248 0.6641
vn 0.2770 0.8270 0.4892
vn 0.1268 0.6109 0.7815
vn 0.1235 0.4836 0.8666
vn 0.1257 0.4940 0.8603
vn 0.0919 0.4655 0.8803
vn 0.1068 0.4939 0.8629
vn 0.2456 0.8380 0.4873
# 38 vertex normals

vt 0.6637 0.2691 0.0000
vt 0.6812 0.2591 0.0000
vt 0.6653 0.2698 0.0000
vt 0.6827 0.2599 0.0000
vt 0.6486 0.2787 0.0000
vt 0.6472 0.2777 0.0000
vt 0.6457 0.2740 0.0000
vt 0.6618 0.2664 0.0000
vt 0.6780 0.2574 0.0000
vt 0.6290 0.2809 0.0000
vt 0.6314 0.2850 0.0000
vt 0.6942 0.2466 0.0000
vt 0.6897 0.2461 0.0000
vt 0.6766 0.2548 0.0000
vt 0.6999 0.2473 0.0000
vt 0.7190 0.2349 0.0000
vt 0.7111 0.2347 0.0000
vt 0.7250 0.2336 0.0000
vt 0.7016 0.2483 0.0000
vt 0.7295 0.2223 0.0000
vt 0.7376 0.2229 0.0000
vt 0.7468 0.2119 0.0000
vt 0.7538 0.2132 0.0000
vt 0.6329 0.2863 0.0000
vt 0.6605 0.2648 0.0000
vt 0.6437 0.2739 0.0000
vt 0.7047 0.2355 0.0000
vt 0.7193 0.2240 0.0000
vt 0.7451 0.2214 0.0000
vt 0.7588 0.2142 0.0000
vt 0.6161 0.2912 0.0000
vt 0.6215 0.2914 0.0000
vt 0.6149 0.2867 0.0000
vt 0.7262 0.2176 0.0000
vt 0.7354 0.2094 0.0000
vt 0.7318 0.2110 0.0000
vt 0.7332 0.2088 0.0000
vt 0.6180 0.2929 0.0000
# 38 texture coords

g X6164_20_181C_R_DaS_X6164_20_181C_R
usemtl paint_whiteSG
s 1
f 1/1/1 2/2/2 3/3/3 
f 3/3/3 2/2/2 4/4/4 
f 3/3/3 5/5/5 1/1/1 
f 1/1/1 5/5/5 6/6/6 
f 6/6/6 7/7/7 1/1/1 
f 8/8/8 1/1/1 7/7/7 
f 2/2/2 1/1/1 9/9/9 
f 8/8/8 9/9/9 1/1/1 
f 7/7/7 6/6/6 10/10/10 
f 10/10/10 6/6/6 11/11/11 
f 12/12/12 9/9/9 13/13/13 
f 14/14/14 13/13/13 9/9/9 
f 15/15/15 2/2/2 12/12/12 
f 12/12/12 2/2/2 9/9/9 
f 16/16/16 15/15/15 17/17/17 
f 12/12/12 17/17/17 15/15/15 
f 18/18/18 19/19/19 16/16/16 
f 15/15/15 16/16/16 19/19/19 
f 19/19/19 4/4/4 15/15/15 
f 15/15/15 4/4/4 2/2/2 
f 17/17/17 20/20/20 16/16/16 
f 20/20/20 21/21/21 16/16/16 
f 20/20/20 22/22/22 21/21/21 
f 21/21/21 22/22/22 23/23/23 
f 5/5/5 24/24/24 6/6/6 
f 24/24/24 11/11/11 6/6/6 
f 14/14/14 9/9/9 25/25/25 
f 25/25/25 9/9/9 8/8/8 
f 26/26/26 25/25/25 7/7/7 
f 25/25/25 8/8/8 7/7/7 
f 17/17/17 12/12/12 27/27/27 
f 13/13/13 27/27/27 12/12/12 
f 20/20/20 17/17/17 28/28/28 
f 27/27/27 28/28/28 17/17/17 
f 21/21/21 23/23/23 29/29/29 
f 29/29/29 23/23/23 30/30/30 
f 31/31/31 11/11/11 32/32/32 
f 11/11/11 24/24/24 32/32/32 
f 31/31/31 33/33/33 11/11/11 
f 11/11/11 33/33/33 10/10/10 
f 28/28/28 34/34/34 22/22/22 
f 22/22/22 34/34/34 35/35/35 
f 36/36/36 37/37/37 35/35/35 
f 16/16/16 21/21/21 18/18/18 
f 38/38/38 31/31/31 32/32/32 
f 10/10/10 26/26/26 7/7/7 
f 21/21/21 29/29/29 18/18/18 
f 35/35/35 34/34/34 36/36/36 
f 22/22/22 20/20/20 28/28/28 
# 49 faces

#
# object X6164_20_181C_R_X6164_20_181C_R_2_D
#

v  64.7481 76.8715 72.2727
v  56.7357 80.9811 70.9665
v  64.8258 77.1385 72.2729
v  56.7906 81.1365 70.9666
v  131.7697 38.8665 77.4561
v  127.6442 40.0801 79.8704
v  132.0391 40.0670 77.4565
v  127.9018 41.2231 79.8708
v  124.1386 41.0756 81.1119
v  124.3861 42.1698 81.1123
v  120.9033 42.3834 81.6121
v  121.1416 43.4326 81.6125
v  113.9092 46.2201 80.9537
v  114.1275 47.1719 80.9540
v  103.6316 52.7675 79.1164
v  103.8205 53.5761 79.1168
v  91.7320 60.6087 76.8604
v  91.8868 61.2515 76.8607
v  82.1143 66.8163 75.1087
v  82.2417 67.3251 75.1089
v  73.2539 72.1277 73.6594
v  73.3560 72.5131 73.6595
v  50.9036 83.7629 69.8995
v  50.9417 83.8370 69.8996
# 24 vertices

vn 0.1399 -0.0399 -0.9894
vn 0.1440 -0.0497 -0.9883
vn 0.1400 -0.0401 -0.9893
vn 0.1452 -0.0503 -0.9881
vn -0.4784 0.1077 -0.8715
vn -0.4114 0.0930 -0.9067
vn -0.4065 0.0920 -0.9090
vn -0.2393 0.0545 -0.9694
vn -0.2281 0.0520 -0.9722
vn -0.0011 0.0006 -1.0000
vn 0.0254 -0.0054 -0.9997
vn 0.1189 -0.0269 -0.9925
vn 0.1320 -0.0300 -0.9908
vn 0.1575 -0.0363 -0.9869
vn 0.1593 -0.0367 -0.9866
vn 0.1597 -0.0380 -0.9864
vn 0.1584 -0.0378 -0.9866
vn 0.1497 -0.0370 -0.9880
vn 0.1470 -0.0364 -0.9885
vn 0.1403 -0.0367 -0.9894
vn 0.1404 -0.0367 -0.9894
vn 0.1463 -0.0730 -0.9866
vn 0.1460 -0.0736 -0.9865
# 23 vertex normals

vt 0.6490 0.2768 0.0000
vt 0.6334 0.2848 0.0000
vt 0.6491 0.2773 0.0000
vt 0.6335 0.2851 0.0000
vt 0.7789 0.2032 0.0000
vt 0.7709 0.2055 0.0000
vt 0.7794 0.2055 0.0000
vt 0.7714 0.2077 0.0000
vt 0.7641 0.2074 0.0000
vt 0.7645 0.2096 0.0000
vt 0.7578 0.2100 0.0000
vt 0.7583 0.2120 0.0000
vt 0.7442 0.2174 0.0000
vt 0.7447 0.2193 0.0000
vt 0.7243 0.2301 0.0000
vt 0.7247 0.2317 0.0000
vt 0.7013 0.2453 0.0000
vt 0.7016 0.2465 0.0000
vt 0.6826 0.2573 0.0000
vt 0.6829 0.2583 0.0000
vt 0.6655 0.2676 0.0000
vt 0.6657 0.2684 0.0000
vt 0.6221 0.2902 0.0000
vt 0.6222 0.2903 0.0000
# 24 texture coords

g X6164_20_181C_R_X6164_20_181C_R_2_D
usemtl paint_whiteSG
s 1
f 39/39/39 40/40/40 41/41/41 
f 40/40/40 42/42/42 41/41/41 
f 43/43/43 44/44/44 45/45/43 
f 44/44/44 46/46/45 45/45/43 
f 44/44/44 47/47/46 46/46/45 
f 47/47/46 48/48/47 46/46/45 
f 47/47/46 49/49/48 48/48/47 
f 49/49/48 50/50/49 48/48/47 
f 49/49/48 51/51/50 50/50/49 
f 51/51/50 52/52/51 50/50/49 
f 51/51/50 53/53/52 52/52/51 
f 53/53/52 54/54/53 52/52/51 
f 53/53/52 55/55/54 54/54/53 
f 55/55/54 56/56/55 54/54/53 
f 55/55/54 57/57/56 56/56/55 
f 57/57/56 58/58/57 56/56/55 
f 57/57/56 59/59/58 58/58/57 
f 59/59/58 60/60/59 58/58/57 
f 59/59/58 39/39/39 60/60/59 
f 39/39/39 41/41/41 60/60/59 
f 40/40/40 61/61/60 42/42/42 
f 61/61/60 62/62/61 42/42/42 
# 22 faces

#
# object X6164_20_181C_R_DaS_X6164_20_181C_R_E
#

v  115.2207 43.3727 86.3369
v  109.3574 42.1032 87.9320
v  115.0717 42.8002 85.6029
v  109.2542 41.6130 87.1285
v  118.8450 44.0306 84.6961
v  118.6099 43.3382 84.1049
v  121.4418 44.5798 82.4401
v  121.1251 43.7956 82.0261
v  108.1983 41.7560 88.2742
v  108.0972 41.2881 87.4568
# 10 vertices

vn 0.3458 -0.7726 0.5324
vn 0.3357 -0.8205 0.4628
vn 0.3449 -0.7692 0.5378
vn 0.3304 -0.8265 0.4557
vn 0.4794 -0.6660 0.5715
vn 0.4812 -0.6515 0.5866
vn 0.5879 -0.5662 0.5778
vn 0.5891 -0.5503 0.5917
vn 0.3635 -0.8224 0.4377
vn 0.3552 -0.8296 0.4309
# 10 vertex normals

vt 0.7468 0.2119 0.0000
vt 0.7354 0.2094 0.0000
vt 0.7465 0.2108 0.0000
vt 0.7352 0.2085 0.0000
vt 0.7538 0.2132 0.0000
vt 0.7534 0.2118 0.0000
vt 0.7588 0.2142 0.0000
vt 0.7582 0.2127 0.0000
vt 0.7332 0.2088 0.0000
vt 0.7330 0.2079 0.0000
# 10 texture coords

g X6164_20_181C_R_DaS_X6164_20_181C_R_E
usemtl paint_whiteSG
s 5
f 63/63/62 64/64/63 65/65/64 
f 64/64/63 66/66/65 65/65/64 
f 63/63/62 65/65/64 67/67/66 
f 67/67/66 65/65/64 68/68/67 
f 67/67/66 68/68/67 69/69/68 
f 69/69/68 68/68/67 70/70/69 
f 64/64/63 71/71/70 66/66/65 
f 71/71/70 72/72/71 66/66/65 
# 8 faces

