# 3ds Max Wavefront OBJ Exporter v0.97b - (c)2007 guruware
# File Created: 06.11.2015 17:48:18

mtllib X6164_20_181C_L.mtl

#
# object X6164_20_181C_L_DaS_X6164_20_181C_L
#

v  72.3562 72.8995 -75.7430
v  73.1938 73.2677 -74.4102
v  81.3776 67.7075 -77.3127
v  82.1656 68.1549 -75.8736
v  64.5811 77.8175 -73.0102
v  63.8406 77.3216 -74.4160
v  63.0410 75.4290 -76.2761
v  71.3768 71.4782 -77.3950
v  79.7031 66.8447 -78.7679
v  54.4675 78.9892 -75.2520
v  55.6880 81.0942 -73.2857
v  88.0772 61.2988 -80.5356
v  85.7752 60.9998 -81.0486
v  78.9974 65.4935 -79.6237
v  91.0471 61.6253 -79.1708
v  100.9085 55.2205 -81.1488
v  96.8277 55.1623 -82.5418
v  103.9531 54.5772 -79.9202
v  91.9040 62.1585 -77.6423
v  106.2840 48.7573 -84.6304
v  110.5055 49.0604 -83.0781
v  115.2207 43.3727 -86.3368
v  118.8450 44.0306 -84.6961
v  56.4681 81.7409 -71.6913
v  70.6740 70.6652 -77.9287
v  62.0385 75.3816 -76.4016
v  93.4862 55.5589 -82.8043
v  101.0571 49.6145 -84.8844
v  114.3598 48.2563 -81.7752
v  121.4418 44.5798 -82.4400
v  47.8091 84.2774 -72.3480
v  50.5627 84.3850 -70.6139
v  47.1684 81.9908 -74.2394
v  104.5947 46.3181 -86.2098
v  109.3574 42.1032 -87.9320
v  107.4801 42.9342 -87.6887
v  108.1983 41.7560 -88.2742
v  48.7869 85.1654 -70.3280
# 38 vertices

vn 0.2943 0.7322 -0.6142
vn 0.3719 0.8081 -0.4568
vn 0.3289 0.7247 -0.6055
vn 0.3946 0.7928 -0.4645
vn 0.3381 0.8180 -0.4653
vn 0.2522 0.7178 -0.6490
vn 0.1813 0.6143 -0.7680
vn 0.1980 0.6073 -0.7694
vn 0.2159 0.5951 -0.7741
vn 0.1653 0.6232 -0.7644
vn 0.2179 0.7058 -0.6740
vn 0.2175 0.5783 -0.7863
vn 0.1324 0.4749 -0.8700
vn 0.1297 0.4813 -0.8669
vn 0.3239 0.6975 -0.6393
vn 0.3059 0.6814 -0.6649
vn 0.2039 0.5616 -0.8019
vn 0.3737 0.7542 -0.5399
vn 0.3949 0.7737 -0.4954
vn 0.1899 0.5574 -0.8082
vn 0.2850 0.6769 -0.6786
vn 0.2003 0.5856 -0.7854
vn 0.2984 0.7064 -0.6419
vn 0.3019 0.8237 -0.4799
vn 0.1142 0.4754 -0.8723
vn 0.0886 0.4625 -0.8822
vn 0.1245 0.4642 -0.8769
vn 0.1194 0.4651 -0.8772
vn 0.3452 0.7507 -0.5633
vn 0.3360 0.7502 -0.5694
vn 0.1890 0.7107 -0.6776
vn 0.2770 0.8270 -0.4892
vn 0.1402 0.6100 -0.7799
vn 0.1235 0.4836 -0.8666
vn 0.1257 0.4940 -0.8603
vn 0.0920 0.4655 -0.8803
vn 0.1068 0.4939 -0.8629
vn 0.2536 0.8343 -0.4895
# 38 vertex normals

vt 0.6576 0.7371 0.0000
vt 0.6592 0.7364 0.0000
vt 0.6751 0.7472 0.0000
vt 0.6766 0.7463 0.0000
vt 0.6426 0.7276 0.0000
vt 0.6411 0.7285 0.0000
vt 0.6396 0.7322 0.0000
vt 0.6557 0.7398 0.0000
vt 0.6719 0.7488 0.0000
vt 0.6230 0.7253 0.0000
vt 0.6253 0.7212 0.0000
vt 0.6881 0.7596 0.0000
vt 0.6836 0.7602 0.0000
vt 0.6705 0.7514 0.0000
vt 0.6938 0.7589 0.0000
vt 0.7130 0.7714 0.0000
vt 0.7050 0.7715 0.0000
vt 0.7189 0.7726 0.0000
vt 0.6955 0.7579 0.0000
vt 0.7234 0.7839 0.0000
vt 0.7316 0.7833 0.0000
vt 0.7407 0.7943 0.0000
vt 0.7477 0.7930 0.0000
vt 0.6268 0.7200 0.0000
vt 0.6544 0.7414 0.0000
vt 0.6376 0.7323 0.0000
vt 0.6986 0.7707 0.0000
vt 0.7132 0.7822 0.0000
vt 0.7390 0.7848 0.0000
vt 0.7527 0.7920 0.0000
vt 0.6101 0.7150 0.0000
vt 0.6154 0.7148 0.0000
vt 0.6088 0.7195 0.0000
vt 0.7201 0.7886 0.0000
vt 0.7293 0.7968 0.0000
vt 0.7257 0.7952 0.0000
vt 0.7271 0.7974 0.0000
vt 0.6119 0.7133 0.0000
# 38 texture coords

g X6164_20_181C_L_DaS_X6164_20_181C_L
usemtl paint_whiteSG
s 1
f 1/1/1 2/2/2 3/3/3 
f 2/2/2 4/4/4 3/3/3 
f 2/2/2 1/1/1 5/5/5 
f 1/1/1 6/6/6 5/5/5 
f 6/6/6 1/1/1 7/7/7 
f 8/8/8 7/7/7 1/1/1 
f 3/3/3 9/9/9 1/1/1 
f 8/8/8 1/1/1 9/9/9 
f 7/7/7 10/10/10 6/6/6 
f 10/10/10 11/11/11 6/6/6 
f 12/12/12 13/13/13 9/9/9 
f 14/14/14 9/9/9 13/13/13 
f 15/15/15 12/12/12 3/3/3 
f 12/12/12 9/9/9 3/3/3 
f 16/16/16 17/17/17 15/15/15 
f 12/12/12 15/15/15 17/17/17 
f 18/18/18 16/16/16 19/19/19 
f 15/15/15 19/19/19 16/16/16 
f 19/19/19 15/15/15 4/4/4 
f 15/15/15 3/3/3 4/4/4 
f 17/17/17 16/16/16 20/20/20 
f 20/20/20 16/16/16 21/21/21 
f 20/20/20 21/21/21 22/22/22 
f 21/21/21 23/23/23 22/22/22 
f 5/5/5 6/6/6 24/24/24 
f 24/24/24 6/6/6 11/11/11 
f 14/14/14 25/25/25 9/9/9 
f 25/25/25 8/8/8 9/9/9 
f 26/26/26 7/7/7 25/25/25 
f 25/25/25 7/7/7 8/8/8 
f 17/17/17 27/27/27 12/12/12 
f 13/13/13 12/12/12 27/27/27 
f 20/20/20 28/28/28 17/17/17 
f 27/27/27 17/17/17 28/28/28 
f 21/21/21 29/29/29 23/23/23 
f 29/29/29 30/30/30 23/23/23 
f 31/31/31 32/32/32 11/11/11 
f 11/11/11 32/32/32 24/24/24 
f 31/31/31 11/11/11 33/33/33 
f 11/11/11 10/10/10 33/33/33 
f 28/28/28 22/22/22 34/34/34 
f 22/22/22 35/35/35 34/34/34 
f 36/36/36 35/35/35 37/37/37 
f 16/16/16 18/18/18 21/21/21 
f 38/38/38 32/32/32 31/31/31 
f 10/10/10 7/7/7 26/26/26 
f 21/21/21 18/18/18 29/29/29 
f 35/35/35 36/36/36 34/34/34 
f 22/22/22 28/28/28 20/20/20 
# 49 faces

#
# object X6164_20_181C_L_X6164_20_181C_L_D
#

v  56.4681 81.7409 -71.6913
v  56.7908 81.1364 -70.9666
v  64.5810 77.8175 -73.0101
v  64.8260 77.1385 -72.2728
v  114.3598 48.2563 -81.7752
v  114.1278 47.1719 -80.9538
v  121.4418 44.5798 -82.4400
v  121.1419 43.4326 -81.6123
v  103.9531 54.5772 -79.9202
v  103.8208 53.5761 -79.1166
v  91.9040 62.1585 -77.6423
v  91.8871 61.2515 -76.8606
v  82.1655 68.1548 -75.8736
v  82.2420 67.3251 -75.1087
v  73.1938 73.2677 -74.4102
v  73.3562 72.5131 -73.6594
v  50.5627 84.3850 -70.6140
v  50.9419 83.8370 -69.8996
v  64.7481 76.8715 -72.2726
v  64.8258 77.1385 -72.2728
v  56.7357 80.9811 -70.9665
v  56.7906 81.1365 -70.9666
v  131.7697 38.8665 -77.4560
v  132.0391 40.0670 -77.4565
v  127.6442 40.0801 -79.8704
v  127.9018 41.2231 -79.8707
v  124.1386 41.0756 -81.1118
v  124.3861 42.1698 -81.1123
v  120.9033 42.3834 -81.6121
v  121.1416 43.4326 -81.6125
v  113.9092 46.2201 -80.9536
v  114.1275 47.1719 -80.9539
v  103.6316 52.7675 -79.1163
v  103.8205 53.5761 -79.1167
v  91.7320 60.6087 -76.8604
v  91.8868 61.2515 -76.8606
v  82.1143 66.8163 -75.1087
v  82.2417 67.3251 -75.1089
v  73.2539 72.1277 -73.6593
v  73.3560 72.5131 -73.6595
v  50.9036 83.7629 -69.8995
v  50.9417 83.8370 -69.8996
# 42 vertices

vn 0.4433 0.7769 0.4470
vn 0.4454 0.7733 0.4512
vn 0.4538 0.7271 0.5152
vn 0.4584 0.7227 0.5173
vn 0.4043 0.4974 0.7676
vn 0.3939 0.4985 0.7723
vn 0.3379 0.4940 0.8011
vn 0.3373 0.4913 0.8031
vn 0.4597 0.5197 0.7201
vn 0.4560 0.5181 0.7236
vn 0.4811 0.5685 0.6673
vn 0.4810 0.5653 0.6701
vn 0.4767 0.6207 0.6226
vn 0.4813 0.6159 0.6237
vn 0.4658 0.6740 0.5733
vn 0.4690 0.6699 0.5756
vn 0.4346 0.8111 0.3915
vn 0.4351 0.8086 0.3960
vn 0.1399 -0.0399 0.9894
vn 0.1400 -0.0401 0.9893
vn 0.1440 -0.0498 0.9883
vn 0.1452 -0.0504 0.9881
vn -0.4784 0.1077 0.8715
vn -0.4114 0.0930 0.9067
vn -0.4065 0.0919 0.9090
vn -0.2393 0.0545 0.9694
vn -0.2281 0.0520 0.9722
vn -0.0011 0.0006 1.0000
vn 0.0254 -0.0054 0.9997
vn 0.1190 -0.0270 0.9925
vn 0.1320 -0.0300 0.9908
vn 0.1575 -0.0363 0.9869
vn 0.1593 -0.0367 0.9866
vn 0.1597 -0.0380 0.9864
vn 0.1584 -0.0378 0.9866
vn 0.1498 -0.0370 0.9880
vn 0.1470 -0.0364 0.9885
vn 0.1404 -0.0366 0.9894
vn 0.1405 -0.0367 0.9894
vn 0.1462 -0.0730 0.9865
vn 0.1460 -0.0737 0.9865
# 41 vertex normals

vt 0.6268 0.7200 0.0000
vt 0.6275 0.7211 0.0000
vt 0.6426 0.7276 0.0000
vt 0.6430 0.7289 0.0000
vt 0.7390 0.7848 0.0000
vt 0.7386 0.7870 0.0000
vt 0.7527 0.7920 0.0000
vt 0.7522 0.7942 0.0000
vt 0.7189 0.7726 0.0000
vt 0.7186 0.7745 0.0000
vt 0.6955 0.7579 0.0000
vt 0.6955 0.7597 0.0000
vt 0.6766 0.7463 0.0000
vt 0.6768 0.7479 0.0000
vt 0.6592 0.7364 0.0000
vt 0.6596 0.7378 0.0000
vt 0.6154 0.7148 0.0000
vt 0.6161 0.7159 0.0000
vt 0.6429 0.7294 0.0000
vt 0.6274 0.7214 0.0000
vt 0.7728 0.8030 0.0000
vt 0.7733 0.8007 0.0000
vt 0.7648 0.8007 0.0000
vt 0.7653 0.7985 0.0000
vt 0.7580 0.7988 0.0000
vt 0.7585 0.7966 0.0000
vt 0.7517 0.7962 0.0000
vt 0.7382 0.7888 0.0000
vt 0.7182 0.7761 0.0000
vt 0.6952 0.7609 0.0000
vt 0.6765 0.7489 0.0000
vt 0.6594 0.7386 0.0000
vt 0.6160 0.7160 0.0000
# 33 texture coords

g X6164_20_181C_L_X6164_20_181C_L_D
usemtl diffuse_holesSG
s 1
f 39/39/39 40/40/40 41/41/41 
f 41/41/41 40/40/40 42/42/42 
f 43/43/43 44/44/44 45/45/45 
f 45/45/45 44/44/44 46/46/46 
f 47/47/47 48/48/48 43/43/43 
f 43/43/43 48/48/48 44/44/44 
f 49/49/49 50/50/50 47/47/47 
f 47/47/47 50/50/50 48/48/48 
f 51/51/51 52/52/52 49/49/49 
f 49/49/49 52/52/52 50/50/50 
f 53/53/53 54/54/54 51/51/51 
f 51/51/51 54/54/54 52/52/52 
f 41/41/41 42/42/42 53/53/53 
f 53/53/53 42/42/42 54/54/54 
f 55/55/55 56/56/56 39/39/39 
f 39/39/39 56/56/56 40/40/40 
s 7
f 57/57/57 58/42/58 59/58/59 
f 59/58/59 58/42/58 60/40/60 
f 61/59/61 62/60/61 63/61/62 
f 63/61/62 62/60/61 64/62/63 
f 63/61/62 64/62/63 65/63/64 
f 65/63/64 64/62/63 66/64/65 
f 65/63/64 66/64/65 67/65/66 
f 67/65/66 66/64/65 68/46/67 
f 67/65/66 68/46/67 69/66/68 
f 69/66/68 68/46/67 70/44/69 
f 69/66/68 70/44/69 71/67/70 
f 71/67/70 70/44/69 72/48/71 
f 71/67/70 72/48/71 73/68/72 
f 73/68/72 72/48/71 74/50/73 
f 73/68/72 74/50/73 75/69/74 
f 75/69/74 74/50/73 76/52/75 
f 75/69/74 76/52/75 77/70/76 
f 77/70/76 76/52/75 78/54/77 
f 77/70/76 78/54/77 57/57/57 
f 57/57/57 78/54/77 58/42/58 
f 59/58/59 60/40/60 79/71/78 
f 79/71/78 60/40/60 80/56/79 
# 38 faces

#
# object X6164_20_181C_L_DaS_X6164_20_181C_L_E
#

v  115.2207 43.3727 -86.3368
v  115.0717 42.8002 -85.6028
v  109.3574 42.1032 -87.9320
v  109.2542 41.6130 -87.1285
v  118.8450 44.0306 -84.6961
v  118.6099 43.3382 -84.1049
v  121.4418 44.5798 -82.4400
v  121.1251 43.7956 -82.0260
v  108.1983 41.7560 -88.2742
v  108.0972 41.2881 -87.4568
# 10 vertices

vn 0.3458 -0.7726 -0.5324
vn 0.3449 -0.7692 -0.5378
vn 0.3357 -0.8205 -0.4628
vn 0.3304 -0.8265 -0.4557
vn 0.4794 -0.6660 -0.5715
vn 0.4812 -0.6515 -0.5865
vn 0.5879 -0.5662 -0.5778
vn 0.5891 -0.5503 -0.5917
vn 0.3635 -0.8224 -0.4377
vn 0.3552 -0.8296 -0.4309
# 10 vertex normals

vt 0.7407 0.7943 0.0000
vt 0.7404 0.7954 0.0000
vt 0.7293 0.7968 0.0000
vt 0.7291 0.7977 0.0000
vt 0.7477 0.7930 0.0000
vt 0.7473 0.7944 0.0000
vt 0.7527 0.7920 0.0000
vt 0.7521 0.7935 0.0000
vt 0.7271 0.7974 0.0000
vt 0.7269 0.7984 0.0000
# 10 texture coords

g X6164_20_181C_L_DaS_X6164_20_181C_L_E
usemtl paint_whiteSG
s 7
f 81/72/80 82/73/81 83/74/82 
f 83/74/82 82/73/81 84/75/83 
f 81/72/80 85/76/84 82/73/81 
f 85/76/84 86/77/85 82/73/81 
f 85/76/84 87/78/86 86/77/85 
f 87/78/86 88/79/87 86/77/85 
f 83/74/82 84/75/83 89/80/88 
f 89/80/88 84/75/83 90/81/89 
# 8 faces

