# 3ds Max Wavefront OBJ Exporter v0.97b - (c)2007 guruware
# File Created: 02.11.2015 10:21:00

mtllib U805_4A_285B_R.mtl

#
# object U805_4A_285B_R_1_DTaSI_U805_4A_285B_R
#

v  51.0241 39.1026 73.6232
v  50.8942 44.6503 71.8022
v  44.2428 39.1393 73.6137
v  44.3515 44.6681 71.8004
v  44.4726 50.1535 69.9420
v  50.7755 50.1895 69.9250
v  44.6168 55.5587 68.0434
v  50.6636 55.5235 68.0505
v  51.5488 76.6649 59.0968
v  46.8558 76.7491 59.0427
v  50.7107 71.4777 61.7123
v  45.5220 71.5749 61.6779
v  45.0232 66.3798 63.8713
v  50.5263 66.3725 63.8674
v  74.0289 55.5773 68.0003
v  72.7837 61.2149 65.8973
v  68.3976 55.5588 68.0151
v  67.4697 61.1641 65.9227
v  64.5958 39.0275 73.6321
v  63.9843 44.6135 71.7984
v  57.8086 39.0653 73.6292
v  57.4385 44.6321 71.8017
v  99.1199 61.4166 65.7060
v  103.7607 55.6758 67.8344
v  103.3607 61.4061 65.5640
v  107.0455 57.9209 66.8341
v  97.2042 38.8421 73.6244
v  94.4256 44.5237 71.7652
v  90.7410 38.8798 73.6318
v  88.4722 44.5422 71.7771
v  98.8105 55.6780 67.8945
v  94.8278 61.4093 65.7704
v  79.0056 55.5995 67.9851
v  80.7786 50.3494 69.8249
v  83.9717 55.6241 67.9688
v  86.2343 50.3781 69.8054
v  74.0413 75.7246 59.7373
v  74.3663 71.0413 61.9417
v  76.6839 75.4766 59.8723
v  77.5364 70.9620 61.9804
v  86.7852 73.0933 60.9767
v  86.9053 70.8042 62.0229
v  88.2130 72.4322 61.2641
v  65.5750 76.2619 59.4189
v  65.8655 71.1968 61.8524
v  70.2464 75.9889 59.5644
v  70.6446 71.1090 61.9015
v  126.1702 34.0760 74.8522
v  123.1937 38.6590 73.3353
v  120.2807 33.2887 75.3115
v  116.6880 38.7161 73.5288
v  126.2545 33.2524 75.3072
v  126.2712 33.6835 75.0377
v  114.1889 50.4490 69.4319
v  110.7338 54.2707 68.1232
v  108.4665 50.4265 69.6365
v  120.3784 42.6025 72.0417
v  112.6587 44.4521 71.6387
v  44.3037 33.7063 75.3061
v  37.0133 33.7147 75.3045
v  37.0634 39.1990 73.6179
v  37.2726 44.6840 71.7989
v  37.5180 50.1090 69.9626
v  37.7784 55.5989 68.0352
v  38.3601 66.3886 63.8760
v  38.6807 71.7028 61.6325
v  39.6787 74.8556 60.2263
v  39.0903 73.9057 60.6924
v  38.7887 72.8253 61.1662
v  41.5049 76.2265 59.4569
v  40.4951 75.6411 59.7900
v  43.8486 76.7640 59.1323
v  42.6493 76.5557 59.2147
v  85.3481 73.6968 60.7258
v  84.0746 70.8605 62.0210
v  83.8381 74.2367 60.4991
v  94.4239 66.3087 63.8057
v  99.6598 64.7034 64.3308
v  95.7541 67.7530 63.1189
v  89.6685 70.7445 61.9972
v  91.9202 70.3396 62.0747
v  90.7078 71.0686 61.7808
v  113.3892 33.3329 75.3160
v  110.1845 38.7633 73.5916
v  106.4977 33.3772 75.3191
v  103.6852 38.8040 73.6156
v  106.5633 44.4818 71.7151
v  100.4641 44.5042 71.7479
v  44.7667 60.9788 66.0170
v  50.5604 61.0066 65.9999
v  69.3518 50.2893 69.8656
v  75.3176 50.3212 69.8450
v  102.8508 50.4338 69.7164
v  77.2618 61.2591 65.8776
v  81.7319 61.3018 65.8563
v  38.0482 60.9738 66.0260
v  62.7581 55.5438 68.0287
v  62.1484 61.1132 65.9483
v  70.2752 44.5954 71.7941
v  71.2114 38.9904 73.6336
v  76.5650 44.5771 71.7888
v  77.8301 38.9530 73.6338
v  60.8975 76.4100 59.2914
v  61.0903 71.2849 61.8048
v  63.3813 50.2569 69.8857
v  55.8950 71.3802 61.7536
v  56.2398 76.5504 59.1833
v  56.0298 66.3657 63.8667
v  56.3544 61.0600 65.9732
v  56.7108 55.5325 68.0406
v  57.0784 50.2240 69.9063
v  84.2828 38.9165 73.6333
v  82.5187 44.5597 71.7834
v  88.9281 55.6483 67.9487
v  91.6856 50.4043 69.7826
v  93.8636 55.6671 67.9274
v  97.2344 50.4267 69.7540
v  78.8412 75.2515 60.0196
v  80.9966 70.9184 62.0005
v  80.5857 74.9965 60.1451
v  86.1942 61.3423 65.8320
v  90.5354 61.3800 65.8063
v  82.3352 74.6546 60.3150
v  75.5610 66.3443 63.8809
v  71.5528 66.3484 63.8770
v  79.5658 66.3396 63.8820
v  83.5752 66.3344 63.8801
v  87.3038 66.3024 63.8857
v  90.8635 66.3092 63.8614
v  117.3268 46.5581 70.7351
v  89.4700 71.7640 61.5132
v  99.6062 33.4218 75.3201
v  92.7147 33.4669 75.3191
v  85.8232 33.5112 75.3182
v  78.9317 33.5536 75.3171
v  72.0401 33.5897 75.3147
v  65.1486 33.6257 75.3124
v  58.2570 33.6618 75.3100
v  51.3655 33.6981 75.3078
v  66.5433 66.3540 63.8734
v  61.5344 66.3595 63.8701
# 141 vertices

vn 0.0020 0.3562 0.9344
# 1 vertex normals

vt 0.0844 0.2719 0.0000
vt 0.0839 0.2961 0.0000
vt 0.0562 0.2720 0.0000
vt 0.0567 0.2961 0.0000
vt 0.0573 0.3200 0.0000
vt 0.0835 0.3202 0.0000
vt 0.0580 0.3436 0.0000
vt 0.0832 0.3436 0.0000
vt 0.0869 0.4389 0.0000
vt 0.0676 0.4393 0.0000
vt 0.0835 0.4147 0.0000
vt 0.0620 0.4150 0.0000
vt 0.0599 0.3916 0.0000
vt 0.0827 0.3916 0.0000
vt 0.1804 0.3449 0.0000
vt 0.1753 0.3700 0.0000
vt 0.1569 0.3445 0.0000
vt 0.1531 0.3694 0.0000
vt 0.1410 0.2718 0.0000
vt 0.1384 0.2962 0.0000
vt 0.1127 0.2716 0.0000
vt 0.1111 0.2960 0.0000
vt 0.2849 0.3721 0.0000
vt 0.3040 0.3466 0.0000
vt 0.3026 0.3721 0.0000
vt 0.3179 0.3566 0.0000
vt 0.2769 0.2722 0.0000
vt 0.2652 0.2971 0.0000
vt 0.2500 0.2721 0.0000
vt 0.2405 0.2968 0.0000
vt 0.2835 0.3464 0.0000
vt 0.2672 0.3719 0.0000
vt 0.2011 0.3453 0.0000
vt 0.2084 0.3221 0.0000
vt 0.2218 0.3457 0.0000
vt 0.2311 0.3225 0.0000
vt 0.1794 0.4365 0.0000
vt 0.1816 0.4148 0.0000
vt 0.1909 0.4360 0.0000
vt 0.1949 0.4148 0.0000
vt 0.2340 0.4262 0.0000
vt 0.2345 0.4149 0.0000
vt 0.2401 0.4229 0.0000
vt 0.1446 0.4380 0.0000
vt 0.1462 0.4144 0.0000
vt 0.1639 0.4375 0.0000
vt 0.1661 0.4146 0.0000
vt 0.3955 0.2538 0.0000
vt 0.3845 0.2732 0.0000
vt 0.3724 0.2497 0.0000
vt 0.3578 0.2730 0.0000
vt 0.3958 0.2497 0.0000
vt 0.3959 0.2530 0.0000
vt 0.3469 0.3239 0.0000
vt 0.3323 0.3411 0.0000
vt 0.3234 0.3238 0.0000
vt 0.3728 0.2904 0.0000
vt 0.3409 0.2978 0.0000
vt 0.0559 0.2485 0.0000
vt 0.0260 0.2485 0.0000
vt 0.0265 0.2722 0.0000
vt 0.0275 0.2962 0.0000
vt 0.0285 0.3198 0.0000
vt 0.0297 0.3438 0.0000
vt 0.0322 0.3917 0.0000
vt 0.0335 0.4156 0.0000
vt 0.0376 0.4298 0.0000
vt 0.0353 0.4256 0.0000
vt 0.0341 0.4209 0.0000
vt 0.0456 0.4367 0.0000
vt 0.0410 0.4341 0.0000
vt 0.0551 0.4391 0.0000
vt 0.0496 0.4383 0.0000
vt 0.2278 0.4291 0.0000
vt 0.2225 0.4150 0.0000
vt 0.2215 0.4314 0.0000
vt 0.2657 0.3941 0.0000
vt 0.2874 0.3870 0.0000
vt 0.2714 0.4007 0.0000
vt 0.2461 0.4147 0.0000
vt 0.2559 0.4128 0.0000
vt 0.2508 0.4165 0.0000
vt 0.3442 0.2493 0.0000
vt 0.3309 0.2727 0.0000
vt 0.3158 0.2490 0.0000
vt 0.3039 0.2725 0.0000
vt 0.3157 0.2976 0.0000
vt 0.2904 0.2973 0.0000
vt 0.0588 0.3675 0.0000
vt 0.0828 0.3677 0.0000
vt 0.1608 0.3213 0.0000
vt 0.1857 0.3217 0.0000
vt 0.3002 0.3235 0.0000
vt 0.1939 0.3706 0.0000
vt 0.2126 0.3711 0.0000
vt 0.0309 0.3676 0.0000
vt 0.1335 0.3441 0.0000
vt 0.1310 0.3688 0.0000
vt 0.1647 0.2964 0.0000
vt 0.1686 0.2719 0.0000
vt 0.1909 0.2965 0.0000
vt 0.1961 0.2718 0.0000
vt 0.1254 0.4381 0.0000
vt 0.1264 0.4143 0.0000
vt 0.1360 0.3209 0.0000
vt 0.1049 0.4144 0.0000
vt 0.1062 0.4384 0.0000
vt 0.1055 0.3918 0.0000
vt 0.1069 0.3682 0.0000
vt 0.1083 0.3438 0.0000
vt 0.1097 0.3205 0.0000
vt 0.2231 0.2719 0.0000
vt 0.2157 0.2966 0.0000
vt 0.2424 0.3460 0.0000
vt 0.2538 0.3228 0.0000
vt 0.2630 0.3462 0.0000
vt 0.2769 0.3232 0.0000
vt 0.2000 0.4352 0.0000
vt 0.2095 0.4150 0.0000
vt 0.2075 0.4343 0.0000
vt 0.2312 0.3715 0.0000
vt 0.2493 0.3718 0.0000
vt 0.2145 0.4331 0.0000
vt 0.1868 0.3934 0.0000
vt 0.1701 0.3931 0.0000
vt 0.2036 0.3938 0.0000
vt 0.2204 0.3941 0.0000
vt 0.2359 0.3941 0.0000
vt 0.2509 0.3941 0.0000
vt 0.3598 0.3075 0.0000
vt 0.2455 0.4198 0.0000
vt 0.2872 0.2487 0.0000
vt 0.2584 0.2486 0.0000
vt 0.2296 0.2484 0.0000
vt 0.2007 0.2484 0.0000
vt 0.1722 0.2486 0.0000
vt 0.1437 0.2484 0.0000
vt 0.1144 0.2482 0.0000
vt 0.0854 0.2487 0.0000
vt 0.1492 0.3926 0.0000
vt 0.1284 0.3921 0.0000
# 141 texture coords

g U805_4A_285B_R_1_DTaSI_U805_4A_285B_R
usemtl windowglass_SG
s 1
f 1/1/1 2/2/1 3/3/1 
f 3/3/1 2/2/1 4/4/1 
f 5/5/1 6/6/1 7/7/1 
f 7/7/1 6/6/1 8/8/1 
f 9/9/1 10/10/1 11/11/1 
f 11/11/1 10/10/1 12/12/1 
f 13/13/1 14/14/1 12/12/1 
f 12/12/1 14/14/1 11/11/1 
f 15/15/1 16/16/1 17/17/1 
f 17/17/1 16/16/1 18/18/1 
f 19/19/1 20/20/1 21/21/1 
f 21/21/1 20/20/1 22/22/1 
f 23/23/1 24/24/1 25/25/1 
f 25/25/1 24/24/1 26/26/1 
f 27/27/1 28/28/1 29/29/1 
f 29/29/1 28/28/1 30/30/1 
f 24/24/1 23/23/1 31/31/1 
f 31/31/1 23/23/1 32/32/1 
f 33/33/1 34/34/1 35/35/1 
f 35/35/1 34/34/1 36/36/1 
f 37/37/1 38/38/1 39/39/1 
f 39/39/1 38/38/1 40/40/1 
f 41/41/1 42/42/1 43/43/1 
f 44/44/1 45/45/1 46/46/1 
f 46/46/1 45/45/1 47/47/1 
f 48/48/1 49/49/1 50/50/1 
f 50/50/1 49/49/1 51/51/1 
f 52/52/1 53/53/1 50/50/1 
f 53/53/1 48/48/1 50/50/1 
f 54/54/1 55/55/1 56/56/1 
f 56/56/1 55/55/1 24/24/1 
f 49/49/1 57/57/1 51/51/1 
f 51/51/1 57/57/1 58/58/1 
f 59/59/1 3/3/1 60/60/1 
f 60/60/1 3/3/1 61/61/1 
f 61/61/1 3/3/1 62/62/1 
f 62/62/1 3/3/1 4/4/1 
f 63/63/1 5/5/1 64/64/1 
f 64/64/1 5/5/1 7/7/1 
f 65/65/1 13/13/1 66/66/1 
f 66/66/1 13/13/1 12/12/1 
f 67/67/1 68/68/1 12/12/1 
f 66/66/1 12/12/1 69/69/1 
f 12/12/1 70/70/1 71/71/1 
f 12/12/1 72/72/1 73/73/1 
f 42/42/1 74/74/1 75/75/1 
f 75/75/1 74/74/1 76/76/1 
f 77/77/1 78/78/1 79/79/1 
f 80/80/1 81/81/1 82/82/1 
f 83/83/1 84/84/1 85/85/1 
f 85/85/1 84/84/1 86/86/1 
f 84/84/1 87/87/1 86/86/1 
f 86/86/1 87/87/1 88/88/1 
f 7/7/1 8/8/1 89/89/1 
f 89/89/1 8/8/1 90/90/1 
f 17/17/1 91/91/1 15/15/1 
f 15/15/1 91/91/1 92/92/1 
f 56/56/1 24/24/1 93/93/1 
f 93/93/1 24/24/1 31/31/1 
f 94/94/1 33/33/1 95/95/1 
f 95/95/1 33/33/1 35/35/1 
f 64/64/1 7/7/1 96/96/1 
f 96/96/1 7/7/1 89/89/1 
f 12/12/1 10/10/1 72/72/1 
f 17/17/1 18/18/1 97/97/1 
f 97/97/1 18/18/1 98/98/1 
f 99/99/1 100/100/1 101/101/1 
f 101/101/1 100/100/1 102/102/1 
f 103/103/1 104/104/1 44/44/1 
f 44/44/1 104/104/1 45/45/1 
f 91/91/1 17/17/1 105/105/1 
f 105/105/1 17/17/1 97/97/1 
f 11/11/1 106/106/1 9/9/1 
f 9/9/1 106/106/1 107/107/1 
f 11/11/1 14/14/1 106/106/1 
f 106/106/1 14/14/1 108/108/1 
f 90/90/1 8/8/1 109/109/1 
f 109/109/1 8/8/1 110/110/1 
f 8/8/1 6/6/1 110/110/1 
f 110/110/1 6/6/1 111/111/1 
f 2/2/1 1/1/1 22/22/1 
f 22/22/1 1/1/1 21/21/1 
f 20/20/1 19/19/1 99/99/1 
f 99/99/1 19/19/1 100/100/1 
f 97/97/1 98/98/1 110/110/1 
f 110/110/1 98/98/1 109/109/1 
f 107/107/1 106/106/1 103/103/1 
f 103/103/1 106/106/1 104/104/1 
f 105/105/1 97/97/1 111/111/1 
f 111/111/1 97/97/1 110/110/1 
f 112/112/1 113/113/1 102/102/1 
f 102/102/1 113/113/1 101/101/1 
f 29/29/1 30/30/1 112/112/1 
f 112/112/1 30/30/1 113/113/1 
f 28/28/1 27/27/1 88/88/1 
f 88/88/1 27/27/1 86/86/1 
f 114/114/1 115/115/1 116/116/1 
f 116/116/1 115/115/1 117/117/1 
f 35/35/1 36/36/1 114/114/1 
f 114/114/1 36/36/1 115/115/1 
f 34/34/1 33/33/1 92/92/1 
f 92/92/1 33/33/1 15/15/1 
f 39/39/1 40/40/1 118/118/1 
f 118/118/1 40/40/1 119/119/1 
f 46/46/1 47/47/1 37/37/1 
f 37/37/1 47/47/1 38/38/1 
f 120/120/1 119/119/1 75/75/1 
f 121/121/1 114/114/1 122/122/1 
f 122/122/1 114/114/1 116/116/1 
f 95/95/1 35/35/1 121/121/1 
f 121/121/1 35/35/1 114/114/1 
f 33/33/1 94/94/1 15/15/1 
f 15/15/1 94/94/1 16/16/1 
f 118/118/1 119/119/1 120/120/1 
f 31/31/1 32/32/1 116/116/1 
f 116/116/1 32/32/1 122/122/1 
f 84/84/1 83/83/1 51/51/1 
f 51/51/1 83/83/1 50/50/1 
f 87/87/1 84/84/1 58/58/1 
f 58/58/1 84/84/1 51/51/1 
f 93/93/1 31/31/1 117/117/1 
f 117/117/1 31/31/1 116/116/1 
f 74/74/1 42/42/1 41/41/1 
f 120/120/1 75/75/1 123/123/1 
f 96/96/1 89/89/1 65/65/1 
f 65/65/1 89/89/1 13/13/1 
f 94/94/1 124/124/1 16/16/1 
f 16/16/1 124/124/1 125/125/1 
f 95/95/1 126/126/1 94/94/1 
f 94/94/1 126/126/1 124/124/1 
f 121/121/1 127/127/1 95/95/1 
f 95/95/1 127/127/1 126/126/1 
f 122/122/1 128/128/1 121/121/1 
f 121/121/1 128/128/1 127/127/1 
f 32/32/1 129/129/1 122/122/1 
f 122/122/1 129/129/1 128/128/1 
f 23/23/1 77/77/1 32/32/1 
f 32/32/1 77/77/1 129/129/1 
f 25/25/1 78/78/1 23/23/1 
f 23/23/1 78/78/1 77/77/1 
f 56/56/1 58/58/1 54/54/1 
f 54/54/1 58/58/1 130/130/1 
f 79/79/1 81/81/1 77/77/1 
f 77/77/1 81/81/1 80/80/1 
f 24/24/1 55/55/1 26/26/1 
f 130/130/1 58/58/1 57/57/1 
f 80/80/1 131/131/1 43/43/1 
f 80/80/1 82/82/1 131/131/1 
f 12/12/1 71/71/1 67/67/1 
f 69/69/1 12/12/1 68/68/1 
f 12/12/1 73/73/1 70/70/1 
f 62/62/1 4/4/1 63/63/1 
f 63/63/1 4/4/1 5/5/1 
f 4/4/1 2/2/1 5/5/1 
f 5/5/1 2/2/1 6/6/1 
f 22/22/1 111/111/1 2/2/1 
f 2/2/1 111/111/1 6/6/1 
f 20/20/1 105/105/1 22/22/1 
f 22/22/1 105/105/1 111/111/1 
f 99/99/1 91/91/1 20/20/1 
f 20/20/1 91/91/1 105/105/1 
f 101/101/1 92/92/1 99/99/1 
f 99/99/1 92/92/1 91/91/1 
f 113/113/1 34/34/1 101/101/1 
f 101/101/1 34/34/1 92/92/1 
f 30/30/1 36/36/1 113/113/1 
f 113/113/1 36/36/1 34/34/1 
f 28/28/1 115/115/1 30/30/1 
f 30/30/1 115/115/1 36/36/1 
f 88/88/1 117/117/1 28/28/1 
f 28/28/1 117/117/1 115/115/1 
f 87/87/1 93/93/1 88/88/1 
f 88/88/1 93/93/1 117/117/1 
f 58/58/1 56/56/1 87/87/1 
f 87/87/1 56/56/1 93/93/1 
f 27/27/1 132/132/1 86/86/1 
f 86/86/1 132/132/1 85/85/1 
f 29/29/1 133/133/1 27/27/1 
f 27/27/1 133/133/1 132/132/1 
f 112/112/1 134/134/1 29/29/1 
f 29/29/1 134/134/1 133/133/1 
f 102/102/1 135/135/1 112/112/1 
f 112/112/1 135/135/1 134/134/1 
f 100/100/1 136/136/1 102/102/1 
f 102/102/1 136/136/1 135/135/1 
f 19/19/1 137/137/1 100/100/1 
f 100/100/1 137/137/1 136/136/1 
f 21/21/1 138/138/1 19/19/1 
f 19/19/1 138/138/1 137/137/1 
f 1/1/1 139/139/1 21/21/1 
f 21/21/1 139/139/1 138/138/1 
f 3/3/1 59/59/1 1/1/1 
f 1/1/1 59/59/1 139/139/1 
f 140/140/1 18/18/1 125/125/1 
f 125/125/1 18/18/1 16/16/1 
f 141/141/1 98/98/1 140/140/1 
f 140/140/1 98/98/1 18/18/1 
f 108/108/1 109/109/1 141/141/1 
f 141/141/1 109/109/1 98/98/1 
f 14/14/1 90/90/1 108/108/1 
f 108/108/1 90/90/1 109/109/1 
f 14/14/1 13/13/1 90/90/1 
f 90/90/1 13/13/1 89/89/1 
f 42/42/1 129/129/1 80/80/1 
f 80/80/1 129/129/1 77/77/1 
f 75/75/1 128/128/1 42/42/1 
f 42/42/1 128/128/1 129/129/1 
f 119/119/1 127/127/1 75/75/1 
f 75/75/1 127/127/1 128/128/1 
f 40/40/1 126/126/1 119/119/1 
f 119/119/1 126/126/1 127/127/1 
f 38/38/1 124/124/1 40/40/1 
f 40/40/1 124/124/1 126/126/1 
f 47/47/1 125/125/1 38/38/1 
f 38/38/1 125/125/1 124/124/1 
f 45/45/1 140/140/1 47/47/1 
f 47/47/1 140/140/1 125/125/1 
f 104/104/1 141/141/1 45/45/1 
f 45/45/1 141/141/1 140/140/1 
f 106/106/1 108/108/1 104/104/1 
f 104/104/1 108/108/1 141/141/1 
f 43/43/1 42/42/1 80/80/1 
f 75/75/1 76/76/1 123/123/1 
# 223 faces

