# 3ds Max Wavefront OBJ Exporter v0.97b - (c)2007 guruware
# File Created: 04.12.2015 16:32:01

mtllib P345_206A_L.mtl

#
# object P345_206A_L_DaS_P345_206A_L
#

v  -94.7853 -49.1446 -95.3300
v  -94.7802 -51.0208 -94.5992
v  -96.7722 -49.2042 -95.2878
v  -96.7681 -51.0864 -94.5544
v  -92.8362 -50.9741 -94.6167
v  -92.8429 -49.0929 -95.3454
v  -90.0247 -50.9353 -94.6149
v  -90.0334 -49.0407 -95.3407
v  -93.0090 -45.0456 -96.1010
v  -94.9128 -44.1126 -96.3010
v  -96.7681 -52.2407 -92.3258
v  -96.7681 -51.3850 -94.1412
v  -94.7802 -52.1842 -92.3568
v  -94.7802 -51.3191 -94.1860
v  -92.8362 -52.1284 -92.3907
v  -92.8362 -51.2727 -94.2039
v  -90.0247 -52.0901 -92.4262
v  -90.0247 -51.2344 -94.2078
v  -86.7304 -52.0755 -92.4236
v  -88.8672 -52.0881 -92.4218
v  -86.7304 -51.2199 -94.2025
v  -88.8672 -51.2287 -94.2081
v  -46.5693 -51.9135 -92.4481
v  -74.1656 -52.0236 -92.4149
v  -46.5693 -51.0592 -94.1870
v  -74.1656 -51.1684 -94.1925
v  -88.8750 -49.0342 -95.3375
v  -88.8672 -50.9294 -94.6129
v  -91.5963 -45.5893 -95.9730
v  -90.1960 -45.8457 -95.9146
v  -86.7304 -50.9206 -94.6091
v  -86.7362 -49.0252 -95.3318
v  -74.1656 -50.8688 -94.5973
v  -74.1659 -48.9740 -95.3010
v  -46.5693 -50.7589 -94.5817
v  -46.5620 -48.8661 -95.2448
v  85.0895 -51.8020 -92.9719
v  85.0895 -50.9464 -94.7803
v  91.8771 -51.8086 -92.9984
v  91.8771 -50.9529 -94.8103
v  54.1125 -51.7989 -92.8305
v  54.1125 -50.9437 -94.6164
v  24.3546 -50.9445 -94.4397
v  24.3546 -51.7989 -92.6925
v  -1.7744 -50.9480 -94.2863
v  -1.7744 -51.8017 -92.5734
v  -1.7744 -50.6473 -94.6748
v  -1.7644 -48.7601 -95.3164
v  24.3546 -50.6443 -94.8364
v  24.3616 -48.7625 -95.5054
v  -20.2508 -50.6757 -94.6055
v  -20.0431 -48.7853 -95.2450
v  -20.5867 -51.8306 -92.5073
v  -20.3189 -50.9765 -94.2176
v  85.0895 -50.6471 -95.1918
v  91.8771 -50.6537 -95.2227
v  91.8855 -48.7857 -95.9433
v  85.0969 -48.7779 -95.9090
v  54.1125 -50.6441 -95.0225
v  54.1167 -48.7686 -95.7222
v  85.2187 -46.5177 -96.3208
v  92.0223 -46.5476 -96.3570
v  54.1870 -46.3927 -96.1755
v  24.4785 -46.2758 -96.0062
v  -1.5958 -46.1769 -95.8568
v  -46.4249 -46.1395 -95.7669
v  -19.7952 -46.1398 -95.7913
v  -74.1615 -46.1688 -95.7967
v  -86.8369 -46.1884 -95.8279
v  -89.0134 -46.0716 -95.8632
v  -96.3702 -42.7081 -96.5700
# 71 vertices

vn -0.0066 -0.2405 -0.9706
vn -0.0044 -0.3630 -0.9318
vn -0.0159 -0.2364 -0.9715
vn -0.0114 -0.3629 -0.9318
vn 0.0038 -0.3616 -0.9323
vn 0.0033 -0.2467 -0.9691
vn 0.0062 -0.3586 -0.9335
vn 0.0061 -0.2499 -0.9682
vn 0.0107 -0.1868 -0.9823
vn -0.0016 -0.1917 -0.9814
vn 0.0206 -0.9044 -0.4263
vn 0.0192 -0.8878 -0.4598
vn 0.0191 -0.9040 -0.4272
vn 0.0181 -0.8874 -0.4607
vn 0.0116 -0.9042 -0.4269
vn 0.0123 -0.8870 -0.4616
vn 0.0079 -0.9022 -0.4312
vn 0.0094 -0.8843 -0.4668
vn 0.0042 -0.9012 -0.4334
vn 0.0044 -0.9012 -0.4334
vn 0.0041 -0.8842 -0.4672
vn 0.0047 -0.8840 -0.4675
vn 0.0025 -0.8975 -0.4409
vn 0.0037 -0.9010 -0.4338
vn 0.0025 -0.8794 -0.4760
vn 0.0037 -0.8839 -0.4677
vn 0.0042 -0.2487 -0.9686
vn 0.0032 -0.3571 -0.9341
vn 0.0118 -0.1797 -0.9836
vn 0.0089 -0.1763 -0.9843
vn 0.0132 -0.8105 -0.5856
vn 0.0138 -0.8107 -0.5854
vn 0.0119 -0.8099 -0.5864
vn 0.0094 -0.8057 -0.5923
vn 0.0049 -0.8043 -0.5942
vn 0.0039 -0.8054 -0.5928
vn 0.0028 -0.2483 -0.9687
vn 0.0025 -0.3563 -0.9344
vn 0.0024 -0.3484 -0.9373
vn 0.0027 -0.2471 -0.9690
vn 0.0017 -0.3311 -0.9436
vn 0.0013 -0.2479 -0.9688
vn -0.0024 -0.9039 -0.4278
vn -0.0026 -0.8871 -0.4616
vn -0.0030 -0.9042 -0.4271
vn -0.0032 -0.8875 -0.4608
vn -0.0023 -0.9018 -0.4320
vn -0.0025 -0.8848 -0.4660
vn -0.0025 -0.8805 -0.4740
vn -0.0022 -0.8983 -0.4394
vn -0.0015 -0.8766 -0.4812
vn -0.0012 -0.8950 -0.4461
vn -0.0048 -0.3218 -0.9468
vn -0.0053 -0.2558 -0.9667
vn -0.0063 -0.3346 -0.9423
vn -0.0066 -0.2588 -0.9659
vn -0.0006 -0.3207 -0.9472
vn -0.0014 -0.2518 -0.9678
vn 0.0014 -0.8948 -0.4465
vn 0.0011 -0.8757 -0.4828
vn -0.0033 -0.8087 -0.5882
vn -0.0037 -0.8094 -0.5873
vn -0.0051 -0.2651 -0.9642
vn -0.0046 -0.3597 -0.9331
vn -0.0055 -0.2625 -0.9649
vn -0.0055 -0.3579 -0.9337
vn -0.0035 -0.8047 -0.5937
vn -0.0060 -0.3492 -0.9370
vn -0.0061 -0.2619 -0.9651
vn -0.0036 -0.7975 -0.6033
vn -0.0025 -0.7908 -0.6120
vn 0.0034 -0.8037 -0.5950
vn 0.0027 -0.7958 -0.6055
vn 0.0006 -0.7902 -0.6128
vn -0.0053 -0.1790 -0.9838
vn -0.0060 -0.1822 -0.9832
vn -0.0061 -0.1871 -0.9823
vn -0.0068 -0.1969 -0.9804
vn -0.0058 -0.2042 -0.9789
vn 0.0009 -0.1885 -0.9821
vn -0.0021 -0.2021 -0.9794
vn 0.0027 -0.1745 -0.9846
vn 0.0031 -0.1724 -0.9850
vn 0.0072 -0.1751 -0.9845
vn 0.0056 -0.1940 -0.9810
# 85 vertex normals

vt 0.3347 0.9801 0.0000
vt 0.3348 0.9839 0.0000
vt 0.3307 0.9803 0.0000
vt 0.3307 0.9841 0.0000
vt 0.3387 0.9838 0.0000
vt 0.3387 0.9800 0.0000
vt 0.3444 0.9838 0.0000
vt 0.3444 0.9799 0.0000
vt 0.3383 0.9718 0.0000
vt 0.3344 0.9699 0.0000
vt 0.3308 0.9864 0.0000
vt 0.3307 0.9847 0.0000
vt 0.3348 0.9863 0.0000
vt 0.3348 0.9845 0.0000
vt 0.3388 0.9862 0.0000
vt 0.3387 0.9844 0.0000
vt 0.3445 0.9861 0.0000
vt 0.3444 0.9844 0.0000
vt 0.3512 0.9861 0.0000
vt 0.3468 0.9861 0.0000
vt 0.3511 0.9843 0.0000
vt 0.3468 0.9844 0.0000
vt 0.4326 0.9857 0.0000
vt 0.3766 0.9860 0.0000
vt 0.4325 0.9840 0.0000
vt 0.3766 0.9842 0.0000
vt 0.3467 0.9799 0.0000
vt 0.3468 0.9837 0.0000
vt 0.3412 0.9729 0.0000
vt 0.3440 0.9734 0.0000
vt 0.3511 0.9837 0.0000
vt 0.3511 0.9799 0.0000
vt 0.3766 0.9836 0.0000
vt 0.3766 0.9798 0.0000
vt 0.4325 0.9834 0.0000
vt 0.4325 0.9796 0.0000
vt 0.6996 0.9855 0.0000
vt 0.6995 0.9838 0.0000
vt 0.7133 0.9855 0.0000
vt 0.7133 0.9838 0.0000
vt 0.6368 0.9855 0.0000
vt 0.6367 0.9838 0.0000
vt 0.5764 0.9838 0.0000
vt 0.5764 0.9855 0.0000
vt 0.5234 0.9838 0.0000
vt 0.5234 0.9855 0.0000
vt 0.5234 0.9832 0.0000
vt 0.5234 0.9794 0.0000
vt 0.5764 0.9832 0.0000
vt 0.5763 0.9794 0.0000
vt 0.4859 0.9832 0.0000
vt 0.4863 0.9794 0.0000
vt 0.4853 0.9856 0.0000
vt 0.4858 0.9838 0.0000
vt 0.6995 0.9832 0.0000
vt 0.7133 0.9832 0.0000
vt 0.7133 0.9794 0.0000
vt 0.6995 0.9794 0.0000
vt 0.6367 0.9832 0.0000
vt 0.6367 0.9794 0.0000
vt 0.6997 0.9748 0.0000
vt 0.7135 0.9749 0.0000
vt 0.6368 0.9745 0.0000
vt 0.5766 0.9743 0.0000
vt 0.5237 0.9741 0.0000
vt 0.4328 0.9740 0.0000
vt 0.4868 0.9740 0.0000
vt 0.3765 0.9741 0.0000
vt 0.3508 0.9741 0.0000
vt 0.3464 0.9739 0.0000
vt 0.3315 0.9671 0.0000
# 71 texture coords

g P345_206A_L_DaS_P345_206A_L
usemtl paint_whiteSG
s 1
f 1/1/1 2/2/2 3/3/3 
f 3/3/3 2/2/2 4/4/4 
f 5/5/5 6/6/6 7/7/7 
f 7/7/7 6/6/6 8/8/8 
f 6/6/6 1/1/1 9/9/9 
f 9/9/9 1/1/1 10/10/10 
s 3
f 11/11/11 12/12/12 13/13/13 
f 13/13/13 12/12/12 14/14/14 
f 15/15/15 16/16/16 17/17/17 
f 17/17/17 16/16/16 18/18/18 
f 16/16/16 15/15/15 14/14/14 
f 14/14/14 15/15/15 13/13/13 
f 19/19/19 20/20/20 21/21/21 
f 21/21/21 20/20/20 22/22/22 
f 23/23/23 24/24/24 25/25/25 
f 25/25/25 24/24/24 26/26/26 
f 22/22/22 20/20/20 18/18/18 
f 18/18/18 20/20/20 17/17/17 
s 1
f 8/8/8 27/27/27 7/7/7 
f 7/7/7 27/27/27 28/28/28 
f 9/9/9 29/29/29 6/6/6 
f 6/6/6 29/29/29 8/8/8 
f 29/29/29 30/30/30 8/8/8 
s 3
f 12/12/12 4/4/31 14/14/14 
f 14/14/14 4/4/31 2/2/32 
f 14/14/14 2/2/32 16/16/16 
f 16/16/16 2/2/32 5/5/33 
s 1
f 6/6/6 5/5/5 1/1/1 
f 1/1/1 5/5/5 2/2/2 
s 3
f 7/7/34 18/18/18 5/5/33 
f 5/5/33 18/18/18 16/16/16 
f 18/18/18 7/7/34 22/22/22 
f 22/22/22 7/7/34 28/28/35 
f 22/22/22 28/28/35 21/21/21 
f 21/21/21 28/28/35 31/31/36 
s 1
f 32/32/37 31/31/38 27/27/27 
f 27/27/27 31/31/38 28/28/28 
f 33/33/39 34/34/40 35/35/41 
f 35/35/41 34/34/40 36/36/42 
s 3
f 37/37/43 38/38/44 39/39/45 
f 39/39/45 38/38/44 40/40/46 
f 41/41/47 42/42/48 37/37/43 
f 37/37/43 42/42/48 38/38/44 
f 43/43/49 44/44/50 45/45/51 
f 45/45/51 44/44/50 46/46/52 
s 1
f 47/47/53 48/48/54 49/49/55 
f 49/49/55 48/48/54 50/50/56 
f 35/35/41 36/36/42 51/51/57 
f 51/51/57 36/36/42 52/52/58 
s 3
f 23/23/23 25/25/25 53/53/59 
f 53/53/59 25/25/25 54/54/60 
f 38/38/44 55/55/61 40/40/46 
f 40/40/46 55/55/61 56/56/62 
s 1
f 57/57/63 56/56/64 58/58/65 
f 58/58/65 56/56/64 55/55/66 
s 3
f 55/55/61 38/38/44 59/59/67 
f 59/59/67 38/38/44 42/42/48 
s 1
f 59/59/68 60/60/69 55/55/66 
f 55/55/66 60/60/69 58/58/65 
s 3
f 49/49/70 43/43/49 47/47/71 
f 47/47/71 43/43/49 45/45/51 
f 26/26/26 33/33/72 25/25/25 
f 25/25/25 33/33/72 35/35/73 
f 25/25/25 35/35/73 54/54/60 
f 54/54/60 35/35/73 51/51/74 
s 1
f 49/49/55 50/50/56 59/59/68 
f 59/59/68 50/50/56 60/60/69 
s 3
f 59/59/67 42/42/48 49/49/70 
f 49/49/70 42/42/48 43/43/49 
f 44/44/50 43/43/49 41/41/47 
f 41/41/47 43/43/49 42/42/48 
f 24/24/24 19/19/19 26/26/26 
f 26/26/26 19/19/19 21/21/21 
f 31/31/36 33/33/72 21/21/21 
f 21/21/21 33/33/72 26/26/26 
s 1
f 34/34/40 33/33/39 32/32/37 
f 32/32/37 33/33/39 31/31/38 
f 58/58/65 61/61/75 57/57/63 
f 57/57/63 61/61/75 62/62/76 
f 61/61/75 58/58/65 63/63/77 
f 63/63/77 58/58/65 60/60/69 
f 50/50/56 64/64/78 60/60/69 
f 60/60/69 64/64/78 63/63/77 
f 48/48/54 65/65/79 50/50/56 
f 50/50/56 65/65/79 64/64/78 
f 36/36/42 66/66/80 52/52/58 
f 52/52/58 66/66/80 67/67/81 
f 34/34/40 68/68/82 36/36/42 
f 36/36/42 68/68/82 66/66/80 
f 69/69/83 68/68/82 32/32/37 
f 32/32/37 68/68/82 34/34/40 
f 32/32/37 27/27/27 69/69/83 
f 69/69/83 27/27/27 70/70/84 
f 30/30/30 70/70/84 8/8/8 
f 8/8/8 70/70/84 27/27/27 
f 71/71/85 10/10/10 3/3/3 
f 3/3/3 10/10/10 1/1/1 
f 52/52/58 67/67/81 48/48/54 
f 48/48/54 67/67/81 65/65/79 
f 51/51/57 52/52/58 47/47/53 
f 47/47/53 52/52/58 48/48/54 
s 3
f 47/47/71 45/45/51 51/51/74 
f 51/51/74 45/45/51 54/54/60 
f 45/45/51 46/46/52 54/54/60 
f 54/54/60 46/46/52 53/53/59 
# 105 faces

#
# object P345_206A_L_DaS_P345_206A_L_E
#

v  92.0223 -46.5476 -96.3570
v  85.2187 -46.5177 -96.3208
v  92.0260 -46.4590 -95.8788
v  85.2215 -46.4294 -95.8425
v  54.1870 -46.3927 -96.1755
v  54.1897 -46.3014 -95.6978
v  24.4785 -46.2758 -96.0062
v  24.4816 -46.1803 -95.5294
v  -1.5958 -46.1769 -95.8568
v  -1.5933 -46.0787 -95.3805
v  -19.7952 -46.1398 -95.7913
v  -19.7940 -46.0429 -95.3147
v  -46.4249 -46.1395 -95.7669
v  -46.4249 -46.0481 -95.2892
v  -74.1615 -46.1688 -95.7967
v  -74.1624 -46.0826 -95.3180
v  -86.8369 -46.1884 -95.8279
v  -86.8392 -46.1042 -95.3489
v  -89.0135 -46.0716 -95.8632
v  -89.0177 -45.9868 -95.3843
v  -94.9128 -44.1126 -96.3010
v  -96.3702 -42.7081 -96.5700
v  -94.9153 -44.0195 -95.8236
v  -96.3688 -42.6122 -96.0931
v  -93.0090 -45.0456 -96.1010
v  -93.0155 -44.9545 -95.6233
v  -91.5963 -45.5893 -95.9730
v  -91.6025 -45.4986 -95.4953
v  -90.1961 -45.8457 -95.9146
v  -90.2016 -45.7581 -95.4363
# 30 vertices

vn 0.0034 0.9833 -0.1822
vn 0.0032 0.9834 -0.1817
vn 0.0030 0.9822 -0.1877
vn 0.0027 0.9805 -0.1964
vn 0.0027 0.9805 -0.1965
vn 0.0020 0.9794 -0.2019
vn 0.0005 0.9800 -0.1991
vn 0.0005 0.9800 -0.1990
vn -0.0006 0.9821 -0.1881
vn -0.0006 0.9822 -0.1880
vn -0.0011 0.9842 -0.1772
vn -0.0011 0.9842 -0.1771
vn 0.0272 0.9845 -0.1730
vn 0.1242 0.9773 -0.1718
vn 0.1245 0.9771 -0.1725
vn 0.5817 0.7990 -0.1522
vn 0.7004 0.7013 -0.1331
vn 0.5718 0.8058 -0.1542
vn 0.7020 0.6977 -0.1426
vn 0.4080 0.8978 -0.1656
vn 0.4081 0.8977 -0.1660
vn 0.2779 0.9445 -0.1751
vn 0.2783 0.9443 -0.1756
vn 0.1890 0.9664 -0.1741
vn 0.1895 0.9661 -0.1754
# 25 vertex normals

vt 0.7135 0.9749 0.0000
vt 0.6997 0.9748 0.0000
vt 0.7136 0.9747 0.0000
vt 0.6998 0.9746 0.0000
vt 0.6368 0.9745 0.0000
vt 0.6368 0.9744 0.0000
vt 0.5766 0.9743 0.0000
vt 0.5766 0.9741 0.0000
vt 0.5237 0.9741 0.0000
vt 0.5237 0.9739 0.0000
vt 0.4868 0.9740 0.0000
vt 0.4868 0.9738 0.0000
vt 0.4328 0.9740 0.0000
vt 0.4328 0.9739 0.0000
vt 0.3765 0.9741 0.0000
vt 0.3766 0.9739 0.0000
vt 0.3508 0.9741 0.0000
vt 0.3508 0.9740 0.0000
vt 0.3464 0.9739 0.0000
vt 0.3464 0.9737 0.0000
vt 0.3344 0.9699 0.0000
vt 0.3315 0.9671 0.0000
vt 0.3345 0.9697 0.0000
vt 0.3315 0.9669 0.0000
vt 0.3383 0.9718 0.0000
vt 0.3383 0.9716 0.0000
vt 0.3412 0.9729 0.0000
vt 0.3412 0.9727 0.0000
vt 0.3440 0.9734 0.0000
vt 0.3440 0.9733 0.0000
# 30 texture coords

g P345_206A_L_DaS_P345_206A_L_E
usemtl paint_whiteSG
s 16
f 72/72/86 73/73/87 74/74/86 
f 74/74/86 73/73/87 75/75/87 
f 73/73/87 76/76/88 75/75/87 
f 75/75/87 76/76/88 77/77/88 
f 76/76/88 78/78/89 77/77/88 
f 77/77/88 78/78/89 79/79/90 
f 78/78/89 80/80/91 79/79/90 
f 79/79/90 80/80/91 81/81/91 
f 80/80/91 82/82/92 81/81/91 
f 81/81/91 82/82/92 83/83/93 
f 82/82/92 84/84/94 83/83/93 
f 83/83/93 84/84/94 85/85/95 
f 84/84/94 86/86/96 85/85/95 
f 85/85/95 86/86/96 87/87/97 
f 86/86/96 88/88/98 87/87/97 
f 87/87/97 88/88/98 89/89/98 
f 88/88/98 90/90/99 89/89/98 
f 89/89/98 90/90/99 91/91/100 
f 92/92/101 93/93/102 94/94/103 
s off
f 94/94/104 93/93/104 95/95/104 
s 16
f 96/96/105 92/92/101 97/97/106 
f 97/97/106 92/92/101 94/94/103 
f 96/96/105 97/97/106 98/98/107 
f 98/98/107 97/97/106 99/99/108 
f 90/90/99 100/100/109 91/91/100 
f 91/91/100 100/100/109 101/101/110 
f 100/100/109 98/98/107 101/101/110 
f 101/101/110 98/98/107 99/99/108 
# 28 faces

