# 3ds Max Wavefront OBJ Exporter v0.97b - (c)2007 guruware
# File Created: 04.12.2015 16:45:52

mtllib P345_305B_L.mtl

#
# object P345_305B_L_DTaSI_P345_305B_L
#

v  -78.5151 52.0767 -79.6574
v  -63.5871 51.7531 -79.7027
v  -77.8855 46.0919 -82.3679
v  -63.2534 45.6528 -82.4153
v  -63.2723 48.7607 -81.0580
v  -48.6214 45.2137 -82.4626
v  -77.3676 40.8420 -84.5537
v  -62.9810 40.3353 -84.6161
v  -77.0045 37.0953 -86.0970
v  -62.7895 36.5713 -86.1636
v  -62.7994 38.4620 -85.3878
v  -48.5746 36.0473 -86.2303
v  -76.8498 35.4918 -86.7624
v  -62.7073 34.9226 -86.8477
v  -48.5648 34.3535 -86.9330
v  -48.5943 39.8287 -84.6786
v  -33.4553 39.2429 -84.7182
v  -32.9572 35.4042 -86.2811
v  -32.7314 33.6638 -87.0011
v  -62.9945 43.0278 -83.5082
v  -79.2264 58.0068 -76.5493
v  -63.9485 57.8540 -76.6107
v  -63.5928 54.8889 -78.1647
v  -48.6592 51.4295 -79.7481
v  -81.1595 69.1902 -69.3518
v  -65.1575 69.5089 -69.4683
v  -80.0960 63.7524 -73.0697
v  -64.3969 63.8721 -73.0746
v  -64.6247 66.7017 -71.1936
v  -48.6977 63.9919 -73.0794
v  -63.9621 60.9993 -74.8144
v  -48.6706 57.7012 -76.6720
v  -97.8675 37.7712 -85.8592
v  -87.4360 37.4333 -85.9781
v  -97.7352 36.2716 -86.4857
v  -87.2925 35.8817 -86.6240
v  -87.8005 41.1672 -84.4264
v  -98.2334 41.4924 -84.2990
v  -88.0594 43.7922 -83.3335
v  -88.3546 46.3467 -82.2400
v  -98.8238 46.6015 -82.1120
v  -88.6694 49.3391 -80.8847
v  -89.1152 52.1730 -79.5598
v  -99.7154 52.2693 -79.4622
v  -89.4709 55.1380 -78.0057
v  -89.9558 57.8352 -76.5421
v  -100.6851 57.6636 -76.5348
v  -90.3906 60.7080 -74.8023
v  -90.7401 63.2277 -73.2417
v  -101.3841 62.7030 -73.4136
v  -49.2712 74.1467 -66.2314
v  -37.9598 73.9604 -66.5521
v  -49.1533 69.6510 -69.3174
v  -37.3865 69.5417 -69.4378
v  -81.8420 72.0995 -67.1897
v  -65.5566 73.5208 -66.7106
v  -91.4365 68.1062 -69.9023
v  -94.5448 69.4967 -68.8202
v  -88.5619 71.0848 -67.7949
v  -101.7135 67.0223 -70.4528
v  -91.2718 65.9466 -71.3827
v  -34.1676 44.7328 -82.4870
v  -34.9874 51.0518 -79.7873
v  -35.8130 57.4149 -76.7581
v  -36.6384 63.7761 -73.2078
v  -107.3686 57.1749 -76.5422
v  -106.7210 52.0594 -79.3283
v  -106.0326 46.6208 -81.9204
v  -105.4022 41.6404 -84.1114
v  -104.9347 37.9475 -85.6879
v  -104.7472 36.4663 -86.3106
v  -107.9687 61.9158 -73.6107
v  -108.1774 63.5643 -72.4764
v  -62.7122 35.7696 -86.4963
v  -87.6176 39.3066 -85.2064
v  -87.3698 36.6835 -86.2913
# 76 vertices

vn 0.0012 0.4381 -0.8989
vn 0.0065 0.4263 -0.9045
vn 0.0043 0.3994 -0.9168
vn 0.0088 0.3929 -0.9195
vn 0.0077 0.4062 -0.9137
vn 0.0097 0.3907 -0.9205
vn 0.0058 0.3833 -0.9236
vn 0.0094 0.3810 -0.9245
vn 0.0064 0.3821 -0.9241
vn 0.0097 0.3810 -0.9245
vn 0.0095 0.3806 -0.9247
vn 0.0112 0.3807 -0.9246
vn 0.0068 0.3838 -0.9234
vn 0.0099 0.3833 -0.9236
vn 0.0114 0.3833 -0.9236
vn 0.0107 0.3800 -0.9249
vn 0.0124 0.3782 -0.9256
vn 0.0126 0.3803 -0.9248
vn 0.0127 0.3836 -0.9234
vn 0.0090 0.3827 -0.9238
vn -0.0034 0.4905 -0.8715
vn 0.0013 0.4798 -0.8774
vn 0.0042 0.4514 -0.8923
vn 0.0074 0.4201 -0.9075
vn -0.0189 0.5718 -0.8202
vn -0.0045 0.5518 -0.8340
vn -0.0104 0.5388 -0.8424
vn -0.0043 0.5345 -0.8451
vn -0.0008 0.5398 -0.8418
vn -0.0014 0.5243 -0.8515
vn -0.0011 0.5058 -0.8627
vn 0.0033 0.4686 -0.8834
vn -0.0045 0.3858 -0.9226
vn 0.0018 0.3823 -0.9240
vn -0.0034 0.3852 -0.9228
vn 0.0021 0.3834 -0.9236
vn 0.0008 0.3854 -0.9227
vn -0.0065 0.3901 -0.9208
vn -0.0005 0.3888 -0.9213
vn -0.0014 0.4037 -0.9149
vn -0.0107 0.4086 -0.9127
vn -0.0026 0.4172 -0.9088
vn -0.0042 0.4425 -0.8968
vn -0.0152 0.4485 -0.8936
vn -0.0060 0.4696 -0.8829
vn -0.0085 0.4975 -0.8674
vn -0.0202 0.4997 -0.8659
vn -0.0104 0.5209 -0.8536
vn -0.0133 0.5450 -0.8383
vn -0.0240 0.5428 -0.8395
vn -0.0042 0.5658 -0.8245
vn -0.0063 0.5516 -0.8341
vn -0.0035 0.5575 -0.8302
vn -0.0016 0.5482 -0.8364
vn -0.0246 0.5926 -0.8051
vn -0.0077 0.5674 -0.8234
vn -0.0168 0.5749 -0.8180
vn -0.0186 0.5882 -0.8085
vn -0.0183 0.5911 -0.8064
vn -0.0238 0.5651 -0.8247
vn -0.0148 0.5633 -0.8261
vn 0.0118 0.3860 -0.9224
vn 0.0101 0.4116 -0.9113
vn 0.0065 0.4584 -0.8887
vn 0.0023 0.5153 -0.8570
vn -0.0355 0.4992 -0.8658
vn -0.0313 0.4515 -0.8917
vn -0.0252 0.4136 -0.9101
vn -0.0186 0.3945 -0.9187
vn -0.0144 0.3884 -0.9214
vn -0.0127 0.3859 -0.9224
vn -0.0384 0.5329 -0.8453
vn -0.0426 0.5627 -0.8256
vn 0.0098 0.3836 -0.9234
vn 0.0013 0.3839 -0.9234
vn 0.0020 0.3845 -0.9231
# 76 vertex normals

vt 0.6791 0.8995 0.0000
vt 0.6236 0.9007 0.0000
vt 0.6767 0.9218 0.0000
vt 0.6223 0.9234 0.0000
vt 0.6224 0.9119 0.0000
vt 0.5679 0.9250 0.0000
vt 0.6748 0.9413 0.0000
vt 0.6213 0.9432 0.0000
vt 0.6735 0.9552 0.0000
vt 0.6206 0.9572 0.0000
vt 0.6207 0.9501 0.0000
vt 0.5678 0.9591 0.0000
vt 0.6729 0.9612 0.0000
vt 0.6203 0.9633 0.0000
vt 0.5677 0.9654 0.0000
vt 0.5678 0.9451 0.0000
vt 0.5116 0.9472 0.0000
vt 0.5097 0.9615 0.0000
vt 0.5089 0.9680 0.0000
vt 0.6214 0.9332 0.0000
vt 0.6817 0.8775 0.0000
vt 0.6249 0.8781 0.0000
vt 0.6236 0.8891 0.0000
vt 0.5681 0.9019 0.0000
vt 0.6889 0.8359 0.0000
vt 0.6294 0.8351 0.0000
vt 0.6850 0.8561 0.0000
vt 0.6266 0.8557 0.0000
vt 0.6274 0.8452 0.0000
vt 0.5682 0.8552 0.0000
vt 0.6250 0.8664 0.0000
vt 0.5681 0.8786 0.0000
vt 0.7510 0.9527 0.0000
vt 0.7122 0.9540 0.0000
vt 0.7505 0.9583 0.0000
vt 0.7117 0.9597 0.0000
vt 0.7136 0.9401 0.0000
vt 0.7524 0.9389 0.0000
vt 0.7146 0.9303 0.0000
vt 0.7157 0.9208 0.0000
vt 0.7546 0.9199 0.0000
vt 0.7168 0.9097 0.0000
vt 0.7185 0.8992 0.0000
vt 0.7579 0.8988 0.0000
vt 0.7198 0.8882 0.0000
vt 0.7216 0.8781 0.0000
vt 0.7615 0.8788 0.0000
vt 0.7232 0.8674 0.0000
vt 0.7245 0.8581 0.0000
vt 0.7641 0.8600 0.0000
vt 0.5704 0.8175 0.0000
vt 0.5283 0.8182 0.0000
vt 0.5699 0.8342 0.0000
vt 0.5262 0.8346 0.0000
vt 0.6914 0.8251 0.0000
vt 0.6309 0.8198 0.0000
vt 0.7271 0.8399 0.0000
vt 0.7387 0.8348 0.0000
vt 0.7164 0.8289 0.0000
vt 0.7653 0.8440 0.0000
vt 0.7265 0.8480 0.0000
vt 0.5142 0.9268 0.0000
vt 0.5173 0.9033 0.0000
vt 0.5203 0.8797 0.0000
vt 0.5234 0.8560 0.0000
vt 0.7863 0.8806 0.0000
vt 0.7839 0.8996 0.0000
vt 0.7814 0.9198 0.0000
vt 0.7790 0.9383 0.0000
vt 0.7773 0.9521 0.0000
vt 0.7766 0.9576 0.0000
vt 0.7886 0.8630 0.0000
vt 0.7893 0.8568 0.0000
vt 0.6203 0.9602 0.0000
vt 0.7129 0.9470 0.0000
vt 0.7120 0.9568 0.0000
# 76 texture coords

g P345_305B_L_DTaSI_P345_305B_L
usemtl windowglass_1SG
s 1
f 1/1/1 2/2/2 3/3/3 
f 4/4/4 5/5/5 6/6/6 
f 7/7/7 8/8/8 9/9/9 
f 10/10/10 11/11/11 12/12/12 
f 9/9/9 10/10/10 13/13/13 
f 14/14/14 12/12/12 15/15/15 
f 16/16/16 17/17/17 12/12/12 
f 12/12/12 17/17/17 18/18/18 
f 12/12/12 18/18/18 15/15/15 
f 15/15/15 18/18/18 19/19/19 
f 3/3/3 4/4/4 7/7/7 
f 8/8/8 20/20/20 16/16/16 
f 21/21/21 22/22/22 1/1/1 
f 2/2/2 23/23/23 24/24/24 
f 25/25/25 26/26/26 27/27/27 
f 28/28/28 29/29/29 30/30/30 
f 27/27/27 28/28/28 21/21/21 
f 22/22/22 31/31/31 32/32/32 
f 33/33/33 34/34/34 35/35/35 
f 36/36/36 9/9/9 13/13/13 
f 9/9/9 34/34/34 7/7/7 
f 37/37/37 33/33/33 38/38/38 
f 7/7/7 37/37/37 39/39/39 
f 40/40/40 39/39/39 41/41/41 
f 3/3/3 40/40/40 42/42/42 
f 43/43/43 41/41/41 44/44/44 
f 1/1/1 43/43/43 45/45/45 
f 46/46/46 45/45/45 47/47/47 
f 21/21/21 46/46/46 48/48/48 
f 49/49/49 48/48/48 50/50/50 
f 51/51/51 52/52/52 53/53/53 
f 53/53/53 52/52/52 54/54/54 
f 55/55/55 56/56/56 25/25/25 
f 26/26/26 56/56/56 53/53/53 
f 56/56/56 51/51/51 53/53/53 
f 57/57/57 58/58/58 25/25/25 
f 58/58/58 59/59/59 25/25/25 
f 59/59/59 55/55/55 25/25/25 
f 60/60/60 57/57/57 61/61/61 
f 49/49/49 61/61/61 27/27/27 
f 62/62/62 6/6/6 63/63/63 
f 63/63/63 6/6/6 24/24/24 
f 17/17/17 16/16/16 62/62/62 
f 62/62/62 16/16/16 6/6/6 
f 63/63/63 24/24/24 64/64/64 
f 64/64/64 24/24/24 32/32/32 
f 65/65/65 30/30/30 54/54/54 
f 54/54/54 30/30/30 53/53/53 
f 64/64/64 32/32/32 65/65/65 
f 65/65/65 32/32/32 30/30/30 
f 66/66/66 47/47/47 67/67/67 
f 67/67/67 47/47/47 44/44/44 
f 68/68/68 41/41/41 69/69/69 
f 69/69/69 41/41/41 38/38/38 
f 67/67/67 44/44/44 68/68/68 
f 68/68/68 44/44/44 41/41/41 
f 70/70/70 33/33/33 71/71/71 
f 71/71/71 33/33/33 35/35/35 
f 69/69/69 38/38/38 70/70/70 
f 70/70/70 38/38/38 33/33/33 
f 72/72/72 73/73/73 50/50/50 
f 50/50/50 73/73/73 60/60/60 
f 72/72/72 50/50/50 66/66/66 
f 66/66/66 50/50/50 47/47/47 
f 26/26/26 53/53/53 29/29/29 
f 25/25/25 56/56/56 26/26/26 
f 26/26/26 29/29/29 27/27/27 
f 29/29/29 53/53/53 30/30/30 
f 27/27/27 29/29/29 28/28/28 
f 28/28/28 30/30/30 31/31/31 
f 28/28/28 31/31/31 21/21/21 
f 31/31/31 30/30/30 32/32/32 
f 21/21/21 31/31/31 22/22/22 
f 22/22/22 32/32/32 23/23/23 
f 22/22/22 23/23/23 1/1/1 
f 23/23/23 32/32/32 24/24/24 
f 1/1/1 23/23/23 2/2/2 
f 2/2/2 24/24/24 5/5/5 
f 2/2/2 5/5/5 3/3/3 
f 5/5/5 24/24/24 6/6/6 
f 3/3/3 5/5/5 4/4/4 
f 4/4/4 6/6/6 20/20/20 
f 4/4/4 20/20/20 7/7/7 
f 20/20/20 6/6/6 16/16/16 
f 13/13/13 74/74/74 14/14/14 
f 7/7/7 20/20/20 8/8/8 
f 8/8/8 16/16/16 11/11/11 
f 8/8/8 11/11/11 9/9/9 
f 11/11/11 16/16/16 12/12/12 
f 9/9/9 11/11/11 10/10/10 
f 10/10/10 12/12/12 74/74/74 
f 10/10/10 74/74/74 13/13/13 
f 74/74/74 12/12/12 14/14/14 
f 60/60/60 61/61/61 50/50/50 
f 61/61/61 25/25/25 27/27/27 
f 57/57/57 25/25/25 61/61/61 
f 60/60/60 58/58/58 57/57/57 
f 21/21/21 48/48/48 27/27/27 
f 48/48/48 47/47/47 50/50/50 
f 1/1/1 45/45/45 21/21/21 
f 45/45/45 44/44/44 47/47/47 
f 43/43/43 44/44/44 45/45/45 
f 1/1/1 42/42/42 43/43/43 
f 42/42/42 41/41/41 43/43/43 
f 3/3/3 42/42/42 1/1/1 
f 7/7/7 39/39/39 3/3/3 
f 39/39/39 38/38/38 41/41/41 
f 37/37/37 38/38/38 39/39/39 
f 7/7/7 75/75/75 37/37/37 
f 34/34/34 9/9/9 76/76/76 
f 34/34/34 33/33/33 75/75/75 
f 35/35/35 76/76/76 36/36/36 
f 27/27/27 48/48/48 49/49/49 
f 50/50/50 61/61/61 49/49/49 
f 21/21/21 45/45/45 46/46/46 
f 46/46/46 47/47/47 48/48/48 
f 3/3/3 39/39/39 40/40/40 
f 40/40/40 41/41/41 42/42/42 
f 34/34/34 75/75/75 7/7/7 
f 75/75/75 33/33/33 37/37/37 
f 76/76/76 9/9/9 36/36/36 
f 34/34/34 76/76/76 35/35/35 
# 122 faces

