# 3ds Max Wavefront OBJ Exporter v0.97b - (c)2007 guruware
# File Created: 21.12.2015 16:57:46

mtllib Y211_285B_R.mtl

#
# object Y211_285B_R_DTaSI_Y211_285B_R
#

v  45.2954 74.8623 77.5130
v  47.4359 68.9726 80.1835
v  57.6130 69.1837 80.0729
v  -4.3925 46.5928 90.3180
v  -2.9576 39.9681 93.1673
v  3.2646 46.2883 90.4011
v  4.5734 39.5803 93.2840
v  11.4317 45.9581 90.4850
v  12.7118 39.2324 93.3798
v  20.6269 45.5952 90.5701
v  21.9330 38.8741 93.4730
v  31.3756 45.1589 90.6711
v  32.7123 38.4551 93.5816
v  42.7040 44.7127 90.7839
v  44.0802 38.0132 93.6958
v  53.6481 44.2759 90.9231
v  55.0674 37.5859 93.8059
v  64.3333 43.8539 91.0597
v  65.7729 37.2180 93.8919
v  -9.6983 71.4176 79.6248
v  -7.9170 63.1063 83.2150
v  -2.0457 71.1192 79.7203
v  -0.2631 62.8073 83.3057
v  6.0603 70.7749 79.7954
v  7.8629 62.4701 83.3827
v  15.1550 70.3780 79.8547
v  16.9914 62.0830 83.4514
v  25.7789 69.8992 79.9127
v  27.6560 61.6195 83.5233
v  36.9054 69.3554 80.0329
v  38.8807 61.1433 83.6354
v  -12.1509 82.5724 74.6370
v  -4.5143 82.2754 74.7389
v  3.5512 81.8843 74.8276
v  12.5723 81.2171 74.9877
v  70.6254 59.5305 84.1795
v  79.6550 60.2957 83.7035
v  68.4576 64.6205 81.9615
v  12.1821 86.8719 72.5026
v  2.8596 88.0475 72.1316
v  34.1502 77.4589 76.3495
v  35.1789 81.2228 74.6558
v  22.9674 80.0988 75.3027
v  23.2970 84.4897 73.3529
v  58.4172 72.6575 78.5185
v  46.8080 77.4013 76.3812
v  75.2500 43.4134 91.1757
v  76.7480 36.9598 93.9280
v  -6.2108 55.1124 86.6534
v  -14.3188 55.2925 86.6113
v  -16.0447 63.2593 83.1743
v  -12.4081 46.9367 90.2153
v  -10.8888 40.4305 93.0208
v  88.0063 36.7827 93.9268
v  86.8079 43.4153 91.0910
v  1.4445 54.8111 86.7403
v  9.5902 54.4780 86.8203
v  18.7511 54.1022 86.8971
v  29.4563 53.6526 86.9829
v  40.7326 53.1926 87.0965
v  51.6131 52.7596 87.2682
v  62.2008 52.3208 87.4405
v  72.9699 51.8145 87.5549
v  49.6942 60.6993 83.8325
v  60.0942 60.1203 84.0774
v  -17.8340 71.5646 79.5757
v  -20.1621 82.6821 74.5891
v  70.2408 66.6321 81.0534
v  -20.9121 87.9827 72.2649
v  -12.9095 88.3204 72.1245
v  84.7600 51.9676 87.3633
v  -5.2948 88.3994 72.0652
# 72 vertices

vn 0.0005 0.4116 0.9114
vn 0.0012 0.4074 0.9132
vn 0.0049 0.4064 0.9137
vn 0.0055 0.3961 0.9182
vn 0.0060 0.3961 0.9182
vn 0.0063 0.3960 0.9182
vn 0.0071 0.3966 0.9180
vn 0.0065 0.3967 0.9179
vn 0.0076 0.3980 0.9174
vn 0.0067 0.3980 0.9174
vn 0.0070 0.3994 0.9167
vn 0.0064 0.3994 0.9168
vn 0.0049 0.3991 0.9169
vn 0.0056 0.3990 0.9169
vn 0.0039 0.3963 0.9181
vn 0.0054 0.3960 0.9182
vn 0.0059 0.3947 0.9188
vn 0.0062 0.3936 0.9193
vn 0.0031 0.4039 0.9148
vn 0.0038 0.3966 0.9180
vn 0.0068 0.4042 0.9146
vn 0.0064 0.3967 0.9179
vn 0.0106 0.4055 0.9140
vn 0.0091 0.3976 0.9175
vn 0.0130 0.4073 0.9132
vn 0.0108 0.3992 0.9168
vn 0.0119 0.4088 0.9125
vn 0.0095 0.4009 0.9161
vn 0.0057 0.4085 0.9128
vn 0.0040 0.4014 0.9159
vn 0.0019 0.4061 0.9138
vn 0.0067 0.4062 0.9138
vn 0.0118 0.4072 0.9132
vn 0.0150 0.4090 0.9124
vn 0.0128 0.4032 0.9150
vn 0.0115 0.4058 0.9139
vn 0.0126 0.4047 0.9144
vn 0.0150 0.4029 0.9151
vn 0.0118 0.4017 0.9157
vn 0.0077 0.4132 0.9106
vn 0.0060 0.4084 0.9128
vn 0.0141 0.4112 0.9114
vn 0.0139 0.4046 0.9144
vn 0.0039 0.4076 0.9131
vn -0.0014 0.4078 0.9131
vn 0.0071 0.3963 0.9181
vn 0.0064 0.3937 0.9192
vn 0.0047 0.3961 0.9182
vn 0.0037 0.3965 0.9180
vn 0.0026 0.3971 0.9178
vn 0.0049 0.3966 0.9180
vn 0.0057 0.3966 0.9180
vn 0.0063 0.3941 0.9190
vn 0.0065 0.3975 0.9176
vn 0.0063 0.3960 0.9183
vn 0.0081 0.3967 0.9179
vn 0.0091 0.3981 0.9173
vn 0.0081 0.3997 0.9166
vn 0.0040 0.3994 0.9168
vn 0.0017 0.3970 0.9178
vn 0.0063 0.3968 0.9179
vn 0.0094 0.4006 0.9162
vn 0.0006 0.4009 0.9161
vn 0.0067 0.4016 0.9158
vn 0.0014 0.4048 0.9144
vn -0.0001 0.4061 0.9138
vn 0.0118 0.4031 0.9151
vn -0.0009 0.4015 0.9159
vn 0.0012 0.4009 0.9161
vn 0.0086 0.4025 0.9154
vn 0.0064 0.4009 0.9161
# 71 vertex normals

vt 0.1777 0.8418 0.0000
vt 0.1696 0.8648 0.0000
vt 0.1333 0.8632 0.0000
vt 0.3531 0.9561 0.0000
vt 0.3475 0.9818 0.0000
vt 0.3258 0.9567 0.0000
vt 0.3206 0.9827 0.0000
vt 0.2966 0.9574 0.0000
vt 0.2915 0.9834 0.0000
vt 0.2637 0.9580 0.0000
vt 0.2585 0.9841 0.0000
vt 0.2252 0.9589 0.0000
vt 0.2199 0.9849 0.0000
vt 0.1847 0.9597 0.0000
vt 0.1793 0.9857 0.0000
vt 0.1456 0.9606 0.0000
vt 0.1400 0.9865 0.0000
vt 0.1074 0.9614 0.0000
vt 0.1017 0.9871 0.0000
vt 0.3740 0.8599 0.0000
vt 0.3670 0.8921 0.0000
vt 0.3466 0.8605 0.0000
vt 0.3396 0.8927 0.0000
vt 0.3176 0.8612 0.0000
vt 0.3106 0.8934 0.0000
vt 0.2851 0.8619 0.0000
vt 0.2779 0.8941 0.0000
vt 0.2471 0.8628 0.0000
vt 0.2398 0.8950 0.0000
vt 0.2073 0.8640 0.0000
vt 0.1996 0.8959 0.0000
vt 0.3836 0.8164 0.0000
vt 0.3563 0.8170 0.0000
vt 0.3274 0.8179 0.0000
vt 0.2951 0.8196 0.0000
vt 0.0861 0.8998 0.0000
vt 0.0538 0.8960 0.0000
vt 0.0942 0.8801 0.0000
vt 0.2970 0.7976 0.0000
vt 0.3304 0.7939 0.0000
vt 0.2177 0.8324 0.0000
vt 0.2144 0.8176 0.0000
vt 0.2579 0.8230 0.0000
vt 0.2571 0.8059 0.0000
vt 0.1307 0.8496 0.0000
vt 0.1725 0.8318 0.0000
vt 0.0683 0.9623 0.0000
vt 0.0625 0.9872 0.0000
vt 0.3603 0.9231 0.0000
vt 0.3893 0.9230 0.0000
vt 0.3960 0.8921 0.0000
vt 0.3818 0.9554 0.0000
vt 0.3759 0.9806 0.0000
vt 0.0222 0.9870 0.0000
vt 0.0270 0.9613 0.0000
vt 0.3329 0.9237 0.0000
vt 0.3038 0.9243 0.0000
vt 0.2710 0.9250 0.0000
vt 0.2327 0.9259 0.0000
vt 0.1924 0.9268 0.0000
vt 0.1535 0.9277 0.0000
vt 0.1156 0.9286 0.0000
vt 0.0771 0.9297 0.0000
vt 0.1609 0.8969 0.0000
vt 0.1237 0.8984 0.0000
vt 0.4031 0.8599 0.0000
vt 0.4122 0.8165 0.0000
vt 0.0880 0.8721 0.0000
vt 0.4153 0.7959 0.0000
vt 0.3867 0.7941 0.0000
vt 0.0350 0.9281 0.0000
vt 0.3595 0.7932 0.0000
# 72 texture coords

g Y211_285B_R_DTaSI_Y211_285B_R
usemtl windowglass_1SG
s 1
f 1/1/1 2/2/2 3/3/3 
f 4/4/4 5/5/5 6/6/6 
f 6/6/6 5/5/5 7/7/6 
f 8/8/7 9/9/8 10/10/9 
f 10/10/9 9/9/8 11/11/10 
f 12/12/11 13/13/12 14/14/13 
f 14/14/13 13/13/12 15/15/14 
f 16/16/15 17/17/16 18/18/17 
f 18/18/17 17/17/16 19/19/18 
f 20/20/19 21/21/20 22/22/21 
f 22/22/21 21/21/20 23/23/22 
f 24/24/23 25/25/24 26/26/25 
f 26/26/25 25/25/24 27/27/26 
f 28/28/27 29/29/28 30/30/29 
f 30/30/29 29/29/28 31/31/30 
f 32/32/31 20/20/19 33/33/32 
f 33/33/32 20/20/19 22/22/21 
f 34/34/33 24/24/23 35/35/34 
f 35/35/34 24/24/23 26/26/25 
f 36/36/35 37/37/36 38/38/37 
f 35/35/34 39/39/38 34/34/33 
f 34/34/33 39/39/38 40/40/39 
f 41/41/40 42/42/41 43/43/42 
f 43/43/42 42/42/41 44/44/43 
f 3/3/3 45/45/44 1/1/1 
f 1/1/1 45/45/44 46/46/45 
f 6/6/6 7/7/6 8/8/7 
f 8/8/7 7/7/6 9/9/8 
f 10/10/9 11/11/10 12/12/11 
f 12/12/11 11/11/10 13/13/12 
f 14/14/13 15/15/14 16/16/15 
f 16/16/15 15/15/14 17/17/16 
f 18/18/17 19/19/18 47/47/46 
f 47/47/46 19/19/18 48/48/47 
f 49/49/48 21/21/20 50/50/49 
f 50/50/49 21/21/20 51/51/50 
f 4/4/4 49/49/48 52/52/51 
f 52/52/51 49/49/48 50/50/49 
f 52/52/51 53/53/52 4/4/4 
f 4/4/4 53/53/52 5/5/5 
f 54/54/53 55/55/54 48/48/47 
f 48/48/47 55/55/54 47/47/46 
f 41/41/40 30/30/29 1/1/1 
f 1/1/1 30/30/29 2/2/2 
f 6/6/6 56/56/55 4/4/4 
f 4/4/4 56/56/55 49/49/48 
f 8/8/7 57/57/56 6/6/6 
f 6/6/6 57/57/56 56/56/55 
f 10/10/9 58/58/57 8/8/7 
f 8/8/7 58/58/57 57/57/56 
f 12/12/11 59/59/58 10/10/9 
f 10/10/9 59/59/58 58/58/57 
f 14/14/13 60/60/59 12/12/11 
f 12/12/11 60/60/59 59/59/58 
f 60/60/59 14/14/13 61/61/60 
f 61/61/60 14/14/13 16/16/15 
f 18/18/17 62/62/61 16/16/15 
f 16/16/15 62/62/61 61/61/60 
f 62/62/61 18/18/17 63/63/62 
f 63/63/62 18/18/17 47/47/46 
f 56/56/55 23/23/22 49/49/48 
f 49/49/48 23/23/22 21/21/20 
f 57/57/56 25/25/24 56/56/55 
f 56/56/55 25/25/24 23/23/22 
f 58/58/57 27/27/26 57/57/56 
f 57/57/56 27/27/26 25/25/24 
f 59/59/58 29/29/28 58/58/57 
f 58/58/57 29/29/28 27/27/26 
f 60/60/59 31/31/30 59/59/58 
f 59/59/58 31/31/30 29/29/28 
f 61/61/60 64/64/63 60/60/59 
f 60/60/59 64/64/63 31/31/30 
f 64/64/63 61/61/60 65/65/64 
f 65/65/64 61/61/60 62/62/61 
f 65/65/64 62/62/61 36/36/35 
f 36/36/35 62/62/61 63/63/62 
f 66/66/65 51/51/50 20/20/19 
f 20/20/19 51/51/50 21/21/20 
f 22/22/21 23/23/22 24/24/23 
f 24/24/23 23/23/22 25/25/24 
f 26/26/25 27/27/26 28/28/27 
f 28/28/27 27/27/26 29/29/28 
f 2/2/2 64/64/63 3/3/3 
f 3/3/3 64/64/63 65/65/64 
f 30/30/29 31/31/30 2/2/2 
f 2/2/2 31/31/30 64/64/63 
f 67/67/66 66/66/65 32/32/31 
f 32/32/31 66/66/65 20/20/19 
f 33/33/32 22/22/21 34/34/33 
f 34/34/33 22/22/21 24/24/23 
f 43/43/42 28/28/27 41/41/40 
f 41/41/40 28/28/27 30/30/29 
f 35/35/34 26/26/25 43/43/42 
f 43/43/42 26/26/25 28/28/27 
f 38/38/37 68/68/67 3/3/3 
f 3/3/3 68/68/67 45/45/44 
f 69/69/68 67/67/66 70/70/69 
f 70/70/69 67/67/66 32/32/31 
f 43/43/42 44/44/43 35/35/34 
f 35/35/34 44/44/43 39/39/38 
f 46/46/45 42/42/41 1/1/1 
f 1/1/1 42/42/41 41/41/40 
f 71/71/70 37/37/36 63/63/62 
f 63/63/62 37/37/36 36/36/35 
f 55/55/54 71/71/70 47/47/46 
f 47/47/46 71/71/70 63/63/62 
f 33/33/32 72/72/71 32/32/31 
f 32/32/31 72/72/71 70/70/69 
f 34/34/33 40/40/39 33/33/32 
f 33/33/32 40/40/39 72/72/71 
f 3/3/3 65/65/64 38/38/37 
f 38/38/37 65/65/64 36/36/35 
f 37/37/36 68/68/67 38/38/37 
# 113 faces

