# 3ds Max Wavefront OBJ Exporter v0.97b - (c)2007 guruware
# File Created: 21.12.2015 16:53:37

mtllib Y211_18A5_L.mtl

#
# object Y211_18A5_L_DaS_Y211_18A5_L
#

v  24.6448 88.7036 -71.5465
v  24.0116 87.4777 -72.9804
v  13.3341 91.0025 -70.7367
v  12.7865 89.8469 -72.1284
v  3.8066 92.1605 -70.3877
v  3.3359 91.0233 -71.7575
v  -5.5219 92.6797 -70.2957
v  -5.8406 91.5511 -71.6276
v  -15.9919 93.1233 -70.1684
v  -16.1824 91.9908 -71.4754
v  -27.6553 93.4490 -70.1657
v  -27.6943 92.3282 -71.4466
v  25.9275 91.2571 -67.9762
v  25.2357 90.1467 -69.7373
v  14.5867 93.3166 -67.3047
v  13.9432 92.3086 -69.0097
v  4.8536 94.3848 -67.0473
v  4.3031 93.4110 -68.7197
v  -4.7868 94.9007 -67.0264
v  -5.1663 93.9293 -68.6601
v  -4.5268 95.5419 -65.6702
v  -15.5060 95.9708 -65.6583
v  -15.6141 95.3334 -66.9792
v  -53.6902 93.7362 -70.6562
v  -40.3659 93.6882 -70.3581
v  -53.6567 92.5811 -72.0134
v  -40.3313 92.5688 -71.6631
v  -40.3645 95.9063 -67.1303
v  -40.3313 96.5516 -65.7780
v  -27.5605 95.6620 -67.0090
v  -27.5252 96.3052 -65.6863
v  -40.3201 96.8841 -64.4443
v  -40.3211 96.8327 -64.9321
v  -53.7008 96.9861 -64.5532
v  -53.7010 96.9340 -65.0420
v  -15.4469 96.2959 -64.3368
v  -15.4606 96.2474 -64.8232
v  -27.5076 96.6339 -64.3638
v  -27.5113 96.5844 -64.8507
v  5.3511 95.2934 -64.8232
v  5.2079 95.0222 -65.6754
v  -4.4223 95.8182 -64.8235
v  26.5884 92.2951 -65.6129
v  26.3690 92.0122 -66.5040
v  15.2313 94.2574 -65.0209
v  15.0398 93.9852 -65.8889
v  -40.3198 91.9922 -72.3354
v  -27.7140 91.7492 -72.1080
v  36.9624 86.9097 -70.9119
v  36.2660 85.4938 -72.7510
v  -15.8267 94.3618 -68.5806
v  -27.6082 94.6934 -68.5866
v  38.0950 88.8521 -67.6009
v  37.6026 88.0739 -69.0994
v  -40.3425 94.9375 -68.7394
v  -53.6622 95.0253 -68.9686
v  -67.3792 93.4907 -70.9748
v  -67.2799 92.2339 -72.3867
v  -67.2904 94.8896 -69.2057
v  -53.6986 96.6528 -65.9021
v  -53.6922 96.0082 -67.2952
v  -67.3888 95.9119 -67.4583
v  -67.4473 96.5524 -66.0282
v  -67.4669 96.8302 -65.1550
v  -67.4675 96.8794 -64.6652
v  -4.3956 95.8646 -64.3369
v  15.2887 94.2846 -64.5329
v  5.3901 95.3339 -64.3368
v  38.3534 89.1291 -66.6973
v  26.6837 92.2968 -65.1207
v  -67.2497 91.6077 -73.0912
v  -53.6463 91.9937 -72.7040
v  -16.2730 91.4106 -72.1445
v  35.6837 84.2512 -74.2363
v  38.4643 89.1173 -66.1933
v  35.4001 83.6481 -74.9616
v  23.7159 86.8723 -73.6863
v  26.3705 89.4594 -64.2128
v  26.8039 91.8064 -64.6127
v  15.2738 91.3902 -63.6337
v  15.3821 93.8325 -64.0354
v  5.4606 92.4302 -63.4406
v  5.4606 94.9043 -63.8430
v  -4.3456 92.9719 -63.4407
v  -4.3456 95.4459 -63.8430
v  -15.4213 93.4076 -63.4407
v  -15.4213 95.8816 -63.8430
v  -27.5011 93.7473 -63.4670
v  -27.5011 96.2213 -63.8693
v  -40.3198 94.0011 -63.5461
v  -40.3198 96.4751 -63.9484
v  -53.7006 96.5782 -64.0554
v  -53.7006 94.1042 -63.6531
v  -67.4667 96.4658 -64.1655
v  -67.4667 93.9918 -63.7632
v  37.9000 86.3560 -65.3098
v  38.4859 88.6292 -65.6632
v  -53.6487 91.6422 -72.7878
v  -40.3210 91.6389 -72.4177
v  -53.6615 91.1320 -69.8872
v  -40.3339 91.1286 -69.5173
v  -16.3151 91.0564 -72.2237
v  -16.3280 90.5462 -69.3232
v  -27.7255 91.3924 -72.1869
v  -27.7383 90.8823 -69.2864
v  -6.0913 90.1193 -69.4836
v  -6.0785 90.6295 -72.3841
v  2.9831 89.6003 -69.6235
v  2.9960 90.1105 -72.5239
v  12.3778 88.4226 -69.9958
v  12.3906 88.9328 -72.8963
v  23.5752 86.0195 -70.8536
v  23.5880 86.5296 -73.7541
v  35.5415 82.7266 -72.1649
v  35.3137 83.3029 -75.0389
v  -67.2554 91.2489 -73.1683
v  -67.2682 90.7386 -70.2679
v  12.5191 89.2695 -72.8231
v  3.1066 90.4508 -72.4465
v  -5.9988 90.9764 -72.3055
# 120 vertices

vn 0.1200 0.7448 -0.6564
vn 0.1149 0.7300 -0.6737
vn 0.0916 0.7649 -0.6376
vn 0.0890 0.7488 -0.6568
vn 0.0547 0.7766 -0.6276
vn 0.0518 0.7594 -0.6486
vn 0.0309 0.7767 -0.6291
vn 0.0285 0.7591 -0.6504
vn 0.0230 0.7723 -0.6348
vn 0.0214 0.7540 -0.6565
vn 0.0223 0.7705 -0.6371
vn 0.0226 0.7522 -0.6585
vn 0.1484 0.8338 -0.5317
vn 0.1316 0.7847 -0.6057
vn 0.1070 0.8594 -0.5000
vn 0.0981 0.8081 -0.5807
vn 0.0656 0.8739 -0.4817
vn 0.0596 0.8225 -0.5656
vn 0.0390 0.8763 -0.4801
vn 0.0348 0.8235 -0.5662
vn 0.0419 0.9201 -0.3894
vn 0.0307 0.9197 -0.3915
vn 0.0287 0.8746 -0.4840
vn 0.0086 0.7793 -0.6267
vn 0.0206 0.7770 -0.6292
vn 0.0078 0.7616 -0.6480
vn 0.0217 0.7590 -0.6507
vn 0.0173 0.8781 -0.4781
vn 0.0156 0.9213 -0.3885
vn 0.0229 0.8739 -0.4857
vn 0.0233 0.9192 -0.3930
vn 0.0102 0.9398 0.3415
vn 0.0148 0.9702 -0.2419
vn -0.0030 0.9408 0.3388
vn 0.0019 0.9708 -0.2397
vn 0.0307 0.9366 0.3491
vn 0.0325 0.9703 -0.2398
vn 0.0207 0.9376 0.3471
vn 0.0239 0.9702 -0.2411
vn 0.0754 0.9691 -0.2349
vn 0.0701 0.9180 -0.3903
vn 0.0446 0.9701 -0.2386
vn 0.1944 0.9517 -0.2378
vn 0.1657 0.8856 -0.4338
vn 0.1286 0.9633 -0.2354
vn 0.1154 0.9063 -0.4066
vn 0.0237 0.6315 -0.7750
vn 0.0210 0.6217 -0.7830
vn 0.1832 0.7717 -0.6090
vn 0.1611 0.7415 -0.6513
vn 0.0258 0.8207 -0.5707
vn 0.0225 0.8188 -0.5736
vn 0.2379 0.8610 -0.4496
vn 0.2083 0.8122 -0.5450
vn 0.0192 0.8240 -0.5663
vn 0.0081 0.8284 -0.5601
vn -0.0123 0.7652 -0.6436
vn -0.0136 0.7443 -0.6677
vn -0.0125 0.8228 -0.5683
vn 0.0042 0.9251 -0.3798
vn 0.0059 0.8834 -0.4686
vn -0.0159 0.8849 -0.4656
vn -0.0189 0.9277 -0.3727
vn -0.0221 0.9717 -0.2350
vn -0.0285 0.9389 0.3431
vn 0.0430 0.9348 0.3526
vn 0.1422 0.9171 0.3725
vn 0.0770 0.9294 0.3610
vn 0.2853 0.9263 -0.2461
vn 0.2239 0.8940 0.3882
vn -0.0057 0.6217 -0.7832
vn 0.0130 0.6377 -0.7702
vn 0.0152 0.6258 -0.7798
vn 0.1480 0.7316 -0.6655
vn 0.3363 0.8646 0.3733
vn 0.0952 0.6255 -0.7744
vn 0.0761 0.6137 -0.7859
vn 0.1039 0.1470 0.9837
vn 0.1023 0.1491 0.9835
vn 0.0599 0.1591 0.9854
vn 0.0559 0.1596 0.9856
vn 0.0234 0.1605 0.9868
vn 0.0220 0.1605 0.9868
vn 0.0076 0.1605 0.9870
vn 0.0043 0.1605 0.9870
vn -0.0003 0.1605 0.9870
vn -0.0048 0.1605 0.9870
vn -0.0079 0.1605 0.9870
vn -0.0092 0.1605 0.9870
vn -0.0167 0.1600 0.9870
vn 0.1549 0.1048 0.9824
vn 0.1263 0.1235 0.9843
vn 0.0191 -0.9847 -0.1731
vn -0.0056 -0.9849 -0.1733
vn 0.0189 -0.9847 -0.1731
vn -0.0367 -0.9842 -0.1733
vn -0.0362 -0.9842 -0.1733
vn -0.0228 -0.9846 -0.1733
vn -0.0225 -0.9846 -0.1733
vn -0.0508 -0.9836 -0.1733
vn -0.0514 -0.9835 -0.1733
vn -0.0945 -0.9804 -0.1729
vn -0.1778 -0.9690 -0.1713
vn -0.1753 -0.9695 -0.1713
vn -0.2493 -0.9536 -0.1688
vn -0.2500 -0.9534 -0.1688
vn -0.3044 -0.9381 -0.1652
vn -0.2786 -0.9457 -0.1676
vn 0.0333 -0.9844 -0.1730
vn 0.0580 -0.9833 -0.1727
vn 0.0612 0.6301 -0.7741
vn 0.0361 0.6387 -0.7686
vn 0.0193 0.6338 -0.7733
# 113 vertex normals

vt 0.4588 0.2442 0.0000
vt 0.4600 0.2408 0.0000
vt 0.4792 0.2462 0.0000
vt 0.4802 0.2429 0.0000
vt 0.4964 0.2471 0.0000
vt 0.4973 0.2439 0.0000
vt 0.5132 0.2476 0.0000
vt 0.5138 0.2444 0.0000
vt 0.5321 0.2482 0.0000
vt 0.5325 0.2451 0.0000
vt 0.5532 0.2488 0.0000
vt 0.5532 0.2457 0.0000
vt 0.4565 0.2520 0.0000
vt 0.4578 0.2483 0.0000
vt 0.4770 0.2536 0.0000
vt 0.4781 0.2501 0.0000
vt 0.4945 0.2544 0.0000
vt 0.4955 0.2509 0.0000
vt 0.5119 0.2547 0.0000
vt 0.5126 0.2513 0.0000
vt 0.5114 0.2574 0.0000
vt 0.5312 0.2578 0.0000
vt 0.5314 0.2552 0.0000
vt 0.6001 0.2498 0.0000
vt 0.5761 0.2494 0.0000
vt 0.6001 0.2466 0.0000
vt 0.5760 0.2463 0.0000
vt 0.5761 0.2564 0.0000
vt 0.5760 0.2591 0.0000
vt 0.5530 0.2558 0.0000
vt 0.5529 0.2584 0.0000
vt 0.5760 0.2616 0.0000
vt 0.5760 0.2607 0.0000
vt 0.6001 0.2624 0.0000
vt 0.6001 0.2615 0.0000
vt 0.5311 0.2603 0.0000
vt 0.5312 0.2594 0.0000
vt 0.5529 0.2609 0.0000
vt 0.5529 0.2600 0.0000
vt 0.4936 0.2586 0.0000
vt 0.4939 0.2571 0.0000
vt 0.5113 0.2590 0.0000
vt 0.4553 0.2565 0.0000
vt 0.4557 0.2549 0.0000
vt 0.4758 0.2580 0.0000
vt 0.4761 0.2564 0.0000
vt 0.5760 0.2446 0.0000
vt 0.5533 0.2441 0.0000
vt 0.4366 0.2458 0.0000
vt 0.4379 0.2417 0.0000
vt 0.5318 0.2518 0.0000
vt 0.5531 0.2524 0.0000
vt 0.4346 0.2524 0.0000
vt 0.4355 0.2495 0.0000
vt 0.5760 0.2530 0.0000
vt 0.6001 0.2536 0.0000
vt 0.6248 0.2502 0.0000
vt 0.6246 0.2468 0.0000
vt 0.6246 0.2542 0.0000
vt 0.6001 0.2599 0.0000
vt 0.6001 0.2571 0.0000
vt 0.6248 0.2579 0.0000
vt 0.6249 0.2607 0.0000
vt 0.6250 0.2623 0.0000
vt 0.6250 0.2632 0.0000
vt 0.5112 0.2599 0.0000
vt 0.4757 0.2588 0.0000
vt 0.4936 0.2595 0.0000
vt 0.4341 0.2539 0.0000
vt 0.4551 0.2573 0.0000
vt 0.6246 0.2451 0.0000
vt 0.6000 0.2450 0.0000
vt 0.5326 0.2435 0.0000
vt 0.4389 0.2383 0.0000
vt 0.4339 0.2548 0.0000
vt 0.4394 0.2366 0.0000
vt 0.4605 0.2391 0.0000
vt 0.4557 0.2627 0.0000
vt 0.4549 0.2585 0.0000
vt 0.4757 0.2643 0.0000
vt 0.4755 0.2600 0.0000
vt 0.4934 0.2651 0.0000
vt 0.4934 0.2606 0.0000
vt 0.5111 0.2655 0.0000
vt 0.5111 0.2610 0.0000
vt 0.5311 0.2660 0.0000
vt 0.5311 0.2614 0.0000
vt 0.5529 0.2666 0.0000
vt 0.5529 0.2620 0.0000
vt 0.5760 0.2673 0.0000
vt 0.5760 0.2628 0.0000
vt 0.6001 0.2636 0.0000
vt 0.6001 0.2681 0.0000
vt 0.6250 0.2643 0.0000
vt 0.6250 0.2688 0.0000
vt 0.4349 0.2598 0.0000
vt 0.4339 0.2559 0.0000
vt 0.6000 0.2443 0.0000
vt 0.5760 0.2440 0.0000
vt 0.6001 0.2390 0.0000
vt 0.5760 0.2387 0.0000
vt 0.5327 0.2428 0.0000
vt 0.5327 0.2375 0.0000
vt 0.5533 0.2434 0.0000
vt 0.5533 0.2381 0.0000
vt 0.5143 0.2369 0.0000
vt 0.5142 0.2422 0.0000
vt 0.4979 0.2363 0.0000
vt 0.4979 0.2416 0.0000
vt 0.4809 0.2353 0.0000
vt 0.4809 0.2406 0.0000
vt 0.4608 0.2334 0.0000
vt 0.4607 0.2385 0.0000
vt 0.4392 0.2309 0.0000
vt 0.4396 0.2359 0.0000
vt 0.6246 0.2444 0.0000
vt 0.6246 0.2391 0.0000
vt 0.4807 0.2412 0.0000
vt 0.4977 0.2423 0.0000
vt 0.5141 0.2428 0.0000
# 120 texture coords

g Y211_18A5_L_DaS_Y211_18A5_L
usemtl paint_whiteSG
s 1
f 1/1/1 2/2/2 3/3/3 
f 3/3/3 2/2/2 4/4/4 
f 5/5/5 6/6/6 7/7/7 
f 7/7/7 6/6/6 8/8/8 
f 9/9/9 10/10/10 11/11/11 
f 11/11/11 10/10/10 12/12/12 
f 13/13/13 14/14/14 15/15/15 
f 15/15/15 14/14/14 16/16/16 
f 17/17/17 18/18/18 19/19/19 
f 19/19/19 18/18/18 20/20/20 
f 21/21/21 19/19/19 22/22/22 
f 22/22/22 19/19/19 23/23/23 
f 24/24/24 25/25/25 26/26/26 
f 26/26/26 25/25/25 27/27/27 
f 28/28/28 29/29/29 30/30/30 
f 30/30/30 29/29/29 31/31/31 
f 32/32/32 33/33/33 34/34/34 
f 34/34/34 33/33/33 35/35/35 
f 36/36/36 37/37/37 38/38/38 
f 38/38/38 37/37/37 39/39/39 
f 40/40/40 41/41/41 42/42/42 
f 42/42/42 41/41/41 21/21/21 
f 43/43/43 44/44/44 45/45/45 
f 45/45/45 44/44/44 46/46/46 
f 47/47/47 27/27/27 48/48/48 
f 48/48/48 27/27/27 12/12/12 
f 49/49/49 50/50/50 14/14/14 
f 14/14/14 50/50/50 1/1/1 
f 3/3/3 16/16/16 1/1/1 
f 1/1/1 16/16/16 14/14/14 
f 3/3/3 4/4/4 5/5/5 
f 5/5/5 4/4/4 6/6/6 
f 16/16/16 3/3/3 18/18/18 
f 18/18/18 3/3/3 5/5/5 
f 18/18/18 5/5/5 20/20/20 
f 20/20/20 5/5/5 7/7/7 
f 7/7/7 8/8/8 9/9/9 
f 9/9/9 8/8/8 10/10/10 
f 20/20/20 7/7/7 51/51/51 
f 51/51/51 7/7/7 9/9/9 
f 51/51/51 9/9/9 52/52/52 
f 52/52/52 9/9/9 11/11/11 
f 53/53/53 54/54/54 44/44/44 
f 44/44/44 54/54/54 13/13/13 
f 44/44/44 13/13/13 46/46/46 
f 46/46/46 13/13/13 15/15/15 
f 15/15/15 16/16/16 17/17/17 
f 17/17/17 16/16/16 18/18/18 
f 46/46/46 15/15/15 41/41/41 
f 41/41/41 15/15/15 17/17/17 
f 41/41/41 17/17/17 21/21/21 
f 21/21/21 17/17/17 19/19/19 
f 22/22/22 23/23/23 31/31/31 
f 31/31/31 23/23/23 30/30/30 
f 23/23/23 51/51/51 30/30/30 
f 30/30/30 51/51/51 52/52/52 
f 19/19/19 20/20/20 23/23/23 
f 23/23/23 20/20/20 51/51/51 
f 27/27/27 25/25/25 12/12/12 
f 12/12/12 25/25/25 11/11/11 
f 25/25/25 55/55/55 11/11/11 
f 11/11/11 55/55/55 52/52/52 
f 55/55/55 25/25/25 56/56/56 
f 56/56/56 25/25/25 24/24/24 
f 57/57/57 24/24/24 58/58/58 
f 58/58/58 24/24/24 26/26/26 
f 57/57/57 59/59/59 24/24/24 
f 24/24/24 59/59/59 56/56/56 
f 29/29/29 28/28/28 60/60/60 
f 60/60/60 28/28/28 61/61/61 
f 61/61/61 28/28/28 56/56/56 
f 56/56/56 28/28/28 55/55/55 
f 55/55/55 28/28/28 52/52/52 
f 52/52/52 28/28/28 30/30/30 
f 62/62/62 61/61/61 59/59/59 
f 59/59/59 61/61/61 56/56/56 
f 63/63/63 60/60/60 62/62/62 
f 62/62/62 60/60/60 61/61/61 
f 63/63/63 64/64/64 60/60/60 
f 60/60/60 64/64/64 35/35/35 
f 64/64/64 65/65/65 35/35/35 
f 35/35/35 65/65/65 34/34/34 
f 33/33/33 29/29/29 35/35/35 
f 35/35/35 29/29/29 60/60/60 
f 29/29/29 33/33/33 31/31/31 
f 31/31/31 33/33/33 39/39/39 
f 33/33/33 32/32/32 39/39/39 
f 39/39/39 32/32/32 38/38/38 
f 37/37/37 22/22/22 39/39/39 
f 39/39/39 22/22/22 31/31/31 
f 42/42/42 21/21/21 37/37/37 
f 37/37/37 21/21/21 22/22/22 
f 66/66/66 42/42/42 36/36/36 
f 36/36/36 42/42/42 37/37/37 
f 45/45/45 46/46/46 40/40/40 
f 40/40/40 46/46/46 41/41/41 
f 67/67/67 45/45/45 68/68/68 
f 68/68/68 45/45/45 40/40/40 
f 68/68/68 40/40/40 66/66/66 
f 66/66/66 40/40/40 42/42/42 
f 69/69/69 53/53/53 43/43/43 
f 43/43/43 53/53/53 44/44/44 
f 70/70/70 43/43/43 67/67/67 
f 67/67/67 43/43/43 45/45/45 
f 71/71/71 58/58/58 72/72/72 
f 72/72/72 58/58/58 26/26/26 
f 27/27/27 47/47/47 26/26/26 
f 26/26/26 47/47/47 72/72/72 
f 10/10/10 73/73/73 12/12/12 
f 12/12/12 73/73/73 48/48/48 
f 50/50/50 74/74/74 1/1/1 
f 1/1/1 74/74/74 2/2/2 
f 54/54/54 49/49/49 13/13/13 
f 13/13/13 49/49/49 14/14/14 
f 75/75/75 69/69/69 70/70/70 
f 70/70/70 69/69/69 43/43/43 
f 74/74/74 76/76/76 2/2/2 
f 2/2/2 76/76/76 77/77/77 
f 78/78/78 79/79/79 80/80/80 
f 80/80/80 79/79/79 81/81/81 
f 80/80/80 81/81/81 82/82/82 
f 82/82/82 81/81/81 83/83/83 
f 84/84/84 85/85/84 86/86/85 
f 86/86/85 85/85/84 87/87/85 
f 88/88/86 89/89/86 90/90/87 
f 90/90/87 89/89/86 91/91/87 
f 85/85/84 84/84/84 83/83/83 
f 83/83/83 84/84/84 82/82/82 
f 86/86/85 87/87/85 88/88/86 
f 88/88/86 87/87/85 89/89/86 
f 92/92/88 93/93/88 91/91/87 
f 91/91/87 93/93/88 90/90/87 
f 92/92/88 94/94/89 93/93/88 
f 93/93/88 94/94/89 95/95/90 
f 96/96/91 97/97/92 78/78/78 
f 78/78/78 97/97/92 79/79/79 
f 98/98/93 99/99/94 100/100/95 
f 100/100/95 99/99/94 101/101/94 
f 102/102/96 103/103/97 104/104/98 
f 104/104/98 103/103/97 105/105/99 
f 106/106/100 107/107/101 108/108/102 
f 108/108/102 107/107/101 109/109/102 
f 110/110/103 111/111/104 112/112/105 
f 112/112/105 111/111/104 113/113/106 
f 112/112/105 113/113/106 114/114/107 
f 114/114/107 113/113/106 115/115/108 
f 116/116/109 98/98/93 117/117/110 
f 117/117/110 98/98/93 100/100/95 
f 99/99/94 104/104/98 101/101/94 
f 101/101/94 104/104/98 105/105/99 
f 107/107/101 106/106/100 102/102/96 
f 102/102/96 106/106/100 103/103/97 
f 111/111/104 110/110/103 109/109/102 
f 109/109/102 110/110/103 108/108/102 
f 2/2/2 77/77/77 4/4/4 
f 4/4/4 77/77/77 118/118/111 
f 4/4/4 118/118/111 6/6/6 
f 6/6/6 118/118/111 119/119/112 
f 6/6/6 119/119/112 8/8/8 
f 8/8/8 119/119/112 120/120/113 
f 8/8/8 120/120/113 10/10/10 
f 10/10/10 120/120/113 73/73/73 
# 162 faces

#
# object Y211_18A5_L_DaS_Y211_18A5_L_E
#

v  -27.5076 96.6339 -64.3638
v  -27.5011 96.2213 -63.8693
v  -15.4469 96.2959 -64.3368
v  -15.4213 95.8816 -63.8430
v  -40.3198 96.4751 -63.9484
v  -40.3201 96.8841 -64.4443
v  -53.7006 96.5782 -64.0554
v  -53.7008 96.9861 -64.5532
v  15.2887 94.2846 -64.5329
v  15.3821 93.8325 -64.0354
v  26.6837 92.2968 -65.1207
v  26.8039 91.8064 -64.6127
v  -4.3956 95.8646 -64.3369
v  -4.3456 95.4459 -63.8430
v  5.3901 95.3339 -64.3368
v  5.4606 94.9043 -63.8430
v  38.4643 89.1173 -66.1933
v  38.4859 88.6292 -65.6632
v  -67.4675 96.8794 -64.6652
v  -67.4667 96.4658 -64.1655
v  2.9960 90.1105 -72.5239
v  3.1066 90.4508 -72.4465
v  12.3906 88.9328 -72.8963
v  12.5191 89.2695 -72.8231
v  -53.6463 91.9937 -72.7040
v  -53.6487 91.6422 -72.7878
v  -67.2497 91.6077 -73.0912
v  -67.2554 91.2489 -73.1683
v  -6.0785 90.6295 -72.3841
v  -5.9988 90.9764 -72.3055
v  -16.3151 91.0564 -72.2237
v  -16.2730 91.4106 -72.1445
v  -27.7140 91.7492 -72.1080
v  -27.7255 91.3924 -72.1869
v  -40.3210 91.6389 -72.4177
v  -40.3198 91.9922 -72.3354
v  23.7159 86.8723 -73.6863
v  23.5880 86.5296 -73.7541
v  35.4001 83.6481 -74.9616
v  35.3137 83.3029 -75.0389
# 40 vertices

vn 0.0156 0.7679 0.6404
vn 0.0157 0.7678 0.6405
vn 0.0248 0.7665 0.6418
vn 0.0252 0.7664 0.6419
vn 0.0060 0.7714 0.6363
vn 0.0059 0.7715 0.6362
vn -0.0053 0.7735 0.6338
vn 0.1238 0.7461 0.6542
vn 0.1330 0.7455 0.6531
vn 0.2009 0.7284 0.6550
vn 0.2163 0.7273 0.6513
vn 0.0354 0.7642 0.6440
vn 0.0361 0.7640 0.6442
vn 0.0650 0.7576 0.6495
vn 0.0700 0.7573 0.6493
vn 0.2534 0.7171 0.6493
vn 0.2534 0.7168 0.6496
vn -0.0112 0.7704 0.6375
vn -0.0112 0.7705 0.6374
vn -0.0058 0.2236 -0.9747
vn -0.0069 0.2238 -0.9746
vn -0.0186 0.2193 -0.9755
vn -0.0204 0.2196 -0.9754
vn 0.0241 0.2315 -0.9725
vn 0.0240 0.2313 -0.9726
vn 0.0213 0.2101 -0.9775
vn 0.0213 0.2097 -0.9775
vn -0.0043 0.2218 -0.9751
vn -0.0039 0.2218 -0.9751
vn -0.0012 0.2183 -0.9759
vn -0.0016 0.2184 -0.9758
vn 0.0126 0.2156 -0.9764
vn 0.0127 0.2155 -0.9764
vn 0.0244 0.2268 -0.9736
vn -0.0407 0.2086 -0.9772
vn -0.0396 0.2082 -0.9773
vn -0.0430 0.2287 -0.9725
vn -0.0431 0.2284 -0.9726
# 38 vertex normals

vt 0.5529 0.2609 0.0000
vt 0.5529 0.2620 0.0000
vt 0.5311 0.2603 0.0000
vt 0.5311 0.2614 0.0000
vt 0.5760 0.2628 0.0000
vt 0.5760 0.2616 0.0000
vt 0.6001 0.2636 0.0000
vt 0.6001 0.2624 0.0000
vt 0.4757 0.2588 0.0000
vt 0.4755 0.2600 0.0000
vt 0.4551 0.2573 0.0000
vt 0.4549 0.2585 0.0000
vt 0.5112 0.2599 0.0000
vt 0.5111 0.2610 0.0000
vt 0.4936 0.2595 0.0000
vt 0.4934 0.2606 0.0000
vt 0.4339 0.2548 0.0000
vt 0.4339 0.2559 0.0000
vt 0.6250 0.2632 0.0000
vt 0.6250 0.2643 0.0000
vt 0.4979 0.2416 0.0000
vt 0.4977 0.2423 0.0000
vt 0.4809 0.2406 0.0000
vt 0.4807 0.2412 0.0000
vt 0.6000 0.2450 0.0000
vt 0.6000 0.2443 0.0000
vt 0.6246 0.2451 0.0000
vt 0.6246 0.2444 0.0000
vt 0.5142 0.2422 0.0000
vt 0.5141 0.2428 0.0000
vt 0.5327 0.2428 0.0000
vt 0.5326 0.2435 0.0000
vt 0.5533 0.2441 0.0000
vt 0.5533 0.2434 0.0000
vt 0.5760 0.2440 0.0000
vt 0.5760 0.2446 0.0000
vt 0.4605 0.2391 0.0000
vt 0.4607 0.2385 0.0000
vt 0.4394 0.2366 0.0000
vt 0.4396 0.2359 0.0000
# 40 texture coords

g Y211_18A5_L_DaS_Y211_18A5_L_E
usemtl paint_whiteSG
s 1
f 121/121/114 122/122/115 123/123/116 
f 123/123/116 122/122/115 124/124/117 
f 125/125/118 126/126/119 127/127/120 
f 127/127/120 126/126/119 128/128/120 
f 129/129/121 130/130/122 131/131/123 
f 131/131/123 130/130/122 132/132/124 
f 133/133/125 134/134/126 135/135/127 
f 135/135/127 134/134/126 136/136/128 
f 123/123/116 124/124/117 133/133/125 
f 133/133/125 124/124/117 134/134/126 
f 122/122/115 121/121/114 125/125/118 
f 125/125/118 121/121/114 126/126/119 
f 131/131/123 132/132/124 137/137/129 
f 137/137/129 132/132/124 138/138/130 
f 135/135/127 136/136/128 129/129/121 
f 129/129/121 136/136/128 130/130/122 
f 139/139/131 140/140/132 128/128/120 
f 128/128/120 140/140/132 127/127/120 
f 141/141/133 142/142/134 143/143/135 
f 143/143/135 142/142/134 144/144/136 
f 145/145/137 146/146/138 147/147/139 
f 147/147/139 146/146/138 148/148/140 
f 149/149/141 150/150/142 141/141/133 
f 141/141/133 150/150/142 142/142/134 
f 151/151/143 152/152/144 149/149/141 
f 149/149/141 152/152/144 150/150/142 
f 152/152/144 151/151/143 153/153/145 
f 153/153/145 151/151/143 154/154/146 
f 154/154/146 155/155/147 153/153/145 
f 153/153/145 155/155/147 156/156/147 
f 156/156/147 155/155/147 145/145/137 
f 145/145/137 155/155/147 146/146/138 
f 157/157/148 158/158/149 144/144/136 
f 144/144/136 158/158/149 143/143/135 
f 159/159/150 160/160/151 157/157/148 
f 157/157/148 160/160/151 158/158/149 
# 36 faces

