# 3ds Max Wavefront OBJ Exporter v0.97b - (c)2007 guruware
# File Created: 04.01.2016 14:01:41

mtllib Z020_265B_L.mtl

#
# object Z020_265B_L_DTaSI_Z020_265B_L
#

v  19.4795 108.1141 -83.3430
v  30.0173 106.7511 -83.2324
v  19.4532 101.2719 -85.4114
v  29.4064 100.5789 -85.3679
v  -14.5322 87.7244 -89.3673
v  -24.7657 88.3427 -89.2633
v  -14.8428 95.2900 -87.4180
v  -25.4152 95.9387 -87.3013
v  65.5921 82.7034 -89.1088
v  52.5872 83.5372 -89.2628
v  65.6997 90.1115 -86.8457
v  52.7712 91.0075 -87.3369
v  -32.7144 96.3606 -87.2255
v  -31.2568 88.7093 -89.2011
v  -5.6288 94.7247 -87.5198
v  5.7345 94.0090 -87.5306
v  -5.2846 87.1656 -89.4608
v  5.8406 86.4728 -89.4507
v  19.3819 93.1500 -87.5477
v  29.1041 92.5293 -87.5059
v  19.2773 85.6372 -89.4453
v  28.8382 85.0375 -89.4115
v  81.4221 54.0559 -94.6925
v  66.0702 54.9623 -94.7188
v  81.3731 58.5032 -94.0328
v  65.9501 59.4080 -94.0467
v  52.3298 60.2074 -94.0605
v  52.3230 55.7740 -94.7425
v  38.9610 60.9936 -94.0799
v  38.8743 56.5768 -94.7605
v  18.5695 62.1948 -94.1176
v  28.2271 61.6256 -94.0984
v  18.4291 57.8175 -94.7761
v  28.1483 57.2243 -94.7706
v  6.4122 58.5508 -94.7828
v  6.3167 62.9164 -94.1395
v  -4.1372 63.5322 -94.1586
v  -3.9384 59.1825 -94.7887
v  -22.8020 64.6018 -94.0393
v  -13.5506 64.0668 -94.0989
v  -22.4497 59.8111 -94.7246
v  -13.3772 59.5030 -94.7560
v  -26.8165 64.8115 -94.0161
v  -26.0041 59.9175 -94.7138
v  81.2820 66.6983 -92.6232
v  65.7233 67.5031 -92.6512
v  39.1381 68.8730 -92.6748
v  52.3498 68.1957 -92.6789
v  18.8255 69.9255 -92.7188
v  28.4031 69.4273 -92.6895
v  -4.5142 71.1400 -92.7931
v  6.1458 70.5850 -92.7579
v  -23.4135 72.0870 -92.6896
v  -13.8647 71.6083 -92.7407
v  -28.1936 72.3057 -92.6670
v  39.3630 77.5772 -90.9059
v  52.4584 76.9936 -90.8254
v  19.0822 78.4763 -91.0051
v  28.6269 78.0540 -90.9627
v  -4.9215 79.5393 -91.1163
v  5.9757 79.0560 -91.0618
v  -24.0979 80.3531 -91.0114
v  -14.2100 79.9333 -91.0642
v  -29.7315 80.5746 -90.9849
v  65.5996 76.4041 -90.7232
v  -34.2933 104.5766 -84.8700
v  -26.1231 104.1010 -84.9893
v  -15.1757 103.4287 -85.1547
v  -5.9925 102.8646 -85.2916
v  5.6326 102.1368 -85.3447
v  39.8308 91.8413 -87.4401
v  53.0348 96.6802 -85.3997
v  40.0959 99.1773 -85.3605
v  -26.6506 110.0351 -83.0462
v  -35.1739 110.3632 -82.8830
v  -15.4258 109.5790 -83.2555
v  5.5712 108.7044 -83.3882
v  -6.0292 109.1965 -83.4216
v  -26.9894 113.7452 -81.6466
v  -35.5409 113.5258 -81.6351
v  -15.6061 114.0523 -81.6627
v  5.5530 112.7347 -82.0106
v  -5.6420 114.3211 -81.6767
v  19.4749 110.7619 -82.4259
v  39.8996 102.6358 -84.1481
v  39.5665 84.3615 -89.3547
v  81.0473 81.4636 -88.7132
v  81.1922 75.6902 -90.5233
# 88 vertices

vn 0.0293 0.2998 -0.9535
vn 0.0408 0.3155 -0.9481
vn 0.0209 0.2733 -0.9617
vn 0.0314 0.2853 -0.9579
vn 0.0041 0.2312 -0.9729
vn 0.0040 0.2326 -0.9726
vn 0.0048 0.2589 -0.9659
vn 0.0045 0.2619 -0.9651
vn 0.0369 0.2707 -0.9620
vn 0.0286 0.2441 -0.9693
vn 0.0440 0.2871 -0.9569
vn 0.0404 0.2802 -0.9591
vn 0.0041 0.2652 -0.9642
vn 0.0039 0.2355 -0.9719
vn 0.0101 0.2567 -0.9664
vn 0.0144 0.2534 -0.9673
vn 0.0100 0.2308 -0.9729
vn 0.0147 0.2300 -0.9731
vn 0.0173 0.2500 -0.9681
vn 0.0231 0.2524 -0.9673
vn 0.0161 0.2291 -0.9733
vn 0.0187 0.2314 -0.9727
vn 0.0104 0.1468 -0.9891
vn 0.0101 0.1495 -0.9887
vn 0.0106 0.1614 -0.9868
vn 0.0105 0.1630 -0.9866
vn 0.0108 0.1638 -0.9864
vn 0.0102 0.1518 -0.9884
vn 0.0106 0.1663 -0.9860
vn 0.0103 0.1521 -0.9883
vn 0.0115 0.1670 -0.9859
vn 0.0112 0.1675 -0.9858
vn 0.0100 0.1487 -0.9888
vn 0.0101 0.1510 -0.9885
vn 0.0099 0.1463 -0.9892
vn 0.0115 0.1663 -0.9860
vn 0.0076 0.1650 -0.9863
vn 0.0062 0.1439 -0.9896
vn 0.0030 0.1645 -0.9864
vn 0.0030 0.1642 -0.9864
vn 0.0016 0.1419 -0.9899
vn 0.0016 0.1427 -0.9898
vn 0.0030 0.1664 -0.9861
vn 0.0014 0.1416 -0.9899
vn 0.0122 0.1993 -0.9799
vn 0.0138 0.1938 -0.9809
vn 0.0113 0.1887 -0.9820
vn 0.0118 0.1901 -0.9817
vn 0.0127 0.1874 -0.9822
vn 0.0123 0.1876 -0.9822
vn 0.0089 0.1873 -0.9823
vn 0.0128 0.1876 -0.9822
vn 0.0038 0.1893 -0.9819
vn 0.0039 0.1879 -0.9822
vn 0.0038 0.1911 -0.9816
vn 0.0155 0.2095 -0.9777
vn 0.0169 0.2172 -0.9760
vn 0.0137 0.2040 -0.9789
vn 0.0145 0.2056 -0.9785
vn 0.0092 0.2042 -0.9789
vn 0.0135 0.2041 -0.9789
vn 0.0034 0.2067 -0.9784
vn 0.0035 0.2052 -0.9787
vn 0.0033 0.2083 -0.9781
vn 0.0236 0.2290 -0.9731
vn 0.0001 0.2975 -0.9547
vn 0.0017 0.2888 -0.9574
vn 0.0023 0.2795 -0.9601
vn 0.0089 0.2735 -0.9618
vn 0.0134 0.2724 -0.9621
vn 0.0285 0.2620 -0.9647
vn 0.0454 0.3103 -0.9496
vn 0.0440 0.2895 -0.9562
vn -0.0045 0.3282 -0.9446
vn -0.0070 0.3401 -0.9404
vn -0.0024 0.3139 -0.9495
vn 0.0155 0.2999 -0.9538
vn 0.0067 0.3024 -0.9531
vn -0.0086 0.3536 -0.9354
vn -0.0106 0.3660 -0.9306
vn -0.0054 0.3348 -0.9423
vn 0.0171 0.3231 -0.9462
vn 0.0046 0.3220 -0.9467
vn 0.0286 0.3266 -0.9447
vn 0.0509 0.3301 -0.9426
vn 0.0206 0.2351 -0.9718
vn 0.0351 0.2877 -0.9571
vn 0.0200 0.2519 -0.9675
# 88 vertex normals

vt 0.4345 0.1866 0.0000
vt 0.4004 0.1840 0.0000
vt 0.4335 0.1636 0.0000
vt 0.4014 0.1629 0.0000
vt 0.5409 0.1131 0.0000
vt 0.5739 0.1136 0.0000
vt 0.5430 0.1382 0.0000
vt 0.5772 0.1388 0.0000
vt 0.2822 0.1096 0.0000
vt 0.3241 0.1101 0.0000
vt 0.2830 0.1345 0.0000
vt 0.3247 0.1350 0.0000
vt 0.6007 0.1391 0.0000
vt 0.5948 0.1138 0.0000
vt 0.5133 0.1378 0.0000
vt 0.4766 0.1372 0.0000
vt 0.5110 0.1127 0.0000
vt 0.4751 0.1122 0.0000
vt 0.4325 0.1365 0.0000
vt 0.4011 0.1361 0.0000
vt 0.4317 0.1116 0.0000
vt 0.4008 0.1111 0.0000
vt 0.2268 0.0181 0.0000
vt 0.2764 0.0186 0.0000
vt 0.2277 0.0325 0.0000
vt 0.2775 0.0330 0.0000
vt 0.3214 0.0334 0.0000
vt 0.3208 0.0191 0.0000
vt 0.3646 0.0339 0.0000
vt 0.3642 0.0195 0.0000
vt 0.4304 0.0346 0.0000
vt 0.3992 0.0343 0.0000
vt 0.4302 0.0204 0.0000
vt 0.3988 0.0200 0.0000
vt 0.4690 0.0209 0.0000
vt 0.4700 0.0350 0.0000
vt 0.5037 0.0353 0.0000
vt 0.5024 0.0213 0.0000
vt 0.5640 0.0360 0.0000
vt 0.5341 0.0357 0.0000
vt 0.5621 0.0205 0.0000
vt 0.5329 0.0209 0.0000
vt 0.5769 0.0361 0.0000
vt 0.5736 0.0204 0.0000
vt 0.2292 0.0592 0.0000
vt 0.2794 0.0593 0.0000
vt 0.3652 0.0596 0.0000
vt 0.3226 0.0595 0.0000
vt 0.4308 0.0599 0.0000
vt 0.3998 0.0598 0.0000
vt 0.5061 0.0601 0.0000
vt 0.4717 0.0600 0.0000
vt 0.5671 0.0603 0.0000
vt 0.5363 0.0602 0.0000
vt 0.5825 0.0603 0.0000
vt 0.3658 0.0882 0.0000
vt 0.3236 0.0884 0.0000
vt 0.4312 0.0880 0.0000
vt 0.4004 0.0881 0.0000
vt 0.5087 0.0876 0.0000
vt 0.4735 0.0878 0.0000
vt 0.5705 0.0874 0.0000
vt 0.5386 0.0875 0.0000
vt 0.5887 0.0873 0.0000
vt 0.2812 0.0886 0.0000
vt 0.6071 0.1663 0.0000
vt 0.5807 0.1660 0.0000
vt 0.5453 0.1654 0.0000
vt 0.5157 0.1649 0.0000
vt 0.4782 0.1643 0.0000
vt 0.3665 0.1356 0.0000
vt 0.3247 0.1542 0.0000
vt 0.3668 0.1602 0.0000
vt 0.5833 0.1859 0.0000
vt 0.6108 0.1858 0.0000
vt 0.5471 0.1860 0.0000
vt 0.4794 0.1863 0.0000
vt 0.5168 0.1861 0.0000
vt 0.5850 0.1986 0.0000
vt 0.6125 0.1966 0.0000
vt 0.5484 0.2012 0.0000
vt 0.4801 0.2000 0.0000
vt 0.5164 0.2035 0.0000
vt 0.4349 0.1956 0.0000
vt 0.3679 0.1719 0.0000
vt 0.3662 0.1107 0.0000
vt 0.2322 0.1083 0.0000
vt 0.2309 0.0889 0.0000
# 88 texture coords

g Z020_265B_L_DTaSI_Z020_265B_L
usemtl windowglass_1SG
s 1
f 1/1/1 2/2/2 3/3/3 
f 3/3/3 2/2/2 4/4/4 
f 5/5/5 6/6/6 7/7/7 
f 7/7/7 6/6/6 8/8/8 
f 9/9/9 10/10/10 11/11/11 
f 11/11/11 10/10/10 12/12/12 
f 13/13/13 8/8/8 14/14/14 
f 14/14/14 8/8/8 6/6/6 
f 15/15/15 16/16/16 17/17/17 
f 17/17/17 16/16/16 18/18/18 
f 19/19/19 20/20/20 21/21/21 
f 21/21/21 20/20/20 22/22/22 
f 23/23/23 24/24/24 25/25/25 
f 25/25/25 24/24/24 26/26/26 
f 27/27/27 26/26/26 28/28/28 
f 28/28/28 26/26/26 24/24/24 
f 29/29/29 27/27/27 30/30/30 
f 30/30/30 27/27/27 28/28/28 
f 31/31/31 32/32/32 33/33/33 
f 33/33/33 32/32/32 34/34/34 
f 33/33/33 35/35/35 31/31/31 
f 31/31/31 35/35/35 36/36/36 
f 37/37/37 36/36/36 38/38/38 
f 38/38/38 36/36/36 35/35/35 
f 39/39/39 40/40/40 41/41/41 
f 41/41/41 40/40/40 42/42/42 
f 43/43/43 39/39/39 44/44/44 
f 44/44/44 39/39/39 41/41/41 
f 25/25/25 26/26/26 45/45/45 
f 45/45/45 26/26/26 46/46/46 
f 47/47/47 48/48/48 29/29/29 
f 29/29/29 48/48/48 27/27/27 
f 49/49/49 50/50/50 31/31/31 
f 31/31/31 50/50/50 32/32/32 
f 51/51/51 52/52/52 37/37/37 
f 37/37/37 52/52/52 36/36/36 
f 53/53/53 54/54/54 39/39/39 
f 39/39/39 54/54/54 40/40/40 
f 55/55/55 53/53/53 43/43/43 
f 43/43/43 53/53/53 39/39/39 
f 56/56/56 57/57/57 47/47/47 
f 47/47/47 57/57/57 48/48/48 
f 58/58/58 59/59/59 49/49/49 
f 49/49/49 59/59/59 50/50/50 
f 60/60/60 61/61/61 51/51/51 
f 51/51/51 61/61/61 52/52/52 
f 62/62/62 63/63/63 53/53/53 
f 53/53/53 63/63/63 54/54/54 
f 64/64/64 62/62/62 55/55/55 
f 55/55/55 62/62/62 53/53/53 
f 10/10/10 9/9/9 57/57/57 
f 57/57/57 9/9/9 65/65/65 
f 21/21/21 22/22/22 58/58/58 
f 58/58/58 22/22/22 59/59/59 
f 17/17/17 18/18/18 60/60/60 
f 60/60/60 18/18/18 61/61/61 
f 6/6/6 5/5/5 62/62/62 
f 62/62/62 5/5/5 63/63/63 
f 14/14/14 6/6/6 64/64/64 
f 64/64/64 6/6/6 62/62/62 
f 66/66/66 67/67/67 13/13/13 
f 13/13/13 67/67/67 8/8/8 
f 7/7/7 8/8/8 68/68/68 
f 68/68/68 8/8/8 67/67/67 
f 69/69/69 70/70/70 15/15/15 
f 15/15/15 70/70/70 16/16/16 
f 19/19/19 16/16/16 3/3/3 
f 3/3/3 16/16/16 70/70/70 
f 12/12/12 71/71/71 72/72/72 
f 72/72/72 71/71/71 73/73/73 
f 67/67/67 66/66/66 74/74/74 
f 74/74/74 66/66/66 75/75/75 
f 68/68/68 67/67/67 76/76/76 
f 76/76/76 67/67/67 74/74/74 
f 70/70/70 69/69/69 77/77/77 
f 77/77/77 69/69/69 78/78/78 
f 3/3/3 70/70/70 1/1/1 
f 1/1/1 70/70/70 77/77/77 
f 3/3/3 4/4/4 19/19/19 
f 19/19/19 4/4/4 20/20/20 
f 74/74/74 75/75/75 79/79/79 
f 79/79/79 75/75/75 80/80/80 
f 79/79/79 81/81/81 74/74/74 
f 74/74/74 81/81/81 76/76/76 
f 77/77/77 78/78/78 82/82/82 
f 82/82/82 78/78/78 83/83/83 
f 82/82/82 84/84/84 77/77/77 
f 77/77/77 84/84/84 1/1/1 
f 21/21/21 18/18/18 19/19/19 
f 19/19/19 18/18/18 16/16/16 
f 58/58/58 61/61/61 21/21/21 
f 21/21/21 61/61/61 18/18/18 
f 49/49/49 52/52/52 58/58/58 
f 58/58/58 52/52/52 61/61/61 
f 31/31/31 36/36/36 49/49/49 
f 49/49/49 36/36/36 52/52/52 
f 83/83/83 78/78/78 81/81/81 
f 81/81/81 78/78/78 76/76/76 
f 69/69/69 68/68/68 78/78/78 
f 78/78/78 68/68/68 76/76/76 
f 68/68/68 69/69/69 7/7/7 
f 7/7/7 69/69/69 15/15/15 
f 7/7/7 15/15/15 5/5/5 
f 5/5/5 15/15/15 17/17/17 
f 5/5/5 17/17/17 63/63/63 
f 63/63/63 17/17/17 60/60/60 
f 63/63/63 60/60/60 54/54/54 
f 54/54/54 60/60/60 51/51/51 
f 54/54/54 51/51/51 40/40/40 
f 40/40/40 51/51/51 37/37/37 
f 40/40/40 37/37/37 42/42/42 
f 42/42/42 37/37/37 38/38/38 
f 72/72/72 73/73/73 85/85/85 
f 71/71/71 12/12/12 86/86/86 
f 86/86/86 12/12/12 10/10/10 
f 86/86/86 10/10/10 56/56/56 
f 56/56/56 10/10/10 57/57/57 
f 12/12/12 72/72/72 11/11/11 
f 57/57/57 65/65/65 48/48/48 
f 48/48/48 65/65/65 46/46/46 
f 48/48/48 46/46/46 27/27/27 
f 27/27/27 46/46/46 26/26/26 
f 87/87/87 9/9/9 11/11/11 
f 88/88/88 65/65/65 87/87/87 
f 87/87/87 65/65/65 9/9/9 
f 45/45/45 46/46/46 88/88/88 
f 88/88/88 46/46/46 65/65/65 
f 2/2/2 1/1/1 84/84/84 
f 2/2/2 85/85/85 4/4/4 
f 4/4/4 73/73/73 20/20/20 
f 20/20/20 73/73/73 71/71/71 
f 20/20/20 71/71/71 22/22/22 
f 22/22/22 71/71/71 86/86/86 
f 22/22/22 86/86/86 59/59/59 
f 59/59/59 86/86/86 56/56/56 
f 59/59/59 56/56/56 50/50/50 
f 50/50/50 56/56/56 47/47/47 
f 50/50/50 47/47/47 32/32/32 
f 32/32/32 47/47/47 29/29/29 
f 32/32/32 29/29/29 34/34/34 
f 34/34/34 29/29/29 30/30/30 
f 4/4/4 85/85/85 73/73/73 
# 142 faces

