# 3ds Max Wavefront OBJ Exporter v0.97b - (c)2007 guruware
# File Created: 04.01.2016 14:02:45

mtllib Z020_305B_L.mtl

#
# object Z020_305B_L_DTaSI_Z020_305B_L
#

v  -106.0454 104.6129 -83.9510
v  -105.9095 95.0438 -86.8776
v  -114.6067 103.9531 -83.9415
v  -114.1911 94.7524 -86.7979
v  -75.7603 106.4422 -84.0237
v  -75.9126 96.0849 -87.0913
v  -86.2670 105.9887 -83.9581
v  -86.3942 95.7262 -87.0429
v  -66.3020 106.8372 -84.0444
v  -66.1510 96.4174 -87.1284
v  -86.4736 87.9658 -89.0317
v  -86.5578 79.6371 -91.1455
v  -96.5782 87.6872 -88.9610
v  -96.7288 79.4327 -91.0920
v  -120.4540 65.5564 -93.8726
v  -112.8670 65.4320 -93.9379
v  -120.1107 62.7927 -94.3680
v  -112.7388 62.5920 -94.4336
v  -96.9353 65.1778 -94.0664
v  -86.6696 65.0370 -94.1202
v  -96.9696 62.1626 -94.5712
v  -86.6875 61.8825 -94.6349
v  -76.1344 64.9358 -94.1208
v  -65.3263 64.8420 -94.1094
v  -76.1319 61.5949 -94.6302
v  -65.1909 61.2977 -94.6167
v  -125.1226 103.1427 -83.9298
v  -114.8646 109.6645 -81.6640
v  -125.8086 108.6654 -81.6928
v  -49.1176 96.9895 -87.1525
v  -56.3394 96.7468 -87.1417
v  -49.9292 107.2872 -83.9922
v  -56.9048 107.1785 -84.0251
v  -54.5258 64.7827 -94.0559
v  -46.5756 64.7390 -94.0166
v  -54.3042 61.0074 -94.5456
v  -46.2789 60.7935 -94.4932
v  -75.9926 88.2497 -89.0838
v  -76.0748 79.8442 -91.1886
v  -96.2214 105.3548 -83.9439
v  -96.4373 95.3767 -86.9664
v  -113.4835 79.0813 -90.9530
v  -122.1110 78.8964 -90.8680
v  -113.8501 87.2016 -88.8013
v  -123.1100 86.9394 -88.7075
v  -124.0374 94.4057 -86.7020
v  -96.0534 111.2959 -81.6231
v  -106.1233 110.4624 -81.6410
v  -105.4230 62.3929 -94.4986
v  -105.4683 65.3107 -94.0016
v  -105.6787 79.2484 -91.0293
v  -105.7983 87.4295 -88.8818
v  -50.3907 113.1427 -81.6865
v  -56.8065 113.1919 -81.6560
v  -48.4862 88.9796 -89.1580
v  -55.7799 88.7868 -89.1412
v  -65.9824 88.5171 -89.1184
v  -55.2034 80.2423 -91.2253
v  -47.8086 80.3826 -91.2354
v  -54.8446 72.0579 -92.7239
v  -47.1505 72.0328 -92.7199
v  -65.7945 80.0407 -91.2082
v  -76.1056 72.1181 -92.7076
v  -65.5495 72.0912 -92.7248
v  -86.6151 72.1386 -92.6720
v  -96.8343 72.1498 -92.6111
v  -105.5716 72.1537 -92.5424
v  -113.1705 72.1524 -92.4683
v  -121.2730 72.1503 -92.3874
v  -66.3037 113.0837 -81.6234
v  -75.6086 112.7562 -81.6066
v  -86.1662 112.0568 -81.6112
# 72 vertices

vn -0.0245 0.3209 -0.9468
vn -0.0189 0.2759 -0.9610
vn -0.0249 0.3251 -0.9454
vn -0.0189 0.2781 -0.9604
vn -0.0175 0.3127 -0.9497
vn -0.0136 0.2684 -0.9632
vn -0.0201 0.3155 -0.9487
vn -0.0154 0.2711 -0.9624
vn -0.0123 0.3134 -0.9496
vn -0.0116 0.2667 -0.9637
vn -0.0125 0.2471 -0.9689
vn -0.0088 0.2239 -0.9746
vn -0.0143 0.2505 -0.9680
vn -0.0105 0.2287 -0.9734
vn -0.0071 0.2062 -0.9785
vn -0.0059 0.2006 -0.9797
vn -0.0053 0.1749 -0.9846
vn -0.0047 0.1712 -0.9852
vn -0.0033 0.1928 -0.9812
vn -0.0009 0.1887 -0.9820
vn -0.0032 0.1647 -0.9863
vn 0.0003 0.1600 -0.9871
vn 0.0008 0.1801 -0.9836
vn 0.0035 0.1720 -0.9851
vn 0.0037 0.1498 -0.9887
vn 0.0059 0.1404 -0.9901
vn -0.0270 0.3296 -0.9438
vn -0.0301 0.3691 -0.9289
vn -0.0315 0.3719 -0.9277
vn -0.0103 0.2703 -0.9627
vn -0.0089 0.2679 -0.9634
vn -0.0032 0.3158 -0.9488
vn -0.0053 0.3158 -0.9488
vn 0.0058 0.1626 -0.9867
vn 0.0069 0.1560 -0.9877
vn 0.0085 0.1280 -0.9917
vn 0.0097 0.1206 -0.9926
vn -0.0104 0.2444 -0.9696
vn -0.0076 0.2196 -0.9756
vn -0.0223 0.3185 -0.9477
vn -0.0177 0.2734 -0.9617
vn -0.0143 0.2367 -0.9715
vn -0.0154 0.2407 -0.9705
vn -0.0169 0.2557 -0.9666
vn -0.0175 0.2570 -0.9663
vn -0.0206 0.2810 -0.9595
vn -0.0268 0.3637 -0.9311
vn -0.0291 0.3663 -0.9300
vn -0.0045 0.1675 -0.9859
vn -0.0054 0.1960 -0.9806
vn -0.0120 0.2330 -0.9724
vn -0.0154 0.2537 -0.9672
vn -0.0015 0.3664 -0.9304
vn -0.0050 0.3666 -0.9304
vn -0.0079 0.2387 -0.9711
vn -0.0082 0.2399 -0.9708
vn -0.0096 0.2417 -0.9703
vn -0.0047 0.2096 -0.9778
vn -0.0038 0.2055 -0.9786
vn 0.0012 0.1803 -0.9836
vn 0.0023 0.1764 -0.9843
vn -0.0060 0.2147 -0.9767
vn -0.0034 0.1930 -0.9812
vn -0.0005 0.1871 -0.9823
vn -0.0041 0.1995 -0.9799
vn -0.0060 0.2047 -0.9788
vn -0.0080 0.2090 -0.9779
vn -0.0097 0.2133 -0.9769
vn -0.0112 0.2171 -0.9761
vn -0.0121 0.3624 -0.9320
vn -0.0197 0.3585 -0.9333
vn -0.0242 0.3604 -0.9325
# 72 vertex normals

vt 0.7945 0.1591 0.0000
vt 0.7926 0.1269 0.0000
vt 0.8220 0.1557 0.0000
vt 0.8192 0.1248 0.0000
vt 0.6973 0.1692 0.0000
vt 0.6961 0.1345 0.0000
vt 0.7310 0.1663 0.0000
vt 0.7298 0.1318 0.0000
vt 0.6668 0.1719 0.0000
vt 0.6647 0.1369 0.0000
vt 0.7289 0.1060 0.0000
vt 0.7279 0.0783 0.0000
vt 0.7614 0.1037 0.0000
vt 0.7606 0.0762 0.0000
vt 0.8349 0.0272 0.0000
vt 0.8105 0.0278 0.0000
vt 0.8334 0.0182 0.0000
vt 0.8096 0.0186 0.0000
vt 0.7591 0.0293 0.0000
vt 0.7260 0.0304 0.0000
vt 0.7588 0.0195 0.0000
vt 0.7256 0.0201 0.0000
vt 0.6921 0.0316 0.0000
vt 0.6573 0.0330 0.0000
vt 0.6916 0.0208 0.0000
vt 0.6563 0.0215 0.0000
vt 0.8557 0.1516 0.0000
vt 0.8237 0.1753 0.0000
vt 0.8588 0.1705 0.0000
vt 0.6100 0.1413 0.0000
vt 0.6332 0.1394 0.0000
vt 0.6142 0.1758 0.0000
vt 0.6366 0.1744 0.0000
vt 0.6225 0.0344 0.0000
vt 0.5969 0.0355 0.0000
vt 0.6212 0.0223 0.0000
vt 0.5953 0.0228 0.0000
vt 0.6952 0.1084 0.0000
vt 0.6942 0.0805 0.0000
vt 0.7630 0.1629 0.0000
vt 0.7621 0.1293 0.0000
vt 0.8145 0.0727 0.0000
vt 0.8423 0.0709 0.0000
vt 0.8170 0.0997 0.0000
vt 0.8467 0.0976 0.0000
vt 0.8509 0.1224 0.0000
vt 0.7634 0.1832 0.0000
vt 0.7957 0.1791 0.0000
vt 0.7860 0.0190 0.0000
vt 0.7866 0.0285 0.0000
vt 0.7894 0.0744 0.0000
vt 0.7911 0.1016 0.0000
vt 0.6166 0.1958 0.0000
vt 0.6373 0.1950 0.0000
vt 0.6067 0.1148 0.0000
vt 0.6302 0.1131 0.0000
vt 0.6630 0.1107 0.0000
vt 0.6270 0.0848 0.0000
vt 0.6032 0.0864 0.0000
vt 0.6246 0.0582 0.0000
vt 0.5998 0.0592 0.0000
vt 0.6611 0.0826 0.0000
vt 0.6931 0.0552 0.0000
vt 0.6591 0.0567 0.0000
vt 0.7269 0.0537 0.0000
vt 0.7598 0.0523 0.0000
vt 0.7880 0.0510 0.0000
vt 0.8125 0.0499 0.0000
vt 0.8386 0.0488 0.0000
vt 0.6678 0.1933 0.0000
vt 0.6978 0.1909 0.0000
vt 0.7317 0.1871 0.0000
# 72 texture coords

g Z020_305B_L_DTaSI_Z020_305B_L
usemtl windowglass_1SG
s 1
f 1/1/1 2/2/2 3/3/3 
f 3/3/3 2/2/2 4/4/4 
f 5/5/5 6/6/6 7/7/7 
f 7/7/7 6/6/6 8/8/8 
f 9/9/9 10/10/10 5/5/5 
f 5/5/5 10/10/10 6/6/6 
f 11/11/11 12/12/12 13/13/13 
f 13/13/13 12/12/12 14/14/14 
f 15/15/15 16/16/16 17/17/17 
f 17/17/17 16/16/16 18/18/18 
f 19/19/19 20/20/20 21/21/21 
f 21/21/21 20/20/20 22/22/22 
f 23/23/23 24/24/24 25/25/25 
f 25/25/25 24/24/24 26/26/26 
f 3/3/3 27/27/27 28/28/28 
f 28/28/28 27/27/27 29/29/29 
f 30/30/30 31/31/31 32/32/32 
f 32/32/32 31/31/31 33/33/33 
f 34/34/34 35/35/35 36/36/36 
f 36/36/36 35/35/35 37/37/37 
f 38/38/38 39/39/39 11/11/11 
f 11/11/11 39/39/39 12/12/12 
f 7/7/7 8/8/8 40/40/40 
f 40/40/40 8/8/8 41/41/41 
f 42/42/42 43/43/43 44/44/44 
f 44/44/44 43/43/43 45/45/45 
f 4/4/4 46/46/46 3/3/3 
f 3/3/3 46/46/46 27/27/27 
f 47/47/47 40/40/40 48/48/48 
f 48/48/48 40/40/40 1/1/1 
f 40/40/40 41/41/41 1/1/1 
f 1/1/1 41/41/41 2/2/2 
f 21/21/21 49/49/49 19/19/19 
f 19/19/19 49/49/49 50/50/50 
f 16/16/16 50/50/50 18/18/18 
f 18/18/18 50/50/50 49/49/49 
f 3/3/3 28/28/28 1/1/1 
f 1/1/1 28/28/28 48/48/48 
f 51/51/51 42/42/42 52/52/52 
f 52/52/52 42/42/42 44/44/44 
f 32/32/32 33/33/33 53/53/53 
f 53/53/53 33/33/33 54/54/54 
f 55/55/55 56/56/56 30/30/30 
f 30/30/30 56/56/56 31/31/31 
f 10/10/10 57/57/57 6/6/6 
f 6/6/6 57/57/57 38/38/38 
f 6/6/6 38/38/38 8/8/8 
f 8/8/8 38/38/38 11/11/11 
f 8/8/8 11/11/11 41/41/41 
f 41/41/41 11/11/11 13/13/13 
f 41/41/41 13/13/13 2/2/2 
f 2/2/2 13/13/13 52/52/52 
f 52/52/52 44/44/44 2/2/2 
f 2/2/2 44/44/44 4/4/4 
f 46/46/46 4/4/4 45/45/45 
f 45/45/45 4/4/4 44/44/44 
f 58/58/58 59/59/59 60/60/60 
f 60/60/60 59/59/59 61/61/61 
f 39/39/39 62/62/62 63/63/63 
f 63/63/63 62/62/62 64/64/64 
f 12/12/12 65/65/65 14/14/14 
f 14/14/14 65/65/65 66/66/66 
f 14/14/14 66/66/66 51/51/51 
f 51/51/51 66/66/66 67/67/67 
f 42/42/42 51/51/51 68/68/68 
f 68/68/68 51/51/51 67/67/67 
f 43/43/43 42/42/42 69/69/69 
f 69/69/69 42/42/42 68/68/68 
f 56/56/56 55/55/55 58/58/58 
f 58/58/58 55/55/55 59/59/59 
f 57/57/57 62/62/62 38/38/38 
f 38/38/38 62/62/62 39/39/39 
f 13/13/13 14/14/14 52/52/52 
f 52/52/52 14/14/14 51/51/51 
f 60/60/60 61/61/61 34/34/34 
f 34/34/34 61/61/61 35/35/35 
f 63/63/63 64/64/64 23/23/23 
f 23/23/23 64/64/64 24/24/24 
f 65/65/65 20/20/20 66/66/66 
f 66/66/66 20/20/20 19/19/19 
f 67/67/67 66/66/66 50/50/50 
f 50/50/50 66/66/66 19/19/19 
f 68/68/68 67/67/67 16/16/16 
f 16/16/16 67/67/67 50/50/50 
f 69/69/69 68/68/68 15/15/15 
f 15/15/15 68/68/68 16/16/16 
f 54/54/54 33/33/33 70/70/70 
f 70/70/70 33/33/33 9/9/9 
f 10/10/10 9/9/9 31/31/31 
f 31/31/31 9/9/9 33/33/33 
f 10/10/10 31/31/31 57/57/57 
f 57/57/57 31/31/31 56/56/56 
f 57/57/57 56/56/56 62/62/62 
f 62/62/62 56/56/56 58/58/58 
f 62/62/62 58/58/58 64/64/64 
f 64/64/64 58/58/58 60/60/60 
f 64/64/64 60/60/60 24/24/24 
f 24/24/24 60/60/60 34/34/34 
f 24/24/24 34/34/34 26/26/26 
f 26/26/26 34/34/34 36/36/36 
f 5/5/5 71/71/71 9/9/9 
f 9/9/9 71/71/71 70/70/70 
f 7/7/7 72/72/72 5/5/5 
f 5/5/5 72/72/72 71/71/71 
f 65/65/65 12/12/12 63/63/63 
f 63/63/63 12/12/12 39/39/39 
f 20/20/20 65/65/65 23/23/23 
f 23/23/23 65/65/65 63/63/63 
f 25/25/25 22/22/22 23/23/23 
f 23/23/23 22/22/22 20/20/20 
f 40/40/40 47/47/47 7/7/7 
f 7/7/7 47/47/47 72/72/72 
# 112 faces

