# 3ds Max Wavefront OBJ Exporter v0.97b - (c)2007 guruware
# File Created: 30.11.2015 11:18:26

mtllib LX61_181C_R.mtl

#
# object LX61_181C_R_2_D_LX61_181C_R
#

v  118.4477 59.0527 83.0147
v  112.6814 61.7148 82.4546
v  112.1907 62.7037 82.0678
v  102.6600 68.1969 80.7089
v  101.9659 68.9042 80.2967
v  91.6140 75.2068 78.3569
v  97.3320 64.8047 85.9379
v  99.3360 62.8298 86.3863
v  106.7638 58.4054 87.8634
v  108.3298 56.6245 88.2159
v  113.3320 53.8658 89.1477
v  114.2481 52.2664 89.4258
# 12 vertices

vn -0.0984 -0.4044 -0.9093
vn -0.1001 -0.4051 -0.9088
vn -0.1056 -0.4087 -0.9065
vn -0.2912 -0.6745 -0.6785
vn -0.2849 -0.6758 -0.6798
vn -0.2834 -0.6751 -0.6812
vn -0.1584 0.0630 0.9854
vn -0.1587 0.0626 0.9853
vn -0.1661 0.0490 0.9849
vn -0.1490 0.0650 0.9867
vn -0.1309 0.0959 0.9867
vn -0.1304 0.0969 0.9867
# 12 vertex normals

vt 0.0000 0.9470 0.0000
# 1 texture coords

g LX61_181C_R_2_D_LX61_181C_R
usemtl diffuse_holesSG
s 1
f 1/1/1 2/1/2 3/1/3 
f 2/1/2 4/1/4 3/1/3 
f 3/1/3 4/1/4 5/1/5 
f 5/1/5 4/1/4 6/1/6 
s 2
f 7/1/7 8/1/8 9/1/9 
f 8/1/8 10/1/10 9/1/9 
f 9/1/9 10/1/10 11/1/11 
f 10/1/10 12/1/12 11/1/11 
# 8 faces

#
# object LX61_181C_R_LX61_181C_R_1_DaS
#

v  40.9067 99.2762 72.2733
v  45.0237 97.6726 73.1247
v  41.8637 100.5250 70.6019
v  46.0929 98.8982 71.4674
v  112.6972 63.6162 82.2872
v  112.8651 63.1038 84.0439
v  118.9487 59.9688 83.2317
v  118.7100 59.6800 85.0188
v  42.7052 101.5714 66.2346
v  42.5226 101.6767 67.0957
v  42.9701 101.4768 66.9704
v  106.4779 58.2884 88.8841
v  113.0464 53.7466 90.1682
v  107.1023 58.5129 89.0847
v  113.4377 54.1413 90.3234
v  113.2070 53.9071 90.2789
v  42.9002 95.3143 74.5777
v  50.8873 91.6779 76.4798
v  43.2379 95.7080 74.7088
v  51.2625 92.0538 76.6201
v  39.2924 97.2833 73.8775
v  38.9749 96.8814 73.7508
v  39.8824 98.0136 73.5069
v  43.8843 96.4271 74.3457
v  51.9911 92.7580 76.2626
v  78.8032 78.0395 82.5044
v  69.4737 83.4472 80.3911
v  77.9152 77.3361 82.8438
v  68.6536 82.7257 80.7361
v  68.2067 82.3893 80.5761
v  77.4281 77.0255 82.6740
v  108.2977 59.1979 88.7734
v  114.3780 55.1135 89.9509
v  97.6227 64.9444 87.1489
v  97.0446 64.6931 86.9588
v  87.5084 71.4975 84.9875
v  86.9767 71.2170 84.8077
v  88.4929 72.1625 84.6515
v  98.7024 65.6068 86.8210
v  59.7131 87.6987 78.6662
v  59.3024 87.3416 78.5163
v  60.4918 88.4080 78.3133
v  112.2765 62.1770 85.8249
v  117.9042 58.8066 86.8405
v  102.2166 68.3827 83.8626
v  102.6764 69.2894 82.1627
v  91.7084 74.8268 81.7292
v  92.1859 75.6692 80.1182
v  92.1130 76.1175 78.5994
v  102.4756 69.8126 80.5253
v  81.7358 80.7593 79.6293
v  82.2951 81.5308 78.0892
v  72.2387 86.1322 77.5333
v  72.8590 86.8205 76.0192
v  73.1485 87.0239 74.6275
v  82.4332 81.8528 76.6614
v  63.1742 90.9351 75.4428
v  63.7930 91.5500 73.9132
v  54.5180 95.1947 73.3903
v  55.0723 95.7970 71.8385
v  55.3635 95.9330 70.4130
v  64.1214 91.6837 72.5093
v  46.5453 99.5558 69.8816
v  42.2668 101.2153 68.9953
v  47.3220 99.6126 68.4572
v  43.7854 101.1336 67.4540
v  116.1733 56.9864 88.6563
v  110.3944 60.6424 87.5642
v  100.5696 66.9490 85.5891
v  90.1909 73.4606 83.4202
v  80.3277 79.3849 81.2832
v  70.8914 84.7933 79.1730
v  61.8614 89.6860 77.0903
v  53.2860 93.9921 75.0420
# 74 vertices

vn 0.1230 0.7107 0.6927
vn 0.1393 0.6956 0.7048
vn 0.1830 0.8119 0.5543
vn 0.2143 0.7992 0.5616
vn 0.4775 0.8546 0.2041
vn 0.4220 0.8192 0.3882
vn 0.4698 0.8593 0.2022
vn 0.4177 0.8214 0.3884
vn 0.2927 0.9546 -0.0548
vn 0.2793 0.9457 0.1662
vn 0.4014 0.9155 -0.0269
vn -0.2682 -0.1094 0.9571
vn -0.3571 -0.2402 0.9026
vn -0.0409 0.2291 0.9725
vn -0.0005 0.2763 0.9611
vn -0.2598 -0.0952 0.9610
vn -0.2594 -0.0976 0.9608
vn -0.2714 -0.0870 0.9585
vn -0.1015 0.2722 0.9569
vn -0.0908 0.2875 0.9535
vn -0.0762 0.2826 0.9562
vn -0.2216 -0.1296 0.9665
vn 0.0665 0.5992 0.7978
vn 0.0692 0.5852 0.8079
vn 0.0833 0.5766 0.8127
vn 0.1140 0.5144 0.8500
vn 0.1035 0.5272 0.8434
vn -0.0675 0.2535 0.9650
vn -0.0749 0.2589 0.9630
vn -0.2728 -0.0928 0.9576
vn -0.2729 -0.0954 0.9573
vn 0.1217 0.4514 0.8840
vn 0.1088 0.4314 0.8956
vn -0.0469 0.2381 0.9701
vn -0.2699 -0.1036 0.9573
vn -0.0559 0.2489 0.9669
vn -0.2718 -0.0982 0.9573
vn 0.1297 0.5042 0.8538
vn 0.1330 0.4811 0.8665
vn -0.0813 0.2741 0.9583
vn -0.2740 -0.0868 0.9578
vn 0.0973 0.5524 0.8279
vn 0.2864 0.6768 0.6782
vn 0.2785 0.6719 0.6863
vn 0.2972 0.6917 0.6581
vn 0.4254 0.8195 0.3841
vn 0.2929 0.7029 0.6481
vn 0.4154 0.8210 0.3918
vn 0.4663 0.8542 0.2300
vn 0.4777 0.8520 0.2142
vn 0.2746 0.7116 0.6467
vn 0.3948 0.8281 0.3980
vn 0.2586 0.7304 0.6321
vn 0.3747 0.8469 0.3772
vn 0.4247 0.8793 0.2154
vn 0.4460 0.8631 0.2370
vn 0.2496 0.7596 0.6005
vn 0.3595 0.8698 0.3379
vn 0.2341 0.7851 0.5734
vn 0.3389 0.8855 0.3179
vn 0.3875 0.9069 0.1657
vn 0.4066 0.8957 0.1799
vn 0.3009 0.8926 0.3357
vn 0.2523 0.9019 0.3506
vn 0.3415 0.9132 0.2225
vn 0.3174 0.9112 0.2627
vn 0.1775 0.5354 0.8257
vn 0.1914 0.5506 0.8126
vn 0.2065 0.5780 0.7895
vn 0.2053 0.5993 0.7738
vn 0.1887 0.6107 0.7691
vn 0.1764 0.6274 0.7585
vn 0.1700 0.6555 0.7359
vn 0.1557 0.6818 0.7148
# 74 vertex normals

vt 0.5379 0.2404 0.0000
vt 0.5451 0.2376 0.0000
vt 0.5395 0.2440 0.0000
vt 0.5468 0.2412 0.0000
vt 0.6656 0.1830 0.0000
vt 0.6649 0.1800 0.0000
vt 0.6754 0.1762 0.0000
vt 0.6744 0.1738 0.0000
vt 0.5409 0.2511 0.0000
vt 0.5409 0.2501 0.0000
vt 0.5417 0.2502 0.0000
vt 0.6531 0.1684 0.0000
vt 0.6646 0.1605 0.0000
vt 0.6541 0.1688 0.0000
vt 0.6653 0.1612 0.0000
vt 0.6649 0.1608 0.0000
vt 0.5414 0.2335 0.0000
vt 0.5554 0.2271 0.0000
vt 0.5420 0.2342 0.0000
vt 0.5561 0.2277 0.0000
vt 0.5351 0.2369 0.0000
vt 0.5345 0.2362 0.0000
vt 0.5361 0.2382 0.0000
vt 0.5431 0.2354 0.0000
vt 0.5574 0.2290 0.0000
vt 0.6044 0.2033 0.0000
vt 0.5881 0.2126 0.0000
vt 0.6029 0.2019 0.0000
vt 0.5866 0.2114 0.0000
vt 0.5858 0.2108 0.0000
vt 0.6020 0.2014 0.0000
vt 0.6562 0.1700 0.0000
vt 0.6669 0.1629 0.0000
vt 0.6375 0.1801 0.0000
vt 0.6365 0.1797 0.0000
vt 0.6197 0.1916 0.0000
vt 0.6188 0.1912 0.0000
vt 0.6215 0.1928 0.0000
vt 0.6394 0.1813 0.0000
vt 0.5709 0.2201 0.0000
vt 0.5702 0.2195 0.0000
vt 0.5723 0.2213 0.0000
vt 0.6634 0.1768 0.0000
vt 0.6727 0.1708 0.0000
vt 0.6458 0.1881 0.0000
vt 0.6471 0.1913 0.0000
vt 0.6273 0.1995 0.0000
vt 0.6285 0.2026 0.0000
vt 0.6290 0.2053 0.0000
vt 0.6475 0.1943 0.0000
vt 0.6096 0.2101 0.0000
vt 0.6109 0.2129 0.0000
vt 0.5928 0.2194 0.0000
vt 0.5942 0.2222 0.0000
vt 0.5952 0.2245 0.0000
vt 0.6117 0.2154 0.0000
vt 0.5768 0.2280 0.0000
vt 0.5781 0.2307 0.0000
vt 0.5615 0.2354 0.0000
vt 0.5626 0.2382 0.0000
vt 0.5635 0.2405 0.0000
vt 0.5792 0.2330 0.0000
vt 0.5476 0.2441 0.0000
vt 0.5402 0.2469 0.0000
vt 0.5492 0.2464 0.0000
vt 0.5431 0.2492 0.0000
vt 0.6697 0.1665 0.0000
vt 0.6599 0.1731 0.0000
vt 0.6427 0.1844 0.0000
vt 0.6245 0.1959 0.0000
vt 0.6070 0.2064 0.0000
vt 0.5905 0.2158 0.0000
vt 0.5746 0.2244 0.0000
vt 0.5594 0.2319 0.0000
# 74 texture coords

g LX61_181C_R_LX61_181C_R_1_DaS
usemtl paint_whiteSG
s 1
f 13/2/13 14/3/14 15/4/15 
f 15/4/15 14/3/14 16/5/16 
f 17/6/17 18/7/18 19/8/19 
f 19/8/19 18/7/18 20/9/20 
f 21/10/21 22/11/22 23/12/23 
f 24/13/24 25/14/25 26/15/26 
f 27/16/27 26/15/26 28/17/28 
f 28/17/28 26/15/26 25/14/25 
f 29/18/29 30/19/30 31/20/31 
f 31/20/31 30/19/30 32/21/32 
f 31/20/31 33/22/33 29/18/29 
f 29/18/29 33/22/33 34/23/34 
f 33/22/33 31/20/31 35/24/35 
f 35/24/35 31/20/31 36/25/36 
f 31/20/31 32/21/32 36/25/36 
f 36/25/36 32/21/32 37/26/37 
f 38/27/38 39/28/39 40/29/40 
f 40/29/40 39/28/39 41/30/41 
f 42/31/42 43/32/43 41/30/41 
f 41/30/41 43/32/43 40/29/40 
f 26/15/26 27/16/27 44/33/44 
f 44/33/44 27/16/27 45/34/45 
f 26/15/26 46/35/46 24/13/24 
f 24/13/24 46/35/46 47/36/47 
f 46/35/46 48/37/48 47/36/47 
f 47/36/47 48/37/48 49/38/49 
f 48/37/48 46/35/46 50/39/50 
f 50/39/50 46/35/46 51/40/51 
f 46/35/46 26/15/26 51/40/51 
f 51/40/51 26/15/26 44/33/44 
f 48/37/48 40/29/40 49/38/49 
f 49/38/49 40/29/40 43/32/43 
f 40/29/40 48/37/48 38/27/38 
f 38/27/38 48/37/48 50/39/50 
f 41/30/41 52/41/52 42/31/42 
f 42/31/42 52/41/52 53/42/53 
f 52/41/52 32/21/32 53/42/53 
f 53/42/53 32/21/32 30/19/30 
f 32/21/32 52/41/52 37/26/37 
f 37/26/37 52/41/52 54/43/54 
f 52/41/52 41/30/41 54/43/54 
f 54/43/54 41/30/41 39/28/39 
f 18/7/18 55/44/55 20/9/20 
f 20/9/20 55/44/55 56/45/56 
f 57/46/57 58/47/58 59/48/59 
f 59/48/59 58/47/58 60/49/60 
f 55/44/55 18/7/18 57/46/57 
f 57/46/57 18/7/18 58/47/58 
f 61/50/61 60/49/60 62/51/62 
f 62/51/62 60/49/60 58/47/58 
f 62/51/62 58/47/58 17/6/17 
f 17/6/17 58/47/58 18/7/18 
f 63/52/63 64/53/64 65/54/65 
f 65/54/65 64/53/64 66/55/66 
f 59/48/59 60/49/60 63/52/63 
f 63/52/63 60/49/60 64/53/64 
f 67/56/67 66/55/66 68/57/68 
f 68/57/68 66/55/66 64/53/64 
f 68/57/68 64/53/64 61/50/61 
f 61/50/61 64/53/64 60/49/60 
f 69/58/69 70/59/70 71/60/71 
f 71/60/71 70/59/70 72/61/72 
f 65/54/65 66/55/66 69/58/69 
f 69/58/69 66/55/66 70/59/70 
f 73/62/73 72/61/72 74/63/74 
f 74/63/74 72/61/72 70/59/70 
f 74/63/74 70/59/70 67/56/67 
f 67/56/67 70/59/70 66/55/66 
f 16/5/16 75/64/75 15/4/15 
f 15/4/15 75/64/75 76/65/76 
f 71/60/71 72/61/72 16/5/16 
f 16/5/16 72/61/72 75/64/75 
f 75/64/75 77/66/77 76/65/76 
f 77/66/77 78/67/78 76/65/76 
f 76/65/76 78/67/78 22/11/22 
f 75/64/75 72/61/72 77/66/77 
f 77/66/77 72/61/72 73/62/73 
f 79/68/79 80/69/80 45/34/45 
f 45/34/45 80/69/80 44/33/44 
f 80/69/80 79/68/79 55/44/55 
f 55/44/55 79/68/79 56/45/56 
f 55/44/55 57/46/57 80/69/80 
f 80/69/80 57/46/57 81/70/81 
f 80/69/80 81/70/81 44/33/44 
f 44/33/44 81/70/81 51/40/51 
f 81/70/81 82/71/82 51/40/51 
f 51/40/51 82/71/82 50/39/50 
f 82/71/82 81/70/81 59/48/59 
f 59/48/59 81/70/81 57/46/57 
f 59/48/59 63/52/63 82/71/82 
f 82/71/82 63/52/63 83/72/83 
f 82/71/82 83/72/83 50/39/50 
f 50/39/50 83/72/83 38/27/38 
f 83/72/83 84/73/84 38/27/38 
f 38/27/38 84/73/84 39/28/39 
f 84/73/84 83/72/83 65/54/65 
f 65/54/65 83/72/83 63/52/63 
f 65/54/65 69/58/69 84/73/84 
f 84/73/84 69/58/69 85/74/85 
f 84/73/84 85/74/85 39/28/39 
f 39/28/39 85/74/85 54/43/54 
f 85/74/85 86/75/86 54/43/54 
f 54/43/54 86/75/86 37/26/37 
f 86/75/86 85/74/85 71/60/71 
f 71/60/71 85/74/85 69/58/69 
f 71/60/71 16/5/16 86/75/86 
f 86/75/86 16/5/16 14/3/14 
f 86/75/86 14/3/14 37/26/37 
f 37/26/37 14/3/14 36/25/36 
f 14/3/14 13/2/13 36/25/36 
f 36/25/36 13/2/13 35/24/35 
f 23/12/23 22/11/22 78/67/78 
# 112 faces

#
# object LX61_181C_R_LX61_181C_R_1_DaS_E
#

v  118.9487 59.9688 83.2317
v  118.4477 59.0527 83.0147
v  112.6972 63.6162 82.2872
v  112.1907 62.7037 82.0678
v  118.7100 59.6800 85.0188
v  118.2653 58.8119 84.6302
v  42.7052 101.5714 66.2346
v  42.9701 101.4768 66.9704
v  42.2772 100.5950 66.2633
v  42.5420 100.5005 66.9991
v  113.2070 53.9071 90.2789
v  113.0464 53.7466 90.1682
v  113.4926 54.0263 89.2584
v  113.3320 53.8658 89.1477
v  106.4779 58.2884 88.8841
v  106.7638 58.4054 87.8634
v  113.4377 54.1413 90.3234
v  113.5574 54.0235 89.3109
v  50.8873 91.6779 76.4798
v  42.9002 95.3143 74.5777
v  51.1775 91.7703 75.4578
v  43.1750 95.4200 73.5528
v  38.9749 96.8814 73.7508
v  39.2377 96.9978 72.7239
v  77.4281 77.0255 82.6740
v  68.2067 82.3893 80.5761
v  77.7189 77.1272 81.6530
v  68.4973 82.4881 79.5549
v  114.3780 55.1135 89.9509
v  114.2762 54.6802 88.9874
v  97.0446 64.6931 86.9588
v  97.3320 64.8047 85.9379
v  86.9767 71.2170 84.8077
v  87.2662 71.3226 83.7868
v  59.3024 87.3416 78.5163
v  59.5944 87.4350 77.4949
v  117.9042 58.8066 86.8405
v  117.5932 58.0827 86.1455
v  92.1130 76.1175 78.5994
v  102.4756 69.8126 80.5253
v  91.6140 75.2068 78.3569
v  101.9659 68.9042 80.2967
v  73.1485 87.0239 74.6275
v  82.4332 81.8528 76.6614
v  72.6949 86.0863 74.3998
v  81.9552 80.9321 76.4148
v  55.3635 95.9330 70.4130
v  64.1214 91.6837 72.5093
v  54.9586 94.9666 70.2155
v  63.6888 90.7296 72.3112
v  43.7854 101.1336 67.4540
v  47.3220 99.6126 68.4572
v  43.4026 100.1563 67.3396
v  46.9600 98.6378 68.2233
v  116.1733 56.9864 88.6563
v  115.9779 56.4167 87.7802
# 56 vertices

vn 0.2129 0.1135 -0.9705
vn 0.2129 0.1136 -0.9704
vn 0.2224 0.1097 -0.9688
vn 0.2223 0.1095 -0.9688
vn 0.8694 -0.4858 0.0902
vn 0.8683 -0.4882 0.0875
vn 0.8770 -0.4795 0.0319
vn 0.8744 -0.4845 0.0265
vn 0.8519 -0.3839 -0.3560
vn 0.6763 -0.2740 -0.6837
vn 0.8519 -0.3840 -0.3560
vn 0.6383 -0.3007 -0.7086
vn 0.6778 -0.7232 0.1321
vn 0.1343 -0.9879 -0.0777
vn 0.6677 -0.7376 0.1007
vn 0.0493 -0.9935 -0.1022
vn -0.5159 -0.8227 -0.2388
vn 0.7127 -0.6821 0.1637
vn 0.7223 -0.6663 0.1852
vn 0.0419 -0.9937 -0.1043
vn -0.3904 -0.9004 -0.1923
vn -0.3503 -0.9174 -0.1888
vn -0.3903 -0.9003 -0.1925
vn -0.3504 -0.9174 -0.1887
vn -0.3295 -0.9250 -0.1892
vn -0.3298 -0.9250 -0.1885
vn -0.4623 -0.8597 -0.2174
vn -0.4461 -0.8697 -0.2112
vn -0.4623 -0.8597 -0.2172
vn -0.4462 -0.8697 -0.2110
vn 0.7469 -0.6350 0.1975
vn 0.7386 -0.6406 0.2100
vn -0.5033 -0.8322 -0.2327
vn -0.5033 -0.8322 -0.2325
vn -0.4824 -0.8467 -0.2245
vn -0.4825 -0.8467 -0.2243
vn -0.4246 -0.8825 -0.2022
vn -0.4246 -0.8825 -0.2021
vn 0.8315 -0.5266 0.1766
vn 0.8301 -0.5294 0.1754
vn 0.2553 0.1160 -0.9599
vn 0.2396 0.1088 -0.9648
vn 0.2551 0.1154 -0.9600
vn 0.2393 0.1082 -0.9649
vn 0.2714 0.1012 -0.9571
vn 0.2671 0.1170 -0.9565
vn 0.2712 0.1009 -0.9572
vn 0.2672 0.1172 -0.9565
vn 0.2731 0.0832 -0.9584
vn 0.2666 0.0796 -0.9605
vn 0.2726 0.0815 -0.9587
vn 0.2662 0.0788 -0.9607
vn 0.3799 -0.0407 -0.9241
vn 0.2863 0.1117 -0.9516
vn 0.3370 -0.0519 -0.9401
vn 0.2868 0.1198 -0.9505
vn 0.7858 -0.5826 0.2076
vn 0.7831 -0.5876 0.2037
# 58 vertex normals

vt 0.6754 0.1762 0.0000
vt 0.6766 0.1772 0.0000
vt 0.6656 0.1830 0.0000
vt 0.6667 0.1846 0.0000
vt 0.6744 0.1738 0.0000
vt 0.6761 0.1733 0.0000
vt 0.5409 0.2511 0.0000
vt 0.5417 0.2502 0.0000
vt 0.5418 0.2523 0.0000
vt 0.5427 0.2516 0.0000
vt 0.6649 0.1608 0.0000
vt 0.6646 0.1605 0.0000
vt 0.6654 0.1610 0.0000
vt 0.6651 0.1607 0.0000
vt 0.6531 0.1684 0.0000
vt 0.6536 0.1687 0.0000
vt 0.6653 0.1612 0.0000
vt 0.6655 0.1610 0.0000
vt 0.5554 0.2271 0.0000
vt 0.5414 0.2335 0.0000
vt 0.5559 0.2273 0.0000
vt 0.5419 0.2337 0.0000
vt 0.5345 0.2362 0.0000
vt 0.5350 0.2364 0.0000
vt 0.6020 0.2014 0.0000
vt 0.5858 0.2108 0.0000
vt 0.6025 0.2015 0.0000
vt 0.5863 0.2109 0.0000
vt 0.6669 0.1629 0.0000
vt 0.6667 0.1621 0.0000
vt 0.6365 0.1797 0.0000
vt 0.6370 0.1799 0.0000
vt 0.6188 0.1912 0.0000
vt 0.6193 0.1913 0.0000
vt 0.5702 0.2195 0.0000
vt 0.5707 0.2196 0.0000
vt 0.6727 0.1708 0.0000
vt 0.6743 0.1698 0.0000
vt 0.6290 0.2053 0.0000
vt 0.6475 0.1943 0.0000
vt 0.6300 0.2069 0.0000
vt 0.6485 0.1959 0.0000
vt 0.5952 0.2245 0.0000
vt 0.6117 0.2154 0.0000
vt 0.5961 0.2261 0.0000
vt 0.6126 0.2170 0.0000
vt 0.5635 0.2405 0.0000
vt 0.5792 0.2330 0.0000
vt 0.5642 0.2422 0.0000
vt 0.5800 0.2347 0.0000
vt 0.5431 0.2492 0.0000
vt 0.5492 0.2464 0.0000
vt 0.5439 0.2508 0.0000
vt 0.5500 0.2481 0.0000
vt 0.6697 0.1665 0.0000
vt 0.6710 0.1652 0.0000
# 56 texture coords

g LX61_181C_R_LX61_181C_R_1_DaS_E
usemtl paint_whiteSG
s 15
f 87/76/87 88/77/88 89/78/89 
f 89/78/89 88/77/88 90/79/90 
s 16
f 91/80/91 92/81/92 87/76/93 
f 87/76/93 92/81/92 88/77/94 
s 17
f 93/82/95 94/83/96 95/84/97 
f 95/84/97 94/83/96 96/85/98 
s 18
f 97/86/99 98/87/100 99/88/101 
f 99/88/101 98/87/100 100/89/102 
s 19
f 101/90/103 102/91/103 98/87/100 
f 98/87/100 102/91/103 100/89/102 
s 16
f 103/92/104 97/86/99 104/93/105 
s off
f 104/93/106 97/86/106 99/88/106 
s 19
f 105/94/107 106/95/108 107/96/109 
f 107/96/109 106/95/108 108/97/110 
f 109/98/111 110/99/112 106/95/108 
f 106/95/108 110/99/112 108/97/110 
f 111/100/113 112/101/114 113/102/115 
f 113/102/115 112/101/114 114/103/116 
s 16
f 103/92/104 104/93/105 115/104/117 
f 115/104/117 104/93/105 116/105/118 
s 19
f 101/90/103 117/106/119 102/91/103 
f 102/91/103 117/106/119 118/107/120 
f 117/106/119 119/108/121 118/107/120 
f 118/107/120 119/108/121 120/109/122 
f 119/108/121 111/100/113 120/109/122 
f 120/109/122 111/100/113 113/102/115 
f 112/101/114 121/110/123 114/103/116 
f 114/103/116 121/110/123 122/111/124 
f 121/110/123 105/94/107 122/111/124 
f 122/111/124 105/94/107 107/96/109 
s 16
f 91/80/91 123/112/125 92/81/92 
f 92/81/92 123/112/125 124/113/126 
s 15
f 125/114/127 126/115/128 127/116/129 
f 127/116/129 126/115/128 128/117/130 
f 126/115/128 89/78/89 128/117/130 
f 128/117/130 89/78/89 90/79/90 
f 129/118/131 130/119/132 131/120/133 
f 131/120/133 130/119/132 132/121/134 
f 130/119/132 125/114/127 132/121/134 
f 132/121/134 125/114/127 127/116/129 
f 133/122/135 134/123/136 135/124/137 
f 135/124/137 134/123/136 136/125/138 
f 129/118/131 131/120/133 134/123/136 
f 134/123/136 131/120/133 136/125/138 
f 137/126/139 138/127/140 139/128/141 
f 139/128/141 138/127/140 140/129/142 
f 138/127/140 133/122/135 140/129/142 
f 140/129/142 133/122/135 135/124/137 
s 16
f 141/130/143 115/104/117 142/131/144 
f 142/131/144 115/104/117 116/105/118 
f 123/112/125 141/130/143 124/113/126 
f 124/113/126 141/130/143 142/131/144 
s 15
f 137/126/139 139/128/141 94/83/96 
f 94/83/96 139/128/141 96/85/98 
# 54 faces

