# 3ds Max Wavefront OBJ Exporter v0.97b - (c)2007 guruware
# File Created: 30.11.2015 11:19:59

mtllib LX61_285B_R.mtl

#
# object LX61_285B_R_DTaSI_LX61_285B_R
#

v  -6.6772 67.2645 88.0338
v  -5.3882 76.3451 84.5361
v  -15.8664 67.8147 87.9288
v  -17.6168 77.1021 84.3969
v  -13.9169 56.9421 91.3408
v  -8.0496 56.6547 91.3938
v  6.3530 75.3222 84.7662
v  4.8415 66.3920 88.2229
v  16.6799 74.1402 85.0901
v  15.0551 65.4541 88.4596
v  13.3472 55.3949 91.6546
v  3.2410 56.0048 91.5240
v  25.6673 72.8297 85.5184
v  24.0739 64.4663 88.7487
v  34.0621 71.3659 86.0545
v  32.6079 63.4048 89.0880
v  31.1157 54.2666 91.9122
v  22.4205 54.8372 91.7796
v  42.6229 69.7122 86.6891
v  41.3648 62.2384 89.4686
v  50.4420 60.9297 89.8458
v  51.5062 67.8166 87.3474
v  49.3830 53.1693 92.1192
v  40.0947 53.7397 92.0226
v  60.7529 65.6325 87.9652
v  59.8333 59.4445 90.1841
v  69.5211 57.7761 90.5354
v  70.3134 63.1619 88.6093
v  68.7781 51.9200 92.2243
v  58.9309 52.5233 92.1931
v  78.7043 60.9073 89.2172
v  78.6142 56.1418 90.9049
v  78.5913 51.2693 92.2751
v  78.8088 65.8332 87.3337
v  71.1233 68.6244 86.4657
v  71.9521 74.1688 84.0891
v  78.9403 70.9512 85.2202
v  61.7070 71.9520 85.4293
v  62.6982 78.4127 82.5538
v  63.2804 82.1871 80.8174
v  53.8133 82.2091 81.0517
v  54.5732 86.8557 78.8248
v  72.3693 76.9516 82.8634
v  43.9638 77.4459 83.3975
v  35.6150 79.6200 82.4460
v  37.2738 88.1879 78.2216
v  45.3935 85.4580 79.5571
v  52.6286 74.9049 84.4261
v  38.4255 94.0785 75.2019
v  46.3582 90.8109 76.8911
v  27.3589 81.4862 81.6820
v  29.1557 90.4566 77.1961
v  18.3933 83.1044 81.1014
v  20.2014 92.3667 76.4493
v  21.4918 98.9277 73.0204
v  30.4247 96.7383 73.9286
v  7.9424 84.5193 80.6820
v  9.6153 94.0026 75.9256
v  -4.0333 85.6824 80.4076
v  -2.6078 95.2950 75.6035
v  -1.5885 102.1159 72.0541
v  10.8127 100.7414 72.4074
v  -19.3058 86.6125 80.2456
v  -17.3927 86.5452 80.2558
v  -16.2842 96.1679 75.4587
v  -15.4956 102.9589 71.9326
v  -22.2493 103.1752 71.9227
v  -21.0427 96.3376 75.4417
v  78.9874 73.2312 84.2559
# 69 vertices

vn 0.0090 0.3287 0.9444
vn 0.0141 0.3820 0.9241
vn 0.0095 0.3339 0.9426
vn 0.0131 0.3822 0.9240
vn 0.0067 0.3009 0.9536
vn 0.0063 0.3012 0.9536
vn 0.0151 0.3822 0.9239
vn 0.0091 0.3292 0.9442
vn 0.0137 0.3829 0.9237
vn 0.0076 0.3295 0.9441
vn 0.0056 0.3019 0.9533
vn 0.0064 0.3017 0.9534
vn 0.0093 0.3814 0.9244
vn 0.0050 0.3279 0.9447
vn 0.0041 0.3772 0.9261
vn 0.0018 0.3229 0.9464
vn 0.0039 0.2962 0.9551
vn 0.0045 0.3003 0.9538
vn 0.0057 0.3694 0.9293
vn 0.0033 0.3148 0.9491
vn 0.0095 0.3081 0.9513
vn 0.0148 0.3593 0.9331
vn 0.0077 0.2819 0.9594
vn 0.0045 0.2893 0.9572
vn 0.0237 0.3516 0.9358
vn 0.0160 0.3049 0.9523
vn 0.0168 0.3034 0.9527
vn 0.0255 0.3469 0.9375
vn 0.0123 0.2754 0.9612
vn 0.0121 0.2779 0.9605
vn 0.0242 0.3429 0.9391
vn 0.0160 0.2981 0.9544
vn 0.0130 0.2706 0.9626
vn 0.0298 0.3669 0.9298
vn 0.0310 0.3751 0.9265
vn 0.0327 0.3946 0.9183
vn 0.0321 0.3852 0.9223
vn 0.0286 0.3857 0.9222
vn 0.0293 0.4087 0.9122
vn 0.0271 0.4172 0.9084
vn 0.0161 0.4238 0.9056
vn 0.0122 0.4337 0.9010
vn 0.0315 0.4017 0.9152
vn 0.0070 0.4110 0.9116
vn 0.0076 0.4201 0.9075
vn 0.0074 0.4469 0.8946
vn 0.0047 0.4380 0.8990
vn 0.0176 0.3981 0.9172
vn 0.0069 0.4565 0.8897
vn 0.0019 0.4482 0.8939
vn 0.0144 0.4241 0.9055
vn 0.0173 0.4502 0.8927
vn 0.0198 0.4253 0.9049
vn 0.0236 0.4510 0.8922
vn 0.0249 0.4592 0.8880
vn 0.0180 0.4590 0.8883
vn 0.0209 0.4251 0.9049
vn 0.0248 0.4509 0.8922
vn 0.0186 0.4246 0.9052
vn 0.0215 0.4507 0.8924
vn 0.0226 0.4589 0.8882
vn 0.0262 0.4590 0.8881
vn 0.0108 0.4297 0.9029
vn 0.0159 0.4243 0.9054
vn 0.0176 0.4507 0.8925
vn 0.0180 0.4591 0.8882
vn 0.0134 0.4594 0.8881
vn 0.0130 0.4524 0.8917
vn 0.0303 0.3912 0.9198
# 69 vertex normals

vt 0.6335 0.0687 0.0000
vt 0.6381 0.1009 0.0000
vt 0.6009 0.0707 0.0000
vt 0.5947 0.1036 0.0000
vt 0.6078 0.0321 0.0000
vt 0.6287 0.0311 0.0000
vt 0.6797 0.0973 0.0000
vt 0.6744 0.0656 0.0000
vt 0.7164 0.0931 0.0000
vt 0.7106 0.0623 0.0000
vt 0.7046 0.0266 0.0000
vt 0.6687 0.0288 0.0000
vt 0.7483 0.0885 0.0000
vt 0.7426 0.0588 0.0000
vt 0.7780 0.0833 0.0000
vt 0.7729 0.0550 0.0000
vt 0.7676 0.0226 0.0000
vt 0.7367 0.0246 0.0000
vt 0.8084 0.0774 0.0000
vt 0.8039 0.0509 0.0000
vt 0.8361 0.0463 0.0000
vt 0.8399 0.0707 0.0000
vt 0.8324 0.0187 0.0000
vt 0.7994 0.0208 0.0000
vt 0.8727 0.0629 0.0000
vt 0.8695 0.0410 0.0000
vt 0.9038 0.0351 0.0000
vt 0.9066 0.0542 0.0000
vt 0.9012 0.0143 0.0000
vt 0.8663 0.0164 0.0000
vt 0.9364 0.0462 0.0000
vt 0.9361 0.0293 0.0000
vt 0.9360 0.0120 0.0000
vt 0.9368 0.0637 0.0000
vt 0.9095 0.0736 0.0000
vt 0.9124 0.0932 0.0000
vt 0.9372 0.0818 0.0000
vt 0.8761 0.0854 0.0000
vt 0.8796 0.1083 0.0000
vt 0.8817 0.1217 0.0000
vt 0.8481 0.1217 0.0000
vt 0.8508 0.1382 0.0000
vt 0.9139 0.1031 0.0000
vt 0.8132 0.1048 0.0000
vt 0.7835 0.1126 0.0000
vt 0.7894 0.1430 0.0000
vt 0.8182 0.1333 0.0000
vt 0.8439 0.0958 0.0000
vt 0.7935 0.1639 0.0000
vt 0.8217 0.1523 0.0000
vt 0.7543 0.1192 0.0000
vt 0.7606 0.1510 0.0000
vt 0.7225 0.1249 0.0000
vt 0.7289 0.1578 0.0000
vt 0.7334 0.1811 0.0000
vt 0.7651 0.1733 0.0000
vt 0.6854 0.1299 0.0000
vt 0.6913 0.1636 0.0000
vt 0.6429 0.1341 0.0000
vt 0.6480 0.1682 0.0000
vt 0.6516 0.1924 0.0000
vt 0.6956 0.1875 0.0000
vt 0.5887 0.1374 0.0000
vt 0.5955 0.1371 0.0000
vt 0.5994 0.1713 0.0000
vt 0.6022 0.1954 0.0000
vt 0.5783 0.1961 0.0000
vt 0.5826 0.1719 0.0000
vt 0.9374 0.0899 0.0000
# 69 texture coords

g LX61_285B_R_DTaSI_LX61_285B_R
usemtl windowglass_1SG
s 1
f 1/1/1 2/2/2 3/3/3 
f 2/2/2 4/4/4 3/3/3 
f 3/3/3 5/5/5 1/1/1 
f 5/5/5 6/6/6 1/1/1 
f 7/7/7 2/2/2 8/8/8 
f 2/2/2 1/1/1 8/8/8 
f 9/9/9 7/7/7 10/10/10 
f 7/7/7 8/8/8 10/10/10 
f 10/10/10 8/8/8 11/11/11 
f 8/8/8 12/12/12 11/11/11 
f 8/8/8 1/1/1 12/12/12 
f 1/1/1 6/6/6 12/12/12 
f 13/13/13 9/9/9 14/14/14 
f 9/9/9 10/10/10 14/14/14 
f 15/15/15 13/13/13 16/16/16 
f 13/13/13 14/14/14 16/16/16 
f 16/16/16 14/14/14 17/17/17 
f 14/14/14 18/18/18 17/17/17 
f 14/14/14 10/10/10 18/18/18 
f 10/10/10 11/11/11 18/18/18 
f 15/15/15 16/16/16 19/19/19 
f 16/16/16 20/20/20 19/19/19 
f 21/21/21 22/22/22 20/20/20 
f 22/22/22 19/19/19 20/20/20 
f 21/21/21 20/20/20 23/23/23 
f 20/20/20 24/24/24 23/23/23 
f 20/20/20 16/16/16 24/24/24 
f 16/16/16 17/17/17 24/24/24 
f 22/22/22 21/21/21 25/25/25 
f 21/21/21 26/26/26 25/25/25 
f 27/27/27 28/28/28 26/26/26 
f 28/28/28 25/25/25 26/26/26 
f 27/27/27 26/26/26 29/29/29 
f 26/26/26 30/30/30 29/29/29 
f 26/26/26 21/21/21 30/30/30 
f 21/21/21 23/23/23 30/30/30 
f 28/28/28 27/27/27 31/31/31 
f 27/27/27 32/32/32 31/31/31 
f 27/27/27 29/29/29 32/32/32 
f 29/29/29 33/33/33 32/32/32 
f 31/31/31 34/34/34 28/28/28 
f 34/34/34 35/35/35 28/28/28 
f 36/36/36 35/35/35 37/37/37 
f 35/35/35 34/34/34 37/37/37 
f 28/28/28 35/35/35 25/25/25 
f 35/35/35 38/38/38 25/25/25 
f 39/39/39 40/40/40 41/41/41 
f 40/40/40 42/42/42 41/41/41 
f 40/40/40 39/39/39 43/43/43 
f 39/39/39 36/36/36 43/43/43 
f 19/19/19 44/44/44 15/15/15 
f 44/44/44 45/45/45 15/15/15 
f 46/46/46 45/45/45 47/47/47 
f 45/45/45 44/44/44 47/47/47 
f 25/25/25 38/38/38 22/22/22 
f 38/38/38 48/48/48 22/22/22 
f 49/49/49 46/46/46 50/50/50 
f 46/46/46 47/47/47 50/50/50 
f 41/41/41 48/48/48 39/39/39 
f 48/48/48 38/38/38 39/39/39 
f 50/50/50 47/47/47 42/42/42 
f 47/47/47 41/41/41 42/42/42 
f 15/15/15 45/45/45 13/13/13 
f 45/45/45 51/51/51 13/13/13 
f 45/45/45 46/46/46 51/51/51 
f 46/46/46 52/52/52 51/51/51 
f 9/9/9 13/13/13 53/53/53 
f 13/13/13 51/51/51 53/53/53 
f 54/54/54 53/53/53 52/52/52 
f 53/53/53 51/51/51 52/52/52 
f 55/55/55 54/54/54 56/56/56 
f 54/54/54 52/52/52 56/56/56 
f 56/56/56 52/52/52 49/49/49 
f 52/52/52 46/46/46 49/49/49 
f 53/53/53 57/57/57 9/9/9 
f 57/57/57 7/7/7 9/9/9 
f 57/57/57 53/53/53 58/58/58 
f 53/53/53 54/54/54 58/58/58 
f 2/2/2 7/7/7 59/59/59 
f 7/7/7 57/57/57 59/59/59 
f 59/59/59 57/57/57 60/60/60 
f 57/57/57 58/58/58 60/60/60 
f 60/60/60 58/58/58 61/61/61 
f 58/58/58 62/62/62 61/61/61 
f 62/62/62 58/58/58 55/55/55 
f 58/58/58 54/54/54 55/55/55 
f 63/63/63 4/4/4 64/64/64 
f 59/59/59 64/64/64 2/2/2 
f 2/2/2 64/64/64 4/4/4 
f 64/64/64 59/59/59 65/65/65 
f 59/59/59 60/60/60 65/65/65 
f 61/61/61 66/66/66 60/60/60 
f 66/66/66 65/65/65 60/60/60 
f 67/67/67 68/68/68 66/66/66 
f 68/68/68 65/65/65 66/66/66 
f 68/68/68 63/63/63 65/65/65 
f 63/63/63 64/64/64 65/65/65 
f 35/35/35 36/36/36 38/38/38 
f 36/36/36 39/39/39 38/38/38 
f 47/47/47 44/44/44 41/41/41 
f 44/44/44 48/48/48 41/41/41 
f 44/44/44 19/19/19 48/48/48 
f 19/19/19 22/22/22 48/48/48 
f 37/37/37 69/69/69 36/36/36 
f 69/69/69 43/43/43 36/36/36 
# 105 faces

