# 3ds Max Wavefront OBJ Exporter v0.97b - (c)2007 guruware
# File Created: 04.12.2015 16:21:54

mtllib P222_15_265B_R.mtl

#
# object P222_15_265B_R_1_DTaSI_P222_15_265B_R
#

v  -60.4988 41.9989 72.7140
v  -60.2888 37.9911 74.2694
v  -56.7736 41.9609 72.8494
v  -56.1127 37.9467 74.3712
v  -57.4060 45.7834 71.2256
v  -57.9677 49.1615 69.7077
v  -60.6978 45.7970 71.1119
v  -60.8725 49.1298 69.6408
v  -27.7995 45.5584 71.9031
v  -28.5991 49.1768 70.3173
v  -35.6488 45.6094 71.7274
v  -36.3116 49.1911 70.1597
v  -32.4603 28.1216 77.9435
v  -32.9036 30.5679 77.1575
v  -40.3830 28.2810 77.8530
v  -40.7893 30.6766 77.0592
v  -33.5291 34.0141 76.0271
v  -41.3618 34.0491 75.9241
v  -6.1080 33.8747 76.3930
v  -7.6927 37.8356 75.1080
v  -15.7832 33.9335 76.2611
v  -16.9951 37.8803 74.9591
v  -3.5769 27.5292 78.2737
v  -4.6344 30.1826 77.5060
v  -13.8982 27.7434 78.1556
v  -14.6839 30.3288 77.3801
v  22.5183 50.7010 70.6195
v  28.8447 48.1478 71.9831
v  23.5533 50.8749 70.5475
v  29.9079 48.2514 71.9570
v  42.4411 37.5173 75.9241
v  47.6795 33.4933 77.1319
v  48.0127 37.7545 75.9311
v  54.4530 33.5583 77.1928
v  60.5582 29.2685 78.2956
v  64.7964 26.0582 79.0511
v  63.4513 29.2826 78.3176
v  68.0204 26.0014 79.0842
v  57.1476 33.5676 77.2218
v  -40.2072 27.2445 78.1972
v  -47.9488 27.4128 78.1146
v  -48.1342 28.4329 77.7653
v  -37.4789 55.4909 67.3089
v  -36.9590 52.6790 68.5932
v  -30.0980 55.8877 67.1741
v  -29.4221 52.8695 68.6115
v  26.9737 48.0002 72.0124
v  22.0308 48.1756 71.8271
v  19.3413 50.8743 70.4545
v  24.5560 45.1919 73.0773
v  27.3705 41.7920 74.3344
v  31.4537 45.1517 73.2195
v  34.8872 41.6786 74.4986
v  41.7805 33.5694 77.0424
v  38.3758 37.6034 75.8402
v  33.4549 33.6504 76.9231
v  30.6738 37.7374 75.6900
v  47.6981 26.4216 78.8607
v  45.2347 29.4105 78.1295
v  38.2066 26.6361 78.7513
v  36.2159 29.5776 78.0124
v  -7.1275 56.2781 67.0347
v  -5.3549 52.7190 68.9619
v  0.8515 55.8223 67.4007
v  3.0702 52.2113 69.3913
v  -53.4351 54.2786 67.5696
v  -52.9857 52.1060 68.5303
v  -44.9632 54.9965 67.4473
v  -44.5258 52.4732 68.5601
v  -53.8167 55.1370 67.1786
v  -45.3926 55.9968 66.9991
v  -54.9531 30.8776 76.8784
v  -55.4874 34.1348 75.7296
v  -59.9226 31.0032 76.7880
v  -60.0883 34.1648 75.6624
v  -58.8879 54.4271 67.3262
v  -58.7207 53.6748 67.6752
v  -37.6844 56.6214 66.7904
v  -30.3124 57.0800 66.6028
v  -23.1699 57.3911 66.4516
v  -22.8103 56.1659 67.0657
v  -43.3475 45.6652 71.5527
v  -43.9592 49.2022 69.9996
v  -34.9683 41.9108 73.2381
v  -42.7031 41.9208 73.1033
v  -26.1316 37.8678 74.8314
v  -26.9998 41.8971 73.3783
v  -34.2327 37.8834 74.7091
v  -42.0130 37.8784 74.5988
v  -7.6284 57.4336 66.4117
v  0.9897 56.8914 66.8441
v  1.9730 37.8211 75.2520
v  0.0006 41.8582 73.8494
v  -9.3110 41.8668 73.6888
v  12.2774 53.7987 68.7560
v  12.6299 54.7624 68.2591
v  7.2577 54.8439 68.0888
v  7.4292 55.9946 67.4977
v  17.5586 53.1512 69.2053
v  17.3874 52.4753 69.5620
v  34.9755 45.1754 73.2856
v  36.1616 45.3371 73.2497
v  41.1537 41.7955 74.5615
v  42.9758 41.8495 74.5722
v  50.2336 37.7910 75.9511
v  52.7225 29.2141 78.2400
v  -13.5434 26.6543 78.4833
v  -23.8210 26.8828 78.3731
v  -24.0185 27.9434 78.0422
v  -3.0896 26.4205 78.5951
v  38.9924 25.4678 79.0458
v  28.7014 25.7044 78.9354
v  27.9339 26.8543 78.6355
v  66.4633 24.8302 79.3404
v  69.7602 24.7606 79.3741
v  -20.5381 49.1566 70.4804
v  -21.7848 53.0144 68.6365
v  11.7157 51.5108 69.9592
v  56.2130 26.2082 78.9635
v  57.5744 25.0355 79.2456
v  -61.0911 53.3022 67.7647
v  -58.4110 51.8193 68.5126
v  -61.0006 51.5738 68.5419
v  -59.8030 28.7204 77.5978
v  -54.5736 28.5637 77.6902
v  -15.7336 57.5531 66.3452
v  -15.1815 56.2969 67.0032
v  36.5703 41.6528 74.5354
v  -13.8323 53.0051 68.7217
v  -12.2293 49.0803 70.6693
v  -19.3811 45.5290 72.0806
v  -10.7536 45.4443 72.2851
v  -18.2396 41.8969 73.5267
v  -3.4289 48.8364 70.9510
v  -1.7413 45.4108 72.4764
v  3.9211 33.8233 76.5265
v  5.7613 30.0383 77.6337
v  7.0872 27.3077 78.3951
v  -25.2977 33.9659 76.1391
v  -24.5305 30.4284 77.2693
v  -32.2594 27.0699 78.2824
v  -52.3802 49.1751 69.8286
v  -51.6610 45.6896 71.3796
v  -50.8857 41.9171 72.9662
v  -50.0549 37.8554 74.4909
v  -49.2848 34.0788 75.8216
v  -48.6111 30.7736 76.9646
v  -54.4076 27.5513 78.0458
v  5.2660 48.5708 71.2673
v  7.1250 45.3671 72.6687
v  9.1125 41.8428 74.0085
v  11.3505 37.7955 75.3949
v  13.5402 33.7730 76.6544
v  15.6412 29.9075 77.7523
v  17.1041 27.1002 78.5082
v  26.0702 29.7005 77.8949
v  13.8151 48.3402 71.5756
v  20.8216 37.7024 75.5603
v  23.4583 33.6854 76.7962
v  18.1220 41.8076 74.1726
v  15.8281 45.2905 72.8704
v  7.6456 26.1805 78.7099
v  17.6970 25.9551 78.8174
v  48.6240 25.2449 79.1493
v  -61.1281 54.0077 67.4385
v  -59.7634 27.6523 77.9720
# 166 vertices

vn -0.0274 0.3719 0.9279
vn -0.0191 0.3515 0.9360
vn -0.0234 0.3689 0.9292
vn -0.0167 0.3444 0.9387
vn -0.0245 0.3966 0.9177
vn -0.0244 0.4054 0.9138
vn -0.0291 0.3961 0.9178
vn -0.0262 0.4051 0.9139
vn -0.0176 0.3847 0.9229
vn -0.0165 0.4083 0.9127
vn -0.0177 0.3872 0.9218
vn -0.0172 0.4034 0.9149
vn -0.0051 0.3052 0.9523
vn -0.0069 0.3081 0.9513
vn -0.0049 0.3138 0.9495
vn -0.0081 0.3159 0.9488
vn -0.0103 0.3150 0.9490
vn -0.0115 0.3209 0.9471
vn -0.0107 0.2956 0.9553
vn -0.0139 0.3146 0.9491
vn -0.0104 0.3026 0.9531
vn -0.0132 0.3206 0.9471
vn -0.0058 0.2712 0.9625
vn -0.0084 0.2792 0.9602
vn -0.0049 0.2867 0.9580
vn -0.0082 0.2886 0.9574
vn -0.0201 0.4499 0.8928
vn -0.0176 0.4029 0.9151
vn -0.0140 0.4509 0.8925
vn -0.0154 0.3866 0.9221
vn -0.0134 0.2867 0.9579
vn -0.0106 0.2570 0.9664
vn -0.0130 0.2858 0.9582
vn -0.0112 0.2528 0.9675
vn -0.0080 0.2288 0.9734
vn -0.0063 0.2206 0.9754
vn -0.0081 0.2221 0.9750
vn -0.0056 0.2205 0.9754
vn -0.0110 0.2409 0.9705
vn -0.0039 0.3142 0.9494
vn -0.0038 0.3229 0.9464
vn -0.0048 0.3227 0.9465
vn -0.0075 0.4155 0.9096
vn -0.0123 0.4105 0.9118
vn -0.0067 0.4305 0.9026
vn -0.0129 0.4215 0.9067
vn -0.0189 0.3997 0.9165
vn -0.0188 0.4066 0.9134
vn -0.0197 0.4530 0.8913
vn -0.0180 0.3531 0.9354
vn -0.0157 0.3206 0.9471
vn -0.0179 0.3491 0.9369
vn -0.0152 0.3172 0.9482
vn -0.0108 0.2610 0.9653
vn -0.0131 0.2893 0.9571
vn -0.0119 0.2656 0.9640
vn -0.0136 0.2936 0.9558
vn -0.0063 0.2328 0.9725
vn -0.0081 0.2386 0.9711
vn -0.0062 0.2398 0.9708
vn -0.0086 0.2457 0.9693
vn -0.0082 0.4723 0.8814
vn -0.0134 0.4597 0.8880
vn -0.0184 0.4683 0.8834
vn -0.0197 0.4603 0.8875
vn -0.0237 0.4032 0.9148
vn -0.0218 0.4013 0.9157
vn -0.0154 0.4035 0.9149
vn -0.0176 0.4006 0.9161
vn -0.0257 0.4056 0.9137
vn -0.0156 0.4034 0.9149
vn -0.0092 0.3303 0.9438
vn -0.0118 0.3320 0.9432
vn -0.0080 0.3339 0.9426
vn -0.0128 0.3356 0.9419
vn -0.0318 0.4147 0.9094
vn -0.0302 0.4109 0.9112
vn -0.0068 0.4154 0.9096
vn -0.0032 0.4308 0.9024
vn -0.0006 0.4470 0.8945
vn -0.0012 0.4473 0.8944
vn -0.0179 0.3903 0.9205
vn -0.0184 0.4001 0.9163
vn -0.0159 0.3581 0.9336
vn -0.0163 0.3620 0.9320
vn -0.0136 0.3259 0.9453
vn -0.0159 0.3535 0.9353
vn -0.0136 0.3306 0.9437
vn -0.0139 0.3352 0.9420
vn -0.0068 0.4717 0.8817
vn -0.0193 0.4637 0.8858
vn -0.0142 0.3093 0.9509
vn -0.0160 0.3374 0.9412
vn -0.0160 0.3430 0.9392
vn -0.0191 0.4664 0.8844
vn -0.0191 0.4638 0.8858
vn -0.0224 0.4647 0.8852
vn -0.0241 0.4599 0.8876
vn -0.0182 0.4698 0.8826
vn -0.0179 0.4703 0.8823
vn -0.0197 0.3459 0.9381
vn -0.0171 0.3350 0.9420
vn -0.0149 0.3138 0.9494
vn -0.0145 0.3040 0.9526
vn -0.0131 0.2749 0.9614
vn -0.0077 0.2343 0.9721
vn -0.0039 0.2870 0.9579
vn -0.0043 0.2967 0.9550
vn -0.0045 0.2967 0.9549
vn -0.0048 0.2761 0.9611
vn -0.0054 0.2407 0.9706
vn -0.0053 0.2487 0.9686
vn -0.0061 0.2480 0.9687
vn -0.0059 0.2215 0.9751
vn -0.0053 0.2205 0.9754
vn -0.0156 0.4145 0.9099
vn -0.0084 0.4360 0.8999
vn -0.0208 0.4556 0.8899
vn -0.0063 0.2265 0.9740
vn -0.0051 0.2283 0.9736
vn -0.0301 0.4127 0.9104
vn -0.0269 0.4068 0.9131
vn -0.0284 0.4087 0.9122
vn -0.0067 0.3323 0.9431
vn -0.0065 0.3301 0.9439
vn -0.0004 0.4629 0.8864
vn -0.0038 0.4620 0.8869
vn -0.0159 0.3141 0.9492
vn -0.0111 0.4490 0.8935
vn -0.0158 0.4210 0.9069
vn -0.0174 0.3826 0.9238
vn -0.0176 0.3800 0.9248
vn -0.0160 0.3485 0.9372
vn -0.0184 0.4242 0.9054
vn -0.0184 0.3759 0.9265
vn -0.0113 0.2877 0.9577
vn -0.0089 0.2701 0.9628
vn -0.0065 0.2657 0.9640
vn -0.0117 0.3084 0.9512
vn -0.0078 0.2991 0.9542
vn -0.0041 0.3056 0.9522
vn -0.0197 0.4024 0.9153
vn -0.0176 0.3944 0.9188
vn -0.0154 0.3665 0.9303
vn -0.0131 0.3399 0.9404
vn -0.0103 0.3273 0.9448
vn -0.0068 0.3245 0.9459
vn -0.0053 0.3303 0.9439
vn -0.0199 0.4205 0.9071
vn -0.0185 0.3684 0.9295
vn -0.0153 0.3326 0.9429
vn -0.0133 0.3045 0.9524
vn -0.0104 0.2815 0.9595
vn -0.0082 0.2624 0.9649
vn -0.0060 0.2572 0.9663
vn -0.0074 0.2547 0.9670
vn -0.0204 0.4122 0.9109
vn -0.0143 0.2981 0.9544
vn -0.0109 0.2734 0.9618
vn -0.0163 0.3260 0.9452
vn -0.0191 0.3591 0.9331
vn -0.0053 0.2665 0.9638
vn -0.0051 0.2579 0.9662
vn -0.0056 0.2337 0.9723
vn -0.0315 0.4174 0.9082
vn -0.0068 0.3305 0.9438
# 166 vertex normals

vt 0.2194 0.9203 0.0000
vt 0.2204 0.9014 0.0000
vt 0.2369 0.9201 0.0000
vt 0.2400 0.9012 0.0000
vt 0.2340 0.9380 0.0000
vt 0.2313 0.9539 0.0000
vt 0.2185 0.9381 0.0000
vt 0.2177 0.9538 0.0000
vt 0.3730 0.9370 0.0000
vt 0.3692 0.9540 0.0000
vt 0.3361 0.9372 0.0000
vt 0.3330 0.9540 0.0000
vt 0.3511 0.8551 0.0000
vt 0.3490 0.8666 0.0000
vt 0.3139 0.8559 0.0000
vt 0.3120 0.8671 0.0000
vt 0.3461 0.8828 0.0000
vt 0.3093 0.8829 0.0000
vt 0.4749 0.8821 0.0000
vt 0.4674 0.9007 0.0000
vt 0.4294 0.8824 0.0000
vt 0.4237 0.9009 0.0000
vt 0.4867 0.8523 0.0000
vt 0.4818 0.8648 0.0000
vt 0.4383 0.8533 0.0000
vt 0.4346 0.8655 0.0000
vt 0.6093 0.9611 0.0000
vt 0.6390 0.9491 0.0000
vt 0.6141 0.9620 0.0000
vt 0.6440 0.9496 0.0000
vt 0.7028 0.8992 0.0000
vt 0.7274 0.8803 0.0000
vt 0.7290 0.9003 0.0000
vt 0.7592 0.8806 0.0000
vt 0.7879 0.8605 0.0000
vt 0.8078 0.8454 0.0000
vt 0.8015 0.8606 0.0000
vt 0.8230 0.8451 0.0000
vt 0.7719 0.8807 0.0000
vt 0.3147 0.8510 0.0000
vt 0.2784 0.8518 0.0000
vt 0.2775 0.8566 0.0000
vt 0.3275 0.9836 0.0000
vt 0.3300 0.9704 0.0000
vt 0.3622 0.9855 0.0000
vt 0.3654 0.9713 0.0000
vt 0.6302 0.9485 0.0000
vt 0.6070 0.9493 0.0000
vt 0.5944 0.9619 0.0000
vt 0.6189 0.9353 0.0000
vt 0.6321 0.9193 0.0000
vt 0.6512 0.9351 0.0000
vt 0.6674 0.9188 0.0000
vt 0.6997 0.8807 0.0000
vt 0.6838 0.8996 0.0000
vt 0.6606 0.8811 0.0000
vt 0.6476 0.9003 0.0000
vt 0.7275 0.8471 0.0000
vt 0.7160 0.8612 0.0000
vt 0.6830 0.8481 0.0000
vt 0.6736 0.8619 0.0000
vt 0.4701 0.9873 0.0000
vt 0.4784 0.9706 0.0000
vt 0.5075 0.9852 0.0000
vt 0.5180 0.9682 0.0000
vt 0.2526 0.9779 0.0000
vt 0.2547 0.9677 0.0000
vt 0.2924 0.9813 0.0000
vt 0.2945 0.9695 0.0000
vt 0.2508 0.9820 0.0000
vt 0.2904 0.9860 0.0000
vt 0.2455 0.8680 0.0000
vt 0.2430 0.8833 0.0000
vt 0.2221 0.8686 0.0000
vt 0.2214 0.8835 0.0000
vt 0.2270 0.9786 0.0000
vt 0.2278 0.9751 0.0000
vt 0.3266 0.9889 0.0000
vt 0.3612 0.9911 0.0000
vt 0.3947 0.9926 0.0000
vt 0.3964 0.9868 0.0000
vt 0.3000 0.9375 0.0000
vt 0.2971 0.9541 0.0000
vt 0.3393 0.9199 0.0000
vt 0.3030 0.9199 0.0000
vt 0.3808 0.9009 0.0000
vt 0.3768 0.9198 0.0000
vt 0.3428 0.9009 0.0000
vt 0.3063 0.9009 0.0000
vt 0.4677 0.9927 0.0000
vt 0.5082 0.9902 0.0000
vt 0.5128 0.9007 0.0000
vt 0.5035 0.9196 0.0000
vt 0.4598 0.9196 0.0000
vt 0.5612 0.9757 0.0000
vt 0.5629 0.9802 0.0000
vt 0.5376 0.9806 0.0000
vt 0.5384 0.9860 0.0000
vt 0.5860 0.9726 0.0000
vt 0.5852 0.9695 0.0000
vt 0.6678 0.9352 0.0000
vt 0.6734 0.9359 0.0000
vt 0.6968 0.9193 0.0000
vt 0.7054 0.9196 0.0000
vt 0.7394 0.9005 0.0000
vt 0.7511 0.8602 0.0000
vt 0.4399 0.8482 0.0000
vt 0.3917 0.8493 0.0000
vt 0.3908 0.8543 0.0000
vt 0.4890 0.8471 0.0000
vt 0.6866 0.8426 0.0000
vt 0.6383 0.8438 0.0000
vt 0.6347 0.8492 0.0000
vt 0.8156 0.8396 0.0000
vt 0.8311 0.8393 0.0000
vt 0.4071 0.9539 0.0000
vt 0.4012 0.9720 0.0000
vt 0.5586 0.9649 0.0000
vt 0.7675 0.8461 0.0000
vt 0.7739 0.8406 0.0000
vt 0.2167 0.9733 0.0000
vt 0.2292 0.9664 0.0000
vt 0.2171 0.9652 0.0000
vt 0.2227 0.8579 0.0000
vt 0.2473 0.8572 0.0000
vt 0.4297 0.9933 0.0000
vt 0.4323 0.9874 0.0000
vt 0.6753 0.9186 0.0000
vt 0.4386 0.9720 0.0000
vt 0.4461 0.9535 0.0000
vt 0.4125 0.9368 0.0000
vt 0.4530 0.9364 0.0000
vt 0.4179 0.9198 0.0000
vt 0.4874 0.9524 0.0000
vt 0.4954 0.9363 0.0000
vt 0.5220 0.8819 0.0000
vt 0.5306 0.8641 0.0000
vt 0.5368 0.8513 0.0000
vt 0.3847 0.8825 0.0000
vt 0.3883 0.8659 0.0000
vt 0.3521 0.8502 0.0000
vt 0.2576 0.9540 0.0000
vt 0.2609 0.9376 0.0000
vt 0.2646 0.9199 0.0000
vt 0.2685 0.9008 0.0000
vt 0.2721 0.8831 0.0000
vt 0.2753 0.8676 0.0000
vt 0.2480 0.8524 0.0000
vt 0.5283 0.9511 0.0000
vt 0.5370 0.9361 0.0000
vt 0.5463 0.9195 0.0000
vt 0.5568 0.9005 0.0000
vt 0.5671 0.8816 0.0000
vt 0.5770 0.8635 0.0000
vt 0.5839 0.8503 0.0000
vt 0.6260 0.8625 0.0000
vt 0.5684 0.9500 0.0000
vt 0.6013 0.9001 0.0000
vt 0.6137 0.8812 0.0000
vt 0.5886 0.9194 0.0000
vt 0.5779 0.9357 0.0000
vt 0.5394 0.8460 0.0000
vt 0.5866 0.8449 0.0000
vt 0.7319 0.8416 0.0000
vt 0.2165 0.9767 0.0000
vt 0.2229 0.8529 0.0000
# 166 texture coords

g P222_15_265B_R_1_DTaSI_P222_15_265B_R
usemtl windowglass_SG
s 1
f 1/1/1 2/2/2 3/3/3 
f 3/3/3 2/2/2 4/4/4 
f 5/5/5 6/6/6 7/7/7 
f 7/7/7 6/6/6 8/8/8 
f 9/9/9 10/10/10 11/11/11 
f 11/11/11 10/10/10 12/12/12 
f 13/13/13 14/14/14 15/15/15 
f 15/15/15 14/14/14 16/16/16 
f 14/14/14 17/17/17 16/16/16 
f 16/16/16 17/17/17 18/18/18 
f 19/19/19 20/20/20 21/21/21 
f 21/21/21 20/20/20 22/22/22 
f 23/23/23 24/24/24 25/25/25 
f 25/25/25 24/24/24 26/26/26 
f 24/24/24 19/19/19 26/26/26 
f 26/26/26 19/19/19 21/21/21 
f 27/27/27 28/28/28 29/29/29 
f 29/29/29 28/28/28 30/30/30 
f 31/31/31 32/32/32 33/33/33 
f 33/33/33 32/32/32 34/34/34 
f 35/35/35 36/36/36 37/37/37 
f 37/37/37 36/36/36 38/38/38 
f 34/34/34 35/35/35 39/39/39 
f 39/39/39 35/35/35 37/37/37 
f 40/40/40 15/15/15 41/41/41 
f 41/41/41 15/15/15 42/42/42 
f 43/43/43 44/44/44 45/45/45 
f 45/45/45 44/44/44 46/46/46 
f 47/47/47 27/27/27 48/48/48 
f 48/48/48 27/27/27 49/49/49 
f 50/50/50 51/51/51 52/52/52 
f 52/52/52 51/51/51 53/53/53 
f 54/54/54 55/55/55 56/56/56 
f 56/56/56 55/55/55 57/57/57 
f 58/58/58 59/59/59 60/60/60 
f 60/60/60 59/59/59 61/61/61 
f 59/59/59 54/54/54 61/61/61 
f 61/61/61 54/54/54 56/56/56 
f 62/62/62 63/63/63 64/64/64 
f 64/64/64 63/63/63 65/65/65 
f 66/66/66 67/67/67 68/68/68 
f 68/68/68 67/67/67 69/69/69 
f 70/70/70 66/66/66 71/71/71 
f 71/71/71 66/66/66 68/68/68 
f 72/72/72 73/73/73 74/74/74 
f 74/74/74 73/73/73 75/75/75 
f 3/3/3 5/5/5 1/1/1 
f 1/1/1 5/5/5 7/7/7 
f 76/76/76 77/77/77 70/70/70 
f 70/70/70 77/77/77 66/66/66 
f 78/78/78 43/43/43 79/79/79 
f 79/79/79 43/43/43 45/45/45 
f 79/79/79 45/45/45 80/80/80 
f 80/80/80 45/45/45 81/81/81 
f 11/11/11 12/12/12 82/82/82 
f 82/82/82 12/12/12 83/83/83 
f 84/84/84 11/11/11 85/85/85 
f 85/85/85 11/11/11 82/82/82 
f 86/86/86 87/87/87 88/88/88 
f 88/88/88 87/87/87 84/84/84 
f 88/88/88 84/84/84 89/89/89 
f 89/89/89 84/84/84 85/85/85 
f 90/90/90 62/62/62 91/91/91 
f 91/91/91 62/62/62 64/64/64 
f 92/92/92 93/93/93 20/20/20 
f 20/20/20 93/93/93 94/94/94 
f 95/95/95 96/96/96 97/97/97 
f 97/97/97 96/96/96 98/98/98 
f 96/96/96 95/95/95 99/99/99 
f 99/99/99 95/95/95 100/100/100 
f 28/28/28 101/101/101 30/30/30 
f 30/30/30 101/101/101 102/102/102 
f 47/47/47 52/52/52 28/28/28 
f 28/28/28 52/52/52 101/101/101 
f 101/101/101 103/103/103 102/102/102 
f 102/102/102 103/103/103 104/104/104 
f 103/103/103 33/33/33 104/104/104 
f 104/104/104 33/33/33 105/105/105 
f 32/32/32 106/106/106 34/34/34 
f 34/34/34 106/106/106 35/35/35 
f 107/107/107 25/25/25 108/108/108 
f 108/108/108 25/25/25 109/109/109 
f 110/110/110 23/23/23 107/107/107 
f 107/107/107 23/23/23 25/25/25 
f 111/111/111 60/60/60 112/112/112 
f 112/112/112 60/60/60 113/113/113 
f 36/36/36 114/114/114 38/38/38 
f 38/38/38 114/114/114 115/115/115 
f 69/69/69 83/83/83 44/44/44 
f 44/44/44 83/83/83 12/12/12 
f 116/116/116 117/117/117 10/10/10 
f 10/10/10 117/117/117 46/46/46 
f 64/64/64 65/65/65 97/97/97 
f 97/97/97 65/65/65 118/118/118 
f 28/28/28 27/27/27 47/47/47 
f 100/100/100 49/49/49 27/27/27 
f 48/48/48 50/50/50 47/47/47 
f 47/47/47 50/50/50 52/52/52 
f 119/119/119 120/120/120 36/36/36 
f 36/36/36 120/120/120 114/114/114 
f 91/91/91 64/64/64 98/98/98 
f 98/98/98 64/64/64 97/97/97 
f 77/77/77 121/121/121 122/122/122 
f 122/122/122 121/121/121 123/123/123 
f 6/6/6 122/122/122 8/8/8 
f 8/8/8 122/122/122 123/123/123 
f 2/2/2 75/75/75 4/4/4 
f 4/4/4 75/75/75 73/73/73 
f 74/74/74 124/124/124 72/72/72 
f 72/72/72 124/124/124 125/125/125 
f 80/80/80 81/81/81 126/126/126 
f 126/126/126 81/81/81 127/127/127 
f 17/17/17 88/88/88 18/18/18 
f 18/18/18 88/88/88 89/89/89 
f 52/52/52 128/128/128 101/101/101 
f 101/101/101 128/128/128 103/103/103 
f 128/128/128 31/31/31 103/103/103 
f 103/103/103 31/31/31 33/33/33 
f 39/39/39 105/105/105 34/34/34 
f 34/34/34 105/105/105 33/33/33 
f 36/36/36 35/35/35 119/119/119 
f 119/119/119 35/35/35 106/106/106 
f 81/81/81 117/117/117 127/127/127 
f 127/127/127 117/117/117 129/129/129 
f 117/117/117 116/116/116 129/129/129 
f 129/129/129 116/116/116 130/130/130 
f 116/116/116 131/131/131 130/130/130 
f 130/130/130 131/131/131 132/132/132 
f 131/131/131 133/133/133 132/132/132 
f 132/132/132 133/133/133 94/94/94 
f 133/133/133 22/22/22 94/94/94 
f 94/94/94 22/22/22 20/20/20 
f 127/127/127 129/129/129 62/62/62 
f 62/62/62 129/129/129 63/63/63 
f 129/129/129 130/130/130 63/63/63 
f 63/63/63 130/130/130 134/134/134 
f 130/130/130 132/132/132 134/134/134 
f 134/134/134 132/132/132 135/135/135 
f 132/132/132 94/94/94 135/135/135 
f 135/135/135 94/94/94 93/93/93 
f 20/20/20 19/19/19 92/92/92 
f 92/92/92 19/19/19 136/136/136 
f 19/19/19 24/24/24 136/136/136 
f 136/136/136 24/24/24 137/137/137 
f 24/24/24 23/23/23 137/137/137 
f 137/137/137 23/23/23 138/138/138 
f 45/45/45 46/46/46 81/81/81 
f 81/81/81 46/46/46 117/117/117 
f 10/10/10 9/9/9 116/116/116 
f 116/116/116 9/9/9 131/131/131 
f 9/9/9 87/87/87 131/131/131 
f 131/131/131 87/87/87 133/133/133 
f 87/87/87 86/86/86 133/133/133 
f 133/133/133 86/86/86 22/22/22 
f 86/86/86 139/139/139 22/22/22 
f 22/22/22 139/139/139 21/21/21 
f 26/26/26 21/21/21 140/140/140 
f 140/140/140 21/21/21 139/139/139 
f 140/140/140 109/109/109 26/26/26 
f 26/26/26 109/109/109 25/25/25 
f 44/44/44 12/12/12 46/46/46 
f 46/46/46 12/12/12 10/10/10 
f 11/11/11 84/84/84 9/9/9 
f 9/9/9 84/84/84 87/87/87 
f 88/88/88 17/17/17 86/86/86 
f 86/86/86 17/17/17 139/139/139 
f 17/17/17 14/14/14 139/139/139 
f 139/139/139 14/14/14 140/140/140 
f 14/14/14 13/13/13 140/140/140 
f 140/140/140 13/13/13 109/109/109 
f 68/68/68 69/69/69 43/43/43 
f 43/43/43 69/69/69 44/44/44 
f 15/15/15 40/40/40 13/13/13 
f 13/13/13 40/40/40 141/141/141 
f 67/67/67 142/142/142 69/69/69 
f 69/69/69 142/142/142 83/83/83 
f 142/142/142 143/143/143 83/83/83 
f 83/83/83 143/143/143 82/82/82 
f 143/143/143 144/144/144 82/82/82 
f 82/82/82 144/144/144 85/85/85 
f 144/144/144 145/145/145 85/85/85 
f 85/85/85 145/145/145 89/89/89 
f 145/145/145 146/146/146 89/89/89 
f 89/89/89 146/146/146 18/18/18 
f 146/146/146 147/147/147 18/18/18 
f 18/18/18 147/147/147 16/16/16 
f 147/147/147 42/42/42 16/16/16 
f 16/16/16 42/42/42 15/15/15 
f 77/77/77 122/122/122 66/66/66 
f 66/66/66 122/122/122 67/67/67 
f 122/122/122 6/6/6 67/67/67 
f 67/67/67 6/6/6 142/142/142 
f 6/6/6 5/5/5 142/142/142 
f 142/142/142 5/5/5 143/143/143 
f 5/5/5 3/3/3 143/143/143 
f 143/143/143 3/3/3 144/144/144 
f 3/3/3 4/4/4 144/144/144 
f 144/144/144 4/4/4 145/145/145 
f 4/4/4 73/73/73 145/145/145 
f 145/145/145 73/73/73 146/146/146 
f 73/73/73 72/72/72 146/146/146 
f 146/146/146 72/72/72 147/147/147 
f 72/72/72 125/125/125 147/147/147 
f 147/147/147 125/125/125 42/42/42 
f 125/125/125 148/148/148 42/42/42 
f 42/42/42 148/148/148 41/41/41 
f 63/63/63 134/134/134 65/65/65 
f 65/65/65 134/134/134 149/149/149 
f 134/134/134 135/135/135 149/149/149 
f 149/149/149 135/135/135 150/150/150 
f 135/135/135 93/93/93 150/150/150 
f 150/150/150 93/93/93 151/151/151 
f 93/93/93 92/92/92 151/151/151 
f 151/151/151 92/92/92 152/152/152 
f 92/92/92 136/136/136 152/152/152 
f 152/152/152 136/136/136 153/153/153 
f 136/136/136 137/137/137 153/153/153 
f 153/153/153 137/137/137 154/154/154 
f 137/137/137 138/138/138 154/154/154 
f 154/154/154 138/138/138 155/155/155 
f 154/154/154 155/155/155 156/156/156 
f 156/156/156 155/155/155 113/113/113 
f 118/118/118 157/157/157 49/49/49 
f 49/49/49 157/157/157 48/48/48 
f 55/55/55 53/53/53 57/57/57 
f 57/57/57 53/53/53 51/51/51 
f 158/158/158 159/159/159 57/57/57 
f 57/57/57 159/159/159 56/56/56 
f 156/156/156 113/113/113 61/61/61 
f 61/61/61 113/113/113 60/60/60 
f 61/61/61 56/56/56 156/156/156 
f 156/156/156 56/56/56 159/159/159 
f 57/57/57 51/51/51 158/158/158 
f 158/158/158 51/51/51 160/160/160 
f 51/51/51 50/50/50 160/160/160 
f 160/160/160 50/50/50 161/161/161 
f 50/50/50 48/48/48 161/161/161 
f 161/161/161 48/48/48 157/157/157 
f 43/43/43 78/78/78 68/68/68 
f 68/68/68 78/78/78 71/71/71 
f 138/138/138 162/162/162 155/155/155 
f 155/155/155 162/162/162 163/163/163 
f 155/155/155 163/163/163 113/113/113 
f 113/113/113 163/163/163 112/112/112 
f 62/62/62 90/90/90 127/127/127 
f 127/127/127 90/90/90 126/126/126 
f 95/95/95 118/118/118 100/100/100 
f 100/100/100 118/118/118 49/49/49 
f 60/60/60 111/111/111 58/58/58 
f 58/58/58 111/111/111 164/164/164 
f 58/58/58 164/164/164 119/119/119 
f 119/119/119 164/164/164 120/120/120 
f 100/100/100 27/27/27 99/99/99 
f 99/99/99 27/27/27 29/29/29 
f 52/52/52 53/53/53 128/128/128 
f 53/53/53 55/55/55 128/128/128 
f 128/128/128 55/55/55 31/31/31 
f 55/55/55 54/54/54 31/31/31 
f 31/31/31 54/54/54 32/32/32 
f 54/54/54 59/59/59 32/32/32 
f 32/32/32 59/59/59 106/106/106 
f 59/59/59 58/58/58 106/106/106 
f 106/106/106 58/58/58 119/119/119 
f 13/13/13 141/141/141 109/109/109 
f 109/109/109 141/141/141 108/108/108 
f 97/97/97 118/118/118 95/95/95 
f 65/65/65 149/149/149 118/118/118 
f 118/118/118 149/149/149 157/157/157 
f 149/149/149 150/150/150 157/157/157 
f 157/157/157 150/150/150 161/161/161 
f 150/150/150 151/151/151 161/161/161 
f 161/161/161 151/151/151 160/160/160 
f 151/151/151 152/152/152 160/160/160 
f 160/160/160 152/152/152 158/158/158 
f 152/152/152 153/153/153 158/158/158 
f 158/158/158 153/153/153 159/159/159 
f 153/153/153 154/154/154 159/159/159 
f 159/159/159 154/154/154 156/156/156 
f 121/121/121 77/77/77 165/165/165 
f 165/165/165 77/77/77 76/76/76 
f 124/124/124 166/166/166 125/125/125 
f 125/125/125 166/166/166 148/148/148 
f 162/162/162 138/138/138 110/110/110 
f 110/110/110 138/138/138 23/23/23 
# 284 faces

