# 3ds Max Wavefront OBJ Exporter v0.97b - (c)2007 guruware
# File Created: 04.01.2016 13:54:40

mtllib Y712_324H_R.mtl

#
# object Y712_324H_R_DTaSI_Y712_324H_R
#

v  -129.2915 86.9890 91.8739
v  -125.8092 87.0529 91.8779
v  -127.2992 92.1986 89.9323
v  -125.6679 92.2392 89.9289
v  -119.0859 92.3421 89.9370
v  -119.2943 87.1184 91.8982
v  -119.4892 82.2308 93.6072
v  -125.9416 82.1935 93.5827
v  -131.1497 82.1274 93.5668
v  -117.1064 82.2288 93.6148
v  -117.2991 87.1219 91.9053
v  -117.5117 92.3516 89.9421
v  -116.7690 73.7095 96.3726
v  -116.9343 77.7370 95.0954
v  -119.8291 73.7320 96.3654
v  -119.6682 77.7464 95.0882
v  -132.1694 73.7855 96.3042
v  -126.1730 73.7714 96.3374
v  -132.1386 77.7014 95.0369
v  -126.0633 77.7399 95.0628
v  -132.1245 79.5896 94.4068
v  -132.8371 77.6935 95.0335
v  -116.2941 61.5363 100.1523
v  -116.4024 64.2546 99.3176
v  -120.3211 61.7012 100.1253
v  -120.2108 64.3733 99.2977
v  -116.5141 67.1007 98.4391
v  -120.0954 67.1797 98.4252
v  -132.2523 64.9736 99.1519
v  -132.2784 62.5255 99.9421
v  -126.4336 64.6870 99.2299
v  -126.5092 62.1290 100.0389
v  -132.2258 67.5684 98.3140
v  -126.3547 67.3860 98.3744
v  -126.2690 70.3672 97.4257
v  -132.1983 70.4568 97.3807
v  -119.9698 70.2545 97.4627
v  -116.6386 70.2085 97.4723
v  -137.6019 65.2312 99.0634
v  -137.4772 62.8784 99.8373
v  -138.4799 62.9457 99.8137
v  -136.6675 67.7004 98.2562
v  -135.6024 70.5017 97.3472
v  -134.3412 73.7839 96.2889
v  -118.8659 97.8351 87.6998
v  -117.7263 97.8511 87.7012
v  -118.6373 103.5301 85.2554
v  -117.9462 103.5487 85.2538
v  -125.1892 97.6812 87.7156
v  -122.9995 103.3762 85.2885
v  -118.3071 111.7474 81.5994
v  -119.8541 111.6652 81.6250
v  -118.4031 109.3597 82.6730
v  -120.7978 109.2458 82.7053
v  -118.1862 109.3683 82.6715
# 55 vertices

vn -0.0073 0.3385 0.9409
vn -0.0065 0.3416 0.9398
vn -0.0073 0.3602 0.9329
vn -0.0069 0.3647 0.9311
vn -0.0065 0.3650 0.9310
vn -0.0058 0.3415 0.9399
vn -0.0049 0.3227 0.9465
vn -0.0058 0.3233 0.9463
vn -0.0070 0.3246 0.9458
vn -0.0026 0.3216 0.9469
vn -0.0040 0.3406 0.9402
vn -0.0052 0.3642 0.9313
vn 0.0003 0.3013 0.9535
vn -0.0011 0.3080 0.9514
vn -0.0021 0.3025 0.9532
vn -0.0037 0.3090 0.9510
vn -0.0047 0.3076 0.9515
vn -0.0033 0.3052 0.9523
vn -0.0057 0.3102 0.9507
vn -0.0048 0.3106 0.9505
vn -0.0064 0.3161 0.9487
vn -0.0081 0.3104 0.9506
vn 0.0056 0.2937 0.9559
vn 0.0047 0.2948 0.9556
vn 0.0062 0.2953 0.9554
vn 0.0049 0.2965 0.9550
vn 0.0032 0.2965 0.9550
vn 0.0022 0.2985 0.9544
vn 0.0007 0.3071 0.9517
vn 0.0024 0.3063 0.9519
vn 0.0035 0.3017 0.9534
vn 0.0051 0.3006 0.9537
vn -0.0018 0.3075 0.9516
vn 0.0014 0.3030 0.9530
vn -0.0009 0.3042 0.9526
vn -0.0036 0.3076 0.9515
vn -0.0003 0.3002 0.9539
vn 0.0018 0.2988 0.9543
vn -0.0014 0.3113 0.9503
vn -0.0002 0.3112 0.9504
vn -0.0014 0.3124 0.9500
vn -0.0031 0.3109 0.9504
vn -0.0045 0.3087 0.9511
vn -0.0069 0.3087 0.9511
vn -0.0069 0.3859 0.9225
vn -0.0066 0.3858 0.9226
vn -0.0073 0.3999 0.9165
vn -0.0086 0.3998 0.9165
vn -0.0071 0.3844 0.9231
vn -0.0072 0.3982 0.9173
vn -0.0068 0.4103 0.9119
vn -0.0070 0.4102 0.9120
vn -0.0073 0.4066 0.9136
vn -0.0072 0.4060 0.9139
vn -0.0098 0.4067 0.9135
# 55 vertex normals

vt 0.7696 0.1161 0.0000
vt 0.7576 0.1153 0.0000
vt 0.7632 0.0947 0.0000
vt 0.7582 0.0962 0.0000
vt 0.7357 0.0947 0.0000
vt 0.7353 0.1138 0.0000
vt 0.7350 0.1316 0.0000
vt 0.7571 0.1329 0.0000
vt 0.7749 0.1341 0.0000
vt 0.7268 0.1312 0.0000
vt 0.7285 0.1134 0.0000
vt 0.7303 0.0943 0.0000
vt 0.7239 0.1618 0.0000
vt 0.7253 0.1473 0.0000
vt 0.7344 0.1623 0.0000
vt 0.7347 0.1478 0.0000
vt 0.7768 0.1644 0.0000
vt 0.7562 0.1634 0.0000
vt 0.7774 0.1503 0.0000
vt 0.7566 0.1490 0.0000
vt 0.7778 0.1435 0.0000
vt 0.7798 0.1505 0.0000
vt 0.7199 0.2054 0.0000
vt 0.7208 0.1956 0.0000
vt 0.7337 0.2056 0.0000
vt 0.7339 0.1960 0.0000
vt 0.7217 0.1855 0.0000
vt 0.7340 0.1859 0.0000
vt 0.7753 0.1962 0.0000
vt 0.7749 0.2050 0.0000
vt 0.7553 0.1961 0.0000
vt 0.7550 0.2053 0.0000
vt 0.7757 0.1868 0.0000
vt 0.7555 0.1864 0.0000
vt 0.7558 0.1756 0.0000
vt 0.7762 0.1764 0.0000
vt 0.7342 0.1748 0.0000
vt 0.7228 0.1743 0.0000
vt 0.7935 0.1961 0.0000
vt 0.7928 0.2047 0.0000
vt 0.7962 0.2047 0.0000
vt 0.7910 0.1872 0.0000
vt 0.7870 0.1740 0.0000
vt 0.7835 0.1626 0.0000
vt 0.7360 0.0743 0.0000
vt 0.7321 0.0740 0.0000
vt 0.7365 0.0531 0.0000
vt 0.7341 0.0529 0.0000
vt 0.7582 0.0777 0.0000
vt 0.7514 0.0544 0.0000
vt 0.7371 0.0223 0.0000
vt 0.7424 0.0229 0.0000
vt 0.7369 0.0312 0.0000
vt 0.7451 0.0321 0.0000
vt 0.7361 0.0312 0.0000
# 55 texture coords

g Y712_324H_R_DTaSI_Y712_324H_R
usemtl windowglass_1SG
s 1
f 1/1/1 2/2/2 3/3/3 
f 3/3/3 2/2/2 4/4/4 
f 5/5/5 4/4/4 6/6/6 
f 6/6/6 4/4/4 2/2/2 
f 6/6/6 2/2/2 7/7/7 
f 7/7/7 2/2/2 8/8/8 
f 9/9/9 8/8/8 1/1/1 
f 1/1/1 8/8/8 2/2/2 
f 7/7/7 10/10/10 6/6/6 
f 6/6/6 10/10/10 11/11/11 
f 6/6/6 11/11/11 5/5/5 
f 5/5/5 11/11/11 12/12/12 
f 13/13/13 14/14/14 15/15/15 
f 15/15/15 14/14/14 16/16/16 
f 14/14/14 10/10/10 16/16/16 
f 16/16/16 10/10/10 7/7/7 
f 17/17/17 18/18/18 19/19/19 
f 19/19/19 18/18/18 20/20/20 
f 20/20/20 8/8/8 21/21/21 
f 21/21/21 8/8/8 9/9/9 
f 19/19/19 21/21/21 22/22/22 
f 19/19/19 20/20/20 21/21/21 
f 7/7/7 8/8/8 16/16/16 
f 16/16/16 8/8/8 20/20/20 
f 16/16/16 20/20/20 15/15/15 
f 15/15/15 20/20/20 18/18/18 
f 23/23/23 24/24/24 25/25/25 
f 25/25/25 24/24/24 26/26/26 
f 24/24/24 27/27/27 26/26/26 
f 26/26/26 27/27/27 28/28/28 
f 29/29/29 30/30/30 31/31/31 
f 31/31/31 30/30/30 32/32/32 
f 33/33/33 29/29/29 34/34/34 
f 34/34/34 29/29/29 31/31/31 
f 34/34/34 31/31/31 28/28/28 
f 28/28/28 31/31/31 26/26/26 
f 25/25/25 26/26/26 32/32/32 
f 32/32/32 26/26/26 31/31/31 
f 18/18/18 17/17/17 35/35/35 
f 35/35/35 17/17/17 36/36/36 
f 15/15/15 18/18/18 37/37/37 
f 37/37/37 18/18/18 35/35/35 
f 37/37/37 35/35/35 28/28/28 
f 28/28/28 35/35/35 34/34/34 
f 36/36/36 33/33/33 35/35/35 
f 35/35/35 33/33/33 34/34/34 
f 27/27/27 38/38/38 28/28/28 
f 28/28/28 38/38/38 37/37/37 
f 38/38/38 13/13/13 37/37/37 
f 37/37/37 13/13/13 15/15/15 
f 39/39/39 40/40/40 29/29/29 
f 29/29/29 40/40/40 30/30/30 
f 40/40/40 39/39/39 41/41/41 
f 29/29/29 33/33/33 39/39/39 
f 33/33/33 42/42/42 39/39/39 
f 36/36/36 17/17/17 43/43/43 
f 43/43/43 17/17/17 44/44/44 
f 42/42/42 33/33/33 43/43/43 
f 43/43/43 33/33/33 36/36/36 
f 17/17/17 19/19/19 44/44/44 
f 44/44/44 19/19/19 22/22/22 
f 5/5/5 12/12/12 45/45/45 
f 45/45/45 12/12/12 46/46/46 
f 45/45/45 46/46/46 47/47/47 
f 47/47/47 46/46/46 48/48/48 
f 3/3/3 4/4/4 49/49/49 
f 49/49/49 4/4/4 5/5/5 
f 49/49/49 45/45/45 50/50/50 
f 50/50/50 45/45/45 47/47/47 
f 5/5/5 45/45/45 49/49/49 
f 51/51/51 52/52/52 53/53/53 
f 53/53/53 52/52/52 54/54/54 
f 50/50/50 47/47/47 54/54/54 
f 54/54/54 47/47/47 53/53/53 
f 55/55/55 53/53/53 48/48/48 
f 48/48/48 53/53/53 47/47/47 
f 51/51/51 53/53/53 55/55/55 
# 77 faces

