# 3ds Max Wavefront OBJ Exporter v0.97b - (c)2007 guruware
# File Created: 22.10.2015 16:10:08

mtllib U803_1A_285B_R.mtl

#
# object U803_1A_285B_R_1_DTaSI_U803_1A_285B_R
#

v  4.5925 47.1413 69.5856
v  4.6193 38.9654 72.2845
v  12.6113 47.1561 69.5846
v  12.6315 38.9484 72.2936
v  4.5667 55.1467 66.7642
v  12.5916 55.1865 66.7500
v  15.0335 74.9764 58.3453
v  9.5631 75.0794 58.3076
v  12.5541 70.5164 60.5886
v  12.5722 63.1186 63.7053
v  4.5412 63.1099 63.7112
v  4.5176 70.5070 60.6198
v  12.6475 32.5935 74.3039
v  4.6404 32.6160 74.2935
v  62.4766 61.0967 64.1655
v  58.6382 64.3852 62.9107
v  60.2958 55.2245 66.5927
v  60.4182 47.1329 69.4955
v  67.8746 47.0791 69.4388
v  66.3678 57.4474 65.5130
v  52.1679 63.0839 63.6371
v  58.4164 64.5753 62.8381
v  55.1018 67.0707 61.9354
v  83.4760 32.1829 74.2982
v  85.9622 32.7790 73.9128
v  84.7305 35.1540 73.1281
v  85.9385 32.1665 74.2956
v  -1.7345 37.0486 72.9293
v  -1.7896 32.6230 74.2930
v  -1.7857 33.0485 74.1630
v  -1.6184 41.1213 71.6198
v  -1.4517 45.1999 70.2549
v  -1.0950 53.2106 67.4981
v  -1.2804 49.1955 68.8943
v  -0.4512 65.1209 62.8963
v  -0.6724 61.1707 64.4909
v  -0.2563 68.6574 61.4139
v  0.6516 73.0732 59.4981
v  0.1972 72.3642 59.8775
v  -0.0613 71.5678 60.2411
v  1.9337 74.2471 58.8034
v  2.7506 74.6498 58.5527
v  4.5029 75.1649 58.2471
v  3.5957 74.9842 58.3551
v  1.2106 73.7293 59.1165
v  20.4978 74.8764 58.3927
v  20.6092 70.5101 60.5899
v  25.5788 74.7085 58.5263
v  28.3944 70.4921 60.6285
v  36.3782 70.4732 60.6515
v  36.3929 74.0038 59.0197
v  33.9438 74.1889 58.8987
v  20.6163 63.1175 63.6997
v  28.6480 32.5294 74.3086
v  28.5902 38.9160 72.2854
v  20.6535 32.5633 74.3081
v  20.6413 38.9331 72.2922
v  28.5335 47.1485 69.5662
v  20.6311 47.1529 69.5776
v  28.4867 55.1799 66.7326
v  20.6238 55.1838 66.7422
v  28.4391 63.1159 63.6997
v  36.6425 32.4741 74.3168
v  36.6281 38.8934 72.2799
v  36.5743 47.1441 69.5540
v  36.5044 55.1761 66.7226
v  36.4372 63.1143 63.6989
v  30.1532 74.4674 58.7003
v  44.6286 32.4121 74.3168
v  44.5701 38.8684 72.2698
v  44.4653 47.1400 69.5405
v  44.3486 55.1737 66.7114
v  44.2344 63.1136 63.6916
v  44.1671 70.4467 60.6451
v  52.6113 32.3582 74.3165
v  52.5995 38.8453 72.2588
v  52.4885 47.1357 69.5236
v  52.3398 55.1727 66.6946
v  60.5940 32.3143 74.3251
v  60.5198 38.8249 72.2448
v  68.5575 32.2710 74.3161
v  68.2560 38.8055 72.1986
v  -0.8918 57.1988 66.0306
v  38.5704 73.7985 59.1288
v  40.3348 73.5793 59.2480
v  41.9937 73.2868 59.4021
v  70.0911 53.7676 66.8356
v  79.4049 43.0044 70.5286
v  76.5047 38.7751 72.0698
v  81.6039 40.2379 71.4439
v  83.4673 37.4670 72.3617
v  76.5596 32.2249 74.3057
v  76.9667 46.0222 69.5323
v  73.6440 49.9477 68.2087
v  52.3547 68.8684 61.2469
v  49.5432 70.4244 60.6118
v  43.4342 72.9831 59.5418
v  44.8629 72.5766 59.7099
v  48.0171 71.2573 60.2638
v  46.3056 72.0545 59.9293
# 100 vertices

vn 0.0009 0.3229 0.9464
vn 0.0009 0.3081 0.9513
vn 0.0003 0.3231 0.9464
vn 0.0002 0.3083 0.9513
vn 0.0008 0.3452 0.9385
vn 0.0004 0.3455 0.9384
vn 0.0002 0.4459 0.8951
vn -0.0019 0.4475 0.8943
vn 0.0012 0.4134 0.9105
vn 0.0008 0.3722 0.9281
vn -0.0022 0.3735 0.9276
vn -0.0065 0.4136 0.9104
vn 0.0001 0.3017 0.9534
vn 0.0008 0.3009 0.9537
vn 0.0217 0.3662 0.9303
vn 0.0181 0.3736 0.9274
vn 0.0183 0.3543 0.9350
vn 0.0105 0.3281 0.9446
vn 0.0182 0.3324 0.9430
vn 0.0234 0.3582 0.9334
vn 0.0130 0.3713 0.9284
vn 0.0179 0.3740 0.9272
vn 0.0149 0.3799 0.9249
vn 0.0161 0.3339 0.9425
vn 0.0525 0.3787 0.9240
vn 0.0612 0.3433 0.9372
vn 0.0044 0.5299 0.8480
vn 0.0026 0.3052 0.9523
vn 0.0024 0.2999 0.9540
vn 0.0027 0.3116 0.9502
vn 0.0027 0.3191 0.9477
vn 0.0022 0.3392 0.9407
vn 0.0025 0.3282 0.9446
vn -0.0103 0.3858 0.9225
vn -0.0045 0.3678 0.9299
vn -0.0166 0.4043 0.9145
vn -0.0207 0.4308 0.9022
vn -0.0211 0.4260 0.9045
vn -0.0209 0.4207 0.9070
vn -0.0176 0.4395 0.8981
vn -0.0146 0.4430 0.8964
vn -0.0080 0.4478 0.8941
vn -0.0114 0.4459 0.8950
vn -0.0199 0.4353 0.9001
vn -0.0022 0.4429 0.8966
vn -0.0014 0.4123 0.9111
vn -0.0052 0.4367 0.8996
vn -0.0038 0.4068 0.9135
vn -0.0022 0.3989 0.9170
vn -0.0054 0.4181 0.9084
vn -0.0058 0.4227 0.9063
vn 0.0001 0.3717 0.9283
vn 0.0013 0.3021 0.9533
vn 0.0014 0.3086 0.9512
vn 0.0010 0.3018 0.9534
vn 0.0011 0.3084 0.9512
vn 0.0015 0.3231 0.9464
vn 0.0012 0.3231 0.9464
vn 0.0011 0.3448 0.9387
vn 0.0010 0.3454 0.9385
vn -0.0002 0.3700 0.9290
vn 0.0018 0.3023 0.9532
vn 0.0018 0.3087 0.9512
vn 0.0017 0.3229 0.9464
vn 0.0013 0.3443 0.9389
vn 0.0007 0.3688 0.9295
vn -0.0064 0.4298 0.9029
vn 0.0022 0.3023 0.9532
vn 0.0021 0.3086 0.9512
vn 0.0020 0.3227 0.9465
vn 0.0025 0.3445 0.9388
vn 0.0038 0.3690 0.9294
vn 0.0031 0.3929 0.9196
vn 0.0018 0.3028 0.9530
vn 0.0023 0.3089 0.9511
vn 0.0035 0.3235 0.9462
vn 0.0081 0.3485 0.9373
vn 0.0035 0.3055 0.9522
vn 0.0052 0.3109 0.9504
vn 0.0068 0.3111 0.9504
vn 0.0110 0.3155 0.9489
vn -0.0001 0.3524 0.9358
vn -0.0038 0.4144 0.9101
vn -0.0025 0.4115 0.9114
vn -0.0013 0.4087 0.9127
vn 0.0245 0.3498 0.9365
vn 0.0209 0.3306 0.9436
vn 0.0168 0.3245 0.9457
vn 0.0183 0.3313 0.9433
vn 0.0158 0.3320 0.9431
vn 0.0112 0.3242 0.9459
vn 0.0238 0.3297 0.9438
vn 0.0242 0.3397 0.9402
vn 0.0125 0.3846 0.9230
vn 0.0084 0.3916 0.9201
vn -0.0002 0.4062 0.9138
vn 0.0013 0.4033 0.9151
vn 0.0060 0.3956 0.9184
vn 0.0034 0.3999 0.9166
# 99 vertex normals

vt 0.9032 0.4603 0.0000
vt 0.9509 0.4605 0.0000
vt 0.9031 0.5047 0.0000
vt 0.9510 0.5048 0.0000
vt 0.8562 0.4602 0.0000
vt 0.8560 0.5046 0.0000
vt 0.7369 0.5181 0.0000
vt 0.7363 0.4878 0.0000
vt 0.7645 0.5044 0.0000
vt 0.8090 0.5045 0.0000
vt 0.8090 0.4600 0.0000
vt 0.7647 0.4599 0.0000
vt 0.9878 0.5049 0.0000
vt 0.9877 0.4606 0.0000
vt 0.8204 0.7807 0.0000
vt 0.8009 0.7594 0.0000
vt 0.8555 0.7686 0.0000
vt 0.9031 0.7693 0.0000
vt 0.9032 0.8105 0.0000
vt 0.8419 0.8022 0.0000
vt 0.8090 0.7236 0.0000
vt 0.7997 0.7582 0.0000
vt 0.7851 0.7398 0.0000
vt 0.9899 0.8969 0.0000
vt 0.9861 0.9106 0.0000
vt 0.9723 0.9038 0.0000
vt 0.9901 0.9105 0.0000
vt 0.9620 0.4253 0.0000
vt 0.9877 0.4250 0.0000
vt 0.9852 0.4250 0.0000
vt 0.9384 0.4259 0.0000
vt 0.9146 0.4269 0.0000
vt 0.8677 0.4288 0.0000
vt 0.8912 0.4278 0.0000
vt 0.7970 0.4324 0.0000
vt 0.8206 0.4312 0.0000
vt 0.7758 0.4335 0.0000
vt 0.7492 0.4385 0.0000
vt 0.7536 0.4360 0.0000
vt 0.7585 0.4346 0.0000
vt 0.7416 0.4456 0.0000
vt 0.7390 0.4501 0.0000
vt 0.7357 0.4598 0.0000
vt 0.7368 0.4548 0.0000
vt 0.7450 0.4416 0.0000
vt 0.7375 0.5483 0.0000
vt 0.7646 0.5490 0.0000
vt 0.7387 0.5765 0.0000
vt 0.7647 0.5920 0.0000
vt 0.7649 0.6362 0.0000
vt 0.7434 0.6363 0.0000
vt 0.7422 0.6227 0.0000
vt 0.8090 0.5490 0.0000
vt 0.9882 0.5934 0.0000
vt 0.9511 0.5931 0.0000
vt 0.9880 0.5492 0.0000
vt 0.9510 0.5491 0.0000
vt 0.9031 0.5928 0.0000
vt 0.9031 0.5491 0.0000
vt 0.8560 0.5925 0.0000
vt 0.8560 0.5490 0.0000
vt 0.8090 0.5923 0.0000
vt 0.9885 0.6377 0.0000
vt 0.9512 0.6376 0.0000
vt 0.9031 0.6373 0.0000
vt 0.8560 0.6369 0.0000
vt 0.8090 0.6365 0.0000
vt 0.7403 0.6018 0.0000
vt 0.9888 0.6819 0.0000
vt 0.9513 0.6816 0.0000
vt 0.9031 0.6810 0.0000
vt 0.8560 0.6803 0.0000
vt 0.8090 0.6797 0.0000
vt 0.7650 0.6793 0.0000
vt 0.9891 0.7261 0.0000
vt 0.9514 0.7260 0.0000
vt 0.9031 0.7254 0.0000
vt 0.8560 0.7246 0.0000
vt 0.9893 0.7702 0.0000
vt 0.9515 0.7698 0.0000
vt 0.9895 0.8143 0.0000
vt 0.9515 0.8126 0.0000
vt 0.8442 0.4300 0.0000
vt 0.7446 0.6484 0.0000
vt 0.7460 0.6581 0.0000
vt 0.7479 0.6673 0.0000
vt 0.8635 0.8228 0.0000
vt 0.9265 0.8743 0.0000
vt 0.9514 0.8583 0.0000
vt 0.9426 0.8865 0.0000
vt 0.9588 0.8968 0.0000
vt 0.9897 0.8586 0.0000
vt 0.9089 0.8608 0.0000
vt 0.8860 0.8425 0.0000
vt 0.7744 0.7246 0.0000
vt 0.7651 0.7091 0.0000
vt 0.7497 0.6753 0.0000
vt 0.7522 0.6832 0.0000
vt 0.7601 0.7006 0.0000
vt 0.7553 0.6912 0.0000
# 100 texture coords

g U803_1A_285B_R_1_DTaSI_U803_1A_285B_R
usemtl windowglass_2SG
s 1
f 1/1/1 2/2/2 3/3/3 
f 3/3/3 2/2/2 4/4/4 
f 1/1/1 3/3/3 5/5/5 
f 5/5/5 3/3/3 6/6/6 
f 7/7/7 8/8/8 9/9/9 
f 10/10/10 9/9/9 11/11/11 
f 11/11/11 9/9/9 12/12/12 
f 13/13/13 4/4/4 14/14/14 
f 14/14/14 4/4/4 2/2/2 
f 15/15/15 16/16/16 17/17/17 
f 18/18/18 19/19/19 17/17/17 
f 17/17/17 19/19/19 20/20/20 
f 21/21/21 22/22/22 23/23/23 
f 5/5/5 6/6/6 11/11/11 
f 11/11/11 6/6/6 10/10/10 
f 24/24/24 25/25/25 26/26/26 
f 27/27/27 25/25/25 24/24/24 
f 2/2/2 28/28/28 14/14/14 
f 29/29/29 14/14/14 30/30/29 
f 14/14/14 28/28/28 30/30/29 
f 2/2/2 1/1/1 31/31/30 
f 31/31/30 1/1/1 32/32/31 
f 5/5/5 33/33/32 1/1/1 
f 1/1/1 33/33/32 34/34/33 
f 35/35/34 36/36/35 11/11/11 
f 11/11/11 12/12/12 35/35/34 
f 35/35/34 12/12/12 37/37/36 
f 38/38/37 39/39/38 12/12/12 
f 37/37/36 12/12/12 40/40/39 
f 41/41/40 12/12/12 42/42/41 
f 12/12/12 43/43/42 44/44/43 
f 45/45/44 12/12/12 41/41/40 
f 40/40/39 12/12/12 39/39/38 
f 38/38/37 12/12/12 45/45/44 
f 42/42/41 12/12/12 44/44/43 
f 46/46/45 47/47/46 48/48/47 
f 48/48/47 47/47/46 49/49/48 
f 50/50/49 51/51/50 52/52/51 
f 9/9/9 10/10/10 47/47/46 
f 47/47/46 10/10/10 53/53/52 
f 9/9/9 47/47/46 7/7/7 
f 7/7/7 47/47/46 46/46/45 
f 9/9/9 8/8/8 12/12/12 
f 12/12/12 8/8/8 43/43/42 
f 54/54/53 55/55/54 56/56/55 
f 56/56/55 55/55/54 57/57/56 
f 55/55/54 58/58/57 57/57/56 
f 57/57/56 58/58/57 59/59/58 
f 58/58/57 60/60/59 59/59/58 
f 59/59/58 60/60/59 61/61/60 
f 60/60/59 62/62/61 61/61/60 
f 61/61/60 62/62/61 53/53/52 
f 62/62/61 49/49/48 53/53/52 
f 53/53/52 49/49/48 47/47/46 
f 63/63/62 64/64/63 54/54/53 
f 54/54/53 64/64/63 55/55/54 
f 64/64/63 65/65/64 55/55/54 
f 55/55/54 65/65/64 58/58/57 
f 65/65/64 66/66/65 58/58/57 
f 58/58/57 66/66/65 60/60/59 
f 66/66/65 67/67/66 60/60/59 
f 60/60/59 67/67/66 62/62/61 
f 67/67/66 50/50/49 62/62/61 
f 62/62/61 50/50/49 49/49/48 
f 48/48/47 49/49/48 68/68/67 
f 68/68/67 49/49/48 52/52/51 
f 52/52/51 49/49/48 50/50/49 
f 69/69/68 70/70/69 63/63/62 
f 63/63/62 70/70/69 64/64/63 
f 70/70/69 71/71/70 64/64/63 
f 64/64/63 71/71/70 65/65/64 
f 71/71/70 72/72/71 65/65/64 
f 65/65/64 72/72/71 66/66/65 
f 72/72/71 73/73/72 66/66/65 
f 66/66/65 73/73/72 67/67/66 
f 73/73/72 74/74/73 67/67/66 
f 67/67/66 74/74/73 50/50/49 
f 75/75/74 76/76/75 69/69/68 
f 69/69/68 76/76/75 70/70/69 
f 76/76/75 77/77/76 70/70/69 
f 70/70/69 77/77/76 71/71/70 
f 77/77/76 78/78/77 71/71/70 
f 71/71/70 78/78/77 72/72/71 
f 78/78/77 21/21/21 72/72/71 
f 72/72/71 21/21/21 73/73/72 
f 79/79/78 80/80/79 75/75/74 
f 75/75/74 80/80/79 76/76/75 
f 80/80/79 18/18/18 76/76/75 
f 76/76/75 18/18/18 77/77/76 
f 18/18/18 17/17/17 77/77/76 
f 77/77/76 17/17/17 78/78/77 
f 17/17/17 16/16/16 78/78/77 
f 16/16/16 22/22/22 78/78/77 
f 22/22/22 21/21/21 78/78/77 
f 81/81/80 82/82/81 79/79/78 
f 79/79/78 82/82/81 80/80/79 
f 82/82/81 19/19/19 80/80/79 
f 80/80/79 19/19/19 18/18/18 
f 61/61/60 53/53/52 6/6/6 
f 6/6/6 53/53/52 10/10/10 
f 11/11/11 36/36/35 5/5/5 
f 5/5/5 36/36/35 83/83/82 
f 50/50/49 84/84/83 51/51/50 
f 50/50/49 85/85/84 84/84/83 
f 50/50/49 86/86/85 85/85/84 
f 59/59/58 61/61/60 3/3/3 
f 3/3/3 61/61/60 6/6/6 
f 57/57/56 59/59/58 4/4/4 
f 4/4/4 59/59/58 3/3/3 
f 56/56/55 57/57/56 13/13/13 
f 13/13/13 57/57/56 4/4/4 
f 28/28/28 2/2/2 31/31/30 
f 34/34/33 32/32/31 1/1/1 
f 83/83/82 33/33/32 5/5/5 
f 20/20/20 19/19/19 87/87/86 
f 88/88/87 89/89/88 90/90/89 
f 24/24/24 91/91/90 92/92/91 
f 92/92/91 91/91/90 89/89/88 
f 90/90/89 89/89/88 91/91/90 
f 19/19/19 93/93/92 94/94/93 
f 92/92/91 89/89/88 81/81/80 
f 81/81/80 89/89/88 82/82/81 
f 19/19/19 82/82/81 93/93/92 
f 93/93/92 82/82/81 89/89/88 
f 93/93/92 89/89/88 88/88/87 
f 21/21/21 95/95/94 96/96/95 
f 97/97/96 86/86/85 74/74/73 
f 74/74/73 86/86/85 50/50/49 
f 98/98/97 97/97/96 74/74/73 
f 74/74/73 96/96/95 99/99/98 
f 98/98/97 74/74/73 100/100/99 
f 74/74/73 99/99/98 100/100/99 
f 95/95/94 21/21/21 23/23/23 
f 26/26/26 91/91/90 24/24/24 
f 87/87/86 19/19/19 94/94/93 
f 17/17/17 20/20/20 15/15/15 
f 74/74/73 73/73/72 96/96/95 
f 96/96/95 73/73/72 21/21/21 
# 138 faces

