# 3ds Max Wavefront OBJ Exporter v0.97b - (c)2007 guruware
# File Created: 22.10.2015 16:08:34

mtllib U803_1A_182C_C.mtl

#
# object U803_1A_182C_C_1_D_U803_1A_182C_C
#

v  117.5400 31.5084 0.0000
v  122.0891 30.7889 1.0174
v  122.0891 30.7889 0.0000
v  105.1719 32.5451 56.8360
v  104.2894 32.8818 56.5883
v  103.1045 32.5362 61.4861
v  102.2735 32.8730 61.1650
v  101.4791 32.5306 64.6267
v  100.6692 32.8693 64.2866
v  99.9830 32.5251 67.2134
v  99.2084 32.8629 66.8641
v  114.6778 32.6829 8.7368
v  113.6986 33.0193 8.7070
v  113.8165 32.6952 17.6159
v  112.8402 33.0316 17.5563
v  112.7136 32.6183 26.4276
v  111.7404 32.9547 26.3383
v  111.2910 32.6572 35.0917
v  110.3263 32.9935 34.9735
v  109.2910 32.5876 43.8771
v  108.3508 32.9241 43.6924
v  107.3791 32.5628 50.5490
v  106.4768 32.8996 50.2983
v  98.8580 32.5231 69.0254
v  98.1227 32.8757 68.6125
v  98.2893 32.4800 69.8432
v  97.4941 32.8437 69.4240
v  97.2488 32.3248 71.3255
v  96.3027 32.6649 70.9844
v  96.5926 32.2207 72.3738
v  96.1793 32.2405 72.3659
v  108.0668 30.8207 72.6040
v  105.8385 30.9623 72.5570
v  107.7078 31.6681 72.5812
v  105.8439 31.7511 72.5471
v  102.0236 31.2046 72.4765
v  98.6986 31.5336 72.3940
v  102.0237 31.9207 72.4856
v  117.2307 31.4415 8.8098
v  121.8418 30.7945 7.1025
v  115.3012 31.3751 26.6861
v  120.4104 30.7626 25.3641
v  116.4560 31.4408 17.8007
v  120.9222 30.7576 19.2715
v  119.8901 30.7896 31.4559
v  113.7456 31.4187 35.3780
v  119.1933 30.7945 37.5498
v  109.6997 31.3316 51.1116
v  117.1376 30.7904 52.4163
v  111.6223 31.3951 44.3205
v  118.3788 30.7900 43.6305
v  116.6803 30.7905 54.9779
v  100.3646 31.3459 70.3670
v  105.2335 31.2953 62.2439
v  113.5131 30.7929 65.0182
v  107.4501 31.3298 57.4307
v  115.7186 30.7909 59.2799
v  112.8785 30.7933 66.2426
v  102.0135 31.2755 68.1079
v  112.5374 33.3015 17.5336
v  113.3894 33.2890 8.6956
v  110.0484 33.2568 34.9306
v  111.4479 33.2222 26.3048
v  106.2248 33.1525 50.2375
v  108.0839 33.1826 43.6397
v  104.0532 33.1303 56.5150
v  102.0523 33.1161 61.0798
v  100.4645 33.1067 64.1995
v  99.0098 33.0981 66.7704
v  97.8895 33.0892 68.5228
v  97.2474 33.0822 69.3563
v  103.5920 31.3094 65.4249
v  114.0015 33.0855 0.0000
v  114.9827 32.7493 0.0000
v  113.6858 33.3551 0.0000
v  121.4209 30.7891 13.1779
v  110.8958 30.7944 69.1668
v  116.0677 30.7907 57.8683
v  108.4204 31.6343 72.6160
v  122.0891 30.7889 -1.0174
v  102.2735 32.8730 -61.1650
v  104.2894 32.8818 -56.5883
v  103.1045 32.5362 -61.4861
v  105.1719 32.5451 -56.8360
v  99.2084 32.8629 -66.8641
v  100.6692 32.8693 -64.2866
v  99.9830 32.5251 -67.2134
v  101.4791 32.5306 -64.6267
v  112.8402 33.0316 -17.5563
v  113.6986 33.0193 -8.7070
v  113.8165 32.6952 -17.6159
v  114.6778 32.6829 -8.7368
v  110.3263 32.9935 -34.9735
v  111.7404 32.9547 -26.3383
v  111.2910 32.6572 -35.0917
v  112.7136 32.6183 -26.4276
v  106.4768 32.8996 -50.2983
v  108.3508 32.9241 -43.6924
v  107.3791 32.5628 -50.5490
v  109.2910 32.5876 -43.8771
v  97.4941 32.8437 -69.4240
v  98.1227 32.8757 -68.6125
v  98.2893 32.4801 -69.8432
v  98.8580 32.5231 -69.0254
v  96.3027 32.6649 -70.9844
v  97.2488 32.3248 -71.3255
v  96.1793 32.2405 -72.3659
v  96.5926 32.2207 -72.3738
v  105.8439 31.7511 -72.5471
v  105.8385 30.9623 -72.5570
v  107.7078 31.6681 -72.5812
v  108.0668 30.8207 -72.6040
v  98.6986 31.5336 -72.3940
v  102.0237 31.9207 -72.4856
v  102.0236 31.2046 -72.4765
v  121.8418 30.7945 -7.1025
v  117.2307 31.4415 -8.8098
v  120.9222 30.7576 -19.2715
v  120.4104 30.7626 -25.3641
v  116.4560 31.4408 -17.8007
v  115.3012 31.3751 -26.6861
v  119.8901 30.7896 -31.4559
v  119.1933 30.7945 -37.5498
v  113.7456 31.4187 -35.3780
v  109.6997 31.3316 -51.1116
v  111.6223 31.3951 -44.3205
v  117.1376 30.7904 -52.4163
v  118.3788 30.7900 -43.6305
v  116.6803 30.7905 -54.9779
v  100.3646 31.3459 -70.3670
v  115.7186 30.7909 -59.2799
v  113.5131 30.7929 -65.0182
v  107.4501 31.3298 -57.4307
v  105.2335 31.2953 -62.2439
v  112.8785 30.7933 -66.2426
v  102.0135 31.2755 -68.1079
v  112.5374 33.3015 -17.5336
v  113.3894 33.2890 -8.6956
v  110.0484 33.2568 -34.9306
v  111.4479 33.2222 -26.3048
v  106.2248 33.1525 -50.2375
v  108.0839 33.1826 -43.6397
v  102.0523 33.1161 -61.0798
v  104.0532 33.1303 -56.5150
v  99.0098 33.0981 -66.7704
v  100.4645 33.1067 -64.1995
v  97.2474 33.0822 -69.3563
v  97.8895 33.0892 -68.5228
v  103.5920 31.3094 -65.4249
v  121.4209 30.7891 -13.1779
v  110.8958 30.7944 -69.1668
v  116.0677 30.7908 -57.8683
v  108.4204 31.6343 -72.6160
# 153 vertices

vn 0.1483 0.9889 -0.0000
vn 0.1486 0.9888 0.0091
vn 0.1562 0.9877 -0.0000
vn 0.4037 0.9003 0.1627
vn 0.4165 0.8942 0.1640
vn 0.4010 0.8954 0.1935
vn 0.4120 0.8899 0.1957
vn 0.3963 0.8915 0.2194
vn 0.4081 0.8855 0.2220
vn 0.3949 0.8860 0.2431
vn 0.4034 0.8832 0.2393
vn 0.4062 0.9133 0.0292
vn 0.4218 0.9061 0.0307
vn 0.4019 0.9145 0.0476
vn 0.4239 0.9043 0.0504
vn 0.4029 0.9132 0.0616
vn 0.4232 0.9038 0.0630
vn 0.4067 0.9098 0.0826
vn 0.4217 0.9028 0.0843
vn 0.4066 0.9071 0.1090
vn 0.4203 0.9005 0.1113
vn 0.4056 0.9043 0.1328
vn 0.4191 0.8978 0.1351
vn 0.3895 0.8829 0.2623
vn 0.3866 0.8827 0.2673
vn 0.3371 0.8995 0.2780
vn 0.2980 0.9069 0.2978
vn 0.3114 0.9094 0.2756
vn 0.2283 0.9329 0.2784
vn 0.2281 0.9356 0.2695
vn 0.1827 0.9469 0.2646
vn 0.0224 -0.0148 -0.9996
vn 0.0187 -0.0064 -0.9998
vn 0.0216 -0.0150 -0.9997
vn 0.0187 -0.0060 -0.9998
vn 0.0212 0.0128 -0.9997
vn 0.0242 0.0284 -0.9993
vn 0.0214 0.0141 -0.9997
vn 0.1455 0.9893 0.0114
vn 0.1472 0.9891 0.0098
vn 0.1216 0.9925 0.0141
vn 0.1260 0.9919 0.0158
vn 0.1390 0.9902 0.0163
vn 0.1377 0.9903 0.0169
vn 0.1140 0.9934 0.0114
vn 0.1041 0.9944 0.0170
vn 0.1001 0.9948 0.0190
vn 0.0731 0.9971 0.0199
vn 0.0782 0.9968 0.0190
vn 0.0859 0.9961 0.0205
vn 0.0893 0.9958 0.0206
vn 0.0646 0.9977 0.0189
vn 0.0987 0.9951 -0.0110
vn 0.0671 0.9977 0.0133
vn 0.0697 0.9975 0.0113
vn 0.0544 0.9981 0.0273
vn 0.0551 0.9981 0.0263
vn 0.0584 0.9980 0.0239
vn 0.0562 0.9981 0.0249
vn 0.0527 0.9982 0.0285
vn 0.0633 0.9979 0.0160
vn 0.0532 0.9981 0.0316
vn 0.6605 0.7470 0.0760
vn 0.6556 0.7537 0.0457
vn 0.6695 0.7310 0.1320
vn 0.6663 0.7393 0.0976
vn 0.6663 0.7149 0.2122
vn 0.6682 0.7238 0.1723
vn 0.6599 0.7060 0.2572
vn 0.6493 0.6960 0.3064
vn 0.6405 0.6858 0.3457
vn 0.6161 0.6976 0.3659
vn 0.5697 0.7205 0.3953
vn 0.5386 0.7226 0.4332
vn 0.4321 0.8853 0.1720
vn 0.4293 0.8792 0.2066
vn 0.4240 0.8752 0.2329
vn 0.4195 0.8700 0.2591
vn 0.4340 0.9004 0.0305
vn 0.4288 0.9020 0.0500
vn 0.4300 0.9004 0.0657
vn 0.4359 0.8958 0.0873
vn 0.4368 0.8920 0.1162
vn 0.4347 0.8894 0.1415
vn 0.3995 0.8748 0.2740
vn 0.3579 0.8931 0.2726
vn 0.4217 0.9067 -0.0000
vn 0.4082 0.9129 -0.0000
vn 0.6531 0.7573 -0.0000
vn 0.4367 0.8996 -0.0000
vn 0.1431 0.9896 0.0138
vn 0.0513 0.9981 0.0330
vn 0.0515 0.9981 0.0325
vn 0.0634 0.9978 0.0194
vn 0.0504 0.9981 0.0357
vn 0.0484 -0.0064 -0.9988
vn 0.1486 0.9888 -0.0091
vn 0.4120 0.8899 -0.1957
vn 0.4165 0.8942 -0.1640
vn 0.4010 0.8954 -0.1935
vn 0.4037 0.9003 -0.1627
vn 0.4034 0.8832 -0.2393
vn 0.4081 0.8855 -0.2220
vn 0.3949 0.8860 -0.2431
vn 0.3963 0.8915 -0.2194
vn 0.4239 0.9043 -0.0504
vn 0.4218 0.9061 -0.0307
vn 0.4019 0.9145 -0.0476
vn 0.4062 0.9133 -0.0292
vn 0.4217 0.9028 -0.0843
vn 0.4232 0.9038 -0.0630
vn 0.4067 0.9098 -0.0826
vn 0.4029 0.9132 -0.0616
vn 0.4191 0.8978 -0.1351
vn 0.4203 0.9005 -0.1113
vn 0.4056 0.9043 -0.1328
vn 0.4066 0.9071 -0.1090
vn 0.2980 0.9069 -0.2978
vn 0.3866 0.8827 -0.2673
vn 0.3371 0.8995 -0.2780
vn 0.3895 0.8829 -0.2623
vn 0.2283 0.9329 -0.2784
vn 0.3114 0.9094 -0.2756
vn 0.1827 0.9469 -0.2646
vn 0.2281 0.9356 -0.2695
vn 0.0187 -0.0060 0.9998
vn 0.0187 -0.0064 0.9998
vn 0.0216 -0.0150 0.9997
vn 0.0224 -0.0148 0.9996
vn 0.0242 0.0284 0.9993
vn 0.0214 0.0141 0.9997
vn 0.0212 0.0129 0.9997
vn 0.1472 0.9891 -0.0098
vn 0.1455 0.9893 -0.0114
vn 0.1377 0.9903 -0.0169
vn 0.1260 0.9919 -0.0158
vn 0.1390 0.9902 -0.0163
vn 0.1216 0.9925 -0.0141
vn 0.1140 0.9934 -0.0114
vn 0.1001 0.9948 -0.0190
vn 0.1041 0.9944 -0.0170
vn 0.0731 0.9971 -0.0199
vn 0.0859 0.9961 -0.0205
vn 0.0782 0.9968 -0.0190
vn 0.0893 0.9958 -0.0206
vn 0.0646 0.9977 -0.0189
vn 0.0987 0.9951 0.0110
vn 0.0697 0.9975 -0.0113
vn 0.0671 0.9977 -0.0133
vn 0.0562 0.9981 -0.0249
vn 0.0551 0.9981 -0.0263
vn 0.0584 0.9980 -0.0239
vn 0.0544 0.9981 -0.0273
vn 0.0527 0.9982 -0.0285
vn 0.0633 0.9979 -0.0160
vn 0.0532 0.9981 -0.0316
vn 0.6605 0.7470 -0.0760
vn 0.6556 0.7537 -0.0457
vn 0.6695 0.7310 -0.1320
vn 0.6663 0.7393 -0.0976
vn 0.6663 0.7149 -0.2122
vn 0.6682 0.7238 -0.1723
vn 0.6494 0.6960 -0.3064
vn 0.6599 0.7060 -0.2572
vn 0.6161 0.6975 -0.3659
vn 0.6405 0.6858 -0.3457
vn 0.5386 0.7226 -0.4332
vn 0.5697 0.7205 -0.3953
vn 0.4293 0.8792 -0.2066
vn 0.4321 0.8853 -0.1720
vn 0.4195 0.8700 -0.2591
vn 0.4240 0.8752 -0.2329
vn 0.4288 0.9020 -0.0500
vn 0.4340 0.9004 -0.0305
vn 0.4359 0.8958 -0.0873
vn 0.4300 0.9004 -0.0657
vn 0.4347 0.8894 -0.1415
vn 0.4368 0.8920 -0.1162
vn 0.3995 0.8748 -0.2740
vn 0.3579 0.8931 -0.2726
vn 0.1431 0.9896 -0.0138
vn 0.0515 0.9981 -0.0325
vn 0.0513 0.9981 -0.0330
vn 0.0634 0.9978 -0.0194
vn 0.0504 0.9981 -0.0357
vn 0.0484 -0.0064 0.9988
# 186 vertex normals

vt 0.9811 0.0121 0.0000
vt 0.9816 0.0120 0.0000
vt 0.9816 0.0121 0.0000
vt 0.9799 0.0065 0.0000
vt 0.9798 0.0065 0.0000
vt 0.9797 0.0061 0.0000
vt 0.9796 0.0061 0.0000
vt 0.9796 0.0058 0.0000
vt 0.9795 0.0058 0.0000
vt 0.9794 0.0055 0.0000
vt 0.9793 0.0055 0.0000
vt 0.9808 0.0112 0.0000
vt 0.9808 0.0104 0.0000
vt 0.9807 0.0104 0.0000
vt 0.9807 0.0095 0.0000
vt 0.9806 0.0095 0.0000
vt 0.9805 0.0086 0.0000
vt 0.9804 0.0087 0.0000
vt 0.9803 0.0078 0.0000
vt 0.9802 0.0078 0.0000
vt 0.9801 0.0071 0.0000
vt 0.9800 0.0072 0.0000
vt 0.9793 0.0053 0.0000
vt 0.9792 0.0054 0.0000
vt 0.9792 0.0052 0.0000
vt 0.9792 0.0053 0.0000
vt 0.9791 0.0051 0.0000
vt 0.9790 0.0051 0.0000
vt 0.9791 0.0050 0.0000
vt 0.9790 0.0050 0.0000
vt 0.9818 0.0050 0.0000
vt 0.9818 0.0052 0.0000
vt 0.9817 0.0050 0.0000
vt 0.9817 0.0052 0.0000
vt 0.9818 0.0056 0.0000
vt 0.9817 0.0059 0.0000
vt 0.9817 0.0056 0.0000
vt 0.9817 0.0061 0.0000
vt 0.9811 0.0112 0.0000
vt 0.9815 0.0114 0.0000
vt 0.9809 0.0095 0.0000
vt 0.9814 0.0096 0.0000
vt 0.9810 0.0103 0.0000
vt 0.9815 0.0102 0.0000
vt 0.9814 0.0090 0.0000
vt 0.9808 0.0086 0.0000
vt 0.9813 0.0084 0.0000
vt 0.9804 0.0071 0.0000
vt 0.9811 0.0069 0.0000
vt 0.9805 0.0077 0.0000
vt 0.9812 0.0078 0.0000
vt 0.9810 0.0067 0.0000
vt 0.9793 0.0050 0.0000
vt 0.9796 0.0050 0.0000
vt 0.9794 0.0052 0.0000
vt 0.9799 0.0060 0.0000
vt 0.9807 0.0057 0.0000
vt 0.9801 0.0065 0.0000
vt 0.9809 0.0063 0.0000
vt 0.9807 0.0056 0.0000
vt 0.9800 0.0050 0.0000
vt 0.9796 0.0054 0.0000
vt 0.9806 0.0104 0.0000
vt 0.9807 0.0112 0.0000
vt 0.9805 0.0095 0.0000
vt 0.9791 0.0053 0.0000
vt 0.9798 0.0057 0.0000
vt 0.9808 0.0121 0.0000
vt 0.9809 0.0121 0.0000
vt 0.9807 0.0121 0.0000
vt 0.9815 0.0108 0.0000
vt 0.9805 0.0053 0.0000
vt 0.9810 0.0064 0.0000
vt 0.9802 0.0050 0.0000
vt 0.9816 0.0122 0.0000
vt 0.9796 0.0181 0.0000
vt 0.9798 0.0176 0.0000
vt 0.9797 0.0181 0.0000
vt 0.9799 0.0177 0.0000
vt 0.9793 0.0186 0.0000
vt 0.9795 0.0184 0.0000
vt 0.9794 0.0187 0.0000
vt 0.9796 0.0184 0.0000
vt 0.9807 0.0138 0.0000
vt 0.9808 0.0129 0.0000
vt 0.9808 0.0138 0.0000
vt 0.9804 0.0155 0.0000
vt 0.9806 0.0147 0.0000
vt 0.9805 0.0155 0.0000
vt 0.9807 0.0147 0.0000
vt 0.9800 0.0170 0.0000
vt 0.9802 0.0164 0.0000
vt 0.9801 0.0170 0.0000
vt 0.9803 0.0164 0.0000
vt 0.9792 0.0189 0.0000
vt 0.9792 0.0188 0.0000
vt 0.9793 0.0188 0.0000
vt 0.9790 0.0190 0.0000
vt 0.9791 0.0191 0.0000
vt 0.9790 0.0192 0.0000
vt 0.9791 0.0192 0.0000
vt 0.9820 0.0052 0.0000
vt 0.9819 0.0052 0.0000
vt 0.9820 0.0050 0.0000
vt 0.9819 0.0050 0.0000
vt 0.9821 0.0061 0.0000
vt 0.9820 0.0059 0.0000
vt 0.9820 0.0056 0.0000
vt 0.9815 0.0128 0.0000
vt 0.9811 0.0129 0.0000
vt 0.9815 0.0140 0.0000
vt 0.9814 0.0146 0.0000
vt 0.9810 0.0138 0.0000
vt 0.9809 0.0147 0.0000
vt 0.9814 0.0152 0.0000
vt 0.9813 0.0158 0.0000
vt 0.9808 0.0155 0.0000
vt 0.9804 0.0171 0.0000
vt 0.9805 0.0164 0.0000
vt 0.9811 0.0172 0.0000
vt 0.9812 0.0164 0.0000
vt 0.9810 0.0175 0.0000
vt 0.9793 0.0192 0.0000
vt 0.9794 0.0190 0.0000
vt 0.9796 0.0192 0.0000
vt 0.9809 0.0179 0.0000
vt 0.9807 0.0185 0.0000
vt 0.9801 0.0177 0.0000
vt 0.9799 0.0182 0.0000
vt 0.9807 0.0186 0.0000
vt 0.9800 0.0192 0.0000
vt 0.9796 0.0188 0.0000
vt 0.9806 0.0138 0.0000
vt 0.9807 0.0129 0.0000
vt 0.9805 0.0147 0.0000
vt 0.9791 0.0189 0.0000
vt 0.9798 0.0185 0.0000
vt 0.9815 0.0134 0.0000
vt 0.9805 0.0189 0.0000
vt 0.9810 0.0178 0.0000
vt 0.9802 0.0192 0.0000
# 141 texture coords

g U803_1A_182C_C_1_D_U803_1A_182C_C
usemtl diffuse_black_plasticSG
s off
f 1/1/1 2/2/2 3/3/3 
s 1
f 4/4/4 5/5/5 6/6/6 
f 6/6/6 5/5/5 7/7/7 
f 8/8/8 9/9/9 10/10/10 
f 10/10/10 9/9/9 11/11/11 
f 12/12/12 13/12/13 14/13/14 
f 14/13/14 13/12/13 15/14/15 
f 16/15/16 17/16/17 18/17/18 
f 18/17/18 17/16/17 19/18/19 
f 20/19/20 21/20/21 22/21/22 
f 22/21/22 21/20/21 23/22/23 
f 24/23/24 25/24/25 26/25/26 
f 26/25/26 25/24/25 27/26/27 
f 26/25/26 27/26/27 28/27/28 
f 28/27/28 27/26/27 29/28/29 
f 28/27/28 29/28/29 30/29/30 
f 30/29/30 29/28/29 31/30/31 
s 7
f 32/31/32 33/32/33 34/33/34 
f 34/33/34 33/32/33 35/34/35 
s 8
f 36/35/36 37/36/37 38/37/38 
f 38/37/38 37/36/37 30/38/37 
s 9
f 39/39/39 40/40/40 1/1/1 
f 1/1/1 40/40/40 2/2/2 
s 10
f 41/41/41 42/42/42 43/43/43 
f 43/43/43 42/42/42 44/44/44 
s off
f 45/45/45 46/46/46 47/47/47 
s 11
f 48/48/48 49/49/49 50/50/50 
f 50/50/50 49/49/49 51/51/51 
s off
f 49/49/49 48/48/48 52/52/52 
f 37/53/53 36/54/54 53/55/55 
s 12
f 54/56/56 55/57/57 56/58/58 
f 56/58/58 55/57/57 57/59/59 
s off
f 54/56/56 58/60/60 55/57/57 
s 13
f 33/61/61 59/62/62 36/54/54 
f 36/54/54 59/62/62 53/55/55 
s 1
f 60/63/63 15/14/15 61/64/64 
f 61/64/64 15/14/15 13/12/13 
f 62/18/65 19/18/19 63/65/66 
f 63/65/66 19/18/19 17/16/17 
f 64/22/67 23/22/23 65/20/68 
f 65/20/68 23/22/23 21/20/21 
f 5/5/5 66/5/69 7/7/7 
f 7/7/7 66/5/69 67/7/70 
f 9/9/9 68/9/71 11/11/11 
f 11/11/11 68/9/71 69/11/72 
f 25/24/25 70/24/73 27/26/27 
f 27/26/27 70/24/73 71/66/74 
f 56/58/75 4/4/4 54/56/76 
f 54/56/76 4/4/4 6/6/6 
f 72/67/77 8/8/8 59/62/78 
f 59/62/78 8/8/8 10/10/10 
f 39/39/79 12/12/12 43/43/80 
f 43/43/80 12/12/12 14/13/14 
f 41/41/81 16/15/16 46/46/82 
f 46/46/82 16/15/16 18/17/18 
f 50/50/83 20/19/20 48/48/84 
f 48/48/84 20/19/20 22/21/22 
f 59/62/78 10/10/10 53/55/85 
f 53/55/85 10/10/10 24/23/24 
f 28/27/28 37/53/86 26/25/26 
f 26/25/26 37/53/86 53/55/85 
s off
f 28/27/28 30/29/30 37/53/86 
s 1
f 17/16/17 16/15/16 15/14/15 
f 15/14/15 16/15/16 14/13/14 
f 63/65/66 17/16/17 60/63/63 
f 60/63/63 17/16/17 15/14/15 
f 16/15/16 41/41/81 14/13/14 
f 14/13/14 41/41/81 43/43/80 
f 13/12/13 12/12/12 73/68/87 
f 73/68/87 12/12/12 74/69/88 
f 61/64/64 13/12/13 75/70/89 
f 75/70/89 13/12/13 73/68/87 
f 12/12/12 39/39/79 74/69/88 
f 74/69/88 39/39/79 1/1/90 
s 18
f 39/39/39 43/43/43 76/71/91 
f 76/71/91 43/43/43 44/44/44 
s 1
f 21/20/21 20/19/20 19/18/19 
f 19/18/19 20/19/20 18/17/18 
f 65/20/68 21/20/21 62/18/65 
f 62/18/65 21/20/21 19/18/19 
f 20/19/20 50/50/83 18/17/18 
f 18/17/18 50/50/83 46/46/82 
f 5/5/5 4/4/4 23/22/23 
f 23/22/23 4/4/4 22/21/22 
f 66/5/69 5/5/5 64/22/67 
f 64/22/67 5/5/5 23/22/23 
f 4/4/4 56/58/75 22/21/22 
f 22/21/22 56/58/75 48/48/84 
f 9/9/9 8/8/8 7/7/7 
f 7/7/7 8/8/8 6/6/6 
f 68/9/71 9/9/9 67/7/70 
f 67/7/70 9/9/9 7/7/7 
f 8/8/8 72/67/77 6/6/6 
f 6/6/6 72/67/77 54/56/76 
s 19
f 72/67/92 77/72/93 54/56/56 
f 54/56/56 77/72/93 58/60/60 
s 20
f 52/52/52 48/48/48 78/73/94 
f 78/73/94 48/48/48 56/58/58 
s off
f 56/58/58 57/59/59 78/73/94 
s 1
f 25/24/25 24/23/24 11/11/11 
f 11/11/11 24/23/24 10/10/10 
f 70/24/73 25/24/25 69/11/72 
f 69/11/72 25/24/25 11/11/11 
s 21
f 33/32/33 36/35/36 35/34/35 
f 35/34/35 36/35/36 38/37/38 
s off
f 59/62/62 33/61/61 32/74/95 
s 22
f 59/62/62 32/74/95 72/67/92 
f 72/67/92 32/74/95 77/72/93 
s 1
f 53/55/85 24/23/24 26/25/26 
s 23
f 42/42/42 41/41/41 45/45/45 
f 45/45/45 41/41/41 46/46/46 
s off
f 40/40/40 39/39/39 76/71/91 
s 24
f 47/47/47 46/46/46 51/51/51 
f 51/51/51 46/46/46 50/50/50 
s off
f 32/31/32 34/33/34 79/33/96 
f 1/1/1 3/3/3 80/75/97 
s 1
f 81/76/98 82/77/99 83/78/100 
f 83/78/100 82/77/99 84/79/101 
f 85/80/102 86/81/103 87/82/104 
f 87/82/104 86/81/103 88/83/105 
f 89/84/106 90/85/107 91/86/108 
f 91/86/108 90/85/107 92/85/109 
f 93/87/110 94/88/111 95/89/112 
f 95/89/112 94/88/111 96/90/113 
f 97/91/114 98/92/115 99/93/116 
f 99/93/116 98/92/115 100/94/117 
f 101/95/118 102/96/119 103/95/120 
f 103/95/120 102/96/119 104/97/121 
f 105/98/122 101/95/118 106/99/123 
f 106/99/123 101/95/118 103/95/120 
f 107/100/124 105/98/122 108/101/125 
f 108/101/125 105/98/122 106/99/123 
s 31
f 109/102/126 110/103/127 111/104/128 
f 111/104/128 110/103/127 112/105/129 
s 32
f 108/106/130 113/107/130 114/108/131 
f 114/108/131 113/107/130 115/108/132 
s 33
f 80/75/97 116/109/133 1/1/1 
f 1/1/1 116/109/133 117/110/134 
s 34
f 118/111/135 119/112/136 120/113/137 
f 120/113/137 119/112/136 121/114/138 
s off
f 122/115/139 123/116/140 124/117/141 
s 35
f 125/118/142 126/119/143 127/120/144 
f 127/120/144 126/119/143 128/121/145 
s off
f 127/120/144 129/122/146 125/118/142 
f 113/123/147 130/124/148 115/125/149 
s 36
f 131/126/150 132/127/151 133/128/152 
f 133/128/152 132/127/151 134/129/153 
s off
f 134/129/153 132/127/151 135/130/154 
s 37
f 110/131/155 115/125/149 136/132/156 
f 136/132/156 115/125/149 130/124/148 
s 1
f 137/133/157 138/134/158 89/84/106 
f 89/84/106 138/134/158 90/85/107 
f 139/87/159 140/135/160 93/87/110 
f 93/87/110 140/135/160 94/88/111 
f 141/91/161 142/92/162 97/91/114 
f 97/91/114 142/92/162 98/92/115 
f 143/76/163 144/77/164 81/76/98 
f 81/76/98 144/77/164 82/77/99 
f 145/80/165 146/81/166 85/80/102 
f 85/80/102 146/81/166 86/81/103 
f 147/136/167 148/96/168 101/95/118 
f 101/95/118 148/96/168 102/96/119 
f 83/78/100 84/79/101 134/129/169 
f 134/129/169 84/79/101 133/128/170 
f 87/82/104 88/83/105 136/132/171 
f 136/132/171 88/83/105 149/137/172 
f 91/86/108 92/85/109 120/113/173 
f 120/113/173 92/85/109 117/110/174 
f 95/89/112 96/90/113 124/117/175 
f 124/117/175 96/90/113 121/114/176 
f 99/93/116 100/94/117 125/118/177 
f 125/118/177 100/94/117 126/119/178 
f 104/97/121 87/82/104 130/124/179 
f 130/124/179 87/82/104 136/132/171 
f 130/124/179 113/123/180 103/95/120 
f 103/95/120 113/123/180 106/99/123 
s off
f 106/99/123 113/123/180 108/101/125 
s 1
f 91/86/108 96/90/113 89/84/106 
f 89/84/106 96/90/113 94/88/111 
f 89/84/106 94/88/111 137/133/157 
f 137/133/157 94/88/111 140/135/160 
f 120/113/173 121/114/176 91/86/108 
f 91/86/108 121/114/176 96/90/113 
f 74/69/88 92/85/109 73/68/87 
f 73/68/87 92/85/109 90/85/107 
f 73/68/87 90/85/107 75/70/89 
f 75/70/89 90/85/107 138/134/158 
f 1/1/90 117/110/174 74/69/88 
f 74/69/88 117/110/174 92/85/109 
s 38
f 118/111/135 120/113/137 150/138/181 
f 150/138/181 120/113/137 117/110/134 
s 1
f 95/89/112 100/94/117 93/87/110 
f 93/87/110 100/94/117 98/92/115 
f 142/92/162 139/87/159 98/92/115 
f 98/92/115 139/87/159 93/87/110 
f 124/117/175 126/119/178 95/89/112 
f 95/89/112 126/119/178 100/94/117 
f 99/93/116 84/79/101 97/91/114 
f 97/91/114 84/79/101 82/77/99 
f 97/91/114 82/77/99 141/91/161 
f 141/91/161 82/77/99 144/77/164 
f 125/118/177 133/128/170 99/93/116 
f 99/93/116 133/128/170 84/79/101 
f 83/78/100 88/83/105 81/76/98 
f 81/76/98 88/83/105 86/81/103 
f 81/76/98 86/81/103 143/76/163 
f 143/76/163 86/81/103 146/81/166 
f 134/129/169 149/137/172 83/78/100 
f 83/78/100 149/137/172 88/83/105 
s 39
f 135/130/154 151/139/182 134/129/153 
f 134/129/153 151/139/182 149/137/183 
s 40
f 133/128/152 125/118/142 152/140/184 
f 152/140/184 125/118/142 129/122/146 
s off
f 133/128/152 152/140/184 131/126/150 
s 1
f 87/82/104 104/97/121 85/80/102 
f 85/80/102 104/97/121 102/96/119 
f 85/80/102 102/96/119 145/80/165 
f 145/80/165 102/96/119 148/96/168 
s 41
f 114/108/131 115/108/132 109/102/126 
f 109/102/126 115/108/132 110/103/127 
s off
f 136/132/156 112/141/185 110/131/155 
s 42
f 151/139/182 112/141/185 149/137/183 
f 149/137/183 112/141/185 136/132/156 
s 1
f 130/124/179 103/95/120 104/97/121 
s 43
f 124/117/141 121/114/138 122/115/139 
f 122/115/139 121/114/138 119/112/136 
s off
f 116/109/133 150/138/181 117/110/134 
s 44
f 126/119/143 124/117/141 128/121/145 
f 128/121/145 124/117/141 123/116/140 
s off
f 112/105/129 153/104/186 111/104/128 
# 230 faces

