# 3ds Max Wavefront OBJ Exporter v0.97b - (c)2007 guruware
# File Created: 11.01.2016 11:31:32

mtllib Z166_18A5_L.mtl

#
# object Z166_18A5_L_2_D_Z166_18A5_L
#

v  28.0644 91.2030 -73.0113
v  36.1332 88.7468 -74.5390
v  27.9658 91.1925 -73.3179
v  35.4381 88.6751 -76.5200
v  27.3360 91.1335 -75.3057
v  19.9639 93.2219 -72.1663
v  19.3768 93.1515 -74.3360
v  11.7260 94.9276 -71.3161
v  11.2328 94.8312 -73.6420
v  -39.8383 98.7659 -68.5284
v  -28.1572 98.6029 -68.8790
v  -39.8419 98.6434 -70.4659
v  -28.1794 98.4909 -70.6630
v  -51.7937 98.6674 -68.5287
v  -51.7946 98.5311 -70.5648
v  -63.9411 98.3430 -68.5296
v  -63.9420 98.1680 -70.8315
v  -76.2172 97.7109 -68.5308
v  -76.2182 97.4988 -70.9465
v  -16.9546 98.0622 -70.8596
v  -16.8896 98.1621 -69.2181
v  -6.3622 97.4192 -69.5531
v  -6.4903 97.3341 -71.0410
v  2.9811 96.2913 -71.1537
v  3.1778 96.3606 -69.8487
v  11.9027 94.9659 -70.5146
v  20.1527 93.2480 -71.4958
v  -63.9424 98.0990 -71.6684
v  -76.2186 97.4159 -71.7963
v  -51.7950 98.4536 -71.6673
v  -39.8441 98.5595 -71.7296
v  -28.1952 98.3993 -72.0441
v  -17.0074 97.9691 -72.2946
v  -6.6166 97.2403 -72.5969
v  2.6965 96.1893 -73.1270
v  19.2745 93.1483 -74.7634
v  27.1374 91.1254 -75.9884
v  35.1507 88.6445 -77.3573
v  -39.8384 98.6536 -68.5212
v  -28.1600 98.4907 -68.8721
v  -51.7918 98.5552 -68.5210
v  -63.9366 98.2310 -68.5210
v  -76.2096 97.5992 -68.5208
v  -16.8956 98.0500 -69.2110
v  -6.3722 97.3075 -69.5457
v  3.1632 96.2494 -69.8404
v  11.8833 94.8555 -70.5051
v  20.1268 93.1391 -71.4840
v  28.0364 91.0949 -72.9988
v  36.1002 88.6405 -74.5236
v  -63.9377 97.9870 -71.6591
v  -76.2108 97.3043 -71.7856
v  -51.7929 98.3413 -71.6592
v  -39.8442 98.4473 -71.7221
v  -28.1979 98.2871 -72.0366
v  -17.0133 97.8569 -72.2872
v  -6.6265 97.1285 -72.5895
v  2.6818 96.0781 -73.1191
v  11.2131 94.7207 -73.6348
v  19.2500 93.0388 -74.7562
v  27.1086 91.0171 -75.9778
v  35.1174 88.5382 -77.3416
# 62 vertices

vn 0.2507 0.9614 -0.1138
vn 0.2669 0.9552 -0.1282
vn 0.2527 0.9612 -0.1104
vn 0.2684 0.9550 -0.1267
vn 0.2526 0.9621 -0.1025
vn 0.2137 0.9726 -0.0919
vn 0.2131 0.9734 -0.0841
vn 0.1733 0.9816 -0.0796
vn 0.1716 0.9821 -0.0770
vn 0.0017 0.9980 -0.0631
vn 0.0241 0.9977 -0.0629
vn 0.0016 0.9979 -0.0644
vn 0.0243 0.9976 -0.0644
vn -0.0178 0.9976 -0.0666
vn -0.0183 0.9975 -0.0683
vn -0.0397 0.9964 -0.0753
vn -0.0403 0.9961 -0.0779
vn -0.0532 0.9949 -0.0860
vn -0.0536 0.9945 -0.0897
vn 0.0520 0.9966 -0.0645
vn 0.0520 0.9967 -0.0627
vn 0.0878 0.9940 -0.0646
vn 0.0873 0.9940 -0.0657
vn 0.1298 0.9890 -0.0707
vn 0.1302 0.9888 -0.0722
vn 0.1732 0.9812 -0.0851
vn 0.2127 0.9722 -0.0978
vn -0.0414 0.9957 -0.0824
vn -0.0543 0.9938 -0.0969
vn -0.0188 0.9973 -0.0704
vn 0.0016 0.9978 -0.0663
vn 0.0243 0.9975 -0.0664
vn 0.0517 0.9964 -0.0666
vn 0.0867 0.9940 -0.0670
vn 0.1286 0.9892 -0.0697
vn 0.2171 0.9744 -0.0592
vn 0.2569 0.9626 -0.0861
vn 0.2708 0.9543 -0.1264
vn 0.0150 0.0642 0.9978
vn 0.0316 0.0611 0.9976
vn 0.0150 0.0641 0.9978
vn 0.0316 0.0610 0.9976
vn -0.0012 0.0680 0.9977
vn -0.0031 0.0769 0.9970
vn -0.0046 0.0887 0.9960
vn -0.0046 0.0887 0.9961
vn 0.0342 0.0614 0.9975
vn 0.0369 0.0624 0.9974
vn 0.0369 0.0625 0.9974
vn 0.0612 0.0658 0.9960
vn 0.1083 0.0662 0.9919
vn 0.1670 0.0666 0.9837
vn 0.1679 0.0664 0.9836
vn 0.2029 0.0602 0.9773
vn 0.2080 0.0769 0.9751
vn 0.2030 0.0603 0.9773
vn 0.2081 0.0771 0.9751
vn 0.0087 -0.0823 -0.9966
vn 0.0156 -0.0939 -0.9955
vn 0.0156 -0.0940 -0.9955
vn -0.0012 -0.0719 -0.9974
vn -0.0161 -0.0667 -0.9976
vn -0.0264 -0.0662 -0.9975
vn -0.0290 -0.0649 -0.9975
vn -0.0477 -0.0624 -0.9969
vn -0.0478 -0.0624 -0.9969
vn -0.0667 -0.0621 -0.9958
vn -0.1065 -0.0457 -0.9933
vn -0.1065 -0.0458 -0.9933
vn -0.1530 -0.0311 -0.9877
vn -0.1746 -0.0497 -0.9834
vn -0.1745 -0.0495 -0.9834
vn -0.1924 -0.0835 -0.9778
vn -0.1923 -0.0832 -0.9778
# 74 vertex normals

vt 21761.2070 0.0000 0.0000
# 1 texture coords

g Z166_18A5_L_2_D_Z166_18A5_L
usemtl diffuse_black_plasticSG
s 1
f 1/1/1 2/1/2 3/1/3 
f 2/1/2 4/1/4 3/1/3 
f 3/1/3 4/1/4 5/1/5 
f 6/1/6 7/1/7 8/1/8 
f 8/1/8 7/1/7 9/1/9 
f 3/1/3 5/1/5 6/1/6 
f 6/1/6 5/1/5 7/1/7 
f 10/1/10 11/1/11 12/1/12 
f 12/1/12 11/1/11 13/1/13 
f 10/1/10 12/1/12 14/1/14 
f 14/1/14 12/1/12 15/1/15 
f 14/1/14 15/1/15 16/1/16 
f 16/1/16 15/1/15 17/1/17 
f 16/1/16 17/1/17 18/1/18 
f 18/1/18 17/1/17 19/1/19 
f 20/1/20 13/1/13 21/1/21 
f 21/1/21 13/1/13 11/1/11 
f 22/1/22 23/1/23 21/1/21 
f 21/1/21 23/1/23 20/1/20 
f 23/1/23 22/1/22 24/1/24 
f 24/1/24 22/1/22 25/1/25 
f 26/1/26 8/1/8 25/1/25 
f 25/1/25 8/1/8 24/1/24 
f 8/1/8 26/1/26 6/1/6 
f 6/1/6 26/1/26 27/1/27 
f 1/1/1 3/1/3 27/1/27 
f 27/1/27 3/1/3 6/1/6 
f 17/1/17 28/1/28 19/1/19 
f 19/1/19 28/1/28 29/1/29 
f 15/1/15 30/1/30 17/1/17 
f 17/1/17 30/1/30 28/1/28 
f 12/1/12 31/1/31 15/1/15 
f 15/1/15 31/1/31 30/1/30 
f 32/1/32 31/1/31 13/1/13 
f 13/1/13 31/1/31 12/1/12 
f 13/1/13 20/1/20 32/1/32 
f 32/1/32 20/1/20 33/1/33 
f 23/1/23 34/1/34 20/1/20 
f 20/1/20 34/1/34 33/1/33 
f 24/1/24 35/1/35 23/1/23 
f 23/1/23 35/1/35 34/1/34 
f 8/1/8 9/1/9 24/1/24 
f 24/1/24 9/1/9 35/1/35 
f 36/1/36 9/1/9 7/1/7 
f 36/1/36 7/1/7 37/1/37 
f 37/1/37 7/1/7 5/1/5 
f 37/1/37 5/1/5 38/1/38 
f 38/1/38 5/1/5 4/1/4 
s 6
f 39/1/39 40/1/40 10/1/41 
f 10/1/41 40/1/40 11/1/42 
f 41/1/43 39/1/39 14/1/43 
f 14/1/43 39/1/39 10/1/41 
f 42/1/44 41/1/43 16/1/44 
f 16/1/44 41/1/43 14/1/43 
f 43/1/45 42/1/44 18/1/46 
f 18/1/46 42/1/44 16/1/44 
f 40/1/40 44/1/47 11/1/42 
f 11/1/42 44/1/47 21/1/47 
f 44/1/47 45/1/48 21/1/47 
f 21/1/47 45/1/48 22/1/49 
f 45/1/48 46/1/50 22/1/49 
f 22/1/49 46/1/50 25/1/50 
f 46/1/50 47/1/51 25/1/50 
f 25/1/50 47/1/51 26/1/51 
f 47/1/51 48/1/52 26/1/51 
f 26/1/51 48/1/52 27/1/53 
f 49/1/54 50/1/55 1/1/56 
f 1/1/56 50/1/55 2/1/57 
f 48/1/52 49/1/54 27/1/53 
f 27/1/53 49/1/54 1/1/56 
s 8
f 51/1/58 52/1/59 28/1/58 
f 28/1/58 52/1/59 29/1/60 
f 53/1/61 51/1/58 30/1/61 
f 30/1/61 51/1/58 28/1/58 
f 54/1/62 53/1/61 31/1/62 
f 31/1/62 53/1/61 30/1/61 
f 55/1/63 54/1/62 32/1/63 
f 32/1/63 54/1/62 31/1/62 
f 56/1/64 55/1/63 33/1/64 
f 33/1/64 55/1/63 32/1/63 
f 57/1/65 56/1/64 34/1/66 
f 34/1/66 56/1/64 33/1/64 
f 58/1/67 57/1/65 35/1/67 
f 35/1/67 57/1/65 34/1/66 
f 59/1/68 58/1/67 9/1/69 
f 9/1/69 58/1/67 35/1/67 
f 60/1/70 59/1/68 36/1/70 
f 36/1/70 59/1/68 9/1/69 
f 61/1/71 60/1/70 37/1/72 
f 37/1/72 60/1/70 36/1/70 
f 62/1/73 61/1/71 38/1/74 
f 38/1/74 61/1/71 37/1/72 
# 92 faces

#
# object Z166_18A5_L_Z166_18A5_L_1_DaS
#

v  26.7969 91.0044 -77.0490
v  27.1086 91.0171 -75.9778
v  34.8280 88.5075 -78.1840
v  35.1174 88.5382 -77.3416
v  10.8824 94.6835 -75.4415
v  11.2131 94.7207 -73.6348
v  18.9220 93.0287 -76.1274
v  19.2500 93.0388 -74.7562
v  -6.7718 96.9814 -74.7819
v  -6.6636 97.1010 -73.0458
v  2.4490 95.9905 -75.0325
v  2.6624 96.0711 -73.2543
v  2.6818 96.0781 -73.1191
v  -6.6265 97.1285 -72.5894
v  -28.2184 98.1095 -74.4062
v  -28.2054 98.2434 -72.6957
v  -17.0781 97.6850 -74.5669
v  -17.0344 97.8197 -72.8611
v  -28.1979 98.2871 -72.0366
v  -17.0133 97.8569 -72.2872
v  34.0640 87.6617 -80.0979
v  32.9266 85.9373 -82.4825
v  26.1176 90.1072 -79.0267
v  25.1643 88.2330 -81.4566
v  18.3448 92.0866 -78.1398
v  17.5518 90.0665 -80.6147
v  10.4373 93.6822 -77.4530
v  9.8240 91.5344 -79.9397
v  -6.9071 95.8171 -76.7191
v  2.1672 94.9056 -77.0094
v  -7.0941 93.3931 -79.1634
v  1.7772 92.6146 -79.4751
v  -28.2330 96.8801 -76.3446
v  -17.1286 96.4748 -76.4886
v  -28.2520 94.3144 -78.8283
v  -17.1978 93.9604 -78.9418
v  -39.8478 98.2572 -74.3361
v  -39.8457 98.3907 -72.5754
v  -51.7932 98.2819 -72.5034
v  -51.7938 98.1311 -74.3212
v  -51.7929 98.3413 -71.6593
v  -39.8443 98.4473 -71.7220
v  -28.2621 91.1096 -81.3817
v  -39.8488 91.2169 -81.3973
v  -39.8523 94.4282 -78.8381
v  -51.7910 91.0764 -81.4482
v  -51.7944 94.2683 -78.8958
v  -39.8502 97.0191 -76.3196
v  -51.7944 96.8750 -76.3507
v  26.5527 90.8895 -77.8641
v  34.5490 88.3821 -78.9626
v  10.7265 94.5513 -76.2775
v  18.7174 92.9126 -76.9630
v  -6.8189 96.7956 -75.5775
v  2.3510 95.8305 -75.8508
v  -28.2235 97.9103 -75.1935
v  -17.0956 97.4877 -75.3489
v  -39.8487 98.0572 -75.1503
v  -51.7940 97.9213 -75.1649
v  -63.9386 97.7211 -74.3353
v  -63.9389 97.4865 -75.1930
v  -76.2117 96.9682 -74.4621
v  -76.2119 96.7023 -75.3234
v  -63.9393 96.4236 -76.3878
v  -76.2123 95.6147 -76.5291
v  -63.9404 90.4678 -81.6143
v  -63.9400 93.7961 -78.9460
v  -76.2176 89.6571 -81.7666
v  -76.2136 92.9578 -79.1046
v  -76.2111 97.2237 -72.6133
v  -63.9380 97.9184 -72.4922
v  -63.9377 97.9870 -71.6591
v  -76.2108 97.3042 -71.7857
v  -17.2482 90.9347 -81.3764
v  -7.2441 90.4025 -81.6424
v  1.4560 89.7871 -81.9556
v  9.3180 88.9451 -82.3797
v  16.8723 87.7345 -82.9839
v  24.1390 86.1151 -83.8187
v  20.5641 86.9742 -83.3503
v  31.2645 84.1358 -84.5852
v  28.4462 84.9428 -84.2317
v  25.5815 85.7308 -83.9238
# 83 vertices

vn 0.2534 0.9575 -0.1381
vn 0.2618 0.9611 -0.0886
vn 0.2925 0.9369 -0.1914
vn 0.3038 0.9425 -0.1394
vn 0.1702 0.9809 -0.0938
vn 0.1757 0.9831 -0.0523
vn 0.2132 0.9713 -0.1056
vn 0.2200 0.9736 -0.0603
vn 0.0826 0.9888 -0.1239
vn 0.0858 0.9937 -0.0716
vn 0.1246 0.9865 -0.1059
vn 0.1294 0.9898 -0.0602
vn 0.1305 0.9890 -0.0697
vn 0.0873 0.9939 -0.0669
vn 0.0236 0.9910 -0.1320
vn 0.0242 0.9969 -0.0749
vn 0.0494 0.9899 -0.1328
vn 0.0511 0.9958 -0.0763
vn 0.0240 0.9975 -0.0664
vn 0.0517 0.9964 -0.0666
vn 0.1710 0.7706 -0.6139
vn 0.1483 0.7308 -0.6663
vn 0.1381 0.7713 -0.6213
vn 0.1189 0.7411 -0.6608
vn 0.1101 0.7679 -0.6310
vn 0.0866 0.7304 -0.6775
vn 0.0859 0.7599 -0.6444
vn 0.0636 0.7098 -0.7015
vn 0.0386 0.7228 -0.6900
vn 0.0578 0.7424 -0.6675
vn 0.0278 0.6724 -0.7396
vn 0.0403 0.6906 -0.7221
vn 0.0120 0.7111 -0.7030
vn 0.0232 0.7132 -0.7006
vn 0.0104 0.6580 -0.7530
vn 0.0176 0.6618 -0.7495
vn 0.0003 0.9917 -0.1284
vn 0.0007 0.9973 -0.0728
vn -0.0196 0.9967 -0.0788
vn -0.0206 0.9907 -0.1347
vn -0.0192 0.9973 -0.0702
vn 0.0010 0.9978 -0.0663
vn 0.0091 0.6235 -0.7818
vn 0.0011 0.6234 -0.7819
vn 0.0006 0.6588 -0.7523
vn -0.0128 0.6246 -0.7809
vn -0.0138 0.6603 -0.7509
vn -0.0001 0.7129 -0.7013
vn -0.0154 0.7144 -0.6995
vn 0.1897 0.8699 -0.4554
vn 0.2244 0.8571 -0.4637
vn 0.1248 0.8792 -0.4597
vn 0.1571 0.8784 -0.4514
vn 0.0575 0.8553 -0.5149
vn 0.0907 0.8698 -0.4851
vn 0.0166 0.8451 -0.5343
vn 0.0343 0.8460 -0.5321
vn -0.0003 0.8488 -0.5287
vn -0.0187 0.8505 -0.5256
vn -0.0449 0.9864 -0.1582
vn -0.0384 0.8453 -0.5328
vn -0.0717 0.9795 -0.1885
vn -0.0564 0.8364 -0.5452
vn -0.0316 0.7129 -0.7006
vn -0.0442 0.7102 -0.7027
vn -0.0268 0.6255 -0.7797
vn -0.0288 0.6596 -0.7511
vn -0.0355 0.6280 -0.7774
vn -0.0391 0.6600 -0.7502
vn -0.0714 0.9898 -0.1232
vn -0.0436 0.9942 -0.0980
vn -0.0422 0.9958 -0.0817
vn -0.0702 0.9929 -0.0963
vn 0.0136 0.6279 -0.7782
vn 0.0197 0.6399 -0.7682
vn 0.0302 0.6603 -0.7504
vn 0.0480 0.6830 -0.7288
vn 0.0618 0.7024 -0.7091
vn 0.1017 0.7157 -0.6910
vn 0.0751 0.7007 -0.7094
vn 0.1303 0.6994 -0.7027
vn 0.1151 0.7050 -0.6998
vn 0.1240 0.7071 -0.6962
# 83 vertex normals

vt 0.5253 0.7381 0.0000
vt 0.5260 0.7365 0.0000
vt 0.5373 0.7423 0.0000
vt 0.5380 0.7411 0.0000
vt 0.5003 0.7328 0.0000
vt 0.5010 0.7300 0.0000
vt 0.5130 0.7350 0.0000
vt 0.5137 0.7329 0.0000
vt 0.4725 0.7301 0.0000
vt 0.4728 0.7274 0.0000
vt 0.4870 0.7313 0.0000
vt 0.4875 0.7286 0.0000
vt 0.4875 0.7284 0.0000
vt 0.4729 0.7267 0.0000
vt 0.4387 0.7284 0.0000
vt 0.4387 0.7257 0.0000
vt 0.4563 0.7291 0.0000
vt 0.4565 0.7264 0.0000
vt 0.4388 0.7247 0.0000
vt 0.4565 0.7255 0.0000
vt 0.5359 0.7454 0.0000
vt 0.5340 0.7496 0.0000
vt 0.5240 0.7414 0.0000
vt 0.5225 0.7459 0.0000
vt 0.5120 0.7385 0.0000
vt 0.5109 0.7434 0.0000
vt 0.4996 0.7364 0.0000
vt 0.4988 0.7416 0.0000
vt 0.4723 0.7338 0.0000
vt 0.4866 0.7350 0.0000
vt 0.4720 0.7392 0.0000
vt 0.4860 0.7402 0.0000
vt 0.4386 0.7321 0.0000
vt 0.4562 0.7328 0.0000
vt 0.4386 0.7377 0.0000
vt 0.4561 0.7383 0.0000
vt 0.4202 0.7282 0.0000
vt 0.4202 0.7254 0.0000
vt 0.4013 0.7256 0.0000
vt 0.4014 0.7284 0.0000
vt 0.4013 0.7242 0.0000
vt 0.4202 0.7240 0.0000
vt 0.4386 0.7442 0.0000
vt 0.4203 0.7441 0.0000
vt 0.4203 0.7376 0.0000
vt 0.4014 0.7443 0.0000
vt 0.4014 0.7379 0.0000
vt 0.4202 0.7320 0.0000
vt 0.4014 0.7323 0.0000
vt 0.5247 0.7393 0.0000
vt 0.5367 0.7434 0.0000
vt 0.5000 0.7341 0.0000
vt 0.5126 0.7363 0.0000
vt 0.4724 0.7314 0.0000
vt 0.4868 0.7326 0.0000
vt 0.4387 0.7297 0.0000
vt 0.4562 0.7304 0.0000
vt 0.4202 0.7295 0.0000
vt 0.4014 0.7298 0.0000
vt 0.3826 0.7291 0.0000
vt 0.3826 0.7305 0.0000
vt 0.3640 0.7303 0.0000
vt 0.3641 0.7317 0.0000
vt 0.3826 0.7329 0.0000
vt 0.3641 0.7341 0.0000
vt 0.3826 0.7450 0.0000
vt 0.3827 0.7385 0.0000
vt 0.3641 0.7460 0.0000
vt 0.3641 0.7397 0.0000
vt 0.3639 0.7275 0.0000
vt 0.3824 0.7263 0.0000
vt 0.3824 0.7250 0.0000
vt 0.3638 0.7262 0.0000
vt 0.4560 0.7444 0.0000
vt 0.4718 0.7453 0.0000
vt 0.4857 0.7461 0.0000
vt 0.4982 0.7471 0.0000
vt 0.5101 0.7485 0.0000
vt 0.5211 0.7506 0.0000
vt 0.5157 0.7494 0.0000
vt 0.5316 0.7535 0.0000
vt 0.5274 0.7523 0.0000
vt 0.5232 0.7511 0.0000
# 83 texture coords

g Z166_18A5_L_Z166_18A5_L_1_DaS
usemtl paint_whiteSG
s 1
f 63/2/75 64/3/76 65/4/77 
f 65/4/77 64/3/76 66/5/78 
f 67/6/79 68/7/80 69/8/81 
f 69/8/81 68/7/80 70/9/82 
f 69/8/81 70/9/82 63/2/75 
f 63/2/75 70/9/82 64/3/76 
f 71/10/83 72/11/84 73/12/85 
f 73/12/85 72/11/84 74/13/86 
f 75/14/87 74/13/86 76/15/88 
f 76/15/88 74/13/86 72/11/84 
f 75/14/87 68/7/80 74/13/86 
f 73/12/85 74/13/86 67/6/79 
f 67/6/79 74/13/86 68/7/80 
f 77/16/89 78/17/90 79/18/91 
f 79/18/91 78/17/90 80/19/92 
f 81/20/93 82/21/94 78/17/90 
f 78/17/90 82/21/94 80/19/92 
f 76/15/88 72/11/84 82/21/94 
f 82/21/94 72/11/84 80/19/92 
f 79/18/91 80/19/92 71/10/83 
f 71/10/83 80/19/92 72/11/84 
f 83/22/95 84/23/96 85/24/97 
f 85/24/97 84/23/96 86/25/98 
f 87/26/99 88/27/100 89/28/101 
f 89/28/101 88/27/100 90/29/102 
f 85/24/97 86/25/98 87/26/99 
f 87/26/99 86/25/98 88/27/100 
f 91/30/103 92/31/104 93/32/105 
f 93/32/105 92/31/104 94/33/106 
f 89/28/101 90/29/102 92/31/104 
f 92/31/104 90/29/102 94/33/106 
f 95/34/107 96/35/108 97/36/109 
f 97/36/109 96/35/108 98/37/110 
f 93/32/105 98/37/110 91/30/103 
f 91/30/103 98/37/110 96/35/108 
f 77/16/89 99/38/111 78/17/90 
f 78/17/90 99/38/111 100/39/112 
f 101/40/113 100/39/112 102/41/114 
f 102/41/114 100/39/112 99/38/111 
f 103/42/115 104/43/116 101/40/113 
f 101/40/113 104/43/116 100/39/112 
f 78/17/90 100/39/112 81/20/93 
f 81/20/93 100/39/112 104/43/116 
f 105/44/117 106/45/118 97/36/109 
f 97/36/109 106/45/118 107/46/119 
f 108/47/120 109/48/121 106/45/118 
f 106/45/118 109/48/121 107/46/119 
f 110/49/122 107/46/119 111/50/123 
f 111/50/123 107/46/119 109/48/121 
f 97/36/109 107/46/119 95/34/107 
f 95/34/107 107/46/119 110/49/122 
f 85/24/97 112/51/124 83/22/95 
f 83/22/95 112/51/124 113/52/125 
f 65/4/77 113/52/125 63/2/75 
f 63/2/75 113/52/125 112/51/124 
f 89/28/101 114/53/126 87/26/99 
f 87/26/99 114/53/126 115/54/127 
f 69/8/81 115/54/127 67/6/79 
f 67/6/79 115/54/127 114/53/126 
f 63/2/75 112/51/124 69/8/81 
f 69/8/81 112/51/124 115/54/127 
f 87/26/99 115/54/127 85/24/97 
f 85/24/97 115/54/127 112/51/124 
f 91/30/103 116/55/128 92/31/104 
f 92/31/104 116/55/128 117/56/129 
f 73/12/85 117/56/129 71/10/83 
f 71/10/83 117/56/129 116/55/128 
f 67/6/79 114/53/126 73/12/85 
f 73/12/85 114/53/126 117/56/129 
f 92/31/104 117/56/129 89/28/101 
f 89/28/101 117/56/129 114/53/126 
f 118/57/130 119/58/131 95/34/107 
f 95/34/107 119/58/131 96/35/108 
f 77/16/89 79/18/91 118/57/130 
f 118/57/130 79/18/91 119/58/131 
f 71/10/83 116/55/128 79/18/91 
f 79/18/91 116/55/128 119/58/131 
f 91/30/103 96/35/108 116/55/128 
f 116/55/128 96/35/108 119/58/131 
f 95/34/107 110/49/122 118/57/130 
f 118/57/130 110/49/122 120/59/132 
f 111/50/123 121/60/133 110/49/122 
f 110/49/122 121/60/133 120/59/132 
f 102/41/114 99/38/111 121/60/133 
f 121/60/133 99/38/111 120/59/132 
f 118/57/130 120/59/132 77/16/89 
f 77/16/89 120/59/132 99/38/111 
f 122/61/134 123/62/135 124/63/136 
f 124/63/136 123/62/135 125/64/137 
f 102/41/114 121/60/133 122/61/134 
f 122/61/134 121/60/133 123/62/135 
f 126/65/138 123/62/135 111/50/123 
f 111/50/123 123/62/135 121/60/133 
f 127/66/139 125/64/137 126/65/138 
f 126/65/138 125/64/137 123/62/135 
f 128/67/140 129/68/141 108/47/120 
f 108/47/120 129/68/141 109/48/121 
f 130/69/142 131/70/143 128/67/140 
f 128/67/140 131/70/143 129/68/141 
f 126/65/138 129/68/141 127/66/139 
f 127/66/139 129/68/141 131/70/143 
f 111/50/123 109/48/121 126/65/138 
f 126/65/138 109/48/121 129/68/141 
f 124/63/136 132/71/144 122/61/134 
f 122/61/134 132/71/144 133/72/145 
f 134/73/146 133/72/145 135/74/147 
f 135/74/147 133/72/145 132/71/144 
f 103/42/115 101/40/113 134/73/146 
f 134/73/146 101/40/113 133/72/145 
f 122/61/134 133/72/145 102/41/114 
f 102/41/114 133/72/145 101/40/113 
f 136/75/148 105/44/117 98/37/110 
f 98/37/110 105/44/117 97/36/109 
f 137/76/149 136/75/148 93/32/105 
f 93/32/105 136/75/148 98/37/110 
f 138/77/150 137/76/149 94/33/106 
f 94/33/106 137/76/149 93/32/105 
f 139/78/151 138/77/150 90/29/102 
f 90/29/102 138/77/150 94/33/106 
f 140/79/152 139/78/151 88/27/100 
f 88/27/100 139/78/151 90/29/102 
f 86/25/98 141/80/153 88/27/100 
f 141/80/153 142/81/154 88/27/100 
f 142/81/154 140/79/152 88/27/100 
f 84/23/96 143/82/155 86/25/98 
f 143/82/155 144/83/156 86/25/98 
f 144/83/156 145/84/157 86/25/98 
f 86/25/98 145/84/157 141/80/153 
# 128 faces

#
# object Z166_18A5_L_Z166_18A5_L_1_DaS_E
#

v  -28.2621 91.1096 -81.3817
v  -17.2482 90.9347 -81.3764
v  -28.2685 90.6415 -80.7956
v  -17.2568 90.4632 -80.7930
v  -7.2441 90.4025 -81.6424
v  -7.2555 89.9223 -81.0662
v  1.4560 89.7871 -81.9556
v  1.4379 89.2928 -81.3918
v  9.3180 88.9451 -82.3797
v  9.2869 88.4344 -81.8314
v  16.8723 87.7345 -82.9839
v  16.8248 87.2103 -82.4495
v  20.5641 86.9742 -83.3503
v  20.5068 86.4401 -82.8268
v  24.1390 86.1151 -83.8187
v  24.0663 85.5768 -83.3015
v  25.5815 85.7308 -83.9238
v  25.4946 85.1922 -83.4089
v  28.4462 84.9428 -84.2317
v  28.3585 84.4022 -83.7192
v  31.2645 84.1358 -84.5852
v  31.1437 83.6139 -84.0617
v  -39.8488 91.2169 -81.3973
v  -39.8499 90.7492 -80.8109
v  -51.7910 91.0764 -81.4482
v  -51.7818 90.6080 -80.8624
v  -63.9404 90.4678 -81.6143
v  -63.9208 89.9985 -81.0294
v  -76.2176 89.6571 -81.7666
v  -76.1919 89.1859 -81.1835
# 30 vertices

vn -0.0093 -0.7813 -0.6241
vn -0.0352 -0.7770 -0.6285
vn -0.0093 -0.7812 -0.6242
vn -0.0352 -0.7767 -0.6288
vn -0.0680 -0.7660 -0.6392
vn -0.0681 -0.7653 -0.6400
vn -0.0970 -0.7473 -0.6573
vn -0.0971 -0.7462 -0.6586
vn -0.1431 -0.7208 -0.6782
vn -0.1432 -0.7195 -0.6795
vn -0.1904 -0.6930 -0.6954
vn -0.1907 -0.6913 -0.6969
vn -0.2336 -0.6680 -0.7065
vn -0.2340 -0.6676 -0.7067
vn -0.2392 -0.6557 -0.7161
vn -0.2396 -0.6556 -0.7161
vn -0.2421 -0.6505 -0.7199
vn -0.2428 -0.6493 -0.7207
vn -0.2629 -0.6421 -0.7201
vn -0.2626 -0.6411 -0.7212
vn -0.2748 -0.6486 -0.7098
vn -0.2739 -0.6471 -0.7115
vn 0.0028 -0.7818 -0.6236
vn 0.0298 -0.7805 -0.6245
vn 0.0298 -0.7805 -0.6244
vn 0.0534 -0.7779 -0.6261
vn 0.0535 -0.7780 -0.6260
vn 0.0590 -0.7752 -0.6290
vn 0.0590 -0.7753 -0.6289
# 29 vertex normals

vt 0.4386 0.7442 0.0000
vt 0.4560 0.7444 0.0000
vt 0.4386 0.7454 0.0000
vt 0.4560 0.7456 0.0000
vt 0.4718 0.7453 0.0000
vt 0.4718 0.7464 0.0000
vt 0.4857 0.7461 0.0000
vt 0.4856 0.7473 0.0000
vt 0.4982 0.7471 0.0000
vt 0.4981 0.7483 0.0000
vt 0.5101 0.7485 0.0000
vt 0.5099 0.7497 0.0000
vt 0.5157 0.7494 0.0000
vt 0.5155 0.7506 0.0000
vt 0.5211 0.7506 0.0000
vt 0.5208 0.7518 0.0000
vt 0.5232 0.7511 0.0000
vt 0.5229 0.7523 0.0000
vt 0.5274 0.7523 0.0000
vt 0.5271 0.7534 0.0000
vt 0.5316 0.7535 0.0000
vt 0.5312 0.7547 0.0000
vt 0.4203 0.7441 0.0000
vt 0.4203 0.7453 0.0000
vt 0.4014 0.7443 0.0000
vt 0.4014 0.7454 0.0000
vt 0.3826 0.7450 0.0000
vt 0.3827 0.7461 0.0000
vt 0.3641 0.7460 0.0000
vt 0.3642 0.7472 0.0000
# 30 texture coords

g Z166_18A5_L_Z166_18A5_L_1_DaS_E
usemtl paint_whiteSG
s 18
f 146/85/158 147/86/159 148/87/160 
f 148/87/160 147/86/159 149/88/161 
f 147/86/159 150/89/162 149/88/161 
f 149/88/161 150/89/162 151/90/163 
f 150/89/162 152/91/164 151/90/163 
f 151/90/163 152/91/164 153/92/165 
f 152/91/164 154/93/166 153/92/165 
f 153/92/165 154/93/166 155/94/167 
f 154/93/166 156/95/168 155/94/167 
f 155/94/167 156/95/168 157/96/169 
f 156/95/168 158/97/170 157/96/169 
f 157/96/169 158/97/170 159/98/171 
f 160/99/172 161/100/173 158/97/170 
f 158/97/170 161/100/173 159/98/171 
f 160/99/172 162/101/174 161/100/173 
f 161/100/173 162/101/174 163/102/175 
f 162/101/174 164/103/176 163/102/175 
f 163/102/175 164/103/176 165/104/177 
f 166/105/178 167/106/179 164/103/176 
f 164/103/176 167/106/179 165/104/177 
f 168/107/180 146/85/158 169/108/180 
f 169/108/180 146/85/158 148/87/160 
f 170/109/181 168/107/180 171/110/182 
f 171/110/182 168/107/180 169/108/180 
f 172/111/183 170/109/181 173/112/184 
f 173/112/184 170/109/181 171/110/182 
f 174/113/185 172/111/183 175/114/186 
f 175/114/186 172/111/183 173/112/184 
# 28 faces

