# 3ds Max Wavefront OBJ Exporter v0.97b - (c)2007 guruware
# File Created: 11.01.2016 11:36:37

mtllib Z166_285B_R.mtl

#
# object Z166_285B_R_DTaSI_Z166_285B_R
#

v  -13.1376 68.3101 91.2875
v  -20.1587 77.2507 87.4003
v  -18.7178 68.8703 91.1013
v  -13.1598 76.5229 87.6609
v  -3.8765 82.2996 84.7228
v  -13.1670 83.0462 84.4162
v  50.8064 69.2813 90.2345
v  59.0228 71.8367 88.9669
v  54.8296 73.6675 88.1737
v  40.5099 76.9720 86.8639
v  51.2455 75.2324 87.4957
v  -3.8557 87.8422 81.9972
v  4.1698 81.6811 85.0081
v  4.2308 87.3358 82.2560
v  11.4315 80.9980 85.3503
v  11.5334 86.5969 82.6461
v  82.8524 58.6731 93.7856
v  86.7306 52.9459 96.1598
v  86.7306 56.1639 94.5807
v  -17.2585 60.3872 94.6357
v  -13.1102 60.0903 94.7294
v  18.4399 80.1627 85.7395
v  18.5546 85.5317 83.1824
v  -13.0448 41.2925 102.1722
v  -3.8707 43.7380 101.0507
v  -13.0523 44.2593 101.0432
v  4.0245 40.2574 102.1834
v  11.1508 42.9016 101.0732
v  4.0282 43.2917 101.0582
v  -3.8632 40.7374 102.1834
v  18.0933 39.4472 102.1909
v  25.0733 42.1739 101.0882
v  18.1008 42.5378 101.0807
v  11.1433 39.8373 102.1871
v  32.2595 38.6258 102.1909
v  40.3535 41.3413 101.1257
v  32.2670 41.7763 101.0994
v  25.0658 39.0571 102.1909
v  49.8652 37.6506 102.2284
v  60.7272 40.3436 101.1594
v  49.9102 40.8724 101.1632
v  40.3385 38.1569 102.2059
v  86.7233 38.6245 100.9603
v  83.0962 35.7828 101.9471
v  86.7194 35.5615 101.8833
v  50.3378 61.9375 93.4990
v  61.3437 54.7625 96.3373
v  61.6709 60.7996 93.8771
v  49.9852 47.0085 99.1903
v  40.3951 56.2616 95.8365
v  40.3873 47.5974 99.0590
v  -3.9038 67.3830 91.6106
v  -3.8938 59.4308 94.9032
v  82.9087 44.9082 99.2091
v  72.1405 39.4971 101.1500
v  83.0341 38.8850 101.0064
v  73.1911 59.6431 93.9244
v  73.4907 64.5654 91.8990
v  25.2744 79.3193 86.1029
v  31.8695 82.3324 84.6715
v  29.5478 82.9975 84.3663
v  -13.9825 41.3451 102.1684
v  32.0900 71.6261 89.5467
v  40.4168 62.9335 93.1487
v  40.4626 70.6281 89.7729
v  72.8567 53.9387 96.4259
v  82.8177 53.2259 96.2417
v  -21.2428 83.5615 84.2401
v  32.2066 63.7577 92.9289
v  25.1007 57.3560 95.5682
v  25.1300 64.4682 92.7214
v  18.1960 65.1643 92.4937
v  11.1883 58.3515 95.2770
v  11.2272 65.8640 92.2348
v  4.0393 58.8631 95.0882
v  4.0556 66.5839 91.9240
v  47.5740 76.6653 86.8879
v  86.7268 44.6569 99.1716
v  60.9597 46.3297 99.2953
v  32.2821 48.0962 98.9690
v  25.0883 48.5426 98.9015
v  18.1195 48.9739 98.8340
v  11.1658 49.4015 98.7590
v  4.0320 49.8441 98.6803
v  -3.8782 50.3317 98.6052
v  -13.0786 50.9093 98.5415
v  -14.4964 44.3381 101.0357
v  62.0786 67.5793 90.8494
v  25.1942 72.4245 89.2823
v  72.4293 45.5983 99.2991
v  60.5921 37.0843 102.2134
v  71.9755 36.4429 102.1083
v  11.3118 74.0100 88.6809
v  18.3009 73.1809 89.0138
v  37.6443 80.3867 85.3718
v  40.5298 79.4144 85.7217
v  -3.9004 75.6146 87.9900
v  4.0998 74.8407 88.3041
v  -13.1724 88.2022 81.8397
v  -22.0727 88.3935 81.8022
v  31.9553 78.3792 86.4907
v  21.5131 84.9525 83.4574
v  25.3358 84.2040 83.8126
v  -15.6553 51.0668 98.5190
v  50.0922 55.5676 96.0771
v  32.2613 56.8436 95.6895
v  18.1463 57.8536 95.4340
v  70.1553 66.3050 91.2101
v  62.2500 70.4277 89.5774
v  26.8217 83.7784 84.0079
v  34.8447 81.3300 85.0323
v  43.8620 78.1139 86.2734
v  66.2937 68.3189 90.4125
# 113 vertices

vn 0.0079 0.3956 0.9184
vn 0.0113 0.4289 0.9033
vn 0.0093 0.3972 0.9177
vn 0.0085 0.4225 0.9063
vn 0.0051 0.4407 0.8976
vn 0.0071 0.4464 0.8948
vn 0.0120 0.4097 0.9121
vn 0.0104 0.4174 0.9087
vn 0.0209 0.4167 0.9088
vn 0.0134 0.4173 0.9087
vn 0.0013 0.4406 0.8977
vn -0.0002 0.4360 0.8999
vn -0.0019 0.4371 0.8994
vn 0.0009 0.4324 0.9017
vn -0.0025 0.4340 0.9009
vn 0.0512 0.4028 0.9139
vn 0.0504 0.3682 0.9284
vn 0.1004 0.4383 0.8932
vn 0.0074 0.3852 0.9228
vn 0.0095 0.3830 0.9237
vn 0.0021 0.4274 0.9041
vn -0.0010 0.4296 0.9030
vn 0.0193 0.3552 0.9346
vn 0.0179 0.3485 0.9371
vn 0.0173 0.3521 0.9358
vn 0.0195 0.3468 0.9377
vn 0.0158 0.3366 0.9415
vn 0.0170 0.3425 0.9394
vn 0.0199 0.3525 0.9356
vn 0.0178 0.3373 0.9412
vn 0.0156 0.3269 0.9449
vn 0.0157 0.3316 0.9433
vn 0.0185 0.3410 0.9399
vn 0.0172 0.3264 0.9451
vn 0.0118 0.3154 0.9489
vn 0.0145 0.3214 0.9468
vn 0.0181 0.3325 0.9429
vn 0.0153 0.3130 0.9496
vn 0.0185 0.2996 0.9539
vn 0.0126 0.3078 0.9514
vn 0.0145 0.3203 0.9472
vn 0.0326 0.2860 0.9577
vn 0.0317 0.2903 0.9564
vn 0.0344 0.2883 0.9569
vn 0.0081 0.3916 0.9201
vn 0.0137 0.3509 0.9363
vn 0.0224 0.3923 0.9196
vn 0.0091 0.3285 0.9445
vn 0.0067 0.3585 0.9335
vn 0.0090 0.3350 0.9422
vn 0.0058 0.3934 0.9193
vn 0.0082 0.3782 0.9257
vn 0.0318 0.3125 0.9494
vn 0.0257 0.2922 0.9560
vn 0.0299 0.2879 0.9572
vn 0.0371 0.3904 0.9199
vn 0.0270 0.3794 0.9248
vn 0.0067 0.4208 0.9071
vn 0.0167 0.4192 0.9077
vn 0.0026 0.4245 0.9054
vn 0.0156 0.3558 0.9344
vn 0.0172 0.4052 0.9141
vn 0.0108 0.3884 0.9214
vn 0.0173 0.4091 0.9123
vn 0.0289 0.3575 0.9335
vn 0.0435 0.3664 0.9294
vn 0.0101 0.4495 0.8932
vn 0.0123 0.3845 0.9231
vn 0.0091 0.3614 0.9324
vn 0.0098 0.3851 0.9228
vn 0.0068 0.3867 0.9222
vn 0.0039 0.3674 0.9301
vn 0.0022 0.3889 0.9213
vn 0.0043 0.3727 0.9279
vn 0.0017 0.3914 0.9202
vn 0.0153 0.4235 0.9058
vn 0.0326 0.3153 0.9484
vn 0.0146 0.3187 0.9477
vn 0.0114 0.3389 0.9408
vn 0.0122 0.3428 0.9393
vn 0.0117 0.3473 0.9377
vn 0.0110 0.3531 0.9355
vn 0.0123 0.3598 0.9329
vn 0.0146 0.3662 0.9304
vn 0.0159 0.3715 0.9283
vn 0.0141 0.3531 0.9355
vn 0.0193 0.4048 0.9142
vn 0.0108 0.4067 0.9135
vn 0.0237 0.3110 0.9501
vn 0.0208 0.3061 0.9518
vn 0.0276 0.2973 0.9544
vn 0.0031 0.4138 0.9103
vn 0.0060 0.4102 0.9120
vn 0.0328 0.4232 0.9055
vn 0.0255 0.4233 0.9056
vn 0.0072 0.4190 0.9080
vn 0.0017 0.4164 0.9092
vn 0.0052 0.4459 0.8951
vn 0.0078 0.4496 0.8932
vn 0.0181 0.4147 0.9098
vn -0.0010 0.4245 0.9054
vn -0.0002 0.4245 0.9054
vn 0.0148 0.3748 0.9270
vn 0.0047 0.3549 0.9349
vn 0.0097 0.3595 0.9331
vn 0.0071 0.3640 0.9314
vn 0.0234 0.4065 0.9134
vn 0.0137 0.4087 0.9126
# 108 vertex normals

vt 0.5697 0.1663 0.0000
vt 0.5411 0.2043 0.0000
vt 0.5471 0.1683 0.0000
vt 0.5696 0.2022 0.0000
vt 0.6067 0.2290 0.0000
vt 0.5688 0.2316 0.0000
vt 0.8319 0.1748 0.0000
vt 0.8659 0.1872 0.0000
vt 0.8483 0.1952 0.0000
vt 0.7886 0.2083 0.0000
vt 0.8332 0.2020 0.0000
vt 0.6068 0.2543 0.0000
vt 0.6397 0.2271 0.0000
vt 0.6401 0.2527 0.0000
vt 0.6693 0.2242 0.0000
vt 0.6700 0.2496 0.0000
vt 0.9642 0.1286 0.0000
vt 0.9801 0.1042 0.0000
vt 0.9806 0.1188 0.0000
vt 0.5538 0.1318 0.0000
vt 0.5706 0.1307 0.0000
vt 0.6980 0.2208 0.0000
vt 0.6987 0.2449 0.0000
vt 0.5695 0.0500 0.0000
vt 0.6069 0.0599 0.0000
vt 0.5697 0.0629 0.0000
vt 0.6392 0.0444 0.0000
vt 0.6683 0.0559 0.0000
vt 0.6391 0.0577 0.0000
vt 0.6068 0.0468 0.0000
vt 0.6972 0.0409 0.0000
vt 0.7258 0.0529 0.0000
vt 0.6969 0.0544 0.0000
vt 0.6685 0.0425 0.0000
vt 0.7558 0.0374 0.0000
vt 0.7891 0.0494 0.0000
vt 0.7556 0.0512 0.0000
vt 0.7260 0.0393 0.0000
vt 0.8290 0.0336 0.0000
vt 0.8737 0.0462 0.0000
vt 0.8288 0.0477 0.0000
vt 0.7894 0.0355 0.0000
vt 0.9810 0.0420 0.0000
vt 0.9668 0.0297 0.0000
vt 0.9812 0.0292 0.0000
vt 0.8301 0.1415 0.0000
vt 0.8758 0.1099 0.0000
vt 0.8770 0.1371 0.0000
vt 0.8284 0.0748 0.0000
vt 0.7889 0.1154 0.0000
vt 0.7886 0.0771 0.0000
vt 0.6071 0.1628 0.0000
vt 0.6077 0.1281 0.0000
vt 0.9645 0.0684 0.0000
vt 0.9211 0.0439 0.0000
vt 0.9659 0.0429 0.0000
vt 0.9244 0.1326 0.0000
vt 0.9260 0.1548 0.0000
vt 0.7260 0.2171 0.0000
vt 0.7528 0.2312 0.0000
vt 0.7434 0.2341 0.0000
vt 0.5658 0.0506 0.0000
vt 0.7544 0.1832 0.0000
vt 0.7889 0.1450 0.0000
vt 0.7890 0.1795 0.0000
vt 0.9233 0.1068 0.0000
vt 0.9641 0.1044 0.0000
vt 0.5362 0.2325 0.0000
vt 0.7547 0.1479 0.0000
vt 0.7258 0.1195 0.0000
vt 0.7254 0.1508 0.0000
vt 0.6969 0.1534 0.0000
vt 0.6690 0.1232 0.0000
vt 0.6684 0.1564 0.0000
vt 0.6399 0.1256 0.0000
vt 0.6393 0.1595 0.0000
vt 0.8180 0.2080 0.0000
vt 0.9803 0.0677 0.0000
vt 0.8740 0.0724 0.0000
vt 0.7550 0.0789 0.0000
vt 0.7253 0.0806 0.0000
vt 0.6966 0.0823 0.0000
vt 0.6681 0.0841 0.0000
vt 0.6390 0.0861 0.0000
vt 0.6070 0.0884 0.0000
vt 0.5700 0.0912 0.0000
vt 0.5638 0.0633 0.0000
vt 0.8788 0.1679 0.0000
vt 0.7260 0.1861 0.0000
vt 0.9215 0.0701 0.0000
vt 0.8737 0.0319 0.0000
vt 0.9210 0.0306 0.0000
vt 0.6692 0.1925 0.0000
vt 0.6978 0.1892 0.0000
vt 0.7768 0.2234 0.0000
vt 0.7888 0.2195 0.0000
vt 0.6071 0.1988 0.0000
vt 0.6398 0.1961 0.0000
vt 0.5685 0.2550 0.0000
vt 0.5327 0.2541 0.0000
vt 0.7534 0.2132 0.0000
vt 0.7108 0.2425 0.0000
vt 0.7263 0.2393 0.0000
vt 0.5595 0.0916 0.0000
vt 0.8291 0.1128 0.0000
vt 0.7553 0.1174 0.0000
vt 0.6973 0.1211 0.0000
vt 0.9122 0.1626 0.0000
vt 0.8794 0.1810 0.0000
vt 0.7323 0.2375 0.0000
vt 0.7652 0.2272 0.0000
vt 0.8026 0.2140 0.0000
vt 0.8962 0.1716 0.0000
# 113 texture coords

g Z166_285B_R_DTaSI_Z166_285B_R
usemtl windowglass_1SG
s 1
f 1/1/1 2/2/2 3/3/3 
f 4/4/4 5/5/5 6/6/6 
f 7/7/7 8/8/8 9/9/8 
f 10/10/9 7/7/7 11/11/10 
f 12/12/11 13/13/12 14/14/13 
f 14/14/13 15/15/14 16/16/15 
f 17/17/16 18/18/17 19/19/18 
f 1/1/1 20/20/19 21/21/20 
f 16/16/15 22/22/21 23/23/22 
f 24/24/23 25/25/24 26/26/25 
f 27/27/26 28/28/27 29/29/28 
f 29/29/28 30/30/29 27/27/26 
f 31/31/30 32/32/31 33/33/32 
f 33/33/32 34/34/33 31/31/30 
f 35/35/34 36/36/35 37/37/36 
f 37/37/36 38/38/37 35/35/34 
f 39/39/38 40/40/39 41/41/40 
f 41/41/40 42/42/41 39/39/38 
f 43/43/42 44/44/43 45/45/44 
f 46/46/45 47/47/46 48/48/47 
f 49/49/48 50/50/49 51/51/50 
f 52/52/51 21/21/20 53/53/52 
f 54/54/53 55/55/54 56/56/55 
f 57/57/56 17/17/16 58/58/57 
f 59/59/58 60/60/59 61/61/60 
f 26/26/25 62/62/61 24/24/23 
f 63/63/62 64/64/63 65/65/64 
f 17/17/16 66/66/65 67/67/66 
f 68/68/67 4/4/4 6/6/6 
f 69/69/68 50/50/49 64/64/63 
f 70/70/69 69/69/68 71/71/70 
f 72/72/71 70/70/69 71/71/70 
f 73/73/72 72/72/71 74/74/73 
f 75/75/74 74/74/73 76/76/75 
f 53/53/52 76/76/75 52/52/51 
f 10/10/9 11/11/10 77/77/76 
f 56/56/55 78/78/77 54/54/53 
f 79/79/78 41/41/40 40/40/39 
f 49/49/48 36/36/35 41/41/40 
f 51/51/50 37/37/36 36/36/35 
f 80/80/79 32/32/31 37/37/36 
f 81/81/80 33/33/32 32/32/31 
f 82/82/81 28/28/27 33/33/32 
f 83/83/82 29/29/28 28/28/27 
f 84/84/83 25/25/24 29/29/28 
f 85/85/84 26/26/25 25/25/24 
f 86/86/85 87/87/86 26/26/25 
f 57/57/56 88/88/87 48/48/47 
f 89/89/88 69/69/68 63/63/62 
f 90/90/89 40/40/39 55/55/54 
f 55/55/54 91/91/90 92/92/91 
f 92/92/91 56/56/55 55/55/54 
f 93/93/92 72/72/71 94/94/93 
f 46/46/45 65/65/64 64/64/63 
f 95/95/94 10/10/9 96/96/95 
f 97/97/96 76/76/75 98/98/97 
f 48/48/47 7/7/7 46/46/45 
f 71/71/70 94/94/93 72/72/71 
f 83/83/82 75/75/74 84/84/83 
f 84/84/83 53/53/52 85/85/84 
f 94/94/93 59/59/58 22/22/21 
f 98/98/97 15/15/14 13/13/12 
f 57/57/56 47/47/46 66/66/65 
f 99/99/98 5/5/5 12/12/11 
f 98/98/97 5/5/5 97/97/96 
f 74/74/73 98/98/97 76/76/75 
f 94/94/93 15/15/14 93/93/92 
f 63/63/62 59/59/58 89/89/88 
f 100/100/99 6/6/6 99/99/98 
f 52/52/51 4/4/4 1/1/1 
f 63/63/62 10/10/9 101/101/100 
f 102/102/101 59/59/58 103/103/102 
f 86/86/85 20/20/19 104/104/103 
f 79/79/78 105/105/104 49/49/48 
f 64/64/63 105/105/104 46/46/45 
f 85/85/84 21/21/20 86/86/85 
f 90/90/89 47/47/46 79/79/78 
f 51/51/50 106/106/105 80/80/79 
f 81/81/80 107/107/106 82/82/81 
f 78/78/77 67/67/66 54/54/53 
f 54/54/53 66/66/65 90/90/89 
f 80/80/79 70/70/69 81/81/80 
f 82/82/81 73/73/72 83/83/82 
f 88/88/87 58/58/57 108/108/107 
f 4/4/4 2/2/2 1/1/1 
f 97/97/96 5/5/5 4/4/4 
f 88/88/87 109/109/108 7/7/7 
f 65/65/64 7/7/7 10/10/9 
f 5/5/5 13/13/12 12/12/11 
f 13/13/12 15/15/14 14/14/13 
f 67/67/66 18/18/17 17/17/16 
f 3/3/3 20/20/19 1/1/1 
f 15/15/14 22/22/21 16/16/15 
f 30/30/29 25/25/24 24/24/23 
f 34/34/33 28/28/27 27/27/26 
f 25/25/24 30/30/29 29/29/28 
f 38/38/37 32/32/31 31/31/30 
f 28/28/27 34/34/33 33/33/32 
f 42/42/41 36/36/35 35/35/34 
f 32/32/31 38/38/37 37/37/36 
f 91/91/90 40/40/39 39/39/38 
f 36/36/35 42/42/41 41/41/40 
f 56/56/55 44/44/43 43/43/42 
f 105/105/104 47/47/46 46/46/45 
f 105/105/104 50/50/49 49/49/48 
f 1/1/1 21/21/20 52/52/51 
f 90/90/89 55/55/54 54/54/53 
f 101/101/100 60/60/59 59/59/58 
f 87/87/86 62/62/61 26/26/25 
f 69/69/68 64/64/63 63/63/62 
f 57/57/56 66/66/65 17/17/16 
f 2/2/2 4/4/4 68/68/67 
f 106/106/105 50/50/49 69/69/68 
f 106/106/105 69/69/68 70/70/69 
f 107/107/106 70/70/69 72/72/71 
f 107/107/106 72/72/71 73/73/72 
f 73/73/72 74/74/73 75/75/74 
f 75/75/74 76/76/75 53/53/52 
f 43/43/42 78/78/77 56/56/55 
f 49/49/48 41/41/40 79/79/78 
f 51/51/50 36/36/35 49/49/48 
f 80/80/79 37/37/36 51/51/50 
f 81/81/80 32/32/31 80/80/79 
f 82/82/81 33/33/32 81/81/80 
f 83/83/82 28/28/27 82/82/81 
f 84/84/83 29/29/28 83/83/82 
f 85/85/84 25/25/24 84/84/83 
f 86/86/85 26/26/25 85/85/84 
f 104/104/103 87/87/86 86/86/85 
f 58/58/57 88/88/87 57/57/56 
f 71/71/70 69/69/68 89/89/88 
f 79/79/78 40/40/39 90/90/89 
f 40/40/39 91/91/90 55/55/54 
f 44/44/43 56/56/55 92/92/91 
f 74/74/73 72/72/71 93/93/92 
f 7/7/7 65/65/64 46/46/45 
f 101/101/100 10/10/9 60/60/59 
f 52/52/51 76/76/75 97/97/96 
f 88/88/87 7/7/7 48/48/47 
f 89/89/88 94/94/93 71/71/70 
f 73/73/72 75/75/74 83/83/82 
f 75/75/74 53/53/52 84/84/83 
f 89/89/88 59/59/58 94/94/93 
f 93/93/92 15/15/14 98/98/97 
f 48/48/47 47/47/46 57/57/56 
f 6/6/6 5/5/5 99/99/98 
f 13/13/12 5/5/5 98/98/97 
f 93/93/92 98/98/97 74/74/73 
f 22/22/21 15/15/14 94/94/93 
f 101/101/100 59/59/58 63/63/62 
f 68/68/67 6/6/6 100/100/99 
f 97/97/96 4/4/4 52/52/51 
f 65/65/64 10/10/9 63/63/62 
f 22/22/21 59/59/58 23/23/22 
f 21/21/20 20/20/19 86/86/85 
f 47/47/46 105/105/104 79/79/78 
f 50/50/49 105/105/104 64/64/63 
f 53/53/52 21/21/20 85/85/84 
f 66/66/65 47/47/46 90/90/89 
f 50/50/49 106/106/105 51/51/50 
f 70/70/69 107/107/106 81/81/80 
f 18/18/17 67/67/66 78/78/77 
f 67/67/66 66/66/65 54/54/53 
f 106/106/105 70/70/69 80/80/79 
f 107/107/106 73/73/72 82/82/81 
f 59/59/58 110/110/60 103/103/102 
f 59/59/58 61/61/60 110/110/60 
f 23/23/22 59/59/58 102/102/101 
f 111/111/94 10/10/9 95/95/94 
f 60/60/59 10/10/9 111/111/94 
f 10/10/9 112/112/76 96/96/95 
f 10/10/9 77/77/76 112/112/76 
f 7/7/7 109/109/108 8/8/8 
f 7/7/7 9/9/8 11/11/10 
f 88/88/87 113/113/107 109/109/108 
f 88/88/87 108/108/107 113/113/107 
# 176 faces

