# 3ds Max Wavefront OBJ Exporter v0.97b - (c)2007 guruware
# File Created: 11.01.2016 11:31:41

mtllib Z166_18A5_R.mtl

#
# object Z166_18A5_R_2_D_Z166_18A5_R
#

v  28.0644 91.2030 73.0114
v  27.9658 91.1925 73.3179
v  36.1332 88.7468 74.5390
v  35.4381 88.6751 76.5200
v  27.3360 91.1335 75.3058
v  19.9639 93.2219 72.1663
v  11.7260 94.9276 71.3161
v  19.3768 93.1514 74.3360
v  11.2328 94.8312 73.6420
v  -39.8383 98.7659 68.5284
v  -39.8419 98.6435 70.4658
v  -28.1572 98.6030 68.8791
v  -28.1794 98.4909 70.6631
v  -51.7937 98.6673 68.5287
v  -51.7946 98.5312 70.5649
v  -63.9411 98.3430 68.5296
v  -63.9420 98.1679 70.8315
v  -76.2172 97.7110 68.5308
v  -76.2182 97.4987 70.9466
v  -16.9546 98.0623 70.8597
v  -16.8896 98.1621 69.2180
v  -6.3622 97.4192 69.5531
v  -6.4903 97.3340 71.0409
v  2.9811 96.2914 71.1537
v  3.1778 96.3606 69.8486
v  11.9027 94.9660 70.5146
v  20.1527 93.2480 71.4957
v  -63.9424 98.0990 71.6684
v  -76.2186 97.4159 71.7963
v  -51.7950 98.4536 71.6673
v  -39.8441 98.5595 71.7297
v  -28.1952 98.3993 72.0440
v  -17.0074 97.9691 72.2947
v  -6.6166 97.2403 72.5970
v  2.6965 96.1892 73.1271
v  19.2745 93.1483 74.7634
v  27.1374 91.1254 75.9883
v  35.1507 88.6445 77.3573
v  -39.8384 98.6536 68.5212
v  -28.1600 98.4907 68.8720
v  -51.7918 98.5551 68.5210
v  -63.9366 98.2310 68.5210
v  -76.2096 97.5992 68.5211
v  -16.8956 98.0499 69.2111
v  -6.3722 97.3074 69.5457
v  3.1632 96.2493 69.8405
v  11.8833 94.8555 70.5052
v  20.1268 93.1392 71.4840
v  28.0364 91.0948 72.9988
v  36.1002 88.6404 74.5235
v  -63.9377 97.9870 71.6591
v  -76.2108 97.3043 71.7856
v  -51.7929 98.3413 71.6593
v  -39.8442 98.4474 71.7220
v  -28.1979 98.2871 72.0367
v  -17.0133 97.8570 72.2872
v  -6.6265 97.1286 72.5894
v  2.6818 96.0781 73.1191
v  11.2131 94.7207 73.6348
v  19.2500 93.0388 74.7562
v  27.1086 91.0171 75.9778
v  35.1174 88.5382 77.3416
# 62 vertices

vn 0.2507 0.9614 0.1137
vn 0.2527 0.9612 0.1104
vn 0.2668 0.9552 0.1282
vn 0.2684 0.9550 0.1267
vn 0.2526 0.9621 0.1024
vn 0.2137 0.9726 0.0920
vn 0.1733 0.9816 0.0796
vn 0.2131 0.9734 0.0841
vn 0.1717 0.9821 0.0770
vn 0.0017 0.9980 0.0631
vn 0.0016 0.9979 0.0645
vn 0.0241 0.9977 0.0630
vn 0.0243 0.9976 0.0644
vn -0.0178 0.9976 0.0665
vn -0.0183 0.9975 0.0683
vn -0.0397 0.9964 0.0753
vn -0.0404 0.9961 0.0779
vn -0.0532 0.9949 0.0861
vn -0.0536 0.9945 0.0897
vn 0.0520 0.9966 0.0645
vn 0.0520 0.9967 0.0627
vn 0.0878 0.9940 0.0646
vn 0.0873 0.9940 0.0657
vn 0.1298 0.9890 0.0707
vn 0.1302 0.9889 0.0721
vn 0.1732 0.9812 0.0852
vn 0.2127 0.9722 0.0979
vn -0.0414 0.9957 0.0823
vn -0.0543 0.9938 0.0968
vn -0.0188 0.9973 0.0704
vn 0.0016 0.9978 0.0664
vn 0.0243 0.9975 0.0664
vn 0.0517 0.9964 0.0666
vn 0.0867 0.9940 0.0670
vn 0.1286 0.9892 0.0698
vn 0.2171 0.9744 0.0591
vn 0.2569 0.9626 0.0860
vn 0.2708 0.9543 0.1263
vn 0.0150 0.0639 -0.9978
vn 0.0316 0.0626 -0.9975
vn -0.0012 0.0682 -0.9977
vn -0.0030 0.0763 -0.9971
vn -0.0045 0.0862 -0.9963
vn 0.0341 0.0602 -0.9976
vn 0.0369 0.0628 -0.9973
vn 0.0370 0.0628 -0.9973
vn 0.0612 0.0653 -0.9960
vn 0.0612 0.0654 -0.9960
vn 0.1082 0.0659 -0.9919
vn 0.1082 0.0660 -0.9919
vn 0.1668 0.0657 -0.9838
vn 0.1677 0.0655 -0.9837
vn 0.2030 0.0604 -0.9773
vn 0.2030 0.0605 -0.9773
vn 0.2079 0.0767 -0.9751
vn 0.2080 0.0768 -0.9751
vn 0.0087 -0.0823 0.9966
vn 0.0087 -0.0824 0.9966
vn 0.0156 -0.0947 0.9954
vn 0.0156 -0.0948 0.9954
vn -0.0012 -0.0712 0.9975
vn -0.0012 -0.0713 0.9975
vn -0.0161 -0.0684 0.9975
vn -0.0161 -0.0685 0.9975
vn -0.0264 -0.0646 0.9976
vn -0.0291 -0.0654 0.9974
vn -0.0479 -0.0638 0.9968
vn -0.0667 -0.0625 0.9958
vn -0.0667 -0.0626 0.9958
vn -0.1065 -0.0459 0.9932
vn -0.1066 -0.0460 0.9932
vn -0.1530 -0.0309 0.9877
vn -0.1529 -0.0308 0.9878
vn -0.1744 -0.0491 0.9834
vn -0.1744 -0.0489 0.9835
vn -0.1925 -0.0839 0.9777
vn -0.1924 -0.0836 0.9778
# 77 vertex normals

vt 21761.8086 0.0000 0.0000
# 1 texture coords

g Z166_18A5_R_2_D_Z166_18A5_R
usemtl diffuse_black_plasticSG
s 1
f 1/1/1 2/1/2 3/1/3 
f 3/1/3 2/1/2 4/1/4 
f 2/1/2 5/1/5 4/1/4 
f 6/1/6 7/1/7 8/1/8 
f 7/1/7 9/1/9 8/1/8 
f 2/1/2 6/1/6 5/1/5 
f 6/1/6 8/1/8 5/1/5 
f 10/1/10 11/1/11 12/1/12 
f 11/1/11 13/1/13 12/1/12 
f 10/1/10 14/1/14 11/1/11 
f 14/1/14 15/1/15 11/1/11 
f 14/1/14 16/1/16 15/1/15 
f 16/1/16 17/1/17 15/1/15 
f 16/1/16 18/1/18 17/1/17 
f 18/1/18 19/1/19 17/1/17 
f 20/1/20 21/1/21 13/1/13 
f 21/1/21 12/1/12 13/1/13 
f 22/1/22 21/1/21 23/1/23 
f 21/1/21 20/1/20 23/1/23 
f 23/1/23 24/1/24 22/1/22 
f 24/1/24 25/1/25 22/1/22 
f 26/1/26 25/1/25 7/1/7 
f 25/1/25 24/1/24 7/1/7 
f 7/1/7 6/1/6 26/1/26 
f 6/1/6 27/1/27 26/1/26 
f 1/1/1 27/1/27 2/1/2 
f 27/1/27 6/1/6 2/1/2 
f 17/1/17 19/1/19 28/1/28 
f 19/1/19 29/1/29 28/1/28 
f 15/1/15 17/1/17 30/1/30 
f 17/1/17 28/1/28 30/1/30 
f 11/1/11 15/1/15 31/1/31 
f 15/1/15 30/1/30 31/1/31 
f 32/1/32 13/1/13 31/1/31 
f 13/1/13 11/1/11 31/1/31 
f 13/1/13 32/1/32 20/1/20 
f 32/1/32 33/1/33 20/1/20 
f 23/1/23 20/1/20 34/1/34 
f 20/1/20 33/1/33 34/1/34 
f 24/1/24 23/1/23 35/1/35 
f 23/1/23 34/1/34 35/1/35 
f 7/1/7 24/1/24 9/1/9 
f 24/1/24 35/1/35 9/1/9 
f 36/1/36 8/1/8 9/1/9 
f 36/1/36 37/1/37 8/1/8 
f 37/1/37 5/1/5 8/1/8 
f 37/1/37 38/1/38 5/1/5 
f 38/1/38 4/1/4 5/1/5 
s 5
f 39/1/39 10/1/39 40/1/40 
f 10/1/39 12/1/40 40/1/40 
f 41/1/41 14/1/41 39/1/39 
f 14/1/41 10/1/39 39/1/39 
f 42/1/42 16/1/42 41/1/41 
f 16/1/42 14/1/41 41/1/41 
f 43/1/43 18/1/43 42/1/42 
f 18/1/43 16/1/42 42/1/42 
f 40/1/40 12/1/40 44/1/44 
f 12/1/40 21/1/44 44/1/44 
f 44/1/44 21/1/44 45/1/45 
f 21/1/44 22/1/46 45/1/45 
f 45/1/45 22/1/46 46/1/47 
f 22/1/46 25/1/48 46/1/47 
f 46/1/47 25/1/48 47/1/49 
f 25/1/48 26/1/50 47/1/49 
f 47/1/49 26/1/50 48/1/51 
f 26/1/50 27/1/52 48/1/51 
f 49/1/53 1/1/54 50/1/55 
f 1/1/54 3/1/56 50/1/55 
f 48/1/51 27/1/52 49/1/53 
f 27/1/52 1/1/54 49/1/53 
s 9
f 51/1/57 28/1/58 52/1/59 
f 28/1/58 29/1/60 52/1/59 
f 53/1/61 30/1/62 51/1/57 
f 30/1/62 28/1/58 51/1/57 
f 54/1/63 31/1/64 53/1/61 
f 31/1/64 30/1/62 53/1/61 
f 55/1/65 32/1/65 54/1/63 
f 32/1/65 31/1/64 54/1/63 
f 56/1/66 33/1/66 55/1/65 
f 33/1/66 32/1/65 55/1/65 
f 57/1/67 34/1/67 56/1/66 
f 34/1/67 33/1/66 56/1/66 
f 58/1/68 35/1/69 57/1/67 
f 35/1/69 34/1/67 57/1/67 
f 59/1/70 9/1/71 58/1/68 
f 9/1/71 35/1/69 58/1/68 
f 60/1/72 36/1/73 59/1/70 
f 36/1/73 9/1/71 59/1/70 
f 61/1/74 37/1/75 60/1/72 
f 37/1/75 36/1/73 60/1/72 
f 62/1/76 38/1/77 61/1/74 
f 38/1/77 37/1/75 61/1/74 
# 92 faces

#
# object Z166_18A5_R_Z166_18A5_R_1_DaS
#

v  26.7969 91.0044 77.0490
v  34.8280 88.5075 78.1840
v  27.1086 91.0171 75.9778
v  35.1174 88.5382 77.3416
v  10.8824 94.6835 75.4415
v  18.9220 93.0287 76.1274
v  11.2131 94.7207 73.6348
v  19.2500 93.0388 74.7562
v  -6.7718 96.9814 74.7819
v  2.4490 95.9905 75.0325
v  -6.6636 97.1010 73.0458
v  2.6624 96.0711 73.2543
v  2.6818 96.0781 73.1191
v  -6.6265 97.1285 72.5894
v  -28.2184 98.1095 74.4062
v  -17.0781 97.6850 74.5669
v  -28.2054 98.2434 72.6957
v  -17.0344 97.8197 72.8611
v  -28.1979 98.2871 72.0366
v  -17.0133 97.8569 72.2872
v  34.0640 87.6618 80.0979
v  26.1176 90.1072 79.0266
v  32.9266 85.9374 82.4825
v  25.1643 88.2329 81.4566
v  18.3448 92.0866 78.1398
v  10.4373 93.6822 77.4530
v  17.5518 90.0665 80.6147
v  9.8240 91.5344 79.9397
v  -6.9071 95.8171 76.7191
v  -7.0941 93.3931 79.1634
v  2.1672 94.9056 77.0094
v  1.7772 92.6146 79.4751
v  -28.2330 96.8801 76.3446
v  -28.2520 94.3144 78.8283
v  -17.1286 96.4748 76.4886
v  -17.1978 93.9604 78.9418
v  -39.8478 98.2572 74.3361
v  -39.8457 98.3907 72.5754
v  -51.7932 98.2819 72.5034
v  -51.7938 98.1311 74.3211
v  -51.7929 98.3413 71.6592
v  -39.8443 98.4473 71.7220
v  -28.2621 91.1096 81.3817
v  -39.8488 91.2169 81.3973
v  -39.8523 94.4282 78.8381
v  -51.7910 91.0764 81.4482
v  -51.7944 94.2683 78.8958
v  -39.8502 97.0191 76.3196
v  -51.7944 96.8750 76.3506
v  26.5527 90.8896 77.8641
v  34.5490 88.3821 78.9626
v  10.7265 94.5512 76.2775
v  18.7174 92.9126 76.9630
v  -6.8189 96.7956 75.5775
v  2.3510 95.8305 75.8508
v  -28.2235 97.9103 75.1935
v  -17.0956 97.4877 75.3489
v  -39.8487 98.0572 75.1503
v  -51.7940 97.9213 75.1649
v  -63.9386 97.7211 74.3353
v  -76.2117 96.9682 74.4621
v  -63.9389 97.4865 75.1930
v  -76.2119 96.7023 75.3234
v  -63.9392 96.4236 76.3878
v  -76.2123 95.6147 76.5291
v  -63.9404 90.4678 81.6143
v  -63.9400 93.7961 78.9460
v  -76.2176 89.6570 81.7666
v  -76.2136 92.9578 79.1046
v  -76.2110 97.2236 72.6133
v  -63.9380 97.9184 72.4922
v  -63.9378 97.9870 71.6591
v  -76.2108 97.3042 71.7856
v  -17.2482 90.9347 81.3764
v  -7.2441 90.4025 81.6424
v  1.4560 89.7871 81.9556
v  9.3180 88.9451 82.3797
v  16.8723 87.7345 82.9839
v  24.1390 86.1151 83.8187
v  20.5641 86.9742 83.3503
v  31.2645 84.1357 84.5852
v  28.4462 84.9428 84.2317
v  25.5815 85.7308 83.9238
# 83 vertices

vn 0.2534 0.9575 0.1381
vn 0.2925 0.9369 0.1914
vn 0.2618 0.9611 0.0886
vn 0.3038 0.9425 0.1394
vn 0.1702 0.9809 0.0938
vn 0.2132 0.9713 0.1056
vn 0.1757 0.9831 0.0523
vn 0.2200 0.9736 0.0603
vn 0.0826 0.9888 0.1239
vn 0.1246 0.9865 0.1060
vn 0.0858 0.9937 0.0716
vn 0.1294 0.9898 0.0602
vn 0.1305 0.9890 0.0698
vn 0.0873 0.9939 0.0669
vn 0.0236 0.9910 0.1320
vn 0.0494 0.9899 0.1328
vn 0.0242 0.9969 0.0749
vn 0.0511 0.9958 0.0763
vn 0.0240 0.9975 0.0664
vn 0.0517 0.9964 0.0666
vn 0.1710 0.7706 0.6139
vn 0.1381 0.7713 0.6213
vn 0.1483 0.7308 0.6663
vn 0.1189 0.7411 0.6608
vn 0.1101 0.7679 0.6310
vn 0.0859 0.7599 0.6444
vn 0.0866 0.7304 0.6775
vn 0.0636 0.7098 0.7015
vn 0.0386 0.7228 0.6900
vn 0.0278 0.6724 0.7396
vn 0.0578 0.7424 0.6675
vn 0.0403 0.6906 0.7221
vn 0.0120 0.7111 0.7030
vn 0.0104 0.6580 0.7530
vn 0.0232 0.7132 0.7006
vn 0.0176 0.6618 0.7495
vn 0.0003 0.9917 0.1284
vn 0.0007 0.9973 0.0728
vn -0.0196 0.9967 0.0788
vn -0.0206 0.9907 0.1347
vn -0.0192 0.9973 0.0702
vn 0.0010 0.9978 0.0662
vn 0.0091 0.6235 0.7818
vn 0.0011 0.6234 0.7819
vn 0.0006 0.6588 0.7523
vn -0.0128 0.6246 0.7809
vn -0.0138 0.6603 0.7509
vn -0.0001 0.7129 0.7013
vn -0.0154 0.7144 0.6995
vn 0.1897 0.8698 0.4554
vn 0.2244 0.8571 0.4637
vn 0.1248 0.8793 0.4597
vn 0.1571 0.8784 0.4515
vn 0.0575 0.8553 0.5149
vn 0.0907 0.8698 0.4851
vn 0.0166 0.8451 0.5343
vn 0.0343 0.8460 0.5321
vn -0.0003 0.8488 0.5287
vn -0.0187 0.8505 0.5256
vn -0.0449 0.9864 0.1582
vn -0.0717 0.9795 0.1885
vn -0.0384 0.8453 0.5328
vn -0.0564 0.8364 0.5453
vn -0.0316 0.7129 0.7006
vn -0.0442 0.7102 0.7027
vn -0.0268 0.6255 0.7797
vn -0.0288 0.6596 0.7511
vn -0.0355 0.6280 0.7774
vn -0.0391 0.6600 0.7502
vn -0.0714 0.9898 0.1232
vn -0.0436 0.9942 0.0981
vn -0.0422 0.9958 0.0817
vn -0.0702 0.9929 0.0964
vn 0.0136 0.6279 0.7782
vn 0.0197 0.6399 0.7682
vn 0.0302 0.6603 0.7504
vn 0.0480 0.6830 0.7288
vn 0.0618 0.7024 0.7091
vn 0.1017 0.7157 0.6910
vn 0.0751 0.7007 0.7094
vn 0.1303 0.6994 0.7027
vn 0.1151 0.7050 0.6998
vn 0.1240 0.7071 0.6962
# 83 vertex normals

vt 0.5170 0.2573 0.0000
vt 0.5288 0.2534 0.0000
vt 0.5177 0.2588 0.0000
vt 0.5294 0.2546 0.0000
vt 0.4934 0.2628 0.0000
vt 0.5053 0.2604 0.0000
vt 0.4942 0.2654 0.0000
vt 0.5061 0.2623 0.0000
vt 0.4673 0.2659 0.0000
vt 0.4809 0.2645 0.0000
vt 0.4676 0.2684 0.0000
vt 0.4814 0.2671 0.0000
vt 0.4815 0.2673 0.0000
vt 0.4677 0.2691 0.0000
vt 0.4356 0.2680 0.0000
vt 0.4520 0.2672 0.0000
vt 0.4357 0.2705 0.0000
vt 0.4524 0.2698 0.0000
vt 0.4357 0.2715 0.0000
vt 0.4524 0.2706 0.0000
vt 0.5276 0.2504 0.0000
vt 0.5158 0.2541 0.0000
vt 0.5259 0.2463 0.0000
vt 0.5145 0.2499 0.0000
vt 0.5043 0.2570 0.0000
vt 0.4927 0.2594 0.0000
vt 0.5032 0.2527 0.0000
vt 0.4917 0.2549 0.0000
vt 0.4670 0.2625 0.0000
vt 0.4668 0.2578 0.0000
vt 0.4804 0.2612 0.0000
vt 0.4798 0.2566 0.0000
vt 0.4356 0.2644 0.0000
vt 0.4356 0.2591 0.0000
vt 0.4519 0.2637 0.0000
vt 0.4518 0.2585 0.0000
vt 0.4185 0.2685 0.0000
vt 0.4185 0.2712 0.0000
vt 0.4010 0.2711 0.0000
vt 0.4010 0.2684 0.0000
vt 0.4009 0.2723 0.0000
vt 0.4185 0.2724 0.0000
vt 0.4356 0.2532 0.0000
vt 0.4184 0.2534 0.0000
vt 0.4185 0.2596 0.0000
vt 0.4007 0.2533 0.0000
vt 0.4008 0.2594 0.0000
vt 0.4186 0.2650 0.0000
vt 0.4009 0.2647 0.0000
vt 0.5165 0.2561 0.0000
vt 0.5283 0.2523 0.0000
vt 0.4931 0.2615 0.0000
vt 0.5049 0.2591 0.0000
vt 0.4672 0.2647 0.0000
vt 0.4807 0.2633 0.0000
vt 0.4356 0.2667 0.0000
vt 0.4519 0.2660 0.0000
vt 0.4186 0.2673 0.0000
vt 0.4010 0.2671 0.0000
vt 0.3831 0.2682 0.0000
vt 0.3651 0.2674 0.0000
vt 0.3831 0.2669 0.0000
vt 0.3651 0.2661 0.0000
vt 0.3831 0.2645 0.0000
vt 0.3651 0.2637 0.0000
vt 0.3828 0.2527 0.0000
vt 0.3830 0.2591 0.0000
vt 0.3649 0.2523 0.0000
vt 0.3650 0.2584 0.0000
vt 0.3651 0.2701 0.0000
vt 0.3831 0.2710 0.0000
vt 0.3831 0.2722 0.0000
vt 0.3651 0.2713 0.0000
vt 0.4519 0.2528 0.0000
vt 0.4666 0.2525 0.0000
vt 0.4794 0.2514 0.0000
vt 0.4910 0.2500 0.0000
vt 0.5022 0.2480 0.0000
vt 0.5129 0.2456 0.0000
vt 0.5076 0.2468 0.0000
vt 0.5234 0.2426 0.0000
vt 0.5192 0.2438 0.0000
vt 0.5150 0.2449 0.0000
# 83 texture coords

g Z166_18A5_R_Z166_18A5_R_1_DaS
usemtl paint_whiteSG
s 1
f 63/2/78 64/3/79 65/4/80 
f 64/3/79 66/5/81 65/4/80 
f 67/6/82 68/7/83 69/8/84 
f 68/7/83 70/9/85 69/8/84 
f 68/7/83 63/2/78 70/9/85 
f 63/2/78 65/4/80 70/9/85 
f 71/10/86 72/11/87 73/12/88 
f 72/11/87 74/13/89 73/12/88 
f 75/14/90 76/15/91 74/13/89 
f 76/15/91 73/12/88 74/13/89 
f 75/14/90 74/13/89 69/8/84 
f 72/11/87 67/6/82 74/13/89 
f 67/6/82 69/8/84 74/13/89 
f 77/16/92 78/17/93 79/18/94 
f 78/17/93 80/19/95 79/18/94 
f 81/20/96 79/18/94 82/21/97 
f 79/18/94 80/19/95 82/21/97 
f 76/15/91 82/21/97 73/12/88 
f 82/21/97 80/19/95 73/12/88 
f 78/17/93 71/10/86 80/19/95 
f 71/10/86 73/12/88 80/19/95 
f 83/22/98 84/23/99 85/24/100 
f 84/23/99 86/25/101 85/24/100 
f 87/26/102 88/27/103 89/28/104 
f 88/27/103 90/29/105 89/28/104 
f 84/23/99 87/26/102 86/25/101 
f 87/26/102 89/28/104 86/25/101 
f 91/30/106 92/31/107 93/32/108 
f 92/31/107 94/33/109 93/32/108 
f 88/27/103 93/32/108 90/29/105 
f 93/32/108 94/33/109 90/29/105 
f 95/34/110 96/35/111 97/36/112 
f 96/35/111 98/37/113 97/36/112 
f 92/31/107 91/30/106 98/37/113 
f 91/30/106 97/36/112 98/37/113 
f 77/16/92 79/18/94 99/38/114 
f 79/18/94 100/39/115 99/38/114 
f 101/40/116 102/41/117 100/39/115 
f 102/41/117 99/38/114 100/39/115 
f 103/42/118 101/40/116 104/43/119 
f 101/40/116 100/39/115 104/43/119 
f 79/18/94 81/20/96 100/39/115 
f 81/20/96 104/43/119 100/39/115 
f 105/44/120 96/35/111 106/45/121 
f 96/35/111 107/46/122 106/45/121 
f 108/47/123 106/45/121 109/48/124 
f 106/45/121 107/46/122 109/48/124 
f 110/49/125 111/50/126 107/46/122 
f 111/50/126 109/48/124 107/46/122 
f 96/35/111 95/34/110 107/46/122 
f 95/34/110 110/49/125 107/46/122 
f 84/23/99 83/22/98 112/51/127 
f 83/22/98 113/52/128 112/51/127 
f 64/3/79 63/2/78 113/52/128 
f 63/2/78 112/51/127 113/52/128 
f 88/27/103 87/26/102 114/53/129 
f 87/26/102 115/54/130 114/53/129 
f 68/7/83 67/6/82 115/54/130 
f 67/6/82 114/53/129 115/54/130 
f 63/2/78 68/7/83 112/51/127 
f 68/7/83 115/54/130 112/51/127 
f 87/26/102 84/23/99 115/54/130 
f 84/23/99 112/51/127 115/54/130 
f 91/30/106 93/32/108 116/55/131 
f 93/32/108 117/56/132 116/55/131 
f 72/11/87 71/10/86 117/56/132 
f 71/10/86 116/55/131 117/56/132 
f 67/6/82 72/11/87 114/53/129 
f 72/11/87 117/56/132 114/53/129 
f 93/32/108 88/27/103 117/56/132 
f 88/27/103 114/53/129 117/56/132 
f 118/57/133 95/34/110 119/58/134 
f 95/34/110 97/36/112 119/58/134 
f 77/16/92 118/57/133 78/17/93 
f 118/57/133 119/58/134 78/17/93 
f 71/10/86 78/17/93 116/55/131 
f 78/17/93 119/58/134 116/55/131 
f 91/30/106 116/55/131 97/36/112 
f 116/55/131 119/58/134 97/36/112 
f 95/34/110 118/57/133 110/49/125 
f 118/57/133 120/59/135 110/49/125 
f 111/50/126 110/49/125 121/60/136 
f 110/49/125 120/59/135 121/60/136 
f 102/41/117 121/60/136 99/38/114 
f 121/60/136 120/59/135 99/38/114 
f 118/57/133 77/16/92 120/59/135 
f 77/16/92 99/38/114 120/59/135 
f 122/61/137 123/62/138 124/63/139 
f 123/62/138 125/64/140 124/63/139 
f 102/41/117 122/61/137 121/60/136 
f 122/61/137 124/63/139 121/60/136 
f 126/65/141 111/50/126 124/63/139 
f 111/50/126 121/60/136 124/63/139 
f 127/66/142 126/65/141 125/64/140 
f 126/65/141 124/63/139 125/64/140 
f 128/67/143 108/47/123 129/68/144 
f 108/47/123 109/48/124 129/68/144 
f 130/69/145 128/67/143 131/70/146 
f 128/67/143 129/68/144 131/70/146 
f 126/65/141 127/66/142 129/68/144 
f 127/66/142 131/70/146 129/68/144 
f 111/50/126 126/65/141 109/48/124 
f 126/65/141 129/68/144 109/48/124 
f 123/62/138 122/61/137 132/71/147 
f 122/61/137 133/72/148 132/71/147 
f 134/73/149 135/74/150 133/72/148 
f 135/74/150 132/71/147 133/72/148 
f 103/42/118 134/73/149 101/40/116 
f 134/73/149 133/72/148 101/40/116 
f 122/61/137 102/41/117 133/72/148 
f 102/41/117 101/40/116 133/72/148 
f 136/75/151 98/37/113 105/44/120 
f 98/37/113 96/35/111 105/44/120 
f 137/76/152 92/31/107 136/75/151 
f 92/31/107 98/37/113 136/75/151 
f 138/77/153 94/33/109 137/76/152 
f 94/33/109 92/31/107 137/76/152 
f 139/78/154 90/29/105 138/77/153 
f 90/29/105 94/33/109 138/77/153 
f 140/79/155 89/28/104 139/78/154 
f 89/28/104 90/29/105 139/78/154 
f 86/25/101 89/28/104 141/80/156 
f 141/80/156 89/28/104 142/81/157 
f 142/81/157 89/28/104 140/79/155 
f 85/24/100 86/25/101 143/82/158 
f 143/82/158 86/25/101 144/83/159 
f 144/83/159 86/25/101 145/84/160 
f 86/25/101 141/80/156 145/84/160 
# 128 faces

#
# object Z166_18A5_R_Z166_18A5_R_1_DaS_E
#

v  -28.2621 91.1096 81.3817
v  -28.2685 90.6415 80.7956
v  -17.2482 90.9347 81.3764
v  -17.2568 90.4632 80.7930
v  -7.2441 90.4025 81.6424
v  -7.2555 89.9223 81.0662
v  1.4560 89.7871 81.9556
v  1.4379 89.2928 81.3918
v  9.3180 88.9451 82.3797
v  9.2869 88.4344 81.8314
v  16.8723 87.7345 82.9839
v  16.8248 87.2103 82.4495
v  20.5641 86.9742 83.3503
v  20.5068 86.4401 82.8267
v  24.1390 86.1151 83.8187
v  24.0663 85.5768 83.3015
v  25.5815 85.7308 83.9238
v  25.4946 85.1922 83.4089
v  28.4462 84.9428 84.2317
v  28.3585 84.4022 83.7192
v  31.2645 84.1357 84.5852
v  31.1437 83.6139 84.0616
v  -39.8488 91.2169 81.3973
v  -39.8499 90.7492 80.8109
v  -51.7910 91.0764 81.4482
v  -51.7818 90.6080 80.8624
v  -63.9404 90.4678 81.6143
v  -63.9208 89.9985 81.0294
v  -76.2176 89.6570 81.7666
v  -76.1919 89.1859 81.1835
# 30 vertices

vn -0.0093 -0.7813 0.6241
vn -0.0093 -0.7812 0.6242
vn -0.0352 -0.7770 0.6285
vn -0.0352 -0.7767 0.6289
vn -0.0680 -0.7660 0.6392
vn -0.0681 -0.7653 0.6400
vn -0.0970 -0.7473 0.6573
vn -0.0971 -0.7462 0.6586
vn -0.1431 -0.7208 0.6782
vn -0.1432 -0.7195 0.6795
vn -0.1904 -0.6930 0.6954
vn -0.1907 -0.6913 0.6969
vn -0.2336 -0.6681 0.7065
vn -0.2340 -0.6677 0.7067
vn -0.2392 -0.6557 0.7161
vn -0.2396 -0.6555 0.7161
vn -0.2421 -0.6505 0.7199
vn -0.2428 -0.6493 0.7207
vn -0.2629 -0.6421 0.7201
vn -0.2626 -0.6411 0.7212
vn -0.2748 -0.6486 0.7098
vn -0.2740 -0.6471 0.7115
vn 0.0028 -0.7818 0.6236
vn 0.0298 -0.7805 0.6245
vn 0.0298 -0.7805 0.6244
vn 0.0534 -0.7780 0.6260
vn 0.0535 -0.7781 0.6259
vn 0.0590 -0.7752 0.6290
vn 0.0590 -0.7753 0.6288
# 29 vertex normals

vt 0.4356 0.2532 0.0000
vt 0.4356 0.2521 0.0000
vt 0.4519 0.2528 0.0000
vt 0.4519 0.2517 0.0000
vt 0.4666 0.2525 0.0000
vt 0.4665 0.2513 0.0000
vt 0.4794 0.2514 0.0000
vt 0.4793 0.2503 0.0000
vt 0.4910 0.2500 0.0000
vt 0.4909 0.2489 0.0000
vt 0.5022 0.2480 0.0000
vt 0.5020 0.2469 0.0000
vt 0.5076 0.2468 0.0000
vt 0.5074 0.2457 0.0000
vt 0.5129 0.2456 0.0000
vt 0.5127 0.2445 0.0000
vt 0.5150 0.2449 0.0000
vt 0.5148 0.2438 0.0000
vt 0.5192 0.2438 0.0000
vt 0.5190 0.2427 0.0000
vt 0.5234 0.2426 0.0000
vt 0.5230 0.2416 0.0000
vt 0.4184 0.2534 0.0000
vt 0.4184 0.2523 0.0000
vt 0.4007 0.2533 0.0000
vt 0.4007 0.2522 0.0000
vt 0.3828 0.2527 0.0000
vt 0.3828 0.2516 0.0000
vt 0.3649 0.2523 0.0000
vt 0.3650 0.2512 0.0000
# 30 texture coords

g Z166_18A5_R_Z166_18A5_R_1_DaS_E
usemtl paint_whiteSG
s 16
f 146/85/161 147/86/162 148/87/163 
f 147/86/162 149/88/164 148/87/163 
f 148/87/163 149/88/164 150/89/165 
f 149/88/164 151/90/166 150/89/165 
f 150/89/165 151/90/166 152/91/167 
f 151/90/166 153/92/168 152/91/167 
f 152/91/167 153/92/168 154/93/169 
f 153/92/168 155/94/170 154/93/169 
f 154/93/169 155/94/170 156/95/171 
f 155/94/170 157/96/172 156/95/171 
f 156/95/171 157/96/172 158/97/173 
f 157/96/172 159/98/174 158/97/173 
f 160/99/175 158/97/173 161/100/176 
f 158/97/173 159/98/174 161/100/176 
f 160/99/175 161/100/176 162/101/177 
f 161/100/176 163/102/178 162/101/177 
f 162/101/177 163/102/178 164/103/179 
f 163/102/178 165/104/180 164/103/179 
f 166/105/181 164/103/179 167/106/182 
f 164/103/179 165/104/180 167/106/182 
f 168/107/183 169/108/183 146/85/161 
f 169/108/183 147/86/162 146/85/161 
f 170/109/184 171/110/185 168/107/183 
f 171/110/185 169/108/183 168/107/183 
f 172/111/186 173/112/187 170/109/184 
f 173/112/187 171/110/185 170/109/184 
f 174/113/188 175/114/189 172/111/186 
f 175/114/189 173/112/187 172/111/186 
# 28 faces

