# 3ds Max Wavefront OBJ Exporter v0.97b - (c)2007 guruware
# File Created: 04.01.2016 13:36:38

mtllib Y653_182C_C.mtl

#
# object Y653_182C_C_D_Y653_182C_C
#

v  135.9914 53.2492 -27.0610
v  136.6753 53.2061 -13.3367
v  135.9914 51.0560 -27.0610
v  136.6753 51.0561 -13.3367
v  136.9450 53.1926 0.0000
v  136.9450 51.0564 0.0000
v  133.9546 53.4121 -55.1276
v  135.0592 53.3218 -41.2987
v  133.9546 51.0547 -55.1276
v  135.0592 51.0556 -41.2987
v  131.3754 53.6754 -76.0085
v  132.7227 53.5169 -67.2619
v  131.3754 51.0527 -76.0085
v  132.7227 51.0541 -67.2619
v  129.9274 53.9215 -80.2605
v  129.9274 51.0506 -80.2605
v  131.9448 52.8940 -79.1803
v  131.9448 51.0676 -79.1803
v  132.1396 52.8213 -79.0772
v  132.1396 51.0678 -79.0772
v  131.2106 53.2140 -79.6637
v  131.2106 51.0667 -79.6637
v  128.5330 54.5078 -81.3505
v  128.5330 51.5660 -81.3505
v  132.2647 52.7973 -78.5232
v  132.2647 51.0680 -78.5232
v  132.3143 52.7943 -78.1459
v  132.3143 51.0677 -78.1459
v  144.8787 53.9578 0.0000
v  144.4564 53.8801 -16.2235
v  144.8787 51.0641 0.0000
v  144.4564 51.0643 -16.2235
v  142.6504 53.7053 -35.7232
v  142.6504 51.0651 -35.7232
v  138.1786 52.5693 -60.7175
v  138.0181 52.5696 -61.4567
v  138.1786 51.0687 -60.7175
v  138.0181 51.0684 -61.4567
v  137.7409 52.5217 -62.3013
v  137.0865 52.4268 -64.2485
v  137.7409 51.0687 -62.3013
v  137.0865 51.0691 -64.2485
v  136.3224 52.4227 -66.7851
v  136.3224 51.0691 -66.7851
v  133.4106 52.7000 -75.1570
v  133.4106 51.0682 -75.1570
v  135.1091 52.5548 -70.5759
v  135.1091 51.0686 -70.5759
v  135.9338 52.4717 -68.1832
v  135.9338 51.0688 -68.1832
v  137.9826 52.5676 -61.5999
v  137.9826 51.0687 -61.5999
v  135.6644 52.5052 -69.0590
v  135.6644 51.0689 -69.0590
v  138.6816 52.6314 -58.2103
v  138.4486 52.5800 -59.4270
v  138.6816 51.0684 -58.2103
v  138.4486 51.0684 -59.4270
v  139.9112 53.0298 -51.7109
v  139.9112 51.0671 -51.7109
v  137.9271 52.5580 -61.7692
v  137.9271 51.0684 -61.7692
v  128.4373 59.0820 -81.6632
v  129.9274 58.3191 -80.2605
v  131.3754 57.6928 -76.0085
v  132.7227 57.2895 -67.2619
v  133.9546 57.0233 -55.1277
v  135.0592 56.7931 -41.2987
v  135.9914 56.6086 -27.0610
v  136.6753 56.4994 -13.3367
v  136.9450 56.4648 0.0000
v  135.9914 53.2492 27.0610
v  135.9914 51.0560 27.0610
v  136.6753 53.2061 13.3367
v  136.6753 51.0561 13.3367
v  133.9546 53.4121 55.1276
v  133.9546 51.0547 55.1276
v  135.0592 53.3218 41.2987
v  135.0592 51.0556 41.2987
v  131.3754 53.6754 76.0085
v  131.3754 51.0527 76.0085
v  132.7227 53.5169 67.2619
v  132.7227 51.0541 67.2619
v  129.9274 53.9215 80.2605
v  129.9274 51.0506 80.2605
v  131.9448 52.8940 79.1803
v  132.1396 52.8213 79.0772
v  131.9448 51.0676 79.1803
v  132.1396 51.0678 79.0772
v  131.2106 53.2140 79.6637
v  131.2106 51.0667 79.6637
v  128.2091 54.7192 81.5932
v  128.2091 51.7773 81.5932
v  132.2647 52.7973 78.5232
v  132.3143 52.7943 78.1459
v  132.2647 51.0680 78.5232
v  132.3143 51.0677 78.1459
v  144.4564 53.8801 16.2235
v  144.4564 51.0643 16.2235
v  142.6504 53.7054 35.7232
v  142.6504 51.0651 35.7232
v  138.1786 52.5693 60.7175
v  138.1786 51.0687 60.7175
v  138.0181 52.5696 61.4567
v  138.0181 51.0684 61.4567
v  137.7409 52.5217 62.3013
v  137.7409 51.0687 62.3013
v  137.0865 52.4268 64.2485
v  137.0865 51.0691 64.2485
v  136.3224 52.4227 66.7851
v  136.3224 51.0691 66.7851
v  133.4106 52.7000 75.1570
v  135.1091 52.5548 70.5759
v  133.4106 51.0682 75.1570
v  135.1091 51.0686 70.5759
v  135.9338 52.4717 68.1832
v  135.9338 51.0688 68.1832
v  137.9826 52.5676 61.5999
v  137.9826 51.0687 61.5999
v  135.6644 52.5052 69.0590
v  135.6644 51.0689 69.0590
v  138.6816 52.6314 58.2103
v  138.6816 51.0684 58.2103
v  138.4486 52.5800 59.4270
v  138.4486 51.0684 59.4270
v  139.9112 53.0299 51.7109
v  139.9112 51.0671 51.7109
v  137.9271 52.5580 61.7692
v  137.9271 51.0684 61.7692
v  128.4373 59.0820 81.6632
v  129.9274 58.3191 80.2605
v  131.3754 57.6928 76.0085
v  132.7227 57.2895 67.2619
v  133.9546 57.0233 55.1277
v  135.0592 56.7931 41.2987
v  135.9914 56.6086 27.0610
v  136.6753 56.4994 13.3367
# 137 vertices

vn 0.9983 0.0000 -0.0577
vn 0.9994 0.0000 -0.0352
vn 1.0000 0.0000 -0.0000
vn 0.9960 0.0000 -0.0897
vn 0.9974 0.0000 -0.0724
vn 0.9775 -0.0000 -0.2108
vn 0.9924 0.0000 -0.1227
vn 0.9776 0.0000 -0.2107
vn 0.8838 -0.0000 -0.4679
vn 0.8917 0.0000 -0.4526
vn -0.5398 0.0000 0.8418
vn -0.5343 0.0000 0.8453
vn -0.4680 0.0000 0.8837
vn -0.4679 0.0000 0.8838
vn -0.5352 0.0000 0.8447
vn -0.5367 0.0000 0.8438
vn -0.5330 0.0000 0.8461
vn -0.9827 -0.0000 0.1853
vn -0.9828 -0.0000 0.1844
vn -0.9468 -0.0000 0.3217
vn -0.9468 0.0000 0.3219
vn -1.0000 0.0000 -0.0000
vn -0.9981 0.0000 0.0621
vn -0.9981 0.0000 0.0622
vn -0.9920 0.0000 0.1263
vn -0.9919 0.0000 0.1267
vn -0.9782 0.0000 0.2075
vn -0.9762 0.0000 0.2168
vn -0.9470 0.0000 0.3212
vn -0.9533 0.0000 0.3020
vn -0.9470 0.0000 0.3211
vn -0.9534 0.0000 0.3016
vn -0.9597 0.0000 0.2810
vn -0.9597 0.0000 0.2811
vn -0.9381 0.0000 0.3463
vn -0.9380 0.0000 0.3467
vn -0.9605 0.0000 0.2784
vn -0.9606 0.0000 0.2781
vn -0.9604 0.0000 0.2787
vn -0.9602 0.0000 0.2794
vn -0.9452 -0.0000 0.3265
vn -0.9454 -0.0000 0.3260
vn -0.9825 0.0000 0.1862
vn -0.9805 0.0000 0.1965
vn -0.9805 0.0000 0.1967
vn -0.9848 0.0000 0.1735
vn -0.9848 0.0000 0.1737
vn -0.9455 0.0000 0.3255
vn -0.9455 0.0000 0.3257
vn -0.9754 -0.0000 0.2202
vn -0.9754 0.0000 0.2203
vn 0.6282 -0.0073 -0.7780
vn 0.6159 0.0000 -0.7878
vn 0.6751 -0.0362 -0.7369
vn 0.8673 -0.0113 -0.4977
vn 0.9763 -0.0000 -0.2165
vn 0.9924 -0.0000 -0.1233
vn 0.9960 0.0000 -0.0898
vn 0.9974 0.0000 -0.0725
vn 0.9983 0.0000 -0.0578
vn 0.9994 0.0000 -0.0353
vn -0.3438 0.5992 0.7230
vn -0.1677 0.9269 0.3357
vn -0.0179 0.9997 0.0163
vn -0.0085 1.0000 0.0019
vn -0.0038 1.0000 0.0040
vn -0.0052 1.0000 0.0036
vn -0.0111 0.9999 0.0021
vn -0.0094 1.0000 0.0029
vn -0.0075 1.0000 0.0013
vn -0.0037 1.0000 0.0007
vn -0.0041 1.0000 0.0014
vn -0.0042 1.0000 0.0014
vn -0.0043 1.0000 0.0012
vn -0.0010 1.0000 -0.0000
vn -0.0011 1.0000 0.0001
vn -0.0010 1.0000 0.0000
vn -0.0012 1.0000 0.0001
vn -0.0013 1.0000 0.0002
vn -0.0016 1.0000 0.0003
vn -0.0020 1.0000 0.0003
vn -0.0024 1.0000 0.0003
vn -0.0027 1.0000 0.0004
vn -0.0035 1.0000 0.0007
vn -0.0039 1.0000 0.0010
vn -0.0031 1.0000 0.0003
vn -0.0062 1.0000 0.0031
vn -0.0025 1.0000 -0.0002
vn -0.0051 1.0000 0.0022
vn -0.0046 1.0000 0.0017
vn 0.9983 0.0000 0.0577
vn 0.9994 0.0000 0.0352
vn 0.9960 0.0000 0.0897
vn 0.9974 0.0000 0.0724
vn 0.9775 -0.0000 0.2108
vn 0.9776 0.0000 0.2107
vn 0.9924 0.0000 0.1227
vn 0.8714 -0.0000 0.4906
vn 0.8820 0.0000 0.4713
vn -0.5398 0.0000 -0.8418
vn -0.4680 0.0000 -0.8837
vn -0.5343 0.0000 -0.8453
vn -0.4679 0.0000 -0.8838
vn -0.5418 0.0000 -0.8405
vn -0.5426 0.0000 -0.8400
vn -0.5408 0.0000 -0.8412
vn -0.9827 0.0000 -0.1853
vn -0.9468 -0.0000 -0.3217
vn -0.9828 0.0000 -0.1844
vn -0.9468 0.0000 -0.3219
vn -0.9981 0.0000 -0.0621
vn -0.9981 0.0000 -0.0622
vn -0.9920 0.0000 -0.1263
vn -0.9919 0.0000 -0.1267
vn -0.9782 0.0000 -0.2075
vn -0.9762 0.0000 -0.2168
vn -0.9470 0.0000 -0.3212
vn -0.9470 0.0000 -0.3211
vn -0.9533 0.0000 -0.3020
vn -0.9534 0.0000 -0.3016
vn -0.9597 -0.0000 -0.2810
vn -0.9597 0.0000 -0.2811
vn -0.9381 0.0000 -0.3463
vn -0.9380 0.0000 -0.3467
vn -0.9605 -0.0000 -0.2784
vn -0.9606 -0.0000 -0.2781
vn -0.9604 0.0000 -0.2787
vn -0.9602 -0.0000 -0.2794
vn -0.9452 0.0000 -0.3265
vn -0.9454 0.0000 -0.3260
vn -0.9825 0.0000 -0.1862
vn -0.9805 0.0000 -0.1965
vn -0.9805 0.0000 -0.1967
vn -0.9848 0.0000 -0.1735
vn -0.9848 0.0000 -0.1737
vn -0.9455 0.0000 -0.3255
vn -0.9455 -0.0000 -0.3257
vn -0.9754 0.0000 -0.2203
vn 0.6239 -0.0085 0.7815
vn 0.6129 0.0000 0.7902
vn 0.6718 -0.0470 0.7392
vn 0.8628 -0.0132 0.5054
vn 0.9763 -0.0000 0.2165
vn 0.9924 -0.0000 0.1233
vn 0.9960 0.0000 0.0898
vn 0.9974 0.0000 0.0725
vn 0.9983 0.0000 0.0578
vn 0.9994 0.0000 0.0353
vn -0.3601 0.5416 -0.7596
vn -0.0216 0.9995 -0.0241
vn -0.2061 0.8841 -0.4194
vn -0.0085 1.0000 -0.0019
vn -0.0038 1.0000 -0.0040
vn -0.0052 1.0000 -0.0036
vn -0.0111 0.9999 -0.0021
vn -0.0094 1.0000 -0.0029
vn -0.0075 1.0000 -0.0013
vn -0.0037 1.0000 -0.0007
vn -0.0041 1.0000 -0.0014
vn -0.0042 1.0000 -0.0014
vn -0.0043 1.0000 -0.0012
vn -0.0011 1.0000 -0.0001
vn -0.0012 1.0000 -0.0001
vn -0.0013 1.0000 -0.0002
vn -0.0016 1.0000 -0.0003
vn -0.0020 1.0000 -0.0003
vn -0.0024 1.0000 -0.0003
vn -0.0027 1.0000 -0.0004
vn -0.0035 1.0000 -0.0007
vn -0.0039 1.0000 -0.0010
vn -0.0031 1.0000 -0.0003
vn -0.0062 1.0000 -0.0032
vn -0.0025 1.0000 0.0002
vn -0.0051 1.0000 -0.0022
vn -0.0046 1.0000 -0.0017
# 175 vertex normals

g Y653_182C_C_D_Y653_182C_C
usemtl diffuse_black_plasticSG
s 1
f 1//1 2//2 3//1 
f 3//1 2//2 4//2 
f 2//2 5//3 4//2 
f 4//2 5//3 6//3 
f 7//4 8//5 9//4 
f 9//4 8//5 10//5 
f 8//5 1//1 10//5 
f 10//5 1//1 3//1 
f 11//6 12//7 13//8 
f 13//8 12//7 14//7 
f 12//7 7//4 14//7 
f 14//7 7//4 9//4 
f 15//9 11//6 16//10 
f 16//10 11//6 13//8 
s 5
f 17//11 18//12 19//13 
f 19//13 18//12 20//14 
f 21//15 22//16 17//11 
f 17//11 22//16 18//12 
f 23//17 24//17 21//15 
f 21//15 24//17 22//16 
s 7
f 25//18 26//19 27//20 
f 27//20 26//19 28//21 
f 29//22 30//23 31//22 
f 31//22 30//23 32//24 
f 30//23 33//25 32//24 
f 32//24 33//25 34//26 
f 35//27 36//28 37//27 
f 37//27 36//28 38//28 
f 39//29 40//30 41//31 
f 41//31 40//30 42//32 
f 40//30 43//33 42//32 
f 42//32 43//33 44//34 
f 45//35 46//35 47//36 
f 47//36 46//35 48//36 
f 49//37 50//38 43//33 
f 43//33 50//38 44//34 
f 36//28 51//39 38//28 
f 38//28 51//39 52//40 
f 27//20 28//21 45//35 
f 45//35 28//21 46//35 
f 47//36 48//36 53//41 
f 53//41 48//36 54//42 
f 53//41 54//42 49//37 
f 49//37 54//42 50//38 
f 55//43 56//44 57//43 
f 57//43 56//44 58//45 
f 59//46 55//43 60//47 
f 60//47 55//43 57//43 
f 61//48 39//29 62//49 
f 62//49 39//29 41//31 
f 51//39 61//48 52//40 
f 52//40 61//48 62//49 
f 33//25 59//46 34//26 
f 34//26 59//46 60//47 
f 56//44 35//27 58//45 
f 58//45 35//27 37//27 
f 26//19 25//18 20//50 
f 20//50 25//18 19//51 
s 1
f 23//52 15//9 24//53 
f 24//53 15//9 16//10 
f 63//54 64//55 23//52 
f 23//52 64//55 15//9 
f 64//55 65//56 15//9 
f 15//9 65//56 11//6 
f 65//56 66//57 11//6 
f 11//6 66//57 12//7 
f 66//57 67//58 12//7 
f 12//7 67//58 7//4 
f 67//58 68//59 7//4 
f 7//4 68//59 8//5 
f 68//59 69//60 8//5 
f 8//5 69//60 1//1 
f 69//60 70//61 1//1 
f 1//1 70//61 2//2 
f 70//61 71//3 2//2 
f 2//2 71//3 5//3 
s 15
f 24//62 16//63 22//64 
f 16//63 13//65 22//64 
f 22//64 13//65 18//66 
f 18//66 13//65 20//67 
f 20//67 13//65 26//68 
f 26//68 13//65 28//69 
f 28//69 13//65 46//70 
f 13//65 14//71 46//70 
f 46//70 14//71 48//72 
f 48//72 14//71 54//73 
f 54//73 14//71 50//74 
f 31//75 32//76 6//75 
f 6//75 32//76 4//77 
f 4//77 32//76 3//78 
f 32//76 34//79 3//78 
f 3//78 34//79 10//80 
f 34//79 60//81 10//80 
f 10//80 60//81 9//82 
f 60//81 57//83 9//82 
f 9//82 57//83 14//71 
f 57//83 58//84 14//71 
f 58//84 37//85 14//71 
f 37//85 38//86 14//71 
f 38//86 52//87 14//71 
f 52//87 62//88 14//71 
f 62//88 41//89 14//71 
f 41//89 42//90 14//71 
f 42//90 44//74 14//71 
f 44//74 50//74 14//71 
s 1
f 72//91 73//91 74//92 
f 73//91 75//92 74//92 
f 74//92 75//92 5//3 
f 75//92 6//3 5//3 
f 76//93 77//93 78//94 
f 77//93 79//94 78//94 
f 78//94 79//94 72//91 
f 79//94 73//91 72//91 
f 80//95 81//96 82//97 
f 81//96 83//97 82//97 
f 82//97 83//97 76//93 
f 83//97 77//93 76//93 
f 84//98 85//99 80//95 
f 85//99 81//96 80//95 
s 21
f 86//100 87//101 88//102 
f 87//101 89//103 88//102 
f 90//104 86//100 91//105 
f 86//100 88//102 91//105 
f 92//106 90//104 93//106 
f 90//104 91//105 93//106 
s 7
f 94//107 95//108 96//109 
f 95//108 97//110 96//109 
f 29//22 31//22 98//111 
f 31//22 99//112 98//111 
f 98//111 99//112 100//113 
f 99//112 101//114 100//113 
f 102//115 103//115 104//116 
f 103//115 105//116 104//116 
f 106//117 107//118 108//119 
f 107//118 109//120 108//119 
f 108//119 109//120 110//121 
f 109//120 111//122 110//121 
f 112//123 113//124 114//123 
f 113//124 115//124 114//123 
f 116//125 110//121 117//126 
f 110//121 111//122 117//126 
f 104//116 105//116 118//127 
f 105//116 119//128 118//127 
f 95//108 112//123 97//110 
f 112//123 114//123 97//110 
f 113//124 120//129 115//124 
f 120//129 121//130 115//124 
f 120//129 116//125 121//130 
f 116//125 117//126 121//130 
f 122//131 123//131 124//132 
f 123//131 125//133 124//132 
f 126//134 127//135 122//131 
f 127//135 123//131 122//131 
f 128//136 129//137 106//117 
f 129//137 107//118 106//117 
f 118//127 119//128 128//136 
f 119//128 129//137 128//136 
f 100//113 101//114 126//134 
f 101//114 127//135 126//134 
f 124//132 125//133 102//115 
f 125//133 103//115 102//115 
f 96//109 89//138 94//107 
f 89//138 87//138 94//107 
s 1
f 92//139 93//140 84//98 
f 93//140 85//99 84//98 
f 130//141 92//139 131//142 
f 92//139 84//98 131//142 
f 131//142 84//98 132//143 
f 84//98 80//95 132//143 
f 132//143 80//95 133//144 
f 80//95 82//97 133//144 
f 133//144 82//97 134//145 
f 82//97 76//93 134//145 
f 134//145 76//93 135//146 
f 76//93 78//94 135//146 
f 135//146 78//94 136//147 
f 78//94 72//91 136//147 
f 136//147 72//91 137//148 
f 72//91 74//92 137//148 
f 137//148 74//92 71//3 
f 74//92 5//3 71//3 
s 15
f 93//149 91//150 85//151 
f 85//151 91//150 81//152 
f 91//150 88//153 81//152 
f 88//153 89//154 81//152 
f 89//154 96//155 81//152 
f 96//155 97//156 81//152 
f 97//156 114//157 81//152 
f 81//152 114//157 83//158 
f 114//157 115//159 83//158 
f 115//159 121//160 83//158 
f 121//160 117//161 83//158 
f 31//75 6//75 99//162 
f 6//75 75//75 99//162 
f 75//75 73//163 99//162 
f 99//162 73//163 101//164 
f 73//163 79//165 101//164 
f 101//164 79//165 127//166 
f 79//165 77//167 127//166 
f 127//166 77//167 123//168 
f 77//167 83//158 123//168 
f 123//168 83//158 125//169 
f 125//169 83//158 103//170 
f 103//170 83//158 105//171 
f 105//171 83//158 119//172 
f 119//172 83//158 129//173 
f 129//173 83//158 107//174 
f 107//174 83//158 109//175 
f 109//175 83//158 111//161 
f 111//161 83//158 117//161 
# 210 faces

