# 3ds Max Wavefront OBJ Exporter v0.97b - (c)2007 guruware
# File Created: 04.01.2016 13:44:11

mtllib Y653_285B_R.mtl

#
# object Y653_285B_R_DTaSI_Y653_285B_R
#

v  45.2021 93.9021 76.4580
v  37.8380 96.1514 75.5132
v  43.7818 93.6049 76.6006
v  37.8661 94.9444 76.0744
v  52.8473 90.0861 78.0417
v  47.6970 90.5450 77.8909
v  39.4020 91.5778 77.5504
v  -14.6837 102.7271 73.1207
v  -14.3745 100.4581 74.1600
v  -1.3302 101.6682 73.4460
v  -1.1021 99.5302 74.4793
v  14.8845 98.1628 74.9471
v  14.7137 100.0895 73.9774
v  15.2478 94.1049 76.7906
v  -0.6464 95.2225 76.3814
v  -13.7621 96.0049 76.0589
v  28.1576 96.5501 75.4991
v  28.7310 92.8370 77.1783
v  27.9898 98.1807 74.6943
v  -12.7580 88.7332 79.0035
v  -11.5447 79.8636 82.5325
v  0.1052 88.0713 79.3386
v  1.0153 79.3023 82.8555
v  15.8741 87.1659 79.7240
v  16.6448 78.5648 83.2079
v  42.2722 85.1930 80.2601
v  45.2013 77.0218 83.5798
v  54.3024 84.2373 80.5016
v  60.6184 76.1656 83.7091
v  63.4984 83.6560 80.6426
v  75.4037 75.3955 83.8543
v  29.7861 86.1911 80.0181
v  31.0261 77.8132 83.4368
v  47.0595 68.8493 86.6992
v  47.9627 62.7064 88.9521
v  63.2526 68.1502 86.6985
v  63.8805 62.1455 88.8492
v  76.5104 67.4853 86.7250
v  76.4612 61.6850 88.7556
v  17.3926 70.0776 86.5163
v  32.1123 69.4793 86.6590
v  32.8580 63.2298 88.9953
v  17.9449 63.7386 88.9312
v  -10.3751 71.1547 85.9862
v  1.8931 70.6839 86.2463
v  2.5399 64.2582 88.7482
v  -9.5136 64.6626 88.5592
v  76.3672 58.4769 89.8712
v  76.3856 59.1006 89.6541
v  64.0835 58.8560 90.0166
v  64.0442 59.4942 89.7899
v  48.3104 59.9928 89.9378
v  48.3941 59.3400 90.1750
v  18.1878 60.9427 89.9905
v  33.1801 60.4707 90.0184
v  33.2575 59.8070 90.2645
v  18.2463 60.2702 90.2453
v  -9.1348 61.8006 89.6933
v  2.8242 61.4253 89.8485
v  2.8926 60.7439 90.1131
v  -9.0437 61.1122 89.9661
v  -15.8507 64.8750 88.4544
v  -15.4009 62.0108 89.6012
v  -14.7637 64.8386 88.4723
v  -14.3355 61.9660 89.6205
v  -14.2212 61.2855 89.8925
v  -15.1972 61.4108 89.8416
v  -18.1870 80.1569 82.3572
v  -16.8417 71.4018 85.8437
v  -17.0477 80.1066 82.3873
v  -15.7325 71.3594 85.8682
v  -19.5825 89.0758 78.8233
v  -18.4119 89.0170 78.8543
v  -20.7374 96.4055 75.8890
v  -19.5409 96.3368 75.9182
v  -21.7982 103.2631 72.9603
v  -21.4421 100.9293 73.9975
v  -20.5780 103.1712 72.9878
v  -20.2298 100.8485 74.0255
v  -21.8844 104.7960 72.2612
v  -21.9481 104.3733 72.4553
v  -20.8087 104.8434 72.2230
v  -20.7418 104.2922 72.4752
v  -14.8322 103.8173 72.6083
v  -14.9071 104.3643 72.3517
v  -1.4944 103.1783 72.6930
v  -1.4393 102.6786 72.9415
v  14.6307 100.9944 73.5050
v  14.5847 101.4549 73.2671
v  37.9513 96.7374 75.2356
v  27.9210 98.9650 74.2962
v  27.8669 99.4183 74.0715
v  37.9424 97.1628 75.0396
v  46.0984 94.5104 76.1877
v  45.9383 94.1784 76.3322
v  55.3562 90.3230 77.9280
v  54.9349 90.0896 78.0264
v  82.7704 72.5120 84.8997
v  78.0126 77.7948 82.9379
v  83.1210 75.0726 84.0025
v  78.3471 78.2968 82.7443
v  83.2055 75.6750 83.7856
v  84.2753 74.4260 84.2473
v  84.1773 75.0513 84.0283
v  84.0774 71.9253 85.1070
v  82.3700 66.9012 86.8463
v  81.9751 61.4503 88.7260
v  83.6125 66.6349 86.9243
v  83.1486 61.3548 88.7382
v  81.7208 58.3240 89.8031
v  81.7814 58.9263 89.5952
v  82.9141 58.8935 89.5840
v  82.7415 58.3782 89.7631
v  67.5895 84.0308 80.4607
v  67.0231 83.7780 80.5657
# 115 vertices

vn 0.0073 0.4008 0.9162
vn 0.0148 0.4245 0.9053
vn 0.0109 0.4035 0.9149
vn 0.0151 0.4117 0.9112
vn 0.0083 0.3904 0.9206
vn 0.0113 0.3948 0.9187
vn 0.0135 0.3983 0.9172
vn 0.0110 0.4205 0.9072
vn 0.0062 0.4017 0.9158
vn 0.0123 0.4394 0.8982
vn 0.0072 0.4146 0.9100
vn 0.0105 0.4253 0.9050
vn 0.0151 0.4542 0.8908
vn 0.0063 0.3980 0.9174
vn 0.0020 0.3903 0.9207
vn 0.0006 0.3826 0.9239
vn 0.0143 0.4227 0.9062
vn 0.0118 0.4002 0.9164
vn 0.0169 0.4473 0.8942
vn -0.0043 0.3725 0.9280
vn -0.0070 0.3689 0.9294
vn -0.0023 0.3768 0.9263
vn -0.0045 0.3694 0.9293
vn 0.0029 0.3817 0.9243
vn 0.0010 0.3699 0.9291
vn 0.0123 0.3857 0.9225
vn 0.0121 0.3690 0.9294
vn 0.0117 0.3826 0.9238
vn 0.0119 0.3643 0.9312
vn 0.0094 0.3780 0.9258
vn 0.0074 0.3535 0.9354
vn 0.0096 0.3852 0.9228
vn 0.0082 0.3703 0.9289
vn 0.0136 0.3532 0.9354
vn 0.0157 0.3448 0.9386
vn 0.0143 0.3464 0.9380
vn 0.0178 0.3371 0.9413
vn 0.0136 0.3370 0.9414
vn 0.0189 0.3291 0.9441
vn 0.0019 0.3604 0.9328
vn 0.0091 0.3571 0.9340
vn 0.0110 0.3501 0.9366
vn 0.0040 0.3554 0.9347
vn -0.0062 0.3676 0.9300
vn -0.0036 0.3645 0.9312
vn -0.0012 0.3619 0.9322
vn -0.0036 0.3672 0.9301
vn 0.0213 0.3281 0.9444
vn 0.0209 0.3279 0.9445
vn 0.0204 0.3356 0.9418
vn 0.0197 0.3351 0.9420
vn 0.0173 0.3430 0.9392
vn 0.0181 0.3434 0.9390
vn 0.0056 0.3544 0.9351
vn 0.0124 0.3486 0.9372
vn 0.0131 0.3489 0.9371
vn 0.0064 0.3547 0.9350
vn -0.0016 0.3677 0.9300
vn 0.0006 0.3617 0.9323
vn 0.0015 0.3621 0.9322
vn -0.0006 0.3682 0.9298
vn -0.0031 0.3707 0.9287
vn -0.0015 0.3711 0.9286
vn -0.0038 0.3696 0.9292
vn -0.0021 0.3702 0.9289
vn -0.0011 0.3708 0.9287
vn -0.0011 0.3713 0.9285
vn -0.0082 0.3681 0.9298
vn -0.0065 0.3695 0.9292
vn -0.0079 0.3685 0.9296
vn -0.0067 0.3690 0.9294
vn -0.0058 0.3696 0.9292
vn -0.0052 0.3705 0.9288
vn -0.0005 0.3783 0.9257
vn 0.0002 0.3793 0.9253
vn 0.0107 0.4108 0.9116
vn 0.0056 0.3953 0.9185
vn 0.0110 0.4123 0.9110
vn 0.0062 0.3963 0.9181
vn 0.0139 0.4156 0.9095
vn 0.0131 0.4157 0.9094
vn 0.0139 0.4174 0.9086
vn 0.0132 0.4174 0.9086
vn 0.0136 0.4265 0.9044
vn 0.0144 0.4262 0.9045
vn 0.0158 0.4463 0.8947
vn 0.0151 0.4471 0.8943
vn 0.0170 0.4624 0.8865
vn 0.0170 0.4602 0.8877
vn 0.0110 0.4232 0.9060
vn 0.0161 0.4509 0.8924
vn 0.0144 0.4458 0.8950
vn 0.0082 0.4191 0.9079
vn 0.0047 0.3973 0.9177
vn 0.0060 0.3978 0.9174
vn 0.0039 0.3824 0.9240
vn 0.0053 0.3847 0.9230
vn 0.0010 0.3369 0.9416
vn -0.0021 0.3572 0.9340
vn -0.0179 0.3339 0.9425
vn -0.0045 0.3624 0.9320
vn -0.0141 0.3417 0.9397
vn -0.0114 0.3302 0.9439
vn -0.0163 0.3313 0.9434
vn -0.0018 0.3271 0.9450
vn 0.0135 0.3270 0.9449
vn 0.0184 0.3244 0.9457
vn 0.0106 0.3246 0.9458
vn 0.0165 0.3235 0.9461
vn 0.0207 0.3246 0.9456
vn 0.0196 0.3250 0.9455
vn 0.0183 0.3239 0.9459
vn 0.0191 0.3232 0.9461
vn 0.0035 0.3758 0.9267
vn 0.0053 0.3730 0.9278
# 115 vertex normals

vt 0.8563 0.1292 0.0000
vt 0.8301 0.1372 0.0000
vt 0.8513 0.1282 0.0000
vt 0.8302 0.1329 0.0000
vt 0.8835 0.1157 0.0000
vt 0.8652 0.1173 0.0000
vt 0.8357 0.1210 0.0000
vt 0.6436 0.1606 0.0000
vt 0.6447 0.1525 0.0000
vt 0.6910 0.1568 0.0000
vt 0.6918 0.1492 0.0000
vt 0.7486 0.1444 0.0000
vt 0.7480 0.1512 0.0000
vt 0.7499 0.1300 0.0000
vt 0.6935 0.1339 0.0000
vt 0.6469 0.1367 0.0000
vt 0.7958 0.1386 0.0000
vt 0.7978 0.1255 0.0000
vt 0.7952 0.1444 0.0000
vt 0.6504 0.1109 0.0000
vt 0.6547 0.0794 0.0000
vt 0.6961 0.1085 0.0000
vt 0.6994 0.0774 0.0000
vt 0.7521 0.1053 0.0000
vt 0.7549 0.0748 0.0000
vt 0.8459 0.0983 0.0000
vt 0.8563 0.0693 0.0000
vt 0.8886 0.0949 0.0000
vt 0.9111 0.0662 0.0000
vt 0.9213 0.0928 0.0000
vt 0.9636 0.0635 0.0000
vt 0.8015 0.1019 0.0000
vt 0.8060 0.0721 0.0000
vt 0.8629 0.0403 0.0000
vt 0.8661 0.0184 0.0000
vt 0.9204 0.0378 0.0000
vt 0.9226 0.0164 0.0000
vt 0.9675 0.0354 0.0000
vt 0.9673 0.0148 0.0000
vt 0.7575 0.0446 0.0000
vt 0.8098 0.0425 0.0000
vt 0.8125 0.0203 0.0000
vt 0.7595 0.0221 0.0000
vt 0.6589 0.0484 0.0000
vt 0.7025 0.0468 0.0000
vt 0.7048 0.0239 0.0000
vt 0.6620 0.0254 0.0000
vt 0.9670 0.0034 0.0000
vt 0.9671 0.0056 0.0000
vt 0.9234 0.0048 0.0000
vt 0.9232 0.0070 0.0000
vt 0.8673 0.0088 0.0000
vt 0.8676 0.0065 0.0000
vt 0.7603 0.0122 0.0000
vt 0.8136 0.0105 0.0000
vt 0.8139 0.0081 0.0000
vt 0.7606 0.0098 0.0000
vt 0.6633 0.0152 0.0000
vt 0.7058 0.0139 0.0000
vt 0.7060 0.0115 0.0000
vt 0.6636 0.0128 0.0000
vt 0.6394 0.0261 0.0000
vt 0.6410 0.0160 0.0000
vt 0.6433 0.0260 0.0000
vt 0.6448 0.0158 0.0000
vt 0.6452 0.0134 0.0000
vt 0.6418 0.0138 0.0000
vt 0.6311 0.0804 0.0000
vt 0.6359 0.0493 0.0000
vt 0.6352 0.0802 0.0000
vt 0.6399 0.0492 0.0000
vt 0.6262 0.1121 0.0000
vt 0.6303 0.1119 0.0000
vt 0.6221 0.1381 0.0000
vt 0.6263 0.1379 0.0000
vt 0.6252 0.1528 0.0000
vt 0.6196 0.1542 0.0000
vt 0.6227 0.1622 0.0000
vt 0.6239 0.1539 0.0000
vt 0.6249 0.1582 0.0000
vt 0.6247 0.1567 0.0000
vt 0.6288 0.1584 0.0000
vt 0.6221 0.1661 0.0000
vt 0.6431 0.1645 0.0000
vt 0.6428 0.1664 0.0000
vt 0.6904 0.1622 0.0000
vt 0.6906 0.1604 0.0000
vt 0.7477 0.1544 0.0000
vt 0.7476 0.1561 0.0000
vt 0.8306 0.1393 0.0000
vt 0.7949 0.1472 0.0000
vt 0.7947 0.1488 0.0000
vt 0.8305 0.1408 0.0000
vt 0.8595 0.1314 0.0000
vt 0.8589 0.1302 0.0000
vt 0.8924 0.1165 0.0000
vt 0.8909 0.1157 0.0000
vt 0.9897 0.0533 0.0000
vt 0.9728 0.0720 0.0000
vt 0.9910 0.0624 0.0000
vt 0.9740 0.0738 0.0000
vt 0.9913 0.0645 0.0000
vt 0.9951 0.0601 0.0000
vt 0.9947 0.0623 0.0000
vt 0.9944 0.0512 0.0000
vt 0.9883 0.0333 0.0000
vt 0.9869 0.0140 0.0000
vt 0.9927 0.0324 0.0000
vt 0.9911 0.0136 0.0000
vt 0.9860 0.0029 0.0000
vt 0.9862 0.0050 0.0000
vt 0.9903 0.0049 0.0000
vt 0.9896 0.0031 0.0000
vt 0.9358 0.0942 0.0000
vt 0.9338 0.0933 0.0000
# 115 texture coords

g Y653_285B_R_DTaSI_Y653_285B_R
usemtl windowglass_1SG
s 1
f 1/1/1 2/2/2 3/3/3 
f 2/2/2 4/4/4 3/3/3 
f 5/5/5 1/1/1 6/6/6 
f 1/1/1 3/3/3 6/6/6 
f 4/4/4 7/7/7 3/3/3 
f 7/7/7 6/6/6 3/3/3 
f 8/8/8 9/9/9 10/10/10 
f 9/9/9 11/11/11 10/10/10 
f 12/12/12 13/13/13 11/11/11 
f 13/13/13 10/10/10 11/11/11 
f 14/14/14 12/12/12 15/15/15 
f 12/12/12 11/11/11 15/15/15 
f 9/9/9 16/16/16 11/11/11 
f 16/16/16 15/15/15 11/11/11 
f 12/12/12 14/14/14 17/17/17 
f 14/14/14 18/18/18 17/17/17 
f 13/13/13 12/12/12 19/19/19 
f 12/12/12 17/17/17 19/19/19 
f 4/4/4 2/2/2 17/17/17 
f 2/2/2 19/19/19 17/17/17 
f 7/7/7 4/4/4 18/18/18 
f 4/4/4 17/17/17 18/18/18 
f 20/20/20 21/21/21 22/22/22 
f 21/21/21 23/23/23 22/22/22 
f 16/16/16 20/20/20 15/15/15 
f 20/20/20 22/22/22 15/15/15 
f 24/24/24 14/14/14 22/22/22 
f 14/14/14 15/15/15 22/22/22 
f 25/25/25 24/24/24 23/23/23 
f 24/24/24 22/22/22 23/23/23 
f 26/26/26 27/27/27 28/28/28 
f 27/27/27 29/29/29 28/28/28 
f 7/7/7 26/26/26 6/6/6 
f 26/26/26 28/28/28 6/6/6 
f 30/30/30 5/5/5 28/28/28 
f 5/5/5 6/6/6 28/28/28 
f 31/31/31 30/30/30 29/29/29 
f 30/30/30 28/28/28 29/29/29 
f 14/14/14 24/24/24 18/18/18 
f 24/24/24 32/32/32 18/18/18 
f 26/26/26 7/7/7 32/32/32 
f 7/7/7 18/18/18 32/32/32 
f 27/27/27 26/26/26 33/33/33 
f 26/26/26 32/32/32 33/33/33 
f 24/24/24 25/25/25 32/32/32 
f 25/25/25 33/33/33 32/32/32 
f 34/34/34 35/35/35 36/36/36 
f 35/35/35 37/37/37 36/36/36 
f 27/27/27 34/34/34 29/29/29 
f 34/34/34 36/36/36 29/29/29 
f 38/38/38 31/31/31 36/36/36 
f 31/31/31 29/29/29 36/36/36 
f 39/39/39 38/38/38 37/37/37 
f 38/38/38 36/36/36 37/37/37 
f 25/25/25 40/40/40 33/33/33 
f 40/40/40 41/41/41 33/33/33 
f 34/34/34 27/27/27 41/41/41 
f 27/27/27 33/33/33 41/41/41 
f 35/35/35 34/34/34 42/42/42 
f 34/34/34 41/41/41 42/42/42 
f 40/40/40 43/43/43 41/41/41 
f 43/43/43 42/42/42 41/41/41 
f 21/21/21 44/44/44 23/23/23 
f 44/44/44 45/45/45 23/23/23 
f 40/40/40 25/25/25 45/45/45 
f 25/25/25 23/23/23 45/45/45 
f 43/43/43 40/40/40 46/46/46 
f 40/40/40 45/45/45 46/46/46 
f 44/44/44 47/47/47 45/45/45 
f 47/47/47 46/46/46 45/45/45 
f 48/48/48 49/49/49 50/50/50 
f 49/49/49 51/51/51 50/50/50 
f 52/52/52 53/53/53 51/51/51 
f 53/53/53 50/50/50 51/51/51 
f 35/35/35 52/52/52 37/37/37 
f 52/52/52 51/51/51 37/37/37 
f 49/49/49 39/39/39 51/51/51 
f 39/39/39 37/37/37 51/51/51 
f 43/43/43 54/54/54 42/42/42 
f 54/54/54 55/55/55 42/42/42 
f 52/52/52 35/35/35 55/55/55 
f 35/35/35 42/42/42 55/55/55 
f 53/53/53 52/52/52 56/56/56 
f 52/52/52 55/55/55 56/56/56 
f 54/54/54 57/57/57 55/55/55 
f 57/57/57 56/56/56 55/55/55 
f 47/47/47 58/58/58 46/46/46 
f 58/58/58 59/59/59 46/46/46 
f 54/54/54 43/43/43 59/59/59 
f 43/43/43 46/46/46 59/59/59 
f 57/57/57 54/54/54 60/60/60 
f 54/54/54 59/59/59 60/60/60 
f 58/58/58 61/61/61 59/59/59 
f 61/61/61 60/60/60 59/59/59 
f 62/62/62 63/63/63 64/64/64 
f 63/63/63 65/65/65 64/64/64 
f 58/58/58 47/47/47 65/65/65 
f 47/47/47 64/64/64 65/65/65 
f 61/61/61 58/58/58 66/66/66 
f 58/58/58 65/65/65 66/66/66 
f 63/63/63 67/67/67 65/65/65 
f 67/67/67 66/66/66 65/65/65 
f 68/68/68 69/69/69 70/70/70 
f 69/69/69 71/71/71 70/70/70 
f 44/44/44 21/21/21 71/71/71 
f 21/21/21 70/70/70 71/71/71 
f 47/47/47 44/44/44 64/64/64 
f 44/44/44 71/71/71 64/64/64 
f 69/69/69 62/62/62 71/71/71 
f 62/62/62 64/64/64 71/71/71 
f 72/72/72 68/68/68 73/73/73 
f 68/68/68 70/70/70 73/73/73 
f 74/74/74 72/72/72 75/75/75 
f 72/72/72 73/73/73 75/75/75 
f 20/20/20 16/16/16 73/73/73 
f 16/16/16 75/75/75 73/73/73 
f 21/21/21 20/20/20 70/70/70 
f 20/20/20 73/73/73 70/70/70 
f 76/76/76 77/77/77 78/78/78 
f 77/77/77 79/79/79 78/78/78 
f 9/9/9 8/8/8 79/79/79 
f 8/8/8 78/78/78 79/79/79 
f 16/16/16 9/9/9 75/75/75 
f 9/9/9 79/79/79 75/75/75 
f 77/77/77 74/74/74 79/79/79 
f 74/74/74 75/75/75 79/79/79 
f 80/80/80 81/81/81 82/82/82 
f 81/81/81 83/83/83 82/82/82 
f 84/84/84 85/85/85 83/83/83 
f 85/85/85 82/82/82 83/83/83 
f 8/8/8 84/84/84 78/78/78 
f 84/84/84 83/83/83 78/78/78 
f 81/81/81 76/76/76 83/83/83 
f 76/76/76 78/78/78 83/83/83 
f 85/85/85 84/84/84 86/86/86 
f 84/84/84 87/87/87 86/86/86 
f 88/88/88 89/89/89 87/87/87 
f 89/89/89 86/86/86 87/87/87 
f 13/13/13 88/88/88 10/10/10 
f 88/88/88 87/87/87 10/10/10 
f 84/84/84 8/8/8 87/87/87 
f 8/8/8 10/10/10 87/87/87 
f 2/2/2 90/90/90 19/19/19 
f 90/90/90 91/91/91 19/19/19 
f 88/88/88 13/13/13 91/91/91 
f 13/13/13 19/19/19 91/91/91 
f 89/89/89 88/88/88 92/92/92 
f 88/88/88 91/91/91 92/92/92 
f 90/90/90 93/93/93 91/91/91 
f 93/93/93 92/92/92 91/91/91 
f 93/93/93 90/90/90 94/94/94 
f 90/90/90 95/95/95 94/94/94 
f 96/96/96 94/94/94 97/97/97 
f 94/94/94 95/95/95 97/97/97 
f 1/1/1 5/5/5 95/95/95 
f 5/5/5 97/97/97 95/95/95 
f 2/2/2 1/1/1 90/90/90 
f 1/1/1 95/95/95 90/90/90 
f 31/31/31 98/98/98 99/99/99 
f 98/98/98 100/100/100 99/99/99 
f 101/101/101 99/99/99 102/102/102 
f 99/99/99 100/100/100 102/102/102 
f 103/103/103 104/104/104 100/100/100 
f 104/104/104 102/102/102 100/100/100 
f 105/105/105 103/103/103 98/98/98 
f 103/103/103 100/100/100 98/98/98 
f 38/38/38 39/39/39 106/106/106 
f 39/39/39 107/107/107 106/106/106 
f 31/31/31 38/38/38 98/98/98 
f 38/38/38 106/106/106 98/98/98 
f 108/108/108 105/105/105 106/106/106 
f 105/105/105 98/98/98 106/106/106 
f 109/109/109 108/108/108 107/107/107 
f 108/108/108 106/106/106 107/107/107 
f 48/48/48 110/110/110 49/49/49 
f 110/110/110 111/111/111 49/49/49 
f 107/107/107 39/39/39 111/111/111 
f 39/39/39 49/49/49 111/111/111 
f 109/109/109 107/107/107 112/112/112 
f 107/107/107 111/111/111 112/112/112 
f 110/110/110 113/113/113 111/111/111 
f 113/113/113 112/112/112 111/111/111 
f 114/114/114 96/96/96 115/115/115 
f 96/96/96 97/97/97 115/115/115 
f 101/101/101 114/114/114 99/99/99 
f 114/114/114 115/115/115 99/99/99 
f 30/30/30 31/31/31 115/115/115 
f 31/31/31 99/99/99 115/115/115 
f 5/5/5 30/30/30 97/97/97 
f 30/30/30 115/115/115 97/97/97 
# 190 faces

