# 3ds Max Wavefront OBJ Exporter v0.97b - (c)2007 guruware
# File Created: 06.11.2015 17:30:43

mtllib X6164_18_FLOR_C.mtl

#
# object X6164_18_FLOR_C_N_X6164_18_FLOR_C
#

v  -73.1130 -52.5349 85.5324
v  -79.6468 -52.5164 85.6751
v  -100.4255 -50.5583 71.9963
v  -86.5496 -52.5045 85.8000
v  -94.7052 -52.5628 85.7753
v  -96.4169 -52.5848 85.8529
v  -92.7416 -52.5416 85.7609
v  -97.7562 -52.6053 86.0231
v  -100.4701 -52.6620 86.8589
v  -23.5715 -52.6664 84.3843
v  -37.8736 -52.6311 84.7182
v  -51.4293 -52.5953 85.0239
v  -63.4415 -52.5622 85.3223
v  36.3634 -53.0357 82.9905
v  20.3237 -52.8565 83.3290
v  122.5345 -54.5096 73.4440
v  5.2037 -52.7527 83.6803
v  -9.3202 -52.6982 84.0352
v  99.4770 -54.2818 82.2352
v  86.5506 -53.9888 82.2591
v  70.8245 -53.6509 82.4180
v  53.6462 -53.3168 82.6744
v  119.5373 -54.7642 83.1151
v  117.5535 -54.6953 83.0633
v  113.9391 -54.6126 82.8977
v  108.4465 -54.4870 82.6461
v  121.9246 -54.8471 83.1775
v  120.6216 -54.8018 83.1435
v  123.1610 -54.8901 83.2099
v  -88.5430 -52.5039 -85.7960
v  -83.8550 -52.5000 -85.7539
v  -100.4255 -50.5583 -71.9963
v  -79.6468 -52.5164 -85.6412
v  -73.1130 -52.5349 -85.4985
v  -96.4169 -52.5784 -85.8459
v  -94.7052 -52.5564 -85.7683
v  -92.7416 -52.5352 -85.7540
v  -97.7562 -52.5989 -86.0162
v  -98.8160 -52.6184 -86.2561
v  -100.4701 -52.6555 -86.8520
v  -37.8736 -52.6311 -84.7182
v  -23.5715 -52.6664 -84.3843
v  -51.4293 -52.5953 -85.0239
v  -63.4415 -52.5622 -85.2884
v  20.3237 -52.8565 -83.3290
v  36.3634 -53.0357 -82.9905
v  122.5345 -54.5096 -73.4440
v  5.2037 -52.7527 -83.6803
v  -9.3202 -52.6982 -84.0352
v  86.5506 -53.9888 -82.2591
v  99.4770 -54.2818 -82.2352
v  70.8245 -53.6509 -82.4180
v  53.6462 -53.3168 -82.6744
v  117.5535 -54.6953 -83.0633
v  119.5373 -54.7642 -83.1151
v  113.9391 -54.6126 -82.8977
v  108.4465 -54.4870 -82.6461
v  120.6216 -54.8018 -83.1435
v  121.4169 -54.8295 -83.1643
v  121.9246 -54.8471 -83.1775
v  123.1610 -54.8901 -83.2099
v  -256.7372 -44.9052 56.4049
v  -257.6072 -44.8556 49.6453
v  -193.3835 -46.0564 0.0000
v  -254.6522 -44.9963 66.4159
v  -255.6061 -44.9527 61.9787
v  -195.4907 -50.0547 89.9991
v  -196.0758 -49.9898 89.9336
v  -193.1703 -50.2572 71.8755
v  -194.7896 -50.1213 90.1083
v  -193.1936 -50.2572 90.1564
v  -194.0109 -50.1889 90.1319
v  -260.5327 -44.7290 10.9208
v  -260.7450 -44.6730 0.0000
v  -260.1671 -44.7145 21.9491
v  -258.6265 -44.8055 41.6227
v  -259.3802 -44.7591 32.2566
v  -249.3961 -45.1905 75.8125
v  -251.0293 -45.1247 74.2704
v  -247.8607 -45.2765 77.2865
v  -245.9834 -45.3901 78.4385
v  -241.7455 -45.6872 80.4818
v  -243.9498 -45.5254 79.7042
v  -230.0297 -46.7086 82.8772
v  -233.6608 -46.3712 82.3066
v  -236.7340 -46.0968 81.7662
v  -239.3836 -45.8727 81.3289
v  -211.6239 -48.4725 86.0219
v  -207.5727 -48.8452 87.0096
v  -204.1064 -49.1578 87.9295
v  -199.1709 -49.6092 89.3887
v  -201.2856 -49.4119 88.7477
v  -197.8231 -49.7513 89.7772
v  -197.0114 -49.8525 89.8413
v  -196.5058 -49.9272 89.8798
v  -216.1993 -48.0381 85.1447
v  -220.9948 -47.5765 84.2950
v  -225.7064 -47.1219 83.5870
v  -253.2967 -45.1654 70.2357
v  -252.0607 -45.1307 72.4341
v  -196.0758 -49.9898 -89.9626
v  -195.4907 -50.0547 -90.0277
v  -193.1703 -50.2572 -71.8755
v  -194.7896 -50.1213 -90.1083
v  -194.0109 -50.1889 -90.1319
v  -193.1936 -50.2572 -90.1564
v  -251.3933 -45.1032 -73.7012
v  -249.5487 -45.1881 -75.7299
v  -247.8607 -45.2765 -77.2865
v  -245.9928 -45.3888 -78.4760
v  -243.9498 -45.5254 -79.7042
v  -241.7273 -45.6782 -80.5293
v  -233.6608 -46.3712 -82.3179
v  -230.0297 -46.7086 -82.9357
v  -236.7340 -46.0968 -81.7789
v  -239.3836 -45.8727 -81.2710
v  -211.6239 -48.4725 -86.0636
v  -207.5727 -48.8452 -87.0096
v  -204.1064 -49.1578 -87.8819
v  -201.2856 -49.4119 -88.7477
v  -199.1709 -49.6092 -89.3887
v  -197.8231 -49.7513 -89.7772
v  -197.0114 -49.8525 -89.8670
v  -196.5058 -49.9272 -89.9160
v  -216.1993 -48.0381 -85.1671
v  -220.9948 -47.5765 -84.3362
v  -225.7064 -47.1219 -83.5870
v  -260.5509 -44.6847 -10.9033
v  -260.2324 -44.7145 -21.9145
v  -259.3892 -44.7566 -32.2646
v  -258.6227 -44.8055 -41.5961
v  -257.6206 -44.8562 -49.7382
v  220.3042 -54.7830 -64.8118
v  216.1977 -53.3001 -73.5630
v  218.4030 -54.7430 -70.7466
v  217.0393 -55.8685 -90.5525
v  217.6340 -56.2945 -87.6174
v  219.2806 -57.0167 -80.5391
v  218.3930 -56.6852 -84.2000
v  221.7904 -54.7667 -59.9317
v  224.1277 -54.7222 -47.3867
v  223.0965 -54.7434 -54.0629
v  225.7921 -54.7049 -31.9457
v  225.1541 -54.7100 -38.1697
v  227.0591 -54.6974 -19.1217
v  228.3659 -54.6943 0.0000
v  227.9949 -54.6946 -8.8249
v  216.4033 -54.9511 -94.4109
v  216.2684 -54.4010 -95.6386
v  220.2609 -57.2657 -76.8735
v  221.2879 -57.4072 -73.4754
v  124.5037 -52.5671 0.0000
v  -102.3862 -47.9202 0.0000
v  220.3042 -54.7830 64.8118
v  218.4030 -54.7430 70.7466
v  216.1977 -53.3001 73.5630
v  217.0393 -55.8684 90.5525
v  217.6340 -56.2945 87.6174
v  218.3930 -56.6852 84.2000
v  220.2608 -57.2657 76.8736
v  219.2806 -57.0167 80.5391
v  221.7904 -54.7667 59.9317
v  224.1277 -54.7222 47.3867
v  223.0965 -54.7434 54.0629
v  225.7921 -54.7049 31.9457
v  225.1541 -54.7100 38.1697
v  227.0591 -54.6974 19.1217
v  227.9949 -54.6946 8.8249
v  216.4033 -54.9511 94.4109
v  216.2684 -54.4010 95.6386
v  221.2879 -57.4072 73.4754
v  -254.2304 -45.0448 -66.5910
v  -256.1898 -44.9543 -59.2582
v  216.6446 -55.4305 92.7663
v  216.6446 -55.4305 -92.7663
# 175 vertices

vn -0.0057 -0.9911 -0.1332
vn -0.0054 -0.9910 -0.1337
vn -0.0141 -0.9967 -0.0798
vn -0.0017 -0.9904 -0.1380
vn 0.0083 -0.9890 -0.1473
vn 0.0025 -0.9894 -0.1454
vn 0.0072 -0.9892 -0.1466
vn -0.0164 -0.9898 -0.1413
vn -0.0225 -0.9899 -0.1402
vn -0.0172 -0.9979 -0.0628
vn -0.0056 -0.9910 -0.1340
vn -0.0057 -0.9910 -0.1337
vn -0.0060 -0.9912 -0.1324
vn -0.0100 -0.9979 0.0641
vn -0.0040 -0.9923 0.1242
vn -0.0185 -0.9985 -0.0511
vn 0.0005 -0.9846 0.1747
vn 0.0027 -0.9795 0.2015
vn -0.0226 -0.9992 -0.0333
vn -0.0218 -0.9993 -0.0301
vn -0.0198 -0.9996 -0.0185
vn -0.0162 -0.9998 0.0080
vn -0.0337 -0.9988 -0.0367
vn -0.0243 -0.9992 -0.0319
vn -0.0215 -0.9993 -0.0304
vn 0.0019 -0.9900 0.1412
vn -0.0057 -0.9911 0.1330
vn -0.0126 -0.9982 0.0587
vn -0.0059 -0.9911 0.1332
vn -0.0057 -0.9910 0.1335
vn 0.0025 -0.9894 0.1451
vn 0.0083 -0.9891 0.1470
vn 0.0090 -0.9891 0.1472
vn -0.0078 -0.9898 0.1426
vn -0.0233 -0.9898 0.1404
vn -0.0281 -0.9898 0.1398
vn -0.0056 -0.9910 0.1340
vn -0.0055 -0.9909 0.1345
vn -0.0056 -0.9910 0.1338
vn -0.0057 -0.9910 0.1336
vn -0.0176 -0.9997 0.0152
vn -0.0100 -0.9979 -0.0641
vn -0.0188 -0.9997 0.0181
vn -0.0091 -0.9945 0.1043
vn -0.0067 -0.9921 0.1255
vn -0.0218 -0.9993 0.0301
vn -0.0226 -0.9992 0.0333
vn -0.0198 -0.9996 0.0185
vn -0.0162 -0.9998 -0.0080
vn -0.0243 -0.9992 0.0319
vn -0.0337 -0.9988 0.0367
vn -0.0215 -0.9993 0.0304
vn -0.0219 -0.9998 -0.0042
vn -0.0219 -0.9998 -0.0041
vn -0.0185 -0.9998 -0.0041
vn -0.0392 -0.9990 -0.0202
vn -0.0224 -0.9997 -0.0046
vn -0.1014 -0.9948 -0.0019
vn -0.1244 -0.9922 -0.0053
vn -0.0410 -0.9979 -0.0505
vn -0.0903 -0.9959 -0.0006
vn -0.0833 -0.9965 -0.0001
vn -0.0849 -0.9964 -0.0002
vn -0.0199 -0.9998 -0.0011
vn -0.0205 -0.9998 -0.0020
vn -0.0203 -0.9998 -0.0007
vn -0.0213 -0.9998 -0.0034
vn -0.0211 -0.9998 -0.0030
vn -0.0348 -0.9993 -0.0143
vn -0.0213 -0.9998 -0.0040
vn -0.0430 -0.9989 -0.0202
vn -0.0486 -0.9985 -0.0241
vn -0.0636 -0.9974 -0.0336
vn -0.0556 -0.9980 -0.0286
vn -0.0863 -0.9952 -0.0460
vn -0.0831 -0.9956 -0.0445
vn -0.0791 -0.9960 -0.0424
vn -0.0706 -0.9968 -0.0377
vn -0.0833 -0.9955 -0.0456
vn -0.1200 -0.9916 -0.0484
vn -0.0914 -0.9958 0.0059
vn -0.0983 -0.9952 0.0031
vn -0.0925 -0.9957 0.0054
vn -0.1113 -0.9938 -0.0008
vn -0.1310 -0.9914 -0.0057
vn -0.1444 -0.9895 -0.0086
vn -0.0867 -0.9952 -0.0464
vn -0.0883 -0.9950 -0.0469
vn -0.0881 -0.9950 -0.0468
vn -0.0198 -0.9998 -0.0042
vn -0.0031 -0.9999 0.0103
vn -0.1246 -0.9922 0.0053
vn -0.1015 -0.9948 0.0019
vn -0.0323 -0.9978 0.0581
vn -0.0903 -0.9959 0.0006
vn -0.0849 -0.9964 0.0002
vn -0.0833 -0.9965 0.0001
vn -0.0237 -0.9997 0.0057
vn -0.0349 -0.9993 0.0144
vn -0.0417 -0.9989 0.0193
vn -0.0486 -0.9985 0.0241
vn -0.0541 -0.9982 0.0277
vn -0.0634 -0.9974 0.0333
vn -0.0829 -0.9956 0.0443
vn -0.0863 -0.9952 0.0460
vn -0.0785 -0.9960 0.0421
vn -0.0732 -0.9966 0.0392
vn -0.0834 -0.9955 0.0456
vn -0.0798 -0.9958 0.0449
vn -0.1239 -0.9912 0.0461
vn -0.0926 -0.9957 -0.0054
vn -0.0983 -0.9952 -0.0031
vn -0.1114 -0.9938 0.0009
vn -0.1311 -0.9914 0.0057
vn -0.1444 -0.9895 0.0086
vn -0.0867 -0.9952 0.0464
vn -0.0882 -0.9950 0.0468
vn -0.0883 -0.9950 0.0468
vn -0.0207 -0.9998 0.0015
vn -0.0208 -0.9998 0.0023
vn -0.0212 -0.9998 0.0030
vn -0.0214 -0.9998 0.0035
vn -0.0232 -0.9997 0.0058
vn 0.0036 -0.9966 -0.0826
vn -0.0314 -0.9870 -0.1576
vn -0.6635 -0.7337 0.1465
vn -0.8107 -0.5832 0.0509
vn -0.8241 -0.5594 0.0890
vn -0.6855 -0.7203 0.1058
vn -0.7497 -0.6549 0.0951
vn -0.0032 -1.0000 0.0046
vn -0.0179 -0.9995 0.0261
vn -0.0027 -1.0000 0.0022
vn -0.0031 -1.0000 0.0040
vn -0.0022 -1.0000 0.0009
vn -0.0024 -1.0000 0.0013
vn -0.0021 -1.0000 0.0006
vn -0.0176 -0.9998 -0.0000
vn -0.0019 -1.0000 0.0002
vn -0.9698 -0.2436 0.0097
vn -0.9751 -0.2215 0.0079
vn -0.6292 -0.7671 0.1251
vn -0.5929 -0.7919 0.1462
vn -0.0189 -0.9998 -0.0000
vn -0.0180 -0.9991 0.0374
vn -0.0190 -0.9998 -0.0015
vn 0.0036 -0.9966 0.0826
vn -0.6635 -0.7337 -0.1465
vn -0.0314 -0.9870 0.1576
vn -0.8107 -0.5832 -0.0509
vn -0.8241 -0.5595 -0.0890
vn -0.7497 -0.6549 -0.0951
vn -0.6292 -0.7671 -0.1251
vn -0.6855 -0.7203 -0.1058
vn -0.0032 -1.0000 -0.0046
vn -0.0179 -0.9995 -0.0261
vn -0.0027 -1.0000 -0.0022
vn -0.0031 -1.0000 -0.0040
vn -0.0022 -1.0000 -0.0009
vn -0.0024 -1.0000 -0.0013
vn -0.0021 -1.0000 -0.0006
vn -0.0019 -1.0000 -0.0002
vn -0.9698 -0.2436 -0.0097
vn -0.9751 -0.2215 -0.0079
vn -0.5929 -0.7919 -0.1463
vn -0.0152 -0.9993 -0.0349
vn -0.0196 -0.9998 0.0027
vn -0.0235 -0.9997 0.0063
vn -0.9115 -0.4105 -0.0243
vn -0.9115 -0.4105 0.0243
# 170 vertex normals

vt 0.0000 0.0000 0.0000
vt 1.0000 0.0000 0.0000
vt 0.5000 1.0000 0.0000
vt 1.0000 1.0000 0.0000
vt 0.0000 1.0000 0.0000
vt 0.3014 0.0000 0.0000
vt 0.6027 0.0000 0.0000
# 7 texture coords

g X6164_18_FLOR_C_N_X6164_18_FLOR_C
usemtl diffuse_black_plasticSG
s 1
f 1/1/1 2/2/2 3/3/3 
f 2/1/2 4/2/4 3/3/3 
f 5/1/5 6/2/6 3/3/3 
f 7/1/7 5/2/5 3/3/3 
f 4/1/4 7/2/7 3/3/3 
f 6/1/6 8/2/8 3/3/3 
f 8/1/8 9/2/9 3/3/3 
f 10/1/10 11/2/11 3/3/3 
f 11/1/11 12/2/12 3/3/3 
f 13/1/13 1/2/1 3/3/3 
f 12/1/12 13/2/13 3/3/3 
f 14/1/14 15/2/15 16/3/16 
f 15/1/15 17/2/17 16/3/16 
f 3/4/3 16/5/16 10/2/10 
f 18/1/18 10/2/10 16/5/16 
f 17/1/17 18/2/18 16/3/16 
f 19/1/19 20/2/20 16/3/16 
f 20/1/20 21/2/21 16/3/16 
f 22/1/22 14/2/14 16/3/16 
f 21/1/21 22/2/22 16/3/16 
f 23/1/23 24/2/24 16/3/16 
f 24/1/24 25/2/25 16/3/16 
f 26/1/25 19/2/19 16/3/16 
f 25/1/25 26/2/25 16/3/16 
f 27/1/23 28/2/23 16/3/16 
f 28/1/23 23/2/23 16/3/16 
f 29/1/23 27/2/23 16/3/16 
s 7
f 30/1/26 31/2/27 32/3/28 
f 33/1/29 34/2/30 32/3/28 
f 31/1/27 33/2/29 32/3/28 
f 35/1/31 36/2/32 32/3/28 
f 36/1/32 37/2/33 32/3/28 
f 37/1/33 30/2/26 32/3/28 
f 38/1/34 35/2/31 32/3/28 
f 39/1/35 38/2/34 32/3/28 
f 40/1/36 39/2/35 32/3/28 
f 41/1/37 42/2/38 32/3/28 
f 43/1/39 41/2/37 32/3/28 
f 34/1/30 44/2/40 32/3/28 
f 44/1/40 43/2/39 32/3/28 
f 45/1/41 46/2/42 47/3/43 
f 47/4/43 32/5/28 45/2/41 
f 48/1/44 45/2/41 32/5/28 
f 42/1/38 49/2/45 32/3/28 
f 49/1/45 48/2/44 32/3/28 
f 50/1/46 51/2/47 47/3/43 
f 52/1/48 50/2/46 47/3/43 
f 46/1/42 53/2/49 47/3/43 
f 53/1/49 52/2/48 47/3/43 
f 54/1/50 55/2/51 47/3/43 
f 56/1/52 54/2/50 47/3/43 
f 51/1/47 57/2/52 47/3/43 
f 57/1/52 56/2/52 47/3/43 
f 58/1/51 59/2/51 47/3/43 
f 55/1/51 58/2/51 47/3/43 
f 60/1/51 61/2/51 47/3/43 
f 59/1/51 60/2/51 47/3/43 
s 15
f 62/1/53 63/2/54 64/3/55 
f 65/1/56 66/2/57 64/3/55 
f 66/1/57 62/2/53 64/3/55 
f 67/1/58 68/2/59 69/3/60 
f 70/1/61 67/2/58 69/3/60 
f 71/1/62 72/2/63 69/3/60 
f 72/1/63 70/2/61 69/3/60 
f 73/1/64 74/2/65 64/3/55 
f 75/1/66 73/2/64 64/3/55 
f 76/1/67 77/2/68 64/3/55 
f 77/1/68 75/2/66 64/3/55 
f 63/1/54 76/2/67 64/3/55 
f 78/1/69 79/2/70 64/3/55 
f 80/1/71 78/2/69 64/3/55 
f 81/1/72 80/2/71 64/3/55 
f 82/1/73 83/2/74 64/3/55 
f 83/1/74 81/2/72 64/3/55 
f 84/1/75 85/2/76 64/3/55 
f 85/1/76 86/2/77 64/3/55 
f 87/1/78 82/2/73 64/3/55 
f 86/1/77 87/2/78 64/3/55 
f 88/2/79 64/4/55 89/1/80 
f 89/1/80 64/4/55 69/5/60 
f 90/1/81 89/2/80 69/3/60 
f 91/1/82 92/2/83 69/3/60 
f 92/1/83 90/2/81 69/3/60 
f 93/1/84 91/2/82 69/3/60 
f 94/1/85 93/2/84 69/3/60 
f 68/1/59 95/2/86 69/3/60 
f 95/1/86 94/2/85 69/3/60 
f 88/1/79 96/2/87 64/3/55 
f 96/1/87 97/2/88 64/3/55 
f 98/1/89 84/2/75 64/3/55 
f 97/1/88 98/2/89 64/3/55 
f 99/1/90 65/2/56 64/3/55 
f 79/1/70 100/2/91 64/3/55 
f 100/1/91 99/2/90 64/3/55 
f 101/1/92 102/2/93 103/3/94 
f 102/1/93 104/2/95 103/3/94 
f 105/1/96 106/2/97 103/3/94 
f 104/1/95 105/2/96 103/3/94 
f 107/1/98 108/2/99 64/3/55 
f 108/1/99 109/2/100 64/3/55 
f 109/1/100 110/2/101 64/3/55 
f 111/1/102 112/2/103 64/3/55 
f 110/1/101 111/2/102 64/3/55 
f 113/1/104 114/2/105 64/3/55 
f 115/1/106 113/2/104 64/3/55 
f 112/1/103 116/2/107 64/3/55 
f 116/1/107 115/2/106 64/3/55 
f 117/1/108 118/2/109 64/3/55 
f 118/1/109 119/2/110 64/3/55 
f 120/1/111 121/2/112 103/3/94 
f 120/2/111 103/4/94 119/1/110 
f 119/1/110 103/4/94 64/5/55 
f 121/1/112 122/2/113 103/3/94 
f 122/1/113 123/2/114 103/3/94 
f 124/1/115 101/2/92 103/3/94 
f 123/1/114 124/2/115 103/3/94 
f 125/1/116 117/2/108 64/3/55 
f 126/1/117 125/2/116 64/3/55 
f 114/1/105 127/2/118 64/3/55 
f 127/1/118 126/2/117 64/3/55 
f 74/1/65 128/2/119 64/3/55 
f 128/1/119 129/2/120 64/3/55 
f 130/1/121 131/2/122 64/3/55 
f 129/1/120 130/2/121 64/3/55 
f 131/1/122 132/2/123 64/3/55 
f 133/1/124 134/1/125 135/1/126 
f 134/1/125 136/1/127 135/1/126 
f 136/1/127 137/1/128 135/1/126 
f 138/1/129 135/1/126 139/1/130 
f 140/1/131 47/1/132 133/1/124 
f 133/1/124 47/1/132 134/1/125 
f 141/1/133 47/1/132 142/1/134 
f 142/1/134 47/1/132 140/1/131 
f 143/1/135 47/1/132 144/1/136 
f 144/1/136 47/1/132 141/1/133 
f 145/1/137 47/1/132 143/1/135 
f 146/1/138 47/1/132 147/1/139 
f 147/1/139 47/1/132 145/1/137 
f 148/1/140 134/1/125 149/1/141 
f 135/1/126 150/1/142 151/1/143 
f 47/1/132 146/1/138 152/1/144 
f 32/1/145 64/1/55 103/1/94 
f 64/1/55 32/1/145 153/1/146 
f 154/1/147 155/1/148 156/1/149 
f 156/1/149 155/1/148 157/1/150 
f 158/1/151 155/1/148 159/1/152 
f 160/1/153 161/1/154 155/1/148 
f 162/1/155 154/1/147 16/1/156 
f 154/1/147 156/1/149 16/1/156 
f 163/1/157 164/1/158 16/1/156 
f 164/1/158 162/1/155 16/1/156 
f 165/1/159 166/1/160 16/1/156 
f 166/1/160 163/1/157 16/1/156 
f 167/1/161 165/1/159 16/1/156 
f 146/1/138 168/1/162 16/1/156 
f 168/1/162 167/1/161 16/1/156 
f 169/1/163 170/1/164 156/1/149 
f 155/1/148 171/1/165 160/1/153 
f 16/1/156 152/1/144 146/1/138 
f 3/1/166 69/1/60 153/1/146 
f 153/1/146 69/1/60 64/1/55 
f 107/1/98 64/3/55 172/6/167 
f 173/7/168 64/3/55 132/2/123 
f 172/6/167 64/3/55 173/7/168 
f 47/1/132 152/1/144 32/1/145 
f 32/1/145 152/1/144 153/1/146 
f 16/1/156 3/1/166 152/1/144 
f 152/1/144 3/1/166 153/1/146 
f 169/1/163 156/1/149 174/1/169 
f 157/1/150 174/1/169 156/1/149 
f 157/1/150 155/1/148 158/1/151 
f 161/1/154 159/1/152 155/1/148 
f 136/1/127 134/1/125 175/1/170 
f 137/1/128 139/1/130 135/1/126 
f 175/1/170 134/1/125 148/1/140 
f 150/1/142 135/1/126 138/1/129 
# 176 faces

