# 3ds Max Wavefront OBJ Exporter v0.97b - (c)2007 guruware
# File Created: 13.11.2015 17:36:44

mtllib H033_182C_C.mtl

#
# object H033_182C_C_D_H033_182C_C
#

v  144.7263 36.0656 -67.5097
v  143.4028 35.1505 -69.8206
v  148.4021 34.2738 -60.0068
v  148.6131 35.7463 -59.6371
v  142.4124 36.3803 -71.6969
v  141.4802 36.2860 -73.3191
v  140.8967 36.4441 -74.3357
v  141.0443 36.2199 -73.9609
v  140.3784 34.9090 -74.1945
v  139.8653 36.0487 -75.1904
v  137.5700 34.9599 -76.8386
v  140.6861 33.5666 -73.5656
v  144.5042 33.1378 -67.7822
v  148.6136 32.5669 -59.6488
v  151.9172 35.6795 -51.1865
v  151.8893 33.9728 -51.2327
v  154.3528 33.9267 -43.1990
v  154.3553 35.7461 -43.1990
v  151.9166 32.2189 -51.1880
v  154.3528 32.0865 -43.1990
v  159.0424 35.8730 -20.5986
v  159.0392 34.0075 -20.5986
v  160.0305 34.1039 -12.9118
v  160.0338 35.9694 -12.9118
v  157.7096 35.8158 -28.4750
v  157.7065 33.9503 -28.4750
v  157.7060 32.0636 -28.4750
v  159.0388 32.1208 -20.5986
v  160.0300 32.2173 -12.9118
v  160.5128 36.0898 -6.1561
v  160.5093 34.2243 -6.1561
v  160.6195 34.2865 0.0000
v  160.6231 36.1519 0.0000
v  160.5088 32.3377 -6.1561
v  160.6190 32.3998 0.0000
v  156.1990 33.9284 -35.8365
v  156.2020 35.7881 -35.8365
v  156.1986 32.0475 -35.8365
v  132.1305 35.1348 -80.0467
v  132.0955 34.8774 -79.9196
v  134.0553 34.2743 -78.8653
v  134.4525 34.4979 -78.8060
v  137.7807 35.8996 -76.7984
v  138.1285 36.2776 -76.7631
v  135.8309 36.0762 -78.1283
v  135.3131 35.8182 -78.2942
v  139.8464 36.4956 -75.6600
v  140.6038 36.6040 -75.1124
v  140.9362 36.6175 -74.6419
v  140.7003 36.6376 -75.0544
v  152.1068 36.3937 -51.1541
v  148.9415 36.3331 -59.3778
v  154.5232 36.5137 -43.1990
v  156.3698 36.5735 -35.8365
v  157.8800 36.6029 -28.4750
v  159.2178 36.6582 -20.5986
v  160.2162 36.7525 -12.9118
v  160.7027 36.8712 -6.1561
v  160.8167 36.9327 0.0000
v  136.9654 33.6532 -76.9191
v  137.3243 33.9885 -76.9309
v  140.5148 33.0556 -73.2778
v  144.5213 32.4466 -67.1707
v  148.4206 31.9033 -59.3705
v  151.5686 31.5645 -51.1451
v  153.9665 31.4014 -43.1944
v  155.7986 31.3459 -35.8328
v  157.2952 31.3606 -28.4704
v  158.6174 31.4208 -20.5952
v  159.6004 31.5212 -12.9107
v  160.0758 31.6449 -6.1560
v  160.1855 31.7084 0.0000
v  142.2229 36.5727 -72.3905
v  145.1908 36.4339 -67.0396
v  132.8705 35.8423 -79.6590
v  133.7204 35.9716 -79.3147
v  133.8667 35.9938 -79.2554
v  134.9348 35.1516 -78.5227
v  132.9789 35.4056 -79.6023
v  130.2257 35.8865 -81.0408
v  138.0554 35.6105 -76.5278
v  139.7917 35.8205 -75.4440
v  135.7428 35.4076 -77.9026
v  140.6569 35.9837 -74.8636
v  140.5670 35.9637 -74.8221
v  154.4785 35.8043 -43.1782
v  152.0564 35.6847 -51.1286
v  148.8840 35.6246 -59.3544
v  157.8351 35.8932 -28.4627
v  156.3274 35.8638 -35.8226
v  160.1593 36.0438 -12.8956
v  159.1670 35.9490 -20.5843
v  160.7550 36.2242 0.0082
v  160.6423 36.1627 -6.1437
v  140.8772 35.9089 -74.6324
v  142.1608 35.8645 -72.3718
v  145.1277 35.7258 -67.0204
v  133.7980 35.3465 -78.9782
v  129.7536 34.2170 -81.0608
v  131.6105 33.8434 -79.9295
v  133.5623 33.2198 -78.8476
v  136.4667 32.5698 -76.8986
v  140.0095 31.9361 -73.2614
v  144.0094 31.2865 -67.1580
v  147.9029 30.7039 -59.3598
v  151.0476 30.3334 -51.1357
v  153.4442 30.1460 -43.1861
v  155.2763 30.0718 -35.8252
v  156.7736 30.0713 -28.4635
v  158.0964 30.1181 -20.5891
v  159.0801 30.2086 -12.9055
v  159.5563 30.3277 -6.1529
v  159.6665 30.3901 0.0000
v  148.4021 34.2738 60.0068
v  143.4028 35.1505 69.8206
v  144.7263 36.0656 67.5097
v  148.6131 35.7463 59.6371
v  141.4802 36.2860 73.3191
v  142.4124 36.3803 71.6969
v  140.8967 36.4441 74.3357
v  141.0443 36.2199 73.9609
v  140.3784 34.9090 74.1945
v  137.5700 34.9599 76.8386
v  139.8653 36.0487 75.1904
v  144.5042 33.1378 67.7822
v  140.6861 33.5666 73.5656
v  148.6136 32.5669 59.6488
v  154.3528 33.9267 43.1990
v  151.8893 33.9728 51.2327
v  151.9172 35.6795 51.1865
v  154.3553 35.7461 43.1990
v  151.9166 32.2189 51.1880
v  154.3528 32.0865 43.1990
v  160.0305 34.1039 12.9118
v  159.0392 34.0075 20.5986
v  159.0424 35.8730 20.5986
v  160.0338 35.9694 12.9118
v  157.7065 33.9503 28.4750
v  157.7096 35.8158 28.4750
v  159.0388 32.1208 20.5986
v  157.7060 32.0636 28.4750
v  160.0300 32.2173 12.9118
v  160.5093 34.2243 6.1561
v  160.5128 36.0898 6.1561
v  160.5088 32.3377 6.1561
v  156.1990 33.9284 35.8365
v  156.2020 35.7881 35.8365
v  156.1986 32.0475 35.8365
v  134.0553 34.2743 78.8653
v  132.0955 34.8774 79.9196
v  132.1305 35.1348 80.0467
v  134.4525 34.4979 78.8060
v  135.8309 36.0762 78.1283
v  138.1285 36.2776 76.7631
v  137.7807 35.8996 76.7984
v  135.3131 35.8182 78.2942
v  139.8464 36.4956 75.6600
v  140.6038 36.6040 75.1124
v  140.9362 36.6175 74.6419
v  140.7003 36.6376 75.0544
v  148.9415 36.3331 59.3778
v  152.1068 36.3937 51.1541
v  154.5232 36.5137 43.1990
v  156.3698 36.5735 35.8365
v  157.8800 36.6029 28.4750
v  159.2178 36.6582 20.5986
v  160.2162 36.7525 12.9118
v  160.7027 36.8712 6.1561
v  136.9654 33.6532 76.9191
v  137.3243 33.9885 76.9309
v  140.5148 33.0556 73.2778
v  144.5213 32.4466 67.1707
v  148.4206 31.9033 59.3705
v  153.9665 31.4014 43.1944
v  151.5686 31.5645 51.1451
v  157.2952 31.3606 28.4704
v  155.7986 31.3459 35.8328
v  159.6004 31.5212 12.9107
v  158.6174 31.4208 20.5952
v  160.0758 31.6449 6.1560
v  142.2229 36.5727 72.3905
v  145.1908 36.4339 67.0396
v  132.8705 35.8423 79.6590
v  133.7204 35.9716 79.3147
v  133.8667 35.9938 79.2555
v  134.9348 35.1516 78.5227
v  132.9789 35.4056 79.6023
v  130.2257 35.8865 81.0409
v  138.0554 35.6105 76.5278
v  139.7917 35.8205 75.4440
v  135.7428 35.4076 77.9026
v  140.5670 35.9637 74.8221
v  140.6569 35.9837 74.8636
v  154.4785 35.8043 43.1782
v  152.0564 35.6847 51.1286
v  148.8840 35.6246 59.3544
v  157.8351 35.8932 28.4627
v  156.3274 35.8638 35.8226
v  160.1593 36.0438 12.8956
v  159.1670 35.9490 20.5843
v  160.7550 36.2242 -0.0082
v  160.6423 36.1627 6.1437
v  140.8772 35.9089 74.6324
v  142.1608 35.8645 72.3718
v  145.1277 35.7258 67.0204
v  133.7980 35.3465 78.9782
v  129.7536 34.2383 81.0608
v  131.6105 33.8434 79.9295
v  133.5623 33.2198 78.8477
v  136.4667 32.5698 76.8986
v  140.0095 31.9361 73.2614
v  144.0094 31.2865 67.1580
v  147.9029 30.7039 59.3598
v  151.0476 30.3334 51.1357
v  153.4442 30.1460 43.1861
v  155.2763 30.0718 35.8252
v  156.7736 30.0713 28.4635
v  158.0964 30.1181 20.5891
v  159.0801 30.2086 12.9055
v  159.5563 30.3277 6.1529
# 220 vertices

vn -0.8808 0.1330 0.4544
vn -0.8570 0.0629 0.5115
vn -0.9091 0.0065 0.4164
vn -0.9085 0.1177 0.4010
vn -0.8521 0.1996 0.4838
vn -0.7956 0.3131 0.5187
vn -0.7268 0.5351 0.4305
vn -0.7568 0.3138 0.5734
vn -0.7530 0.1827 0.6321
vn -0.6472 0.3706 0.6662
vn -0.6209 0.1152 0.7754
vn -0.7718 0.2272 0.5938
vn -0.8709 0.1021 0.4807
vn -0.9071 0.0985 0.4093
vn -0.9411 0.0834 0.3277
vn -0.9436 -0.0004 0.3310
vn -0.9632 0.0005 0.2687
vn -0.9613 0.0666 0.2675
vn -0.9359 0.1261 0.3288
vn -0.9530 0.1441 0.2665
vn -0.9869 0.0666 0.1469
vn -0.9890 0.0010 0.1477
vn -0.9949 0.0010 0.1013
vn -0.9925 0.0697 0.1002
vn -0.9811 0.0644 0.1827
vn -0.9831 0.0009 0.1832
vn -0.9714 0.1548 0.1799
vn -0.9890 0.0002 0.1478
vn -0.9948 0.0002 0.1015
vn -0.9963 0.0729 0.0445
vn -0.9990 0.0011 0.0456
vn -1.0000 0.0011 -0.0000
vn -0.9972 0.0744 -0.0000
vn -0.9990 0.0003 0.0458
vn -1.0000 0.0003 -0.0000
vn -0.9751 0.0008 0.2220
vn -0.9731 0.0635 0.2214
vn -0.9641 0.1501 0.2191
vn -0.4260 0.1336 0.8948
vn -0.4291 0.2159 0.8771
vn -0.4535 0.2765 0.8473
vn -0.4793 0.2170 0.8504
vn -0.5505 0.2181 0.8058
vn -0.5131 0.5230 0.6806
vn -0.4838 0.4204 0.7676
vn -0.5180 0.1134 0.8478
vn -0.5325 0.5905 0.6064
vn -0.5540 0.6666 0.4987
vn -0.6405 0.6510 0.4074
vn -0.5303 0.7710 0.3525
vn -0.9377 -0.0403 0.3452
vn -0.9179 0.2459 0.3115
vn -0.8792 0.3037 0.3672
vn -0.9423 0.2121 0.2590
vn -0.9546 0.2058 0.2156
vn -0.9616 0.2092 0.1778
vn -0.9659 0.2164 0.1420
vn -0.9695 0.2258 0.0952
vn -0.9712 0.2347 0.0411
vn -0.9712 0.2385 -0.0000
vn -0.5772 0.3541 0.7358
vn -0.6055 0.2733 0.7474
vn -0.7128 0.3936 0.5805
vn -0.7978 0.3777 0.4700
vn -0.8390 0.3845 0.3851
vn -0.8630 0.4004 0.3081
vn -0.8769 0.4118 0.2481
vn -0.8868 0.4158 0.2018
vn -0.8931 0.4191 0.1635
vn -0.8504 0.5122 0.1204
vn -0.8970 0.4228 0.1288
vn -0.9005 0.4265 0.0845
vn -0.8491 0.5225 0.0771
vn -0.9028 0.4287 0.0348
vn -0.9032 0.4291 -0.0000
vn -0.8476 0.5306 -0.0000
vn -0.8482 0.5289 0.0306
vn -0.7093 0.5811 0.3990
vn -0.8227 0.3836 0.4196
vn -0.3703 0.6392 0.6740
vn -0.3813 0.6188 0.6868
vn -0.4528 0.4579 0.7651
vn -0.5223 0.0300 0.8522
vn -0.4719 -0.0071 0.8816
vn -0.4741 -0.0036 0.8805
vn -0.4668 0.1451 0.8724
vn 0.5170 -0.3265 -0.7912
vn 0.5170 -0.3265 -0.7913
vn 0.5587 -0.3173 -0.7663
vn 0.5587 -0.3172 -0.7663
vn 0.4869 -0.3484 -0.8010
vn 0.7705 -0.1630 -0.6162
vn 0.7944 -0.1477 -0.5891
vn 0.5629 -0.2657 -0.7826
vn -0.3181 -0.3763 -0.8702
vn 0.6072 -0.3220 -0.7264
vn 0.9612 -0.0695 -0.2670
vn 0.9426 -0.0784 -0.3247
vn 0.9133 -0.0863 -0.3981
vn 0.9809 -0.0667 -0.1827
vn 0.9730 -0.0646 -0.2215
vn 0.9917 -0.0806 -0.1004
vn 0.9864 -0.0736 -0.1470
vn 0.9961 -0.0861 -0.0175
vn 0.9954 -0.0849 -0.0449
vn 0.8580 -0.0911 -0.5055
vn 0.8573 -0.0918 -0.5066
vn 0.8686 -0.0881 -0.4877
vn 0.8843 -0.0896 -0.4583
vn 0.4674 -0.3636 -0.8058
vn -0.4679 0.1560 0.8699
vn -0.4493 0.1737 0.8763
vn -0.4669 0.2272 0.8546
vn -0.5881 0.2830 0.7577
vn -0.7196 0.3330 0.6093
vn -0.7969 0.3570 0.4874
vn -0.8424 0.3675 0.3941
vn -0.8735 0.3726 0.3134
vn -0.8924 0.3734 0.2535
vn -0.9047 0.3724 0.2069
vn -0.9134 0.3706 0.1682
vn -0.9199 0.3689 0.1334
vn -0.9257 0.3678 0.0888
vn -0.9295 0.3670 0.0373
vn -0.9304 0.3666 -0.0000
vn -0.9091 0.0065 -0.4164
vn -0.8570 0.0629 -0.5115
vn -0.8808 0.1330 -0.4544
vn -0.9085 0.1177 -0.4010
vn -0.7956 0.3131 -0.5187
vn -0.8521 0.1996 -0.4838
vn -0.7268 0.5351 -0.4305
vn -0.7568 0.3139 -0.5734
vn -0.7530 0.1827 -0.6321
vn -0.6209 0.1152 -0.7754
vn -0.6472 0.3706 -0.6662
vn -0.8709 0.1021 -0.4807
vn -0.7718 0.2272 -0.5938
vn -0.9071 0.0985 -0.4093
vn -0.9632 0.0005 -0.2687
vn -0.9436 -0.0004 -0.3310
vn -0.9411 0.0835 -0.3277
vn -0.9613 0.0666 -0.2675
vn -0.9359 0.1261 -0.3288
vn -0.9530 0.1441 -0.2665
vn -0.9949 0.0010 -0.1013
vn -0.9890 0.0010 -0.1477
vn -0.9869 0.0666 -0.1469
vn -0.9925 0.0697 -0.1002
vn -0.9831 0.0009 -0.1832
vn -0.9811 0.0644 -0.1827
vn -0.9890 0.0002 -0.1478
vn -0.9714 0.1548 -0.1799
vn -0.9948 0.0002 -0.1015
vn -0.9990 0.0011 -0.0456
vn -0.9963 0.0729 -0.0445
vn -0.9990 0.0003 -0.0458
vn -0.9751 0.0008 -0.2220
vn -0.9731 0.0635 -0.2214
vn -0.9641 0.1501 -0.2191
vn -0.4535 0.2765 -0.8473
vn -0.4285 0.2164 -0.8772
vn -0.4260 0.1336 -0.8948
vn -0.4793 0.2170 -0.8504
vn -0.4838 0.4205 -0.7676
vn -0.5131 0.5230 -0.6806
vn -0.5505 0.2181 -0.8058
vn -0.5180 0.1133 -0.8478
vn -0.5325 0.5905 -0.6064
vn -0.5540 0.6666 -0.4987
vn -0.9377 -0.0404 -0.3452
vn -0.6405 0.6510 -0.4074
vn -0.5303 0.7710 -0.3525
vn -0.8792 0.3037 -0.3672
vn -0.9179 0.2459 -0.3115
vn -0.9423 0.2121 -0.2590
vn -0.9546 0.2058 -0.2156
vn -0.9616 0.2093 -0.1778
vn -0.9659 0.2164 -0.1420
vn -0.9695 0.2258 -0.0952
vn -0.9712 0.2347 -0.0411
vn -0.5772 0.3541 -0.7358
vn -0.6055 0.2733 -0.7474
vn -0.7128 0.3936 -0.5805
vn -0.7978 0.3777 -0.4700
vn -0.8390 0.3845 -0.3851
vn -0.8769 0.4118 -0.2481
vn -0.8630 0.4004 -0.3081
vn -0.8931 0.4191 -0.1635
vn -0.8868 0.4158 -0.2018
vn -0.9005 0.4265 -0.0845
vn -0.8970 0.4228 -0.1288
vn -0.8504 0.5122 -0.1204
vn -0.8491 0.5225 -0.0771
vn -0.9028 0.4287 -0.0348
vn -0.8482 0.5289 -0.0306
vn -0.7093 0.5811 -0.3990
vn -0.8227 0.3836 -0.4196
vn -0.3703 0.6392 -0.6740
vn -0.3813 0.6188 -0.6868
vn -0.4528 0.4579 -0.7651
vn -0.5223 0.0300 -0.8522
vn -0.4741 -0.0036 -0.8805
vn -0.4719 -0.0071 -0.8816
vn -0.4659 0.1459 -0.8727
vn 0.5587 -0.3173 0.7663
vn 0.5170 -0.3265 0.7913
vn 0.5170 -0.3265 0.7912
vn 0.5587 -0.3172 0.7663
vn 0.4869 -0.3484 0.8010
vn -0.3180 -0.3763 0.8702
vn 0.5629 -0.2657 0.7827
vn 0.7944 -0.1477 0.5891
vn 0.7705 -0.1630 0.6162
vn 0.6072 -0.3220 0.7264
vn 0.9612 -0.0695 0.2670
vn 0.9426 -0.0785 0.3247
vn 0.9133 -0.0863 0.3981
vn 0.9809 -0.0667 0.1827
vn 0.9730 -0.0646 0.2215
vn 0.9917 -0.0806 0.1004
vn 0.9864 -0.0736 0.1470
vn 0.9961 -0.0861 0.0175
vn 0.9954 -0.0849 0.0449
vn 0.8686 -0.0881 0.4877
vn 0.8573 -0.0918 0.5066
vn 0.8580 -0.0911 0.5055
vn 0.8843 -0.0896 0.4583
vn 0.4674 -0.3636 0.8058
vn -0.4669 0.1569 -0.8703
vn -0.4486 0.1743 -0.8766
vn -0.4669 0.2272 -0.8546
vn -0.5881 0.2830 -0.7577
vn -0.7196 0.3330 -0.6093
vn -0.7969 0.3570 -0.4874
vn -0.8424 0.3676 -0.3941
vn -0.8735 0.3726 -0.3134
vn -0.8924 0.3734 -0.2535
vn -0.9047 0.3724 -0.2069
vn -0.9134 0.3706 -0.1682
vn -0.9199 0.3689 -0.1334
vn -0.9257 0.3678 -0.0888
vn -0.9295 0.3670 -0.0373
# 243 vertex normals

g H033_182C_C_D_H033_182C_C
usemtl diffuse_black_plasticSG
s 1
f 1//1 2//2 3//3 
f 3//3 4//4 1//1 
f 2//2 1//1 5//5 
f 5//5 6//6 2//2 
f 7//7 8//8 6//6 
f 9//9 2//2 6//6 
f 6//6 8//8 9//9 
f 10//10 11//11 9//9 
f 9//9 8//8 10//10 
f 2//2 9//9 12//12 
f 12//12 13//13 2//2 
f 3//3 2//2 13//13 
f 13//13 14//14 3//3 
f 15//15 16//16 17//17 
f 17//17 18//18 15//15 
f 16//16 15//15 4//4 
f 4//4 3//3 16//16 
f 16//16 3//3 14//14 
f 14//14 19//19 16//16 
f 17//17 16//16 19//19 
f 19//19 20//20 17//17 
f 21//21 22//22 23//23 
f 23//23 24//24 21//21 
f 21//21 25//25 26//26 
f 26//26 22//22 21//21 
f 22//22 26//26 27//27 
f 27//27 28//28 22//22 
f 22//22 28//28 29//29 
f 29//29 23//23 22//22 
f 30//30 31//31 32//32 
f 32//32 33//33 30//30 
f 31//31 30//30 24//24 
f 24//24 23//23 31//31 
f 34//34 31//31 23//23 
f 23//23 29//29 34//34 
f 31//31 34//34 35//35 
f 35//35 32//32 31//31 
f 36//36 26//26 25//25 
f 25//25 37//37 36//36 
f 37//37 18//18 17//17 
f 17//17 36//36 37//37 
f 17//17 20//20 38//38 
f 38//38 36//36 17//17 
f 38//38 27//27 26//26 
f 26//26 36//36 38//38 
f 39//39 40//40 41//41 
f 41//41 42//42 39//39 
f 43//43 44//44 45//45 
f 45//45 46//46 43//43 
f 44//44 43//43 10//10 
f 10//10 47//47 44//44 
f 48//48 47//47 10//10 
f 10//10 8//8 48//48 
f 49//49 50//50 48//50 
f 48//50 7//7 49//49 
f 7//7 48//51 8//8 
f 15//15 51//52 52//53 
f 52//53 4//4 15//15 
f 51//52 15//15 18//18 
f 18//18 53//54 51//52 
f 37//37 54//55 53//54 
f 53//54 18//18 37//37 
f 54//55 37//37 25//25 
f 25//25 55//56 54//55 
f 21//21 56//57 55//56 
f 55//56 25//25 21//21 
f 56//57 21//21 24//24 
f 24//24 57//58 56//57 
f 30//30 58//59 57//58 
f 57//58 24//24 30//30 
f 30//30 33//33 59//60 
f 59//60 58//59 30//30 
f 60//61 61//62 42//42 
f 42//42 41//41 60//61 
f 61//62 60//61 62//63 
f 62//63 12//12 61//62 
f 63//64 64//65 14//14 
f 14//14 13//13 63//64 
f 62//63 63//64 13//13 
f 13//13 12//12 62//63 
f 19//19 65//66 66//67 
f 66//67 20//20 19//19 
f 64//65 65//66 19//19 
f 19//19 14//14 64//65 
f 38//38 67//68 68//69 
f 68//69 27//27 38//38 
f 67//68 38//38 20//20 
f 20//20 66//67 67//68 
f 28//70 69//71 70//72 
f 70//72 29//73 28//70 
f 69//71 28//70 27//27 
f 27//27 68//69 69//71 
f 71//74 72//75 35//76 
f 35//76 34//77 71//74 
f 71//74 34//77 29//73 
f 29//73 70//72 71//74 
f 6//6 73//78 49//49 
f 49//49 7//7 6//6 
f 5//5 73//78 6//6 
f 74//79 73//78 5//5 
f 5//5 1//1 74//79 
f 74//79 1//1 4//4 
f 4//4 52//53 74//79 
f 75//80 46//46 76//81 
f 46//46 45//45 77//82 
f 77//82 76//81 46//46 
f 11//11 43//43 46//46 
f 46//46 78//83 11//11 
f 61//62 11//11 78//83 
f 78//83 42//42 61//62 
f 9//9 11//11 61//62 
f 61//62 12//12 9//9 
f 43//43 11//11 10//10 
f 75//84 79//85 42//42 
f 42//42 78//83 75//84 
f 42//42 79//85 39//39 
f 46//46 75//84 78//83 
f 39//39 79//85 75//84 
f 75//84 80//86 39//39 
s 10
f 81//87 44//88 47//89 
f 47//89 82//90 81//87 
f 83//91 45//91 44//88 
f 44//88 81//87 83//91 
s 11
f 50//92 84//93 48//94 
s off
f 48//95 84//95 85//95 
s 10
f 48//96 85//96 82//90 
f 82//90 47//89 48//96 
s 11
f 86//97 87//98 51//98 
f 51//98 53//97 86//97 
f 87//98 88//99 52//99 
f 52//99 51//98 87//98 
f 89//100 90//101 54//101 
f 54//101 55//100 89//100 
f 90//101 86//97 53//97 
f 53//97 54//101 90//101 
f 91//102 92//103 56//103 
f 56//103 57//102 91//102 
f 92//103 89//100 55//100 
f 55//100 56//103 92//103 
f 93//104 94//105 58//105 
f 58//105 59//104 93//104 
f 91//102 57//102 58//105 
f 58//105 94//105 91//102 
f 95//106 49//107 73//108 
f 73//108 96//108 95//106 
f 49//107 95//106 84//93 
f 84//93 50//92 49//107 
f 88//99 97//109 74//109 
f 74//109 52//99 88//99 
f 97//109 96//108 73//108 
f 73//108 74//109 97//109 
s 10
f 45//91 83//91 98//110 
f 98//110 77//110 45//91 
s 1
f 80//86 40//40 39//39 
f 99//111 100//112 40//40 
f 40//40 80//86 99//111 
f 40//40 100//112 101//113 
f 101//113 41//41 40//40 
f 41//41 101//113 102//114 
f 102//114 60//61 41//41 
f 60//61 102//114 103//115 
f 103//115 62//63 60//61 
f 62//63 103//115 104//116 
f 104//116 63//64 62//63 
f 63//64 104//116 105//117 
f 105//117 64//65 63//64 
f 64//65 105//117 106//118 
f 106//118 65//66 64//65 
f 65//66 106//118 107//119 
f 107//119 66//67 65//66 
f 66//67 107//119 108//120 
f 108//120 67//68 66//67 
f 67//68 108//120 109//121 
f 109//121 68//69 67//68 
f 68//69 109//121 110//122 
f 110//122 69//71 68//69 
f 69//71 110//122 111//123 
f 111//123 70//72 69//71 
f 70//72 111//123 112//124 
f 112//124 71//74 70//72 
f 71//74 112//124 113//125 
f 113//125 72//75 71//74 
f 114//126 115//127 116//128 
f 116//128 117//129 114//126 
f 115//127 118//130 119//131 
f 119//131 116//128 115//127 
f 120//132 118//130 121//133 
f 122//134 121//133 118//130 
f 118//130 115//127 122//134 
f 122//134 123//135 124//136 
f 124//136 121//133 122//134 
f 115//127 125//137 126//138 
f 126//138 122//134 115//127 
f 125//137 115//127 114//126 
f 114//126 127//139 125//137 
f 128//140 129//141 130//142 
f 130//142 131//143 128//140 
f 129//141 114//126 117//129 
f 117//129 130//142 129//141 
f 129//141 132//144 127//139 
f 127//139 114//126 129//141 
f 132//144 129//141 128//140 
f 128//140 133//145 132//144 
f 134//146 135//147 136//148 
f 136//148 137//149 134//146 
f 138//150 139//151 136//148 
f 136//148 135//147 138//150 
f 135//147 140//152 141//153 
f 141//153 138//150 135//147 
f 135//147 134//146 142//154 
f 142//154 140//152 135//147 
f 32//32 143//155 144//156 
f 144//156 33//33 32//32 
f 143//155 134//146 137//149 
f 137//149 144//156 143//155 
f 134//146 143//155 145//157 
f 145//157 142//154 134//146 
f 143//155 32//32 35//35 
f 35//35 145//157 143//155 
f 146//158 147//159 139//151 
f 139//151 138//150 146//158 
f 128//140 131//143 147//159 
f 147//159 146//158 128//140 
f 148//160 133//145 128//140 
f 128//140 146//158 148//160 
f 138//150 141//153 148//160 
f 148//160 146//158 138//150 
f 149//161 150//162 151//163 
f 151//163 152//164 149//161 
f 153//165 154//166 155//167 
f 155//167 156//168 153//165 
f 154//166 157//169 124//136 
f 124//136 155//167 154//166 
f 158//170 121//133 124//136 
f 124//136 157//169 158//170 
f 121//133 158//171 120//132 
f 159//172 120//132 158//173 
f 158//173 160//173 159//172 
f 161//174 162//175 130//142 
f 130//142 117//129 161//174 
f 162//175 163//176 131//143 
f 131//143 130//142 162//175 
f 163//176 164//177 147//159 
f 147//159 131//143 163//176 
f 164//177 165//178 139//151 
f 139//151 147//159 164//177 
f 165//178 166//179 136//148 
f 136//148 139//151 165//178 
f 166//179 167//180 137//149 
f 137//149 136//148 166//179 
f 167//180 168//181 144//156 
f 144//156 137//149 167//180 
f 59//60 33//33 144//156 
f 144//156 168//181 59//60 
f 169//182 149//161 152//164 
f 152//164 170//183 169//182 
f 171//184 169//182 170//183 
f 170//183 126//138 171//184 
f 172//185 125//137 127//139 
f 127//139 173//186 172//185 
f 125//137 172//185 171//184 
f 171//184 126//138 125//137 
f 174//187 175//188 132//144 
f 132//144 133//145 174//187 
f 132//144 175//188 173//186 
f 173//186 127//139 132//144 
f 176//189 177//190 148//160 
f 148//160 141//153 176//189 
f 177//190 174//187 133//145 
f 133//145 148//160 177//190 
f 178//191 179//192 140//193 
f 140//193 142//194 178//191 
f 179//192 176//189 141//153 
f 141//153 140//193 179//192 
f 180//195 145//196 35//76 
f 35//76 72//75 180//195 
f 180//195 178//191 142//194 
f 142//194 145//196 180//195 
f 159//172 181//197 118//130 
f 118//130 120//132 159//172 
f 119//131 118//130 181//197 
f 182//198 116//128 119//131 
f 119//131 181//197 182//198 
f 182//198 161//174 117//129 
f 117//129 116//128 182//198 
f 183//199 184//200 156//168 
f 185//201 153//165 156//168 
f 156//168 184//200 185//201 
f 123//135 186//202 156//168 
f 156//168 155//167 123//135 
f 186//202 123//135 170//183 
f 170//183 152//164 186//202 
f 170//183 123//135 122//134 
f 122//134 126//138 170//183 
f 124//136 123//135 155//167 
f 151//163 187//203 152//164 
f 183//204 186//202 152//164 
f 152//164 187//203 183//204 
f 156//168 186//202 183//204 
f 183//204 187//203 151//163 
f 151//163 188//205 183//204 
s 21
f 157//206 154//207 189//208 
f 189//208 190//209 157//206 
f 154//207 153//210 191//210 
f 191//210 189//208 154//207 
s off
f 192//211 193//211 158//211 
s 22
f 158//212 193//213 160//214 
s 21
f 190//209 192//215 158//215 
f 158//215 157//206 190//209 
s 22
f 194//216 163//216 162//217 
f 162//217 195//217 194//216 
f 195//217 162//217 161//218 
f 161//218 196//218 195//217 
f 197//219 165//219 164//220 
f 164//220 198//220 197//219 
f 198//220 164//220 163//216 
f 163//216 194//216 198//220 
f 199//221 167//221 166//222 
f 166//222 200//222 199//221 
f 200//222 166//222 165//219 
f 165//219 197//219 200//222 
f 201//223 59//223 168//224 
f 168//224 202//224 201//223 
f 168//224 167//221 199//221 
f 199//221 202//224 168//224 
f 181//225 159//226 203//227 
f 203//227 204//225 181//225 
f 193//213 203//227 159//226 
f 159//226 160//214 193//213 
f 196//218 161//218 182//228 
f 182//228 205//228 196//218 
f 205//228 182//228 181//225 
f 181//225 204//225 205//228 
s 21
f 206//229 191//210 153//210 
f 153//210 185//229 206//229 
s 1
f 188//205 151//163 150//162 
f 207//230 188//205 150//162 
f 150//162 208//231 207//230 
f 209//232 208//231 150//162 
f 150//162 149//161 209//232 
f 210//233 209//232 149//161 
f 149//161 169//182 210//233 
f 211//234 210//233 169//182 
f 169//182 171//184 211//234 
f 212//235 211//234 171//184 
f 171//184 172//185 212//235 
f 213//236 212//235 172//185 
f 172//185 173//186 213//236 
f 214//237 213//236 173//186 
f 173//186 175//188 214//237 
f 215//238 214//237 175//188 
f 175//188 174//187 215//238 
f 216//239 215//238 174//187 
f 174//187 177//190 216//239 
f 217//240 216//239 177//190 
f 177//190 176//189 217//240 
f 218//241 217//240 176//189 
f 176//189 179//192 218//241 
f 219//242 218//241 179//192 
f 179//192 178//191 219//242 
f 220//243 219//242 178//191 
f 178//191 180//195 220//243 
f 113//125 220//243 180//195 
f 180//195 72//75 113//125 
# 364 faces

