# 3ds Max Wavefront OBJ Exporter v0.97b - (c)2007 guruware
# File Created: 13.11.2015 17:38:50

mtllib H033_304H_L.mtl

#
# object H033_304H_L_DTaSI_H033_304H_L
#

v  -127.9561 65.2338 -74.8082
v  -127.9554 66.7477 -74.1862
v  -122.0051 66.5706 -74.6096
v  -122.0181 57.4689 -78.3177
v  -127.9342 56.7586 -78.4038
v  -122.0318 48.7239 -82.1857
v  -127.7728 48.6828 -82.0823
v  -133.6314 55.8545 -78.5602
v  -133.6967 63.6683 -75.1749
v  -133.0738 48.3953 -82.1300
v  -138.9162 54.8346 -78.8116
v  -138.1106 47.8082 -82.2504
v  -135.2677 45.6359 -83.4584
v  -138.3299 45.8539 -83.3453
v  -122.0378 44.8254 -83.9596
v  -127.5413 45.0768 -83.8224
v  -131.7158 45.3832 -83.6179
v  -122.0033 68.8088 -73.7646
v  -133.6957 64.3952 -74.7778
v  -138.9992 61.8366 -75.5005
v  -140.4164 47.2162 -82.4812
v  -144.8039 54.8228 -78.3304
v  -144.8850 55.6598 -77.9061
v  -139.7260 45.9538 -83.2421
v  -141.4854 60.4351 -75.9251
v  -143.0305 59.2911 -76.3443
v  -142.3557 59.8421 -76.1346
v  -143.7492 58.5609 -76.6030
v  -144.7184 57.0041 -77.2511
v  -144.2905 57.8714 -76.8750
v  -144.8168 56.6010 -77.4399
# 31 vertices

vn -0.0489 0.3869 -0.9208
vn -0.0555 0.3809 -0.9229
vn -0.0542 0.3732 -0.9262
vn -0.0333 0.3996 -0.9161
vn -0.0335 0.4046 -0.9139
vn -0.0228 0.4135 -0.9102
vn -0.0239 0.4189 -0.9077
vn -0.0408 0.4158 -0.9085
vn -0.0613 0.3986 -0.9151
vn -0.0284 0.4304 -0.9022
vn -0.0518 0.4338 -0.8995
vn -0.0303 0.4396 -0.8977
vn -0.0200 0.4501 -0.8927
vn -0.0169 0.4921 -0.8704
vn -0.0115 0.4238 -0.9057
vn -0.0125 0.4284 -0.9035
vn -0.0162 0.4390 -0.8983
vn -0.0560 0.3527 -0.9341
vn -0.0772 0.4064 -0.9104
vn -0.0657 0.4172 -0.9064
vn -0.0522 0.4500 -0.8915
vn -0.0739 0.4446 -0.8927
vn -0.0740 0.4445 -0.8927
vn -0.0360 0.4955 -0.8679
vn -0.0572 0.4269 -0.9025
vn -0.0808 0.4249 -0.9016
vn -0.0743 0.4300 -0.8998
vn -0.0874 0.4221 -0.9023
vn -0.0799 0.4336 -0.8976
vn -0.0833 0.4268 -0.9005
vn -0.0746 0.4442 -0.8928
# 31 vertex normals

vt 0.9343 0.0890 0.0000
vt 0.9347 0.0950 0.0000
vt 0.9131 0.0955 0.0000
vt 0.9104 0.0591 0.0000
vt 0.9315 0.0549 0.0000
vt 0.9075 0.0236 0.0000
vt 0.9281 0.0220 0.0000
vt 0.9517 0.0499 0.0000
vt 0.9546 0.0815 0.0000
vt 0.9469 0.0195 0.0000
vt 0.9704 0.0446 0.0000
vt 0.9648 0.0159 0.0000
vt 0.9537 0.0076 0.0000
vt 0.9647 0.0077 0.0000
vt 0.9061 0.0078 0.0000
vt 0.9259 0.0073 0.0000
vt 0.9409 0.0075 0.0000
vt 0.9137 0.1044 0.0000
vt 0.9549 0.0845 0.0000
vt 0.9733 0.0733 0.0000
vt 0.9729 0.0129 0.0000
vt 0.9919 0.0436 0.0000
vt 0.9926 0.0470 0.0000
vt 0.9698 0.0077 0.0000
vt 0.9819 0.0671 0.0000
vt 0.9871 0.0622 0.0000
vt 0.9849 0.0646 0.0000
vt 0.9895 0.0591 0.0000
vt 0.9925 0.0526 0.0000
vt 0.9913 0.0562 0.0000
vt 0.9927 0.0509 0.0000
# 31 texture coords

g H033_304H_L_DTaSI_H033_304H_L
usemtl windowglass_1SG
s 1
f 1/1/1 2/2/2 3/3/3 
f 3/3/3 4/4/4 1/1/1 
f 1/1/1 4/4/4 5/5/5 
f 5/5/5 4/4/4 6/6/6 
f 6/6/6 7/7/7 5/5/5 
f 5/5/5 8/8/8 9/9/9 
f 9/9/9 1/1/1 5/5/5 
f 8/8/8 5/5/5 7/7/7 
f 7/7/7 10/10/10 8/8/8 
f 11/11/11 8/8/8 10/10/10 
f 10/10/10 12/12/12 11/11/11 
f 12/12/12 13/13/13 14/14/14 
f 6/6/6 15/15/15 16/16/16 
f 16/16/16 7/7/7 6/6/6 
f 10/10/10 17/17/17 13/13/13 
f 13/13/13 12/12/12 10/10/10 
f 17/17/17 10/10/10 7/7/7 
f 7/7/7 16/16/16 17/17/17 
f 3/3/3 2/2/2 18/18/18 
f 19/19/19 2/2/2 1/1/1 
f 1/1/1 9/9/9 19/19/19 
f 20/20/20 19/19/19 9/9/9 
f 9/9/9 8/8/8 20/20/20 
f 12/12/12 21/21/21 11/11/11 
f 22/22/22 23/23/23 11/11/11 
f 11/11/11 21/21/21 22/22/22 
f 21/21/21 12/12/12 14/14/14 
f 14/14/14 24/24/24 21/21/21 
f 11/11/11 25/25/25 20/20/20 
f 20/20/20 8/8/8 11/11/11 
f 26/26/26 27/27/27 25/25/25 
f 25/25/25 11/11/11 26/26/26 
f 26/26/26 11/11/11 28/28/28 
f 29/29/29 30/30/30 28/28/28 
f 28/28/28 11/11/11 29/29/29 
f 23/23/23 31/31/31 29/29/29 
f 29/29/29 11/11/11 23/23/23 
# 37 faces

