# 3ds Max Wavefront OBJ Exporter v0.97b - (c)2007 guruware
# File Created: 13.11.2015 17:36:54

mtllib H033_184Q_L.mtl

#
# object H033_184Q_L_DTaSI_H033_184Q_L
#

v  79.2736 42.2377 -83.5171
v  79.8881 48.3600 -81.5274
v  86.6982 45.6758 -82.0166
v  85.9114 40.4729 -83.8115
v  78.9505 36.2147 -85.2132
v  85.4368 35.3753 -85.3255
v  90.3696 39.3187 -84.0005
v  90.3285 34.7756 -85.4069
v  90.1762 32.6603 -86.1521
v  85.2509 32.9712 -86.1248
v  78.8292 33.4011 -86.0916
v  95.9182 43.1228 -82.5295
v  96.7917 39.8231 -83.6474
v  98.0592 35.0348 -85.2225
v  94.6702 32.3917 -86.1901
v  90.3649 44.2211 -82.2739
v  95.7169 43.9530 -82.2371
v  90.2728 46.2295 -81.5283
v  80.5869 50.5131 -80.3714
v  87.4599 47.4723 -81.1915
v  98.8405 32.0829 -86.2074
v  94.2605 32.4162 -86.1852
v  73.2301 50.9885 -81.0465
v  73.8327 53.3833 -79.8342
v  72.7967 43.9658 -83.2258
v  72.6385 37.0356 -85.1028
v  72.5888 33.8216 -86.0599
# 27 vertices

vn 0.0349 0.2880 -0.9570
vn 0.0608 0.3401 -0.9384
vn 0.0583 0.3397 -0.9387
vn 0.0373 0.2981 -0.9538
vn 0.0221 0.2788 -0.9601
vn 0.0235 0.2908 -0.9565
vn 0.0318 0.3088 -0.9506
vn 0.0205 0.3097 -0.9506
vn 0.0174 0.3247 -0.9457
vn 0.0193 0.3118 -0.9500
vn 0.0186 0.2976 -0.9545
vn 0.0252 0.3212 -0.9467
vn 0.0218 0.3135 -0.9493
vn 0.0127 0.3207 -0.9471
vn 0.0124 0.3207 -0.9471
vn 0.0421 0.3343 -0.9415
vn 0.0225 0.3339 -0.9423
vn 0.0554 0.3638 -0.9298
vn 0.1010 0.4280 -0.8981
vn 0.0837 0.4063 -0.9099
vn 0.0199 0.3212 -0.9468
vn 0.0108 0.3295 -0.9441
vn 0.0674 0.3486 -0.9348
vn 0.1101 0.4341 -0.8941
vn 0.0347 0.2851 -0.9579
vn 0.0212 0.2724 -0.9619
vn 0.0179 0.2908 -0.9566
# 27 vertex normals

vt 0.2363 0.0468 0.0000
vt 0.2354 0.0711 0.0000
vt 0.2107 0.0630 0.0000
vt 0.2122 0.0421 0.0000
vt 0.2364 0.0234 0.0000
vt 0.2130 0.0221 0.0000
vt 0.1961 0.0391 0.0000
vt 0.1953 0.0212 0.0000
vt 0.1953 0.0128 0.0000
vt 0.2131 0.0125 0.0000
vt 0.2363 0.0123 0.0000
vt 0.1772 0.0559 0.0000
vt 0.1732 0.0431 0.0000
vt 0.1676 0.0246 0.0000
vt 0.1791 0.0130 0.0000
vt 0.1973 0.0586 0.0000
vt 0.1781 0.0592 0.0000
vt 0.1982 0.0666 0.0000
vt 0.2339 0.0804 0.0000
vt 0.2086 0.0706 0.0000
vt 0.1641 0.0131 0.0000
vt 0.1806 0.0130 0.0000
vt 0.2596 0.0791 0.0000
vt 0.2584 0.0893 0.0000
vt 0.2598 0.0515 0.0000
vt 0.2592 0.0246 0.0000
vt 0.2588 0.0120 0.0000
# 27 texture coords

g H033_184Q_L_DTaSI_H033_184Q_L
usemtl windowglass_1SG
s 1
f 1/1/1 2/2/2 3/3/3 
f 3/3/3 4/4/4 1/1/1 
f 5/5/5 1/1/1 4/4/4 
f 4/4/4 6/6/6 5/5/5 
f 7/7/7 8/8/8 6/6/6 
f 6/6/6 4/4/4 7/7/7 
f 8/8/8 9/9/9 10/10/10 
f 10/10/10 6/6/6 8/8/8 
f 11/11/11 5/5/5 6/6/6 
f 6/6/6 10/10/10 11/11/11 
f 7/7/7 12/12/12 13/13/13 
f 13/13/13 8/8/8 7/7/7 
f 14/14/14 15/15/15 8/8/8 
f 8/8/8 13/13/13 14/14/14 
f 16/16/16 17/17/17 12/12/12 
f 12/12/12 7/7/7 16/16/16 
f 18/18/18 17/17/17 16/16/16 
f 2/2/2 19/19/19 20/20/20 
f 20/20/20 3/3/3 2/2/2 
f 21/21/21 15/15/15 14/14/14 
f 15/15/15 22/22/22 8/8/8 
f 22/22/22 9/9/9 8/8/8 
f 4/4/4 3/3/3 16/16/16 
f 16/16/16 7/7/7 4/4/4 
f 18/18/18 16/16/16 3/3/3 
f 3/3/3 20/20/20 18/18/18 
f 19/19/19 2/2/2 23/23/23 
f 23/23/23 24/24/24 19/19/19 
f 2/2/2 1/1/1 25/25/25 
f 25/25/25 23/23/23 2/2/2 
f 1/1/1 5/5/5 26/26/26 
f 26/26/26 25/25/25 1/1/1 
f 5/5/5 11/11/11 27/27/27 
f 27/27/27 26/26/26 5/5/5 
# 34 faces

