# 3ds Max Wavefront OBJ Exporter v0.97b - (c)2007 guruware
# File Created: 13.11.2015 17:34:40

mtllib H033_18A5_R.mtl

#
# object H033_18A5_R_DaS_H033_18A5_R
#

v  27.6678 75.9204 73.5598
v  32.3938 75.5037 72.2181
v  28.3147 76.6339 71.9795
v  21.0917 78.4250 71.5417
v  20.5734 77.5906 73.0979
v  14.3033 79.8888 71.1162
v  13.9538 78.9549 72.6619
v  7.4003 81.1336 70.6814
v  7.2184 80.1512 72.2271
v  -0.7766 81.3257 71.7305
v  -0.7184 82.3215 70.1909
v  -10.9369 83.5400 69.6146
v  -10.9440 82.5422 71.1291
v  -22.7187 83.5275 70.4964
v  -22.7191 84.5245 69.0117
v  -46.9773 84.0891 69.5023
v  -35.1194 84.0133 69.9291
v  -35.1198 85.0116 68.4627
v  -46.9774 85.0963 68.0417
v  27.0362 73.7212 75.2332
v  31.0293 72.7049 75.5203
v  31.1969 73.2166 75.3259
v  27.0702 74.2508 75.0380
v  13.6330 77.0348 74.1443
v  20.0950 75.7839 74.5669
v  20.0729 75.3252 74.7340
v  13.6183 76.5375 74.3253
v  -0.8291 79.3142 73.2547
v  7.0525 78.1684 73.7295
v  7.0441 77.5653 73.9501
v  -22.7178 81.4919 72.0593
v  -10.9497 80.5136 72.6744
v  -46.9770 82.0634 71.0843
v  -35.1189 81.9819 71.5043
v  -41.5004 80.0758 72.0646
v  -35.1183 80.1212 72.2456
v  -46.9764 79.8995 71.9706
v  -42.1824 80.0530 72.0528
v  -22.7170 79.9017 72.6744
v  -10.9496 79.3702 73.1055
v  -0.8319 78.5719 73.5293
v  -57.3599 84.9432 67.7882
v  -57.3601 83.9174 69.2509
v  -66.4694 84.6384 67.6076
v  -66.4697 83.5943 69.0733
v  -74.7275 84.2374 67.4038
v  -74.7277 83.1854 68.8705
v  -82.2975 82.7019 68.6902
v  -82.2974 83.7536 67.2089
v  -57.3597 81.8905 70.8359
v  -57.3584 79.4990 71.8357
v  -66.4692 81.5672 70.6597
v  -66.4673 79.0992 71.7108
v  -74.7272 81.1684 70.4601
v  -74.7254 78.6985 71.6117
v  -82.2973 80.7024 70.2900
v  -82.2962 78.2978 71.5563
v  32.3960 75.5026 72.2194
v  31.8951 74.7979 73.8294
# 59 vertices

vn 0.1366 0.7379 0.6610
vn 0.2048 0.8682 0.4519
vn 0.1851 0.8556 0.4835
vn 0.1619 0.8495 0.5022
vn 0.1177 0.7328 0.6701
vn 0.1299 0.8387 0.5288
vn 0.0930 0.7195 0.6883
vn 0.1009 0.8354 0.5404
vn 0.0709 0.7137 0.6968
vn 0.0517 0.7118 0.7005
vn 0.0769 0.8350 0.5448
vn 0.0526 0.8333 0.5504
vn 0.0324 0.7112 0.7023
vn 0.0089 0.7105 0.7037
vn 0.0228 0.8302 0.5570
vn -0.0242 0.7086 0.7052
vn -0.0120 0.7096 0.7045
vn -0.0037 0.8267 0.5627
vn -0.0204 0.8229 0.5678
vn 0.0161 0.3449 0.9385
vn 0.0217 0.3490 0.9369
vn 0.0991 0.5988 0.7947
vn 0.0853 0.5856 0.8061
vn 0.0520 0.5629 0.8249
vn 0.0690 0.5757 0.8147
vn 0.0089 0.3429 0.9393
vn 0.0024 0.3424 0.9396
vn 0.0213 0.5416 0.8404
vn 0.0364 0.5528 0.8325
vn -0.0034 0.3443 0.9389
vn -0.0100 0.5180 0.8553
vn 0.0061 0.5282 0.8491
vn -0.0272 0.5313 0.8467
vn -0.0220 0.5208 0.8534
vn -0.0297 0.3728 0.9274
vn -0.0279 0.3687 0.9291
vn -0.0277 0.3817 0.9239
vn -0.0281 0.3787 0.9251
vn -0.0230 0.3620 0.9319
vn -0.0159 0.3547 0.9349
vn -0.0096 0.3485 0.9373
vn -0.0327 0.8185 0.5736
vn -0.0331 0.7067 0.7067
vn -0.0464 0.8143 0.5786
vn -0.0448 0.7049 0.7079
vn -0.0581 0.8119 0.5809
vn -0.0552 0.6924 0.7194
vn -0.0560 0.7106 0.7013
vn -0.0644 0.8135 0.5780
vn -0.0313 0.5063 0.8618
vn -0.0291 0.3855 0.9223
vn -0.0384 0.5092 0.8598
vn -0.0334 0.3978 0.9169
vn -0.0453 0.5228 0.8513
vn -0.0375 0.4254 0.9042
vn -0.0436 0.5414 0.8396
vn -0.0357 0.4672 0.8834
vn 0.2076 0.8741 0.4392
vn 0.1611 0.7661 0.6222
# 59 vertex normals

vt 0.4860 0.7517 0.0000
vt 0.4767 0.7506 0.0000
vt 0.4845 0.7485 0.0000
vt 0.4982 0.7452 0.0000
vt 0.4994 0.7485 0.0000
vt 0.5112 0.7426 0.0000
vt 0.5120 0.7460 0.0000
vt 0.5244 0.7402 0.0000
vt 0.5248 0.7437 0.0000
vt 0.5400 0.7415 0.0000
vt 0.5399 0.7380 0.0000
vt 0.5594 0.7357 0.0000
vt 0.5594 0.7392 0.0000
vt 0.5818 0.7371 0.0000
vt 0.5818 0.7337 0.0000
vt 0.6279 0.7356 0.0000
vt 0.6054 0.7359 0.0000
vt 0.6054 0.7326 0.0000
vt 0.6280 0.7322 0.0000
vt 0.4872 0.7569 0.0000
vt 0.4797 0.7589 0.0000
vt 0.4794 0.7578 0.0000
vt 0.4871 0.7559 0.0000
vt 0.5126 0.7506 0.0000
vt 0.5003 0.7529 0.0000
vt 0.5003 0.7539 0.0000
vt 0.5126 0.7516 0.0000
vt 0.5401 0.7463 0.0000
vt 0.5251 0.7484 0.0000
vt 0.5251 0.7497 0.0000
vt 0.5818 0.7420 0.0000
vt 0.5594 0.7440 0.0000
vt 0.6278 0.7404 0.0000
vt 0.6053 0.7408 0.0000
vt 0.6174 0.7446 0.0000
vt 0.6053 0.7446 0.0000
vt 0.6278 0.7449 0.0000
vt 0.6187 0.7446 0.0000
vt 0.5818 0.7452 0.0000
vt 0.5594 0.7463 0.0000
vt 0.5401 0.7478 0.0000
vt 0.6477 0.7325 0.0000
vt 0.6476 0.7359 0.0000
vt 0.6651 0.7333 0.0000
vt 0.6649 0.7368 0.0000
vt 0.6808 0.7343 0.0000
vt 0.6806 0.7378 0.0000
vt 0.6952 0.7390 0.0000
vt 0.6954 0.7355 0.0000
vt 0.6475 0.7408 0.0000
vt 0.6474 0.7457 0.0000
vt 0.6647 0.7416 0.0000
vt 0.6646 0.7467 0.0000
vt 0.6804 0.7427 0.0000
vt 0.6802 0.7479 0.0000
vt 0.6949 0.7440 0.0000
vt 0.6946 0.7492 0.0000
vt 0.4780 0.7538 0.0000
# 58 texture coords

g H033_18A5_R_DaS_H033_18A5_R
usemtl paint_whiteSG
s 3
f 1/1/1 2/2/2 3/3/3 
f 1/1/1 3/3/3 4/4/4 
f 4/4/4 5/5/5 1/1/1 
f 5/5/5 4/4/4 6/6/6 
f 6/6/6 7/7/7 5/5/5 
f 8/8/8 9/9/9 7/7/7 
f 7/7/7 6/6/6 8/8/8 
f 10/10/10 9/9/9 8/8/8 
f 8/8/8 11/11/11 10/10/10 
f 11/11/11 12/12/12 13/13/13 
f 13/13/13 10/10/10 11/11/11 
f 14/14/14 13/13/13 12/12/12 
f 12/12/12 15/15/15 14/14/14 
f 16/16/16 17/17/17 18/18/18 
f 18/18/18 19/19/19 16/16/16 
f 15/15/15 18/18/18 17/17/17 
f 17/17/17 14/14/14 15/15/15 
f 20/20/20 21/21/21 22/22/22 
f 22/22/22 23/23/23 20/20/20 
f 24/24/24 25/25/25 5/5/5 
f 5/5/5 7/7/7 24/24/24 
f 5/5/5 25/25/25 23/23/23 
f 23/23/23 1/1/1 5/5/5 
f 23/23/23 25/25/25 26/26/26 
f 26/26/26 20/20/20 23/23/23 
f 25/25/25 24/24/24 27/27/27 
f 27/27/27 26/26/26 25/25/25 
f 28/28/28 29/29/29 9/9/9 
f 9/9/9 10/10/10 28/28/28 
f 7/7/7 9/9/9 29/29/29 
f 29/29/29 24/24/24 7/7/7 
f 24/24/24 29/29/29 30/30/30 
f 30/30/30 27/27/27 24/24/24 
f 31/31/31 32/32/32 13/13/13 
f 13/13/13 14/14/14 31/31/31 
f 10/10/10 13/13/13 32/32/32 
f 32/32/32 28/28/28 10/10/10 
f 33/33/33 34/34/34 17/17/17 
f 17/17/17 16/16/16 33/33/33 
f 14/14/14 17/17/17 34/34/34 
f 34/34/34 31/31/31 14/14/14 
f 34/34/34 33/33/33 35/35/35 
f 35/35/35 36/36/36 34/34/34 
f 33/33/33 37/37/37 38/38/38 
f 38/38/38 35/35/35 33/33/33 
f 31/31/31 34/34/34 36/36/36 
f 36/36/36 39/39/39 31/31/31 
f 32/32/32 31/31/31 39/39/39 
f 39/39/39 40/40/40 32/32/32 
f 28/28/28 32/32/32 40/40/40 
f 40/40/40 41/41/41 28/28/28 
f 29/29/29 28/28/28 41/41/41 
f 41/41/41 30/30/30 29/29/29 
f 42/42/42 43/43/43 16/16/16 
f 16/16/16 19/19/19 42/42/42 
f 42/42/42 44/44/44 45/45/45 
f 45/45/45 43/43/43 42/42/42 
f 44/44/44 46/46/46 47/47/47 
f 47/47/47 45/45/45 44/44/44 
f 48/48/48 47/47/47 49/49/48 
f 47/47/47 46/46/46 49/49/49 
f 37/37/37 33/33/33 50/50/50 
f 50/50/50 51/51/51 37/37/37 
f 51/51/51 50/50/50 52/52/52 
f 52/52/52 53/53/53 51/51/51 
f 45/45/45 52/52/52 50/50/50 
f 50/50/50 43/43/43 45/45/45 
f 43/43/43 50/50/50 33/33/33 
f 33/33/33 16/16/16 43/43/43 
f 53/53/53 52/52/52 54/54/54 
f 54/54/54 55/55/55 53/53/53 
f 55/55/55 54/54/54 56/56/56 
f 56/56/56 57/57/57 55/55/55 
f 48/48/48 56/56/56 54/54/54 
f 54/54/54 47/47/47 48/48/48 
f 47/47/47 54/54/54 52/52/52 
f 52/52/52 45/45/45 47/47/47 
s off
f 58/2/58 2/2/2 59/58/59 
s 3
f 59/58/59 2/2/59 1/1/1 
f 1/1/1 23/23/23 22/22/22 
f 22/22/22 59/58/59 1/1/1 
# 81 faces

#
# object H033_18A5_R_DaS_H033_18A5_R_E
#

v  -35.0991 79.8590 71.5848
v  -35.1183 80.1212 72.2456
v  -41.5004 80.0758 72.0646
v  -41.4802 79.8103 71.4051
v  -22.7016 79.6450 72.0113
v  -22.7170 79.9017 72.6744
v  -10.9392 79.1189 72.4403
v  -10.9496 79.3702 73.1055
v  -0.8257 78.3247 72.8625
v  -0.8319 78.5719 73.5293
v  7.0462 77.3207 73.2823
v  7.0441 77.5653 73.9501
v  13.6166 76.2940 73.6571
v  13.6183 76.5375 74.3253
v  27.0246 73.4751 74.5660
v  27.0362 73.7212 75.2332
v  20.0729 75.3252 74.7340
v  20.0671 75.0815 74.0659
v  -42.1625 79.7859 71.3940
v  -42.1824 80.0530 72.0528
v  -46.9764 79.8995 71.9706
v  -46.9572 79.6295 71.3128
v  -57.3584 79.4990 71.8357
v  -57.3385 79.2249 71.1797
v  -66.4673 79.0992 71.7108
v  -66.4431 78.8205 71.0569
v  -74.7254 78.6985 71.6117
v  -74.6968 78.4149 70.9601
v  -82.2962 78.2978 71.5563
v  -82.2670 78.0089 70.9071
v  31.0946 72.4356 74.8600
v  31.0293 72.7049 75.5203
v  32.3312 75.4684 72.1803
v  28.2907 76.5354 71.9466
v  28.3147 76.6339 71.9795
v  32.3938 75.5037 72.2181
v  14.2860 79.7901 71.0795
v  14.3033 79.8888 71.1162
v  21.0917 78.4250 71.5417
v  21.0709 78.3264 71.5068
v  -0.7293 82.2227 70.1523
v  -0.7184 82.3215 70.1909
v  7.4003 81.1336 70.6814
v  7.3865 81.0348 70.6435
v  -22.7233 84.4258 68.9713
v  -22.7191 84.5245 69.0117
v  -10.9369 83.5400 69.6146
v  -10.9448 83.4412 69.5752
v  -46.9758 84.9985 67.9992
v  -46.9774 85.0963 68.0417
v  -35.1198 85.0116 68.4627
v  -35.1205 84.9133 68.4211
v  -66.4645 84.5411 67.5641
v  -66.4694 84.6384 67.6076
v  -57.3599 84.9432 67.7882
v  -57.3566 84.8457 67.7451
v  -74.7275 84.2374 67.4038
v  -74.7209 84.1404 67.3601
v  -82.2974 83.7536 67.2089
v  -82.2892 83.6566 67.1653
# 60 vertices

vn -0.0163 -0.9295 0.3685
vn -0.0163 -0.9296 0.3682
vn 0.0105 -0.9276 0.3735
vn 0.0112 -0.9272 0.3743
vn -0.0419 -0.9320 0.3600
vn -0.0419 -0.9321 0.3597
vn -0.0715 -0.9334 0.3516
vn -0.0715 -0.9335 0.3514
vn -0.1125 -0.9320 0.3446
vn -0.1125 -0.9320 0.3444
vn -0.1506 -0.9284 0.3397
vn -0.1506 -0.9284 0.3396
vn -0.1794 -0.9242 0.3372
vn -0.1794 -0.9242 0.3373
vn -0.2440 -0.9085 0.3392
vn -0.2445 -0.9083 0.3393
vn -0.2146 -0.9169 0.3365
vn -0.2146 -0.9170 0.3363
vn 0.0252 -0.9261 0.3765
vn 0.0245 -0.9264 0.3757
vn 0.0272 -0.9246 0.3801
vn 0.0272 -0.9244 0.3804
vn 0.0331 -0.9219 0.3861
vn 0.0331 -0.9218 0.3863
vn 0.0377 -0.9188 0.3928
vn 0.0377 -0.9187 0.3932
vn 0.0429 -0.9155 0.4001
vn 0.0429 -0.9153 0.4005
vn 0.0460 -0.9121 0.4073
vn 0.0461 -0.9119 0.4078
vn -0.2556 -0.9037 0.3434
vn -0.2549 -0.9058 0.3385
vn 0.1954 0.5313 -0.8243
vn 0.1295 0.2857 -0.9495
vn 0.1299 0.2870 -0.9491
vn 0.1960 0.5339 -0.8225
vn 0.1237 0.3271 -0.9369
vn 0.1237 0.3272 -0.9368
vn 0.1294 0.3069 -0.9429
vn 0.1294 0.3067 -0.9430
vn 0.1012 0.3527 -0.9302
vn 0.1012 0.3528 -0.9302
vn 0.1134 0.3419 -0.9329
vn 0.1134 0.3418 -0.9329
vn 0.0672 0.3756 -0.9243
vn 0.0672 0.3757 -0.9243
vn 0.0867 0.3629 -0.9278
vn 0.0867 0.3628 -0.9278
vn 0.0260 0.3990 -0.9166
vn 0.0458 0.3889 -0.9201
vn 0.0036 0.4080 -0.9130
vn 0.0105 0.4045 -0.9145
vn -0.0001 0.4106 -0.9118
vn -0.0001 0.4105 -0.9118
vn -0.0027 0.4104 -0.9119
vn -0.0027 0.4091 -0.9125
# 56 vertex normals

vt 0.6053 0.7460 0.0000
vt 0.6053 0.7446 0.0000
vt 0.6174 0.7446 0.0000
vt 0.6174 0.7459 0.0000
vt 0.5818 0.7466 0.0000
vt 0.5818 0.7452 0.0000
vt 0.5595 0.7477 0.0000
vt 0.5594 0.7463 0.0000
vt 0.5402 0.7492 0.0000
vt 0.5401 0.7478 0.0000
vt 0.5252 0.7510 0.0000
vt 0.5251 0.7497 0.0000
vt 0.5128 0.7529 0.0000
vt 0.5126 0.7516 0.0000
vt 0.4875 0.7582 0.0000
vt 0.4872 0.7569 0.0000
vt 0.5003 0.7539 0.0000
vt 0.5006 0.7552 0.0000
vt 0.6187 0.7460 0.0000
vt 0.6187 0.7446 0.0000
vt 0.6278 0.7449 0.0000
vt 0.6277 0.7462 0.0000
vt 0.6474 0.7457 0.0000
vt 0.6473 0.7470 0.0000
vt 0.6646 0.7467 0.0000
vt 0.6645 0.7481 0.0000
vt 0.6802 0.7479 0.0000
vt 0.6801 0.7492 0.0000
vt 0.6946 0.7492 0.0000
vt 0.6945 0.7506 0.0000
vt 0.4799 0.7602 0.0000
vt 0.4797 0.7589 0.0000
vt 0.4767 0.7504 0.0000
vt 0.4844 0.7483 0.0000
vt 0.4845 0.7485 0.0000
vt 0.4767 0.7506 0.0000
vt 0.5111 0.7424 0.0000
vt 0.5112 0.7426 0.0000
vt 0.4982 0.7452 0.0000
vt 0.4982 0.7451 0.0000
vt 0.5399 0.7378 0.0000
vt 0.5399 0.7380 0.0000
vt 0.5244 0.7402 0.0000
vt 0.5243 0.7400 0.0000
vt 0.5818 0.7335 0.0000
vt 0.5818 0.7337 0.0000
vt 0.5594 0.7357 0.0000
vt 0.5594 0.7355 0.0000
vt 0.6280 0.7320 0.0000
vt 0.6280 0.7322 0.0000
vt 0.6054 0.7326 0.0000
vt 0.6054 0.7323 0.0000
vt 0.6651 0.7331 0.0000
vt 0.6651 0.7333 0.0000
vt 0.6477 0.7325 0.0000
vt 0.6478 0.7323 0.0000
vt 0.6808 0.7343 0.0000
vt 0.6809 0.7341 0.0000
vt 0.6954 0.7355 0.0000
vt 0.6954 0.7353 0.0000
# 60 texture coords

g H033_18A5_R_DaS_H033_18A5_R_E
usemtl paint_whiteSG
s 1
f 60/59/60 61/60/61 62/61/62 
f 62/61/62 63/62/63 60/59/60 
f 64/63/64 65/64/65 61/60/61 
f 61/60/61 60/59/60 64/63/64 
f 66/65/66 67/66/67 65/64/65 
f 65/64/65 64/63/64 66/65/66 
f 68/67/68 69/68/69 67/66/67 
f 67/66/67 66/65/66 68/67/68 
f 70/69/70 71/70/71 69/68/69 
f 69/68/69 68/67/68 70/69/70 
f 72/71/72 73/72/73 71/70/71 
f 71/70/71 70/69/70 72/71/72 
f 74/73/74 75/74/75 76/75/76 
f 76/75/76 77/76/77 74/73/74 
f 77/76/77 76/75/76 73/72/73 
f 73/72/73 72/71/72 77/76/77 
f 78/77/78 79/78/79 80/79/80 
f 80/79/80 81/80/81 78/77/78 
f 81/80/81 80/79/80 82/81/82 
f 82/81/82 83/82/83 81/80/81 
f 83/82/83 82/81/82 84/83/84 
f 84/83/84 85/84/85 83/82/83 
f 85/84/85 84/83/84 86/85/86 
f 86/85/86 87/86/87 85/84/85 
f 87/86/87 86/85/86 88/87/88 
f 88/87/88 89/88/89 87/86/87 
f 63/62/63 62/61/62 79/78/79 
f 79/78/79 78/77/78 63/62/63 
s off
f 90/89/90 91/90/90 74/73/90 
s 1
f 91/90/91 75/74/75 74/73/74 
s 7
f 92/91/92 93/92/93 94/93/94 
f 94/93/94 95/94/95 92/91/92 
f 96/95/96 97/96/97 98/97/98 
f 98/97/98 99/98/99 96/95/96 
f 99/98/99 98/97/98 94/93/94 
f 94/93/94 93/92/93 99/98/99 
f 100/99/100 101/100/101 102/101/102 
f 102/101/102 103/102/103 100/99/100 
f 103/102/103 102/101/102 97/96/97 
f 97/96/97 96/95/96 103/102/103 
f 104/103/104 105/104/105 106/105/106 
f 106/105/106 107/106/107 104/103/104 
f 107/106/107 106/105/106 101/100/101 
f 101/100/101 100/99/100 107/106/107 
f 108/107/108 109/108/108 110/109/109 
f 110/109/109 111/110/109 108/107/108 
f 111/110/109 110/109/109 105/104/105 
f 105/104/105 104/103/104 111/110/109 
f 112/111/110 113/112/110 114/113/111 
f 114/113/111 115/114/111 112/111/110 
f 115/114/111 114/113/111 109/108/108 
f 109/108/108 108/107/108 115/114/111 
f 116/115/112 117/116/113 118/117/114 
s off
f 117/116/115 119/118/115 118/117/115 
s 7
f 117/116/113 116/115/112 113/112/110 
f 113/112/110 112/111/110 117/116/113 
# 56 faces

