# 3ds Max Wavefront OBJ Exporter v0.97b - (c)2007 guruware
# File Created: 04.12.2015 16:12:38

mtllib P159_325B_R.mtl

#
# object P159_325B_R_DTaSI_P159_325B_R
#

v  -52.5559 95.3188 79.1128
v  -37.8548 95.0719 79.1637
v  -48.4676 105.7368 73.5141
v  -38.0998 100.3922 76.3401
v  -38.3449 105.7126 73.5165
v  -37.2949 82.8788 85.5610
v  -52.5571 83.3177 85.4496
v  -68.9035 95.1314 79.4323
v  -64.8159 105.2841 73.9111
v  -56.6417 105.5105 73.7126
v  -100.9170 84.8751 85.8851
v  -111.5203 85.1520 86.1209
v  -101.1590 71.6211 92.1262
v  -112.0841 71.7065 92.3677
v  -100.7595 94.2656 80.8234
v  -104.0322 102.1568 76.6427
v  -111.1796 93.5549 81.5323
v  -110.8618 101.3944 77.2514
v  -85.2561 71.4130 91.8787
v  -81.1739 61.2013 96.6423
v  -68.9060 71.0681 91.7523
v  -72.9973 60.8879 96.7198
v  -64.8207 60.5744 96.7973
v  -89.3977 61.4858 96.5685
v  -97.6214 61.7702 96.4947
v  -85.2220 84.6431 85.4710
v  -68.9054 84.0022 85.3365
v  -36.7111 69.8814 91.8424
v  -52.5571 70.5591 91.7504
v  -36.2294 59.0688 96.8868
v  -48.4700 59.7684 96.8675
v  -56.6454 60.1714 96.8324
v  -105.0525 62.0510 96.4753
v  -112.4835 62.3317 96.4560
v  -85.2166 94.8395 80.0341
v  -97.2027 102.9193 76.0339
v  -89.1822 103.5741 75.4457
v  -72.9889 104.7565 74.3843
v  -120.4108 85.2760 86.2098
v  -120.2099 71.5903 92.5783
v  -120.0768 62.5738 96.4463
v  -48.4700 105.6206 73.3011
v  -56.6430 105.4524 73.6061
v  -64.8183 105.1680 73.6981
v  -56.6442 105.3943 73.4996
v  -72.9925 104.6403 74.1713
v  -81.1618 104.2288 74.8575
v  -81.1666 104.1126 74.6445
v  -89.1859 103.5147 75.3392
v  -97.2099 102.8007 75.8209
v  -89.1883 103.4566 75.2327
v  -110.8642 101.2758 77.0408
v  -104.0371 102.0382 76.4309
v  -115.6363 93.3352 81.7306
v  -120.4156 85.1598 85.9992
v  -115.6387 93.2771 81.6253
v  -115.6399 93.2178 81.5200
v  -120.3866 83.6107 87.1200
v  -120.3914 83.5018 86.9021
v  -120.2147 71.4935 92.3580
v  -120.0792 62.4721 96.2284
v  -112.4859 62.2252 96.2381
v  -105.0537 61.9965 96.3676
v  -97.6239 61.6612 96.2793
v  -105.0549 61.9432 96.2587
v  -89.3989 61.4313 96.4608
v  -89.4001 61.3768 96.3531
v  -64.8256 60.4655 96.5818
v  -73.0010 60.7790 96.5044
v  -81.1763 61.0924 96.4269
v  -48.4773 59.6619 96.6496
v  -56.6514 60.0637 96.6157
v  -56.6490 60.1182 96.7234
v  -36.2318 58.9624 96.6690
v  -36.7159 69.7773 91.6246
v  -37.0402 77.0498 88.1087
v  -37.2954 82.7705 85.3432
v  -37.8548 94.9594 78.9482
v  -38.3449 105.5964 73.3035
# 79 vertices

vn 0.0085 0.4694 0.8830
vn 0.0052 0.4677 0.8839
vn 0.0054 0.4711 0.8821
vn 0.0009 0.4688 0.8833
vn 0.0086 0.4509 0.8925
vn 0.0098 0.4544 0.8907
vn 0.0176 0.4707 0.8821
vn 0.0135 0.4727 0.8811
vn 0.0084 0.4708 0.8822
vn 0.0284 0.4476 0.8938
vn 0.0232 0.4433 0.8961
vn 0.0209 0.4196 0.9075
vn 0.0199 0.4135 0.9103
vn 0.0278 0.4743 0.8799
vn 0.0260 0.4769 0.8786
vn 0.0245 0.4771 0.8785
vn 0.0235 0.4784 0.8778
vn 0.0203 0.4309 0.9022
vn 0.0120 0.4286 0.9034
vn 0.0141 0.4402 0.8978
vn 0.0082 0.4359 0.9000
vn 0.0129 0.4364 0.8997
vn 0.0135 0.4196 0.9076
vn 0.0085 0.4079 0.9130
vn 0.0272 0.4513 0.8920
vn 0.0173 0.4545 0.8906
vn 0.0153 0.4324 0.9015
vn 0.0128 0.4383 0.8987
vn 0.0228 0.4235 0.9056
vn 0.0169 0.4305 0.9025
vn 0.0175 0.4338 0.9008
vn 0.0170 0.4053 0.9140
vn 0.0136 0.3979 0.9173
vn 0.0258 0.4719 0.8813
vn 0.0264 0.4754 0.8794
vn 0.0258 0.4741 0.8801
vn 0.0206 0.4712 0.8818
vn 0.0156 0.4393 0.8982
vn 0.0167 0.4123 0.9109
vn 0.0114 0.3944 0.9189
vn -0.0148 0.8778 -0.4787
vn -0.0359 0.8775 -0.4782
vn -0.0600 0.8767 -0.4774
vn -0.0602 0.8766 -0.4774
vn -0.0841 0.8754 -0.4761
vn -0.0950 0.8747 -0.4752
vn -0.1063 0.8702 -0.4811
vn -0.1063 0.8720 -0.4778
vn -0.1216 0.8690 -0.4797
vn -0.1217 0.8689 -0.4797
vn -0.1062 0.8739 -0.4743
vn -0.1396 0.8635 -0.4847
vn -0.1396 0.8653 -0.4814
vn -0.1396 0.8635 -0.4846
vn -0.9191 0.3535 -0.1739
vn -0.8879 0.4111 -0.2066
vn -0.9196 0.3524 -0.1733
vn -0.8879 0.4081 -0.2123
vn -0.8879 0.4051 -0.2179
vn -0.8879 0.4051 -0.2180
vn -0.9997 -0.0036 0.0240
vn -0.9997 -0.0042 0.0238
vn -0.9997 -0.0041 0.0238
vn -0.9999 -0.0086 0.0150
vn -0.9998 -0.0085 0.0151
vn -0.0325 -0.8978 0.4392
vn -0.0325 -0.8979 0.4391
vn -0.0294 -0.9055 0.4233
vn -0.0294 -0.9057 0.4230
vn -0.0349 -0.8917 0.4512
vn -0.0351 -0.8947 0.4452
vn -0.0349 -0.8917 0.4513
vn -0.0353 -0.8977 0.4392
vn -0.0349 -0.8917 0.4514
vn -0.0367 -0.8916 0.4513
vn -0.0421 -0.8913 0.4515
vn -0.0385 -0.8915 0.4514
vn -0.0420 -0.8913 0.4515
vn -0.0461 -0.8968 0.4401
vn -0.0496 -0.8966 0.4401
vn -0.0457 -0.8911 0.4515
vn -0.0459 -0.8940 0.4458
vn -0.0520 -0.8970 0.4390
vn 0.9990 0.0277 -0.0353
vn 0.9991 0.0321 -0.0270
vn 0.9990 0.0277 -0.0354
vn 0.9991 0.0322 -0.0269
vn 0.0000 0.9363 0.3511
vn 0.9992 0.0353 -0.0200
vn 0.9992 0.0360 -0.0188
vn 0.9992 0.0353 -0.0199
vn 0.9992 0.0357 -0.0195
vn 0.9992 0.0359 -0.0192
vn 0.9992 0.0357 -0.0194
vn 0.0022 0.8779 -0.4788
vn 0.0155 0.4787 0.8778
vn 0.0238 0.4739 0.8803
# 97 vertex normals

vt 0.5746 0.8407 0.0000
vt 0.5264 0.8398 0.0000
vt 0.5627 0.8015 0.0000
vt 0.5279 0.8201 0.0000
vt 0.5295 0.8004 0.0000
vt 0.5228 0.8848 0.0000
vt 0.5728 0.8851 0.0000
vt 0.6281 0.8436 0.0000
vt 0.6162 0.8053 0.0000
vt 0.5894 0.8034 0.0000
vt 0.7313 0.8866 0.0000
vt 0.7661 0.8873 0.0000
vt 0.7304 0.9347 0.0000
vt 0.7661 0.9360 0.0000
vt 0.7322 0.8517 0.0000
vt 0.7441 0.8228 0.0000
vt 0.7662 0.8560 0.0000
vt 0.7663 0.8267 0.0000
vt 0.6783 0.9332 0.0000
vt 0.6635 0.9697 0.0000
vt 0.6247 0.9322 0.0000
vt 0.6367 0.9698 0.0000
vt 0.6099 0.9699 0.0000
vt 0.6905 0.9697 0.0000
vt 0.7175 0.9697 0.0000
vt 0.6800 0.8850 0.0000
vt 0.6265 0.8848 0.0000
vt 0.5191 0.9321 0.0000
vt 0.5711 0.9318 0.0000
vt 0.5161 0.9712 0.0000
vt 0.5562 0.9705 0.0000
vt 0.5831 0.9702 0.0000
vt 0.7419 0.9697 0.0000
vt 0.7663 0.9697 0.0000
vt 0.6814 0.8471 0.0000
vt 0.7218 0.8190 0.0000
vt 0.6957 0.8153 0.0000
vt 0.6429 0.8085 0.0000
vt 0.7952 0.8881 0.0000
vt 0.7927 0.9376 0.0000
vt 0.7912 0.9698 0.0000
vt 0.5627 0.8016 0.0000
vt 0.5895 0.8035 0.0000
vt 0.6162 0.8054 0.0000
vt 0.6695 0.8116 0.0000
vt 0.6696 0.8117 0.0000
vt 0.7219 0.8190 0.0000
vt 0.6957 0.8154 0.0000
vt 0.7663 0.8268 0.0000
vt 0.7441 0.8229 0.0000
vt 0.7807 0.8574 0.0000
vt 0.7952 0.8882 0.0000
vt 0.7808 0.8575 0.0000
vt 0.7949 0.8943 0.0000
vt 0.7928 0.9376 0.0000
vt 0.7176 0.9697 0.0000
vt 0.6906 0.9697 0.0000
vt 0.6368 0.9698 0.0000
vt 0.6636 0.9697 0.0000
vt 0.5563 0.9705 0.0000
vt 0.5212 0.9057 0.0000
vt 0.5228 0.8849 0.0000
vt 0.5264 0.8399 0.0000
vt 0.5295 0.8005 0.0000
# 64 texture coords

g P159_325B_R_DTaSI_P159_325B_R
usemtl windowglass_1SG
s 1
f 1/1/1 2/2/2 3/3/3 
f 2/2/2 4/4/4 3/3/3 
f 4/4/4 5/5/4 3/3/3 
f 6/6/5 2/2/2 7/7/6 
f 7/7/6 2/2/2 1/1/1 
f 8/8/7 1/1/1 9/9/8 
f 9/9/8 1/1/1 10/10/9 
f 11/11/10 12/12/11 13/13/12 
f 13/13/12 12/12/11 14/14/13 
f 15/15/14 16/16/15 17/17/16 
f 17/17/16 16/16/15 18/18/17 
f 19/19/18 20/20/19 21/21/20 
f 21/21/20 20/20/19 22/22/21 
f 23/23/22 21/21/20 22/22/21 
f 19/19/18 13/13/12 24/24/23 
f 24/24/23 13/13/12 25/25/24 
f 19/19/18 24/24/23 20/20/19 
f 13/13/12 19/19/18 11/11/10 
f 11/11/10 19/19/18 26/26/25 
f 21/21/20 27/27/26 19/19/18 
f 19/19/18 27/27/26 26/26/25 
f 28/28/27 6/6/5 29/29/28 
f 29/29/28 6/6/5 7/7/6 
f 30/30/29 28/28/27 31/31/30 
f 31/31/30 28/28/27 29/29/28 
f 21/21/20 23/23/22 29/29/28 
f 29/29/28 23/23/22 32/32/31 
f 29/29/28 32/32/31 31/31/30 
f 13/13/12 14/14/13 33/33/32 
f 33/33/32 14/14/13 34/34/33 
f 15/15/14 35/35/34 36/36/35 
f 36/36/35 35/35/34 37/37/36 
f 8/8/7 35/35/34 27/27/26 
f 27/27/26 35/35/34 26/26/25 
f 38/38/37 8/8/7 9/9/8 
f 12/12/11 39/39/38 14/14/13 
f 14/14/13 39/39/38 40/40/39 
f 14/14/13 40/40/39 34/34/33 
f 34/34/33 40/40/39 41/41/40 
s 8
f 3/3/41 42/42/41 10/10/42 
f 10/10/42 42/42/41 43/43/42 
f 44/44/43 9/9/44 45/43/42 
f 45/43/42 9/9/44 43/43/42 
f 38/38/45 46/38/45 47/45/46 
f 47/45/46 46/38/45 48/46/46 
f 9/9/44 44/44/43 38/38/45 
f 38/38/45 44/44/43 46/38/45 
f 37/37/47 49/37/48 36/36/49 
f 36/36/49 49/37/48 50/47/50 
f 48/46/46 51/48/51 47/45/46 
f 47/45/46 51/48/51 49/37/48 
f 18/18/52 16/16/53 52/49/54 
f 52/49/54 16/16/53 53/50/53 
s 13
f 39/39/55 54/51/56 55/52/57 
f 55/52/57 54/51/56 56/53/58 
f 57/53/59 56/53/58 52/49/60 
f 52/49/60 56/53/58 18/18/60 
f 58/54/61 39/39/55 59/54/61 
f 59/54/61 39/39/55 55/52/57 
f 60/55/62 40/40/63 59/54/61 
f 59/54/61 40/40/63 58/54/61 
f 61/41/64 41/41/65 60/55/62 
f 60/55/62 41/41/65 40/40/63 
s 15
f 62/34/66 34/34/67 61/41/68 
f 61/41/68 34/34/67 41/41/69 
f 33/33/70 63/33/71 25/25/72 
f 25/25/72 63/33/71 64/56/72 
f 65/33/73 63/33/71 62/34/66 
f 62/34/66 63/33/71 34/34/67 
f 24/24/74 66/24/72 20/20/75 
f 64/56/72 67/57/72 25/25/72 
f 25/25/72 67/57/72 66/24/72 
f 23/23/76 22/22/77 68/23/78 
f 68/23/78 22/22/77 69/58/77 
f 69/58/77 22/22/77 70/59/75 
f 70/59/75 22/22/77 20/20/75 
f 32/32/79 71/60/80 31/31/80 
f 68/23/78 72/32/81 23/23/76 
f 23/23/76 72/32/81 73/32/82 
f 30/30/83 31/31/80 74/30/83 
f 74/30/83 31/31/80 71/60/80 
s 20
f 28/28/84 30/30/85 75/28/86 
f 75/28/86 30/30/85 74/30/87 
f 75/28/86 76/61/88 77/62/89 
f 77/62/89 78/63/90 6/6/91 
f 6/6/91 78/63/90 2/2/90 
f 5/5/92 4/4/93 79/64/94 
f 79/64/94 4/4/93 78/63/90 
s 8
f 3/3/41 5/5/95 42/42/41 
f 42/42/41 5/5/95 79/64/95 
s 1
f 17/17/16 54/51/96 12/12/11 
f 12/12/11 54/51/96 39/39/38 
f 15/15/14 17/17/16 11/11/10 
f 11/11/10 17/17/16 12/12/11 
f 35/35/34 8/8/7 47/45/97 
f 47/45/97 8/8/7 38/38/37 
f 47/45/97 37/37/36 35/35/34 
f 11/11/10 26/26/25 15/15/14 
f 15/15/14 26/26/25 35/35/34 
f 3/3/3 10/10/9 1/1/1 
f 7/7/6 1/1/1 27/27/26 
f 27/27/26 1/1/1 8/8/7 
s 13
f 18/18/60 56/53/58 54/51/56 
s 20
f 78/63/90 4/4/93 2/2/90 
s 1
f 29/29/28 7/7/6 21/21/20 
f 21/21/20 7/7/6 27/27/26 
s 13
f 55/52/57 56/53/58 57/53/59 
s 20
f 6/6/91 28/28/84 77/62/89 
f 77/62/89 28/28/84 75/28/86 
s 15
f 23/23/76 73/32/82 32/32/79 
f 32/32/79 73/32/82 71/60/80 
f 70/59/75 20/20/75 67/57/72 
f 67/57/72 20/20/75 66/24/72 
s 8
f 10/10/42 43/43/42 9/9/44 
f 45/43/42 43/43/42 42/42/41 
f 47/45/46 49/37/48 37/37/47 
s 1
f 54/51/96 17/17/16 18/18/17 
s 15
f 71/60/80 73/32/82 72/32/81 
f 25/25/72 66/24/72 24/24/74 
f 34/34/67 63/33/71 33/33/70 
f 64/56/72 63/33/71 65/33/73 
s 8
f 50/47/50 49/37/48 51/48/51 
s 1
f 13/13/12 33/33/32 25/25/24 
f 15/15/14 36/36/35 16/16/15 
s 8
f 53/50/53 16/16/53 50/47/50 
f 50/47/50 16/16/53 36/36/49 
# 126 faces

