# 3ds Max Wavefront OBJ Exporter v0.97b - (c)2007 guruware
# File Created: 04.12.2015 16:11:15

mtllib P159_265B_L.mtl

#
# object P159_265B_L_DTaSI_P159_265B_L
#

v  71.7130 70.0778 -89.8452
v  76.8000 67.9607 -90.7520
v  69.3657 65.1840 -92.4373
v  76.7899 62.5769 -93.2859
v  59.3233 68.0135 -91.3021
v  62.0112 74.4932 -87.8683
v  46.3212 71.6097 -89.7771
v  33.6765 74.6849 -88.4699
v  48.9073 80.0449 -85.2952
v  35.4868 85.0020 -83.0752
v  20.1417 77.3431 -87.4682
v  5.3063 79.5405 -86.7303
v  21.5773 88.9611 -81.4926
v  6.0014 91.8202 -80.4940
v  67.6657 57.8873 -95.5437
v  76.7758 56.3918 -95.9670
v  67.5414 50.2097 -98.4941
v  76.7613 49.3359 -98.6683
v  29.6697 54.2036 -97.3612
v  22.9443 54.8208 -97.2414
v  32.7057 63.6098 -93.4285
v  19.5816 65.4161 -92.8342
v  5.0759 67.0185 -92.4161
v  8.7902 56.0384 -97.0563
v  16.2188 55.4381 -97.1216
v  -15.0037 57.7739 -96.9256
v  -10.9124 68.3510 -92.1238
v  -6.8211 57.2063 -96.9582
v  -22.5013 94.4208 -79.3839
v  -10.6585 93.6344 -79.8099
v  -19.8741 81.7061 -85.8886
v  -10.8479 81.1299 -86.1986
v  -17.1894 68.7946 -92.0336
v  75.4033 73.2121 -87.9042
v  75.4106 73.3282 -88.1148
v  69.0906 77.0583 -86.0053
v  69.0991 77.1757 -86.2171
v  62.7778 80.9045 -84.1064
v  62.7875 81.0231 -84.3194
v  56.2339 84.5002 -82.3830
v  56.2436 84.6176 -82.5948
v  49.6900 88.0959 -80.6595
v  49.6997 88.2121 -80.8701
v  42.6140 91.5403 -79.1071
v  42.6225 91.6564 -79.3189
v  35.4354 94.7282 -77.6436
v  35.4427 94.8444 -77.8566
v  27.5010 97.4620 -76.5607
v  27.5083 97.5770 -76.7737
v  19.3800 99.9057 -75.6248
v  19.3873 100.0195 -75.8378
v  10.8970 101.4742 -75.0925
v  10.9031 101.5867 -75.3067
v  -14.7786 104.5895 -73.8845
v  -6.1817 103.7977 -74.2227
v  -14.7786 104.7008 -74.0975
v  -6.1793 103.9090 -74.4369
v  2.4169 102.9266 -74.6155
v  2.4218 103.0379 -74.8309
v  -24.7391 105.1486 -73.5553
v  -24.7391 105.2624 -73.7707
v  -17.1943 68.6953 -91.8134
v  -15.0092 57.6720 -96.7015
v  16.2140 55.3412 -96.8989
v  1.3549 56.5398 -96.7654
v  1.3615 56.6386 -96.9909
v  8.7841 55.9415 -96.8348
v  29.6649 54.1092 -97.1385
v  22.9394 54.7252 -97.0187
v  35.7698 53.4924 -97.3369
v  35.7419 53.5899 -97.5585
v  47.8790 52.2330 -97.7418
v  41.8111 52.8820 -97.5331
v  47.8841 52.3260 -97.9657
v  41.8136 52.9764 -97.7558
v  67.5390 50.1226 -98.2690
v  60.7627 50.8511 -98.1104
v  60.7664 50.9407 -98.3355
v  76.7564 49.2463 -98.4432
v  76.7702 56.2990 -95.7451
v  76.7994 72.3114 -88.3332
v  76.8099 72.4208 -88.5487
v  44.9997 61.5980 -94.2239
v  57.8349 59.3789 -95.0649
v  53.9913 51.6717 -98.1770
v  53.9864 51.5797 -97.9519
v  -6.8272 57.1047 -96.7277
v  76.7905 67.8557 -90.5352
v  76.7816 62.4777 -93.0664
# 89 vertices

vn 0.0264 0.4576 -0.8888
vn 0.0364 0.4380 -0.8982
vn 0.0241 0.4154 -0.9093
vn 0.0323 0.4025 -0.9149
vn 0.0153 0.4266 -0.9043
vn 0.0262 0.4653 -0.8848
vn 0.0133 0.4335 -0.9011
vn 0.0167 0.4346 -0.9005
vn 0.0251 0.4668 -0.8840
vn 0.0272 0.4630 -0.8860
vn 0.0203 0.4336 -0.9009
vn 0.0177 0.4342 -0.9006
vn 0.0283 0.4573 -0.8888
vn 0.0201 0.4542 -0.8907
vn 0.0166 0.3751 -0.9268
vn 0.0186 0.3742 -0.9272
vn 0.0162 0.3582 -0.9335
vn 0.0162 0.3575 -0.9338
vn 0.0144 0.3817 -0.9242
vn 0.0152 0.3865 -0.9222
vn 0.0095 0.3976 -0.9175
vn 0.0161 0.4013 -0.9158
vn 0.0179 0.4064 -0.9135
vn 0.0202 0.3935 -0.9191
vn 0.0216 0.3885 -0.9212
vn 0.0224 0.4061 -0.9136
vn 0.0162 0.4124 -0.9109
vn 0.0203 0.4024 -0.9152
vn -0.0020 0.4570 -0.8895
vn 0.0064 0.4560 -0.8899
vn -0.0024 0.4450 -0.8955
vn 0.0081 0.4393 -0.8983
vn 0.0107 0.4187 -0.9081
vn 0.5647 0.7142 0.4135
vn 0.5647 0.7144 0.4133
vn 0.5612 0.7142 0.4183
vn 0.5400 0.7247 0.4280
vn 0.5401 0.7247 0.4280
vn 0.5190 0.7373 0.4324
vn 0.4937 0.7517 0.4373
vn 0.4535 0.7736 0.4425
vn 0.4535 0.7737 0.4425
vn 0.3907 0.8025 0.4510
vn 0.3902 0.8027 0.4511
vn 0.3246 0.8276 0.4579
vn 0.3243 0.8278 0.4578
vn 0.2468 0.8512 0.4631
vn 0.2464 0.8514 0.4631
vn 0.1820 0.8683 0.4615
vn 0.1820 0.8684 0.4613
vn 0.0810 0.8833 0.4617
vn 0.1048 0.8819 0.4596
vn 0.0809 0.8833 0.4617
vn 0.1049 0.8819 0.4596
vn 0.1426 0.8780 0.4570
vn 0.1427 0.8780 0.4570
vn 0.0649 0.8825 0.4659
vn 0.0649 0.8825 0.4658
vn -0.9836 -0.1597 -0.0843
vn -0.9832 -0.1574 -0.0925
vn -0.9827 -0.1598 -0.0936
vn -0.9837 -0.1533 -0.0939
vn -0.9837 -0.1534 -0.0939
vn -0.0838 -0.9131 -0.3989
vn -0.0838 -0.9132 -0.3989
vn -0.0772 -0.9127 -0.4012
vn -0.0772 -0.9123 -0.4021
vn -0.0976 -0.9155 -0.3902
vn -0.0909 -0.9144 -0.3946
vn -0.0977 -0.9155 -0.3903
vn -0.0909 -0.9143 -0.3947
vn -0.1051 -0.9150 -0.3895
vn -0.1113 -0.9169 -0.3834
vn -0.1083 -0.9149 -0.3888
vn -0.1083 -0.9149 -0.3889
vn -0.1004 -0.9275 -0.3602
vn -0.1081 -0.9232 -0.3689
vn -0.1081 -0.9231 -0.3691
vn -0.0949 -0.9242 -0.3699
vn -0.0949 -0.9243 -0.3697
vn 0.9997 -0.0101 0.0210
vn 0.9998 -0.0089 0.0180
vn 0.5829 0.7119 0.3917
vn 0.5831 0.7126 0.3901
vn 0.0057 0.3930 -0.9195
vn 0.0092 0.3848 -0.9229
vn 0.0054 0.3812 -0.9245
vn 0.0081 0.3765 -0.9264
vn 0.0119 0.3693 -0.9292
vn 0.0058 0.3750 -0.9270
vn 0.0142 0.3637 -0.9314
vn 0.0137 0.4577 -0.8890
vn 0.0228 0.4456 -0.8949
vn 0.0263 0.4664 -0.8842
vn 0.0284 0.4743 -0.8799
vn 0.0276 0.4748 -0.8797
vn 0.0289 0.4694 -0.8825
vn 0.0343 0.4735 -0.8801
vn 0.0369 0.4604 -0.8870
vn 0.0326 0.4664 -0.8839
vn 0.0300 0.4594 -0.8877
vn 0.0287 0.4576 -0.8887
vn 0.0007 0.4594 -0.8882
vn 0.0066 0.4611 -0.8873
vn -0.0032 0.4592 -0.8883
vn 0.0239 0.3960 -0.9179
vn 0.0156 0.4563 -0.8897
vn -0.1097 -0.9193 -0.3779
vn -0.1097 -0.9193 -0.3780
vn -0.0649 -0.9126 -0.4036
vn -0.0649 -0.9126 -0.4037
vn -0.0643 -0.9079 -0.4142
vn -0.0643 -0.9078 -0.4144
vn -0.0649 -0.9132 -0.4022
vn 0.9992 -0.0187 0.0349
vn 0.9992 -0.0187 0.0348
vn 0.9994 -0.0158 0.0306
vn 0.9994 -0.0157 0.0304
vn 0.9997 -0.0110 0.0210
vn 0.9997 -0.0109 0.0207
vn 0.9991 -0.0210 0.0380
vn 0.9991 -0.0210 0.0379
# 122 vertex normals

vt 0.1943 0.0904 0.0000
vt 0.1772 0.0838 0.0000
vt 0.2008 0.0719 0.0000
vt 0.1761 0.0643 0.0000
vt 0.2343 0.0800 0.0000
vt 0.2269 0.1045 0.0000
vt 0.2775 0.0904 0.0000
vt 0.3195 0.0990 0.0000
vt 0.2709 0.1221 0.0000
vt 0.3159 0.1374 0.0000
vt 0.3643 0.1058 0.0000
vt 0.4133 0.1107 0.0000
vt 0.3622 0.1488 0.0000
vt 0.4137 0.1558 0.0000
vt 0.2050 0.0456 0.0000
vt 0.1749 0.0422 0.0000
vt 0.2039 0.0186 0.0000
vt 0.1736 0.0175 0.0000
vt 0.3285 0.0251 0.0000
vt 0.3506 0.0259 0.0000
vt 0.3204 0.0591 0.0000
vt 0.3637 0.0629 0.0000
vt 0.4114 0.0656 0.0000
vt 0.3971 0.0272 0.0000
vt 0.3727 0.0267 0.0000
vt 0.4752 0.0282 0.0000
vt 0.4640 0.0670 0.0000
vt 0.4483 0.0279 0.0000
vt 0.5075 0.1598 0.0000
vt 0.4685 0.1591 0.0000
vt 0.4961 0.1136 0.0000
vt 0.4664 0.1131 0.0000
vt 0.4846 0.0673 0.0000
vt 0.1829 0.1031 0.0000
vt 0.2044 0.1159 0.0000
vt 0.2044 0.1160 0.0000
vt 0.2259 0.1288 0.0000
vt 0.2258 0.1289 0.0000
vt 0.2481 0.1406 0.0000
vt 0.2480 0.1407 0.0000
vt 0.2703 0.1525 0.0000
vt 0.2702 0.1526 0.0000
vt 0.2941 0.1636 0.0000
vt 0.3183 0.1737 0.0000
vt 0.3182 0.1738 0.0000
vt 0.3448 0.1819 0.0000
vt 0.3447 0.1820 0.0000
vt 0.3718 0.1890 0.0000
vt 0.3717 0.1890 0.0000
vt 0.3999 0.1928 0.0000
vt 0.3998 0.1929 0.0000
vt 0.4845 0.1990 0.0000
vt 0.4562 0.1978 0.0000
vt 0.4844 0.1990 0.0000
vt 0.4561 0.1978 0.0000
vt 0.4279 0.1962 0.0000
vt 0.4278 0.1963 0.0000
vt 0.5172 0.1993 0.0000
vt 0.3728 0.0267 0.0000
vt 0.4216 0.0277 0.0000
vt 0.4215 0.0277 0.0000
vt 0.3972 0.0272 0.0000
vt 0.3286 0.0251 0.0000
vt 0.3507 0.0259 0.0000
vt 0.3085 0.0242 0.0000
vt 0.2686 0.0221 0.0000
vt 0.2886 0.0232 0.0000
vt 0.2039 0.0187 0.0000
vt 0.2262 0.0198 0.0000
vt 0.1737 0.0175 0.0000
vt 0.1782 0.1000 0.0000
vt 0.1781 0.1001 0.0000
vt 0.2798 0.0543 0.0000
vt 0.2374 0.0489 0.0000
vt 0.2485 0.0210 0.0000
vt 0.4484 0.0279 0.0000
vt 0.1762 0.0643 0.0000
# 77 texture coords

g P159_265B_L_DTaSI_P159_265B_L
usemtl windowglass_1SG
s 1
f 1/1/1 2/2/2 3/3/3 
f 2/2/2 4/4/4 3/3/3 
f 3/3/3 5/5/5 1/1/1 
f 5/5/5 6/6/6 1/1/1 
f 7/7/7 8/8/8 9/9/9 
f 8/8/8 10/10/10 9/9/9 
f 11/11/11 12/12/12 13/13/13 
f 12/12/12 14/14/14 13/13/13 
f 3/3/3 4/4/4 15/15/15 
f 4/4/4 16/16/16 15/15/15 
f 15/15/15 16/16/16 17/17/17 
f 16/16/16 18/18/18 17/17/17 
f 19/19/19 20/20/20 21/21/21 
f 20/20/20 22/22/22 21/21/21 
f 23/23/23 22/22/22 24/24/24 
f 22/22/22 25/25/25 24/24/24 
f 22/22/22 23/23/23 11/11/11 
f 23/23/23 12/12/12 11/11/11 
f 26/26/26 27/27/27 28/28/28 
f 29/29/29 30/30/30 31/31/31 
f 30/30/30 32/32/32 31/31/31 
f 33/33/33 27/27/27 26/26/26 
s 8
f 34/34/34 35/34/35 36/35/36 
f 35/34/35 37/36/36 36/35/36 
f 38/37/37 39/38/38 40/39/39 
f 39/38/38 41/40/39 40/39/39 
f 42/41/40 43/42/40 44/43/41 
f 43/42/40 45/43/42 44/43/41 
f 46/44/43 47/45/44 48/46/45 
f 47/45/44 49/47/46 48/46/45 
f 50/48/47 51/49/48 52/50/49 
f 51/49/48 53/51/50 52/50/49 
f 54/52/51 55/53/52 56/54/53 
f 55/53/52 57/55/54 56/54/53 
f 58/56/55 59/57/56 55/53/52 
f 59/57/56 57/55/54 55/53/52 
f 60/58/57 54/52/51 61/58/58 
f 54/52/51 56/54/53 61/58/58 
s off
f 60/58/59 61/58/59 31/31/59 
s 15
f 62/33/60 31/31/61 33/33/60 
f 63/26/62 62/33/60 26/26/63 
f 62/33/60 33/33/60 26/26/63 
s 16
f 25/25/64 64/59/65 24/24/66 
f 65/60/67 66/61/67 67/62/66 
f 66/61/67 24/24/66 67/62/66 
f 68/63/68 69/64/69 19/19/70 
f 69/64/69 20/20/71 19/19/70 
f 70/65/72 68/63/68 71/65/72 
f 68/63/68 19/19/70 71/65/72 
f 72/66/73 73/67/74 74/66/73 
f 73/67/74 75/67/75 74/66/73 
f 76/68/76 77/69/77 17/17/76 
f 77/69/77 78/69/78 17/17/76 
f 79/70/79 76/68/76 18/18/80 
f 76/68/76 17/17/76 18/18/80 
s 21
f 16/16/81 80/16/81 18/18/82 
f 80/16/81 79/70/82 18/18/82 
s 8
f 34/34/34 81/71/83 35/34/35 
f 81/71/83 82/72/84 35/34/35 
s 1
f 13/13/13 10/10/10 11/11/11 
f 10/10/10 8/8/8 11/11/11 
f 9/9/9 6/6/6 7/7/7 
f 6/6/6 5/5/5 7/7/7 
f 31/31/31 32/32/32 33/33/33 
f 32/32/32 27/27/27 33/33/33 
s 16
f 64/59/65 67/62/66 24/24/66 
s 8
f 58/56/55 52/50/49 53/51/50 
f 46/44/43 44/43/41 45/43/42 
f 42/41/40 40/39/39 41/40/39 
s 1
f 7/7/7 5/5/5 83/73/85 
f 5/5/5 84/74/86 83/73/85 
f 15/15/15 84/74/86 3/3/3 
f 84/74/86 5/5/5 3/3/3 
f 21/21/21 83/73/85 71/65/87 
f 83/73/85 75/67/88 71/65/87 
f 85/75/89 74/66/90 84/74/86 
f 74/66/90 83/73/85 84/74/86 
f 84/74/86 15/15/15 78/69/91 
f 15/15/15 17/17/17 78/69/91 
f 21/21/21 22/22/22 8/8/8 
f 22/22/22 11/11/11 8/8/8 
f 83/73/85 21/21/21 7/7/7 
f 21/21/21 8/8/8 7/7/7 
f 1/1/1 35/34/92 82/72/93 
f 37/36/94 35/34/92 1/1/1 
f 9/9/9 41/40/95 6/6/6 
f 41/40/95 39/38/96 6/6/6 
f 10/10/10 45/43/97 9/9/9 
f 45/43/97 43/42/98 9/9/9 
f 49/47/99 47/45/100 13/13/13 
f 47/45/100 10/10/10 13/13/13 
f 13/13/13 14/14/14 51/49/101 
f 14/14/14 53/51/102 51/49/101 
f 30/30/30 56/54/103 57/55/104 
f 61/58/105 56/54/103 29/29/29 
f 56/54/103 30/30/30 29/29/29 
f 66/61/106 28/28/28 23/23/23 
f 28/28/28 27/27/27 23/23/23 
f 32/32/32 12/12/12 27/27/27 
f 12/12/12 23/23/23 27/27/27 
f 30/30/30 14/14/14 32/32/32 
f 14/14/14 12/12/12 32/32/32 
f 57/55/104 59/57/107 30/30/30 
f 59/57/107 14/14/14 30/30/30 
s 8
f 58/56/55 53/51/50 59/57/56 
s 1
f 14/14/14 59/57/107 53/51/102 
f 24/24/24 66/61/106 23/23/23 
s 8
f 43/42/40 42/41/40 41/40/39 
s 1
f 43/42/98 41/40/95 9/9/9 
f 75/67/88 83/73/85 74/66/90 
f 51/49/101 49/47/99 13/13/13 
f 25/25/25 22/22/22 20/20/20 
s 16
f 69/64/69 64/59/65 20/20/71 
f 64/59/65 25/25/64 20/20/71 
s 8
f 38/37/37 36/35/36 39/38/38 
f 36/35/36 37/36/36 39/38/38 
s 1
f 6/6/6 39/38/96 37/36/94 
f 78/69/91 85/75/89 84/74/86 
s 8
f 47/45/44 46/44/43 45/43/42 
s 1
f 10/10/10 47/45/100 45/43/97 
f 71/65/87 19/19/19 21/21/21 
s 8
f 48/46/45 49/47/46 50/48/47 
f 49/47/46 51/49/48 50/48/47 
s 16
f 77/69/77 86/75/108 78/69/78 
f 86/75/108 85/75/109 78/69/78 
s 23
f 28/28/110 87/76/111 26/26/112 
f 87/76/111 63/26/113 26/26/112 
f 66/61/114 65/60/114 28/28/110 
f 65/60/114 87/76/111 28/28/110 
s 16
f 73/67/74 70/65/72 75/67/75 
f 70/65/72 71/65/72 75/67/75 
f 85/75/109 86/75/108 74/66/73 
f 86/75/108 72/66/73 74/66/73 
s 24
f 2/2/115 88/2/116 4/4/117 
f 88/2/116 89/77/118 4/4/117 
f 4/4/117 89/77/118 16/16/119 
f 89/77/118 80/16/120 16/16/119 
f 82/72/121 81/71/122 2/2/115 
f 81/71/122 88/2/116 2/2/115 
s 1
f 2/2/2 1/1/1 82/72/93 
f 6/6/6 37/36/94 1/1/1 
# 141 faces

