# 3ds Max Wavefront OBJ Exporter v0.97b - (c)2007 guruware
# File Created: 04.12.2015 16:07:59

mtllib P159_38SG_L.mtl

#
# object P159_38SG_L_1_DTaSI_P159_38SG_L
#

v  -156.2590 70.8542 -92.7874
v  -155.2469 79.5215 -88.5806
v  -150.2911 70.9016 -92.7927
v  -148.8299 79.8377 -88.4977
v  -167.3659 70.7267 -92.7151
v  -164.6976 70.7873 -92.7799
v  -166.4421 70.0678 -93.0744
v  -164.7400 69.3051 -93.5129
v  -164.5205 75.3892 -90.5043
v  -167.1610 74.1875 -90.9702
v  -167.8799 73.5461 -91.2569
v  -168.2672 72.8465 -91.6002
v  -168.2672 72.0115 -92.0267
v  -167.8606 71.0796 -92.5172
v  -148.3816 82.5813 -87.1829
v  -139.2831 81.3293 -88.1110
v  -145.0741 70.9802 -92.8562
v  -145.8240 69.6394 -93.4688
v  -146.5598 68.5332 -93.9720
v  -150.9807 66.6887 -94.8241
v  -150.0986 66.7250 -94.8006
v  -148.8932 66.9598 -94.6795
v  -148.0339 67.3108 -94.5153
v  -147.2594 67.8142 -94.2947
v  -152.4490 66.6282 -94.8464
v  -156.7265 66.8638 -94.7306
v  -155.8111 66.7250 -94.7971
v  -158.7642 67.1728 -94.5703
v  -161.8940 68.0854 -94.1116
v  -136.7632 85.9803 -85.7313
v  -136.8244 86.7155 -85.3609
v  -137.1920 87.1138 -85.1510
v  -137.8047 87.2976 -85.0458
v  -138.5400 87.2363 -85.0631
# 34 vertices

vn -0.0055 0.4378 -0.8991
vn -0.0082 0.4361 -0.8998
vn -0.0098 0.4353 -0.9002
vn -0.0218 0.4331 -0.9011
vn -0.0324 0.4510 -0.8919
vn -0.0105 0.4433 -0.8963
vn -0.0318 0.4438 -0.8956
vn -0.0070 0.4434 -0.8963
vn -0.0107 0.4400 -0.8979
vn -0.0417 0.4464 -0.8938
vn -0.0457 0.4523 -0.8907
vn -0.0319 0.4546 -0.8901
vn -0.0320 0.4546 -0.8901
vn -0.0318 0.4546 -0.8901
vn -0.0253 0.4442 -0.8956
vn -0.0285 0.4482 -0.8935
vn -0.0247 0.4323 -0.9014
vn -0.0174 0.4236 -0.9057
vn -0.0027 0.4347 -0.9006
vn 0.0061 0.4335 -0.9011
vn 0.0020 0.4323 -0.9017
vn -0.0104 0.4272 -0.9041
vn -0.0174 0.4235 -0.9057
vn -0.0026 0.4361 -0.8999
vn -0.0036 0.4382 -0.8989
vn -0.0003 0.4376 -0.8992
vn -0.0042 0.4383 -0.8988
vn -0.0032 0.4394 -0.8983
vn -0.0241 0.4612 -0.8870
vn -0.0200 0.4496 -0.8930
vn -0.0203 0.4504 -0.8926
vn -0.0188 0.4474 -0.8941
vn -0.0156 0.4415 -0.8971
# 33 vertex normals

vt 0.9053 0.0531 0.0000
vt 0.9038 0.0850 0.0000
vt 0.8857 0.0543 0.0000
vt 0.8828 0.0872 0.0000
vt 0.9419 0.0507 0.0000
vt 0.9331 0.0513 0.0000
vt 0.9387 0.0484 0.0000
vt 0.9329 0.0459 0.0000
vt 0.9335 0.0683 0.0000
vt 0.9420 0.0635 0.0000
vt 0.9442 0.0611 0.0000
vt 0.9453 0.0584 0.0000
vt 0.9451 0.0553 0.0000
vt 0.9436 0.0520 0.0000
vt 0.8819 0.0974 0.0000
vt 0.8516 0.0940 0.0000
vt 0.8685 0.0555 0.0000
vt 0.8707 0.0505 0.0000
vt 0.8729 0.0463 0.0000
vt 0.8870 0.0388 0.0000
vt 0.8841 0.0391 0.0000
vt 0.8802 0.0402 0.0000
vt 0.8775 0.0416 0.0000
vt 0.8750 0.0436 0.0000
vt 0.8919 0.0383 0.0000
vt 0.9060 0.0384 0.0000
vt 0.9030 0.0380 0.0000
vt 0.9128 0.0391 0.0000
vt 0.9233 0.0419 0.0000
vt 0.8443 0.1117 0.0000
vt 0.8447 0.1144 0.0000
vt 0.8460 0.1158 0.0000
vt 0.8480 0.1164 0.0000
vt 0.8504 0.1160 0.0000
# 34 texture coords

g P159_38SG_L_1_DTaSI_P159_38SG_L
usemtl windowglass_1SG
s 1
f 1/1/1 2/2/2 3/3/3 
f 3/3/3 2/2/2 4/4/4 
f 5/5/5 6/6/6 7/7/7 
f 7/7/7 6/6/6 8/8/8 
f 9/9/9 6/6/6 10/10/10 
f 6/6/6 5/5/5 10/10/10 
f 10/10/10 5/5/5 11/11/11 
f 11/11/11 5/5/5 12/12/12 
f 12/12/12 5/5/5 13/13/13 
f 5/5/5 14/14/14 13/13/13 
f 2/2/2 1/1/1 9/9/9 
f 9/9/9 1/1/1 6/6/6 
f 15/15/15 4/4/4 2/2/2 
f 15/15/15 16/16/16 4/4/4 
f 3/3/3 4/4/4 17/17/17 
f 17/17/17 4/4/4 16/16/16 
f 17/17/17 18/18/18 3/3/3 
f 18/18/18 19/19/18 3/3/3 
f 20/20/19 3/3/3 21/21/20 
f 21/21/20 3/3/3 22/22/21 
f 22/22/21 3/3/3 23/23/22 
f 19/19/18 24/24/23 3/3/3 
f 3/3/3 24/24/23 23/23/22 
f 3/3/3 20/20/19 1/1/1 
f 20/20/19 25/25/24 1/1/1 
f 26/26/25 1/1/1 27/27/26 
f 27/27/26 1/1/1 25/25/24 
f 1/1/1 26/26/25 6/6/6 
f 26/26/25 28/28/27 6/6/6 
f 28/28/27 29/29/28 6/6/6 
f 29/29/28 8/8/8 6/6/6 
f 16/16/16 15/15/15 30/30/29 
f 30/30/29 15/15/15 31/31/30 
f 31/31/30 15/15/15 32/32/31 
f 32/32/31 15/15/15 33/33/32 
f 15/15/15 34/34/33 33/33/32 
# 36 faces

#
# object P159_38SG_L_P159_38SG_L_2_DTaSI
#

v  -145.0741 70.9802 -92.8562
v  -139.2831 81.3293 -88.1110
v  -142.6766 71.0163 -92.8854
v  -137.6023 81.5892 -88.0374
v  -146.3691 63.3090 -96.4187
v  -145.8240 69.6394 -93.4688
v  -146.5598 68.5332 -93.9720
v  -147.2594 67.8142 -94.2947
v  -148.0339 67.3108 -94.5153
v  -151.4888 63.5841 -96.3211
v  -148.8932 66.9598 -94.6795
v  -150.0986 66.7250 -94.8006
v  -150.9807 66.6887 -94.8241
v  -147.5989 60.8476 -97.6628
v  -151.9084 60.9894 -97.5799
v  -128.4968 86.5688 -85.6054
v  -130.9012 82.6120 -87.7093
v  -135.4959 85.7461 -85.8685
v  -137.7974 71.1044 -92.9681
v  -142.5788 63.0876 -96.4658
v  -144.0534 60.6505 -97.7937
v  -171.4889 65.8100 -95.0884
v  -174.6041 67.3543 -94.2339
v  -171.1278 70.6413 -92.6237
v  -176.4731 70.5200 -92.4939
v  -176.6786 68.3105 -93.7038
v  -170.9556 72.9479 -91.4520
v  -176.2839 72.5660 -91.4211
v  -170.3900 80.5414 -87.6186
v  -170.6871 76.5458 -89.6243
v  -173.1470 78.8495 -88.3205
v  -175.9951 75.6879 -89.7843
v  -175.8774 76.9663 -89.1362
v  -164.8840 64.2621 -96.0069
v  -168.1728 64.3916 -95.8775
v  -164.7400 69.3051 -93.5129
v  -166.4421 70.0678 -93.0744
v  -167.3659 70.7267 -92.7151
v  -167.8606 71.0796 -92.5172
v  -168.2672 72.0115 -92.0267
v  -168.2672 72.8465 -91.6002
v  -164.5046 77.5450 -89.4379
v  -164.5205 75.3892 -90.5043
v  -167.1610 74.1875 -90.9702
v  -170.7990 75.0467 -90.3858
v  -167.8799 73.5461 -91.2569
v  -164.3290 83.6954 -86.3962
v  -167.4684 82.1269 -86.9941
v  -154.2305 88.2509 -84.3557
v  -155.0002 81.6403 -87.5551
v  -155.2469 79.5215 -88.5806
v  -161.8940 68.0854 -94.1116
v  -160.9808 64.0646 -96.0984
v  -158.7642 67.1728 -94.5703
v  -157.0776 63.8670 -96.1900
v  -156.7265 66.8638 -94.7306
v  -157.3990 61.1530 -97.5258
v  -159.1006 61.5548 -97.3346
v  -161.3396 62.1623 -97.0393
v  -180.3626 71.6968 -91.6948
v  -180.2513 72.2729 -91.3801
v  -178.6104 72.3941 -91.3971
v  -128.9444 82.8962 -87.5898
v  -136.0934 71.1352 -92.9970
v  -178.2132 69.0850 -93.2221
v  -179.1669 69.6369 -92.8833
v  -178.3804 70.4767 -92.4476
v  -179.9753 70.4405 -92.4088
v  -152.4490 66.6282 -94.8464
v  -155.8111 66.7250 -94.7971
v  -141.0338 62.9974 -96.4850
v  -146.9713 91.2136 -83.0462
v  -148.0438 84.6496 -86.1917
v  -142.4916 60.5770 -97.8695
v  -126.6161 86.7760 -85.5020
v  -177.8646 75.3857 -89.8406
v  -164.9123 63.2709 -96.4971
v  -138.2320 94.4002 -81.3555
v  -138.9743 88.5689 -84.4193
v  -120.3012 99.9292 -78.2197
v  -124.5678 92.9623 -82.0455
v  -129.4926 97.5869 -79.6647
v  -134.0849 88.5325 -84.4171
v  -135.0512 89.7687 -83.7800
v  -118.3606 100.4237 -77.9146
v  -122.4883 93.5999 -81.7083
v  -148.3816 82.5813 -87.1829
v  -179.9874 72.7667 -91.1211
v  -178.8425 74.3279 -90.3344
v  -176.0977 74.5789 -90.3657
v  -163.5399 62.8376 -96.7101
v  -120.2920 99.8134 -78.0054
v  -129.4926 97.4682 -79.4541
v  -146.9665 91.0998 -82.8332
v  -138.2859 94.2635 -81.1545
v  -154.2232 88.1395 -84.1403
v  -164.3169 83.5841 -86.1808
v  -167.4515 82.0107 -86.7811
v  -170.3731 80.4277 -87.4056
v  -173.1301 78.7333 -88.1099
v  -175.8604 76.8501 -88.9233
v  -177.8477 75.2719 -89.6276
v  -178.8304 74.2142 -90.1214
v  -179.9753 72.6505 -90.9081
v  -180.2392 72.1567 -91.1695
v  -180.3505 71.5782 -91.4818
v  -180.3433 71.1982 -91.9707
v  -180.3336 71.0820 -91.7577
v  -180.1787 70.7407 -92.2297
v  -180.1690 70.6221 -92.0191
v  -179.9608 70.3268 -92.1958
v  -179.1572 69.5231 -92.6703
v  -178.2035 68.9713 -93.0091
v  -176.6713 68.2015 -93.4860
v  -174.5993 67.2454 -94.0185
v  -171.4841 65.6987 -94.8729
v  -168.1704 64.2803 -95.6620
v  -164.9123 63.1620 -96.2817
v  -163.5423 62.7287 -96.4947
v  -161.3421 62.0534 -96.8215
v  -159.1030 61.4458 -97.1168
v  -157.3869 61.0222 -97.3225
v  -147.6023 60.6823 -97.4851
v  -151.8723 60.8335 -97.3950
v  -142.4982 60.4800 -97.7364
v  -144.0337 60.5409 -97.6608
v  -141.0362 62.8836 -96.2720
v  -136.0959 71.0384 -92.7743
v  -128.9481 82.8160 -87.4220
v  -129.8074 81.3976 -88.0804
v  -118.3630 100.3051 -77.7016
v  -122.4878 93.4900 -81.4895
v  -137.8047 87.2976 -85.0458
v  -137.1920 87.1138 -85.1510
v  -136.8244 86.7155 -85.3609
v  -138.5400 87.2363 -85.0631
v  -136.7632 85.9803 -85.7313
v  -126.6126 86.6749 -85.2773
# 138 vertices

vn -0.0174 0.4241 -0.9055
vn -0.0268 0.4337 -0.9006
vn -0.0189 0.4201 -0.9073
vn -0.0234 0.4357 -0.8998
vn 0.0066 0.4320 -0.9018
vn -0.0174 0.4235 -0.9057
vn -0.0174 0.4236 -0.9057
vn -0.0002 0.4300 -0.9028
vn 0.0021 0.4364 -0.8998
vn -0.0045 0.4401 -0.8979
vn 0.0061 0.4335 -0.9011
vn 0.0003 0.4343 -0.9008
vn 0.0005 0.4479 -0.8941
vn 0.0001 0.4375 -0.8992
vn -0.0138 0.4864 -0.8736
vn -0.0184 0.4441 -0.8958
vn -0.0225 0.4732 -0.8807
vn -0.0223 0.4201 -0.9072
vn 0.0055 0.4223 -0.9064
vn 0.0016 0.4687 -0.8834
vn -0.0224 0.4520 -0.8918
vn -0.0181 0.4552 -0.8902
vn -0.0305 0.4579 -0.8885
vn -0.0331 0.4754 -0.8792
vn -0.0269 0.4726 -0.8809
vn -0.0374 0.4558 -0.8893
vn -0.0393 0.4661 -0.8838
vn -0.0531 0.4511 -0.8909
vn -0.0460 0.4499 -0.8919
vn -0.0483 0.4524 -0.8905
vn -0.0463 0.4602 -0.8866
vn -0.0468 0.4545 -0.8895
vn -0.0083 0.4435 -0.8962
vn -0.0204 0.4464 -0.8946
vn -0.0143 0.4458 -0.8950
vn -0.0252 0.4496 -0.8929
vn -0.0292 0.4543 -0.8904
vn -0.0319 0.4546 -0.8901
vn -0.0259 0.4442 -0.8956
vn -0.0292 0.4435 -0.8958
vn -0.0430 0.4451 -0.8944
vn -0.0412 0.4551 -0.8895
vn -0.0359 0.4486 -0.8930
vn -0.0195 0.4416 -0.8970
vn -0.0489 0.4461 -0.8936
vn -0.0144 0.4361 -0.8998
vn -0.0136 0.4380 -0.8989
vn -0.0104 0.4372 -0.8993
vn 0.0004 0.4431 -0.8965
vn 0.0009 0.4425 -0.8968
vn -0.0014 0.4410 -0.8975
vn 0.0016 0.4396 -0.8982
vn -0.0027 0.4381 -0.8989
vn 0.0041 0.4412 -0.8974
vn 0.0020 0.4424 -0.8968
vn 0.0019 0.4431 -0.8965
vn -0.0439 0.4835 -0.8742
vn -0.0448 0.4846 -0.8736
vn -0.0421 0.4753 -0.8788
vn -0.0093 0.4463 -0.8948
vn -0.0222 0.4211 -0.9067
vn -0.0316 0.4827 -0.8752
vn -0.0317 0.4836 -0.8747
vn -0.0336 0.4795 -0.8769
vn -0.0323 0.4896 -0.8713
vn -0.0003 0.4364 -0.8998
vn -0.0003 0.4382 -0.8989
vn 0.0101 0.4095 -0.9122
vn -0.0092 0.4412 -0.8974
vn -0.0124 0.4344 -0.9006
vn -0.0099 0.4877 -0.8729
vn -0.0057 0.4865 -0.8737
vn -0.0507 0.4616 -0.8857
vn -0.0058 0.4436 -0.8962
vn 0.0018 0.4649 -0.8854
vn -0.0029 0.4517 -0.8922
vn 0.0165 0.4751 -0.8798
vn 0.0050 0.4744 -0.8803
vn 0.0092 0.4664 -0.8845
vn -0.0091 0.4753 -0.8798
vn 0.0035 0.4633 -0.8862
vn 0.0161 0.4784 -0.8780
vn -0.0059 0.4854 -0.8743
vn -0.0110 0.4339 -0.9009
vn -0.0463 0.4784 -0.8769
vn -0.0492 0.4708 -0.8808
vn -0.0445 0.4654 -0.8840
vn 0.0014 0.4438 -0.8961
vn -0.2867 0.8378 0.4647
vn -0.2867 0.8377 0.4648
vn -0.3341 0.8212 0.4626
vn -0.3342 0.8212 0.4625
vn -0.3927 0.8075 0.4402
vn -0.3815 0.8086 0.4479
vn -0.3928 0.8075 0.4402
vn -0.4277 0.7970 0.4266
vn -0.4276 0.7970 0.4266
vn -0.4486 0.7833 0.4304
vn -0.4486 0.7835 0.4300
vn -0.4818 0.7526 0.4488
vn -0.4819 0.7528 0.4484
vn -0.5247 0.7327 0.4334
vn -0.5246 0.7328 0.4333
vn -0.5731 0.6972 0.4307
vn -0.5732 0.6972 0.4305
vn -0.6215 0.6659 0.4126
vn -0.6215 0.6658 0.4129
vn -0.6955 0.6097 0.3804
vn -0.6950 0.6096 0.3812
vn -0.8070 0.5005 0.3133
vn -0.8070 0.5003 0.3137
vn -0.8520 0.4376 0.2873
vn -0.8520 0.4379 0.2870
vn -0.9543 0.2350 0.1846
vn -0.9541 0.2358 0.1847
vn -0.9959 0.0435 0.0795
vn -0.9958 0.0429 0.0805
vn -0.9854 -0.1641 -0.0454
vn -0.9856 -0.1637 -0.0431
vn -0.9193 -0.3612 -0.1565
vn -0.9184 -0.3615 -0.1608
vn -0.7843 -0.5673 -0.2511
vn -0.7837 -0.5675 -0.2524
vn -0.6662 -0.6700 -0.3276
vn -0.6667 -0.6700 -0.3265
vn -0.5285 -0.7591 -0.3802
vn -0.5284 -0.7587 -0.3811
vn -0.4847 -0.7886 -0.3785
vn -0.4848 -0.7884 -0.3787
vn -0.4823 -0.7859 -0.3869
vn -0.4823 -0.7861 -0.3866
vn -0.4660 -0.7902 -0.3980
vn -0.4658 -0.7904 -0.3978
vn -0.4035 -0.8147 -0.4164
vn -0.4037 -0.8147 -0.4163
vn -0.3557 -0.8340 -0.4218
vn -0.3558 -0.8340 -0.4218
vn -0.3262 -0.8422 -0.4293
vn -0.3059 -0.8502 -0.4285
vn -0.3060 -0.8501 -0.4286
vn -0.2779 -0.8565 -0.4350
vn -0.2784 -0.8578 -0.4320
vn -0.0917 -0.8386 -0.5370
vn -0.0853 -0.8413 -0.5337
vn -0.0503 -0.7307 -0.6808
vn -0.0334 -0.7680 -0.6396
vn -0.0503 -0.7319 -0.6795
vn -0.0324 -0.7672 -0.6406
vn -0.0609 -0.8054 -0.5896
vn -0.0662 -0.7734 -0.6305
vn -0.0614 -0.8030 -0.5927
vn -0.0665 -0.7746 -0.6289
vn 0.8873 -0.3938 -0.2399
vn 0.8762 -0.4293 -0.2188
vn 0.8764 -0.4288 -0.2193
vn 0.8874 -0.3924 -0.2420
vn 0.8742 -0.4486 -0.1856
vn 0.8742 -0.4485 -0.1857
vn 0.8816 -0.4330 -0.1879
vn 0.8753 -0.4350 -0.2110
vn 0.8809 -0.4334 -0.1903
vn 0.8839 -0.4129 -0.2197
vn 0.8838 -0.4172 -0.2116
vn 0.8839 -0.4129 -0.2195
vn 0.8838 -0.4173 -0.2114
vn 0.0031 0.4503 -0.8929
vn -0.0058 0.4636 -0.8860
vn -0.0026 0.4620 -0.8869
vn -0.0109 0.4323 -0.9017
vn -0.0141 0.4646 -0.8854
vn 0.8837 -0.4215 -0.2035
vn 0.8837 -0.4216 -0.2033
vn -0.0386 0.4783 -0.8773
vn -0.0346 0.4855 -0.8736
vn -0.2867 0.8384 0.4636
vn -0.2867 0.8384 0.4635
# 176 vertex normals

vt 0.8685 0.0555 0.0000
vt 0.8516 0.0940 0.0000
vt 0.8606 0.0560 0.0000
vt 0.8461 0.0952 0.0000
vt 0.8712 0.0273 0.0000
vt 0.8707 0.0505 0.0000
vt 0.8729 0.0463 0.0000
vt 0.8750 0.0436 0.0000
vt 0.8775 0.0416 0.0000
vt 0.8881 0.0274 0.0000
vt 0.8802 0.0402 0.0000
vt 0.8841 0.0391 0.0000
vt 0.8870 0.0388 0.0000
vt 0.8747 0.0180 0.0000
vt 0.8889 0.0178 0.0000
vt 0.8172 0.1152 0.0000
vt 0.8242 0.1000 0.0000
vt 0.8401 0.1110 0.0000
vt 0.8445 0.0570 0.0000
vt 0.8586 0.0273 0.0000
vt 0.8629 0.0179 0.0000
vt 0.9544 0.0320 0.0000
vt 0.9650 0.0372 0.0000
vt 0.9543 0.0499 0.0000
vt 0.9719 0.0487 0.0000
vt 0.9720 0.0404 0.0000
vt 0.9542 0.0584 0.0000
vt 0.9717 0.0563 0.0000
vt 0.9540 0.0865 0.0000
vt 0.9541 0.0718 0.0000
vt 0.9627 0.0800 0.0000
vt 0.9715 0.0680 0.0000
vt 0.9713 0.0727 0.0000
vt 0.9323 0.0273 0.0000
vt 0.9432 0.0273 0.0000
vt 0.9329 0.0459 0.0000
vt 0.9387 0.0484 0.0000
vt 0.9419 0.0507 0.0000
vt 0.9436 0.0520 0.0000
vt 0.9451 0.0553 0.0000
vt 0.9453 0.0584 0.0000
vt 0.9339 0.0762 0.0000
vt 0.9335 0.0683 0.0000
vt 0.9420 0.0635 0.0000
vt 0.9541 0.0662 0.0000
vt 0.9442 0.0611 0.0000
vt 0.9347 0.0988 0.0000
vt 0.9447 0.0927 0.0000
vt 0.9024 0.1171 0.0000
vt 0.9035 0.0928 0.0000
vt 0.9038 0.0850 0.0000
vt 0.9233 0.0419 0.0000
vt 0.9194 0.0273 0.0000
vt 0.9128 0.0391 0.0000
vt 0.9065 0.0273 0.0000
vt 0.9060 0.0384 0.0000
vt 0.9070 0.0173 0.0000
vt 0.9127 0.0185 0.0000
vt 0.9202 0.0203 0.0000
vt 0.9850 0.0526 0.0000
vt 0.9847 0.0548 0.0000
vt 0.9794 0.0554 0.0000
vt 0.8178 0.1014 0.0000
vt 0.8389 0.0574 0.0000
vt 0.9773 0.0431 0.0000
vt 0.9806 0.0450 0.0000
vt 0.9782 0.0483 0.0000
vt 0.9834 0.0479 0.0000
vt 0.8919 0.0383 0.0000
vt 0.9030 0.0380 0.0000
vt 0.8535 0.0273 0.0000
vt 0.8791 0.1291 0.0000
vt 0.8812 0.1050 0.0000
vt 0.8578 0.0179 0.0000
vt 0.8110 0.1163 0.0000
vt 0.9776 0.0666 0.0000
vt 0.9322 0.0237 0.0000
vt 0.8510 0.1426 0.0000
vt 0.8522 0.1208 0.0000
vt 0.7933 0.1668 0.0000
vt 0.8057 0.1399 0.0000
vt 0.8230 0.1561 0.0000
vt 0.8361 0.1216 0.0000
vt 0.8395 0.1260 0.0000
vt 0.7870 0.1690 0.0000
vt 0.7990 0.1427 0.0000
vt 0.8819 0.0974 0.0000
vt 0.9840 0.0566 0.0000
vt 0.9806 0.0626 0.0000
vt 0.9715 0.0638 0.0000
vt 0.9276 0.0223 0.0000
vt 0.7933 0.1667 0.0000
vt 0.8230 0.1560 0.0000
vt 0.8512 0.1425 0.0000
vt 0.9347 0.0987 0.0000
vt 0.9447 0.0926 0.0000
vt 0.9627 0.0799 0.0000
vt 0.9713 0.0726 0.0000
vt 0.9775 0.0666 0.0000
vt 0.9806 0.0625 0.0000
vt 0.9847 0.0547 0.0000
vt 0.9850 0.0525 0.0000
vt 0.9848 0.0507 0.0000
vt 0.9848 0.0506 0.0000
vt 0.9842 0.0490 0.0000
vt 0.9842 0.0489 0.0000
vt 0.9773 0.0430 0.0000
vt 0.9721 0.0404 0.0000
vt 0.9650 0.0371 0.0000
vt 0.9544 0.0319 0.0000
vt 0.9432 0.0272 0.0000
vt 0.9322 0.0236 0.0000
vt 0.9202 0.0202 0.0000
vt 0.9127 0.0184 0.0000
vt 0.9070 0.0172 0.0000
vt 0.8747 0.0178 0.0000
vt 0.8888 0.0176 0.0000
vt 0.8578 0.0178 0.0000
vt 0.8629 0.0178 0.0000
vt 0.8536 0.0272 0.0000
vt 0.8390 0.0574 0.0000
vt 0.8179 0.1014 0.0000
vt 0.8204 0.0960 0.0000
vt 0.7870 0.1689 0.0000
vt 0.7991 0.1426 0.0000
vt 0.8480 0.1164 0.0000
vt 0.8460 0.1158 0.0000
vt 0.8447 0.1144 0.0000
vt 0.8504 0.1160 0.0000
vt 0.8443 0.1117 0.0000
vt 0.8111 0.1163 0.0000
# 131 texture coords

g P159_38SG_L_P159_38SG_L_2_DTaSI
usemtl windowglass_blackSG
s 1
f 35/35/34 36/36/35 37/37/36 
f 37/37/36 36/36/35 38/38/37 
f 37/37/36 39/39/38 35/35/34 
f 35/35/34 39/39/38 40/40/39 
f 40/40/39 39/39/38 41/41/39 
f 41/41/39 39/39/38 42/42/40 
f 42/42/40 39/39/38 43/43/41 
f 39/39/38 44/44/42 43/43/41 
f 43/43/41 44/44/42 45/45/43 
f 45/45/43 44/44/42 46/46/44 
f 44/44/42 47/47/45 46/46/44 
f 39/39/38 48/48/46 44/44/42 
f 44/44/42 48/48/46 49/49/47 
f 50/50/48 51/51/49 52/52/50 
f 52/52/50 51/51/49 38/38/37 
f 51/51/49 53/53/51 38/38/37 
f 38/38/37 53/53/51 37/37/36 
f 53/53/51 54/54/52 37/37/36 
f 37/37/36 54/54/52 39/39/38 
f 54/54/52 55/55/53 39/39/38 
f 39/39/38 55/55/53 48/48/46 
f 56/56/54 57/57/55 58/58/56 
f 59/59/57 58/58/56 60/60/58 
f 58/58/56 57/57/55 60/60/58 
f 61/61/59 58/58/56 62/62/60 
f 62/62/60 58/58/56 59/59/57 
f 63/63/61 64/64/62 65/65/63 
f 66/66/64 67/67/65 64/64/62 
f 67/67/65 65/65/63 64/64/62 
f 68/68/66 69/69/67 70/70/68 
f 70/70/68 69/69/67 71/71/69 
f 69/69/67 56/56/54 71/71/69 
f 71/71/69 56/56/54 72/72/70 
f 56/56/54 58/58/56 72/72/70 
f 72/72/70 58/58/56 73/73/71 
f 73/73/71 58/58/56 74/74/71 
f 58/58/56 61/61/59 74/74/71 
f 74/74/71 61/61/59 75/75/71 
f 76/76/72 77/77/73 64/64/62 
f 77/77/73 78/78/74 64/64/62 
f 64/64/62 78/78/74 79/79/75 
f 78/78/74 80/80/76 79/79/75 
f 61/61/59 79/79/75 75/75/71 
f 80/80/76 75/75/71 79/79/75 
f 81/81/77 76/76/72 82/82/78 
f 76/76/72 64/64/62 82/82/78 
f 64/64/62 63/63/61 82/82/78 
f 83/83/79 84/84/80 81/81/77 
f 81/81/77 84/84/80 76/76/72 
f 76/76/72 85/85/81 77/77/73 
f 68/68/66 70/70/68 86/86/82 
f 68/68/66 86/86/82 87/87/83 
f 86/86/82 88/88/84 87/87/83 
f 87/87/83 88/88/84 89/89/85 
f 88/88/84 90/90/86 89/89/85 
f 91/91/87 92/92/88 89/89/85 
f 89/89/85 92/92/88 87/87/83 
f 93/93/89 87/87/83 92/92/88 
f 94/94/90 95/95/91 96/96/92 
f 97/97/93 98/98/94 51/51/49 
f 51/51/49 98/98/94 53/53/51 
f 99/99/95 100/100/96 101/101/97 
f 101/101/97 100/100/96 102/102/98 
f 47/47/45 44/44/42 103/103/99 
f 44/44/42 89/89/85 103/103/99 
f 90/90/86 104/104/100 89/89/85 
f 104/104/100 103/103/99 89/89/85 
f 98/98/94 105/105/101 53/53/51 
f 53/53/51 105/105/101 54/54/52 
f 106/106/102 107/107/103 83/83/79 
f 83/83/79 107/107/103 84/84/80 
f 105/105/101 108/108/104 54/54/52 
f 54/54/52 108/108/104 55/55/53 
f 44/44/42 49/49/47 89/89/85 
f 89/89/85 49/49/47 91/91/87 
f 109/109/105 97/97/93 50/50/48 
f 50/50/48 97/97/93 51/51/49 
f 67/67/65 66/66/64 110/110/106 
f 68/68/66 111/111/107 69/69/67 
f 112/112/108 113/113/109 106/106/102 
f 106/106/102 113/113/109 107/107/103 
f 114/114/110 115/115/111 116/116/112 
f 117/117/113 118/118/114 115/115/111 
f 118/118/114 116/116/112 115/115/111 
f 119/119/115 120/120/116 114/114/110 
f 114/114/110 120/120/116 115/115/111 
f 120/120/116 109/109/105 115/115/111 
f 115/115/111 109/109/105 50/50/48 
f 115/115/111 50/50/48 117/117/113 
f 117/117/113 50/50/48 52/52/50 
f 107/107/103 121/121/117 84/84/80 
f 84/84/80 121/121/117 85/85/81 
f 76/76/72 84/84/80 85/85/81 
f 116/116/112 118/118/114 112/112/108 
f 112/112/108 118/118/114 113/113/109 
f 95/95/91 122/122/118 96/96/92 
f 96/96/92 122/122/118 123/123/119 
f 62/62/60 123/123/119 124/124/120 
f 79/79/75 61/61/59 124/124/120 
f 124/124/120 61/61/59 62/62/60 
f 123/123/119 110/110/106 124/124/120 
f 124/124/120 110/110/106 66/66/64 
f 64/64/62 79/79/75 66/66/64 
f 66/66/64 79/79/75 124/124/120 
f 93/93/89 125/125/121 87/87/83 
f 68/68/66 87/87/83 111/111/107 
f 125/125/121 111/111/107 87/87/83 
s 18
f 126/126/122 114/114/123 127/127/124 
f 114/114/123 116/116/125 127/127/124 
f 128/106/126 129/128/127 106/106/128 
f 129/128/127 112/112/127 106/106/128 
f 106/106/128 83/83/129 130/83/130 
f 130/83/130 128/106/126 106/106/128 
f 83/83/129 81/81/131 131/129/132 
f 131/129/132 130/83/130 83/83/129 
f 81/81/131 82/82/133 132/130/134 
f 132/130/134 131/129/132 81/81/131 
f 82/82/133 63/63/135 133/63/136 
f 133/63/136 132/130/134 82/82/133 
f 63/63/135 65/65/137 134/131/138 
f 134/131/138 133/63/136 63/63/135 
f 65/65/137 67/67/139 135/132/140 
f 135/132/140 134/131/138 65/65/137 
f 67/67/139 110/110/141 136/133/142 
f 136/133/142 135/132/140 67/67/139 
f 110/110/141 123/123/143 137/134/144 
f 137/134/144 136/133/142 110/110/141 
f 123/123/143 122/122/145 138/122/146 
f 138/122/146 137/134/144 123/123/143 
f 122/122/145 95/95/147 139/135/148 
f 139/135/148 138/122/146 122/122/145 
f 95/95/147 94/94/149 140/136/150 
f 140/136/150 139/135/148 95/95/147 
f 94/94/149 141/137/151 142/138/152 
f 142/138/152 140/136/150 94/94/149 
f 141/137/151 143/139/153 144/140/154 
f 144/140/154 142/138/152 141/137/151 
f 143/139/153 102/102/155 145/102/156 
f 145/102/156 144/140/154 143/139/153 
f 102/102/155 100/100/157 146/100/158 
f 146/100/158 145/102/156 102/102/155 
f 100/100/157 99/99/159 147/141/160 
f 147/141/160 146/100/158 100/100/157 
f 99/99/159 60/60/161 148/142/162 
f 148/142/162 147/141/160 99/99/159 
f 60/60/161 57/57/163 149/143/164 
f 149/143/164 148/142/162 60/60/161 
f 57/57/163 56/56/165 150/144/166 
f 150/144/166 149/143/164 57/57/163 
f 56/56/165 69/69/167 151/145/168 
f 151/145/168 150/144/166 56/56/165 
f 69/69/167 111/111/169 152/146/170 
f 152/146/170 151/145/168 69/69/167 
f 111/111/169 125/125/171 153/125/171 
f 153/125/171 152/146/170 111/111/169 
f 125/125/171 93/93/172 154/147/173 
f 154/147/173 153/125/171 125/125/171 
f 93/93/172 92/92/174 155/148/175 
f 155/148/175 154/147/173 93/93/172 
f 92/92/174 91/91/176 156/149/177 
f 156/149/177 155/148/175 92/92/174 
f 157/150/178 158/151/179 48/48/180 
f 158/151/179 49/49/181 48/48/180 
f 159/152/182 160/153/183 108/108/184 
f 160/153/183 55/55/185 108/108/184 
s 47
f 108/108/186 105/105/187 161/154/188 
f 161/154/188 159/152/189 108/108/186 
f 105/105/187 98/98/190 162/155/191 
f 162/155/191 161/154/188 105/105/187 
f 163/156/192 164/157/193 97/97/194 
f 164/157/193 98/98/190 97/97/194 
f 164/157/193 162/155/191 98/98/190 
f 165/158/195 166/159/196 119/119/197 
f 166/159/196 120/120/198 119/119/197 
s 1
f 62/62/60 96/96/92 123/123/119 
f 101/101/97 96/96/92 59/59/57 
f 59/59/57 96/96/92 62/62/60 
f 101/101/97 59/59/57 99/99/95 
f 99/99/95 59/59/57 60/60/58 
f 167/160/199 118/118/114 168/161/200 
f 118/118/114 117/117/113 168/161/200 
f 117/117/113 169/162/201 168/161/200 
f 121/121/117 107/107/103 170/163/202 
f 113/113/109 170/163/202 107/107/103 
f 118/118/114 167/160/199 113/113/109 
f 113/113/109 167/160/199 170/163/202 
f 171/164/203 169/162/201 52/52/50 
f 52/52/50 169/162/201 117/117/113 
f 36/36/35 171/164/203 38/38/37 
f 38/38/37 171/164/203 52/52/50 
s 47
f 172/165/204 163/156/192 109/109/205 
f 163/156/192 97/97/194 109/109/205 
f 166/159/196 172/165/204 120/120/198 
f 172/165/204 109/109/205 120/120/198 
s 18
f 91/91/176 49/49/181 158/151/179 
f 158/151/179 156/149/177 91/91/176 
f 48/48/180 55/55/185 160/153/183 
f 160/153/183 157/150/178 48/48/180 
s 1
f 141/137/206 94/94/90 96/96/92 
f 141/137/206 96/96/92 101/101/97 
f 143/139/207 101/101/97 102/102/98 
f 143/139/207 141/137/206 101/101/97 
s 18
f 119/119/208 114/114/123 126/126/122 
f 126/126/122 165/158/209 119/119/208 
f 116/116/125 112/112/127 129/128/127 
f 129/128/127 127/127/124 116/116/125 
# 206 faces

