# 3ds Max Wavefront OBJ Exporter v0.97b - (c)2007 guruware
# File Created: 04.12.2015 16:07:36

mtllib P159_18A5_R.mtl

#
# object P159_18A5_R_DaS_P159_18A5_R
#

v  29.4168 105.0252 72.4842
v  38.0593 102.2561 73.5093
v  29.6218 105.2890 71.8671
v  38.2881 102.5167 72.8885
v  29.8852 105.6279 71.0742
v  38.5822 102.8515 72.0908
v  37.0975 99.8175 75.0578
v  37.5501 100.9372 74.3601
v  28.6955 102.5199 73.9886
v  29.0022 103.5852 73.3866
v  2.8420 109.8948 71.1258
v  2.7195 108.4672 71.9117
v  11.6481 108.2979 71.7694
v  11.4551 106.9338 72.5323
v  3.0075 111.8244 69.9777
v  11.8909 110.0432 70.7184
v  3.1357 112.1052 69.3548
v  12.0456 110.3170 70.1003
v  39.2042 103.4639 68.9998
v  39.5385 103.8227 66.6991
v  30.4552 106.2633 67.9880
v  30.7854 106.6281 65.7322
v  30.1702 105.9456 69.5311
v  38.8932 103.1577 70.5453
v  3.3004 112.4659 68.5544
v  12.2443 110.6689 69.3060
v  3.5001 112.8423 66.9799
v  12.4737 111.0217 67.7484
v  12.7030 111.3745 66.1908
v  12.9911 111.7726 63.9927
v  3.6998 113.2187 65.4053
v  3.9498 113.6440 63.2201
v  -5.9945 109.4381 71.5438
v  -5.9095 110.9383 70.7138
v  -14.7084 110.1035 71.1759
v  -14.6610 111.6762 70.3019
v  -31.8431 112.3731 69.8363
v  -31.8554 110.8127 70.7136
v  -23.2521 112.1804 70.0691
v  -23.2819 110.6138 70.9447
v  -31.8264 114.4822 68.5666
v  -23.2117 114.2979 68.8013
v  -31.8105 114.8021 67.9076
v  -23.1704 114.6088 68.1514
v  -14.5970 113.8020 69.0361
v  -5.7947 112.9660 69.5069
v  -14.5303 114.1040 68.3952
v  -5.6973 113.2574 68.8750
v  -31.7635 115.7252 65.3618
v  -31.7901 115.2132 67.0610
v  -23.0502 115.4888 65.6486
v  -23.1173 115.0083 67.3163
v  -31.7029 116.8241 61.3564
v  -31.7368 116.2371 63.6625
v  -22.8987 116.5182 61.7107
v  -22.9830 115.9693 63.9808
v  -5.2647 114.4571 64.8522
v  -5.0724 114.9252 62.6426
v  -14.2291 115.3899 64.2991
v  -14.0946 115.9009 62.0650
v  -40.1470 114.5500 68.5339
v  -40.1391 114.8725 67.8696
v  -40.1615 110.8744 70.6882
v  -40.1553 112.4374 69.8077
v  -64.8135 110.7594 70.8999
v  -56.6405 110.9241 70.7813
v  -64.8135 112.2715 70.0454
v  -56.6405 112.4629 69.9123
v  -64.8135 114.3152 68.8062
v  -56.6405 114.5428 68.6537
v  -64.8135 114.6383 68.1197
v  -56.6405 114.8670 67.9757
v  -40.1022 116.3303 63.5802
v  -40.0852 116.9289 61.2517
v  -40.1288 115.2870 67.0162
v  -40.1155 115.8087 65.2982
v  -64.8135 115.0535 67.2377
v  -56.6405 115.2835 67.1045
v  -64.8135 115.5823 65.4440
v  -56.6405 115.8136 65.3393
v  -56.6405 116.9532 61.1913
v  -64.8135 116.7200 61.2356
v  -56.6405 116.3437 63.5742
v  -64.8135 116.1112 63.6504
v  -64.8135 113.7835 69.1909
v  -56.6405 114.0017 69.0433
v  -31.8308 113.9335 68.9589
v  -40.1492 114.0004 68.9273
v  -23.2222 113.7470 69.1935
v  -5.8246 112.4385 69.8839
v  -14.6137 113.2490 69.4280
v  11.8277 109.5892 71.0559
v  2.9644 111.3225 70.3398
v  37.9268 101.9129 73.7973
v  29.3089 104.6506 72.7847
v  -56.6405 117.4293 59.3298
v  -64.8135 117.1956 59.3491
v  -31.6763 117.2828 59.5549
v  -40.0720 117.3965 59.4327
v  -22.8329 116.9471 59.9373
v  -4.9222 115.2910 60.9164
v  -13.9895 116.3000 60.3198
v  13.2161 112.0837 62.2756
v  4.1452 113.9763 61.5131
v  39.7997 104.1029 64.9019
v  31.0434 106.9132 63.9700
v  -14.3368 114.9409 65.9354
v  -5.4184 114.0444 66.4576
v  -14.4445 114.4919 67.5717
v  -5.5721 113.6317 68.0631
v  22.0323 109.4336 64.7652
v  22.2871 109.7234 63.0381
v  21.7062 109.0626 66.9763
v  21.4472 108.7334 68.5169
v  21.1882 108.4042 70.0576
v  20.9554 108.0612 70.8457
v  20.7743 107.7943 71.4591
v  20.6910 107.3882 71.7720
v  20.2175 105.0784 73.0542
v  20.4543 106.2333 72.4131
v  -48.4676 117.0336 61.1470
v  -48.4676 117.5103 59.3104
v  -48.4676 116.4234 63.4980
v  -48.4676 115.8921 65.2347
v  -48.4676 115.3608 66.9714
v  -48.4676 114.9430 67.8316
v  -48.4676 114.6177 68.5012
v  -48.4676 114.0673 68.8957
v  -48.4676 110.9361 70.6627
v  -48.4676 112.5017 69.7792
# 130 vertices

vn 0.1778 0.7784 0.6020
vn 0.1952 0.7817 0.5923
vn 0.2248 0.8668 0.4452
vn 0.2428 0.8593 0.4502
vn 0.2547 0.9137 0.3166
vn 0.2777 0.9067 0.3176
vn 0.0583 0.5101 0.8582
vn 0.0545 0.4979 0.8655
vn 0.0492 0.4823 0.8746
vn 0.0492 0.4806 0.8756
vn 0.0198 0.4810 0.8765
vn 0.0200 0.4811 0.8764
vn 0.0358 0.4816 0.8757
vn 0.0367 0.4836 0.8745
vn 0.0847 0.7763 0.6246
vn 0.1236 0.7772 0.6170
vn 0.1188 0.8958 0.4282
vn 0.1646 0.8859 0.4337
vn 0.2878 0.9333 0.2149
vn 0.2821 0.9408 0.1882
vn 0.2756 0.9375 0.2127
vn 0.2799 0.9404 0.1932
vn 0.2696 0.9321 0.2417
vn 0.2928 0.9250 0.2421
vn 0.1354 0.9405 0.3115
vn 0.1858 0.9315 0.3126
vn 0.1442 0.9581 0.2475
vn 0.1965 0.9496 0.2441
vn 0.2011 0.9549 0.2184
vn 0.2049 0.9580 0.2004
vn 0.1498 0.9633 0.2229
vn 0.1541 0.9664 0.2058
vn 0.0085 0.4836 0.8753
vn 0.0080 0.4837 0.8752
vn 0.0025 0.4856 0.8742
vn 0.0023 0.4857 0.8741
vn -0.0061 0.4901 0.8717
vn -0.0060 0.4900 0.8717
vn -0.0039 0.4879 0.8729
vn -0.0034 0.4878 0.8730
vn 0.0015 0.7723 0.6353
vn 0.0131 0.7716 0.6360
vn 0.0066 0.8995 0.4368
vn 0.0242 0.9012 0.4327
vn 0.0332 0.7710 0.6360
vn 0.0526 0.7733 0.6319
vn 0.0519 0.9013 0.4300
vn 0.0787 0.9006 0.4274
vn 0.0127 0.9574 0.2884
vn 0.0102 0.9404 0.3398
vn 0.0335 0.9601 0.2776
vn 0.0294 0.9427 0.3324
vn 0.0169 0.9689 0.2467
vn 0.0149 0.9644 0.2640
vn 0.0411 0.9708 0.2365
vn 0.0378 0.9665 0.2539
vn 0.1019 0.9672 0.2325
vn 0.1061 0.9708 0.2150
vn 0.0711 0.9672 0.2438
vn 0.0748 0.9711 0.2267
vn 0.0038 0.7716 0.6361
vn 0.0056 0.8995 0.4369
vn 0.0009 0.4907 0.8713
vn 0.0008 0.4908 0.8713
vn 0.0078 0.4934 0.8698
vn 0.0072 0.4917 0.8707
vn 0.0062 0.4927 0.8702
vn 0.0073 0.4917 0.8707
vn -0.0108 0.7816 0.6236
vn -0.0028 0.7775 0.6289
vn -0.0190 0.9047 0.4257
vn -0.0093 0.9022 0.4313
vn 0.0081 0.9637 0.2667
vn 0.0089 0.9684 0.2491
vn 0.0065 0.9396 0.3421
vn 0.0072 0.9568 0.2906
vn -0.0239 0.9431 0.3318
vn -0.0125 0.9412 0.3376
vn -0.0269 0.9589 0.2826
vn -0.0145 0.9576 0.2876
vn -0.0172 0.9687 0.2478
vn -0.0308 0.9692 0.2443
vn -0.0160 0.9642 0.2648
vn -0.0291 0.9650 0.2605
vn 0.0033 0.5188 0.8549
vn 0.0065 0.5179 0.8554
vn -0.0057 0.5161 0.8565
vn 0.0009 0.5164 0.8563
vn -0.0029 0.5142 0.8577
vn 0.0115 0.5114 0.8593
vn 0.0047 0.5122 0.8589
vn 0.0439 0.5115 0.8581
vn 0.0256 0.5106 0.8594
vn 0.0680 0.5234 0.8494
vn 0.0637 0.5167 0.8538
vn -0.0177 0.9686 0.2480
vn -0.0316 0.9691 0.2446
vn 0.0177 0.9688 0.2471
vn 0.0093 0.9684 0.2492
vn 0.0424 0.9706 0.2371
vn 0.1079 0.9706 0.2151
vn 0.0762 0.9708 0.2274
vn 0.2062 0.9577 0.2006
vn 0.1555 0.9661 0.2059
vn 0.2810 0.9410 0.1883
vn 0.2806 0.9401 0.1935
vn 0.0670 0.9612 0.2677
vn 0.0970 0.9617 0.2566
vn 0.0616 0.9439 0.3246
vn 0.0902 0.9440 0.3173
vn 0.2551 0.9467 0.1965
vn 0.2559 0.9465 0.1966
vn 0.2510 0.9438 0.2151
vn 0.2453 0.9388 0.2420
vn 0.2325 0.9208 0.3132
vn 0.2055 0.8737 0.4409
vn 0.1611 0.7790 0.6060
vn 0.0604 0.5127 0.8564
vn 0.0484 0.4773 0.8774
vn 0.0483 0.4774 0.8773
vn 0.0004 0.9680 0.2510
vn 0.0003 0.9679 0.2512
vn 0.0006 0.9633 0.2685
vn 0.0009 0.9563 0.2923
vn 0.0014 0.9396 0.3424
vn 0.0023 0.8996 0.4368
vn 0.0041 0.7736 0.6336
vn 0.0060 0.5173 0.8558
vn 0.0063 0.4914 0.8709
vn 0.0062 0.4915 0.8709
# 130 vertex normals

vt 0.5256 0.2992 0.0000
vt 0.5410 0.2943 0.0000
vt 0.5261 0.3004 0.0000
vt 0.5415 0.2955 0.0000
vt 0.5266 0.3019 0.0000
vt 0.5421 0.2971 0.0000
vt 0.5394 0.2894 0.0000
vt 0.5402 0.2914 0.0000
vt 0.5244 0.2943 0.0000
vt 0.5250 0.2962 0.0000
vt 0.4783 0.3074 0.0000
vt 0.4781 0.3049 0.0000
vt 0.4940 0.3046 0.0000
vt 0.4936 0.3021 0.0000
vt 0.4785 0.3113 0.0000
vt 0.4944 0.3081 0.0000
vt 0.4788 0.3125 0.0000
vt 0.4947 0.3093 0.0000
vt 0.5439 0.3026 0.0000
vt 0.5450 0.3067 0.0000
vt 0.5283 0.3073 0.0000
vt 0.5294 0.3113 0.0000
vt 0.5274 0.3046 0.0000
vt 0.5431 0.2998 0.0000
vt 0.4792 0.3140 0.0000
vt 0.4951 0.3107 0.0000
vt 0.4797 0.3168 0.0000
vt 0.4958 0.3135 0.0000
vt 0.4964 0.3162 0.0000
vt 0.4973 0.3201 0.0000
vt 0.4802 0.3196 0.0000
vt 0.4810 0.3235 0.0000
vt 0.4625 0.3066 0.0000
vt 0.4627 0.3093 0.0000
vt 0.4470 0.3078 0.0000
vt 0.4470 0.3106 0.0000
vt 0.4164 0.3119 0.0000
vt 0.4164 0.3091 0.0000
vt 0.4317 0.3115 0.0000
vt 0.4317 0.3087 0.0000
vt 0.4164 0.3163 0.0000
vt 0.4318 0.3158 0.0000
vt 0.4165 0.3176 0.0000
vt 0.4319 0.3171 0.0000
vt 0.4471 0.3150 0.0000
vt 0.4628 0.3134 0.0000
vt 0.4473 0.3162 0.0000
vt 0.4631 0.3146 0.0000
vt 0.4166 0.3224 0.0000
vt 0.4165 0.3192 0.0000
vt 0.4321 0.3218 0.0000
vt 0.4320 0.3187 0.0000
vt 0.4167 0.3298 0.0000
vt 0.4166 0.3256 0.0000
vt 0.4325 0.3290 0.0000
vt 0.4323 0.3248 0.0000
vt 0.4641 0.3219 0.0000
vt 0.4646 0.3259 0.0000
vt 0.4480 0.3238 0.0000
vt 0.4483 0.3278 0.0000
vt 0.4016 0.3164 0.0000
vt 0.4016 0.3177 0.0000
vt 0.4015 0.3092 0.0000
vt 0.4015 0.3120 0.0000
vt 0.3575 0.3090 0.0000
vt 0.3721 0.3093 0.0000
vt 0.3575 0.3117 0.0000
vt 0.3721 0.3120 0.0000
vt 0.3576 0.3159 0.0000
vt 0.3722 0.3163 0.0000
vt 0.3576 0.3173 0.0000
vt 0.3722 0.3177 0.0000
vt 0.4017 0.3258 0.0000
vt 0.4017 0.3301 0.0000
vt 0.4016 0.3194 0.0000
vt 0.4017 0.3226 0.0000
vt 0.3576 0.3190 0.0000
vt 0.3722 0.3194 0.0000
vt 0.3576 0.3224 0.0000
vt 0.3722 0.3227 0.0000
vt 0.3722 0.3303 0.0000
vt 0.3576 0.3302 0.0000
vt 0.3722 0.3259 0.0000
vt 0.3576 0.3257 0.0000
vt 0.3576 0.3148 0.0000
vt 0.3721 0.3151 0.0000
vt 0.4164 0.3151 0.0000
vt 0.4016 0.3152 0.0000
vt 0.4318 0.3147 0.0000
vt 0.4628 0.3123 0.0000
vt 0.4471 0.3138 0.0000
vt 0.4943 0.3071 0.0000
vt 0.4785 0.3103 0.0000
vt 0.5408 0.2935 0.0000
vt 0.5254 0.2984 0.0000
vt 0.3722 0.3337 0.0000
vt 0.3576 0.3336 0.0000
vt 0.4168 0.3331 0.0000
vt 0.4018 0.3334 0.0000
vt 0.4326 0.3322 0.0000
vt 0.4651 0.3290 0.0000
vt 0.4486 0.3310 0.0000
vt 0.4980 0.3231 0.0000
vt 0.4815 0.3265 0.0000
vt 0.5458 0.3098 0.0000
vt 0.5303 0.3143 0.0000
vt 0.4477 0.3208 0.0000
vt 0.4637 0.3191 0.0000
vt 0.4475 0.3178 0.0000
vt 0.4633 0.3162 0.0000
vt 0.5137 0.3160 0.0000
vt 0.5145 0.3190 0.0000
vt 0.5126 0.3122 0.0000
vt 0.5118 0.3095 0.0000
vt 0.5111 0.3068 0.0000
vt 0.5106 0.3053 0.0000
vt 0.5102 0.3041 0.0000
vt 0.5101 0.3032 0.0000
vt 0.5093 0.2988 0.0000
vt 0.5097 0.3009 0.0000
vt 0.3868 0.3303 0.0000
vt 0.3868 0.3337 0.0000
vt 0.3868 0.3260 0.0000
vt 0.3867 0.3228 0.0000
vt 0.3867 0.3195 0.0000
vt 0.3867 0.3178 0.0000
vt 0.3867 0.3165 0.0000
vt 0.3867 0.3153 0.0000
vt 0.3867 0.3093 0.0000
vt 0.3867 0.3121 0.0000
# 130 texture coords

g P159_18A5_R_DaS_P159_18A5_R
usemtl paint_whiteSG
s 1
f 1/1/1 2/2/2 3/3/3 
f 3/3/3 2/2/2 4/4/4 
f 3/3/3 4/4/4 5/5/5 
f 5/5/5 4/4/4 6/6/6 
f 7/7/7 8/8/8 9/9/9 
f 9/9/9 8/8/8 10/10/10 
f 11/11/11 12/12/12 13/13/13 
f 13/13/13 12/12/12 14/14/14 
f 15/15/15 16/16/16 17/17/17 
f 17/17/17 16/16/16 18/18/18 
f 19/19/19 20/20/20 21/21/21 
f 21/21/21 20/20/20 22/22/22 
f 5/5/5 6/6/6 23/23/23 
f 23/23/23 6/6/6 24/24/24 
f 25/25/25 26/26/26 27/27/27 
f 27/27/27 26/26/26 28/28/28 
f 29/29/29 30/30/30 31/31/31 
f 31/31/31 30/30/30 32/32/32 
f 33/33/33 34/34/34 35/35/35 
f 35/35/35 34/34/34 36/36/36 
f 37/37/37 38/38/38 39/39/39 
f 39/39/39 38/38/38 40/40/40 
f 41/41/41 42/42/42 43/43/43 
f 43/43/43 42/42/42 44/44/44 
f 45/45/45 46/46/46 47/47/47 
f 47/47/47 46/46/46 48/48/48 
f 49/49/49 50/50/50 51/51/51 
f 51/51/51 50/50/50 52/52/52 
f 53/53/53 54/54/54 55/55/55 
f 55/55/55 54/54/54 56/56/56 
f 57/57/57 58/58/58 59/59/59 
f 59/59/59 58/58/58 60/60/60 
f 61/61/61 41/41/41 62/62/62 
f 62/62/62 41/41/41 43/43/43 
f 38/38/38 37/37/37 63/63/63 
f 63/63/63 37/37/37 64/64/64 
f 65/65/65 66/66/66 67/67/67 
f 67/67/67 66/66/66 68/68/68 
f 69/69/69 70/70/70 71/71/71 
f 71/71/71 70/70/70 72/72/72 
f 54/54/54 53/53/53 73/73/73 
f 73/73/73 53/53/53 74/74/74 
f 75/75/75 50/50/50 76/76/76 
f 76/76/76 50/50/50 49/49/49 
f 77/77/77 78/78/78 79/79/79 
f 79/79/79 78/78/78 80/80/80 
f 81/81/81 82/82/82 83/83/83 
f 83/83/83 82/82/82 84/84/84 
f 85/85/85 86/86/86 69/69/69 
f 69/69/69 86/86/86 70/70/70 
f 87/87/87 41/41/41 88/88/88 
f 88/88/88 41/41/41 61/61/61 
f 89/89/89 42/42/42 87/87/87 
f 87/87/87 42/42/42 41/41/41 
f 90/90/90 46/46/46 91/91/91 
f 91/91/91 46/46/46 45/45/45 
f 92/92/92 16/16/16 93/93/93 
f 93/93/93 16/16/16 15/15/15 
f 94/94/94 2/2/2 95/95/95 
f 95/95/95 2/2/2 1/1/1 
f 96/96/96 97/97/97 81/81/81 
f 81/81/81 97/97/97 82/82/82 
f 53/53/53 98/98/98 74/74/74 
f 74/74/74 98/98/98 99/99/99 
f 98/98/98 53/53/53 100/100/100 
f 100/100/100 53/53/53 55/55/55 
f 58/58/58 101/101/101 60/60/60 
f 60/60/60 101/101/101 102/102/102 
f 30/30/30 103/103/103 32/32/32 
f 32/32/32 103/103/103 104/104/104 
f 20/20/20 105/105/105 22/22/22 
f 22/22/22 105/105/105 106/106/106 
f 79/79/79 80/80/80 84/84/84 
f 84/84/84 80/80/80 83/83/83 
f 76/76/76 49/49/49 73/73/73 
f 73/73/73 49/49/49 54/54/54 
f 51/51/51 56/56/56 49/49/49 
f 49/49/49 56/56/56 54/54/54 
f 27/27/27 28/28/28 31/31/31 
f 31/31/31 28/28/28 29/29/29 
f 23/23/23 24/24/24 21/21/21 
f 21/21/21 24/24/24 19/19/19 
f 71/71/71 72/72/72 77/77/77 
f 77/77/77 72/72/72 78/78/78 
f 62/62/62 43/43/43 75/75/75 
f 75/75/75 43/43/43 50/50/50 
f 43/43/43 44/44/44 50/50/50 
f 50/50/50 44/44/44 52/52/52 
f 17/17/17 18/18/18 25/25/25 
f 25/25/25 18/18/18 26/26/26 
f 59/59/59 107/107/107 57/57/57 
f 57/57/57 107/107/107 108/108/108 
f 107/107/107 109/109/109 108/108/108 
f 108/108/108 109/109/109 110/110/110 
f 47/47/47 48/48/48 109/109/109 
f 109/109/109 48/48/48 110/110/110 
f 22/22/22 106/106/106 111/111/111 
f 111/111/111 106/106/106 112/112/112 
f 21/21/21 22/22/22 113/113/113 
f 113/113/113 22/22/22 111/111/111 
f 23/23/23 21/21/21 114/114/114 
f 114/114/114 21/21/21 113/113/113 
f 5/5/5 23/23/23 115/115/115 
f 115/115/115 23/23/23 114/114/114 
f 116/116/116 3/3/3 115/115/115 
f 115/115/115 3/3/3 5/5/5 
f 117/117/117 1/1/1 116/116/116 
f 116/116/116 1/1/1 3/3/3 
f 95/95/95 1/1/1 118/118/118 
f 118/118/118 1/1/1 117/117/117 
f 9/9/9 10/10/10 119/119/119 
f 119/119/119 10/10/10 120/120/120 
f 13/13/13 14/14/14 120/120/120 
f 120/120/120 14/14/14 119/119/119 
f 16/16/16 92/92/92 117/117/117 
f 117/117/117 92/92/92 118/118/118 
f 16/16/16 117/117/117 18/18/18 
f 18/18/18 117/117/117 116/116/116 
f 18/18/18 116/116/116 26/26/26 
f 26/26/26 116/116/116 115/115/115 
f 26/26/26 115/115/115 28/28/28 
f 28/28/28 115/115/115 114/114/114 
f 28/28/28 114/114/114 29/29/29 
f 29/29/29 114/114/114 113/113/113 
f 111/111/111 30/30/30 113/113/113 
f 113/113/113 30/30/30 29/29/29 
f 112/112/112 103/103/103 111/111/111 
f 111/111/111 103/103/103 30/30/30 
f 12/12/12 11/11/11 33/33/33 
f 33/33/33 11/11/11 34/34/34 
f 46/46/46 90/90/90 15/15/15 
f 15/15/15 90/90/90 93/93/93 
f 46/46/46 15/15/15 48/48/48 
f 48/48/48 15/15/15 17/17/17 
f 48/48/48 17/17/17 110/110/110 
f 110/110/110 17/17/17 25/25/25 
f 110/110/110 25/25/25 108/108/108 
f 108/108/108 25/25/25 27/27/27 
f 108/108/108 27/27/27 57/57/57 
f 57/57/57 27/27/27 31/31/31 
f 32/32/32 58/58/58 31/31/31 
f 31/31/31 58/58/58 57/57/57 
f 58/58/58 32/32/32 101/101/101 
f 101/101/101 32/32/32 104/104/104 
f 39/39/39 40/40/40 36/36/36 
f 36/36/36 40/40/40 35/35/35 
f 42/42/42 89/89/89 45/45/45 
f 45/45/45 89/89/89 91/91/91 
f 42/42/42 45/45/45 44/44/44 
f 44/44/44 45/45/45 47/47/47 
f 44/44/44 47/47/47 52/52/52 
f 52/52/52 47/47/47 109/109/109 
f 107/107/107 51/51/51 109/109/109 
f 109/109/109 51/51/51 52/52/52 
f 56/56/56 51/51/51 59/59/59 
f 59/59/59 51/51/51 107/107/107 
f 55/55/55 56/56/56 60/60/60 
f 60/60/60 56/56/56 59/59/59 
f 100/100/100 55/55/55 102/102/102 
f 102/102/102 55/55/55 60/60/60 
f 74/74/74 99/99/99 121/121/121 
f 121/121/121 99/99/99 122/122/122 
f 73/73/73 74/74/74 123/123/123 
f 123/123/123 74/74/74 121/121/121 
f 76/76/76 73/73/73 124/124/124 
f 124/124/124 73/73/73 123/123/123 
f 75/75/75 76/76/76 125/125/125 
f 125/125/125 76/76/76 124/124/124 
f 62/62/62 75/75/75 126/126/126 
f 126/126/126 75/75/75 125/125/125 
f 127/127/127 61/61/61 126/126/126 
f 126/126/126 61/61/61 62/62/62 
f 88/88/88 61/61/61 128/128/128 
f 128/128/128 61/61/61 127/127/127 
f 63/63/63 64/64/64 129/129/129 
f 129/129/129 64/64/64 130/130/130 
f 66/66/66 129/129/129 68/68/68 
f 68/68/68 129/129/129 130/130/130 
f 86/86/86 128/128/128 70/70/70 
f 70/70/70 128/128/128 127/127/127 
f 70/70/70 127/127/127 72/72/72 
f 72/72/72 127/127/127 126/126/126 
f 72/72/72 126/126/126 78/78/78 
f 78/78/78 126/126/126 125/125/125 
f 78/78/78 125/125/125 80/80/80 
f 80/80/80 125/125/125 124/124/124 
f 80/80/80 124/124/124 83/83/83 
f 83/83/83 124/124/124 123/123/123 
f 121/121/121 81/81/81 123/123/123 
f 123/123/123 81/81/81 83/83/83 
f 122/122/122 96/96/96 121/121/121 
f 121/121/121 96/96/96 81/81/81 
f 8/8/8 94/94/94 10/10/10 
f 10/10/10 94/94/94 95/95/95 
f 10/10/10 95/95/95 120/120/120 
f 120/120/120 95/95/95 118/118/118 
f 92/92/92 13/13/13 118/118/118 
f 118/118/118 13/13/13 120/120/120 
f 93/93/93 11/11/11 92/92/92 
f 92/92/92 11/11/11 13/13/13 
f 11/11/11 93/93/93 34/34/34 
f 34/34/34 93/93/93 90/90/90 
f 34/34/34 90/90/90 36/36/36 
f 36/36/36 90/90/90 91/91/91 
f 89/89/89 39/39/39 91/91/91 
f 91/91/91 39/39/39 36/36/36 
f 87/87/87 37/37/37 89/89/89 
f 89/89/89 37/37/37 39/39/39 
f 37/37/37 87/87/87 64/64/64 
f 64/64/64 87/87/87 88/88/88 
f 64/64/64 88/88/88 130/130/130 
f 130/130/130 88/88/88 128/128/128 
f 68/68/68 130/130/130 86/86/86 
f 86/86/86 130/130/130 128/128/128 
f 67/67/67 68/68/68 85/85/85 
f 85/85/85 68/68/68 86/86/86 
# 216 faces

#
# object P159_18A5_R_DaS_P159_18A5_R_E
#

v  -48.4700 110.8175 70.4522
v  -48.4676 110.9361 70.6627
v  -56.6430 110.8055 70.5708
v  -56.6405 110.9241 70.7813
v  -31.8554 110.6940 70.5030
v  -31.8554 110.8127 70.7136
v  -40.1627 110.7558 70.4776
v  -40.1615 110.8744 70.6882
v  -14.7084 109.9848 70.9653
v  -14.7084 110.1035 71.1759
v  -23.2819 110.4952 70.7341
v  -23.2819 110.6138 70.9447
v  2.7146 108.3486 71.6987
v  2.7195 108.4672 71.9117
v  -5.9969 109.3195 71.3320
v  -5.9945 109.4381 71.5438
v  20.2079 104.9598 72.8436
v  20.2175 105.0784 73.0542
v  11.4478 106.8152 72.3205
v  11.4551 106.9338 72.5323
v  37.0854 99.6989 74.8472
v  37.0975 99.8175 75.0578
v  28.6846 102.4013 73.7779
v  28.6955 102.5199 73.9886
v  22.2871 109.7234 63.0381
v  31.0434 106.9132 63.9700
v  22.2266 109.4935 62.9921
v  30.9768 106.6844 63.9240
v  4.1452 113.9763 61.5131
v  13.2161 112.0837 62.2756
v  4.1065 113.7415 61.4647
v  13.1665 111.6175 62.2284
v  -13.9895 116.3000 60.3198
v  -4.9222 115.2910 60.9164
v  -14.0088 116.0652 60.2665
v  -4.9512 114.9034 60.8656
v  -31.6763 117.2828 59.5549
v  -22.8329 116.9471 59.9373
v  -31.6812 117.0480 59.4968
v  -22.8450 116.5566 59.8817
v  -48.4676 117.2755 59.2523
v  -48.4676 117.5103 59.3104
v  -40.0744 117.1617 59.3746
v  -40.0720 117.3965 59.4327
v  -64.8062 116.9608 59.2935
v  -64.8135 117.1956 59.3491
v  -56.6369 117.1181 59.2729
v  -56.6405 117.4293 59.3298
v  -64.8159 110.6408 70.6894
v  -64.8135 110.7594 70.8999
v  39.7271 103.8754 64.8559
v  39.7997 104.1029 64.9019
# 52 vertices

vn 0.0002 -0.8713 0.4907
vn 0.0165 -0.8713 0.4905
vn -0.0207 -0.8711 0.4906
vn -0.0080 -0.8713 0.4908
vn -0.0760 -0.8688 0.4893
vn -0.0759 -0.8688 0.4894
vn -0.0492 -0.8703 0.4901
vn -0.1509 -0.8622 0.4836
vn -0.1509 -0.8622 0.4835
vn -0.1020 -0.8674 0.4870
vn -0.2558 -0.8373 0.4833
vn -0.2551 -0.8375 0.4833
vn -0.1968 -0.8526 0.4842
vn -0.1967 -0.8526 0.4841
vn -0.3235 -0.8164 0.4784
vn -0.3125 -0.8207 0.4783
vn -0.3235 -0.8172 0.4770
vn -0.3126 -0.8207 0.4783
vn 0.1370 0.1582 -0.9779
vn 0.1528 0.1519 -0.9765
vn 0.1372 0.1594 -0.9776
vn 0.1043 0.1835 -0.9775
vn 0.1055 0.0899 -0.9904
vn 0.1041 0.1830 -0.9776
vn 0.1056 0.0897 -0.9904
vn 0.0729 0.2148 -0.9739
vn 0.0822 0.1243 -0.9888
vn 0.0727 0.2126 -0.9744
vn 0.0822 0.1241 -0.9889
vn 0.0342 0.2394 -0.9703
vn 0.0509 0.1409 -0.9887
vn 0.0343 0.2380 -0.9707
vn 0.0508 0.1394 -0.9889
vn 0.0063 0.2395 -0.9709
vn 0.0064 0.2402 -0.9707
vn 0.0174 0.2400 -0.9706
vn -0.0069 0.2304 -0.9731
vn -0.0067 0.1798 -0.9837
vn -0.0075 0.1797 -0.9837
vn -0.0067 0.1803 -0.9836
vn 0.0247 -0.8712 0.4904
vn 0.1518 0.1491 -0.9771
vn 0.1518 0.1490 -0.9771
# 43 vertex normals

vt 0.3867 0.3091 0.0000
vt 0.3867 0.3093 0.0000
vt 0.3721 0.3091 0.0000
vt 0.3721 0.3093 0.0000
vt 0.4164 0.3089 0.0000
vt 0.4164 0.3091 0.0000
vt 0.4015 0.3090 0.0000
vt 0.4015 0.3092 0.0000
vt 0.4470 0.3076 0.0000
vt 0.4470 0.3078 0.0000
vt 0.4317 0.3085 0.0000
vt 0.4317 0.3087 0.0000
vt 0.4780 0.3047 0.0000
vt 0.4781 0.3049 0.0000
vt 0.4625 0.3064 0.0000
vt 0.4625 0.3066 0.0000
vt 0.5093 0.2986 0.0000
vt 0.5093 0.2988 0.0000
vt 0.4936 0.3019 0.0000
vt 0.4936 0.3021 0.0000
vt 0.5394 0.2892 0.0000
vt 0.5394 0.2894 0.0000
vt 0.5244 0.2941 0.0000
vt 0.5244 0.2943 0.0000
vt 0.5145 0.3190 0.0000
vt 0.5303 0.3143 0.0000
vt 0.5146 0.3195 0.0000
vt 0.5304 0.3147 0.0000
vt 0.4815 0.3265 0.0000
vt 0.4980 0.3231 0.0000
vt 0.4816 0.3269 0.0000
vt 0.4983 0.3239 0.0000
vt 0.4486 0.3310 0.0000
vt 0.4651 0.3290 0.0000
vt 0.4486 0.3314 0.0000
vt 0.4652 0.3297 0.0000
vt 0.4168 0.3331 0.0000
vt 0.4326 0.3322 0.0000
vt 0.4168 0.3335 0.0000
vt 0.4327 0.3329 0.0000
vt 0.3868 0.3342 0.0000
vt 0.3868 0.3337 0.0000
vt 0.4018 0.3339 0.0000
vt 0.4018 0.3334 0.0000
vt 0.3576 0.3340 0.0000
vt 0.3576 0.3336 0.0000
vt 0.3722 0.3343 0.0000
vt 0.3722 0.3337 0.0000
vt 0.3575 0.3088 0.0000
vt 0.3575 0.3090 0.0000
vt 0.5459 0.3101 0.0000
vt 0.5458 0.3098 0.0000
# 52 texture coords

g P159_18A5_R_DaS_P159_18A5_R_E
usemtl paint_whiteSG
s 27
f 131/131/131 132/132/131 133/133/132 
f 133/133/132 132/132/131 134/134/132 
f 135/135/133 136/136/133 137/137/134 
f 137/137/134 136/136/133 138/138/134 
f 139/139/135 140/140/136 141/141/137 
f 141/141/137 140/140/136 142/142/137 
f 143/143/138 144/144/139 145/145/140 
f 145/145/140 144/144/139 146/146/140 
f 147/147/141 148/148/142 149/149/143 
f 149/149/143 148/148/142 150/150/144 
s off
f 151/151/145 152/152/145 153/153/145 
s 27
f 153/153/146 152/152/147 154/154/148 
s 33
f 155/155/149 156/156/150 157/157/151 
f 157/157/151 156/156/150 158/158/150 
f 159/159/152 160/160/153 161/161/154 
f 161/161/154 160/160/153 162/162/155 
f 163/163/156 164/164/157 165/165/158 
f 165/165/158 164/164/157 166/166/159 
f 167/167/160 168/168/161 169/169/162 
f 169/169/162 168/168/161 170/170/163 
f 171/171/164 172/172/165 173/173/166 
f 173/173/166 172/172/165 174/174/166 
s off
f 175/175/167 176/176/167 177/177/167 
s 33
f 177/177/168 176/176/169 178/178/170 
s 27
f 133/133/132 134/134/132 179/179/171 
f 179/179/171 134/134/132 180/180/171 
f 137/137/134 138/138/134 131/131/131 
f 131/131/131 138/138/134 132/132/131 
f 142/142/137 136/136/133 141/141/137 
f 141/141/137 136/136/133 135/135/133 
f 145/145/140 146/146/140 139/139/135 
f 139/139/135 146/146/140 140/140/136 
f 149/149/143 150/150/144 143/143/138 
f 143/143/138 150/150/144 144/144/139 
f 153/153/146 154/154/148 147/147/141 
f 147/147/141 154/154/148 148/148/142 
s 33
f 158/158/150 156/156/150 181/181/172 
f 181/181/172 156/156/150 182/182/173 
f 160/160/153 155/155/149 162/162/155 
f 162/162/155 155/155/149 157/157/151 
f 164/164/157 159/159/152 166/166/159 
f 166/166/159 159/159/152 161/161/154 
f 170/170/163 168/168/161 165/165/158 
f 165/165/158 168/168/161 163/163/156 
f 173/173/166 174/174/166 169/169/162 
f 169/169/162 174/174/166 167/167/160 
f 177/177/168 178/178/170 171/171/164 
f 171/171/164 178/178/170 172/172/165 
# 48 faces

