# 3ds Max Wavefront OBJ Exporter v0.97b - (c)2007 guruware
# File Created: 04.12.2015 16:11:26

mtllib P159_265B_R.mtl

#
# object P159_265B_R_DTaSI_P159_265B_R
#

v  71.7130 70.0778 89.8452
v  69.3657 65.1840 92.4373
v  76.8000 67.9607 90.7520
v  76.7899 62.5769 93.2859
v  59.3233 68.0135 91.3021
v  62.0112 74.4932 87.8683
v  46.3212 71.6097 89.7771
v  48.9073 80.0449 85.2952
v  33.6765 74.6849 88.4699
v  35.4868 85.0020 83.0752
v  20.1417 77.3431 87.4682
v  21.5773 88.9611 81.4926
v  5.3063 79.5405 86.7303
v  6.0014 91.8202 80.4940
v  67.6657 57.8873 95.5437
v  76.7758 56.3918 95.9670
v  67.5414 50.2097 98.4941
v  76.7613 49.3359 98.6683
v  29.6697 54.2036 97.3612
v  32.7057 63.6098 93.4285
v  22.9443 54.8208 97.2414
v  19.5816 65.4161 92.8342
v  5.0759 67.0185 92.4161
v  8.7902 56.0384 97.0563
v  16.2188 55.4381 97.1216
v  -15.0037 57.7739 96.9256
v  -6.8211 57.2063 96.9582
v  -10.9124 68.3510 92.1238
v  -22.5013 94.4208 79.3839
v  -19.8741 81.7061 85.8886
v  -10.6585 93.6344 79.8099
v  -10.8479 81.1299 86.1986
v  -17.1894 68.7946 92.0336
v  75.4033 73.2121 87.9042
v  69.0906 77.0583 86.0053
v  75.4106 73.3282 88.1148
v  69.0991 77.1757 86.2171
v  62.7778 80.9045 84.1064
v  56.2339 84.5002 82.3830
v  62.7875 81.0231 84.3194
v  56.2436 84.6176 82.5948
v  49.6900 88.0959 80.6595
v  42.6140 91.5403 79.1071
v  49.6997 88.2121 80.8701
v  42.6225 91.6564 79.3189
v  35.4354 94.7282 77.6436
v  27.5010 97.4620 76.5607
v  35.4427 94.8444 77.8566
v  27.5083 97.5770 76.7737
v  19.3800 99.9057 75.6248
v  10.8970 101.4742 75.0925
v  19.3873 100.0195 75.8378
v  10.9031 101.5867 75.3067
v  -14.7786 104.5895 73.8845
v  -14.7786 104.7008 74.0975
v  -6.1817 103.7977 74.2227
v  -6.1793 103.9090 74.4369
v  2.4169 102.9266 74.6155
v  2.4218 103.0379 74.8309
v  -24.7391 105.1486 73.5553
v  -24.7391 105.2624 73.7707
v  -17.1943 68.6953 91.8134
v  -15.0092 57.6720 96.7015
v  16.2140 55.3412 96.8989
v  1.3549 56.5398 96.7654
v  8.7841 55.9415 96.8348
v  1.3615 56.6386 96.9909
v  29.6649 54.1092 97.1385
v  22.9394 54.7252 97.0187
v  35.7698 53.4924 97.3369
v  35.7419 53.5899 97.5585
v  47.8790 52.2330 97.7418
v  47.8841 52.3260 97.9657
v  41.8111 52.8820 97.5331
v  41.8136 52.9764 97.7558
v  67.5390 50.1226 98.2690
v  60.7627 50.8511 98.1104
v  60.7664 50.9407 98.3355
v  76.7564 49.2463 98.4432
v  76.7702 56.2990 95.7451
v  76.7994 72.3114 88.3332
v  76.8099 72.4208 88.5487
v  44.9997 61.5980 94.2239
v  57.8349 59.3789 95.0649
v  53.9913 51.6717 98.1770
v  53.9864 51.5797 97.9519
v  -6.8272 57.1047 96.7277
v  76.7905 67.8557 90.5352
v  76.7816 62.4777 93.0664
# 89 vertices

vn 0.0264 0.4576 0.8888
vn 0.0241 0.4154 0.9093
vn 0.0364 0.4380 0.8982
vn 0.0323 0.4025 0.9149
vn 0.0153 0.4266 0.9043
vn 0.0262 0.4653 0.8848
vn 0.0133 0.4335 0.9011
vn 0.0251 0.4668 0.8840
vn 0.0167 0.4346 0.9005
vn 0.0272 0.4630 0.8860
vn 0.0203 0.4336 0.9009
vn 0.0283 0.4573 0.8888
vn 0.0177 0.4342 0.9006
vn 0.0201 0.4542 0.8907
vn 0.0166 0.3751 0.9268
vn 0.0186 0.3742 0.9272
vn 0.0162 0.3582 0.9335
vn 0.0162 0.3575 0.9338
vn 0.0144 0.3817 0.9242
vn 0.0095 0.3976 0.9175
vn 0.0152 0.3865 0.9222
vn 0.0161 0.4013 0.9158
vn 0.0179 0.4064 0.9135
vn 0.0202 0.3935 0.9191
vn 0.0216 0.3885 0.9212
vn 0.0224 0.4061 0.9136
vn 0.0203 0.4024 0.9152
vn 0.0162 0.4124 0.9109
vn -0.0020 0.4570 0.8895
vn -0.0024 0.4450 0.8955
vn 0.0064 0.4560 0.8899
vn 0.0081 0.4393 0.8983
vn 0.0107 0.4187 0.9081
vn 0.5647 0.7142 -0.4135
vn 0.5612 0.7142 -0.4183
vn 0.5647 0.7144 -0.4133
vn 0.5400 0.7247 -0.4280
vn 0.5190 0.7373 -0.4324
vn 0.5401 0.7247 -0.4280
vn 0.4937 0.7517 -0.4373
vn 0.4535 0.7736 -0.4425
vn 0.4535 0.7737 -0.4425
vn 0.3907 0.8025 -0.4510
vn 0.3246 0.8277 -0.4579
vn 0.3902 0.8027 -0.4511
vn 0.3243 0.8278 -0.4578
vn 0.2468 0.8512 -0.4631
vn 0.1820 0.8683 -0.4615
vn 0.2464 0.8514 -0.4631
vn 0.1820 0.8684 -0.4613
vn 0.0810 0.8833 -0.4617
vn 0.0809 0.8833 -0.4617
vn 0.1049 0.8819 -0.4596
vn 0.1426 0.8780 -0.4570
vn 0.1427 0.8780 -0.4570
vn 0.0649 0.8825 -0.4659
vn 0.0649 0.8825 -0.4658
vn -0.9836 -0.1597 0.0843
vn -0.9832 -0.1574 0.0925
vn -0.9827 -0.1598 0.0936
vn -0.9837 -0.1533 0.0939
vn -0.9837 -0.1534 0.0939
vn -0.0838 -0.9131 0.3989
vn -0.0772 -0.9127 0.4012
vn -0.0838 -0.9132 0.3989
vn -0.0772 -0.9123 0.4021
vn -0.0976 -0.9155 0.3902
vn -0.0977 -0.9155 0.3903
vn -0.0909 -0.9144 0.3946
vn -0.0909 -0.9143 0.3947
vn -0.1051 -0.9150 0.3895
vn -0.1113 -0.9169 0.3834
vn -0.1083 -0.9149 0.3888
vn -0.1083 -0.9149 0.3889
vn -0.1004 -0.9275 0.3602
vn -0.1081 -0.9232 0.3689
vn -0.1081 -0.9231 0.3691
vn -0.0949 -0.9242 0.3698
vn -0.0949 -0.9243 0.3697
vn 0.9997 -0.0101 -0.0210
vn 0.9998 -0.0089 -0.0180
vn 0.5829 0.7119 -0.3917
vn 0.5831 0.7126 -0.3901
vn 0.0057 0.3930 0.9195
vn 0.0092 0.3848 0.9229
vn 0.0054 0.3812 0.9245
vn 0.0081 0.3765 0.9264
vn 0.0119 0.3693 0.9292
vn 0.0058 0.3750 0.9270
vn 0.0142 0.3637 0.9314
vn 0.0228 0.4456 0.8949
vn 0.0137 0.4577 0.8890
vn 0.0263 0.4664 0.8842
vn 0.0284 0.4743 0.8799
vn 0.0276 0.4748 0.8797
vn 0.0289 0.4694 0.8825
vn 0.0343 0.4735 0.8801
vn 0.0369 0.4604 0.8870
vn 0.0326 0.4664 0.8839
vn 0.0300 0.4594 0.8877
vn 0.0287 0.4576 0.8887
vn 0.0066 0.4611 0.8873
vn 0.0007 0.4594 0.8882
vn -0.0032 0.4592 0.8883
vn 0.0239 0.3960 0.9179
vn 0.0156 0.4563 0.8897
vn -0.1097 -0.9193 0.3779
vn -0.1097 -0.9193 0.3780
vn -0.0649 -0.9126 0.4036
vn -0.0643 -0.9079 0.4142
vn -0.0649 -0.9126 0.4037
vn -0.0643 -0.9078 0.4144
vn -0.0649 -0.9132 0.4022
vn 0.9992 -0.0187 -0.0349
vn 0.9994 -0.0158 -0.0306
vn 0.9992 -0.0187 -0.0348
vn 0.9994 -0.0157 -0.0304
vn 0.9997 -0.0110 -0.0210
vn 0.9997 -0.0109 -0.0207
vn 0.9991 -0.0210 -0.0380
vn 0.9991 -0.0210 -0.0379
# 121 vertex normals

vt 0.1926 0.9155 0.0000
vt 0.1995 0.9339 0.0000
vt 0.1756 0.9225 0.0000
vt 0.1749 0.9420 0.0000
vt 0.2328 0.9251 0.0000
vt 0.2249 0.9008 0.0000
vt 0.2758 0.9137 0.0000
vt 0.2686 0.8822 0.0000
vt 0.3176 0.9042 0.0000
vt 0.3131 0.8659 0.0000
vt 0.3622 0.8965 0.0000
vt 0.3592 0.8536 0.0000
vt 0.4111 0.8907 0.0000
vt 0.4105 0.8455 0.0000
vt 0.2042 0.9601 0.0000
vt 0.1742 0.9641 0.0000
vt 0.2037 0.9871 0.0000
vt 0.1735 0.9888 0.0000
vt 0.3282 0.9779 0.0000
vt 0.3194 0.9442 0.0000
vt 0.3502 0.9767 0.0000
vt 0.3625 0.9395 0.0000
vt 0.4102 0.9358 0.0000
vt 0.3967 0.9744 0.0000
vt 0.3723 0.9755 0.0000
vt 0.4747 0.9718 0.0000
vt 0.4479 0.9726 0.0000
vt 0.4627 0.9332 0.0000
vt 0.5042 0.8395 0.0000
vt 0.4938 0.8860 0.0000
vt 0.4653 0.8410 0.0000
vt 0.4641 0.8870 0.0000
vt 0.4833 0.9325 0.0000
vt 0.1810 0.9031 0.0000
vt 0.2022 0.8898 0.0000
vt 0.1809 0.9030 0.0000
vt 0.2021 0.8897 0.0000
vt 0.2234 0.8765 0.0000
vt 0.2453 0.8641 0.0000
vt 0.2233 0.8764 0.0000
vt 0.2452 0.8641 0.0000
vt 0.2672 0.8518 0.0000
vt 0.2909 0.8403 0.0000
vt 0.2908 0.8402 0.0000
vt 0.3148 0.8296 0.0000
vt 0.3411 0.8209 0.0000
vt 0.3147 0.8295 0.0000
vt 0.3410 0.8208 0.0000
vt 0.3680 0.8132 0.0000
vt 0.3959 0.8088 0.0000
vt 0.3679 0.8132 0.0000
vt 0.3959 0.8087 0.0000
vt 0.4804 0.8008 0.0000
vt 0.4521 0.8026 0.0000
vt 0.4239 0.8048 0.0000
vt 0.4238 0.8047 0.0000
vt 0.5131 0.7999 0.0000
vt 0.5131 0.7998 0.0000
vt 0.4748 0.9718 0.0000
vt 0.3724 0.9755 0.0000
vt 0.4211 0.9734 0.0000
vt 0.4210 0.9734 0.0000
vt 0.3503 0.9767 0.0000
vt 0.3081 0.9793 0.0000
vt 0.3082 0.9793 0.0000
vt 0.2684 0.9823 0.0000
vt 0.2683 0.9823 0.0000
vt 0.2883 0.9807 0.0000
vt 0.2882 0.9808 0.0000
vt 0.2038 0.9870 0.0000
vt 0.2260 0.9854 0.0000
vt 0.1743 0.9641 0.0000
vt 0.1763 0.9062 0.0000
vt 0.1762 0.9062 0.0000
vt 0.2789 0.9498 0.0000
vt 0.2366 0.9561 0.0000
vt 0.2482 0.9838 0.0000
vt 0.2483 0.9838 0.0000
vt 0.1757 0.9225 0.0000
vt 0.1750 0.9420 0.0000
# 80 texture coords

g P159_265B_R_DTaSI_P159_265B_R
usemtl windowglass_1SG
s 1
f 1/1/1 2/2/2 3/3/3 
f 3/3/3 2/2/2 4/4/4 
f 2/2/2 1/1/1 5/5/5 
f 5/5/5 1/1/1 6/6/6 
f 7/7/7 8/8/8 9/9/9 
f 9/9/9 8/8/8 10/10/10 
f 11/11/11 12/12/12 13/13/13 
f 13/13/13 12/12/12 14/14/14 
f 2/2/2 15/15/15 4/4/4 
f 4/4/4 15/15/15 16/16/16 
f 15/15/15 17/17/17 16/16/16 
f 16/16/16 17/17/17 18/18/18 
f 19/19/19 20/20/20 21/21/21 
f 21/21/21 20/20/20 22/22/22 
f 23/23/23 24/24/24 22/22/22 
f 22/22/22 24/24/24 25/25/25 
f 22/22/22 11/11/11 23/23/23 
f 23/23/23 11/11/11 13/13/13 
f 26/26/26 27/27/27 28/28/28 
f 29/29/29 30/30/30 31/31/31 
f 31/31/31 30/30/30 32/32/32 
f 33/33/33 26/26/26 28/28/28 
s 8
f 34/34/34 35/35/35 36/36/36 
f 36/36/36 35/35/35 37/37/35 
f 38/38/37 39/39/38 40/40/39 
f 40/40/39 39/39/38 41/41/38 
f 42/42/40 43/43/41 44/42/40 
f 44/42/40 43/43/41 45/44/42 
f 46/45/43 47/46/44 48/47/45 
f 48/47/45 47/46/44 49/48/46 
f 50/49/47 51/50/48 52/51/49 
f 52/51/49 51/50/48 53/52/50 
f 54/53/51 55/53/52 56/54/53 
f 56/54/53 55/53/52 57/54/53 
f 58/55/54 56/54/53 59/56/55 
f 59/56/55 56/54/53 57/54/53 
f 60/57/56 61/58/57 54/53/51 
f 54/53/51 61/58/57 55/53/52 
s off
f 60/57/58 30/30/58 61/58/58 
s 14
f 62/33/59 33/33/59 30/30/60 
f 63/59/61 26/26/62 62/33/59 
f 62/33/59 26/26/62 33/33/59 
s 15
f 25/25/63 24/24/64 64/60/65 
f 65/61/66 66/24/64 67/62/66 
f 67/62/66 66/24/64 24/24/64 
f 68/19/67 19/19/68 69/63/69 
f 69/63/69 19/19/68 21/21/70 
f 70/64/71 71/65/71 68/19/67 
f 68/19/67 71/65/71 19/19/68 
f 72/66/72 73/67/72 74/68/73 
f 74/68/73 73/67/72 75/69/74 
f 76/70/75 17/17/75 77/71/76 
f 77/71/76 17/17/75 78/71/77 
f 79/18/78 18/18/79 76/70/75 
f 76/70/75 18/18/79 17/17/75 
s 21
f 16/16/80 18/18/81 80/72/80 
f 80/72/80 18/18/81 79/18/81 
s 8
f 34/34/34 36/36/36 81/73/82 
f 81/73/82 36/36/36 82/74/83 
s 1
f 12/12/12 11/11/11 10/10/10 
f 10/10/10 11/11/11 9/9/9 
f 8/8/8 7/7/7 6/6/6 
f 6/6/6 7/7/7 5/5/5 
f 30/30/30 33/33/33 32/32/32 
f 32/32/32 33/33/33 28/28/28 
s 15
f 64/60/65 24/24/64 66/24/64 
s 8
f 58/55/54 53/52/50 51/50/48 
f 46/45/43 45/44/42 43/43/41 
f 42/42/40 41/41/38 39/39/38 
s 1
f 7/7/7 83/75/84 5/5/5 
f 5/5/5 83/75/84 84/76/85 
f 15/15/15 2/2/2 84/76/85 
f 84/76/85 2/2/2 5/5/5 
f 20/20/20 71/65/86 83/75/84 
f 83/75/84 71/65/86 75/69/87 
f 85/77/88 84/76/85 73/67/89 
f 73/67/89 84/76/85 83/75/84 
f 84/76/85 78/71/90 15/15/15 
f 15/15/15 78/71/90 17/17/17 
f 20/20/20 9/9/9 22/22/22 
f 22/22/22 9/9/9 11/11/11 
f 83/75/84 7/7/7 20/20/20 
f 20/20/20 7/7/7 9/9/9 
f 1/1/1 82/74/91 36/36/92 
f 37/37/93 1/1/1 36/36/92 
f 8/8/8 6/6/6 41/41/94 
f 41/41/94 6/6/6 40/40/95 
f 10/10/10 8/8/8 45/44/96 
f 45/44/96 8/8/8 44/42/97 
f 49/48/98 12/12/12 48/47/99 
f 48/47/99 12/12/12 10/10/10 
f 12/12/12 52/51/100 14/14/14 
f 14/14/14 52/51/100 53/52/101 
f 31/31/31 57/54/102 55/53/103 
f 61/58/104 29/29/29 55/53/103 
f 55/53/103 29/29/29 31/31/31 
f 67/62/105 23/23/23 27/27/27 
f 27/27/27 23/23/23 28/28/28 
f 32/32/32 28/28/28 13/13/13 
f 13/13/13 28/28/28 23/23/23 
f 31/31/31 32/32/32 14/14/14 
f 14/14/14 32/32/32 13/13/13 
f 57/54/102 31/31/31 59/56/106 
f 59/56/106 31/31/31 14/14/14 
s 8
f 58/55/54 59/56/55 53/52/50 
s 1
f 14/14/14 53/52/101 59/56/106 
f 24/24/24 23/23/23 67/62/105 
s 8
f 44/42/40 41/41/38 42/42/40 
s 1
f 44/42/97 8/8/8 41/41/94 
f 75/69/87 73/67/89 83/75/84 
f 52/51/100 12/12/12 49/48/98 
f 25/25/25 21/21/21 22/22/22 
s 15
f 69/63/69 21/21/70 64/60/65 
f 64/60/65 21/21/70 25/25/63 
s 8
f 38/38/37 40/40/39 35/35/35 
f 35/35/35 40/40/39 37/37/35 
s 1
f 6/6/6 37/37/93 40/40/95 
f 78/71/90 84/76/85 85/77/88 
s 8
f 48/47/45 45/44/42 46/45/43 
s 1
f 10/10/10 45/44/96 48/47/99 
f 71/65/86 20/20/20 19/19/19 
s 8
f 47/46/44 50/49/47 49/48/46 
f 49/48/46 50/49/47 52/51/49 
s 15
f 77/71/76 78/71/77 86/78/107 
f 86/78/107 78/71/77 85/77/108 
s 25
f 27/27/109 26/26/110 87/27/111 
f 87/27/111 26/26/110 63/59/112 
f 67/62/113 27/27/109 65/61/113 
f 65/61/113 27/27/109 87/27/111 
s 15
f 74/68/73 75/69/74 70/64/71 
f 70/64/71 75/69/74 71/65/71 
f 85/77/108 73/67/72 86/78/107 
f 86/78/107 73/67/72 72/66/72 
s 26
f 3/3/114 4/4/115 88/79/116 
f 88/79/116 4/4/115 89/80/117 
f 4/4/115 16/16/118 89/80/117 
f 89/80/117 16/16/118 80/72/119 
f 82/74/120 3/3/114 81/73/121 
f 81/73/121 3/3/114 88/79/116 
s 1
f 3/3/3 82/74/91 1/1/1 
f 6/6/6 1/1/1 37/37/93 
# 141 faces

