# 3ds Max Wavefront OBJ Exporter v0.97b - (c)2007 guruware
# File Created: 04.12.2015 17:15:18

mtllib P615_5A_50DB_R.mtl

#
# object P615_5A_50DB_R_1_DTaSI_P615_5A_50DB_R
#

v  -272.5932 71.7898 13.5153
v  -271.4765 79.4827 13.3226
v  -272.6741 72.0575 10.6331
v  -271.5391 79.4750 10.4342
v  -260.7105 113.8087 10.8203
v  -263.7463 106.4967 12.7508
v  -260.2337 114.6221 12.4696
v  -262.0698 110.8007 9.9985
v  -263.6908 106.5354 10.2603
v  -262.5604 106.6716 56.0581
v  -262.4090 106.7033 59.7459
v  -261.1163 110.3670 59.1603
v  -259.8708 113.6385 57.3020
v  -259.2988 114.6136 55.8109
v  -271.8029 69.6118 62.1760
v  -271.5266 71.8419 57.7059
v  -271.8696 69.1424 61.1677
v  -265.6862 98.1669 48.6439
v  -265.9676 98.1262 38.9814
v  -268.1477 89.1785 48.6615
v  -268.4429 88.9981 39.0200
v  -262.7397 106.7325 48.6287
v  -263.0622 106.7009 38.9485
v  -259.2980 114.7774 48.6142
v  -266.2049 98.0833 29.1607
v  -268.7086 88.8836 29.1990
v  -263.3349 106.5734 29.1264
v  -266.4102 98.0437 20.1470
v  -268.9162 88.7762 20.2016
v  -263.5206 106.4873 20.0977
v  -266.5377 98.0132 12.8506
v  -269.2660 88.7917 13.0897
v  -266.5852 98.0000 10.4217
v  -269.3290 88.8085 10.4517
v  -265.2716 98.2151 60.8208
v  -265.4103 98.1960 56.4640
v  -271.1078 79.4593 20.2592
v  -270.9192 79.4994 29.2385
v  -270.6975 79.6161 39.0648
v  -270.3967 79.7190 48.6803
v  -267.7902 89.4362 56.8982
v  -267.6990 89.2381 61.8583
v  -261.4208 112.2633 10.0094
v  -260.3658 112.1411 58.4404
v  -272.4693 71.6990 20.3006
v  -259.9911 114.7985 20.0498
v  -272.2645 71.6870 29.2714
v  -259.7623 114.8886 29.0940
v  -272.0175 71.7623 39.0936
v  -259.5333 114.8759 38.9163
v  -271.7636 71.8053 48.6938
v  -270.0992 80.0230 57.3545
v  -269.8091 80.1243 62.7132
v  -272.9118 68.7665 20.3170
v  -273.0270 68.8858 13.5917
v  -272.7068 68.7329 29.2815
v  -272.4585 68.7928 39.1040
v  -272.2346 68.8092 48.7057
v  -271.9776 68.8465 57.7788
v  -272.8929 70.2406 11.4929
v  -272.7885 71.1116 10.9797
v  -273.0097 69.3142 12.3934
v  -271.5115 71.4726 63.3103
v  -271.6987 70.1340 62.7218
# 64 vertices

vn -0.9887 0.1477 0.0243
vn -0.9794 0.1995 0.0294
vn -0.9885 0.1491 0.0247
vn -0.9795 0.1994 0.0300
vn -0.9173 0.3976 0.0193
vn -0.9336 0.3576 0.0212
vn -0.9155 0.4019 0.0191
vn -0.9241 0.3816 0.0200
vn -0.9335 0.3580 0.0214
vn -0.9340 0.3562 0.0286
vn -0.9344 0.3546 0.0339
vn -0.9264 0.3753 0.0302
vn -0.9187 0.3939 0.0268
vn -0.9161 0.4000 0.0256
vn -0.9875 0.1564 0.0215
vn -0.9867 0.1605 0.0254
vn -0.9877 0.1545 0.0222
vn -0.9558 0.2927 0.0287
vn -0.9561 0.2920 0.0246
vn -0.9683 0.2481 0.0286
vn -0.9688 0.2468 0.0238
vn -0.9333 0.3581 0.0270
vn -0.9330 0.3589 0.0246
vn -0.9157 0.4012 0.0255
vn -0.9565 0.2909 0.0205
vn -0.9690 0.2461 0.0209
vn -0.9334 0.3582 0.0201
vn -0.9550 0.2955 0.0239
vn -0.9685 0.2476 0.0278
vn -0.9336 0.3577 0.0206
vn -0.9548 0.2961 0.0251
vn -0.9684 0.2476 0.0295
vn -0.9548 0.2963 0.0255
vn -0.9684 0.2477 0.0301
vn -0.9559 0.2916 0.0359
vn -0.9561 0.2914 0.0307
vn -0.9794 0.1998 0.0279
vn -0.9790 0.2028 0.0213
vn -0.9789 0.2030 0.0238
vn -0.9784 0.2048 0.0266
vn -0.9681 0.2486 0.0325
vn -0.9680 0.2481 0.0373
vn -0.9208 0.3896 0.0196
vn -0.9223 0.3855 0.0283
vn -0.9887 0.1482 0.0239
vn -0.9155 0.4019 0.0190
vn -0.9878 0.1538 0.0230
vn -0.9164 0.3998 0.0206
vn -0.9879 0.1530 0.0239
vn -0.9157 0.4012 0.0243
vn -0.9876 0.1554 0.0237
vn -0.9774 0.2093 0.0309
vn -0.9760 0.2154 0.0322
vn -0.9901 0.1388 0.0226
vn -0.9902 0.1377 0.0229
vn -0.9891 0.1456 0.0236
vn -0.9891 0.1451 0.0237
vn -0.9888 0.1472 0.0231
vn -0.9887 0.1483 0.0239
vn -0.9897 0.1416 0.0236
vn -0.9893 0.1442 0.0240
vn -0.9901 0.1388 0.0231
vn -0.9857 0.1669 0.0221
vn -0.9870 0.1591 0.0214
# 64 vertex normals

vt 0.9436 0.1784 0.0000
vt 0.9448 0.1520 0.0000
vt 0.9535 0.1777 0.0000
vt 0.9546 0.1523 0.0000
vt 0.9555 0.0297 0.0000
vt 0.9485 0.0565 0.0000
vt 0.9499 0.0264 0.0000
vt 0.9581 0.0410 0.0000
vt 0.9569 0.0565 0.0000
vt 0.8011 0.0522 0.0000
vt 0.7886 0.0517 0.0000
vt 0.7908 0.0385 0.0000
vt 0.7973 0.0267 0.0000
vt 0.8024 0.0230 0.0000
vt 0.7778 0.1817 0.0000
vt 0.7932 0.1745 0.0000
vt 0.7812 0.1834 0.0000
vt 0.8258 0.0833 0.0000
vt 0.8587 0.0843 0.0000
vt 0.8252 0.1150 0.0000
vt 0.8580 0.1165 0.0000
vt 0.8264 0.0526 0.0000
vt 0.8593 0.0535 0.0000
vt 0.8269 0.0228 0.0000
vt 0.8921 0.0853 0.0000
vt 0.8914 0.1177 0.0000
vt 0.8927 0.0548 0.0000
vt 0.9228 0.0862 0.0000
vt 0.9220 0.1188 0.0000
vt 0.9235 0.0558 0.0000
vt 0.9476 0.0869 0.0000
vt 0.9462 0.1195 0.0000
vt 0.9558 0.0871 0.0000
vt 0.9552 0.1197 0.0000
vt 0.7844 0.0820 0.0000
vt 0.7993 0.0825 0.0000
vt 0.9212 0.1514 0.0000
vt 0.8906 0.1505 0.0000
vt 0.8572 0.1493 0.0000
vt 0.8245 0.1481 0.0000
vt 0.7972 0.1133 0.0000
vt 0.7803 0.1136 0.0000
vt 0.9582 0.0355 0.0000
vt 0.7934 0.0320 0.0000
vt 0.9205 0.1782 0.0000
vt 0.9241 0.0251 0.0000
vt 0.8900 0.1775 0.0000
vt 0.8933 0.0240 0.0000
vt 0.8565 0.1764 0.0000
vt 0.8599 0.0233 0.0000
vt 0.8238 0.1754 0.0000
vt 0.7950 0.1463 0.0000
vt 0.7768 0.1454 0.0000
vt 0.9202 0.1883 0.0000
vt 0.9432 0.1884 0.0000
vt 0.8897 0.1877 0.0000
vt 0.8562 0.1866 0.0000
vt 0.8236 0.1857 0.0000
vt 0.7927 0.1848 0.0000
vt 0.9504 0.1839 0.0000
vt 0.9522 0.1810 0.0000
vt 0.9473 0.1870 0.0000
vt 0.7741 0.1753 0.0000
vt 0.7760 0.1799 0.0000
# 64 texture coords

g P615_5A_50DB_R_1_DTaSI_P615_5A_50DB_R
usemtl windowglass_1SG
s 1
f 1/1/1 2/2/2 3/3/3 
f 3/3/3 2/2/2 4/4/4 
f 5/5/5 6/6/6 7/7/7 
f 6/6/6 8/8/8 9/9/9 
f 10/10/10 11/11/11 12/12/12 
f 10/10/10 13/13/13 14/14/14 
f 15/15/15 16/16/16 17/17/17 
f 18/18/18 19/19/19 20/20/20 
f 20/20/20 19/19/19 21/21/21 
f 22/22/22 23/23/23 18/18/18 
f 18/18/18 23/23/23 19/19/19 
f 24/24/24 22/22/22 14/14/14 
f 14/14/14 22/22/22 10/10/10 
f 19/19/19 25/25/25 21/21/21 
f 21/21/21 25/25/25 26/26/26 
f 23/23/23 27/27/27 19/19/19 
f 19/19/19 27/27/27 25/25/25 
f 25/25/25 28/28/28 26/26/26 
f 26/26/26 28/28/28 29/29/29 
f 27/27/27 30/30/30 25/25/25 
f 25/25/25 30/30/30 28/28/28 
f 31/31/31 32/32/32 28/28/28 
f 28/28/28 32/32/32 29/29/29 
f 31/31/31 28/28/28 6/6/6 
f 6/6/6 28/28/28 30/30/30 
f 33/33/33 34/34/34 31/31/31 
f 31/31/31 34/34/34 32/32/32 
f 9/9/9 33/33/33 6/6/6 
f 6/6/6 33/33/33 31/31/31 
f 35/35/35 11/11/11 36/36/36 
f 36/36/36 11/11/11 10/10/10 
f 34/34/34 4/4/4 32/32/32 
f 32/32/32 4/4/4 2/2/2 
f 32/32/32 2/2/2 29/29/29 
f 29/29/29 2/2/2 37/37/37 
f 37/37/37 38/38/38 29/29/29 
f 29/29/29 38/38/38 26/26/26 
f 38/38/38 39/39/39 26/26/26 
f 26/26/26 39/39/39 21/21/21 
f 39/39/39 40/40/40 21/21/21 
f 21/21/21 40/40/40 20/20/20 
f 36/36/36 41/41/41 35/35/35 
f 35/35/35 41/41/41 42/42/42 
f 6/6/6 5/5/5 43/43/43 
f 10/10/10 12/12/12 44/44/44 
f 10/10/10 44/44/44 13/13/13 
f 6/6/6 43/43/43 8/8/8 
f 45/45/45 37/37/37 1/1/1 
f 1/1/1 37/37/37 2/2/2 
f 46/46/46 7/7/7 30/30/30 
f 30/30/30 7/7/7 6/6/6 
f 38/38/38 37/37/37 47/47/47 
f 47/47/47 37/37/37 45/45/45 
f 30/30/30 27/27/27 46/46/46 
f 46/46/46 27/27/27 48/48/48 
f 39/39/39 38/38/38 49/49/49 
f 49/49/49 38/38/38 47/47/47 
f 27/27/27 23/23/23 48/48/48 
f 48/48/48 23/23/23 50/50/50 
f 40/40/40 39/39/39 51/51/51 
f 51/51/51 39/39/39 49/49/49 
f 36/36/36 18/18/18 41/41/41 
f 41/41/41 18/18/18 20/20/20 
f 22/22/22 18/18/18 10/10/10 
f 10/10/10 18/18/18 36/36/36 
f 23/23/23 22/22/22 50/50/50 
f 50/50/50 22/22/22 24/24/24 
f 41/41/41 52/52/52 42/42/42 
f 42/42/42 52/52/52 53/53/53 
f 54/54/54 45/45/45 55/55/55 
f 55/55/55 45/45/45 1/1/1 
f 56/56/56 47/47/47 54/54/54 
f 54/54/54 47/47/47 45/45/45 
f 49/49/49 47/47/47 57/57/57 
f 57/57/57 47/47/47 56/56/56 
f 51/51/51 49/49/49 58/58/58 
f 58/58/58 49/49/49 57/57/57 
f 51/51/51 58/58/58 16/16/16 
f 16/16/16 58/58/58 59/59/59 
f 60/60/60 1/1/1 61/61/61 
f 61/61/61 1/1/1 3/3/3 
f 62/62/62 55/55/55 1/1/1 
f 62/62/62 1/1/1 60/60/60 
f 63/63/63 53/53/53 16/16/16 
f 16/16/16 53/53/53 52/52/52 
f 63/63/63 16/16/16 64/64/64 
f 64/64/64 16/16/16 15/15/15 
f 17/17/17 16/16/16 59/59/59 
f 41/41/41 20/20/20 52/52/52 
f 52/52/52 20/20/20 40/40/40 
f 52/52/52 40/40/40 16/16/16 
f 16/16/16 40/40/40 51/51/51 
# 92 faces

#
# object P615_5A_50DB_R_P615_5A_50DB_R_2_DTaSI
#

v  -272.3257 65.2643 63.0158
v  -271.8696 69.1424 61.1677
v  -272.4770 65.1108 57.8797
v  -271.9776 68.8465 57.7788
v  -271.9243 64.8439 63.1400
v  -272.2218 64.6887 57.8354
v  -271.8029 69.6118 62.1760
v  -272.2232 65.9076 65.7502
v  -271.6693 65.3674 66.1674
v  -271.7027 66.3154 67.6541
v  -272.0854 66.6906 66.9881
v  -271.4248 67.4999 68.4267
v  -271.9353 67.6604 67.8374
v  -271.7802 68.8663 68.2406
v  -271.6987 70.1340 62.7218
v  -271.5115 71.4726 63.3103
v  -271.3743 68.9974 68.7778
v  -271.4261 71.5965 68.3311
v  -271.0375 72.1491 68.8198
v  -269.6455 80.3325 67.9870
v  -269.8091 80.1243 62.7132
v  -269.5326 80.1449 68.4478
v  -267.5799 88.5981 67.1290
v  -267.6990 89.2381 61.8583
v  -267.6545 88.6082 67.6177
v  -265.0487 98.3096 65.9908
v  -265.2716 98.2151 60.8208
v  -264.8521 98.1776 66.4356
v  -262.1997 106.6755 64.8332
v  -262.4090 106.7033 59.7459
v  -261.9118 106.4094 65.2697
v  -261.1163 110.3670 59.1603
v  -258.9036 114.8024 63.3329
v  -260.3658 112.1411 58.4404
v  -258.1142 116.5328 62.5752
v  -258.4294 114.8727 63.8504
v  -259.2988 114.6136 55.8109
v  -259.8708 113.6385 57.3020
v  -257.2050 118.7065 60.4651
v  -257.4148 118.2216 61.2002
v  -257.4150 116.8413 62.9049
v  -257.0816 117.7432 62.3420
v  -257.7195 117.5011 61.9177
v  -256.9625 118.4545 61.5465
v  -256.7346 118.9618 60.8806
v  -257.0649 119.0727 59.5172
v  -256.5803 119.4386 60.0118
v  -256.9831 119.3395 58.3215
v  -256.9064 119.6143 55.9001
v  -256.4771 119.8149 58.9574
v  -256.4676 120.0630 55.7675
v  -257.0461 119.7272 48.6023
v  -259.2980 114.7774 48.6142
v  -256.5897 120.1608 48.6012
v  -260.2337 114.6221 12.4696
v  -257.9027 119.8965 7.0178
v  -258.2240 119.3278 5.1852
v  -257.9146 119.5359 4.3798
v  -257.6122 120.1724 5.8487
v  -258.6223 118.5089 4.1013
v  -258.2758 118.7589 3.3641
v  -259.7589 116.1335 2.7258
v  -260.4714 114.7137 2.5614
v  -261.4208 112.2633 10.0094
v  -262.0698 110.8007 9.9985
v  -258.6746 117.8596 2.6444
v  -259.1372 117.4633 3.2262
v  -259.3500 116.5063 2.1832
v  -260.2574 114.5503 2.1056
v  -263.6020 106.2920 2.0630
v  -263.8977 106.5231 2.6563
v  -266.7902 98.2645 2.6270
v  -263.6908 106.5354 10.2603
v  -266.5852 98.0000 10.4217
v  -266.4528 98.1578 2.0193
v  -269.5094 89.0163 2.7782
v  -269.3290 88.8085 10.4517
v  -269.2479 88.7367 2.1797
v  -271.7598 79.0790 2.7143
v  -271.5391 79.4750 10.4342
v  -271.4228 78.8153 2.1393
v  -273.2546 69.5003 2.7577
v  -272.6741 72.0575 10.6331
v  -272.9088 68.8155 2.4138
v  -272.7885 71.1116 10.9797
v  -273.5223 67.2041 3.5701
v  -273.0227 66.7599 3.0848
v  -273.6046 66.4089 4.4664
v  -272.8929 70.2406 11.4929
v  -273.2552 66.0463 3.8327
v  -273.6450 65.6924 5.6782
v  -273.0097 69.3142 12.3934
v  -273.2616 65.3274 5.0398
v  -273.5980 65.2313 8.2732
v  -273.0270 68.8858 13.5917
v  -273.4400 64.6816 7.7468
v  -273.3958 65.1219 20.3385
v  -272.9118 68.7665 20.3170
v  -273.0900 64.6405 20.3419
v  -272.5336 64.7212 39.1201
v  -272.4102 64.7389 48.5778
v  -272.9040 65.1163 39.1180
v  -272.7430 64.9387 48.7103
v  -260.7105 113.8087 10.8203
v  -259.9911 114.7985 20.0498
v  -257.6819 119.9498 20.0198
v  -257.3976 120.3990 9.4764
v  -257.1560 120.5525 20.1521
v  -272.7068 68.7329 29.2815
v  -273.1500 65.1669 29.2972
v  -272.8281 64.6669 29.2997
v  -259.7623 114.8886 29.0940
v  -257.5447 119.8484 29.0737
v  -257.0050 120.4616 28.9636
v  -272.4585 68.7928 39.1040
v  -259.5333 114.8759 38.9163
v  -257.3050 119.7773 38.8913
v  -256.8033 120.3231 38.8933
v  -272.2346 68.8092 48.7057
# 119 vertices

vn -0.9913 0.1303 0.0162
vn -0.9877 0.1545 0.0222
vn -0.9908 0.1335 0.0220
vn -0.9887 0.1483 0.0239
vn -0.7640 -0.6351 0.1134
vn -0.7379 -0.6741 0.0334
vn -0.9875 0.1564 0.0215
vn -0.9910 0.1331 0.0136
vn -0.7831 -0.5687 0.2516
vn -0.8388 -0.3353 0.4290
vn -0.9904 0.1374 0.0129
vn -0.8053 -0.1599 0.5708
vn -0.9895 0.1437 0.0130
vn -0.9883 0.1521 0.0139
vn -0.9870 0.1591 0.0214
vn -0.9857 0.1669 0.0221
vn -0.8054 0.0318 0.5918
vn -0.9852 0.1707 0.0169
vn -0.8899 0.1818 0.4184
vn -0.9756 0.2177 0.0291
vn -0.9760 0.2154 0.0322
vn -0.9345 0.2109 0.2869
vn -0.9683 0.2466 0.0402
vn -0.9680 0.2481 0.0373
vn -0.9572 0.2589 0.1290
vn -0.9560 0.2904 0.0415
vn -0.9559 0.2916 0.0359
vn -0.8797 0.3150 0.3563
vn -0.9360 0.3501 0.0358
vn -0.9344 0.3546 0.0339
vn -0.7212 0.3618 0.5907
vn -0.9264 0.3753 0.0302
vn -0.9157 0.4012 0.0255
vn -0.9223 0.3855 0.0283
vn -0.9142 0.4045 0.0252
vn -0.6661 0.4340 0.6066
vn -0.9161 0.4000 0.0256
vn -0.9187 0.3939 0.0268
vn -0.9123 0.4087 0.0248
vn -0.9127 0.4078 0.0249
vn -0.5796 0.5771 0.5754
vn -0.5772 0.6287 0.5211
vn -0.9134 0.4064 0.0250
vn -0.6084 0.6866 0.3981
vn -0.6468 0.7138 0.2686
vn -0.9119 0.4097 0.0247
vn -0.6965 0.6937 0.1836
vn -0.9115 0.4105 0.0247
vn -0.9110 0.4117 0.0246
vn -0.7225 0.6849 0.0938
vn -0.7018 0.7117 0.0316
vn -0.7086 0.7052 0.0241
vn -0.9155 0.4019 0.0191
vn -0.9059 0.4231 0.0163
vn -0.9067 0.4214 0.0165
vn -0.7829 0.6071 -0.1359
vn -0.7576 0.6480 -0.0781
vn -0.9081 0.4185 0.0169
vn -0.7987 0.5698 -0.1935
vn -0.9122 0.4093 0.0183
vn -0.9148 0.4035 0.0192
vn -0.9208 0.3896 0.0196
vn -0.9241 0.3816 0.0200
vn -0.8112 0.5309 -0.2452
vn -0.9099 0.4146 0.0175
vn -0.8192 0.4739 -0.3230
vn -0.8046 0.3425 -0.4850
vn -0.8129 0.3062 -0.4954
vn -0.9335 0.3578 0.0220
vn -0.9541 0.2983 0.0267
vn -0.9335 0.3580 0.0214
vn -0.9548 0.2963 0.0255
vn -0.8329 0.2640 -0.4864
vn -0.9680 0.2488 0.0320
vn -0.9684 0.2477 0.0301
vn -0.8413 0.2108 -0.4979
vn -0.9798 0.1972 0.0317
vn -0.9795 0.1994 0.0300
vn -0.7886 0.1419 -0.5983
vn -0.9904 0.1366 0.0228
vn -0.9885 0.1491 0.0247
vn -0.7638 -0.0062 -0.6454
vn -0.9893 0.1442 0.0240
vn -0.9914 0.1289 0.0210
vn -0.8132 -0.1955 -0.5482
vn -0.9918 0.1265 0.0204
vn -0.9897 0.1416 0.0236
vn -0.8692 -0.3405 -0.3584
vn -0.9920 0.1244 0.0199
vn -0.9901 0.1388 0.0231
vn -0.8887 -0.4134 -0.1981
vn -0.9921 0.1236 0.0198
vn -0.9902 0.1377 0.0229
vn -0.9037 -0.4270 -0.0303
vn -0.9917 0.1272 0.0209
vn -0.9901 0.1388 0.0226
vn -0.8764 -0.4811 0.0212
vn -0.7313 -0.6820 0.0137
vn -0.6680 -0.7441 0.0107
vn -0.9905 0.1353 0.0234
vn -0.9904 0.1366 0.0222
vn -0.9173 0.3976 0.0193
vn -0.9155 0.4019 0.0190
vn -0.9078 0.4192 0.0170
vn -0.7263 0.6873 0.0085
vn -0.7353 0.6776 0.0137
vn -0.9891 0.1456 0.0236
vn -0.9905 0.1357 0.0244
vn -0.8171 -0.5761 0.0236
vn -0.9164 0.3998 0.0206
vn -0.9123 0.4089 0.0216
vn -0.7430 0.6689 0.0211
vn -0.9891 0.1451 0.0237
vn -0.9157 0.4012 0.0243
vn -0.7305 0.6825 0.0240
vn -0.9888 0.1472 0.0231
# 116 vertex normals

vt 0.7747 0.1965 0.0000
vt 0.7812 0.1834 0.0000
vt 0.7921 0.1976 0.0000
vt 0.7927 0.1848 0.0000
vt 0.7741 0.1985 0.0000
vt 0.7921 0.1993 0.0000
vt 0.7778 0.1817 0.0000
vt 0.7655 0.1941 0.0000
vt 0.7636 0.1965 0.0000
vt 0.7587 0.1927 0.0000
vt 0.7613 0.1914 0.0000
vt 0.7558 0.1885 0.0000
vt 0.7585 0.1880 0.0000
vt 0.7572 0.1838 0.0000
vt 0.7760 0.1799 0.0000
vt 0.7741 0.1753 0.0000
vt 0.7549 0.1832 0.0000
vt 0.7571 0.1745 0.0000
vt 0.7552 0.1723 0.0000
vt 0.7588 0.1442 0.0000
vt 0.7768 0.1454 0.0000
vt 0.7572 0.1447 0.0000
vt 0.7623 0.1152 0.0000
vt 0.7803 0.1136 0.0000
vt 0.7606 0.1153 0.0000
vt 0.7669 0.0812 0.0000
vt 0.7844 0.0820 0.0000
vt 0.7651 0.0813 0.0000
vt 0.7714 0.0512 0.0000
vt 0.7886 0.0517 0.0000
vt 0.7694 0.0516 0.0000
vt 0.7908 0.0385 0.0000
vt 0.7769 0.0216 0.0000
vt 0.7934 0.0320 0.0000
vt 0.7795 0.0151 0.0000
vt 0.7747 0.0206 0.0000
vt 0.8024 0.0230 0.0000
vt 0.7973 0.0267 0.0000
vt 0.7868 0.0072 0.0000
vt 0.7842 0.0090 0.0000
vt 0.7778 0.0128 0.0000
vt 0.7799 0.0096 0.0000
vt 0.7818 0.0116 0.0000
vt 0.7829 0.0074 0.0000
vt 0.7852 0.0055 0.0000
vt 0.7900 0.0059 0.0000
vt 0.7882 0.0039 0.0000
vt 0.7941 0.0050 0.0000
vt 0.8023 0.0041 0.0000
vt 0.7919 0.0027 0.0000
vt 0.8028 0.0020 0.0000
vt 0.8272 0.0043 0.0000
vt 0.8269 0.0228 0.0000
vt 0.8272 0.0022 0.0000
vt 0.9499 0.0264 0.0000
vt 0.9689 0.0071 0.0000
vt 0.9751 0.0094 0.0000
vt 0.9779 0.0083 0.0000
vt 0.9729 0.0058 0.0000
vt 0.9787 0.0126 0.0000
vt 0.9813 0.0113 0.0000
vt 0.9832 0.0217 0.0000
vt 0.9837 0.0271 0.0000
vt 0.9582 0.0355 0.0000
vt 0.9581 0.0410 0.0000
vt 0.9838 0.0147 0.0000
vt 0.9816 0.0166 0.0000
vt 0.9852 0.0199 0.0000
vt 0.9855 0.0273 0.0000
vt 0.9851 0.0577 0.0000
vt 0.9828 0.0572 0.0000
vt 0.9823 0.0869 0.0000
vt 0.9569 0.0565 0.0000
vt 0.9558 0.0871 0.0000
vt 0.9847 0.0870 0.0000
vt 0.9812 0.1197 0.0000
vt 0.9552 0.1197 0.0000
vt 0.9835 0.1204 0.0000
vt 0.9808 0.1542 0.0000
vt 0.9546 0.1523 0.0000
vt 0.9831 0.1549 0.0000
vt 0.9800 0.1871 0.0000
vt 0.9535 0.1777 0.0000
vt 0.9819 0.1893 0.0000
vt 0.9522 0.1810 0.0000
vt 0.9772 0.1949 0.0000
vt 0.9795 0.1967 0.0000
vt 0.9741 0.1976 0.0000
vt 0.9504 0.1839 0.0000
vt 0.9765 0.1991 0.0000
vt 0.9699 0.2000 0.0000
vt 0.9473 0.1870 0.0000
vt 0.9722 0.2016 0.0000
vt 0.9610 0.2014 0.0000
vt 0.9432 0.1884 0.0000
vt 0.9628 0.2034 0.0000
vt 0.9199 0.2008 0.0000
vt 0.9202 0.1883 0.0000
vt 0.9198 0.2028 0.0000
vt 0.8558 0.2011 0.0000
vt 0.8236 0.2001 0.0000
vt 0.8559 0.1992 0.0000
vt 0.8232 0.1990 0.0000
vt 0.9555 0.0297 0.0000
vt 0.9241 0.0251 0.0000
vt 0.9246 0.0059 0.0000
vt 0.9605 0.0045 0.0000
vt 0.9241 0.0031 0.0000
vt 0.8897 0.1877 0.0000
vt 0.8894 0.1999 0.0000
vt 0.8893 0.2020 0.0000
vt 0.8933 0.0240 0.0000
vt 0.8937 0.0055 0.0000
vt 0.8941 0.0027 0.0000
vt 0.8562 0.1866 0.0000
vt 0.8599 0.0233 0.0000
vt 0.8602 0.0050 0.0000
vt 0.8602 0.0024 0.0000
vt 0.8236 0.1857 0.0000
# 119 texture coords

g P615_5A_50DB_R_P615_5A_50DB_R_2_DTaSI
usemtl windowglassblack_1SG
s 1
f 65/65/65 66/66/66 67/67/67 
f 67/67/67 66/66/66 68/68/68 
f 69/69/69 65/65/65 70/70/70 
f 70/70/70 65/65/65 67/67/67 
f 66/66/66 65/65/65 71/71/71 
f 71/71/71 65/65/65 72/72/72 
f 73/73/73 72/72/72 69/69/69 
f 69/69/69 72/72/72 65/65/65 
f 74/74/74 75/75/75 73/73/73 
f 73/73/73 75/75/75 72/72/72 
f 76/76/76 77/77/77 74/74/74 
f 74/74/74 77/77/77 75/75/75 
f 77/77/77 78/78/78 79/79/79 
f 79/79/79 78/78/78 80/80/80 
f 81/81/81 78/78/78 76/76/76 
f 76/76/76 78/78/78 77/77/77 
f 78/78/78 82/82/82 80/80/80 
f 83/83/83 82/82/82 81/81/81 
f 81/81/81 82/82/82 78/78/78 
f 82/82/82 84/84/84 80/80/80 
f 80/80/80 84/84/84 85/85/85 
f 86/86/86 84/84/84 83/83/83 
f 83/83/83 84/84/84 82/82/82 
f 84/84/84 87/87/87 85/85/85 
f 85/85/85 87/87/87 88/88/88 
f 86/86/86 89/89/89 84/84/84 
f 84/84/84 89/89/89 87/87/87 
f 87/87/87 90/90/90 88/88/88 
f 88/88/88 90/90/90 91/91/91 
f 89/89/89 92/92/92 87/87/87 
f 87/87/87 92/92/92 90/90/90 
f 90/90/90 93/93/93 91/91/91 
f 91/91/91 93/93/93 94/94/94 
f 92/92/92 95/95/95 90/90/90 
f 90/90/90 95/95/95 93/93/93 
f 96/96/96 97/97/97 98/98/98 
f 98/98/98 97/97/97 99/99/99 
f 95/95/95 100/100/100 93/93/93 
f 93/93/93 100/100/100 97/97/97 
f 101/101/101 102/102/102 103/103/103 
f 103/103/103 102/102/102 104/104/104 
f 105/105/105 99/99/99 100/100/100 
f 100/100/100 99/99/99 97/97/97 
f 106/106/106 107/107/107 105/105/105 
f 105/105/105 107/107/107 99/99/99 
f 106/106/106 108/108/108 107/107/107 
f 107/107/107 108/108/108 104/104/104 
f 108/108/108 109/109/109 104/104/104 
f 104/104/104 109/109/109 103/103/103 
f 103/103/103 110/110/110 101/101/101 
f 109/109/109 111/111/111 103/103/103 
f 103/103/103 111/111/111 110/110/110 
f 101/101/101 112/112/112 113/113/113 
f 111/111/111 114/114/114 110/110/110 
f 110/110/110 114/114/114 112/112/112 
f 114/114/114 115/115/115 112/112/112 
f 112/112/112 115/115/115 113/113/113 
f 116/116/113 117/117/97 113/113/113 
f 113/113/113 117/117/97 101/101/101 
f 118/118/116 116/116/113 115/115/115 
f 115/115/115 116/116/113 113/113/113 
f 119/119/117 120/120/118 121/121/119 
f 122/122/120 121/121/119 123/123/121 
f 123/123/121 121/121/119 120/120/118 
f 121/121/119 124/124/122 119/119/117 
f 125/125/123 124/124/122 122/122/120 
f 122/122/120 124/124/122 121/121/119 
f 126/126/124 127/127/125 128/128/126 
f 128/128/126 127/127/125 129/129/127 
f 130/130/128 131/131/129 125/125/123 
f 125/125/123 131/131/129 124/124/122 
f 130/130/128 132/132/130 131/131/129 
f 131/131/129 132/132/130 126/126/124 
f 132/132/130 133/133/131 126/126/124 
f 126/126/124 133/133/131 127/127/125 
f 134/134/132 135/135/133 133/133/131 
f 133/133/131 135/135/133 127/127/125 
f 135/135/133 136/136/134 137/137/135 
f 137/137/135 136/136/134 138/138/136 
f 139/139/137 136/136/134 134/134/132 
f 134/134/132 136/136/134 135/135/133 
f 136/136/134 140/140/138 138/138/136 
f 138/138/136 140/140/138 141/141/139 
f 142/142/140 140/140/138 139/139/137 
f 139/139/137 140/140/138 136/136/134 
f 143/143/141 144/144/142 140/140/138 
f 140/140/138 144/144/142 141/141/139 
f 145/145/143 143/143/141 142/142/140 
f 142/142/140 143/143/141 140/140/138 
f 146/146/144 147/147/145 143/143/141 
f 143/143/141 147/147/145 144/144/142 
f 148/148/146 146/146/144 145/145/143 
f 145/145/143 146/146/144 143/143/141 
f 147/147/145 146/146/144 149/149/147 
f 149/149/147 146/146/144 150/150/148 
f 151/151/149 150/150/148 148/148/146 
f 148/148/146 150/150/148 146/146/144 
f 150/150/148 152/152/150 149/149/147 
f 149/149/147 152/152/150 153/153/151 
f 151/151/149 154/154/152 150/150/148 
f 150/150/148 154/154/152 152/152/150 
f 152/152/150 155/155/153 153/153/151 
f 153/153/151 155/155/153 156/156/154 
f 154/154/152 157/157/155 152/152/150 
f 152/152/150 157/157/155 155/155/153 
f 155/155/153 158/158/156 156/156/154 
f 156/156/154 158/158/156 159/159/157 
f 157/157/155 160/160/158 155/155/153 
f 155/155/153 160/160/158 158/158/156 
f 158/158/156 161/161/159 159/159/157 
f 159/159/157 161/161/159 162/162/160 
f 160/160/158 163/163/161 158/158/156 
f 158/158/156 163/163/161 161/161/159 
f 164/164/162 165/165/163 166/166/164 
f 166/166/164 165/165/163 167/167/165 
f 71/71/71 72/72/72 75/75/75 
f 71/71/71 75/75/75 79/79/79 
f 79/79/79 75/75/75 77/77/77 
f 127/127/125 135/135/133 129/129/127 
f 129/129/127 135/135/133 137/137/135 
f 128/128/126 168/168/166 126/126/124 
f 126/126/124 168/168/166 131/131/129 
f 131/131/129 168/168/166 124/124/122 
f 124/124/122 168/168/166 119/119/117 
f 97/97/97 96/96/96 93/93/93 
f 93/93/93 96/96/96 94/94/94 
f 107/107/107 102/102/102 99/99/99 
f 99/99/99 102/102/102 98/98/98 
f 104/104/104 102/102/102 107/107/107 
f 101/101/101 110/110/110 112/112/112 
f 169/169/167 170/170/168 119/119/117 
f 119/119/117 170/170/168 120/120/118 
f 120/120/118 170/170/168 171/171/169 
f 171/171/169 170/170/168 172/172/170 
f 162/162/160 161/161/159 173/173/171 
f 173/173/171 161/161/159 174/174/172 
f 161/161/159 163/163/161 174/174/172 
f 174/174/172 163/163/161 175/175/173 
f 169/169/167 176/176/174 170/170/168 
f 170/170/168 176/176/174 177/177/175 
f 170/170/168 177/177/175 172/172/170 
f 172/172/170 177/177/175 178/178/176 
f 179/179/177 173/173/171 166/166/164 
f 166/166/164 173/173/171 174/174/172 
f 176/176/174 180/180/178 177/177/175 
f 177/177/175 180/180/178 181/181/113 
f 181/181/113 182/182/179 177/177/175 
f 177/177/175 182/182/179 178/178/176 
f 179/179/177 166/166/164 183/183/180 
f 183/183/180 166/166/164 167/167/165 
f 164/164/162 166/166/164 175/175/173 
f 175/175/173 166/166/164 174/174/172 
f 180/180/178 117/117/97 181/181/113 
f 181/181/113 117/117/97 116/116/113 
f 181/181/113 116/116/113 182/182/179 
f 182/182/179 116/116/113 118/118/116 
f 167/167/165 67/67/67 183/183/180 
f 183/183/180 67/67/67 68/68/68 
f 165/165/163 70/70/70 167/167/165 
f 167/167/165 70/70/70 67/67/67 
f 171/171/169 123/123/121 120/120/118 
# 161 faces

