# 3ds Max Wavefront OBJ Exporter v0.97b - (c)2007 guruware
# File Created: 04.12.2015 17:28:15

mtllib P615_5A_285B_R.mtl

#
# object P615_5A_285B_R_1_DTaSI_P615_5A_285B_R
#

v  117.6633 112.7690 87.0889
v  116.7748 113.4403 86.9153
v  115.9075 105.6908 89.3283
v  115.1060 114.3641 86.6337
v  114.0725 114.6455 86.5902
v  105.4213 112.7236 87.4816
v  112.8606 114.9597 86.5265
v  109.8658 115.3618 86.4725
v  107.7300 115.6124 86.4989
v  135.3279 96.4616 91.2470
v  125.5786 105.7377 89.0376
v  125.7701 96.4117 91.5719
v  142.5206 87.8987 93.0624
v  135.8546 85.9287 93.7468
v  142.6725 85.7905 93.5424
v  142.0623 88.8694 92.8555
v  141.5932 90.0111 92.5768
v  105.5006 86.1860 94.5394
v  105.5468 74.8592 96.6733
v  116.1454 86.1000 94.2618
v  116.2723 74.7601 96.4354
v  126.6247 60.0827 98.0985
v  126.4387 64.3843 97.5696
v  116.3421 60.3884 98.3790
v  116.3822 64.4171 97.8480
v  70.6214 112.9550 88.0975
v  70.8675 105.4926 90.3743
v  72.9544 112.9227 88.0559
v  73.2811 105.5427 90.3035
v  71.4270 96.6578 92.7596
v  73.2628 96.7172 92.7204
v  83.8609 105.5490 90.0956
v  83.7850 112.8245 87.8704
v  83.9533 96.6194 92.5495
v  73.3709 61.7297 99.2046
v  73.3842 64.5034 98.7972
v  72.7390 62.5197 99.0821
v  72.6534 64.4874 98.7985
v  73.3301 86.5171 95.0784
v  71.8866 86.6982 95.0460
v  84.0463 86.4372 94.9328
v  95.7219 112.7594 87.6723
v  83.8597 117.0103 86.4944
v  95.9450 116.4506 86.4394
v  75.6850 117.1509 86.6116
v  74.0807 117.0952 86.6601
v  72.9510 116.6751 86.8100
v  71.8862 115.9057 87.1080
v  70.7045 113.7376 87.8186
v  71.2049 114.8245 87.4866
v  125.9760 86.0435 93.9973
v  136.8235 64.3361 97.2042
v  137.0731 59.7798 97.8195
v  143.6493 64.2046 97.0010
v  143.8632 59.5800 97.6245
v  105.4405 105.6401 89.6305
v  105.4776 96.5190 92.1441
v  116.0225 96.4643 91.8582
v  105.6298 60.7221 98.6266
v  105.5799 64.4485 98.1324
v  121.4802 109.3240 88.1153
v  119.6308 111.0069 87.6506
v  118.5996 111.9834 87.3440
v  115.7795 114.0167 86.7828
v  95.8709 61.0233 98.8146
v  95.7051 64.4649 98.3414
v  105.4268 115.7766 86.4861
v  95.7523 105.5788 89.8461
v  95.7758 96.5447 92.3449
v  95.7780 86.3208 94.7287
v  84.2385 61.3821 99.0014
v  84.1528 64.4839 98.5801
v  73.4796 75.1379 97.2352
v  72.2185 74.6599 97.3525
v  84.1117 75.0477 97.0490
v  143.2699 74.4675 95.5933
v  136.3934 74.5431 95.8266
v  126.2159 74.6630 96.2045
v  95.7496 74.9472 96.8493
# 79 vertices

vn 0.0276 0.2957 0.9549
vn 0.0257 0.2737 0.9615
vn 0.0231 0.2942 0.9555
vn 0.0286 0.2393 0.9705
vn 0.0253 0.2810 0.9594
vn 0.0286 0.2443 0.9693
vn 0.0311 0.2025 0.9788
vn 0.0276 0.2031 0.9788
vn 0.0238 0.2056 0.9784
vn 0.0225 0.1624 0.9865
vn 0.0270 0.2071 0.9779
vn 0.0253 0.1623 0.9864
vn 0.0311 0.1289 0.9912
vn 0.0313 0.1312 0.9909
vn 0.0287 0.1323 0.9908
vn 0.0272 0.1336 0.9907
vn 0.0185 0.3015 0.9533
vn 0.0314 0.2780 0.9601
vn 0.0202 0.2774 0.9605
vn 0.0350 0.2456 0.9687
vn 0.0192 0.2441 0.9696
vn 0.0188 0.2775 0.9605
vn 0.0185 0.2454 0.9692
vn 0.0193 0.1450 0.9892
vn 0.0144 0.1446 0.9894
vn -0.0108 0.1424 0.9898
vn -0.0003 0.1435 0.9896
vn 0.0174 0.2050 0.9786
vn 0.0364 0.2094 0.9771
vn 0.0176 0.2052 0.9786
vn 0.0187 0.3012 0.9534
vn 0.0189 0.3149 0.9489
vn 0.0186 0.3161 0.9486
vn 0.0290 0.2083 0.9776
vn 0.0336 0.1339 0.9904
vn 0.0323 0.1325 0.9907
vn 0.0322 0.1354 0.9903
vn 0.0321 0.1336 0.9905
vn 0.0237 0.2773 0.9605
vn 0.0239 0.2454 0.9691
vn 0.0285 0.2456 0.9690
vn 0.0247 0.1374 0.9902
vn 0.0238 0.1370 0.9903
vn 0.0215 0.1377 0.9902
vn 0.0208 0.1389 0.9901
vn 0.0195 0.2771 0.9606
vn 0.0198 0.2458 0.9691
vn 0.0199 0.2053 0.9785
vn 0.0214 0.1405 0.9898
vn 0.0205 0.1416 0.9897
vn 0.0235 0.1669 0.9857
vn 0.0620 0.1677 0.9839
vn 0.0183 0.1639 0.9863
vn 0.0255 0.1585 0.9870
vn 0.0345 0.1596 0.9866
vn 0.0307 0.1616 0.9864
vn 0.0196 0.1626 0.9865
# 57 vertex normals

vt 0.7966 0.3882 0.0000
vt 0.7989 0.3912 0.0000
vt 0.7708 0.3944 0.0000
vt 0.8021 0.3970 0.0000
vt 0.8031 0.4005 0.0000
vt 0.7957 0.4299 0.0000
vt 0.8041 0.4046 0.0000
vt 0.8053 0.4148 0.0000
vt 0.8061 0.4221 0.0000
vt 0.7388 0.3285 0.0000
vt 0.7710 0.3617 0.0000
vt 0.7383 0.3611 0.0000
vt 0.7090 0.3038 0.0000
vt 0.7019 0.3266 0.0000
vt 0.7016 0.3033 0.0000
vt 0.7124 0.3054 0.0000
vt 0.7164 0.3071 0.0000
vt 0.7025 0.4301 0.0000
vt 0.6632 0.4302 0.0000
vt 0.7022 0.3939 0.0000
vt 0.6628 0.3936 0.0000
vt 0.6122 0.3583 0.0000
vt 0.6270 0.3589 0.0000
vt 0.6133 0.3936 0.0000
vt 0.6272 0.3934 0.0000
vt 0.7972 0.5470 0.0000
vt 0.7709 0.5467 0.0000
vt 0.7971 0.5392 0.0000
vt 0.7710 0.5386 0.0000
vt 0.7398 0.5454 0.0000
vt 0.7400 0.5392 0.0000
vt 0.7706 0.5028 0.0000
vt 0.7963 0.5027 0.0000
vt 0.7393 0.5029 0.0000
vt 0.6187 0.5402 0.0000
vt 0.6283 0.5401 0.0000
vt 0.6215 0.5421 0.0000
vt 0.6283 0.5424 0.0000
vt 0.7044 0.5395 0.0000
vt 0.7050 0.5444 0.0000
vt 0.7037 0.5031 0.0000
vt 0.7958 0.4625 0.0000
vt 0.8112 0.5023 0.0000
vt 0.8090 0.4617 0.0000
vt 0.8119 0.5298 0.0000
vt 0.8118 0.5351 0.0000
vt 0.8104 0.5390 0.0000
vt 0.8077 0.5426 0.0000
vt 0.8001 0.5467 0.0000
vt 0.8038 0.5450 0.0000
vt 0.7021 0.3604 0.0000
vt 0.6270 0.3233 0.0000
vt 0.6112 0.3225 0.0000
vt 0.6266 0.2999 0.0000
vt 0.6106 0.2992 0.0000
vt 0.7706 0.4299 0.0000
vt 0.7385 0.4300 0.0000
vt 0.7384 0.3941 0.0000
vt 0.6146 0.4302 0.0000
vt 0.6273 0.4303 0.0000
vt 0.7833 0.3754 0.0000
vt 0.7892 0.3816 0.0000
vt 0.7929 0.3850 0.0000
vt 0.8008 0.3947 0.0000
vt 0.6158 0.4636 0.0000
vt 0.6276 0.4640 0.0000
vt 0.8066 0.4298 0.0000
vt 0.7705 0.4627 0.0000
vt 0.7387 0.4629 0.0000
vt 0.7031 0.4632 0.0000
vt 0.6173 0.5032 0.0000
vt 0.6280 0.5034 0.0000
vt 0.6649 0.5394 0.0000
vt 0.6633 0.5436 0.0000
vt 0.6643 0.5032 0.0000
vt 0.6622 0.3012 0.0000
vt 0.6623 0.3248 0.0000
vt 0.6625 0.3596 0.0000
vt 0.6637 0.4636 0.0000
# 79 texture coords

g P615_5A_285B_R_1_DTaSI_P615_5A_285B_R
usemtl windowglass_1SG
s 1
f 1/1/1 2/2/1 3/3/2 
f 4/4/1 5/5/1 6/6/3 
f 7/7/1 6/6/3 5/5/1 
f 8/8/1 9/9/1 6/6/3 
f 10/10/4 11/11/5 12/12/6 
f 13/13/7 14/14/8 15/15/8 
f 14/14/8 16/16/7 17/17/7 
f 18/18/9 19/19/10 20/20/11 
f 20/20/11 19/19/10 21/21/12 
f 22/22/13 23/23/14 24/24/15 
f 24/24/15 23/23/14 25/25/16 
f 26/26/17 27/27/18 28/28/17 
f 28/28/17 27/27/18 29/29/19 
f 30/30/20 31/31/21 27/27/18 
f 27/27/18 31/31/21 29/29/19 
f 32/32/22 33/33/17 29/29/19 
f 29/29/19 33/33/17 28/28/17 
f 34/34/23 32/32/22 31/31/21 
f 31/31/21 32/32/22 29/29/19 
f 35/35/24 36/36/25 37/37/26 
f 37/37/26 36/36/25 38/38/27 
f 39/39/28 31/31/21 40/40/29 
f 40/40/29 31/31/21 30/30/20 
f 41/41/30 34/34/23 39/39/28 
f 39/39/28 34/34/23 31/31/21 
f 33/33/17 42/42/31 43/43/32 
f 43/43/32 42/42/31 44/44/33 
f 45/45/17 46/46/17 28/28/17 
f 46/46/17 47/47/17 28/28/17 
f 48/48/17 28/28/17 47/47/17 
f 49/49/17 28/28/17 50/50/17 
f 12/12/6 51/51/34 10/10/4 
f 10/10/4 51/51/34 14/14/8 
f 52/52/35 53/53/36 54/54/37 
f 54/54/37 53/53/36 55/55/38 
f 10/10/4 14/14/8 17/17/7 
f 13/13/7 16/16/7 14/14/8 
f 56/56/39 57/57/40 3/3/2 
f 3/3/2 57/57/40 58/58/41 
f 53/53/36 52/52/35 22/22/13 
f 22/22/13 52/52/35 23/23/14 
f 57/57/40 18/18/9 58/58/41 
f 58/58/41 18/18/9 20/20/11 
f 24/24/15 25/25/16 59/59/42 
f 59/59/42 25/25/16 60/60/43 
f 11/11/5 3/3/2 11/11/5 
f 12/12/6 11/11/5 3/3/2 
f 51/51/34 12/12/6 20/20/11 
f 20/20/11 12/12/6 58/58/41 
f 3/3/2 11/11/5 61/61/1 
f 3/3/2 61/61/1 62/62/1 
f 3/3/2 62/62/1 63/63/1 
f 6/6/3 56/56/39 3/3/2 
f 64/64/1 6/6/3 2/2/1 
f 1/1/1 3/3/2 63/63/1 
f 59/59/42 60/60/43 65/65/44 
f 65/65/44 60/60/43 66/66/45 
f 67/67/1 6/6/3 9/9/1 
f 68/68/46 56/56/39 42/42/31 
f 42/42/31 56/56/39 6/6/3 
f 69/69/47 57/57/40 68/68/46 
f 68/68/46 57/57/40 56/56/39 
f 18/18/9 57/57/40 70/70/48 
f 70/70/48 57/57/40 69/69/47 
f 42/42/31 6/6/3 44/44/33 
f 44/44/33 6/6/3 67/67/1 
f 71/71/49 72/72/50 35/35/24 
f 35/35/24 72/72/50 36/36/25 
f 43/43/32 45/45/17 33/33/17 
f 33/33/17 45/45/17 28/28/17 
f 68/68/46 42/42/31 32/32/22 
f 32/32/22 42/42/31 33/33/17 
f 69/69/47 68/68/46 34/34/23 
f 34/34/23 68/68/46 32/32/22 
f 70/70/48 69/69/47 41/41/30 
f 41/41/30 69/69/47 34/34/23 
f 65/65/44 66/66/45 71/71/49 
f 71/71/49 66/66/45 72/72/50 
f 39/39/28 40/40/29 73/73/51 
f 73/73/51 40/40/29 74/74/52 
f 75/75/53 41/41/30 73/73/51 
f 73/73/51 41/41/30 39/39/28 
f 76/76/54 15/15/8 77/77/55 
f 77/77/55 15/15/8 14/14/8 
f 77/77/55 14/14/8 78/78/56 
f 78/78/56 14/14/8 51/51/34 
f 78/78/56 51/51/34 21/21/12 
f 21/21/12 51/51/34 20/20/11 
f 19/19/10 18/18/9 79/79/57 
f 79/79/57 18/18/9 70/70/48 
f 79/79/57 70/70/48 75/75/53 
f 75/75/53 70/70/48 41/41/30 
f 54/54/37 76/76/54 52/52/35 
f 52/52/35 76/76/54 77/77/55 
f 52/52/35 77/77/55 23/23/14 
f 23/23/14 77/77/55 78/78/56 
f 23/23/14 78/78/56 25/25/16 
f 25/25/16 78/78/56 21/21/12 
f 25/25/16 21/21/12 60/60/43 
f 60/60/43 21/21/12 19/19/10 
f 60/60/43 19/19/10 66/66/45 
f 66/66/45 19/19/10 79/79/57 
f 72/72/50 75/75/53 36/36/25 
f 36/36/25 75/75/53 73/73/51 
f 66/66/45 79/79/57 72/72/50 
f 72/72/50 79/79/57 75/75/53 
f 73/73/51 74/74/52 36/36/25 
f 36/36/25 74/74/52 38/38/27 
f 49/49/17 26/26/17 28/28/17 
f 48/48/17 50/50/17 28/28/17 
f 6/6/3 3/3/2 2/2/1 
f 4/4/1 6/6/3 64/64/1 
f 7/7/1 8/8/1 6/6/3 
f 58/58/41 12/12/6 3/3/2 
# 114 faces

