# 3ds Max Wavefront OBJ Exporter v0.97b - (c)2007 guruware
# File Created: 04.12.2015 17:15:07

mtllib P615_5A_50DB_L.mtl

#
# object P615_5A_50DB_L_1_DTaSI_P615_5A_50DB_L
#

v  -272.8578 70.2321 -13.9541
v  -272.4868 71.4686 -20.8707
v  -272.9715 69.3072 -14.8548
v  -260.4685 114.2163 -13.8414
v  -263.4990 106.4790 -20.9303
v  -260.6776 113.6329 -13.0452
v  -260.9854 112.8725 -12.6970
v  -260.7429 110.3436 -61.5127
v  -262.2154 106.6795 -62.1712
v  -262.3344 106.6555 -57.7059
v  -259.3498 113.8386 -59.1311
v  -260.0703 112.1039 -60.6310
v  -271.3036 72.1591 -65.7601
v  -271.4680 70.6981 -65.6866
v  -271.4319 71.5564 -58.2613
v  -268.0801 88.5508 -57.8312
v  -267.8761 88.4620 -64.3617
v  -270.2102 79.3768 -58.0601
v  -269.9799 79.4523 -65.1569
v  -272.2566 71.4329 -30.1911
v  -272.6789 68.7377 -30.1852
v  -272.9061 68.8007 -20.8650
v  -271.0460 79.1251 -30.2102
v  -268.8193 88.9139 -30.2356
v  -270.8038 79.2261 -39.8308
v  -268.5857 88.7879 -39.8842
v  -263.2672 106.5507 -30.2806
v  -259.7271 115.0218 -30.3019
v  -262.9577 106.6778 -39.9869
v  -259.4550 115.0282 -40.0365
v  -266.0735 97.7219 -39.9379
v  -265.8120 97.5996 -49.4650
v  -262.6367 106.7261 -49.4462
v  -268.3528 88.6676 -49.4785
v  -259.0005 114.6607 -57.6835
v  -259.1885 114.9288 -49.4342
v  -266.2921 97.8519 -30.2585
v  -266.4354 97.9717 -20.9148
v  -270.4975 79.3385 -49.4928
v  -265.4040 97.4105 -63.3788
v  -265.5352 97.4859 -57.6048
v  -271.8647 68.8193 -58.3277
v  -272.1328 68.7828 -49.5097
v  -271.7192 71.5229 -49.5041
v  -271.9939 71.4791 -39.7855
v  -271.5993 69.4210 -65.0296
v  -271.6879 69.1179 -63.7849
v  -272.6235 72.0566 -13.0956
v  -272.7554 71.1057 -13.4421
v  -272.9843 68.8786 -16.0540
v  -271.2818 79.0974 -20.8844
v  -271.4891 79.1077 -12.8957
v  -272.4150 68.7694 -39.7710
v  -269.0065 89.0322 -20.9006
v  -269.1970 89.1355 -12.9113
v  -266.6028 98.0845 -12.8756
v  -263.6413 106.5294 -12.7072
v  -260.1951 114.6151 -14.9108
v  -259.9900 114.8375 -20.9432
# 59 vertices

vn -0.9900 0.1398 -0.0195
vn -0.9890 0.1463 -0.0222
vn -0.9900 0.1398 -0.0191
vn -0.9189 0.3936 -0.0244
vn -0.9338 0.3572 -0.0205
vn -0.9201 0.3909 -0.0248
vn -0.9216 0.3874 -0.0249
vn -0.9275 0.3725 -0.0321
vn -0.9344 0.3547 -0.0339
vn -0.9343 0.3549 -0.0326
vn -0.9199 0.3908 -0.0314
vn -0.9240 0.3811 -0.0311
vn -0.9885 0.1505 -0.0134
vn -0.9891 0.1470 -0.0131
vn -0.9884 0.1485 -0.0326
vn -0.9679 0.2492 -0.0329
vn -0.9676 0.2507 -0.0311
vn -0.9807 0.1930 -0.0324
vn -0.9800 0.1977 -0.0231
vn -0.9891 0.1451 -0.0255
vn -0.9897 0.1407 -0.0261
vn -0.9894 0.1434 -0.0220
vn -0.9810 0.1926 -0.0242
vn -0.9686 0.2474 -0.0240
vn -0.9809 0.1926 -0.0268
vn -0.9685 0.2474 -0.0267
vn -0.9337 0.3573 -0.0221
vn -0.9172 0.3979 -0.0217
vn -0.9336 0.3573 -0.0275
vn -0.9167 0.3986 -0.0273
vn -0.9534 0.3004 -0.0274
vn -0.9530 0.3013 -0.0330
vn -0.9336 0.3568 -0.0330
vn -0.9682 0.2483 -0.0313
vn -0.9175 0.3964 -0.0322
vn -0.9166 0.3985 -0.0320
vn -0.9534 0.3008 -0.0232
vn -0.9529 0.3026 -0.0218
vn -0.9808 0.1929 -0.0302
vn -0.9533 0.3002 -0.0338
vn -0.9532 0.3005 -0.0332
vn -0.9887 0.1462 -0.0326
vn -0.9894 0.1427 -0.0280
vn -0.9888 0.1464 -0.0287
vn -0.9892 0.1441 -0.0269
vn -0.9893 0.1453 -0.0143
vn -0.9892 0.1457 -0.0179
vn -0.9895 0.1432 -0.0206
vn -0.9899 0.1401 -0.0200
vn -0.9899 0.1405 -0.0192
vn -0.9811 0.1922 -0.0236
vn -0.9816 0.1892 -0.0265
vn -0.9899 0.1394 -0.0267
vn -0.9684 0.2482 -0.0237
vn -0.9680 0.2496 -0.0273
vn -0.9522 0.3045 -0.0255
vn -0.9336 0.3575 -0.0241
vn -0.9180 0.3959 -0.0237
vn -0.9173 0.3977 -0.0198
# 59 vertex normals

vt 0.1505 0.5127 0.0000
vt 0.1741 0.5085 0.0000
vt 0.1536 0.5159 0.0000
vt 0.1516 0.3567 0.0000
vt 0.1754 0.3852 0.0000
vt 0.1489 0.3587 0.0000
vt 0.1477 0.3615 0.0000
vt 0.3136 0.3713 0.0000
vt 0.3157 0.3847 0.0000
vt 0.3005 0.3848 0.0000
vt 0.3057 0.3584 0.0000
vt 0.3107 0.3648 0.0000
vt 0.3269 0.5064 0.0000
vt 0.3266 0.5114 0.0000
vt 0.3014 0.5083 0.0000
vt 0.3003 0.4493 0.0000
vt 0.3225 0.4496 0.0000
vt 0.3009 0.4814 0.0000
vt 0.3250 0.4811 0.0000
vt 0.2058 0.5087 0.0000
vt 0.2058 0.5180 0.0000
vt 0.1740 0.5177 0.0000
vt 0.2061 0.4822 0.0000
vt 0.2064 0.4480 0.0000
vt 0.2388 0.4819 0.0000
vt 0.2393 0.4485 0.0000
vt 0.2072 0.3851 0.0000
vt 0.2077 0.3539 0.0000
vt 0.2402 0.3847 0.0000
vt 0.2408 0.3539 0.0000
vt 0.2397 0.4170 0.0000
vt 0.2721 0.4174 0.0000
vt 0.2724 0.3846 0.0000
vt 0.2719 0.4490 0.0000
vt 0.3008 0.3552 0.0000
vt 0.2728 0.3543 0.0000
vt 0.2068 0.4164 0.0000
vt 0.1750 0.4158 0.0000
vt 0.2717 0.4815 0.0000
vt 0.3194 0.4180 0.0000
vt 0.2998 0.4178 0.0000
vt 0.3016 0.5178 0.0000
vt 0.2716 0.5179 0.0000
vt 0.2716 0.5084 0.0000
vt 0.2385 0.5086 0.0000
vt 0.3244 0.5157 0.0000
vt 0.3201 0.5167 0.0000
vt 0.1476 0.5064 0.0000
vt 0.1488 0.5097 0.0000
vt 0.1576 0.5173 0.0000
vt 0.1743 0.4822 0.0000
vt 0.1471 0.4821 0.0000
vt 0.2384 0.5179 0.0000
vt 0.1747 0.4475 0.0000
vt 0.1475 0.4471 0.0000
vt 0.1477 0.4154 0.0000
vt 0.1474 0.3849 0.0000
vt 0.1553 0.3551 0.0000
vt 0.1758 0.3544 0.0000
# 59 texture coords

g P615_5A_50DB_L_1_DTaSI_P615_5A_50DB_L
usemtl windowglass_1SG
s 1
f 1/1/1 2/2/2 3/3/3 
f 4/4/4 5/5/5 6/6/6 
f 7/7/7 6/6/6 5/5/5 
f 8/8/8 9/9/9 10/10/10 
f 11/11/11 12/12/12 10/10/10 
f 13/13/13 14/14/14 15/15/15 
f 16/16/16 17/17/17 18/18/18 
f 18/18/18 17/17/17 19/19/19 
f 20/20/20 21/21/21 2/2/2 
f 2/2/2 21/21/21 22/22/22 
f 23/23/23 24/24/24 25/25/25 
f 25/25/25 24/24/24 26/26/26 
f 27/27/27 28/28/28 29/29/29 
f 29/29/29 28/28/28 30/30/30 
f 31/31/31 29/29/29 32/32/32 
f 32/32/32 29/29/29 33/33/33 
f 34/34/34 26/26/26 32/32/32 
f 32/32/32 26/26/26 31/31/31 
f 11/11/11 10/10/10 35/35/35 
f 8/8/8 10/10/10 12/12/12 
f 10/10/10 33/33/33 35/35/35 
f 35/35/35 33/33/33 36/36/36 
f 26/26/26 24/24/24 31/31/31 
f 31/31/31 24/24/24 37/37/37 
f 27/27/27 37/37/37 5/5/5 
f 5/5/5 37/37/37 38/38/38 
f 18/18/18 39/39/39 16/16/16 
f 16/16/16 39/39/39 34/34/34 
f 17/17/17 16/16/16 40/40/40 
f 40/40/40 16/16/16 41/41/41 
f 40/40/40 41/41/41 9/9/9 
f 9/9/9 41/41/41 10/10/10 
f 42/42/42 43/43/43 15/15/15 
f 15/15/15 43/43/43 44/44/44 
f 20/20/20 23/23/23 45/45/45 
f 45/45/45 23/23/23 25/25/25 
f 15/15/15 44/44/44 18/18/18 
f 18/18/18 44/44/44 39/39/39 
f 15/15/15 46/46/46 47/47/47 
f 13/13/13 15/15/15 19/19/19 
f 19/19/19 15/15/15 18/18/18 
f 15/15/15 47/47/47 42/42/42 
f 15/15/15 14/14/14 46/46/46 
f 48/48/48 2/2/2 49/49/49 
f 3/3/3 2/2/2 50/50/50 
f 2/2/2 48/48/48 51/51/51 
f 51/51/51 48/48/48 52/52/52 
f 49/49/49 2/2/2 1/1/1 
f 32/32/32 41/41/41 34/34/34 
f 34/34/34 41/41/41 16/16/16 
f 32/32/32 33/33/33 41/41/41 
f 41/41/41 33/33/33 10/10/10 
f 29/29/29 30/30/30 33/33/33 
f 33/33/33 30/30/30 36/36/36 
f 53/53/53 45/45/45 43/43/43 
f 43/43/43 45/45/45 44/44/44 
f 25/25/25 26/26/26 39/39/39 
f 39/39/39 26/26/26 34/34/34 
f 45/45/45 25/25/25 44/44/44 
f 44/44/44 25/25/25 39/39/39 
f 21/21/21 20/20/20 53/53/53 
f 53/53/53 20/20/20 45/45/45 
f 24/24/24 23/23/23 54/54/54 
f 54/54/54 23/23/23 51/51/51 
f 24/24/24 54/54/54 37/37/37 
f 37/37/37 54/54/54 38/38/38 
f 37/37/37 27/27/27 31/31/31 
f 31/31/31 27/27/27 29/29/29 
f 23/23/23 20/20/20 51/51/51 
f 51/51/51 20/20/20 2/2/2 
f 2/2/2 22/22/22 50/50/50 
f 54/54/54 51/51/51 55/55/55 
f 55/55/55 51/51/51 52/52/52 
f 54/54/54 55/55/55 38/38/38 
f 38/38/38 55/55/55 56/56/56 
f 38/38/38 56/56/56 5/5/5 
f 5/5/5 56/56/56 57/57/57 
f 58/58/58 5/5/5 4/4/4 
f 28/28/28 27/27/27 59/59/59 
f 59/59/59 27/27/27 5/5/5 
f 59/59/59 5/5/5 58/58/58 
f 7/7/7 5/5/5 57/57/57 
# 82 faces

#
# object P615_5A_50DB_L_P615_5A_50DB_L_2_DTaSI
#

v  -271.6879 69.1179 -63.7849
v  -272.0256 65.7087 -68.3530
v  -272.1378 65.0149 -65.7643
v  -271.7168 64.5386 -65.7584
v  -271.4507 65.3705 -68.9079
v  -271.8637 66.6656 -69.7292
v  -271.4984 66.4479 -70.3190
v  -271.5993 69.4210 -65.0296
v  -271.7106 67.6330 -70.4465
v  -271.2181 67.4745 -71.0095
v  -271.4680 70.6981 -65.6866
v  -271.5728 69.2717 -70.9062
v  -271.3415 68.9716 -71.3044
v  -271.3036 72.1591 -65.7601
v  -271.2847 72.3236 -70.7806
v  -270.8282 72.2807 -71.2893
v  -269.9799 79.4523 -65.1569
v  -269.8372 79.5012 -70.4304
v  -269.4229 79.3130 -70.8940
v  -267.8761 88.4620 -64.3617
v  -267.7401 88.3970 -69.5299
v  -267.4950 88.3730 -70.0729
v  -262.2154 106.6795 -62.1712
v  -260.7429 110.3436 -61.5127
v  -261.9860 106.6494 -67.2641
v  -258.7317 114.6058 -65.6928
v  -258.2194 114.3666 -66.2757
v  -261.7158 106.3877 -67.7044
v  -260.0703 112.1039 -60.6310
v  -257.9093 116.5027 -65.0003
v  -257.2086 116.8694 -65.3322
v  -257.5356 117.4812 -64.3463
v  -256.8583 117.7227 -64.7640
v  -259.3498 113.8386 -59.1311
v  -257.2336 118.2018 -63.6282
v  -256.7418 118.4346 -63.9680
v  -257.0075 118.6775 -62.8879
v  -256.5165 118.9424 -63.3016
v  -256.8902 119.0540 -61.9348
v  -256.3843 119.4193 -62.4326
v  -256.7935 119.3208 -60.7389
v  -259.0005 114.6607 -57.6835
v  -256.2853 119.7866 -61.3778
v  -259.7271 115.0218 -30.3019
v  -257.4961 119.8658 -30.3121
v  -259.4550 115.0282 -40.0365
v  -257.2429 119.8310 -40.0605
v  -258.1938 119.3242 -7.6205
v  -258.5961 118.5156 -6.5374
v  -257.8839 119.6809 -6.6688
v  -258.2522 118.8729 -5.7068
v  -259.1138 117.4608 -5.6641
v  -258.5699 117.8668 -4.9061
v  -259.7373 116.1312 -5.1651
v  -259.2470 116.5042 -4.4438
v  -260.4685 114.2163 -13.8414
v  -260.6776 113.6329 -13.0452
v  -260.4507 114.7020 -5.0021
v  -260.1322 114.5486 -4.3327
v  -263.6413 106.5294 -12.7072
v  -263.8763 106.5254 -5.1046
v  -260.9854 112.8725 -12.6970
v  -263.6021 106.2900 -4.5101
v  -266.6028 98.0845 -12.8756
v  -266.7779 98.1834 -4.9637
v  -266.4184 98.1907 -4.4723
v  -271.4891 79.1077 -12.8957
v  -272.6235 72.0566 -13.0956
v  -271.7384 79.0771 -4.8155
v  -273.2328 68.2363 -4.8870
v  -271.4223 78.8183 -4.3912
v  -272.9071 67.8792 -4.4556
v  -273.5165 67.2037 -5.3152
v  -272.7554 71.1057 -13.4421
v  -273.0189 66.5633 -5.0798
v  -273.5577 66.4081 -6.0164
v  -273.1019 65.7035 -5.7676
v  -273.6124 65.6053 -7.2510
v  -273.5561 65.2266 -9.9455
v  -272.8578 70.2321 -13.9541
v  -273.2315 65.0425 -6.9261
v  -273.5133 65.0900 -14.2991
v  -272.9715 69.3072 -14.8548
v  -273.2285 64.6503 -9.6801
v  -273.1341 64.6117 -13.8390
v  -272.9061 68.8007 -20.8650
v  -273.3813 65.1070 -20.8596
v  -272.9843 68.8786 -16.0540
v  -272.4896 64.5061 -39.7993
v  -272.7342 64.5425 -30.1746
v  -272.8130 65.1299 -39.7500
v  -273.1185 65.1437 -30.1765
v  -272.6468 64.9310 -49.5176
v  -272.2704 64.4881 -49.5795
v  -265.1798 97.3454 -68.5536
v  -265.4040 97.4105 -63.3788
v  -264.9221 97.3395 -69.0014
v  -269.1150 89.2086 -4.5086
v  -269.4239 89.2383 -5.0128
v  -269.1970 89.1355 -12.9113
v  -256.7543 119.4899 -58.8082
v  -272.6789 68.7377 -30.1852
v  -272.4150 68.7694 -39.7710
v  -256.2884 119.9578 -58.9157
v  -256.9609 119.7136 -49.4243
v  -259.1885 114.9288 -49.4342
v  -272.0690 64.4997 -58.6217
v  -272.3654 65.0612 -58.4211
v  -271.8647 68.8193 -58.3277
v  -256.5128 120.1646 -49.4234
v  -272.1328 68.7828 -49.5097
v  -256.7354 120.3412 -39.7990
v  -256.9360 120.4123 -30.3162
v  -272.9486 64.5809 -20.8585
v  -257.1156 120.4898 -20.9527
v  -257.6509 119.9562 -20.9540
v  -257.8843 119.8923 -9.1300
v  -257.5599 120.3795 -7.8323
v  -260.1951 114.6151 -14.9108
v  -259.9900 114.8375 -20.9432
v  -257.8602 119.9046 -10.8858
v  -257.4363 120.4503 -10.4681
# 122 vertices

vn -0.9892 0.1457 -0.0179
vn -0.9903 0.1383 -0.0116
vn -0.9904 0.1376 -0.0114
vn -0.7976 -0.5966 -0.0886
vn -0.7396 -0.5901 -0.3237
vn -0.9901 0.1396 -0.0118
vn -0.7969 -0.3547 -0.4890
vn -0.9893 0.1453 -0.0143
vn -0.9899 0.1412 -0.0121
vn -0.8147 -0.1641 -0.5562
vn -0.9891 0.1470 -0.0131
vn -0.9895 0.1438 -0.0125
vn -0.8052 -0.0103 -0.5930
vn -0.9885 0.1505 -0.0134
vn -0.9887 0.1490 -0.0135
vn -0.7298 0.1606 -0.6646
vn -0.9800 0.1977 -0.0231
vn -0.9791 0.2032 -0.0094
vn -0.7509 0.2042 -0.6280
vn -0.9676 0.2507 -0.0311
vn -0.9674 0.2512 -0.0315
vn -0.8210 0.2614 -0.5075
vn -0.9344 0.3547 -0.0339
vn -0.9275 0.3725 -0.0321
vn -0.9347 0.3532 -0.0408
vn -0.9198 0.3911 -0.0325
vn -0.6130 0.4099 -0.6754
vn -0.7037 0.3646 -0.6098
vn -0.9240 0.3811 -0.0311
vn -0.9186 0.3943 -0.0267
vn -0.5661 0.5433 -0.6199
vn -0.9179 0.3962 -0.0237
vn -0.5820 0.6319 -0.5117
vn -0.9199 0.3908 -0.0314
vn -0.9169 0.3986 -0.0226
vn -0.6073 0.6864 -0.4001
vn -0.9157 0.4011 -0.0230
vn -0.6460 0.7137 -0.2709
vn -0.9146 0.4038 -0.0238
vn -0.6958 0.6938 -0.1859
vn -0.9133 0.4066 -0.0251
vn -0.9175 0.3964 -0.0322
vn -0.7273 0.6796 -0.0964
vn -0.9172 0.3979 -0.0217
vn -0.9089 0.4165 -0.0218
vn -0.9167 0.3986 -0.0273
vn -0.9081 0.4179 -0.0276
vn -0.9126 0.4076 -0.0331
vn -0.9141 0.4042 -0.0337
vn -0.8486 0.5228 0.0809
vn -0.8353 0.5227 0.1703
vn -0.9154 0.4012 -0.0330
vn -0.8211 0.5081 0.2600
vn -0.9170 0.3976 -0.0316
vn -0.8125 0.4702 0.3447
vn -0.9189 0.3936 -0.0244
vn -0.9201 0.3909 -0.0248
vn -0.9187 0.3939 -0.0299
vn -0.8126 0.3481 0.4674
vn -0.9336 0.3575 -0.0241
vn -0.9337 0.3571 -0.0268
vn -0.9216 0.3874 -0.0249
vn -0.8062 0.3083 0.5049
vn -0.9522 0.3045 -0.0255
vn -0.9519 0.3051 -0.0285
vn -0.8004 0.2634 0.5385
vn -0.9816 0.1892 -0.0265
vn -0.9895 0.1432 -0.0206
vn -0.9820 0.1865 -0.0286
vn -0.9908 0.1342 -0.0175
vn -0.7537 0.1304 0.6441
vn -0.7416 0.0469 0.6692
vn -0.9909 0.1338 -0.0167
vn -0.9899 0.1401 -0.0200
vn -0.7614 -0.2989 0.5753
vn -0.9909 0.1336 -0.0161
vn -0.8269 -0.4052 0.3900
vn -0.9909 0.1336 -0.0157
vn -0.9908 0.1345 -0.0158
vn -0.9900 0.1398 -0.0195
vn -0.8573 -0.4843 0.1749
vn -0.9906 0.1362 -0.0163
vn -0.9900 0.1398 -0.0191
vn -0.8347 -0.5498 0.0313
vn -0.8014 -0.5981 -0.0087
vn -0.9894 0.1434 -0.0220
vn -0.9900 0.1394 -0.0217
vn -0.9899 0.1405 -0.0192
vn -0.8554 -0.5177 -0.0172
vn -0.8445 -0.5351 -0.0217
vn -0.9907 0.1331 -0.0265
vn -0.9905 0.1349 -0.0268
vn -0.9901 0.1376 -0.0271
vn -0.8353 -0.5495 -0.0195
vn -0.9530 0.3005 -0.0394
vn -0.9533 0.3002 -0.0338
vn -0.8041 0.3190 -0.5016
vn -0.7876 0.2093 0.5795
vn -0.9677 0.2502 -0.0296
vn -0.9680 0.2496 -0.0273
vn -0.9097 0.4141 -0.0300
vn -0.9897 0.1407 -0.0261
vn -0.9899 0.1394 -0.0267
vn -0.7158 0.6974 -0.0358
vn -0.9076 0.4187 -0.0315
vn -0.9166 0.3985 -0.0320
vn -0.8301 -0.5568 -0.0300
vn -0.9892 0.1431 -0.0326
vn -0.9887 0.1462 -0.0326
vn -0.7072 0.7063 -0.0308
vn -0.9894 0.1427 -0.0280
vn -0.7064 0.7074 -0.0241
vn -0.7086 0.7054 -0.0196
vn -0.8008 -0.5987 -0.0188
vn -0.7265 0.6869 -0.0170
vn -0.9083 0.4179 -0.0190
vn -0.9111 0.4109 -0.0315
vn -0.8479 0.5292 0.0322
vn -0.9180 0.3959 -0.0237
vn -0.9173 0.3977 -0.0198
vn -0.9105 0.4124 -0.0294
vn -0.7605 0.6491 -0.0174
# 122 vertex normals

vt 0.3201 0.5167 0.0000
vt 0.3356 0.5284 0.0000
vt 0.3268 0.5307 0.0000
vt 0.3269 0.5329 0.0000
vt 0.3379 0.5303 0.0000
vt 0.3403 0.5252 0.0000
vt 0.3427 0.5261 0.0000
vt 0.3244 0.5157 0.0000
vt 0.3427 0.5219 0.0000
vt 0.3453 0.5226 0.0000
vt 0.3266 0.5114 0.0000
vt 0.3443 0.5163 0.0000
vt 0.3459 0.5173 0.0000
vt 0.3269 0.5064 0.0000
vt 0.3440 0.5059 0.0000
vt 0.3463 0.5058 0.0000
vt 0.3250 0.4811 0.0000
vt 0.3429 0.4810 0.0000
vt 0.3451 0.4813 0.0000
vt 0.3225 0.4496 0.0000
vt 0.3401 0.4499 0.0000
vt 0.3421 0.4497 0.0000
vt 0.3157 0.3847 0.0000
vt 0.3136 0.3713 0.0000
vt 0.3330 0.3848 0.0000
vt 0.3281 0.3555 0.0000
vt 0.3309 0.3555 0.0000
vt 0.3349 0.3852 0.0000
vt 0.3107 0.3648 0.0000
vt 0.3259 0.3484 0.0000
vt 0.3277 0.3461 0.0000
vt 0.3237 0.3448 0.0000
vt 0.3257 0.3428 0.0000
vt 0.3057 0.3584 0.0000
vt 0.3213 0.3421 0.0000
vt 0.3228 0.3405 0.0000
vt 0.3188 0.3403 0.0000
vt 0.3205 0.3385 0.0000
vt 0.3156 0.3389 0.0000
vt 0.3174 0.3369 0.0000
vt 0.3115 0.3378 0.0000
vt 0.3008 0.3552 0.0000
vt 0.3138 0.3356 0.0000
vt 0.2077 0.3539 0.0000
vt 0.2080 0.3357 0.0000
vt 0.2408 0.3539 0.0000
vt 0.2412 0.3360 0.0000
vt 0.1306 0.3374 0.0000
vt 0.1269 0.3404 0.0000
vt 0.1274 0.3358 0.0000
vt 0.1241 0.3387 0.0000
vt 0.1239 0.3444 0.0000
vt 0.1212 0.3423 0.0000
vt 0.1221 0.3494 0.0000
vt 0.1195 0.3474 0.0000
vt 0.1516 0.3567 0.0000
vt 0.1489 0.3587 0.0000
vt 0.1215 0.3548 0.0000
vt 0.1190 0.3548 0.0000
vt 0.1474 0.3849 0.0000
vt 0.1215 0.3849 0.0000
vt 0.1477 0.3615 0.0000
vt 0.1192 0.3853 0.0000
vt 0.1477 0.4154 0.0000
vt 0.1207 0.4150 0.0000
vt 0.1187 0.4145 0.0000
vt 0.1471 0.4821 0.0000
vt 0.1476 0.5064 0.0000
vt 0.1196 0.4821 0.0000
vt 0.1196 0.5193 0.0000
vt 0.1177 0.4828 0.0000
vt 0.1176 0.5204 0.0000
vt 0.1210 0.5229 0.0000
vt 0.1488 0.5097 0.0000
vt 0.1194 0.5253 0.0000
vt 0.1234 0.5257 0.0000
vt 0.1221 0.5285 0.0000
vt 0.1276 0.5284 0.0000
vt 0.1367 0.5298 0.0000
vt 0.1505 0.5127 0.0000
vt 0.1263 0.5307 0.0000
vt 0.1516 0.5303 0.0000
vt 0.1536 0.5159 0.0000
vt 0.1358 0.5321 0.0000
vt 0.1500 0.5324 0.0000
vt 0.1740 0.5177 0.0000
vt 0.1739 0.5304 0.0000
vt 0.1576 0.5173 0.0000
vt 0.2385 0.5328 0.0000
vt 0.2057 0.5327 0.0000
vt 0.2383 0.5304 0.0000
vt 0.2057 0.5303 0.0000
vt 0.2716 0.5311 0.0000
vt 0.2718 0.5331 0.0000
vt 0.3370 0.4182 0.0000
vt 0.3194 0.4180 0.0000
vt 0.3388 0.4179 0.0000
vt 0.1185 0.4465 0.0000
vt 0.1206 0.4467 0.0000
vt 0.1475 0.4471 0.0000
vt 0.3049 0.3372 0.0000
vt 0.2058 0.5180 0.0000
vt 0.2384 0.5179 0.0000
vt 0.3053 0.3350 0.0000
vt 0.2730 0.3364 0.0000
vt 0.2728 0.3543 0.0000
vt 0.3026 0.5328 0.0000
vt 0.3019 0.5307 0.0000
vt 0.3016 0.5178 0.0000
vt 0.2730 0.3342 0.0000
vt 0.2716 0.5179 0.0000
vt 0.2403 0.3335 0.0000
vt 0.2081 0.3331 0.0000
vt 0.1739 0.5326 0.0000
vt 0.1762 0.3326 0.0000
vt 0.1761 0.3352 0.0000
vt 0.1358 0.3352 0.0000
vt 0.1314 0.3332 0.0000
vt 0.1553 0.3551 0.0000
vt 0.1758 0.3544 0.0000
vt 0.1418 0.3352 0.0000
vt 0.1404 0.3328 0.0000
# 122 texture coords

g P615_5A_50DB_L_P615_5A_50DB_L_2_DTaSI
usemtl windowglassblack_1SG
s 1
f 60/60/60 61/61/61 62/62/62 
f 62/62/62 61/61/61 63/63/63 
f 63/63/63 61/61/61 64/64/64 
f 65/65/65 61/61/61 60/60/60 
f 61/61/61 65/65/65 64/64/64 
f 64/64/64 65/65/65 66/66/66 
f 60/60/60 67/67/67 65/65/65 
f 65/65/65 67/67/67 68/68/68 
f 65/65/65 68/68/68 66/66/66 
f 66/66/66 68/68/68 69/69/69 
f 67/67/67 70/70/70 68/68/68 
f 68/68/68 70/70/70 71/71/71 
f 71/71/71 72/72/72 68/68/68 
f 68/68/68 72/72/72 69/69/69 
f 73/73/73 74/74/74 70/70/70 
f 70/70/70 74/74/74 71/71/71 
f 74/74/74 75/75/75 71/71/71 
f 71/71/71 75/75/75 72/72/72 
f 76/76/76 77/77/77 73/73/73 
f 73/73/73 77/77/77 74/74/74 
f 77/77/77 78/78/78 74/74/74 
f 74/74/74 78/78/78 75/75/75 
f 79/79/79 80/80/80 76/76/76 
f 76/76/76 80/80/80 77/77/77 
f 80/80/80 81/81/81 77/77/77 
f 77/77/77 81/81/81 78/78/78 
f 82/82/82 83/83/83 84/84/84 
f 84/84/84 83/83/83 85/85/85 
f 85/85/85 86/86/86 84/84/84 
f 84/84/84 86/86/86 87/87/87 
f 83/83/83 88/88/88 85/85/85 
f 85/85/85 88/88/88 89/89/89 
f 85/85/85 89/89/89 86/86/86 
f 86/86/86 89/89/89 90/90/90 
f 89/89/89 91/91/91 90/90/90 
f 90/90/90 91/91/91 92/92/92 
f 93/93/93 94/94/94 91/91/91 
f 91/91/91 94/94/94 92/92/92 
f 92/92/92 94/94/94 95/95/95 
f 96/96/96 97/97/97 94/94/94 
f 94/94/94 97/97/97 95/95/95 
f 98/98/98 99/99/99 96/96/96 
f 96/96/96 99/99/99 97/97/97 
f 100/100/100 98/98/98 101/101/101 
f 100/100/100 102/102/102 98/98/98 
f 98/98/98 102/102/102 99/99/99 
f 103/103/103 104/104/104 105/105/105 
f 105/105/105 104/104/104 106/106/106 
f 107/107/107 108/108/108 109/109/109 
f 109/109/109 108/108/108 110/110/110 
f 108/108/108 111/111/111 110/110/110 
f 110/110/110 111/111/111 112/112/112 
f 113/113/113 114/114/114 111/111/111 
f 111/111/111 114/114/114 112/112/112 
f 115/115/115 116/116/116 111/111/111 
f 111/111/111 116/116/116 113/113/113 
f 117/117/117 118/118/118 113/113/113 
f 113/113/113 118/118/118 114/114/114 
f 119/119/119 120/120/120 121/121/121 
f 121/121/121 120/120/120 117/117/117 
f 117/117/117 120/120/120 118/118/118 
f 118/118/118 120/120/120 122/122/122 
f 119/119/119 123/123/123 120/120/120 
f 120/120/120 123/123/123 124/124/124 
f 125/125/125 122/122/122 124/124/124 
f 124/124/124 122/122/122 120/120/120 
f 126/126/126 127/127/127 128/128/128 
f 128/128/128 127/127/127 129/129/129 
f 128/128/128 129/129/129 130/130/130 
f 130/130/130 129/129/129 131/131/131 
f 132/132/132 129/129/129 133/133/133 
f 133/133/133 129/129/129 127/127/127 
f 129/129/129 132/132/132 131/131/131 
f 131/131/131 132/132/132 134/134/134 
f 132/132/132 135/135/135 134/134/134 
f 134/134/134 135/135/135 136/136/136 
f 137/137/137 133/133/133 138/138/138 
f 138/138/138 133/133/133 139/139/139 
f 135/135/135 137/137/137 136/136/136 
f 136/136/136 137/137/137 140/140/140 
f 138/138/138 139/139/139 141/141/141 
f 141/141/141 139/139/139 142/142/142 
f 138/138/138 143/143/143 137/137/137 
f 137/137/137 143/143/143 140/140/140 
f 141/141/141 144/144/144 138/138/138 
f 138/138/138 144/144/144 143/143/143 
f 145/145/145 146/146/146 147/147/147 
f 147/147/147 146/146/146 141/141/141 
f 148/148/148 149/149/149 150/150/150 
f 150/150/150 149/149/149 151/151/151 
f 150/150/150 152/152/152 148/148/148 
f 148/148/148 152/152/152 153/153/153 
f 135/135/135 133/133/133 137/137/137 
f 142/142/142 147/147/147 141/141/141 
f 101/101/101 98/98/98 96/96/96 
f 80/80/80 79/79/79 154/154/154 
f 154/154/154 79/79/79 155/155/155 
f 156/156/156 81/81/81 154/154/154 
f 154/154/154 81/81/81 80/80/80 
f 130/130/130 157/157/157 128/128/128 
f 128/128/128 157/157/157 158/158/158 
f 159/159/159 126/126/126 158/158/158 
f 158/158/158 126/126/126 128/128/128 
f 154/154/154 155/155/155 84/84/84 
f 84/84/84 155/155/155 82/82/82 
f 156/156/156 154/154/154 87/87/87 
f 87/87/87 154/154/154 84/84/84 
f 125/125/125 124/124/124 157/157/157 
f 157/157/157 124/124/124 158/158/158 
f 124/124/124 123/123/123 158/158/158 
f 158/158/158 123/123/123 159/159/159 
f 100/100/100 101/101/101 160/160/160 
f 101/101/101 96/96/96 93/93/93 
f 93/93/93 96/96/96 94/94/94 
f 132/132/132 133/133/133 135/135/135 
f 151/151/151 161/161/161 150/150/150 
f 150/150/150 161/161/161 162/162/162 
f 160/160/160 163/163/163 100/100/100 
f 100/100/100 163/163/163 102/102/102 
f 164/164/164 165/165/165 106/106/106 
f 106/106/106 165/165/165 105/105/105 
f 88/88/88 93/93/93 89/89/89 
f 89/89/89 93/93/93 91/91/91 
f 63/63/63 166/166/166 62/62/62 
f 62/62/62 166/166/166 167/167/167 
f 62/62/62 167/167/167 60/60/60 
f 60/60/60 167/167/167 168/168/168 
f 164/164/164 169/169/169 160/160/160 
f 160/160/160 169/169/169 163/163/163 
f 152/152/152 167/167/167 153/153/153 
f 153/153/153 167/167/167 166/166/166 
f 152/152/152 170/170/170 167/167/167 
f 167/167/167 170/170/170 168/168/168 
f 165/165/165 164/164/164 101/101/101 
f 101/101/101 164/164/164 160/160/160 
f 164/164/164 106/106/106 169/169/169 
f 169/169/169 106/106/106 171/171/171 
f 162/162/162 170/170/170 150/150/150 
f 150/150/150 170/170/170 152/152/152 
f 106/106/106 104/104/104 171/171/171 
f 171/171/171 104/104/104 172/172/172 
f 146/146/146 151/151/151 173/173/173 
f 173/173/173 151/151/151 149/149/149 
f 146/146/146 145/145/145 151/151/151 
f 151/151/151 145/145/145 161/161/161 
f 146/146/146 173/173/173 141/141/141 
f 141/141/141 173/173/173 144/144/144 
f 172/172/172 104/104/104 174/174/174 
f 174/174/174 104/104/104 175/175/175 
f 176/176/176 107/107/107 177/177/177 
f 177/177/177 107/107/107 109/109/109 
f 108/108/108 107/107/107 115/115/115 
f 115/115/115 107/107/107 178/178/178 
f 115/115/115 111/111/111 108/108/108 
f 176/176/176 178/178/178 107/107/107 
f 104/104/104 103/103/103 175/175/175 
f 175/175/175 103/103/103 179/179/179 
f 179/179/179 178/178/178 175/175/175 
f 175/175/175 178/178/178 180/180/180 
f 177/177/177 181/181/181 176/176/176 
f 176/176/176 181/181/181 180/180/180 
f 181/181/181 174/174/174 180/180/180 
f 180/180/180 174/174/174 175/175/175 
f 180/180/180 178/178/178 176/176/176 
f 113/113/113 116/116/116 117/117/117 
f 117/117/117 116/116/116 121/121/121 
# 166 faces

