# 3ds Max Wavefront OBJ Exporter v0.97b - (c)2007 guruware
# File Created: 04.01.2016 12:56:42

mtllib Y651_304H_L.mtl

#
# object Y651_304H_L_DTaSI_Y651_304H_L
#

v  -103.9908 69.3560 -93.6991
v  -101.8416 69.3242 -93.7129
v  -103.8051 61.3078 -96.5548
v  -101.4129 61.2400 -96.5882
v  -110.7692 69.4889 -93.5797
v  -104.4652 79.8572 -89.8574
v  -110.7617 79.9411 -89.7594
v  -110.8973 61.5341 -96.4008
v  -104.8304 89.3315 -86.1984
v  -110.7074 89.3862 -86.1057
v  -110.6175 105.8014 -78.4480
v  -105.4678 105.8257 -78.4922
v  -110.6589 97.9658 -82.4006
v  -105.1626 97.9424 -82.4807
v  -105.6264 109.8928 -76.2638
v  -110.5998 109.8216 -76.2538
v  -103.7778 105.8337 -78.5068
v  -103.9942 109.9162 -76.2671
v  -103.3589 97.9347 -82.5071
v  -102.9017 89.3135 -86.2289
v  -102.3988 79.8297 -89.8895
v  -117.6429 69.6237 -93.4585
v  -118.0892 61.7636 -96.2446
v  -125.2641 69.7731 -93.3242
v  -126.0633 62.0181 -96.0715
v  -117.1466 80.0262 -89.6601
v  -124.2260 80.1205 -89.5500
v  -116.6669 89.4417 -86.0116
v  -123.2746 89.5031 -85.9073
v  -116.2322 97.9895 -82.3193
v  -122.4118 98.0158 -82.2291
v  -115.8395 105.7768 -78.4031
v  -121.6294 105.7495 -78.3533
v  -115.6430 109.7494 -76.2436
v  -121.2347 109.6693 -76.2323
v  -128.8406 69.8433 -93.2612
v  -129.8054 62.1375 -95.9902
v  -127.5483 80.1648 -89.4984
v  -126.3755 89.5320 -85.8583
v  -125.3117 98.0282 -82.1868
v  -124.3465 105.7366 -78.3300
v  -123.8589 109.6317 -76.2270
# 42 vertices

vn -0.0079 0.3391 -0.9407
vn -0.0012 0.3385 -0.9410
vn -0.0081 0.3344 -0.9424
vn -0.0037 0.3349 -0.9422
vn -0.0100 0.3394 -0.9406
vn -0.0099 0.3509 -0.9364
vn -0.0101 0.3516 -0.9361
vn -0.0099 0.3344 -0.9424
vn -0.0109 0.3771 -0.9261
vn -0.0112 0.3778 -0.9258
vn -0.0096 0.4602 -0.8878
vn -0.0100 0.4607 -0.8875
vn -0.0112 0.4225 -0.9063
vn -0.0113 0.4224 -0.9063
vn -0.0091 0.4798 -0.8773
vn -0.0086 0.4791 -0.8777
vn -0.0099 0.4609 -0.8874
vn -0.0089 0.4803 -0.8771
vn -0.0114 0.4219 -0.9066
vn -0.0110 0.3764 -0.9264
vn -0.0093 0.3506 -0.9365
vn -0.0099 0.3396 -0.9405
vn -0.0098 0.3346 -0.9423
vn -0.0098 0.3348 -0.9422
vn -0.0100 0.3522 -0.9359
vn -0.0099 0.3525 -0.9358
vn -0.0110 0.3785 -0.9256
vn -0.0109 0.3788 -0.9254
vn -0.0112 0.4221 -0.9065
vn -0.0113 0.4215 -0.9067
vn -0.0098 0.4593 -0.8882
vn -0.0100 0.4581 -0.8888
vn -0.0089 0.4782 -0.8782
vn -0.0091 0.4770 -0.8789
vn -0.0098 0.3349 -0.9422
vn -0.0098 0.3523 -0.9358
vn -0.0109 0.3785 -0.9255
vn -0.0113 0.4205 -0.9072
vn -0.0100 0.4571 -0.8893
vn -0.0090 0.4764 -0.8792
# 40 vertex normals

vt 0.3559 0.9503 0.0000
vt 0.3627 0.9502 0.0000
vt 0.3572 0.9757 0.0000
vt 0.3647 0.9757 0.0000
vt 0.3345 0.9505 0.0000
vt 0.3534 0.9172 0.0000
vt 0.3336 0.9175 0.0000
vt 0.3348 0.9756 0.0000
vt 0.3514 0.8873 0.0000
vt 0.3329 0.8877 0.0000
vt 0.3317 0.8359 0.0000
vt 0.3479 0.8354 0.0000
vt 0.3322 0.8606 0.0000
vt 0.3496 0.8602 0.0000
vt 0.3470 0.8225 0.0000
vt 0.3314 0.8232 0.0000
vt 0.3532 0.8352 0.0000
vt 0.3522 0.8223 0.0000
vt 0.3553 0.8601 0.0000
vt 0.3575 0.8872 0.0000
vt 0.3599 0.9171 0.0000
vt 0.3128 0.9507 0.0000
vt 0.3121 0.9755 0.0000
vt 0.2887 0.9509 0.0000
vt 0.2869 0.9754 0.0000
vt 0.3134 0.9178 0.0000
vt 0.2911 0.9182 0.0000
vt 0.3141 0.8881 0.0000
vt 0.2932 0.8885 0.0000
vt 0.3147 0.8611 0.0000
vt 0.2952 0.8615 0.0000
vt 0.3152 0.8365 0.0000
vt 0.2969 0.8371 0.0000
vt 0.3155 0.8239 0.0000
vt 0.2978 0.8247 0.0000
vt 0.2774 0.9510 0.0000
vt 0.2751 0.9754 0.0000
vt 0.2806 0.9183 0.0000
vt 0.2834 0.8887 0.0000
vt 0.2860 0.8618 0.0000
vt 0.2884 0.8374 0.0000
vt 0.2895 0.8250 0.0000
# 42 texture coords

g Y651_304H_L_DTaSI_Y651_304H_L
usemtl windowglass_1SG
s 1
f 1/1/1 2/2/2 3/3/3 
f 3/3/3 2/2/2 4/4/4 
f 1/1/1 5/5/5 6/6/6 
f 6/6/6 5/5/5 7/7/7 
f 5/5/5 1/1/1 8/8/8 
f 8/8/8 1/1/1 3/3/3 
f 6/6/6 7/7/7 9/9/9 
f 9/9/9 7/7/7 10/10/10 
f 11/11/11 12/12/12 13/13/13 
f 13/13/13 12/12/12 14/14/14 
f 9/9/9 10/10/10 14/14/14 
f 14/14/14 10/10/10 13/13/13 
f 12/12/12 11/11/11 15/15/15 
f 15/15/15 11/11/11 16/16/16 
f 17/17/17 12/12/12 18/18/18 
f 18/18/18 12/12/12 15/15/15 
f 12/12/12 17/17/17 14/14/14 
f 14/14/14 17/17/17 19/19/19 
f 20/20/20 9/9/9 19/19/19 
f 19/19/19 9/9/9 14/14/14 
f 21/21/21 6/6/6 20/20/20 
f 20/20/20 6/6/6 9/9/9 
f 6/6/6 21/21/21 1/1/1 
f 1/1/1 21/21/21 2/2/2 
f 22/22/22 23/23/23 24/24/22 
f 24/24/22 23/23/23 25/25/24 
f 26/26/25 22/22/22 27/27/26 
f 27/27/26 22/22/22 24/24/22 
f 28/28/27 26/26/25 29/29/28 
f 29/29/28 26/26/25 27/27/26 
f 30/30/29 28/28/27 31/31/30 
f 31/31/30 28/28/27 29/29/28 
f 32/32/31 30/30/29 33/33/32 
f 33/33/32 30/30/29 31/31/30 
f 34/34/33 32/32/31 35/35/34 
f 35/35/34 32/32/31 33/33/32 
f 5/5/5 8/8/8 22/22/22 
f 22/22/22 8/8/8 23/23/23 
f 7/7/7 5/5/5 26/26/25 
f 26/26/25 5/5/5 22/22/22 
f 10/10/10 7/7/7 28/28/27 
f 28/28/27 7/7/7 26/26/25 
f 13/13/13 10/10/10 30/30/29 
f 30/30/29 10/10/10 28/28/27 
f 11/11/11 13/13/13 32/32/31 
f 32/32/31 13/13/13 30/30/29 
f 16/16/16 11/11/11 34/34/33 
f 34/34/33 11/11/11 32/32/31 
f 24/24/22 25/25/24 36/36/22 
f 36/36/22 25/25/24 37/37/35 
f 27/27/26 24/24/22 38/38/36 
f 38/38/36 24/24/22 36/36/22 
f 29/29/28 27/27/26 39/39/37 
f 39/39/37 27/27/26 38/38/36 
f 31/31/30 29/29/28 40/40/38 
f 40/40/38 29/29/28 39/39/37 
f 33/33/32 31/31/30 41/41/39 
f 41/41/39 31/31/30 40/40/38 
f 35/35/34 33/33/32 42/42/40 
f 42/42/40 33/33/32 41/41/39 
# 60 faces

