# 3ds Max Wavefront OBJ Exporter v0.97b - (c)2007 guruware
# File Created: 04.01.2016 12:55:28

mtllib Y651_265B_L.mtl

#
# object Y651_265B_L_DTaSI_Y651_265B_L
#

v  14.9263 65.8914 -93.8977
v  7.8391 66.1413 -93.9025
v  13.8207 76.9555 -89.6209
v  6.5465 77.1647 -89.6387
v  -16.5678 109.5274 -75.8339
v  -8.8620 109.3583 -75.8006
v  -15.7506 104.4139 -78.3926
v  -5.5068 103.9148 -78.4610
v  9.6913 103.2081 -78.5774
v  2.3939 103.5474 -78.5215
v  8.6332 108.3771 -75.9631
v  4.9506 108.6994 -75.8734
v  1.3708 108.8702 -75.8545
v  15.5842 102.9331 -78.6173
v  14.3235 107.8792 -76.1017
v  32.8258 102.0759 -78.7024
v  26.8804 102.2934 -78.7388
v  31.7289 105.3360 -77.0465
v  25.4968 106.5025 -76.5694
v  50.8965 93.6642 -82.1612
v  49.6364 98.6299 -79.9974
v  58.7050 93.2563 -81.8056
v  60.5013 86.4334 -84.5343
v  53.0211 86.3608 -84.9004
v  45.6907 86.2895 -85.2591
v  48.5028 75.8853 -89.2512
v  55.5717 75.6086 -89.0900
v  86.2259 74.2745 -88.3373
v  91.4758 70.9224 -89.4310
v  87.5714 61.4590 -93.6594
v  91.7612 68.9188 -90.2281
v  92.8926 60.9765 -93.6528
v  51.5163 63.8306 -93.9213
v  58.3217 63.3951 -93.8947
v  53.6083 54.6155 -97.5357
v  60.3385 54.1579 -97.5601
v  82.3537 52.7071 -97.5977
v  74.1983 53.2156 -97.6102
v  80.6611 61.9303 -93.7412
v  72.3363 62.4981 -93.8398
v  8.6365 57.0880 -97.4282
v  15.6148 56.8179 -97.4277
v  5.0338 86.9351 -85.8964
v  12.3255 86.7414 -85.8751
v  10.8837 95.9556 -82.0619
v  3.5566 96.3187 -82.0132
v  22.5847 65.4744 -93.9112
v  23.6593 56.3701 -97.4491
v  20.9099 76.7529 -89.5689
v  19.1198 86.6010 -85.8129
v  70.1291 75.0387 -88.7581
v  68.3362 86.5505 -84.1426
v  78.3103 79.5931 -86.5694
v  78.7480 74.6467 -88.5211
v  62.7852 75.3262 -88.9255
v  65.2662 62.9506 -93.8675
v  67.2063 53.6910 -97.5849
v  25.1489 86.4764 -85.7577
v  31.5253 86.3460 -85.6979
v  27.2007 76.5730 -89.5228
v  34.0929 76.3760 -89.4723
v  36.8262 64.6991 -93.9362
v  29.3806 65.1045 -93.9231
v  30.7979 55.9727 -97.4682
v  38.6189 55.5374 -97.4890
v  17.2194 95.6455 -82.1245
v  -9.7141 66.6426 -93.9682
v  0.1659 66.4118 -93.9077
v  -8.2918 57.7432 -97.4296
v  1.0812 57.3804 -97.4288
v  -1.3290 77.3911 -89.6579
v  -11.4731 77.6490 -89.7040
v  -13.0402 87.4546 -85.9425
v  -2.8608 87.1447 -85.9195
v  -4.3764 96.7119 -81.9603
v  -14.6174 97.3232 -81.8603
v  -6.6564 109.2531 -75.8122
v  43.3875 94.1348 -82.2323
v  43.2186 101.5924 -78.7203
v  29.1263 95.0024 -82.2434
v  22.8416 95.3704 -82.1800
v  20.8134 102.6891 -78.6527
v  94.2003 51.9684 -97.5796
v  89.3182 52.2728 -97.5871
v  44.3370 64.2901 -93.9495
v  46.5083 55.0982 -97.5100
v  41.0455 76.1773 -89.4212
v  37.9576 86.2144 -85.6375
v  35.4660 94.6312 -82.3073
v  19.3731 107.4373 -76.2247
# 90 vertices

vn 0.0159 0.3626 -0.9318
vn 0.0134 0.3629 -0.9317
vn 0.0149 0.3606 -0.9326
vn 0.0127 0.3608 -0.9326
vn 0.0137 0.4492 -0.8933
vn 0.0154 0.4475 -0.8942
vn 0.0152 0.4443 -0.8957
vn 0.0156 0.4428 -0.8965
vn 0.0148 0.4432 -0.8963
vn 0.0143 0.4426 -0.8966
vn 0.0164 0.4532 -0.8912
vn 0.0173 0.4503 -0.8927
vn 0.0156 0.4493 -0.8932
vn 0.0147 0.4442 -0.8958
vn 0.0173 0.4559 -0.8899
vn 0.0197 0.4463 -0.8947
vn 0.0185 0.4464 -0.8946
vn 0.0203 0.4596 -0.8879
vn 0.0189 0.4619 -0.8867
vn 0.0484 0.3835 -0.9223
vn 0.0335 0.4165 -0.9085
vn 0.0509 0.3797 -0.9237
vn 0.0405 0.3760 -0.9257
vn 0.0436 0.3691 -0.9283
vn 0.0400 0.3665 -0.9296
vn 0.0354 0.3673 -0.9294
vn 0.0356 0.3713 -0.9278
vn 0.0443 0.3845 -0.9220
vn 0.0572 0.3875 -0.9201
vn 0.0377 0.3926 -0.9190
vn 0.0600 0.3891 -0.9192
vn 0.0357 0.4000 -0.9158
vn 0.0275 0.3689 -0.9290
vn 0.0279 0.3729 -0.9274
vn 0.0230 0.3708 -0.9284
vn 0.0233 0.3744 -0.9270
vn 0.0282 0.3925 -0.9193
vn 0.0275 0.3841 -0.9229
vn 0.0364 0.3863 -0.9217
vn 0.0332 0.3813 -0.9239
vn 0.0140 0.3638 -0.9314
vn 0.0163 0.3637 -0.9314
vn 0.0126 0.3715 -0.9283
vn 0.0137 0.3706 -0.9287
vn 0.0128 0.4066 -0.9135
vn 0.0139 0.4071 -0.9133
vn 0.0180 0.3625 -0.9318
vn 0.0179 0.3641 -0.9312
vn 0.0172 0.3603 -0.9327
vn 0.0157 0.3685 -0.9295
vn 0.0377 0.3780 -0.9250
vn 0.0389 0.3765 -0.9256
vn 0.0394 0.3742 -0.9265
vn 0.0414 0.3797 -0.9242
vn 0.0356 0.3750 -0.9263
vn 0.0281 0.3768 -0.9259
vn 0.0236 0.3780 -0.9255
vn 0.0159 0.3666 -0.9302
vn 0.0159 0.3650 -0.9309
vn 0.0171 0.3598 -0.9329
vn 0.0171 0.3593 -0.9331
vn 0.0180 0.3623 -0.9319
vn 0.0180 0.3624 -0.9319
vn 0.0179 0.3644 -0.9311
vn 0.0179 0.3646 -0.9310
vn 0.0119 0.4056 -0.9140
vn 0.0140 0.3635 -0.9315
vn 0.0138 0.3633 -0.9316
vn 0.0142 0.3644 -0.9311
vn 0.0140 0.3643 -0.9312
vn 0.0132 0.3612 -0.9324
vn 0.0133 0.3614 -0.9323
vn 0.0135 0.3734 -0.9276
vn 0.0131 0.3717 -0.9283
vn 0.0146 0.4074 -0.9132
vn 0.0151 0.4119 -0.9111
vn 0.0166 0.4473 -0.8942
vn 0.0325 0.3953 -0.9180
vn 0.0228 0.4338 -0.9007
vn 0.0154 0.4044 -0.9144
vn 0.0134 0.4049 -0.9142
vn 0.0158 0.4462 -0.8948
vn 0.0265 0.4027 -0.9150
vn 0.0280 0.3993 -0.9164
vn 0.0235 0.3645 -0.9309
vn 0.0212 0.3668 -0.9301
vn 0.0274 0.3622 -0.9317
vn 0.0287 0.3659 -0.9302
vn 0.0224 0.4068 -0.9132
vn 0.0183 0.4588 -0.8884
# 90 vertex normals

vt 0.7313 0.9504 0.0000
vt 0.7090 0.9503 0.0000
vt 0.7269 0.9156 0.0000
vt 0.7039 0.9156 0.0000
vt 0.6280 0.8156 0.0000
vt 0.6524 0.8155 0.0000
vt 0.6311 0.8317 0.0000
vt 0.6634 0.8323 0.0000
vt 0.7115 0.8332 0.0000
vt 0.6884 0.8328 0.0000
vt 0.7076 0.8170 0.0000
vt 0.6960 0.8163 0.0000
vt 0.6847 0.8161 0.0000
vt 0.7301 0.8335 0.0000
vt 0.7256 0.8180 0.0000
vt 0.7845 0.8347 0.0000
vt 0.7658 0.8345 0.0000
vt 0.7808 0.8245 0.0000
vt 0.7610 0.8214 0.0000
vt 0.8423 0.8596 0.0000
vt 0.8379 0.8440 0.0000
vt 0.8670 0.8601 0.0000
vt 0.8733 0.8815 0.0000
vt 0.8497 0.8824 0.0000
vt 0.8266 0.8833 0.0000
vt 0.8364 0.9159 0.0000
vt 0.8587 0.9161 0.0000
vt 0.9555 0.9175 0.0000
vt 0.9724 0.9276 0.0000
vt 0.9609 0.9578 0.0000
vt 0.9735 0.9339 0.0000
vt 0.9778 0.9589 0.0000
vt 0.8470 0.9536 0.0000
vt 0.8685 0.9544 0.0000
vt 0.8544 0.9825 0.0000
vt 0.8757 0.9833 0.0000
vt 0.9453 0.9859 0.0000
vt 0.9195 0.9851 0.0000
vt 0.9391 0.9570 0.0000
vt 0.9128 0.9559 0.0000
vt 0.7123 0.9788 0.0000
vt 0.7343 0.9790 0.0000
vt 0.6982 0.8849 0.0000
vt 0.7213 0.8849 0.0000
vt 0.7159 0.8560 0.0000
vt 0.6927 0.8555 0.0000
vt 0.7555 0.9511 0.0000
vt 0.7598 0.9797 0.0000
vt 0.7492 0.9156 0.0000
vt 0.7427 0.8847 0.0000
vt 0.9047 0.9166 0.0000
vt 0.8980 0.8804 0.0000
vt 0.9301 0.9015 0.0000
vt 0.9319 0.9170 0.0000
vt 0.8815 0.9163 0.0000
vt 0.8904 0.9552 0.0000
vt 0.8974 0.9842 0.0000
vt 0.7617 0.8846 0.0000
vt 0.7819 0.8844 0.0000
vt 0.7691 0.9156 0.0000
vt 0.7909 0.9156 0.0000
vt 0.8005 0.9522 0.0000
vt 0.7770 0.9516 0.0000
vt 0.7823 0.9803 0.0000
vt 0.8070 0.9810 0.0000
vt 0.7359 0.8564 0.0000
vt 0.6535 0.9503 0.0000
vt 0.6847 0.9501 0.0000
vt 0.6588 0.9782 0.0000
vt 0.6884 0.9785 0.0000
vt 0.6790 0.9156 0.0000
vt 0.6470 0.9157 0.0000
vt 0.6412 0.8849 0.0000
vt 0.6733 0.8850 0.0000
vt 0.6677 0.8550 0.0000
vt 0.6353 0.8540 0.0000
vt 0.6593 0.8156 0.0000
vt 0.8186 0.8588 0.0000
vt 0.8174 0.8352 0.0000
vt 0.7735 0.8573 0.0000
vt 0.7536 0.8567 0.0000
vt 0.7466 0.8338 0.0000
vt 0.9827 0.9872 0.0000
vt 0.9673 0.9867 0.0000
vt 0.8243 0.9528 0.0000
vt 0.8320 0.9816 0.0000
vt 0.8128 0.9156 0.0000
vt 0.8022 0.8842 0.0000
vt 0.7935 0.8579 0.0000
vt 0.7416 0.8190 0.0000
# 90 texture coords

g Y651_265B_L_DTaSI_Y651_265B_L
usemtl windowglass_1SG
s 1
f 1/1/1 2/2/2 3/3/3 
f 3/3/3 2/2/2 4/4/4 
f 5/5/5 6/6/6 7/7/7 
f 7/7/7 6/6/6 8/8/8 
f 9/9/9 10/10/10 11/11/11 
f 11/11/11 10/10/10 12/12/12 
f 10/10/10 13/13/13 12/12/12 
f 14/14/14 9/9/9 15/15/15 
f 15/15/15 9/9/9 11/11/11 
f 16/16/16 17/17/17 18/18/18 
f 18/18/18 17/17/17 19/19/19 
f 20/20/20 21/21/21 22/22/22 
f 23/23/23 24/24/24 22/22/22 
f 22/22/22 24/24/24 20/20/20 
f 25/25/25 24/24/24 26/26/26 
f 26/26/26 24/24/24 27/27/27 
f 28/28/28 29/29/29 30/30/30 
f 29/29/29 31/31/31 30/30/30 
f 31/31/31 32/32/32 30/30/30 
f 33/33/33 34/34/34 35/35/35 
f 35/35/35 34/34/34 36/36/36 
f 37/37/37 38/38/38 39/39/39 
f 39/39/39 38/38/38 40/40/40 
f 2/2/2 1/1/1 41/41/41 
f 41/41/41 1/1/1 42/42/42 
f 34/34/34 33/33/33 27/27/27 
f 27/27/27 33/33/33 26/26/26 
f 43/43/43 44/44/44 4/4/4 
f 4/4/4 44/44/44 3/3/3 
f 44/44/44 43/43/43 45/45/45 
f 45/45/45 43/43/43 46/46/46 
f 1/1/1 47/47/47 42/42/42 
f 42/42/42 47/47/47 48/48/48 
f 47/47/47 1/1/1 49/49/49 
f 49/49/49 1/1/1 3/3/3 
f 49/49/49 3/3/3 50/50/50 
f 50/50/50 3/3/3 44/44/44 
f 51/51/51 52/52/52 53/53/53 
f 53/53/53 28/28/28 54/54/54 
f 23/23/23 52/52/52 55/55/55 
f 55/55/55 52/52/52 51/51/51 
f 40/40/40 56/56/56 51/51/51 
f 51/51/51 56/56/56 55/55/55 
f 56/56/56 40/40/40 57/57/57 
f 57/57/57 40/40/40 38/38/38 
f 58/58/58 59/59/59 60/60/60 
f 60/60/60 59/59/59 61/61/61 
f 62/62/62 63/63/63 61/61/61 
f 61/61/61 63/63/63 60/60/60 
f 63/63/63 62/62/62 64/64/64 
f 64/64/64 62/62/62 65/65/65 
f 50/50/50 44/44/44 66/66/66 
f 66/66/66 44/44/44 45/45/45 
f 67/67/67 68/68/68 69/69/69 
f 69/69/69 68/68/68 70/70/70 
f 68/68/68 67/67/67 71/71/71 
f 71/71/71 67/67/67 72/72/72 
f 73/73/73 74/74/74 72/72/72 
f 72/72/72 74/74/74 71/71/71 
f 74/74/74 73/73/73 75/75/75 
f 75/75/75 73/73/73 76/76/76 
f 77/77/77 8/8/8 6/6/6 
f 20/20/20 78/78/78 21/21/21 
f 78/78/78 79/79/79 21/21/21 
f 80/80/80 81/81/81 17/17/17 
f 17/17/17 81/81/81 82/82/82 
f 66/66/66 45/45/45 14/14/14 
f 14/14/14 45/45/45 9/9/9 
f 10/10/10 9/9/9 46/46/46 
f 46/46/46 9/9/9 45/45/45 
f 75/75/75 76/76/76 8/8/8 
f 8/8/8 76/76/76 7/7/7 
f 24/24/24 25/25/25 20/20/20 
f 20/20/20 25/25/25 78/78/78 
f 81/81/81 80/80/80 58/58/58 
f 58/58/58 80/80/80 59/59/59 
f 39/39/39 40/40/40 54/54/54 
f 54/54/54 40/40/40 51/51/51 
f 53/53/53 54/54/54 51/51/51 
f 83/83/83 84/84/84 32/32/32 
f 32/32/32 84/84/84 30/30/30 
f 30/30/30 39/39/39 28/28/28 
f 28/28/28 39/39/39 54/54/54 
f 84/84/84 37/37/37 30/30/30 
f 30/30/30 37/37/37 39/39/39 
f 34/34/34 56/56/56 36/36/36 
f 36/36/36 56/56/56 57/57/57 
f 56/56/56 34/34/34 55/55/55 
f 55/55/55 34/34/34 27/27/27 
f 24/24/24 23/23/23 27/27/27 
f 27/27/27 23/23/23 55/55/55 
f 23/23/23 22/22/22 52/52/52 
f 85/85/85 33/33/33 86/86/86 
f 86/86/86 33/33/33 35/35/35 
f 33/33/33 85/85/85 26/26/26 
f 26/26/26 85/85/85 87/87/87 
f 88/88/88 25/25/25 87/87/87 
f 87/87/87 25/25/25 26/26/26 
f 25/25/25 88/88/88 78/78/78 
f 78/78/78 88/88/88 89/89/89 
f 89/89/89 79/79/79 78/78/78 
f 89/89/89 80/80/80 16/16/16 
f 16/16/16 80/80/80 17/17/17 
f 80/80/80 89/89/89 59/59/59 
f 59/59/59 89/89/89 88/88/88 
f 59/59/59 88/88/88 61/61/61 
f 61/61/61 88/88/88 87/87/87 
f 85/85/85 62/62/62 87/87/87 
f 87/87/87 62/62/62 61/61/61 
f 62/62/62 85/85/85 65/65/65 
f 65/65/65 85/85/85 86/86/86 
f 82/82/82 14/14/14 90/90/90 
f 90/90/90 14/14/14 15/15/15 
f 81/81/81 66/66/66 82/82/82 
f 82/82/82 66/66/66 14/14/14 
f 58/58/58 50/50/50 81/81/81 
f 81/81/81 50/50/50 66/66/66 
f 60/60/60 49/49/49 58/58/58 
f 58/58/58 49/49/49 50/50/50 
f 63/63/63 47/47/47 60/60/60 
f 60/60/60 47/47/47 49/49/49 
f 47/47/47 63/63/63 48/48/48 
f 48/48/48 63/63/63 64/64/64 
f 68/68/68 2/2/2 70/70/70 
f 70/70/70 2/2/2 41/41/41 
f 2/2/2 68/68/68 4/4/4 
f 4/4/4 68/68/68 71/71/71 
f 74/74/74 43/43/43 71/71/71 
f 71/71/71 43/43/43 4/4/4 
f 43/43/43 74/74/74 46/46/46 
f 46/46/46 74/74/74 75/75/75 
f 8/8/8 10/10/10 75/75/75 
f 75/75/75 10/10/10 46/46/46 
f 77/77/77 13/13/13 8/8/8 
f 8/8/8 13/13/13 10/10/10 
f 17/17/17 82/82/82 19/19/19 
f 19/19/19 82/82/82 90/90/90 
f 79/79/79 16/16/16 18/18/18 
f 89/89/89 16/16/16 79/79/79 
# 139 faces

