# 3ds Max Wavefront OBJ Exporter v0.97b - (c)2007 guruware
# File Created: 13.11.2015 16:34:23

mtllib F183_265B_L.mtl

#
# object F183_265B_L_DTaSI_F183_265B_L
#

v  -23.1824 55.8370 -87.9216
v  -8.3690 55.1035 -88.1541
v  -22.6846 51.7178 -88.9371
v  -7.9665 50.9677 -89.1711
v  6.4445 54.3700 -88.3865
v  6.7515 50.2175 -89.4051
v  32.4776 53.0721 -88.7391
v  43.2412 52.5628 -88.8835
v  33.7064 48.8107 -89.7920
v  44.9565 48.2458 -89.9696
v  54.0049 52.0534 -89.0280
v  56.2067 47.6808 -90.1472
v  -15.5807 90.1157 -77.9414
v  -20.2347 87.9245 -78.8216
v  -25.8232 91.7038 -77.3235
v  -26.1495 88.6830 -78.5247
v  -24.5639 67.1634 -85.0487
v  -9.4758 66.3855 -85.3367
v  -23.8157 61.0512 -86.6160
v  -8.8769 60.3025 -86.8667
v  5.6122 65.6075 -85.6246
v  6.0618 59.5538 -87.1174
v  5.1293 71.8485 -84.0113
v  -10.1090 72.6584 -83.6844
v  4.6490 77.5946 -82.3882
v  -10.7229 78.4701 -82.0297
v  -25.3473 73.4683 -83.3575
v  -26.0948 79.3456 -81.6713
v  -22.3265 48.7487 -89.6643
v  -7.6743 47.9551 -89.9104
v  6.9779 47.1616 -90.1565
v  -12.0352 87.1283 -79.1466
v  -5.9683 87.9879 -78.7653
v  3.9055 85.1891 -79.8254
v  -21.9729 45.9209 -90.4372
v  -7.3788 45.0848 -90.6964
v  7.2152 44.2488 -90.9556
v  34.6503 45.5350 -90.5948
v  46.3364 44.7995 -90.8059
v  35.5103 42.5761 -91.3933
v  47.4933 41.8742 -91.5627
v  58.0226 44.0640 -91.0170
v  59.4763 41.1723 -91.7320
v  29.3638 63.8813 -86.0982
v  48.1474 63.6927 -86.0839
v  31.0183 58.1361 -87.4975
v  41.2319 57.6360 -87.6112
v  51.4455 57.1360 -87.7250
v  -11.2278 82.9890 -80.6190
v  4.2432 82.0191 -81.0003
v  -32.8947 52.2314 -88.7159
v  -32.1399 49.2557 -89.4503
v  -31.4216 46.4240 -90.2361
v  80.6281 40.1108 -91.9335
v  79.7701 40.0846 -91.9565
v  80.3374 40.4625 -91.8599
v  79.1819 41.4858 -91.6638
v  71.7989 40.4597 -91.8927
v  27.5812 70.0501 -84.5364
v  36.6273 70.3026 -84.4479
v  25.7212 76.4167 -82.7234
v  -37.6180 92.7975 -76.8807
v  -32.1374 88.9034 -78.4205
v  66.7368 51.6243 -89.1383
v  68.7300 47.2392 -90.3067
v  70.3138 43.7452 -91.1616
v  72.6879 47.0996 -90.3571
v  76.7414 43.6939 -91.1896
v  12.6782 82.0644 -80.9187
v  15.1851 77.0056 -82.5558
v  15.4253 74.1326 -83.3673
v  16.3553 70.9493 -84.2738
v  17.4880 64.7444 -85.8614
v  18.5401 58.8450 -87.3074
v  19.4610 53.7211 -88.5628
v  20.2289 49.5141 -89.5986
v  20.8141 46.3483 -90.3757
v  21.3627 43.4124 -91.1744
v  -26.6988 83.9590 -80.2378
v  -33.9428 56.3635 -87.6969
v  -35.2681 61.5882 -86.3793
v  -36.8178 67.6976 -84.7766
v  -38.4119 73.9815 -83.0404
v  -39.8849 79.7874 -81.3270
v  -41.1637 84.8278 -79.7234
v  -42.2896 89.2646 -78.1699
v  58.1722 57.1868 -87.6768
v  -43.1240 93.0446 -76.7382
v  -43.2211 92.9352 -76.7785
v  -10.9258 80.6824 -81.3358
v  -10.3492 75.5314 -82.8728
v  20.9327 44.8919 -90.7752
v  20.3421 47.9862 -89.9743
v  -8.1200 53.0439 -88.6618
v  -8.5603 57.6954 -87.5195
v  -9.1017 63.3294 -86.1203
v  -9.7173 69.5059 -84.5300
v  -7.4975 46.5412 -90.2969
v  -7.7875 49.4831 -89.5347
v  19.6145 51.6448 -89.0721
v  17.7128 61.7176 -86.6078
v  16.5967 67.8288 -85.0805
v  46.7664 43.3200 -91.2051
v  45.4285 46.6079 -90.3710
v  43.8556 50.4321 -89.4100
v  41.9615 55.1040 -88.2320
# 106 vertices

vn -0.0059 0.2405 -0.9706
vn -0.0034 0.2382 -0.9712
vn -0.0057 0.2381 -0.9712
vn -0.0033 0.2378 -0.9713
vn -0.0024 0.2378 -0.9713
vn -0.0024 0.2383 -0.9712
vn -0.0009 0.2389 -0.9710
vn -0.0015 0.2440 -0.9698
vn -0.0019 0.2387 -0.9711
vn -0.0031 0.2426 -0.9701
vn -0.0004 0.2491 -0.9685
vn -0.0023 0.2416 -0.9704
vn 0.0008 0.3735 -0.9276
vn -0.0018 0.3542 -0.9352
vn -0.0005 0.3688 -0.9295
vn -0.0025 0.3529 -0.9357
vn -0.0078 0.2530 -0.9674
vn -0.0057 0.2488 -0.9685
vn -0.0065 0.2449 -0.9695
vn -0.0042 0.2406 -0.9706
vn -0.0038 0.2447 -0.9696
vn -0.0029 0.2385 -0.9711
vn -0.0040 0.2607 -0.9654
vn -0.0066 0.2645 -0.9644
vn -0.0025 0.2848 -0.9586
vn -0.0061 0.2851 -0.9585
vn -0.0092 0.2664 -0.9638
vn -0.0097 0.2843 -0.9587
vn -0.0047 0.2500 -0.9682
vn -0.0027 0.2505 -0.9681
vn -0.0017 0.2514 -0.9679
vn -0.0005 0.3472 -0.9378
vn 0.0056 0.3725 -0.9280
vn 0.0037 0.3487 -0.9372
vn -0.0036 0.2633 -0.9647
vn -0.0020 0.2644 -0.9644
vn -0.0008 0.2644 -0.9644
vn -0.0013 0.2488 -0.9686
vn -0.0021 0.2449 -0.9695
vn -0.0003 0.2601 -0.9656
vn 0.0003 0.2402 -0.9707
vn -0.0030 0.2356 -0.9719
vn -0.0029 0.2362 -0.9717
vn 0.0012 0.2412 -0.9705
vn 0.0024 0.2432 -0.9700
vn 0.0007 0.2378 -0.9713
vn 0.0010 0.2418 -0.9703
vn 0.0021 0.2461 -0.9692
vn -0.0033 0.3202 -0.9473
vn 0.0011 0.3192 -0.9477
vn -0.0089 0.2375 -0.9713
vn -0.0084 0.2483 -0.9686
vn -0.0072 0.2652 -0.9642
vn 0.0195 0.2202 -0.9753
vn 0.0042 0.2063 -0.9785
vn 0.0226 0.2157 -0.9762
vn 0.0017 0.2079 -0.9781
vn -0.0008 0.2159 -0.9764
vn 0.0004 0.2599 -0.9656
vn 0.0030 0.2487 -0.9686
vn 0.0003 0.2777 -0.9607
vn -0.0082 0.3571 -0.9340
vn -0.0085 0.3453 -0.9384
vn -0.0020 0.2545 -0.9671
vn -0.0042 0.2452 -0.9695
vn -0.0026 0.2262 -0.9741
vn -0.0029 0.2392 -0.9710
vn -0.0006 0.2180 -0.9760
vn 0.0032 0.3104 -0.9506
vn 0.0013 0.2954 -0.9554
vn -0.0003 0.2728 -0.9621
vn -0.0016 0.2621 -0.9650
vn -0.0017 0.2422 -0.9702
vn -0.0013 0.2372 -0.9715
vn -0.0013 0.2379 -0.9713
vn -0.0015 0.2391 -0.9710
vn -0.0006 0.2504 -0.9681
vn 0.0005 0.2607 -0.9654
vn -0.0091 0.3118 -0.9501
vn -0.0086 0.2406 -0.9706
vn -0.0095 0.2474 -0.9689
vn -0.0116 0.2577 -0.9662
vn -0.0139 0.2720 -0.9622
vn -0.0154 0.2902 -0.9568
vn -0.0141 0.3148 -0.9491
vn -0.0107 0.3399 -0.9404
vn 0.0019 0.2523 -0.9677
vn -0.0084 0.3526 -0.9358
vn -0.0085 0.3526 -0.9357
vn -0.0051 0.2975 -0.9547
vn -0.0065 0.2732 -0.9619
vn 0.0004 0.2626 -0.9649
vn -0.0014 0.2381 -0.9712
vn -0.0034 0.2385 -0.9711
vn -0.0038 0.2400 -0.9708
vn -0.0050 0.2435 -0.9699
vn -0.0063 0.2541 -0.9672
vn -0.0020 0.2639 -0.9645
vn -0.0034 0.2380 -0.9713
vn -0.0014 0.2388 -0.9711
vn -0.0017 0.2378 -0.9713
vn -0.0021 0.2475 -0.9689
vn -0.0004 0.2503 -0.9682
vn -0.0032 0.2346 -0.9721
vn -0.0023 0.2431 -0.9700
vn -0.0002 0.2432 -0.9700
# 106 vertex normals

vt 0.6315 0.0602 0.0000
vt 0.6811 0.0594 0.0000
vt 0.6336 0.0465 0.0000
vt 0.6829 0.0456 0.0000
vt 0.7307 0.0587 0.0000
vt 0.7322 0.0448 0.0000
vt 0.8179 0.0573 0.0000
vt 0.8540 0.0568 0.0000
vt 0.8225 0.0432 0.0000
vt 0.8602 0.0426 0.0000
vt 0.8900 0.0563 0.0000
vt 0.8979 0.0419 0.0000
vt 0.6530 0.1757 0.0000
vt 0.6377 0.1678 0.0000
vt 0.6186 0.1798 0.0000
vt 0.6178 0.1697 0.0000
vt 0.6256 0.0979 0.0000
vt 0.6761 0.0970 0.0000
vt 0.6288 0.0776 0.0000
vt 0.6788 0.0768 0.0000
vt 0.7267 0.0961 0.0000
vt 0.7289 0.0759 0.0000
vt 0.7243 0.1169 0.0000
vt 0.6733 0.1179 0.0000
vt 0.7221 0.1361 0.0000
vt 0.6706 0.1373 0.0000
vt 0.6223 0.1189 0.0000
vt 0.6191 0.1385 0.0000
vt 0.6352 0.0366 0.0000
vt 0.6842 0.0356 0.0000
vt 0.7333 0.0346 0.0000
vt 0.6652 0.1661 0.0000
vt 0.6854 0.1697 0.0000
vt 0.7187 0.1614 0.0000
vt 0.6367 0.0272 0.0000
vt 0.6856 0.0260 0.0000
vt 0.7345 0.0249 0.0000
vt 0.8260 0.0323 0.0000
vt 0.8652 0.0312 0.0000
vt 0.8292 0.0225 0.0000
vt 0.8694 0.0215 0.0000
vt 0.9043 0.0301 0.0000
vt 0.9095 0.0206 0.0000
vt 0.8063 0.0931 0.0000
vt 0.8691 0.0946 0.0000
vt 0.8125 0.0740 0.0000
vt 0.8467 0.0735 0.0000
vt 0.8809 0.0730 0.0000
vt 0.6684 0.1523 0.0000
vt 0.7202 0.1509 0.0000
vt 0.5994 0.0470 0.0000
vt 0.6023 0.0372 0.0000
vt 0.6050 0.0278 0.0000
vt 0.9804 0.0194 0.0000
vt 0.9775 0.0192 0.0000
vt 0.9794 0.0206 0.0000
vt 0.9754 0.0238 0.0000
vt 0.9508 0.0196 0.0000
vt 0.7996 0.1135 0.0000
vt 0.8298 0.1154 0.0000
vt 0.7927 0.1346 0.0000
vt 0.5790 0.1821 0.0000
vt 0.5978 0.1697 0.0000
vt 0.9326 0.0563 0.0000
vt 0.9398 0.0419 0.0000
vt 0.9455 0.0304 0.0000
vt 0.9530 0.0419 0.0000
vt 0.9670 0.0310 0.0000
vt 0.7484 0.1520 0.0000
vt 0.7574 0.1353 0.0000
vt 0.7585 0.1258 0.0000
vt 0.7620 0.1152 0.0000
vt 0.7665 0.0946 0.0000
vt 0.7707 0.0750 0.0000
vt 0.7743 0.0580 0.0000
vt 0.7774 0.0440 0.0000
vt 0.7797 0.0335 0.0000
vt 0.7819 0.0237 0.0000
vt 0.6165 0.1538 0.0000
vt 0.5955 0.0607 0.0000
vt 0.5904 0.0781 0.0000
vt 0.5846 0.0983 0.0000
vt 0.5785 0.1191 0.0000
vt 0.5729 0.1384 0.0000
vt 0.5681 0.1551 0.0000
vt 0.5638 0.1698 0.0000
vt 0.9034 0.0740 0.0000
vt 0.5606 0.1823 0.0000
vt 0.5603 0.1820 0.0000
vt 0.6697 0.1447 0.0000
vt 0.6722 0.1275 0.0000
vt 0.7802 0.0286 0.0000
vt 0.7779 0.0389 0.0000
vt 0.6822 0.0526 0.0000
vt 0.6802 0.0681 0.0000
vt 0.6777 0.0868 0.0000
vt 0.6750 0.1074 0.0000
vt 0.6850 0.0309 0.0000
vt 0.6837 0.0407 0.0000
vt 0.7751 0.0510 0.0000
vt 0.7676 0.0845 0.0000
vt 0.7631 0.1048 0.0000
vt 0.8668 0.0263 0.0000
vt 0.8620 0.0371 0.0000
vt 0.8563 0.0497 0.0000
vt 0.8494 0.0652 0.0000
# 106 texture coords

g F183_265B_L_DTaSI_F183_265B_L
usemtl windowglass_1SG
s 1
f 1/1/1 2/2/2 3/3/3 
f 4/4/4 5/5/5 6/6/6 
f 7/7/7 8/8/8 9/9/9 
f 10/10/10 11/11/11 12/12/12 
f 13/13/13 14/14/14 15/15/15 
f 15/15/15 14/14/14 16/16/16 
f 17/17/17 18/18/18 19/19/19 
f 20/20/20 21/21/21 22/22/22 
f 23/23/23 24/24/24 25/25/25 
f 26/26/26 27/27/27 28/28/28 
f 3/3/3 4/4/4 29/29/29 
f 30/30/30 6/6/6 31/31/31 
f 32/32/32 33/33/33 34/34/34 
f 29/29/29 30/30/30 35/35/35 
f 36/36/36 31/31/31 37/37/37 
f 38/38/38 39/39/39 40/40/40 
f 41/41/41 42/42/42 43/43/43 
f 44/44/44 45/45/45 46/46/46 
f 47/47/47 45/45/45 48/48/48 
f 46/46/46 47/47/47 7/7/7 
f 8/8/8 48/48/48 11/11/11 
f 9/9/9 10/10/10 38/38/38 
f 39/39/39 12/12/12 42/42/42 
f 49/49/49 32/32/32 50/50/50 
f 50/50/50 32/32/32 34/34/34 
f 27/27/27 24/24/24 17/17/17 
f 18/18/18 23/23/23 21/21/21 
f 19/19/19 20/20/20 1/1/1 
f 2/2/2 22/22/22 5/5/5 
f 51/51/51 3/3/3 52/52/52 
f 52/52/52 3/3/3 29/29/29 
f 52/52/52 29/29/29 53/53/53 
f 53/53/53 29/29/29 35/35/35 
f 54/54/54 55/55/55 56/56/56 
f 56/56/56 55/55/55 57/57/57 
f 58/58/58 57/57/57 55/55/55 
f 59/59/59 60/60/60 44/44/44 
f 44/44/44 60/60/60 45/45/45 
f 59/59/59 61/61/61 60/60/60 
f 14/14/14 13/13/13 32/32/32 
f 32/32/32 13/13/13 33/33/33 
f 62/62/62 15/15/15 63/63/63 
f 63/63/63 15/15/15 16/16/16 
f 11/11/11 64/64/64 12/12/12 
f 12/12/12 64/64/64 65/65/65 
f 66/66/66 42/42/42 65/65/65 
f 65/65/65 42/42/42 12/12/12 
f 58/58/58 43/43/43 66/66/66 
f 66/66/66 43/43/43 42/42/42 
f 65/65/65 64/64/64 67/67/67 
f 68/68/68 66/66/66 67/67/67 
f 67/67/67 66/66/66 65/65/65 
f 66/66/66 68/68/68 58/58/58 
f 58/58/58 68/68/68 57/57/57 
f 50/50/50 34/34/34 69/69/69 
f 61/61/61 70/70/70 69/69/69 
f 69/69/69 25/25/25 50/50/50 
f 25/25/25 70/70/70 71/71/71 
f 72/72/72 61/61/61 59/59/59 
f 23/23/23 72/72/72 21/21/21 
f 73/73/73 59/59/59 44/44/44 
f 21/21/21 73/73/73 22/22/22 
f 74/74/74 44/44/44 46/46/46 
f 5/5/5 74/74/74 75/75/75 
f 75/75/75 46/46/46 7/7/7 
f 5/5/5 75/75/75 6/6/6 
f 76/76/76 7/7/7 9/9/9 
f 6/6/6 76/76/76 31/31/31 
f 77/77/77 9/9/9 38/38/38 
f 31/31/31 77/77/77 37/37/37 
f 78/78/78 38/38/38 40/40/40 
f 25/25/25 26/26/26 50/50/50 
f 49/49/49 28/28/28 79/79/79 
f 3/3/3 51/51/51 1/1/1 
f 1/1/1 51/51/51 80/80/80 
f 1/1/1 80/80/80 19/19/19 
f 19/19/19 80/80/80 81/81/81 
f 19/19/19 81/81/81 17/17/17 
f 17/17/17 81/81/81 82/82/82 
f 17/17/17 82/82/82 27/27/27 
f 27/27/27 82/82/82 83/83/83 
f 27/27/27 83/83/83 28/28/28 
f 28/28/28 83/83/83 84/84/84 
f 85/85/85 79/79/79 84/84/84 
f 84/84/84 79/79/79 28/28/28 
f 14/14/14 32/32/32 79/79/79 
f 16/16/16 14/14/14 79/79/79 
f 63/63/63 16/16/16 79/79/79 
f 86/86/86 63/63/63 85/85/85 
f 85/85/85 63/63/63 79/79/79 
f 48/48/48 87/87/87 11/11/11 
f 11/11/11 87/87/87 64/64/64 
f 45/45/45 87/87/87 48/48/48 
f 63/63/63 86/86/86 62/62/62 
f 62/62/62 86/86/86 88/88/88 
f 89/89/89 88/88/88 86/86/86 
f 79/79/79 32/32/32 49/49/49 
f 50/50/50 90/90/90 49/49/49 
f 25/25/25 91/91/91 26/26/26 
f 26/26/26 28/28/28 90/90/90 
f 37/37/37 92/92/92 78/78/78 
f 31/31/31 93/93/93 77/77/77 
f 77/77/77 38/38/38 92/92/92 
f 2/2/2 5/5/5 94/94/94 
f 1/1/1 95/95/95 2/2/2 
f 19/19/19 96/96/96 20/20/20 
f 20/20/20 22/22/22 95/95/95 
f 18/18/18 21/21/21 96/96/96 
f 17/17/17 97/97/97 18/18/18 
f 24/24/24 27/27/27 91/91/91 
f 24/24/24 23/23/23 97/97/97 
f 35/35/35 98/98/98 36/36/36 
f 29/29/29 99/99/99 30/30/30 
f 30/30/30 31/31/31 98/98/98 
f 3/3/3 94/94/94 4/4/4 
f 4/4/4 6/6/6 99/99/99 
f 26/26/26 90/90/90 50/50/50 
f 90/90/90 28/28/28 49/49/49 
f 24/24/24 91/91/91 25/25/25 
f 91/91/91 27/27/27 26/26/26 
f 77/77/77 92/92/92 37/37/37 
f 92/92/92 38/38/38 78/78/78 
f 94/94/94 5/5/5 4/4/4 
f 2/2/2 94/94/94 3/3/3 
f 20/20/20 95/95/95 1/1/1 
f 95/95/95 22/22/22 2/2/2 
f 18/18/18 96/96/96 19/19/19 
f 96/96/96 21/21/21 20/20/20 
f 24/24/24 97/97/97 17/17/17 
f 97/97/97 23/23/23 18/18/18 
f 30/30/30 98/98/98 35/35/35 
f 98/98/98 31/31/31 36/36/36 
f 4/4/4 99/99/99 29/29/29 
f 99/99/99 6/6/6 30/30/30 
f 6/6/6 100/100/100 76/76/76 
f 76/76/76 9/9/9 93/93/93 
f 5/5/5 22/22/22 74/74/74 
f 75/75/75 7/7/7 100/100/100 
f 74/74/74 46/46/46 75/75/75 
f 22/22/22 101/101/101 74/74/74 
f 21/21/21 102/102/102 73/73/73 
f 73/73/73 44/44/44 101/101/101 
f 23/23/23 71/71/71 72/72/72 
f 72/72/72 59/59/59 102/102/102 
f 71/71/71 61/61/61 72/72/72 
f 25/25/25 71/71/71 23/23/23 
f 70/70/70 61/61/61 71/71/71 
f 70/70/70 25/25/25 69/69/69 
f 39/39/39 42/42/42 103/103/103 
f 38/38/38 104/104/104 39/39/39 
f 9/9/9 105/105/105 10/10/10 
f 10/10/10 12/12/12 104/104/104 
f 8/8/8 11/11/11 105/105/105 
f 7/7/7 106/106/106 8/8/8 
f 46/46/46 45/45/45 47/47/47 
f 47/47/47 48/48/48 106/106/106 
f 40/40/40 103/103/103 41/41/41 
f 76/76/76 93/93/93 31/31/31 
f 93/93/93 9/9/9 77/77/77 
f 75/75/75 100/100/100 6/6/6 
f 100/100/100 7/7/7 76/76/76 
f 73/73/73 101/101/101 22/22/22 
f 101/101/101 44/44/44 74/74/74 
f 72/72/72 102/102/102 21/21/21 
f 102/102/102 59/59/59 73/73/73 
f 103/103/103 42/42/42 41/41/41 
f 39/39/39 103/103/103 40/40/40 
f 10/10/10 104/104/104 38/38/38 
f 104/104/104 12/12/12 39/39/39 
f 8/8/8 105/105/105 9/9/9 
f 105/105/105 11/11/11 10/10/10 
f 47/47/47 106/106/106 7/7/7 
f 106/106/106 48/48/48 8/8/8 
# 173 faces

