# 3ds Max Wavefront OBJ Exporter v0.97b - (c)2007 guruware
# File Created: 13.11.2015 16:38:26

mtllib F183_FLOR_C.mtl

#
# object F183_FLOR_C_N_F183_FLOR_C
#

v  -217.9852 -52.3752 0.0000
v  -268.1544 -39.4766 0.0000
v  -217.9852 -52.3752 -62.3441
v  -267.6628 -39.6145 -22.9543
v  -266.5687 -39.9334 -41.8511
v  -264.8665 -40.3745 -55.8092
v  -263.7972 -40.6271 -61.6826
v  -262.5774 -40.9212 -67.0396
v  -261.1941 -41.2780 -71.9302
v  -217.9852 -52.3752 -96.7701
v  -222.5070 -51.7738 -96.6419
v  -223.4587 -51.6237 -96.5527
v  -224.5518 -51.3566 -96.1231
v  -226.8806 -50.7487 -95.1226
v  -230.3418 -49.8267 -93.8614
v  -234.5078 -48.6937 -92.6927
v  -238.8517 -47.5093 -91.5983
v  -242.9015 -46.4206 -90.4884
v  -259.6364 -41.6953 -76.4919
v  -246.5061 -45.4693 -89.3581
v  -257.9853 -42.1423 -80.6957
v  -249.6027 -44.6601 -88.2312
v  -252.1628 -43.9548 -87.1635
v  -256.6875 -42.4952 -83.7604
v  -254.1467 -43.3326 -86.2324
v  -255.4327 -42.8875 -85.5703
v  -256.0471 -42.6767 -85.0886
v  -217.9852 -52.3752 62.3441
v  -267.6628 -39.6145 22.9543
v  -266.5687 -39.9334 41.8511
v  -264.8665 -40.3745 55.8092
v  -263.7972 -40.6271 61.6826
v  -262.5774 -40.9212 67.0396
v  -261.1941 -41.2780 71.9302
v  -217.9852 -52.3752 96.7701
v  -222.5070 -51.7738 96.6419
v  -223.4587 -51.6237 96.5527
v  -224.5518 -51.3566 96.1231
v  -226.8806 -50.7487 95.1226
v  -230.3418 -49.8267 93.8614
v  -234.5078 -48.6937 92.6927
v  -238.8517 -47.5093 91.5983
v  -242.9015 -46.4206 90.4884
v  -246.5061 -45.4693 89.3581
v  -259.6364 -41.6953 76.4919
v  -249.6027 -44.6601 88.2312
v  -257.9853 -42.1423 80.6956
v  -252.1628 -43.9548 87.1635
v  -256.6875 -42.4952 83.7604
v  -254.1467 -43.3326 86.2324
v  -255.4327 -42.8875 85.5703
v  -256.0471 -42.6767 85.0886
v  260.2746 -46.4086 58.4545
v  260.2746 -52.1228 58.4545
v  261.9888 -46.4086 50.9934
v  261.9888 -52.1228 50.9934
v  263.4301 -46.4086 43.4877
v  263.4301 -52.1228 43.4877
v  264.5716 -46.4086 36.0886
v  264.5716 -52.1228 36.0886
v  265.4435 -46.4086 28.8382
v  265.4435 -52.1228 28.8382
v  266.0921 -46.4086 21.7210
v  266.0921 -52.1228 21.7210
v  266.5708 -46.4086 14.5981
v  266.5708 -52.1228 14.5981
v  266.9104 -46.4086 7.3429
v  266.9104 -52.1228 7.3429
v  267.0440 -46.4086 0.0000
v  267.0440 -52.1228 0.0000
v  258.2500 -52.1228 65.6487
v  258.2500 -47.0567 65.6487
v  257.0309 -52.1228 68.6976
v  257.0309 -47.7552 68.6976
v  255.8469 -52.1228 71.0553
v  255.8469 -48.6437 71.0553
v  253.3295 -52.1228 76.1555
v  254.5222 -50.0387 73.5659
v  260.2746 -46.4086 -58.4545
v  261.9888 -46.4086 -50.9934
v  260.2746 -52.1228 -58.4545
v  261.9888 -52.1228 -50.9934
v  263.4301 -46.4086 -43.4877
v  263.4301 -52.1228 -43.4877
v  264.5716 -46.4086 -36.0886
v  264.5716 -52.1228 -36.0886
v  265.4435 -46.4086 -28.8382
v  265.4435 -52.1228 -28.8382
v  266.0921 -46.4086 -21.7210
v  266.0921 -52.1228 -21.7210
v  266.5708 -46.4086 -14.5981
v  266.5708 -52.1228 -14.5981
v  266.9104 -46.4086 -7.3429
v  266.9104 -52.1228 -7.3429
v  258.2500 -47.0567 -65.6487
v  258.2500 -52.1228 -65.6487
v  257.0309 -47.7552 -68.6976
v  257.0309 -52.1228 -68.6976
v  255.8469 -48.6437 -71.0553
v  255.8469 -52.1228 -71.0553
v  253.3295 -52.1228 -76.1555
v  254.5222 -50.0387 -73.5659
v  106.0377 -56.2968 95.1637
v  101.4475 -56.2390 95.1435
v  106.0377 -56.2968 62.3441
v  99.3817 -56.1007 95.0521
v  97.0235 -55.8529 94.8454
v  93.2217 -55.5912 94.4686
v  47.9981 -56.4968 62.3441
v  87.4526 -55.4506 93.9405
v  76.8171 -55.4303 93.5042
v  58.8073 -55.4928 93.3751
v  34.8569 -55.5906 93.4347
v  -10.0415 -56.6967 62.3441
v  7.3759 -55.6799 93.5123
v  -21.2608 -55.7415 93.5650
v  -68.0811 -56.8966 62.3441
v  -71.4286 -55.7831 93.5780
v  -126.1207 -57.0966 62.3441
v  -87.6143 -55.7987 93.5821
v  -98.4607 -55.7897 93.7462
v  -106.0512 -55.7464 94.1884
v  -111.7391 -55.7701 94.7901
v  -116.3819 -55.9399 95.3799
v  -119.5841 -56.1364 95.8114
v  -121.0293 -56.2472 95.9920
v  -121.9714 -56.3878 96.0214
v  -126.1207 -57.0966 96.0432
v  198.1523 -52.2009 62.3441
v  198.1523 -52.2009 0.0000
v  106.0377 -56.2968 0.0000
v  -126.1207 -57.0966 0.0000
v  -68.0811 -56.8966 0.0000
v  47.9981 -56.4968 0.0000
v  -10.0415 -56.6967 0.0000
v  198.1523 -52.2009 101.2800
v  202.3227 -52.1377 100.8881
v  203.3284 -52.1253 100.7248
v  205.1303 -52.1230 100.1216
v  209.1104 -52.1228 98.7124
v  214.3289 -52.1228 96.8284
v  219.5363 -52.1228 94.9034
v  224.5656 -52.1228 93.0849
v  229.4718 -52.1228 91.4117
v  234.1126 -52.1228 89.7728
v  238.3529 -52.1228 88.0154
v  249.6985 -52.1228 80.2465
v  242.2801 -52.1228 85.9674
v  246.0289 -52.1228 83.4463
v  106.0377 -56.2968 -95.1637
v  106.0377 -56.2968 -62.3441
v  101.4475 -56.2390 -95.1435
v  47.9981 -56.4968 -62.3441
v  97.0235 -55.8529 -94.8454
v  99.3817 -56.1007 -95.0521
v  93.2217 -55.5912 -94.4686
v  87.4526 -55.4506 -93.9405
v  76.8171 -55.4303 -93.5042
v  58.8073 -55.4928 -93.3751
v  34.8569 -55.5906 -93.4347
v  -10.0415 -56.6967 -62.3441
v  7.3759 -55.6799 -93.5123
v  -21.2608 -55.7415 -93.5650
v  -68.0811 -56.8966 -62.3441
v  -71.4286 -55.7831 -93.5780
v  -126.1207 -57.0966 -62.3441
v  -87.6143 -55.7988 -93.5821
v  -98.4607 -55.7897 -93.7462
v  -106.0512 -55.7464 -94.1884
v  -111.7391 -55.7701 -94.7901
v  -116.3819 -55.9400 -95.3799
v  -119.5841 -56.1364 -95.8114
v  -121.0293 -56.2472 -95.9920
v  -121.9714 -56.3878 -96.0214
v  -126.1207 -57.0966 -96.0431
v  198.1523 -52.2009 -62.3441
v  198.1523 -52.2009 -101.2800
v  202.3227 -52.1377 -100.8881
v  203.3284 -52.1253 -100.7248
v  205.1303 -52.1230 -100.1216
v  209.1104 -52.1228 -98.7124
v  214.3289 -52.1228 -96.8284
v  219.5363 -52.1228 -94.9034
v  224.5656 -52.1228 -93.0849
v  229.4718 -52.1228 -91.4117
v  234.1126 -52.1228 -89.7728
v  238.3529 -52.1228 -88.0154
v  242.2801 -52.1228 -85.9674
v  246.0289 -52.1228 -83.4463
v  249.6985 -52.1228 -80.2465
v  100.4712 -56.2107 -95.1312
v  100.4712 -56.2107 95.1312
# 192 vertices

vn -0.1231 -0.9924 -0.0000
vn -0.2489 -0.9685 -0.0000
vn -0.1231 -0.9924 0.0000
vn -0.2482 -0.9687 0.0009
vn -0.2475 -0.9689 0.0016
vn -0.2481 -0.9687 -0.0005
vn -0.2484 -0.9686 -0.0035
vn -0.2486 -0.9686 -0.0018
vn -0.2489 -0.9685 0.0008
vn -0.2449 -0.9695 0.0071
vn -0.1229 -0.9680 0.2187
vn -0.1363 -0.9705 0.1989
vn -0.1976 -0.9745 0.1067
vn -0.2308 -0.9714 0.0552
vn -0.2489 -0.9681 0.0272
vn -0.2596 -0.9657 0.0113
vn -0.2601 -0.9655 0.0104
vn -0.2554 -0.9667 0.0167
vn -0.2772 -0.9608 -0.0063
vn -0.2462 -0.9686 0.0337
vn -0.2858 -0.9582 -0.0092
vn -0.2294 -0.9709 0.0692
vn -0.2517 -0.9668 0.0447
vn -0.3268 -0.9446 -0.0291
vn -0.2895 -0.9568 0.0265
vn -0.3428 -0.9388 -0.0342
vn -0.3544 -0.9341 -0.0433
vn -0.2482 -0.9687 -0.0009
vn -0.2475 -0.9689 -0.0016
vn -0.2481 -0.9687 0.0005
vn -0.2484 -0.9686 0.0035
vn -0.2486 -0.9686 0.0018
vn -0.2488 -0.9686 -0.0009
vn -0.2449 -0.9695 -0.0071
vn -0.1229 -0.9680 -0.2187
vn -0.1363 -0.9705 -0.1989
vn -0.1976 -0.9745 -0.1067
vn -0.2308 -0.9714 -0.0552
vn -0.2489 -0.9681 -0.0272
vn -0.2596 -0.9657 -0.0113
vn -0.2601 -0.9655 -0.0104
vn -0.2545 -0.9669 -0.0171
vn -0.2484 -0.9683 -0.0242
vn -0.2852 -0.9584 0.0092
vn -0.2416 -0.9696 -0.0391
vn -0.3021 -0.9531 0.0167
vn -0.2517 -0.9668 -0.0447
vn -0.3268 -0.9446 0.0291
vn -0.2895 -0.9568 -0.0265
vn -0.3428 -0.9388 0.0342
vn -0.3544 -0.9341 0.0433
vn 0.9691 0.0000 0.2465
vn 0.0564 -0.9983 0.0151
vn 0.9785 0.0000 0.2063
vn 0.0948 -0.9953 0.0200
vn 0.9853 0.0000 0.1707
vn 0.0941 -0.9954 0.0163
vn 0.9907 0.0000 0.1362
vn 0.0929 -0.9956 0.0128
vn 0.9944 0.0000 0.1052
vn 0.0914 -0.9958 0.0097
vn 0.9969 0.0000 0.0789
vn 0.0895 -0.9960 0.0071
vn 0.9984 0.0000 0.0568
vn 0.0878 -0.9961 0.0050
vn 0.9995 0.0000 0.0324
vn 0.0862 -0.9963 0.0028
vn 1.0000 0.0000 -0.0000
vn 0.0196 -0.9998 -0.0000
vn 0.1854 -0.9809 0.0583
vn 0.9549 -0.0000 0.2968
vn 0.2624 -0.9580 0.1158
vn 0.9175 -0.0000 0.3978
vn 0.3422 -0.9234 0.1737
vn 0.8905 0.0000 0.4551
vn 0.0522 -0.9983 0.0258
vn 0.8925 0.0248 0.4503
vn 0.9691 0.0000 -0.2465
vn 0.9785 -0.0000 -0.2063
vn 0.0567 -0.9983 -0.0152
vn 0.0948 -0.9953 -0.0200
vn 0.9853 0.0000 -0.1707
vn 0.0941 -0.9954 -0.0163
vn 0.9907 0.0000 -0.1362
vn 0.0929 -0.9956 -0.0128
vn 0.9944 0.0000 -0.1052
vn 0.0914 -0.9958 -0.0097
vn 0.9969 -0.0000 -0.0789
vn 0.0895 -0.9960 -0.0071
vn 0.9984 -0.0000 -0.0568
vn 0.0878 -0.9961 -0.0050
vn 0.9995 0.0000 -0.0324
vn 0.0862 -0.9963 -0.0028
vn 0.9549 0.0000 -0.2968
vn 0.2251 -0.9718 -0.0708
vn 0.9175 0.0000 -0.3978
vn 0.3348 -0.9306 -0.1478
vn 0.8905 0.0000 -0.4551
vn 0.5116 -0.8190 -0.2597
vn 0.2738 -0.9522 -0.1352
vn 0.8925 0.0248 -0.4503
vn -0.0126 -0.9999 -0.0000
vn -0.0312 -0.9995 -0.0026
vn 0.0249 -0.9997 0.0021
vn -0.0877 -0.9961 -0.0119
vn -0.0029 -0.9999 0.0160
vn -0.0701 -0.9895 0.1266
vn 0.0034 -1.0000 0.0070
vn -0.0219 -0.9979 0.0603
vn -0.0009 -0.9994 0.0351
vn 0.0037 -0.9995 0.0311
vn 0.0036 -0.9995 0.0307
vn 0.0034 -1.0000 0.0088
vn 0.0029 -0.9995 0.0310
vn 0.0026 -0.9995 0.0325
vn 0.0032 -0.9999 0.0113
vn 0.0020 -0.9993 0.0361
vn -0.0274 -0.9996 0.0027
vn 0.0008 -0.9992 0.0405
vn -0.0009 -0.9991 0.0423
vn 0.0002 -0.9991 0.0423
vn 0.0194 -0.9993 0.0323
vn 0.0481 -0.9986 0.0208
vn 0.0677 -0.9976 0.0154
vn 0.1039 -0.9945 0.0094
vn 0.1641 -0.9864 0.0005
vn 0.1684 -0.9857 -0.0000
vn 0.0262 -0.9997 0.0003
vn 0.0259 -0.9997 -0.0000
vn 0.0286 -0.9996 -0.0000
vn -0.0301 -0.9995 -0.0000
vn 0.0034 -1.0000 -0.0000
vn 0.0151 -0.9999 -0.0000
vn 0.0146 -0.9999 0.0001
vn 0.0059 -1.0000 0.0012
vn 0.0011 -1.0000 0.0019
vn 0.0007 -1.0000 0.0019
vn 0.0013 -1.0000 0.0016
vn 0.0000 -1.0000 0.0000
vn 0.0000 -1.0000 -0.0000
vn 0.0240 -0.9997 -0.0021
vn -0.0159 -0.9999 0.0005
vn 0.0031 -1.0000 -0.0069
vn -0.0017 -0.9999 -0.0147
vn -0.0024 -0.9999 -0.0130
vn -0.0701 -0.9895 -0.1266
vn -0.0218 -0.9979 -0.0603
vn -0.0009 -0.9994 -0.0351
vn 0.0037 -0.9995 -0.0311
vn 0.0036 -0.9995 -0.0307
vn 0.0034 -1.0000 -0.0088
vn 0.0029 -0.9995 -0.0310
vn 0.0026 -0.9995 -0.0325
vn 0.0032 -0.9999 -0.0113
vn 0.0020 -0.9993 -0.0361
vn -0.0274 -0.9996 -0.0027
vn 0.0008 -0.9992 -0.0405
vn -0.0009 -0.9991 -0.0423
vn 0.0002 -0.9991 -0.0423
vn 0.0194 -0.9993 -0.0323
vn 0.0481 -0.9986 -0.0208
vn 0.0677 -0.9976 -0.0154
vn 0.1039 -0.9945 -0.0094
vn 0.1641 -0.9864 -0.0005
vn 0.0262 -0.9997 -0.0003
vn 0.0146 -0.9999 -0.0001
vn 0.0059 -1.0000 -0.0012
vn 0.0011 -1.0000 -0.0019
vn 0.0007 -1.0000 -0.0019
vn 0.0013 -1.0000 -0.0016
vn -0.0000 -1.0000 0.0000
vn -0.0693 -0.9976 0.0091
vn -0.0089 -0.6402 -0.7681
# 173 vertex normals

g F183_FLOR_C_N_F183_FLOR_C
usemtl diffuse_black_plasticSG
s 1
f 1//1 2//2 3//3 
f 2//2 4//4 3//3 
f 4//4 5//5 3//3 
f 5//5 6//6 3//3 
f 6//6 7//7 3//3 
f 7//7 8//8 3//3 
f 8//8 9//9 3//3 
f 3//3 9//9 10//10 
f 10//10 9//9 11//11 
f 11//11 9//9 12//12 
f 12//12 9//9 13//13 
f 13//13 9//9 14//14 
f 14//14 9//9 15//15 
f 15//15 9//9 16//16 
f 16//16 9//9 17//17 
f 17//17 9//9 18//18 
f 9//9 19//19 18//18 
f 18//18 19//19 20//20 
f 19//19 21//21 20//20 
f 20//20 21//21 22//22 
f 22//22 21//21 23//23 
f 21//21 24//24 23//23 
f 23//23 24//24 25//25 
f 25//25 24//24 26//26 
f 24//24 27//27 26//26 
f 1//1 28//1 2//2 
f 2//2 28//1 29//28 
f 29//28 28//1 30//29 
f 30//29 28//1 31//30 
f 31//30 28//1 32//31 
f 32//31 28//1 33//32 
f 33//32 28//1 34//33 
f 28//1 35//34 34//33 
f 35//34 36//35 34//33 
f 36//35 37//36 34//33 
f 37//36 38//37 34//33 
f 38//37 39//38 34//33 
f 39//38 40//39 34//33 
f 40//39 41//40 34//33 
f 41//40 42//41 34//33 
f 42//41 43//42 34//33 
f 43//42 44//43 34//33 
f 34//33 44//43 45//44 
f 44//43 46//45 45//44 
f 45//44 46//45 47//46 
f 46//45 48//47 47//46 
f 47//46 48//47 49//48 
f 48//47 50//49 49//48 
f 50//49 51//50 49//48 
f 51//50 52//51 49//48 
f 53//52 54//53 55//54 
f 55//54 54//53 56//55 
f 55//54 56//55 57//56 
f 57//56 56//55 58//57 
f 57//56 58//57 59//58 
f 59//58 58//57 60//59 
f 59//58 60//59 61//60 
f 61//60 60//59 62//61 
f 61//60 62//61 63//62 
f 63//62 62//61 64//63 
f 63//62 64//63 65//64 
f 65//64 64//63 66//65 
f 65//64 66//65 67//66 
f 67//66 66//65 68//67 
f 67//66 68//67 69//68 
f 69//68 68//67 70//69 
f 71//70 54//53 72//71 
f 72//71 54//53 53//52 
f 73//72 71//70 74//73 
f 74//73 71//70 72//71 
f 75//74 73//72 76//75 
f 76//75 73//72 74//73 
f 77//76 75//74 78//77 
f 78//77 75//74 76//75 
f 79//78 80//79 81//80 
f 81//80 80//79 82//81 
f 80//79 83//82 82//81 
f 82//81 83//82 84//83 
f 83//82 85//84 84//83 
f 84//83 85//84 86//85 
f 85//84 87//86 86//85 
f 86//85 87//86 88//87 
f 87//86 89//88 88//87 
f 88//87 89//88 90//89 
f 89//88 91//90 90//89 
f 90//89 91//90 92//91 
f 91//90 93//92 92//91 
f 92//91 93//92 94//93 
f 93//92 69//68 94//93 
f 94//93 69//68 70//69 
f 79//78 81//80 95//94 
f 95//94 81//80 96//95 
f 95//94 96//95 97//96 
f 97//96 96//95 98//97 
f 97//96 98//97 99//98 
f 99//98 98//97 100//99 
f 101//100 102//101 100//99 
f 100//99 102//101 99//98 
f 103//102 104//103 105//104 
f 106//105 105//104 104//103 
f 107//106 108//107 109//108 
f 108//107 110//109 109//108 
f 110//109 111//110 109//108 
f 111//110 112//111 109//108 
f 112//111 113//112 109//108 
f 109//108 113//112 114//113 
f 113//112 115//114 114//113 
f 115//114 116//115 114//113 
f 114//113 116//115 117//116 
f 116//115 118//117 117//116 
f 117//116 118//117 119//118 
f 118//117 120//119 119//118 
f 120//119 121//120 119//118 
f 121//120 122//121 119//118 
f 122//121 123//122 119//118 
f 123//122 124//123 119//118 
f 124//123 125//124 119//118 
f 125//124 126//125 119//118 
f 126//125 127//126 119//118 
f 127//126 128//127 119//118 
f 129//128 105//104 130//129 
f 130//129 105//104 131//130 
f 119//118 132//131 117//116 
f 117//116 132//131 133//132 
f 109//108 134//132 105//104 
f 105//104 134//132 131//130 
f 117//116 133//132 114//113 
f 114//113 133//132 135//132 
f 114//113 135//132 109//108 
f 109//108 135//132 134//132 
f 136//133 129//128 137//134 
f 137//134 129//128 138//135 
f 138//135 129//128 139//136 
f 139//136 129//128 140//137 
f 140//137 129//128 141//138 
f 130//129 70//69 129//128 
f 70//69 68//67 129//128 
f 68//67 66//65 129//128 
f 66//65 64//63 129//128 
f 64//63 62//61 129//128 
f 62//61 60//59 129//128 
f 60//59 58//57 129//128 
f 58//57 56//55 129//128 
f 56//55 54//53 129//128 
f 129//128 54//53 141//138 
f 141//138 54//53 142//139 
f 142//139 54//53 143//140 
f 143//140 54//53 144//140 
f 54//53 71//70 144//140 
f 144//140 71//70 145//140 
f 71//70 73//72 145//140 
f 145//140 73//72 146//140 
f 73//72 75//74 146//140 
f 75//74 77//76 146//140 
f 77//76 147//140 146//140 
f 146//140 147//140 148//140 
f 147//140 149//139 148//140 
f 150//102 151//141 152//142 
f 151//141 153//143 154//144 
f 154//144 155//145 151//141 
f 154//144 153//143 156//146 
f 156//146 153//143 157//147 
f 157//147 153//143 158//148 
f 158//148 153//143 159//149 
f 159//149 153//143 160//150 
f 153//143 161//151 160//150 
f 160//150 161//151 162//152 
f 162//152 161//151 163//153 
f 161//151 164//154 163//153 
f 163//153 164//154 165//155 
f 164//154 166//156 165//155 
f 165//155 166//156 167//157 
f 167//157 166//156 168//158 
f 168//158 166//156 169//159 
f 169//159 166//156 170//160 
f 170//160 166//156 171//161 
f 171//161 166//156 172//162 
f 172//162 166//156 173//163 
f 173//163 166//156 174//164 
f 166//156 175//127 174//164 
f 176//165 130//129 151//141 
f 151//141 130//129 131//130 
f 166//156 164//154 132//131 
f 132//131 164//154 133//132 
f 153//143 151//141 134//132 
f 134//132 151//141 131//130 
f 164//154 161//151 133//132 
f 133//132 161//151 135//132 
f 161//151 153//143 135//132 
f 135//132 153//143 134//132 
f 177//133 178//166 176//165 
f 178//166 179//167 176//165 
f 179//167 180//168 176//165 
f 180//168 181//169 176//165 
f 181//169 182//170 176//165 
f 130//129 176//165 70//69 
f 70//69 176//165 94//93 
f 94//93 176//165 92//91 
f 92//91 176//165 90//89 
f 90//89 176//165 88//87 
f 88//87 176//165 86//85 
f 86//85 176//165 84//83 
f 84//83 176//165 82//81 
f 82//81 176//165 81//80 
f 176//165 182//170 81//80 
f 182//170 183//140 81//80 
f 183//140 184//140 81//80 
f 184//140 185//140 81//80 
f 185//140 186//140 81//80 
f 81//80 186//140 96//95 
f 186//140 187//140 96//95 
f 96//95 187//140 98//97 
f 187//140 188//171 98//97 
f 98//97 188//171 100//99 
f 188//171 189//140 100//99 
f 189//140 190//140 100//99 
f 190//140 101//100 100//99 
f 119//118 28//1 132//131 
f 132//131 28//1 1//1 
f 132//131 1//1 166//156 
f 166//156 1//1 3//3 
f 151//141 191//172 152//142 
f 155//145 191//172 151//141 
f 106//105 104//103 192//173 
f 109//108 105//104 107//106 
f 107//106 105//104 106//105 
# 226 faces

