# 3ds Max Wavefront OBJ Exporter v0.97b - (c)2007 guruware
# File Created: 13.11.2015 16:30:27

mtllib F183_38SG_L.mtl

#
# object F183_38SG_L_1_DTaSI_F183_38SG_L
#

v  -163.4228 79.5560 -79.1565
v  -161.8091 80.0591 -79.0956
v  -156.3083 78.0770 -80.1285
v  -156.7695 81.6337 -78.8418
v  -150.9220 82.1247 -79.0274
v  -153.1943 82.6359 -78.7046
v  -166.0798 67.8660 -82.7599
v  -169.4449 62.7462 -84.1176
v  -175.4628 69.3267 -81.7220
v  -178.6985 65.7835 -82.6661
v  -177.3640 63.5813 -83.4315
v  -169.5004 74.6302 -80.4082
v  -173.3152 75.8072 -79.6500
v  -177.9820 73.7768 -79.9815
v  -180.6733 70.7721 -80.8246
v  -180.6945 71.6795 -80.5069
v  -161.4959 73.1765 -81.3962
v  -140.8896 85.3053 -78.2739
v  -134.4413 86.5325 -78.0495
v  -137.0635 85.0783 -78.5191
v  -171.5667 58.4158 -85.3515
v  -154.7526 57.5306 -86.2041
v  -153.6127 61.6478 -85.0985
v  -151.5869 66.6292 -83.7810
v  -148.5416 72.0401 -82.3125
v  -144.9410 77.2136 -80.8643
v  -141.2156 81.5662 -79.5970
v  -146.6108 84.3320 -78.3927
v  -155.1931 54.9443 -86.9955
v  -162.8092 55.2457 -86.6852
v  -166.9734 55.8569 -86.3583
v  -169.9915 57.0030 -85.8902
v  -171.7489 57.8690 -85.5351
v  -149.7881 57.3651 -86.4683
v  -151.1291 54.8453 -87.1415
v  -147.6704 61.3104 -85.4648
v  -144.9997 66.2856 -84.1457
v  -142.1259 71.6230 -82.6421
v  -139.2163 77.0267 -81.0927
v  -136.7833 81.5407 -79.7340
v  -134.8392 85.1473 -78.5615
v  -134.2829 86.3829 -78.1111
v  -172.7068 58.4807 -85.2792
v  -180.3992 72.4830 -80.2470
v  -179.5883 73.1200 -80.0820
v  -179.9069 68.5158 -81.6547
v  -174.7288 60.2504 -84.6276
v  -148.2661 83.9395 -78.4559
# 48 vertices

vn -0.0634 0.3160 -0.9466
vn -0.0602 0.3248 -0.9439
vn -0.0466 0.3033 -0.9517
vn -0.0569 0.3331 -0.9412
vn -0.0403 0.3183 -0.9471
vn -0.0575 0.3362 -0.9400
vn -0.0494 0.2875 -0.9565
vn -0.0430 0.2879 -0.9567
vn -0.0616 0.3066 -0.9498
vn -0.0550 0.3037 -0.9512
vn -0.0508 0.3008 -0.9523
vn -0.0679 0.3150 -0.9466
vn -0.0818 0.3304 -0.9403
vn -0.0736 0.3270 -0.9422
vn -0.0722 0.3251 -0.9429
vn -0.0713 0.3283 -0.9419
vn -0.0506 0.2948 -0.9542
vn -0.0388 0.3374 -0.9406
vn -0.0346 0.3630 -0.9311
vn -0.0333 0.3394 -0.9400
vn -0.0338 0.2924 -0.9557
vn -0.0374 0.2810 -0.9590
vn -0.0427 0.2720 -0.9613
vn -0.0426 0.2787 -0.9594
vn -0.0386 0.2885 -0.9567
vn -0.0352 0.2995 -0.9535
vn -0.0337 0.3162 -0.9481
vn -0.0362 0.3392 -0.9400
vn -0.0314 0.2987 -0.9538
vn -0.0256 0.3268 -0.9448
vn -0.0265 0.3245 -0.9455
vn -0.0173 0.3394 -0.9405
vn -0.0330 0.3280 -0.9441
vn -0.0430 0.2713 -0.9615
vn -0.0377 0.2836 -0.9582
vn -0.0419 0.2723 -0.9613
vn -0.0360 0.2810 -0.9590
vn -0.0300 0.2881 -0.9571
vn -0.0283 0.2965 -0.9546
vn -0.0276 0.3134 -0.9492
vn -0.0283 0.3349 -0.9418
vn -0.0288 0.3538 -0.9349
vn -0.0471 0.2963 -0.9539
vn -0.0673 0.3295 -0.9418
vn -0.0790 0.3373 -0.9381
vn -0.0728 0.3202 -0.9446
vn -0.0499 0.3003 -0.9526
vn -0.0513 0.3676 -0.9286
# 48 vertex normals

vt 0.2079 0.1199 0.0000
vt 0.2124 0.1218 0.0000
vt 0.2301 0.1154 0.0000
vt 0.2286 0.1269 0.0000
vt 0.2474 0.1284 0.0000
vt 0.2401 0.1301 0.0000
vt 0.1986 0.0825 0.0000
vt 0.1878 0.0660 0.0000
vt 0.1684 0.0872 0.0000
vt 0.1580 0.0758 0.0000
vt 0.1623 0.0687 0.0000
vt 0.1876 0.1043 0.0000
vt 0.1753 0.1081 0.0000
vt 0.1603 0.1016 0.0000
vt 0.1516 0.0919 0.0000
vt 0.1515 0.0948 0.0000
vt 0.2134 0.0996 0.0000
vt 0.2797 0.1387 0.0000
vt 0.3005 0.1426 0.0000
vt 0.2921 0.1380 0.0000
vt 0.1809 0.0521 0.0000
vt 0.2351 0.0492 0.0000
vt 0.2388 0.0625 0.0000
vt 0.2453 0.0785 0.0000
vt 0.2551 0.0960 0.0000
vt 0.2667 0.1126 0.0000
vt 0.2787 0.1267 0.0000
vt 0.2613 0.1356 0.0000
vt 0.2337 0.0409 0.0000
vt 0.2091 0.0419 0.0000
vt 0.1957 0.0438 0.0000
vt 0.1860 0.0475 0.0000
vt 0.1803 0.0503 0.0000
vt 0.2511 0.0487 0.0000
vt 0.2468 0.0406 0.0000
vt 0.2579 0.0614 0.0000
vt 0.2665 0.0774 0.0000
vt 0.2758 0.0946 0.0000
vt 0.2851 0.1120 0.0000
vt 0.2930 0.1266 0.0000
vt 0.2992 0.1382 0.0000
vt 0.3010 0.1422 0.0000
vt 0.1773 0.0523 0.0000
vt 0.1525 0.0974 0.0000
vt 0.1551 0.0994 0.0000
vt 0.1541 0.0846 0.0000
vt 0.1708 0.0580 0.0000
vt 0.2560 0.1343 0.0000
# 48 texture coords

g F183_38SG_L_1_DTaSI_F183_38SG_L
usemtl windowglass_1SG
s 1
f 1/1/1 2/2/2 3/3/3 
f 2/2/2 4/4/4 3/3/3 
f 5/5/5 3/3/3 6/6/6 
f 3/3/3 4/4/4 6/6/6 
f 7/7/7 8/8/8 9/9/9 
f 9/9/9 8/8/8 10/10/10 
f 8/8/8 11/11/11 10/10/10 
f 12/12/12 9/9/9 13/13/13 
f 13/13/13 9/9/9 14/14/14 
f 15/15/15 16/16/16 9/9/9 
f 16/16/16 14/14/14 9/9/9 
f 3/3/3 17/17/17 1/1/1 
f 1/1/1 17/17/17 12/12/12 
f 9/9/9 12/12/12 7/7/7 
f 7/7/7 12/12/12 17/17/17 
f 18/18/18 19/19/19 20/20/20 
f 21/21/21 8/8/8 22/22/22 
f 22/22/22 8/8/8 23/23/23 
f 24/24/24 23/23/23 7/7/7 
f 7/7/7 23/23/23 8/8/8 
f 7/7/7 17/17/17 24/24/24 
f 24/24/24 17/17/17 25/25/25 
f 26/26/26 25/25/25 3/3/3 
f 3/3/3 25/25/25 17/17/17 
f 3/3/3 5/5/5 26/26/26 
f 26/26/26 5/5/5 27/27/27 
f 5/5/5 28/28/28 27/27/27 
f 28/28/28 18/18/18 27/27/27 
f 18/18/18 20/20/20 27/27/27 
f 22/22/22 29/29/29 21/21/21 
f 29/29/29 30/30/30 21/21/21 
f 30/30/30 31/31/31 21/21/21 
f 31/31/31 32/32/32 21/21/21 
f 21/21/21 32/32/32 33/33/33 
f 34/34/34 35/35/35 22/22/22 
f 22/22/22 35/35/35 29/29/29 
f 36/36/36 34/34/34 23/23/23 
f 23/23/23 34/34/34 22/22/22 
f 37/37/37 36/36/36 24/24/24 
f 24/24/24 36/36/36 23/23/23 
f 38/38/38 37/37/37 25/25/25 
f 25/25/25 37/37/37 24/24/24 
f 39/39/39 38/38/38 26/26/26 
f 26/26/26 38/38/38 25/25/25 
f 40/40/40 39/39/39 27/27/27 
f 27/27/27 39/39/39 26/26/26 
f 41/41/41 40/40/40 20/20/20 
f 20/20/20 40/40/40 27/27/27 
f 19/19/19 42/42/42 20/20/20 
f 42/42/42 41/41/41 20/20/20 
f 21/21/21 33/33/33 43/43/43 
f 44/44/44 45/45/45 16/16/16 
f 16/16/16 45/45/45 14/14/14 
f 15/15/15 9/9/9 46/46/46 
f 46/46/46 9/9/9 10/10/10 
f 11/11/11 8/8/8 47/47/47 
f 47/47/47 8/8/8 43/43/43 
f 21/21/21 43/43/43 8/8/8 
f 13/13/13 1/1/1 12/12/12 
f 28/28/28 5/5/5 48/48/48 
f 48/48/48 5/5/5 6/6/6 
# 61 faces

#
# object F183_38SG_L_F183_38SG_L_2_DTaSI
#

v  -150.2727 51.4409 -87.7783
v  -150.2323 51.6442 -88.0649
v  -149.8498 52.3027 -87.5142
v  -150.1425 51.8690 -88.1486
v  -148.8873 54.2102 -87.3702
v  -148.5879 54.6628 -86.8758
v  -147.2432 57.2803 -86.6037
v  -147.2353 57.1900 -86.2562
v  -145.1614 61.1678 -85.6195
v  -145.5466 60.3378 -85.4680
v  -142.7923 65.4725 -84.1075
v  -142.4910 66.1547 -84.2847
v  -139.8936 70.8784 -82.5514
v  -139.6268 71.4606 -82.7705
v  -137.1026 76.0868 -80.9862
v  -136.6730 76.9436 -81.1942
v  -134.7209 80.5314 -79.6348
v  -134.2480 81.5261 -79.8125
v  -132.8221 84.0649 -78.5109
v  -132.2683 85.2271 -78.6104
v  -131.6640 86.2069 -77.7424
v  -130.9321 87.6974 -77.7170
v  -130.8528 87.7389 -77.1196
v  -130.2559 89.1734 -77.0858
v  -130.2000 89.1255 -76.6986
v  -130.1968 89.2310 -76.8900
v  -169.1266 53.1161 -87.1083
v  -164.0027 52.2578 -87.5495
v  -169.1220 52.9859 -86.8401
v  -164.0011 52.0784 -87.3110
v  -155.3216 51.8651 -87.8978
v  -155.3224 51.6610 -87.6772
v  -135.1033 88.3724 -77.0713
v  -135.0892 88.2406 -76.8018
v  -146.8770 86.2547 -77.4252
v  -146.8607 86.1316 -77.1516
v  -156.8544 83.6001 -77.9227
v  -156.8328 83.4832 -77.6468
v  -166.2529 80.5862 -78.3223
v  -166.2271 80.4746 -78.0446
v  -176.5193 76.6472 -78.8664
v  -176.4929 76.5393 -78.5872
v  -183.3278 73.6599 -79.3750
v  -183.3025 73.5537 -79.0951
v  -184.8400 71.9723 -79.8894
v  -184.8038 70.8425 -80.2984
v  -184.8178 71.8675 -79.6087
v  -184.7810 70.7414 -80.0164
v  -184.1331 68.6976 -81.1218
v  -184.1123 68.5987 -80.8388
v  -182.0925 64.1834 -82.7925
v  -182.0736 64.0866 -82.5086
v  -181.2048 62.8205 -83.3177
v  -181.1889 62.7255 -83.0331
v  -177.9387 58.7281 -84.7972
v  -177.9267 58.6311 -84.5131
v  -172.6679 54.7145 -86.4421
v  -172.6596 54.6105 -86.1603
v  -174.0194 55.2780 -86.1839
v  -174.0085 55.1755 -85.9016
v  -184.3639 72.9353 -79.5537
v  -184.3409 72.8287 -79.2737
v  -155.3179 52.1220 -87.9617
v  -163.9850 52.5007 -87.6215
v  -134.9659 88.3860 -77.2445
v  -146.7371 86.2727 -77.5973
v  -169.0796 53.3284 -87.1999
v  -172.6535 54.9255 -86.5335
v  -173.7598 55.3227 -86.3458
v  -177.7181 58.7663 -84.9612
v  -181.1141 62.9987 -83.4303
v  -156.6849 83.5642 -78.1265
v  -166.1224 80.5897 -78.5035
v  -176.2929 76.6430 -79.0608
v  -183.2630 73.5885 -79.5772
v  -184.2510 72.8988 -79.7520
v  -184.7013 71.9814 -80.0663
v  -184.6586 70.9232 -80.4493
v  -184.0184 68.8596 -81.2418
v  -181.9072 64.1961 -82.9680
v  -155.2666 54.5123 -87.1277
v  -132.6838 87.5072 -77.7348
v  -172.6108 55.2827 -86.4033
v  -144.3130 85.5084 -78.0545
v  -156.2290 83.3186 -78.2735
v  -174.7740 76.2573 -79.3601
v  -181.5526 71.0161 -80.6732
v  -180.4156 63.9032 -83.1671
v  -171.7489 57.8690 -85.5351
v  -169.9915 57.0030 -85.8902
v  -155.1931 54.9443 -86.9955
v  -162.8092 55.2457 -86.6852
v  -166.9734 55.8569 -86.3583
v  -172.7068 58.4807 -85.2792
v  -174.7288 60.2504 -84.6276
v  -177.3640 63.5813 -83.4315
v  -178.6985 65.7835 -82.6661
v  -180.6733 70.7721 -80.8246
v  -179.9069 68.5158 -81.6547
v  -180.6945 71.6795 -80.5069
v  -179.5883 73.1200 -80.0820
v  -180.3992 72.4830 -80.2470
v  -177.9820 73.7768 -79.9815
v  -173.3152 75.8072 -79.6500
v  -163.4228 79.5560 -79.1565
v  -161.8091 80.0591 -79.0956
v  -153.1943 82.6359 -78.7046
v  -156.7695 81.6337 -78.8418
v  -148.2661 83.9395 -78.4559
v  -146.6108 84.3320 -78.3927
v  -140.8896 85.3053 -78.2739
v  -134.4413 86.5325 -78.0495
v  -134.8392 85.1473 -78.5615
v  -134.2829 86.3829 -78.1111
v  -136.7833 81.5407 -79.7340
v  -139.2163 77.0267 -81.0927
v  -142.1259 71.6230 -82.6421
v  -144.9997 66.2856 -84.1457
v  -147.6704 61.3104 -85.4648
v  -149.7881 57.3651 -86.4683
v  -151.1291 54.8453 -87.1415
# 121 vertices

vn 0.9049 -0.3968 -0.1540
vn 0.9041 -0.4005 -0.1490
vn 0.8914 -0.4390 -0.1128
vn 0.8945 -0.4312 -0.1179
vn 0.8884 -0.4391 -0.1338
vn 0.8873 -0.4415 -0.1332
vn 0.8872 -0.4413 -0.1349
vn 0.8872 -0.4412 -0.1353
vn 0.8874 -0.4379 -0.1441
vn 0.8866 -0.4383 -0.1475
vn 0.8877 -0.4330 -0.1567
vn 0.8884 -0.4328 -0.1530
vn 0.8878 -0.4472 -0.1088
vn 0.8889 -0.4467 -0.1021
vn 0.8862 -0.4590 -0.0622
vn 0.8870 -0.4580 -0.0585
vn 0.8913 -0.4424 -0.0997
vn 0.8901 -0.4423 -0.1099
vn 0.8911 -0.4359 -0.1262
vn 0.8910 -0.4355 -0.1283
vn 0.8913 -0.4356 -0.1258
vn 0.9028 -0.4192 -0.0963
vn 0.9101 -0.4033 -0.0953
vn 0.9153 -0.3776 -0.1405
vn 0.9093 -0.3706 -0.1894
vn 0.9105 -0.3728 -0.1787
vn -0.3019 -0.8605 -0.4104
vn -0.1110 -0.7962 -0.5948
vn -0.2982 -0.8589 -0.4163
vn -0.1096 -0.7939 -0.5981
vn -0.0543 -0.8108 -0.5827
vn -0.0541 -0.8087 -0.5858
vn -0.0572 -0.7352 -0.6754
vn -0.0571 -0.7327 -0.6782
vn -0.1688 0.8641 0.4741
vn -0.1779 0.9537 0.2427
vn -0.1688 0.8651 0.4724
vn -0.1709 0.8817 0.4397
vn -0.2244 0.9455 0.2362
vn -0.2103 0.8869 0.4114
vn -0.2747 0.8774 0.3933
vn -0.2747 0.8775 0.3930
vn -0.3245 0.8669 0.3783
vn -0.3245 0.8670 0.3781
vn -0.3690 0.8546 0.3655
vn -0.3690 0.8546 0.3653
vn -0.4249 0.8330 0.3545
vn -0.4250 0.8330 0.3543
vn -0.9782 0.1573 0.1360
vn -0.9773 -0.2119 0.0026
vn -0.9781 0.1570 0.1365
vn -0.9773 -0.2120 0.0030
vn -0.9319 -0.3583 -0.0565
vn -0.9319 -0.3583 -0.0564
vn -0.9042 -0.4191 -0.0829
vn -0.9042 -0.4191 -0.0828
vn -0.8121 -0.5656 -0.1437
vn -0.8121 -0.5655 -0.1439
vn -0.7461 -0.6393 -0.1863
vn -0.7460 -0.6392 -0.1868
vn -0.4324 -0.8500 -0.3008
vn -0.4327 -0.8489 -0.3035
vn -0.6354 -0.7334 -0.2415
vn -0.6353 -0.7334 -0.2418
vn -0.7544 0.5906 0.2865
vn -0.7545 0.5905 0.2866
vn -0.0464 -0.2417 -0.9692
vn -0.0462 -0.2412 -0.9694
vn -0.0783 -0.2776 -0.9575
vn -0.0780 -0.2791 -0.9571
vn -0.0500 -0.3283 -0.9432
vn -0.0502 -0.3309 -0.9423
vn -0.1530 0.9608 -0.2314
vn -0.1722 0.9832 -0.0609
vn -0.1524 0.9596 -0.2363
vn -0.1977 0.9785 -0.0584
vn -0.2155 -0.3451 -0.9135
vn -0.2137 -0.3466 -0.9133
vn -0.3173 -0.3621 -0.8765
vn -0.3113 -0.3600 -0.8795
vn -0.4472 -0.3501 -0.8231
vn -0.4840 -0.2428 -0.8407
vn -0.5487 -0.2495 -0.7979
vn -0.5625 -0.2001 -0.8022
vn -0.6087 -0.1775 -0.7733
vn -0.6040 -0.1835 -0.7755
vn -0.2375 0.9038 -0.3559
vn -0.2519 0.8957 -0.3666
vn -0.3095 0.9282 -0.2065
vn -0.3266 0.9195 -0.2187
vn -0.3189 0.8642 -0.3892
vn -0.3306 0.8532 -0.4035
vn -0.3591 0.8379 -0.4111
vn -0.3594 0.8379 -0.4108
vn -0.5874 0.6665 -0.4591
vn -0.5885 0.6666 -0.4575
vn -0.7432 0.3630 -0.5621
vn -0.7466 0.3424 -0.5703
vn -0.7425 0.0881 -0.6640
vn -0.7411 0.0884 -0.6656
vn -0.7106 -0.0171 -0.7034
vn -0.7032 -0.0283 -0.7105
vn -0.6846 -0.0564 -0.7267
vn -0.6815 -0.0849 -0.7269
vn -0.0251 0.3003 -0.9535
vn -0.0200 0.3262 -0.9451
vn -0.0221 0.3253 -0.9454
vn -0.0208 0.3298 -0.9438
vn -0.0420 0.3910 -0.9194
vn -0.0369 0.4089 -0.9118
vn -0.0356 0.3850 -0.9222
vn -0.0323 0.3835 -0.9230
vn -0.0243 0.3416 -0.9395
vn -0.0401 0.3316 -0.9426
vn -0.0279 0.3340 -0.9422
vn -0.0236 0.3336 -0.9424
vn -0.0241 0.3382 -0.9408
vn -0.0440 0.3881 -0.9206
vn -0.0506 0.3839 -0.9220
vn -0.0605 0.3695 -0.9273
vn -0.0810 0.3887 -0.9178
vn -0.0868 0.3540 -0.9312
vn -0.0896 0.3553 -0.9305
vn -0.0867 0.3598 -0.9290
vn -0.0659 0.3242 -0.9437
vn -0.0777 0.3364 -0.9385
vn -0.0718 0.3291 -0.9415
vn -0.0741 0.3464 -0.9351
vn -0.0455 0.3114 -0.9492
vn -0.0649 0.3196 -0.9453
vn -0.0551 0.3102 -0.9491
vn -0.0343 0.3290 -0.9437
vn -0.0262 0.3222 -0.9463
vn -0.0271 0.2967 -0.9546
vn -0.0262 0.3056 -0.9518
vn -0.0258 0.3269 -0.9447
vn -0.0448 0.3127 -0.9488
vn -0.0412 0.3266 -0.9443
vn -0.0445 0.3036 -0.9518
vn -0.0491 0.3049 -0.9511
vn -0.0647 0.3117 -0.9480
vn -0.0737 0.3220 -0.9439
vn -0.0737 0.3208 -0.9443
vn -0.0849 0.3391 -0.9369
vn -0.0838 0.3489 -0.9334
vn -0.0817 0.3473 -0.9342
vn -0.0863 0.3431 -0.9353
vn -0.0741 0.3506 -0.9336
vn -0.0856 0.3492 -0.9331
vn -0.0813 0.3456 -0.9349
vn -0.0829 0.3684 -0.9260
vn -0.0782 0.3690 -0.9261
vn -0.0496 0.3673 -0.9288
vn -0.0576 0.3356 -0.9402
vn -0.0526 0.3751 -0.9255
vn -0.0531 0.3723 -0.9266
vn -0.0374 0.3795 -0.9244
vn -0.0409 0.3820 -0.9233
vn -0.0284 0.3364 -0.9413
vn -0.0280 0.3274 -0.9445
vn -0.0288 0.3538 -0.9349
vn -0.0277 0.3141 -0.9490
vn -0.0277 0.3082 -0.9509
vn -0.0283 0.2973 -0.9544
vn -0.0287 0.2941 -0.9553
vn -0.0301 0.2901 -0.9565
vn -0.0313 0.2899 -0.9566
vn -0.0371 0.2855 -0.9577
vn -0.0390 0.2823 -0.9585
vn -0.0429 0.2744 -0.9606
vn -0.0435 0.2718 -0.9614
vn -0.0427 0.2662 -0.9630
vn -0.0387 0.2662 -0.9631
vn -0.0232 0.2656 -0.9638
# 174 vertex normals

vt 0.2496 0.0293 0.0000
vt 0.2498 0.0299 0.0000
vt 0.2510 0.0321 0.0000
vt 0.2501 0.0307 0.0000
vt 0.2541 0.0383 0.0000
vt 0.2551 0.0397 0.0000
vt 0.2595 0.0482 0.0000
vt 0.2595 0.0480 0.0000
vt 0.2663 0.0609 0.0000
vt 0.2650 0.0582 0.0000
vt 0.2740 0.0749 0.0000
vt 0.2749 0.0771 0.0000
vt 0.2834 0.0924 0.0000
vt 0.2842 0.0943 0.0000
vt 0.2924 0.1094 0.0000
vt 0.2938 0.1122 0.0000
vt 0.3002 0.1238 0.0000
vt 0.3017 0.1271 0.0000
vt 0.3064 0.1353 0.0000
vt 0.3082 0.1391 0.0000
vt 0.3101 0.1423 0.0000
vt 0.3125 0.1471 0.0000
vt 0.3128 0.1472 0.0000
vt 0.3147 0.1519 0.0000
vt 0.3149 0.1517 0.0000
vt 0.3149 0.1521 0.0000
vt 0.1884 0.0347 0.0000
vt 0.2050 0.0319 0.0000
vt 0.1884 0.0343 0.0000
vt 0.2050 0.0313 0.0000
vt 0.2332 0.0306 0.0000
vt 0.2332 0.0300 0.0000
vt 0.2989 0.1493 0.0000
vt 0.2990 0.1489 0.0000
vt 0.2607 0.1424 0.0000
vt 0.2607 0.1420 0.0000
vt 0.2282 0.1338 0.0000
vt 0.2283 0.1334 0.0000
vt 0.1977 0.1240 0.0000
vt 0.1978 0.1236 0.0000
vt 0.1643 0.1112 0.0000
vt 0.1644 0.1108 0.0000
vt 0.1422 0.1015 0.0000
vt 0.1423 0.1011 0.0000
vt 0.1373 0.0960 0.0000
vt 0.1374 0.0923 0.0000
vt 0.1374 0.0957 0.0000
vt 0.1375 0.0920 0.0000
vt 0.1396 0.0854 0.0000
vt 0.1397 0.0850 0.0000
vt 0.1462 0.0707 0.0000
vt 0.1463 0.0704 0.0000
vt 0.1491 0.0663 0.0000
vt 0.1492 0.0659 0.0000
vt 0.1597 0.0530 0.0000
vt 0.1598 0.0526 0.0000
vt 0.1769 0.0399 0.0000
vt 0.1769 0.0396 0.0000
vt 0.1725 0.0417 0.0000
vt 0.1725 0.0414 0.0000
vt 0.1388 0.0991 0.0000
vt 0.1389 0.0988 0.0000
vt 0.2332 0.0315 0.0000
vt 0.2051 0.0327 0.0000
vt 0.2994 0.1493 0.0000
vt 0.2611 0.1425 0.0000
vt 0.1885 0.0354 0.0000
vt 0.1769 0.0406 0.0000
vt 0.1733 0.0419 0.0000
vt 0.1604 0.0531 0.0000
vt 0.1494 0.0668 0.0000
vt 0.2288 0.1337 0.0000
vt 0.1981 0.1240 0.0000
vt 0.1651 0.1112 0.0000
vt 0.1424 0.1013 0.0000
vt 0.1392 0.0990 0.0000
vt 0.1377 0.0960 0.0000
vt 0.1379 0.0926 0.0000
vt 0.1400 0.0859 0.0000
vt 0.1468 0.0707 0.0000
vt 0.2334 0.0393 0.0000
vt 0.3068 0.1465 0.0000
vt 0.1770 0.0418 0.0000
vt 0.2690 0.1400 0.0000
vt 0.2303 0.1329 0.0000
vt 0.1700 0.1099 0.0000
vt 0.1480 0.0929 0.0000
vt 0.1517 0.0698 0.0000
vt 0.1798 0.0502 0.0000
vt 0.1856 0.0473 0.0000
vt 0.2336 0.0407 0.0000
vt 0.2089 0.0416 0.0000
vt 0.1954 0.0436 0.0000
vt 0.1767 0.0521 0.0000
vt 0.1702 0.0579 0.0000
vt 0.1616 0.0687 0.0000
vt 0.1573 0.0759 0.0000
vt 0.1508 0.0921 0.0000
vt 0.1533 0.0848 0.0000
vt 0.1508 0.0950 0.0000
vt 0.1544 0.0997 0.0000
vt 0.1517 0.0977 0.0000
vt 0.1596 0.1019 0.0000
vt 0.1747 0.1085 0.0000
vt 0.2069 0.1206 0.0000
vt 0.2121 0.1223 0.0000
vt 0.2401 0.1307 0.0000
vt 0.2285 0.1274 0.0000
vt 0.2562 0.1349 0.0000
vt 0.2615 0.1362 0.0000
vt 0.2801 0.1393 0.0000
vt 0.3011 0.1433 0.0000
vt 0.2998 0.1388 0.0000
vt 0.3016 0.1428 0.0000
vt 0.2935 0.1271 0.0000
vt 0.2856 0.1124 0.0000
vt 0.2761 0.0949 0.0000
vt 0.2668 0.0775 0.0000
vt 0.2581 0.0613 0.0000
vt 0.2512 0.0485 0.0000
vt 0.2469 0.0403 0.0000
# 121 texture coords

g F183_38SG_L_F183_38SG_L_2_DTaSI
usemtl windowglass_blackSG
s 1
f 49/49/49 50/50/50 51/51/51 
f 50/50/50 52/52/52 51/51/51 
f 52/52/52 53/53/53 51/51/51 
f 51/51/51 53/53/53 54/54/54 
f 53/53/53 55/55/55 54/54/54 
f 54/54/54 55/55/55 56/56/56 
f 55/55/55 57/57/57 56/56/56 
f 56/56/56 57/57/57 58/58/58 
f 58/58/58 57/57/57 59/59/59 
f 57/57/57 60/60/60 59/59/59 
f 59/59/59 60/60/60 61/61/61 
f 60/60/60 62/62/62 61/61/61 
f 61/61/61 62/62/62 63/63/63 
f 62/62/62 64/64/64 63/63/63 
f 63/63/63 64/64/64 65/65/65 
f 64/64/64 66/66/66 65/65/65 
f 65/65/65 66/66/66 67/67/67 
f 66/66/66 68/68/68 67/67/67 
f 67/67/67 68/68/68 69/69/69 
f 68/68/68 70/70/70 69/69/69 
f 69/69/69 70/70/70 71/71/71 
f 70/70/70 72/72/72 71/71/71 
f 73/73/73 71/71/71 74/74/74 
f 72/72/72 74/74/74 71/71/71 
s 2
f 75/75/75 76/76/76 77/77/77 
f 77/77/77 76/76/76 78/78/78 
f 50/50/79 49/49/80 79/79/81 
f 79/79/81 49/49/80 80/80/82 
f 74/74/83 81/81/84 73/73/85 
f 73/73/85 81/81/84 82/82/86 
f 81/81/84 83/83/87 82/82/86 
f 82/82/86 83/83/87 84/84/88 
f 83/83/87 85/85/89 84/84/88 
f 84/84/88 85/85/89 86/86/90 
f 85/85/89 87/87/91 86/86/90 
f 86/86/90 87/87/91 88/88/92 
f 87/87/91 89/89/93 88/88/92 
f 88/88/92 89/89/93 90/90/94 
f 89/89/93 91/91/95 90/90/94 
f 90/90/94 91/91/95 92/92/96 
f 93/93/97 94/94/98 95/95/99 
f 95/95/99 94/94/98 96/96/100 
f 97/97/101 98/98/102 94/94/98 
f 94/94/98 98/98/102 96/96/100 
f 97/97/101 99/99/103 98/98/102 
f 98/98/102 99/99/103 100/100/104 
f 101/101/105 102/102/106 99/99/103 
f 99/99/103 102/102/106 100/100/104 
f 101/101/105 103/103/107 102/102/106 
f 102/102/106 103/103/107 104/104/108 
f 105/105/109 75/75/75 106/106/110 
f 106/106/110 75/75/75 77/77/77 
f 105/105/109 106/106/110 107/107/111 
f 107/107/111 106/106/110 108/108/112 
f 103/103/107 107/107/111 104/104/108 
f 104/104/108 107/107/111 108/108/112 
f 76/76/76 79/79/81 78/78/78 
f 78/78/78 79/79/81 80/80/82 
f 91/91/95 109/109/113 92/92/96 
f 92/92/96 109/109/113 110/110/114 
f 93/93/97 95/95/99 109/109/113 
f 109/109/113 95/95/99 110/110/114 
f 111/111/115 79/79/116 112/112/117 
f 112/112/117 79/79/116 76/76/118 
f 79/79/116 111/111/115 50/50/119 
f 50/50/119 111/111/115 52/52/120 
f 81/81/84 74/74/121 113/113/122 
f 113/113/122 74/74/121 72/72/123 
f 113/113/122 114/114/124 81/81/84 
f 81/81/84 114/114/124 83/83/87 
f 112/112/117 76/76/118 115/115/125 
f 115/115/125 76/76/118 75/75/126 
f 75/75/126 105/105/127 115/115/125 
f 115/115/125 105/105/127 116/116/128 
f 116/116/128 105/105/127 117/117/129 
f 117/117/129 105/105/127 107/107/130 
f 117/117/129 107/107/130 118/118/131 
f 118/118/131 107/107/130 103/103/132 
f 118/118/131 103/103/132 119/119/133 
f 119/119/133 103/103/132 101/101/134 
f 114/114/124 120/120/135 83/83/87 
f 83/83/87 120/120/135 85/85/136 
f 120/120/135 121/121/137 85/85/136 
f 85/85/136 121/121/137 87/87/138 
f 121/121/137 122/122/139 87/87/138 
f 87/87/138 122/122/139 89/89/140 
f 122/122/139 123/123/141 89/89/140 
f 89/89/140 123/123/141 91/91/142 
f 123/123/141 124/124/143 91/91/142 
f 91/91/142 124/124/143 109/109/144 
f 109/109/144 124/124/143 93/93/145 
f 93/93/145 124/124/143 125/125/146 
f 93/93/145 125/125/146 94/94/147 
f 94/94/147 125/125/146 126/126/148 
f 126/126/148 127/127/149 94/94/147 
f 94/94/147 127/127/149 97/97/150 
f 97/97/150 127/127/149 99/99/151 
f 99/99/151 127/127/149 128/128/152 
f 119/119/133 101/101/134 128/128/152 
f 128/128/152 101/101/134 99/99/151 
s 10
f 53/53/153 52/52/154 129/129/155 
f 129/129/155 52/52/154 111/111/156 
f 113/113/157 72/72/158 130/130/159 
f 130/130/159 72/72/158 70/70/160 
f 116/116/161 117/117/162 131/131/163 
f 111/111/156 112/112/164 129/129/155 
f 131/131/163 129/129/155 116/116/161 
f 116/116/161 129/129/155 115/115/165 
f 112/112/164 115/115/165 129/129/155 
f 132/132/166 114/114/167 113/113/157 
f 133/133/168 120/120/169 114/114/167 
f 134/134/170 122/122/171 121/121/172 
f 127/127/173 126/126/174 135/135/175 
f 135/135/175 126/126/174 125/125/176 
f 119/119/177 128/128/178 136/136/179 
f 137/137/180 138/138/181 131/131/163 
f 139/139/182 129/129/155 140/140/183 
f 129/129/155 131/131/163 140/140/183 
f 140/140/183 131/131/163 141/141/184 
f 138/138/181 141/141/184 131/131/163 
f 118/118/185 142/142/186 117/117/162 
f 142/142/186 137/137/180 117/117/162 
f 137/137/180 131/131/163 117/117/162 
f 142/142/186 118/118/185 143/143/187 
f 143/143/187 118/118/185 144/144/188 
f 144/144/188 118/118/185 136/136/179 
f 118/118/185 119/119/177 136/136/179 
f 145/145/189 144/144/188 136/136/179 
f 127/127/173 135/135/175 128/128/178 
f 135/135/175 146/146/190 128/128/178 
f 146/146/190 147/147/191 128/128/178 
f 128/128/178 147/147/191 136/136/179 
f 147/147/191 145/145/189 136/136/179 
f 135/135/175 148/148/192 146/146/190 
f 122/122/171 149/149/193 123/123/194 
f 149/149/193 150/150/195 123/123/194 
f 125/125/176 124/124/196 135/135/175 
f 124/124/196 123/123/194 135/135/175 
f 135/135/175 123/123/194 148/148/192 
f 123/123/194 150/150/195 148/148/192 
f 149/149/193 122/122/171 151/151/197 
f 151/151/197 122/122/171 134/134/170 
f 152/152/198 151/151/197 134/134/170 
f 134/134/170 121/121/172 152/152/198 
f 152/152/198 121/121/172 153/153/199 
f 121/121/172 120/120/169 153/153/199 
f 153/153/199 120/120/169 154/154/200 
f 120/120/169 133/133/168 154/154/200 
f 155/155/201 156/156/202 133/133/168 
f 133/133/168 156/156/202 154/154/200 
f 133/133/168 114/114/167 155/155/201 
f 155/155/201 114/114/167 157/157/203 
f 157/157/203 114/114/167 158/158/204 
f 132/132/166 158/158/204 114/114/167 
f 132/132/166 159/159/205 158/158/204 
f 132/132/166 113/113/157 159/159/205 
f 130/130/159 160/160/206 113/113/157 
f 113/113/157 160/160/206 159/159/205 
f 70/70/160 68/68/207 130/130/159 
f 161/161/208 162/162/209 68/68/207 
f 130/130/159 68/68/207 160/160/206 
f 68/68/207 162/162/209 160/160/206 
f 68/68/207 66/66/210 161/161/208 
f 161/161/208 66/66/210 163/163/211 
f 66/66/210 64/64/212 163/163/211 
f 163/163/211 64/64/212 164/164/213 
f 64/64/212 62/62/214 164/164/213 
f 164/164/213 62/62/214 165/165/215 
f 62/62/214 60/60/216 165/165/215 
f 165/165/215 60/60/216 166/166/217 
f 60/60/216 57/57/218 166/166/217 
f 166/166/217 57/57/218 167/167/219 
f 57/57/218 55/55/220 167/167/219 
f 167/167/219 55/55/220 168/168/221 
f 55/55/220 53/53/153 168/168/221 
f 168/168/221 53/53/153 169/169/222 
f 53/53/153 129/129/155 169/169/222 
f 129/129/155 139/139/182 169/169/222 
# 178 faces

