# 3ds Max Wavefront OBJ Exporter v0.97b - (c)2007 guruware
# File Created: 13.11.2015 16:38:36

mtllib F183_WLCH_C.mtl

#
# object F183_WLCH_C_N_F183_WLCH_C
#

v  106.0377 -56.2968 -62.3441
v  106.0554 -56.2333 -62.3441
v  198.1523 -52.2009 -62.3441
v  106.0579 -55.9331 -62.3441
v  106.0597 -55.2541 -62.3441
v  106.0719 -54.3561 -62.3441
v  106.1122 -53.2371 -62.3441
v  106.2257 -50.9466 -62.3441
v  106.4673 -46.6553 -62.3441
v  198.0935 -46.3047 -62.3441
v  106.9731 -40.4639 -62.3441
v  198.0924 -46.1619 -62.3441
v  197.6373 -37.1094 -62.3441
v  107.0119 -40.0812 -62.3441
v  107.6700 -34.6236 -62.3441
v  196.7160 -30.6259 -62.3441
v  109.1344 -27.4826 -62.3441
v  195.1698 -23.8501 -62.3441
v  111.6132 -19.5154 -62.3441
v  192.9596 -17.9596 -62.3441
v  190.0358 -12.8528 -62.3441
v  189.6718 -12.3889 -62.3441
v  186.3764 -8.1883 -62.3441
v  182.0817 -3.9438 -62.3441
v  177.2509 -0.2064 -62.3441
v  171.8560 2.8169 -62.3441
v  165.8738 4.9472 -62.3441
v  159.4265 6.2359 -62.3441
v  152.7211 6.7861 -62.3441
v  146.1605 6.6783 -62.3441
v  114.9494 -12.0296 -62.3441
v  140.0769 5.9282 -62.3441
v  134.3260 4.3177 -62.3441
v  128.7381 1.6564 -62.3441
v  123.5218 -1.8996 -62.3441
v  118.9214 -6.2708 -62.3441
v  106.0377 -56.2968 62.3441
v  198.1523 -52.2009 62.3441
v  106.0554 -56.2333 62.3441
v  106.0579 -55.9331 62.3441
v  106.0597 -55.2541 62.3441
v  106.0719 -54.3561 62.3441
v  106.1122 -53.2371 62.3441
v  106.2257 -50.9466 62.3441
v  106.4673 -46.6553 62.3441
v  198.0935 -46.3047 62.3441
v  106.9731 -40.4639 62.3441
v  198.0924 -46.1619 62.3441
v  197.6373 -37.1094 62.3441
v  107.0119 -40.0812 62.3441
v  107.6700 -34.6236 62.3441
v  109.1344 -27.4826 62.3441
v  196.7160 -30.6259 62.3441
v  111.6132 -19.5154 62.3441
v  195.1698 -23.8501 62.3441
v  192.9596 -17.9596 62.3441
v  190.0358 -12.8528 62.3441
v  189.6718 -12.3889 62.3441
v  186.3764 -8.1883 62.3441
v  182.0817 -3.9438 62.3441
v  177.2509 -0.2064 62.3441
v  171.8560 2.8169 62.3441
v  165.8738 4.9472 62.3441
v  159.4265 6.2359 62.3441
v  152.7211 6.7861 62.3441
v  146.1605 6.6783 62.3441
v  114.9494 -12.0296 62.3441
v  118.9214 -6.2708 62.3441
v  123.5218 -1.8996 62.3441
v  128.7381 1.6564 62.3441
v  140.0769 5.9282 62.3441
v  134.3260 4.3177 62.3441
v  198.1523 -52.2009 101.2800
v  198.0935 -46.3047 103.9678
v  198.0924 -46.1619 103.9968
v  197.6373 -37.1094 105.4728
v  196.7160 -30.6259 106.0098
v  195.1698 -23.8501 106.3647
v  192.9596 -17.9596 106.5617
v  190.0358 -12.8528 106.6502
v  189.6718 -12.3889 106.6533
v  186.3764 -8.1883 106.6810
v  182.0817 -3.9438 106.6854
v  177.2509 -0.2064 106.6920
v  171.8560 2.8169 106.7378
v  165.8738 4.9472 106.8535
v  159.4265 6.2359 107.0354
v  152.7211 6.7861 107.2625
v  146.1605 6.6783 107.4801
v  140.0769 5.9282 107.6377
v  134.3260 4.3177 107.7340
v  128.7381 1.6564 107.7874
v  123.5218 -1.8996 107.8451
v  118.9214 -6.2708 107.9239
v  114.9494 -12.0296 107.8914
v  111.6132 -19.5154 107.5950
v  109.1344 -27.4826 106.9493
v  107.6700 -34.6236 105.8806
v  107.0119 -40.0812 104.5148
v  106.9731 -40.4639 104.4000
v  106.4673 -46.6553 102.2287
v  106.2257 -50.9466 100.3035
v  106.1122 -53.2371 99.0412
v  106.0719 -54.3560 98.0249
v  106.0597 -55.2541 96.8056
v  106.0579 -55.9331 95.7477
v  106.0554 -56.2333 95.2661
v  106.0377 -56.2968 95.1637
v  198.0935 -46.3047 -103.9678
v  198.1523 -52.2009 -101.2800
v  198.0924 -46.1619 -103.9967
v  197.6373 -37.1094 -105.4728
v  196.7160 -30.6259 -106.0098
v  195.1698 -23.8501 -106.3647
v  192.9596 -17.9596 -106.5617
v  190.0358 -12.8528 -106.6502
v  189.6718 -12.3889 -106.6533
v  186.3764 -8.1883 -106.6810
v  182.0817 -3.9438 -106.6854
v  177.2509 -0.2064 -106.6920
v  171.8560 2.8169 -106.7378
v  165.8738 4.9472 -106.8535
v  159.4265 6.2359 -107.0354
v  152.7211 6.7861 -107.2625
v  146.1605 6.6783 -107.4801
v  140.0769 5.9282 -107.6377
v  134.3260 4.3177 -107.7340
v  128.7381 1.6564 -107.7874
v  123.5218 -1.8996 -107.8451
v  118.9214 -6.2708 -107.9239
v  114.9494 -12.0296 -107.8914
v  111.6132 -19.5154 -107.5950
v  109.1344 -27.4826 -106.9493
v  107.6700 -34.6236 -105.8806
v  107.0119 -40.0812 -104.5147
v  106.9731 -40.4639 -104.4000
v  106.4673 -46.6553 -102.2287
v  106.2257 -50.9466 -100.3035
v  106.1122 -53.2371 -99.0412
v  106.0719 -54.3561 -98.0249
v  106.0597 -55.2541 -96.8056
v  106.0579 -55.9331 -95.7477
v  106.0554 -56.2333 -95.2661
v  106.0377 -56.2968 -95.1637
v  -126.1207 -57.0966 62.3441
v  -126.1465 -57.0372 62.3441
v  -217.9852 -52.3752 62.3441
v  -126.1501 -56.7377 62.3441
v  -126.1519 -56.0587 62.3441
v  -126.1642 -55.1606 62.3441
v  -126.1758 -54.0249 62.3441
v  -217.8729 -50.8224 62.3441
v  -217.4353 -43.5344 62.3441
v  -126.0889 -51.6171 62.3441
v  -125.8815 -46.9877 62.3441
v  -126.0595 -39.2006 62.3441
v  -217.1044 -39.5289 62.3441
v  -216.6770 -35.2019 62.3441
v  -126.0763 -38.9147 62.3441
v  -126.6277 -33.0515 62.3441
v  -215.9377 -30.8076 62.3441
v  -128.1937 -25.3814 62.3441
v  -130.7135 -18.2831 62.3441
v  -215.0722 -26.6454 62.3441
v  -134.0680 -11.9422 62.3441
v  -138.1687 -6.3906 62.3441
v  -143.2618 -1.6124 62.3441
v  -149.5568 2.3708 62.3441
v  -156.7821 5.3408 62.3441
v  -164.5114 7.0852 62.3441
v  -172.1802 7.6131 62.3441
v  -179.0651 7.1282 62.3441
v  -186.2220 5.5994 62.3441
v  -192.0081 2.9388 62.3441
v  -197.0468 -0.1988 62.3441
v  -200.3138 -2.8687 62.3441
v  -200.6752 -3.1641 62.3441
v  -201.7485 -4.0412 62.3441
v  -205.8221 -8.2945 62.3441
v  -209.2473 -12.7267 62.3441
v  -213.8055 -22.0253 62.3441
v  -211.9270 -17.3117 62.3441
v  -126.1465 -57.0372 96.1456
v  -126.1207 -57.0966 96.0432
v  -126.1501 -56.7377 96.6272
v  -126.1519 -56.0587 97.6851
v  -126.1642 -55.1606 98.9043
v  -126.1758 -54.0249 99.9103
v  -126.0889 -51.6171 101.1002
v  -125.8815 -46.9877 102.8553
v  -126.0595 -39.2006 104.9664
v  -126.0763 -38.9147 105.0323
v  -126.6277 -33.0515 106.1507
v  -128.1937 -25.3814 107.0483
v  -130.7135 -18.2831 107.4709
v  -134.0680 -11.9422 107.6182
v  -138.1687 -6.3906 107.6872
v  -143.2618 -1.6124 107.7196
v  -149.5568 2.3708 107.7057
v  -156.7821 5.3408 107.5854
v  -164.5114 7.0852 107.3134
v  -172.1802 7.6131 107.3440
v  -179.0651 7.1282 107.1220
v  -186.2220 5.5994 106.8537
v  -192.0081 2.9388 106.7192
v  -197.0468 -0.1988 106.5021
v  -200.3138 -2.8687 106.2482
v  -200.6752 -3.1641 106.2201
v  -201.7485 -4.0412 106.1367
v  -205.8221 -8.2945 105.7380
v  -209.2473 -12.7267 105.4090
v  -211.9270 -17.3117 105.0628
v  -213.8055 -22.0253 104.5917
v  -215.0722 -26.6454 103.9936
v  -215.9377 -30.8076 103.3283
v  -216.6770 -35.2019 102.5199
v  -217.1044 -39.5289 101.3843
v  -217.4353 -43.5344 100.1557
v  -217.8729 -50.8224 97.4013
v  -217.9852 -52.3752 96.7701
v  -126.1207 -57.0966 -62.3441
v  -217.9852 -52.3752 -62.3441
v  -126.1465 -57.0372 -62.3441
v  -126.1501 -56.7377 -62.3441
v  -126.1519 -56.0587 -62.3441
v  -217.8729 -50.8224 -62.3441
v  -126.1642 -55.1606 -62.3441
v  -126.1758 -54.0249 -62.3441
v  -217.4353 -43.5344 -62.3441
v  -126.0889 -51.6171 -62.3441
v  -125.8815 -46.9877 -62.3441
v  -217.1044 -39.5289 -62.3441
v  -126.0595 -39.2006 -62.3441
v  -216.6770 -35.2019 -62.3441
v  -215.9377 -30.8076 -62.3441
v  -126.0763 -38.9147 -62.3441
v  -126.6277 -33.0515 -62.3441
v  -128.1937 -25.3814 -62.3441
v  -215.0722 -26.6454 -62.3441
v  -130.7135 -18.2831 -62.3441
v  -134.0680 -11.9422 -62.3441
v  -138.1687 -6.3906 -62.3441
v  -213.8055 -22.0253 -62.3441
v  -143.2618 -1.6124 -62.3441
v  -149.5568 2.3708 -62.3441
v  -156.7821 5.3408 -62.3441
v  -164.5114 7.0852 -62.3441
v  -172.1802 7.6131 -62.3441
v  -179.0651 7.1282 -62.3441
v  -211.9270 -17.3117 -62.3441
v  -209.2473 -12.7267 -62.3441
v  -205.8221 -8.2945 -62.3441
v  -201.7485 -4.0412 -62.3441
v  -200.6752 -3.1641 -62.3441
v  -200.3138 -2.8687 -62.3441
v  -197.0468 -0.1988 -62.3441
v  -192.0081 2.9388 -62.3441
v  -186.2220 5.5994 -62.3441
v  -126.1207 -57.0966 -96.0431
v  -126.1465 -57.0372 -96.1456
v  -126.1501 -56.7377 -96.6272
v  -126.1519 -56.0587 -97.6851
v  -126.1642 -55.1606 -98.9043
v  -126.1758 -54.0249 -99.9103
v  -126.0889 -51.6171 -101.1002
v  -125.8815 -46.9877 -102.8553
v  -126.0595 -39.2006 -104.9664
v  -126.0763 -38.9147 -105.0323
v  -126.6277 -33.0515 -106.1507
v  -128.1937 -25.3814 -107.0483
v  -130.7135 -18.2831 -107.4709
v  -134.0680 -11.9422 -107.6182
v  -138.1687 -6.3906 -107.6872
v  -143.2618 -1.6124 -107.7196
v  -149.5568 2.3708 -107.7057
v  -156.7821 5.3408 -107.5854
v  -164.5114 7.0852 -107.3134
v  -172.1802 7.6131 -107.3440
v  -179.0651 7.1282 -107.1220
v  -186.2220 5.5994 -106.8537
v  -192.0081 2.9388 -106.7192
v  -197.0468 -0.1988 -106.5021
v  -200.3138 -2.8687 -106.2482
v  -200.6752 -3.1641 -106.2201
v  -201.7485 -4.0412 -106.1367
v  -205.8221 -8.2945 -105.7380
v  -209.2473 -12.7267 -105.4090
v  -211.9270 -17.3117 -105.0628
v  -213.8055 -22.0253 -104.5917
v  -215.0722 -26.6454 -103.9936
v  -215.9377 -30.8076 -103.3283
v  -216.6770 -35.2019 -102.5199
v  -217.1044 -39.5289 -101.3843
v  -217.4353 -43.5344 -100.1557
v  -217.8729 -50.8224 -97.4013
v  -217.9852 -52.3752 -96.7701
# 296 vertices

vn 0.0000 0.0000 -1.0000
vn -0.0000 0.0000 -1.0000
vn -0.0000 0.0000 1.0000
vn 0.0000 0.0000 1.0000
vn -0.9999 -0.0100 -0.0000
vn -1.0000 -0.0099 -0.0000
vn -0.9988 -0.0496 -0.0000
vn -0.9988 -0.0497 -0.0000
vn -0.9960 -0.0889 -0.0000
vn -0.9958 -0.0921 -0.0000
vn -0.9831 -0.1832 -0.0000
vn -0.9828 -0.1848 -0.0000
vn -0.9587 -0.2846 -0.0000
vn -0.9582 -0.2862 -0.0000
vn -0.9061 -0.4232 -0.0000
vn -0.9056 -0.4242 -0.0000
vn -0.8612 -0.5083 -0.0000
vn -0.8611 -0.5084 -0.0000
vn -0.7868 -0.6172 -0.0000
vn -0.7437 -0.6685 -0.0000
vn -0.6583 -0.7527 -0.0000
vn -0.6584 -0.7527 -0.0000
vn -0.5513 -0.8343 -0.0000
vn -0.5515 -0.8342 -0.0000
vn -0.4126 -0.9109 -0.0000
vn -0.4119 -0.9112 -0.0000
vn -0.2651 -0.9642 -0.0000
vn -0.2641 -0.9645 -0.0000
vn -0.1384 -0.9904 -0.0000
vn -0.1372 -0.9905 -0.0000
vn -0.0332 -0.9994 -0.0000
vn -0.0322 -0.9995 -0.0000
vn 0.0678 -0.9977 -0.0000
vn 0.0688 -0.9976 -0.0000
vn 0.1957 -0.9807 -0.0000
vn 0.1967 -0.9805 -0.0000
vn 0.3526 -0.9358 -0.0000
vn 0.3532 -0.9355 -0.0000
vn 0.4988 -0.8667 -0.0000
vn 0.4992 -0.8665 -0.0000
vn 0.6283 -0.7780 -0.0000
vn 0.6287 -0.7776 -0.0000
vn 0.7634 -0.6459 -0.0000
vn 0.7635 -0.6458 -0.0000
vn 0.8750 -0.4842 -0.0000
vn 0.8754 -0.4834 -0.0000
vn 0.9351 -0.3544 -0.0000
vn 0.9358 -0.3525 -0.0000
vn 0.9666 -0.2563 -0.0000
vn 0.9675 -0.2531 -0.0000
vn 0.9852 -0.1715 -0.0000
vn 0.9860 -0.1667 -0.0000
vn 0.9929 -0.1189 -0.0000
vn 0.9930 -0.1185 -0.0000
vn 0.9965 -0.0831 -0.0000
vn 0.9966 -0.0826 -0.0000
vn 0.9972 -0.0743 -0.0000
vn 0.9974 -0.0714 -0.0000
vn 0.9985 -0.0548 -0.0000
vn 0.9985 -0.0539 -0.0000
vn 0.9989 -0.0473 -0.0000
vn 0.9990 -0.0451 -0.0000
vn 0.9995 -0.0320 -0.0000
vn 0.9997 -0.0262 -0.0000
vn 0.9999 -0.0121 -0.0000
vn 1.0000 -0.0090 -0.0000
vn 1.0000 -0.0031 -0.0000
vn 1.0000 -0.0043 -0.0000
vn 0.9998 -0.0202 -0.0000
vn 0.9985 -0.0552 -0.0000
vn 0.9635 -0.2679 -0.0000
vn 0.9635 -0.2678 -0.0000
vn -1.0000 -0.0100 -0.0000
vn 0.9995 -0.0321 -0.0000
vn 0.0000 -0.0000 1.0000
vn -0.9996 -0.0295 -0.0000
vn -0.9967 -0.0815 -0.0000
vn -0.9175 -0.3978 -0.0000
vn -0.9175 -0.3979 -0.0000
vn -1.0000 -0.0034 -0.0000
vn -1.0000 -0.0055 -0.0000
vn -0.9999 -0.0121 -0.0000
vn -1.0000 -0.0090 -0.0000
vn -0.9999 -0.0108 -0.0000
vn -0.9999 -0.0118 -0.0000
vn -0.9996 0.0287 -0.0000
vn -0.9998 0.0215 -0.0000
vn -0.9991 0.0428 -0.0000
vn -0.9991 0.0418 -0.0000
vn -1.0000 -0.0044 -0.0000
vn -1.0000 0.0017 -0.0000
vn -0.9997 -0.0246 -0.0000
vn -0.9997 -0.0242 -0.0000
vn -0.9957 -0.0924 -0.0000
vn -0.9958 -0.0920 -0.0000
vn -0.9871 -0.1601 -0.0000
vn -0.9879 -0.1552 -0.0000
vn -0.9627 -0.2707 -0.0000
vn -0.9636 -0.2673 -0.0000
vn -0.9155 -0.4023 -0.0000
vn -0.9162 -0.4008 -0.0000
vn -0.8469 -0.5318 -0.0000
vn -0.8472 -0.5312 -0.0000
vn -0.7467 -0.6652 -0.0000
vn -0.7469 -0.6649 -0.0000
vn -0.6097 -0.7926 -0.0000
vn -0.6098 -0.7926 -0.0000
vn -0.4578 -0.8891 -0.0000
vn -0.4574 -0.8892 -0.0000
vn -0.3020 -0.9533 -0.0000
vn -0.3009 -0.9537 -0.0000
vn -0.1469 -0.9892 -0.0000
vn -0.1460 -0.9893 -0.0000
vn -0.0036 -1.0000 -0.0000
vn -0.0031 -1.0000 -0.0000
vn 0.1403 -0.9901 -0.0000
vn 0.1418 -0.9899 -0.0000
vn 0.3058 -0.9521 -0.0000
vn 0.3078 -0.9514 -0.0000
vn 0.4711 -0.8821 -0.0000
vn 0.4720 -0.8816 -0.0000
vn 0.5713 -0.8207 -0.0000
vn 0.5729 -0.8196 -0.0000
vn 0.6328 -0.7743 -0.0000
vn 0.7048 -0.7094 -0.0000
vn 0.7059 -0.7083 -0.0000
vn 0.7554 -0.6553 -0.0000
vn 0.7568 -0.6536 -0.0000
vn 0.8265 -0.5629 -0.0000
vn 0.8279 -0.5608 -0.0000
vn 0.8961 -0.4438 -0.0000
vn 0.8977 -0.4405 -0.0000
vn 0.9463 -0.3233 -0.0000
vn 0.9475 -0.3197 -0.0000
vn 0.9711 -0.2388 -0.0000
vn 0.9717 -0.2361 -0.0000
vn 0.9825 -0.1865 -0.0000
vn 0.9828 -0.1845 -0.0000
vn 0.9905 -0.1377 -0.0000
vn 0.9911 -0.1331 -0.0000
vn 0.9957 -0.0921 -0.0000
vn 0.9959 -0.0908 -0.0000
vn 0.9975 -0.0704 -0.0000
vn 0.9977 -0.0682 -0.0000
vn 0.9981 -0.0613 -0.0000
vn 0.9981 -0.0621 -0.0000
vn 0.9974 -0.0721 -0.0000
vn 0.9974 -0.0722 -0.0000
# 148 vertex normals

g F183_WLCH_C_N_F183_WLCH_C
usemtl diffuse_black_plasticSG
s 1
f 1//1 2//1 3//1 
f 2//1 4//1 3//1 
f 4//1 5//1 3//1 
f 5//1 6//1 3//1 
f 6//1 7//1 3//1 
f 7//1 8//1 3//1 
f 8//1 9//1 3//1 
f 3//1 9//1 10//1 
f 9//1 11//1 10//1 
f 10//1 11//1 12//1 
f 12//1 11//1 13//1 
f 11//1 14//1 13//1 
f 14//1 15//1 13//1 
f 13//1 15//1 16//1 
f 15//1 17//1 16//1 
f 16//1 17//1 18//1 
f 17//1 19//1 18//1 
f 18//1 19//1 20//1 
f 20//1 19//1 21//1 
f 21//1 19//1 22//1 
f 22//1 19//1 23//1 
f 23//1 19//1 24//1 
f 24//1 19//1 25//1 
f 25//1 19//1 26//1 
f 26//1 19//1 27//1 
f 27//1 19//1 28//1 
f 28//1 19//1 29//1 
f 29//1 19//1 30//1 
f 19//1 31//1 30//1 
f 30//1 31//1 32//1 
f 32//1 31//1 33//1 
f 33//1 31//1 34//2 
f 34//2 31//1 35//2 
f 35//2 31//1 36//1 
s 2
f 37//3 38//4 39//3 
f 39//3 38//4 40//4 
f 40//4 38//4 41//4 
f 41//4 38//4 42//4 
f 42//4 38//4 43//4 
f 43//4 38//4 44//4 
f 44//4 38//4 45//4 
f 38//4 46//4 45//4 
f 45//4 46//4 47//4 
f 46//4 48//4 47//4 
f 48//4 49//4 47//4 
f 47//4 49//4 50//4 
f 50//4 49//4 51//4 
f 51//4 49//4 52//4 
f 49//4 53//4 52//4 
f 52//4 53//4 54//4 
f 53//4 55//4 54//4 
f 55//4 56//4 54//4 
f 56//4 57//4 54//4 
f 57//4 58//4 54//4 
f 58//4 59//4 54//4 
f 59//4 60//4 54//4 
f 60//4 61//3 54//4 
f 61//3 62//4 54//4 
f 62//4 63//3 54//4 
f 63//3 64//4 54//4 
f 64//4 65//3 54//4 
f 65//3 66//4 54//4 
f 54//4 66//4 67//4 
f 67//4 66//4 68//3 
f 68//3 66//4 69//4 
f 69//4 66//4 70//4 
f 66//4 71//3 70//4 
f 70//4 71//3 72//4 
s 3
f 38//5 73//5 46//6 
f 73//5 74//6 46//6 
f 46//6 74//6 48//7 
f 74//6 75//8 48//7 
f 48//7 75//8 49//9 
f 75//8 76//10 49//9 
f 49//9 76//10 53//11 
f 76//10 77//12 53//11 
f 53//11 77//12 55//13 
f 77//12 78//14 55//13 
f 55//13 78//14 56//15 
f 78//14 79//16 56//15 
f 56//15 79//16 57//17 
f 79//16 80//18 57//17 
f 80//18 81//19 57//17 
f 81//19 58//19 57//17 
f 58//19 81//19 59//20 
f 81//19 82//20 59//20 
f 82//20 83//21 59//20 
f 83//21 60//22 59//20 
f 83//21 84//23 60//22 
f 84//23 61//24 60//22 
f 61//24 84//23 62//25 
f 84//23 85//26 62//25 
f 62//25 85//26 63//27 
f 85//26 86//28 63//27 
f 63//27 86//28 64//29 
f 86//28 87//30 64//29 
f 64//29 87//30 65//31 
f 87//30 88//32 65//31 
f 65//31 88//32 66//33 
f 88//32 89//34 66//33 
f 66//33 89//34 71//35 
f 89//34 90//36 71//35 
f 71//35 90//36 72//37 
f 90//36 91//38 72//37 
f 72//37 91//38 70//39 
f 91//38 92//40 70//39 
f 70//39 92//40 69//41 
f 92//40 93//42 69//41 
f 69//41 93//42 68//43 
f 93//42 94//44 68//43 
f 94//44 95//45 68//43 
f 95//45 67//46 68//43 
f 95//45 96//47 67//46 
f 96//47 54//48 67//46 
f 96//47 97//49 54//48 
f 97//49 52//50 54//48 
f 97//49 98//51 52//50 
f 98//51 51//52 52//50 
f 98//51 99//53 51//52 
f 99//53 50//54 51//52 
f 99//53 100//55 50//54 
f 100//55 47//56 50//54 
f 100//55 101//57 47//56 
f 101//57 45//58 47//56 
f 101//57 102//59 45//58 
f 102//59 44//60 45//58 
f 102//59 103//61 44//60 
f 103//61 43//62 44//60 
f 103//61 104//63 43//62 
f 104//63 42//64 43//62 
f 104//63 105//65 42//64 
f 105//65 41//66 42//64 
f 105//65 106//67 41//66 
f 106//67 40//68 41//66 
f 106//67 107//69 40//68 
f 107//69 39//70 40//68 
f 107//69 108//71 39//70 
f 108//71 37//72 39//70 
s 4
f 109//6 110//73 10//6 
f 110//73 3//5 10//6 
f 111//8 109//6 12//7 
f 109//6 10//6 12//7 
f 112//10 111//8 13//9 
f 111//8 12//7 13//9 
f 113//12 112//10 16//11 
f 112//10 13//9 16//11 
f 114//14 113//12 18//13 
f 113//12 16//11 18//13 
f 115//16 114//14 20//15 
f 114//14 18//13 20//15 
f 116//18 115//16 21//17 
f 115//16 20//15 21//17 
f 116//18 21//17 117//19 
f 21//17 22//19 117//19 
f 118//20 117//19 23//20 
f 117//19 22//19 23//20 
f 118//20 23//20 119//21 
f 23//20 24//22 119//21 
f 119//21 24//22 120//23 
f 24//22 25//24 120//23 
f 121//26 120//23 26//25 
f 120//23 25//24 26//25 
f 122//28 121//26 27//27 
f 121//26 26//25 27//27 
f 123//30 122//28 28//29 
f 122//28 27//27 28//29 
f 124//32 123//30 29//31 
f 123//30 28//29 29//31 
f 125//34 124//32 30//33 
f 124//32 29//31 30//33 
f 126//36 125//34 32//35 
f 125//34 30//33 32//35 
f 127//38 126//36 33//37 
f 126//36 32//35 33//37 
f 128//40 127//38 34//39 
f 127//38 33//37 34//39 
f 129//42 128//40 35//41 
f 128//40 34//39 35//41 
f 130//44 129//42 36//43 
f 129//42 35//41 36//43 
f 130//44 36//43 131//45 
f 36//43 31//46 131//45 
f 131//45 31//46 132//47 
f 31//46 19//48 132//47 
f 132//47 19//48 133//49 
f 19//48 17//50 133//49 
f 133//49 17//50 134//51 
f 17//50 15//52 134//51 
f 134//51 15//52 135//53 
f 15//52 14//54 135//53 
f 135//53 14//54 136//55 
f 14//54 11//56 136//55 
f 136//55 11//56 137//57 
f 11//56 9//58 137//57 
f 137//57 9//58 138//59 
f 9//58 8//60 138//59 
f 138//59 8//60 139//61 
f 8//60 7//62 139//61 
f 139//61 7//62 140//74 
f 7//62 6//64 140//74 
f 140//74 6//64 141//65 
f 6//64 5//66 141//65 
f 141//65 5//66 142//67 
f 5//66 4//68 142//67 
f 142//67 4//68 143//69 
f 4//68 2//70 143//69 
f 143//69 2//70 144//72 
f 2//70 1//72 144//72 
s 5
f 145//4 146//75 147//4 
f 146//75 148//75 147//4 
f 148//75 149//4 147//4 
f 149//4 150//4 147//4 
f 150//4 151//4 147//4 
f 147//4 151//4 152//4 
f 152//4 151//4 153//4 
f 151//4 154//4 153//4 
f 154//4 155//4 153//4 
f 155//4 156//4 153//4 
f 153//4 156//4 157//4 
f 157//4 156//4 158//4 
f 156//4 159//4 158//4 
f 159//4 160//4 158//4 
f 158//4 160//4 161//4 
f 160//4 162//4 161//4 
f 162//4 163//4 161//4 
f 161//4 163//4 164//4 
f 163//4 165//4 164//4 
f 165//4 166//4 164//4 
f 166//4 167//4 164//4 
f 167//4 168//4 164//4 
f 168//4 169//4 164//4 
f 169//4 170//4 164//4 
f 170//4 171//4 164//4 
f 171//4 172//3 164//4 
f 172//3 173//4 164//4 
f 173//4 174//4 164//4 
f 174//4 175//3 164//4 
f 175//3 176//4 164//4 
f 176//4 177//4 164//4 
f 177//4 178//4 164//4 
f 178//4 179//4 164//4 
f 179//4 180//4 164//4 
f 164//4 180//4 181//4 
f 180//4 182//4 181//4 
s 6
f 183//76 146//77 184//78 
f 184//78 146//77 145//79 
f 185//80 148//81 183//76 
f 183//76 148//81 146//77 
f 186//82 149//83 185//80 
f 185//80 149//83 148//81 
f 187//84 150//85 186//82 
f 186//82 150//85 149//83 
f 188//86 151//87 187//84 
f 187//84 151//87 150//85 
f 189//88 154//89 188//86 
f 188//86 154//89 151//87 
f 190//90 155//91 189//88 
f 189//88 155//91 154//89 
f 191//92 156//93 190//90 
f 190//90 156//93 155//91 
f 192//94 159//95 191//92 
f 191//92 159//95 156//93 
f 193//96 160//97 192//94 
f 192//94 160//97 159//95 
f 194//98 162//99 193//96 
f 193//96 162//99 160//97 
f 195//100 163//101 194//98 
f 194//98 163//101 162//99 
f 196//102 165//103 195//100 
f 195//100 165//103 163//101 
f 197//104 166//105 196//102 
f 196//102 166//105 165//103 
f 198//106 167//107 197//104 
f 197//104 167//107 166//105 
f 198//106 199//108 167//107 
f 167//107 199//108 168//109 
f 199//108 200//110 168//109 
f 168//109 200//110 169//111 
f 200//110 201//112 169//111 
f 169//111 201//112 170//113 
f 202//114 171//115 201//112 
f 201//112 171//115 170//113 
f 202//114 203//116 171//115 
f 171//115 203//116 172//117 
f 203//116 204//118 172//117 
f 172//117 204//118 173//119 
f 204//118 205//120 173//119 
f 173//119 205//120 174//121 
f 205//120 206//122 174//121 
f 174//121 206//122 175//123 
f 206//122 207//124 175//123 
f 175//123 207//124 176//124 
f 207//124 208//124 176//124 
f 176//124 208//124 177//124 
f 208//124 209//125 177//124 
f 177//124 209//125 178//126 
f 209//125 210//127 178//126 
f 178//126 210//127 179//128 
f 210//127 211//129 179//128 
f 179//128 211//129 180//130 
f 211//129 212//131 180//130 
f 180//130 212//131 182//132 
f 212//131 213//133 182//132 
f 182//132 213//133 181//134 
f 213//133 214//135 181//134 
f 181//134 214//135 164//136 
f 214//135 215//137 164//136 
f 164//136 215//137 161//138 
f 215//137 216//139 161//138 
f 161//138 216//139 158//140 
f 216//139 217//141 158//140 
f 158//140 217//141 157//142 
f 217//141 218//143 157//142 
f 157//142 218//143 153//144 
f 218//143 219//145 153//144 
f 153//144 219//145 152//146 
f 219//145 220//147 152//146 
f 152//146 220//147 147//148 
s 22
f 221//2 222//1 223//2 
f 223//2 222//1 224//1 
f 224//1 222//1 225//1 
f 222//1 226//1 225//1 
f 225//1 226//1 227//1 
f 227//1 226//1 228//1 
f 226//1 229//1 228//1 
f 228//1 229//1 230//1 
f 230//1 229//1 231//1 
f 229//1 232//1 231//1 
f 231//1 232//1 233//1 
f 232//1 234//1 233//1 
f 234//1 235//1 233//1 
f 233//1 235//1 236//1 
f 236//1 235//1 237//1 
f 237//1 235//1 238//1 
f 235//1 239//1 238//1 
f 238//1 239//1 240//1 
f 240//1 239//1 241//1 
f 241//1 239//1 242//1 
f 239//1 243//1 242//1 
f 242//1 243//1 244//1 
f 244//1 243//1 245//1 
f 245//1 243//1 246//1 
f 246//1 243//1 247//1 
f 247//1 243//1 248//1 
f 248//1 243//1 249//2 
f 243//1 250//2 249//2 
f 250//2 251//1 249//2 
f 251//1 252//1 249//2 
f 252//1 253//1 249//2 
f 253//1 254//1 249//2 
f 254//1 255//1 249//2 
f 255//1 256//1 249//2 
f 256//1 257//1 249//2 
f 257//1 258//1 249//2 
s 23
f 221//78 223//77 259//78 
f 259//78 223//77 260//76 
f 223//77 224//81 260//76 
f 260//76 224//81 261//80 
f 224//81 225//83 261//80 
f 261//80 225//83 262//82 
f 225//83 227//85 262//82 
f 262//82 227//85 263//84 
f 227//85 228//87 263//84 
f 263//84 228//87 264//86 
f 228//87 230//89 264//86 
f 264//86 230//89 265//88 
f 230//89 231//91 265//88 
f 265//88 231//91 266//90 
f 231//91 233//93 266//90 
f 266//90 233//93 267//92 
f 233//93 236//95 267//92 
f 267//92 236//95 268//94 
f 236//95 237//97 268//94 
f 268//94 237//97 269//96 
f 237//97 238//99 269//96 
f 269//96 238//99 270//98 
f 238//99 240//101 270//98 
f 270//98 240//101 271//100 
f 240//101 241//103 271//100 
f 271//100 241//103 272//102 
f 241//103 242//105 272//102 
f 272//102 242//105 273//104 
f 242//105 244//107 273//104 
f 273//104 244//107 274//106 
f 274//106 244//107 275//108 
f 275//108 244//107 245//109 
f 275//108 245//109 276//110 
f 276//110 245//109 246//111 
f 276//110 246//111 277//112 
f 277//112 246//111 247//113 
f 247//113 248//115 277//112 
f 277//112 248//115 278//114 
f 278//114 248//115 279//116 
f 279//116 248//115 249//117 
f 279//116 249//117 280//118 
f 280//118 249//117 258//119 
f 280//118 258//119 281//120 
f 281//120 258//119 257//121 
f 281//120 257//121 282//122 
f 282//122 257//121 256//123 
f 282//122 256//123 283//124 
f 283//124 256//123 255//124 
f 283//124 255//124 284//124 
f 284//124 255//124 254//124 
f 284//124 254//124 285//125 
f 285//125 254//124 253//126 
f 285//125 253//126 286//127 
f 286//127 253//126 252//128 
f 286//127 252//128 287//129 
f 287//129 252//128 251//130 
f 287//129 251//130 288//131 
f 288//131 251//130 250//132 
f 288//131 250//132 289//133 
f 289//133 250//132 243//134 
f 289//133 243//134 290//135 
f 290//135 243//134 239//136 
f 290//135 239//136 291//137 
f 291//137 239//136 235//138 
f 291//137 235//138 292//139 
f 292//139 235//138 234//140 
f 292//139 234//140 293//141 
f 293//141 234//140 232//142 
f 293//141 232//142 294//143 
f 294//143 232//142 229//144 
f 294//143 229//144 295//145 
f 295//145 229//144 226//146 
f 295//145 226//146 296//147 
f 296//147 226//146 222//148 
# 428 faces

