# 3ds Max Wavefront OBJ Exporter v0.97b - (c)2007 guruware
# File Created: 13.11.2015 16:34:53

mtllib F183_285B_R.mtl

#
# object F183_285B_R_DTaSI_F183_285B_R
#

v  -8.3690 55.1035 88.1541
v  -22.6846 51.7178 88.9371
v  -8.1200 53.0439 88.6618
v  -7.9665 50.9677 89.1711
v  6.4445 54.3700 88.3865
v  43.2412 52.5628 88.8835
v  33.7064 48.8107 89.7920
v  43.8556 50.4321 89.4100
v  44.9565 48.2458 89.9696
v  54.0049 52.0534 89.0280
v  -15.5807 90.1157 77.9414
v  -25.8232 91.7038 77.3235
v  -20.2347 87.9245 78.8216
v  -26.1495 88.6830 78.5247
v  -9.4758 66.3855 85.3367
v  -23.8157 61.0512 86.6160
v  -9.1017 63.3294 86.1203
v  -8.8769 60.3025 86.8667
v  5.6122 65.6075 85.6246
v  -10.1090 72.6584 83.6844
v  4.6490 77.5946 82.3882
v  -10.3492 75.5314 82.8728
v  -10.7229 78.4701 82.0297
v  -25.3473 73.4683 83.3575
v  -22.3265 48.7487 89.6643
v  -7.7875 49.4831 89.5347
v  -7.6743 47.9551 89.9104
v  6.7515 50.2175 89.4051
v  -12.0352 87.1283 79.1466
v  3.9055 85.1891 79.8254
v  -5.9683 87.9879 78.7653
v  -21.9729 45.9209 90.4372
v  -7.4975 46.5413 90.2969
v  -7.3788 45.0848 90.6964
v  6.9779 47.1616 90.1565
v  46.3364 44.7995 90.8059
v  35.5103 42.5761 91.3933
v  46.7664 43.3200 91.2051
v  47.4933 41.8742 91.5627
v  58.0226 44.0640 91.0170
v  29.3638 63.8813 86.0982
v  31.0183 58.1361 87.4975
v  48.1474 63.6927 86.0839
v  41.2319 57.6360 87.6112
v  32.4776 53.0721 88.7391
v  41.9615 55.1041 88.2320
v  51.4455 57.1360 87.7250
v  34.6503 45.5350 90.5948
v  45.4285 46.6079 90.3710
v  56.2067 47.6808 90.1472
v  -26.6988 83.9590 80.2378
v  -11.2278 82.9890 80.6190
v  4.2432 82.0191 81.0003
v  -24.5639 67.1634 85.0487
v  -9.7173 69.5059 84.5300
v  5.1293 71.8485 84.0113
v  -23.1824 55.8370 87.9216
v  -8.5603 57.6954 87.5195
v  6.0618 59.5538 87.1174
v  -32.8947 52.2314 88.7159
v  -32.1399 49.2557 89.4503
v  -31.4216 46.4240 90.2361
v  80.6281 40.1108 91.9335
v  80.3374 40.4625 91.8599
v  79.7701 40.0846 91.9565
v  79.1819 41.4858 91.6638
v  71.7989 40.4597 91.8927
v  27.5812 70.0501 84.5364
v  36.6273 70.3026 84.4479
v  25.7212 76.4167 82.7234
v  -37.6180 92.7975 76.8807
v  -32.1374 88.9034 78.4205
v  66.7368 51.6243 89.1383
v  68.7300 47.2392 90.3067
v  70.3138 43.7452 91.1616
v  59.4763 41.1723 91.7320
v  72.6879 47.0996 90.3571
v  76.7414 43.6939 91.1896
v  12.6782 82.0644 80.9187
v  15.1851 77.0056 82.5558
v  15.4253 74.1326 83.3673
v  16.3553 70.9493 84.2738
v  16.5967 67.8288 85.0805
v  17.4880 64.7444 85.8614
v  17.7128 61.7176 86.6078
v  18.5401 58.8450 87.3074
v  19.4610 53.7211 88.5628
v  19.6145 51.6448 89.0721
v  20.2289 49.5141 89.5986
v  20.3421 47.9862 89.9743
v  20.8141 46.3483 90.3757
v  7.2152 44.2488 90.9556
v  20.9327 44.8919 90.7752
v  21.3627 43.4124 91.1744
v  -10.9258 80.6824 81.3358
v  -26.0948 79.3456 81.6713
v  -33.9428 56.3635 87.6969
v  -35.2681 61.5882 86.3793
v  -36.8178 67.6976 84.7766
v  -38.4119 73.9815 83.0404
v  -39.8849 79.7874 81.3270
v  -41.1637 84.8278 79.7234
v  -42.2896 89.2646 78.1699
v  58.1722 57.1868 87.6768
v  -43.1240 93.0446 76.7382
v  -43.2211 92.9352 76.7785
# 106 vertices

vn -0.0034 0.2382 0.9712
vn -0.0057 0.2381 0.9712
vn -0.0034 0.2385 0.9711
vn -0.0033 0.2378 0.9713
vn -0.0024 0.2378 0.9713
vn -0.0015 0.2440 0.9698
vn -0.0019 0.2387 0.9711
vn -0.0023 0.2431 0.9700
vn -0.0031 0.2426 0.9701
vn -0.0004 0.2491 0.9685
vn 0.0008 0.3735 0.9276
vn -0.0005 0.3688 0.9295
vn -0.0018 0.3542 0.9352
vn -0.0025 0.3529 0.9357
vn -0.0057 0.2488 0.9685
vn -0.0065 0.2449 0.9695
vn -0.0050 0.2435 0.9699
vn -0.0042 0.2406 0.9706
vn -0.0038 0.2447 0.9696
vn -0.0066 0.2645 0.9644
vn -0.0025 0.2848 0.9586
vn -0.0065 0.2732 0.9619
vn -0.0061 0.2851 0.9585
vn -0.0092 0.2664 0.9638
vn -0.0047 0.2500 0.9682
vn -0.0034 0.2380 0.9713
vn -0.0027 0.2505 0.9681
vn -0.0024 0.2383 0.9712
vn -0.0005 0.3472 0.9378
vn 0.0037 0.3487 0.9372
vn 0.0056 0.3725 0.9280
vn -0.0036 0.2633 0.9647
vn -0.0020 0.2639 0.9645
vn -0.0020 0.2644 0.9644
vn -0.0017 0.2514 0.9679
vn -0.0021 0.2449 0.9695
vn -0.0003 0.2601 0.9656
vn -0.0004 0.2503 0.9682
vn 0.0003 0.2402 0.9707
vn -0.0030 0.2356 0.9719
vn 0.0012 0.2412 0.9705
vn 0.0007 0.2378 0.9713
vn 0.0024 0.2432 0.9700
vn 0.0010 0.2418 0.9703
vn -0.0009 0.2389 0.9710
vn -0.0002 0.2432 0.9700
vn 0.0021 0.2461 0.9692
vn -0.0013 0.2488 0.9686
vn -0.0032 0.2346 0.9721
vn -0.0023 0.2416 0.9704
vn -0.0091 0.3118 0.9501
vn -0.0033 0.3202 0.9473
vn 0.0011 0.3192 0.9477
vn -0.0078 0.2530 0.9674
vn -0.0063 0.2541 0.9672
vn -0.0040 0.2607 0.9654
vn -0.0059 0.2405 0.9706
vn -0.0038 0.2400 0.9708
vn -0.0029 0.2385 0.9711
vn -0.0089 0.2375 0.9713
vn -0.0084 0.2483 0.9686
vn -0.0072 0.2652 0.9642
vn 0.0195 0.2202 0.9753
vn 0.0226 0.2157 0.9762
vn 0.0042 0.2063 0.9785
vn 0.0017 0.2079 0.9781
vn -0.0008 0.2158 0.9764
vn 0.0004 0.2599 0.9656
vn 0.0030 0.2487 0.9686
vn 0.0003 0.2777 0.9607
vn -0.0082 0.3571 0.9340
vn -0.0085 0.3453 0.9384
vn -0.0020 0.2545 0.9671
vn -0.0042 0.2452 0.9695
vn -0.0026 0.2262 0.9741
vn -0.0029 0.2363 0.9717
vn -0.0029 0.2392 0.9710
vn -0.0006 0.2180 0.9760
vn 0.0032 0.3104 0.9506
vn 0.0013 0.2954 0.9554
vn -0.0003 0.2728 0.9621
vn -0.0016 0.2621 0.9650
vn -0.0021 0.2475 0.9689
vn -0.0017 0.2422 0.9702
vn -0.0017 0.2378 0.9713
vn -0.0013 0.2372 0.9715
vn -0.0013 0.2379 0.9713
vn -0.0014 0.2388 0.9711
vn -0.0015 0.2391 0.9710
vn -0.0014 0.2381 0.9712
vn -0.0006 0.2504 0.9681
vn -0.0008 0.2644 0.9644
vn 0.0004 0.2626 0.9649
vn 0.0005 0.2607 0.9654
vn -0.0051 0.2975 0.9547
vn -0.0097 0.2843 0.9587
vn -0.0086 0.2406 0.9706
vn -0.0095 0.2474 0.9689
vn -0.0116 0.2577 0.9662
vn -0.0139 0.2720 0.9622
vn -0.0154 0.2902 0.9568
vn -0.0141 0.3148 0.9491
vn -0.0107 0.3399 0.9404
vn 0.0019 0.2523 0.9677
vn -0.0084 0.3526 0.9357
vn -0.0083 0.3526 0.9357
# 106 vertex normals

vt 0.6874 0.9457 0.0000
vt 0.6401 0.9590 0.0000
vt 0.6886 0.9525 0.0000
vt 0.6894 0.9595 0.0000
vt 0.7370 0.9460 0.0000
vt 0.8603 0.9469 0.0000
vt 0.8290 0.9608 0.0000
vt 0.8627 0.9539 0.0000
vt 0.8666 0.9610 0.0000
vt 0.8963 0.9470 0.0000
vt 0.6584 0.8297 0.0000
vt 0.6239 0.8258 0.0000
vt 0.6431 0.8377 0.0000
vt 0.6232 0.8360 0.0000
vt 0.6821 0.9081 0.0000
vt 0.6350 0.9280 0.0000
vt 0.6838 0.9183 0.0000
vt 0.6850 0.9284 0.0000
vt 0.7327 0.9086 0.0000
vt 0.6791 0.8873 0.0000
vt 0.7278 0.8687 0.0000
vt 0.6779 0.8777 0.0000
vt 0.6762 0.8679 0.0000
vt 0.6281 0.8867 0.0000
vt 0.6417 0.9689 0.0000
vt 0.6902 0.9644 0.0000
vt 0.6908 0.9695 0.0000
vt 0.7387 0.9599 0.0000
vt 0.6706 0.8392 0.0000
vt 0.7242 0.8434 0.0000
vt 0.6908 0.8354 0.0000
vt 0.6433 0.9783 0.0000
vt 0.6916 0.9742 0.0000
vt 0.6922 0.9790 0.0000
vt 0.7399 0.9701 0.0000
vt 0.8717 0.9724 0.0000
vt 0.8359 0.9813 0.0000
vt 0.8734 0.9773 0.0000
vt 0.8760 0.9820 0.0000
vt 0.9109 0.9732 0.0000
vt 0.8123 0.9110 0.0000
vt 0.8187 0.9300 0.0000
vt 0.8751 0.9090 0.0000
vt 0.8529 0.9302 0.0000
vt 0.8242 0.9467 0.0000
vt 0.8557 0.9385 0.0000
vt 0.8871 0.9304 0.0000
vt 0.8326 0.9716 0.0000
vt 0.8685 0.9665 0.0000
vt 0.9043 0.9613 0.0000
vt 0.6221 0.8519 0.0000
vt 0.6739 0.8529 0.0000
vt 0.7258 0.8539 0.0000
vt 0.6316 0.9077 0.0000
vt 0.6809 0.8978 0.0000
vt 0.7302 0.8878 0.0000
vt 0.6378 0.9454 0.0000
vt 0.6864 0.9371 0.0000
vt 0.7350 0.9288 0.0000
vt 0.6059 0.9588 0.0000
vt 0.6088 0.9686 0.0000
vt 0.6116 0.9780 0.0000
vt 0.9870 0.9832 0.0000
vt 0.9860 0.9820 0.0000
vt 0.9842 0.9834 0.0000
vt 0.9820 0.9788 0.0000
vt 0.9575 0.9833 0.0000
vt 0.8055 0.8906 0.0000
vt 0.8357 0.8885 0.0000
vt 0.7983 0.8696 0.0000
vt 0.5843 0.8239 0.0000
vt 0.6032 0.8361 0.0000
vt 0.9390 0.9467 0.0000
vt 0.9462 0.9610 0.0000
vt 0.9520 0.9725 0.0000
vt 0.9162 0.9826 0.0000
vt 0.9595 0.9609 0.0000
vt 0.9735 0.9717 0.0000
vt 0.7540 0.8526 0.0000
vt 0.7631 0.8691 0.0000
vt 0.7643 0.8787 0.0000
vt 0.7678 0.8892 0.0000
vt 0.7691 0.8996 0.0000
vt 0.7725 0.9098 0.0000
vt 0.7737 0.9199 0.0000
vt 0.7768 0.9294 0.0000
vt 0.7806 0.9464 0.0000
vt 0.7815 0.9533 0.0000
vt 0.7838 0.9603 0.0000
vt 0.7844 0.9654 0.0000
vt 0.7862 0.9708 0.0000
vt 0.7411 0.9798 0.0000
vt 0.7868 0.9757 0.0000
vt 0.7885 0.9806 0.0000
vt 0.6753 0.8606 0.0000
vt 0.6247 0.8672 0.0000
vt 0.6018 0.9451 0.0000
vt 0.5966 0.9278 0.0000
vt 0.5906 0.9076 0.0000
vt 0.5843 0.8869 0.0000
vt 0.5786 0.8677 0.0000
vt 0.5736 0.8510 0.0000
vt 0.5692 0.8363 0.0000
vt 0.9095 0.9293 0.0000
vt 0.5659 0.8238 0.0000
vt 0.5656 0.8242 0.0000
# 106 texture coords

g F183_285B_R_DTaSI_F183_285B_R
usemtl windowglass_1SG
s 1
f 1/1/1 2/2/2 3/3/3 
f 3/3/3 4/4/4 5/5/5 
f 6/6/6 7/7/7 8/8/8 
f 8/8/8 9/9/9 10/10/10 
f 11/11/11 12/12/12 13/13/13 
f 12/12/12 14/14/14 13/13/13 
f 15/15/15 16/16/16 17/17/17 
f 17/17/17 18/18/18 19/19/19 
f 20/20/20 21/21/21 22/22/22 
f 22/22/22 23/23/23 24/24/24 
f 4/4/4 25/25/25 26/26/26 
f 26/26/26 27/27/27 28/28/28 
f 29/29/29 30/30/30 31/31/31 
f 27/27/27 32/32/32 33/33/33 
f 33/33/33 34/34/34 35/35/35 
f 36/36/36 37/37/37 38/38/38 
f 38/38/38 39/39/39 40/40/40 
f 41/41/41 42/42/42 43/43/43 
f 42/42/42 44/44/44 43/43/43 
f 44/44/44 45/45/45 46/46/46 
f 46/46/46 6/6/6 47/47/47 
f 9/9/9 48/48/48 49/49/49 
f 49/49/49 36/36/36 50/50/50 
f 51/51/51 52/52/52 29/29/29 
f 53/53/53 30/30/30 29/29/29 
f 20/20/20 54/54/54 55/55/55 
f 55/55/55 15/15/15 56/56/56 
f 18/18/18 57/57/57 58/58/58 
f 58/58/58 1/1/1 59/59/59 
f 60/60/60 61/61/61 2/2/2 
f 61/61/61 25/25/25 2/2/2 
f 61/61/61 62/62/62 25/25/25 
f 62/62/62 32/32/32 25/25/25 
f 63/63/63 64/64/64 65/65/65 
f 64/64/64 66/66/66 65/65/65 
f 67/67/67 65/65/65 66/66/66 
f 68/68/68 41/41/41 69/69/69 
f 41/41/41 43/43/43 69/69/69 
f 68/68/68 69/69/69 70/70/70 
f 13/13/13 29/29/29 11/11/11 
f 29/29/29 31/31/31 11/11/11 
f 71/71/71 72/72/72 12/12/12 
f 72/72/72 14/14/14 12/12/12 
f 10/10/10 50/50/50 73/73/73 
f 50/50/50 74/74/74 73/73/73 
f 75/75/75 74/74/74 40/40/40 
f 74/74/74 50/50/50 40/40/40 
f 67/67/67 75/75/75 76/76/76 
f 75/75/75 40/40/40 76/76/76 
f 74/74/74 77/77/77 73/73/73 
f 78/78/78 77/77/77 75/75/75 
f 77/77/77 74/74/74 75/75/75 
f 75/75/75 67/67/67 78/78/78 
f 67/67/67 66/66/66 78/78/78 
f 53/53/53 79/79/79 30/30/30 
f 80/80/80 79/79/79 21/21/21 
f 79/79/79 53/53/53 21/21/21 
f 21/21/21 56/56/56 81/81/81 
f 81/81/81 82/82/82 70/70/70 
f 82/82/82 19/19/19 83/83/83 
f 83/83/83 84/84/84 68/68/68 
f 84/84/84 59/59/59 85/85/85 
f 85/85/85 86/86/86 41/41/41 
f 86/86/86 5/5/5 87/87/87 
f 86/86/86 87/87/87 42/42/42 
f 87/87/87 28/28/28 88/88/88 
f 88/88/88 89/89/89 45/45/45 
f 89/89/89 35/35/35 90/90/90 
f 90/90/90 91/91/91 7/7/7 
f 91/91/91 92/92/92 93/93/93 
f 93/93/93 94/94/94 48/48/48 
f 23/23/23 53/53/53 95/95/95 
f 95/95/95 52/52/52 96/96/96 
f 2/2/2 57/57/57 60/60/60 
f 57/57/57 97/97/97 60/60/60 
f 57/57/57 16/16/16 97/97/97 
f 16/16/16 98/98/98 97/97/97 
f 16/16/16 54/54/54 98/98/98 
f 54/54/54 99/99/99 98/98/98 
f 54/54/54 24/24/24 99/99/99 
f 24/24/24 100/100/100 99/99/99 
f 24/24/24 96/96/96 100/100/100 
f 96/96/96 101/101/101 100/100/100 
f 102/102/102 101/101/101 51/51/51 
f 101/101/101 96/96/96 51/51/51 
f 13/13/13 51/51/51 29/29/29 
f 14/14/14 51/51/51 13/13/13 
f 72/72/72 51/51/51 14/14/14 
f 103/103/103 102/102/102 72/72/72 
f 102/102/102 51/51/51 72/72/72 
f 47/47/47 10/10/10 104/104/104 
f 10/10/10 73/73/73 104/104/104 
f 43/43/43 47/47/47 104/104/104 
f 72/72/72 71/71/71 103/103/103 
f 71/71/71 105/105/105 103/103/103 
f 106/106/106 103/103/103 105/105/105 
f 52/52/52 53/53/53 29/29/29 
f 52/52/52 51/51/51 96/96/96 
f 23/23/23 96/96/96 24/24/24 
f 21/21/21 53/53/53 23/23/23 
f 94/94/94 37/37/37 48/48/48 
f 91/91/91 48/48/48 7/7/7 
f 35/35/35 92/92/92 91/91/91 
f 57/57/57 2/2/2 1/1/1 
f 1/1/1 5/5/5 59/59/59 
f 18/18/18 59/59/59 19/19/19 
f 16/16/16 57/57/57 18/18/18 
f 54/54/54 16/16/16 15/15/15 
f 15/15/15 19/19/19 56/56/56 
f 56/56/56 21/21/21 20/20/20 
f 24/24/24 54/54/54 20/20/20 
f 34/34/34 92/92/92 35/35/35 
f 27/27/27 35/35/35 28/28/28 
f 25/25/25 32/32/32 27/27/27 
f 4/4/4 28/28/28 5/5/5 
f 2/2/2 25/25/25 4/4/4 
f 23/23/23 95/95/95 96/96/96 
f 53/53/53 52/52/52 95/95/95 
f 20/20/20 22/22/22 24/24/24 
f 21/21/21 23/23/23 22/22/22 
f 91/91/91 93/93/93 48/48/48 
f 92/92/92 94/94/94 93/93/93 
f 2/2/2 4/4/4 3/3/3 
f 1/1/1 3/3/3 5/5/5 
f 18/18/18 58/58/58 59/59/59 
f 57/57/57 1/1/1 58/58/58 
f 15/15/15 17/17/17 19/19/19 
f 16/16/16 18/18/18 17/17/17 
f 20/20/20 55/55/55 56/56/56 
f 54/54/54 15/15/15 55/55/55 
f 27/27/27 33/33/33 35/35/35 
f 32/32/32 34/34/34 33/33/33 
f 4/4/4 26/26/26 28/28/28 
f 25/25/25 27/27/27 26/26/26 
f 89/89/89 7/7/7 45/45/45 
f 28/28/28 35/35/35 89/89/89 
f 87/87/87 45/45/45 42/42/42 
f 5/5/5 28/28/28 87/87/87 
f 59/59/59 5/5/5 86/86/86 
f 86/86/86 42/42/42 41/41/41 
f 84/84/84 41/41/41 68/68/68 
f 19/19/19 59/59/59 84/84/84 
f 82/82/82 68/68/68 70/70/70 
f 56/56/56 19/19/19 82/82/82 
f 56/56/56 82/82/82 81/81/81 
f 80/80/80 81/81/81 70/70/70 
f 21/21/21 81/81/81 80/80/80 
f 70/70/70 79/79/79 80/80/80 
f 48/48/48 37/37/37 36/36/36 
f 36/36/36 40/40/40 50/50/50 
f 9/9/9 50/50/50 10/10/10 
f 7/7/7 48/48/48 9/9/9 
f 45/45/45 7/7/7 6/6/6 
f 6/6/6 10/10/10 47/47/47 
f 44/44/44 47/47/47 43/43/43 
f 42/42/42 45/45/45 44/44/44 
f 39/39/39 76/76/76 40/40/40 
f 89/89/89 90/90/90 7/7/7 
f 35/35/35 91/91/91 90/90/90 
f 87/87/87 88/88/88 45/45/45 
f 28/28/28 89/89/89 88/88/88 
f 84/84/84 85/85/85 41/41/41 
f 59/59/59 86/86/86 85/85/85 
f 82/82/82 83/83/83 68/68/68 
f 19/19/19 84/84/84 83/83/83 
f 37/37/37 39/39/39 38/38/38 
f 36/36/36 38/38/38 40/40/40 
f 9/9/9 49/49/49 50/50/50 
f 48/48/48 36/36/36 49/49/49 
f 6/6/6 8/8/8 10/10/10 
f 7/7/7 9/9/9 8/8/8 
f 44/44/44 46/46/46 47/47/47 
f 45/45/45 6/6/6 46/46/46 
# 173 faces

