# 3ds Max Wavefront OBJ Exporter v0.97b - (c)2007 guruware
# File Created: 11.01.2016 12:58:26

mtllib Z186_FLOR_C.mtl

#
# object Z186_FLOR_C_N_Z186_FLOR_C
#

v  -106.6183 -53.5897 -94.6788
v  -104.2458 -53.5897 -94.6788
v  -110.2146 -53.5897 -71.0801
v  -107.6145 -53.5897 -94.6788
v  -107.1443 -53.5897 -94.6788
v  -109.7544 -53.5897 -94.6772
v  -108.6861 -53.5897 -94.6789
v  -110.2146 -53.5897 -94.6722
v  -102.1021 -53.5897 -94.6788
v  -99.8567 -53.5897 -94.6789
v  -103.0879 -53.5897 -94.6789
v  103.0532 -53.5897 -95.1876
v  104.8852 -53.5897 -95.1876
v  120.1676 -53.5897 -71.0801
v  106.7714 -53.5897 -95.1876
v  107.5574 -53.5897 -95.1876
v  108.6576 -53.5897 -95.1876
v  110.4713 -53.5897 -95.1876
v  112.1398 -53.5897 -95.1876
v  113.7358 -53.5897 -95.1876
v  115.3319 -53.5897 -95.1876
v  116.5712 -53.5897 -95.1876
v  117.0973 -53.5897 -95.1876
v  117.5675 -53.5897 -95.1876
v  119.7073 -53.5897 -95.1859
v  120.1676 -53.5897 -95.1810
v  -97.5493 -53.5898 -94.6470
v  -93.6165 -53.5898 -94.6690
v  -83.7083 -53.5898 -94.6806
v  -35.2057 -53.5848 -94.6858
v  -31.5267 -53.5846 -94.6859
v  -17.8444 -53.5849 -71.0801
v  -71.2558 -53.5885 -94.6832
v  -62.4603 -53.5877 -94.6851
v  -28.2145 -53.5847 -94.6858
v  -26.2902 -53.5848 -94.6858
v  -25.3312 -53.5849 -94.6858
v  -24.9143 -53.5849 -94.6858
v  -59.2027 -53.5873 -94.6852
v  -9.3758 -53.5851 -94.6858
v  -4.0878 -53.5849 -94.6858
v  -22.7111 -53.5850 -94.6858
v  -21.1417 -53.5851 -94.6858
v  -19.2132 -53.5852 -94.6858
v  -16.9981 -53.5853 -94.6858
v  -24.5749 -53.5849 -94.6858
v  -23.8479 -53.5849 -94.6858
v  5.2320 -53.5844 -94.6859
v  12.0849 -53.5840 -94.6860
v  36.5245 -53.5828 -94.6864
v  49.8757 -53.5821 -94.6865
v  -2.2877 -53.5848 -94.6859
v  -12.5915 -53.5853 -94.6858
v  24.3426 -53.5834 -94.6862
v  87.3777 -53.5779 -94.8302
v  75.3382 -53.5803 -94.7227
v  92.1620 -53.5757 -94.9587
v  62.7226 -53.5812 -94.7048
v  99.2810 -53.5739 -95.1853
v  95.8518 -53.5739 -95.0579
v  101.0942 -53.5739 -95.1752
v  -41.2635 -53.5853 -94.6858
v  -46.8168 -53.5859 -94.6856
v  -17.8444 -53.5849 0.0000
v  120.1676 -53.5897 0.0000
v  -110.2146 -53.5897 0.0000
v  165.9381 -54.5424 -71.0800
v  165.9381 -54.5424 0.0000
v  212.1719 -56.8634 -71.0801
v  212.1719 -56.8634 0.0000
v  -155.4190 -50.7826 -71.0801
v  -155.4190 -50.7826 0.0000
v  -200.9648 -47.7716 -71.0800
v  -200.9648 -47.7716 0.0000
v  212.1719 -56.8634 -96.5978
v  212.7470 -56.8242 -96.6033
v  215.0034 -56.6704 -96.6038
v  216.0672 -56.5978 -96.5325
v  215.5004 -56.6365 -96.6043
v  220.6055 -56.2884 -96.1292
v  219.0775 -56.3926 -96.2500
v  223.7948 -56.0709 -95.8155
v  222.1275 -56.1846 -96.0044
v  227.8590 -55.7938 -95.1939
v  225.6855 -55.9420 -95.5309
v  234.2471 -55.3583 -94.1974
v  230.6082 -55.6064 -94.7637
v  243.4621 -54.7300 -92.2300
v  238.5909 -55.0621 -93.3892
v  251.4943 -54.1823 -89.3467
v  248.0251 -54.4189 -90.8418
v  257.1757 -53.7950 -85.9665
v  254.4595 -53.9802 -88.1125
v  261.7438 -53.4835 -79.3960
v  259.6815 -53.6241 -83.4123
v  265.4117 -53.2334 -69.9357
v  263.5771 -53.3585 -74.6659
v  268.2401 -53.0406 -60.7891
v  267.0486 -53.1218 -65.1769
v  269.6457 -52.9448 -54.2148
v  269.1362 -52.9795 -56.5100
v  271.6287 -52.8095 -31.8268
v  270.3896 -52.8940 -47.8204
v  272.8312 -52.7792 0.0000
v  272.4712 -52.7886 -16.2502
v  -202.5259 -47.6031 -92.6305
v  -201.4331 -47.7211 -92.6710
v  -200.9648 -47.7716 -92.6882
v  -204.1046 -47.4328 -92.5730
v  -203.6231 -47.4847 -92.5906
v  -204.6601 -47.3728 -92.4666
v  -205.9794 -47.2305 -92.1599
v  -209.2692 -46.8754 -91.3753
v  -207.6522 -47.0500 -91.7610
v  -215.2126 -46.2341 -90.3655
v  -211.5493 -46.6294 -90.9339
v  -225.6836 -45.1041 -89.1332
v  -220.0064 -45.7167 -89.7421
v  -238.1451 -43.7593 -87.9037
v  -231.8780 -44.4356 -88.5245
v  -248.7964 -42.6099 -86.6037
v  -243.9527 -43.1326 -87.2665
v  -256.7642 -41.7501 -85.1820
v  -251.7632 -42.2898 -86.1137
v  -263.0127 -41.0758 -82.7236
v  -262.5673 -41.1238 -83.2470
v  -261.4866 -41.2405 -83.7823
v  -259.4893 -41.4560 -84.5272
v  -265.7492 -40.7805 -78.4129
v  -264.8243 -40.8803 -80.0964
v  -268.4233 -40.4919 -71.1150
v  -267.2500 -40.6185 -75.2934
v  -269.7465 -40.3491 -64.5124
v  -269.1540 -40.4130 -68.3253
v  -270.0921 -40.3118 -59.5944
v  -269.8788 -40.3348 -62.2435
v  -270.5065 -40.2671 -51.2968
v  -270.3351 -40.2856 -56.6287
v  -271.0447 -40.2090 -28.9191
v  -270.7746 -40.2382 -40.1089
v  -270.9698 -40.2171 0.0000
v  -271.0355 -40.2100 -14.6558
v  -106.6183 -53.5897 94.6788
v  -110.2146 -53.5897 71.0800
v  -104.2458 -53.5897 94.6788
v  -107.6145 -53.5897 94.6788
v  -107.1443 -53.5897 94.6788
v  -109.7544 -53.5897 94.6772
v  -108.6861 -53.5897 94.6789
v  -110.2146 -53.5897 94.6722
v  -102.1021 -53.5897 94.6788
v  -99.8567 -53.5897 94.6789
v  -103.0879 -53.5897 94.6789
v  103.0532 -53.5897 95.1876
v  120.1676 -53.5897 71.0801
v  104.8852 -53.5897 95.1876
v  106.7714 -53.5897 95.1876
v  107.5574 -53.5897 95.1876
v  108.6576 -53.5897 95.1876
v  110.4713 -53.5897 95.1876
v  112.1398 -53.5897 95.1876
v  113.7358 -53.5897 95.1876
v  115.3319 -53.5897 95.1876
v  116.5712 -53.5897 95.1876
v  117.0973 -53.5897 95.1876
v  117.5675 -53.5897 95.1876
v  119.7073 -53.5897 95.1859
v  120.1676 -53.5897 95.1810
v  -97.5493 -53.5898 94.6470
v  -93.6165 -53.5898 94.6690
v  -83.7083 -53.5898 94.6806
v  -35.2057 -53.5848 94.6858
v  -15.3731 -53.5848 71.0801
v  -31.5267 -53.5846 94.6859
v  -71.2558 -53.5885 94.6832
v  -62.4603 -53.5877 94.6851
v  -28.2145 -53.5847 94.6858
v  -26.2902 -53.5848 94.6858
v  -25.3312 -53.5849 94.6858
v  -24.9143 -53.5849 94.6858
v  -59.2027 -53.5873 94.6852
v  -9.3758 -53.5851 94.6858
v  -4.0878 -53.5849 94.6858
v  -22.7111 -53.5850 94.6858
v  -21.1417 -53.5851 94.6858
v  -19.2132 -53.5852 94.6858
v  -16.9981 -53.5853 94.6858
v  -24.5749 -53.5849 94.6858
v  -23.8479 -53.5849 94.6858
v  5.2320 -53.5844 94.6859
v  12.0849 -53.5840 94.6860
v  36.5245 -53.5828 94.6864
v  49.8757 -53.5821 94.6865
v  -2.2877 -53.5848 94.6858
v  -12.5915 -53.5853 94.6858
v  24.3426 -53.5834 94.6862
v  75.3382 -53.5803 94.7227
v  87.3777 -53.5779 94.8301
v  92.1620 -53.5757 94.9587
v  62.7226 -53.5812 94.7048
v  95.8518 -53.5739 95.0579
v  99.2810 -53.5739 95.1852
v  101.0942 -53.5739 95.1751
v  -41.2635 -53.5853 94.6858
v  -46.8168 -53.5859 94.6856
v  165.9381 -54.5424 71.0800
v  212.1719 -56.8634 71.0801
v  -155.4190 -50.7826 71.0801
v  -200.9648 -47.7716 71.0800
v  212.1719 -56.8634 96.5978
v  212.7470 -56.8242 96.6033
v  215.0034 -56.6704 96.6038
v  216.0672 -56.5978 96.5325
v  215.5004 -56.6365 96.6043
v  220.6055 -56.2884 96.1292
v  219.0775 -56.3926 96.2500
v  223.7948 -56.0709 95.8155
v  222.1275 -56.1846 96.0044
v  227.8590 -55.7938 95.1939
v  225.6855 -55.9420 95.5309
v  234.2471 -55.3583 94.1974
v  230.6082 -55.6064 94.7637
v  243.4621 -54.7300 92.2300
v  238.5909 -55.0621 93.3892
v  251.4943 -54.1823 89.3467
v  248.0251 -54.4189 90.8418
v  257.1757 -53.7950 85.9665
v  254.4595 -53.9802 88.1125
v  261.7438 -53.4835 79.3960
v  259.6815 -53.6241 83.4123
v  265.4117 -53.2334 69.9357
v  263.5771 -53.3585 74.6659
v  268.2401 -53.0406 60.7891
v  267.0486 -53.1218 65.1769
v  269.6457 -52.9448 54.2148
v  269.1362 -52.9795 56.5100
v  271.6287 -52.8095 31.8268
v  270.3896 -52.8940 47.8204
v  272.4712 -52.7886 16.2502
v  -202.5259 -47.6031 92.6304
v  -201.4331 -47.7211 92.6710
v  -200.9648 -47.7716 92.6882
v  -204.1046 -47.4328 92.5729
v  -203.6231 -47.4847 92.5906
v  -204.6601 -47.3728 92.4666
v  -205.9794 -47.2305 92.1599
v  -209.2692 -46.8754 91.3753
v  -207.6522 -47.0500 91.7609
v  -215.2126 -46.2341 90.3655
v  -211.5493 -46.6294 90.9339
v  -225.6836 -45.1041 89.1332
v  -220.0064 -45.7167 89.7421
v  -238.1451 -43.7593 87.9037
v  -231.8780 -44.4356 88.5245
v  -248.7964 -42.6099 86.6037
v  -243.9527 -43.1326 87.2665
v  -256.7642 -41.7501 85.1820
v  -251.7632 -42.2898 86.1137
v  -263.0127 -41.0758 82.7236
v  -262.5673 -41.1238 83.2470
v  -261.4866 -41.2405 83.7823
v  -259.4893 -41.4560 84.5271
v  -265.7492 -40.7805 78.4129
v  -264.8243 -40.8803 80.0964
v  -268.4233 -40.4919 71.1150
v  -267.2500 -40.6185 75.2934
v  -269.7465 -40.3491 64.5124
v  -269.1540 -40.4130 68.3253
v  -270.0921 -40.3118 59.5944
v  -269.8788 -40.3348 62.2435
v  -270.5065 -40.2671 51.2968
v  -270.3351 -40.2856 56.6287
v  -271.0447 -40.2090 28.9191
v  -270.7746 -40.2382 40.1089
v  -271.0355 -40.2100 14.6558
# 275 vertices

vn 0.0000 -1.0000 -0.0000
vn -0.0000 -1.0000 -0.0000
vn -0.0192 -0.9998 -0.0000
vn 0.0000 -1.0000 0.0000
vn -0.0057 -1.0000 0.0040
vn -0.0000 -1.0000 0.0000
vn -0.0050 -1.0000 -0.0000
vn -0.0001 -1.0000 -0.0000
vn 0.0001 -1.0000 0.0001
vn 0.0001 -1.0000 -0.0001
vn -0.0001 -1.0000 0.0000
vn 0.0001 -1.0000 0.0000
vn -0.0000 -1.0000 -0.0002
vn 0.0001 -1.0000 -0.0005
vn 0.0002 -1.0000 -0.0008
vn 0.0001 -1.0000 -0.0006
vn 0.0004 -1.0000 -0.0011
vn -0.0000 -1.0000 -0.0006
vn 0.0003 -1.0000 -0.0010
vn -0.0024 -1.0000 0.0013
vn 0.0001 -1.0000 -0.0000
vn -0.0052 -1.0000 -0.0000
vn -0.0203 -0.9998 -0.0000
vn -0.0356 -0.9994 -0.0000
vn -0.0005 -1.0000 -0.0000
vn 0.0165 -0.9999 -0.0000
vn -0.0640 -0.9980 -0.0000
vn -0.0856 -0.9963 -0.0000
vn -0.0911 -0.9958 -0.0000
vn 0.0680 -0.9977 -0.0000
vn 0.0680 -0.9977 0.0000
vn 0.0691 -0.9976 -0.0017
vn 0.0673 -0.9977 -0.0000
vn 0.0686 -0.9976 -0.0013
vn -0.1073 -0.9942 0.0000
vn -0.1073 -0.9942 -0.0000
vn -0.1072 -0.9942 -0.0000
vn -0.0188 -0.9998 -0.0000
vn -0.0057 -1.0000 -0.0040
vn -0.0050 -1.0000 0.0000
vn -0.0000 -1.0000 0.0002
vn 0.0001 -1.0000 0.0006
vn 0.0002 -1.0000 0.0008
vn 0.0004 -1.0000 0.0011
vn 0.0001 -1.0000 0.0005
vn 0.0003 -1.0000 0.0010
vn -0.0000 -1.0000 0.0006
vn -0.0024 -1.0000 -0.0013
vn -0.0005 -1.0000 0.0000
vn 0.0691 -0.9976 0.0017
vn 0.0686 -0.9976 0.0013
# 51 vertex normals

g Z186_FLOR_C_N_Z186_FLOR_C
usemtl diffuse_black_plasticSG
s 1
f 1//1 2//2 3//3 
f 4//1 5//1 3//3 
f 6//1 7//4 3//3 
f 8//1 6//1 3//3 
f 9//2 10//2 3//3 
f 2//2 11//1 3//3 
f 5//1 1//1 3//3 
f 7//4 4//1 3//3 
f 11//1 9//2 3//3 
f 12//5 13//6 14//7 
f 13//6 15//1 14//7 
f 15//1 16//6 14//7 
f 17//6 18//1 14//7 
f 18//1 19//6 14//7 
f 19//6 20//1 14//7 
f 20//1 21//6 14//7 
f 21//6 22//1 14//7 
f 22//1 23//1 14//7 
f 23//1 24//2 14//7 
f 24//2 25//2 14//7 
f 25//2 26//8 14//7 
f 10//2 27//2 3//3 
f 28//6 29//9 3//3 
f 28//6 3//3 27//2 
f 30//10 31//1 32//1 
f 33//9 34//9 3//3 
f 35//11 36//11 32//1 
f 37//6 38//1 32//1 
f 31//1 35//11 32//1 
f 34//9 39//9 3//3 
f 36//11 37//6 32//1 
f 40//4 41//4 32//1 
f 42//11 43//6 32//1 
f 44//11 45//6 32//1 
f 46//11 47//11 32//1 
f 48//12 49//12 32//1 
f 50//13 51//14 14//7 
f 52//12 48//12 32//1 
f 43//6 44//11 32//1 
f 45//6 53//4 32//1 
f 47//11 42//11 32//1 
f 38//1 46//11 32//1 
f 49//12 54//12 32//1 
f 55//15 14//7 56//16 
f 57//17 14//7 55//15 
f 56//16 14//7 58//14 
f 59//18 14//7 60//19 
f 60//19 14//7 57//17 
f 12//5 14//7 61//20 
f 59//18 61//20 14//7 
f 53//4 40//4 32//1 
f 41//4 52//12 32//1 
f 54//12 50//13 32//1 
f 32//1 50//13 14//7 
f 58//14 14//7 51//14 
f 62//10 30//10 32//1 
f 63//21 62//10 32//1 
f 39//9 63//21 3//3 
f 3//3 63//21 32//1 
f 29//9 33//9 3//3 
f 16//6 17//6 14//7 
f 32//1 14//7 64//4 
f 64//4 14//7 65//22 
f 3//3 32//1 66//23 
f 66//23 32//1 64//4 
f 14//7 67//24 65//22 
f 65//22 67//24 68//24 
f 67//24 69//25 68//24 
f 68//24 69//25 70//26 
f 71//27 3//3 72//27 
f 72//27 3//3 66//23 
f 73//28 71//27 74//29 
f 74//29 71//27 72//27 
f 75//30 76//30 69//25 
f 76//30 77//30 69//25 
f 78//30 69//25 79//31 
f 79//31 69//25 77//30 
f 80//30 69//25 81//30 
f 81//30 69//25 78//30 
f 82//30 69//25 83//31 
f 83//31 69//25 80//30 
f 84//31 69//25 85//30 
f 85//30 69//25 82//30 
f 86//30 69//25 87//30 
f 87//30 69//25 84//31 
f 88//31 69//25 89//30 
f 69//25 86//30 89//30 
f 90//31 69//25 91//30 
f 69//25 88//31 91//30 
f 92//31 69//25 93//30 
f 93//30 69//25 90//31 
f 94//30 69//25 95//31 
f 69//25 92//31 95//31 
f 96//31 69//25 97//30 
f 97//30 69//25 94//30 
f 98//30 69//25 99//30 
f 69//25 96//31 99//30 
f 100//30 69//25 101//30 
f 101//30 69//25 98//30 
f 102//32 69//25 103//31 
f 103//31 69//25 100//30 
f 104//33 69//25 105//34 
f 105//34 69//25 102//32 
f 69//25 104//33 70//26 
f 106//35 107//36 73//28 
f 107//36 108//37 73//28 
f 109//36 110//36 73//28 
f 110//36 106//35 73//28 
f 109//36 73//28 111//35 
f 112//35 111//35 73//28 
f 113//36 114//35 73//28 
f 114//35 112//35 73//28 
f 115//35 116//36 73//28 
f 116//36 113//36 73//28 
f 117//36 118//36 73//28 
f 118//36 115//35 73//28 
f 119//36 120//36 73//28 
f 120//36 117//36 73//28 
f 121//36 122//36 73//28 
f 122//36 119//36 73//28 
f 123//36 124//35 73//28 
f 124//35 121//36 73//28 
f 125//35 126//36 73//28 
f 126//36 127//35 73//28 
f 127//35 128//35 73//28 
f 128//35 123//36 73//28 
f 129//35 130//36 73//28 
f 130//36 125//35 73//28 
f 131//36 132//36 73//28 
f 132//36 129//35 73//28 
f 133//36 134//35 73//28 
f 134//35 131//36 73//28 
f 135//35 136//36 73//28 
f 136//36 133//36 73//28 
f 137//36 138//36 73//28 
f 138//36 135//35 73//28 
f 139//36 140//35 73//28 
f 140//35 137//36 73//28 
f 141//36 142//36 73//28 
f 142//36 139//36 73//28 
f 141//36 73//28 74//29 
f 143//1 144//38 145//1 
f 146//1 144//38 147//4 
f 148//1 144//38 149//2 
f 150//1 144//38 148//1 
f 151//6 144//38 152//6 
f 145//1 144//38 153//1 
f 147//4 144//38 143//1 
f 149//2 144//38 146//1 
f 153//1 144//38 151//6 
f 154//39 155//40 156//2 
f 156//2 155//40 157//4 
f 157//4 155//40 158//2 
f 159//2 155//40 160//4 
f 160//4 155//40 161//2 
f 161//2 155//40 162//4 
f 162//4 155//40 163//2 
f 163//2 155//40 164//4 
f 164//4 155//40 165//4 
f 165//4 155//40 166//4 
f 166//4 155//40 167//6 
f 167//6 155//40 168//8 
f 152//6 144//38 169//6 
f 170//2 144//38 171//10 
f 169//6 144//38 170//2 
f 172//9 173//4 174//4 
f 175//10 144//38 176//10 
f 177//8 173//4 178//8 
f 179//2 173//4 180//4 
f 174//4 173//4 177//8 
f 176//10 144//38 181//10 
f 178//8 173//4 179//2 
f 182//1 173//4 183//1 
f 184//8 173//4 185//2 
f 186//8 173//4 187//2 
f 188//8 173//4 189//8 
f 190//21 173//4 191//21 
f 192//1 173//4 193//41 
f 193//41 173//4 155//40 
f 194//21 173//4 190//21 
f 185//2 173//4 186//8 
f 187//2 173//4 195//1 
f 189//8 173//4 184//8 
f 180//4 173//4 188//8 
f 191//21 173//4 196//21 
f 197//42 155//40 198//43 
f 198//43 155//40 199//44 
f 200//45 155//40 197//42 
f 201//46 155//40 202//47 
f 199//44 155//40 201//46 
f 203//48 155//40 154//39 
f 202//47 155//40 203//48 
f 195//1 173//4 182//1 
f 183//1 173//4 194//21 
f 196//21 173//4 192//1 
f 193//41 155//40 200//45 
f 204//9 173//4 172//9 
f 205//12 173//4 204//9 
f 181//10 144//38 205//12 
f 205//12 144//38 173//4 
f 171//10 144//38 175//10 
f 158//2 155//40 159//2 
f 173//4 65//22 155//40 
f 173//4 64//4 65//22 
f 144//38 66//23 173//4 
f 173//4 66//23 64//4 
f 155//40 65//22 206//24 
f 206//24 65//22 68//24 
f 206//24 68//24 207//49 
f 207//49 68//24 70//26 
f 208//27 72//27 144//38 
f 144//38 72//27 66//23 
f 209//28 74//29 208//27 
f 208//27 74//29 72//27 
f 210//30 207//49 211//30 
f 211//30 207//49 212//30 
f 213//30 214//30 207//49 
f 214//30 212//30 207//49 
f 215//31 216//31 207//49 
f 216//31 213//30 207//49 
f 217//31 218//30 207//49 
f 218//30 215//31 207//49 
f 219//30 220//30 207//49 
f 220//30 217//31 207//49 
f 221//31 222//31 207//49 
f 222//31 219//30 207//49 
f 223//30 224//31 207//49 
f 207//49 224//31 221//31 
f 225//30 226//30 207//49 
f 207//49 226//30 223//30 
f 227//30 228//31 207//49 
f 228//31 225//30 207//49 
f 229//31 230//30 207//49 
f 207//49 230//30 227//30 
f 231//30 232//31 207//49 
f 232//31 229//31 207//49 
f 233//30 234//31 207//49 
f 207//49 234//31 231//30 
f 235//30 236//31 207//49 
f 236//31 233//30 207//49 
f 237//50 238//30 207//49 
f 238//30 235//30 207//49 
f 104//33 239//51 207//49 
f 239//51 237//50 207//49 
f 207//49 70//26 104//33 
f 240//36 209//28 241//36 
f 209//28 242//37 241//36 
f 243//36 209//28 244//35 
f 209//28 240//36 244//35 
f 243//36 245//36 209//28 
f 246//36 209//28 245//36 
f 247//35 209//28 248//36 
f 209//28 246//36 248//36 
f 249//36 209//28 250//36 
f 209//28 247//35 250//36 
f 251//35 209//28 252//36 
f 209//28 249//36 252//36 
f 253//36 209//28 254//35 
f 209//28 251//35 254//35 
f 255//36 209//28 256//35 
f 209//28 253//36 256//35 
f 257//35 209//28 258//35 
f 209//28 255//36 258//35 
f 259//36 209//28 260//35 
f 260//35 209//28 261//35 
f 261//35 209//28 262//36 
f 209//28 257//35 262//36 
f 263//36 209//28 264//35 
f 209//28 259//36 264//35 
f 265//36 209//28 266//35 
f 209//28 263//36 266//35 
f 267//36 209//28 268//36 
f 209//28 265//36 268//36 
f 269//36 209//28 270//36 
f 209//28 267//36 270//36 
f 271//35 209//28 272//35 
f 209//28 269//36 272//35 
f 273//36 209//28 274//36 
f 209//28 271//35 274//36 
f 141//36 209//28 275//35 
f 209//28 273//36 275//35 
f 141//36 74//29 209//28 
# 282 faces

