# 3ds Max Wavefront OBJ Exporter v0.97b - (c)2007 guruware
# File Created: 11.01.2016 12:55:55

mtllib Z186_324H_R.mtl

#
# object Z186_324H_R_DTaSI_Z186_324H_R
#

v  -139.3267 63.7438 79.8476
v  -141.8523 62.5563 80.4852
v  -139.4903 58.5474 82.2002
v  -142.4565 57.6549 82.7538
v  -134.9355 65.6796 78.8927
v  -135.0500 60.0065 81.5411
v  -130.2374 61.2930 80.9475
v  -130.3613 67.3825 78.0348
v  -125.8115 62.2571 80.5015
v  -126.3135 68.6747 77.3956
v  -129.9489 47.2712 87.7270
v  -124.6430 47.4717 87.7308
v  -130.0923 54.2431 84.3560
v  -125.2240 54.8233 84.1362
v  -135.3165 46.9541 87.7054
v  -135.1840 53.4440 84.6404
v  -139.6818 52.5426 84.9533
v  -139.8711 46.6043 87.6761
v  -143.1636 51.9956 85.2802
v  -143.8628 46.3988 87.7786
v  -124.0965 40.2286 91.6434
v  -129.8140 40.3853 91.2779
v  -135.4411 40.5215 90.9687
v  -140.0492 40.6906 90.6174
v  -144.5206 40.8064 90.5089
# 25 vertices

vn 0.0129 0.4172 0.9087
vn 0.0390 0.4124 0.9102
vn 0.0113 0.4182 0.9083
vn 0.0399 0.4131 0.9098
vn 0.0066 0.4265 0.9045
vn -0.0036 0.4257 0.9049
vn -0.0033 0.4330 0.9014
vn 0.0039 0.4332 0.9013
vn -0.0030 0.4360 0.9000
vn 0.0030 0.4358 0.9000
vn -0.0225 0.4454 0.8950
vn -0.0224 0.4511 0.8922
vn -0.0137 0.4344 0.9006
vn -0.0104 0.4374 0.8992
vn -0.0335 0.4401 0.8973
vn -0.0191 0.4273 0.9039
vn -0.0045 0.4174 0.9087
vn -0.0211 0.4322 0.9015
vn 0.0170 0.4101 0.9119
vn -0.0012 0.4282 0.9037
vn -0.0433 0.4723 0.8804
vn -0.0349 0.4617 0.8863
vn -0.0419 0.4510 0.8915
vn -0.0308 0.4441 0.8955
vn -0.0104 0.4397 0.8981
# 25 vertex normals

vt 0.2632 0.1078 0.0000
vt 0.2552 0.1035 0.0000
vt 0.2625 0.0889 0.0000
vt 0.2530 0.0858 0.0000
vt 0.2779 0.1149 0.0000
vt 0.2774 0.0942 0.0000
vt 0.2935 0.0988 0.0000
vt 0.2933 0.1212 0.0000
vt 0.3077 0.1022 0.0000
vt 0.3062 0.1259 0.0000
vt 0.2942 0.0467 0.0000
vt 0.3112 0.0472 0.0000
vt 0.2939 0.0726 0.0000
vt 0.3095 0.0746 0.0000
vt 0.2762 0.0459 0.0000
vt 0.2768 0.0699 0.0000
vt 0.2617 0.0668 0.0000
vt 0.2610 0.0450 0.0000
vt 0.2505 0.0651 0.0000
vt 0.2480 0.0446 0.0000
vt 0.3129 0.0214 0.0000
vt 0.2945 0.0223 0.0000
vt 0.2756 0.0233 0.0000
vt 0.2602 0.0244 0.0000
vt 0.2457 0.0253 0.0000
# 25 texture coords

g Z186_324H_R_DTaSI_Z186_324H_R
usemtl windowglass_1SG
s 1
f 1/1/1 2/2/2 3/3/3 
f 3/3/3 2/2/2 4/4/4 
f 5/5/5 1/1/1 6/6/6 
f 6/6/6 1/1/1 3/3/3 
f 6/6/6 7/7/7 5/5/5 
f 5/5/5 7/7/7 8/8/8 
f 7/7/7 9/9/9 8/8/8 
f 8/8/8 9/9/9 10/10/10 
f 11/11/11 12/12/12 13/13/13 
f 13/13/13 12/12/12 14/14/14 
f 15/15/15 11/11/11 16/16/16 
f 16/16/16 11/11/11 13/13/13 
f 16/16/16 17/17/17 15/15/15 
f 15/15/15 17/17/17 18/18/18 
f 17/17/17 19/19/19 18/18/18 
f 18/18/18 19/19/19 20/20/20 
f 13/13/13 14/14/14 7/7/7 
f 7/7/7 14/14/14 9/9/9 
f 16/16/16 13/13/13 6/6/6 
f 6/6/6 13/13/13 7/7/7 
f 6/6/6 3/3/3 16/16/16 
f 16/16/16 3/3/3 17/17/17 
f 3/3/3 4/4/4 17/17/17 
f 17/17/17 4/4/4 19/19/19 
f 21/21/21 12/12/12 22/22/22 
f 22/22/22 12/12/12 11/11/11 
f 23/23/23 22/22/22 15/15/15 
f 15/15/15 22/22/22 11/11/11 
f 15/15/15 18/18/18 23/23/23 
f 23/23/23 18/18/18 24/24/24 
f 18/18/18 20/20/20 24/24/24 
f 24/24/24 20/20/20 25/25/25 
# 32 faces

