# 3ds Max Wavefront OBJ Exporter v0.97b - (c)2007 guruware
# File Created: 11.01.2016 12:56:04

mtllib Z186_325B_R.mtl

#
# object Z186_325B_R_DTaSI_Z186_325B_R
#

v  -64.4987 38.1470 91.7283
v  -65.6597 48.5424 86.8483
v  -73.1091 38.4803 91.7315
v  -74.1438 48.6358 86.9135
v  -79.8095 48.6350 86.9812
v  -78.5119 38.6891 91.7337
v  -85.3635 48.5827 87.0800
v  -83.7389 38.8912 91.7357
v  -91.8939 48.5205 87.2082
v  -90.2888 39.1470 91.7376
v  -98.1275 48.4235 87.3510
v  -96.5708 39.3968 91.7388
v  -101.9241 48.2037 87.4945
v  -99.7816 39.4885 91.7397
v  -107.8951 47.9907 87.6522
v  -105.8755 39.6262 91.7396
v  -114.7297 47.8382 87.6887
v  -113.4167 39.8075 91.6026
v  -116.9635 39.9113 91.5078
v  -118.0203 47.7366 87.6979
v  -121.1538 40.0267 91.4020
v  -121.7617 47.6597 87.6891
v  -32.7354 36.9111 91.7219
v  -34.1213 47.8913 86.7128
v  -40.3866 37.2041 91.7227
v  -41.8341 48.0942 86.7301
v  -52.3089 37.6714 91.7251
v  -53.6447 48.3445 86.7787
v  -122.3969 55.1865 83.9982
v  -119.1245 55.4644 83.9055
v  -123.0509 62.9360 80.1980
v  -120.2615 63.4209 80.0010
v  -117.5143 63.9581 79.7712
v  -116.1017 55.7806 83.7877
v  -112.1781 64.8185 79.3668
v  -110.0054 56.2819 83.5699
v  -106.4678 65.7753 78.8745
v  -104.1628 56.8614 83.2474
v  -101.4287 66.6559 78.4285
v  -99.7540 57.4068 82.9548
v  -95.2978 67.4882 77.9856
v  -93.5710 57.8661 82.6642
v  -88.8089 68.2249 77.5894
v  -87.0611 58.2606 82.4039
v  -82.5614 68.8166 77.2852
v  -81.1654 58.5786 82.2039
v  -76.3383 69.2619 77.0788
v  -75.2251 58.7985 82.0679
v  -66.8727 58.9558 81.9378
v  -68.1217 69.6774 76.8820
v  -55.0405 59.0481 81.7989
v  -56.4776 70.0684 76.6717
v  -43.3466 59.0243 81.7021
v  -44.9038 70.2780 76.5252
v  -35.5695 58.9157 81.6675
v  -37.0605 70.2663 76.4728
v  -123.6201 69.8677 76.8902
v  -121.2512 70.5327 76.6022
v  -118.7439 71.2623 76.2751
v  -114.0694 72.4353 75.7082
v  -108.4741 73.7205 75.0681
v  -102.8864 74.8928 74.4886
v  -96.8009 76.0499 73.9132
v  -90.3303 77.0844 73.3986
v  -83.7766 77.9143 73.0038
v  -77.3073 78.5558 72.7361
v  -69.2088 79.1960 72.4812
v  -57.7285 79.8471 72.2087
v  -46.2593 80.2598 72.0190
v  -38.3584 80.3326 71.9512
# 70 vertices

vn 0.0154 0.4250 0.9051
vn 0.0117 0.4265 0.9044
vn 0.0156 0.4285 0.9034
vn 0.0109 0.4301 0.9027
vn 0.0111 0.4331 0.9013
vn 0.0160 0.4316 0.9019
vn 0.0127 0.4357 0.9000
vn 0.0164 0.4343 0.9006
vn 0.0136 0.4380 0.8989
vn 0.0167 0.4365 0.8995
vn 0.0115 0.4397 0.8981
vn 0.0153 0.4382 0.8987
vn 0.0082 0.4408 0.8976
vn 0.0107 0.4395 0.8982
vn 0.0008 0.4402 0.8979
vn 0.0022 0.4391 0.8984
vn -0.0069 0.4387 0.8986
vn -0.0071 0.4374 0.8992
vn -0.0110 0.4366 0.8996
vn -0.0110 0.4379 0.8990
vn -0.0108 0.4366 0.8996
vn -0.0112 0.4380 0.8989
vn 0.0160 0.4167 0.9089
vn 0.0136 0.4176 0.9085
vn 0.0159 0.4179 0.9083
vn 0.0132 0.4191 0.9078
vn 0.0156 0.4210 0.9069
vn 0.0125 0.4225 0.9063
vn -0.0119 0.4394 0.8982
vn -0.0114 0.4393 0.8983
vn -0.0119 0.4353 0.9002
vn -0.0109 0.4350 0.9003
vn -0.0047 0.4359 0.9000
vn -0.0063 0.4401 0.8979
vn 0.0010 0.4375 0.8992
vn 0.0004 0.4415 0.8973
vn 0.0039 0.4375 0.8992
vn 0.0054 0.4416 0.8972
vn 0.0047 0.4366 0.8996
vn 0.0074 0.4403 0.8978
vn 0.0056 0.4347 0.9005
vn 0.0095 0.4386 0.8986
vn 0.0046 0.4322 0.9018
vn 0.0083 0.4362 0.8998
vn 0.0012 0.4297 0.9030
vn 0.0057 0.4335 0.9011
vn -0.0004 0.4268 0.9043
vn 0.0051 0.4305 0.9026
vn 0.0065 0.4268 0.9043
vn 0.0012 0.4233 0.9060
vn 0.0079 0.4227 0.9062
vn 0.0033 0.4192 0.9079
vn 0.0094 0.4193 0.9078
vn 0.0056 0.4160 0.9094
vn 0.0105 0.4179 0.9084
vn 0.0073 0.4148 0.9099
vn -0.0109 0.4299 0.9028
vn -0.0091 0.4303 0.9026
vn -0.0022 0.4320 0.9019
vn 0.0022 0.4334 0.9012
vn 0.0037 0.4328 0.9015
vn 0.0038 0.4314 0.9022
vn 0.0033 0.4300 0.9028
vn 0.0023 0.4285 0.9035
vn -0.0016 0.4262 0.9046
vn -0.0041 0.4236 0.9058
vn -0.0024 0.4203 0.9074
vn 0.0002 0.4163 0.9092
vn 0.0029 0.4129 0.9108
vn 0.0051 0.4113 0.9115
# 70 vertex normals

vt 0.5183 0.0202 0.0000
vt 0.5136 0.0569 0.0000
vt 0.4895 0.0205 0.0000
vt 0.4852 0.0564 0.0000
vt 0.4663 0.0559 0.0000
vt 0.4715 0.0207 0.0000
vt 0.4477 0.0552 0.0000
vt 0.4540 0.0209 0.0000
vt 0.4259 0.0543 0.0000
vt 0.4320 0.0211 0.0000
vt 0.4051 0.0533 0.0000
vt 0.4110 0.0214 0.0000
vt 0.3924 0.0521 0.0000
vt 0.4003 0.0214 0.0000
vt 0.3724 0.0507 0.0000
vt 0.3799 0.0213 0.0000
vt 0.3496 0.0497 0.0000
vt 0.3547 0.0215 0.0000
vt 0.3428 0.0216 0.0000
vt 0.3386 0.0491 0.0000
vt 0.3295 0.0218 0.0000
vt 0.3268 0.0486 0.0000
vt 0.6237 0.0190 0.0000
vt 0.6182 0.0577 0.0000
vt 0.5990 0.0193 0.0000
vt 0.5933 0.0577 0.0000
vt 0.5591 0.0197 0.0000
vt 0.5538 0.0574 0.0000
vt 0.3240 0.0766 0.0000
vt 0.3342 0.0778 0.0000
vt 0.3211 0.1054 0.0000
vt 0.3297 0.1073 0.0000
vt 0.3389 0.1095 0.0000
vt 0.3443 0.0791 0.0000
vt 0.3566 0.1131 0.0000
vt 0.3647 0.0815 0.0000
vt 0.3756 0.1172 0.0000
vt 0.3841 0.0841 0.0000
vt 0.3924 0.1209 0.0000
vt 0.3988 0.0866 0.0000
vt 0.4128 0.1245 0.0000
vt 0.4195 0.0889 0.0000
vt 0.4345 0.1278 0.0000
vt 0.4412 0.0909 0.0000
vt 0.4553 0.1305 0.0000
vt 0.4609 0.0927 0.0000
vt 0.4760 0.1327 0.0000
vt 0.4807 0.0940 0.0000
vt 0.5086 0.0953 0.0000
vt 0.5035 0.1349 0.0000
vt 0.5482 0.0968 0.0000
vt 0.5424 0.1373 0.0000
vt 0.5872 0.0978 0.0000
vt 0.5810 0.1390 0.0000
vt 0.6123 0.0981 0.0000
vt 0.6064 0.1397 0.0000
vt 0.3186 0.1304 0.0000
vt 0.3258 0.1330 0.0000
vt 0.3341 0.1359 0.0000
vt 0.3496 0.1406 0.0000
vt 0.3682 0.1459 0.0000
vt 0.3868 0.1507 0.0000
vt 0.4071 0.1555 0.0000
vt 0.4286 0.1599 0.0000
vt 0.4504 0.1635 0.0000
vt 0.4720 0.1663 0.0000
vt 0.4990 0.1693 0.0000
vt 0.5373 0.1725 0.0000
vt 0.5756 0.1750 0.0000
vt 0.6011 0.1759 0.0000
# 70 texture coords

g Z186_325B_R_DTaSI_Z186_325B_R
usemtl windowglass_1SG
s 1
f 1/1/1 2/2/2 3/3/3 
f 3/3/3 2/2/2 4/4/4 
f 5/5/5 6/6/6 4/4/4 
f 4/4/4 6/6/6 3/3/3 
f 7/7/7 8/8/8 5/5/5 
f 5/5/5 8/8/8 6/6/6 
f 9/9/9 10/10/10 7/7/7 
f 7/7/7 10/10/10 8/8/8 
f 11/11/11 12/12/12 9/9/9 
f 9/9/9 12/12/12 10/10/10 
f 13/13/13 14/14/14 11/11/11 
f 11/11/11 14/14/14 12/12/12 
f 15/15/15 16/16/16 13/13/13 
f 13/13/13 16/16/16 14/14/14 
f 17/17/17 18/18/18 15/15/15 
f 15/15/15 18/18/18 16/16/16 
f 18/18/18 17/17/17 19/19/19 
f 19/19/19 17/17/17 20/20/20 
f 19/19/19 20/20/20 21/21/21 
f 21/21/21 20/20/20 22/22/22 
f 23/23/23 24/24/24 25/25/25 
f 25/25/25 24/24/24 26/26/26 
f 25/25/25 26/26/26 27/27/27 
f 27/27/27 26/26/26 28/28/28 
f 27/27/27 28/28/28 1/1/1 
f 1/1/1 28/28/28 2/2/2 
f 29/29/29 30/30/30 31/31/31 
f 31/31/31 30/30/30 32/32/32 
f 33/33/33 32/32/32 34/34/34 
f 34/34/34 32/32/32 30/30/30 
f 33/33/33 34/34/34 35/35/35 
f 35/35/35 34/34/34 36/36/36 
f 35/35/35 36/36/36 37/37/37 
f 37/37/37 36/36/36 38/38/38 
f 37/37/37 38/38/38 39/39/39 
f 39/39/39 38/38/38 40/40/40 
f 39/39/39 40/40/40 41/41/41 
f 41/41/41 40/40/40 42/42/42 
f 41/41/41 42/42/42 43/43/43 
f 43/43/43 42/42/42 44/44/44 
f 43/43/43 44/44/44 45/45/45 
f 45/45/45 44/44/44 46/46/46 
f 45/45/45 46/46/46 47/47/47 
f 47/47/47 46/46/46 48/48/48 
f 49/49/49 50/50/50 48/48/48 
f 48/48/48 50/50/50 47/47/47 
f 51/51/51 52/52/52 49/49/49 
f 49/49/49 52/52/52 50/50/50 
f 53/53/53 54/54/54 51/51/51 
f 51/51/51 54/54/54 52/52/52 
f 55/55/55 56/56/56 53/53/53 
f 53/53/53 56/56/56 54/54/54 
f 31/31/31 32/32/32 57/57/57 
f 57/57/57 32/32/32 58/58/58 
f 59/59/59 58/58/58 33/33/33 
f 33/33/33 58/58/58 32/32/32 
f 33/33/33 35/35/35 59/59/59 
f 59/59/59 35/35/35 60/60/60 
f 60/60/60 35/35/35 61/61/61 
f 61/61/61 35/35/35 37/37/37 
f 37/37/37 39/39/39 61/61/61 
f 61/61/61 39/39/39 62/62/62 
f 39/39/39 41/41/41 62/62/62 
f 62/62/62 41/41/41 63/63/63 
f 63/63/63 41/41/41 64/64/64 
f 64/64/64 41/41/41 43/43/43 
f 64/64/64 43/43/43 65/65/65 
f 65/65/65 43/43/43 45/45/45 
f 65/65/65 45/45/45 66/66/66 
f 66/66/66 45/45/45 47/47/47 
f 50/50/50 67/67/67 47/47/47 
f 47/47/47 67/67/67 66/66/66 
f 52/52/52 68/68/68 50/50/50 
f 50/50/50 68/68/68 67/67/67 
f 54/54/54 69/69/69 52/52/52 
f 52/52/52 69/69/69 68/68/68 
f 56/56/56 70/70/70 54/54/54 
f 54/54/54 70/70/70 69/69/69 
f 20/20/20 30/30/30 22/22/22 
f 22/22/22 30/30/30 29/29/29 
f 17/17/17 34/34/34 20/20/20 
f 20/20/20 34/34/34 30/30/30 
f 34/34/34 17/17/17 36/36/36 
f 36/36/36 17/17/17 15/15/15 
f 36/36/36 15/15/15 38/38/38 
f 38/38/38 15/15/15 13/13/13 
f 38/38/38 13/13/13 40/40/40 
f 40/40/40 13/13/13 11/11/11 
f 40/40/40 11/11/11 42/42/42 
f 42/42/42 11/11/11 9/9/9 
f 42/42/42 9/9/9 44/44/44 
f 44/44/44 9/9/9 7/7/7 
f 44/44/44 7/7/7 46/46/46 
f 46/46/46 7/7/7 5/5/5 
f 46/46/46 5/5/5 48/48/48 
f 48/48/48 5/5/5 4/4/4 
f 2/2/2 49/49/49 4/4/4 
f 4/4/4 49/49/49 48/48/48 
f 28/28/28 51/51/51 2/2/2 
f 2/2/2 51/51/51 49/49/49 
f 26/26/26 53/53/53 28/28/28 
f 28/28/28 53/53/53 51/51/51 
f 24/24/24 55/55/55 26/26/26 
f 26/26/26 55/55/55 53/53/53 
# 104 faces

