# 3ds Max Wavefront OBJ Exporter v0.97b - (c)2007 guruware
# File Created: 30.11.2015 10:41:29

mtllib J731_265B_L.mtl

#
# object J731_265B_L_DTaSI_J731_265B_L
#

v  32.5974 50.7758 -105.2638
v  43.8346 50.0717 -105.2150
v  33.1212 48.1846 -106.0103
v  44.3684 47.4917 -105.9591
v  55.4075 49.3381 -105.1186
v  66.9804 48.6046 -105.0222
v  55.9725 46.7701 -105.8522
v  67.5766 46.0486 -105.7453
v  24.3725 87.3267 -92.8277
v  34.8973 86.8254 -92.6858
v  27.2203 77.5604 -96.7687
v  38.3529 76.8643 -96.6919
v  40.3303 67.0831 -100.1100
v  29.1591 67.8301 -100.1558
v  25.3907 102.6271 -84.9952
v  29.6295 101.5032 -85.5033
v  28.4703 97.0708 -87.9236
v  34.1743 99.9806 -86.2281
v  47.3441 93.5483 -89.0416
v  42.7270 94.4100 -88.7681
v  42.5990 96.1280 -87.9398
v  38.5028 98.1599 -87.0385
v  58.8554 86.2078 -92.0408
v  46.8764 86.5166 -92.3633
v  19.6907 97.1519 -88.1722
v  78.7501 47.8413 -104.8351
v  79.2367 45.3100 -105.5288
v  69.4107 78.5030 -95.1031
v  75.0154 74.4875 -96.4361
v  72.0360 72.1701 -97.4929
v  74.4166 64.2358 -100.1288
v  63.3023 65.3282 -100.0570
v  61.4000 74.3891 -96.9180
v  7.2365 104.4815 -84.5567
v  -0.3051 105.1202 -84.4007
v  6.9166 105.7119 -83.8416
v  -0.5145 106.4380 -83.6269
v  -17.5941 106.4433 -84.0583
v  -16.7328 107.2554 -83.5560
v  -7.8468 105.7590 -84.2447
v  -15.5824 107.5142 -83.3763
v  -12.8501 107.6293 -83.2465
v  -7.9455 107.1641 -83.4122
v  19.0246 103.9382 -84.5159
v  13.4887 104.8979 -84.2389
v  10.9110 97.2329 -88.4207
v  2.0642 97.7532 -88.3914
v  13.8477 87.8280 -92.9695
v  4.2650 88.4734 -92.9318
v  -5.3177 89.1189 -92.8941
v  -15.8674 89.8085 -92.7582
v  -6.7825 98.2735 -88.3622
v  -17.4196 98.9949 -88.1889
v  -18.0558 105.0408 -84.8466
v  6.1429 78.9512 -96.8140
v  16.0877 78.2564 -96.8455
v  17.9879 68.5770 -100.2017
v  7.8672 69.2730 -100.1886
v  -2.2536 69.9690 -100.1755
v  -13.0222 70.6214 -100.1082
v  -3.8020 79.6461 -96.7826
v  -14.3168 80.3079 -96.6825
v  10.9279 52.1336 -105.3511
v  21.3602 51.4799 -105.3125
v  11.3943 49.5232 -106.1087
v  21.8740 48.8775 -106.0615
v  9.6072 59.5253 -103.2061
v  19.9051 58.8489 -103.1917
v  0.4956 52.7872 -105.3897
v  -10.3487 53.4019 -105.3809
v  -0.6908 60.2017 -103.2204
v  -11.5289 60.8338 -103.1868
v  42.3231 57.3772 -103.1082
v  31.1141 58.1131 -103.1499
v  65.2661 55.8354 -102.9832
v  53.7946 56.6063 -103.0457
v  80.6248 64.0343 -100.0019
v  77.3746 54.9820 -102.8995
v  81.5288 54.6891 -102.8707
v  79.9719 70.5416 -97.8064
v  0.9146 50.1688 -106.1558
v  -9.2968 50.7418 -106.1556
v  -10.1565 51.7913 -105.8573
v  -9.8794 51.2250 -106.0213
v  82.1820 47.6188 -104.7806
v  82.4152 45.1087 -105.4698
v  51.8163 66.2057 -100.0835
v  49.8764 75.6268 -96.8049
# 88 vertices

vn 0.0218 0.2809 -0.9595
vn 0.0235 0.2811 -0.9594
vn 0.0217 0.2808 -0.9595
vn 0.0242 0.2815 -0.9593
vn 0.0253 0.2791 -0.9599
vn 0.0277 0.2760 -0.9608
vn 0.0260 0.2797 -0.9597
vn 0.0305 0.2780 -0.9601
vn 0.0314 0.4106 -0.9113
vn 0.0317 0.4092 -0.9119
vn 0.0287 0.3577 -0.9334
vn 0.0297 0.3604 -0.9323
vn 0.0255 0.3171 -0.9481
vn 0.0251 0.3163 -0.9483
vn 0.0290 0.4774 -0.8782
vn 0.0198 0.4752 -0.8797
vn 0.0294 0.4475 -0.8938
vn 0.0301 0.4579 -0.8885
vn 0.0315 0.4254 -0.9045
vn 0.0305 0.4341 -0.9003
vn 0.0214 0.4355 -0.8999
vn 0.0121 0.4300 -0.9027
vn 0.0295 0.3914 -0.9198
vn 0.0343 0.4015 -0.9152
vn 0.0308 0.4535 -0.8907
vn 0.0326 0.2679 -0.9629
vn 0.0346 0.2700 -0.9622
vn 0.0191 0.3744 -0.9271
vn 0.0412 0.3703 -0.9280
vn 0.0267 0.3381 -0.9407
vn 0.0268 0.3070 -0.9513
vn 0.0242 0.3137 -0.9492
vn 0.0239 0.3595 -0.9328
vn 0.0201 0.4825 -0.8756
vn 0.0239 0.4867 -0.8733
vn 0.0199 0.5064 -0.8621
vn 0.0251 0.5093 -0.8602
vn 0.0179 0.4917 -0.8706
vn 0.0194 0.5109 -0.8594
vn 0.0204 0.4876 -0.8728
vn 0.0194 0.5107 -0.8595
vn 0.0193 0.5106 -0.8596
vn 0.0225 0.5107 -0.8594
vn 0.0357 0.4767 -0.8783
vn 0.0247 0.4743 -0.8800
vn 0.0259 0.4564 -0.8894
vn 0.0244 0.4607 -0.8872
vn 0.0279 0.4111 -0.9112
vn 0.0241 0.4124 -0.9107
vn 0.0195 0.4139 -0.9101
vn 0.0152 0.4197 -0.9075
vn 0.0202 0.4629 -0.8862
vn 0.0168 0.4655 -0.8849
vn 0.0174 0.4852 -0.8742
vn 0.0220 0.3568 -0.9339
vn 0.0258 0.3566 -0.9339
vn 0.0232 0.3153 -0.9487
vn 0.0205 0.3157 -0.9486
vn 0.0170 0.3167 -0.9484
vn 0.0128 0.3197 -0.9474
vn 0.0178 0.3577 -0.9337
vn 0.0133 0.3619 -0.9321
vn 0.0209 0.2818 -0.9592
vn 0.0216 0.2805 -0.9596
vn 0.0215 0.2820 -0.9592
vn 0.0217 0.2805 -0.9596
vn 0.0204 0.2916 -0.9563
vn 0.0219 0.2906 -0.9566
vn 0.0182 0.2832 -0.9589
vn 0.0144 0.2844 -0.9586
vn 0.0173 0.2928 -0.9560
vn 0.0135 0.2950 -0.9554
vn 0.0237 0.2918 -0.9562
vn 0.0228 0.2911 -0.9564
vn 0.0253 0.2890 -0.9570
vn 0.0250 0.2910 -0.9564
vn 0.0292 0.3061 -0.9515
vn 0.0284 0.2834 -0.9586
vn 0.0273 0.2817 -0.9591
vn 0.0304 0.3282 -0.9441
vn 0.0190 0.2834 -0.9588
vn 0.0156 0.2843 -0.9586
vn 0.0154 0.2853 -0.9583
vn 0.0154 0.2851 -0.9584
vn 0.0329 0.2650 -0.9637
vn 0.0348 0.2676 -0.9629
vn 0.0262 0.3163 -0.9483
vn 0.0303 0.3626 -0.9315
# 88 vertex normals

vt 0.2442 0.0223 0.0000
vt 0.2086 0.0221 0.0000
vt 0.2421 0.0143 0.0000
vt 0.2065 0.0141 0.0000
vt 0.1720 0.0218 0.0000
vt 0.1354 0.0216 0.0000
vt 0.1698 0.0138 0.0000
vt 0.1331 0.0136 0.0000
vt 0.2765 0.1361 0.0000
vt 0.2433 0.1363 0.0000
vt 0.2658 0.1058 0.0000
vt 0.2306 0.1056 0.0000
vt 0.2227 0.0751 0.0000
vt 0.2580 0.0755 0.0000
vt 0.2760 0.1844 0.0000
vt 0.2625 0.1817 0.0000
vt 0.2654 0.1675 0.0000
vt 0.2479 0.1777 0.0000
vt 0.2053 0.1597 0.0000
vt 0.2200 0.1616 0.0000
vt 0.2207 0.1670 0.0000
vt 0.2339 0.1727 0.0000
vt 0.1677 0.1386 0.0000
vt 0.2055 0.1375 0.0000
vt 0.2930 0.1662 0.0000
vt 0.0982 0.0212 0.0000
vt 0.0962 0.0133 0.0000
vt 0.1331 0.1162 0.0000
vt 0.1147 0.1045 0.0000
vt 0.1237 0.0967 0.0000
vt 0.1148 0.0721 0.0000
vt 0.1500 0.0736 0.0000
vt 0.1576 0.1018 0.0000
vt 0.3336 0.1871 0.0000
vt 0.3575 0.1878 0.0000
vt 0.3348 0.1909 0.0000
vt 0.3583 0.1919 0.0000
vt 0.4122 0.1889 0.0000
vt 0.4096 0.1916 0.0000
vt 0.3813 0.1884 0.0000
vt 0.4060 0.1926 0.0000
vt 0.3974 0.1935 0.0000
vt 0.3819 0.1929 0.0000
vt 0.2963 0.1875 0.0000
vt 0.3139 0.1895 0.0000
vt 0.3207 0.1649 0.0000
vt 0.3487 0.1650 0.0000
vt 0.3098 0.1358 0.0000
vt 0.3401 0.1361 0.0000
vt 0.3704 0.1365 0.0000
vt 0.4038 0.1368 0.0000
vt 0.3767 0.1650 0.0000
vt 0.4103 0.1654 0.0000
vt 0.4134 0.1844 0.0000
vt 0.3325 0.1064 0.0000
vt 0.3011 0.1060 0.0000
vt 0.2934 0.0758 0.0000
vt 0.3254 0.0762 0.0000
vt 0.3574 0.0767 0.0000
vt 0.3914 0.0768 0.0000
vt 0.3640 0.1069 0.0000
vt 0.3972 0.1071 0.0000
vt 0.3127 0.0228 0.0000
vt 0.2797 0.0226 0.0000
vt 0.3108 0.0146 0.0000
vt 0.2776 0.0145 0.0000
vt 0.3182 0.0458 0.0000
vt 0.2856 0.0455 0.0000
vt 0.3457 0.0230 0.0000
vt 0.3800 0.0230 0.0000
vt 0.3507 0.0462 0.0000
vt 0.3850 0.0462 0.0000
vt 0.2147 0.0448 0.0000
vt 0.2501 0.0452 0.0000
vt 0.1421 0.0440 0.0000
vt 0.1784 0.0444 0.0000
vt 0.0952 0.0726 0.0000
vt 0.1038 0.0435 0.0000
vt 0.0907 0.0433 0.0000
vt 0.0984 0.0930 0.0000
vt 0.3439 0.0148 0.0000
vt 0.3762 0.0148 0.0000
vt 0.3791 0.0180 0.0000
vt 0.3781 0.0162 0.0000
vt 0.0874 0.0211 0.0000
vt 0.0862 0.0133 0.0000
vt 0.1863 0.0743 0.0000
vt 0.1941 0.1037 0.0000
# 88 texture coords

g J731_265B_L_DTaSI_J731_265B_L
usemtl windowglass_1SG
s 1
f 1/1/1 2/2/2 3/3/3 
f 3/3/3 2/2/2 4/4/4 
f 5/5/5 6/6/6 7/7/7 
f 7/7/7 6/6/6 8/8/8 
f 9/9/9 10/10/10 11/11/11 
f 11/11/11 10/10/10 12/12/12 
f 13/13/13 14/14/14 12/12/12 
f 12/12/12 14/14/14 11/11/11 
f 15/15/15 16/16/16 17/17/17 
f 17/17/17 16/16/16 18/18/18 
f 19/19/19 20/20/20 21/21/21 
f 17/17/17 18/18/18 20/20/20 
f 18/18/18 22/22/22 20/20/20 
f 22/22/22 21/21/21 20/20/20 
f 23/23/23 24/24/24 19/19/19 
f 19/19/19 24/24/24 20/20/20 
f 10/10/10 9/9/9 17/17/17 
f 17/17/17 9/9/9 25/25/25 
f 6/6/6 26/26/26 8/8/8 
f 8/8/8 26/26/26 27/27/27 
f 28/28/28 29/29/29 30/30/30 
f 31/31/31 32/32/32 30/30/30 
f 30/30/30 32/32/32 33/33/33 
f 23/23/23 28/28/28 33/33/33 
f 33/33/33 28/28/28 30/30/30 
f 34/34/34 35/35/35 36/36/36 
f 36/36/36 35/35/35 37/37/37 
f 38/38/38 39/39/39 40/40/40 
f 39/39/39 41/41/41 40/40/40 
f 41/41/41 42/42/42 40/40/40 
f 40/40/40 42/42/42 43/43/43 
f 17/17/17 25/25/25 15/15/15 
f 15/15/15 25/25/25 44/44/44 
f 36/36/36 45/45/45 34/34/34 
f 34/34/34 45/45/45 46/46/46 
f 46/46/46 45/45/45 25/25/25 
f 45/45/45 44/44/44 25/25/25 
f 35/35/35 34/34/34 47/47/47 
f 47/47/47 34/34/34 46/46/46 
f 48/48/48 49/49/49 46/46/46 
f 46/46/46 49/49/49 47/47/47 
f 50/50/50 51/51/51 52/52/52 
f 52/52/52 51/51/51 53/53/53 
f 52/52/52 53/53/53 40/40/40 
f 38/38/38 40/40/40 54/54/54 
f 53/53/53 54/54/54 40/40/40 
f 49/49/49 48/48/48 55/55/55 
f 55/55/55 48/48/48 56/56/56 
f 57/57/57 58/58/58 56/56/56 
f 56/56/56 58/58/58 55/55/55 
f 59/59/59 60/60/60 61/61/61 
f 61/61/61 60/60/60 62/62/62 
f 51/51/51 50/50/50 62/62/62 
f 62/62/62 50/50/50 61/61/61 
f 63/63/63 64/64/64 65/65/65 
f 65/65/65 64/64/64 66/66/66 
f 58/58/58 57/57/57 67/67/67 
f 67/67/67 57/57/57 68/68/68 
f 64/64/64 63/63/63 68/68/68 
f 68/68/68 63/63/63 67/67/67 
f 69/69/69 70/70/70 71/71/71 
f 71/71/71 70/70/70 72/72/72 
f 60/60/60 59/59/59 72/72/72 
f 72/72/72 59/59/59 71/71/71 
f 2/2/2 1/1/1 73/73/73 
f 73/73/73 1/1/1 74/74/74 
f 14/14/14 13/13/13 74/74/74 
f 74/74/74 13/13/13 73/73/73 
f 6/6/6 5/5/5 75/75/75 
f 75/75/75 5/5/5 76/76/76 
f 31/31/31 77/77/77 78/78/78 
f 78/78/78 77/77/77 79/79/79 
f 32/32/32 31/31/31 75/75/75 
f 75/75/75 31/31/31 78/78/78 
f 30/30/30 29/29/29 80/80/80 
f 81/81/81 82/82/82 69/69/69 
f 70/70/70 69/69/69 83/83/83 
f 83/83/83 69/69/69 84/84/84 
f 82/82/82 84/84/84 69/69/69 
f 26/26/26 6/6/6 78/78/78 
f 78/78/78 6/6/6 75/75/75 
f 30/30/30 80/80/80 31/31/31 
f 31/31/31 80/80/80 77/77/77 
f 85/85/85 26/26/26 79/79/79 
f 79/79/79 26/26/26 78/78/78 
f 26/26/26 85/85/85 27/27/27 
f 27/27/27 85/85/85 86/86/86 
f 87/87/87 32/32/32 76/76/76 
f 76/76/76 32/32/32 75/75/75 
f 88/88/88 33/33/33 87/87/87 
f 87/87/87 33/33/33 32/32/32 
f 33/33/33 88/88/88 23/23/23 
f 23/23/23 88/88/88 24/24/24 
f 2/2/2 5/5/5 4/4/4 
f 4/4/4 5/5/5 7/7/7 
f 5/5/5 2/2/2 76/76/76 
f 76/76/76 2/2/2 73/73/73 
f 13/13/13 87/87/87 73/73/73 
f 73/73/73 87/87/87 76/76/76 
f 12/12/12 88/88/88 13/13/13 
f 13/13/13 88/88/88 87/87/87 
f 88/88/88 12/12/12 24/24/24 
f 24/24/24 12/12/12 10/10/10 
f 17/17/17 20/20/20 10/10/10 
f 10/10/10 20/20/20 24/24/24 
f 64/64/64 1/1/1 66/66/66 
f 66/66/66 1/1/1 3/3/3 
f 1/1/1 64/64/64 74/74/74 
f 74/74/74 64/64/64 68/68/68 
f 57/57/57 14/14/14 68/68/68 
f 68/68/68 14/14/14 74/74/74 
f 14/14/14 57/57/57 11/11/11 
f 11/11/11 57/57/57 56/56/56 
f 48/48/48 9/9/9 56/56/56 
f 56/56/56 9/9/9 11/11/11 
f 9/9/9 48/48/48 25/25/25 
f 25/25/25 48/48/48 46/46/46 
f 69/69/69 63/63/63 81/81/81 
f 81/81/81 63/63/63 65/65/65 
f 63/63/63 69/69/69 67/67/67 
f 67/67/67 69/69/69 71/71/71 
f 59/59/59 58/58/58 71/71/71 
f 71/71/71 58/58/58 67/67/67 
f 58/58/58 59/59/59 55/55/55 
f 55/55/55 59/59/59 61/61/61 
f 50/50/50 49/49/49 61/61/61 
f 61/61/61 49/49/49 55/55/55 
f 49/49/49 50/50/50 47/47/47 
f 47/47/47 50/50/50 52/52/52 
f 40/40/40 35/35/35 52/52/52 
f 52/52/52 35/35/35 47/47/47 
f 35/35/35 40/40/40 37/37/37 
f 37/37/37 40/40/40 43/43/43 
# 133 faces

