# 3ds Max Wavefront OBJ Exporter v0.97b - (c)2007 guruware
# File Created: 30.11.2015 10:40:54

mtllib J731_226A_R.mtl

#
# object J731_226A_R_D_J731_226A_R
#

v  -94.5575 -31.0667 103.4596
v  -94.5539 -30.8081 102.7917
v  -96.9679 -31.0348 103.4458
v  -96.9679 -30.7774 102.7783
v  -90.0425 -31.1149 103.5477
v  -90.0335 -30.8547 102.8792
v  -81.2932 -31.2547 103.8097
v  -81.2843 -30.9944 103.1411
v  -67.4073 -31.4460 104.0883
v  -67.4052 -31.2032 103.4279
v  -47.4985 -31.8708 104.1980
v  -47.5020 -31.6783 103.5663
v  -24.9052 -32.2536 104.2388
v  -24.9105 -32.1085 103.6388
v  -14.2006 -32.4711 104.2481
v  -2.9143 -32.5632 103.6735
v  19.6096 -33.2402 104.2597
v  19.6014 -33.1238 103.6835
v  -2.9069 -32.6885 104.2575
v  43.7734 -33.7886 104.2653
v  43.7633 -33.6883 103.7048
v  68.2945 -34.4822 104.1524
v  68.2812 -34.4052 103.6166
v  91.9097 -35.0651 103.8294
v  91.8936 -34.9884 103.2939
v  110.9179 -35.5623 103.4105
v  110.8951 -35.4669 102.8553
v  121.5865 -35.9774 103.0162
v  121.5565 -35.8519 102.4341
v  128.1601 -36.1430 102.6276
v  128.1279 -35.9956 102.0266
v  121.3957 -36.3735 103.4135
v  127.8883 -36.7124 103.0211
v  127.5826 -37.5723 102.8388
v  121.1129 -37.3026 103.2311
v  110.7560 -35.9635 103.8145
v  110.5211 -36.9497 103.6340
v  120.6612 -40.7672 101.0194
v  126.9332 -40.9411 100.6271
v  120.8037 -39.5857 102.0604
v  127.1515 -39.7886 101.6681
v  126.7065 -42.0913 99.4299
v  120.5131 -41.9476 99.8222
v  110.2476 -40.5468 101.4437
v  110.1667 -41.7741 100.2551
v  110.3254 -39.3201 102.4764
v  91.8225 -35.4117 104.2328
v  91.6852 -36.4307 104.0578
v  80.0410 -35.1053 104.3914
v  79.9502 -36.1320 104.2191
v  80.1021 -34.7736 103.9909
v  91.5509 -40.2334 101.9318
v  91.5143 -41.5414 100.7691
v  79.8371 -41.3700 100.9755
v  79.8614 -40.0255 102.1253
v  91.5862 -38.9291 102.9396
v  79.8847 -38.6861 103.1206
v  -47.5497 -32.4249 104.5579
v  -47.5066 -33.4336 104.4098
v  -24.9991 -32.6894 104.6015
v  -24.9891 -33.7214 104.4387
v  -67.2738 -33.2309 104.3014
v  -67.3587 -32.2454 104.4325
v  -39.8118 -37.6790 102.0950
v  -47.3697 -37.0178 102.4919
v  -47.3563 -38.3745 101.3763
v  -66.9769 -37.7898 101.3628
v  -27.5985 -36.3873 103.3164
v  -23.0661 -37.8163 102.3298
v  -24.9524 -39.0444 101.3039
v  -54.9540 -36.4541 102.8638
v  -68.9451 -36.4748 102.5265
v  -67.6036 -35.4469 103.3653
v  -49.3239 -35.6926 103.5045
v  43.7107 -39.2901 102.4391
v  43.7078 -40.6956 101.3110
v  55.9412 -39.5538 102.3789
v  55.9339 -40.9472 101.2464
v  31.6181 -40.4134 101.3048
v  31.6204 -39.0080 102.4330
v  43.7135 -37.8921 103.4137
v  31.6227 -37.6099 103.4076
v  55.9483 -38.1675 103.3576
v  43.7320 -34.2056 104.6471
v  43.7212 -35.2452 104.4794
v  55.9958 -34.5022 104.5985
v  55.9682 -35.5393 104.4298
v  31.6291 -34.9632 104.4733
v  31.6380 -33.9235 104.6410
v  31.6915 -33.5144 104.2625
v  56.0340 -34.1354 104.2089
v  -80.6871 -36.3706 102.1835
v  -80.5714 -37.4837 101.1224
v  -89.0796 -37.3587 100.8568
v  -89.2223 -36.2456 101.9240
v  -80.7983 -35.2539 103.0935
v  -89.3596 -35.1289 102.8399
v  -81.1327 -32.0744 104.1652
v  -81.0079 -33.0522 104.0456
v  -89.6219 -32.9271 103.7986
v  -89.7873 -31.9495 103.9114
v  -67.2010 -34.3318 103.9513
v  -80.9009 -34.1299 103.7013
v  -89.4861 -34.0048 103.4530
v  -24.9802 -34.9618 104.0473
v  -47.4698 -34.6043 104.0393
v  43.7160 -36.5089 104.0810
v  55.9548 -36.7952 104.0288
v  31.6248 -36.2268 104.0749
v  110.3971 -38.0948 103.1972
v  91.6187 -37.6324 103.6375
v  79.9062 -37.3569 103.8070
v  120.9349 -38.4021 102.7889
v  127.3524 -38.6317 102.3965
v  -94.2382 -31.9078 103.8269
v  -94.0291 -32.8855 103.7163
v  -96.3328 -32.8855 103.7163
v  -96.5873 -31.9078 103.8269
v  -93.8735 -33.9632 103.3703
v  -93.7391 -35.0872 102.7553
v  -96.0277 -35.0872 102.7553
v  -96.1621 -33.9632 103.3703
v  -93.5931 -36.2040 101.8375
v  -93.4414 -37.3170 100.7684
v  -95.7299 -37.3170 100.7684
v  -95.8817 -36.2040 101.8375
v  -3.0070 -38.2000 102.4154
v  -3.0080 -39.6054 101.2872
v  8.2616 -38.4629 102.4211
v  8.2602 -39.8684 101.2929
v  -14.1918 -39.3249 101.2956
v  -14.3031 -38.0081 102.3726
v  -14.0359 -36.5946 103.3532
v  -3.0062 -36.8019 103.3900
v  8.2629 -37.0649 103.3957
v  -3.0054 -35.4188 104.0573
v  8.2641 -35.6818 104.0630
v  -14.1904 -35.1903 104.0522
v  -3.0038 -34.1551 104.4556
v  -14.1899 -33.9383 104.4471
v  8.2666 -34.4181 104.4614
v  -3.0005 -33.1155 104.6233
v  8.2717 -33.3784 104.6291
v  -14.1895 -32.9025 104.6124
v  8.3513 -32.9644 104.2586
v  68.1599 -41.1987 101.1818
v  68.1718 -39.8176 102.3187
v  68.1832 -38.4430 103.3015
v  68.1937 -37.0815 103.9765
v  68.2152 -35.8333 104.3804
v  68.2596 -34.7988 104.5499
v  19.5284 -40.1313 101.2986
v  19.5302 -38.7258 102.4269
v  19.5320 -37.3278 103.4014
v  19.5336 -35.9447 104.0687
v  19.5370 -34.6810 104.4671
v  19.5439 -33.6413 104.6348
# 157 vertices

vn 0.0053 0.9325 0.3612
vn 0.0053 0.9326 0.3610
vn 0.0100 0.9329 0.3601
vn 0.0099 0.9330 0.3598
vn 0.0036 0.9319 0.3627
vn 0.0036 0.9319 0.3626
vn 0.0056 0.9320 0.3625
vn 0.0055 0.9318 0.3628
vn 0.0143 0.9387 0.3444
vn 0.0142 0.9384 0.3453
vn 0.0180 0.9566 0.2908
vn 0.0180 0.9563 0.2919
vn 0.0179 0.9719 0.2348
vn 0.0179 0.9717 0.2354
vn 0.0196 0.9734 0.2284
vn 0.0197 0.9723 0.2329
vn 0.0233 0.9800 0.1974
vn 0.0233 0.9800 0.1977
vn 0.0224 0.9776 0.2093
vn 0.0224 0.9776 0.2094
vn 0.0259 0.9842 0.1754
vn 0.0258 0.9841 0.1758
vn 0.0275 0.9896 0.1414
vn 0.0275 0.9895 0.1417
vn 0.0272 0.9896 0.1412
vn 0.0272 0.9896 0.1410
vn 0.0342 0.9851 0.1684
vn 0.0340 0.9853 0.1676
vn 0.0414 0.9770 0.2092
vn 0.0413 0.9773 0.2077
vn 0.0384 0.9710 0.2360
vn 0.0382 0.9714 0.2345
vn 0.0609 0.6922 0.7192
vn 0.0638 0.5524 0.8312
vn 0.0657 0.6862 0.7244
vn 0.0631 0.5469 0.8348
vn 0.0472 -0.2233 0.9736
vn 0.0387 -0.2044 0.9781
vn 0.0436 -0.3080 0.9504
vn 0.0333 -0.2979 0.9540
vn 0.0225 -0.1855 0.9824
vn 0.0186 -0.2786 0.9602
vn 0.0397 0.7016 0.7115
vn 0.0428 0.7003 0.7126
vn 0.0188 -0.6883 0.7251
vn 0.0240 -0.6971 0.7166
vn 0.0215 -0.5993 0.8002
vn 0.0286 -0.6067 0.7944
vn 0.0239 -0.7216 0.6919
vn 0.0190 -0.7121 0.7019
vn 0.0104 -0.6710 0.7414
vn 0.0113 -0.6948 0.7191
vn 0.0111 -0.5814 0.8136
vn 0.0144 -0.1714 0.9851
vn 0.0120 -0.2607 0.9653
vn 0.0091 -0.1664 0.9860
vn 0.0075 -0.2514 0.9679
vn 0.0281 0.7680 0.6399
vn 0.0326 0.7548 0.6552
vn 0.0282 0.7676 0.6403
vn 0.0334 0.7539 0.6561
vn 0.0080 -0.6394 0.7688
vn 0.0089 -0.6645 0.7472
vn 0.0026 -0.6506 0.7594
vn 0.0019 -0.6243 0.7812
vn 0.0079 -0.5486 0.8361
vn 0.0022 -0.5331 0.8461
vn -0.0052 -0.1452 0.9894
vn -0.0060 -0.2314 0.9728
vn -0.0035 -0.1557 0.9878
vn -0.0047 -0.2371 0.9715
vn -0.0133 -0.2248 0.9743
vn -0.0131 -0.1328 0.9911
vn 0.0023 0.5445 0.8387
vn 0.0025 0.5428 0.8398
vn -0.0030 0.3968 0.9179
vn -0.0037 0.3953 0.9186
vn 0.0100 0.6371 0.7707
vn 0.0103 0.6384 0.7696
vn -0.0148 -0.6237 0.7815
vn -0.0150 -0.6271 0.7788
vn -0.0182 -0.6348 0.7725
vn -0.0193 -0.6773 0.7355
vn -0.0113 -0.5193 0.8545
vn -0.0139 -0.6083 0.7936
vn -0.0160 -0.6265 0.7793
vn -0.0146 -0.6395 0.7686
vn -0.0246 -0.6549 0.7553
vn -0.0190 -0.5370 0.8434
vn -0.0096 -0.5060 0.8625
vn -0.0119 -0.6000 0.7999
vn -0.0123 -0.6261 0.7796
vn -0.0091 -0.6048 0.7963
vn -0.0093 -0.6309 0.7758
vn -0.0150 -0.6259 0.7798
vn -0.0144 -0.5999 0.7999
vn -0.0100 -0.5084 0.8611
vn -0.0123 -0.5083 0.8611
vn -0.0076 -0.5132 0.8582
vn -0.0021 -0.1593 0.9872
vn -0.0039 -0.2386 0.9711
vn 0.0001 -0.1605 0.9870
vn -0.0018 -0.2410 0.9705
vn -0.0061 -0.2386 0.9711
vn -0.0042 -0.1592 0.9872
vn 0.0153 0.6780 0.7349
vn 0.0171 0.6743 0.7382
vn 0.0153 0.6779 0.7350
vn 0.0173 0.6750 0.7376
vn 0.0220 0.7261 0.6873
vn 0.0220 0.7276 0.6857
vn -0.0298 -0.6636 0.7475
vn -0.0294 -0.6909 0.7223
vn -0.0287 -0.6935 0.7199
vn -0.0285 -0.6657 0.7457
vn -0.0292 -0.5586 0.8289
vn -0.0287 -0.5641 0.8252
vn -0.0248 -0.1243 0.9919
vn -0.0252 -0.2212 0.9749
vn -0.0278 -0.2184 0.9755
vn -0.0265 -0.1189 0.9925
vn -0.0157 0.3952 0.9185
vn -0.0167 0.3950 0.9185
vn -0.0193 0.3945 0.9187
vn -0.0180 0.3948 0.9186
vn -0.0150 -0.3854 0.9226
vn -0.0270 -0.3963 0.9177
vn -0.0285 -0.3998 0.9161
vn -0.0073 -0.3780 0.9258
vn -0.0067 -0.3695 0.9292
vn -0.0071 -0.3735 0.9276
vn -0.0048 -0.3776 0.9259
vn -0.0092 -0.3735 0.9276
vn 0.0143 -0.4387 0.8985
vn 0.0094 -0.4088 0.9126
vn 0.0045 -0.3949 0.9187
vn 0.0271 -0.4574 0.8889
vn 0.0362 -0.4660 0.8841
vn -0.0118 -0.1149 0.9933
vn -0.0136 -0.2153 0.9764
vn 0.0000 -0.2040 0.9790
vn 0.0000 -0.1124 0.9937
vn -0.0102 0.3968 0.9178
vn -0.0075 0.3977 0.9175
vn 0.0000 0.4001 0.9165
vn -0.0139 -0.3992 0.9167
vn -0.0139 -0.5641 0.8256
vn 0.0000 -0.5595 0.8288
vn 0.0000 -0.3928 0.9196
vn -0.0138 -0.6657 0.7461
vn -0.0143 -0.6936 0.7202
vn 0.0000 -0.6927 0.7212
vn 0.0000 -0.6634 0.7482
vn -0.0143 -0.6000 0.7998
vn -0.0151 -0.6259 0.7797
vn -0.0144 -0.6000 0.7999
vn -0.0153 -0.6329 0.7741
vn -0.0150 -0.6013 0.7988
vn -0.0119 -0.5100 0.8601
vn -0.0124 -0.5082 0.8611
vn -0.0091 -0.3735 0.9276
vn -0.0083 -0.3811 0.9245
vn -0.0057 -0.2385 0.9711
vn -0.0055 -0.2378 0.9713
vn -0.0040 -0.1592 0.9872
vn -0.0040 -0.1575 0.9875
vn 0.0120 0.6452 0.7639
vn 0.0132 0.6489 0.7607
vn 0.0120 0.6454 0.7637
vn 0.0135 0.6492 0.7605
vn 0.0157 0.6648 0.7468
vn 0.0157 0.6654 0.7464
vn -0.0037 -0.6362 0.7715
vn -0.0040 -0.6098 0.7925
vn -0.0030 -0.5183 0.8552
vn -0.0005 -0.3820 0.9242
vn 0.0026 -0.2435 0.9699
vn 0.0046 -0.1621 0.9868
vn 0.0267 0.7800 0.6252
vn 0.0269 0.7806 0.6245
vn -0.0092 -0.3734 0.9276
vn 0.0161 0.6813 0.7318
vn 0.0160 0.6815 0.7317
vn 0.0187 0.9776 0.2095
# 184 vertex normals

g J731_226A_R_D_J731_226A_R
usemtl diffuse_black_plasticSG
s 1
f 1//1 2//2 3//3 
f 3//3 2//2 4//4 
f 5//5 6//6 1//1 
f 1//1 6//6 2//2 
f 7//7 8//8 5//5 
f 5//5 8//8 6//6 
f 9//9 10//10 7//7 
f 7//7 10//10 8//8 
f 11//11 12//12 9//9 
f 9//9 12//12 10//10 
f 13//13 14//14 11//11 
f 11//11 14//14 12//12 
f 15//15 16//16 13//13 
f 13//13 16//16 14//14 
s 7
f 17//17 18//18 19//19 
f 19//19 18//18 16//20 
f 20//21 21//22 17//17 
f 17//17 21//22 18//18 
f 22//23 23//24 20//21 
f 20//21 23//24 21//22 
f 24//25 25//26 22//23 
f 22//23 25//26 23//24 
f 26//27 27//28 24//25 
f 24//25 27//28 25//26 
f 28//29 29//30 26//27 
f 26//27 29//30 27//28 
f 30//31 31//32 28//29 
f 28//29 31//32 29//30 
s 13
f 32//33 33//34 28//35 
f 28//35 33//34 30//36 
s 14
f 33//37 32//38 34//39 
f 34//39 32//38 35//40 
f 32//38 36//41 35//40 
f 35//40 36//41 37//42 
s 13
f 36//43 32//33 26//44 
f 26//44 32//33 28//35 
s 14
f 38//45 39//46 40//47 
f 40//47 39//46 41//48 
f 39//46 38//45 42//49 
f 42//49 38//45 43//50 
f 38//45 44//51 43//50 
f 43//50 44//51 45//52 
f 44//51 38//45 46//53 
f 46//53 38//45 40//47 
f 36//41 47//54 37//42 
f 37//42 47//54 48//55 
f 47//54 49//56 48//55 
f 48//55 49//56 50//57 
s 13
f 49//58 47//59 51//60 
f 51//60 47//59 24//61 
f 47//59 36//43 24//61 
f 24//61 36//43 26//44 
s 14
f 44//51 52//62 45//52 
f 45//52 52//62 53//63 
f 53//63 52//62 54//64 
f 54//64 52//62 55//65 
f 52//62 56//66 55//65 
f 55//65 56//66 57//67 
f 52//62 44//51 56//66 
f 56//66 44//51 46//53 
f 58//68 59//69 60//70 
f 60//70 59//69 61//71 
f 59//69 58//68 62//72 
f 62//72 58//68 63//73 
s 13
f 58//74 11//75 63//76 
f 63//76 11//75 9//77 
f 58//74 60//78 11//75 
f 11//75 60//78 13//79 
s 14
f 64//80 65//81 66//82 
f 66//82 65//81 67//83 
f 65//81 64//80 68//84 
f 68//84 64//80 69//85 
f 69//85 64//80 70//86 
f 70//86 64//80 66//82 
f 65//81 71//87 67//83 
f 67//83 71//87 72//88 
f 72//88 71//87 73//89 
f 73//89 71//87 74//90 
f 71//87 65//81 74//90 
f 74//90 65//81 68//84 
f 75//91 76//92 77//93 
f 77//93 76//92 78//94 
f 76//92 75//91 79//95 
f 79//95 75//91 80//96 
f 75//91 81//97 80//96 
f 80//96 81//97 82//98 
f 81//97 75//91 83//99 
f 83//99 75//91 77//93 
f 84//100 85//101 86//102 
f 86//102 85//101 87//103 
f 85//101 84//100 88//104 
f 88//104 84//100 89//105 
s 13
f 89//106 84//107 90//108 
f 90//108 84//107 20//109 
f 84//107 86//110 20//109 
f 20//109 86//110 91//111 
s 14
f 92//112 93//113 72//88 
f 72//88 93//113 67//83 
f 93//113 92//112 94//114 
f 94//114 92//112 95//115 
f 92//112 96//116 95//115 
f 95//115 96//116 97//117 
f 92//112 72//88 96//116 
f 96//116 72//88 73//89 
f 98//118 99//119 63//73 
f 63//73 99//119 62//72 
f 99//119 98//118 100//120 
f 100//120 98//118 101//121 
s 13
f 98//122 7//123 101//124 
f 101//124 7//123 5//125 
f 7//123 98//122 9//77 
f 9//77 98//122 63//76 
s 14
f 102//126 103//127 73//89 
f 73//89 103//127 96//116 
f 96//116 103//127 97//117 
f 97//117 103//127 104//128 
f 103//127 99//119 104//128 
f 104//128 99//119 100//120 
f 99//119 103//127 62//72 
f 62//72 103//127 102//126 
f 105//129 106//130 68//84 
f 68//84 106//130 74//90 
f 106//130 102//126 74//90 
f 74//90 102//126 73//89 
f 106//130 59//69 102//126 
f 102//126 59//69 62//72 
f 59//69 106//130 61//71 
f 61//71 106//130 105//129 
f 107//131 81//97 108//132 
f 108//132 81//97 83//99 
f 81//97 107//131 82//98 
f 82//98 107//131 109//133 
f 107//131 85//101 109//133 
f 109//133 85//101 88//104 
f 85//101 107//131 87//103 
f 87//103 107//131 108//132 
f 110//134 111//135 46//53 
f 46//53 111//135 56//66 
f 56//66 111//135 57//67 
f 57//67 111//135 112//136 
f 112//136 111//135 50//57 
f 50//57 111//135 48//55 
f 111//135 110//134 48//55 
f 48//55 110//134 37//42 
f 113//137 114//138 35//40 
f 35//40 114//138 34//39 
f 114//138 113//137 41//48 
f 41//48 113//137 40//47 
f 113//137 110//134 40//47 
f 40//47 110//134 46//53 
f 110//134 113//137 37//42 
f 37//42 113//137 35//40 
f 115//139 116//140 101//121 
f 101//121 116//140 100//120 
f 116//140 115//139 117//141 
f 117//141 115//139 118//142 
s 13
f 115//143 1//144 118//145 
f 118//145 1//144 3//145 
f 1//144 115//143 5//125 
f 5//125 115//143 101//124 
s 14
f 119//146 120//147 104//128 
f 104//128 120//147 97//117 
f 120//147 119//146 121//148 
f 121//148 119//146 122//149 
f 119//146 116//140 122//149 
f 122//149 116//140 117//141 
f 116//140 119//146 100//120 
f 100//120 119//146 104//128 
f 123//150 124//151 95//115 
f 95//115 124//151 94//114 
f 124//151 123//150 125//152 
f 125//152 123//150 126//153 
f 123//150 120//147 126//153 
f 126//153 120//147 121//148 
f 120//147 123//150 97//117 
f 97//117 123//150 95//115 
f 127//154 128//155 129//156 
f 129//156 128//155 130//95 
f 128//155 127//154 131//157 
f 131//157 127//154 132//158 
f 132//158 127//154 133//159 
f 133//159 127//154 134//160 
f 134//160 127//154 135//98 
f 135//98 127//154 129//156 
f 136//161 134//160 137//133 
f 137//133 134//160 135//98 
f 134//160 136//161 133//159 
f 133//159 136//161 138//162 
f 136//161 139//163 138//162 
f 138//162 139//163 140//164 
f 139//163 136//161 141//104 
f 141//104 136//161 137//133 
f 142//165 139//163 143//105 
f 143//105 139//163 141//104 
f 139//163 142//165 140//164 
f 140//164 142//165 144//166 
s 13
f 144//167 142//168 15//169 
f 15//169 142//168 19//170 
f 142//168 143//171 19//170 
f 19//170 143//171 145//172 
s 14
f 54//64 55//65 146//173 
f 146//173 55//65 147//174 
f 55//65 57//67 147//174 
f 147//174 57//67 148//175 
f 149//176 148//175 112//136 
f 112//136 148//175 57//67 
f 112//136 50//57 149//176 
f 149//176 50//57 150//177 
f 49//56 151//178 50//57 
f 50//57 151//178 150//177 
s 13
f 151//179 49//58 22//180 
f 22//180 49//58 51//60 
f 86//110 151//179 91//111 
f 91//111 151//179 22//180 
s 14
f 151//178 86//102 150//177 
f 150//177 86//102 87//103 
f 149//176 150//177 108//132 
f 108//132 150//177 87//103 
f 108//132 83//99 149//176 
f 149//176 83//99 148//175 
f 147//174 148//175 77//93 
f 77//93 148//175 83//99 
f 77//93 78//94 147//174 
f 147//174 78//94 146//173 
f 79//95 80//96 152//95 
f 152//95 80//96 153//96 
f 80//96 82//98 153//96 
f 153//96 82//98 154//98 
f 155//181 154//98 109//133 
f 109//133 154//98 82//98 
f 109//133 88//104 155//181 
f 155//181 88//104 156//104 
f 157//105 156//104 89//105 
f 89//105 156//104 88//104 
s 13
f 157//182 89//106 17//183 
f 17//183 89//106 90//108 
f 143//171 157//182 145//172 
f 145//172 157//182 17//183 
s 14
f 143//105 141//104 157//105 
f 157//105 141//104 156//104 
f 155//181 156//104 137//133 
f 137//133 156//104 141//104 
f 137//133 135//98 155//181 
f 155//181 135//98 154//98 
f 153//96 154//98 129//156 
f 129//156 154//98 135//98 
f 129//156 130//95 153//96 
f 153//96 130//95 152//95 
f 132//158 69//85 131//157 
f 131//157 69//85 70//86 
f 132//158 133//159 69//85 
f 69//85 133//159 68//84 
f 138//162 105//129 133//159 
f 133//159 105//129 68//84 
f 138//162 140//164 105//129 
f 105//129 140//164 61//71 
f 60//70 61//71 144//166 
f 144//166 61//71 140//164 
s 13
f 60//78 144//167 13//79 
f 13//79 144//167 15//169 
s 7
f 19//19 16//20 15//184 
# 261 faces

