# 3ds Max Wavefront OBJ Exporter v0.97b - (c)2007 guruware
# File Created: 13.11.2015 17:49:00

mtllib H124_305B_L.mtl

#
# object H124_305B_L_DTaSI_H124_305B_L
#

v  -67.6590 62.7098 -73.9689
v  -79.4217 62.5264 -74.2193
v  -68.7806 68.3142 -70.3995
v  -80.3422 68.0603 -70.6993
v  -88.4121 56.3259 -78.0884
v  -98.3442 56.5375 -78.0814
v  -88.8494 62.3077 -74.5402
v  -97.8504 62.1772 -74.6531
v  -44.0314 62.5758 -73.8948
v  -55.3320 62.7733 -73.8384
v  -45.5128 68.5400 -70.0715
v  -56.5383 68.4659 -70.1773
v  -74.6884 32.3421 -88.0417
v  -86.2394 32.7336 -87.9359
v  -74.9141 33.8058 -87.5268
v  -86.3770 34.1867 -87.4351
v  -49.3855 31.4885 -88.2851
v  -62.0263 31.9153 -88.1616
v  -49.6606 32.9522 -87.7737
v  -62.2873 33.3790 -87.6467
v  -29.5883 30.8078 -88.4791
v  -37.8909 31.0935 -88.3979
v  -29.8916 32.2715 -87.9782
v  -38.1801 32.5572 -87.8936
v  -33.2846 48.2525 -81.6825
v  -41.5061 48.6405 -81.5026
v  -34.7942 55.4053 -78.0990
v  -42.8428 55.7898 -77.9086
v  -52.6938 49.0708 -81.3051
v  -64.9644 49.2753 -81.2275
v  -54.0799 56.1777 -77.7252
v  -66.4140 56.2306 -77.7287
v  -77.2913 49.4517 -81.2416
v  -87.7525 49.6563 -81.3933
v  -78.4200 56.2095 -77.8627
v  -126.2747 45.1311 -82.4937
v  -123.3297 50.7179 -79.9860
v  -113.7749 44.4962 -83.2344
v  -112.4840 49.9772 -80.8536
v  -33.4151 62.3782 -73.9653
v  -36.2790 62.4347 -73.9442
v  -34.8188 68.6211 -70.0010
v  -37.7004 68.5999 -70.0186
v  -30.6816 36.0701 -86.6803
v  -38.9278 36.3488 -86.5886
v  -31.8491 41.6040 -84.5817
v  -40.0671 41.9179 -84.4583
v  -50.3695 36.7544 -86.4546
v  -62.9645 37.1776 -86.3099
v  -51.4170 42.3271 -84.2995
v  -63.9133 42.6939 -84.1620
v  -75.4961 37.5938 -86.1936
v  -86.7297 37.9430 -86.1477
v  -76.3320 43.0678 -84.0738
v  -87.2199 43.4487 -84.0738
v  -109.8493 56.3294 -77.7710
v  -107.5250 61.3060 -74.8612
v  -101.7795 70.4904 -69.0733
v  -96.7217 72.3492 -67.9870
v  -100.7990 69.7074 -69.5918
v  -96.2773 70.5257 -69.1509
v  -90.1050 73.8940 -66.7949
v  -81.5485 74.9803 -65.8426
v  -89.3679 71.4674 -68.4596
v  -80.9665 72.2187 -67.8424
v  -57.4447 72.7759 -67.3345
v  -69.6624 72.5925 -67.5073
v  -58.0161 75.6540 -65.3982
v  -70.1808 75.4670 -65.4723
v  -38.7233 73.0722 -67.1652
v  -46.5321 72.9382 -67.2287
v  -39.3687 75.9503 -65.3276
v  -47.1493 75.8268 -65.3523
v  -127.1247 40.1192 -84.5746
v  -114.0500 39.4138 -85.2201
v  -127.0295 36.4123 -86.0384
v  -114.0853 35.6293 -86.6027
v  -89.3467 67.6512 -71.0414
v  -96.8099 67.2561 -71.2707
v  -98.7321 33.2556 -87.6961
v  -114.2052 34.0633 -87.1776
v  -98.7463 34.7581 -87.1776
v  -127.0119 34.7828 -86.6803
v  -98.8097 50.0689 -81.2663
v  -98.9508 43.9883 -83.8516
v  -119.6368 56.7597 -77.0021
v  -26.5268 30.7020 -88.5073
v  -26.8372 32.1657 -88.0100
v  -30.2549 48.1079 -81.7530
v  -31.8279 55.2607 -78.1696
v  -28.8194 41.4912 -84.6276
v  -27.6413 35.9678 -86.7156
v  -98.8556 38.5920 -85.8655
v  -102.9752 66.8399 -71.3518
v  -112.6286 62.3359 -73.8525
v  -106.2941 67.3514 -70.8580
v  -35.8452 73.1110 -67.1476
v  -36.4977 75.9820 -65.3276
# 98 vertices

vn 0.0083 0.5200 -0.8541
vn 0.0145 0.5200 -0.8540
vn 0.0080 0.5478 -0.8366
vn 0.0091 0.5514 -0.8342
vn 0.0157 0.4752 -0.8798
vn -0.0126 0.4771 -0.8788
vn 0.0094 0.5282 -0.8490
vn -0.0134 0.5364 -0.8438
vn 0.0040 0.5236 -0.8520
vn 0.0047 0.5235 -0.8520
vn 0.0030 0.5413 -0.8408
vn 0.0053 0.5450 -0.8384
vn 0.0024 0.3322 -0.9432
vn -0.0005 0.3261 -0.9453
vn 0.0027 0.3323 -0.9432
vn 0.0001 0.3253 -0.9456
vn 0.0017 0.3300 -0.9440
vn 0.0020 0.3321 -0.9432
vn 0.0013 0.3284 -0.9445
vn 0.0015 0.3319 -0.9433
vn 0.0018 0.3239 -0.9461
vn 0.0018 0.3260 -0.9454
vn 0.0014 0.3236 -0.9462
vn 0.0013 0.3256 -0.9455
vn 0.0005 0.4240 -0.9057
vn 0.0007 0.4267 -0.9044
vn 0.0024 0.4774 -0.8787
vn 0.0023 0.4791 -0.8777
vn 0.0011 0.4291 -0.9033
vn 0.0041 0.4299 -0.9029
vn 0.0025 0.4793 -0.8776
vn 0.0061 0.4768 -0.8790
vn 0.0129 0.4285 -0.9035
vn 0.0130 0.4219 -0.9065
vn 0.0163 0.4750 -0.8798
vn -0.0296 0.4004 -0.9159
vn -0.0369 0.4356 -0.8994
vn -0.0316 0.3871 -0.9215
vn -0.0357 0.4273 -0.9034
vn 0.0040 0.5206 -0.8538
vn 0.0040 0.5220 -0.8529
vn 0.0017 0.5369 -0.8436
vn 0.0020 0.5382 -0.8428
vn 0.0011 0.3412 -0.9400
vn 0.0010 0.3441 -0.9389
vn 0.0008 0.3783 -0.9257
vn 0.0008 0.3818 -0.9242
vn 0.0010 0.3474 -0.9377
vn 0.0017 0.3504 -0.9366
vn 0.0009 0.3855 -0.9227
vn 0.0028 0.3874 -0.9219
vn 0.0046 0.3498 -0.9368
vn 0.0025 0.3419 -0.9397
vn 0.0083 0.3860 -0.9225
vn 0.0071 0.3771 -0.9261
vn -0.0387 0.4788 -0.8771
vn -0.0402 0.5343 -0.8443
vn -0.0279 0.5373 -0.8429
vn 0.0112 0.5400 -0.8416
vn -0.0207 0.5383 -0.8425
vn -0.0007 0.5475 -0.8368
vn 0.0143 0.5668 -0.8238
vn 0.0048 0.5855 -0.8107
vn 0.0101 0.5648 -0.8252
vn 0.0053 0.5745 -0.8185
vn 0.0022 0.5542 -0.8323
vn 0.0038 0.5676 -0.8233
vn -0.0011 0.5600 -0.8285
vn 0.0004 0.5787 -0.8156
vn -0.0013 0.5385 -0.8426
vn -0.0002 0.5441 -0.8390
vn -0.0039 0.5388 -0.8424
vn -0.0028 0.5459 -0.8378
vn -0.0253 0.3784 -0.9253
vn -0.0255 0.3570 -0.9337
vn -0.0232 0.3634 -0.9313
vn -0.0192 0.3429 -0.9392
vn 0.0039 0.5527 -0.8334
vn -0.0097 0.5504 -0.8349
vn -0.0100 0.3261 -0.9453
vn -0.0162 0.3450 -0.9385
vn -0.0110 0.3245 -0.9458
vn -0.0183 0.3648 -0.9309
vn -0.0144 0.4181 -0.9083
vn -0.0138 0.3735 -0.9275
vn -0.0432 0.4788 -0.8769
vn 0.0024 0.3222 -0.9467
vn 0.0016 0.3226 -0.9465
vn -0.0006 0.4211 -0.9070
vn 0.0022 0.4746 -0.8802
vn 0.0003 0.3754 -0.9269
vn 0.0008 0.3391 -0.9407
vn -0.0122 0.3395 -0.9405
vn -0.0325 0.5513 -0.8337
vn -0.0489 0.5375 -0.8418
vn -0.0428 0.5544 -0.8311
vn -0.0014 0.5365 -0.8439
vn -0.0042 0.5363 -0.8440
# 98 vertex normals

vt 0.7621 0.1573 0.0000
vt 0.8033 0.1551 0.0000
vt 0.7667 0.1804 0.0000
vt 0.8072 0.1779 0.0000
vt 0.8342 0.1286 0.0000
vt 0.8691 0.1283 0.0000
vt 0.8364 0.1529 0.0000
vt 0.8680 0.1514 0.0000
vt 0.6791 0.1594 0.0000
vt 0.7188 0.1589 0.0000
vt 0.6850 0.1840 0.0000
vt 0.7237 0.1825 0.0000
vt 0.7833 0.0391 0.0000
vt 0.8239 0.0393 0.0000
vt 0.7842 0.0444 0.0000
vt 0.8245 0.0446 0.0000
vt 0.6943 0.0386 0.0000
vt 0.7387 0.0388 0.0000
vt 0.6954 0.0440 0.0000
vt 0.7398 0.0442 0.0000
vt 0.6247 0.0382 0.0000
vt 0.6539 0.0384 0.0000
vt 0.6259 0.0436 0.0000
vt 0.6551 0.0437 0.0000
vt 0.6397 0.1033 0.0000
vt 0.6686 0.1039 0.0000
vt 0.6458 0.1312 0.0000
vt 0.6741 0.1319 0.0000
vt 0.7079 0.1044 0.0000
vt 0.7510 0.1039 0.0000
vt 0.7136 0.1322 0.0000
vt 0.7569 0.1311 0.0000
vt 0.7944 0.1032 0.0000
vt 0.8311 0.1025 0.0000
vt 0.7991 0.1296 0.0000
vt 0.9659 0.0826 0.0000
vt 0.9562 0.1044 0.0000
vt 0.9219 0.0808 0.0000
vt 0.9180 0.1018 0.0000
vt 0.6418 0.1598 0.0000
vt 0.6518 0.1597 0.0000
vt 0.6474 0.1855 0.0000
vt 0.6575 0.1851 0.0000
vt 0.6291 0.0574 0.0000
vt 0.6581 0.0576 0.0000
vt 0.6339 0.0780 0.0000
vt 0.6628 0.0783 0.0000
vt 0.6984 0.0579 0.0000
vt 0.7426 0.0582 0.0000
vt 0.7027 0.0787 0.0000
vt 0.7466 0.0788 0.0000
vt 0.7867 0.0584 0.0000
vt 0.8262 0.0584 0.0000
vt 0.7903 0.0788 0.0000
vt 0.8285 0.0789 0.0000
vt 0.9095 0.1269 0.0000
vt 0.9019 0.1474 0.0000
vt 0.8828 0.1859 0.0000
vt 0.8653 0.1940 0.0000
vt 0.8793 0.1827 0.0000
vt 0.8635 0.1865 0.0000
vt 0.8422 0.2014 0.0000
vt 0.8123 0.2072 0.0000
vt 0.8393 0.1912 0.0000
vt 0.8099 0.1954 0.0000
vt 0.7274 0.2004 0.0000
vt 0.7703 0.1983 0.0000
vt 0.7297 0.2124 0.0000
vt 0.7724 0.2105 0.0000
vt 0.6617 0.2035 0.0000
vt 0.6891 0.2022 0.0000
vt 0.6643 0.2154 0.0000
vt 0.6916 0.2142 0.0000
vt 0.9683 0.0635 0.0000
vt 0.9223 0.0616 0.0000
vt 0.9676 0.0496 0.0000
vt 0.9220 0.0476 0.0000
vt 0.8388 0.1752 0.0000
vt 0.8650 0.1728 0.0000
vt 0.8678 0.0400 0.0000
vt 0.9223 0.0418 0.0000
vt 0.8680 0.0455 0.0000
vt 0.9673 0.0435 0.0000
vt 0.8700 0.1029 0.0000
vt 0.8698 0.0797 0.0000
vt 0.9439 0.1285 0.0000
vt 0.6139 0.0381 0.0000
vt 0.6152 0.0435 0.0000
vt 0.6290 0.1030 0.0000
vt 0.6353 0.1310 0.0000
vt 0.6232 0.0779 0.0000
vt 0.6184 0.0574 0.0000
vt 0.8688 0.0596 0.0000
vt 0.8866 0.1707 0.0000
vt 0.9200 0.1517 0.0000
vt 0.8983 0.1728 0.0000
vt 0.6515 0.2040 0.0000
vt 0.6542 0.2158 0.0000
# 98 texture coords

g H124_305B_L_DTaSI_H124_305B_L
usemtl windowglass_1SG
s 1
f 1/1/1 2/2/2 3/3/3 
f 3/3/3 2/2/2 4/4/4 
f 5/5/5 6/6/6 7/7/7 
f 8/8/8 7/7/7 6/6/6 
f 9/9/9 10/10/10 11/11/11 
f 11/11/11 10/10/10 12/12/12 
f 13/13/13 14/14/14 15/15/15 
f 14/14/14 16/16/16 15/15/15 
f 17/17/17 18/18/18 19/19/19 
f 18/18/18 20/20/20 19/19/19 
f 21/21/21 22/22/22 23/23/23 
f 22/22/22 24/24/24 23/23/23 
f 25/25/25 26/26/26 27/27/27 
f 26/26/26 28/28/28 27/27/27 
f 29/29/29 30/30/30 31/31/31 
f 30/30/30 32/32/32 31/31/31 
f 33/33/33 34/34/34 35/35/35 
f 34/34/34 5/5/5 35/35/35 
f 36/36/36 37/37/37 38/38/38 
f 37/37/37 39/39/39 38/38/38 
f 40/40/40 41/41/41 42/42/42 
f 42/42/42 41/41/41 43/43/43 
f 44/44/44 45/45/45 46/46/46 
f 45/45/45 47/47/47 46/46/46 
f 48/48/48 49/49/49 50/50/50 
f 49/49/49 51/51/51 50/50/50 
f 52/52/52 53/53/53 54/54/54 
f 53/53/53 55/55/55 54/54/54 
f 56/56/56 57/57/57 6/6/6 
f 57/57/57 8/8/8 6/6/6 
f 58/58/58 59/59/59 60/60/60 
f 61/61/61 60/60/60 59/59/59 
f 62/62/62 63/63/63 64/64/64 
f 65/65/65 64/64/64 63/63/63 
f 66/66/66 67/67/67 68/68/68 
f 67/67/67 69/69/69 68/68/68 
f 70/70/70 71/71/71 72/72/72 
f 71/71/71 73/73/73 72/72/72 
f 74/74/74 75/75/75 76/76/76 
f 75/75/75 77/77/77 76/76/76 
f 32/32/32 35/35/35 1/1/1 
f 2/2/2 1/1/1 35/35/35 
f 31/31/31 32/32/32 10/10/10 
f 32/32/32 1/1/1 10/10/10 
f 10/10/10 1/1/1 12/12/12 
f 1/1/1 3/3/3 12/12/12 
f 35/35/35 5/5/5 2/2/2 
f 5/5/5 7/7/7 2/2/2 
f 2/2/2 7/7/7 4/4/4 
f 7/7/7 78/78/78 4/4/4 
f 8/8/8 79/79/79 7/7/7 
f 78/78/78 7/7/7 79/79/79 
f 10/10/10 9/9/9 31/31/31 
f 9/9/9 28/28/28 31/31/31 
f 27/27/27 28/28/28 41/41/41 
f 28/28/28 9/9/9 41/41/41 
f 41/41/41 9/9/9 43/43/43 
f 9/9/9 11/11/11 43/43/43 
f 80/80/80 81/81/81 82/82/82 
f 81/81/81 77/77/77 82/82/82 
f 76/76/76 77/77/77 83/83/83 
f 77/77/77 81/81/81 83/83/83 
f 14/14/14 80/80/80 16/16/16 
f 16/16/16 80/80/80 82/82/82 
f 18/18/18 13/13/13 20/20/20 
f 20/20/20 13/13/13 15/15/15 
f 22/22/22 17/17/17 24/24/24 
f 24/24/24 17/17/17 19/19/19 
f 26/26/26 29/29/29 28/28/28 
f 28/28/28 29/29/29 31/31/31 
f 47/47/47 50/50/50 26/26/26 
f 29/29/29 26/26/26 50/50/50 
f 26/26/26 25/25/25 47/47/47 
f 47/47/47 25/25/25 46/46/46 
f 30/30/30 33/33/33 32/32/32 
f 32/32/32 33/33/33 35/35/35 
f 51/51/51 54/54/54 30/30/30 
f 33/33/33 30/30/30 54/54/54 
f 50/50/50 51/51/51 29/29/29 
f 51/51/51 30/30/30 29/29/29 
f 34/34/34 84/84/84 5/5/5 
f 5/5/5 84/84/84 6/6/6 
f 55/55/55 85/85/85 34/34/34 
f 84/84/84 34/34/34 85/85/85 
f 54/54/54 55/55/55 33/33/33 
f 55/55/55 34/34/34 33/33/33 
f 38/38/38 39/39/39 85/85/85 
f 39/39/39 84/84/84 85/85/85 
f 39/39/39 56/56/56 84/84/84 
f 84/84/84 56/56/56 6/6/6 
f 37/37/37 86/86/86 39/39/39 
f 56/56/56 39/39/39 86/86/86 
f 87/87/87 21/21/21 88/88/88 
f 88/88/88 21/21/21 23/23/23 
f 89/89/89 25/25/25 90/90/90 
f 90/90/90 25/25/25 27/27/27 
f 25/25/25 89/89/89 46/46/46 
f 89/89/89 91/91/91 46/46/46 
f 90/90/90 27/27/27 40/40/40 
f 41/41/41 40/40/40 27/27/27 
f 92/92/92 44/44/44 91/91/91 
f 91/91/91 44/44/44 46/46/46 
f 44/44/44 92/92/92 23/23/23 
f 92/92/92 88/88/88 23/23/23 
f 45/45/45 48/48/48 47/47/47 
f 47/47/47 48/48/48 50/50/50 
f 24/24/24 19/19/19 45/45/45 
f 48/48/48 45/45/45 19/19/19 
f 23/23/23 24/24/24 44/44/44 
f 24/24/24 45/45/45 44/44/44 
f 49/49/49 52/52/52 51/51/51 
f 51/51/51 52/52/52 54/54/54 
f 20/20/20 15/15/15 49/49/49 
f 52/52/52 49/49/49 15/15/15 
f 49/49/49 48/48/48 20/20/20 
f 20/20/20 48/48/48 19/19/19 
f 53/53/53 93/93/93 55/55/55 
f 55/55/55 93/93/93 85/85/85 
f 16/16/16 82/82/82 53/53/53 
f 93/93/93 53/53/53 82/82/82 
f 15/15/15 16/16/16 52/52/52 
f 16/16/16 53/53/53 52/52/52 
f 57/57/57 94/94/94 8/8/8 
f 8/8/8 94/94/94 79/79/79 
f 95/95/95 96/96/96 57/57/57 
f 94/94/94 57/57/57 96/96/96 
f 86/86/86 95/95/95 56/56/56 
f 95/95/95 57/57/57 56/56/56 
f 96/96/96 58/58/58 94/94/94 
f 58/58/58 60/60/60 94/94/94 
f 94/94/94 60/60/60 79/79/79 
f 60/60/60 61/61/61 79/79/79 
f 64/64/64 61/61/61 62/62/62 
f 62/62/62 61/61/61 59/59/59 
f 79/79/79 61/61/61 78/78/78 
f 61/61/61 64/64/64 78/78/78 
f 4/4/4 78/78/78 65/65/65 
f 78/78/78 64/64/64 65/65/65 
f 67/67/67 65/65/65 69/69/69 
f 69/69/69 65/65/65 63/63/63 
f 3/3/3 4/4/4 67/67/67 
f 65/65/65 67/67/67 4/4/4 
f 67/67/67 66/66/66 3/3/3 
f 3/3/3 66/66/66 12/12/12 
f 71/71/71 66/66/66 73/73/73 
f 73/73/73 66/66/66 68/68/68 
f 11/11/11 12/12/12 71/71/71 
f 66/66/66 71/71/71 12/12/12 
f 71/71/71 70/70/70 11/11/11 
f 11/11/11 70/70/70 43/43/43 
f 97/97/97 70/70/70 98/98/98 
f 98/98/98 70/70/70 72/72/72 
f 70/70/70 97/97/97 43/43/43 
f 97/97/97 42/42/42 43/43/43 
f 82/82/82 77/77/77 93/93/93 
f 77/77/77 75/75/75 93/93/93 
f 93/93/93 75/75/75 85/85/85 
f 75/75/75 38/38/38 85/85/85 
f 74/74/74 36/36/36 75/75/75 
f 38/38/38 75/75/75 36/36/36 
# 160 faces

