# 3ds Max Wavefront OBJ Exporter v0.97b - (c)2007 guruware
# File Created: 13.11.2015 17:46:57

mtllib H124_182C_C.mtl

#
# object H124_182C_C_D_H124_182C_C
#

v  115.2809 24.1065 81.5343
v  116.0533 22.4664 81.3157
v  114.4168 24.0606 82.2080
v  111.0697 25.8523 82.4302
v  117.3725 24.2228 79.9366
v  118.2648 20.9639 80.9453
v  119.8766 24.3710 77.8627
v  120.3811 20.6817 77.9368
v  121.9929 24.5156 75.7571
v  125.6222 19.9798 70.6887
v  123.6541 24.6426 73.8348
v  127.1318 26.1698 64.4847
v  127.3328 26.3320 63.5959
v  126.1372 25.0164 68.7524
v  126.3382 25.2069 67.8354
v  126.7332 25.6936 66.1565
v  126.0208 24.9635 69.3626
v  125.8726 24.8965 70.1385
v  125.5235 24.8224 71.1084
v  124.8074 24.7413 72.3147
v  128.2393 26.3673 59.1906
v  131.3712 19.2956 59.6844
v  130.7646 26.4660 46.9589
v  135.0112 19.0663 45.4211
v  133.4064 26.6036 30.9991
v  137.0710 19.0663 29.8105
v  134.6832 26.7552 15.4061
v  138.0797 19.0663 14.7641
v  134.9794 26.8328 0.0000
v  138.3230 19.0663 0.0000
v  115.2809 24.1065 -81.5343
v  114.4168 24.0606 -82.2080
v  116.0533 22.4664 -81.3157
v  111.0697 25.8523 -82.4302
v  117.3725 24.2228 -79.9366
v  118.2648 20.9639 -80.9453
v  119.8766 24.3710 -77.8627
v  120.3811 20.6817 -77.9368
v  121.9929 24.5156 -75.7571
v  125.6222 19.9798 -70.6887
v  123.6541 24.6426 -73.8348
v  127.1318 26.1698 -64.4847
v  127.3328 26.3320 -63.5959
v  126.1372 25.0164 -68.7524
v  126.3382 25.2069 -67.8354
v  126.7332 25.6936 -66.1565
v  126.0208 24.9635 -69.3626
v  125.8726 24.8965 -70.1385
v  125.5235 24.8224 -71.1084
v  124.8074 24.7413 -72.3147
v  131.3712 19.2956 -59.6844
v  128.2393 26.3673 -59.1906
v  130.7646 26.4660 -46.9589
v  135.0111 19.0663 -45.4211
v  133.4064 26.6036 -30.9991
v  137.0710 19.0663 -29.8105
v  134.6832 26.7552 -15.4061
v  138.0797 19.0663 -14.7641
# 58 vertices

vn -0.5947 -0.1755 -0.7846
vn -0.4488 -0.2529 -0.8571
vn 0.2393 0.6496 -0.7217
vn 0.3302 0.6959 -0.6377
vn -0.5411 -0.3568 -0.7615
vn -0.6641 -0.2692 -0.6975
vn -0.7134 -0.1826 -0.6765
vn -0.8016 -0.0462 -0.5960
vn -0.7911 0.0037 -0.6116
vn -0.8645 -0.1657 -0.4746
vn -0.7660 0.1047 -0.6343
vn -0.9753 0.0172 -0.2202
vn -0.8793 -0.2859 -0.3809
vn -0.9788 0.0218 -0.2036
vn -0.9746 0.0115 -0.2236
vn -0.9733 0.0073 -0.2294
vn -0.9823 0.0294 -0.1849
vn -0.9646 0.0197 -0.2629
vn -0.8980 0.0198 -0.4396
vn -0.8192 0.0547 -0.5708
vn -0.8932 -0.4087 -0.1875
vn -0.8854 -0.3797 -0.2682
vn -0.8725 -0.4543 -0.1800
vn -0.8748 -0.4542 -0.1684
vn -0.8961 -0.4310 -0.1061
vn -0.9034 -0.4185 -0.0933
vn -0.9130 -0.4055 -0.0444
vn -0.9158 -0.3999 -0.0384
vn -0.9173 -0.3978 -0.0167
vn -0.9184 -0.3954 -0.0151
vn -0.5947 -0.1755 0.7846
vn 0.2393 0.6496 0.7217
vn -0.4488 -0.2529 0.8571
vn 0.3302 0.6959 0.6377
vn -0.5411 -0.3568 0.7615
vn -0.6641 -0.2692 0.6975
vn -0.7134 -0.1826 0.6765
vn -0.8016 -0.0462 0.5960
vn -0.7911 0.0037 0.6116
vn -0.8645 -0.1657 0.4746
vn -0.7660 0.1047 0.6343
vn -0.9753 0.0171 0.2202
vn -0.8793 -0.2859 0.3809
vn -0.9788 0.0218 0.2036
vn -0.9746 0.0115 0.2236
vn -0.9733 0.0073 0.2294
vn -0.9823 0.0294 0.1849
vn -0.9646 0.0197 0.2629
vn -0.8980 0.0198 0.4396
vn -0.8192 0.0547 0.5708
vn -0.8854 -0.3797 0.2682
vn -0.8932 -0.4087 0.1875
vn -0.8725 -0.4543 0.1800
vn -0.8748 -0.4542 0.1684
vn -0.8961 -0.4310 0.1061
vn -0.9034 -0.4185 0.0933
vn -0.9130 -0.4055 0.0444
vn -0.9158 -0.3998 0.0384
vn -0.9173 -0.3978 0.0167
vn -0.9184 -0.3954 0.0151
# 60 vertex normals

vt 0.9639 0.0000 0.0000
vt 0.0000 0.0000 0.0000
vt 0.9639 1.0000 0.0000
vt 0.0000 1.0000 0.0000
vt 1.0000 0.0000 0.0000
vt 1.0000 1.0000 0.0000
vt 1.0000 0.5000 0.0000
vt 0.0000 0.9131 0.0000
vt 1.0000 0.9566 0.0000
vt 0.0000 0.3347 0.0000
vt 0.0000 0.5443 0.0000
vt 1.0000 0.1799 0.0000
vt 0.0000 0.7737 0.0000
vt 0.0000 0.2903 0.0000
vt 0.0000 0.2551 0.0000
vt 0.0000 0.1982 0.0000
vt 0.0000 0.1223 0.0000
# 17 texture coords

g H124_182C_C_D_H124_182C_C
usemtl diffuse_black_plasticSG
s 1
f 1/1/1 2/2/2 3/3/3 
f 2/2/2 4/4/4 3/3/3 
f 1/2/1 5/4/5 2/5/2 
f 2/5/2 5/4/5 6/6/6 
f 5/2/5 7/4/7 6/5/6 
f 6/5/6 7/4/7 8/6/8 
f 7/2/7 9/4/9 8/5/8 
f 8/5/8 9/4/9 10/6/10 
f 9/2/9 11/4/11 10/7/10 
f 12/8/12 13/4/13 10/9/10 
f 14/10/14 15/11/15 10/12/10 
f 15/11/15 16/13/16 10/12/10 
f 17/14/17 14/10/14 10/12/10 
f 16/13/16 12/8/12 10/12/10 
f 18/15/18 17/14/17 10/12/10 
f 19/16/19 18/15/18 10/12/10 
f 20/17/20 19/16/19 10/12/10 
f 11/2/11 20/17/20 10/12/10 
f 21/4/21 22/6/22 13/2/13 
f 13/2/13 22/6/22 10/5/10 
f 21/2/21 23/4/23 22/5/22 
f 22/5/22 23/4/23 24/6/24 
f 23/2/23 25/4/25 24/5/24 
f 24/5/24 25/4/25 26/6/26 
f 25/2/25 27/4/27 26/5/26 
f 26/5/26 27/4/27 28/6/28 
f 27/2/27 29/4/29 28/5/28 
f 28/5/28 29/4/29 30/6/30 
s 5
f 31/1/31 32/3/32 33/2/33 
f 33/2/33 32/3/32 34/4/34 
f 31/2/31 33/5/33 35/4/35 
f 35/4/35 33/5/33 36/6/36 
f 35/2/35 36/5/36 37/4/37 
f 37/4/37 36/5/36 38/6/38 
f 37/2/37 38/5/38 39/4/39 
f 39/4/39 38/5/38 40/6/40 
f 39/2/39 40/7/40 41/4/41 
f 42/8/42 40/9/40 43/4/43 
f 44/10/44 40/12/40 45/11/45 
f 45/11/45 40/12/40 46/13/46 
f 47/14/47 40/12/40 44/10/44 
f 46/13/46 40/12/40 42/8/42 
f 48/15/48 40/12/40 47/14/47 
f 49/16/49 40/12/40 48/15/48 
f 50/17/50 40/12/40 49/16/49 
f 41/2/41 40/12/40 50/17/50 
f 40/5/40 51/6/51 43/2/43 
f 43/2/43 51/6/51 52/4/52 
f 52/2/52 51/5/51 53/4/53 
f 53/4/53 51/5/51 54/6/54 
f 53/2/53 54/5/54 55/4/55 
f 55/4/55 54/5/54 56/6/56 
f 55/2/55 56/5/56 57/4/57 
f 57/4/57 56/5/56 58/6/58 
f 57/2/57 58/5/58 29/4/59 
f 29/4/59 58/5/58 30/6/60 
# 56 faces

