# 3ds Max Wavefront OBJ Exporter v0.97b - (c)2007 guruware
# File Created: 09.11.2015 11:27:53

mtllib D162_206A_L.mtl

#
# object D162_206A_L_1_DaS_D162_206A_L
#

v  35.2121 -53.8579 -81.7939
v  35.2183 -53.0025 -82.3581
v  45.0633 -53.8579 -81.7939
v  45.0710 -53.0029 -82.3582
v  35.2322 -51.0751 -83.6293
v  45.0885 -51.0762 -83.6297
v  17.0431 -53.8580 -81.7940
v  9.1480 -53.8580 -81.7940
v  17.0448 -53.0021 -82.3580
v  9.1474 -53.0020 -82.3579
v  9.1460 -51.0730 -83.6288
v  17.0486 -51.0736 -83.6290
v  25.5716 -51.0742 -83.6291
v  25.5622 -53.0023 -82.3581
v  25.5580 -53.8580 -81.7939
v  0.1386 -53.8581 -81.7940
v  -7.5873 -53.8580 -81.7940
v  0.1327 -53.0019 -82.3579
v  -7.5959 -53.0019 -82.3579
v  -7.6156 -51.0726 -83.6284
v  0.1198 -51.0726 -83.6286
v  66.3375 -53.8598 -82.3675
v  66.3486 -53.0208 -82.9158
v  83.6081 -53.8654 -84.0886
v  83.6224 -53.0726 -84.5884
v  66.2510 -51.1034 -84.1435
v  83.1642 -51.1790 -85.6830
v  87.6663 -51.0438 -86.3182
v  87.6825 -53.0886 -85.0985
v  87.6886 -53.8671 -84.6161
v  0.0921 -46.9973 -86.3128
v  -7.6572 -46.9973 -86.3123
v  -7.7097 -41.8489 -89.7031
v  0.0573 -41.8489 -89.7039
v  9.1391 -41.8505 -89.7049
v  9.1430 -46.9982 -86.3134
v  17.0565 -46.9996 -86.3138
v  17.0664 -41.8530 -89.7056
v  35.2984 -41.8595 -89.7072
v  35.2615 -47.0033 -86.3147
v  25.6159 -41.8557 -89.7063
v  25.5912 -47.0012 -86.3142
v  45.1254 -47.0062 -86.3156
v  45.1720 -41.8645 -89.7088
v  65.5124 -41.8765 -89.9950
v  79.8848 -41.8867 -90.8451
v  65.9361 -47.0291 -86.7295
v  81.7608 -47.0834 -87.9667
v  87.5927 -41.6569 -91.5688
v  87.6316 -46.6334 -88.8407
v  -15.7853 -51.0730 -83.6283
v  -15.7720 -53.0020 -82.3579
v  -15.7661 -53.8580 -81.7940
v  -15.8488 -41.8504 -89.7027
v  -15.8133 -46.9982 -86.3121
v  -24.1839 -41.8535 -89.6989
v  -24.1648 -46.9999 -86.3100
v  -24.1498 -51.0737 -83.6274
v  -24.1425 -53.0022 -82.3576
v  -24.1393 -53.8580 -81.7941
v  87.6977 -52.8037 -84.6247
v  87.6631 -53.5785 -84.1394
v  87.6576 -50.7694 -85.8355
v  87.6176 -46.3705 -88.3519
v  87.6223 -41.3847 -91.0756
v  -26.0353 -53.8580 -81.7941
v  -26.0379 -53.0023 -82.3576
v  -26.0438 -51.0739 -83.6273
v  -26.0559 -47.0003 -86.3095
v  -26.0714 -41.8542 -89.6981
v  -42.3861 -53.8575 -81.7941
v  -51.5747 -53.8564 -81.7940
v  -42.3910 -53.0023 -82.3563
v  -51.5818 -53.0015 -82.3555
v  -42.4020 -51.0752 -83.6234
v  -51.5978 -51.0753 -83.6209
v  -34.3385 -51.0748 -83.6254
v  -34.3307 -53.0025 -82.3569
v  -34.3272 -53.8580 -81.7941
v  -42.4252 -47.0046 -86.3002
v  -51.6315 -47.0064 -86.2941
v  -51.6740 -41.8660 -89.6711
v  -42.4545 -41.8620 -89.6818
v  -34.3755 -41.8583 -89.6903
v  -34.3548 -47.0027 -86.3051
v  -74.4034 -53.8468 -82.0086
v  -82.0832 -53.8426 -82.3654
v  -74.4170 -52.9930 -82.5682
v  -82.0984 -52.9892 -82.9244
v  -87.7141 -53.8407 -83.4232
v  -87.7141 -52.9880 -83.9801
v  -87.7141 -39.0397 -91.6488
v  -81.4010 -41.1534 -90.1435
v  -87.7141 -41.9300 -90.8517
v  -81.6211 -42.7577 -89.2323
v  -82.2541 -51.1332 -84.1575
v  -87.7141 -51.0663 -85.2174
v  -82.2038 -47.0044 -86.8205
v  -87.7141 -47.0068 -87.8163
v  -74.2620 -41.6003 -89.8333
v  -74.5113 -47.0051 -86.4830
v  54.5160 -41.8697 -89.7880
v  54.5948 -47.0136 -86.4296
v  54.6516 -51.0841 -83.7709
v  54.6644 -53.0079 -82.5113
v  54.6551 -53.8584 -81.9513
v  -74.5619 -51.1050 -83.8150
v  -60.2450 -53.8534 -81.7940
v  -60.2548 -52.9989 -82.3547
v  -60.3190 -51.0802 -83.6159
v  -60.3221 -47.0063 -86.2875
v  -60.3798 -41.8681 -89.6596
v  -69.7822 -53.8493 -81.7939
v  -69.7948 -52.9953 -82.3538
v  -69.9331 -51.0880 -83.6090
v  -69.8824 -47.0055 -86.2798
v  -69.9576 -41.8698 -89.6462
# 117 vertices

vn -0.0000 -0.5506 -0.8347
vn -0.0000 -0.5506 -0.8348
vn -0.0067 -0.5508 -0.8346
vn -0.0001 -0.5506 -0.8348
vn -0.0065 -0.5507 -0.8347
vn 0.0000 -0.5503 -0.8350
vn -0.0000 -0.5501 -0.8351
vn -0.0000 -0.5503 -0.8350
vn -0.0000 -0.5502 -0.8351
vn -0.0001 -0.5503 -0.8350
vn -0.0001 -0.5504 -0.8349
vn -0.0000 -0.5504 -0.8349
vn -0.0000 -0.5500 -0.8352
vn -0.0000 -0.5500 -0.8351
vn -0.0609 -0.5456 -0.8358
vn -0.0602 -0.5410 -0.8388
vn -0.0878 -0.5306 -0.8431
vn -0.0892 -0.5189 -0.8502
vn -0.0547 -0.5366 -0.8421
vn -0.0859 -0.5090 -0.8565
vn -0.1071 -0.4992 -0.8598
vn -0.1089 -0.5137 -0.8511
vn -0.1083 -0.5248 -0.8443
vn -0.0001 -0.5501 -0.8351
vn -0.0002 -0.5502 -0.8351
vn -0.0001 -0.5502 -0.8351
vn -0.0002 -0.5503 -0.8350
vn -0.0003 -0.5506 -0.8348
vn -0.0002 -0.5506 -0.8348
vn -0.0002 -0.5504 -0.8349
vn -0.0056 -0.5505 -0.8348
vn -0.0048 -0.5501 -0.8351
vn -0.0369 -0.5386 -0.8418
vn -0.0654 -0.5076 -0.8591
vn -0.0454 -0.5351 -0.8435
vn -0.0758 -0.5049 -0.8598
vn -0.0771 -0.4925 -0.8669
vn -0.0945 -0.4884 -0.8675
vn 0.0000 -0.5500 -0.8351
vn 0.0000 -0.5501 -0.8351
vn -0.0002 -0.5500 -0.8352
vn -0.0001 -0.5500 -0.8352
vn -0.0000 -0.5499 -0.8352
vn 0.9997 -0.0007 -0.0262
vn 0.9997 -0.0021 -0.0224
vn 0.9995 -0.0083 0.0291
vn 0.9983 -0.0080 0.0584
vn 0.9998 0.0146 0.0103
vn 0.9999 0.0138 0.0079
vn 0.9997 0.0137 0.0183
vn 0.9997 0.0147 0.0204
vn 0.9986 -0.0193 -0.0494
vn 0.9988 -0.0174 -0.0450
vn -0.0001 -0.5499 -0.8352
vn -0.0002 -0.5499 -0.8352
vn -0.0003 -0.5499 -0.8353
vn -0.0001 -0.5494 -0.8356
vn -0.0001 -0.5491 -0.8358
vn -0.0002 -0.5491 -0.8358
vn -0.0002 -0.5494 -0.8355
vn -0.0003 -0.5491 -0.8357
vn -0.0002 -0.5497 -0.8353
vn -0.0001 -0.5497 -0.8354
vn -0.0000 -0.5497 -0.8354
vn -0.0004 -0.5494 -0.8355
vn -0.0005 -0.5491 -0.8358
vn -0.0007 -0.5490 -0.8358
vn -0.0006 -0.5494 -0.8356
vn -0.0005 -0.5496 -0.8354
vn -0.0003 -0.5497 -0.8354
vn 0.0385 -0.5473 -0.8360
vn 0.0854 -0.5449 -0.8341
vn 0.0386 -0.5481 -0.8355
vn 0.0860 -0.5458 -0.8335
vn 0.1553 -0.5404 -0.8270
vn 0.1553 -0.5354 -0.8302
vn 0.1447 -0.3197 -0.9364
vn 0.0853 -0.4583 -0.8847
vn 0.1528 -0.4503 -0.8797
vn 0.0803 -0.5083 -0.8574
vn 0.0874 -0.5427 -0.8353
vn 0.1553 -0.5352 -0.8303
vn 0.0882 -0.5210 -0.8490
vn 0.1554 -0.5065 -0.8481
vn 0.0096 -0.5262 -0.8503
vn 0.0295 -0.5347 -0.8445
vn -0.0121 -0.5468 -0.8372
vn -0.0154 -0.5462 -0.8375
vn -0.0192 -0.5466 -0.8372
vn -0.0216 -0.5481 -0.8361
vn -0.0224 -0.5496 -0.8351
vn 0.0388 -0.5467 -0.8364
vn -0.0002 -0.5487 -0.8360
vn -0.0004 -0.5487 -0.8360
vn -0.0007 -0.5486 -0.8361
vn -0.0009 -0.5486 -0.8361
vn 0.0121 -0.5481 -0.8363
vn 0.0119 -0.5488 -0.8359
vn 0.0128 -0.5480 -0.8363
vn 0.0115 -0.5478 -0.8365
vn 0.0051 -0.5440 -0.8391
# 101 vertex normals

vt 0.5002 0.9646 0.0000
vt 0.5001 0.9636 0.0000
vt 0.5182 0.9647 0.0000
vt 0.5182 0.9636 0.0000
vt 0.4999 0.9612 0.0000
vt 0.5180 0.9612 0.0000
vt 0.4668 0.9645 0.0000
vt 0.4524 0.9644 0.0000
vt 0.4668 0.9634 0.0000
vt 0.4523 0.9634 0.0000
vt 0.4521 0.9610 0.0000
vt 0.4666 0.9610 0.0000
vt 0.4822 0.9611 0.0000
vt 0.4824 0.9635 0.0000
vt 0.4825 0.9646 0.0000
vt 0.4358 0.9644 0.0000
vt 0.4217 0.9643 0.0000
vt 0.4357 0.9633 0.0000
vt 0.4216 0.9632 0.0000
vt 0.4213 0.9608 0.0000
vt 0.4355 0.9609 0.0000
vt 0.5572 0.9653 0.0000
vt 0.5571 0.9642 0.0000
vt 0.5887 0.9666 0.0000
vt 0.5886 0.9656 0.0000
vt 0.5568 0.9618 0.0000
vt 0.5876 0.9631 0.0000
vt 0.5958 0.9634 0.0000
vt 0.5960 0.9660 0.0000
vt 0.5961 0.9670 0.0000
vt 0.4351 0.9558 0.0000
vt 0.4209 0.9557 0.0000
vt 0.4203 0.9493 0.0000
vt 0.4345 0.9494 0.0000
vt 0.4512 0.9495 0.0000
vt 0.4517 0.9559 0.0000
vt 0.4662 0.9559 0.0000
vt 0.4657 0.9495 0.0000
vt 0.4991 0.9497 0.0000
vt 0.4996 0.9561 0.0000
vt 0.4814 0.9496 0.0000
vt 0.4818 0.9560 0.0000
vt 0.5177 0.9562 0.0000
vt 0.5173 0.9498 0.0000
vt 0.5545 0.9501 0.0000
vt 0.5808 0.9508 0.0000
vt 0.5558 0.9566 0.0000
vt 0.5847 0.9577 0.0000
vt 0.5949 0.9510 0.0000
vt 0.5954 0.9576 0.0000
vt 0.4064 0.9608 0.0000
vt 0.4066 0.9632 0.0000
vt 0.4067 0.9642 0.0000
vt 0.4053 0.9493 0.0000
vt 0.4059 0.9557 0.0000
vt 0.3901 0.9492 0.0000
vt 0.3906 0.9556 0.0000
vt 0.3910 0.9607 0.0000
vt 0.3912 0.9631 0.0000
vt 0.3913 0.9642 0.0000
vt 0.5961 0.9652 0.0000
vt 0.5961 0.9662 0.0000
vt 0.5959 0.9626 0.0000
vt 0.5954 0.9568 0.0000
vt 0.5950 0.9502 0.0000
vt 0.3878 0.9642 0.0000
vt 0.3877 0.9631 0.0000
vt 0.3875 0.9607 0.0000
vt 0.3871 0.9556 0.0000
vt 0.3866 0.9492 0.0000
vt 0.3578 0.9640 0.0000
vt 0.3410 0.9640 0.0000
vt 0.3578 0.9630 0.0000
vt 0.3409 0.9629 0.0000
vt 0.3575 0.9606 0.0000
vt 0.3407 0.9605 0.0000
vt 0.3723 0.9606 0.0000
vt 0.3725 0.9630 0.0000
vt 0.3726 0.9641 0.0000
vt 0.3571 0.9555 0.0000
vt 0.3402 0.9554 0.0000
vt 0.3396 0.9490 0.0000
vt 0.3565 0.9491 0.0000
vt 0.3714 0.9491 0.0000
vt 0.3719 0.9555 0.0000
vt 0.2991 0.9639 0.0000
vt 0.2850 0.9641 0.0000
vt 0.2990 0.9629 0.0000
vt 0.2849 0.9630 0.0000
vt 0.2745 0.9648 0.0000
vt 0.2745 0.9637 0.0000
vt 0.2733 0.9453 0.0000
vt 0.2850 0.9479 0.0000
vt 0.2734 0.9496 0.0000
vt 0.2848 0.9500 0.0000
vt 0.2844 0.9607 0.0000
vt 0.2743 0.9613 0.0000
vt 0.2841 0.9555 0.0000
vt 0.2739 0.9562 0.0000
vt 0.2982 0.9485 0.0000
vt 0.2982 0.9554 0.0000
vt 0.5344 0.9499 0.0000
vt 0.5350 0.9563 0.0000
vt 0.5355 0.9614 0.0000
vt 0.5357 0.9638 0.0000
vt 0.5358 0.9649 0.0000
vt 0.2985 0.9605 0.0000
vt 0.3251 0.9639 0.0000
vt 0.3250 0.9628 0.0000
vt 0.3247 0.9604 0.0000
vt 0.3243 0.9553 0.0000
vt 0.3237 0.9489 0.0000
vt 0.3076 0.9638 0.0000
vt 0.3075 0.9627 0.0000
vt 0.3070 0.9604 0.0000
vt 0.3067 0.9553 0.0000
vt 0.3061 0.9488 0.0000
# 117 texture coords

g D162_206A_L_1_DaS_D162_206A_L
usemtl paint_whiteSG
s 1
f 1/1/1 2/2/2 3/3/3 
f 3/3/3 2/2/2 4/4/3 
f 2/2/2 5/5/4 4/4/3 
f 4/4/3 5/5/4 6/6/5 
f 7/7/6 8/8/7 9/9/8 
f 9/9/8 8/8/7 10/10/9 
f 10/10/9 11/11/9 9/9/8 
f 9/9/8 11/11/9 12/12/10 
f 5/5/4 2/2/2 13/13/11 
f 13/13/11 2/2/2 14/14/12 
f 2/2/2 1/1/1 14/14/12 
f 14/14/12 1/1/1 15/15/12 
f 16/16/13 17/17/13 18/18/14 
f 18/18/14 17/17/13 19/19/13 
f 20/20/13 21/21/7 19/19/13 
f 19/19/13 21/21/7 18/18/14 
f 21/21/7 11/11/9 18/18/14 
f 18/18/14 11/11/9 10/10/9 
f 8/8/7 16/16/13 10/10/9 
f 10/10/9 16/16/13 18/18/14 
f 22/22/15 23/23/16 24/24/17 
f 24/24/17 23/23/16 25/25/18 
f 26/26/19 27/27/20 23/23/16 
f 23/23/16 27/27/20 25/25/18 
f 27/27/20 28/28/21 25/25/18 
f 25/25/18 28/28/21 29/29/22 
f 24/24/17 25/25/18 30/30/23 
f 30/30/23 25/25/18 29/29/22 
f 21/21/7 20/20/13 31/31/24 
f 31/31/24 20/20/13 32/32/14 
f 33/33/14 34/34/24 32/32/14 
f 32/32/14 34/34/24 31/31/24 
f 34/34/24 35/35/25 31/31/24 
f 31/31/24 35/35/25 36/36/26 
f 11/11/9 21/21/7 36/36/26 
f 36/36/26 21/21/7 31/31/24 
f 11/11/9 36/36/26 12/12/10 
f 12/12/10 36/36/26 37/37/10 
f 36/36/26 35/35/25 37/37/10 
f 37/37/10 35/35/25 38/38/27 
f 39/39/28 40/40/29 41/41/30 
f 41/41/30 40/40/29 42/42/30 
f 40/40/29 5/5/4 42/42/30 
f 42/42/30 5/5/4 13/13/11 
f 5/5/4 40/40/29 6/6/5 
f 6/6/5 40/40/29 43/43/31 
f 40/40/29 39/39/28 43/43/31 
f 43/43/31 39/39/28 44/44/32 
f 45/45/33 46/46/34 47/47/35 
f 47/47/35 46/46/34 48/48/36 
f 46/46/34 49/49/37 48/48/36 
f 48/48/36 49/49/37 50/50/38 
f 48/48/36 50/50/38 27/27/20 
f 27/27/20 50/50/38 28/28/21 
f 27/27/20 26/26/19 48/48/36 
f 48/48/36 26/26/19 47/47/35 
f 51/51/14 20/20/13 52/52/39 
f 52/52/39 20/20/13 19/19/13 
f 17/17/13 53/53/40 19/19/13 
f 19/19/13 53/53/40 52/52/39 
f 54/54/14 33/33/14 55/55/14 
f 55/55/14 33/33/14 32/32/14 
f 20/20/13 51/51/14 32/32/14 
f 32/32/14 51/51/14 55/55/14 
f 56/56/41 54/54/14 57/57/42 
f 57/57/42 54/54/14 55/55/14 
f 51/51/14 58/58/42 55/55/14 
f 55/55/14 58/58/42 57/57/42 
f 58/58/42 51/51/14 59/59/43 
f 59/59/43 51/51/14 52/52/39 
f 53/53/40 60/60/13 52/52/39 
f 52/52/39 60/60/13 59/59/43 
s 13
f 29/29/44 61/61/45 30/30/46 
f 30/30/46 61/61/45 62/62/47 
f 28/28/48 63/63/49 29/29/44 
f 29/29/44 63/63/49 61/61/45 
f 50/50/50 64/64/51 28/28/48 
f 28/28/48 64/64/51 63/63/49 
f 49/49/52 65/65/53 50/50/50 
f 50/50/50 65/65/53 64/64/51 
s 1
f 60/60/13 66/66/43 59/59/43 
f 59/59/43 66/66/43 67/67/43 
f 68/68/54 58/58/42 67/67/43 
f 67/67/43 58/58/42 59/59/43 
f 58/58/42 68/68/54 57/57/42 
f 57/57/42 68/68/54 69/69/55 
f 70/70/56 56/56/41 69/69/55 
f 69/69/55 56/56/41 57/57/42 
f 71/71/57 72/72/58 73/73/57 
f 73/73/57 72/72/58 74/74/59 
f 73/73/57 74/74/59 75/75/60 
f 75/75/60 74/74/59 76/76/61 
f 77/77/62 68/68/54 78/78/63 
f 78/78/63 68/68/54 67/67/43 
f 66/66/43 79/79/64 67/67/43 
f 67/67/43 79/79/64 78/78/63 
f 75/75/60 76/76/61 80/80/65 
f 80/80/65 76/76/61 81/81/66 
f 82/82/67 83/83/68 81/81/66 
f 81/81/66 83/83/68 80/80/65 
f 84/84/69 70/70/56 85/85/70 
f 85/85/70 70/70/56 69/69/55 
f 68/68/54 77/77/62 69/69/55 
f 69/69/55 77/77/62 85/85/70 
f 86/86/71 87/87/72 88/88/73 
f 88/88/73 87/87/72 89/89/74 
f 87/87/72 90/90/75 89/89/74 
f 89/89/74 90/90/75 91/91/76 
f 92/92/77 93/93/78 94/94/79 
f 94/94/79 93/93/78 95/95/80 
f 96/96/81 97/97/82 98/98/83 
f 98/98/83 97/97/82 99/99/84 
f 100/100/85 101/101/86 95/95/80 
f 95/95/80 101/101/86 98/98/83 
f 97/97/82 96/96/81 91/91/76 
f 91/91/76 96/96/81 89/89/74 
f 94/94/79 95/95/80 99/99/84 
f 99/99/84 95/95/80 98/98/83 
f 102/102/87 45/45/33 103/103/88 
f 103/103/88 45/45/33 47/47/35 
f 26/26/19 104/104/89 47/47/35 
f 47/47/35 104/104/89 103/103/88 
f 23/23/16 105/105/90 26/26/19 
f 26/26/19 105/105/90 104/104/89 
f 106/106/91 105/105/90 22/22/15 
f 22/22/15 105/105/90 23/23/16 
f 43/43/31 44/44/32 103/103/88 
f 103/103/88 44/44/32 102/102/87 
f 6/6/5 43/43/31 104/104/89 
f 104/104/89 43/43/31 103/103/88 
f 4/4/3 6/6/5 105/105/90 
f 105/105/90 6/6/5 104/104/89 
f 3/3/3 4/4/3 106/106/91 
f 106/106/91 4/4/3 105/105/90 
f 37/37/10 38/38/27 42/42/30 
f 42/42/30 38/38/27 41/41/30 
f 12/12/10 37/37/10 13/13/11 
f 13/13/11 37/37/10 42/42/30 
f 9/9/8 12/12/10 14/14/12 
f 14/14/12 12/12/10 13/13/11 
f 7/7/6 9/9/8 15/15/12 
f 15/15/12 9/9/8 14/14/12 
f 107/107/92 96/96/81 101/101/86 
f 101/101/86 96/96/81 98/98/83 
f 96/96/81 107/107/92 89/89/74 
f 89/89/74 107/107/92 88/88/73 
f 72/72/58 108/108/93 74/74/59 
f 74/74/59 108/108/93 109/109/59 
f 74/74/59 109/109/59 76/76/61 
f 76/76/61 109/109/59 110/110/94 
f 76/76/61 110/110/94 81/81/66 
f 81/81/66 110/110/94 111/111/95 
f 112/112/96 82/82/67 111/111/95 
f 111/111/95 82/82/67 81/81/66 
f 85/85/70 80/80/65 84/84/69 
f 84/84/69 80/80/65 83/83/68 
f 77/77/62 75/75/60 85/85/70 
f 85/85/70 75/75/60 80/80/65 
f 78/78/63 73/73/57 77/77/62 
f 77/77/62 73/73/57 75/75/60 
f 79/79/64 71/71/57 78/78/63 
f 78/78/63 71/71/57 73/73/57 
f 108/108/93 113/113/97 109/109/59 
f 109/109/59 113/113/97 114/114/98 
f 109/109/59 114/114/98 110/110/94 
f 110/110/94 114/114/98 115/115/99 
f 111/111/95 110/110/94 116/116/100 
f 116/116/100 110/110/94 115/115/99 
f 111/111/95 116/116/100 112/112/96 
f 112/112/96 116/116/100 117/117/101 
f 115/115/99 107/107/92 116/116/100 
f 116/116/100 107/107/92 101/101/86 
f 107/107/92 115/115/99 88/88/73 
f 88/88/73 115/115/99 114/114/98 
f 113/113/97 86/86/71 114/114/98 
f 114/114/98 86/86/71 88/88/73 
f 116/116/100 101/101/86 117/117/101 
f 117/117/101 101/101/86 100/100/85 
f 100/100/85 95/95/80 93/93/78 
# 179 faces

#
# object D162_206A_L_1_DaS_D162_206A_L_E
#

v  -7.7097 -41.8489 -89.7031
v  -7.7097 -41.5379 -89.2309
v  0.0573 -41.8489 -89.7039
v  0.0574 -41.5378 -89.2316
v  9.1391 -41.8505 -89.7049
v  9.1393 -41.5393 -89.2325
v  17.0664 -41.8530 -89.7056
v  17.0665 -41.5417 -89.2333
v  25.6159 -41.8557 -89.7063
v  25.6160 -41.5444 -89.2341
v  35.2984 -41.8595 -89.7072
v  35.2985 -41.5481 -89.2351
v  45.1720 -41.8645 -89.7088
v  45.1751 -41.5544 -89.2359
v  65.5124 -41.8765 -89.9950
v  65.5313 -41.5759 -89.5165
v  79.8848 -41.8867 -90.8451
v  79.9181 -41.6007 -90.3584
v  -15.8488 -41.8504 -89.7027
v  -24.1839 -41.8535 -89.6989
v  -15.8487 -41.5393 -89.2304
v  -24.1839 -41.5425 -89.2266
v  87.5927 -41.6569 -91.5688
v  87.6223 -41.3847 -91.0756
v  -26.0711 -41.5432 -89.2257
v  -25.1125 -41.5428 -89.2262
v  -26.0714 -41.8542 -89.6981
v  -24.3731 -41.5426 -89.2265
v  -51.6735 -41.5555 -89.1984
v  -42.4542 -41.5513 -89.2092
v  -51.6740 -41.8660 -89.6711
v  -42.4545 -41.8620 -89.6818
v  -34.3755 -41.8583 -89.6903
v  -34.3753 -41.5474 -89.2178
v  -81.4379 -40.9216 -89.6346
v  -81.4010 -41.1534 -90.1435
v  -87.7141 -38.9335 -91.0930
v  -87.7141 -39.0397 -91.6488
v  -69.9576 -41.8698 -89.6462
v  -74.2620 -41.6003 -89.8333
v  -69.9586 -41.5676 -89.1683
v  -74.2765 -41.3246 -89.3437
v  54.5160 -41.8697 -89.7880
v  54.5247 -41.5627 -89.3132
v  -60.3799 -41.5609 -89.1848
v  -60.3798 -41.8681 -89.6596
# 46 vertices

vn -0.0001 0.8351 -0.5501
vn 0.0000 0.8351 -0.5501
vn 0.0001 0.8351 -0.5501
vn 0.0001 0.8351 -0.5502
vn 0.0002 0.8350 -0.5503
vn 0.0002 0.8349 -0.5504
vn 0.0003 0.8348 -0.5505
vn -0.0017 0.8363 -0.5483
vn -0.0017 0.8362 -0.5484
vn -0.0198 0.8469 -0.5314
vn -0.0198 0.8472 -0.5309
vn -0.0495 0.8627 -0.5033
vn -0.0495 0.8626 -0.5035
vn -0.0004 0.8351 -0.5501
vn -0.0006 0.8352 -0.5500
vn -0.0004 0.8351 -0.5500
vn -0.0710 0.8751 -0.4786
vn -0.0710 0.8745 -0.4797
vn -0.0007 0.8353 -0.5499
vn -0.0005 0.8352 -0.5499
vn -0.0007 0.8352 -0.5499
vn -0.0010 0.8359 -0.5489
vn -0.0010 0.8356 -0.5494
vn -0.0010 0.8358 -0.5490
vn -0.0010 0.8354 -0.5496
vn 0.2168 0.8942 -0.3916
vn 0.2132 0.8960 -0.3894
vn 0.3506 0.9180 -0.1850
vn 0.3500 0.9201 -0.1757
vn 0.0372 0.8446 -0.5341
vn 0.0725 0.8689 -0.4896
vn 0.0369 0.8459 -0.5321
vn 0.0721 0.8711 -0.4859
vn -0.0069 0.8397 -0.5429
vn -0.0069 0.8398 -0.5428
vn -0.0011 0.8396 -0.5431
vn -0.0011 0.8395 -0.5434
# 37 vertex normals

vt 0.4203 0.9493 0.0000
vt 0.4203 0.9485 0.0000
vt 0.4345 0.9494 0.0000
vt 0.4346 0.9485 0.0000
vt 0.4512 0.9495 0.0000
vt 0.4512 0.9486 0.0000
vt 0.4657 0.9495 0.0000
vt 0.4657 0.9487 0.0000
vt 0.4814 0.9496 0.0000
vt 0.4814 0.9487 0.0000
vt 0.4991 0.9497 0.0000
vt 0.4992 0.9488 0.0000
vt 0.5173 0.9498 0.0000
vt 0.5173 0.9489 0.0000
vt 0.5545 0.9501 0.0000
vt 0.5546 0.9493 0.0000
vt 0.5808 0.9508 0.0000
vt 0.5809 0.9500 0.0000
vt 0.4053 0.9493 0.0000
vt 0.3901 0.9492 0.0000
vt 0.4054 0.9484 0.0000
vt 0.3901 0.9483 0.0000
vt 0.5949 0.9510 0.0000
vt 0.5950 0.9502 0.0000
vt 0.3866 0.9483 0.0000
vt 0.3884 0.9483 0.0000
vt 0.3866 0.9492 0.0000
vt 0.3897 0.9483 0.0000
vt 0.3397 0.9481 0.0000
vt 0.3566 0.9482 0.0000
vt 0.3396 0.9490 0.0000
vt 0.3565 0.9491 0.0000
vt 0.3714 0.9491 0.0000
vt 0.3714 0.9483 0.0000
vt 0.2850 0.9471 0.0000
vt 0.2850 0.9479 0.0000
vt 0.2733 0.9447 0.0000
vt 0.2733 0.9453 0.0000
vt 0.3061 0.9488 0.0000
vt 0.2982 0.9485 0.0000
vt 0.3061 0.9480 0.0000
vt 0.2982 0.9477 0.0000
vt 0.5344 0.9499 0.0000
vt 0.5344 0.9490 0.0000
vt 0.3237 0.9481 0.0000
vt 0.3237 0.9489 0.0000
# 46 texture coords

g D162_206A_L_1_DaS_D162_206A_L_E
usemtl paint_whiteSG
s 9
f 118/118/102 119/119/102 120/120/103 
f 120/120/103 119/119/102 121/121/103 
f 120/120/103 121/121/103 122/122/104 
f 122/122/104 121/121/103 123/123/105 
f 122/122/104 123/123/105 124/124/106 
f 124/124/106 123/123/105 125/125/106 
f 126/126/107 127/127/107 128/128/108 
f 128/128/108 127/127/107 129/129/108 
f 128/128/108 129/129/108 130/130/109 
f 130/130/109 129/129/108 131/131/110 
f 132/132/111 133/133/112 134/134/113 
f 134/134/113 133/133/112 135/135/114 
f 136/136/115 137/137/116 138/138/117 
f 138/138/117 137/137/116 139/139/116 
f 136/136/115 138/138/117 118/118/102 
f 118/118/102 138/138/117 119/119/102 
f 140/140/118 134/134/113 141/141/119 
f 141/141/119 134/134/113 135/135/114 
f 142/142/120 143/143/121 144/144/122 
f 144/144/122 143/143/121 137/137/116 
f 143/143/121 145/145/116 137/137/116 
f 137/137/116 145/145/116 139/139/116 
f 146/146/123 147/147/124 148/148/125 
f 148/148/125 147/147/124 149/149/124 
f 144/144/122 150/150/126 142/142/120 
f 142/142/120 150/150/126 151/151/126 
f 152/152/127 153/153/128 154/154/129 
f 154/154/129 153/153/128 155/155/130 
f 156/156/131 157/157/132 158/158/133 
f 158/158/133 157/157/132 159/159/134 
f 160/160/135 161/161/136 132/132/111 
f 132/132/111 161/161/136 133/133/112 
f 160/160/135 130/130/109 161/161/136 
f 161/161/136 130/130/109 131/131/110 
f 124/124/106 125/125/106 126/126/107 
f 126/126/107 125/125/106 127/127/107 
f 162/162/137 146/146/123 163/163/138 
f 163/163/138 146/146/123 148/148/125 
f 149/149/124 147/147/124 150/150/126 
f 150/150/126 147/147/124 151/151/126 
f 158/158/133 162/162/137 156/156/131 
f 156/156/131 162/162/137 163/163/138 
f 157/157/132 153/153/128 159/159/134 
f 159/159/134 153/153/128 152/152/127 
# 44 faces

