# 3ds Max Wavefront OBJ Exporter v0.97b - (c)2007 guruware
# File Created: 09.11.2015 11:28:41

mtllib D162_265B_L.mtl

#
# object D162_265B_L_1_DTaSI_D162_265B_L
#

v  -3.3507 45.0563 -84.2797
v  -13.3077 45.7893 -84.2508
v  -3.7221 51.3069 -82.3457
v  -14.0366 52.0370 -82.2946
v  8.1118 44.2433 -84.3024
v  7.9188 50.5298 -82.3882
v  -4.0780 57.5988 -80.2809
v  7.7431 56.8801 -80.3373
v  -14.7539 58.2739 -80.2211
v  -4.4143 63.8142 -78.0621
v  -15.4418 64.4090 -78.0004
v  7.5343 63.1725 -78.1266
v  -4.7267 69.8351 -75.6662
v  7.2421 69.2853 -75.7333
v  -16.0825 70.3511 -75.6025
v  -4.9009 75.2530 -73.2698
v  -16.5061 75.8250 -73.1361
v  6.8007 74.6222 -73.4285
v  59.3606 40.8559 -84.3253
v  40.0137 42.1221 -84.3188
v  58.2667 47.5317 -82.4510
v  39.2899 48.6498 -82.4328
v  37.7756 55.1824 -80.4331
v  53.9738 54.2741 -80.4739
v  48.2618 60.4622 -78.5313
v  54.1465 60.4279 -78.4407
v  35.6865 61.5373 -78.3181
v  65.9723 53.6003 -80.5020
v  33.2379 67.5314 -76.0860
v  42.9107 65.4755 -76.7611
v  22.7487 43.2582 -84.3134
v  22.3817 49.6466 -82.4146
v  22.0298 56.0629 -80.3878
v  21.5059 62.4271 -78.1976
v  20.6226 68.6594 -75.8083
v  19.0053 73.9368 -73.6016
v  -4.8231 79.6591 -71.0498
v  6.1442 78.5864 -71.4840
v  -16.5428 80.5553 -70.7100
v  -28.9353 81.1761 -70.5185
v  -28.4217 76.3337 -73.0388
v  -23.4278 46.5344 -84.2213
v  -24.5202 52.7791 -82.2427
v  -25.6049 58.9601 -80.1603
v  -26.6501 65.0135 -77.9375
v  -27.6245 70.8755 -75.5378
v  -12.7562 41.2078 -85.7566
v  -3.0597 40.4529 -85.7754
v  8.2683 39.5709 -85.7958
v  23.0263 38.4220 -85.8195
v  40.2610 37.0802 -85.8459
v  58.9927 35.6219 -85.8745
v  75.9323 34.3032 -85.8895
v  76.7350 39.1055 -84.4810
v  88.0827 36.5165 -84.9340
v  87.7918 33.3800 -85.8728
v  90.5637 35.6210 -85.1131
v  93.4974 33.0158 -85.8002
v  88.2587 38.0721 -84.5114
v  79.6531 45.0250 -82.7975
v  76.8850 46.8502 -82.3379
v  43.8834 66.0871 -76.5009
v  33.8332 70.7271 -74.7657
v  26.6375 73.5036 -73.6995
v  21.3038 75.4166 -72.8670
v  16.7961 76.7730 -72.2703
v  13.1861 77.7872 -71.8141
v  6.0085 79.1682 -71.1708
v  -4.7292 81.4597 -70.0657
v  -16.4643 82.7346 -69.5070
v  -11.5388 82.2739 -69.7008
v  -29.0921 83.0892 -69.4507
v  -33.9226 81.2975 -70.5086
v  -34.6307 83.1321 -69.4868
v  -32.2730 76.4441 -73.0324
v  -30.6277 70.9923 -75.5283
v  -28.8995 65.1284 -77.9262
v  -26.9887 59.0449 -80.1525
v  -25.1558 52.8224 -82.2395
v  -22.0922 41.9346 -85.7382
# 80 vertices

vn 0.0192 0.3020 -0.9531
vn 0.0195 0.3062 -0.9518
vn 0.0167 0.3046 -0.9523
vn 0.0171 0.3090 -0.9509
vn 0.0189 0.2971 -0.9547
vn 0.0164 0.2997 -0.9539
vn 0.0151 0.3248 -0.9457
vn 0.0148 0.3198 -0.9474
vn 0.0155 0.3296 -0.9440
vn 0.0138 0.3536 -0.9353
vn 0.0141 0.3587 -0.9333
vn 0.0137 0.3483 -0.9373
vn 0.0123 0.3868 -0.9221
vn 0.0122 0.3798 -0.9250
vn 0.0126 0.3931 -0.9194
vn 0.0108 0.4252 -0.9050
vn 0.0112 0.4330 -0.9013
vn 0.0107 0.4145 -0.9100
vn 0.0183 0.2782 -0.9603
vn 0.0181 0.2841 -0.9586
vn 0.0184 0.2806 -0.9596
vn 0.0160 0.2873 -0.9577
vn 0.0145 0.3066 -0.9517
vn 0.0154 0.2999 -0.9538
vn 0.0149 0.3249 -0.9456
vn 0.0159 0.3177 -0.9481
vn 0.0130 0.3342 -0.9424
vn 0.0140 0.2852 -0.9584
vn 0.0131 0.3644 -0.9312
vn 0.0135 0.3531 -0.9355
vn 0.0186 0.2910 -0.9566
vn 0.0162 0.2938 -0.9557
vn 0.0147 0.3139 -0.9494
vn 0.0135 0.3424 -0.9394
vn 0.0125 0.3724 -0.9280
vn 0.0156 0.4009 -0.9160
vn 0.0103 0.4583 -0.8887
vn 0.0103 0.4470 -0.8945
vn 0.0105 0.4643 -0.8856
vn 0.0098 0.4706 -0.8823
vn 0.0105 0.4403 -0.8978
vn 0.0187 0.3083 -0.9511
vn 0.0163 0.3136 -0.9494
vn 0.0147 0.3349 -0.9421
vn 0.0133 0.3647 -0.9310
vn 0.0119 0.3996 -0.9166
vn 0.0216 0.3138 -0.9492
vn 0.0213 0.3094 -0.9507
vn 0.0209 0.3042 -0.9524
vn 0.0205 0.2975 -0.9545
vn 0.0199 0.2899 -0.9568
vn 0.0208 0.2824 -0.9591
vn 0.0216 0.2789 -0.9601
vn 0.0201 0.2708 -0.9624
vn 0.0241 0.2760 -0.9609
vn 0.0253 0.2849 -0.9582
vn 0.0308 0.2845 -0.9582
vn 0.0305 0.2869 -0.9575
vn 0.0211 0.2622 -0.9648
vn 0.0195 0.2646 -0.9642
vn 0.0154 0.2735 -0.9617
vn 0.0184 0.3599 -0.9328
vn 0.0126 0.3797 -0.9250
vn 0.0102 0.3879 -0.9217
vn 0.0083 0.4029 -0.9152
vn 0.0073 0.4296 -0.9030
vn 0.0110 0.4365 -0.8997
vn 0.0120 0.4767 -0.8790
vn 0.0112 0.4791 -0.8777
vn 0.0106 0.4833 -0.8754
vn 0.0113 0.4814 -0.8764
vn 0.0099 0.4881 -0.8727
vn 0.0096 0.4738 -0.8806
vn 0.0095 0.4893 -0.8720
vn 0.0106 0.4459 -0.8950
vn 0.0121 0.4039 -0.9147
vn 0.0136 0.3683 -0.9296
vn 0.0149 0.3378 -0.9411
vn 0.0164 0.3155 -0.9488
vn 0.0212 0.3175 -0.9480
# 80 vertex normals

vt 0.5151 0.9672 0.0000
vt 0.4725 0.9667 0.0000
vt 0.5119 0.9395 0.0000
vt 0.4678 0.9391 0.0000
vt 0.5641 0.9675 0.0000
vt 0.5617 0.9397 0.0000
vt 0.5088 0.9115 0.0000
vt 0.5593 0.9114 0.0000
vt 0.4631 0.9114 0.0000
vt 0.5057 0.8835 0.0000
vt 0.4585 0.8838 0.0000
vt 0.5568 0.8831 0.0000
vt 0.5027 0.8559 0.0000
vt 0.5539 0.8552 0.0000
vt 0.4542 0.8566 0.0000
vt 0.5005 0.8307 0.0000
vt 0.4509 0.8311 0.0000
vt 0.5506 0.8305 0.0000
vt 0.7833 0.9681 0.0000
vt 0.7006 0.9679 0.0000
vt 0.7770 0.9391 0.0000
vt 0.6958 0.9394 0.0000
vt 0.6877 0.9108 0.0000
vt 0.7569 0.9104 0.0000
vt 0.7310 0.8843 0.0000
vt 0.7561 0.8828 0.0000
vt 0.6771 0.8828 0.0000
vt 0.8082 0.9101 0.0000
vt 0.6651 0.8562 0.0000
vt 0.7069 0.8630 0.0000
vt 0.6267 0.9678 0.0000
vt 0.6235 0.9396 0.0000
vt 0.6204 0.9112 0.0000
vt 0.6165 0.8827 0.0000
vt 0.6111 0.8545 0.0000
vt 0.6028 0.8305 0.0000
vt 0.4996 0.8097 0.0000
vt 0.5467 0.8119 0.0000
vt 0.4494 0.8086 0.0000
vt 0.3964 0.8089 0.0000
vt 0.4000 0.8320 0.0000
vt 0.4292 0.9663 0.0000
vt 0.4229 0.9387 0.0000
vt 0.4167 0.9113 0.0000
vt 0.4106 0.8841 0.0000
vt 0.4049 0.8573 0.0000
vt 0.4760 0.9871 0.0000
vt 0.5175 0.9877 0.0000
vt 0.5660 0.9883 0.0000
vt 0.6291 0.9892 0.0000
vt 0.7029 0.9902 0.0000
vt 0.7831 0.9913 0.0000
vt 0.8556 0.9923 0.0000
vt 0.8578 0.9709 0.0000
vt 0.9068 0.9790 0.0000
vt 0.9063 0.9929 0.0000
vt 0.9176 0.9822 0.0000
vt 0.9307 0.9928 0.0000
vt 0.9071 0.9721 0.0000
vt 0.8687 0.9442 0.0000
vt 0.8565 0.9369 0.0000
vt 0.7109 0.8599 0.0000
vt 0.6668 0.8413 0.0000
vt 0.6354 0.8304 0.0000
vt 0.6121 0.8229 0.0000
vt 0.5926 0.8177 0.0000
vt 0.5769 0.8139 0.0000
vt 0.5459 0.8091 0.0000
vt 0.4995 0.8010 0.0000
vt 0.4491 0.7980 0.0000
vt 0.4703 0.7989 0.0000
vt 0.3952 0.7996 0.0000
vt 0.3752 0.8096 0.0000
vt 0.3716 0.8009 0.0000
vt 0.3836 0.8325 0.0000
vt 0.3921 0.8576 0.0000
vt 0.4010 0.8842 0.0000
vt 0.4108 0.9113 0.0000
vt 0.4202 0.9387 0.0000
vt 0.4361 0.9865 0.0000
# 80 texture coords

g D162_265B_L_1_DTaSI_D162_265B_L
usemtl windowglass_1SG
s 1
f 1/1/1 2/2/2 3/3/3 
f 3/3/3 2/2/2 4/4/4 
f 5/5/5 1/1/1 6/6/6 
f 6/6/6 1/1/1 3/3/3 
f 7/7/7 8/8/8 3/3/3 
f 3/3/3 8/8/8 6/6/6 
f 9/9/9 7/7/7 4/4/4 
f 4/4/4 7/7/7 3/3/3 
f 7/7/7 9/9/9 10/10/10 
f 10/10/10 9/9/9 11/11/11 
f 8/8/8 7/7/7 12/12/12 
f 12/12/12 7/7/7 10/10/10 
f 13/13/13 14/14/14 10/10/10 
f 10/10/10 14/14/14 12/12/12 
f 15/15/15 13/13/13 11/11/11 
f 11/11/11 13/13/13 10/10/10 
f 13/13/13 15/15/15 16/16/16 
f 16/16/16 15/15/15 17/17/17 
f 14/14/14 13/13/13 18/18/18 
f 18/18/18 13/13/13 16/16/16 
f 19/19/19 20/20/20 21/21/21 
f 21/21/21 20/20/20 22/22/22 
f 23/23/23 24/24/24 22/22/22 
f 22/22/22 24/24/24 21/21/21 
f 23/23/23 25/25/25 24/24/24 
f 24/24/24 25/25/25 26/26/26 
f 25/25/25 23/23/23 27/27/27 
f 26/26/26 28/28/28 24/24/24 
f 24/24/24 28/28/28 21/21/21 
f 29/29/29 30/30/30 27/27/27 
f 27/27/27 30/30/30 25/25/25 
f 31/31/31 5/5/5 32/32/32 
f 32/32/32 5/5/5 6/6/6 
f 20/20/20 31/31/31 22/22/22 
f 22/22/22 31/31/31 32/32/32 
f 33/33/33 8/8/8 34/34/34 
f 34/34/34 8/8/8 12/12/12 
f 23/23/23 33/33/33 27/27/27 
f 27/27/27 33/33/33 34/34/34 
f 33/33/33 23/23/23 32/32/32 
f 32/32/32 23/23/23 22/22/22 
f 8/8/8 33/33/33 6/6/6 
f 6/6/6 33/33/33 32/32/32 
f 35/35/35 29/29/29 34/34/34 
f 34/34/34 29/29/29 27/27/27 
f 14/14/14 35/35/35 12/12/12 
f 12/12/12 35/35/35 34/34/34 
f 35/35/35 14/14/14 36/36/36 
f 36/36/36 14/14/14 18/18/18 
f 37/37/37 38/38/38 16/16/16 
f 16/16/16 38/38/38 18/18/18 
f 39/39/39 37/37/37 17/17/17 
f 17/17/17 37/37/37 16/16/16 
f 40/40/40 39/39/39 41/41/41 
f 41/41/41 39/39/39 17/17/17 
f 2/2/2 42/42/42 4/4/4 
f 4/4/4 42/42/42 43/43/43 
f 44/44/44 9/9/9 43/43/43 
f 43/43/43 9/9/9 4/4/4 
f 9/9/9 44/44/44 11/11/11 
f 11/11/11 44/44/44 45/45/45 
f 46/46/46 15/15/15 45/45/45 
f 45/45/45 15/15/15 11/11/11 
f 15/15/15 46/46/46 17/17/17 
f 17/17/17 46/46/46 41/41/41 
f 2/2/2 1/1/1 47/47/47 
f 47/47/47 1/1/1 48/48/48 
f 1/1/1 5/5/5 48/48/48 
f 48/48/48 5/5/5 49/49/49 
f 5/5/5 31/31/31 49/49/49 
f 49/49/49 31/31/31 50/50/50 
f 31/31/31 20/20/20 50/50/50 
f 50/50/50 20/20/20 51/51/51 
f 20/20/20 19/19/19 51/51/51 
f 51/51/51 19/19/19 52/52/52 
f 52/52/52 19/19/19 53/53/53 
f 53/53/53 19/19/19 54/54/54 
f 54/54/54 55/55/55 53/53/53 
f 53/53/53 55/55/55 56/56/56 
f 55/55/55 57/57/57 56/56/56 
f 56/56/56 57/57/57 58/58/58 
f 59/59/59 57/57/57 55/55/55 
f 55/55/55 54/54/54 59/59/59 
f 59/59/59 54/54/54 60/60/60 
f 21/21/21 28/28/28 19/19/19 
f 19/19/19 28/28/28 61/61/61 
f 30/30/30 62/62/62 25/25/25 
f 25/25/25 62/62/62 26/26/26 
f 62/62/62 30/30/30 63/63/63 
f 63/63/63 30/30/30 29/29/29 
f 63/63/63 29/29/29 64/64/64 
f 64/64/64 29/29/29 35/35/35 
f 65/65/65 36/36/36 66/66/66 
f 66/66/66 36/36/36 67/67/67 
f 36/36/36 18/18/18 67/67/67 
f 67/67/67 18/18/18 38/38/38 
f 38/38/38 68/68/68 67/67/67 
f 38/38/38 37/37/37 68/68/68 
f 68/68/68 37/37/37 69/69/69 
f 70/70/70 71/71/71 39/39/39 
f 69/69/69 37/37/37 71/71/71 
f 71/71/71 37/37/37 39/39/39 
f 39/39/39 40/40/40 70/70/70 
f 70/70/70 40/40/40 72/72/72 
f 40/40/40 73/73/73 72/72/72 
f 72/72/72 73/73/73 74/74/74 
f 73/73/73 40/40/40 75/75/75 
f 75/75/75 40/40/40 41/41/41 
f 46/46/46 76/76/76 41/41/41 
f 41/41/41 76/76/76 75/75/75 
f 76/76/76 46/46/46 77/77/77 
f 77/77/77 46/46/46 45/45/45 
f 44/44/44 78/78/78 45/45/45 
f 45/45/45 78/78/78 77/77/77 
f 78/78/78 44/44/44 79/79/79 
f 79/79/79 44/44/44 43/43/43 
f 42/42/42 79/79/79 43/43/43 
f 42/42/42 2/2/2 80/80/80 
f 80/80/80 2/2/2 47/47/47 
f 60/60/60 54/54/54 61/61/61 
f 61/61/61 54/54/54 19/19/19 
f 64/64/64 35/35/35 65/65/65 
f 65/65/65 35/35/35 36/36/36 
# 123 faces

