# 3ds Max Wavefront OBJ Exporter v0.97b - (c)2007 guruware
# File Created: 14.12.2015 12:19:30

mtllib U417_182C_C.mtl

#
# object U417_182C_C_1_D_U417_182C_C
#

v  124.7258 37.3637 50.8588
v  125.9735 37.7530 50.2665
v  126.5418 37.6523 38.2591
v  127.6707 38.0776 38.3613
v  128.2992 38.2157 26.9079
v  127.1286 37.7515 26.8337
v  125.9480 37.2773 26.7582
v  125.4474 37.2281 37.9773
v  123.8210 37.0527 50.0388
v  128.6745 38.4145 13.9730
v  127.4259 37.8741 13.9637
v  128.8350 38.5335 0.0000
v  127.5482 37.9471 0.0000
v  126.2517 37.3507 0.0000
v  126.1675 37.3237 13.9542
v  124.9612 37.2950 26.7270
v  125.1425 37.3127 13.9503
v  125.2085 37.3202 0.0000
v  123.0163 37.1350 49.4890
v  124.5111 37.2587 37.8347
v  117.7610 35.4717 76.6388
v  117.9690 35.1932 79.4903
v  119.1497 36.0664 76.1355
v  117.0919 35.3496 75.7692
v  120.5681 36.5572 64.2798
v  116.1508 35.5284 75.3427
v  119.9212 36.7458 63.2349
v  120.8199 36.5974 67.7272
v  119.9799 36.3355 73.4573
v  121.0767 36.5932 70.3248
v  122.9798 37.0847 63.0718
v  116.5933 33.4629 81.9568
v  114.7166 33.0952 82.2834
v  113.0869 33.0723 82.4089
v  128.4140 37.5657 26.9032
v  127.7720 37.4254 38.3576
v  126.0505 37.0978 50.2531
v  128.9708 37.8875 0.0000
v  128.8033 37.7672 13.9673
v  123.0102 36.4269 63.0377
v  121.0743 35.9352 70.2740
v  119.9678 35.6778 73.4029
v  119.3874 35.5298 75.5508
v  119.3109 35.4338 76.0453
v  117.9690 34.4319 79.4903
v  118.2130 34.6141 78.8639
v  124.7258 37.3637 -50.8588
v  126.5418 37.6523 -38.2591
v  125.9735 37.7530 -50.2665
v  127.6707 38.0776 -38.3613
v  128.2992 38.2157 -26.9079
v  127.1286 37.7515 -26.8337
v  125.9480 37.2773 -26.7582
v  125.4474 37.2281 -37.9773
v  123.8210 37.0527 -50.0388
v  128.6745 38.4145 -13.9730
v  127.4259 37.8741 -13.9637
v  126.1675 37.3237 -13.9542
v  124.9612 37.2950 -26.7270
v  125.1425 37.3127 -13.9503
v  123.0163 37.1350 -49.4890
v  124.5111 37.2587 -37.8347
v  117.0919 35.3496 -75.7692
v  116.1508 35.5284 -75.3427
v  120.5681 36.5572 -64.2798
v  119.9212 36.7458 -63.2349
v  120.8199 36.5974 -67.7272
v  117.7610 35.4717 -76.6388
v  119.1497 36.0664 -76.1355
v  119.9799 36.3355 -73.4573
v  121.0767 36.5932 -70.3248
v  122.9798 37.0847 -63.0718
v  117.9690 35.1932 -79.4903
v  116.5933 33.4629 -81.9568
v  114.7166 33.0952 -82.2834
v  113.0869 33.0723 -82.4089
v  128.4140 37.5657 -26.9032
v  127.7720 37.4254 -38.3576
v  126.0505 37.0978 -50.2531
v  128.8033 37.7672 -13.9673
v  123.0102 36.4269 -63.0377
v  121.0743 35.9352 -70.2740
v  119.9678 35.6778 -73.4029
v  119.3874 35.5298 -75.5508
v  119.3109 35.4338 -76.0453
v  118.2130 34.6141 -78.8639
v  117.9690 34.4319 -79.4903
# 87 vertices

vn -0.3010 0.9533 -0.0259
vn -0.3088 0.9509 -0.0225
vn -0.3524 0.9356 -0.0198
vn -0.3512 0.9362 -0.0163
vn -0.3680 0.9298 -0.0032
vn -0.3707 0.9287 -0.0045
vn -0.2094 0.9778 -0.0016
vn -0.1966 0.9805 -0.0081
vn -0.1392 0.9903 0.0018
vn -0.3970 0.9178 0.0007
vn -0.3989 0.9170 -0.0007
vn -0.4146 0.9100 -0.0000
vn -0.4158 0.9095 -0.0000
vn -0.2588 0.9659 -0.0000
vn -0.2395 0.9709 -0.0008
vn 0.0170 0.9998 0.0039
vn -0.0108 0.9999 0.0008
vn -0.0284 0.9996 -0.0000
vn 0.0778 0.9964 0.0332
vn 0.0307 0.9995 0.0100
vn -0.3905 0.9155 0.0971
vn -0.6547 0.7462 0.1206
vn -0.3940 0.9191 -0.0036
vn -0.0832 0.9826 0.1663
vn -0.0778 0.9959 0.0463
vn 0.0864 0.9734 0.2122
vn 0.1461 0.9856 0.0856
vn -0.2569 0.9664 0.0105
vn -0.3064 0.9519 -0.0014
vn -0.1775 0.9839 0.0191
vn -0.2470 0.9689 -0.0127
vn -0.1941 0.9435 0.2685
vn -0.0398 0.9482 0.3151
vn 0.0124 0.9428 0.3331
vn 0.9838 0.1738 0.0435
vn 0.9831 0.1518 0.1025
vn 0.9839 0.1731 0.0435
vn 0.9830 0.1521 0.1025
vn 0.9757 0.1101 0.1896
vn 0.9756 0.1107 0.1897
vn 0.9786 0.2057 -0.0000
vn 0.9805 0.1951 0.0221
vn 0.9787 0.2054 -0.0000
vn 0.9806 0.1946 0.0221
vn 0.9699 0.0339 0.2412
vn 0.9700 0.0312 0.2412
vn 0.9600 -0.0229 0.2790
vn 0.9599 -0.0256 0.2790
vn 0.9520 -0.0315 0.3046
vn 0.9526 -0.0424 0.3013
vn 0.9528 0.0865 0.2909
vn 0.9252 0.1589 0.3446
vn 0.9229 0.1662 0.3475
vn 0.9307 0.0293 0.3646
vn 0.9318 0.0000 0.3630
vn -0.3010 0.9533 0.0259
vn -0.3524 0.9356 0.0198
vn -0.3088 0.9509 0.0225
vn -0.3512 0.9362 0.0163
vn -0.3680 0.9298 0.0032
vn -0.3707 0.9287 0.0045
vn -0.2094 0.9778 0.0016
vn -0.1966 0.9805 0.0081
vn -0.1392 0.9903 -0.0018
vn -0.3970 0.9178 -0.0007
vn -0.3989 0.9170 0.0007
vn -0.2395 0.9709 0.0008
vn 0.0170 0.9998 -0.0039
vn -0.0108 0.9999 -0.0008
vn 0.0778 0.9964 -0.0332
vn 0.0307 0.9995 -0.0100
vn -0.0832 0.9826 -0.1663
vn 0.0864 0.9734 -0.2122
vn -0.0778 0.9959 -0.0463
vn 0.1461 0.9856 -0.0856
vn -0.2569 0.9664 -0.0105
vn -0.3905 0.9155 -0.0971
vn -0.3940 0.9191 0.0036
vn -0.3065 0.9519 0.0014
vn -0.1775 0.9839 -0.0191
vn -0.2470 0.9689 0.0127
vn -0.6547 0.7462 -0.1206
vn -0.1941 0.9435 -0.2685
vn -0.0398 0.9482 -0.3151
vn 0.0124 0.9428 -0.3331
vn 0.9838 0.1738 -0.0435
vn 0.9839 0.1731 -0.0435
vn 0.9831 0.1518 -0.1025
vn 0.9830 0.1521 -0.1025
vn 0.9757 0.1101 -0.1896
vn 0.9756 0.1107 -0.1897
vn 0.9805 0.1951 -0.0221
vn 0.9806 0.1946 -0.0221
vn 0.9699 0.0339 -0.2412
vn 0.9700 0.0312 -0.2412
vn 0.9600 -0.0229 -0.2790
vn 0.9599 -0.0256 -0.2790
vn 0.9520 -0.0314 -0.3046
vn 0.9526 -0.0424 -0.3013
vn 0.9528 0.0865 -0.2909
vn 0.9252 0.1590 -0.3446
vn 0.9228 0.1662 -0.3475
vn 0.9307 0.0293 -0.3646
vn 0.9318 0.0000 -0.3630
# 104 vertex normals

g U417_182C_C_1_D_U417_182C_C
usemtl diffuse_black_plasticSG
s 1
f 1//1 2//2 3//3 
f 2//2 4//4 3//3 
f 4//4 5//5 3//3 
f 5//5 6//6 3//3 
f 7//7 8//8 6//6 
f 8//8 3//3 6//6 
f 8//8 9//9 3//3 
f 9//9 1//1 3//3 
f 5//5 10//10 6//6 
f 10//10 11//11 6//6 
f 12//12 13//13 10//10 
f 13//13 11//11 10//10 
f 13//13 14//14 11//11 
f 14//14 15//15 11//11 
f 15//15 7//7 11//11 
f 7//7 6//6 11//11 
f 7//7 15//15 16//16 
f 15//15 17//17 16//16 
f 14//14 18//18 15//15 
f 18//18 17//17 15//15 
f 9//9 8//8 19//19 
f 8//8 20//20 19//19 
f 8//8 7//7 20//20 
f 7//7 16//16 20//20 
f 21//21 22//22 23//23 
f 24//24 25//25 26//26 
f 25//25 27//27 26//26 
f 25//25 9//9 27//27 
f 9//9 19//19 27//27 
f 9//9 25//25 1//1 
f 25//25 28//28 1//1 
f 25//25 24//24 28//28 
f 24//24 21//21 28//28 
f 23//23 28//28 21//21 
f 29//29 28//28 23//23 
f 29//29 30//30 28//28 
f 30//30 31//31 28//28 
f 2//2 1//1 31//31 
f 1//1 28//28 31//31 
f 21//21 32//32 22//22 
f 21//21 24//24 32//32 
f 24//24 33//33 32//32 
f 24//24 26//26 33//33 
f 26//26 34//34 33//33 
s 6
f 5//35 4//36 35//37 
f 4//36 36//38 35//37 
f 36//38 4//36 37//39 
f 4//36 2//40 37//39 
f 12//41 10//42 38//43 
f 10//42 39//44 38//43 
f 10//42 5//35 39//44 
f 5//35 35//37 39//44 
f 2//40 31//45 37//39 
f 31//45 40//46 37//39 
f 31//45 30//47 40//46 
f 30//47 41//48 40//46 
f 30//47 29//49 41//48 
f 29//49 42//50 41//48 
f 42//50 29//49 43//51 
f 29//49 23//52 43//51 
f 23//52 44//53 43//51 
f 22//54 45//55 46//55 
f 23//52 22//54 44//53 
f 22//54 46//55 44//53 
s 1
f 47//56 48//57 49//58 
f 49//58 48//57 50//59 
f 50//59 48//57 51//60 
f 51//60 48//57 52//61 
f 53//62 52//61 54//63 
f 54//63 52//61 48//57 
f 54//63 48//57 55//64 
f 55//64 48//57 47//56 
f 51//60 52//61 56//65 
f 56//65 52//61 57//66 
f 12//12 56//65 13//13 
f 13//13 56//65 57//66 
f 13//13 57//66 14//14 
f 14//14 57//66 58//67 
f 58//67 57//66 53//62 
f 53//62 57//66 52//61 
f 53//62 59//68 58//67 
f 58//67 59//68 60//69 
f 14//14 58//67 18//18 
f 18//18 58//67 60//69 
f 55//64 61//70 54//63 
f 54//63 61//70 62//71 
f 54//63 62//71 53//62 
f 53//62 62//71 59//68 
f 63//72 64//73 65//74 
f 65//74 64//73 66//75 
f 65//74 66//75 55//64 
f 55//64 66//75 61//70 
f 55//64 47//56 65//74 
f 65//74 47//56 67//76 
f 65//74 67//76 63//72 
f 63//72 67//76 68//77 
f 69//78 68//77 67//76 
f 70//79 69//78 67//76 
f 70//79 67//76 71//80 
f 71//80 67//76 72//81 
f 49//58 72//81 47//56 
f 47//56 72//81 67//76 
f 68//77 73//82 74//83 
f 68//77 74//83 63//72 
f 63//72 74//83 75//84 
f 63//72 75//84 64//73 
f 64//73 75//84 76//85 
s 6
f 51//86 77//87 50//88 
f 50//88 77//87 78//89 
f 78//89 79//90 50//88 
f 50//88 79//90 49//91 
f 12//41 38//43 56//92 
f 56//92 38//43 80//93 
f 56//92 80//93 51//86 
f 51//86 80//93 77//87 
f 49//91 79//90 72//94 
f 72//94 79//90 81//95 
f 72//94 81//95 71//96 
f 71//96 81//95 82//97 
f 71//96 82//97 70//98 
f 70//98 82//97 83//99 
f 83//99 84//100 70//98 
f 70//98 84//100 69//101 
f 69//101 84//100 85//102 
f 73//103 86//104 87//104 
f 69//101 85//102 73//103 
f 73//103 85//102 86//104 
s 1
f 69//78 73//82 68//77 
# 128 faces

