# 3ds Max Wavefront OBJ Exporter v0.97b - (c)2007 guruware
# File Created: 14.12.2015 12:21:02

mtllib U417_285B_R.mtl

#
# object U417_285B_R_1_DTaSI_U417_285B_R
#

v  65.1058 56.3911 73.3066
v  65.6735 53.1166 75.4692
v  69.8276 54.3546 74.2039
v  70.0945 52.5292 75.6549
v  60.3763 54.1513 74.9299
v  60.1200 58.3616 72.1984
v  55.5766 55.2736 74.3711
v  55.3908 60.2214 71.0686
v  44.3476 64.1049 68.6356
v  43.3977 58.0962 72.9051
v  49.7775 62.1861 69.8396
v  49.3225 56.7885 73.5912
v  16.6762 61.7870 71.4583
v  16.7249 69.9460 65.9892
v  5.9800 62.8949 71.2495
v  4.5010 71.2327 65.8726
v  -12.6506 72.0533 65.9964
v  -10.2669 64.9815 70.7515
v  -4.0451 71.6572 66.0961
v  -2.0047 63.7366 71.0733
v  43.5297 46.5048 79.6507
v  43.7727 42.4735 81.7694
v  50.0036 46.2611 79.6476
v  50.2869 42.2662 81.7211
v  62.4693 41.8819 81.6091
v  61.7830 45.8356 79.6104
v  56.8011 42.0589 81.6728
v  56.4776 46.0173 79.6445
v  60.9621 50.1602 77.2890
v  56.0073 50.6457 77.1091
v  43.1701 51.9870 76.6822
v  49.5887 51.3164 76.8957
v  0.0740 54.5509 76.3936
v  -7.1156 54.8016 76.5421
v  7.2635 54.3002 76.2451
v  16.9251 53.9171 76.1393
v  34.8784 52.7605 76.3579
v  34.6587 59.4382 72.2900
v  26.5867 53.5340 76.0336
v  26.2182 60.7055 71.7156
v  2.6497 39.9621 84.1594
v  1.9748 43.9208 82.2304
v  -2.7989 40.1915 84.2094
v  -3.9213 44.1419 82.3092
v  3.1884 36.6390 85.7518
v  -1.8517 36.8585 85.7858
v  35.7575 38.6589 83.8696
v  35.5197 42.7464 81.8480
v  27.5281 38.9680 83.9352
v  27.2668 43.0194 81.9267
v  7.8708 43.6997 82.1517
v  8.0983 39.7326 84.1093
v  17.5688 43.3595 82.0392
v  17.8132 39.3503 84.0223
v  8.2286 36.4196 85.7179
v  17.9629 35.7996 85.7656
v  35.9150 34.6790 85.8585
v  27.6971 35.1796 85.8132
v  63.5917 32.9832 86.0541
v  63.1121 37.6089 83.6988
v  57.2533 33.2784 86.0550
v  57.0668 37.8516 83.7346
v  43.9868 38.3498 83.8040
v  50.5268 38.1007 83.7693
v  44.1329 34.1783 85.9038
v  50.6931 33.7283 85.9794
v  1.2684 48.0369 80.0595
v  -5.0913 48.2661 80.1616
v  35.2591 46.8246 79.6856
v  26.9885 47.1444 79.7206
v  7.6280 47.8077 79.9574
v  17.3083 47.4761 79.8390
v  66.4052 49.6421 77.4654
v  70.5424 49.3661 77.4361
v  67.1535 45.6555 79.5685
v  71.1008 45.5735 79.4381
v  68.0515 41.7076 81.5464
v  71.6800 41.6288 81.4354
v  68.9918 37.3728 83.6640
v  72.3205 37.2621 83.6022
v  69.9302 32.6880 86.0531
v  73.0111 32.5635 86.0276
v  26.2586 68.6645 66.2879
v  34.8642 66.6521 67.2328
v  -15.0342 79.1251 61.2413
v  -5.9046 78.6198 60.9332
v  3.2249 78.1144 60.6252
v  16.8326 76.6056 60.7050
v  26.3836 74.9773 61.1675
v  35.1201 72.3331 62.4257
v  45.2454 68.7111 64.5492
v  50.2936 66.3275 66.1626
v  55.3417 63.9439 67.7759
v  60.1185 61.4512 69.4108
v  64.8953 58.9585 71.0457
v  69.5608 56.1801 72.7530
# 96 vertices

vn 0.0724 0.5992 0.7973
vn 0.0351 0.5313 0.8465
vn 0.0845 0.6025 0.7937
vn 0.0398 0.5402 0.8406
vn 0.0222 0.5283 0.8487
vn 0.0543 0.6015 0.7970
vn 0.0242 0.5326 0.8460
vn 0.0473 0.6051 0.7947
vn 0.0454 0.6115 0.7900
vn 0.0235 0.5496 0.8351
vn 0.0426 0.6100 0.7912
vn 0.0238 0.5425 0.8397
vn 0.0387 0.5350 0.8440
vn 0.0536 0.5863 0.8083
vn 0.0398 0.5290 0.8477
vn 0.0528 0.5806 0.8124
vn 0.0305 0.5756 0.8171
vn 0.0375 0.5308 0.8467
vn 0.0399 0.5755 0.8168
vn 0.0415 0.5229 0.8514
vn 0.0210 0.4729 0.8809
vn 0.0221 0.4543 0.8906
vn 0.0191 0.4721 0.8813
vn 0.0206 0.4514 0.8921
vn 0.0236 0.4475 0.8940
vn 0.0215 0.4650 0.8851
vn 0.0221 0.4487 0.8934
vn 0.0195 0.4700 0.8825
vn 0.0173 0.4919 0.8705
vn 0.0200 0.4952 0.8685
vn 0.0184 0.5030 0.8641
vn 0.0218 0.4978 0.8670
vn 0.0349 0.5016 0.8644
vn 0.0374 0.5015 0.8643
vn 0.0329 0.5031 0.8636
vn 0.0301 0.5064 0.8617
vn 0.0160 0.5080 0.8612
vn 0.0253 0.5484 0.8359
vn 0.0229 0.5096 0.8601
vn 0.0333 0.5420 0.8397
vn 0.0268 0.4390 0.8981
vn 0.0291 0.4569 0.8891
vn 0.0274 0.4380 0.8985
vn 0.0297 0.4579 0.8885
vn 0.0256 0.4358 0.8997
vn 0.0260 0.4342 0.9004
vn 0.0235 0.4457 0.8949
vn 0.0233 0.4568 0.8893
vn 0.0243 0.4448 0.8953
vn 0.0247 0.4589 0.8881
vn 0.0272 0.4585 0.8883
vn 0.0259 0.4408 0.8972
vn 0.0263 0.4588 0.8881
vn 0.0252 0.4429 0.8962
vn 0.0249 0.4381 0.8986
vn 0.0244 0.4419 0.8967
vn 0.0229 0.4481 0.8937
vn 0.0237 0.4453 0.8951
vn 0.0220 0.4560 0.8897
vn 0.0230 0.4490 0.8933
vn 0.0217 0.4536 0.8909
vn 0.0224 0.4473 0.8941
vn 0.0225 0.4464 0.8945
vn 0.0214 0.4467 0.8944
vn 0.0220 0.4504 0.8925
vn 0.0211 0.4520 0.8918
vn 0.0320 0.4861 0.8733
vn 0.0328 0.4863 0.8732
vn 0.0205 0.4802 0.8769
vn 0.0234 0.4885 0.8723
vn 0.0292 0.4882 0.8723
vn 0.0277 0.4891 0.8718
vn 0.0265 0.4848 0.8742
vn 0.0386 0.4807 0.8760
vn 0.0295 0.4619 0.8864
vn 0.0385 0.4624 0.8858
vn 0.0292 0.4481 0.8935
vn 0.0360 0.4504 0.8921
vn 0.0263 0.4516 0.8918
vn 0.0306 0.4547 0.8901
vn 0.0241 0.4588 0.8882
vn 0.0260 0.4615 0.8867
vn 0.0546 0.5944 0.8023
vn 0.0501 0.6055 0.7943
vn 0.0592 0.5707 0.8190
vn 0.0485 0.5934 0.8034
vn 0.0599 0.6105 0.7898
vn 0.0631 0.6179 0.7837
vn 0.0695 0.6253 0.7773
vn 0.0712 0.6383 0.7665
vn 0.0673 0.6509 0.7562
vn 0.0685 0.6565 0.7512
vn 0.0750 0.6598 0.7476
vn 0.0899 0.6649 0.7415
vn 0.1032 0.6635 0.7410
vn 0.1245 0.6407 0.7576
# 96 vertex normals

vt 0.7243 0.1303 0.0000
vt 0.7275 0.1172 0.0000
vt 0.7411 0.1244 0.0000
vt 0.7427 0.1167 0.0000
vt 0.7091 0.1194 0.0000
vt 0.7066 0.1364 0.0000
vt 0.6924 0.1221 0.0000
vt 0.6898 0.1422 0.0000
vt 0.6509 0.1540 0.0000
vt 0.6500 0.1288 0.0000
vt 0.6700 0.1482 0.0000
vt 0.6706 0.1257 0.0000
vt 0.5580 0.1331 0.0000
vt 0.5549 0.1665 0.0000
vt 0.5213 0.1332 0.0000
vt 0.5130 0.1663 0.0000
vt 0.4546 0.1628 0.0000
vt 0.4654 0.1347 0.0000
vt 0.4839 0.1643 0.0000
vt 0.4939 0.1333 0.0000
vt 0.6550 0.0833 0.0000
vt 0.6573 0.0679 0.0000
vt 0.6770 0.0847 0.0000
vt 0.6795 0.0696 0.0000
vt 0.7210 0.0727 0.0000
vt 0.7171 0.0875 0.0000
vt 0.7017 0.0712 0.0000
vt 0.6991 0.0862 0.0000
vt 0.7127 0.1039 0.0000
vt 0.6957 0.1039 0.0000
vt 0.6516 0.1043 0.0000
vt 0.6737 0.1041 0.0000
vt 0.5045 0.0979 0.0000
vt 0.4800 0.0960 0.0000
vt 0.5290 0.0999 0.0000
vt 0.5619 0.1021 0.0000
vt 0.6232 0.1044 0.0000
vt 0.6199 0.1308 0.0000
vt 0.5948 0.1044 0.0000
vt 0.5908 0.1327 0.0000
vt 0.5189 0.0427 0.0000
vt 0.5151 0.0574 0.0000
vt 0.5003 0.0415 0.0000
vt 0.4950 0.0560 0.0000
vt 0.5219 0.0305 0.0000
vt 0.5048 0.0294 0.0000
vt 0.6316 0.0505 0.0000
vt 0.6292 0.0658 0.0000
vt 0.6036 0.0485 0.0000
vt 0.6012 0.0638 0.0000
vt 0.5351 0.0589 0.0000
vt 0.5374 0.0440 0.0000
vt 0.5681 0.0613 0.0000
vt 0.5705 0.0463 0.0000
vt 0.5391 0.0316 0.0000
vt 0.5724 0.0329 0.0000
vt 0.6337 0.0355 0.0000
vt 0.6056 0.0343 0.0000
vt 0.7282 0.0394 0.0000
vt 0.7248 0.0569 0.0000
vt 0.7065 0.0382 0.0000
vt 0.7042 0.0555 0.0000
vt 0.6596 0.0525 0.0000
vt 0.6819 0.0540 0.0000
vt 0.6617 0.0367 0.0000
vt 0.6841 0.0374 0.0000
vt 0.5111 0.0730 0.0000
vt 0.4894 0.0713 0.0000
vt 0.6268 0.0814 0.0000
vt 0.5986 0.0795 0.0000
vt 0.5327 0.0746 0.0000
vt 0.5657 0.0771 0.0000
vt 0.7313 0.1039 0.0000
vt 0.7455 0.1045 0.0000
vt 0.7354 0.0888 0.0000
vt 0.7488 0.0901 0.0000
vt 0.7399 0.0742 0.0000
vt 0.7523 0.0754 0.0000
vt 0.7448 0.0582 0.0000
vt 0.7561 0.0591 0.0000
vt 0.7498 0.0407 0.0000
vt 0.7602 0.0414 0.0000
vt 0.5878 0.1654 0.0000
vt 0.6177 0.1607 0.0000
vt 0.4437 0.1909 0.0000
vt 0.4748 0.1930 0.0000
vt 0.5059 0.1951 0.0000
vt 0.5526 0.1951 0.0000
vt 0.5856 0.1927 0.0000
vt 0.6163 0.1857 0.0000
vt 0.6520 0.1749 0.0000
vt 0.6701 0.1668 0.0000
vt 0.6882 0.1587 0.0000
vt 0.7053 0.1502 0.0000
vt 0.7225 0.1417 0.0000
vt 0.7394 0.1322 0.0000
# 96 texture coords

g U417_285B_R_1_DTaSI_U417_285B_R
usemtl windowglass_1SG
s 1
f 1/1/1 2/2/2 3/3/3 
f 2/2/2 4/4/4 3/3/3 
f 5/5/5 6/6/6 7/7/7 
f 6/6/6 8/8/8 7/7/7 
f 9/9/9 10/10/10 11/11/11 
f 10/10/10 12/12/12 11/11/11 
f 13/13/13 14/14/14 15/15/15 
f 14/14/14 16/16/16 15/15/15 
f 17/17/17 18/18/18 19/19/19 
f 18/18/18 20/20/20 19/19/19 
f 21/21/21 22/22/22 23/23/23 
f 22/22/22 24/24/24 23/23/23 
f 25/25/25 26/26/26 27/27/27 
f 26/26/26 28/28/28 27/27/27 
f 26/26/26 29/29/29 28/28/28 
f 29/29/29 30/30/30 28/28/28 
f 31/31/31 21/21/21 32/32/32 
f 21/21/21 23/23/23 32/32/32 
f 33/33/33 20/20/20 34/34/34 
f 20/20/20 18/18/18 34/34/34 
f 15/15/15 35/35/35 13/13/13 
f 35/35/35 36/36/36 13/13/13 
f 37/37/37 38/38/38 39/39/39 
f 38/38/38 40/40/40 39/39/39 
f 10/10/10 31/31/31 12/12/12 
f 31/31/31 32/32/32 12/12/12 
f 29/29/29 5/5/5 30/30/30 
f 5/5/5 7/7/7 30/30/30 
f 41/41/41 42/42/42 43/43/43 
f 42/42/42 44/44/44 43/43/43 
f 45/45/45 41/41/41 46/46/46 
f 41/41/41 43/43/43 46/46/46 
f 47/47/47 48/48/48 49/49/49 
f 48/48/48 50/50/50 49/49/49 
f 51/51/51 52/52/52 53/53/53 
f 52/52/52 54/54/54 53/53/53 
f 52/52/52 55/55/55 54/54/54 
f 55/55/55 56/56/56 54/54/54 
f 57/57/57 47/47/47 58/58/58 
f 47/47/47 49/49/49 58/58/58 
f 59/59/59 60/60/60 61/61/61 
f 60/60/60 62/62/62 61/61/61 
f 60/60/60 25/25/25 62/62/62 
f 25/25/25 27/27/27 62/62/62 
f 22/22/22 63/63/63 24/24/24 
f 63/63/63 64/64/64 24/24/24 
f 63/63/63 65/65/65 64/64/64 
f 65/65/65 66/66/66 64/64/64 
f 67/67/67 33/33/33 68/68/68 
f 33/33/33 34/34/34 68/68/68 
f 42/42/42 67/67/67 44/44/44 
f 67/67/67 68/68/68 44/44/44 
f 69/69/69 37/37/37 70/70/70 
f 37/37/37 39/39/39 70/70/70 
f 35/35/35 71/71/71 36/36/36 
f 71/71/71 72/72/72 36/36/36 
f 71/71/71 51/51/51 72/72/72 
f 51/51/51 53/53/53 72/72/72 
f 48/48/48 69/69/69 50/50/50 
f 69/69/69 70/70/70 50/50/50 
f 2/2/2 73/73/73 4/4/4 
f 73/73/73 74/74/74 4/4/4 
f 73/73/73 75/75/75 74/74/74 
f 75/75/75 76/76/76 74/74/74 
f 75/75/75 77/77/77 76/76/76 
f 77/77/77 78/78/78 76/76/76 
f 77/77/77 79/79/79 78/78/78 
f 79/79/79 80/80/80 78/78/78 
f 79/79/79 81/81/81 80/80/80 
f 81/81/81 82/82/82 80/80/80 
f 83/83/83 40/40/40 84/84/84 
f 40/40/40 38/38/38 84/84/84 
f 2/2/2 1/1/1 5/5/5 
f 1/1/1 6/6/6 5/5/5 
f 73/73/73 2/2/2 29/29/29 
f 2/2/2 5/5/5 29/29/29 
f 75/75/75 73/73/73 26/26/26 
f 73/73/73 29/29/29 26/26/26 
f 77/77/77 75/75/75 25/25/25 
f 75/75/75 26/26/26 25/25/25 
f 79/79/79 77/77/77 60/60/60 
f 77/77/77 25/25/25 60/60/60 
f 81/81/81 79/79/79 59/59/59 
f 79/79/79 60/60/60 59/59/59 
f 11/11/11 12/12/12 8/8/8 
f 12/12/12 7/7/7 8/8/8 
f 12/12/12 32/32/32 7/7/7 
f 32/32/32 30/30/30 7/7/7 
f 32/32/32 23/23/23 30/30/30 
f 23/23/23 28/28/28 30/30/30 
f 23/23/23 24/24/24 28/28/28 
f 24/24/24 27/27/27 28/28/28 
f 24/24/24 64/64/64 27/27/27 
f 64/64/64 62/62/62 27/27/27 
f 64/64/64 66/66/66 62/62/62 
f 66/66/66 61/61/61 62/62/62 
f 31/31/31 10/10/10 37/37/37 
f 10/10/10 38/38/38 37/37/37 
f 21/21/21 31/31/31 69/69/69 
f 31/31/31 37/37/37 69/69/69 
f 22/22/22 21/21/21 48/48/48 
f 21/21/21 69/69/69 48/48/48 
f 63/63/63 22/22/22 47/47/47 
f 22/22/22 48/48/48 47/47/47 
f 65/65/65 63/63/63 57/57/57 
f 63/63/63 47/47/47 57/57/57 
f 13/13/13 36/36/36 40/40/40 
f 36/36/36 39/39/39 40/40/40 
f 36/36/36 72/72/72 39/39/39 
f 72/72/72 70/70/70 39/39/39 
f 72/72/72 53/53/53 70/70/70 
f 53/53/53 50/50/50 70/70/70 
f 53/53/53 54/54/54 50/50/50 
f 54/54/54 49/49/49 50/50/50 
f 54/54/54 56/56/56 49/49/49 
f 56/56/56 58/58/58 49/49/49 
f 19/19/19 20/20/20 16/16/16 
f 20/20/20 15/15/15 16/16/16 
f 35/35/35 15/15/15 33/33/33 
f 15/15/15 20/20/20 33/33/33 
f 71/71/71 35/35/35 67/67/67 
f 35/35/35 33/33/33 67/67/67 
f 51/51/51 71/71/71 42/42/42 
f 71/71/71 67/67/67 42/42/42 
f 52/52/52 51/51/51 41/41/41 
f 51/51/51 42/42/42 41/41/41 
f 55/55/55 52/52/52 45/45/45 
f 52/52/52 41/41/41 45/45/45 
f 84/84/84 38/38/38 9/9/9 
f 38/38/38 10/10/10 9/9/9 
f 14/14/14 13/13/13 83/83/83 
f 13/13/13 40/40/40 83/83/83 
f 85/85/85 17/17/17 86/86/86 
f 17/17/17 19/19/19 86/86/86 
f 86/86/86 19/19/19 87/87/87 
f 19/19/19 16/16/16 87/87/87 
f 14/14/14 88/88/88 16/16/16 
f 88/88/88 87/87/87 16/16/16 
f 88/88/88 14/14/14 89/89/89 
f 14/14/14 83/83/83 89/89/89 
f 84/84/84 90/90/90 83/83/83 
f 90/90/90 89/89/89 83/83/83 
f 9/9/9 91/91/91 84/84/84 
f 91/91/91 90/90/90 84/84/84 
f 11/11/11 92/92/92 9/9/9 
f 92/92/92 91/91/91 9/9/9 
f 8/8/8 93/93/93 11/11/11 
f 93/93/93 92/92/92 11/11/11 
f 6/6/6 94/94/94 8/8/8 
f 94/94/94 93/93/93 8/8/8 
f 1/1/1 95/95/95 6/6/6 
f 95/95/95 94/94/94 6/6/6 
f 3/3/3 96/96/96 1/1/1 
f 96/96/96 95/95/95 1/1/1 
# 154 faces

