# 3ds Max Wavefront OBJ Exporter v0.97b - (c)2007 guruware
# File Created: 14.12.2015 11:51:18

mtllib U266_182C_C.mtl

#
# object U266_182C_C_D_U266_182C_C
#

v  138.8471 31.3078 52.2252
v  137.8885 31.2738 52.1495
v  136.0695 31.5264 67.8024
v  135.1127 31.6786 67.8317
v  131.0641 32.9240 78.3363
v  133.2440 32.1479 76.9542
v  143.9386 32.2901 21.1448
v  143.1593 31.0522 21.3742
v  141.9833 32.1847 35.9532
v  141.2707 31.1510 35.9775
v  142.6760 33.2029 35.9973
v  144.6100 33.4149 21.4634
v  139.4474 32.0878 52.2341
v  140.0420 32.8668 52.2429
v  136.3479 32.0191 67.9795
v  136.8271 32.4570 67.8276
v  132.2677 32.7252 78.5986
v  132.3090 32.7221 78.5497
v  133.1167 32.8298 78.0350
v  142.0458 30.8095 21.5363
v  140.2265 31.0077 35.9636
v  144.6217 31.0450 0.0000
v  143.4412 30.7218 0.0000
v  144.2947 31.0635 9.5295
v  143.1112 30.7346 9.8957
v  145.8068 33.6501 10.3629
v  146.3662 33.9216 4.9270
v  145.3338 32.6258 8.2003
v  146.3756 33.7295 2.7775
v  145.5206 32.4451 0.0000
v  146.4007 33.6490 0.0000
v  142.9217 32.5736 36.0209
v  144.8766 32.7937 21.4844
v  140.2521 32.2246 52.2651
v  136.9977 31.8054 67.8772
v  146.0440 33.0177 10.3708
v  146.5916 33.2847 4.9424
v  146.6366 33.1064 2.8026
v  146.6778 33.0323 0.0000
v  132.8054 32.9532 78.6676
v  132.7673 32.2836 78.7355
v  133.1948 32.1672 78.1206
v  130.4627 33.4251 79.4332
v  130.1805 33.6251 79.8861
v  138.8471 31.3078 -52.2251
v  136.0695 31.5264 -67.8024
v  137.8885 31.2738 -52.1494
v  135.1127 31.6786 -67.8317
v  131.0641 32.9240 -78.3363
v  133.2440 32.1479 -76.9542
v  143.9386 32.2901 -21.1448
v  141.9833 32.1848 -35.9532
v  143.1593 31.0522 -21.3742
v  141.2707 31.1510 -35.9775
v  142.6760 33.2029 -35.9973
v  144.6100 33.4149 -21.4634
v  139.4474 32.0878 -52.2341
v  140.0420 32.8668 -52.2428
v  136.3480 32.0191 -67.9795
v  136.8272 32.4570 -67.8276
v  132.2677 32.7252 -78.5985
v  133.1168 32.8298 -78.0350
v  142.0458 30.8095 -21.5363
v  140.2265 31.0077 -35.9636
v  144.2947 31.0635 -9.5295
v  143.1112 30.7346 -9.8957
v  145.8068 33.6501 -10.3629
v  145.3338 32.6258 -8.2003
v  146.3662 33.9216 -4.9270
v  146.3756 33.7295 -2.7774
v  142.9217 32.5737 -36.0208
v  144.8766 32.7937 -21.4844
v  140.2521 32.2246 -52.2651
v  136.9977 31.8054 -67.8772
v  146.0440 33.0177 -10.3708
v  146.5916 33.2847 -4.9424
v  146.6366 33.1064 -2.8026
v  132.8054 32.9533 -78.6676
v  132.7673 32.2836 -78.7355
v  133.1948 32.1672 -78.1206
v  130.4628 33.4251 -79.4332
v  130.1883 33.6280 -79.8208
# 82 vertices

vn -0.0361 0.9991 -0.0209
vn -0.0303 0.9993 -0.0203
vn 0.1524 0.9883 -0.0043
vn 0.1728 0.9850 -0.0044
vn 0.3132 0.9477 -0.0616
vn 0.3416 0.9397 0.0168
vn -0.8470 0.5233 -0.0940
vn -0.8495 0.5183 -0.0981
vn -0.8198 0.5611 -0.1144
vn -0.8184 0.5624 -0.1177
vn -0.8194 0.5623 -0.1112
vn -0.8418 0.5311 -0.0967
vn -0.7862 0.6033 -0.1339
vn -0.7883 0.6011 -0.1314
vn -0.7844 0.6052 -0.1360
vn -0.8191 0.5383 -0.1982
vn -0.7547 0.6173 -0.2224
vn -0.6976 0.6930 -0.1819
vn -0.6931 0.6510 -0.3096
vn -0.0569 0.9923 -0.1104
vn -0.1742 0.9784 -0.1113
vn -0.1981 0.9743 -0.1076
vn -0.2006 0.9734 -0.1112
vn -0.7889 0.5467 -0.2807
vn -0.7775 -0.5723 -0.2607
vn -0.2190 0.9753 -0.0302
vn -0.2153 0.9760 -0.0315
vn -0.1376 0.9900 -0.0303
vn -0.1337 0.9906 -0.0300
vn -0.2641 0.9645 -0.0000
vn -0.2646 0.9643 -0.0000
vn -0.2722 0.9621 -0.0167
vn -0.2717 0.9622 -0.0201
vn -0.8365 0.5428 -0.0747
vn -0.8428 0.5356 -0.0538
vn -0.8463 0.5301 -0.0524
vn -0.8016 0.5970 -0.0319
vn -0.8559 0.5126 -0.0675
vn -0.8291 0.5591 -0.0000
vn -0.8420 0.5395 -0.0000
vn -0.8073 0.5902 -0.0000
vn 0.9202 0.3639 0.1443
vn 0.9198 0.3650 0.1442
vn 0.9112 0.3945 0.1190
vn 0.9113 0.3943 0.1190
vn 0.9333 0.3115 0.1788
vn 0.9332 0.3116 0.1788
vn 0.9308 0.2621 0.2547
vn 0.9306 0.2630 0.2545
vn 0.9302 0.3511 0.1070
vn 0.9305 0.3504 0.1069
vn 0.9395 0.3344 0.0745
vn 0.9382 0.3382 0.0741
vn 0.9234 0.3838 -0.0054
vn 0.9224 0.3862 -0.0035
vn 0.9121 0.4099 -0.0000
vn 0.9138 0.4063 -0.0000
vn 0.8967 -0.0062 0.4426
vn 0.8659 0.0793 0.4938
vn 0.9271 0.1486 0.3441
vn 0.9248 0.1580 0.3461
vn 0.2073 0.9506 -0.2309
vn 0.2193 0.9273 -0.3034
vn 0.0665 0.9274 -0.3682
vn -0.1184 0.6417 -0.7577
vn 0.0510 0.9124 -0.4062
vn -0.1442 0.5822 -0.8002
vn -0.3311 0.8821 -0.3352
vn -0.0361 0.9991 0.0209
vn 0.1524 0.9883 0.0043
vn -0.0302 0.9993 0.0203
vn 0.1728 0.9849 0.0044
vn 0.3131 0.9477 0.0616
vn 0.3416 0.9397 -0.0168
vn -0.8470 0.5233 0.0940
vn -0.8198 0.5611 0.1144
vn -0.8495 0.5183 0.0981
vn -0.8184 0.5624 0.1177
vn -0.8194 0.5623 0.1112
vn -0.8418 0.5311 0.0967
vn -0.7862 0.6033 0.1339
vn -0.7883 0.6011 0.1314
vn -0.7844 0.6052 0.1360
vn -0.8191 0.5384 0.1982
vn -0.7547 0.6173 0.2224
vn -0.6976 0.6930 0.1819
vn -0.6931 0.6510 0.3096
vn -0.2002 0.9722 0.1213
vn -0.1896 0.9763 0.1046
vn -0.1918 0.9755 0.1079
vn -0.7889 0.5467 0.2807
vn -0.7775 -0.5723 0.2607
vn -0.2190 0.9753 0.0302
vn -0.1376 0.9900 0.0303
vn -0.2153 0.9760 0.0315
vn -0.1337 0.9906 0.0300
vn -0.2722 0.9621 0.0167
vn -0.2717 0.9622 0.0201
vn -0.8365 0.5428 0.0747
vn -0.8463 0.5301 0.0524
vn -0.8428 0.5356 0.0538
vn -0.8016 0.5970 0.0319
vn -0.8559 0.5127 0.0675
vn 0.9202 0.3639 -0.1443
vn 0.9112 0.3945 -0.1190
vn 0.9198 0.3650 -0.1442
vn 0.9113 0.3942 -0.1190
vn 0.9333 0.3115 -0.1788
vn 0.9332 0.3116 -0.1788
vn 0.9308 0.2620 -0.2547
vn 0.9306 0.2629 -0.2545
vn 0.9302 0.3511 -0.1070
vn 0.9305 0.3504 -0.1069
vn 0.9395 0.3344 -0.0745
vn 0.9382 0.3382 -0.0741
vn 0.9234 0.3838 0.0054
vn 0.9224 0.3862 0.0035
vn 0.8967 -0.0062 -0.4426
vn 0.9271 0.1486 -0.3441
vn 0.8659 0.0793 -0.4938
vn 0.9248 0.1580 -0.3461
vn 0.2073 0.9506 0.2309
vn 0.2193 0.9273 0.3034
vn 0.0353 0.8955 0.4438
vn 0.0200 0.8773 0.4795
vn -0.1273 0.6219 0.7727
vn -0.1442 0.5822 0.8001
vn -0.3311 0.8821 0.3352
# 128 vertex normals

g U266_182C_C_D_U266_182C_C
usemtl diffuse_black_plasticSG
s 1
f 1//1 2//2 3//3 
f 2//2 4//4 3//3 
f 5//5 6//6 4//4 
f 6//6 3//3 4//4 
s 3
f 7//7 8//8 9//9 
f 8//8 10//10 9//9 
f 11//11 12//12 9//9 
f 12//12 7//7 9//9 
f 13//13 14//14 9//9 
f 14//14 11//11 9//9 
f 1//15 13//13 10//10 
f 13//13 9//9 10//10 
f 1//15 3//16 13//13 
f 3//16 15//17 13//13 
f 14//14 13//13 16//18 
f 13//13 15//17 16//18 
f 15//17 17//19 16//18 
s 6
f 17//20 18//21 16//22 
f 18//21 19//23 16//22 
s 3
f 3//16 6//24 15//17 
s off
f 6//25 17//25 15//25 
s 1
f 8//26 20//27 10//28 
f 20//27 21//29 10//28 
f 2//2 1//1 21//29 
f 1//1 10//28 21//29 
f 22//30 23//31 24//32 
f 23//31 25//33 24//32 
f 20//27 8//26 25//33 
f 8//26 24//32 25//33 
s 3
f 26//34 27//35 28//36 
f 27//35 29//37 28//36 
f 12//12 26//34 7//7 
f 26//34 28//36 7//7 
f 8//8 7//7 24//38 
f 7//7 28//36 24//38 
f 30//39 22//40 28//36 
f 22//40 24//38 28//36 
f 31//41 30//39 29//37 
f 30//39 28//36 29//37 
s 12
f 11//42 32//43 12//44 
f 32//43 33//45 12//44 
f 14//46 34//47 11//42 
f 34//47 32//43 11//42 
f 14//46 16//48 34//47 
f 16//48 35//49 34//47 
f 12//44 33//45 26//50 
f 33//45 36//51 26//50 
f 27//52 26//50 37//53 
f 26//50 36//51 37//53 
f 27//52 37//53 29//54 
f 37//53 38//55 29//54 
f 31//56 29//54 39//57 
f 29//54 38//55 39//57 
f 40//58 41//59 19//60 
f 41//59 42//61 19//60 
f 19//60 42//61 16//48 
f 42//61 35//49 16//48 
s 1
f 6//6 5//5 17//62 
f 5//5 43//63 17//62 
s 15
f 44//64 40//65 43//66 
f 43//66 40//65 17//67 
s 6
f 19//23 18//21 40//68 
f 18//21 17//20 40//68 
s 1
f 45//69 46//70 47//71 
f 47//71 46//70 48//72 
f 49//73 48//72 50//74 
f 50//74 48//72 46//70 
s 3
f 51//75 52//76 53//77 
f 53//77 52//76 54//78 
f 55//79 52//76 56//80 
f 56//80 52//76 51//75 
f 57//81 52//76 58//82 
f 58//82 52//76 55//79 
f 45//83 54//78 57//81 
f 57//81 54//78 52//76 
f 45//83 57//81 46//84 
f 46//84 57//81 59//85 
f 58//82 60//86 57//81 
f 57//81 60//86 59//85 
f 59//85 60//86 61//87 
s 19
f 61//88 60//89 62//90 
s 3
f 46//84 59//85 50//91 
s off
f 50//92 59//92 61//92 
s 1
f 53//93 54//94 63//95 
f 63//95 54//94 64//96 
f 47//71 64//96 45//69 
f 45//69 64//96 54//94 
f 22//30 65//97 23//31 
f 23//31 65//97 66//98 
f 63//95 66//98 53//93 
f 53//93 66//98 65//97 
s 3
f 67//99 68//100 69//101 
f 69//101 68//100 70//102 
f 56//80 51//75 67//99 
f 67//99 51//75 68//100 
f 53//77 65//103 51//75 
f 51//75 65//103 68//100 
f 30//39 68//100 22//40 
f 22//40 68//100 65//103 
f 31//41 70//102 30//39 
f 30//39 70//102 68//100 
s 12
f 55//104 56//105 71//106 
f 71//106 56//105 72//107 
f 58//108 55//104 73//109 
f 73//109 55//104 71//106 
f 58//108 73//109 60//110 
f 60//110 73//109 74//111 
f 56//105 67//112 72//107 
f 72//107 67//112 75//113 
f 69//114 76//115 67//112 
f 67//112 76//115 75//113 
f 69//114 70//116 76//115 
f 76//115 70//116 77//117 
f 31//56 39//57 70//116 
f 70//116 39//57 77//117 
f 78//118 62//119 79//120 
f 79//120 62//119 80//121 
f 62//119 60//110 80//121 
f 80//121 60//110 74//111 
s 1
f 50//74 61//122 49//73 
f 49//73 61//122 81//123 
s 25
f 82//124 81//125 78//126 
f 81//125 61//127 78//126 
s 19
f 62//90 78//128 61//88 
# 124 faces

