# 3ds Max Wavefront OBJ Exporter v0.97b - (c)2007 guruware
# File Created: 14.12.2015 11:53:21

mtllib U266_305B_L.mtl

#
# object U266_305B_L_DTaSI_U266_305B_L
#

v  -94.8396 54.4765 -77.2713
v  -101.4100 59.5455 -74.1311
v  -94.8061 59.8671 -73.9205
v  -81.4945 54.9576 -76.8388
v  -88.2185 60.5702 -73.4558
v  -81.4773 60.7298 -73.2339
v  -74.7618 48.7405 -80.4268
v  -81.5029 48.5809 -80.6487
v  -88.2663 48.7072 -80.6351
v  -94.8702 48.3857 -80.8457
v  -88.2968 42.6164 -84.2094
v  -88.3348 38.1345 -86.8482
v  -95.0079 42.7095 -84.1364
v  -81.5335 42.4901 -84.2231
v  -61.1394 42.0131 -84.2047
v  -61.1397 37.1816 -87.1734
v  -67.9548 42.1884 -84.2207
v  -54.2677 41.7701 -84.1991
v  -67.9461 55.1427 -76.4212
v  -74.7451 61.1739 -72.7946
v  -67.9378 61.1994 -72.5990
v  -54.2752 55.1187 -76.0571
v  -61.1384 61.4300 -72.2409
v  -54.2747 61.3805 -72.0724
v  -61.1391 48.5906 -80.2152
v  -61.1388 55.1682 -76.2256
v  -54.2754 48.5412 -80.0467
v  -67.9545 48.7659 -80.2311
v  -40.4793 54.9827 -75.7699
v  -47.4115 55.0692 -75.8886
v  -40.4868 61.4989 -71.5876
v  -33.5322 47.8516 -79.9839
v  -40.4566 41.1670 -84.2551
v  -40.4716 48.2117 -79.9224
v  -33.5172 40.8068 -84.3166
v  -33.5093 35.8666 -87.4384
v  -27.2362 54.8060 -75.5973
v  -33.5471 54.8963 -75.6512
v  -33.5619 61.6960 -71.3120
v  -27.2630 47.6438 -80.0175
v  -27.2898 40.4816 -84.4377
v  -27.2972 35.5196 -87.5744
v  -27.1138 68.6244 -66.7487
v  -33.5766 68.4958 -66.9729
v  -33.5843 73.3821 -63.1459
v  -103.6454 68.7468 -67.6075
v  -101.4498 69.1888 -67.2798
v  -101.3765 64.9361 -70.7803
v  -104.4011 53.9270 -77.5577
v  -101.4436 54.1549 -77.4819
v  -101.5813 48.4787 -80.7727
v  -105.0577 42.8643 -83.9685
v  -101.7189 42.8025 -84.0635
v  -101.9365 38.6094 -86.5118
v  -94.7888 65.6393 -70.3156
v  -81.4690 66.7865 -69.4116
v  -74.7761 37.6599 -87.0636
v  -74.7702 42.3637 -84.2367
v  -47.3918 36.5272 -87.3211
v  -47.3960 41.5271 -84.1936
v  -67.9373 67.4612 -68.6142
v  -47.4190 61.5854 -71.7063
v  -54.2822 67.8967 -67.8901
v  -47.4038 48.2982 -80.0411
v  -74.7534 55.1172 -76.6169
v  -40.5016 68.2986 -67.2485
v  -47.4265 68.1015 -67.5240
v  -40.5072 73.3258 -63.3354
v  -61.1379 67.6918 -68.2562
v  -54.2838 73.0766 -63.8498
v  -74.7368 67.2306 -68.9723
v  -67.9328 72.5804 -64.5949
v  -88.2012 66.3424 -69.8509
v  -81.4587 71.7601 -65.4776
v  -94.7706 70.2321 -66.6068
v  -27.0100 73.1080 -63.3247
v  -103.7796 64.5642 -70.9461
v  -104.0903 59.2456 -74.2519
v  -105.3027 38.7266 -86.3929
v  -88.2357 54.7980 -77.0607
v  -27.2139 61.7152 -71.1728
v  -104.7294 48.3957 -80.7631
v  -88.1842 71.1820 -66.0055
v  -74.7298 72.3674 -64.9257
v  -61.1367 72.8930 -64.1858
v  -47.4308 73.2602 -63.5139
v  -40.4506 36.1969 -87.3798
v  -54.2657 36.8544 -87.2473
v  -67.9579 37.4207 -87.1185
v  -81.5554 37.8972 -86.9559
v  -95.1357 38.3720 -86.6800
# 91 vertices

vn 0.0022 0.5165 -0.8563
vn -0.0050 0.5280 -0.8492
vn 0.0024 0.5288 -0.8487
vn 0.0158 0.5209 -0.8535
vn 0.0094 0.5297 -0.8482
vn 0.0177 0.5316 -0.8468
vn 0.0194 0.5128 -0.8583
vn 0.0120 0.5095 -0.8604
vn 0.0053 0.5061 -0.8625
vn 0.0003 0.5039 -0.8637
vn 0.0035 0.5060 -0.8625
vn 0.0018 0.5080 -0.8614
vn -0.0028 0.5035 -0.8640
vn 0.0069 0.5084 -0.8611
vn 0.0180 0.5213 -0.8532
vn 0.0158 0.5234 -0.8519
vn 0.0144 0.5189 -0.8547
vn 0.0184 0.5245 -0.8512
vn 0.0225 0.5230 -0.8520
vn 0.0211 0.5336 -0.8455
vn 0.0243 0.5351 -0.8444
vn 0.0247 0.5274 -0.8492
vn 0.0254 0.5367 -0.8434
vn 0.0267 0.5384 -0.8423
vn 0.0201 0.5185 -0.8548
vn 0.0232 0.5264 -0.8499
vn 0.0219 0.5206 -0.8535
vn 0.0190 0.5157 -0.8566
vn 0.0211 0.5313 -0.8469
vn 0.0227 0.5303 -0.8475
vn 0.0197 0.5389 -0.8421
vn 0.0164 0.5242 -0.8514
vn 0.0194 0.5273 -0.8495
vn 0.0204 0.5233 -0.8519
vn 0.0157 0.5281 -0.8490
vn 0.0154 0.5337 -0.8455
vn 0.0148 0.5313 -0.8470
vn 0.0176 0.5309 -0.8472
vn 0.0175 0.5382 -0.8426
vn 0.0128 0.5251 -0.8509
vn 0.0116 0.5286 -0.8488
vn 0.0113 0.5343 -0.8452
vn 0.0141 0.5713 -0.8206
vn 0.0170 0.5727 -0.8196
vn 0.0135 0.6146 -0.7888
vn -0.0204 0.6325 -0.7743
vn -0.0196 0.6352 -0.7721
vn -0.0119 0.5753 -0.8179
vn -0.0175 0.5138 -0.8577
vn -0.0048 0.5152 -0.8571
vn -0.0067 0.5017 -0.8650
vn -0.0149 0.5033 -0.8640
vn -0.0067 0.5029 -0.8643
vn -0.0065 0.5052 -0.8630
vn -0.0039 0.5765 -0.8171
vn 0.0154 0.5751 -0.8179
vn 0.0101 0.5153 -0.8570
vn 0.0138 0.5138 -0.8578
vn 0.0186 0.5300 -0.8478
vn 0.0197 0.5261 -0.8502
vn 0.0236 0.5751 -0.8177
vn 0.0249 0.5400 -0.8413
vn 0.0265 0.5749 -0.8178
vn 0.0201 0.5227 -0.8523
vn 0.0198 0.5225 -0.8524
vn 0.0163 0.5722 -0.8200
vn 0.0216 0.5739 -0.8186
vn 0.0147 0.6146 -0.7887
vn 0.0241 0.5750 -0.8178
vn 0.0230 0.6148 -0.7883
vn 0.0185 0.5755 -0.8176
vn 0.0197 0.6174 -0.7864
vn 0.0041 0.5757 -0.8176
vn 0.0093 0.6203 -0.7843
vn -0.0156 0.6278 -0.7782
vn 0.0037 0.6069 -0.7948
vn -0.0305 0.5664 -0.8236
vn -0.0206 0.5283 -0.8488
vn -0.0128 0.5061 -0.8624
vn 0.0083 0.5184 -0.8551
vn 0.0168 0.5391 -0.8421
vn -0.0159 0.5020 -0.8647
vn -0.0038 0.6221 -0.7829
vn 0.0140 0.6187 -0.7855
vn 0.0206 0.6162 -0.7873
vn 0.0183 0.6136 -0.7894
vn 0.0182 0.5322 -0.8464
vn 0.0160 0.5269 -0.8498
vn 0.0113 0.5194 -0.8545
vn 0.0042 0.5113 -0.8594
vn -0.0037 0.5059 -0.8626
# 91 vertex normals

vt 0.7671 0.8866 0.0000
vt 0.7934 0.8663 0.0000
vt 0.7669 0.8650 0.0000
vt 0.7136 0.8846 0.0000
vt 0.7406 0.8622 0.0000
vt 0.7136 0.8615 0.0000
vt 0.6867 0.9095 0.0000
vt 0.7137 0.9102 0.0000
vt 0.7408 0.9097 0.0000
vt 0.7672 0.9110 0.0000
vt 0.7409 0.9341 0.0000
vt 0.7410 0.9520 0.0000
vt 0.7678 0.9337 0.0000
vt 0.7138 0.9346 0.0000
vt 0.6321 0.9365 0.0000
vt 0.6321 0.9558 0.0000
vt 0.6594 0.9358 0.0000
vt 0.6046 0.9374 0.0000
vt 0.6594 0.8839 0.0000
vt 0.6866 0.8597 0.0000
vt 0.6594 0.8596 0.0000
vt 0.6047 0.8840 0.0000
vt 0.6321 0.8587 0.0000
vt 0.6046 0.8589 0.0000
vt 0.6321 0.9101 0.0000
vt 0.6321 0.8838 0.0000
vt 0.6047 0.9103 0.0000
vt 0.6594 0.9094 0.0000
vt 0.5494 0.8845 0.0000
vt 0.5772 0.8842 0.0000
vt 0.5494 0.8584 0.0000
vt 0.5216 0.9131 0.0000
vt 0.5493 0.9399 0.0000
vt 0.5494 0.9117 0.0000
vt 0.5215 0.9413 0.0000
vt 0.5215 0.9611 0.0000
vt 0.4964 0.8852 0.0000
vt 0.5216 0.8849 0.0000
vt 0.5217 0.8577 0.0000
vt 0.4965 0.9139 0.0000
vt 0.4966 0.9426 0.0000
vt 0.4966 0.9625 0.0000
vt 0.4962 0.8299 0.0000
vt 0.5218 0.8304 0.0000
vt 0.5218 0.8110 0.0000
vt 0.8020 0.8297 0.0000
vt 0.7932 0.8281 0.0000
vt 0.7933 0.8447 0.0000
vt 0.8054 0.8888 0.0000
vt 0.7935 0.8879 0.0000
vt 0.7941 0.9106 0.0000
vt 0.8080 0.9331 0.0000
vt 0.7946 0.9333 0.0000
vt 0.7955 0.9501 0.0000
vt 0.7669 0.8419 0.0000
vt 0.7135 0.8373 0.0000
vt 0.6867 0.9539 0.0000
vt 0.6867 0.9351 0.0000
vt 0.5771 0.9584 0.0000
vt 0.5771 0.9384 0.0000
vt 0.6594 0.8346 0.0000
vt 0.5772 0.8581 0.0000
vt 0.6047 0.8328 0.0000
vt 0.5771 0.9113 0.0000
vt 0.6867 0.8840 0.0000
vt 0.5495 0.8312 0.0000
vt 0.5772 0.8320 0.0000
vt 0.5495 0.8112 0.0000
vt 0.6321 0.8336 0.0000
vt 0.6047 0.8121 0.0000
vt 0.6866 0.8355 0.0000
vt 0.6593 0.8141 0.0000
vt 0.7405 0.8390 0.0000
vt 0.7135 0.8178 0.0000
vt 0.7668 0.8241 0.0000
vt 0.4958 0.8120 0.0000
vt 0.8029 0.8462 0.0000
vt 0.8041 0.8675 0.0000
vt 0.8090 0.9496 0.0000
vt 0.7406 0.8853 0.0000
vt 0.4963 0.8576 0.0000
vt 0.8067 0.9109 0.0000
vt 0.7404 0.8202 0.0000
vt 0.6866 0.8153 0.0000
vt 0.6321 0.8128 0.0000
vt 0.5772 0.8113 0.0000
vt 0.5493 0.9598 0.0000
vt 0.6046 0.9571 0.0000
vt 0.6594 0.9549 0.0000
vt 0.7139 0.9530 0.0000
vt 0.7683 0.9511 0.0000
# 91 texture coords

g U266_305B_L_DTaSI_U266_305B_L
usemtl windowglass_1SG
s 1
f 1/1/1 2/2/2 3/3/3 
f 4/4/4 5/5/5 6/6/6 
f 4/4/4 7/7/7 8/8/8 
f 1/1/1 9/9/9 10/10/10 
f 11/11/11 12/12/12 13/13/13 
f 12/12/12 11/11/11 14/14/14 
f 15/15/15 16/16/16 17/17/17 
f 16/16/16 15/15/15 18/18/18 
f 19/19/19 20/20/20 21/21/21 
f 22/22/22 23/23/23 24/24/24 
f 25/25/25 26/26/26 27/27/27 
f 25/25/25 17/17/17 28/28/28 
f 29/29/29 30/30/30 31/31/31 
f 32/32/32 33/33/33 34/34/34 
f 35/35/35 36/36/36 33/33/33 
f 37/37/37 38/38/38 39/39/39 
f 40/40/40 41/41/41 32/32/32 
f 41/41/41 42/42/42 36/36/36 
f 43/43/43 44/44/44 45/45/45 
f 46/46/46 47/47/47 48/48/48 
f 49/49/49 50/50/50 51/51/51 
f 52/52/52 53/53/53 54/54/54 
f 5/5/5 3/3/3 55/55/55 
f 20/20/20 6/6/6 56/56/56 
f 11/11/11 8/8/8 14/14/14 
f 51/51/51 10/10/10 13/13/13 
f 53/53/53 13/13/13 54/54/54 
f 57/57/57 14/14/14 58/58/58 
f 58/58/58 17/17/17 57/57/57 
f 59/59/59 18/18/18 60/60/60 
f 23/23/23 21/21/21 61/61/61 
f 62/62/62 24/24/24 63/63/63 
f 18/18/18 27/27/27 64/64/64 
f 65/65/65 28/28/28 7/7/7 
f 39/39/39 31/31/31 66/66/66 
f 29/29/29 34/34/34 64/64/64 
f 60/60/60 33/33/33 59/59/59 
f 67/67/67 68/68/68 66/66/66 
f 69/69/69 70/70/70 63/63/63 
f 71/71/71 72/72/72 61/61/61 
f 73/73/73 74/74/74 56/56/56 
f 48/48/48 75/75/75 55/55/55 
f 43/43/43 39/39/39 44/44/44 
f 35/35/35 41/41/41 36/36/36 
f 76/76/76 43/43/43 45/45/45 
f 77/77/77 46/46/46 48/48/48 
f 78/78/78 2/2/2 50/50/50 
f 52/52/52 51/51/51 53/53/53 
f 79/79/79 52/52/52 54/54/54 
f 34/34/34 33/33/33 60/60/60 
f 29/29/29 38/38/38 34/34/34 
f 31/31/31 62/62/62 67/67/67 
f 39/39/39 38/38/38 31/31/31 
f 28/28/28 17/17/17 58/58/58 
f 19/19/19 26/26/26 28/28/28 
f 27/27/27 22/22/22 30/30/30 
f 18/18/18 15/15/15 27/27/27 
f 24/24/24 23/23/23 69/69/69 
f 62/62/62 30/30/30 24/24/24 
f 21/21/21 20/20/20 71/71/71 
f 23/23/23 26/26/26 21/21/21 
f 8/8/8 7/7/7 58/58/58 
f 9/9/9 80/80/80 8/8/8 
f 32/32/32 41/41/41 35/35/35 
f 38/38/38 37/37/37 32/32/32 
f 81/81/81 37/37/37 39/39/39 
f 10/10/10 9/9/9 11/11/11 
f 51/51/51 50/50/50 10/10/10 
f 6/6/6 5/5/5 73/73/73 
f 20/20/20 65/65/65 6/6/6 
f 3/3/3 2/2/2 48/48/48 
f 5/5/5 80/80/80 3/3/3 
f 38/38/38 32/32/32 34/34/34 
f 64/64/64 27/27/27 30/30/30 
f 64/64/64 34/34/34 60/60/60 
f 44/44/44 39/39/39 66/66/66 
f 37/37/37 40/40/40 32/32/32 
f 43/43/43 81/81/81 39/39/39 
f 82/82/82 49/49/49 51/51/51 
f 49/49/49 78/78/78 50/50/50 
f 75/75/75 83/83/83 73/73/73 
f 48/48/48 47/47/47 75/75/75 
f 74/74/74 84/84/84 71/71/71 
f 73/73/73 83/83/83 74/74/74 
f 72/72/72 85/85/85 69/69/69 
f 71/71/71 84/84/84 72/72/72 
f 70/70/70 86/86/86 67/67/67 
f 69/69/69 85/85/85 70/70/70 
f 68/68/68 45/45/45 44/44/44 
f 67/67/67 86/86/86 68/68/68 
f 33/33/33 87/87/87 59/59/59 
f 88/88/88 16/16/16 18/18/18 
f 17/17/17 89/89/89 57/57/57 
f 90/90/90 12/12/12 14/14/14 
f 13/13/13 91/91/91 54/54/54 
f 1/1/1 50/50/50 2/2/2 
f 77/77/77 48/48/48 2/2/2 
f 32/32/32 35/35/35 33/33/33 
f 38/38/38 29/29/29 31/31/31 
f 30/30/30 29/29/29 64/64/64 
f 67/67/67 62/62/62 63/63/63 
f 31/31/31 30/30/30 62/62/62 
f 66/66/66 68/68/68 44/44/44 
f 66/66/66 31/31/31 67/67/67 
f 15/15/15 25/25/25 27/27/27 
f 26/26/26 25/25/25 28/28/28 
f 25/25/25 15/15/15 17/17/17 
f 4/4/4 65/65/65 7/7/7 
f 7/7/7 28/28/28 58/58/58 
f 26/26/26 19/19/19 21/21/21 
f 65/65/65 19/19/19 28/28/28 
f 30/30/30 22/22/22 24/24/24 
f 27/27/27 26/26/26 22/22/22 
f 60/60/60 18/18/18 64/64/64 
f 69/69/69 23/23/23 61/61/61 
f 22/22/22 26/26/26 23/23/23 
f 63/63/63 70/70/70 67/67/67 
f 63/63/63 24/24/24 69/69/69 
f 71/71/71 20/20/20 56/56/56 
f 19/19/19 65/65/65 20/20/20 
f 61/61/61 72/72/72 69/69/69 
f 61/61/61 21/21/21 71/71/71 
f 65/65/65 4/4/4 6/6/6 
f 80/80/80 4/4/4 8/8/8 
f 14/14/14 8/8/8 58/58/58 
f 1/1/1 80/80/80 9/9/9 
f 11/11/11 9/9/9 8/8/8 
f 80/80/80 1/1/1 3/3/3 
f 50/50/50 1/1/1 10/10/10 
f 13/13/13 10/10/10 11/11/11 
f 53/53/53 51/51/51 13/13/13 
f 73/73/73 5/5/5 55/55/55 
f 4/4/4 80/80/80 5/5/5 
f 56/56/56 74/74/74 71/71/71 
f 56/56/56 6/6/6 73/73/73 
f 55/55/55 75/75/75 73/73/73 
f 55/55/55 3/3/3 48/48/48 
f 52/52/52 82/82/82 51/51/51 
f 78/78/78 77/77/77 2/2/2 
f 33/33/33 36/36/36 87/87/87 
f 59/59/59 88/88/88 18/18/18 
f 17/17/17 16/16/16 89/89/89 
f 57/57/57 90/90/90 14/14/14 
f 13/13/13 12/12/12 91/91/91 
# 144 faces

