# 3ds Max Wavefront OBJ Exporter v0.97b - (c)2007 guruware
# File Created: 14.12.2015 11:55:30

mtllib U266_541D_L.mtl

#
# object U266_541D_L_1_N_U266_541D_L
#

v  -253.6159 11.6153 -52.9724
v  -252.7993 13.0355 -56.6987
v  -253.5672 11.3217 -53.2851
v  -252.7997 11.3114 -57.1992
v  -252.7995 11.7268 -57.0761
v  -253.9290 11.3098 -51.3391
v  -253.9653 12.9992 -50.3237
v  -254.4755 11.2199 -48.2459
v  -254.8553 13.6614 -43.4562
v  -255.2199 11.1593 -42.8287
v  -252.9064 18.0746 -53.8525
v  -254.0934 19.5076 -44.1193
v  -253.3955 25.8885 -43.9008
v  -252.2854 25.2661 -53.4031
v  -251.5130 24.5461 -59.2065
v  -251.5237 19.9510 -61.2467
v  -251.0191 21.0799 -63.7451
v  -251.6639 13.9672 -61.8979
v  -250.6026 25.0170 -64.5136
v  -251.0668 26.9156 -60.9961
v  -250.5799 28.7807 -65.2468
v  -250.9261 29.2481 -62.4856
v  -251.1278 29.0855 -60.8151
v  -251.9941 28.5460 -53.4562
v  -250.6008 29.4651 -65.3800
v  -255.2786 13.7356 -39.7433
v  -254.4355 19.6492 -40.9327
v  -252.2412 28.3581 -51.4971
v  -252.3916 28.2270 -50.3333
v  -252.5510 28.1211 -49.0799
v  -252.7091 28.0180 -47.8406
v  -252.8734 27.8537 -46.6316
v  -253.0421 27.5520 -45.4754
v  -253.2068 27.0881 -44.4662
v  -253.3237 26.6808 -43.8414
v  -253.4285 26.1947 -43.2942
v  -253.4814 25.9159 -43.0531
v  -254.2712 20.8248 -41.2075
v  -254.0860 22.1777 -41.4886
v  -253.9331 23.2507 -41.7491
v  -253.7175 24.6437 -42.2216
v  -253.5376 25.6575 -42.8035
v  -255.4136 11.1618 -41.1707
v  -255.3276 13.3403 -39.7212
v  -255.3714 12.8280 -39.8616
v  -255.4004 12.4147 -40.0273
v  -255.4153 12.1353 -40.1809
v  -255.4301 11.6684 -40.5231
v  -255.4342 11.3871 -40.7692
v  -251.9443 11.3192 -60.9663
# 50 vertices

vn -0.9799 0.0873 -0.1795
vn -0.9809 0.0662 -0.1831
vn -0.9798 0.0491 -0.1940
vn -0.9759 0.0623 -0.2089
vn -0.9763 0.0604 -0.2076
vn -0.9817 0.0818 -0.1720
vn -0.9835 0.1037 -0.1483
vn -0.9834 0.1143 -0.1412
vn -0.9851 0.1139 -0.1292
vn -0.9857 0.1122 -0.1258
vn -0.9843 0.0919 -0.1510
vn -0.9859 0.1085 -0.1271
vn -0.9866 0.1097 -0.1211
vn -0.9861 0.0935 -0.1373
vn -0.9868 0.0716 -0.1454
vn -0.9831 0.0693 -0.1695
vn -0.9837 0.0652 -0.1676
vn -0.9781 0.0422 -0.2038
vn -0.9876 0.0445 -0.1507
vn -0.9903 0.0297 -0.1361
vn -0.9924 -0.0232 -0.1205
vn -0.9924 -0.0183 -0.1214
vn -0.9928 -0.0180 -0.1188
vn -0.9884 0.0732 -0.1330
vn -0.9919 -0.0528 -0.1155
vn -0.9865 0.1170 -0.1148
vn -0.9869 0.1160 -0.1123
vn -0.9887 0.0887 -0.1207
vn -0.9877 0.1053 -0.1158
vn -0.9879 0.1022 -0.1170
vn -0.9880 0.0999 -0.1181
vn -0.9882 0.0940 -0.1213
vn -0.9881 0.0977 -0.1185
vn -0.9882 0.1011 -0.1153
vn -0.9884 0.0982 -0.1156
vn -0.9898 0.0978 -0.1033
vn -0.9885 0.1100 -0.1038
vn -0.9875 0.1119 -0.1109
vn -0.9876 0.1126 -0.1096
vn -0.9877 0.1155 -0.1051
vn -0.9877 0.1182 -0.1019
vn -0.9879 0.1157 -0.1036
vn -0.9865 0.1158 -0.1154
vn -0.9865 0.1160 -0.1157
vn -0.9864 0.1160 -0.1160
vn -0.9866 0.1156 -0.1153
vn -0.9864 0.1164 -0.1162
vn -0.9865 0.1159 -0.1159
vn -0.9865 0.1156 -0.1156
vn -0.9774 0.0327 -0.2090
# 50 vertex normals

vt 0.7794 0.0297 0.0000
vt 0.7246 0.0552 0.0000
vt 0.7747 0.0244 0.0000
vt 0.7173 0.0237 0.0000
vt 0.7191 0.0312 0.0000
vt 0.8036 0.0245 0.0000
vt 0.8189 0.0552 0.0000
vt 0.8499 0.0235 0.0000
vt 0.9228 0.0681 0.0000
vt 0.9321 0.0238 0.0000
vt 0.7656 0.1491 0.0000
vt 0.9093 0.1731 0.0000
vt 0.9022 0.2891 0.0000
vt 0.7682 0.2879 0.0000
vt 0.6854 0.2769 0.0000
vt 0.6576 0.1862 0.0000
vt 0.6214 0.2086 0.0000
vt 0.6493 0.0721 0.0000
vt 0.6089 0.2879 0.0000
vt 0.6586 0.3260 0.0000
vt 0.5962 0.3662 0.0000
vt 0.6360 0.3753 0.0000
vt 0.6601 0.3711 0.0000
vt 0.7646 0.3535 0.0000
vt 0.5938 0.3807 0.0000
vt 0.9801 0.0700 0.0000
vt 0.9570 0.1741 0.0000
vt 0.7921 0.3472 0.0000
vt 0.8084 0.3430 0.0000
vt 0.8259 0.3391 0.0000
vt 0.8432 0.3352 0.0000
vt 0.8601 0.3301 0.0000
vt 0.8767 0.3225 0.0000
vt 0.8916 0.3121 0.0000
vt 0.9012 0.3036 0.0000
vt 0.9100 0.2938 0.0000
vt 0.9140 0.2883 0.0000
vt 0.9511 0.1951 0.0000
vt 0.9445 0.2193 0.0000
vt 0.9386 0.2387 0.0000
vt 0.9288 0.2642 0.0000
vt 0.9182 0.2833 0.0000
vt 0.9576 0.0244 0.0000
vt 0.9805 0.0631 0.0000
vt 0.9783 0.0541 0.0000
vt 0.9757 0.0468 0.0000
vt 0.9732 0.0418 0.0000
vt 0.9678 0.0335 0.0000
vt 0.9639 0.0285 0.0000
vt 0.6627 0.0235 0.0000
# 50 texture coords

g U266_541D_L_1_N_U266_541D_L
usemtl diffuse_lightSG
s 1
f 1/1/1 2/2/2 3/3/3 
f 4/4/4 3/3/3 5/5/5 
f 2/2/2 5/5/5 3/3/3 
f 1/1/1 3/3/3 6/6/6 
f 7/7/7 8/8/8 9/9/9 
f 9/9/9 8/8/8 10/10/10 
f 1/1/1 6/6/6 7/7/7 
f 7/7/7 6/6/6 8/8/8 
f 1/1/1 7/7/7 2/2/2 
f 2/2/2 7/7/7 11/11/11 
f 9/9/9 12/12/12 7/7/7 
f 7/7/7 12/12/12 11/11/11 
f 13/13/13 14/14/14 12/12/12 
f 12/12/12 14/14/14 11/11/11 
f 15/15/15 16/16/16 14/14/14 
f 14/14/14 16/16/16 11/11/11 
f 17/17/17 18/18/18 16/16/16 
f 16/16/16 15/15/15 17/17/17 
f 17/17/17 15/15/15 19/19/19 
f 15/15/15 20/20/20 19/19/19 
f 21/21/21 19/19/19 22/22/22 
f 19/19/19 20/20/20 22/22/22 
f 20/20/20 23/23/23 22/22/22 
f 14/14/14 24/24/24 15/15/15 
f 15/15/15 24/24/24 20/20/20 
f 21/21/21 22/22/22 25/25/25 
f 26/26/26 27/27/27 9/9/9 
f 9/9/9 27/27/27 12/12/12 
f 18/18/18 2/2/2 16/16/16 
f 16/16/16 2/2/2 11/11/11 
f 24/24/24 14/14/14 28/28/28 
f 14/14/14 13/13/13 28/28/28 
f 28/28/28 13/13/13 29/29/29 
f 29/29/29 13/13/13 30/30/30 
f 30/30/30 13/13/13 31/31/31 
f 31/31/31 13/13/13 32/32/32 
f 32/32/32 13/13/13 33/33/33 
f 33/33/33 13/13/13 34/34/34 
f 13/13/13 35/35/35 34/34/34 
f 35/35/35 13/13/13 36/36/36 
f 36/36/36 13/13/13 37/37/37 
f 24/24/24 23/23/23 20/20/20 
f 27/27/27 38/38/38 12/12/12 
f 12/12/12 38/38/38 13/13/13 
f 38/38/38 39/39/39 13/13/13 
f 39/39/39 40/40/40 13/13/13 
f 40/40/40 41/41/41 13/13/13 
f 41/41/41 42/42/42 13/13/13 
f 42/42/42 37/37/37 13/13/13 
f 9/9/9 10/10/10 26/26/26 
f 10/10/10 43/43/43 26/26/26 
f 26/26/26 43/43/43 44/44/44 
f 44/44/44 43/43/43 45/45/45 
f 45/45/45 43/43/43 46/46/46 
f 46/46/46 43/43/43 47/47/47 
f 47/47/47 43/43/43 48/48/48 
f 43/43/43 49/49/49 48/48/48 
f 18/18/18 50/50/50 2/2/2 
f 4/4/4 5/5/5 50/50/50 
f 50/50/50 5/5/5 2/2/2 
# 60 faces

#
# object U266_541D_L_U266_541D_L_2_DTaSI
#

v  -253.5340 11.3214 -53.2783
v  -254.2638 11.3535 -53.4180
v  -252.7654 11.3195 -57.1950
v  -253.4929 11.3552 -57.3459
v  -253.8958 11.3076 -51.3328
v  -254.6264 11.3501 -51.4646
v  -255.1866 11.1538 -42.8236
v  -255.9197 11.2394 -42.9173
v  -254.4425 11.2146 -48.2397
v  -255.1737 11.2878 -48.3543
v  -250.8925 29.2500 -62.4831
v  -251.6301 29.2084 -62.5356
v  -251.0941 29.0869 -60.8124
v  -251.8324 29.0585 -60.8651
v  -250.5670 29.4680 -65.3782
v  -251.3042 29.4128 -65.4280
v  -254.4016 19.6460 -40.9313
v  -255.1368 19.7248 -40.9993
v  -255.2449 13.7322 -39.7403
v  -255.9792 13.8161 -39.8251
v  -253.0080 27.5569 -45.4697
v  -252.8393 27.8556 -46.6285
v  -253.7448 27.6126 -45.5235
v  -253.5761 27.9114 -46.6809
v  -252.6751 28.0210 -47.8372
v  -253.4118 28.0767 -47.8882
v  -252.5168 28.1275 -49.0744
v  -253.2534 28.1833 -49.1243
v  -252.3574 28.2354 -50.3268
v  -253.0941 28.2912 -50.3755
v  -252.2075 28.3598 -51.4918
v  -252.9443 28.4155 -51.5394
v  -251.9606 28.5433 -53.4532
v  -252.6982 28.5572 -53.5045
v  -253.1727 27.0931 -44.4610
v  -253.9095 27.1489 -44.5167
v  -253.2897 26.6811 -43.8387
v  -254.0268 26.7407 -43.8896
v  -253.3948 26.1918 -43.2922
v  -254.1322 26.2553 -43.3382
v  -253.4480 25.9132 -43.0490
v  -254.1845 25.9827 -43.0974
v  -253.6841 24.6429 -42.2141
v  -253.5044 25.6552 -42.7971
v  -254.4199 24.7184 -42.2675
v  -254.2401 25.7308 -42.8478
v  -254.2376 20.8228 -41.2035
v  -254.9733 20.8983 -41.2676
v  -254.0526 22.1770 -41.4812
v  -254.7883 22.2526 -41.5428
v  -253.8997 23.2506 -41.7410
v  -254.6354 23.3261 -41.7981
v  -255.3669 12.4112 -40.0240
v  -255.3377 12.8245 -39.8582
v  -256.1008 12.4970 -40.1096
v  -256.0717 12.9103 -39.9438
v  -255.2940 13.3369 -39.7177
v  -256.0280 13.4227 -39.8033
v  -255.3799 11.1580 -41.1672
v  -256.1139 11.2438 -41.2529
v  -255.4006 11.3831 -40.7659
v  -256.1347 11.4688 -40.8515
v  -255.3964 11.6650 -40.5200
v  -256.1304 11.7508 -40.6056
v  -255.3816 12.1321 -40.1779
v  -256.1156 12.2179 -40.2634
v  -251.9109 11.3282 -60.9578
v  -252.6366 11.3533 -61.1186
v  -251.2837 28.7407 -65.2971
v  -250.6127 28.7672 -65.2491
v  -251.3047 25.0204 -64.5863
v  -250.6363 25.0181 -64.5144
v  -251.7184 21.1067 -63.8473
v  -251.0546 21.0867 -63.7363
v  -252.3603 13.9875 -62.0340
v  -251.6998 13.9744 -61.8895
v  -253.4950 13.0761 -56.8346
v  -254.6631 13.0656 -50.4355
v  -255.5552 13.7398 -43.5454
v  -253.6057 18.1293 -53.9503
v  -254.7944 19.5792 -44.1917
v  -254.0981 25.9539 -43.9510
v  -252.9872 25.3170 -53.4683
v  -252.2144 24.5822 -59.2816
v  -252.2227 19.9834 -61.3523
v  -251.7704 26.9148 -61.0602
# 86 vertices

vn -0.0420 -0.9991 -0.0101
vn -0.0435 -0.9990 -0.0101
vn -0.0459 -0.9989 -0.0098
vn -0.0470 -0.9988 -0.0099
vn -0.0516 -0.9983 -0.0288
vn -0.0568 -0.9980 -0.0284
vn -0.1131 -0.9933 -0.0229
vn -0.1120 -0.9935 -0.0226
vn -0.0940 -0.9952 -0.0277
vn -0.0954 -0.9951 -0.0273
vn -0.0615 0.9952 0.0757
vn -0.0615 0.9953 0.0751
vn -0.0410 0.9968 0.0679
vn -0.0430 0.9969 0.0666
vn -0.0758 0.9952 0.0626
vn -0.0786 0.9950 0.0615
vn -0.0676 0.2109 0.9752
vn -0.0688 0.2106 0.9751
vn -0.0886 0.1981 0.9762
vn -0.0901 0.1980 0.9761
vn 0.0465 0.9410 0.3353
vn 0.0599 0.9783 0.1984
vn 0.0462 0.9390 0.3408
vn 0.0596 0.9775 0.2023
vn 0.0668 0.9908 0.1181
vn 0.0667 0.9906 0.1198
vn 0.0688 0.9932 0.0944
vn 0.0682 0.9922 0.1044
vn 0.0683 0.9923 0.1038
vn 0.0682 0.9920 0.1062
vn 0.0605 0.9929 0.1027
vn 0.0161 0.9970 0.0762
vn 0.0107 0.9972 0.0743
vn 0.0307 0.8795 0.4749
vn 0.0322 0.8778 0.4780
vn 0.0222 0.7934 0.6083
vn 0.0222 0.7933 0.6084
vn 0.0188 0.7163 0.6975
vn 0.0157 0.7180 0.6958
vn 0.0167 0.6764 0.7364
vn 0.0152 0.6810 0.7322
vn -0.0246 0.4069 0.9132
vn -0.0019 0.5503 0.8350
vn -0.0253 0.4033 0.9147
vn -0.0020 0.5472 0.8370
vn -0.0626 0.2186 0.9738
vn -0.0625 0.2181 0.9739
vn -0.0576 0.2225 0.9732
vn -0.0594 0.2215 0.9734
vn -0.0436 0.2903 0.9560
vn -0.0456 0.2884 0.9564
vn -0.1525 -0.4063 0.9009
vn -0.1450 -0.3005 0.9427
vn -0.1281 -0.1151 0.9851
vn -0.1285 -0.1159 0.9849
vn -0.1267 -0.9872 0.0968
vn -0.1266 -0.9872 0.0968
vn -0.1617 -0.7789 0.6060
vn -0.1617 -0.6068 0.7782
vn -0.1596 -0.5421 0.8251
vn -0.1596 -0.5421 0.8250
vn -0.0324 -0.9994 -0.0097
vn -0.0341 -0.9994 -0.0097
vn 0.0775 -0.1876 -0.9792
vn 0.0803 -0.1878 -0.9789
vn 0.1055 -0.1976 -0.9746
vn 0.1042 -0.1978 -0.9747
vn 0.1532 -0.2371 -0.9593
vn 0.1533 -0.2366 -0.9595
vn 0.1975 -0.2846 -0.9381
vn 0.1994 -0.2849 -0.9376
vn 0.1926 -0.3396 -0.9206
vn 0.1923 -0.3395 -0.9207
vn 0.0801 -0.1857 -0.9793
vn 0.0789 -0.1869 -0.9792
vn -0.9808 0.0663 -0.1836
vn -0.9760 0.0609 -0.2090
vn -0.9803 0.0803 -0.1805
vn -0.9834 0.1035 -0.1488
vn -0.9834 0.1142 -0.1413
vn -0.9850 0.1141 -0.1292
vn -0.9857 0.1122 -0.1258
vn -0.9805 0.0851 -0.1770
vn -0.9842 0.0923 -0.1511
vn -0.9859 0.1088 -0.1271
vn -0.9865 0.1099 -0.1212
vn -0.9860 0.0940 -0.1374
vn -0.9867 0.0722 -0.1455
vn -0.9831 0.0697 -0.1695
vn -0.9836 0.0658 -0.1678
vn -0.9781 0.0426 -0.2038
vn -0.9875 0.0454 -0.1510
vn -0.9902 0.0303 -0.1362
vn -0.9924 -0.0231 -0.1206
vn -0.9924 -0.0182 -0.1215
vn -0.9928 -0.0179 -0.1187
vn -0.9883 0.0743 -0.1332
vn -0.9919 -0.0527 -0.1155
vn -0.9864 0.1172 -0.1149
vn -0.9868 0.1163 -0.1124
vn -0.9887 0.0891 -0.1209
vn -0.9876 0.1057 -0.1159
vn -0.9878 0.1027 -0.1170
vn -0.9879 0.1000 -0.1183
vn -0.9881 0.0943 -0.1213
vn -0.9881 0.0981 -0.1185
vn -0.9881 0.1013 -0.1155
vn -0.9884 0.0986 -0.1155
vn -0.9898 0.0981 -0.1033
vn -0.9884 0.1105 -0.1038
vn -0.9875 0.1121 -0.1110
vn -0.9875 0.1128 -0.1097
vn -0.9877 0.1160 -0.1049
vn -0.9877 0.1184 -0.1019
vn -0.9878 0.1159 -0.1037
vn -0.9865 0.1158 -0.1154
vn -0.9865 0.1157 -0.1157
vn -0.9865 0.1161 -0.1159
vn -0.9865 0.1157 -0.1155
vn -0.9863 0.1166 -0.1168
vn -0.9865 0.1160 -0.1160
vn -0.9863 0.1167 -0.1164
vn -0.9772 0.0340 -0.2095
# 123 vertex normals

vt 0.2977 0.6370 0.0000
vt 0.2978 0.6376 0.0000
vt 0.2977 0.6557 0.0000
vt 0.2978 0.6564 0.0000
vt 0.2976 0.6277 0.0000
vt 0.2978 0.6283 0.0000
vt 0.2969 0.5871 0.0000
vt 0.2973 0.5875 0.0000
vt 0.2972 0.6129 0.0000
vt 0.2975 0.6135 0.0000
vt 0.3833 0.6809 0.0000
vt 0.3831 0.6812 0.0000
vt 0.3825 0.6729 0.0000
vt 0.3823 0.6732 0.0000
vt 0.3843 0.6947 0.0000
vt 0.3840 0.6950 0.0000
vt 0.3374 0.5780 0.0000
vt 0.3378 0.5783 0.0000
vt 0.3092 0.5723 0.0000
vt 0.3096 0.5727 0.0000
vt 0.3752 0.5997 0.0000
vt 0.3766 0.6052 0.0000
vt 0.3754 0.5999 0.0000
vt 0.3769 0.6055 0.0000
vt 0.3774 0.6110 0.0000
vt 0.3777 0.6112 0.0000
vt 0.3779 0.6169 0.0000
vt 0.3782 0.6171 0.0000
vt 0.3784 0.6229 0.0000
vt 0.3787 0.6231 0.0000
vt 0.3790 0.6284 0.0000
vt 0.3793 0.6287 0.0000
vt 0.3799 0.6378 0.0000
vt 0.3800 0.6380 0.0000
vt 0.3730 0.5949 0.0000
vt 0.3732 0.5951 0.0000
vt 0.3710 0.5919 0.0000
vt 0.3713 0.5921 0.0000
vt 0.3687 0.5893 0.0000
vt 0.3690 0.5895 0.0000
vt 0.3673 0.5881 0.0000
vt 0.3677 0.5884 0.0000
vt 0.3613 0.5841 0.0000
vt 0.3661 0.5869 0.0000
vt 0.3616 0.5844 0.0000
vt 0.3665 0.5872 0.0000
vt 0.3430 0.5793 0.0000
vt 0.3434 0.5796 0.0000
vt 0.3495 0.5806 0.0000
vt 0.3499 0.5809 0.0000
vt 0.3546 0.5819 0.0000
vt 0.3550 0.5822 0.0000
vt 0.3029 0.5737 0.0000
vt 0.3048 0.5729 0.0000
vt 0.3033 0.5741 0.0000
vt 0.3053 0.5733 0.0000
vt 0.3073 0.5722 0.0000
vt 0.3077 0.5726 0.0000
vt 0.2969 0.5791 0.0000
vt 0.2973 0.5796 0.0000
vt 0.2980 0.5772 0.0000
vt 0.2984 0.5776 0.0000
vt 0.2993 0.5761 0.0000
vt 0.2997 0.5765 0.0000
vt 0.3015 0.5744 0.0000
vt 0.3019 0.5748 0.0000
vt 0.2977 0.6736 0.0000
vt 0.2978 0.6744 0.0000
vt 0.3808 0.6943 0.0000
vt 0.3810 0.6941 0.0000
vt 0.3631 0.6910 0.0000
vt 0.3631 0.6906 0.0000
vt 0.3444 0.6874 0.0000
vt 0.3443 0.6869 0.0000
vt 0.3104 0.6788 0.0000
vt 0.3103 0.6781 0.0000
vt 0.3060 0.6539 0.0000
vt 0.3060 0.6234 0.0000
vt 0.3092 0.5905 0.0000
vt 0.3302 0.6402 0.0000
vt 0.3371 0.5936 0.0000
vt 0.3675 0.5924 0.0000
vt 0.3645 0.6379 0.0000
vt 0.3610 0.6656 0.0000
vt 0.3390 0.6755 0.0000
vt 0.3721 0.6741 0.0000
# 86 texture coords

g U266_541D_L_U266_541D_L_2_DTaSI
usemtl lightglass_1SG
s 1
f 51/51/51 52/52/52 53/53/53 
f 53/53/53 52/52/52 54/54/54 
f 51/51/51 55/55/55 52/52/52 
f 52/52/52 55/55/55 56/56/56 
f 57/57/57 58/58/58 59/59/59 
f 59/59/59 58/58/58 60/60/60 
f 55/55/55 59/59/59 56/56/56 
f 56/56/56 59/59/59 60/60/60 
f 61/61/61 62/62/62 63/63/63 
f 63/63/63 62/62/62 64/64/64 
f 61/61/61 65/65/65 62/62/62 
f 62/62/62 65/65/65 66/66/66 
f 67/67/67 68/68/68 69/69/69 
f 69/69/69 68/68/68 70/70/70 
f 71/71/71 72/72/72 73/73/73 
f 73/73/73 72/72/72 74/74/74 
f 75/75/75 76/76/76 72/72/72 
f 72/72/72 76/76/76 74/74/74 
f 75/75/75 77/77/77 76/76/76 
f 76/76/76 77/77/77 78/78/77 
f 77/77/77 79/79/78 78/78/77 
f 78/78/77 79/79/78 80/80/79 
f 79/79/78 81/81/80 80/80/79 
f 80/80/79 81/81/80 82/82/81 
f 81/81/80 83/83/82 82/82/81 
f 82/82/81 83/83/82 84/84/83 
f 85/85/84 86/86/85 87/87/86 
f 87/87/86 86/86/85 88/88/87 
f 85/85/84 71/71/71 86/86/85 
f 86/86/85 71/71/71 73/73/73 
f 89/89/88 87/87/86 90/90/89 
f 90/90/89 87/87/86 88/88/87 
f 91/91/90 89/89/88 92/92/91 
f 92/92/91 89/89/88 90/90/89 
f 83/83/82 63/63/63 84/84/83 
f 84/84/83 63/63/63 64/64/64 
f 93/93/92 94/94/93 95/95/94 
f 95/95/94 94/94/93 96/96/95 
f 94/94/93 91/91/90 96/96/95 
f 96/96/95 91/91/90 92/92/91 
f 67/67/67 97/97/96 68/68/68 
f 68/68/68 97/97/96 98/98/97 
f 99/99/98 100/100/99 97/97/96 
f 97/97/96 100/100/99 98/98/97 
f 101/101/100 102/102/101 99/99/98 
f 99/99/98 102/102/101 100/100/99 
f 93/93/92 95/95/94 101/101/100 
f 101/101/100 95/95/94 102/102/101 
f 103/103/102 104/104/103 105/105/102 
f 105/105/102 104/104/103 106/106/103 
f 104/104/103 107/107/104 106/106/103 
f 106/106/103 107/107/104 108/108/105 
f 69/69/69 70/70/70 107/107/104 
f 107/107/104 70/70/70 108/108/105 
f 109/109/106 110/110/107 57/57/57 
f 57/57/57 110/110/107 58/58/58 
f 109/109/106 111/111/108 110/110/107 
f 110/110/107 111/111/108 112/112/108 
f 111/111/108 113/113/109 112/112/108 
f 112/112/108 113/113/109 114/114/109 
f 113/113/109 115/115/110 114/114/109 
f 114/114/109 115/115/110 116/116/111 
f 115/115/110 103/103/102 116/116/111 
f 116/116/111 103/103/102 105/105/102 
f 117/117/112 53/53/53 118/118/113 
f 118/118/113 53/53/53 54/54/54 
s 13
f 119/119/114 120/120/115 121/121/116 
f 121/121/116 120/120/115 122/122/117 
f 123/123/118 121/121/116 124/124/119 
f 124/124/119 121/121/116 122/122/117 
f 123/123/118 124/124/119 125/125/120 
f 125/125/120 124/124/119 126/126/121 
f 125/125/120 126/126/121 118/118/122 
f 118/118/122 126/126/121 117/117/123 
f 65/65/124 120/120/115 66/66/125 
f 66/66/125 120/120/115 119/119/114 
s 14
f 127/127/126 54/54/127 52/52/128 
f 128/128/129 60/60/130 129/129/131 
f 129/129/131 60/60/130 58/58/132 
f 52/52/128 56/56/133 128/128/129 
f 128/128/129 56/56/133 60/60/130 
f 52/52/128 128/128/129 127/127/126 
f 127/127/126 128/128/129 130/130/134 
f 129/129/131 131/131/135 128/128/129 
f 128/128/129 131/131/135 130/130/134 
f 132/132/136 133/133/137 131/131/135 
f 131/131/135 133/133/137 130/130/134 
f 134/134/138 135/135/139 133/133/137 
f 133/133/137 135/135/139 130/130/134 
f 123/123/140 125/125/141 135/135/139 
f 135/135/139 134/134/138 123/123/140 
f 123/123/140 134/134/138 121/121/142 
f 134/134/138 136/136/143 121/121/142 
f 119/119/144 121/121/142 62/62/145 
f 121/121/142 136/136/143 62/62/145 
f 136/136/143 64/64/146 62/62/145 
f 133/133/137 84/84/147 134/134/138 
f 134/134/138 84/84/147 136/136/143 
f 119/119/144 62/62/145 66/66/148 
f 70/70/149 68/68/150 129/129/131 
f 129/129/131 68/68/150 131/131/135 
f 125/125/141 127/127/126 135/135/139 
f 135/135/139 127/127/126 130/130/134 
f 84/84/147 133/133/137 82/82/151 
f 133/133/137 132/132/136 82/82/151 
f 82/82/151 132/132/136 80/80/152 
f 80/80/152 132/132/136 78/78/153 
f 78/78/153 132/132/136 76/76/154 
f 76/76/154 132/132/136 74/74/155 
f 74/74/155 132/132/136 73/73/156 
f 73/73/156 132/132/136 86/86/157 
f 132/132/136 88/88/158 86/86/157 
f 88/88/158 132/132/136 90/90/159 
f 90/90/159 132/132/136 92/92/160 
f 84/84/147 64/64/146 136/136/143 
f 68/68/150 98/98/161 131/131/135 
f 131/131/135 98/98/161 132/132/136 
f 98/98/161 100/100/162 132/132/136 
f 100/100/162 102/102/163 132/132/136 
f 102/102/163 95/95/164 132/132/136 
f 95/95/164 96/96/165 132/132/136 
f 96/96/165 92/92/160 132/132/136 
f 129/129/131 58/58/132 70/70/149 
f 58/58/132 110/110/166 70/70/149 
f 70/70/149 110/110/166 108/108/167 
f 108/108/167 110/110/166 106/106/168 
f 106/106/168 110/110/166 105/105/169 
f 105/105/169 110/110/166 116/116/170 
f 116/116/170 110/110/166 114/114/171 
f 110/110/166 112/112/172 114/114/171 
f 125/125/141 118/118/173 127/127/126 
f 118/118/173 54/54/127 127/127/126 
# 132 faces

