# 3ds Max Wavefront OBJ Exporter v0.97b - (c)2007 guruware
# File Created: 20.10.2015 10:40:46

mtllib H025_10_285B_R.mtl

#
# object H025_10_285B_R_1_DTaSI_H025_10_285B_R
#

v  -23.1471 52.3916 58.6880
v  -23.0826 45.3586 62.8180
v  -15.0948 51.8286 58.7835
v  -14.9532 44.8276 62.8963
v  16.8964 49.2545 59.4420
v  17.3163 50.3348 58.7272
v  11.1415 51.3577 58.1954
v  11.6343 52.7157 57.2820
v  22.8297 46.0808 61.3757
v  28.7631 42.9070 63.3093
v  23.4783 46.9153 60.8182
v  29.6402 43.4958 62.9091
v  33.9230 39.5295 65.0541
v  35.3271 39.7195 64.9123
v  -47.1778 18.5061 77.8141
v  -47.2657 20.1749 76.9522
v  -54.7408 18.8909 77.7855
v  -54.9178 20.5348 76.9418
v  -47.8968 31.3634 71.0960
v  -48.4338 38.8010 67.0933
v  -56.2685 31.6628 71.1383
v  -57.4015 39.0466 67.1503
v  -39.2164 18.1253 77.8531
v  -39.2584 19.7777 76.9948
v  15.0045 41.6655 64.2198
v  15.6716 46.6032 61.2070
v  8.1224 42.5689 63.7704
v  8.0436 48.4671 60.1940
v  28.5450 40.0221 64.8701
v  21.9737 43.3815 63.0002
v  1.2625 54.7534 56.3376
v  1.6359 56.2713 55.3542
v  -3.2511 55.4936 56.1188
v  -2.9727 57.2226 55.0338
v  14.2058 17.1444 76.9142
v  14.2817 22.0588 74.4826
v  8.2692 17.3882 76.9026
v  8.2507 22.4133 74.4062
v  -6.8214 18.0541 76.9130
v  -6.9197 23.2708 74.2749
v  -14.4243 18.4553 76.9605
v  -14.5240 23.6802 74.2756
v  49.2742 30.5243 69.4915
v  42.7822 34.7934 67.3875
v  48.8361 29.7291 69.8850
v  41.6643 34.1938 67.7177
v  47.5260 23.7492 72.8067
v  47.9268 27.2074 71.1345
v  40.6817 24.9522 72.3774
v  40.9098 32.1517 68.7590
v  47.0540 15.2575 76.7645
v  47.2707 19.2913 74.8866
v  40.6363 15.6724 76.8096
v  40.6489 19.9150 74.7908
v  -22.8382 18.9061 77.0045
v  -22.8218 17.2907 77.8354
v  -14.3885 16.8384 77.7784
v  -23.0038 37.4076 67.2591
v  -14.7876 36.9109 67.3239
v  34.1005 25.7218 72.2260
v  34.2835 33.2718 68.3780
v  34.1529 36.6216 66.5923
v  14.3685 27.5111 71.7786
v  14.5386 34.6993 68.0788
v  8.2293 27.9834 71.6314
v  8.1865 35.2252 67.8686
v  21.0270 15.2508 77.6653
v  26.3190 14.9974 77.6410
v  21.0483 16.8167 76.9075
v  27.0601 16.5021 76.8910
v  15.7349 15.5041 77.6899
v  8.2780 15.7879 77.6816
v  46.9705 13.8122 77.4316
v  50.4707 13.6046 77.3917
v  50.5790 15.0330 76.7382
v  -7.0290 29.0465 71.3457
v  -7.1778 36.4188 67.4341
v  -14.6350 29.4676 71.2947
v  -6.7846 16.4343 77.7155
v  0.7831 17.6886 76.8853
v  0.8211 16.0716 77.6734
v  -23.1736 57.3808 55.6522
v  -15.1697 56.7822 55.7747
v  5.9522 55.0968 55.8369
v  5.3866 53.4608 56.9487
v  51.5956 29.0001 70.2429
v  51.5318 28.1360 70.6518
v  -49.0744 46.7084 62.6360
v  -49.6435 53.7711 58.4261
v  -58.7464 46.8795 62.7043
v  -59.9328 53.8088 58.5514
v  -50.0334 58.5212 55.4976
v  -60.7745 58.6765 55.5281
v  -39.5611 30.9209 71.1445
v  -39.8258 38.3871 67.1377
v  -40.1432 46.3334 62.6845
v  -40.4225 53.4087 58.4892
v  -40.6093 58.2462 55.5200
v  -23.1835 59.2315 54.5297
v  -15.1978 58.6185 54.6620
v  -40.6787 60.0435 54.4192
v  -50.1779 60.2885 54.4107
v  -61.0856 60.4814 54.4098
v  0.4156 50.3310 59.1811
v  -9.1984 56.2292 55.9126
v  -7.5398 51.1363 58.9599
v  -7.2909 44.2955 63.0056
v  51.3844 26.0328 71.6530
v  51.2024 23.4015 72.8885
v  -9.0638 58.0553 54.7924
v  50.8672 18.8842 74.9689
v  27.3251 21.1523 74.6098
v  21.2391 21.5894 74.5521
v  -22.8824 24.1406 74.2799
v  -39.4006 25.0661 74.2203
v  -47.5626 25.4862 74.1749
v  -55.5536 25.8176 74.1898
v  36.8991 14.4114 77.5459
v  21.9504 40.4954 64.7576
v  -31.2520 19.3615 77.0232
v  -31.2554 17.7378 77.8668
v  -31.2173 45.8226 62.7779
v  -31.2218 37.8780 67.2205
v  -31.2079 52.8532 58.6237
v  -31.1919 57.8081 55.5896
v  -31.1861 59.6443 54.4678
v  -31.2405 24.6066 74.2721
v  -22.9318 29.9394 71.2563
v  -31.2283 30.4160 71.2209
v  27.6174 26.3363 72.0600
v  27.9699 33.6798 68.3096
v  21.4541 26.8963 71.9268
v  21.8033 34.1334 68.2193
v  33.4893 16.1142 76.8539
v  31.6090 14.7044 77.5934
v  33.7846 20.6487 74.6744
v  0.6833 22.8538 74.3092
v  0.4263 35.8678 67.6115
v  0.5726 28.5723 71.4479
v  0.3488 43.5895 63.2629
# 140 vertices

vn 0.0210 0.4779 0.8782
# 1 vertex normals

vt 0.8160 0.1705 0.0000
vt 0.8511 0.1726 0.0000
vt 0.8164 0.2053 0.0000
vt 0.8514 0.2077 0.0000
vt 0.8208 0.3441 0.0000
vt 0.8151 0.3457 0.0000
vt 0.8112 0.3187 0.0000
vt 0.8040 0.3205 0.0000
vt 0.8360 0.3702 0.0000
vt 0.8510 0.3960 0.0000
vt 0.8316 0.3728 0.0000
vt 0.8479 0.3996 0.0000
vt 0.8663 0.4184 0.0000
vt 0.8650 0.4243 0.0000
vt 0.9887 0.0760 0.0000
vt 0.9807 0.0752 0.0000
vt 0.9890 0.0434 0.0000
vt 0.9811 0.0422 0.0000
vt 0.9266 0.0696 0.0000
vt 0.8904 0.0653 0.0000
vt 0.9275 0.0335 0.0000
vt 0.8916 0.0267 0.0000
vt 0.9884 0.1102 0.0000
vt 0.9805 0.1096 0.0000
vt 0.8597 0.3375 0.0000
vt 0.8347 0.3393 0.0000
vt 0.8567 0.3077 0.0000
vt 0.8270 0.3059 0.0000
vt 0.8650 0.3956 0.0000
vt 0.8496 0.3670 0.0000
vt 0.7965 0.2750 0.0000
vt 0.7886 0.2762 0.0000
vt 0.7943 0.2554 0.0000
vt 0.7854 0.2561 0.0000
vt 0.9775 0.3402 0.0000
vt 0.9543 0.3391 0.0000
vt 0.9782 0.3150 0.0000
vt 0.9543 0.3134 0.0000
vt 0.9798 0.2497 0.0000
vt 0.9546 0.2479 0.0000
vt 0.9801 0.2167 0.0000
vt 0.9548 0.2150 0.0000
vt 0.9056 0.4855 0.0000
vt 0.8868 0.4569 0.0000
vt 0.9095 0.4839 0.0000
vt 0.8900 0.4523 0.0000
vt 0.9383 0.4797 0.0000
vt 0.9217 0.4806 0.0000
vt 0.9342 0.4501 0.0000
vt 0.8998 0.4496 0.0000
vt 0.9789 0.4790 0.0000
vt 0.9597 0.4794 0.0000
vt 0.9781 0.4515 0.0000
vt 0.9580 0.4509 0.0000
vt 0.9803 0.1803 0.0000
vt 0.9881 0.1807 0.0000
vt 0.9879 0.2172 0.0000
vt 0.8903 0.1750 0.0000
vt 0.8904 0.2105 0.0000
vt 0.9321 0.4220 0.0000
vt 0.8962 0.4212 0.0000
vt 0.8801 0.4200 0.0000
vt 0.9284 0.3381 0.0000
vt 0.8939 0.3370 0.0000
vt 0.9277 0.3118 0.0000
vt 0.8928 0.3097 0.0000
vt 0.9842 0.3693 0.0000
vt 0.9840 0.3914 0.0000
vt 0.9769 0.3690 0.0000
vt 0.9769 0.3942 0.0000
vt 0.9847 0.3472 0.0000
vt 0.9858 0.3156 0.0000
vt 0.9858 0.4788 0.0000
vt 0.9863 0.4940 0.0000
vt 0.9794 0.4944 0.0000
vt 0.9267 0.2459 0.0000
vt 0.8908 0.2434 0.0000
vt 0.9267 0.2130 0.0000
vt 0.9877 0.2503 0.0000
vt 0.9792 0.2828 0.0000
vt 0.9870 0.2835 0.0000
vt 0.7909 0.1691 0.0000
vt 0.7915 0.2037 0.0000
vt 0.7931 0.2952 0.0000
vt 0.8017 0.2932 0.0000
vt 0.9123 0.4958 0.0000
vt 0.9164 0.4958 0.0000
vt 0.8514 0.0605 0.0000
vt 0.8162 0.0563 0.0000
vt 0.8531 0.0189 0.0000
vt 0.8185 0.0120 0.0000
vt 0.7922 0.0534 0.0000
vt 0.7940 0.0071 0.0000
vt 0.9265 0.1055 0.0000
vt 0.8901 0.1024 0.0000
vt 0.8510 0.0991 0.0000
vt 0.8156 0.0961 0.0000
vt 0.7913 0.0940 0.0000
vt 0.7816 0.1686 0.0000
vt 0.7823 0.2031 0.0000
vt 0.7822 0.0933 0.0000
vt 0.7833 0.0524 0.0000
vt 0.7849 0.0053 0.0000
vt 0.8194 0.2725 0.0000
vt 0.7925 0.2295 0.0000
vt 0.8177 0.2380 0.0000
vt 0.8519 0.2409 0.0000
vt 0.9264 0.4958 0.0000
vt 0.9391 0.4957 0.0000
vt 0.7832 0.2296 0.0000
vt 0.9609 0.4951 0.0000
vt 0.9551 0.3943 0.0000
vt 0.9546 0.3686 0.0000
vt 0.9549 0.1788 0.0000
vt 0.9549 0.1077 0.0000
vt 0.9550 0.0725 0.0000
vt 0.9556 0.0381 0.0000
vt 0.9847 0.4357 0.0000
vt 0.8640 0.3674 0.0000
vt 0.9803 0.1440 0.0000
vt 0.9882 0.1444 0.0000
vt 0.8511 0.1375 0.0000
vt 0.8903 0.1395 0.0000
vt 0.8160 0.1358 0.0000
vt 0.7910 0.1346 0.0000
vt 0.7817 0.1341 0.0000
vt 0.9549 0.1428 0.0000
vt 0.9267 0.1772 0.0000
vt 0.9267 0.1414 0.0000
vt 0.9307 0.3945 0.0000
vt 0.8957 0.3944 0.0000
vt 0.9295 0.3683 0.0000
vt 0.8949 0.3681 0.0000
vt 0.9773 0.4211 0.0000
vt 0.9842 0.4135 0.0000
vt 0.9560 0.4216 0.0000
vt 0.9544 0.2808 0.0000
vt 0.8916 0.2762 0.0000
vt 0.9269 0.2788 0.0000
vt 0.8534 0.2739 0.0000
# 140 texture coords

g H025_10_285B_R_1_DTaSI_H025_10_285B_R
usemtl windowglass_SG
s 1
f 1/1/1 2/2/1 3/3/1 
f 3/3/1 2/2/1 4/4/1 
f 5/5/1 6/6/1 7/7/1 
f 7/7/1 6/6/1 8/8/1 
f 9/9/1 10/10/1 11/11/1 
f 11/11/1 10/10/1 12/12/1 
f 10/10/1 13/13/1 12/12/1 
f 12/12/1 13/13/1 14/14/1 
f 15/15/1 16/16/1 17/17/1 
f 17/17/1 16/16/1 18/18/1 
f 19/19/1 20/20/1 21/21/1 
f 21/21/1 20/20/1 22/22/1 
f 23/23/1 24/24/1 15/15/1 
f 15/15/1 24/24/1 16/16/1 
f 25/25/1 26/26/1 27/27/1 
f 27/27/1 26/26/1 28/28/1 
f 29/29/1 10/10/1 30/30/1 
f 30/30/1 10/10/1 9/9/1 
f 31/31/1 32/32/1 33/33/1 
f 33/33/1 32/32/1 34/34/1 
f 35/35/1 36/36/1 37/37/1 
f 37/37/1 36/36/1 38/38/1 
f 39/39/1 40/40/1 41/41/1 
f 41/41/1 40/40/1 42/42/1 
f 43/43/1 44/44/1 45/45/1 
f 45/45/1 44/44/1 46/46/1 
f 47/47/1 48/48/1 49/49/1 
f 49/49/1 48/48/1 50/50/1 
f 51/51/1 52/52/1 53/53/1 
f 53/53/1 52/52/1 54/54/1 
f 55/55/1 56/56/1 41/41/1 
f 41/41/1 56/56/1 57/57/1 
f 2/2/1 58/58/1 4/4/1 
f 4/4/1 58/58/1 59/59/1 
f 49/49/1 50/50/1 60/60/1 
f 60/60/1 50/50/1 61/61/1 
f 50/50/1 62/62/1 61/61/1 
f 63/63/1 64/64/1 65/65/1 
f 65/65/1 64/64/1 66/66/1 
f 67/67/1 68/68/1 69/69/1 
f 69/69/1 68/68/1 70/70/1 
f 71/71/1 35/35/1 72/72/1 
f 72/72/1 35/35/1 37/37/1 
f 73/73/1 74/74/1 51/51/1 
f 51/51/1 74/74/1 75/75/1 
f 76/76/1 77/77/1 78/78/1 
f 78/78/1 77/77/1 59/59/1 
f 39/39/1 79/79/1 80/80/1 
f 80/80/1 79/79/1 81/81/1 
f 82/82/1 1/1/1 83/83/1 
f 83/83/1 1/1/1 3/3/1 
f 32/32/1 31/31/1 84/84/1 
f 84/84/1 31/31/1 85/85/1 
f 43/43/1 45/45/1 86/86/1 
f 86/86/1 45/45/1 87/87/1 
f 88/88/1 89/89/1 90/90/1 
f 90/90/1 89/89/1 91/91/1 
f 89/89/1 92/92/1 91/91/1 
f 91/91/1 92/92/1 93/93/1 
f 94/94/1 95/95/1 19/19/1 
f 19/19/1 95/95/1 20/20/1 
f 96/96/1 97/97/1 88/88/1 
f 88/88/1 97/97/1 89/89/1 
f 97/97/1 98/98/1 89/89/1 
f 89/89/1 98/98/1 92/92/1 
f 99/99/1 82/82/1 100/100/1 
f 100/100/1 82/82/1 83/83/1 
f 98/98/1 101/101/1 92/92/1 
f 92/92/1 101/101/1 102/102/1 
f 92/92/1 102/102/1 93/93/1 
f 93/93/1 102/102/1 103/103/1 
f 5/5/1 7/7/1 26/26/1 
f 26/26/1 7/7/1 28/28/1 
f 33/33/1 104/104/1 31/31/1 
f 85/85/1 31/31/1 104/104/1 
f 105/105/1 106/106/1 33/33/1 
f 33/33/1 106/106/1 104/104/1 
f 107/107/1 106/106/1 4/4/1 
f 4/4/1 106/106/1 3/3/1 
f 45/45/1 48/48/1 87/87/1 
f 87/87/1 48/48/1 108/108/1 
f 109/109/1 108/108/1 47/47/1 
f 47/47/1 108/108/1 48/48/1 
f 110/110/1 105/105/1 34/34/1 
f 34/34/1 105/105/1 33/33/1 
f 75/75/1 111/111/1 51/51/1 
f 51/51/1 111/111/1 52/52/1 
f 70/70/1 112/112/1 69/69/1 
f 69/69/1 112/112/1 113/113/1 
f 114/114/1 55/55/1 42/42/1 
f 42/42/1 55/55/1 41/41/1 
f 24/24/1 115/115/1 16/16/1 
f 16/16/1 115/115/1 116/116/1 
f 16/16/1 116/116/1 18/18/1 
f 18/18/1 116/116/1 117/117/1 
f 118/118/1 73/73/1 53/53/1 
f 53/53/1 73/73/1 51/51/1 
f 44/44/1 14/14/1 46/46/1 
f 46/46/1 14/14/1 13/13/1 
f 48/48/1 45/45/1 50/50/1 
f 50/50/1 45/45/1 46/46/1 
f 50/50/1 46/46/1 62/62/1 
f 62/62/1 46/46/1 13/13/1 
f 30/30/1 119/119/1 29/29/1 
f 10/10/1 29/29/1 13/13/1 
f 24/24/1 23/23/1 120/120/1 
f 120/120/1 23/23/1 121/121/1 
f 96/96/1 95/95/1 122/122/1 
f 122/122/1 95/95/1 123/123/1 
f 97/97/1 96/96/1 124/124/1 
f 124/124/1 96/96/1 122/122/1 
f 98/98/1 97/97/1 125/125/1 
f 125/125/1 97/97/1 124/124/1 
f 101/101/1 98/98/1 126/126/1 
f 126/126/1 98/98/1 125/125/1 
f 115/115/1 24/24/1 127/127/1 
f 127/127/1 24/24/1 120/120/1 
f 2/2/1 1/1/1 122/122/1 
f 122/122/1 1/1/1 124/124/1 
f 56/56/1 55/55/1 121/121/1 
f 121/121/1 55/55/1 120/120/1 
f 128/128/1 58/58/1 129/129/1 
f 129/129/1 58/58/1 123/123/1 
f 1/1/1 82/82/1 124/124/1 
f 124/124/1 82/82/1 125/125/1 
f 82/82/1 99/99/1 125/125/1 
f 125/125/1 99/99/1 126/126/1 
f 55/55/1 114/114/1 120/120/1 
f 120/120/1 114/114/1 127/127/1 
f 20/20/1 88/88/1 22/22/1 
f 22/22/1 88/88/1 90/90/1 
f 58/58/1 128/128/1 59/59/1 
f 59/59/1 128/128/1 78/78/1 
f 64/64/1 25/25/1 66/66/1 
f 66/66/1 25/25/1 27/27/1 
f 77/77/1 107/107/1 59/59/1 
f 59/59/1 107/107/1 4/4/1 
f 95/95/1 96/96/1 20/20/1 
f 20/20/1 96/96/1 88/88/1 
f 95/95/1 94/94/1 123/123/1 
f 123/123/1 94/94/1 129/129/1 
f 58/58/1 2/2/1 123/123/1 
f 123/123/1 2/2/1 122/122/1 
f 130/130/1 131/131/1 132/132/1 
f 132/132/1 131/131/1 133/133/1 
f 53/53/1 134/134/1 118/118/1 
f 118/118/1 134/134/1 135/135/1 
f 136/136/1 134/134/1 54/54/1 
f 54/54/1 134/134/1 53/53/1 
f 131/131/1 29/29/1 133/133/1 
f 133/133/1 29/29/1 119/119/1 
f 40/40/1 39/39/1 137/137/1 
f 137/137/1 39/39/1 80/80/1 
f 77/77/1 76/76/1 138/138/1 
f 138/138/1 76/76/1 139/139/1 
f 79/79/1 39/39/1 57/57/1 
f 57/57/1 39/39/1 41/41/1 
f 106/106/1 105/105/1 3/3/1 
f 3/3/1 105/105/1 83/83/1 
f 106/106/1 107/107/1 104/104/1 
f 104/104/1 107/107/1 140/140/1 
f 105/105/1 110/110/1 83/83/1 
f 83/83/1 110/110/1 100/100/1 
f 107/107/1 77/77/1 140/140/1 
f 140/140/1 77/77/1 138/138/1 
f 72/72/1 37/37/1 81/81/1 
f 81/81/1 37/37/1 80/80/1 
f 37/37/1 38/38/1 80/80/1 
f 80/80/1 38/38/1 137/137/1 
f 65/65/1 66/66/1 139/139/1 
f 139/139/1 66/66/1 138/138/1 
f 66/66/1 27/27/1 138/138/1 
f 138/138/1 27/27/1 140/140/1 
f 27/27/1 28/28/1 140/140/1 
f 140/140/1 28/28/1 104/104/1 
f 85/85/1 104/104/1 28/28/1 
f 84/84/1 85/85/1 8/8/1 
f 8/8/1 85/85/1 7/7/1 
f 7/7/1 85/85/1 28/28/1 
f 35/35/1 71/71/1 69/69/1 
f 69/69/1 71/71/1 67/67/1 
f 36/36/1 35/35/1 113/113/1 
f 113/113/1 35/35/1 69/69/1 
f 64/64/1 63/63/1 133/133/1 
f 133/133/1 63/63/1 132/132/1 
f 25/25/1 64/64/1 119/119/1 
f 119/119/1 64/64/1 133/133/1 
f 30/30/1 9/9/1 26/26/1 
f 26/26/1 9/9/1 5/5/1 
f 6/6/1 5/5/1 11/11/1 
f 11/11/1 5/5/1 9/9/1 
f 26/26/1 25/25/1 30/30/1 
f 30/30/1 25/25/1 119/119/1 
f 134/134/1 70/70/1 135/135/1 
f 135/135/1 70/70/1 68/68/1 
f 112/112/1 70/70/1 136/136/1 
f 136/136/1 70/70/1 134/134/1 
f 131/131/1 130/130/1 61/61/1 
f 61/61/1 130/130/1 60/60/1 
f 29/29/1 131/131/1 62/62/1 
f 62/62/1 131/131/1 61/61/1 
f 13/13/1 29/29/1 62/62/1 
f 116/116/1 19/19/1 117/117/1 
f 117/117/1 19/19/1 21/21/1 
f 115/115/1 94/94/1 116/116/1 
f 116/116/1 94/94/1 19/19/1 
f 94/94/1 115/115/1 129/129/1 
f 129/129/1 115/115/1 127/127/1 
f 114/114/1 128/128/1 127/127/1 
f 127/127/1 128/128/1 129/129/1 
f 128/128/1 114/114/1 78/78/1 
f 78/78/1 114/114/1 42/42/1 
f 40/40/1 76/76/1 42/42/1 
f 42/42/1 76/76/1 78/78/1 
f 76/76/1 40/40/1 139/139/1 
f 139/139/1 40/40/1 137/137/1 
f 38/38/1 65/65/1 137/137/1 
f 137/137/1 65/65/1 139/139/1 
f 36/36/1 63/63/1 38/38/1 
f 38/38/1 63/63/1 65/65/1 
f 63/63/1 36/36/1 132/132/1 
f 132/132/1 36/36/1 113/113/1 
f 112/112/1 130/130/1 113/113/1 
f 113/113/1 130/130/1 132/132/1 
f 130/130/1 112/112/1 60/60/1 
f 60/60/1 112/112/1 136/136/1 
f 60/60/1 136/136/1 49/49/1 
f 49/49/1 136/136/1 54/54/1 
f 52/52/1 47/47/1 54/54/1 
f 54/54/1 47/47/1 49/49/1 
f 111/111/1 109/109/1 52/52/1 
f 52/52/1 109/109/1 47/47/1 
# 232 faces

