# 3ds Max Wavefront OBJ Exporter v0.97b - (c)2007 guruware
# File Created: 06.11.2015 17:13:39

mtllib X6163_265B_L.mtl

#
# object X6163_265B_L_DTaSI_X6163_265B_L
#

v  -12.7896 64.4010 -87.2022
v  2.8359 63.9610 -87.6917
v  -12.6570 55.8219 -90.7374
v  3.1708 55.3915 -91.2105
v  17.1205 54.9357 -91.5546
v  16.1605 63.4966 -88.0281
v  -12.9353 72.1428 -83.5829
v  2.4485 71.7225 -84.0509
v  -13.0736 78.6016 -80.2377
v  2.0524 78.1497 -80.7102
v  15.0249 71.2838 -84.3878
v  13.9140 77.6601 -81.1009
v  28.0511 63.0976 -88.2510
v  30.3894 54.5325 -91.8283
v  42.5441 54.5569 -91.8624
v  39.3638 62.8736 -88.3059
v  50.8041 70.6909 -83.9114
v  47.8236 70.3437 -84.3307
v  41.2428 76.4186 -81.1398
v  39.4141 76.2544 -81.3935
v  34.3783 70.5502 -84.6922
v  42.8447 70.2643 -84.6184
v  49.9774 62.9338 -88.1261
v  29.7937 76.7241 -81.5635
v  35.9820 76.2611 -81.6133
v  13.0414 82.3107 -78.5453
v  1.7088 83.0152 -78.0200
v  -13.1788 83.6204 -77.4599
v  1.5618 86.0128 -76.2367
v  -13.2036 87.2728 -75.2981
v  1.5908 87.7933 -75.0860
v  -13.1459 88.9078 -74.2407
v  57.7821 63.3142 -87.7071
v  61.7119 63.9106 -87.1508
v  66.9987 56.7485 -90.7043
v  70.4765 57.4875 -90.1454
v  55.2617 55.4233 -91.4637
v  20.9837 81.5834 -78.9845
v  22.7688 77.1987 -81.3835
v  20.4506 83.4954 -77.8129
v  12.6875 84.8173 -77.0411
v  20.1119 84.7280 -77.0579
v  12.6062 86.2601 -76.1130
v  26.7884 80.8109 -79.3581
v  31.6239 80.0551 -79.6380
v  25.3244 70.9001 -84.6034
v  62.0876 39.7506 -97.3848
v  77.2670 39.0321 -97.5637
v  62.9404 36.7045 -98.4622
v  78.8212 36.0589 -98.6053
v  47.0946 40.4751 -97.1118
v  47.8512 37.2793 -98.2536
v  60.4650 44.3204 -95.7924
v  45.2002 46.5197 -94.9189
v  78.0510 42.5801 -96.3539
v  -12.7361 48.0582 -93.5765
v  3.1908 47.6673 -94.0077
v  17.5280 47.2654 -94.3449
v  31.8264 46.8346 -94.6819
v  32.4884 40.9765 -96.7937
v  33.1095 37.7214 -97.9695
v  17.9986 41.3709 -96.4526
v  18.1781 38.0905 -97.6363
v  3.4416 41.7211 -96.1217
v  3.1448 38.4238 -97.3050
v  -12.5796 42.0861 -95.7080
v  -13.3715 38.7847 -96.8868
v  73.3099 51.4439 -93.0328
v  58.7914 48.9641 -94.0397
v  71.0631 46.5500 -94.9944
v  77.8130 48.2620 -94.2289
v  81.5861 46.4969 -94.8569
v  79.7403 45.0913 -95.4362
v  89.3260 41.8278 -96.3763
v  89.7301 38.3968 -97.6157
v  89.2945 36.8091 -98.1713
v  88.3290 35.5465 -98.6993
v  88.8812 42.7002 -96.0657
v  87.9849 43.8847 -95.6473
v  85.3270 46.0512 -94.8802
v  82.2624 48.4981 -93.9283
v  77.6391 52.3289 -92.4157
v  36.0185 79.0910 -79.9153
v  24.7418 83.4091 -77.7951
v  25.5997 82.3076 -78.4578
v  -30.4284 87.7747 -74.7247
v  -30.4281 88.3795 -74.3391
v  -30.1239 88.7979 -74.0742
v  -29.3251 89.1022 -73.8896
v  -29.3718 83.9910 -76.9748
v  -27.9479 78.8743 -79.8064
v  -26.1403 72.3774 -83.1495
v  -23.9825 64.6174 -86.7913
v  -21.7047 56.0111 -90.4103
v  -19.6466 48.2090 -93.3471
v  -18.0671 42.2119 -95.5340
v  -17.2298 38.8726 -96.7668
v  28.8503 82.0972 -78.4753
v  32.1416 80.8705 -79.0730
v  32.2000 80.8367 -79.0905
# 100 vertices

vn -0.0206 0.4018 -0.9155
vn -0.0137 0.4006 -0.9161
vn -0.0208 0.3637 -0.9313
vn -0.0145 0.3612 -0.9324
vn -0.0094 0.3619 -0.9322
vn -0.0068 0.3999 -0.9165
vn -0.0184 0.4401 -0.8978
vn -0.0128 0.4402 -0.8978
vn -0.0159 0.4700 -0.8825
vn -0.0122 0.4700 -0.8826
vn -0.0061 0.4377 -0.8991
vn -0.0070 0.4669 -0.8843
vn -0.0006 0.4025 -0.9154
vn -0.0055 0.3663 -0.9305
vn 0.0005 0.3748 -0.9271
vn 0.0078 0.4119 -0.9112
vn 0.0605 0.5041 -0.8615
vn 0.0461 0.4840 -0.8739
vn 0.0695 0.5222 -0.8500
vn 0.0581 0.5059 -0.8606
vn 0.0138 0.4439 -0.8960
vn 0.0270 0.4585 -0.8883
vn 0.0158 0.4277 -0.9038
vn 0.0159 0.4685 -0.8833
vn 0.0344 0.4811 -0.8760
vn -0.0063 0.4923 -0.8704
vn -0.0111 0.4938 -0.8695
vn -0.0139 0.4947 -0.8689
vn -0.0082 0.5226 -0.8525
vn -0.0118 0.5204 -0.8538
vn -0.0054 0.5429 -0.8398
vn -0.0098 0.5432 -0.8395
vn 0.0289 0.4505 -0.8923
vn 0.0503 0.4791 -0.8763
vn 0.0140 0.4176 -0.9085
vn 0.0441 0.4549 -0.8895
vn 0.0071 0.3924 -0.9198
vn 0.0016 0.4920 -0.8706
vn 0.0015 0.4651 -0.8853
vn 0.0061 0.5227 -0.8525
vn -0.0027 0.5232 -0.8522
vn 0.0065 0.5254 -0.8508
vn -0.0003 0.5412 -0.8409
vn 0.0155 0.4929 -0.8700
vn 0.0357 0.5014 -0.8645
vn 0.0020 0.4371 -0.8994
vn 0.0012 0.3323 -0.9432
vn 0.0075 0.3284 -0.9445
vn 0.0027 0.3340 -0.9426
vn 0.0098 0.3356 -0.9420
vn -0.0042 0.3385 -0.9410
vn -0.0039 0.3354 -0.9421
vn -0.0028 0.3378 -0.9412
vn -0.0042 0.3490 -0.9371
vn 0.0097 0.3251 -0.9456
vn -0.0195 0.3399 -0.9402
vn -0.0149 0.3379 -0.9411
vn -0.0119 0.3392 -0.9406
vn -0.0095 0.3433 -0.9392
vn -0.0109 0.3380 -0.9411
vn -0.0105 0.3377 -0.9412
vn -0.0129 0.3370 -0.9414
vn -0.0130 0.3387 -0.9408
vn -0.0149 0.3361 -0.9417
vn -0.0150 0.3390 -0.9407
vn -0.0180 0.3370 -0.9413
vn -0.0176 0.3399 -0.9403
vn 0.0123 0.3989 -0.9169
vn 0.0005 0.3684 -0.9297
vn 0.0027 0.3501 -0.9367
vn 0.0245 0.3818 -0.9239
vn 0.0340 0.3798 -0.9244
vn 0.0179 0.3432 -0.9391
vn 0.0153 0.3383 -0.9409
vn 0.0139 0.3377 -0.9412
vn 0.0146 0.3403 -0.9402
vn 0.0112 0.3785 -0.9255
vn 0.0211 0.3458 -0.9381
vn 0.0233 0.3481 -0.9372
vn 0.0316 0.3699 -0.9285
vn 0.0407 0.4087 -0.9117
vn 0.0410 0.4232 -0.9051
vn 0.0586 0.5145 -0.8555
vn 0.0165 0.5250 -0.8509
vn 0.0199 0.5270 -0.8496
vn -0.0135 0.5140 -0.8577
vn -0.0117 0.5386 -0.8425
vn -0.0118 0.5410 -0.8409
vn -0.0118 0.5409 -0.8410
vn -0.0145 0.4955 -0.8685
vn -0.0164 0.4689 -0.8831
vn -0.0201 0.4399 -0.8978
vn -0.0246 0.4049 -0.9140
vn -0.0263 0.3686 -0.9292
vn -0.0249 0.3424 -0.9392
vn -0.0229 0.3377 -0.9410
vn -0.0218 0.3412 -0.9397
vn 0.0337 0.5304 -0.8471
vn 0.0520 0.5463 -0.8360
vn 0.0654 0.5397 -0.8393
# 100 vertex normals

vt 0.5516 0.1102 0.0000
vt 0.4981 0.1102 0.0000
vt 0.5499 0.0785 0.0000
vt 0.4957 0.0785 0.0000
vt 0.4479 0.0786 0.0000
vt 0.4525 0.1101 0.0000
vt 0.5532 0.1394 0.0000
vt 0.5006 0.1395 0.0000
vt 0.5547 0.1642 0.0000
vt 0.5029 0.1642 0.0000
vt 0.4575 0.1393 0.0000
vt 0.4623 0.1637 0.0000
vt 0.4118 0.1102 0.0000
vt 0.4025 0.0788 0.0000
vt 0.3609 0.0805 0.0000
vt 0.3730 0.1109 0.0000
vt 0.3351 0.1431 0.0000
vt 0.3452 0.1410 0.0000
vt 0.3686 0.1636 0.0000
vt 0.3749 0.1624 0.0000
vt 0.3913 0.1392 0.0000
vt 0.3622 0.1396 0.0000
vt 0.3367 0.1128 0.0000
vt 0.4079 0.1623 0.0000
vt 0.3866 0.1616 0.0000
vt 0.4660 0.1817 0.0000
vt 0.5049 0.1831 0.0000
vt 0.5558 0.1838 0.0000
vt 0.5058 0.1950 0.0000
vt 0.5565 0.1983 0.0000
vt 0.5060 0.2023 0.0000
vt 0.5566 0.2050 0.0000
vt 0.3101 0.1157 0.0000
vt 0.2967 0.1190 0.0000
vt 0.2775 0.0922 0.0000
vt 0.2657 0.0958 0.0000
vt 0.3175 0.0855 0.0000
vt 0.4388 0.1799 0.0000
vt 0.4320 0.1631 0.0000
vt 0.4409 0.1875 0.0000
vt 0.4676 0.1917 0.0000
vt 0.4423 0.1924 0.0000
vt 0.4682 0.1975 0.0000
vt 0.4188 0.1778 0.0000
vt 0.4021 0.1757 0.0000
vt 0.4223 0.1392 0.0000
vt 0.2919 0.0290 0.0000
vt 0.2399 0.0285 0.0000
vt 0.2885 0.0181 0.0000
vt 0.2341 0.0180 0.0000
vt 0.3433 0.0297 0.0000
vt 0.3403 0.0182 0.0000
vt 0.2981 0.0454 0.0000
vt 0.3507 0.0514 0.0000
vt 0.2377 0.0415 0.0000
vt 0.5491 0.0502 0.0000
vt 0.4946 0.0505 0.0000
vt 0.4455 0.0507 0.0000
vt 0.3965 0.0509 0.0000
vt 0.3934 0.0297 0.0000
vt 0.3908 0.0179 0.0000
vt 0.4430 0.0294 0.0000
vt 0.4420 0.0175 0.0000
vt 0.4929 0.0290 0.0000
vt 0.4934 0.0170 0.0000
vt 0.5477 0.0286 0.0000
vt 0.5500 0.0165 0.0000
vt 0.2552 0.0732 0.0000
vt 0.3045 0.0621 0.0000
vt 0.2622 0.0549 0.0000
vt 0.2393 0.0622 0.0000
vt 0.2262 0.0562 0.0000
vt 0.2323 0.0508 0.0000
vt 0.1991 0.0406 0.0000
vt 0.1972 0.0282 0.0000
vt 0.1985 0.0224 0.0000
vt 0.2016 0.0176 0.0000
vt 0.2007 0.0437 0.0000
vt 0.2040 0.0478 0.0000
vt 0.2134 0.0553 0.0000
vt 0.2242 0.0639 0.0000
vt 0.2405 0.0774 0.0000
vt 0.3869 0.1729 0.0000
vt 0.4262 0.1879 0.0000
vt 0.4231 0.1836 0.0000
vt 0.6154 0.1984 0.0000
vt 0.6155 0.2008 0.0000
vt 0.6145 0.2026 0.0000
vt 0.6118 0.2039 0.0000
vt 0.6112 0.1835 0.0000
vt 0.6056 0.1637 0.0000
vt 0.5984 0.1390 0.0000
vt 0.5899 0.1099 0.0000
vt 0.5809 0.0783 0.0000
vt 0.5727 0.0501 0.0000
vt 0.5665 0.0285 0.0000
vt 0.5632 0.0165 0.0000
vt 0.4119 0.1834 0.0000
vt 0.4005 0.1791 0.0000
vt 0.4003 0.1790 0.0000
# 100 texture coords

g X6163_265B_L_DTaSI_X6163_265B_L
usemtl windowglass_1SG
s 1
f 1/1/1 2/2/2 3/3/3 
f 3/3/3 2/2/2 4/4/4 
f 5/5/5 4/4/4 6/6/6 
f 6/6/6 4/4/4 2/2/2 
f 7/7/7 8/8/8 1/1/1 
f 1/1/1 8/8/8 2/2/2 
f 9/9/9 10/10/10 7/7/7 
f 7/7/7 10/10/10 8/8/8 
f 11/11/11 8/8/8 12/12/12 
f 12/12/12 8/8/8 10/10/10 
f 6/6/6 2/2/2 11/11/11 
f 11/11/11 2/2/2 8/8/8 
f 6/6/6 13/13/13 5/5/5 
f 5/5/5 13/13/13 14/14/14 
f 15/15/15 14/14/14 16/16/16 
f 16/16/16 14/14/14 13/13/13 
f 17/17/17 18/18/18 19/19/19 
f 19/19/19 18/18/18 20/20/20 
f 21/21/21 22/22/22 16/16/16 
f 16/16/16 22/22/22 23/23/23 
f 24/24/24 25/25/25 21/21/21 
f 21/21/21 25/25/25 22/22/22 
f 12/12/12 10/10/10 26/26/26 
f 26/26/26 10/10/10 27/27/27 
f 28/28/28 27/27/27 9/9/9 
f 9/9/9 27/27/27 10/10/10 
f 29/29/29 30/30/30 31/31/31 
f 31/31/31 30/30/30 32/32/32 
f 33/33/33 34/34/34 35/35/35 
f 35/35/35 34/34/34 36/36/36 
f 16/16/16 23/23/23 15/15/15 
f 15/15/15 23/23/23 37/37/37 
f 26/26/26 38/38/38 12/12/12 
f 12/12/12 38/38/38 39/39/39 
f 40/40/40 41/41/41 42/42/42 
f 42/42/42 41/41/41 43/43/43 
f 24/24/24 39/39/39 44/44/44 
f 44/44/44 39/39/39 38/38/38 
f 44/44/44 45/45/45 24/24/24 
f 24/24/24 45/45/45 25/25/25 
f 11/11/11 46/46/46 6/6/6 
f 6/6/6 46/46/46 13/13/13 
f 12/12/12 39/39/39 11/11/11 
f 11/11/11 39/39/39 46/46/46 
f 21/21/21 46/46/46 24/24/24 
f 24/24/24 46/46/46 39/39/39 
f 16/16/16 13/13/13 21/21/21 
f 21/21/21 13/13/13 46/46/46 
f 47/47/47 48/48/48 49/49/49 
f 49/49/49 48/48/48 50/50/50 
f 51/51/51 47/47/47 52/52/52 
f 52/52/52 47/47/47 49/49/49 
f 53/53/53 47/47/47 54/54/54 
f 54/54/54 47/47/47 51/51/51 
f 55/55/55 48/48/48 53/53/53 
f 53/53/53 48/48/48 47/47/47 
f 3/3/3 4/4/4 56/56/56 
f 56/56/56 4/4/4 57/57/57 
f 58/58/58 57/57/57 5/5/5 
f 5/5/5 57/57/57 4/4/4 
f 54/54/54 59/59/59 15/15/15 
f 15/15/15 59/59/59 14/14/14 
f 5/5/5 14/14/14 58/58/58 
f 58/58/58 14/14/14 59/59/59 
f 60/60/60 51/51/51 61/61/61 
f 61/61/61 51/51/51 52/52/52 
f 62/62/62 60/60/60 63/63/63 
f 63/63/63 60/60/60 61/61/61 
f 58/58/58 59/59/59 62/62/62 
f 62/62/62 59/59/59 60/60/60 
f 54/54/54 51/51/51 59/59/59 
f 59/59/59 51/51/51 60/60/60 
f 64/64/64 65/65/65 66/66/66 
f 66/66/66 65/65/65 67/67/67 
f 56/56/56 57/57/57 66/66/66 
f 66/66/66 57/57/57 64/64/64 
f 62/62/62 64/64/64 58/58/58 
f 58/58/58 64/64/64 57/57/57 
f 64/64/64 62/62/62 65/65/65 
f 65/65/65 62/62/62 63/63/63 
f 68/68/68 69/69/69 35/35/35 
f 35/35/35 69/69/69 37/37/37 
f 15/15/15 37/37/37 54/54/54 
f 54/54/54 37/37/37 69/69/69 
f 54/54/54 69/69/69 53/53/53 
f 53/53/53 69/69/69 70/70/70 
f 71/71/71 70/70/70 68/68/68 
f 68/68/68 70/70/70 69/69/69 
f 72/72/72 73/73/73 71/71/71 
f 71/71/71 73/73/73 70/70/70 
f 53/53/53 70/70/70 55/55/55 
f 55/55/55 70/70/70 73/73/73 
f 55/55/55 74/74/74 48/48/48 
f 48/48/48 74/74/74 75/75/75 
f 48/48/48 75/75/75 50/50/50 
f 75/75/75 76/76/76 50/50/50 
f 50/50/50 76/76/76 77/77/77 
f 74/74/74 55/55/55 78/78/78 
f 78/78/78 55/55/55 79/79/79 
f 55/55/55 73/73/73 79/79/79 
f 72/72/72 80/80/80 73/73/73 
f 73/73/73 80/80/80 79/79/79 
f 71/71/71 81/81/81 72/72/72 
f 72/72/72 81/81/81 80/80/80 
f 68/68/68 82/82/82 71/71/71 
f 71/71/71 82/82/82 81/81/81 
f 35/35/35 36/36/36 68/68/68 
f 68/68/68 36/36/36 82/82/82 
f 34/34/34 33/33/33 17/17/17 
f 17/17/17 33/33/33 18/18/18 
f 45/45/45 83/83/83 25/25/25 
f 19/19/19 20/20/20 83/83/83 
f 20/20/20 25/25/25 83/83/83 
f 42/42/42 84/84/84 40/40/40 
f 40/40/40 84/84/84 85/85/85 
f 31/31/31 43/43/43 29/29/29 
f 29/29/29 43/43/43 41/41/41 
f 30/30/30 86/86/86 32/32/32 
f 86/86/86 87/87/87 32/32/32 
f 87/87/87 88/88/88 32/32/32 
f 88/88/88 89/89/89 32/32/32 
f 28/28/28 90/90/90 30/30/30 
f 30/30/30 90/90/90 86/86/86 
f 9/9/9 91/91/91 28/28/28 
f 28/28/28 91/91/91 90/90/90 
f 7/7/7 92/92/92 9/9/9 
f 9/9/9 92/92/92 91/91/91 
f 1/1/1 93/93/93 7/7/7 
f 7/7/7 93/93/93 92/92/92 
f 3/3/3 94/94/94 1/1/1 
f 1/1/1 94/94/94 93/93/93 
f 56/56/56 95/95/95 3/3/3 
f 3/3/3 95/95/95 94/94/94 
f 66/66/66 96/96/96 56/56/56 
f 56/56/56 96/96/96 95/95/95 
f 96/96/96 66/66/66 97/97/97 
f 97/97/97 66/66/66 67/67/67 
f 44/44/44 98/98/98 45/45/45 
f 45/45/45 98/98/98 99/99/99 
f 99/99/99 100/100/100 45/45/45 
f 45/45/45 100/100/100 83/83/83 
f 44/44/44 85/85/85 98/98/98 
f 98/98/98 85/85/85 84/84/84 
f 35/35/35 37/37/37 33/33/33 
f 33/33/33 37/37/37 23/23/23 
f 33/33/33 23/23/23 18/18/18 
f 18/18/18 23/23/23 22/22/22 
f 18/18/18 22/22/22 20/20/20 
f 20/20/20 22/22/22 25/25/25 
f 40/40/40 85/85/85 38/38/38 
f 38/38/38 85/85/85 44/44/44 
f 38/38/38 26/26/26 40/40/40 
f 40/40/40 26/26/26 41/41/41 
f 29/29/29 41/41/41 27/27/27 
f 27/27/27 41/41/41 26/26/26 
f 30/30/30 29/29/29 28/28/28 
f 28/28/28 29/29/29 27/27/27 
# 157 faces

