# 3ds Max Wavefront OBJ Exporter v0.97b - (c)2007 guruware
# File Created: 06.11.2015 17:12:39

mtllib X6163_182C_C.mtl

#
# object X6163_182C_C_D_X6163_182C_C
#

v  117.2159 37.2741 88.3516
v  121.9089 36.9232 83.1290
v  121.3894 36.9352 82.7421
v  136.2536 40.6745 17.2374
v  143.4383 40.4790 11.0945
v  136.8036 40.8458 -0.0000
v  143.8070 40.9117 -0.0000
v  142.6558 40.6058 21.6896
v  134.5939 40.2041 33.9328
v  141.5349 40.1066 31.4154
v  140.3176 39.9931 39.6749
v  131.8875 39.5026 49.4968
v  139.0628 39.6116 46.0852
v  138.0246 39.4912 50.5938
v  137.3393 39.2835 53.3329
v  128.5085 38.6498 63.1496
v  136.9780 39.1877 54.7319
v  136.8224 39.1384 55.3099
v  136.7097 39.1209 55.6731
v  136.5044 39.0982 56.3067
v  136.2387 39.0665 57.1336
v  135.9816 39.0097 57.9414
v  135.7899 38.9658 58.5481
v  135.6629 38.9420 58.9350
v  135.5073 38.9504 59.3026
v  134.5323 38.7757 61.4936
v  132.1335 38.4012 66.7039
v  124.8898 37.7426 74.2303
v  128.5217 37.7956 73.5439
v  124.2280 37.1843 80.1678
v  117.2159 37.2741 -88.3516
v  121.3894 36.9352 -82.7421
v  121.9089 36.9232 -83.1290
v  136.2536 40.6745 -17.2374
v  143.4383 40.4790 -11.0945
v  142.6558 40.6058 -21.6896
v  134.5939 40.2041 -33.9328
v  141.5349 40.1066 -31.4154
v  140.3176 39.9931 -39.6749
v  131.8875 39.5026 -49.4968
v  139.0628 39.6116 -46.0852
v  138.0246 39.4912 -50.5938
v  137.3393 39.2835 -53.3329
v  128.5085 38.6498 -63.1496
v  136.9780 39.1877 -54.7319
v  136.8224 39.1384 -55.3099
v  136.7097 39.1208 -55.6731
v  136.5044 39.0982 -56.3067
v  136.2387 39.0665 -57.1336
v  135.9816 39.0097 -57.9414
v  135.7899 38.9658 -58.5481
v  135.6629 38.9420 -58.9350
v  135.5073 38.9504 -59.3026
v  134.5323 38.7757 -61.4936
v  132.1335 38.4012 -66.7039
v  124.8898 37.7426 -74.2303
v  128.5217 37.7956 -73.5439
v  124.2280 37.1843 -80.1678
# 58 vertices

vn 0.0000 0.0000 -0.0000
vn 0.0179 0.9998 0.0070
vn 0.0118 0.9992 0.0382
vn 0.0438 0.9987 -0.0278
vn 0.0139 0.9998 0.0109
vn 0.0267 0.9996 0.0111
vn 0.0119 0.9999 -0.0000
vn -0.0094 1.0000 0.0000
vn 0.0030 0.9998 0.0205
vn 0.0058 0.9993 0.0357
vn 0.0297 0.9986 0.0433
vn 0.0004 0.9992 0.0398
vn -0.0030 0.9985 0.0540
vn 0.0106 0.9985 0.0543
vn -0.0058 0.9991 0.0430
vn -0.0040 0.9980 0.0633
vn -0.0052 0.9974 0.0714
vn 0.0079 0.9974 0.0716
vn 0.0238 0.9959 0.0874
vn -0.0229 0.9990 0.0379
vn -0.0346 0.9991 0.0251
vn -0.0258 0.9990 0.0360
vn 0.0014 0.9975 0.0710
vn 0.0016 0.9975 0.0710
vn -0.0183 0.9991 0.0382
vn -0.0278 0.9992 0.0276
vn -0.0000 0.9971 0.0757
vn -0.0062 0.9970 0.0772
vn -0.0008 0.9961 0.0887
vn 0.0026 0.9959 0.0906
vn -0.0017 0.9956 0.0932
vn 0.0179 0.9998 -0.0070
vn 0.0438 0.9987 0.0278
vn 0.0118 0.9992 -0.0382
vn 0.0139 0.9998 -0.0109
vn 0.0267 0.9996 -0.0111
vn 0.0030 0.9998 -0.0205
vn 0.0057 0.9993 -0.0357
vn 0.0297 0.9986 -0.0433
vn 0.0004 0.9992 -0.0398
vn -0.0030 0.9985 -0.0540
vn 0.0106 0.9985 -0.0543
vn -0.0058 0.9991 -0.0430
vn -0.0040 0.9980 -0.0633
vn -0.0052 0.9974 -0.0714
vn 0.0079 0.9974 -0.0716
vn 0.0238 0.9959 -0.0873
vn -0.0228 0.9990 -0.0379
vn -0.0346 0.9991 -0.0251
vn -0.0258 0.9990 -0.0360
vn 0.0014 0.9975 -0.0710
vn 0.0016 0.9975 -0.0710
vn -0.0183 0.9991 -0.0382
vn -0.0278 0.9992 -0.0276
vn -0.0000 0.9971 -0.0757
vn -0.0062 0.9970 -0.0772
vn -0.0008 0.9961 -0.0887
vn 0.0026 0.9959 -0.0906
vn -0.0017 0.9956 -0.0932
# 59 vertex normals

g X6163_182C_C_D_X6163_182C_C
usemtl diffuse_black_plasticSG
s off
f 1//1 2//1 1//1 
s 1
f 2//2 3//3 1//4 
f 4//5 5//6 6//7 
f 6//7 5//6 7//8 
f 5//6 4//5 8//9 
f 4//5 9//10 8//9 
f 8//9 9//10 10//11 
f 10//11 9//10 11//12 
f 9//10 12//13 11//12 
f 11//12 12//13 13//14 
f 13//14 12//13 14//15 
f 14//15 12//13 15//16 
f 12//13 16//17 15//16 
f 15//16 16//17 17//18 
f 17//18 16//17 18//19 
f 18//19 16//17 19//20 
f 19//20 16//17 20//21 
f 20//21 16//17 21//22 
f 21//22 16//17 22//23 
f 22//23 16//17 23//24 
f 23//24 16//17 24//25 
f 24//25 16//17 25//26 
f 25//26 16//17 26//27 
f 26//27 16//17 27//28 
f 16//17 28//29 27//28 
f 27//28 28//29 29//30 
f 29//30 28//29 30//31 
f 2//2 30//31 3//3 
f 28//29 3//3 30//31 
s off
f 31//1 32//1 31//1 
s 1
f 33//32 31//33 32//34 
f 34//35 6//7 35//36 
f 35//36 6//7 7//8 
f 35//36 36//37 34//35 
f 34//35 36//37 37//38 
f 36//37 38//39 37//38 
f 38//39 39//40 37//38 
f 37//38 39//40 40//41 
f 39//40 41//42 40//41 
f 41//42 42//43 40//41 
f 42//43 43//44 40//41 
f 40//41 43//44 44//45 
f 43//44 45//46 44//45 
f 45//46 46//47 44//45 
f 46//47 47//48 44//45 
f 47//48 48//49 44//45 
f 48//49 49//50 44//45 
f 49//50 50//51 44//45 
f 50//51 51//52 44//45 
f 51//52 52//53 44//45 
f 52//53 53//54 44//45 
f 53//54 54//55 44//45 
f 54//55 55//56 44//45 
f 44//45 55//56 56//57 
f 55//56 57//58 56//57 
f 57//58 58//59 56//57 
f 33//32 32//34 58//59 
f 58//59 32//34 56//57 
# 58 faces

