# 3ds Max Wavefront OBJ Exporter v0.97b - (c)2007 guruware
# File Created: 04.12.2015 17:43:41

mtllib P712_181C_L.mtl

#
# object P712_181C_L_DaS_P712_181C_L
#

v  79.4284 92.0572 -91.2553
v  79.1174 92.0703 -92.0957
v  65.6238 103.4973 -87.9258
v  64.9752 103.6913 -88.7005
v  55.8397 111.1330 -85.0807
v  54.4068 111.8435 -85.7548
v  49.7876 115.6275 -82.8814
v  53.3126 112.3725 -86.2877
v  47.7690 116.7685 -83.3958
v  102.7253 69.3452 -100.6540
v  103.1599 69.3880 -99.4809
v  102.9417 69.2397 -100.3830
v  103.3053 69.2335 -99.5058
v  62.2855 103.8083 -91.3439
v  63.0997 103.8395 -90.6287
v  77.2938 92.1131 -94.8872
v  77.8845 92.1015 -94.1723
v  64.4713 103.8363 -89.3053
v  64.2755 103.8788 -89.5465
v  52.9297 112.5247 -86.5166
v  78.6916 92.0858 -93.1489
v  78.7331 92.0850 -93.0766
v  91.8458 80.9172 -96.0871
v  91.8806 80.9174 -95.9931
v  103.7109 69.4386 -97.9859
v  103.7428 69.4410 -97.8932
v  103.8496 69.2842 -98.0311
v  103.8997 69.2879 -97.8845
v  104.6691 69.3981 -94.5910
v  104.2352 69.4219 -96.1554
v  103.3933 70.6590 -94.6230
v  102.9916 70.6797 -96.0957
v  78.3541 92.0923 -93.5998
v  78.5820 92.0880 -93.3120
v  91.6228 80.9167 -96.5912
v  91.7688 80.9173 -96.2729
v  103.4994 69.4208 -98.5643
v  103.6486 69.4340 -98.1603
v  103.6471 69.2671 -98.5836
v  103.7970 69.2805 -98.1782
v  98.3466 74.1076 -99.6671
v  98.6933 74.1287 -98.7210
v  101.5594 70.6134 -100.3912
v  101.9706 70.6505 -99.2786
v  102.4812 70.6929 -97.8911
v  102.4371 70.6902 -98.0145
v  99.1452 74.1528 -97.4813
v  99.0989 74.1514 -97.6130
v  102.6781 70.6943 -97.2372
v  102.5490 70.6966 -97.6883
v  99.3178 74.1536 -96.8847
v  99.2119 74.1550 -97.2743
v  99.8780 74.1335 -94.7111
v  99.5648 74.1453 -95.9318
v  92.4482 80.9053 -93.9053
v  92.1935 80.9114 -94.8647
v  91.9904 80.9159 -95.6198
v  99.1955 74.1548 -97.3290
v  99.1636 74.1535 -97.4271
v  102.5001 70.6941 -97.8370
v  102.5320 70.6962 -97.7430
v  91.8984 80.9174 -95.9389
v  98.9680 74.1447 -97.9708
v  102.2927 70.6788 -98.4063
v  91.8247 80.9172 -96.1404
v  91.3304 80.9150 -97.2162
v  90.9652 80.9127 -97.9946
v  103.6918 69.4371 -98.0400
v  78.6602 92.0864 -93.1987
v  64.1470 103.8792 -89.6945
v  64.0498 103.8758 -89.7895
v  63.7443 103.8643 -90.0613
v  52.3753 112.4254 -87.0398
v  52.6830 112.4930 -86.7651
v  52.7816 112.5144 -86.6691
v  103.8975 69.4388 -97.3652
v  104.0468 69.2853 -97.3808
v  104.3874 69.2682 -96.1626
v  104.6766 69.2885 -94.9820
v  103.7600 69.4416 -97.8386
v  78.8695 92.0805 -92.7548
v  78.7585 92.0843 -93.0247
v  64.2365 103.8824 -89.5936
v  64.1887 103.8806 -89.6498
v  52.8219 112.5230 -86.6256
v  52.8767 112.5344 -86.5597
v  50.8937 112.0980 -88.3634
v  51.7209 112.2808 -87.6241
v  45.7167 118.7476 -80.5614
v  45.8683 118.9100 -79.4350
v  46.4072 118.3496 -80.4816
v  47.1785 117.6443 -81.4894
v  45.2695 118.3503 -82.6472
v  44.6359 117.7457 -84.4361
v  44.4925 117.6080 -84.7103
v  44.4707 117.5849 -84.7575
v  44.4373 117.5454 -84.8403
v  44.4164 117.5210 -84.8872
v  44.3476 117.4414 -85.0269
v  44.2124 117.2866 -85.2707
v  43.8814 116.9063 -85.8926
v  43.4739 116.4248 -86.6821
# 102 vertices

vn 0.6015 0.7709 -0.2095
vn 0.5991 0.7722 -0.2117
vn 0.5625 0.7800 -0.2740
vn 0.5571 0.7843 -0.2730
vn 0.5304 0.7987 -0.2842
vn 0.5256 0.8054 -0.2739
vn 0.5228 0.8186 -0.2379
vn 0.5055 0.8091 -0.2998
vn 0.4343 0.8140 -0.3856
vn 0.6779 0.6818 -0.2750
vn 0.6771 0.6825 -0.2751
vn 0.6779 0.6814 -0.2759
vn 0.6772 0.6822 -0.2756
vn 0.4273 0.7383 -0.5219
vn 0.4333 0.7331 -0.5243
vn 0.5095 0.7553 -0.4122
vn 0.5145 0.7524 -0.4113
vn 0.5504 0.7857 -0.2823
vn 0.5370 0.7832 -0.3134
vn 0.4851 0.8248 -0.2905
vn 0.5583 0.7636 -0.3243
vn 0.5688 0.7669 -0.2972
vn 0.6124 0.7551 -0.2340
vn 0.6171 0.7555 -0.2200
vn 0.6808 0.6870 -0.2540
vn 0.6837 0.6885 -0.2417
vn 0.6812 0.6860 -0.2556
vn 0.6923 0.6906 -0.2093
vn 0.6935 0.6971 -0.1818
vn 0.6944 0.6961 -0.1823
vn 0.6940 0.6971 -0.1799
vn 0.6947 0.6964 -0.1803
vn 0.5204 0.7496 -0.4090
vn 0.5306 0.7510 -0.3930
vn 0.5969 0.7523 -0.2789
vn 0.6018 0.7516 -0.2699
vn 0.6765 0.6836 -0.2740
vn 0.6772 0.6846 -0.2696
vn 0.6760 0.6839 -0.2743
vn 0.6766 0.6854 -0.2691
vn 0.6449 0.7209 -0.2539
vn 0.6471 0.7190 -0.2537
vn 0.6785 0.6821 -0.2727
vn 0.6778 0.6828 -0.2728
vn 0.6805 0.6865 -0.2564
vn 0.6781 0.6849 -0.2668
vn 0.6533 0.7196 -0.2353
vn 0.6503 0.7183 -0.2474
vn 0.6949 0.6949 -0.1851
vn 0.6932 0.6932 -0.1973
vn 0.6674 0.7249 -0.1704
vn 0.6647 0.7249 -0.1810
vn 0.6709 0.7228 -0.1658
vn 0.6687 0.7248 -0.1660
vn 0.6352 0.7549 -0.1635
vn 0.6332 0.7562 -0.1649
vn 0.6307 0.7573 -0.1696
vn 0.6580 0.7215 -0.2155
vn 0.6546 0.7214 -0.2257
vn 0.6822 0.6876 -0.2488
vn 0.6850 0.6890 -0.2368
vn 0.6267 0.7579 -0.1815
vn 0.6485 0.7180 -0.2526
vn 0.6773 0.6837 -0.2715
vn 0.6081 0.7531 -0.2513
vn 0.5927 0.7550 -0.2803
vn 0.5880 0.7583 -0.2815
vn 0.6794 0.6860 -0.2606
vn 0.5464 0.7577 -0.3568
vn 0.4635 0.7403 -0.4869
vn 0.4456 0.7297 -0.5187
vn 0.4377 0.7293 -0.5259
vn 0.3597 0.7297 -0.5814
vn 0.3667 0.7299 -0.5768
vn 0.3858 0.7446 -0.5447
vn 0.6946 0.6946 -0.1872
vn 0.6947 0.6943 -0.1881
vn 0.6944 0.6959 -0.1831
vn 0.6944 0.6962 -0.1820
vn 0.6929 0.6928 -0.1996
vn 0.5949 0.7734 -0.2188
vn 0.5875 0.7732 -0.2386
vn 0.5005 0.7631 -0.4089
vn 0.4804 0.7524 -0.4507
vn 0.4081 0.7665 -0.4959
vn 0.4336 0.7857 -0.4412
vn 0.3472 0.7413 -0.5744
vn 0.3555 0.7342 -0.5784
vn 0.5053 0.8283 -0.2421
vn 0.5066 0.8411 -0.1895
vn 0.4804 0.8432 -0.2412
vn 0.4771 0.8457 -0.2391
vn 0.4272 0.8357 -0.3452
vn 0.3839 0.7973 -0.4658
vn 0.3390 0.7600 -0.5545
vn 0.3534 0.7755 -0.5231
vn 0.3512 0.7738 -0.5272
vn 0.3262 0.7507 -0.5745
vn 0.3059 0.7327 -0.6079
vn 0.2996 0.7327 -0.6111
vn 0.2984 0.7390 -0.6040
vn 0.2950 0.7405 -0.6038
# 102 vertex normals

vt 0.6927 0.7949 0.0000
vt 0.6915 0.7962 0.0000
vt 0.6640 0.7763 0.0000
vt 0.6625 0.7773 0.0000
vt 0.6451 0.7652 0.0000
vt 0.6423 0.7656 0.0000
vt 0.6343 0.7587 0.0000
vt 0.6402 0.7659 0.0000
vt 0.6305 0.7586 0.0000
vt 0.7386 0.8356 0.0000
vt 0.7401 0.8347 0.0000
vt 0.7391 0.8356 0.0000
vt 0.7403 0.8349 0.0000
vt 0.6569 0.7810 0.0000
vt 0.6585 0.7799 0.0000
vt 0.6867 0.8002 0.0000
vt 0.6880 0.7992 0.0000
vt 0.6613 0.7780 0.0000
vt 0.6608 0.7784 0.0000
vt 0.6395 0.7661 0.0000
vt 0.6899 0.7978 0.0000
vt 0.6900 0.7977 0.0000
vt 0.7173 0.8164 0.0000
vt 0.7174 0.8163 0.0000
vt 0.7421 0.8330 0.0000
vt 0.7422 0.8329 0.0000
vt 0.7423 0.8333 0.0000
vt 0.7425 0.8331 0.0000
vt 0.7458 0.8291 0.0000
vt 0.7442 0.8308 0.0000
vt 0.7436 0.8273 0.0000
vt 0.7419 0.8291 0.0000
vt 0.6891 0.7984 0.0000
vt 0.6896 0.7980 0.0000
vt 0.7166 0.8172 0.0000
vt 0.7171 0.8167 0.0000
vt 0.7413 0.8337 0.0000
vt 0.7418 0.8332 0.0000
vt 0.7416 0.8339 0.0000
vt 0.7421 0.8335 0.0000
vt 0.7299 0.8299 0.0000
vt 0.7311 0.8285 0.0000
vt 0.7364 0.8346 0.0000
vt 0.7377 0.8331 0.0000
vt 0.7396 0.8314 0.0000
vt 0.7395 0.8315 0.0000
vt 0.7327 0.8267 0.0000
vt 0.7325 0.8269 0.0000
vt 0.7405 0.8305 0.0000
vt 0.7399 0.8311 0.0000
vt 0.7334 0.8258 0.0000
vt 0.7329 0.8264 0.0000
vt 0.7361 0.8227 0.0000
vt 0.7346 0.8245 0.0000
vt 0.7203 0.8131 0.0000
vt 0.7190 0.8145 0.0000
vt 0.7179 0.8157 0.0000
vt 0.7329 0.8265 0.0000
vt 0.7328 0.8266 0.0000
vt 0.7397 0.8313 0.0000
vt 0.7398 0.8312 0.0000
vt 0.7175 0.8162 0.0000
vt 0.7320 0.8274 0.0000
vt 0.7389 0.8320 0.0000
vt 0.7172 0.8165 0.0000
vt 0.7157 0.8181 0.0000
vt 0.7145 0.8193 0.0000
vt 0.7420 0.8331 0.0000
vt 0.6898 0.7978 0.0000
vt 0.6605 0.7786 0.0000
vt 0.6603 0.7787 0.0000
vt 0.6597 0.7791 0.0000
vt 0.6385 0.7669 0.0000
vt 0.6390 0.7665 0.0000
vt 0.6392 0.7663 0.0000
vt 0.7429 0.8323 0.0000
vt 0.7431 0.8325 0.0000
vt 0.7445 0.8310 0.0000
vt 0.7456 0.8296 0.0000
vt 0.7423 0.8329 0.0000
vt 0.6905 0.7972 0.0000
vt 0.6901 0.7976 0.0000
vt 0.6607 0.7784 0.0000
vt 0.6606 0.7785 0.0000
vt 0.6393 0.7663 0.0000
vt 0.6394 0.7662 0.0000
vt 0.6359 0.7691 0.0000
vt 0.6373 0.7679 0.0000
vt 0.6270 0.7537 0.0000
vt 0.6273 0.7521 0.0000
vt 0.6283 0.7537 0.0000
vt 0.6297 0.7554 0.0000
vt 0.6262 0.7566 0.0000
vt 0.6253 0.7593 0.0000
vt 0.6252 0.7597 0.0000
vt 0.6251 0.7598 0.0000
vt 0.6251 0.7599 0.0000
vt 0.6251 0.7600 0.0000
vt 0.6249 0.7602 0.0000
vt 0.6247 0.7607 0.0000
vt 0.6242 0.7618 0.0000
vt 0.6235 0.7632 0.0000
# 102 texture coords

g P712_181C_L_DaS_P712_181C_L
usemtl paint_whiteSG
s 13
f 1/1/1 2/2/2 3/3/3 
f 3/3/3 2/2/2 4/4/4 
f 5/5/5 6/6/6 7/7/7 
f 6/6/6 8/8/8 7/7/7 
f 7/7/7 8/8/8 9/9/9 
f 10/10/10 11/11/11 12/12/12 
f 12/12/12 11/11/11 13/13/13 
f 14/14/14 15/15/15 16/16/16 
f 16/16/16 15/15/15 17/17/17 
f 18/18/18 19/19/19 8/8/8 
f 8/8/8 19/19/19 20/20/20 
f 21/21/21 22/22/22 23/23/23 
f 23/23/23 22/22/22 24/24/24 
f 25/25/25 26/26/26 27/27/27 
f 27/27/27 26/26/26 28/28/28 
f 29/29/29 30/30/30 31/31/31 
f 31/31/31 30/30/30 32/32/32 
f 33/33/33 34/34/34 35/35/35 
f 35/35/35 34/34/34 36/36/36 
f 37/37/37 38/38/38 39/39/39 
f 39/39/39 38/38/38 40/40/40 
f 41/41/41 42/42/42 43/43/43 
f 43/43/43 42/42/42 44/44/44 
f 45/45/45 46/46/46 47/47/47 
f 47/47/47 46/46/46 48/48/48 
f 49/49/49 50/50/50 51/51/51 
f 51/51/51 50/50/50 52/52/52 
f 53/53/53 54/54/54 55/55/55 
f 55/55/55 54/54/54 56/56/56 
f 51/51/51 54/54/54 49/49/49 
f 49/49/49 54/54/54 32/32/32 
f 54/54/54 53/53/53 32/32/32 
f 32/32/32 53/53/53 31/31/31 
f 54/54/54 51/51/51 56/56/56 
f 56/56/56 51/51/51 57/57/57 
f 58/58/58 59/59/59 24/24/24 
f 24/24/24 59/59/59 23/23/23 
f 59/59/59 58/58/58 60/60/60 
f 60/60/60 58/58/58 61/61/61 
f 51/51/51 52/52/52 57/57/57 
f 57/57/57 52/52/52 62/62/62 
f 48/48/48 63/63/63 36/36/36 
f 36/36/36 63/63/63 35/35/35 
f 63/63/63 48/48/48 64/64/64 
f 64/64/64 48/48/48 46/46/46 
f 47/47/47 48/48/48 65/65/65 
f 65/65/65 48/48/48 36/36/36 
f 63/63/63 42/42/42 35/35/35 
f 35/35/35 42/42/42 66/66/66 
f 42/42/42 41/41/41 66/66/66 
f 66/66/66 41/41/41 67/67/67 
f 42/42/42 63/63/63 44/44/44 
f 44/44/44 63/63/63 64/64/64 
f 68/68/68 38/38/38 45/45/45 
f 45/45/45 38/38/38 46/46/46 
f 38/38/38 37/37/37 46/46/46 
f 46/46/46 37/37/37 64/64/64 
f 38/38/38 68/68/68 40/40/40 
f 40/40/40 68/68/68 27/27/27 
f 69/69/69 34/34/34 70/70/70 
f 70/70/70 34/34/34 71/71/71 
f 34/34/34 33/33/33 71/71/71 
f 71/71/71 33/33/33 72/72/72 
f 34/34/34 69/69/69 36/36/36 
f 36/36/36 69/69/69 65/65/65 
f 73/73/73 74/74/74 72/72/72 
f 72/72/72 74/74/74 71/71/71 
f 74/74/74 75/75/75 71/71/71 
f 71/71/71 75/75/75 70/70/70 
f 76/76/76 30/30/30 77/77/77 
f 77/77/77 30/30/30 78/78/78 
f 78/78/78 30/30/30 79/79/79 
f 79/79/79 30/30/30 29/29/29 
f 30/30/30 76/76/76 32/32/32 
f 32/32/32 76/76/76 49/49/49 
f 76/76/76 80/80/80 49/49/49 
f 49/49/49 80/80/80 50/50/50 
f 26/26/26 25/25/25 61/61/61 
f 61/61/61 25/25/25 60/60/60 
f 80/80/80 76/76/76 28/28/28 
f 28/28/28 76/76/76 77/77/77 
f 81/81/81 82/82/82 18/18/18 
f 18/18/18 82/82/82 19/19/19 
f 22/22/22 21/21/21 83/83/83 
f 83/83/83 21/21/21 84/84/84 
f 82/82/82 81/81/81 62/62/62 
f 62/62/62 81/81/81 57/57/57 
f 85/85/85 86/86/86 84/84/84 
f 84/84/84 86/86/86 83/83/83 
f 87/87/87 88/88/88 14/14/14 
f 14/14/14 88/88/88 15/15/15 
f 88/88/88 73/73/73 15/15/15 
f 15/15/15 73/73/73 72/72/72 
f 17/17/17 33/33/33 66/66/66 
f 66/66/66 33/33/33 35/35/35 
f 33/33/33 17/17/17 72/72/72 
f 72/72/72 17/17/17 15/15/15 
f 16/16/16 17/17/17 67/67/67 
f 67/67/67 17/17/17 66/66/66 
f 37/37/37 11/11/11 64/64/64 
f 64/64/64 11/11/11 44/44/44 
f 11/11/11 10/10/10 44/44/44 
f 44/44/44 10/10/10 43/43/43 
f 11/11/11 37/37/37 13/13/13 
f 13/13/13 37/37/37 39/39/39 
f 8/8/8 6/6/6 18/18/18 
f 18/18/18 6/6/6 4/4/4 
f 6/6/6 5/5/5 4/4/4 
f 4/4/4 5/5/5 3/3/3 
f 81/81/81 2/2/2 57/57/57 
f 57/57/57 2/2/2 56/56/56 
f 2/2/2 1/1/1 56/56/56 
f 56/56/56 1/1/1 55/55/55 
f 2/2/2 81/81/81 4/4/4 
f 4/4/4 81/81/81 18/18/18 
f 89/89/89 90/90/90 91/91/91 
f 91/91/91 92/92/92 93/93/93 
f 93/93/93 92/92/92 9/9/9 
f 91/91/91 93/93/93 89/89/89 
f 9/9/9 92/92/92 7/7/7 
f 93/93/93 9/9/9 94/94/94 
f 94/94/94 9/9/9 8/8/8 
f 8/8/8 20/20/20 94/94/94 
f 94/94/94 20/20/20 95/95/95 
f 86/86/86 85/85/85 96/96/96 
f 96/96/96 85/85/85 97/97/97 
f 75/75/75 74/74/74 98/98/98 
f 98/98/98 74/74/74 99/99/99 
f 74/74/74 73/73/73 99/99/99 
f 99/99/99 73/73/73 100/100/100 
f 101/101/101 100/100/100 88/88/88 
f 88/88/88 100/100/100 73/73/73 
f 102/102/102 101/101/101 87/87/87 
f 87/87/87 101/101/101 88/88/88 
f 19/19/19 83/83/83 20/20/20 
f 20/20/20 83/83/83 86/86/86 
f 83/83/83 19/19/19 22/22/22 
f 22/22/22 19/19/19 82/82/82 
f 20/20/20 86/86/86 95/95/95 
f 95/95/95 86/86/86 96/96/96 
f 21/21/21 69/69/69 84/84/84 
f 84/84/84 69/69/69 70/70/70 
f 69/69/69 21/21/21 65/65/65 
f 65/65/65 21/21/21 23/23/23 
f 65/65/65 23/23/23 47/47/47 
f 47/47/47 23/23/23 59/59/59 
f 22/22/22 82/82/82 24/24/24 
f 24/24/24 82/82/82 62/62/62 
f 24/24/24 62/62/62 58/58/58 
f 58/58/58 62/62/62 52/52/52 
f 25/25/25 68/68/68 60/60/60 
f 60/60/60 68/68/68 45/45/45 
f 68/68/68 25/25/25 27/27/27 
f 80/80/80 26/26/26 50/50/50 
f 50/50/50 26/26/26 61/61/61 
f 26/26/26 80/80/80 28/28/28 
f 60/60/60 45/45/45 59/59/59 
f 59/59/59 45/45/45 47/47/47 
f 50/50/50 61/61/61 52/52/52 
f 52/52/52 61/61/61 58/58/58 
f 84/84/84 70/70/70 85/85/85 
f 85/85/85 70/70/70 75/75/75 
f 85/85/85 75/75/75 97/97/97 
f 97/97/97 75/75/75 98/98/98 
# 164 faces

#
# object P712_181C_L_DaS_P712_181C_L_E
#

v  65.6238 103.4973 -87.9258
v  65.2517 102.9769 -87.7522
v  79.4284 92.0572 -91.2553
v  79.0306 91.5469 -91.1122
v  49.4412 115.0825 -82.7310
v  55.4880 110.5980 -84.9094
v  49.7876 115.6275 -82.8814
v  55.8397 111.1330 -85.0807
v  46.0506 117.8018 -80.3707
v  46.8293 117.0957 -81.3602
v  46.4072 118.3496 -80.4816
v  47.1785 117.6443 -81.4894
v  103.3933 70.6590 -94.6230
v  102.9331 70.1964 -94.5046
v  104.6691 69.3981 -94.5910
v  104.2091 68.9358 -94.4710
v  92.4482 80.9053 -93.9053
v  92.0265 80.4070 -93.7891
v  99.8780 74.1335 -94.7111
v  99.4308 73.6574 -94.5981
v  45.5032 118.3663 -79.3311
v  45.8683 118.9100 -79.4350
v  102.9462 68.7089 -98.5468
v  102.6985 68.6458 -98.7821
v  103.3053 69.2335 -99.5058
v  102.9417 69.2397 -100.3830
v  103.8997 69.2879 -97.8845
v  103.4682 68.8541 -97.7430
v  103.8496 69.2842 -98.0311
v  103.4220 68.8526 -97.8695
v  103.7970 69.2805 -98.1782
v  103.3708 68.8498 -98.0101
v  103.6471 69.2671 -98.5836
v  103.2216 68.8374 -98.4111
v  103.9505 68.8309 -96.0473
v  103.6104 68.8487 -97.2607
v  104.3874 69.2682 -96.1626
v  104.0468 69.2853 -97.3808
v  104.6766 69.2885 -94.9820
v  104.2399 68.8509 -94.8675
v  77.2938 92.1131 -94.8872
v  77.2938 92.1132 -94.2712
v  62.2855 103.8083 -91.3439
v  62.2855 103.8083 -90.7278
v  101.5594 69.9941 -99.7752
v  98.3466 73.4883 -99.0510
v  101.5594 70.6134 -100.3912
v  98.3466 74.1076 -99.6671
v  90.9652 80.4303 -97.3786
v  90.9652 80.9127 -97.9946
v  50.8937 112.0980 -88.3634
v  50.8937 112.0980 -87.7474
v  43.4739 116.4248 -86.6821
v  43.5293 116.3925 -86.0787
v  102.7253 68.9730 -100.0380
v  102.7253 69.3452 -100.6540
# 56 vertices

vn 0.3203 0.0858 0.9434
vn 0.3199 0.0852 0.9436
vn 0.2675 0.0621 0.9616
vn 0.2668 0.0611 0.9618
vn 0.4025 -0.0053 0.9154
vn 0.3544 0.0647 0.9329
vn 0.4040 -0.0034 0.9148
vn 0.3548 0.0653 0.9327
vn 0.6925 -0.3235 0.6448
vn 0.5555 -0.1662 0.8147
vn 0.6973 -0.3196 0.6416
vn 0.5592 -0.1622 0.8130
vn 0.1125 0.1395 0.9838
vn 0.1128 0.1401 0.9837
vn 0.1139 0.1411 0.9834
vn 0.1141 0.1416 0.9833
vn 0.2038 0.0562 0.9774
vn 0.2033 0.0557 0.9775
vn 0.1399 0.1025 0.9848
vn 0.1400 0.1027 0.9848
vn 0.7219 -0.3733 0.5827
vn 0.7259 -0.3701 0.5797
vn 0.5374 -0.7956 -0.2796
vn 0.5006 -0.8262 -0.2587
vn 0.5438 -0.8093 -0.2220
vn 0.5718 -0.7937 -0.2076
vn 0.6606 -0.7231 -0.2019
vn 0.6564 -0.7239 -0.2126
vn 0.6549 -0.7252 -0.2124
vn 0.6484 -0.7275 -0.2242
vn 0.6510 -0.7276 -0.2164
vn 0.6487 -0.7286 -0.2199
vn 0.6239 -0.7478 -0.2271
vn 0.5917 -0.7263 -0.3498
vn 0.6729 -0.7186 -0.1759
vn 0.6650 -0.7195 -0.2002
vn 0.6728 -0.7187 -0.1757
vn 0.6644 -0.7206 -0.1981
vn 0.7107 -0.7031 0.0235
vn 0.7114 -0.7023 0.0276
vn 0.7200 -0.6650 0.1983
vn 0.7195 -0.6652 0.1996
vn -0.6253 -0.7804 0.0001
vn -0.6242 -0.7812 -0.0062
vn -0.6033 -0.7975 0.0000
vn -0.6000 -0.8000 0.0000
vn -0.6775 -0.5377 -0.5019
vn -0.6635 -0.5276 -0.5304
vn -0.6797 -0.5172 -0.5200
vn -0.6530 -0.5357 -0.5354
vn -0.6444 -0.6006 -0.4734
vn -0.6415 -0.6071 -0.4689
vn -0.5522 -0.8337 -0.0000
vn -0.5413 -0.8408 -0.0000
vn -0.5038 -0.8638 -0.0001
vn 0.2352 -0.9153 -0.3269
vn -0.6641 -0.6121 -0.4293
vn 0.2245 -0.8340 -0.5039
# 58 vertex normals

vt 0.6640 0.7763 0.0000
vt 0.6649 0.7753 0.0000
vt 0.6927 0.7949 0.0000
vt 0.6937 0.7938 0.0000
vt 0.6346 0.7578 0.0000
vt 0.6455 0.7642 0.0000
vt 0.6343 0.7587 0.0000
vt 0.6451 0.7652 0.0000
vt 0.6292 0.7532 0.0000
vt 0.6305 0.7547 0.0000
vt 0.6283 0.7537 0.0000
vt 0.6297 0.7554 0.0000
vt 0.7436 0.8273 0.0000
vt 0.7446 0.8263 0.0000
vt 0.7458 0.8291 0.0000
vt 0.7468 0.8287 0.0000
vt 0.7203 0.8131 0.0000
vt 0.7211 0.8120 0.0000
vt 0.7361 0.8227 0.0000
vt 0.7369 0.8217 0.0000
vt 0.6283 0.7517 0.0000
vt 0.6273 0.7521 0.0000
vt 0.7421 0.8354 0.0000
vt 0.7418 0.8360 0.0000
vt 0.7403 0.8349 0.0000
vt 0.7391 0.8356 0.0000
vt 0.7425 0.8331 0.0000
vt 0.7431 0.8339 0.0000
vt 0.7423 0.8333 0.0000
vt 0.7429 0.8341 0.0000
vt 0.7421 0.8335 0.0000
vt 0.7427 0.8342 0.0000
vt 0.7416 0.8339 0.0000
vt 0.7422 0.8348 0.0000
vt 0.7453 0.8317 0.0000
vt 0.7437 0.8333 0.0000
vt 0.7445 0.8310 0.0000
vt 0.7431 0.8325 0.0000
vt 0.7456 0.8296 0.0000
vt 0.7466 0.8298 0.0000
vt 0.6867 0.8002 0.0000
vt 0.6858 0.8011 0.0000
vt 0.6569 0.7810 0.0000
vt 0.6561 0.7818 0.0000
vt 0.7366 0.8361 0.0000
vt 0.7299 0.8314 0.0000
vt 0.7364 0.8346 0.0000
vt 0.7299 0.8299 0.0000
vt 0.7146 0.8207 0.0000
vt 0.7145 0.8193 0.0000
vt 0.6359 0.7691 0.0000
vt 0.6352 0.7698 0.0000
vt 0.6235 0.7632 0.0000
vt 0.6230 0.7640 0.0000
vt 0.7397 0.8361 0.0000
vt 0.7386 0.8356 0.0000
# 56 texture coords

g P712_181C_L_DaS_P712_181C_L_E
usemtl paint_whiteSG
s 1
f 103/103/103 104/104/104 105/105/105 
f 105/105/105 104/104/104 106/106/106 
f 107/107/107 108/108/108 109/109/109 
f 109/109/109 108/108/108 110/110/110 
f 111/111/111 112/112/112 113/113/113 
f 113/113/113 112/112/112 114/114/114 
f 115/115/115 116/116/116 117/117/117 
f 117/117/117 116/116/116 118/118/118 
f 119/119/119 120/120/120 121/121/121 
f 121/121/121 120/120/120 122/122/122 
f 121/121/121 122/122/122 115/115/115 
f 115/115/115 122/122/122 116/116/116 
f 123/123/123 111/111/111 124/124/124 
f 124/124/124 111/111/111 113/113/113 
f 109/109/109 114/114/114 107/107/107 
f 107/107/107 114/114/114 112/112/112 
f 110/110/110 108/108/108 103/103/103 
f 103/103/103 108/108/108 104/104/104 
f 105/105/105 106/106/106 119/119/119 
f 119/119/119 106/106/106 120/120/120 
s 6
f 125/125/125 126/126/126 127/127/127 
f 127/127/127 126/126/126 128/128/128 
f 129/129/129 130/130/130 131/131/131 
f 131/131/131 130/130/130 132/132/132 
f 133/133/133 134/134/134 135/135/135 
f 135/135/135 134/134/134 136/136/136 
f 131/131/131 132/132/132 133/133/133 
f 133/133/133 132/132/132 134/134/134 
f 137/137/137 138/138/138 139/139/139 
f 139/139/139 138/138/138 140/140/140 
f 141/141/141 142/142/142 139/139/139 
f 139/139/139 142/142/142 137/137/137 
f 138/138/138 130/130/130 140/140/140 
f 140/140/140 130/130/130 129/129/129 
f 136/136/136 125/125/125 135/135/135 
f 135/135/135 125/125/125 127/127/127 
f 118/118/143 142/142/142 117/117/144 
f 117/117/144 142/142/142 141/141/141 
s 11
f 143/143/145 144/144/146 145/145/147 
f 145/145/147 144/144/146 146/146/148 
f 147/147/149 148/148/150 149/149/151 
f 149/149/151 148/148/150 150/150/152 
f 148/148/150 151/151/153 150/150/152 
f 150/150/152 151/151/153 152/152/154 
f 145/145/147 146/146/148 153/153/155 
f 153/153/155 146/146/148 154/154/156 
f 153/153/155 154/154/156 155/155/157 
f 155/155/157 154/154/156 156/156/157 
f 151/151/153 144/144/146 152/152/154 
f 152/152/154 144/144/146 143/143/145 
f 157/157/158 147/147/149 158/158/159 
f 158/158/159 147/147/149 149/149/151 
s 6
f 126/126/126 157/157/158 128/128/128 
s off
f 128/128/160 157/157/160 158/158/160 
# 54 faces

