# 3ds Max Wavefront OBJ Exporter v0.97b - (c)2007 guruware
# File Created: 04.12.2015 17:43:52

mtllib P712_181C_R.mtl

#
# object P712_181C_R_DaS_P712_181C_R
#

v  79.4284 92.0572 91.2553
v  65.6238 103.4973 87.9258
v  79.1174 92.0703 92.0957
v  64.9752 103.6913 88.7005
v  55.8397 111.1331 85.0807
v  49.7876 115.6275 82.8814
v  54.4068 111.8435 85.7548
v  47.7690 116.7685 83.3958
v  53.3126 112.3725 86.2877
v  102.7253 69.3452 100.6540
v  102.9417 69.2397 100.3830
v  103.1599 69.3880 99.4809
v  103.3053 69.2335 99.5058
v  62.2855 103.8083 91.3439
v  77.2938 92.1131 94.8872
v  63.0997 103.8395 90.6287
v  77.8845 92.1015 94.1723
v  64.4713 103.8363 89.3053
v  64.2560 103.8830 89.5705
v  52.8954 112.5384 86.5371
v  78.6771 92.0861 93.1742
v  91.8358 80.9172 96.1140
v  78.7476 92.0847 93.0512
v  91.8905 80.9175 95.9663
v  103.7016 69.4379 98.0130
v  103.8498 69.2842 98.0311
v  103.7521 69.4417 97.8661
v  103.9002 69.2882 97.8846
v  104.6691 69.3981 94.5910
v  103.3933 70.6590 94.6230
v  104.2352 69.4219 96.1555
v  102.9916 70.6797 96.0957
v  78.3541 92.0923 93.5998
v  91.6228 80.9167 96.5912
v  78.5820 92.0880 93.3120
v  91.7688 80.9173 96.2729
v  103.4994 69.4208 98.5643
v  103.6471 69.2671 98.5836
v  103.6486 69.4340 98.1603
v  103.7970 69.2805 98.1782
v  98.3466 74.1076 99.6671
v  101.5594 70.6134 100.3913
v  98.6933 74.1287 98.7210
v  101.9706 70.6505 99.2786
v  102.4909 70.6935 97.8641
v  99.1547 74.1531 97.4543
v  102.4371 70.6902 98.0145
v  99.0989 74.1514 97.6130
v  102.6781 70.6943 97.2372
v  99.3178 74.1536 96.8847
v  102.5412 70.6968 97.7158
v  99.2044 74.1551 97.3018
v  99.8780 74.1335 94.7111
v  92.4482 80.9053 93.9053
v  99.5648 74.1453 95.9318
v  92.1935 80.9114 94.8647
v  91.9904 80.9159 95.6198
v  98.9680 74.1447 97.9708
v  102.2927 70.6788 98.4063
v  91.3304 80.9150 97.2162
v  90.9652 80.9127 97.9946
v  64.1692 103.8799 89.6728
v  64.0498 103.8758 89.7895
v  63.7443 103.8643 90.0613
v  52.3753 112.4254 87.0398
v  52.6830 112.4930 86.7651
v  52.8031 112.5191 86.6482
v  103.8975 69.4388 97.3652
v  104.0468 69.2853 97.3808
v  104.3874 69.2682 96.1626
v  104.6766 69.2885 94.9820
v  78.8695 92.0805 92.7548
v  50.8937 112.0980 88.3634
v  51.7209 112.2809 87.6241
v  45.7352 118.7883 80.5116
v  46.4072 118.3496 80.4816
v  45.8683 118.9100 79.4350
v  47.1785 117.6443 81.4894
v  45.5576 118.6245 81.7388
v  44.8042 117.9075 84.1141
v  44.4804 117.5964 84.7333
v  44.4276 117.5340 84.8645
v  44.3476 117.4414 85.0269
v  44.2124 117.2866 85.2707
v  43.8814 116.9063 85.8926
v  43.4739 116.4248 86.6821
# 86 vertices

vn 0.6015 0.7709 0.2095
vn 0.5625 0.7800 0.2740
vn 0.5991 0.7722 0.2117
vn 0.5571 0.7843 0.2730
vn 0.5304 0.7987 0.2842
vn 0.5228 0.8186 0.2379
vn 0.5256 0.8054 0.2739
vn 0.4462 0.8192 0.3604
vn 0.5176 0.8063 0.2862
vn 0.6779 0.6818 0.2750
vn 0.6779 0.6814 0.2759
vn 0.6771 0.6825 0.2751
vn 0.6772 0.6822 0.2756
vn 0.4273 0.7383 0.5219
vn 0.5095 0.7553 0.4122
vn 0.4333 0.7331 0.5243
vn 0.5145 0.7524 0.4114
vn 0.5503 0.7856 0.2829
vn 0.5263 0.7780 0.3431
vn 0.4667 0.7999 0.3772
vn 0.5523 0.7606 0.3411
vn 0.6103 0.7541 0.2426
vn 0.5821 0.7715 0.2570
vn 0.6239 0.7572 0.1934
vn 0.6801 0.6866 0.2569
vn 0.6803 0.6866 0.2566
vn 0.6909 0.6922 0.2086
vn 0.6911 0.6920 0.2088
vn 0.6935 0.6971 0.1818
vn 0.6940 0.6971 0.1799
vn 0.6944 0.6961 0.1823
vn 0.6947 0.6964 0.1803
vn 0.5204 0.7496 0.4090
vn 0.5969 0.7523 0.2789
vn 0.5312 0.7515 0.3913
vn 0.6020 0.7518 0.2691
vn 0.6765 0.6836 0.2740
vn 0.6760 0.6839 0.2743
vn 0.6773 0.6847 0.2692
vn 0.6766 0.6853 0.2692
vn 0.6449 0.7209 0.2539
vn 0.6785 0.6821 0.2727
vn 0.6471 0.7190 0.2537
vn 0.6778 0.6828 0.2728
vn 0.6814 0.6871 0.2523
vn 0.6540 0.7205 0.2304
vn 0.6782 0.6849 0.2663
vn 0.6503 0.7184 0.2468
vn 0.6949 0.6948 0.1853
vn 0.6674 0.7249 0.1706
vn 0.6914 0.6923 0.2065
vn 0.6630 0.7240 0.1904
vn 0.6709 0.7228 0.1658
vn 0.6352 0.7549 0.1635
vn 0.6687 0.7248 0.1660
vn 0.6332 0.7562 0.1649
vn 0.6306 0.7573 0.1698
vn 0.6485 0.7180 0.2526
vn 0.6773 0.6837 0.2716
vn 0.5927 0.7550 0.2803
vn 0.5880 0.7583 0.2815
vn 0.4714 0.7462 0.4702
vn 0.4461 0.7303 0.5173
vn 0.4377 0.7293 0.5259
vn 0.3598 0.7297 0.5815
vn 0.3669 0.7310 0.5753
vn 0.3949 0.7547 0.5240
vn 0.6946 0.6946 0.1873
vn 0.6947 0.6943 0.1878
vn 0.6944 0.6959 0.1831
vn 0.6944 0.6962 0.1820
vn 0.5948 0.7734 0.2191
vn 0.3472 0.7413 0.5744
vn 0.3555 0.7342 0.5784
vn 0.5436 0.8208 0.1758
vn 0.5345 0.8267 0.1756
vn 0.5445 0.8233 0.1604
vn 0.5273 0.8237 0.2086
vn 0.4564 0.8318 0.3160
vn 0.3833 0.7998 0.4620
vn 0.3388 0.7630 0.5505
vn 0.3376 0.7623 0.5522
vn 0.3059 0.7333 0.6073
vn 0.2996 0.7327 0.6111
vn 0.2984 0.7390 0.6040
vn 0.2950 0.7405 0.6039
# 86 vertex normals

vt 0.7091 0.2077 0.0000
vt 0.6908 0.2225 0.0000
vt 0.7082 0.2069 0.0000
vt 0.6894 0.2220 0.0000
vt 0.6784 0.2340 0.0000
vt 0.6710 0.2419 0.0000
vt 0.6759 0.2343 0.0000
vt 0.6678 0.2429 0.0000
vt 0.6740 0.2344 0.0000
vt 0.7386 0.1797 0.0000
vt 0.7390 0.1796 0.0000
vt 0.7396 0.1800 0.0000
vt 0.7397 0.1799 0.0000
vt 0.6839 0.2204 0.0000
vt 0.7039 0.2047 0.0000
vt 0.6855 0.2208 0.0000
vt 0.7052 0.2052 0.0000
vt 0.6884 0.2216 0.0000
vt 0.6879 0.2215 0.0000
vt 0.6733 0.2344 0.0000
vt 0.7069 0.2059 0.0000
vt 0.7248 0.1927 0.0000
vt 0.7071 0.2060 0.0000
vt 0.7249 0.1929 0.0000
vt 0.7409 0.1808 0.0000
vt 0.7411 0.1806 0.0000
vt 0.7410 0.1809 0.0000
vt 0.7412 0.1808 0.0000
vt 0.7437 0.1831 0.0000
vt 0.7420 0.1846 0.0000
vt 0.7425 0.1822 0.0000
vt 0.7408 0.1835 0.0000
vt 0.7062 0.2056 0.0000
vt 0.7242 0.1923 0.0000
vt 0.7067 0.2058 0.0000
vt 0.7246 0.1926 0.0000
vt 0.7404 0.1805 0.0000
vt 0.7405 0.1803 0.0000
vt 0.7408 0.1807 0.0000
vt 0.7409 0.1805 0.0000
vt 0.7325 0.1836 0.0000
vt 0.7368 0.1804 0.0000
vt 0.7334 0.1844 0.0000
vt 0.7379 0.1812 0.0000
vt 0.7393 0.1822 0.0000
vt 0.7347 0.1855 0.0000
vt 0.7392 0.1821 0.0000
vt 0.7346 0.1854 0.0000
vt 0.7398 0.1826 0.0000
vt 0.7353 0.1860 0.0000
vt 0.7394 0.1823 0.0000
vt 0.7349 0.1856 0.0000
vt 0.7372 0.1880 0.0000
vt 0.7268 0.1948 0.0000
vt 0.7361 0.1869 0.0000
vt 0.7259 0.1939 0.0000
vt 0.7253 0.1932 0.0000
vt 0.7342 0.1851 0.0000
vt 0.7388 0.1818 0.0000
vt 0.7234 0.1918 0.0000
vt 0.7225 0.1911 0.0000
vt 0.6877 0.2214 0.0000
vt 0.6875 0.2213 0.0000
vt 0.6869 0.2212 0.0000
vt 0.6722 0.2341 0.0000
vt 0.6728 0.2343 0.0000
vt 0.6731 0.2344 0.0000
vt 0.7415 0.1813 0.0000
vt 0.7416 0.1811 0.0000
vt 0.7427 0.1820 0.0000
vt 0.7436 0.1828 0.0000
vt 0.7074 0.2063 0.0000
vt 0.6691 0.2331 0.0000
vt 0.6708 0.2336 0.0000
vt 0.6662 0.2472 0.0000
vt 0.6672 0.2468 0.0000
vt 0.6664 0.2472 0.0000
vt 0.6680 0.2455 0.0000
vt 0.6655 0.2465 0.0000
vt 0.6632 0.2443 0.0000
vt 0.6623 0.2437 0.0000
vt 0.6621 0.2435 0.0000
vt 0.6619 0.2433 0.0000
vt 0.6615 0.2430 0.0000
vt 0.6606 0.2422 0.0000
vt 0.6594 0.2412 0.0000
# 86 texture coords

g P712_181C_R_DaS_P712_181C_R
usemtl paint_whiteSG
s 12
f 1/1/1 2/2/2 3/3/3 
f 2/2/2 4/4/4 3/3/3 
f 5/5/5 6/6/6 7/7/7 
f 8/8/8 9/9/9 6/6/6 
f 9/9/9 7/7/7 6/6/6 
f 10/10/10 11/11/11 12/12/12 
f 11/11/11 13/13/13 12/12/12 
f 14/14/14 15/15/15 16/16/16 
f 15/15/15 17/17/17 16/16/16 
f 18/18/18 9/9/9 19/19/19 
f 9/9/9 20/20/20 19/19/19 
f 21/21/21 22/22/22 23/23/23 
f 22/22/22 24/24/24 23/23/23 
f 25/25/25 26/26/26 27/27/27 
f 26/26/26 28/28/28 27/27/27 
f 29/29/29 30/30/30 31/31/31 
f 30/30/30 32/32/32 31/31/31 
f 33/33/33 34/34/34 35/35/35 
f 34/34/34 36/36/36 35/35/35 
f 37/37/37 38/38/38 39/39/39 
f 38/38/38 40/40/40 39/39/39 
f 41/41/41 42/42/42 43/43/43 
f 42/42/42 44/44/44 43/43/43 
f 45/45/45 46/46/46 47/47/47 
f 46/46/46 48/48/48 47/47/47 
f 49/49/49 50/50/50 51/51/51 
f 50/50/50 52/52/52 51/51/51 
f 53/53/53 54/54/54 55/55/55 
f 54/54/54 56/56/56 55/55/55 
f 50/50/50 49/49/49 55/55/55 
f 49/49/49 32/32/32 55/55/55 
f 55/55/55 32/32/32 53/53/53 
f 32/32/32 30/30/30 53/53/53 
f 55/55/55 56/56/56 50/50/50 
f 56/56/56 57/57/57 50/50/50 
f 52/52/52 24/24/24 46/46/46 
f 24/24/24 22/22/22 46/46/46 
f 46/46/46 45/45/45 52/52/52 
f 45/45/45 51/51/51 52/52/52 
f 50/50/50 57/57/57 52/52/52 
f 57/57/57 24/24/24 52/52/52 
f 48/48/48 36/36/36 58/58/58 
f 36/36/36 34/34/34 58/58/58 
f 58/58/58 59/59/59 48/48/48 
f 59/59/59 47/47/47 48/48/48 
f 46/46/46 22/22/22 48/48/48 
f 22/22/22 36/36/36 48/48/48 
f 58/58/58 34/34/34 43/43/43 
f 34/34/34 60/60/60 43/43/43 
f 43/43/43 60/60/60 41/41/41 
f 60/60/60 61/61/61 41/41/41 
f 43/43/43 44/44/44 58/58/58 
f 44/44/44 59/59/59 58/58/58 
f 25/25/25 45/45/45 39/39/39 
f 45/45/45 47/47/47 39/39/39 
f 39/39/39 47/47/47 37/37/37 
f 47/47/47 59/59/59 37/37/37 
f 39/39/39 40/40/40 25/25/25 
f 40/40/40 26/26/26 25/25/25 
f 21/21/21 62/62/62 35/35/35 
f 62/62/62 63/63/63 35/35/35 
f 35/35/35 63/63/63 33/33/33 
f 63/63/63 64/64/64 33/33/33 
f 35/35/35 36/36/36 21/21/21 
f 36/36/36 22/22/22 21/21/21 
f 65/65/65 64/64/64 66/66/66 
f 64/64/64 63/63/63 66/66/66 
f 66/66/66 63/63/63 67/67/67 
f 63/63/63 62/62/62 67/67/67 
f 68/68/68 69/69/69 31/31/31 
f 69/69/69 70/70/70 31/31/31 
f 70/70/70 71/71/71 31/31/31 
f 71/71/71 29/29/29 31/31/31 
f 31/31/31 32/32/32 68/68/68 
f 32/32/32 49/49/49 68/68/68 
f 68/68/68 49/49/49 27/27/27 
f 49/49/49 51/51/51 27/27/27 
f 27/27/27 51/51/51 25/25/25 
f 51/51/51 45/45/45 25/25/25 
f 27/27/27 28/28/28 68/68/68 
f 28/28/28 69/69/69 68/68/68 
f 72/72/72 18/18/18 23/23/23 
f 18/18/18 19/19/19 23/23/23 
f 23/23/23 19/19/19 21/21/21 
f 19/19/19 62/62/62 21/21/21 
f 23/23/23 24/24/24 72/72/72 
f 24/24/24 57/57/57 72/72/72 
f 67/67/67 62/62/62 20/20/20 
f 62/62/62 19/19/19 20/20/20 
f 73/73/73 14/14/14 74/74/74 
f 14/14/14 16/16/16 74/74/74 
f 74/74/74 16/16/16 65/65/65 
f 16/16/16 64/64/64 65/65/65 
f 17/17/17 60/60/60 33/33/33 
f 60/60/60 34/34/34 33/33/33 
f 33/33/33 64/64/64 17/17/17 
f 64/64/64 16/16/16 17/17/17 
f 15/15/15 61/61/61 17/17/17 
f 61/61/61 60/60/60 17/17/17 
f 37/37/37 59/59/59 12/12/12 
f 59/59/59 44/44/44 12/12/12 
f 12/12/12 44/44/44 10/10/10 
f 44/44/44 42/42/42 10/10/10 
f 12/12/12 13/13/13 37/37/37 
f 13/13/13 38/38/38 37/37/37 
f 9/9/9 18/18/18 7/7/7 
f 18/18/18 4/4/4 7/7/7 
f 7/7/7 4/4/4 5/5/5 
f 4/4/4 2/2/2 5/5/5 
f 72/72/72 57/57/57 3/3/3 
f 57/57/57 56/56/56 3/3/3 
f 3/3/3 56/56/56 1/1/1 
f 56/56/56 54/54/54 1/1/1 
f 3/3/3 4/4/4 72/72/72 
f 4/4/4 18/18/18 72/72/72 
f 75/75/75 76/76/76 77/77/77 
f 78/78/78 76/76/76 79/79/79 
f 76/76/76 75/75/75 79/79/79 
f 79/79/79 8/8/8 78/78/78 
f 8/8/8 6/6/6 78/78/78 
f 80/80/80 8/8/8 79/79/79 
f 9/9/9 8/8/8 20/20/20 
f 8/8/8 80/80/80 20/20/20 
f 20/20/20 80/80/80 67/67/67 
f 80/80/80 81/81/81 67/67/67 
f 67/67/67 81/81/81 66/66/66 
f 81/81/81 82/82/82 66/66/66 
f 83/83/83 65/65/65 82/82/82 
f 65/65/65 66/66/66 82/82/82 
f 84/84/84 65/65/65 83/83/83 
f 85/85/85 74/74/74 84/84/84 
f 74/74/74 65/65/65 84/84/84 
f 86/86/86 73/73/73 85/85/85 
f 73/73/73 74/74/74 85/85/85 
# 134 faces

#
# object P712_181C_R_DaS_P712_181C_R_E
#

v  65.6238 103.4973 87.9258
v  79.4284 92.0572 91.2553
v  65.2517 102.9769 87.7522
v  79.0306 91.5469 91.1122
v  49.4412 115.0825 82.7310
v  49.7876 115.6275 82.8814
v  55.4880 110.5980 84.9094
v  55.8397 111.1331 85.0807
v  46.0506 117.8018 80.3707
v  46.4072 118.3496 80.4816
v  46.8293 117.0957 81.3601
v  47.1785 117.6443 81.4894
v  103.3933 70.6590 94.6230
v  104.6691 69.3981 94.5910
v  102.9331 70.1964 94.5046
v  104.2091 68.9358 94.4710
v  92.4482 80.9053 93.9053
v  99.8780 74.1335 94.7111
v  92.0265 80.4070 93.7891
v  99.4308 73.6574 94.5982
v  45.5032 118.3663 79.3311
v  45.8683 118.9100 79.4350
v  102.9462 68.7089 98.5468
v  103.3053 69.2335 99.5058
v  102.6985 68.6458 98.7821
v  102.9417 69.2397 100.3830
v  103.9002 69.2882 97.8846
v  103.8498 69.2842 98.0311
v  103.4682 68.8541 97.7430
v  103.4220 68.8526 97.8695
v  103.7970 69.2805 98.1782
v  103.6471 69.2671 98.5836
v  103.3708 68.8498 98.0101
v  103.2216 68.8374 98.4111
v  103.9505 68.8309 96.0473
v  104.3874 69.2682 96.1626
v  103.6104 68.8487 97.2607
v  104.0468 69.2853 97.3808
v  104.6766 69.2885 94.9820
v  104.2399 68.8509 94.8675
v  77.2938 92.1131 94.8872
v  62.2855 103.8083 91.3439
v  77.2938 92.1132 94.2712
v  62.2855 103.8083 90.7278
v  101.5594 69.9941 99.7753
v  101.5594 70.6134 100.3913
v  98.3466 73.4883 99.0510
v  98.3466 74.1076 99.6671
v  90.9652 80.4303 97.3786
v  90.9652 80.9127 97.9946
v  50.8937 112.0980 88.3634
v  50.8937 112.0980 87.7474
v  43.4739 116.4248 86.6821
v  43.5293 116.3924 86.0786
v  102.7253 68.9730 100.0380
v  102.7253 69.3452 100.6540
# 56 vertices

vn 0.3203 0.0858 -0.9434
vn 0.2675 0.0621 -0.9616
vn 0.3199 0.0852 -0.9436
vn 0.2668 0.0611 -0.9618
vn 0.4025 -0.0053 -0.9154
vn 0.4040 -0.0034 -0.9148
vn 0.3544 0.0647 -0.9329
vn 0.3548 0.0653 -0.9326
vn 0.6925 -0.3235 -0.6448
vn 0.6973 -0.3196 -0.6416
vn 0.5555 -0.1662 -0.8147
vn 0.5592 -0.1622 -0.8130
vn 0.1125 0.1395 -0.9838
vn 0.1139 0.1412 -0.9834
vn 0.1128 0.1401 -0.9837
vn 0.1141 0.1417 -0.9833
vn 0.2038 0.0562 -0.9774
vn 0.1399 0.1025 -0.9848
vn 0.2033 0.0557 -0.9775
vn 0.1400 0.1027 -0.9848
vn 0.7219 -0.3733 -0.5827
vn 0.7259 -0.3702 -0.5797
vn 0.5374 -0.7956 0.2796
vn 0.5437 -0.8093 0.2220
vn 0.5006 -0.8262 0.2587
vn 0.5718 -0.7937 0.2076
vn 0.6605 -0.7232 0.2018
vn 0.6547 -0.7254 0.2127
vn 0.6563 -0.7239 0.2125
vn 0.6483 -0.7276 0.2242
vn 0.6509 -0.7276 0.2166
vn 0.6239 -0.7478 0.2271
vn 0.6487 -0.7286 0.2199
vn 0.5917 -0.7263 0.3498
vn 0.6729 -0.7186 0.1759
vn 0.6728 -0.7187 0.1757
vn 0.6650 -0.7195 0.2002
vn 0.6644 -0.7207 0.1981
vn 0.7107 -0.7031 -0.0235
vn 0.7114 -0.7023 -0.0276
vn 0.7200 -0.6650 -0.1983
vn 0.7195 -0.6652 -0.1996
vn -0.6253 -0.7804 -0.0001
vn -0.6033 -0.7975 0.0000
vn -0.6242 -0.7812 0.0062
vn -0.6000 -0.8000 0.0000
vn -0.6775 -0.5377 0.5019
vn -0.6797 -0.5172 0.5200
vn -0.6635 -0.5276 0.5304
vn -0.6530 -0.5357 0.5354
vn -0.6444 -0.6006 0.4734
vn -0.6415 -0.6071 0.4689
vn -0.5522 -0.8337 -0.0000
vn -0.5413 -0.8408 -0.0000
vn -0.5038 -0.8638 0.0001
vn 0.2352 -0.9153 0.3269
vn -0.6641 -0.6121 0.4293
vn 0.2245 -0.8340 0.5039
# 58 vertex normals

vt 0.6908 0.2225 0.0000
vt 0.7091 0.2077 0.0000
vt 0.6906 0.2235 0.0000
vt 0.7089 0.2087 0.0000
vt 0.6709 0.2428 0.0000
vt 0.6710 0.2419 0.0000
vt 0.6782 0.2350 0.0000
vt 0.6784 0.2340 0.0000
vt 0.6668 0.2474 0.0000
vt 0.6672 0.2468 0.0000
vt 0.6678 0.2464 0.0000
vt 0.6680 0.2455 0.0000
vt 0.7420 0.1846 0.0000
vt 0.7437 0.1831 0.0000
vt 0.7417 0.1856 0.0000
vt 0.7432 0.1838 0.0000
vt 0.7268 0.1948 0.0000
vt 0.7372 0.1880 0.0000
vt 0.7266 0.1959 0.0000
vt 0.7369 0.1890 0.0000
vt 0.6659 0.2476 0.0000
vt 0.6664 0.2472 0.0000
vt 0.7392 0.1800 0.0000
vt 0.7397 0.1799 0.0000
vt 0.7388 0.1800 0.0000
vt 0.7390 0.1796 0.0000
vt 0.7412 0.1808 0.0000
vt 0.7411 0.1806 0.0000
vt 0.7404 0.1807 0.0000
vt 0.7403 0.1806 0.0000
vt 0.7409 0.1805 0.0000
vt 0.7405 0.1803 0.0000
vt 0.7402 0.1805 0.0000
vt 0.7397 0.1801 0.0000
vt 0.7419 0.1821 0.0000
vt 0.7427 0.1820 0.0000
vt 0.7409 0.1811 0.0000
vt 0.7416 0.1811 0.0000
vt 0.7436 0.1828 0.0000
vt 0.7429 0.1831 0.0000
vt 0.7039 0.2047 0.0000
vt 0.6839 0.2204 0.0000
vt 0.7036 0.2041 0.0000
vt 0.6836 0.2197 0.0000
vt 0.7365 0.1796 0.0000
vt 0.7368 0.1804 0.0000
vt 0.7320 0.1827 0.0000
vt 0.7325 0.1836 0.0000
vt 0.7221 0.1902 0.0000
vt 0.7225 0.1911 0.0000
vt 0.6691 0.2331 0.0000
vt 0.6688 0.2324 0.0000
vt 0.6594 0.2412 0.0000
vt 0.6591 0.2403 0.0000
vt 0.7386 0.1796 0.0000
vt 0.7386 0.1797 0.0000
# 56 texture coords

g P712_181C_R_DaS_P712_181C_R_E
usemtl paint_whiteSG
s 1
f 87/87/87 88/88/88 89/89/89 
f 88/88/88 90/90/90 89/89/89 
f 91/91/91 92/92/92 93/93/93 
f 92/92/92 94/94/94 93/93/93 
f 95/95/95 96/96/96 97/97/97 
f 96/96/96 98/98/98 97/97/97 
f 99/99/99 100/100/100 101/101/101 
f 100/100/100 102/102/102 101/101/101 
f 103/103/103 104/104/104 105/105/105 
f 104/104/104 106/106/106 105/105/105 
f 104/104/104 99/99/99 106/106/106 
f 99/99/99 101/101/101 106/106/106 
f 107/107/107 108/108/108 95/95/95 
f 108/108/108 96/96/96 95/95/95 
f 92/92/92 91/91/91 98/98/98 
f 91/91/91 97/97/97 98/98/98 
f 94/94/94 87/87/87 93/93/93 
f 87/87/87 89/89/89 93/93/93 
f 88/88/88 103/103/103 90/90/90 
f 103/103/103 105/105/105 90/90/90 
s 6
f 109/109/109 110/110/110 111/111/111 
f 110/110/110 112/112/112 111/111/111 
f 113/113/113 114/114/114 115/115/115 
f 114/114/114 116/116/116 115/115/115 
f 117/117/117 118/118/118 119/119/119 
f 118/118/118 120/120/120 119/119/119 
f 114/114/114 117/117/117 116/116/116 
f 117/117/117 119/119/119 116/116/116 
f 121/121/121 122/122/122 123/123/123 
f 122/122/122 124/124/124 123/123/123 
f 125/125/125 122/122/122 126/126/126 
f 122/122/122 121/121/121 126/126/126 
f 123/123/123 124/124/124 115/115/115 
f 124/124/124 113/113/113 115/115/115 
f 120/120/120 118/118/118 109/109/109 
f 118/118/118 110/110/110 109/109/109 
f 102/102/127 100/100/128 126/126/126 
f 100/100/128 125/125/125 126/126/126 
s 10
f 127/127/129 128/128/130 129/129/131 
f 128/128/130 130/130/132 129/129/131 
f 131/131/133 132/132/134 133/133/135 
f 132/132/134 134/134/136 133/133/135 
f 133/133/135 134/134/136 135/135/137 
f 134/134/136 136/136/138 135/135/137 
f 128/128/130 137/137/139 130/130/132 
f 137/137/139 138/138/140 130/130/132 
f 137/137/139 139/139/141 138/138/140 
f 139/139/141 140/140/141 138/138/140 
f 135/135/137 136/136/138 129/129/131 
f 136/136/138 127/127/129 129/129/131 
f 141/141/142 142/142/143 131/131/133 
f 142/142/143 132/132/134 131/131/133 
s 6
f 111/111/111 112/112/112 141/141/142 
s off
f 112/112/144 142/142/144 141/141/144 
# 54 faces

