# 3ds Max Wavefront OBJ Exporter v0.97b - (c)2007 guruware
# File Created: 04.12.2015 17:43:59

mtllib P712_182C_C.mtl

#
# object P712_182C_C_D_P712_182C_C
#

v  111.8208 62.5095 89.6399
v  110.7149 62.8038 92.2711
v  112.2851 61.7281 90.2183
v  112.2999 61.8688 92.8239
v  125.7278 62.8633 0.0000
v  125.4623 62.8756 13.6436
v  126.5046 61.9950 0.0000
v  126.1690 62.0119 13.6876
v  124.4137 62.8699 27.4959
v  124.9885 62.0146 27.6010
v  122.3279 62.8010 41.8418
v  122.7890 61.9552 42.0001
v  119.8005 62.7174 55.5311
v  120.1932 61.8803 55.7126
v  117.4292 62.6721 67.3750
v  117.8241 61.8360 67.5665
v  115.4436 62.6214 76.5366
v  115.8662 61.7780 76.7944
v  114.0733 62.5188 82.2008
v  114.5035 61.6623 82.6295
v  112.9783 62.4512 86.0252
v  113.4164 61.6064 86.5960
v  115.8662 61.7780 76.7946
v  116.7268 62.9112 76.7946
v  117.8241 61.8360 67.5666
v  118.6847 62.9692 67.5666
v  120.1932 61.8803 55.7128
v  121.0539 63.0133 55.7128
v  122.7890 61.9552 42.0002
v  123.6495 63.0884 42.0002
v  125.8491 63.1477 27.6010
v  127.0296 63.1450 13.6877
v  113.4164 61.6063 86.5962
v  114.2769 62.7395 86.5962
v  114.5035 61.6623 82.6296
v  115.3641 62.7954 82.6296
v  112.2997 61.8688 92.8241
v  112.2990 63.0020 92.8241
v  112.2851 61.7281 90.2186
v  113.1457 62.8613 90.2184
v  119.6246 62.7047 82.8840
v  116.8990 62.6868 87.0806
v  119.6254 61.5715 82.8842
v  116.8999 61.5538 87.0806
v  125.4611 61.6422 67.5233
v  125.4603 62.7752 67.5233
v  122.7877 61.6026 76.8039
v  122.5405 62.7358 76.8039
v  130.3900 61.6080 42.0004
v  130.3891 62.7412 42.0004
v  128.1542 61.6554 55.7019
v  128.1533 62.7886 55.7019
v  133.5579 62.6657 13.6877
v  132.1851 62.6837 27.6010
v  133.5586 61.5326 13.6878
v  132.1859 61.5505 27.6010
v  134.1386 62.6668 0.0000
v  134.1394 61.5337 0.0000
v  121.4217 61.5878 79.6709
v  115.7910 61.5539 88.7948
v  114.5507 62.6873 90.7106
v  114.5515 61.5542 90.7104
v  127.3651 63.1282 0.0000
v  113.1405 61.5856 92.6984
v  113.1282 62.7188 92.8461
v  112.7832 61.6635 92.9097
v  112.7710 62.7966 93.0575
v  112.5358 61.7606 92.9387
v  112.5237 62.8937 93.0864
v  112.3724 61.8331 92.9243
v  112.3717 62.9662 93.0126
v  118.1884 61.7154 76.7978
v  120.3740 61.5973 67.5556
v  121.0539 63.0135 55.7128
v  122.8210 61.6318 55.7100
v  125.3439 61.6893 42.0002
v  125.8490 63.1477 27.6010
v  127.4633 61.7345 27.6010
v  128.6997 61.7325 13.6877
v  114.9549 62.5656 86.7201
v  114.2771 62.7395 86.5962
v  113.5002 62.8306 90.3327
v  113.1457 62.8613 90.2186
v  116.4501 62.1160 82.6972
v  119.6459 61.0955 76.8006
v  121.0952 61.6277 76.8027
v  122.0655 60.8870 67.5447
v  123.7617 61.5001 67.5340
v  124.5919 60.9128 55.7073
v  126.3707 61.5193 55.7047
v  127.0336 60.9463 42.0002
v  128.7137 61.5157 42.0002
v  129.0624 60.9699 27.6010
v  130.6313 61.5025 27.6010
v  130.3508 60.9664 13.6877
v  131.9638 61.4929 13.6877
v  115.6219 62.4719 86.8428
v  116.2661 62.5392 86.9623
v  117.5254 61.7650 82.7630
v  118.5802 62.0706 82.8245
v  114.2026 62.7434 90.5786
v  114.5506 62.6873 90.7106
v  113.8530 62.7933 90.4512
v  122.5406 62.7358 76.8039
v  133.5580 62.6657 13.6877
v  132.4839 61.4890 0.0000
v  130.8097 60.9578 0.0000
v  130.3891 62.7414 42.0002
v  128.1533 62.7885 55.7019
v  129.0970 61.7197 0.0000
v  112.5238 62.8938 93.0864
v  111.8208 62.5095 -89.6399
v  112.2851 61.7281 -90.2183
v  110.7149 62.8038 -92.2711
v  112.2999 61.8688 -92.8239
v  125.4623 62.8756 -13.6436
v  126.1690 62.0119 -13.6876
v  124.4137 62.8699 -27.4958
v  124.9885 62.0146 -27.6010
v  122.3279 62.8010 -41.8418
v  122.7890 61.9552 -42.0001
v  119.8005 62.7174 -55.5311
v  120.1932 61.8803 -55.7126
v  117.4292 62.6721 -67.3750
v  117.8241 61.8360 -67.5665
v  115.4436 62.6214 -76.5366
v  115.8662 61.7780 -76.7944
v  114.0733 62.5188 -82.2007
v  114.5035 61.6623 -82.6295
v  112.9783 62.4512 -86.0252
v  113.4164 61.6064 -86.5960
v  115.8662 61.7780 -76.7946
v  117.8241 61.8360 -67.5666
v  116.7268 62.9112 -76.7946
v  118.6847 62.9692 -67.5666
v  120.1932 61.8803 -55.7128
v  122.7890 61.9552 -42.0002
v  121.0539 63.0133 -55.7128
v  123.6495 63.0884 -42.0002
v  125.8491 63.1477 -27.6010
v  127.0296 63.1450 -13.6877
v  113.4164 61.6063 -86.5962
v  114.5035 61.6623 -82.6296
v  114.2769 62.7395 -86.5962
v  115.3641 62.7954 -82.6296
v  112.2997 61.8688 -92.8241
v  112.2851 61.7281 -90.2186
v  112.2990 63.0020 -92.8241
v  113.1457 62.8613 -90.2184
v  119.6246 62.7047 -82.8840
v  119.6254 61.5715 -82.8842
v  116.8990 62.6868 -87.0806
v  116.8999 61.5538 -87.0806
v  125.4611 61.6422 -67.5233
v  122.7877 61.6026 -76.8039
v  125.4603 62.7752 -67.5233
v  122.5405 62.7358 -76.8039
v  130.3900 61.6080 -42.0004
v  128.1542 61.6554 -55.7019
v  130.3891 62.7412 -42.0004
v  128.1533 62.7886 -55.7019
v  133.5579 62.6657 -13.6877
v  133.5586 61.5326 -13.6878
v  132.1851 62.6837 -27.6010
v  132.1859 61.5505 -27.6010
v  121.4217 61.5878 -79.6709
v  115.7910 61.5539 -88.7948
v  114.5507 62.6873 -90.7106
v  114.5515 61.5542 -90.7104
v  113.1405 61.5856 -92.6984
v  113.1282 62.7188 -92.8461
v  112.7832 61.6635 -92.9097
v  112.7710 62.7966 -93.0575
v  112.5358 61.7606 -92.9387
v  112.5237 62.8937 -93.0864
v  112.3724 61.8331 -92.9243
v  112.3717 62.9662 -93.0126
v  118.1884 61.7154 -76.7978
v  120.3740 61.5973 -67.5556
v  121.0539 63.0135 -55.7128
v  122.8210 61.6318 -55.7100
v  125.3439 61.6893 -42.0002
v  125.8490 63.1477 -27.6010
v  127.4633 61.7345 -27.6010
v  128.6997 61.7325 -13.6877
v  114.9549 62.5656 -86.7201
v  113.5002 62.8306 -90.3327
v  114.2771 62.7395 -86.5962
v  113.1457 62.8613 -90.2186
v  116.4501 62.1160 -82.6972
v  119.6459 61.0955 -76.8006
v  122.0655 60.8870 -67.5447
v  121.0952 61.6277 -76.8027
v  123.7617 61.5001 -67.5340
v  124.5919 60.9128 -55.7073
v  127.0336 60.9463 -42.0002
v  126.3707 61.5193 -55.7047
v  128.7137 61.5157 -42.0002
v  129.0624 60.9699 -27.6010
v  130.3508 60.9664 -13.6877
v  130.6313 61.5025 -27.6010
v  131.9638 61.4929 -13.6877
v  115.6219 62.4719 -86.8428
v  117.5254 61.7650 -82.7630
v  116.2661 62.5392 -86.9623
v  118.5802 62.0706 -82.8245
v  114.2026 62.7434 -90.5786
v  114.5506 62.6873 -90.7106
v  113.8530 62.7933 -90.4512
v  122.5406 62.7358 -76.8039
v  133.5580 62.6657 -13.6877
v  130.3891 62.7414 -42.0002
v  128.1533 62.7885 -55.7019
v  112.5238 62.8938 -93.0864
# 214 vertices

vn 0.7574 0.6117 0.2286
vn 0.5670 0.8237 0.0021
vn 0.7004 0.6969 0.1540
vn 0.5201 0.8527 -0.0490
vn 0.7453 0.6668 0.0000
vn 0.7717 0.6349 0.0383
vn 0.7467 0.6651 -0.0000
vn 0.7737 0.6324 0.0388
vn 0.8194 0.5653 0.0951
vn 0.8215 0.5619 0.0970
vn 0.8559 0.4962 0.1456
vn 0.8571 0.4936 0.1476
vn 0.8763 0.4499 0.1720
vn 0.8767 0.4489 0.1728
vn 0.8723 0.4536 0.1823
vn 0.8716 0.4548 0.1831
vn 0.8526 0.4851 0.1944
vn 0.8503 0.4881 0.1968
vn 0.8258 0.5207 0.2166
vn 0.8203 0.5271 0.2221
vn 0.7924 0.5638 0.2330
vn 0.7864 0.5719 0.2335
vn -0.7852 0.5964 -0.1666
vn -0.7853 0.5964 -0.1659
vn -0.7863 0.5971 -0.1588
vn -0.7864 0.5972 -0.1582
vn -0.7873 0.5980 -0.1505
vn -0.7874 0.5980 -0.1498
vn -0.7893 0.5994 -0.1327
vn -0.7895 0.5996 -0.1309
vn -0.7928 0.6021 -0.0946
vn -0.7930 0.6022 -0.0923
vn -0.7956 0.6042 -0.0446
vn -0.7956 0.6043 -0.0436
vn -0.7742 0.5879 -0.2344
vn -0.7753 0.5887 -0.2288
vn -0.7823 0.5942 -0.1869
vn -0.7828 0.5945 -0.1835
vn -0.9994 -0.0028 0.0358
vn -0.9993 -0.0007 0.0371
vn -1.0000 -0.0007 0.0056
vn -0.7646 0.5806 -0.2798
vn -0.7674 0.5828 -0.2673
vn -0.7674 0.5827 -0.2675
vn 0.8591 0.0293 0.5110
vn 0.8390 0.0007 0.5441
vn 0.8536 0.0006 0.5210
vn 0.8389 0.0007 0.5442
vn 0.9691 0.0007 0.2465
vn 0.9689 0.0077 0.2473
vn 0.9266 0.1909 0.3239
vn 0.9204 0.2016 0.3350
vn 0.9899 0.0008 0.1420
vn 0.9899 0.0008 0.1421
vn 0.9819 0.0008 0.1896
vn 0.9975 0.0007 0.0706
vn 0.9938 0.0007 0.1112
vn 1.0000 0.0006 -0.0000
vn 0.8837 0.1881 0.4286
vn 0.8396 0.0007 0.5432
vn 0.8307 -0.0080 0.5567
vn 0.8274 0.0005 0.5617
vn -0.7964 0.6048 -0.0000
vn 0.7975 -0.0547 0.6008
vn 0.7845 -0.0718 0.6159
vn 0.3778 -0.1157 0.9186
vn 0.2948 -0.1204 0.9479
vn 0.0066 -0.1292 0.9916
vn -0.2096 -0.1030 0.9723
vn -0.4200 -0.1049 0.9014
vn -0.7970 -0.0300 0.6033
vn 0.6233 0.7701 0.1359
vn 0.5264 0.8440 0.1033
vn 0.6255 0.7689 0.1328
vn 0.5223 0.8456 0.1102
vn 0.6121 0.7810 0.1243
vn 0.5090 0.8545 0.1036
vn 0.6318 0.7672 0.1103
vn 0.5318 0.8420 0.0910
vn 0.6556 0.7510 0.0789
vn 0.5571 0.8278 0.0655
vn 0.6460 0.7625 0.0367
vn 0.5463 0.8370 0.0313
vn 0.2209 0.9752 0.0159
vn 0.2368 0.9702 0.0516
vn 0.1106 0.9938 -0.0080
vn 0.0907 0.9958 -0.0132
vn 0.5143 0.8491 0.1206
vn 0.4381 0.8961 0.0709
vn -0.3379 0.9281 -0.1564
vn -0.4788 0.8575 -0.1885
vn -0.3392 0.9363 -0.0906
vn -0.4818 0.8673 -0.1250
vn -0.3229 0.9443 -0.0626
vn -0.4655 0.8803 -0.0912
vn -0.3207 0.9459 -0.0498
vn -0.4716 0.8789 -0.0717
vn -0.3212 0.9463 -0.0374
vn -0.4815 0.8747 -0.0551
vn -0.3107 0.9503 -0.0211
vn -0.4703 0.8819 -0.0325
vn 0.0527 0.9945 -0.0905
vn -0.1412 0.9755 -0.1687
vn 0.0429 0.9934 -0.1062
vn -0.3811 0.8891 -0.2535
vn 0.1297 0.9913 0.0220
vn 0.1111 0.9934 0.0273
vn -0.2328 0.9517 -0.2003
vn 0.1256 0.9921 0.0012
vn -0.5009 0.8191 -0.2796
vn -0.5938 0.7763 -0.2117
vn -0.5915 0.8053 -0.0406
vn -0.4602 0.8878 -0.0000
vn -0.5799 0.8147 -0.0000
vn -0.3030 0.9530 -0.0000
vn -0.6032 0.7947 -0.0681
vn -0.5888 0.8035 -0.0879
vn -0.5770 0.8091 -0.1119
vn -0.5928 0.7913 -0.1497
vn 0.3901 0.9183 0.0672
vn 0.4201 0.9071 0.0247
vn 0.5319 0.8468 -0.0000
vn 0.4065 0.9137 -0.0000
vn 0.6324 0.7747 -0.0000
vn 0.4304 0.9013 0.0496
vn 0.4027 0.9129 0.0672
vn 0.3763 0.9233 0.0767
vn 0.3857 0.9190 0.0817
vn 0.3440 0.9274 0.1468
vn 0.2813 0.9488 0.1435
vn 0.3568 0.9260 0.1234
vn 0.3544 0.9295 0.1022
vn 0.2616 0.9633 0.0598
vn 0.7574 0.6117 -0.2286
vn 0.7004 0.6969 -0.1540
vn 0.5670 0.8237 -0.0021
vn 0.5201 0.8527 0.0490
vn 0.7717 0.6349 -0.0383
vn 0.7737 0.6324 -0.0388
vn 0.8194 0.5653 -0.0951
vn 0.8215 0.5619 -0.0970
vn 0.8559 0.4962 -0.1456
vn 0.8571 0.4936 -0.1476
vn 0.8764 0.4499 -0.1720
vn 0.8767 0.4489 -0.1728
vn 0.8723 0.4537 -0.1823
vn 0.8716 0.4548 -0.1831
vn 0.8526 0.4851 -0.1944
vn 0.8503 0.4881 -0.1967
vn 0.8258 0.5207 -0.2166
vn 0.8203 0.5271 -0.2221
vn 0.7924 0.5638 -0.2330
vn 0.7864 0.5719 -0.2335
vn -0.7852 0.5964 0.1666
vn -0.7863 0.5971 0.1588
vn -0.7853 0.5964 0.1659
vn -0.7863 0.5972 0.1582
vn -0.7873 0.5980 0.1505
vn -0.7893 0.5994 0.1327
vn -0.7874 0.5980 0.1498
vn -0.7895 0.5996 0.1309
vn -0.7928 0.6021 0.0946
vn -0.7956 0.6042 0.0446
vn -0.7930 0.6022 0.0923
vn -0.7956 0.6043 0.0436
vn -0.7742 0.5879 0.2344
vn -0.7823 0.5942 0.1869
vn -0.7753 0.5887 0.2288
vn -0.7828 0.5945 0.1835
vn -0.9994 -0.0028 -0.0358
vn -1.0000 -0.0007 -0.0056
vn -0.9993 -0.0007 -0.0371
vn -0.7646 0.5806 0.2798
vn -0.7674 0.5827 0.2675
vn -0.7674 0.5828 0.2673
vn 0.8591 0.0293 -0.5110
vn 0.8536 0.0006 -0.5210
vn 0.8390 0.0007 -0.5441
vn 0.8389 0.0007 -0.5442
vn 0.9691 0.0007 -0.2465
vn 0.9266 0.1909 -0.3239
vn 0.9689 0.0077 -0.2473
vn 0.9204 0.2016 -0.3350
vn 0.9899 0.0008 -0.1420
vn 0.9819 0.0008 -0.1896
vn 0.9899 0.0008 -0.1421
vn 0.9975 0.0007 -0.0706
vn 0.9938 0.0007 -0.1112
vn 0.8837 0.1881 -0.4286
vn 0.8396 0.0007 -0.5432
vn 0.8307 -0.0080 -0.5567
vn 0.8274 0.0005 -0.5617
vn 0.7975 -0.0547 -0.6008
vn 0.7845 -0.0718 -0.6159
vn 0.3778 -0.1157 -0.9186
vn 0.2948 -0.1204 -0.9479
vn 0.0065 -0.1292 -0.9916
vn -0.2096 -0.1030 -0.9723
vn -0.4200 -0.1049 -0.9014
vn -0.7970 -0.0300 -0.6033
vn 0.6233 0.7701 -0.1359
vn 0.6255 0.7689 -0.1328
vn 0.5264 0.8440 -0.1033
vn 0.5223 0.8456 -0.1102
vn 0.6121 0.7810 -0.1243
vn 0.6318 0.7672 -0.1103
vn 0.5090 0.8545 -0.1036
vn 0.5318 0.8420 -0.0910
vn 0.6556 0.7510 -0.0789
vn 0.6460 0.7625 -0.0367
vn 0.5571 0.8278 -0.0655
vn 0.5463 0.8370 -0.0313
vn 0.2209 0.9752 -0.0159
vn 0.1106 0.9938 0.0080
vn 0.2368 0.9702 -0.0516
vn 0.0907 0.9958 0.0132
vn 0.5143 0.8491 -0.1206
vn 0.4381 0.8961 -0.0709
vn -0.3379 0.9281 0.1564
vn -0.3392 0.9363 0.0906
vn -0.4788 0.8575 0.1885
vn -0.4818 0.8673 0.1250
vn -0.3229 0.9444 0.0626
vn -0.3207 0.9459 0.0498
vn -0.4655 0.8803 0.0912
vn -0.4716 0.8789 0.0717
vn -0.3212 0.9463 0.0374
vn -0.3107 0.9503 0.0211
vn -0.4815 0.8747 0.0551
vn -0.4703 0.8819 0.0325
vn 0.0527 0.9945 0.0905
vn 0.0429 0.9934 0.1062
vn -0.1412 0.9755 0.1687
vn -0.3811 0.8891 0.2535
vn 0.1297 0.9913 -0.0220
vn 0.1111 0.9934 -0.0273
vn -0.2328 0.9517 0.2003
vn 0.1256 0.9921 -0.0012
vn -0.5009 0.8191 0.2796
vn -0.5938 0.7763 0.2117
vn -0.5915 0.8053 0.0406
vn -0.6032 0.7947 0.0681
vn -0.5888 0.8035 0.0879
vn -0.5770 0.8091 0.1119
vn -0.5928 0.7913 0.1497
vn 0.3901 0.9183 -0.0672
vn 0.4201 0.9071 -0.0247
vn 0.4304 0.9013 -0.0496
vn 0.4027 0.9129 -0.0672
vn 0.3763 0.9233 -0.0767
vn 0.3857 0.9190 -0.0817
vn 0.3440 0.9274 -0.1468
vn 0.2813 0.9488 -0.1436
vn 0.3568 0.9260 -0.1234
vn 0.3544 0.9295 -0.1022
vn 0.2616 0.9633 -0.0599
# 256 vertex normals

g P712_182C_C_D_P712_182C_C
usemtl diffuse_black_plasticSG
s 1
f 1//1 2//2 3//3 
f 2//2 4//4 3//3 
f 5//5 6//6 7//7 
f 6//6 8//8 7//7 
f 6//6 9//9 8//8 
f 9//9 10//10 8//8 
f 9//9 11//11 10//10 
f 11//11 12//12 10//10 
f 11//11 13//13 12//12 
f 13//13 14//14 12//12 
f 13//13 15//15 14//14 
f 15//15 16//16 14//14 
f 15//15 17//17 16//16 
f 17//17 18//18 16//16 
f 17//17 19//19 18//18 
f 19//19 20//20 18//18 
f 19//19 21//21 20//20 
f 21//21 22//22 20//20 
f 3//3 22//22 1//1 
f 22//22 21//21 1//1 
s 3
f 23//23 24//24 25//25 
f 24//24 26//26 25//25 
f 27//27 28//28 29//29 
f 28//28 30//30 29//29 
f 10//31 31//32 8//33 
f 31//32 32//34 8//33 
f 33//35 34//36 35//37 
f 34//36 36//38 35//37 
s 7
f 37//39 38//40 39//41 
s 3
f 38//42 40//43 39//44 
s 7
f 41//45 42//46 43//47 
f 42//46 44//48 43//47 
f 45//49 46//50 47//51 
f 46//50 48//52 47//51 
f 49//53 50//54 51//55 
f 50//54 52//55 51//55 
f 53//56 54//57 55//56 
f 54//57 56//57 55//56 
f 57//58 53//56 58//58 
f 53//56 55//56 58//58 
f 56//57 54//57 49//53 
f 54//57 50//54 49//53 
f 52//55 46//50 51//55 
f 46//50 45//49 51//55 
f 47//51 48//52 59//59 
f 48//52 41//45 59//59 
f 59//59 41//45 43//47 
f 44//48 42//46 60//60 
f 42//46 61//61 60//60 
f 60//60 61//61 62//62 
s 3
f 39//44 40//43 33//35 
f 40//43 34//36 33//35 
f 35//37 36//38 23//23 
f 36//38 24//24 23//23 
f 8//33 32//34 7//63 
f 32//34 63//63 7//63 
f 29//29 30//30 10//31 
f 30//30 31//32 10//31 
f 25//25 26//26 27//27 
f 26//26 28//28 27//27 
s 7
f 62//62 61//61 64//64 
f 61//61 65//65 64//64 
f 64//64 65//65 66//66 
f 65//65 67//67 66//66 
f 66//66 67//67 68//68 
f 67//67 69//69 68//68 
f 68//68 69//69 70//70 
f 69//69 71//71 70//70 
f 70//70 71//71 37//39 
f 71//71 38//40 37//39 
s 13
f 24//72 72//73 26//74 
f 72//73 73//75 26//74 
f 74//76 75//77 30//78 
f 75//77 76//79 30//78 
f 77//80 78//81 32//82 
f 78//81 79//83 32//82 
f 80//84 81//85 82//86 
f 81//85 83//87 82//86 
f 81//85 80//84 36//88 
f 80//84 84//89 36//88 
f 85//90 86//91 87//92 
f 86//91 88//93 87//92 
f 89//94 90//95 91//96 
f 90//95 92//97 91//96 
f 93//98 94//99 95//100 
f 94//99 96//101 95//100 
f 97//102 98//103 99//104 
f 98//103 100//105 99//104 
f 101//106 102//107 98//103 
f 102//107 42//108 98//103 
f 98//103 97//102 101//106 
f 97//102 103//109 101//106 
f 100//105 41//110 86//91 
f 41//110 104//111 86//91 
f 86//91 85//90 100//105 
f 85//90 99//104 100//105 
f 98//103 42//108 100//105 
f 42//108 41//110 100//105 
f 96//101 105//112 106//113 
f 105//112 57//114 106//113 
f 106//113 107//115 96//101 
f 107//115 95//100 96//101 
f 94//99 54//116 96//101 
f 54//116 105//112 96//101 
f 92//97 108//117 94//99 
f 108//117 54//116 94//99 
f 94//99 93//98 92//97 
f 93//98 91//96 92//97 
f 90//95 109//118 92//97 
f 109//118 108//117 92//97 
f 88//93 46//119 90//95 
f 46//119 109//118 90//95 
f 90//95 89//94 88//93 
f 89//94 87//92 88//93 
f 86//91 104//111 88//93 
f 104//111 46//119 88//93 
f 84//89 99//104 72//73 
f 99//104 85//120 72//73 
f 72//73 24//72 84//89 
f 24//72 36//88 84//89 
f 80//84 97//102 84//89 
f 97//102 99//104 84//89 
f 82//86 103//109 80//84 
f 103//109 97//102 80//84 
f 79//83 95//121 110//122 
f 95//121 107//123 110//122 
f 110//122 63//124 79//83 
f 63//124 32//82 79//83 
f 78//81 93//125 79//83 
f 93//125 95//121 79//83 
f 76//79 91//126 78//81 
f 91//126 93//125 78//81 
f 78//81 77//80 76//79 
f 77//80 30//78 76//79 
f 75//77 89//127 76//79 
f 89//127 91//126 76//79 
f 73//75 87//128 75//77 
f 87//128 89//127 75//77 
f 75//77 74//76 73//75 
f 74//76 26//74 73//75 
f 72//73 85//120 73//75 
f 85//120 87//128 73//75 
f 67//129 65//130 101//106 
f 65//130 102//107 101//106 
f 111//131 67//129 103//109 
f 67//129 101//106 103//109 
f 71//132 111//131 82//86 
f 111//131 103//109 82//86 
f 83//87 38//133 82//86 
f 38//133 71//132 82//86 
s 1
f 112//134 113//135 114//136 
f 114//136 113//135 115//137 
f 5//5 7//7 116//138 
f 116//138 7//7 117//139 
f 116//138 117//139 118//140 
f 118//140 117//139 119//141 
f 118//140 119//141 120//142 
f 120//142 119//141 121//143 
f 120//142 121//143 122//144 
f 122//144 121//143 123//145 
f 122//144 123//145 124//146 
f 124//146 123//145 125//147 
f 124//146 125//147 126//148 
f 126//148 125//147 127//149 
f 126//148 127//149 128//150 
f 128//150 127//149 129//151 
f 128//150 129//151 130//152 
f 130//152 129//151 131//153 
f 113//135 112//134 131//153 
f 131//153 112//134 130//152 
s 3
f 132//154 133//155 134//156 
f 134//156 133//155 135//157 
f 136//158 137//159 138//160 
f 138//160 137//159 139//161 
f 119//162 117//163 140//164 
f 140//164 117//163 141//165 
f 142//166 143//167 144//168 
f 144//168 143//167 145//169 
s 7
f 146//170 147//171 148//172 
s 3
f 148//173 147//174 149//175 
s 7
f 150//176 151//177 152//178 
f 152//178 151//177 153//179 
f 154//180 155//181 156//182 
f 156//182 155//181 157//183 
f 158//184 159//185 160//186 
f 160//186 159//185 161//185 
f 162//187 163//187 164//188 
f 164//188 163//187 165//188 
f 57//58 58//58 162//187 
f 162//187 58//58 163//187 
f 165//188 158//184 164//188 
f 164//188 158//184 160//186 
f 161//185 159//185 156//182 
f 156//182 159//185 154//180 
f 155//181 166//189 157//183 
f 157//183 166//189 150//176 
f 166//189 151//177 150//176 
f 153//179 167//190 152//178 
f 152//178 167//190 168//191 
f 167//190 169//192 168//191 
s 3
f 147//174 142//166 149//175 
f 149//175 142//166 144//168 
f 143//167 132//154 145//169 
f 145//169 132//154 134//156 
f 117//163 7//63 141//165 
f 141//165 7//63 63//63 
f 137//159 119//162 139//161 
f 139//161 119//162 140//164 
f 133//155 136//158 135//157 
f 135//157 136//158 138//160 
s 7
f 169//192 170//193 168//191 
f 168//191 170//193 171//194 
f 170//193 172//195 171//194 
f 171//194 172//195 173//196 
f 172//195 174//197 173//196 
f 173//196 174//197 175//198 
f 174//197 176//199 175//198 
f 175//198 176//199 177//200 
f 176//199 146//170 177//200 
f 177//200 146//170 148//172 
s 13
f 134//201 135//202 178//203 
f 178//203 135//202 179//204 
f 180//205 139//206 181//207 
f 181//207 139//206 182//208 
f 183//209 141//210 184//211 
f 184//211 141//210 185//212 
f 186//213 187//214 188//215 
f 188//215 187//214 189//216 
f 188//215 145//217 186//213 
f 186//213 145//217 190//218 
f 191//219 192//220 193//221 
f 193//221 192//220 194//222 
f 195//223 196//224 197//225 
f 197//225 196//224 198//226 
f 199//227 200//228 201//229 
f 201//229 200//228 202//230 
f 203//231 204//232 205//233 
f 205//233 204//232 206//234 
f 207//235 205//233 208//236 
f 208//236 205//233 152//237 
f 205//233 207//235 203//231 
f 203//231 207//235 209//238 
f 206//234 193//221 150//239 
f 150//239 193//221 210//240 
f 193//221 206//234 191//219 
f 191//219 206//234 204//232 
f 205//233 206//234 152//237 
f 152//237 206//234 150//239 
f 202//230 106//113 211//241 
f 211//241 106//113 57//114 
f 106//113 202//230 107//115 
f 107//115 202//230 200//228 
f 201//229 202//230 164//242 
f 164//242 202//230 211//241 
f 198//226 201//229 212//243 
f 212//243 201//229 164//242 
f 201//229 198//226 199//227 
f 199//227 198//226 196//224 
f 197//225 198//226 213//244 
f 213//244 198//226 212//243 
f 194//222 197//225 156//245 
f 156//245 197//225 213//244 
f 197//225 194//222 195//223 
f 195//223 194//222 192//220 
f 193//221 194//222 210//240 
f 210//240 194//222 156//245 
f 190//218 178//203 204//232 
f 204//232 178//203 191//246 
f 178//203 190//218 134//201 
f 134//201 190//218 145//217 
f 186//213 190//218 203//231 
f 203//231 190//218 204//232 
f 187//214 186//213 209//238 
f 209//238 186//213 203//231 
f 185//212 110//122 200//247 
f 200//247 110//122 107//123 
f 110//122 185//212 63//124 
f 63//124 185//212 141//210 
f 184//211 185//212 199//248 
f 199//248 185//212 200//247 
f 182//208 184//211 196//249 
f 196//249 184//211 199//248 
f 184//211 182//208 183//209 
f 183//209 182//208 139//206 
f 181//207 182//208 195//250 
f 195//250 182//208 196//249 
f 179//204 181//207 192//251 
f 192//251 181//207 195//250 
f 181//207 179//204 180//205 
f 180//205 179//204 135//202 
f 178//203 179//204 191//246 
f 191//246 179//204 192//251 
f 173//252 207//235 171//253 
f 171//253 207//235 208//236 
f 214//254 209//238 173//252 
f 173//252 209//238 207//235 
f 177//255 187//214 214//254 
f 214//254 187//214 209//238 
f 189//216 187//214 148//256 
f 148//256 187//214 177//255 
# 300 faces

