# 3ds Max Wavefront OBJ Exporter v0.97b - (c)2007 guruware
# File Created: 04.12.2015 17:44:53

mtllib P712_265B_L.mtl

#
# object P712_265B_L1_DTaSI_P712_265B_L
#

v  48.3740 81.8969 -97.8771
v  32.8789 83.0365 -97.7696
v  46.9828 92.6705 -94.7232
v  31.3892 93.8077 -94.5945
v  -13.3448 116.3111 -88.0249
v  -0.2204 115.4162 -88.1323
v  -12.3814 108.0758 -90.7934
v  0.7276 107.1211 -90.9063
v  45.5783 103.5444 -91.4001
v  52.2355 103.5614 -91.2753
v  61.6962 96.7687 -93.2558
v  62.1566 91.5639 -94.8447
v  28.2780 116.3043 -87.2146
v  33.0053 115.4005 -87.4012
v  28.7329 113.0149 -88.4549
v  38.5244 111.8851 -88.6039
v  38.2413 113.7314 -87.8662
v  14.4266 114.3598 -88.2637
v  18.3384 117.6999 -86.9617
v  9.6273 118.3188 -86.9049
v  -0.6368 119.0602 -86.7927
v  -9.6580 119.7402 -86.6835
v  -17.9219 120.3765 -86.5786
v  -24.9989 118.9678 -87.2257
v  -25.2411 117.1222 -87.9274
v  -24.5385 119.8885 -86.8711
v  -23.7905 120.3489 -86.6851
v  -24.4145 108.7677 -90.7474
v  -11.0890 96.9055 -94.2608
v  -23.0961 97.6343 -94.2089
v  -21.7274 86.5879 -97.4730
v  -9.8275 85.9342 -97.5032
v  -8.9040 77.8341 -99.7343
v  -20.7358 78.4876 -99.7039
v  -20.2803 75.7528 -100.4625
v  -19.5899 74.8895 -100.6954
v  -18.3240 74.4291 -100.8084
v  -8.4708 74.0402 -100.7947
v  33.9359 75.3936 -99.8447
v  49.3600 74.2698 -99.8846
v  34.4332 71.7975 -100.8581
v  49.7864 70.9927 -100.7908
v  -27.5903 117.2825 -87.9081
v  -26.4556 108.8850 -90.7395
v  -24.8591 97.7302 -94.2045
v  -23.2130 86.6696 -97.4693
v  -21.2602 73.0986 -101.2158
v  -22.0114 78.5581 -99.7007
v  -9.8469 72.5448 -101.2079
v  42.1472 111.4814 -88.6372
v  44.0673 111.2676 -88.6548
v  54.4470 103.5984 -91.3385
v  61.5579 98.3316 -92.7789
v  -18.0879 121.4052 -86.1954
v  -28.2338 122.1433 -86.0793
v  -0.7599 120.1371 -86.3970
v  -9.7768 120.7861 -86.2960
v  18.1969 118.7788 -86.5678
v  9.5012 119.4468 -86.4945
v  28.1263 117.4015 -86.7931
v  32.0118 116.7037 -86.9183
v  38.5095 114.7655 -87.4173
v  72.1979 80.1448 -98.0292
v  72.1919 88.9302 -95.4818
v  72.9426 80.2736 -97.9819
v  72.9612 89.5584 -95.2824
v  72.9294 78.7693 -98.3609
v  72.9080 72.4935 -99.9464
v  71.9572 72.5821 -99.9433
v  72.9599 68.5303 -100.9964
v  71.8505 70.1743 -100.5834
v  64.0445 70.2916 -100.6988
v  51.3018 69.5991 -101.1557
v  64.1544 69.0541 -101.0339
v  36.1149 70.2895 -101.2375
v  71.2847 91.0550 -94.8704
v  69.4476 91.0321 -94.9035
v  4.1572 77.1126 -99.7680
v  4.5739 73.4663 -100.7931
v  3.2310 85.2170 -97.5362
v  15.4484 105.9472 -91.0635
v  5.7739 71.8863 -101.2192
v  19.0512 76.2800 -99.8063
v  19.4913 72.6561 -100.8306
v  20.9639 71.1373 -101.2387
v  29.8694 104.7972 -91.2193
v  18.0991 84.1235 -97.6515
v  16.7935 94.8721 -94.4814
v  2.0042 95.9507 -94.3650
v  63.1092 80.8132 -97.9638
v  63.7881 73.1795 -99.9220
# 91 vertices

vn 0.0141 0.2719 -0.9622
vn 0.0131 0.2758 -0.9611
vn 0.0135 0.2881 -0.9575
vn 0.0133 0.2897 -0.9570
vn 0.0146 0.3276 -0.9447
vn 0.0149 0.3265 -0.9451
vn 0.0140 0.3074 -0.9515
vn 0.0142 0.3065 -0.9518
vn 0.0150 0.3076 -0.9514
vn 0.0083 0.2982 -0.9545
vn 0.0131 0.2944 -0.9556
vn 0.0137 0.2845 -0.9586
vn 0.0244 0.3553 -0.9344
vn 0.0332 0.3615 -0.9318
vn 0.0196 0.3286 -0.9443
vn 0.0197 0.3339 -0.9424
vn 0.0336 0.3765 -0.9258
vn 0.0167 0.3241 -0.9459
vn 0.0227 0.3415 -0.9396
vn 0.0164 0.3430 -0.9392
vn 0.0152 0.3467 -0.9378
vn 0.0150 0.3499 -0.9367
vn 0.0155 0.3508 -0.9363
vn 0.0163 0.3526 -0.9356
vn 0.0146 0.3273 -0.9448
vn 0.0155 0.3534 -0.9353
vn 0.0150 0.3529 -0.9355
vn 0.0139 0.3088 -0.9510
vn 0.0135 0.2914 -0.9565
vn 0.0135 0.2921 -0.9563
vn 0.0128 0.2780 -0.9605
vn 0.0128 0.2772 -0.9607
vn 0.0123 0.2678 -0.9634
vn 0.0123 0.2674 -0.9635
vn 0.0123 0.2692 -0.9630
vn 0.0121 0.2695 -0.9629
vn 0.0128 0.2672 -0.9636
vn 0.0120 0.2664 -0.9638
vn 0.0141 0.2659 -0.9639
vn 0.0159 0.2594 -0.9656
vn 0.0158 0.2694 -0.9629
vn 0.0181 0.2691 -0.9629
vn 0.0148 0.3348 -0.9422
vn 0.0141 0.3097 -0.9507
vn 0.0135 0.2925 -0.9562
vn 0.0129 0.2784 -0.9604
vn 0.0128 0.2668 -0.9637
vn 0.0123 0.2675 -0.9635
vn 0.0115 0.2576 -0.9662
vn 0.0272 0.3463 -0.9377
vn 0.0272 0.3496 -0.9365
vn -0.0318 0.2432 -0.9695
vn 0.0093 0.2903 -0.9569
vn 0.0150 0.3515 -0.9361
vn 0.0154 0.3536 -0.9353
vn 0.0146 0.3464 -0.9380
vn 0.0148 0.3490 -0.9370
vn 0.0222 0.3454 -0.9382
vn 0.0161 0.3436 -0.9390
vn 0.0288 0.3611 -0.9321
vn 0.0358 0.3705 -0.9282
vn 0.0415 0.3870 -0.9212
vn 0.0136 0.2641 -0.9644
vn 0.0139 0.2793 -0.9601
vn 0.0139 0.2745 -0.9615
vn 0.0196 0.2805 -0.9596
vn 0.0204 0.2447 -0.9694
vn 0.0199 0.2488 -0.9684
vn 0.0163 0.2480 -0.9686
vn 0.0194 0.2560 -0.9665
vn 0.0189 0.2562 -0.9664
vn 0.0186 0.2617 -0.9650
vn 0.0191 0.2724 -0.9620
vn 0.0195 0.2625 -0.9647
vn 0.0172 0.2622 -0.9648
vn 0.0139 0.2877 -0.9576
vn 0.0128 0.2834 -0.9589
vn 0.0123 0.2683 -0.9633
vn 0.0120 0.2707 -0.9626
vn 0.0128 0.2771 -0.9608
vn 0.0146 0.3058 -0.9520
vn 0.0117 0.2687 -0.9632
vn 0.0126 0.2682 -0.9633
vn 0.0130 0.2726 -0.9620
vn 0.0134 0.2711 -0.9624
vn 0.0148 0.3066 -0.9517
vn 0.0128 0.2768 -0.9609
vn 0.0136 0.2904 -0.9568
vn 0.0136 0.2910 -0.9566
vn 0.0142 0.2667 -0.9637
vn 0.0159 0.2526 -0.9675
# 91 vertex normals

vt 0.1622 0.0620 0.0000
vt 0.2123 0.0621 0.0000
vt 0.1692 0.0978 0.0000
vt 0.2197 0.0979 0.0000
vt 0.3690 0.1633 0.0000
vt 0.3265 0.1634 0.0000
vt 0.3639 0.1355 0.0000
vt 0.3215 0.1354 0.0000
vt 0.1763 0.1341 0.0000
vt 0.1549 0.1358 0.0000
vt 0.1228 0.1151 0.0000
vt 0.1201 0.0977 0.0000
vt 0.2350 0.1734 0.0000
vt 0.2196 0.1715 0.0000
vt 0.2328 0.1622 0.0000
vt 0.2010 0.1608 0.0000
vt 0.2023 0.1671 0.0000
vt 0.2791 0.1633 0.0000
vt 0.2673 0.1757 0.0000
vt 0.2955 0.1757 0.0000
vt 0.3287 0.1758 0.0000
vt 0.3579 0.1759 0.0000
vt 0.3847 0.1761 0.0000
vt 0.4071 0.1696 0.0000
vt 0.4074 0.1632 0.0000
vt 0.4058 0.1728 0.0000
vt 0.4035 0.1746 0.0000
vt 0.4028 0.1350 0.0000
vt 0.3571 0.0982 0.0000
vt 0.3959 0.0977 0.0000
vt 0.3889 0.0610 0.0000
vt 0.3505 0.0616 0.0000
vt 0.3456 0.0348 0.0000
vt 0.3838 0.0342 0.0000
vt 0.3817 0.0252 0.0000
vt 0.3793 0.0224 0.0000
vt 0.3751 0.0212 0.0000
vt 0.3433 0.0222 0.0000
vt 0.2071 0.0369 0.0000
vt 0.1572 0.0369 0.0000
vt 0.2047 0.0250 0.0000
vt 0.1551 0.0260 0.0000
vt 0.4150 0.1632 0.0000
vt 0.4094 0.1349 0.0000
vt 0.4016 0.0976 0.0000
vt 0.3937 0.0609 0.0000
vt 0.3842 0.0161 0.0000
vt 0.3879 0.0341 0.0000
vt 0.3424 0.0170 0.0000
vt 0.1892 0.1604 0.0000
vt 0.1830 0.1601 0.0000
vt 0.1486 0.1356 0.0000
vt 0.1237 0.1204 0.0000
vt 0.3854 0.1796 0.0000
vt 0.4183 0.1797 0.0000
vt 0.3294 0.1794 0.0000
vt 0.3585 0.1795 0.0000
vt 0.2680 0.1794 0.0000
vt 0.2962 0.1795 0.0000
vt 0.2358 0.1772 0.0000
vt 0.2231 0.1758 0.0000
vt 0.2017 0.1708 0.0000
vt 0.0851 0.0618 0.0000
vt 0.0872 0.0913 0.0000
vt 0.0819 0.0625 0.0000
vt 0.0840 0.0936 0.0000
vt 0.0815 0.0575 0.0000
vt 0.0801 0.0367 0.0000
vt 0.0841 0.0367 0.0000
vt 0.0791 0.0235 0.0000
vt 0.0839 0.0287 0.0000
vt 0.1090 0.0272 0.0000
vt 0.1542 0.0216 0.0000
vt 0.1084 0.0230 0.0000
vt 0.2037 0.0202 0.0000
vt 0.0906 0.0982 0.0000
vt 0.0965 0.0977 0.0000
vt 0.3034 0.0355 0.0000
vt 0.3012 0.0234 0.0000
vt 0.3083 0.0623 0.0000
vt 0.2738 0.1350 0.0000
vt 0.3003 0.0183 0.0000
vt 0.2553 0.0363 0.0000
vt 0.2530 0.0243 0.0000
vt 0.2521 0.0194 0.0000
vt 0.2272 0.1346 0.0000
vt 0.2602 0.0622 0.0000
vt 0.2669 0.0980 0.0000
vt 0.3148 0.0981 0.0000
vt 0.1145 0.0619 0.0000
vt 0.1105 0.0367 0.0000
# 91 texture coords

g P712_265B_L1_DTaSI_P712_265B_L
usemtl windowglass_1SG
s 1
f 1/1/1 2/2/2 3/3/3 
f 3/3/3 2/2/2 4/4/4 
f 5/5/5 6/6/6 7/7/7 
f 7/7/7 6/6/6 8/8/8 
f 9/9/9 10/10/10 3/3/3 
f 10/10/10 11/11/11 3/3/3 
f 11/11/11 12/12/12 3/3/3 
f 13/13/13 14/14/14 15/15/15 
f 16/16/16 15/15/15 17/17/17 
f 14/14/14 17/17/17 15/15/15 
f 15/15/15 18/18/18 13/13/13 
f 13/13/13 18/18/18 19/19/19 
f 19/19/19 18/18/18 20/20/20 
f 6/6/6 5/5/5 21/21/21 
f 21/21/21 5/5/5 22/22/22 
f 23/23/23 22/22/22 5/5/5 
f 23/23/23 5/5/5 24/24/24 
f 24/24/24 5/5/5 25/25/25 
f 24/24/24 26/26/26 23/23/23 
f 23/23/23 26/26/26 27/27/27 
f 25/25/25 5/5/5 28/28/28 
f 28/28/28 5/5/5 7/7/7 
f 29/29/29 30/30/30 7/7/7 
f 7/7/7 30/30/30 28/28/28 
f 30/30/30 29/29/29 31/31/31 
f 31/31/31 29/29/29 32/32/32 
f 33/33/33 34/34/34 32/32/32 
f 32/32/32 34/34/34 31/31/31 
f 34/34/34 33/33/33 35/35/35 
f 35/35/35 33/33/33 36/36/36 
f 36/36/36 33/33/33 37/37/37 
f 33/33/33 38/38/38 37/37/37 
f 39/39/39 40/40/40 41/41/41 
f 41/41/41 40/40/40 42/42/42 
f 43/43/43 25/25/25 44/44/44 
f 44/44/44 25/25/25 28/28/28 
f 45/45/45 30/30/30 46/46/46 
f 46/46/46 30/30/30 31/31/31 
f 30/30/30 45/45/45 28/28/28 
f 28/28/28 45/45/45 44/44/44 
f 47/47/47 48/48/48 35/35/35 
f 35/35/35 48/48/48 34/34/34 
f 35/35/35 36/36/36 47/47/47 
f 38/38/38 49/49/49 37/37/37 
f 37/37/37 49/49/49 47/47/47 
f 36/36/36 37/37/37 47/47/47 
f 34/34/34 48/48/48 31/31/31 
f 31/31/31 48/48/48 46/46/46 
f 50/50/50 51/51/51 10/10/10 
f 52/52/52 53/53/53 10/10/10 
f 10/10/10 53/53/53 11/11/11 
f 23/23/23 27/27/27 54/54/54 
f 54/54/54 27/27/27 55/55/55 
f 27/27/27 26/26/26 55/55/55 
f 55/55/55 26/26/26 43/43/43 
f 26/26/26 24/24/24 43/43/43 
f 24/24/24 25/25/25 43/43/43 
f 21/21/21 22/22/22 56/56/56 
f 56/56/56 22/22/22 57/57/57 
f 19/19/19 20/20/20 58/58/58 
f 58/58/58 20/20/20 59/59/59 
f 13/13/13 19/19/19 60/60/60 
f 60/60/60 19/19/19 58/58/58 
f 14/14/14 13/13/13 61/61/61 
f 61/61/61 13/13/13 60/60/60 
f 51/51/51 50/50/50 62/62/62 
f 62/62/62 50/50/50 17/17/17 
f 63/63/63 64/64/64 65/65/65 
f 65/65/65 64/64/64 66/66/66 
f 67/67/67 63/63/63 65/65/65 
f 68/68/68 69/69/69 67/67/67 
f 67/67/67 69/69/69 63/63/63 
f 70/70/70 71/71/71 68/68/68 
f 68/68/68 71/71/71 69/69/69 
f 42/42/42 72/72/72 73/73/73 
f 73/73/73 72/72/72 74/74/74 
f 41/41/41 42/42/42 75/75/75 
f 75/75/75 42/42/42 73/73/73 
f 17/17/17 14/14/14 62/62/62 
f 62/62/62 14/14/14 61/61/61 
f 66/66/66 64/64/64 76/76/76 
f 76/76/76 64/64/64 77/77/77 
f 22/22/22 23/23/23 57/57/57 
f 57/57/57 23/23/23 54/54/54 
f 33/33/33 78/78/78 38/38/38 
f 38/38/38 78/78/78 79/79/79 
f 78/78/78 33/33/33 80/80/80 
f 80/80/80 33/33/33 32/32/32 
f 81/81/81 8/8/8 18/18/18 
f 18/18/18 8/8/8 6/6/6 
f 21/21/21 20/20/20 6/6/6 
f 6/6/6 20/20/20 18/18/18 
f 82/82/82 49/49/49 79/79/79 
f 79/79/79 49/49/49 38/38/38 
f 78/78/78 83/83/83 79/79/79 
f 79/79/79 83/83/83 84/84/84 
f 20/20/20 21/21/21 59/59/59 
f 59/59/59 21/21/21 56/56/56 
f 79/79/79 84/84/84 82/82/82 
f 82/82/82 84/84/84 85/85/85 
f 86/86/86 81/81/81 15/15/15 
f 15/15/15 81/81/81 18/18/18 
f 84/84/84 41/41/41 85/85/85 
f 85/85/85 41/41/41 75/75/75 
f 2/2/2 87/87/87 4/4/4 
f 4/4/4 87/87/87 88/88/88 
f 41/41/41 84/84/84 39/39/39 
f 39/39/39 84/84/84 83/83/83 
f 9/9/9 86/86/86 16/16/16 
f 16/16/16 86/86/86 15/15/15 
f 89/89/89 88/88/88 80/80/80 
f 80/80/80 88/88/88 87/87/87 
f 80/80/80 32/32/32 89/89/89 
f 89/89/89 32/32/32 29/29/29 
f 1/1/1 90/90/90 40/40/40 
f 40/40/40 90/90/90 91/91/91 
f 2/2/2 1/1/1 39/39/39 
f 39/39/39 1/1/1 40/40/40 
f 87/87/87 2/2/2 83/83/83 
f 83/83/83 2/2/2 39/39/39 
f 80/80/80 87/87/87 78/78/78 
f 78/78/78 87/87/87 83/83/83 
f 16/16/16 17/17/17 50/50/50 
f 16/16/16 50/50/50 9/9/9 
f 9/9/9 50/50/50 10/10/10 
f 51/51/51 52/52/52 10/10/10 
f 3/3/3 12/12/12 1/1/1 
f 1/1/1 12/12/12 90/90/90 
f 40/40/40 91/91/91 42/42/42 
f 42/42/42 91/91/91 72/72/72 
f 11/11/11 53/53/53 77/77/77 
f 77/77/77 53/53/53 76/76/76 
f 11/11/11 77/77/77 12/12/12 
f 12/12/12 77/77/77 90/90/90 
f 77/77/77 64/64/64 90/90/90 
f 63/63/63 90/90/90 64/64/64 
f 69/69/69 91/91/91 63/63/63 
f 63/63/63 91/91/91 90/90/90 
f 71/71/71 72/72/72 69/69/69 
f 69/69/69 72/72/72 91/91/91 
f 72/72/72 71/71/71 74/74/74 
f 74/74/74 71/71/71 70/70/70 
f 86/86/86 9/9/9 4/4/4 
f 3/3/3 4/4/4 9/9/9 
f 81/81/81 86/86/86 88/88/88 
f 88/88/88 86/86/86 4/4/4 
f 88/88/88 89/89/89 81/81/81 
f 81/81/81 89/89/89 8/8/8 
f 7/7/7 8/8/8 29/29/29 
f 29/29/29 8/8/8 89/89/89 
# 150 faces

