# 3ds Max Wavefront OBJ Exporter v0.97b - (c)2007 guruware
# File Created: 02.11.2015 15:08:21

mtllib X3088_324H_R.mtl

#
# object X3088_324H_R_1_DTaSI_X3088_324H_R
#

v  -107.9925 62.4622 77.7729
v  -107.2816 61.4269 78.3209
v  -107.6161 62.1649 77.9384
v  -106.9799 41.8492 87.7248
v  -108.8209 40.2261 88.4735
v  -107.6927 40.8455 88.1704
v  -114.8630 58.2987 79.7040
v  -107.0664 56.0880 81.2405
v  -110.0842 62.0561 77.9267
v  -119.1408 54.3948 81.4879
v  -106.8959 51.8423 83.1763
v  -123.9922 48.9576 84.0488
v  -106.6909 46.7359 85.5045
v  -106.5561 43.3848 87.0323
v  -125.6678 46.5259 85.2580
v  -126.1044 43.9846 86.4750
v  -126.9046 44.0739 86.4227
v  -126.3959 41.1815 87.8217
v  -127.0250 42.1665 87.3395
v  -108.9289 62.6192 77.6701
v  -109.4400 62.4437 77.7469
v  -108.4770 62.6083 77.6853
v  -125.2307 40.6956 88.0012
# 23 vertices

vn -0.0216 0.4562 0.8896
vn -0.0162 0.4781 0.8781
vn -0.0421 0.4447 0.8947
vn -0.0146 0.4206 0.9071
vn -0.0135 0.4314 0.9021
vn 0.0376 0.3831 0.9229
vn -0.0366 0.4479 0.8933
vn -0.0527 0.4349 0.8990
vn -0.0353 0.4709 0.8815
vn -0.0237 0.4384 0.8985
vn -0.0414 0.4184 0.9073
vn -0.0149 0.4430 0.8964
vn -0.0268 0.4199 0.9072
vn -0.0197 0.4168 0.9088
vn -0.0099 0.4407 0.8976
vn -0.0112 0.4263 0.9045
vn -0.0105 0.4335 0.9011
vn 0.0317 0.4302 0.9022
vn -0.0110 0.4339 0.9009
vn -0.0232 0.4541 0.8907
vn -0.0192 0.4468 0.8944
vn -0.0183 0.4683 0.8834
vn -0.0112 0.4188 0.9080
# 23 vertex normals

vt 0.1840 0.2877 0.0000
vt 0.1860 0.2842 0.0000
vt 0.1851 0.2867 0.0000
vt 0.1848 0.2213 0.0000
vt 0.1793 0.2162 0.0000
vt 0.1827 0.2181 0.0000
vt 0.1637 0.2750 0.0000
vt 0.1860 0.2666 0.0000
vt 0.1779 0.2866 0.0000
vt 0.1509 0.2630 0.0000
vt 0.1861 0.2531 0.0000
vt 0.1363 0.2460 0.0000
vt 0.1862 0.2368 0.0000
vt 0.1862 0.2261 0.0000
vt 0.1312 0.2383 0.0000
vt 0.1296 0.2302 0.0000
vt 0.1273 0.2305 0.0000
vt 0.1285 0.2212 0.0000
vt 0.1268 0.2244 0.0000
vt 0.1813 0.2883 0.0000
vt 0.1798 0.2878 0.0000
vt 0.1826 0.2882 0.0000
vt 0.1318 0.2196 0.0000
# 23 texture coords

g X3088_324H_R_1_DTaSI_X3088_324H_R
usemtl windowglass_1SG
s 1
f 1/1/1 2/2/2 3/3/3 
f 4/4/4 5/5/5 6/6/6 
f 7/7/7 8/8/8 9/9/9 
f 9/9/9 8/8/8 2/2/2 
f 10/10/10 11/11/11 7/7/7 
f 7/7/7 11/11/11 8/8/8 
f 12/12/12 13/13/13 10/10/10 
f 10/10/10 13/13/13 11/11/11 
f 13/13/13 12/12/12 14/14/14 
f 14/14/14 12/12/12 15/15/15 
f 16/16/16 15/15/15 17/17/17 
f 18/18/18 16/16/16 19/19/19 
f 19/19/19 16/16/16 17/17/17 
f 20/20/20 21/21/21 9/9/9 
f 9/9/9 2/2/2 20/20/20 
f 20/20/20 2/2/2 1/1/1 
f 20/20/20 1/1/1 22/22/22 
f 18/18/18 23/23/23 16/16/16 
f 23/23/23 4/4/4 16/16/16 
f 14/14/14 15/15/15 4/4/4 
f 4/4/4 15/15/15 16/16/16 
f 23/23/23 5/5/5 4/4/4 
# 22 faces

#
# object X3088_324H_R_X3088_324H_R_2_DTaSI
#

v  -123.6797 56.4892 80.3005
v  -121.3547 55.4164 80.9087
v  -118.6751 59.8952 78.7923
v  -116.8704 59.1394 79.2239
v  -104.6680 51.5950 83.3242
v  -104.8811 55.4510 81.3754
v  -106.8959 51.8423 83.1763
v  -107.0664 56.0880 81.2405
v  -130.1669 51.3139 82.6695
v  -126.9272 50.1505 83.3731
v  -113.2186 63.1348 77.3104
v  -111.4892 62.5397 77.6504
v  -131.2217 42.3881 87.1792
v  -127.0250 42.1665 87.3395
v  -130.7353 44.4393 86.1978
v  -126.9046 44.0739 86.4227
v  -103.9488 38.4947 89.3001
v  -107.6927 40.8455 88.1704
v  -108.8287 38.4856 89.2269
v  -108.8209 40.2261 88.4735
v  -109.4400 62.4437 77.7469
v  -110.0918 63.2138 77.3266
v  -110.0842 62.0561 77.9267
v  -104.2040 43.1128 87.1935
v  -104.3912 46.5500 85.6255
v  -106.5561 43.3848 87.0323
v  -106.6909 46.7359 85.5045
v  -128.2217 38.5136 89.0829
v  -125.2148 38.5171 89.1140
v  -126.3959 41.1815 87.8217
v  -125.2307 40.6956 88.0012
v  -138.5260 42.5040 87.0300
v  -136.6368 44.8090 85.9444
v  -140.2532 39.8424 88.2894
v  -140.9945 38.4859 88.9330
v  -130.2159 40.6939 88.0077
v  -129.3152 46.7956 85.0690
v  -125.6678 46.5259 85.2580
v  -134.4807 47.1768 84.7754
v  -108.7071 63.8793 77.0037
v  -108.9289 62.6192 77.6701
v  -108.4770 62.6083 77.6853
v  -107.2805 63.6259 77.1555
v  -107.9925 62.4622 77.7729
v  -107.6161 62.1649 77.9384
v  -105.3074 63.2807 77.3713
v  -107.2816 61.4269 78.3209
v  -105.2338 61.7447 78.2067
v  -105.4803 66.8911 75.4077
v  -108.7155 65.4339 76.1756
v  -106.5561 64.9481 76.4557
v  -110.9885 64.2733 76.7484
v  -105.3745 64.6823 76.6090
v  -123.9922 48.9576 84.0488
v  -119.1408 54.3948 81.4879
v  -114.8630 58.2987 79.7040
v  -106.9799 41.8492 87.7248
v  -104.0830 40.8915 88.2067
# 58 vertices

vn -0.0293 0.4462 0.8944
vn -0.0286 0.4447 0.8952
vn -0.0283 0.4443 0.8954
vn -0.0271 0.4460 0.8946
vn -0.0125 0.4282 0.9036
vn 0.0615 0.4387 0.8965
vn -0.0009 0.4273 0.9041
vn 0.0634 0.4436 0.8940
vn -0.0252 0.4588 0.8882
vn -0.0261 0.4524 0.8914
vn -0.0211 0.4504 0.8926
vn -0.0203 0.4526 0.8915
vn -0.0115 0.4338 0.9010
vn -0.0130 0.4383 0.8987
vn -0.0124 0.4351 0.9003
vn -0.0144 0.4143 0.9100
vn -0.0125 0.4136 0.9104
vn -0.0071 0.4012 0.9160
vn -0.0035 0.4035 0.9150
vn -0.0274 0.4609 0.8870
vn -0.0193 0.4656 0.8848
vn -0.0207 0.4519 0.8918
vn -0.0112 0.4336 0.9010
vn -0.0109 0.4489 0.8935
vn -0.0053 0.4354 0.9002
vn -0.0071 0.4548 0.8905
vn -0.0111 0.4386 0.8986
vn -0.0160 0.4545 0.8906
vn -0.0146 0.4500 0.8929
vn -0.0137 0.4556 0.8901
vn -0.0140 0.4701 0.8825
vn -0.0205 0.4690 0.8830
vn -0.0134 0.4720 0.8815
vn -0.0115 0.4737 0.8806
vn -0.0138 0.4752 0.8798
vn -0.0152 0.4709 0.8821
vn -0.0136 0.4767 0.8790
vn -0.0247 0.4754 0.8794
vn -0.0027 0.4729 0.8811
vn -0.0065 0.4775 0.8786
vn -0.0109 0.4723 0.8814
vn -0.0074 0.4751 0.8799
vn -0.0171 0.4670 0.8841
vn -0.0092 0.4763 0.8792
vn -0.0240 0.4482 0.8936
vn -0.0291 0.4443 0.8954
vn -0.0262 0.4475 0.8939
# 47 vertex normals

vt 0.1379 0.2704 0.0000
vt 0.1446 0.2666 0.0000
vt 0.1528 0.2807 0.0000
vt 0.1579 0.2780 0.0000
vt 0.1925 0.2520 0.0000
vt 0.1923 0.2646 0.0000
vt 0.1861 0.2531 0.0000
vt 0.1860 0.2666 0.0000
vt 0.1186 0.2545 0.0000
vt 0.1279 0.2502 0.0000
vt 0.1689 0.2905 0.0000
vt 0.1739 0.2884 0.0000
vt 0.1146 0.2256 0.0000
vt 0.1268 0.2244 0.0000
vt 0.1163 0.2321 0.0000
vt 0.1273 0.2305 0.0000
vt 0.1933 0.2102 0.0000
vt 0.1827 0.2181 0.0000
vt 0.1791 0.2108 0.0000
vt 0.1793 0.2162 0.0000
vt 0.1798 0.2878 0.0000
vt 0.1780 0.2904 0.0000
vt 0.1779 0.2866 0.0000
vt 0.1930 0.2250 0.0000
vt 0.1928 0.2359 0.0000
vt 0.1862 0.2261 0.0000
vt 0.1862 0.2368 0.0000
vt 0.1229 0.2128 0.0000
vt 0.1317 0.2125 0.0000
vt 0.1285 0.2212 0.0000
vt 0.1318 0.2196 0.0000
vt 0.0935 0.2267 0.0000
vt 0.0992 0.2339 0.0000
vt 0.0882 0.2184 0.0000
vt 0.0859 0.2141 0.0000
vt 0.1174 0.2200 0.0000
vt 0.1206 0.2396 0.0000
vt 0.1312 0.2383 0.0000
vt 0.1057 0.2414 0.0000
vt 0.1821 0.2924 0.0000
vt 0.1813 0.2883 0.0000
vt 0.1826 0.2882 0.0000
vt 0.1862 0.2914 0.0000
vt 0.1840 0.2877 0.0000
vt 0.1851 0.2867 0.0000
vt 0.1919 0.2901 0.0000
vt 0.1860 0.2842 0.0000
vt 0.1919 0.2850 0.0000
vt 0.1917 0.3020 0.0000
vt 0.1822 0.2975 0.0000
vt 0.1884 0.2957 0.0000
vt 0.1755 0.2940 0.0000
vt 0.1918 0.2947 0.0000
vt 0.1363 0.2460 0.0000
vt 0.1509 0.2630 0.0000
vt 0.1637 0.2750 0.0000
vt 0.1848 0.2213 0.0000
vt 0.1931 0.2179 0.0000
# 58 texture coords

g X3088_324H_R_X3088_324H_R_2_DTaSI
usemtl windowglass_blackSG
s 1
f 24/24/24 25/25/25 26/26/26 
f 26/26/26 25/25/25 27/27/27 
f 28/28/28 29/29/29 30/30/30 
f 30/30/30 29/29/29 31/31/31 
f 32/32/32 33/33/33 24/24/24 
f 24/24/24 33/33/33 25/25/25 
f 26/26/26 27/27/27 34/34/34 
f 34/34/34 27/27/27 35/35/35 
f 36/36/36 37/37/36 38/38/37 
f 38/38/37 37/37/36 39/39/38 
f 40/40/39 41/41/40 42/42/41 
f 42/42/41 41/41/40 43/43/42 
f 44/44/43 45/45/44 46/46/45 
f 46/46/45 45/45/44 35/35/35 
f 47/47/39 48/48/39 49/49/39 
f 49/49/39 48/48/39 50/50/39 
f 51/51/46 52/52/47 53/53/48 
f 53/53/48 52/52/47 54/54/49 
f 55/55/36 36/36/36 56/56/50 
f 56/56/50 36/36/36 38/38/37 
f 57/57/36 58/58/36 59/59/36 
f 59/59/36 58/58/36 51/51/46 
f 38/38/37 39/39/38 60/60/51 
f 60/60/51 39/39/38 61/61/52 
f 62/62/53 60/60/51 32/32/32 
f 32/32/32 60/60/51 33/33/33 
f 53/53/48 37/37/36 59/59/36 
f 59/59/36 37/37/36 36/36/36 
f 57/57/36 59/59/36 55/55/36 
f 55/55/36 59/59/36 36/36/36 
f 63/63/54 45/45/44 64/64/55 
f 64/64/55 45/45/44 44/44/43 
f 63/63/54 64/64/55 65/65/56 
f 63/63/54 65/65/56 66/66/57 
f 66/66/57 65/65/56 67/67/58 
f 67/67/58 68/68/59 66/66/57 
f 66/66/57 68/68/59 69/69/60 
f 70/70/61 31/31/31 71/71/62 
f 71/71/62 31/31/31 29/29/29 
f 69/69/60 68/68/59 71/71/62 
f 71/71/62 68/68/59 70/70/61 
f 72/72/63 73/73/64 74/74/65 
f 73/73/64 63/63/54 74/74/65 
f 74/74/65 63/63/54 66/66/57 
f 75/75/66 63/63/54 73/73/64 
f 74/74/65 66/66/57 76/76/67 
f 76/76/67 66/66/57 69/69/60 
f 72/72/63 74/74/65 76/76/67 
f 45/45/44 63/63/54 75/75/66 
f 45/45/44 75/75/66 35/35/35 
f 35/35/35 75/75/66 34/34/34 
f 60/60/51 61/61/52 33/33/33 
f 33/33/33 61/61/52 77/77/68 
f 33/33/33 77/77/68 25/25/25 
f 25/25/25 77/77/68 78/78/69 
f 25/25/25 78/78/69 27/27/27 
f 27/27/27 78/78/69 79/79/70 
f 27/27/27 79/79/70 35/35/35 
f 35/35/35 79/79/70 46/46/45 
f 49/49/39 80/80/39 47/47/39 
f 47/47/39 80/80/39 81/81/39 
f 42/42/41 43/43/42 52/52/47 
f 52/52/47 43/43/42 54/54/49 
f 80/80/39 41/41/40 81/81/39 
f 81/81/39 41/41/40 40/40/39 
f 59/59/36 51/51/46 53/53/48 
f 56/56/50 38/38/37 62/62/53 
f 62/62/53 38/38/37 60/60/51 
f 48/48/39 28/28/28 50/50/39 
f 50/50/39 28/28/28 30/30/30 
# 70 faces

