# 3ds Max Wavefront OBJ Exporter v0.97b - (c)2007 guruware
# File Created: 02.11.2015 15:11:07

mtllib X3088_FLOR_C.mtl

#
# object X3088_FLOR_C_N_X3088_FLOR_C
#

v  -83.4227 -51.8630 88.1405
v  -88.1208 -51.8825 88.1405
v  -107.5134 -52.0148 66.1413
v  -92.8188 -51.9021 88.1405
v  -97.8222 -51.9404 88.1405
v  120.0472 -53.2872 88.1406
v  138.7837 -53.9388 66.1413
v  125.0656 -53.4596 88.1406
v  127.2010 -53.5342 88.1406
v  129.3364 -53.6088 88.1406
v  89.6269 -52.6208 88.1406
v  138.7837 -53.9389 0.0000
v  97.5964 -52.7566 88.1406
v  105.5660 -52.8925 88.1406
v  134.9417 -53.8046 88.1406
v  135.9529 -53.8400 88.1406
v  136.9641 -53.8753 88.1406
v  138.7837 -53.9388 88.1406
v  -47.2581 -51.8172 88.1405
v  -57.0406 -51.8258 88.1405
v  -107.5134 -52.0148 0.0000
v  -66.8231 -51.8345 88.1405
v  -75.1229 -51.8487 88.1405
v  269.1882 -45.5212 44.9408
v  272.1081 -46.2767 0.0000
v  269.9602 -45.4684 42.2816
v  272.2694 -46.1743 0.0000
v  9.0911 -51.8114 88.1405
v  -0.7662 -51.8114 88.1405
v  -10.6236 -51.8114 88.1405
v  -19.7947 -51.8114 88.1405
v  -28.9658 -51.8114 88.1405
v  229.9175 -53.7415 89.9471
v  225.7812 -53.7631 0.0000
v  233.2289 -53.7053 89.2001
v  244.1643 -53.4155 0.0000
v  240.6009 -53.5520 86.8118
v  244.1643 -53.4155 85.1736
v  -107.5134 -52.0147 88.1405
v  -105.6938 -52.0008 88.1405
v  251.3160 -52.9445 80.3179
v  251.3160 -52.9445 0.0000
v  254.9536 -52.5699 76.8929
v  254.9536 -52.5699 0.0000
v  258.4319 -52.0565 72.9842
v  258.4319 -52.0565 0.0000
v  227.6008 -53.7574 90.1961
v  236.9762 -53.6438 88.1049
v  225.7812 -53.7631 66.1413
v  247.7279 -53.2197 83.0434
v  247.7278 -53.2197 0.0000
v  261.5423 -51.3649 68.8075
v  261.5422 -51.3648 0.0000
v  264.1212 -50.4828 64.6220
v  264.1212 -50.4828 0.0000
v  266.0054 -49.3982 60.6859
v  266.0052 -49.3982 0.0000
v  266.8451 -48.4131 58.2648
v  267.3026 -48.8306 0.0000
v  267.5511 -47.4418 55.7964
v  269.0602 -48.0465 0.0000
v  268.1217 -46.4864 53.2866
v  270.5513 -47.8416 0.0000
v  268.4424 -46.0209 51.2322
v  271.4213 -47.0861 0.0000
v  268.7207 -45.7319 49.1340
v  271.6751 -46.7368 0.0000
v  268.9067 -45.5647 47.0196
v  271.9070 -46.4656 0.0000
v  270.4879 -45.4953 39.7041
v  270.9518 -45.4821 37.1247
v  271.2052 -45.4770 34.5444
v  271.7336 -45.5586 31.3644
v  272.0361 -45.6145 28.2229
v  272.3923 -45.6921 24.2713
v  272.7222 -45.7449 19.9139
v  272.9438 -45.7820 15.3175
v  273.1945 -45.7934 10.2167
v  273.3186 -45.7988 5.3690
v  273.4936 -45.8249 0.0000
v  19.2887 -51.8432 88.1406
v  29.4864 -51.8750 88.1406
v  39.6783 -51.9704 88.1406
v  49.8703 -52.0658 88.1405
v  59.9345 -52.1987 88.1406
v  69.9986 -52.3317 88.1406
v  79.8128 -52.4762 88.1406
v  132.5138 -53.7198 88.1406
v  133.7278 -53.7622 88.1406
v  -196.5356 -49.0458 66.1413
v  -196.5058 -49.0375 0.0000
v  -101.2437 -51.9667 88.1405
v  -103.6715 -51.9853 88.1405
v  110.0963 -52.9994 88.1406
v  114.6267 -53.1064 88.1406
v  -38.1119 -51.8143 88.1405
v  225.7812 -53.7631 90.1961
v  -242.6426 -42.7837 0.0000
v  -242.1698 -42.0780 81.3195
v  -215.4543 -47.6709 83.1889
v  -208.5171 -49.1121 83.2146
v  -256.1967 -41.1442 0.0000
v  -261.9824 -39.8831 36.5456
v  -262.4048 -39.8956 29.7261
v  -263.1092 -39.9317 15.2356
v  -262.7830 -39.9133 22.8447
v  -235.6727 -43.5616 82.0906
v  -229.5087 -44.8284 82.6166
v  -222.9843 -46.1439 82.9848
v  -201.7263 -50.5855 83.0499
v  -196.6478 -51.7669 82.8098
v  -254.5546 -39.7892 77.3295
v  -255.5314 -40.6439 76.2104
v  -256.1819 -41.1442 74.5847
v  -256.2174 -41.1821 75.0731
v  -263.3127 -39.9469 7.6264
v  -263.3252 -39.9537 0.0000
v  -263.6442 -40.2309 51.7497
v  -264.0467 -40.4195 48.8832
v  -262.4957 -40.4654 48.1698
v  -253.9055 -39.0989 79.5020
v  -253.8822 -39.4405 79.8853
v  -247.9394 -40.6690 80.5714
v  -261.8764 -39.9074 42.3534
v  -261.9567 -39.9838 44.3133
v  -262.2402 -40.2169 46.3441
v  -264.0506 -40.3878 49.0302
v  -264.1718 -40.2860 50.1688
v  -264.0779 -40.2309 51.3263
v  -254.4838 -39.8792 77.6905
v  -254.0154 -39.8868 79.6351
v  -254.5619 -40.3676 78.7501
v  -254.6913 -40.3552 78.2873
v  -263.9376 -40.3392 48.8264
v  -83.4227 -51.8630 -88.1405
v  -107.5134 -52.0148 -66.1413
v  -88.1208 -51.8825 -88.1405
v  -92.8188 -51.9021 -88.1405
v  -97.8222 -51.9404 -88.1405
v  120.0472 -53.2872 -88.1406
v  125.0656 -53.4596 -88.1406
v  138.7837 -53.9388 -66.1413
v  127.2010 -53.5342 -88.1406
v  129.3364 -53.6088 -88.1406
v  89.6269 -52.6208 -88.1406
v  97.5964 -52.7566 -88.1406
v  105.5660 -52.8925 -88.1406
v  134.9417 -53.8046 -88.1406
v  135.9529 -53.8400 -88.1406
v  136.9641 -53.8753 -88.1406
v  138.7837 -53.9388 -88.1406
v  -47.2581 -51.8172 -88.1405
v  -57.0406 -51.8258 -88.1405
v  -66.8231 -51.8345 -88.1405
v  -75.1229 -51.8487 -88.1405
v  269.1882 -45.5212 -44.9408
v  269.9602 -45.4684 -42.2816
v  9.0911 -51.8114 -88.1405
v  -0.7662 -51.8114 -88.1405
v  -10.6236 -51.8114 -88.1405
v  -19.7947 -51.8114 -88.1405
v  -28.9658 -51.8114 -88.1405
v  229.9175 -53.7415 -89.9471
v  233.2289 -53.7053 -89.2001
v  244.1643 -53.4155 -85.1736
v  240.6009 -53.5520 -86.8118
v  -107.5134 -52.0147 -88.1405
v  -105.6938 -52.0008 -88.1405
v  251.3160 -52.9445 -80.3179
v  254.9536 -52.5699 -76.8929
v  258.4319 -52.0565 -72.9842
v  227.6008 -53.7574 -90.1961
v  236.9762 -53.6438 -88.1049
v  225.7812 -53.7631 -66.1413
v  247.7279 -53.2197 -83.0434
v  261.5423 -51.3649 -68.8075
v  264.1212 -50.4828 -64.6220
v  266.0054 -49.3982 -60.6859
v  266.8451 -48.4131 -58.2648
v  267.5511 -47.4418 -55.7964
v  268.1217 -46.4864 -53.2866
v  268.4424 -46.0209 -51.2322
v  268.7207 -45.7319 -49.1340
v  268.9067 -45.5647 -47.0196
v  270.4879 -45.4953 -39.7041
v  270.9518 -45.4821 -37.1247
v  271.2052 -45.4770 -34.5444
v  271.7336 -45.5586 -31.3644
v  272.0361 -45.6145 -28.2229
v  272.3923 -45.6921 -24.2713
v  272.7222 -45.7449 -19.9139
v  272.9438 -45.7820 -15.3175
v  273.1945 -45.7934 -10.2167
v  273.3186 -45.7988 -5.3690
v  19.2887 -51.8432 -88.1406
v  29.4864 -51.8750 -88.1406
v  39.6783 -51.9704 -88.1406
v  49.8703 -52.0658 -88.1405
v  59.9345 -52.1987 -88.1406
v  69.9986 -52.3317 -88.1406
v  79.8128 -52.4762 -88.1406
v  132.5138 -53.7198 -88.1406
v  133.7278 -53.7622 -88.1406
v  -196.5356 -49.0458 -66.1413
v  -101.2437 -51.9667 -88.1405
v  -103.6715 -51.9853 -88.1405
v  110.0963 -52.9994 -88.1406
v  114.6267 -53.1064 -88.1406
v  -38.1119 -51.8143 -88.1405
v  225.7812 -53.7631 -90.1961
v  -242.1698 -42.0780 -81.3195
v  -215.4543 -47.6709 -83.1889
v  -208.5171 -49.1121 -83.2146
v  -262.4048 -39.8956 -29.7261
v  -261.9824 -39.8831 -36.5456
v  -263.1092 -39.9317 -15.2356
v  -262.7830 -39.9133 -22.8447
v  -235.6727 -43.5616 -82.0906
v  -229.5087 -44.8284 -82.6166
v  -222.9843 -46.1439 -82.9848
v  -201.7263 -50.5855 -83.0499
v  -196.6478 -51.7669 -82.8098
v  -254.5546 -39.7892 -77.3295
v  -256.1819 -41.1442 -74.5847
v  -255.5314 -40.6439 -76.2104
v  -256.2174 -41.1821 -75.0731
v  -263.3127 -39.9469 -7.6264
v  -263.6442 -40.2309 -51.7497
v  -262.4957 -40.4654 -48.1698
v  -264.0467 -40.4195 -48.8832
v  -253.9055 -39.0989 -79.5020
v  -247.9394 -40.6690 -80.5714
v  -253.8822 -39.4405 -79.8853
v  -261.8764 -39.9074 -42.3534
v  -261.9567 -39.9838 -44.3133
v  -262.2402 -40.2169 -46.3441
v  -264.0506 -40.3878 -49.0302
v  -264.1718 -40.2860 -50.1688
v  -264.0779 -40.2309 -51.3263
v  -254.4838 -39.8792 -77.6905
v  -254.0154 -39.8868 -79.6351
v  -254.5619 -40.3676 -78.7501
v  -254.6913 -40.3552 -78.2873
v  -263.9376 -40.3392 -48.8264
# 244 vertices

vn 0.0021 -1.0000 0.0046
vn 0.0042 -1.0000 0.0023
vn -0.0190 -0.9998 -0.0000
vn 0.0053 -1.0000 0.0016
vn 0.0077 -1.0000 0.0000
vn -0.0336 -0.9994 0.0010
vn -0.0096 -1.0000 0.0000
vn -0.0344 -0.9994 0.0003
vn -0.0349 -0.9994 -0.0000
vn -0.0154 -0.9999 0.0064
vn -0.0049 -1.0000 -0.0000
vn -0.0170 -0.9998 0.0054
vn -0.0243 -0.9997 0.0029
vn 0.0005 -1.0000 0.0019
vn 0.0009 -1.0000 0.0016
vn -0.0166 -0.9999 -0.0000
vn 0.0026 -1.0000 0.0009
vn 0.0017 -1.0000 0.0050
vn 0.4283 -0.9026 0.0442
vn 0.6224 -0.7827 -0.0000
vn 0.1573 -0.9872 0.0268
vn 0.4075 -0.9132 -0.0000
vn -0.0076 -0.9999 0.0126
vn 0.0000 -1.0000 0.0023
vn 0.0001 -1.0000 0.0022
vn 0.0091 -1.0000 -0.0002
vn 0.0054 -1.0000 -0.0000
vn 0.0134 -0.9999 -0.0005
vn 0.0247 -0.9997 -0.0000
vn 0.0268 -0.9996 -0.0010
vn 0.0439 -0.9990 -0.0000
vn 0.0834 -0.9965 -0.0000
vn 0.0893 -0.9960 -0.0000
vn 0.1123 -0.9937 -0.0000
vn 0.1233 -0.9924 -0.0000
vn 0.1595 -0.9872 -0.0000
vn 0.1789 -0.9839 -0.0000
vn 0.0062 -1.0000 -0.0001
vn 0.0199 -0.9998 -0.0012
vn 0.0021 -1.0000 -0.0000
vn 0.0614 -0.9981 -0.0000
vn 0.0655 -0.9979 -0.0000
vn 0.2340 -0.9722 -0.0000
vn 0.2650 -0.9643 -0.0000
vn 0.3469 -0.9379 -0.0000
vn 0.4006 -0.9163 -0.0000
vn 0.5262 -0.8504 -0.0000
vn 0.4638 -0.8859 -0.0000
vn 0.7671 -0.6415 0.0015
vn 0.4070 -0.9134 -0.0000
vn 0.8253 -0.5645 0.0129
vn 0.2959 -0.9552 -0.0000
vn 0.8863 -0.4622 0.0302
vn 0.3768 -0.9263 -0.0000
vn 0.9117 -0.4076 0.0523
vn 0.7008 -0.7134 -0.0000
vn 0.9045 -0.4221 0.0614
vn 0.7879 -0.6159 -0.0000
vn 0.9567 -0.2841 0.0634
vn 0.7283 -0.6853 -0.0000
vn 0.0462 -0.9987 0.0192
vn 0.1637 -0.9862 0.0242
vn 0.2808 -0.9594 0.0280
vn -0.0396 -0.9990 0.0189
vn 0.0228 -0.9995 0.0200
vn 0.0046 -0.9998 0.0198
vn 0.0972 -0.9951 0.0192
vn 0.1887 -0.9819 0.0168
vn 0.2450 -0.9694 0.0140
vn 0.2954 -0.9553 0.0091
vn 0.2744 -0.9616 -0.0000
vn -0.0031 -0.9998 0.0195
vn -0.0045 -0.9998 0.0179
vn -0.0094 -0.9999 0.0118
vn -0.0103 -0.9999 0.0109
vn -0.0132 -0.9999 0.0079
vn -0.0136 -0.9999 0.0076
vn -0.0147 -0.9999 0.0067
vn -0.0349 -0.9994 0.0000
vn -0.0811 -0.9967 0.0014
vn -0.0681 -0.9977 -0.0000
vn -0.0236 -0.9997 0.0119
vn -0.0262 -0.9996 0.0090
vn 0.0003 -1.0000 0.0020
vn 0.0032 -1.0000 -0.0000
vn -0.1305 -0.9914 -0.0000
vn -0.1299 -0.9915 -0.0002
vn -0.1344 -0.9909 -0.0000
vn -0.1126 -0.9936 -0.0000
vn -0.1416 -0.9899 -0.0010
vn 0.0000 -1.0000 -0.0000
vn -0.1329 -0.9911 0.0032
vn 0.6932 -0.7185 -0.0563
vn 0.6916 -0.7201 -0.0552
vn -0.0978 -0.9951 -0.0157
vn 0.6318 -0.7750 -0.0143
vn -0.0414 -0.9990 -0.0177
vn -0.0608 -0.9980 -0.0197
vn -0.0509 -0.9985 -0.0191
vn -0.1188 -0.9929 0.0002
vn -0.1185 -0.9930 -0.0001
vn -0.1245 -0.9922 0.0039
vn -0.3897 -0.9207 -0.0196
vn -0.0644 -0.9977 -0.0199
vn -0.4536 -0.8832 0.1187
vn -0.1191 -0.9901 0.0742
vn -0.0503 -0.9974 0.0516
vn -0.0949 -0.9939 -0.0568
vn -0.3706 -0.7455 0.5540
vn 0.8077 -0.5558 -0.1967
vn 0.8048 -0.5593 -0.1986
vn 0.8014 -0.5634 -0.2007
vn 0.7551 -0.6147 -0.2277
vn -0.1916 -0.4359 0.8794
vn -0.1319 -0.9909 0.0279
vn -0.6418 0.7459 -0.1781
vn 0.0021 -1.0000 -0.0046
vn -0.0190 -0.9998 0.0000
vn 0.0042 -1.0000 -0.0023
vn 0.0053 -1.0000 -0.0016
vn 0.0077 -1.0000 -0.0000
vn -0.0336 -0.9994 -0.0010
vn -0.0344 -0.9994 -0.0003
vn -0.0096 -1.0000 -0.0000
vn -0.0154 -0.9999 -0.0064
vn -0.0170 -0.9998 -0.0054
vn -0.0243 -0.9997 -0.0029
vn 0.0005 -1.0000 -0.0019
vn 0.0009 -1.0000 -0.0016
vn 0.0026 -1.0000 -0.0009
vn 0.0017 -1.0000 -0.0050
vn 0.4283 -0.9026 -0.0442
vn 0.1573 -0.9872 -0.0268
vn -0.0076 -0.9999 -0.0126
vn 0.0000 -1.0000 -0.0023
vn 0.0001 -1.0000 -0.0022
vn 0.0091 -1.0000 0.0002
vn 0.0134 -0.9999 0.0005
vn 0.0268 -0.9996 0.0010
vn 0.0062 -1.0000 0.0001
vn 0.0199 -0.9998 0.0012
vn 0.3469 -0.9379 0.0000
vn 0.7671 -0.6415 -0.0015
vn 0.8253 -0.5646 -0.0129
vn 0.8863 -0.4622 -0.0302
vn 0.9117 -0.4076 -0.0523
vn 0.9045 -0.4220 -0.0614
vn 0.9567 -0.2841 -0.0634
vn 0.0462 -0.9987 -0.0192
vn 0.1637 -0.9862 -0.0242
vn 0.2808 -0.9594 -0.0280
vn -0.0396 -0.9990 -0.0189
vn 0.0228 -0.9995 -0.0200
vn 0.0046 -0.9998 -0.0198
vn 0.0972 -0.9951 -0.0192
vn 0.1887 -0.9819 -0.0168
vn 0.2450 -0.9694 -0.0140
vn 0.2954 -0.9553 -0.0091
vn -0.0031 -0.9998 -0.0195
vn -0.0045 -0.9998 -0.0179
vn -0.0094 -0.9999 -0.0118
vn -0.0103 -0.9999 -0.0109
vn -0.0132 -0.9999 -0.0079
vn -0.0136 -0.9999 -0.0076
vn -0.0147 -0.9999 -0.0067
vn -0.0811 -0.9967 -0.0014
vn -0.0236 -0.9997 -0.0119
vn -0.0262 -0.9996 -0.0090
vn 0.0003 -1.0000 -0.0020
vn -0.1299 -0.9915 0.0002
vn -0.1344 -0.9909 0.0000
vn -0.1416 -0.9899 0.0010
vn -0.1329 -0.9911 -0.0032
vn 0.6932 -0.7185 0.0563
vn -0.0978 -0.9951 0.0157
vn 0.6916 -0.7201 0.0552
vn 0.6318 -0.7750 0.0143
vn -0.0414 -0.9990 0.0177
vn -0.0509 -0.9985 0.0191
vn -0.0608 -0.9980 0.0197
vn -0.1188 -0.9929 -0.0002
vn -0.1245 -0.9922 -0.0039
vn -0.1185 -0.9930 0.0001
vn -0.3897 -0.9207 0.0196
vn -0.0644 -0.9977 0.0199
vn -0.4535 -0.8833 -0.1187
vn -0.1191 -0.9901 -0.0742
vn -0.0503 -0.9974 -0.0516
vn -0.0949 -0.9939 0.0568
vn -0.3706 -0.7455 -0.5540
vn 0.8077 -0.5558 0.1967
vn 0.8014 -0.5634 0.2007
vn 0.8048 -0.5593 0.1986
vn 0.7551 -0.6147 0.2277
vn -0.1916 -0.4359 -0.8794
vn -0.1319 -0.9909 -0.0279
vn -0.6418 0.7459 0.1781
# 197 vertex normals

g X3088_FLOR_C_N_X3088_FLOR_C
usemtl diffuse_black_plasticSG
s 1
f 1//1 2//2 3//3 
f 2//2 4//4 3//3 
f 3//3 4//4 5//5 
f 6//6 7//7 8//8 
f 8//8 7//7 9//9 
f 7//7 10//9 9//9 
f 11//10 12//11 13//12 
f 13//12 12//11 14//13 
f 7//7 14//13 12//11 
f 15//9 7//7 16//9 
f 16//9 7//7 17//9 
f 17//9 7//7 18//9 
f 19//14 20//15 21//16 
f 20//15 22//17 21//16 
f 22//17 3//3 21//16 
f 22//17 23//18 3//3 
f 1//1 3//3 23//18 
f 24//19 25//20 26//21 
f 26//21 25//20 27//22 
f 28//23 29//24 21//16 
f 29//24 30//24 21//16 
f 30//24 31//24 21//16 
f 21//16 31//24 32//25 
f 33//26 34//27 35//28 
f 34//27 36//29 37//30 
f 37//30 36//29 38//31 
f 39//5 3//3 40//5 
f 41//32 42//33 43//34 
f 43//34 42//33 44//35 
f 43//34 44//35 45//36 
f 45//36 44//35 46//37 
f 47//38 34//27 33//26 
f 35//28 34//27 48//39 
f 7//7 12//11 49//40 
f 49//40 12//11 34//27 
f 48//39 34//27 37//30 
f 38//31 36//29 50//41 
f 50//41 36//29 51//42 
f 50//41 51//42 41//32 
f 41//32 51//42 42//33 
f 45//36 46//37 52//43 
f 52//43 46//37 53//44 
f 52//43 53//44 54//45 
f 54//45 53//44 55//46 
f 54//45 55//46 56//47 
f 56//47 55//46 57//48 
f 56//47 57//48 58//49 
f 58//49 57//48 59//50 
f 58//49 59//50 60//51 
f 60//51 59//50 61//52 
f 62//53 63//54 64//55 
f 64//55 63//54 65//56 
f 64//55 65//56 66//57 
f 66//57 65//56 67//58 
f 66//57 67//58 68//59 
f 68//59 67//58 69//60 
f 70//61 27//22 71//62 
f 71//62 27//22 72//63 
f 72//63 27//22 73//64 
f 73//64 27//22 74//65 
f 74//65 27//22 75//66 
f 75//66 27//22 76//67 
f 76//67 27//22 77//68 
f 77//68 27//22 78//69 
f 78//69 27//22 79//70 
f 27//22 80//71 79//70 
f 28//23 12//11 81//72 
f 81//72 12//11 82//73 
f 82//73 12//11 83//74 
f 12//11 84//75 83//74 
f 84//75 12//11 85//76 
f 85//76 12//11 86//77 
f 86//77 12//11 87//78 
f 12//11 11//10 87//78 
f 25//20 24//19 69//60 
f 69//60 24//19 68//59 
f 10//9 7//7 88//79 
f 88//79 7//7 89//9 
f 7//7 15//9 89//9 
f 90//80 91//81 3//3 
f 3//3 91//81 21//16 
f 92//5 3//3 5//5 
f 92//5 93//5 3//3 
f 93//5 40//5 3//3 
f 14//13 7//7 94//82 
f 94//82 7//7 95//83 
f 7//7 6//6 95//83 
f 60//51 61//52 62//53 
f 62//53 61//52 63//54 
f 32//25 96//84 21//16 
f 19//14 21//16 96//84 
f 97//85 49//40 47//38 
f 47//38 49//40 34//27 
f 26//21 27//22 70//61 
f 98//86 90//80 99//87 
f 100//88 90//80 101//88 
f 102//89 103//90 104//91 
f 105//91 102//89 106//91 
f 107//92 90//80 108//88 
f 108//88 90//80 109//88 
f 110//88 90//80 111//88 
f 99//87 90//80 107//92 
f 101//88 90//80 110//88 
f 109//88 90//80 100//88 
s 17
f 112//93 113//94 114//95 
f 114//95 113//94 115//96 
s 1
f 102//89 116//91 117//91 
s 18
f 118//97 119//98 120//99 
s 1
f 102//89 104//91 106//91 
f 102//89 98//86 114//95 
f 114//95 98//86 99//87 
s off
f 120//99 114//95 118//97 
f 121//100 122//101 123//102 
f 103//90 114//95 124//103 
f 124//103 114//95 125//104 
s 20
f 125//104 114//95 126//91 
f 120//99 126//91 114//95 
s 1
f 91//81 90//80 98//86 
f 116//91 102//89 105//91 
f 114//95 103//90 102//89 
s 18
f 119//98 118//97 127//105 
f 127//105 118//97 128//106 
f 118//97 129//107 128//106 
s 21
f 130//108 112//109 123//102 
s 22
f 131//110 132//111 130//112 
f 130//112 132//111 133//113 
s 21
f 99//87 123//102 114//95 
f 114//95 123//102 112//109 
s off
f 122//101 131//114 123//102 
s 21
f 123//102 131//115 130//108 
s off
f 127//116 134//116 119//116 
s 1
f 12//11 28//23 21//16 
f 135//117 136//118 137//119 
f 137//119 136//118 138//120 
f 136//118 139//121 138//120 
f 140//122 141//123 142//124 
f 141//123 143//79 142//124 
f 143//79 144//79 142//124 
f 145//125 146//126 12//11 
f 146//126 147//127 12//11 
f 142//124 12//11 147//127 
f 148//79 149//79 142//124 
f 149//79 150//79 142//124 
f 150//79 151//9 142//124 
f 152//128 21//16 153//129 
f 153//129 21//16 154//130 
f 154//130 21//16 136//118 
f 154//130 136//118 155//131 
f 135//117 155//131 136//118 
f 156//132 157//133 25//20 
f 25//20 157//133 27//22 
f 158//134 21//16 159//135 
f 159//135 21//16 160//135 
f 160//135 21//16 161//135 
f 21//16 162//136 161//135 
f 163//137 164//138 34//27 
f 165//31 36//29 166//139 
f 166//139 36//29 34//27 
f 167//121 168//121 136//118 
f 169//32 170//34 42//33 
f 42//33 170//34 44//35 
f 170//34 171//36 44//35 
f 44//35 171//36 46//37 
f 172//140 163//137 34//27 
f 164//138 173//141 34//27 
f 142//124 174//40 12//11 
f 12//11 174//40 34//27 
f 173//141 166//139 34//27 
f 165//31 175//41 36//29 
f 36//29 175//41 51//42 
f 175//41 169//32 51//42 
f 51//42 169//32 42//33 
f 171//36 176//43 46//37 
f 46//37 176//43 53//44 
f 176//43 177//142 53//44 
f 53//44 177//142 55//46 
f 177//142 178//47 55//46 
f 55//46 178//47 57//48 
f 178//47 179//143 57//48 
f 57//48 179//143 59//50 
f 179//143 180//144 59//50 
f 59//50 180//144 61//52 
f 181//145 182//146 63//54 
f 63//54 182//146 65//56 
f 182//146 183//147 65//56 
f 65//56 183//147 67//58 
f 183//147 184//148 67//58 
f 67//58 184//148 69//60 
f 185//149 186//150 27//22 
f 186//150 187//151 27//22 
f 187//151 188//152 27//22 
f 188//152 189//153 27//22 
f 189//153 190//154 27//22 
f 190//154 191//155 27//22 
f 191//155 192//156 27//22 
f 192//156 193//157 27//22 
f 193//157 194//158 27//22 
f 194//158 80//71 27//22 
f 158//134 195//159 12//11 
f 195//159 196//160 12//11 
f 196//160 197//161 12//11 
f 12//11 197//161 198//162 
f 198//162 199//163 12//11 
f 199//163 200//164 12//11 
f 200//164 201//165 12//11 
f 12//11 201//165 145//125 
f 184//148 156//132 69//60 
f 69//60 156//132 25//20 
f 144//79 202//9 142//124 
f 202//9 203//9 142//124 
f 142//124 203//9 148//79 
f 204//166 136//118 91//81 
f 91//81 136//118 21//16 
f 205//121 139//121 136//118 
f 205//121 136//118 206//121 
f 206//121 136//118 168//121 
f 147//127 207//167 142//124 
f 207//167 208//168 142//124 
f 142//124 208//168 140//122 
f 180//144 181//145 61//52 
f 61//52 181//145 63//54 
f 162//136 21//16 209//169 
f 152//128 209//169 21//16 
f 34//27 174//40 172//140 
f 172//140 174//40 210//85 
f 157//133 185//149 27//22 
f 98//86 211//170 204//166 
f 212//88 213//171 204//166 
f 102//89 214//91 215//172 
f 216//91 217//91 102//89 
f 218//173 219//88 204//166 
f 219//88 220//88 204//166 
f 221//171 222//88 204//166 
f 211//170 218//173 204//166 
f 213//171 221//171 204//166 
f 220//88 212//88 204//166 
s 37
f 223//174 224//175 225//176 
f 225//176 224//175 226//177 
s 1
f 102//89 117//91 227//91 
s 38
f 228//178 229//179 230//180 
s 1
f 102//89 217//91 214//91 
f 102//89 224//175 98//86 
f 98//86 224//175 211//170 
s off
f 229//179 228//178 224//175 
f 231//181 232//182 233//183 
f 215//172 234//184 224//175 
f 234//184 235//185 224//175 
s 39
f 235//185 236//91 224//175 
f 229//179 224//175 236//91 
s 1
f 91//81 98//86 204//166 
f 227//91 216//91 102//89 
f 224//175 102//89 215//172 
s 38
f 230//180 237//186 228//178 
f 237//186 238//187 228//178 
f 238//187 239//188 228//178 
s 40
f 240//189 232//182 223//190 
s 41
f 241//191 240//192 242//193 
f 242//193 240//192 243//194 
s 40
f 223//190 232//182 224//175 
f 224//175 232//182 211//170 
s off
f 233//183 232//182 241//195 
s 40
f 232//182 240//189 241//196 
s off
f 237//197 230//197 244//197 
s 1
f 12//11 21//16 158//134 
# 264 faces

