# 3ds Max Wavefront OBJ Exporter v0.97b - (c)2007 guruware
# File Created: 11.12.2015 18:08:24

mtllib U234_324H_R.mtl

#
# object U234_324H_R_DTaSI_U234_324H_R
#

v  -130.0442 53.3628 89.1759
v  -124.6292 53.1487 89.3128
v  -127.6676 58.1699 86.6839
v  -123.1694 58.0511 86.7735
v  -121.4592 63.4799 83.6725
v  -124.8043 63.5537 83.6145
v  -118.4282 63.4061 83.7279
v  -119.0954 57.9352 86.8555
v  -119.6752 52.9441 89.4371
v  -128.8368 68.7713 80.3233
v  -128.0928 68.7507 80.3371
v  -123.8282 72.8880 77.5437
v  -123.3072 72.7991 77.6081
v  -133.4343 63.7199 83.4637
v  -134.3853 63.7358 83.4466
v  -117.3308 75.5967 75.5714
v  -119.0775 74.6751 76.2811
v  -117.2522 74.5813 76.3379
v  -118.6741 74.0023 76.7766
v  -118.7814 72.2104 78.0203
v  -117.3621 72.4615 77.8351
v  -120.2720 71.4338 78.5567
v  -120.7939 72.2381 78.0084
v  -121.7740 72.5441 77.7932
v  -116.4965 52.8091 89.5179
v  -116.3800 57.8490 86.9145
v  -116.2542 63.3430 83.7731
v  -114.6375 57.3232 87.2883
v  -114.7736 62.9369 84.0896
v  -114.4986 51.4659 90.2137
v  -117.7938 68.5426 80.4816
v  -116.1456 68.5145 80.5019
v  -116.0697 72.5151 77.7917
v  -114.8944 68.2120 80.7312
v  -114.9901 73.0565 77.3526
v  -116.0266 75.3889 75.7107
v  -115.0538 77.2720 74.1953
v  -116.7607 39.8368 94.9971
v  -116.7344 41.2376 94.4326
v  -120.9469 40.1916 94.8384
v  -120.8341 41.6063 94.2617
v  -114.2797 41.3189 94.4594
v  -114.7412 39.7241 95.0482
v  -142.3298 43.5429 93.2966
v  -139.4554 42.6882 93.7080
v  -141.8705 44.7315 92.8222
v  -139.0028 43.9758 93.1692
v  -134.6959 41.8101 94.1123
v  -134.2976 43.1516 93.5448
v  -114.1845 39.0282 95.3540
v  -119.8188 68.5399 80.4831
v  -122.0015 68.4875 80.5179
v  -119.8285 75.4174 75.7153
v  -120.0937 75.6783 75.5165
v  -117.5082 76.8852 74.5720
v  -117.5722 77.3411 74.2183
v  -116.0116 77.2787 74.2402
v  -116.0063 78.2173 73.5038
v  -115.0697 78.8843 72.9340
v  -115.2028 78.1401 73.5276
v  -115.2649 78.7549 73.0402
v  -144.0174 50.5073 90.3714
v  -145.4351 50.5006 90.4001
v  -144.6926 48.3633 91.2864
v  -146.0644 48.3241 91.3418
v  -143.4341 53.7562 88.8264
v  -142.0925 53.7462 88.8403
v  -138.3823 58.4006 86.4443
v  -139.5489 58.4173 86.4181
v  -117.4316 76.3360 74.9981
v  -119.5089 75.1026 75.9552
v  -122.6720 72.6915 77.6861
v  -132.2450 63.6997 83.4850
v  -127.1711 68.7254 80.3543
v  -125.7862 68.6878 80.3801
v  -130.3960 63.6661 83.5177
v  -134.6755 58.3320 86.5342
v  -136.9281 58.3757 86.4806
v  -140.4487 53.7066 88.8886
v  -137.9454 53.6346 88.9639
v  -143.7000 45.4104 92.5018
v  -144.1935 44.4332 92.8565
v  -144.6406 45.9248 92.2645
v  -145.3648 45.4532 92.4074
v  -144.8079 46.8333 91.9035
v  -145.9878 46.7096 91.9470
v  -140.7674 47.9237 91.5227
v  -143.1227 48.2021 91.3723
v  -141.4148 46.0689 92.2787
v  -143.4891 46.5443 92.0481
v  -127.7227 40.9096 94.5178
v  -127.4610 42.2985 93.9392
v  -127.0167 44.0684 93.2198
v  -120.6511 43.4273 93.5259
v  -133.6485 44.8189 92.8636
v  -126.3976 46.4912 92.2417
v  -132.7451 47.0801 91.9489
v  -120.3964 45.9564 92.5061
v  -116.6964 43.0623 93.6980
v  -116.6441 45.6321 92.6638
v  -114.3718 45.7031 92.7139
v  -139.8106 50.2822 90.5321
v  -142.3351 50.4267 90.4299
v  -125.6578 49.3919 91.0443
v  -120.0918 49.0258 91.2386
v  -131.6478 49.7806 90.8328
v  -116.5816 48.7950 91.3589
v  -137.4911 47.5581 91.7103
v  -138.3705 45.4936 92.5485
v  -134.5283 53.5246 89.0588
v  -136.3659 50.0759 90.6628
v  -131.5809 58.2646 86.6026
v  -127.8699 63.6170 83.5616
v  -123.9998 68.6135 80.4314
# 114 vertices

vn -0.0059 0.4441 0.8959
vn -0.0047 0.4426 0.8967
vn -0.0053 0.4797 0.8774
vn -0.0042 0.4792 0.8777
vn -0.0032 0.5138 0.8579
vn -0.0038 0.5134 0.8581
vn -0.0029 0.5146 0.8574
vn -0.0039 0.4788 0.8779
vn -0.0044 0.4417 0.8972
vn -0.0011 0.5360 0.8442
vn -0.0009 0.5424 0.8401
vn -0.0042 0.5694 0.8221
vn -0.0036 0.5727 0.8198
vn -0.0069 0.5124 0.8587
vn -0.0073 0.5043 0.8635
vn 0.0064 0.6087 0.7934
vn -0.0075 0.5950 0.8037
vn 0.0178 0.5880 0.8086
vn 0.0022 0.5798 0.8148
vn 0.0061 0.5624 0.8269
vn 0.0064 0.5651 0.8250
vn 0.0014 0.5570 0.8305
vn -0.0027 0.5661 0.8243
vn -0.0040 0.5690 0.8223
vn -0.0111 0.4404 0.8977
vn -0.0197 0.4796 0.8773
vn -0.0178 0.5169 0.8559
vn -0.0402 0.4714 0.8810
vn -0.0418 0.5113 0.8584
vn -0.0201 0.4224 0.9062
vn -0.0003 0.5446 0.8387
vn -0.0072 0.5501 0.8351
vn 0.0288 0.5673 0.8230
vn -0.0211 0.5493 0.8354
vn 0.0420 0.5784 0.8147
vn 0.0556 0.5991 0.7987
vn 0.0534 0.6100 0.7906
vn -0.0082 0.3702 0.9289
vn -0.0112 0.3740 0.9274
vn -0.0049 0.3781 0.9258
vn -0.0057 0.3764 0.9264
vn -0.0228 0.3674 0.9298
vn -0.0221 0.3519 0.9358
vn -0.0262 0.3793 0.9249
vn -0.0088 0.3871 0.9220
vn -0.0193 0.3797 0.9249
vn -0.0079 0.3848 0.9230
vn -0.0041 0.3904 0.9206
vn -0.0054 0.3850 0.9229
vn -0.0599 0.3610 0.9307
vn 0.0001 0.5420 0.8404
vn -0.0012 0.5411 0.8409
vn -0.0067 0.6015 0.7989
vn -0.0055 0.6021 0.7984
vn 0.0065 0.6134 0.7897
vn 0.0093 0.6147 0.7887
vn 0.0262 0.6150 0.7881
vn 0.0321 0.6164 0.7868
vn 0.0415 0.6154 0.7871
vn -0.0617 -0.6156 -0.7857
vn -0.0136 -0.6220 -0.7829
vn 0.0015 0.4149 0.9099
vn 0.0180 0.4069 0.9133
vn 0.0070 0.3851 0.9229
vn 0.0214 0.3787 0.9253
vn -0.0037 0.4431 0.8965
vn -0.0106 0.4508 0.8926
vn -0.0132 0.4823 0.8759
vn -0.0125 0.4757 0.8795
vn 0.0078 0.6135 0.7897
vn -0.0087 0.5999 0.8000
vn -0.0040 0.5707 0.8212
vn -0.0065 0.5122 0.8588
vn -0.0012 0.5421 0.8403
vn -0.0016 0.5428 0.8399
vn -0.0056 0.5130 0.8584
vn -0.0099 0.4813 0.8765
vn -0.0124 0.4818 0.8762
vn -0.0142 0.4509 0.8925
vn -0.0116 0.4491 0.8934
vn -0.0272 0.3673 0.9297
vn -0.0362 0.3641 0.9306
vn -0.0382 0.3632 0.9309
vn -0.0315 0.3523 0.9354
vn -0.0070 0.3651 0.9309
vn -0.0019 0.3479 0.9375
vn -0.0114 0.3867 0.9221
vn -0.0129 0.3881 0.9215
vn -0.0128 0.3805 0.9247
vn -0.0178 0.3778 0.9257
vn -0.0039 0.3855 0.9227
vn -0.0053 0.3810 0.9245
vn -0.0068 0.3768 0.9263
vn -0.0067 0.3749 0.9271
vn -0.0071 0.3788 0.9254
vn -0.0072 0.3798 0.9251
vn -0.0077 0.3813 0.9244
vn -0.0069 0.3787 0.9255
vn -0.0154 0.3723 0.9280
vn -0.0158 0.3779 0.9257
vn -0.0237 0.3811 0.9243
vn -0.0113 0.4128 0.9108
vn -0.0125 0.4157 0.9094
vn -0.0060 0.4035 0.9150
vn -0.0056 0.4022 0.9155
vn -0.0069 0.4054 0.9141
vn -0.0089 0.3999 0.9165
vn -0.0089 0.3838 0.9234
vn -0.0085 0.3803 0.9248
vn -0.0083 0.4466 0.8947
vn -0.0086 0.4088 0.9126
vn -0.0074 0.4805 0.8770
vn -0.0046 0.5134 0.8581
vn -0.0021 0.5428 0.8399
# 114 vertex normals

vt 0.1155 0.1149 0.0000
vt 0.1389 0.1130 0.0000
vt 0.1265 0.1379 0.0000
vt 0.1459 0.1367 0.0000
vt 0.1542 0.1634 0.0000
vt 0.1397 0.1643 0.0000
vt 0.1672 0.1626 0.0000
vt 0.1635 0.1355 0.0000
vt 0.1602 0.1113 0.0000
vt 0.1232 0.1914 0.0000
vt 0.1264 0.1912 0.0000
vt 0.1454 0.2122 0.0000
vt 0.1477 0.2116 0.0000
vt 0.1025 0.1664 0.0000
vt 0.0984 0.1666 0.0000
vt 0.1739 0.2257 0.0000
vt 0.1662 0.2210 0.0000
vt 0.1741 0.2202 0.0000
vt 0.1679 0.2173 0.0000
vt 0.1671 0.2079 0.0000
vt 0.1733 0.2091 0.0000
vt 0.1605 0.2040 0.0000
vt 0.1584 0.2083 0.0000
vt 0.1543 0.2101 0.0000
vt 0.1739 0.1102 0.0000
vt 0.1752 0.1347 0.0000
vt 0.1766 0.1620 0.0000
vt 0.1837 0.1340 0.0000
vt 0.1841 0.1614 0.0000
vt 0.1833 0.1095 0.0000
vt 0.1708 0.1887 0.0000
vt 0.1779 0.1884 0.0000
vt 0.1789 0.2092 0.0000
vt 0.1844 0.1880 0.0000
vt 0.1847 0.2153 0.0000
vt 0.1795 0.2245 0.0000
vt 0.1835 0.2285 0.0000
vt 0.1708 0.0495 0.0000
vt 0.1711 0.0560 0.0000
vt 0.1528 0.0518 0.0000
vt 0.1535 0.0583 0.0000
vt 0.1810 0.0581 0.0000
vt 0.1795 0.0487 0.0000
vt 0.0611 0.0706 0.0000
vt 0.0733 0.0662 0.0000
vt 0.0632 0.0761 0.0000
vt 0.0755 0.0721 0.0000
vt 0.0937 0.0613 0.0000
vt 0.0957 0.0676 0.0000
vt 0.1845 0.0488 0.0000
vt 0.1620 0.1890 0.0000
vt 0.1526 0.1890 0.0000
vt 0.1631 0.2251 0.0000
vt 0.1620 0.2265 0.0000
vt 0.1734 0.2328 0.0000
vt 0.1732 0.2353 0.0000
vt 0.1799 0.2348 0.0000
vt 0.1801 0.2400 0.0000
vt 0.1846 0.2358 0.0000
vt 0.1839 0.2421 0.0000
vt 0.1863 0.2394 0.0000
vt 0.1861 0.2428 0.0000
vt 0.0548 0.1035 0.0000
vt 0.0487 0.1036 0.0000
vt 0.0516 0.0935 0.0000
vt 0.0457 0.0934 0.0000
vt 0.0579 0.1189 0.0000
vt 0.0636 0.1187 0.0000
vt 0.0804 0.1407 0.0000
vt 0.0753 0.1410 0.0000
vt 0.1736 0.2298 0.0000
vt 0.1644 0.2233 0.0000
vt 0.1504 0.2110 0.0000
vt 0.1077 0.1661 0.0000
vt 0.1303 0.1910 0.0000
vt 0.1363 0.1906 0.0000
vt 0.1156 0.1656 0.0000
vt 0.0963 0.1398 0.0000
vt 0.0866 0.1404 0.0000
vt 0.0707 0.1182 0.0000
vt 0.0815 0.1174 0.0000
vt 0.0554 0.0796 0.0000
vt 0.0532 0.0752 0.0000
vt 0.0515 0.0822 0.0000
vt 0.0483 0.0801 0.0000
vt 0.0509 0.0864 0.0000
vt 0.0458 0.0860 0.0000
vt 0.0685 0.0908 0.0000
vt 0.0583 0.0925 0.0000
vt 0.0654 0.0823 0.0000
vt 0.0565 0.0848 0.0000
vt 0.1237 0.0561 0.0000
vt 0.1250 0.0625 0.0000
vt 0.1272 0.0707 0.0000
vt 0.1546 0.0668 0.0000
vt 0.0987 0.0752 0.0000
vt 0.1302 0.0819 0.0000
vt 0.1029 0.0856 0.0000
vt 0.1560 0.0785 0.0000
vt 0.1716 0.0645 0.0000
vt 0.1722 0.0764 0.0000
vt 0.1815 0.0809 0.0000
vt 0.0730 0.1017 0.0000
vt 0.0621 0.1028 0.0000
vt 0.1339 0.0953 0.0000
vt 0.1578 0.0928 0.0000
vt 0.1081 0.0981 0.0000
vt 0.1729 0.0912 0.0000
vt 0.0825 0.0886 0.0000
vt 0.0784 0.0791 0.0000
vt 0.0962 0.1163 0.0000
vt 0.0878 0.1002 0.0000
vt 0.1097 0.1390 0.0000
vt 0.1265 0.1650 0.0000
vt 0.1440 0.1899 0.0000
# 115 texture coords

g U234_324H_R_DTaSI_U234_324H_R
usemtl windowglass_1SG
s 1
f 1/1/1 2/2/2 3/3/3 
f 2/2/2 4/4/4 3/3/3 
f 5/5/5 6/6/6 4/4/4 
f 6/6/6 3/3/3 4/4/4 
f 7/7/7 5/5/5 8/8/8 
f 5/5/5 4/4/4 8/8/8 
f 2/2/2 9/9/9 4/4/4 
f 9/9/9 8/8/8 4/4/4 
f 10/10/10 11/11/11 12/12/12 
f 11/11/11 13/13/13 12/12/12 
f 11/11/11 10/10/10 14/14/14 
f 10/10/10 15/15/15 14/14/14 
f 16/16/16 17/17/17 18/18/18 
f 17/17/17 19/19/19 18/18/18 
f 20/20/20 21/21/21 19/19/19 
f 21/21/21 18/18/18 19/19/19 
f 22/22/22 20/20/20 23/23/23 
f 20/20/20 19/19/19 23/23/23 
f 24/24/24 23/23/23 17/17/17 
f 23/23/23 19/19/19 17/17/17 
f 9/9/9 25/25/25 8/8/8 
f 25/25/25 26/26/26 8/8/8 
f 27/27/27 7/7/7 26/26/26 
f 7/7/7 8/8/8 26/26/26 
f 28/28/28 29/29/29 26/26/26 
f 29/29/29 27/27/27 26/26/26 
f 30/30/30 28/28/28 25/25/25 
f 28/28/28 26/26/26 25/25/25 
f 7/7/7 27/27/27 31/31/31 
f 27/27/27 32/32/32 31/31/31 
f 33/33/33 21/21/21 32/32/32 
f 21/21/21 31/31/31 32/32/32 
f 34/34/34 35/35/35 32/32/32 
f 35/35/35 33/33/33 32/32/32 
f 29/29/29 34/34/34 27/27/27 
f 34/34/34 32/32/32 27/27/27 
f 16/16/16 18/18/18 36/36/36 
f 37/37/37 36/36/36 35/35/35 
f 33/33/33 35/35/35 36/36/36 
f 21/21/21 33/33/33 18/18/18 
f 33/33/33 36/36/36 18/18/18 
f 38/38/38 39/39/39 40/40/40 
f 39/39/39 41/41/41 40/40/40 
f 39/39/39 38/38/38 42/42/42 
f 38/38/38 43/43/43 42/42/42 
f 44/44/44 45/45/45 46/46/46 
f 45/45/45 47/47/47 46/46/46 
f 45/45/45 48/48/48 47/47/47 
f 48/48/48 49/49/49 47/47/47 
f 42/42/42 43/43/43 50/50/50 
f 20/20/20 22/22/22 51/51/51 
f 22/22/22 52/52/52 51/51/51 
f 21/21/21 20/20/20 31/31/31 
f 20/20/20 51/51/51 31/31/31 
f 5/5/5 7/7/7 51/51/51 
f 7/7/7 31/31/31 51/51/51 
f 6/6/6 5/5/5 52/52/52 
f 5/5/5 51/51/51 52/52/52 
f 53/53/53 54/54/54 13/13/13 
f 54/54/54 12/12/12 13/13/13 
f 53/53/53 55/55/55 54/54/54 
f 55/55/55 56/56/56 54/54/54 
f 55/55/55 57/57/57 56/56/56 
f 57/57/57 58/58/58 56/56/56 
f 57/57/57 37/59/37 58/58/58 
f 37/59/37 59/60/59 58/58/58 
f 37/59/37 60/61/60 59/60/59 
f 60/61/60 61/62/61 59/60/59 
f 62/63/62 63/64/63 64/65/64 
f 63/64/63 65/66/65 64/65/64 
f 63/64/63 62/63/62 66/67/66 
f 62/63/62 67/68/67 66/67/66 
f 68/69/68 69/70/69 67/68/67 
f 69/70/69 66/67/66 67/68/67 
f 69/70/69 68/69/68 15/15/15 
f 68/69/68 14/14/14 15/15/15 
f 36/36/36 37/37/37 57/57/57 
f 16/16/16 36/36/36 70/71/70 
f 36/36/36 57/57/57 70/71/70 
f 55/55/55 70/71/70 57/57/57 
f 17/17/17 16/16/16 71/72/71 
f 16/16/16 70/71/70 71/72/71 
f 72/73/72 24/24/24 71/72/71 
f 24/24/24 17/17/17 71/72/71 
f 13/13/13 72/73/72 53/53/53 
f 72/73/72 71/72/71 53/53/53 
f 55/55/55 53/53/53 70/71/70 
f 53/53/53 71/72/71 70/71/70 
f 14/14/14 73/74/73 11/11/11 
f 73/74/73 74/75/74 11/11/11 
f 72/73/72 13/13/13 74/75/74 
f 13/13/13 11/11/11 74/75/74 
f 24/24/24 72/73/72 75/76/75 
f 72/73/72 74/75/74 75/76/75 
f 73/74/73 76/77/76 74/75/74 
f 76/77/76 75/76/75 74/75/74 
f 76/77/76 73/74/73 77/78/77 
f 73/74/73 78/79/78 77/78/77 
f 79/80/79 80/81/80 78/79/78 
f 80/81/80 77/78/77 78/79/78 
f 67/68/67 79/80/79 68/69/68 
f 79/80/79 78/79/78 68/69/68 
f 73/74/73 14/14/14 78/79/78 
f 14/14/14 68/69/68 78/79/78 
f 81/82/81 82/83/82 46/46/46 
f 82/83/82 44/44/44 46/46/46 
f 81/82/81 83/84/83 82/83/82 
f 83/84/83 84/85/84 82/83/82 
f 83/84/83 85/86/85 84/85/84 
f 85/86/85 86/87/86 84/85/84 
f 86/87/86 85/86/85 65/66/65 
f 85/86/85 64/65/64 65/66/65 
f 87/88/87 88/89/88 89/90/89 
f 88/89/88 90/91/90 89/90/89 
f 46/46/46 89/90/89 81/82/81 
f 89/90/89 90/91/90 81/82/81 
f 85/86/85 83/84/83 90/91/90 
f 83/84/83 81/82/81 90/91/90 
f 64/65/64 85/86/85 88/89/88 
f 85/86/85 90/91/90 88/89/88 
f 48/48/48 91/92/91 49/49/49 
f 91/92/91 92/93/92 49/49/49 
f 91/92/91 40/40/40 92/93/92 
f 40/40/40 41/41/41 92/93/92 
f 92/93/92 41/41/41 93/94/93 
f 41/41/41 94/95/94 93/94/93 
f 49/49/49 92/93/92 95/96/95 
f 92/93/92 93/94/93 95/96/95 
f 96/97/96 97/98/97 93/94/93 
f 97/98/97 95/96/95 93/94/93 
f 98/99/98 96/97/96 94/95/94 
f 96/97/96 93/94/93 94/95/94 
f 42/42/42 99/100/99 39/39/39 
f 94/95/94 41/41/41 99/100/99 
f 41/41/41 39/39/39 99/100/99 
f 98/99/98 94/95/94 100/101/100 
f 94/95/94 99/100/99 100/101/100 
f 42/42/42 101/102/101 99/100/99 
f 101/102/101 100/101/100 99/100/99 
f 80/81/80 79/80/79 102/103/102 
f 79/80/79 103/104/103 102/103/102 
f 88/89/88 87/88/87 103/104/103 
f 87/88/87 102/103/102 103/104/103 
f 64/65/64 88/89/88 62/63/62 
f 88/89/88 103/104/103 62/63/62 
f 79/80/79 67/68/67 103/104/103 
f 67/68/67 62/63/62 103/104/103 
f 96/97/96 98/99/98 104/105/104 
f 98/99/98 105/106/105 104/105/104 
f 97/98/97 96/97/96 106/107/106 
f 96/97/96 104/105/104 106/107/106 
f 2/2/2 1/1/1 104/105/104 
f 1/1/1 106/107/106 104/105/104 
f 9/9/9 2/2/2 105/106/105 
f 2/2/2 104/105/104 105/106/105 
f 101/102/101 107/108/107 100/101/100 
f 105/106/105 98/99/98 107/108/107 
f 98/99/98 100/101/100 107/108/107 
f 9/9/9 105/106/105 25/25/25 
f 105/106/105 107/108/107 25/25/25 
f 101/102/101 30/30/30 107/108/107 
f 30/30/30 25/25/25 107/108/107 
f 97/98/97 108/109/108 95/96/95 
f 108/109/108 109/110/109 95/96/95 
f 47/47/47 49/49/49 109/110/109 
f 49/49/49 95/96/95 109/110/109 
f 46/46/46 47/47/47 89/90/89 
f 47/47/47 109/110/109 89/90/89 
f 108/109/108 87/88/87 109/110/109 
f 87/88/87 89/90/89 109/110/109 
f 1/1/1 110/111/110 106/107/106 
f 110/111/110 111/112/111 106/107/106 
f 108/109/108 97/98/97 111/112/111 
f 97/98/97 106/107/106 111/112/111 
f 87/88/87 108/109/108 102/103/102 
f 108/109/108 111/112/111 102/103/102 
f 110/111/110 80/81/80 111/112/111 
f 80/81/80 102/103/102 111/112/111 
f 80/81/80 110/111/110 77/78/77 
f 110/111/110 112/113/112 77/78/77 
f 113/114/113 76/77/76 112/113/112 
f 76/77/76 77/78/77 112/113/112 
f 6/6/6 113/114/113 3/3/3 
f 113/114/113 112/113/112 3/3/3 
f 110/111/110 1/1/1 112/113/112 
f 1/1/1 3/3/3 112/113/112 
f 23/23/23 24/24/24 114/115/114 
f 24/24/24 75/76/75 114/115/114 
f 22/22/22 23/23/23 52/52/52 
f 23/23/23 114/115/114 52/52/52 
f 113/114/113 6/6/6 114/115/114 
f 6/6/6 52/52/52 114/115/114 
f 76/77/76 113/114/113 75/76/75 
f 113/114/113 114/115/114 75/76/75 
# 194 faces

