# 3ds Max Wavefront OBJ Exporter v0.97b - (c)2007 guruware
# File Created: 09.11.2015 10:54:53

mtllib X6166_304H_L.mtl

#
# object X6166_304H_L_DTaSI_X6166_304H_L
#

v  -126.7884 47.2632 -84.9575
v  -127.1860 44.0805 -86.7361
v  -137.5244 46.0115 -85.1917
v  -137.1934 44.3418 -86.1826
v  -114.1605 47.9542 -84.8392
v  -114.7521 43.7563 -87.1718
v  -133.8279 62.1855 -75.8903
v  -135.0018 54.2320 -80.5068
v  -143.1449 57.6539 -77.7409
v  -143.7670 52.0162 -80.9790
v  -124.8039 57.0079 -79.4992
v  -122.8987 66.7473 -73.9301
v  -133.6849 64.0431 -74.7690
v  -122.4258 70.2778 -71.7807
v  -144.2331 50.2142 -82.0049
v  -144.8468 51.9291 -80.9057
v  -142.1617 46.6938 -84.3455
v  -140.6342 44.4318 -85.9367
v  -143.9249 57.0618 -78.0031
v  -144.7044 55.6718 -78.7303
v  -144.9477 54.6832 -79.2811
v  -145.1233 53.8717 -79.7353
v  -144.9849 52.6190 -80.4848
v  -113.8330 47.9599 -84.8399
v  -113.4431 43.7106 -87.2132
v  -113.9391 49.1170 -84.1963
v  -114.8390 58.9282 -78.6969
v  -115.7561 68.9399 -72.9247
v  -116.1251 72.9844 -70.4020
# 29 vertices

vn -0.0304 0.4933 -0.8693
vn -0.0302 0.4952 -0.8682
vn -0.0606 0.5108 -0.8576
vn -0.0415 0.5038 -0.8628
vn -0.0164 0.4877 -0.8729
vn -0.0144 0.4877 -0.8729
vn -0.0668 0.5118 -0.8565
vn -0.0640 0.5053 -0.8605
vn -0.0839 0.5089 -0.8567
vn -0.0939 0.5056 -0.8576
vn -0.0358 0.4962 -0.8675
vn -0.0473 0.5117 -0.8579
vn -0.0712 0.5215 -0.8503
vn -0.0489 0.5250 -0.8497
vn -0.0884 0.5136 -0.8535
vn -0.0990 0.5077 -0.8558
vn -0.0762 0.5298 -0.8447
vn -0.0611 0.5216 -0.8510
vn -0.0951 0.5035 -0.8587
vn -0.0978 0.5031 -0.8587
vn -0.0997 0.5026 -0.8588
vn -0.1000 0.5025 -0.8588
vn -0.0992 0.5033 -0.8584
vn -0.0105 0.4863 -0.8737
vn -0.0107 0.4868 -0.8734
vn -0.0192 0.4866 -0.8734
vn -0.0269 0.4948 -0.8686
vn -0.0372 0.5157 -0.8560
vn -0.0401 0.5262 -0.8494
# 29 vertex normals

vt 0.1125 0.0409 0.0000
vt 0.1115 0.0297 0.0000
vt 0.0750 0.0350 0.0000
vt 0.0764 0.0292 0.0000
vt 0.1566 0.0452 0.0000
vt 0.1551 0.0304 0.0000
vt 0.0856 0.0922 0.0000
vt 0.0827 0.0641 0.0000
vt 0.0536 0.0749 0.0000
vt 0.0523 0.0551 0.0000
vt 0.1180 0.0753 0.0000
vt 0.1232 0.1097 0.0000
vt 0.0859 0.0987 0.0000
vt 0.1244 0.1222 0.0000
vt 0.0509 0.0487 0.0000
vt 0.0485 0.0546 0.0000
vt 0.0587 0.0367 0.0000
vt 0.0644 0.0290 0.0000
vt 0.0510 0.0728 0.0000
vt 0.0485 0.0678 0.0000
vt 0.0478 0.0643 0.0000
vt 0.0473 0.0614 0.0000
vt 0.0479 0.0570 0.0000
vt 0.1577 0.0452 0.0000
vt 0.1597 0.0304 0.0000
vt 0.1572 0.0493 0.0000
vt 0.1526 0.0835 0.0000
vt 0.1479 0.1185 0.0000
vt 0.1461 0.1326 0.0000
# 29 texture coords

g X6166_304H_L_DTaSI_X6166_304H_L
usemtl windowglass_1SG
s 1
f 1/1/1 2/2/2 3/3/3 
f 3/3/3 2/2/2 4/4/4 
f 5/5/5 6/6/6 1/1/1 
f 1/1/1 6/6/6 2/2/2 
f 7/7/7 8/8/8 9/9/9 
f 10/10/10 9/9/9 8/8/8 
f 3/3/3 8/8/8 1/1/1 
f 1/1/1 8/8/8 11/11/11 
f 12/12/12 11/11/11 7/7/7 
f 7/7/7 11/11/11 8/8/8 
f 7/7/7 13/13/13 12/12/12 
f 12/12/12 13/13/13 14/14/14 
f 15/15/15 16/16/16 10/10/10 
f 8/8/8 3/3/3 10/10/10 
f 10/10/10 3/3/3 15/15/15 
f 3/3/3 17/17/17 15/15/15 
f 3/3/3 18/18/18 17/17/17 
f 18/18/18 3/3/3 4/4/4 
f 9/9/9 13/13/13 7/7/7 
f 9/9/9 10/10/10 19/19/19 
f 19/19/19 10/10/10 20/20/20 
f 20/20/20 10/10/10 21/21/21 
f 21/21/21 10/10/10 22/22/22 
f 22/22/22 10/10/10 23/23/23 
f 23/23/23 10/10/10 16/16/16 
f 5/5/5 24/24/24 6/6/6 
f 6/6/6 24/24/24 25/25/25 
f 5/5/5 26/26/26 24/24/24 
f 1/1/1 11/11/11 5/5/5 
f 5/5/5 11/11/11 26/26/26 
f 11/11/11 27/27/27 26/26/26 
f 28/28/28 27/27/27 12/12/12 
f 12/12/12 27/27/27 11/11/11 
f 29/29/29 28/28/28 14/14/14 
f 14/14/14 28/28/28 12/12/12 
# 35 faces

