# 3ds Max Wavefront OBJ Exporter v0.97b - (c)2007 guruware
# File Created: 09.11.2015 10:52:40

mtllib X6166_181C_R.mtl

#
# object X6166_181C_R_2_D_X6166_181C_R
#

v  109.5263 38.5940 87.4581
v  109.6521 38.4859 87.5004
v  110.0313 38.9733 87.2292
v  110.1685 38.8764 87.2652
v  111.1800 40.0353 86.4623
v  111.3288 39.9516 86.4942
v  111.6690 40.4588 86.1074
v  111.8189 40.3799 86.1392
v  111.9827 40.7325 85.5771
v  112.1315 40.6541 85.6094
v  112.9016 41.3878 83.6986
v  112.7517 41.4648 83.6687
v  112.9908 42.0535 83.9927
v  113.1406 41.9764 84.0225
# 14 vertices

vn 0.0762 0.4388 0.8953
vn 0.0761 0.4389 0.8953
vn 0.1068 0.4752 0.8734
vn 0.1094 0.4799 0.8705
vn 0.1084 0.5150 0.8503
vn 0.1099 0.5201 0.8470
vn 0.1942 0.6594 0.7262
vn 0.2096 0.6815 0.7012
vn 0.3247 0.8142 0.4813
vn 0.3254 0.8148 0.4798
vn 0.3350 0.8266 0.4522
vn 0.3349 0.8267 0.4522
vn -0.3485 -0.3392 0.8738
vn -0.3485 -0.3393 0.8738
# 14 vertex normals

vt 0.0000 0.0000 0.0000
# 1 texture coords

g X6166_181C_R_2_D_X6166_181C_R
usemtl diffuse_holesSG
s 1
f 1/1/1 2/1/2 3/1/3 
f 2/1/2 4/1/4 3/1/3 
f 3/1/3 4/1/4 5/1/5 
f 4/1/4 6/1/6 5/1/5 
f 5/1/5 6/1/6 7/1/7 
f 6/1/6 8/1/8 7/1/7 
f 7/1/7 8/1/8 9/1/9 
f 8/1/8 10/1/10 9/1/9 
f 10/1/10 11/1/11 9/1/9 
f 11/1/11 12/1/12 9/1/9 
s 2
f 13/1/13 12/1/14 14/1/13 
f 12/1/14 11/1/14 14/1/13 
# 12 faces

#
# object X6166_181C_R_X6166_181C_R_1_DaS
#

v  79.3937 59.3401 79.5027
v  79.0561 58.5450 80.3314
v  94.4673 50.5551 83.1564
v  94.0144 49.9224 83.8761
v  106.1155 43.3131 85.9528
v  105.1984 42.7685 86.5710
v  48.7173 74.2127 71.9368
v  48.4374 73.0994 72.9505
v  63.3053 67.6622 75.4903
v  62.9884 66.6934 76.4212
v  79.9691 59.8630 78.3679
v  80.6847 60.3548 76.6748
v  63.8167 68.2312 74.3319
v  64.4408 68.7728 72.6797
v  49.6895 75.4164 69.1596
v  49.1573 74.8264 70.7677
v  95.1809 51.0930 82.0459
v  107.1360 43.9670 84.8500
v  96.0859 51.5718 80.3178
v  108.4320 44.3971 83.0858
v  79.6466 59.6064 79.0254
v  63.5301 67.9488 75.0026
v  48.9107 74.5190 71.4444
v  106.5579 43.6983 85.4892
v  94.7802 50.8357 82.6897
v  110.0975 39.3075 87.8551
v  109.6430 38.8774 88.1036
v  111.2675 40.4151 87.0588
v  111.8152 40.9326 86.6062
v  112.2006 41.2986 85.9479
v  112.9908 42.0535 83.9927
# 31 vertices

vn 0.2202 0.7097 0.6692
vn 0.1973 0.6671 0.7184
vn 0.2457 0.6848 0.6860
vn 0.2268 0.6563 0.7196
vn 0.1999 0.6169 0.7612
vn 0.1739 0.5667 0.8054
vn 0.1246 0.7048 0.6984
vn 0.0981 0.6568 0.7476
vn 0.1885 0.7265 0.6608
vn 0.1477 0.6672 0.7301
vn 0.3429 0.8216 0.4555
vn 0.3592 0.8400 0.4065
vn 0.3033 0.8440 0.4422
vn 0.3083 0.8606 0.4053
vn 0.2641 0.8739 0.4081
vn 0.2564 0.8674 0.4265
vn 0.3546 0.8003 0.4835
vn 0.3265 0.7907 0.5179
vn 0.3742 0.8169 0.4390
vn 0.3457 0.8199 0.4562
vn 0.2944 0.7869 0.5424
vn 0.2531 0.8068 0.5338
vn 0.2193 0.8284 0.5154
vn 0.2497 0.6994 0.6697
vn 0.3028 0.7481 0.5904
vn 0.1248 0.5081 0.8522
vn 0.0749 0.4383 0.8957
vn 0.1462 0.5777 0.8030
vn 0.2312 0.7096 0.6656
vn 0.3167 0.8074 0.4978
vn 0.3343 0.8259 0.4540
# 31 vertex normals

vt 0.7155 0.2478 0.0000
vt 0.7149 0.2463 0.0000
vt 0.7436 0.2314 0.0000
vt 0.7428 0.2302 0.0000
vt 0.7654 0.2179 0.0000
vt 0.7636 0.2169 0.0000
vt 0.6583 0.2755 0.0000
vt 0.6578 0.2734 0.0000
vt 0.6855 0.2633 0.0000
vt 0.6849 0.2615 0.0000
vt 0.7166 0.2488 0.0000
vt 0.7179 0.2497 0.0000
vt 0.6865 0.2644 0.0000
vt 0.6876 0.2654 0.0000
vt 0.6601 0.2778 0.0000
vt 0.6591 0.2767 0.0000
vt 0.7450 0.2324 0.0000
vt 0.7673 0.2191 0.0000
vt 0.7467 0.2333 0.0000
vt 0.7697 0.2199 0.0000
vt 0.7160 0.2483 0.0000
vt 0.6859 0.2638 0.0000
vt 0.6587 0.2761 0.0000
vt 0.7662 0.2186 0.0000
vt 0.7442 0.2319 0.0000
vt 0.7728 0.2104 0.0000
vt 0.7719 0.2096 0.0000
vt 0.7750 0.2125 0.0000
vt 0.7760 0.2135 0.0000
vt 0.7767 0.2141 0.0000
vt 0.7782 0.2155 0.0000
# 31 texture coords

g X6166_181C_R_X6166_181C_R_1_DaS
usemtl paint_whiteSG
s 1
f 15/2/15 16/3/16 17/4/17 
f 16/3/16 18/5/18 17/4/17 
f 19/6/19 17/4/17 20/7/20 
f 17/4/17 18/5/18 20/7/20 
f 21/8/21 22/9/22 23/10/23 
f 22/9/22 24/11/24 23/10/23 
f 16/3/16 15/2/15 24/11/24 
f 15/2/15 23/10/23 24/11/24 
f 25/12/25 26/13/26 27/14/27 
f 26/13/26 28/15/28 27/14/27 
f 29/16/29 30/17/30 28/15/28 
f 30/17/30 27/14/27 28/15/28 
f 31/18/31 32/19/32 33/20/33 
f 32/19/32 34/21/34 33/20/33 
f 25/12/25 31/18/31 26/13/26 
f 31/18/31 33/20/33 26/13/26 
f 25/12/25 27/14/27 35/22/35 
f 27/14/27 36/23/36 35/22/35 
f 15/2/15 35/22/35 23/10/23 
f 35/22/35 36/23/36 23/10/23 
f 37/24/37 21/8/21 36/23/36 
f 21/8/21 23/10/23 36/23/36 
f 30/17/30 37/24/37 27/14/27 
f 37/24/37 36/23/36 27/14/27 
f 32/19/32 31/18/31 38/25/38 
f 31/18/31 39/26/39 38/25/38 
f 17/4/17 19/6/19 39/26/39 
f 19/6/19 38/25/38 39/26/39 
f 15/2/15 17/4/17 35/22/35 
f 17/4/17 39/26/39 35/22/35 
f 31/18/31 25/12/25 39/26/39 
f 25/12/25 35/22/35 39/26/39 
f 40/27/40 20/7/20 41/28/41 
f 42/29/42 19/6/19 40/27/40 
f 19/6/19 20/7/20 40/27/40 
f 19/6/19 42/29/42 38/25/38 
f 42/29/42 43/30/43 38/25/38 
f 44/31/44 32/19/32 43/30/43 
f 32/19/32 38/25/38 43/30/43 
f 32/19/32 44/31/44 34/21/34 
f 44/31/44 45/32/45 34/21/34 
# 41 faces

#
# object X6166_181C_R_X6166_181C_R_1_DaS_E
#

v  109.6430 38.8774 88.1036
v  105.1984 42.7685 86.5710
v  109.5263 38.5940 87.4581
v  105.0969 42.4000 85.9702
v  94.0144 49.9224 83.8761
v  93.9059 49.5174 83.2993
v  79.0561 58.5450 80.3314
v  78.9712 58.1329 79.7559
v  62.9884 66.6934 76.4212
v  62.9335 66.2824 75.8412
v  48.4374 73.0994 72.9505
v  48.4058 72.6886 72.3685
v  110.0975 39.3075 87.8551
v  110.0313 38.9733 87.2292
v  111.2675 40.4151 87.0588
v  111.1800 40.0353 86.4623
v  111.8152 40.9326 86.6062
v  111.6690 40.4588 86.1074
v  112.2006 41.2986 85.9479
v  111.9827 40.7325 85.5771
v  112.9908 42.0535 83.9927
v  112.7517 41.4648 83.6687
# 22 vertices

vn 0.0490 -0.9016 0.4299
vn -0.6056 -0.6300 0.4861
vn -0.0581 -0.9084 0.4140
vn -0.6050 -0.6290 0.4881
vn -0.5253 -0.6468 0.5529
vn -0.5254 -0.6473 0.5523
vn -0.4959 -0.6700 0.5525
vn -0.4959 -0.6697 0.5528
vn -0.4630 -0.7021 0.5410
vn -0.4630 -0.7018 0.5414
vn -0.4442 -0.7204 0.5326
vn -0.4442 -0.7202 0.5330
vn 0.7422 -0.6207 0.2528
vn 0.7204 -0.6494 0.2435
vn 0.7511 -0.5975 0.2808
vn 0.7412 -0.6102 0.2797
vn 0.8100 -0.5250 0.2611
vn 0.8019 -0.5363 0.2632
vn 0.8579 -0.4708 0.2058
vn 0.8573 -0.4689 0.2123
vn 0.8736 -0.4529 0.1782
# 21 vertex normals

vt 0.7719 0.2096 0.0000
vt 0.7636 0.2169 0.0000
vt 0.7717 0.2091 0.0000
vt 0.7635 0.2162 0.0000
vt 0.7428 0.2302 0.0000
vt 0.7426 0.2295 0.0000
vt 0.7149 0.2463 0.0000
vt 0.7147 0.2455 0.0000
vt 0.6849 0.2615 0.0000
vt 0.6848 0.2607 0.0000
vt 0.6578 0.2734 0.0000
vt 0.6577 0.2727 0.0000
vt 0.7728 0.2104 0.0000
vt 0.7727 0.2098 0.0000
vt 0.7750 0.2125 0.0000
vt 0.7748 0.2118 0.0000
vt 0.7760 0.2135 0.0000
vt 0.7757 0.2126 0.0000
vt 0.7767 0.2141 0.0000
vt 0.7763 0.2131 0.0000
vt 0.7782 0.2155 0.0000
vt 0.7777 0.2144 0.0000
# 22 texture coords

g X6166_181C_R_X6166_181C_R_1_DaS_E
usemtl paint_whiteSG
s 7
f 46/33/46 47/34/47 48/35/48 
f 47/34/47 49/36/49 48/35/48 
f 50/37/50 51/38/51 47/34/47 
f 51/38/51 49/36/49 47/34/47 
f 52/39/52 53/40/53 50/37/50 
f 53/40/53 51/38/51 50/37/50 
f 54/41/54 55/42/55 52/39/52 
f 55/42/55 53/40/53 52/39/52 
f 56/43/56 57/44/57 54/41/54 
f 57/44/57 55/42/55 54/41/54 
s 11
f 58/45/58 46/33/46 59/46/59 
f 46/33/46 48/35/48 59/46/59 
f 58/45/58 59/46/59 60/47/60 
f 59/46/59 61/48/61 60/47/60 
f 62/49/62 60/47/60 63/50/63 
f 60/47/60 61/48/61 63/50/63 
f 62/49/62 63/50/63 64/51/64 
f 63/50/63 65/52/65 64/51/64 
f 64/51/64 65/52/65 66/53/66 
f 65/52/65 67/54/66 66/53/66 
# 20 faces

