# 3ds Max Wavefront OBJ Exporter v0.97b - (c)2007 guruware
# File Created: 09.11.2015 10:50:39

mtllib X6166_18A5_R.mtl

#
# object X6166_18A5_R_DaS_X6166_18A5_R
#

v  4.0051 84.3755 64.9384
v  3.9911 83.1626 66.0993
v  16.8437 82.8075 66.2563
v  16.7983 81.6021 67.3810
v  27.3634 79.5812 68.8493
v  27.4702 80.7760 67.7612
v  -12.0061 84.0821 65.0806
v  -12.0029 85.2978 63.8971
v  37.3287 78.2719 69.4850
v  37.1305 77.0935 70.5440
v  48.4374 73.0994 72.9505
v  48.7173 74.2127 71.9368
v  4.0256 84.8915 63.7778
v  4.0514 85.3841 62.2833
v  -12.0003 85.8089 62.7932
v  -11.9969 86.2919 61.4161
v  27.6349 81.3454 66.6032
v  27.8374 81.8996 65.0592
v  16.9128 83.3441 65.0867
v  16.9993 83.8623 63.5481
v  49.1573 74.8264 70.7677
v  49.6895 75.4164 69.1596
v  37.6369 78.8782 68.3227
v  38.0104 79.4664 66.7553
v  4.0141 84.6388 64.4387
v  -12.0018 85.5598 63.4014
v  16.8741 83.0799 65.7623
v  27.5426 81.0628 67.2737
v  48.9107 74.5190 71.4444
v  37.4642 78.5749 68.9956
v  -24.2912 84.3291 64.6579
v  -31.0457 85.7001 63.2294
v  -31.0477 84.4459 64.4059
v  -31.0452 86.7205 60.8739
v  -31.0454 86.2333 62.1712
v  -31.0456 85.9779 62.7395
v  -52.3685 85.7006 63.0263
v  -73.8289 85.0780 63.3460
v  -52.3749 84.3938 64.2410
v  -73.8629 83.5822 64.6368
v  -32.7231 84.4593 64.4110
v  -52.3679 86.3021 61.9376
v  -52.3672 86.8065 60.5785
v  -73.8260 85.8399 62.1469
v  -73.8225 86.3850 60.6552
v  -52.3682 86.0269 62.5288
v  -73.8276 85.5205 62.8017
v  4.0379 85.1786 62.2256
v  -12.0026 86.0859 61.3589
v  16.9760 83.6582 63.4886
v  27.8045 81.6974 64.9974
v  37.9640 79.2676 66.6919
v  49.6343 75.2199 69.0956
v  -31.0467 86.5143 60.8172
v  -52.3652 86.5999 60.5232
v  -73.8153 86.1784 60.6002
# 56 vertices

vn 0.0226 0.7967 0.6040
vn 0.0046 0.6883 0.7254
vn 0.0488 0.7840 0.6188
vn 0.0207 0.6785 0.7344
vn 0.0354 0.6689 0.7425
vn 0.0710 0.7667 0.6380
vn -0.0078 0.6955 0.7184
vn 0.0027 0.8005 0.5993
vn 0.1020 0.7479 0.6559
vn 0.0628 0.6617 0.7471
vn 0.0981 0.6568 0.7476
vn 0.1246 0.7048 0.6984
vn 0.0554 0.9386 0.3406
vn 0.0504 0.9463 0.3192
vn 0.0208 0.9337 0.3575
vn 0.0189 0.9410 0.3378
vn 0.1390 0.9165 0.3752
vn 0.1368 0.9298 0.3416
vn 0.0999 0.9322 0.3479
vn 0.0954 0.9427 0.3196
vn 0.2564 0.8674 0.4265
vn 0.2641 0.8739 0.4081
vn 0.1880 0.8926 0.4097
vn 0.2292 0.8921 0.3894
vn 0.1836 0.9090 0.3741
vn 0.0469 0.9089 0.4144
vn 0.0154 0.9052 0.4247
vn 0.0871 0.8990 0.4291
vn 0.1209 0.8797 0.4600
vn 0.2193 0.8284 0.5154
vn 0.1624 0.8535 0.4951
vn -0.0121 0.6927 0.7211
vn -0.0037 0.7778 0.6285
vn -0.0039 0.6842 0.7293
vn 0.0031 0.9366 0.3504
vn 0.0040 0.9251 0.3796
vn 0.0010 0.8896 0.4567
vn -0.0084 0.7734 0.6339
vn -0.0155 0.6886 0.7249
vn -0.0094 0.6718 0.7407
vn -0.0141 0.6520 0.7581
vn -0.0026 0.6865 0.7271
vn -0.0088 0.9279 0.3727
vn -0.0091 0.9375 0.3479
vn -0.0300 0.9273 0.3731
vn -0.0304 0.9388 0.3431
vn -0.0085 0.8848 0.4659
vn -0.0243 0.8447 0.5346
vn 0.1052 0.2638 -0.9588
vn 0.0861 0.2640 -0.9607
vn 0.0558 0.2659 -0.9624
vn 0.0446 0.2656 -0.9631
vn 0.1610 0.2609 -0.9518
vn 0.1425 0.2608 -0.9548
vn 0.2048 0.2548 -0.9451
vn 0.1921 0.2570 -0.9471
vn 0.2453 0.2421 -0.9387
vn 0.2732 0.2338 -0.9331
vn 0.2361 0.2458 -0.9401
vn 0.2717 0.2281 -0.9350
vn 0.0271 0.2654 -0.9638
vn 0.0207 0.2628 -0.9646
vn 0.0068 0.2607 -0.9654
vn 0.0029 0.2586 -0.9660
vn -0.0255 0.2561 -0.9663
vn -0.0085 0.2567 -0.9664
# 66 vertex normals

vt 0.5749 0.2945 0.0000
vt 0.5749 0.2922 0.0000
vt 0.5989 0.2915 0.0000
vt 0.5988 0.2893 0.0000
vt 0.6185 0.2855 0.0000
vt 0.6187 0.2878 0.0000
vt 0.5451 0.2939 0.0000
vt 0.5451 0.2962 0.0000
vt 0.6371 0.2831 0.0000
vt 0.6367 0.2809 0.0000
vt 0.6578 0.2734 0.0000
vt 0.6583 0.2755 0.0000
vt 0.5750 0.2954 0.0000
vt 0.5750 0.2964 0.0000
vt 0.5451 0.2971 0.0000
vt 0.5451 0.2980 0.0000
vt 0.6190 0.2888 0.0000
vt 0.6194 0.2899 0.0000
vt 0.5990 0.2925 0.0000
vt 0.5992 0.2935 0.0000
vt 0.6591 0.2767 0.0000
vt 0.6601 0.2778 0.0000
vt 0.6377 0.2842 0.0000
vt 0.6384 0.2853 0.0000
vt 0.5750 0.2950 0.0000
vt 0.5451 0.2967 0.0000
vt 0.5989 0.2921 0.0000
vt 0.6188 0.2883 0.0000
vt 0.6587 0.2761 0.0000
vt 0.6373 0.2837 0.0000
vt 0.5222 0.2944 0.0000
vt 0.5096 0.2969 0.0000
vt 0.5096 0.2946 0.0000
vt 0.5096 0.2988 0.0000
vt 0.5096 0.2979 0.0000
vt 0.5096 0.2975 0.0000
vt 0.4698 0.2969 0.0000
vt 0.4298 0.2958 0.0000
vt 0.4698 0.2945 0.0000
vt 0.4297 0.2930 0.0000
vt 0.5064 0.2946 0.0000
vt 0.4698 0.2981 0.0000
vt 0.4698 0.2990 0.0000
vt 0.4298 0.2972 0.0000
vt 0.4298 0.2982 0.0000
vt 0.4698 0.2975 0.0000
vt 0.4298 0.2966 0.0000
vt 0.5750 0.2960 0.0000
vt 0.5451 0.2977 0.0000
vt 0.5991 0.2931 0.0000
vt 0.6193 0.2895 0.0000
vt 0.6383 0.2849 0.0000
vt 0.6600 0.2774 0.0000
vt 0.5096 0.2985 0.0000
vt 0.4698 0.2986 0.0000
vt 0.4298 0.2978 0.0000
# 56 texture coords

g X6166_18A5_R_DaS_X6166_18A5_R
usemtl paint_whiteSG
s 1
f 1/1/1 2/2/2 3/3/3 
f 2/2/2 4/4/4 3/3/3 
f 5/5/5 6/6/6 4/4/4 
f 6/6/6 3/3/3 4/4/4 
f 2/2/2 1/1/1 7/7/7 
f 1/1/1 8/8/8 7/7/7 
f 6/6/6 5/5/5 9/9/9 
f 5/5/5 10/10/10 9/9/9 
f 11/11/11 12/12/12 10/10/10 
f 12/12/12 9/9/9 10/10/10 
f 13/13/13 14/14/14 15/15/15 
f 14/14/14 16/16/16 15/15/15 
f 17/17/17 18/18/18 19/19/19 
f 18/18/18 20/20/20 19/19/19 
f 14/14/14 13/13/13 20/20/20 
f 13/13/13 19/19/19 20/20/20 
f 21/21/21 22/22/22 23/23/23 
f 22/22/24 24/24/25 23/23/23 
f 18/18/18 17/17/17 24/24/25 
f 17/17/17 23/23/23 24/24/25 
f 25/25/26 13/13/13 26/26/27 
f 13/13/13 15/15/15 26/26/27 
f 1/1/1 25/25/26 8/8/8 
f 25/25/26 26/26/27 8/8/8 
f 13/13/13 25/25/26 19/19/19 
f 25/25/26 27/27/28 19/19/19 
f 28/28/29 17/17/17 27/27/28 
f 17/17/17 19/19/19 27/27/28 
f 6/6/6 28/28/29 3/3/3 
f 28/28/29 27/27/28 3/3/3 
f 25/25/26 1/1/1 27/27/28 
f 1/1/1 3/3/3 27/27/28 
f 29/29/30 21/21/21 30/30/31 
f 21/21/21 23/23/23 30/30/31 
f 12/12/12 29/29/30 9/9/9 
f 29/29/30 30/30/31 9/9/9 
f 28/28/29 6/6/6 30/30/31 
f 6/6/6 9/9/9 30/30/31 
f 17/17/17 28/28/29 23/23/23 
f 28/28/29 30/30/31 23/23/23 
f 7/7/7 8/8/8 31/31/32 
f 8/8/8 32/32/33 31/31/32 
f 31/31/32 32/32/33 33/33/34 
f 34/34/35 35/35/36 16/16/16 
f 35/35/36 15/15/15 16/16/16 
f 36/36/37 32/32/33 26/26/27 
f 32/32/33 8/8/8 26/26/27 
f 35/35/36 36/36/37 15/15/15 
f 36/36/37 26/26/27 15/15/15 
f 37/37/38 38/38/39 39/39/40 
f 38/38/39 40/40/41 39/39/40 
f 33/33/34 32/32/33 41/41/42 
f 32/32/33 37/37/38 41/41/42 
f 41/41/42 37/37/38 39/39/40 
f 35/35/36 34/34/35 42/42/43 
f 34/34/35 43/43/44 42/42/43 
f 44/44/45 42/42/43 45/45/46 
f 42/42/43 43/43/44 45/45/45 
f 36/36/37 35/35/36 46/46/47 
f 35/35/36 42/42/43 46/46/47 
f 32/32/33 36/36/37 37/37/38 
f 36/36/37 46/46/47 37/37/38 
f 38/38/39 37/37/38 47/47/48 
f 37/37/38 46/46/47 47/47/48 
f 42/42/43 44/44/45 46/46/47 
f 44/44/45 47/47/48 46/46/47 
s 11
f 14/14/49 48/48/50 16/16/51 
f 48/48/50 49/49/52 16/16/51 
f 20/20/53 50/50/54 14/14/49 
f 50/50/54 48/48/50 14/14/49 
f 18/18/55 51/51/56 20/20/53 
f 51/51/56 50/50/54 20/20/53 
f 24/24/57 22/22/58 52/52/59 
s off
f 22/22/60 53/53/60 52/52/60 
s 11
f 24/24/57 52/52/59 18/18/55 
f 52/52/59 51/51/56 18/18/55 
f 16/16/51 49/49/52 34/34/61 
f 49/49/52 54/54/62 34/34/61 
f 34/34/61 54/54/62 43/43/63 
f 54/54/62 55/55/64 43/43/63 
f 43/43/63 55/55/64 45/45/65 
s off
f 55/55/66 56/56/65 45/45/65 
# 82 faces

#
# object X6166_18A5_R_DaS_X6166_18A5_R_E
#

v  16.7983 81.6021 67.3810
v  16.8001 81.1764 66.8089
v  27.3634 79.5812 68.8493
v  27.3599 79.1617 68.2726
v  3.9911 83.1626 66.0993
v  3.9989 82.7306 65.5319
v  37.1305 77.0935 70.5440
v  37.1168 76.6795 69.9636
v  -12.0061 84.0821 65.0806
v  -11.9954 83.6455 64.5169
v  48.4374 73.0994 72.9505
v  48.4058 72.6886 72.3685
v  -24.2912 84.3291 64.6579
v  -24.2806 83.8906 64.0955
v  -73.8629 83.5822 64.6368
v  -73.8552 83.1589 64.0629
v  -52.3749 84.3938 64.2410
v  -52.3687 83.9603 63.6748
v  -32.7231 84.4593 64.4110
v  -32.7167 84.0220 63.8476
# 20 vertices

vn -0.1927 -0.7874 0.5855
vn -0.1927 -0.7876 0.5852
vn -0.2620 -0.7797 0.5688
vn -0.2619 -0.7797 0.5687
vn -0.1197 -0.7907 0.6004
vn -0.1197 -0.7908 0.6002
vn -0.3376 -0.7625 0.5519
vn -0.3368 -0.7627 0.5521
vn -0.0605 -0.7896 0.6106
vn -0.0604 -0.7897 0.6105
vn -0.3801 -0.7487 0.5431
vn -0.3802 -0.7458 0.5471
vn -0.0370 -0.7884 0.6140
vn -0.0370 -0.7885 0.6139
vn 0.0413 -0.8038 0.5935
vn 0.0413 -0.8036 0.5938
vn 0.0190 -0.7939 0.6077
vn 0.0190 -0.7938 0.6079
vn -0.0029 -0.7901 0.6130
vn -0.0029 -0.7900 0.6131
# 20 vertex normals

vt 0.5988 0.2893 0.0000
vt 0.5988 0.2885 0.0000
vt 0.6185 0.2855 0.0000
vt 0.6185 0.2847 0.0000
vt 0.5749 0.2922 0.0000
vt 0.5749 0.2914 0.0000
vt 0.6367 0.2809 0.0000
vt 0.6367 0.2801 0.0000
vt 0.5451 0.2939 0.0000
vt 0.5451 0.2931 0.0000
vt 0.6578 0.2734 0.0000
vt 0.6577 0.2727 0.0000
vt 0.5222 0.2944 0.0000
vt 0.5222 0.2936 0.0000
vt 0.4297 0.2930 0.0000
vt 0.4297 0.2922 0.0000
vt 0.4698 0.2945 0.0000
vt 0.4698 0.2937 0.0000
vt 0.5064 0.2946 0.0000
vt 0.5065 0.2938 0.0000
# 20 texture coords

g X6166_18A5_R_DaS_X6166_18A5_R_E
usemtl paint_whiteSG
s 15
f 57/57/67 58/58/68 59/59/69 
f 58/58/68 60/60/70 59/59/69 
f 61/61/71 62/62/72 57/57/67 
f 62/62/72 58/58/68 57/57/67 
f 63/63/73 59/59/69 64/64/74 
f 59/59/69 60/60/70 64/64/74 
f 65/65/75 66/66/76 61/61/71 
f 66/66/76 62/62/72 61/61/71 
f 63/63/73 64/64/74 67/67/77 
s off
f 64/64/78 68/68/78 67/67/78 
s 15
f 69/69/79 70/70/80 65/65/75 
f 70/70/80 66/66/76 65/65/75 
s 18
f 71/71/81 72/72/82 73/73/83 
f 72/72/82 74/74/84 73/73/83 
f 73/73/83 74/74/84 75/75/85 
f 74/74/84 76/76/86 75/75/85 
# 16 faces

