# 3ds Max Wavefront OBJ Exporter v0.97b - (c)2007 guruware
# File Created: 09.11.2015 10:55:39

mtllib X6166_325B_R.mtl

#
# object X6166_325B_R_DTaSI_X6166_325B_R
#

v  -55.2687 47.9147 85.2282
v  -55.3034 41.6814 88.7246
v  -35.3438 47.3710 85.4843
v  -35.3570 40.9857 89.0642
v  -76.2567 48.2305 85.0269
v  -76.4278 42.4184 88.2775
v  -75.1725 75.4220 69.7334
v  -55.0622 76.1437 69.4118
v  -74.9419 81.5586 65.8717
v  -55.0184 82.3189 65.5111
v  -93.7231 73.6810 70.6407
v  -93.0833 79.7873 66.8406
v  -35.3060 62.1395 77.4053
v  -55.1652 62.3960 77.1987
v  -75.7147 62.1537 77.2802
v  -95.2285 61.2085 77.7042
v  -96.7331 48.2586 84.8788
v  -109.7721 70.7769 72.0824
v  -112.1397 59.4483 78.4795
v  -97.1778 43.1427 87.7286
v  -108.9592 76.0626 68.8340
v  -31.6882 40.8241 89.1348
v  -31.8800 42.1729 88.3806
v  -32.6390 47.2636 85.5333
v  -34.8535 62.1253 77.4163
v  -35.2980 65.1068 75.7507
v  -36.9463 76.1608 69.5710
v  -37.8764 82.3789 65.6618
v  -112.9138 69.8124 72.5246
v  -113.2410 74.2233 69.7709
v  -111.2828 48.0045 84.8457
v  -110.9548 43.6237 87.2921
# 32 vertices

vn -0.0008 0.4856 0.8742
vn 0.0004 0.4892 0.8722
vn 0.0021 0.4827 0.8758
vn 0.0025 0.4890 0.8723
vn -0.0031 0.4867 0.8736
vn -0.0033 0.4882 0.8727
vn -0.0043 0.5066 0.8622
vn -0.0052 0.5054 0.8629
vn -0.0061 0.5329 0.8461
vn -0.0071 0.5341 0.8454
vn -0.0091 0.5054 0.8628
vn -0.0115 0.5298 0.8481
vn -0.0008 0.4829 0.8757
vn -0.0030 0.4889 0.8724
vn -0.0031 0.4900 0.8717
vn -0.0077 0.4893 0.8721
vn -0.0078 0.4859 0.8740
vn -0.0160 0.5022 0.8646
vn -0.0112 0.4891 0.8721
vn -0.0080 0.4871 0.8733
vn -0.0210 0.5268 0.8498
vn 0.0047 0.4886 0.8725
vn 0.0044 0.4889 0.8723
vn 0.0033 0.4824 0.8760
vn -0.0030 0.4806 0.8770
vn -0.0053 0.4896 0.8719
vn -0.0081 0.5018 0.8650
vn -0.0083 0.5320 0.8467
vn -0.0331 0.5036 0.8633
vn -0.0413 0.5275 0.8485
vn -0.0105 0.4859 0.8740
vn -0.0105 0.4870 0.8733
# 32 vertex normals

vt 0.3609 0.9638 0.0000
vt 0.3615 0.9857 0.0000
vt 0.4310 0.9636 0.0000
vt 0.4316 0.9860 0.0000
vt 0.2872 0.9650 0.0000
vt 0.2873 0.9854 0.0000
vt 0.2881 0.8694 0.0000
vt 0.3586 0.8647 0.0000
vt 0.2883 0.8478 0.0000
vt 0.3581 0.8430 0.0000
vt 0.2232 0.8775 0.0000
vt 0.2248 0.8560 0.0000
vt 0.4295 0.9117 0.0000
vt 0.3598 0.9130 0.0000
vt 0.2876 0.9160 0.0000
vt 0.2192 0.9215 0.0000
vt 0.2154 0.9671 0.0000
vt 0.1672 0.8894 0.0000
vt 0.1601 0.9295 0.0000
vt 0.2144 0.9851 0.0000
vt 0.1694 0.8708 0.0000
vt 0.4445 0.9862 0.0000
vt 0.4437 0.9815 0.0000
vt 0.4405 0.9637 0.0000
vt 0.4311 0.9117 0.0000
vt 0.4292 0.9013 0.0000
vt 0.4222 0.8627 0.0000
vt 0.4183 0.8410 0.0000
vt 0.1562 0.8932 0.0000
vt 0.1546 0.8777 0.0000
vt 0.1643 0.9695 0.0000
vt 0.1659 0.9849 0.0000
# 32 texture coords

g X6166_325B_R_DTaSI_X6166_325B_R
usemtl windowglass_1SG
s 1
f 1/1/1 2/2/2 3/3/3 
f 2/2/2 4/4/4 3/3/3 
f 5/5/5 6/6/6 1/1/1 
f 6/6/6 2/2/2 1/1/1 
f 7/7/7 8/8/8 9/9/9 
f 8/8/8 10/10/10 9/9/9 
f 11/11/11 7/7/7 12/12/12 
f 7/7/7 9/9/9 12/12/12 
f 3/3/3 13/13/13 1/1/1 
f 13/13/13 14/14/14 1/1/1 
f 5/5/5 1/1/1 15/15/15 
f 1/1/1 14/14/14 15/15/15 
f 8/8/8 7/7/7 14/14/14 
f 7/7/7 15/15/15 14/14/14 
f 7/7/7 11/11/11 15/15/15 
f 11/11/11 16/16/16 15/15/15 
f 17/17/17 5/5/5 16/16/16 
f 5/5/5 15/15/15 16/16/16 
f 11/11/11 18/18/18 16/16/16 
f 18/18/18 19/19/19 16/16/16 
f 5/5/5 17/17/17 6/6/6 
f 17/17/17 20/20/20 6/6/6 
f 18/18/18 11/11/11 21/21/21 
f 11/11/11 12/12/12 21/21/21 
f 22/22/22 23/23/23 4/4/4 
f 4/4/4 23/23/23 3/3/3 
f 3/3/3 23/23/23 24/24/24 
f 24/24/24 25/25/25 3/3/3 
f 25/25/25 13/13/13 3/3/3 
f 26/26/26 13/13/13 25/25/25 
f 13/13/13 26/26/26 14/14/14 
f 14/14/14 26/26/26 8/8/8 
f 27/27/27 8/8/8 26/26/26 
f 27/27/27 28/28/28 8/8/8 
f 28/28/28 10/10/10 8/8/8 
f 29/29/29 18/18/18 30/30/30 
f 18/18/18 21/21/21 30/30/30 
f 18/18/18 29/29/29 19/19/19 
f 16/16/16 19/19/19 17/17/17 
f 31/31/31 17/17/17 19/19/19 
f 31/31/31 32/32/32 17/17/17 
f 32/32/32 20/20/20 17/17/17 
# 42 faces

