# 3ds Max Wavefront OBJ Exporter v0.97b - (c)2007 guruware
# File Created: 09.11.2015 10:58:54

mtllib X6166_541C_R.mtl

#
# object X6166_541C_R_1_N_X6166_541C_R
#

v  -241.1658 19.4847 84.8484
v  -239.6534 19.4877 85.5197
v  -236.9019 27.3144 84.0047
v  -239.5033 19.7123 85.5219
v  -237.5773 22.6470 85.5561
v  -234.7917 26.9997 85.2229
v  -247.5657 19.4849 81.0247
v  -243.5443 19.4799 83.7928
v  -242.8994 28.1246 80.8193
v  -239.4441 27.8033 82.8644
v  -250.3431 19.7245 77.7636
v  -246.7491 28.5736 77.7833
v  -252.5232 19.8581 73.9259
v  -249.2148 28.7499 74.8991
v  -254.0481 19.9155 70.5648
v  -251.1620 28.7725 72.3610
v  -248.1215 37.6553 72.8456
v  -248.6617 37.6319 71.4294
v  -250.9321 34.0613 71.2147
v  -252.4359 29.3081 70.6575
v  -249.6011 33.5558 73.1250
v  -245.9064 37.6416 75.5899
v  -243.1550 37.4228 77.8029
v  -238.2331 36.7644 80.6140
v  -239.6123 37.0153 79.8420
v  -237.1913 36.6177 81.0642
v  -236.7544 36.5287 81.2834
v  -236.2444 36.4136 81.5133
v  -235.3439 36.1266 81.9359
v  -235.5495 36.2191 81.8282
v  -234.7983 35.9164 82.2119
v  -234.0272 35.6772 82.5476
v  -233.2474 35.3859 82.8917
v  -232.6380 35.1441 83.1609
v  -233.5173 28.9910 85.0704
v  -232.2312 34.9630 83.3488
v  -231.8278 34.7606 83.5473
v  -231.5795 34.5500 83.7209
v  -231.5548 34.4327 83.7919
v  -231.5599 34.1077 83.9852
v  -231.6406 33.8976 84.1014
v  -231.6873 33.5631 84.1902
v  -231.7606 33.2891 84.2648
v  -254.9307 19.9181 68.2500
v  -254.3602 22.6407 69.3719
v  -252.6507 28.6293 70.5779
v  -247.8268 37.6537 73.4604
v  -247.3347 37.6294 74.1315
# 48 vertices

vn -0.3829 0.2926 0.8762
vn -0.3880 0.3048 0.8698
vn -0.3833 0.2998 0.8736
vn -0.5192 0.3346 0.7864
vn -0.5072 0.3370 0.7932
vn -0.4326 0.3310 0.8386
vn -0.6205 0.3059 0.7221
vn -0.4906 0.3068 0.8156
vn -0.5224 0.2885 0.8024
vn -0.4165 0.2888 0.8621
vn -0.7736 0.2774 0.5697
vn -0.6480 0.2708 0.7119
vn -0.8557 0.2337 0.4617
vn -0.7512 0.2363 0.6163
vn -0.8825 0.1772 0.4357
vn -0.7921 0.1838 0.5821
vn -0.8105 0.3932 0.4342
vn -0.8126 0.4986 0.3018
vn -0.7751 0.2364 0.5860
vn -0.7633 0.1684 0.6237
vn -0.7264 0.2094 0.6546
vn -0.6461 0.2300 0.7277
vn -0.5369 0.2499 0.8058
vn -0.4209 0.2670 0.8669
vn -0.4514 0.2607 0.8534
vn -0.3599 0.2741 0.8918
vn -0.3634 0.2734 0.8906
vn -0.3390 0.2675 0.9020
vn -0.3489 0.2721 0.8968
vn -0.3382 0.2676 0.9022
vn -0.3305 0.2693 0.9046
vn -0.3096 0.2655 0.9130
vn -0.3032 0.2635 0.9158
vn -0.3422 0.2961 0.8918
vn -0.4002 0.3235 0.8574
vn -0.2789 0.3210 0.9051
vn -0.2986 0.3244 0.8976
vn -0.3469 0.3337 0.8765
vn -0.5502 0.3739 0.7467
vn -0.6648 0.3895 0.6374
vn -0.9342 0.3566 -0.0037
vn -0.2591 0.2815 0.9239
vn -0.3071 0.2969 0.9042
vn -0.2644 0.2833 0.9219
vn -0.4823 0.3478 0.8040
vn -0.9332 0.0489 0.3559
vn -0.8276 0.1359 0.5446
vn -0.7678 0.0968 0.6333
vn -0.8018 0.3051 0.5138
vn -0.7121 0.2325 0.6625
# 50 vertex normals

vt 0.3663 0.0196 0.0000
vt 0.3178 0.0184 0.0000
vt 0.3342 0.1700 0.0000
vt 0.3163 0.0273 0.0000
vt 0.3002 0.0819 0.0000
vt 0.2862 0.1630 0.0000
vt 0.4663 0.0225 0.0000
vt 0.4001 0.0206 0.0000
vt 0.4257 0.1735 0.0000
vt 0.3713 0.1732 0.0000
vt 0.5237 0.0242 0.0000
vt 0.4927 0.1781 0.0000
vt 0.5796 0.0258 0.0000
vt 0.5435 0.1824 0.0000
vt 0.6159 0.0268 0.0000
vt 0.5880 0.1842 0.0000
vt 0.5676 0.3613 0.0000
vt 0.5853 0.3613 0.0000
vt 0.6026 0.2809 0.0000
vt 0.6164 0.1945 0.0000
vt 0.5719 0.2706 0.0000
vt 0.5208 0.3603 0.0000
vt 0.4597 0.3567 0.0000
vt 0.3732 0.3352 0.0000
vt 0.4053 0.3440 0.0000
vt 0.3583 0.3305 0.0000
vt 0.3518 0.3285 0.0000
vt 0.3445 0.3261 0.0000
vt 0.3293 0.3216 0.0000
vt 0.3366 0.3234 0.0000
vt 0.3215 0.3180 0.0000
vt 0.3113 0.3142 0.0000
vt 0.3013 0.3104 0.0000
vt 0.2925 0.3072 0.0000
vt 0.2792 0.2057 0.0000
vt 0.2866 0.3047 0.0000
vt 0.2805 0.3018 0.0000
vt 0.2764 0.2983 0.0000
vt 0.2756 0.2962 0.0000
vt 0.2740 0.2901 0.0000
vt 0.2739 0.2859 0.0000
vt 0.2737 0.2799 0.0000
vt 0.2739 0.2749 0.0000
vt 0.6404 0.0275 0.0000
vt 0.6338 0.0818 0.0000
vt 0.6188 0.1828 0.0000
vt 0.5593 0.3613 0.0000
vt 0.5483 0.3612 0.0000
# 48 texture coords

g X6166_541C_R_1_N_X6166_541C_R
usemtl diffuse_lightSG
s 1
f 1/1/1 2/2/2 3/3/3 
f 2/2/2 4/4/4 3/3/3 
f 4/4/4 5/5/5 3/3/3 
f 3/3/3 5/5/5 6/6/6 
f 7/7/7 8/8/8 9/9/9 
f 8/8/8 10/10/10 9/9/9 
f 11/11/11 7/7/7 12/12/12 
f 7/7/7 9/9/9 12/12/12 
f 13/13/13 11/11/11 14/14/14 
f 11/11/11 12/12/12 14/14/14 
f 15/15/15 13/13/13 16/16/16 
f 13/13/13 14/14/14 16/16/16 
f 17/17/17 18/18/18 19/19/19 
f 16/16/16 19/19/19 20/20/20 
f 8/8/8 1/1/1 10/10/10 
f 1/1/1 3/3/3 10/10/10 
f 16/16/16 14/14/14 21/21/21 
f 14/14/14 12/12/12 22/22/22 
f 12/12/12 23/23/23 22/22/22 
f 24/24/24 25/25/25 9/9/9 
f 12/12/12 9/9/9 23/23/23 
f 9/9/9 25/25/25 23/23/23 
f 9/9/9 10/10/10 24/24/24 
f 24/24/24 10/10/10 26/26/26 
f 26/26/26 10/10/10 27/27/27 
f 27/27/27 10/10/10 28/28/28 
f 29/29/29 30/30/30 10/10/10 
f 10/10/10 30/30/30 28/28/28 
f 10/10/10 3/3/3 29/29/29 
f 29/29/29 3/3/3 31/31/31 
f 31/31/31 3/3/3 32/32/32 
f 32/32/32 3/3/3 33/33/33 
f 3/3/3 34/34/34 33/33/33 
f 3/3/3 6/6/6 34/34/34 
f 6/6/6 35/35/35 34/34/34 
f 34/34/34 35/35/35 36/36/36 
f 36/36/36 35/35/35 37/37/37 
f 37/37/37 35/35/35 38/38/38 
f 38/38/38 35/35/35 39/39/39 
f 39/39/39 35/35/35 40/40/40 
s off
f 40/40/41 35/35/41 41/41/41 
s 6
f 41/41/42 35/35/43 42/42/44 
f 42/42/44 35/35/43 43/43/45 
s 1
f 44/44/46 15/15/15 45/45/47 
f 15/15/15 16/16/16 45/45/47 
f 20/20/20 46/46/48 16/16/16 
f 45/45/47 16/16/16 46/46/48 
f 21/21/21 19/19/19 16/16/16 
f 19/19/19 21/21/21 17/17/17 
f 21/21/21 47/47/49 17/17/17 
f 21/21/21 48/48/50 47/47/49 
f 21/21/21 14/14/14 22/22/22 
f 21/21/21 22/22/22 48/48/50 
# 53 faces

#
# object X6166_541C_R_X6166_541C_R_2_DTaSI
#

v  -255.0338 22.8145 69.5281
v  -254.0975 22.9042 71.9457
v  -253.3221 28.8057 70.7403
v  -252.4558 29.0580 72.8931
v  -251.5781 34.3083 71.3789
v  -250.9597 34.3720 73.0949
v  -231.8165 34.3514 85.1195
v  -232.0902 34.3942 85.0568
v  -231.9035 33.8922 85.2571
v  -232.0236 33.6148 85.3210
v  -235.6136 36.6368 82.9147
v  -235.2964 34.4847 84.0808
v  -237.4965 37.1209 82.0370
v  -237.0593 37.0118 82.2666
v  -236.5493 36.8967 82.4966
v  -235.8545 36.7022 82.8115
v  -250.5766 22.8480 78.4660
v  -247.7404 22.6900 81.5117
v  -249.1187 28.9343 78.3348
v  -246.5066 28.5318 80.8548
v  -244.6177 33.2502 80.5759
v  -247.1919 33.9333 78.3446
v  -242.0993 32.2482 82.2629
v  -242.6635 28.6075 83.0431
v  -243.6129 22.7628 84.1554
v  -237.9593 22.9276 86.5876
v  -236.9901 29.8625 85.0089
v  -239.0451 33.8000 83.0249
v  -237.1806 35.3197 83.1194
v  -233.8318 29.2947 86.1200
v  -248.2875 19.7171 81.8607
v  -251.2400 19.9266 78.4231
v  -244.0742 19.7445 84.7589
v  -239.9481 19.9885 86.5313
v  -240.0981 19.7640 86.5291
v  -239.1622 37.1856 81.3870
v  -241.7005 35.9530 80.9329
v  -244.7478 37.1302 78.5279
v  -248.9648 34.6934 76.1044
v  -246.9414 37.7898 76.2997
v  -249.3983 35.9520 74.8719
v  -248.1242 38.1708 74.7313
v  -250.2969 34.8465 74.2069
v  -248.7451 38.1375 73.9190
v  -249.0864 38.1283 73.2166
v  -249.6492 38.1039 71.7351
v  -252.6490 23.0650 74.9953
v  -250.9883 30.1126 75.3251
v  -243.6786 37.9904 78.6329
v  -246.5494 38.2316 76.3154
v  -255.0764 20.1336 70.9966
v  -255.9872 20.1801 68.5684
v  -253.5140 20.0560 74.4445
v  -231.7647 35.1079 84.6929
v  -231.6908 35.0112 84.7614
v  -231.6959 34.6862 84.9547
v  -235.0328 36.4538 83.1862
v  -234.2617 36.2146 83.5219
v  -233.4818 35.9232 83.8661
v  -232.8724 35.6815 84.1352
v  -232.4657 35.5003 84.3232
v  -232.0622 35.2980 84.5217
v  -238.5750 37.3349 81.5334
v  -240.0303 37.5972 80.7234
v  -231.6873 33.5631 84.1902
v  -231.6406 33.8976 84.1014
v  -231.7606 33.2891 84.2648
v  -237.1913 36.6177 81.0642
v  -236.7544 36.5287 81.2834
v  -236.2444 36.4136 81.5133
v  -235.5495 36.2191 81.8282
v  -235.3439 36.1266 81.9359
v  -233.5173 28.9910 85.0704
v  -237.5773 22.6470 85.5561
v  -250.3431 19.7245 77.7636
v  -247.5657 19.4849 81.0247
v  -243.5443 19.4799 83.7928
v  -239.5033 19.7123 85.5219
v  -239.6534 19.4876 85.5197
v  -247.3347 37.6294 74.1315
v  -247.8268 37.6537 73.4604
v  -248.1215 37.6553 72.8456
v  -248.6617 37.6319 71.4294
v  -243.1550 37.4228 77.8029
v  -245.9064 37.6416 75.5899
v  -254.0481 19.9155 70.5648
v  -254.9307 19.9181 68.2500
v  -252.5232 19.8581 73.9259
v  -231.5548 34.4327 83.7919
v  -231.5795 34.5500 83.7209
v  -231.5599 34.1077 83.9852
v  -233.2474 35.3859 82.8917
v  -234.0272 35.6772 82.5476
v  -232.6380 35.1441 83.1609
v  -232.2312 34.9630 83.3488
v  -231.8278 34.7606 83.5473
v  -234.7983 35.9164 82.2119
v  -238.2331 36.7644 80.6140
v  -239.6123 37.0153 79.8420
v  -250.9321 34.0613 71.2147
v  -252.6507 28.6293 70.5779
v  -254.3602 22.6407 69.3719
# 102 vertices

vn -0.9166 0.1972 0.3477
vn -0.9042 0.1841 0.3855
vn -0.9148 0.2124 0.3435
vn -0.8939 0.2068 0.3976
vn -0.8991 0.3029 0.3161
vn -0.8848 0.3001 0.3566
vn -0.1484 0.3867 0.9102
vn -0.2542 0.3673 0.8947
vn -0.1896 0.3023 0.9342
vn -0.2725 0.2846 0.9191
vn -0.2527 0.4309 0.8663
vn -0.2801 0.3277 0.9023
vn -0.2893 0.4496 0.8451
vn -0.3446 0.3769 0.8598
vn -0.2887 0.4163 0.8622
vn -0.2697 0.4264 0.8634
vn -0.7813 0.1932 0.5935
vn -0.6172 0.2056 0.7595
vn -0.7408 0.2239 0.6333
vn -0.5702 0.2357 0.7870
vn -0.5114 0.3142 0.7998
vn -0.6454 0.3114 0.6975
vn -0.4012 0.2830 0.8712
vn -0.4177 0.2451 0.8749
vn -0.4510 0.2320 0.8618
vn -0.3686 0.2458 0.8965
vn -0.3260 0.2627 0.9081
vn -0.3490 0.3143 0.8828
vn -0.3080 0.3971 0.8645
vn -0.2768 0.2672 0.9230
vn -0.6390 0.1946 0.7441
vn -0.8007 0.1660 0.5757
vn -0.4743 0.2327 0.8491
vn -0.3889 0.2465 0.8877
vn -0.3943 0.2400 0.8871
vn -0.3511 0.4173 0.8382
vn -0.4096 0.4058 0.8170
vn -0.5224 0.4239 0.7398
vn -0.7215 0.2860 0.6305
vn -0.6224 0.4163 0.6628
vn -0.7340 0.3916 0.5548
vn -0.6831 0.4328 0.5882
vn -0.8285 0.2975 0.4744
vn -0.7796 0.4326 0.4529
vn -0.8431 0.4165 0.3401
vn -0.8554 0.4139 0.3114
vn -0.8604 0.1808 0.4764
vn -0.8224 0.2120 0.5279
vn -0.4391 0.4843 0.7567
vn -0.5549 0.4995 0.6652
vn -0.9063 0.1912 0.3769
vn -0.9152 0.2047 0.3472
vn -0.8758 0.1673 0.4528
vn -0.1603 0.5054 0.8479
vn -0.1438 0.5014 0.8532
vn -0.1509 0.5015 0.8519
vn -0.2832 0.3908 0.8758
vn -0.2341 0.4481 0.8628
vn -0.1922 0.4880 0.8514
vn -0.1749 0.5006 0.8478
vn -0.1656 0.5054 0.8469
vn -0.1630 0.5063 0.8468
vn -0.3158 0.4475 0.8367
vn -0.3852 0.4917 0.7809
vn 0.9638 -0.1271 0.2345
vn 0.9607 -0.1433 0.2378
vn 0.9479 -0.1871 0.2577
vn 0.9581 -0.1605 0.2371
vn 0.9001 -0.3013 0.3148
vn 0.8951 -0.3071 0.3232
vn 0.3286 0.8690 -0.3701
vn 0.3472 0.8745 -0.3385
vn 0.3512 0.8765 -0.3293
vn 0.3613 0.8764 -0.3185
vn 0.3674 0.8748 -0.3159
vn 0.3677 0.8747 -0.3157
vn 0.4131 0.8615 -0.2952
vn 0.3869 0.8668 -0.3145
vn 0.4755 0.8300 -0.2915
vn 0.4247 0.8391 -0.3398
vn 0.8331 -0.4137 0.3671
vn 0.8314 -0.4133 0.3715
vn 0.7686 -0.4853 0.4169
vn 0.7680 -0.4863 0.4167
vn -0.1702 -0.9830 0.0685
vn -0.1505 -0.9785 0.1407
vn -0.1727 -0.9823 0.0720
vn -0.1500 -0.9784 0.1423
vn -0.1144 -0.9722 0.2042
vn -0.1121 -0.9729 0.2023
vn 0.7395 -0.4912 0.4603
vn 0.7413 -0.4958 0.4524
vn 0.7361 -0.4964 0.4602
vn 0.7361 -0.4963 0.4602
vn -0.0970 -0.9700 0.2228
vn -0.0960 -0.9704 0.2217
vn 0.3557 0.8722 -0.3357
vn 0.3737 0.8963 -0.2385
vn 0.3362 0.8804 -0.3344
vn 0.3507 0.9040 -0.2444
vn 0.3824 0.9083 -0.1697
vn 0.3800 0.9090 -0.1714
vn 0.3842 0.9090 -0.1612
vn 0.3846 0.9089 -0.1611
vn 0.3376 0.8616 -0.3790
vn 0.3674 0.8546 -0.3670
vn 0.3376 0.8620 -0.3781
vn 0.3634 0.8565 -0.3666
vn -0.1804 -0.9814 0.0661
vn -0.1837 -0.9809 0.0645
vn -0.2113 -0.9752 0.0653
vn -0.2218 -0.9729 0.0646
vn -0.1677 -0.9841 0.0580
vn -0.1673 -0.9842 0.0577
vn 0.9921 0.0935 0.0834
vn 0.7952 0.5829 -0.1672
vn 0.9828 0.1789 0.0449
vn 0.6893 0.6772 -0.2574
vn 0.9834 -0.0575 0.1722
vn 0.9797 -0.0793 0.1841
vn 0.4640 0.8182 -0.3396
vn 0.4371 0.8279 -0.3514
vn 0.4639 0.8182 -0.3396
vn 0.4373 0.8278 -0.3513
vn 0.4855 0.8097 -0.3297
vn 0.4852 0.8098 -0.3298
vn 0.5240 0.7929 -0.3111
vn 0.5236 0.7930 -0.3114
vn 0.6190 0.7412 -0.2598
vn 0.5882 0.7544 -0.2914
vn 0.4340 0.8330 -0.3430
vn 0.4210 0.8333 -0.3582
vn 0.3417 0.8505 -0.3998
vn 0.3480 0.8545 -0.3857
vn 0.3419 0.8506 -0.3994
vn 0.3401 0.8520 -0.3980
vn -0.1794 0.1744 -0.9682
vn -0.2047 0.1886 -0.9605
vn -0.1826 0.1758 -0.9673
vn -0.2068 0.1892 -0.9599
vn -0.1775 0.2089 -0.9617
vn -0.1470 0.2834 -0.9477
vn -0.1508 0.2934 -0.9440
vn -0.1646 0.4029 -0.9003
vn -0.1700 0.4057 -0.8981
# 145 vertex normals

vt 0.5766 0.2948 0.0000
vt 0.5762 0.2832 0.0000
vt 0.5477 0.2890 0.0000
vt 0.5465 0.2786 0.0000
vt 0.5212 0.2859 0.0000
vt 0.5209 0.2776 0.0000
vt 0.5210 0.2196 0.0000
vt 0.5208 0.2199 0.0000
vt 0.5232 0.2190 0.0000
vt 0.5245 0.2187 0.0000
vt 0.5099 0.2303 0.0000
vt 0.5203 0.2247 0.0000
vt 0.5076 0.2345 0.0000
vt 0.5081 0.2334 0.0000
vt 0.5087 0.2323 0.0000
vt 0.5096 0.2308 0.0000
vt 0.5764 0.2517 0.0000
vt 0.5772 0.2370 0.0000
vt 0.5471 0.2524 0.0000
vt 0.5490 0.2402 0.0000
vt 0.5263 0.2416 0.0000
vt 0.5230 0.2523 0.0000
vt 0.5311 0.2334 0.0000
vt 0.5487 0.2297 0.0000
vt 0.5768 0.2243 0.0000
vt 0.5761 0.2126 0.0000
vt 0.5426 0.2202 0.0000
vt 0.5236 0.2297 0.0000
vt 0.5163 0.2293 0.0000
vt 0.5453 0.2148 0.0000
vt 0.5915 0.2354 0.0000
vt 0.5905 0.2519 0.0000
vt 0.5914 0.2214 0.0000
vt 0.5902 0.2128 0.0000
vt 0.5913 0.2128 0.0000
vt 0.5073 0.2376 0.0000
vt 0.5132 0.2398 0.0000
vt 0.5076 0.2514 0.0000
vt 0.5193 0.2631 0.0000
vt 0.5044 0.2622 0.0000
vt 0.5132 0.2691 0.0000
vt 0.5025 0.2697 0.0000
vt 0.5186 0.2723 0.0000
vt 0.5027 0.2737 0.0000
vt 0.5027 0.2770 0.0000
vt 0.5029 0.2842 0.0000
vt 0.5754 0.2685 0.0000
vt 0.5414 0.2669 0.0000
vt 0.5034 0.2509 0.0000
vt 0.5022 0.2621 0.0000
vt 0.5895 0.2878 0.0000
vt 0.5893 0.2995 0.0000
vt 0.5899 0.2711 0.0000
vt 0.5173 0.2217 0.0000
vt 0.5178 0.2214 0.0000
vt 0.5193 0.2204 0.0000
vt 0.5108 0.2290 0.0000
vt 0.5120 0.2273 0.0000
vt 0.5134 0.2257 0.0000
vt 0.5145 0.2244 0.0000
vt 0.5154 0.2235 0.0000
vt 0.5164 0.2225 0.0000
vt 0.5066 0.2369 0.0000
vt 0.5053 0.2408 0.0000
vt 0.5248 0.2241 0.0000
vt 0.5232 0.2246 0.0000
vt 0.5261 0.2238 0.0000
vt 0.5100 0.2392 0.0000
vt 0.5105 0.2381 0.0000
vt 0.5110 0.2370 0.0000
vt 0.5120 0.2355 0.0000
vt 0.5124 0.2350 0.0000
vt 0.5468 0.2199 0.0000
vt 0.5774 0.2175 0.0000
vt 0.5915 0.2551 0.0000
vt 0.5927 0.2394 0.0000
vt 0.5927 0.2260 0.0000
vt 0.5916 0.2177 0.0000
vt 0.5926 0.2177 0.0000
vt 0.5052 0.2726 0.0000
vt 0.5050 0.2759 0.0000
vt 0.5050 0.2788 0.0000
vt 0.5051 0.2857 0.0000
vt 0.5061 0.2549 0.0000
vt 0.5051 0.2656 0.0000
vt 0.5906 0.2898 0.0000
vt 0.5906 0.3010 0.0000
vt 0.5909 0.2736 0.0000
vt 0.5206 0.2260 0.0000
vt 0.5200 0.2264 0.0000
vt 0.5221 0.2251 0.0000
vt 0.5160 0.2304 0.0000
vt 0.5146 0.2320 0.0000
vt 0.5171 0.2291 0.0000
vt 0.5180 0.2282 0.0000
vt 0.5190 0.2272 0.0000
vt 0.5134 0.2337 0.0000
vt 0.5093 0.2414 0.0000
vt 0.5081 0.2451 0.0000
vt 0.5224 0.2867 0.0000
vt 0.5486 0.2898 0.0000
vt 0.5774 0.2956 0.0000
# 102 texture coords

g X6166_541C_R_X6166_541C_R_2_DTaSI
usemtl lightglass_1SG
s 1
f 49/49/51 50/50/52 51/51/53 
f 50/50/52 52/52/54 51/51/53 
f 51/51/53 52/52/54 53/53/55 
f 52/52/54 54/54/56 53/53/55 
f 55/55/57 56/56/58 57/57/59 
f 56/56/58 58/58/60 57/57/59 
f 56/56/58 59/59/61 60/60/62 
f 61/61/63 60/60/62 62/62/64 
f 62/62/64 60/60/62 63/63/65 
f 63/63/65 60/60/62 64/64/66 
f 59/59/61 64/64/66 60/60/62 
f 65/65/67 66/66/68 67/67/69 
f 66/66/68 68/68/70 67/67/69 
f 69/69/71 70/70/72 68/68/70 
f 70/70/72 67/67/69 68/68/70 
f 71/71/73 69/69/71 72/72/74 
f 69/69/71 68/68/70 72/72/74 
f 66/66/68 73/73/75 68/68/70 
f 73/73/75 72/72/74 68/68/70 
f 73/73/75 74/74/76 72/72/74 
f 74/74/76 75/75/77 72/72/74 
f 76/76/78 71/71/73 75/75/77 
f 71/71/73 72/72/74 75/75/77 
f 77/77/79 76/76/78 60/60/62 
f 76/76/78 75/75/77 60/60/62 
f 75/75/77 78/78/80 60/60/62 
f 56/56/58 60/60/62 58/58/60 
f 58/58/60 60/60/62 78/78/80 
f 78/78/80 75/75/77 74/74/76 
f 66/66/68 65/65/67 79/79/81 
f 65/65/67 80/80/82 79/79/81 
f 73/73/75 66/66/68 81/81/83 
f 66/66/68 79/79/81 81/81/83 
f 74/74/76 73/73/75 82/82/84 
f 81/81/83 83/83/85 73/73/75 
f 73/73/75 83/83/85 82/82/84 
f 77/77/79 84/84/86 76/76/78 
f 84/84/86 85/85/87 76/76/78 
f 69/69/71 71/71/73 85/85/87 
f 71/71/73 76/76/78 85/85/87 
f 85/85/87 86/86/88 69/69/71 
f 86/86/88 70/70/72 69/69/71 
f 87/87/89 88/88/90 89/89/91 
f 88/88/90 90/90/92 89/89/91 
f 87/87/89 70/70/72 88/88/90 
f 70/70/72 86/86/88 88/88/90 
f 91/91/93 89/89/91 92/92/94 
f 89/89/91 90/90/92 92/92/94 
f 54/54/56 91/91/93 93/93/95 
f 91/91/93 92/92/94 93/93/95 
f 53/53/55 54/54/56 94/94/96 
f 54/54/56 93/93/95 94/94/96 
f 65/65/67 67/67/69 95/95/97 
f 67/67/69 96/96/98 95/95/97 
f 50/50/52 95/95/97 52/52/54 
f 95/95/97 96/96/98 52/52/54 
f 52/52/54 96/96/98 54/54/56 
f 96/96/98 91/91/93 54/54/56 
f 96/96/98 87/87/89 91/91/93 
f 87/87/89 89/89/91 91/91/93 
f 67/67/69 70/70/72 96/96/98 
f 70/70/72 87/87/89 96/96/98 
f 97/97/99 98/98/100 86/86/88 
f 98/98/100 88/88/90 86/86/88 
f 90/90/92 88/88/90 98/98/100 
f 50/50/52 49/49/51 99/99/101 
f 49/49/51 100/100/102 99/99/101 
f 95/95/97 50/50/52 101/101/103 
f 50/50/52 99/99/101 101/101/103 
f 65/65/67 95/95/97 80/80/82 
f 95/95/97 101/101/103 80/80/82 
f 102/102/104 56/56/58 103/103/105 
f 103/103/105 56/56/58 104/104/106 
f 56/56/58 55/55/57 104/104/106 
f 59/59/61 56/56/58 105/105/107 
f 105/105/107 56/56/58 106/106/108 
f 106/106/108 56/56/58 107/107/109 
f 107/107/109 56/56/58 108/108/110 
f 108/108/110 56/56/58 109/109/111 
f 109/109/111 56/56/58 110/110/112 
f 110/110/112 56/56/58 102/102/104 
f 60/60/62 61/61/63 77/77/79 
f 84/84/86 77/77/79 111/111/113 
f 77/77/79 61/61/63 111/111/113 
f 112/112/114 84/84/86 111/111/113 
f 84/84/86 112/112/114 85/85/87 
f 112/112/114 97/97/99 85/85/87 
f 97/97/99 86/86/88 85/85/87 
s 13
f 113/113/115 114/114/116 57/57/117 
f 114/114/116 55/55/118 57/57/117 
f 113/113/115 57/57/117 115/115/119 
f 57/57/117 58/58/120 115/115/119 
f 116/116/121 61/61/122 117/117/123 
f 61/61/122 62/62/124 117/117/123 
f 117/117/123 62/62/124 118/118/125 
f 62/62/124 63/63/126 118/118/125 
f 118/118/125 63/63/126 119/119/127 
f 63/63/126 64/64/128 119/119/127 
f 119/119/127 64/64/128 120/120/129 
f 64/64/128 59/59/130 120/120/129 
f 115/115/119 58/58/120 121/121/131 
f 58/58/120 78/78/132 121/121/131 
f 121/121/131 78/78/132 122/122/133 
f 78/78/132 74/74/134 122/122/133 
s 15
f 123/123/135 124/124/136 80/80/137 
f 124/124/136 79/79/138 80/80/137 
f 125/125/139 81/81/140 124/124/136 
f 81/81/140 79/79/138 124/124/136 
s 13
f 126/126/141 122/122/133 82/82/142 
f 122/122/133 74/74/134 82/82/142 
f 126/126/141 82/82/142 127/127/143 
f 82/82/142 83/83/144 127/127/143 
s 15
f 127/127/145 83/83/146 125/125/139 
f 83/83/146 81/81/140 125/125/139 
s 13
f 128/128/147 129/129/148 90/90/149 
f 129/129/148 92/92/150 90/90/149 
f 129/129/148 130/130/151 92/92/150 
f 130/130/151 93/93/152 92/92/150 
f 130/130/151 131/131/153 93/93/152 
f 131/131/153 94/94/154 93/93/152 
f 132/132/155 133/133/156 97/97/157 
f 133/133/156 98/98/158 97/97/157 
f 133/133/156 128/128/147 98/98/158 
f 128/128/147 90/90/149 98/98/158 
s 15
f 134/134/159 99/99/160 135/135/161 
f 99/99/160 100/100/162 135/135/161 
f 134/134/159 136/136/163 99/99/160 
f 136/136/163 101/101/164 99/99/160 
f 136/136/163 123/123/135 101/101/164 
f 123/123/135 80/80/137 101/101/164 
s 13
f 137/137/165 138/138/166 103/103/167 
f 138/138/166 102/102/168 103/103/167 
f 137/137/165 103/103/167 139/139/169 
f 103/103/167 104/104/170 139/139/169 
f 139/139/169 104/104/170 114/114/116 
f 104/104/170 55/55/118 114/114/116 
f 140/140/171 141/141/172 107/107/173 
f 141/141/172 106/106/174 107/107/173 
f 142/142/175 140/140/171 108/108/176 
f 140/140/171 107/107/173 108/108/176 
f 143/143/177 142/142/175 109/109/178 
f 142/142/175 108/108/176 109/109/178 
f 144/144/179 143/143/177 110/110/180 
f 143/143/177 109/109/178 110/110/180 
f 144/144/179 110/110/180 138/138/166 
f 110/110/180 102/102/168 138/138/166 
f 120/120/129 59/59/130 145/145/181 
f 59/59/130 105/105/182 145/145/181 
f 145/145/181 105/105/182 141/141/172 
f 105/105/182 106/106/174 141/141/172 
f 146/146/183 111/111/184 116/116/121 
f 111/111/184 61/61/122 116/116/121 
f 147/147/185 112/112/186 146/146/183 
f 112/112/186 111/111/184 146/146/183 
f 147/147/185 132/132/155 112/112/186 
f 132/132/155 97/97/157 112/112/186 
s 24
f 53/53/187 94/94/188 148/148/189 
f 94/94/188 131/131/190 148/148/189 
f 53/53/187 148/148/189 51/51/191 
f 148/148/189 149/149/191 51/51/191 
f 51/51/191 149/149/191 49/49/192 
f 149/149/191 150/150/193 49/49/192 
f 49/49/192 150/150/193 100/100/194 
f 150/150/193 135/135/195 100/100/194 
# 164 faces

