# 3ds Max Wavefront OBJ Exporter v0.97b - (c)2007 guruware
# File Created: 26.10.2015 10:39:48

mtllib N664_9A_325B_R.mtl

#
# object N664_9A_325B_R_1_DTaSI_N664_9A_325B_R
#

v  -19.2271 68.0180 74.0593
v  -18.1112 73.4202 70.7322
v  -18.9819 73.8807 70.4659
v  -16.8454 67.9144 74.0197
v  -17.0341 71.6545 71.9007
v  -35.0432 74.7059 70.4783
v  -35.2901 68.7628 74.1189
v  -27.1160 74.3565 70.4498
v  -27.2624 68.3938 74.1025
v  -51.2711 69.4804 74.0792
v  -43.4915 69.1249 74.0725
v  -50.9655 75.2547 70.5695
v  -43.2129 74.9509 70.5223
v  -20.2063 35.4160 87.2982
v  -17.2393 32.9142 87.9339
v  -17.2060 35.2153 87.3210
v  -20.7759 30.2211 88.5906
v  -18.9878 30.3179 88.5357
v  -28.2126 35.7287 87.2854
v  -36.4257 36.0548 87.3005
v  -28.6335 30.5357 88.5713
v  -36.6947 30.9182 88.5668
v  -44.6929 36.3799 87.2990
v  -52.4935 36.6945 87.3401
v  -44.9318 31.3235 88.5697
v  -52.7247 31.7037 88.5745
v  -19.5466 61.6015 77.4846
v  -19.7302 55.2978 80.5305
v  -16.9631 61.5454 77.4072
v  -17.0254 55.1680 80.4803
v  -20.0155 47.9748 83.5964
v  -20.1432 41.1394 85.7450
v  -17.0742 47.8268 83.5670
v  -17.1304 40.9802 85.7253
v  -27.5166 55.6449 80.6178
v  -27.3326 61.9573 77.5592
v  -35.6084 55.9739 80.6407
v  -35.4081 62.3108 77.5755
v  -43.8494 56.2842 80.6108
v  -43.6292 62.6557 77.5330
v  -51.6700 56.6046 80.6381
v  -51.4279 62.9993 77.5574
v  -65.7875 75.8956 70.4956
v  -66.0136 70.1329 74.0026
v  -58.5092 75.5971 70.6021
v  -58.8392 69.8327 74.1130
v  -80.0830 76.2474 70.0375
v  -80.4413 70.6543 73.4324
v  -73.0665 76.1235 70.2873
v  -73.1861 70.4030 73.7650
v  -94.6218 75.2276 70.6351
v  -96.0800 73.4006 71.8126
v  -87.9922 70.9489 73.2256
v  -96.4961 71.2892 73.0290
v  -59.2809 56.9293 80.6923
v  -59.0164 63.3414 77.6116
v  -66.5009 57.1547 80.5668
v  -66.2176 63.6149 77.4623
v  -82.0272 37.7417 86.7229
v  -82.0745 32.9104 88.0454
v  -74.4649 37.5011 87.0284
v  -74.6302 32.7042 88.2847
v  -60.0627 37.0030 87.3968
v  -67.2659 37.2644 87.2784
v  -60.2958 32.0944 88.6379
v  -67.4660 32.3827 88.5440
v  -17.4953 72.7326 71.1361
v  -17.8953 30.8090 88.4293
v  -17.4253 31.6893 88.2303
v  -96.1902 36.4326 87.1228
v  -94.5287 34.9652 87.4657
v  -89.7473 38.0314 86.5852
v  -88.0509 76.3182 69.9492
v  -90.4301 76.2982 69.9646
v  -92.9570 75.9804 70.1727
v  -89.4194 44.3420 84.8979
v  -89.1274 50.9868 82.8715
v  -97.5509 44.6810 84.8894
v  -97.3369 51.4443 82.5910
v  -81.5092 50.7460 82.8609
v  -81.7871 43.9767 84.9774
v  -73.9912 50.5146 83.1771
v  -74.2509 43.7131 85.3029
v  -66.8202 50.2293 83.4539
v  -67.0306 43.4447 85.5707
v  -59.6486 49.8987 83.6123
v  -59.8067 43.1329 85.7182
v  -52.0345 49.5274 83.5851
v  -52.2343 42.7426 85.6963
v  -44.4318 42.3454 85.6875
v  -44.1997 49.1530 83.5795
v  -35.9228 48.7759 83.6223
v  -36.1663 41.9401 85.7213
v  -27.7268 48.4036 83.6101
v  -27.9255 41.5240 85.7216
v  -89.9978 33.3585 87.8603
v  -97.2778 38.3288 86.6524
v  -97.6799 40.4721 86.0968
v  -92.5364 33.9569 87.7240
v  -73.7203 57.3228 80.3183
v  -73.4175 63.8512 77.1664
v  -81.1747 57.4733 80.0126
v  -80.8135 64.0767 76.7949
v  -88.7329 57.6862 79.8318
v  -88.3518 64.3605 76.6285
v  -97.0455 57.9770 79.7542
v  -96.7512 64.7020 76.5425
# 107 vertices

vn 0.0311 0.4912 0.8705
vn 0.0329 0.5101 0.8595
vn 0.0325 0.5111 0.8589
vn 0.0322 0.4915 0.8703
vn 0.0330 0.5058 0.8620
vn 0.0259 0.5079 0.8610
vn 0.0243 0.4891 0.8719
vn 0.0288 0.5096 0.8599
vn 0.0273 0.4899 0.8713
vn 0.0166 0.4876 0.8729
vn 0.0218 0.4885 0.8723
vn 0.0187 0.5043 0.8633
vn 0.0231 0.5065 0.8620
vn 0.0174 0.2686 0.9631
vn 0.0193 0.2617 0.9650
vn 0.0194 0.2686 0.9630
vn 0.0165 0.2529 0.9674
vn 0.0179 0.2535 0.9672
vn 0.0125 0.2679 0.9634
vn 0.0095 0.2664 0.9638
vn 0.0109 0.2522 0.9676
vn 0.0080 0.2509 0.9680
vn 0.0083 0.2643 0.9644
vn 0.0062 0.2639 0.9645
vn 0.0070 0.2488 0.9685
vn 0.0054 0.2486 0.9686
vn 0.0282 0.4475 0.8938
vn 0.0255 0.4035 0.9146
vn 0.0294 0.4482 0.8935
vn 0.0266 0.4040 0.9144
vn 0.0220 0.3520 0.9357
vn 0.0191 0.3046 0.9523
vn 0.0233 0.3525 0.9355
vn 0.0209 0.3048 0.9522
vn 0.0219 0.4030 0.9150
vn 0.0246 0.4471 0.8941
vn 0.0192 0.4021 0.9154
vn 0.0218 0.4464 0.8946
vn 0.0173 0.4017 0.9156
vn 0.0198 0.4462 0.8947
vn 0.0124 0.4019 0.9156
vn 0.0141 0.4458 0.8950
vn 0.0062 0.4983 0.8670
vn 0.0033 0.4840 0.8751
vn 0.0124 0.5023 0.8646
vn 0.0096 0.4859 0.8740
vn -0.0019 0.4897 0.8719
vn -0.0035 0.4776 0.8786
vn 0.0004 0.4931 0.8700
vn -0.0027 0.4800 0.8772
vn 0.0045 0.4850 0.8745
vn 0.0058 0.4827 0.8758
vn 0.0012 0.4765 0.8792
vn 0.0073 0.4771 0.8788
vn 0.0037 0.4019 0.9157
vn 0.0056 0.4456 0.8952
vn -0.0027 0.4031 0.9151
vn -0.0007 0.4449 0.8956
vn -0.0070 0.2763 0.9610
vn -0.0064 0.2616 0.9652
vn -0.0050 0.2730 0.9620
vn -0.0039 0.2584 0.9660
vn 0.0018 0.2652 0.9642
vn -0.0018 0.2682 0.9634
vn 0.0026 0.2501 0.9682
vn -0.0009 0.2532 0.9674
vn 0.0330 0.5086 0.8604
vn 0.0188 0.2552 0.9667
vn 0.0191 0.2580 0.9660
vn -0.0057 0.2726 0.9621
vn -0.0060 0.2687 0.9632
vn -0.0056 0.2779 0.9606
vn 0.0010 0.4871 0.8734
vn 0.0025 0.4864 0.8737
vn 0.0038 0.4857 0.8741
vn -0.0049 0.3146 0.9492
vn -0.0012 0.3590 0.9333
vn -0.0011 0.3144 0.9493
vn 0.0046 0.3603 0.9328
vn -0.0076 0.3584 0.9335
vn -0.0084 0.3128 0.9498
vn -0.0086 0.3569 0.9341
vn -0.0068 0.3102 0.9507
vn -0.0042 0.3534 0.9355
vn -0.0030 0.3059 0.9521
vn 0.0019 0.3512 0.9363
vn 0.0024 0.3029 0.9530
vn 0.0097 0.3500 0.9367
vn 0.0083 0.3015 0.9534
vn 0.0112 0.3011 0.9535
vn 0.0146 0.3496 0.9368
vn 0.0161 0.3505 0.9364
vn 0.0126 0.3025 0.9531
vn 0.0187 0.3513 0.9361
vn 0.0149 0.3039 0.9526
vn -0.0070 0.2638 0.9646
vn -0.0049 0.2779 0.9606
vn -0.0038 0.2857 0.9583
vn -0.0064 0.2658 0.9640
vn -0.0085 0.4033 0.9150
vn -0.0066 0.4451 0.8955
vn -0.0074 0.4034 0.9150
vn -0.0074 0.4425 0.8967
vn 0.0008 0.4039 0.9148
vn 0.0004 0.4430 0.8965
vn 0.0067 0.4038 0.9148
vn 0.0088 0.4435 0.8962
# 107 vertex normals

vt 0.9522 0.5096 0.0000
vt 0.9553 0.5328 0.0000
vt 0.9520 0.5346 0.0000
vt 0.9611 0.5097 0.0000
vt 0.9597 0.5254 0.0000
vt 0.8922 0.5347 0.0000
vt 0.8924 0.5094 0.0000
vt 0.9217 0.5349 0.0000
vt 0.9223 0.5095 0.0000
vt 0.8328 0.5091 0.0000
vt 0.8618 0.5093 0.0000
vt 0.8329 0.5337 0.0000
vt 0.8618 0.5340 0.0000
vt 0.9546 0.3789 0.0000
vt 0.9661 0.3699 0.0000
vt 0.9658 0.3787 0.0000
vt 0.9534 0.3590 0.0000
vt 0.9601 0.3597 0.0000
vt 0.9248 0.3786 0.0000
vt 0.8942 0.3783 0.0000
vt 0.9242 0.3587 0.0000
vt 0.8942 0.3587 0.0000
vt 0.8634 0.3780 0.0000
vt 0.8344 0.3777 0.0000
vt 0.8635 0.3586 0.0000
vt 0.8344 0.3586 0.0000
vt 0.9522 0.4829 0.0000
vt 0.9527 0.4571 0.0000
vt 0.9618 0.4833 0.0000
vt 0.9627 0.4571 0.0000
vt 0.9530 0.4276 0.0000
vt 0.9538 0.4009 0.0000
vt 0.9639 0.4276 0.0000
vt 0.9650 0.4009 0.0000
vt 0.9237 0.4568 0.0000
vt 0.9232 0.4827 0.0000
vt 0.8935 0.4565 0.0000
vt 0.8931 0.4825 0.0000
vt 0.8628 0.4562 0.0000
vt 0.8625 0.4823 0.0000
vt 0.8337 0.4559 0.0000
vt 0.8334 0.4821 0.0000
vt 0.7777 0.5334 0.0000
vt 0.7779 0.5089 0.0000
vt 0.8048 0.5335 0.0000
vt 0.8046 0.5090 0.0000
vt 0.7245 0.5327 0.0000
vt 0.7242 0.5089 0.0000
vt 0.7506 0.5332 0.0000
vt 0.7512 0.5089 0.0000
vt 0.6707 0.5258 0.0000
vt 0.6656 0.5177 0.0000
vt 0.6961 0.5088 0.0000
vt 0.6644 0.5088 0.0000
vt 0.8054 0.4556 0.0000
vt 0.8052 0.4819 0.0000
vt 0.7785 0.4553 0.0000
vt 0.7784 0.4818 0.0000
vt 0.7244 0.3769 0.0000
vt 0.7251 0.3583 0.0000
vt 0.7526 0.3770 0.0000
vt 0.7528 0.3586 0.0000
vt 0.8062 0.3774 0.0000
vt 0.7794 0.3772 0.0000
vt 0.8062 0.3586 0.0000
vt 0.7795 0.3584 0.0000
vt 0.9578 0.5300 0.0000
vt 0.9640 0.3618 0.0000
vt 0.9656 0.3652 0.0000
vt 0.6720 0.3693 0.0000
vt 0.6785 0.3640 0.0000
vt 0.6957 0.3767 0.0000
vt 0.6949 0.5316 0.0000
vt 0.6860 0.5311 0.0000
vt 0.6767 0.5293 0.0000
vt 0.6957 0.4010 0.0000
vt 0.6956 0.4269 0.0000
vt 0.6654 0.4008 0.0000
vt 0.6650 0.4274 0.0000
vt 0.7239 0.4274 0.0000
vt 0.7241 0.4010 0.0000
vt 0.7519 0.4275 0.0000
vt 0.7522 0.4010 0.0000
vt 0.7786 0.4274 0.0000
vt 0.7791 0.4010 0.0000
vt 0.8053 0.4273 0.0000
vt 0.8060 0.4010 0.0000
vt 0.8337 0.4274 0.0000
vt 0.8342 0.4010 0.0000
vt 0.8633 0.4010 0.0000
vt 0.8629 0.4275 0.0000
vt 0.8937 0.4276 0.0000
vt 0.8941 0.4009 0.0000
vt 0.9242 0.4277 0.0000
vt 0.9248 0.4009 0.0000
vt 0.6956 0.3587 0.0000
vt 0.6676 0.3764 0.0000
vt 0.6657 0.3845 0.0000
vt 0.6861 0.3605 0.0000
vt 0.7516 0.4549 0.0000
vt 0.7516 0.4817 0.0000
vt 0.7239 0.4545 0.0000
vt 0.7240 0.4817 0.0000
vt 0.6958 0.4541 0.0000
vt 0.6960 0.4815 0.0000
vt 0.6648 0.4538 0.0000
vt 0.6647 0.4814 0.0000
# 107 texture coords

g N664_9A_325B_R_1_DTaSI_N664_9A_325B_R
usemtl windowglass_1SG
s 1
f 1/1/1 2/2/2 3/3/3 
f 1/1/1 4/4/4 5/5/5 
f 6/6/6 7/7/7 8/8/8 
f 8/8/8 7/7/7 9/9/9 
f 10/10/10 11/11/11 12/12/12 
f 12/12/12 11/11/11 13/13/13 
f 14/14/14 15/15/15 16/16/16 
f 17/17/17 18/18/18 14/14/14 
f 19/19/19 20/20/20 21/21/21 
f 21/21/21 20/20/20 22/22/22 
f 23/23/23 24/24/24 25/25/25 
f 25/25/25 24/24/24 26/26/26 
f 27/27/27 28/28/28 29/29/29 
f 29/29/29 28/28/28 30/30/30 
f 31/31/31 32/32/32 33/33/33 
f 33/33/33 32/32/32 34/34/34 
f 35/35/35 36/36/36 37/37/37 
f 37/37/37 36/36/36 38/38/38 
f 39/39/39 40/40/40 41/41/41 
f 41/41/41 40/40/40 42/42/42 
f 43/43/43 44/44/44 45/45/45 
f 45/45/45 44/44/44 46/46/46 
f 47/47/47 48/48/48 49/49/49 
f 49/49/49 48/48/48 50/50/50 
f 51/51/51 52/52/52 53/53/53 
f 53/53/53 52/52/52 54/54/54 
f 55/55/55 56/56/56 57/57/57 
f 57/57/57 56/56/56 58/58/58 
f 59/59/59 60/60/60 61/61/61 
f 61/61/61 60/60/60 62/62/62 
f 63/63/63 64/64/64 65/65/65 
f 65/65/65 64/64/64 66/66/66 
f 1/1/1 67/67/67 2/2/2 
f 1/1/1 5/5/5 67/67/67 
f 14/14/14 68/68/68 69/69/69 
f 14/14/14 69/69/69 15/15/15 
f 11/11/11 7/7/7 13/13/13 
f 13/13/13 7/7/7 6/6/6 
f 20/20/20 23/23/23 22/22/22 
f 22/22/22 23/23/23 25/25/25 
f 46/46/46 10/10/10 45/45/45 
f 45/45/45 10/10/10 12/12/12 
f 24/24/24 63/63/63 26/26/26 
f 26/26/26 63/63/63 65/65/65 
f 49/49/49 50/50/50 43/43/43 
f 43/43/43 50/50/50 44/44/44 
f 61/61/61 62/62/62 64/64/64 
f 64/64/64 62/62/62 66/66/66 
f 1/1/1 3/3/3 9/9/9 
f 9/9/9 3/3/3 8/8/8 
f 14/14/14 19/19/19 17/17/17 
f 17/17/17 19/19/19 21/21/21 
f 70/70/70 71/71/71 72/72/72 
f 48/48/48 47/47/47 53/53/53 
f 53/53/53 47/47/47 73/73/73 
f 53/53/53 73/73/73 74/74/74 
f 53/53/53 74/74/74 75/75/75 
f 51/51/51 53/53/53 75/75/75 
f 76/76/76 77/77/77 78/78/78 
f 78/78/78 77/77/77 79/79/79 
f 80/80/80 81/81/81 82/82/82 
f 82/82/82 81/81/81 83/83/83 
f 82/82/82 83/83/83 84/84/84 
f 84/84/84 83/83/83 85/85/85 
f 84/84/84 85/85/85 86/86/86 
f 86/86/86 85/85/85 87/87/87 
f 86/86/86 87/87/87 88/88/88 
f 88/88/88 87/87/87 89/89/89 
f 90/90/90 91/91/91 89/89/89 
f 89/89/89 91/91/91 88/88/88 
f 91/91/91 90/90/90 92/92/92 
f 92/92/92 90/90/90 93/93/93 
f 92/92/92 93/93/93 94/94/94 
f 94/94/94 93/93/93 95/95/95 
f 94/94/94 95/95/95 31/31/31 
f 31/31/31 95/95/95 32/32/32 
f 76/76/76 81/81/81 77/77/77 
f 77/77/77 81/81/81 80/80/80 
f 72/72/72 96/96/96 59/59/59 
f 59/59/59 96/96/96 60/60/60 
f 97/97/97 72/72/72 98/98/98 
f 70/70/70 72/72/72 97/97/97 
f 72/72/72 71/71/71 99/99/99 
f 72/72/72 99/99/99 96/96/96 
f 16/16/16 34/34/34 14/14/14 
f 14/14/14 34/34/34 32/32/32 
f 14/14/14 32/32/32 19/19/19 
f 19/19/19 32/32/32 95/95/95 
f 20/20/20 19/19/19 93/93/93 
f 93/93/93 19/19/19 95/95/95 
f 20/20/20 93/93/93 23/23/23 
f 23/23/23 93/93/93 90/90/90 
f 23/23/23 90/90/90 24/24/24 
f 24/24/24 90/90/90 89/89/89 
f 24/24/24 89/89/89 63/63/63 
f 63/63/63 89/89/89 87/87/87 
f 63/63/63 87/87/87 64/64/64 
f 64/64/64 87/87/87 85/85/85 
f 64/64/64 85/85/85 61/61/61 
f 61/61/61 85/85/85 83/83/83 
f 61/61/61 83/83/83 59/59/59 
f 59/59/59 83/83/83 81/81/81 
f 59/59/59 81/81/81 72/72/72 
f 72/72/72 81/81/81 76/76/76 
f 72/72/72 76/76/76 98/98/98 
f 98/98/98 76/76/76 78/78/78 
f 28/28/28 27/27/27 35/35/35 
f 35/35/35 27/27/27 36/36/36 
f 37/37/37 38/38/38 39/39/39 
f 39/39/39 38/38/38 40/40/40 
f 41/41/41 42/42/42 55/55/55 
f 55/55/55 42/42/42 56/56/56 
f 57/57/57 58/58/58 100/100/100 
f 100/100/100 58/58/58 101/101/101 
f 102/102/102 100/100/100 103/103/103 
f 103/103/103 100/100/100 101/101/101 
f 104/104/104 102/102/102 105/105/105 
f 105/105/105 102/102/102 103/103/103 
f 106/106/106 104/104/104 107/107/107 
f 107/107/107 104/104/104 105/105/105 
f 27/27/27 29/29/29 1/1/1 
f 1/1/1 29/29/29 4/4/4 
f 27/27/27 1/1/1 36/36/36 
f 36/36/36 1/1/1 9/9/9 
f 7/7/7 38/38/38 9/9/9 
f 9/9/9 38/38/38 36/36/36 
f 38/38/38 7/7/7 40/40/40 
f 40/40/40 7/7/7 11/11/11 
f 10/10/10 42/42/42 11/11/11 
f 11/11/11 42/42/42 40/40/40 
f 42/42/42 10/10/10 56/56/56 
f 56/56/56 10/10/10 46/46/46 
f 44/44/44 58/58/58 46/46/46 
f 46/46/46 58/58/58 56/56/56 
f 50/50/50 101/101/101 44/44/44 
f 44/44/44 101/101/101 58/58/58 
f 48/48/48 103/103/103 50/50/50 
f 50/50/50 103/103/103 101/101/101 
f 105/105/105 103/103/103 53/53/53 
f 53/53/53 103/103/103 48/48/48 
f 105/105/105 53/53/53 107/107/107 
f 107/107/107 53/53/53 54/54/54 
f 14/14/14 18/18/18 68/68/68 
f 28/28/28 31/31/31 30/30/30 
f 30/30/30 31/31/31 33/33/33 
f 31/31/31 28/28/28 94/94/94 
f 94/94/94 28/28/28 35/35/35 
f 37/37/37 92/92/92 35/35/35 
f 35/35/35 92/92/92 94/94/94 
f 91/91/91 92/92/92 39/39/39 
f 39/39/39 92/92/92 37/37/37 
f 88/88/88 91/91/91 41/41/41 
f 41/41/41 91/91/91 39/39/39 
f 86/86/86 88/88/88 55/55/55 
f 55/55/55 88/88/88 41/41/41 
f 84/84/84 86/86/86 57/57/57 
f 57/57/57 86/86/86 55/55/55 
f 84/84/84 57/57/57 82/82/82 
f 82/82/82 57/57/57 100/100/100 
f 80/80/80 82/82/82 102/102/102 
f 102/102/102 82/82/82 100/100/100 
f 77/77/77 80/80/80 104/104/104 
f 104/104/104 80/80/80 102/102/102 
f 77/77/77 104/104/104 79/79/79 
f 79/79/79 104/104/104 106/106/106 
# 165 faces

