# 3ds Max Wavefront OBJ Exporter v0.97b - (c)2007 guruware
# File Created: 26.10.2015 10:38:07

mtllib N664_9A_265B_R.mtl

#
# object N664_9A_265B_R_DTaSI_N664_9A_265B_R
#

v  61.0052 56.9132 74.6025
v  62.5179 58.7360 73.6578
v  56.8810 62.0981 72.3171
v  75.9298 23.7166 85.4024
v  75.9024 30.1627 83.6547
v  68.2737 24.1189 85.7144
v  68.2091 30.5656 84.0262
v  87.3032 23.1522 84.8928
v  87.0115 29.6863 83.1534
v  83.5857 23.3331 85.0600
v  83.4969 29.8245 83.3123
v  83.1915 42.9278 79.1173
v  83.3540 36.2744 81.4209
v  86.2424 42.2586 79.1586
v  86.6609 36.1642 81.2374
v  30.8850 70.7255 69.3650
v  36.3949 71.3217 68.6818
v  33.9778 71.8952 68.5041
v  46.0822 64.2812 71.8608
v  49.1139 66.4221 70.5274
v  46.7208 67.5935 70.0469
v  51.4482 65.1503 71.0618
v  3.2148 75.9883 67.8630
v  7.3661 72.2883 69.7437
v  8.9350 75.5276 67.8783
v  46.0720 57.8837 75.0925
v  53.5673 57.4731 74.8062
v  53.4554 50.8878 77.9360
v  45.9772 51.3235 78.2043
v  45.5991 31.7064 84.8247
v  45.4760 25.3289 86.3734
v  53.2015 31.3306 84.6009
v  53.1364 24.9504 86.1830
v  38.3214 58.3004 75.3637
v  38.4136 64.7496 72.1304
v  30.5446 58.7180 75.6347
v  30.7473 65.2180 72.4004
v  38.2164 51.7570 78.4372
v  30.3517 52.1963 78.6733
v  37.7503 32.0201 85.0200
v  29.6589 32.3435 85.2213
v  37.5678 25.6605 86.5601
v  29.3988 25.9443 86.7357
v  14.9068 66.1233 72.7802
v  14.8578 59.5604 76.1811
v  23.1221 65.6536 72.5825
v  22.8097 59.1342 75.9067
v  22.5835 52.6141 78.8670
v  14.7929 53.0330 79.0612
v  14.2876 32.9766 85.5108
v  14.1106 26.5710 86.9964
v  21.9733 32.6601 85.3661
v  21.7537 26.2353 86.8625
v  7.4150 66.5408 72.9295
v  7.3652 59.9267 76.3300
v  7.3639 53.4399 79.2645
v  7.4412 33.2729 85.5588
v  7.4586 26.9132 87.0463
v  45.7141 38.0466 83.1449
v  53.2703 37.6880 82.8948
v  75.7432 36.5948 81.7974
v  68.1520 36.9687 82.2341
v  29.9118 38.7077 83.5801
v  37.9258 38.3725 83.3594
v  14.4573 39.3520 83.9116
v  22.1845 39.0298 83.7458
v  7.4059 39.6018 83.9576
v  60.8351 30.9531 84.3755
v  60.7942 24.5351 85.9658
v  60.8760 37.3269 82.6412
v  23.4358 71.2197 69.4825
v  26.0937 73.3700 68.1524
v  30.9273 72.5139 68.3578
v  75.5773 43.3689 79.4882
v  68.0589 49.9847 77.2845
v  73.0173 51.8629 76.1116
v  67.7362 55.3849 74.8804
v  44.6833 68.4760 69.7077
v  38.3024 70.2145 69.1860
v  40.4593 70.0649 69.1305
v  38.2858 70.7759 68.8783
v  20.9104 74.1531 67.9450
v  1.3772 72.6731 69.7968
v  1.2197 76.1166 67.8328
v  14.9433 71.7683 69.5676
v  14.9630 74.8821 67.7721
v  42.6032 69.2747 69.4160
v  3.1708 33.4578 85.5887
v  3.3815 27.1230 87.0769
v  2.9313 39.7603 83.9867
v  2.5682 47.1737 81.7177
v  7.3243 46.9491 81.7028
v  1.9819 60.2919 76.4151
v  2.2718 53.7872 79.1559
v  1.6408 67.0104 72.9719
v  60.9210 44.2499 80.2970
v  68.1071 43.8186 79.9023
v  45.8275 45.0602 80.8418
v  53.3592 44.6564 80.5715
v  38.0965 45.4546 81.0595
v  30.1721 45.8590 81.2833
v  22.4043 46.2453 81.4726
v  14.6339 46.6318 81.6619
v  77.8095 48.3827 77.2157
v  60.9620 50.4447 77.6526
v  83.3752 44.3408 78.4980
# 106 vertices

vn 0.0598 0.4251 0.9032
vn 0.0506 0.4261 0.9032
vn 0.0504 0.4441 0.8946
vn 0.0560 0.2592 0.9642
vn 0.0585 0.2681 0.9616
vn 0.0546 0.2524 0.9661
vn 0.0592 0.2610 0.9635
vn 0.0549 0.2597 0.9641
vn 0.0565 0.2710 0.9609
vn 0.0554 0.2605 0.9639
vn 0.0566 0.2708 0.9610
vn 0.0642 0.3440 0.9368
vn 0.0600 0.3037 0.9509
vn 0.0615 0.3287 0.9424
vn 0.0597 0.3038 0.9509
vn 0.0515 0.4812 0.8751
vn 0.0539 0.4897 0.8702
vn 0.0547 0.4940 0.8677
vn 0.0582 0.4534 0.8894
vn 0.0546 0.4710 0.8804
vn 0.0559 0.4712 0.8802
vn 0.0569 0.4508 0.8908
vn 0.0344 0.4887 0.8717
vn 0.0470 0.4880 0.8716
vn 0.0547 0.4867 0.8718
vn 0.0565 0.4378 0.8973
vn 0.0574 0.4350 0.8986
vn 0.0566 0.4085 0.9110
vn 0.0531 0.4070 0.9119
vn 0.0374 0.2457 0.9686
vn 0.0356 0.2362 0.9711
vn 0.0410 0.2487 0.9677
vn 0.0393 0.2389 0.9703
vn 0.0547 0.4353 0.8986
vn 0.0572 0.4575 0.8874
vn 0.0526 0.4328 0.9000
vn 0.0532 0.4619 0.8853
vn 0.0500 0.4041 0.9134
vn 0.0480 0.4000 0.9153
vn 0.0339 0.2425 0.9696
vn 0.0308 0.2391 0.9705
vn 0.0322 0.2332 0.9719
vn 0.0288 0.2297 0.9728
vn 0.0466 0.4721 0.8803
vn 0.0463 0.4328 0.9003
vn 0.0487 0.4679 0.8825
vn 0.0503 0.4321 0.9004
vn 0.0459 0.3949 0.9176
vn 0.0420 0.3891 0.9202
vn 0.0231 0.2351 0.9717
vn 0.0229 0.2260 0.9739
vn 0.0282 0.2360 0.9713
vn 0.0268 0.2265 0.9736
vn 0.0445 0.4722 0.8804
vn 0.0392 0.4322 0.9009
vn 0.0302 0.3833 0.9231
vn 0.0170 0.2363 0.9715
vn 0.0178 0.2273 0.9737
vn 0.0420 0.2849 0.9576
vn 0.0460 0.2886 0.9563
vn 0.0640 0.3013 0.9514
vn 0.0673 0.2968 0.9526
vn 0.0357 0.2781 0.9599
vn 0.0384 0.2815 0.9588
vn 0.0252 0.2721 0.9619
vn 0.0328 0.2745 0.9610
vn 0.0167 0.2721 0.9621
vn 0.0497 0.2531 0.9662
vn 0.0466 0.2434 0.9688
vn 0.0562 0.2924 0.9546
vn 0.0447 0.4871 0.8722
vn 0.0458 0.4864 0.8725
vn 0.0486 0.4861 0.8725
vn 0.0688 0.3525 0.9333
vn 0.0699 0.3985 0.9145
vn 0.0669 0.3954 0.9161
vn 0.0650 0.4168 0.9067
vn 0.0592 0.4719 0.8796
vn 0.0567 0.4782 0.8764
vn 0.0567 0.4742 0.8786
vn 0.0541 0.4886 0.8709
vn 0.0386 0.4941 0.8685
vn 0.0398 0.4880 0.8719
vn 0.0340 0.4895 0.8714
vn 0.0476 0.4897 0.8706
vn 0.0500 0.4905 0.8700
vn 0.0591 0.4723 0.8795
vn 0.0170 0.2379 0.9711
vn 0.0179 0.2285 0.9734
vn 0.0165 0.2736 0.9617
vn 0.0142 0.3265 0.9451
vn 0.0209 0.3267 0.9449
vn 0.0360 0.4325 0.9009
vn 0.0192 0.3811 0.9243
vn 0.0434 0.4727 0.8802
vn 0.0617 0.3534 0.9335
vn 0.0715 0.3548 0.9322
vn 0.0477 0.3473 0.9365
vn 0.0520 0.3507 0.9351
vn 0.0439 0.3438 0.9380
vn 0.0414 0.3403 0.9394
vn 0.0388 0.3368 0.9408
vn 0.0321 0.3315 0.9429
vn 0.0708 0.3879 0.9190
vn 0.0630 0.4065 0.9115
vn 0.0686 0.3881 0.9191
# 106 vertex normals

vt 0.7696 0.8646 0.0000
vt 0.7643 0.8567 0.0000
vt 0.7859 0.8443 0.0000
vt 0.7080 0.9917 0.0000
vt 0.7093 0.9669 0.0000
vt 0.7365 0.9920 0.0000
vt 0.7380 0.9673 0.0000
vt 0.6656 0.9910 0.0000
vt 0.6679 0.9660 0.0000
vt 0.6795 0.9913 0.0000
vt 0.6810 0.9663 0.0000
vt 0.6846 0.9153 0.0000
vt 0.6827 0.9414 0.0000
vt 0.6731 0.9171 0.0000
vt 0.6704 0.9410 0.0000
vt 0.8841 0.8150 0.0000
vt 0.8638 0.8111 0.0000
vt 0.8728 0.8093 0.0000
vt 0.8264 0.8380 0.0000
vt 0.8156 0.8283 0.0000
vt 0.8247 0.8240 0.0000
vt 0.8067 0.8330 0.0000
vt 0.9879 0.7995 0.0000
vt 0.9718 0.8141 0.0000
vt 0.9666 0.8002 0.0000
vt 0.8253 0.8644 0.0000
vt 0.7974 0.8641 0.0000
vt 0.7966 0.8911 0.0000
vt 0.8244 0.8912 0.0000
vt 0.8222 0.9682 0.0000
vt 0.8215 0.9925 0.0000
vt 0.7939 0.9679 0.0000
vt 0.7929 0.9923 0.0000
vt 0.8542 0.8646 0.0000
vt 0.8550 0.8380 0.0000
vt 0.8832 0.8648 0.0000
vt 0.8836 0.8380 0.0000
vt 0.8534 0.8913 0.0000
vt 0.8827 0.8914 0.0000
vt 0.8514 0.9687 0.0000
vt 0.8816 0.9692 0.0000
vt 0.8509 0.9930 0.0000
vt 0.8813 0.9936 0.0000
vt 0.9427 0.8381 0.0000
vt 0.9416 0.8652 0.0000
vt 0.9120 0.8380 0.0000
vt 0.9120 0.8650 0.0000
vt 0.9116 0.8915 0.0000
vt 0.9407 0.8917 0.0000
vt 0.9388 0.9701 0.0000
vt 0.9383 0.9944 0.0000
vt 0.9102 0.9696 0.0000
vt 0.9098 0.9941 0.0000
vt 0.9706 0.8381 0.0000
vt 0.9695 0.8655 0.0000
vt 0.9684 0.8918 0.0000
vt 0.9643 0.9703 0.0000
vt 0.9631 0.9944 0.0000
vt 0.8230 0.9439 0.0000
vt 0.7948 0.9435 0.0000
vt 0.7111 0.9421 0.0000
vt 0.7394 0.9426 0.0000
vt 0.8818 0.9448 0.0000
vt 0.8520 0.9443 0.0000
vt 0.9394 0.9457 0.0000
vt 0.9106 0.9453 0.0000
vt 0.9656 0.9461 0.0000
vt 0.7654 0.9676 0.0000
vt 0.7644 0.9921 0.0000
vt 0.7665 0.9431 0.0000
vt 0.9119 0.8147 0.0000
vt 0.9024 0.8051 0.0000
vt 0.8843 0.8075 0.0000
vt 0.7130 0.9155 0.0000
vt 0.7421 0.8909 0.0000
vt 0.7240 0.8820 0.0000
vt 0.7443 0.8691 0.0000
vt 0.8324 0.8209 0.0000
vt 0.8565 0.8153 0.0000
vt 0.8484 0.8153 0.0000
vt 0.8566 0.8129 0.0000
vt 0.9218 0.8030 0.0000
vt 0.9942 0.8138 0.0000
vt 0.9954 0.7994 0.0000
vt 0.9436 0.8144 0.0000
vt 0.9441 0.8013 0.0000
vt 0.8403 0.8181 0.0000
vt 0.9802 0.9704 0.0000
vt 0.9783 0.9945 0.0000
vt 0.9823 0.9464 0.0000
vt 0.9850 0.9176 0.0000
vt 0.9673 0.9176 0.0000
vt 0.9896 0.8652 0.0000
vt 0.9873 0.8913 0.0000
vt 0.9921 0.8375 0.0000
vt 0.7676 0.9159 0.0000
vt 0.7408 0.9157 0.0000
vt 0.8238 0.9164 0.0000
vt 0.7958 0.9162 0.0000
vt 0.8527 0.9166 0.0000
vt 0.8822 0.9169 0.0000
vt 0.9111 0.9171 0.0000
vt 0.9401 0.9173 0.0000
vt 0.7056 0.8947 0.0000
vt 0.7686 0.8910 0.0000
vt 0.6842 0.9095 0.0000
# 106 texture coords

g N664_9A_265B_R_DTaSI_N664_9A_265B_R
usemtl windowglass_1SG
s 1
f 1/1/1 2/2/2 3/3/3 
f 4/4/4 5/5/5 6/6/6 
f 6/6/6 5/5/5 7/7/7 
f 8/8/8 9/9/9 10/10/10 
f 10/10/10 9/9/9 11/11/11 
f 12/12/12 13/13/13 14/14/14 
f 14/14/14 13/13/13 15/15/15 
f 16/16/16 17/17/17 18/18/18 
f 19/19/19 20/20/20 21/21/21 
f 22/22/22 20/20/20 19/19/19 
f 23/23/23 24/24/24 25/25/25 
f 19/19/19 26/26/26 22/22/22 
f 22/22/22 26/26/26 27/27/27 
f 28/28/28 27/27/27 29/29/29 
f 29/29/29 27/27/27 26/26/26 
f 30/30/30 31/31/31 32/32/32 
f 32/32/32 31/31/31 33/33/33 
f 34/34/34 35/35/35 36/36/36 
f 36/36/36 35/35/35 37/37/37 
f 38/38/38 34/34/34 39/39/39 
f 39/39/39 34/34/34 36/36/36 
f 40/40/40 41/41/41 42/42/42 
f 42/42/42 41/41/41 43/43/43 
f 44/44/44 45/45/45 46/46/46 
f 46/46/46 45/45/45 47/47/47 
f 48/48/48 47/47/47 49/49/49 
f 49/49/49 47/47/47 45/45/45 
f 50/50/50 51/51/51 52/52/52 
f 52/52/52 51/51/51 53/53/53 
f 54/54/54 55/55/55 44/44/44 
f 44/44/44 55/55/55 45/45/45 
f 55/55/55 56/56/56 45/45/45 
f 45/45/45 56/56/56 49/49/49 
f 57/57/57 58/58/58 50/50/50 
f 50/50/50 58/58/58 51/51/51 
f 59/59/59 30/30/30 60/60/60 
f 60/60/60 30/30/30 32/32/32 
f 5/5/5 61/61/61 7/7/7 
f 7/7/7 61/61/61 62/62/62 
f 9/9/9 15/15/15 11/11/11 
f 11/11/11 15/15/15 13/13/13 
f 41/41/41 40/40/40 63/63/63 
f 63/63/63 40/40/40 64/64/64 
f 65/65/65 50/50/50 66/66/66 
f 66/66/66 50/50/50 52/52/52 
f 50/50/50 65/65/65 57/57/57 
f 57/57/57 65/65/65 67/67/67 
f 68/68/68 69/69/69 7/7/7 
f 7/7/7 69/69/69 6/6/6 
f 70/70/70 68/68/68 62/62/62 
f 62/62/62 68/68/68 7/7/7 
f 22/22/22 27/27/27 3/3/3 
f 71/71/71 16/16/16 72/72/72 
f 72/72/72 16/16/16 73/73/73 
f 46/46/46 47/47/47 37/37/37 
f 37/37/37 47/47/47 36/36/36 
f 63/63/63 66/66/66 41/41/41 
f 41/41/41 66/66/66 52/52/52 
f 53/53/53 43/43/43 52/52/52 
f 52/52/52 43/43/43 41/41/41 
f 10/10/10 11/11/11 4/4/4 
f 4/4/4 11/11/11 5/5/5 
f 11/11/11 13/13/13 5/5/5 
f 5/5/5 13/13/13 61/61/61 
f 74/74/74 61/61/61 12/12/12 
f 12/12/12 61/61/61 13/13/13 
f 75/75/75 76/76/76 77/77/77 
f 19/19/19 21/21/21 78/78/78 
f 79/79/79 80/80/80 81/81/81 
f 16/16/16 18/18/18 73/73/73 
f 82/82/82 71/71/71 72/72/72 
f 24/24/24 23/23/23 83/83/83 
f 83/83/83 23/23/23 84/84/84 
f 71/71/71 82/82/82 85/85/85 
f 85/85/85 82/82/82 86/86/86 
f 35/35/35 19/19/19 87/87/87 
f 87/87/87 19/19/19 78/78/78 
f 35/35/35 87/87/87 80/80/80 
f 88/88/88 89/89/89 57/57/57 
f 57/57/57 89/89/89 58/58/58 
f 57/57/57 67/67/67 88/88/88 
f 88/88/88 67/67/67 90/90/90 
f 91/91/91 90/90/90 92/92/92 
f 92/92/92 90/90/90 67/67/67 
f 93/93/93 94/94/94 55/55/55 
f 55/55/55 94/94/94 56/56/56 
f 95/95/95 93/93/93 54/54/54 
f 54/54/54 93/93/93 55/55/55 
f 86/86/86 25/25/25 85/85/85 
f 85/85/85 25/25/25 24/24/24 
f 35/35/35 80/80/80 79/79/79 
f 35/35/35 79/79/79 37/37/37 
f 37/37/37 79/79/79 16/16/16 
f 71/71/71 46/46/46 16/16/16 
f 16/16/16 46/46/46 37/37/37 
f 46/46/46 71/71/71 44/44/44 
f 44/44/44 71/71/71 85/85/85 
f 44/44/44 85/85/85 54/54/54 
f 54/54/54 85/85/85 24/24/24 
f 83/83/83 95/95/95 24/24/24 
f 24/24/24 95/95/95 54/54/54 
f 39/39/39 36/36/36 48/48/48 
f 48/48/48 36/36/36 47/47/47 
f 96/96/96 70/70/70 97/97/97 
f 97/97/97 70/70/70 62/62/62 
f 98/98/98 59/59/59 99/99/99 
f 99/99/99 59/59/59 60/60/60 
f 64/64/64 100/100/100 63/63/63 
f 63/63/63 100/100/100 101/101/101 
f 63/63/63 101/101/101 66/66/66 
f 66/66/66 101/101/101 102/102/102 
f 103/103/103 65/65/65 102/102/102 
f 102/102/102 65/65/65 66/66/66 
f 92/92/92 67/67/67 103/103/103 
f 103/103/103 67/67/67 65/65/65 
f 75/75/75 104/104/104 76/76/76 
f 61/61/61 74/74/74 62/62/62 
f 62/62/62 74/74/74 97/97/97 
f 1/1/1 3/3/3 27/27/27 
f 2/2/2 1/1/1 77/77/77 
f 92/92/92 56/56/56 91/91/91 
f 91/91/91 56/56/56 94/94/94 
f 56/56/56 92/92/92 49/49/49 
f 49/49/49 92/92/92 103/103/103 
f 49/49/49 103/103/103 48/48/48 
f 48/48/48 103/103/103 102/102/102 
f 101/101/101 39/39/39 102/102/102 
f 102/102/102 39/39/39 48/48/48 
f 100/100/100 38/38/38 101/101/101 
f 101/101/101 38/38/38 39/39/39 
f 99/99/99 28/28/28 98/98/98 
f 98/98/98 28/28/28 29/29/29 
f 28/28/28 99/99/99 105/105/105 
f 105/105/105 99/99/99 96/96/96 
f 74/74/74 12/12/12 104/104/104 
f 104/104/104 12/12/12 106/106/106 
f 14/14/14 106/106/106 12/12/12 
f 81/81/81 17/17/17 79/79/79 
f 79/79/79 17/17/17 16/16/16 
f 97/97/97 74/74/74 75/75/75 
f 75/75/75 74/74/74 104/104/104 
f 105/105/105 1/1/1 28/28/28 
f 28/28/28 1/1/1 27/27/27 
f 70/70/70 96/96/96 60/60/60 
f 60/60/60 96/96/96 99/99/99 
f 68/68/68 70/70/70 32/32/32 
f 32/32/32 70/70/70 60/60/60 
f 69/69/69 68/68/68 33/33/33 
f 33/33/33 68/68/68 32/32/32 
f 26/26/26 19/19/19 34/34/34 
f 34/34/34 19/19/19 35/35/35 
f 29/29/29 26/26/26 38/38/38 
f 38/38/38 26/26/26 34/34/34 
f 98/98/98 29/29/29 100/100/100 
f 100/100/100 29/29/29 38/38/38 
f 59/59/59 98/98/98 64/64/64 
f 64/64/64 98/98/98 100/100/100 
f 30/30/30 59/59/59 40/40/40 
f 40/40/40 59/59/59 64/64/64 
f 31/31/31 30/30/30 42/42/42 
f 42/42/42 30/30/30 40/40/40 
f 75/75/75 77/77/77 105/105/105 
f 105/105/105 77/77/77 1/1/1 
f 105/105/105 96/96/96 75/75/75 
f 75/75/75 96/96/96 97/97/97 
# 165 faces

