# 3ds Max Wavefront OBJ Exporter v0.97b - (c)2007 guruware
# File Created: 26.10.2015 10:40:14

mtllib N664_9A_345A_C.mtl

#
# object N664_9A_345A_C_1_DaS_N664_9A_345A_C
#

v  16.3046 85.3950 0.0000
v  16.2655 85.3704 -7.1648
v  10.1254 85.9594 0.0000
v  10.0937 85.9339 -7.1979
v  16.2253 85.2648 -15.3608
v  10.0625 85.8269 -15.3855
v  16.1905 85.0990 -22.1318
v  10.0216 85.6557 -22.1566
v  16.1259 84.8776 -28.2301
v  9.9406 85.4168 -28.2398
v  3.9363 86.4146 0.0000
v  3.9123 86.3912 -7.2442
v  -2.9046 86.8610 0.0000
v  -2.9276 86.8443 -7.2950
v  3.8905 86.2879 -15.4414
v  -2.9492 86.7543 -15.5237
v  3.8445 86.1202 -22.1892
v  -3.0015 86.5926 -22.2382
v  3.7475 85.8663 -28.2553
v  -3.0869 86.3197 -28.2744
v  -10.3983 87.3186 0.0000
v  -10.4209 87.2960 -7.2740
v  -10.4440 87.1957 -15.5644
v  -10.5021 87.0502 -22.2653
v  -10.5752 86.7687 -28.3076
v  -19.0471 87.7975 -7.0900
v  -18.9912 87.8593 0.0000
v  -19.1148 87.6192 -15.4710
v  -19.1423 87.5092 -22.2202
v  -19.0746 87.2398 -28.3689
v  16.2655 85.3704 7.1648
v  10.0937 85.9339 7.1979
v  16.2253 85.2648 15.3608
v  10.0625 85.8269 15.3855
v  16.1905 85.0990 22.1318
v  10.0216 85.6557 22.1566
v  16.1259 84.8776 28.2301
v  9.9406 85.4168 28.2398
v  3.9123 86.3912 7.2442
v  -2.9276 86.8443 7.2950
v  3.8905 86.2879 15.4414
v  -2.9492 86.7543 15.5237
v  3.8445 86.1202 22.1892
v  -3.0015 86.5926 22.2382
v  3.7475 85.8663 28.2553
v  -3.0869 86.3197 28.2744
v  -10.4209 87.2960 7.2740
v  -10.4440 87.1957 15.5644
v  -10.5021 87.0502 22.2653
v  -10.5752 86.7687 28.3076
v  -19.0471 87.7975 7.0900
v  -19.1148 87.6192 15.4710
v  -19.1423 87.5092 22.2202
v  -19.0746 87.2398 28.3689
# 54 vertices

vn 0.1031 0.9947 -0.0000
vn 0.1030 0.9946 -0.0086
vn 0.0823 0.9966 -0.0000
vn 0.0824 0.9966 -0.0085
vn 0.1023 0.9946 -0.0188
vn 0.0826 0.9964 -0.0193
vn 0.1003 0.9945 -0.0307
vn 0.0819 0.9961 -0.0327
vn 0.0970 0.9943 -0.0450
vn 0.0796 0.9956 -0.0484
vn 0.0696 0.9976 -0.0000
vn 0.0702 0.9975 -0.0079
vn 0.0631 0.9980 -0.0000
vn 0.0632 0.9980 -0.0074
vn 0.0712 0.9973 -0.0188
vn 0.0638 0.9978 -0.0180
vn 0.0713 0.9969 -0.0341
vn 0.0642 0.9973 -0.0348
vn 0.0694 0.9963 -0.0515
vn 0.0631 0.9965 -0.0543
vn 0.0605 0.9982 -0.0000
vn 0.0584 0.9983 -0.0094
vn 0.0558 0.9983 -0.0178
vn 0.0563 0.9978 -0.0336
vn 0.0575 0.9968 -0.0552
vn 0.0568 0.9983 -0.0125
vn 0.0577 0.9983 -0.0000
vn 0.0549 0.9983 -0.0191
vn 0.0550 0.9980 -0.0301
vn 0.0573 0.9969 -0.0535
vn 0.1030 0.9946 0.0086
vn 0.0824 0.9966 0.0085
vn 0.1023 0.9946 0.0188
vn 0.0826 0.9964 0.0193
vn 0.1003 0.9945 0.0307
vn 0.0819 0.9961 0.0327
vn 0.0970 0.9943 0.0450
vn 0.0796 0.9956 0.0484
vn 0.0702 0.9975 0.0079
vn 0.0632 0.9980 0.0074
vn 0.0712 0.9973 0.0188
vn 0.0638 0.9978 0.0180
vn 0.0713 0.9969 0.0341
vn 0.0642 0.9973 0.0348
vn 0.0694 0.9963 0.0515
vn 0.0631 0.9965 0.0543
vn 0.0584 0.9983 0.0094
vn 0.0558 0.9983 0.0178
vn 0.0563 0.9978 0.0336
vn 0.0575 0.9968 0.0552
vn 0.0568 0.9983 0.0125
vn 0.0549 0.9983 0.0191
vn 0.0550 0.9980 0.0301
vn 0.0573 0.9969 0.0535
# 54 vertex normals

vt 0.4010 0.5480 0.0000
vt 0.4011 0.5344 0.0000
vt 0.4137 0.5480 0.0000
vt 0.4138 0.5342 0.0000
vt 0.4015 0.5188 0.0000
vt 0.4140 0.5184 0.0000
vt 0.4019 0.5057 0.0000
vt 0.4143 0.5053 0.0000
vt 0.4023 0.4936 0.0000
vt 0.4147 0.4935 0.0000
vt 0.4263 0.5480 0.0000
vt 0.4264 0.5340 0.0000
vt 0.4403 0.5480 0.0000
vt 0.4403 0.5338 0.0000
vt 0.4265 0.5182 0.0000
vt 0.4403 0.5178 0.0000
vt 0.4267 0.5051 0.0000
vt 0.4404 0.5048 0.0000
vt 0.4270 0.4933 0.0000
vt 0.4406 0.4930 0.0000
vt 0.4555 0.5480 0.0000
vt 0.4555 0.5338 0.0000
vt 0.4554 0.5176 0.0000
vt 0.4554 0.5045 0.0000
vt 0.4554 0.4926 0.0000
vt 0.4729 0.5341 0.0000
vt 0.4729 0.5480 0.0000
vt 0.4728 0.5176 0.0000
vt 0.4726 0.5043 0.0000
vt 0.4723 0.4922 0.0000
vt 0.4012 0.5616 0.0000
vt 0.4138 0.5618 0.0000
vt 0.4016 0.5772 0.0000
vt 0.4141 0.5775 0.0000
vt 0.4020 0.5903 0.0000
vt 0.4144 0.5906 0.0000
vt 0.4023 0.6023 0.0000
vt 0.4147 0.6025 0.0000
vt 0.4264 0.5620 0.0000
vt 0.4403 0.5622 0.0000
vt 0.4266 0.5778 0.0000
vt 0.4404 0.5781 0.0000
vt 0.4268 0.5909 0.0000
vt 0.4405 0.5912 0.0000
vt 0.4271 0.6027 0.0000
vt 0.4407 0.6029 0.0000
vt 0.4555 0.5622 0.0000
vt 0.4555 0.5784 0.0000
vt 0.4555 0.5915 0.0000
vt 0.4555 0.6033 0.0000
vt 0.4729 0.5619 0.0000
vt 0.4728 0.5783 0.0000
vt 0.4726 0.5919 0.0000
vt 0.4723 0.6038 0.0000
# 54 texture coords

g N664_9A_345A_C_1_DaS_N664_9A_345A_C
usemtl paint_whiteSG
s 1
f 1/1/1 2/2/2 3/3/3 
f 3/3/3 2/2/2 4/4/4 
f 2/2/2 5/5/5 4/4/4 
f 4/4/4 5/5/5 6/6/6 
f 5/5/5 7/7/7 6/6/6 
f 6/6/6 7/7/7 8/8/8 
f 7/7/7 9/9/9 8/8/8 
f 8/8/8 9/9/9 10/10/10 
f 11/11/11 12/12/12 13/13/13 
f 13/13/13 12/12/12 14/14/14 
f 12/12/12 15/15/15 14/14/14 
f 14/14/14 15/15/15 16/16/16 
f 15/15/15 17/17/17 16/16/16 
f 16/16/16 17/17/17 18/18/18 
f 17/17/17 19/19/19 18/18/18 
f 18/18/18 19/19/19 20/20/20 
f 13/13/13 14/14/14 21/21/21 
f 21/21/21 14/14/14 22/22/22 
f 14/14/14 16/16/16 22/22/22 
f 22/22/22 16/16/16 23/23/23 
f 16/16/16 18/18/18 23/23/23 
f 23/23/23 18/18/18 24/24/24 
f 18/18/18 20/20/20 24/24/24 
f 24/24/24 20/20/20 25/25/25 
f 22/22/22 26/26/26 21/21/21 
f 21/21/21 26/26/26 27/27/27 
f 23/23/23 28/28/28 22/22/22 
f 22/22/22 28/28/28 26/26/26 
f 24/24/24 29/29/29 23/23/23 
f 23/23/23 29/29/29 28/28/28 
f 25/25/25 30/30/30 24/24/24 
f 24/24/24 30/30/30 29/29/29 
f 8/8/8 10/10/10 17/17/17 
f 17/17/17 10/10/10 19/19/19 
f 6/6/6 8/8/8 15/15/15 
f 15/15/15 8/8/8 17/17/17 
f 4/4/4 6/6/6 12/12/12 
f 12/12/12 6/6/6 15/15/15 
f 3/3/3 4/4/4 11/11/11 
f 11/11/11 4/4/4 12/12/12 
f 1/1/1 3/3/3 31/31/31 
f 31/31/31 3/3/3 32/32/32 
f 31/31/31 32/32/32 33/33/33 
f 33/33/33 32/32/32 34/34/34 
f 33/33/33 34/34/34 35/35/35 
f 35/35/35 34/34/34 36/36/36 
f 35/35/35 36/36/36 37/37/37 
f 37/37/37 36/36/36 38/38/38 
f 11/11/11 13/13/13 39/39/39 
f 39/39/39 13/13/13 40/40/40 
f 39/39/39 40/40/40 41/41/41 
f 41/41/41 40/40/40 42/42/42 
f 41/41/41 42/42/42 43/43/43 
f 43/43/43 42/42/42 44/44/44 
f 43/43/43 44/44/44 45/45/45 
f 45/45/45 44/44/44 46/46/46 
f 13/13/13 21/21/21 40/40/40 
f 40/40/40 21/21/21 47/47/47 
f 40/40/40 47/47/47 42/42/42 
f 42/42/42 47/47/47 48/48/48 
f 42/42/42 48/48/48 44/44/44 
f 44/44/44 48/48/48 49/49/49 
f 44/44/44 49/49/49 46/46/46 
f 46/46/46 49/49/49 50/50/50 
f 27/27/27 51/51/51 21/21/21 
f 21/21/21 51/51/51 47/47/47 
f 51/51/51 52/52/52 47/47/47 
f 47/47/47 52/52/52 48/48/48 
f 52/52/52 53/53/53 48/48/48 
f 48/48/48 53/53/53 49/49/49 
f 53/53/53 54/54/54 49/49/49 
f 49/49/49 54/54/54 50/50/50 
f 36/36/36 43/43/43 38/38/38 
f 38/38/38 43/43/43 45/45/45 
f 34/34/34 41/41/41 36/36/36 
f 36/36/36 41/41/41 43/43/43 
f 32/32/32 39/39/39 34/34/34 
f 34/34/34 39/39/39 41/41/41 
f 3/3/3 11/11/11 32/32/32 
f 32/32/32 11/11/11 39/39/39 
# 80 faces

