# 3ds Max Wavefront OBJ Exporter v0.97b - (c)2007 guruware
# File Created: 26.10.2015 10:37:00

mtllib N664_9A_181C_R.mtl

#
# object N664_9A_181C_R_1_DaS_N664_9A_181C_R
#

v  90.5420 45.0933 77.4923
v  95.9479 41.1926 78.5173
v  91.6515 46.2336 75.9444
v  97.2414 42.4240 76.9148
v  92.1412 46.5195 74.9988
v  97.7734 42.7795 75.9002
v  108.0699 29.1753 81.8663
v  109.9061 27.5688 82.1739
v  110.3174 30.0806 81.0755
v  113.5923 27.4999 81.5496
v  113.2326 31.0670 79.3444
v  116.2018 27.3959 80.7944
v  120.0973 27.1868 79.0745
v  114.5790 31.4435 77.9156
v  121.3207 26.9899 78.2975
v  46.5399 73.8382 64.8712
v  46.9914 74.6278 62.9162
v  44.8863 74.5424 64.5646
v  45.3512 75.3720 62.8318
v  52.1853 70.9026 66.6243
v  52.6423 71.2589 65.1428
v  49.5425 72.2160 65.8201
v  50.0740 72.8190 64.2882
v  45.9465 72.7530 66.4842
v  44.3301 73.4679 66.1272
v  51.4330 69.9032 68.0903
v  48.9138 71.1971 67.3142
v  45.2599 71.4726 67.8511
v  43.6538 72.0072 67.5862
v  48.2353 70.1650 68.3417
v  50.7054 68.9909 68.8595
v  48.2165 74.1345 62.2509
v  47.6308 74.8177 61.1510
v  50.9322 72.3347 64.2369
v  47.2734 75.2298 60.2345
v  45.7144 75.9862 60.8991
v  46.8292 75.6342 58.9303
v  45.8996 76.1203 59.1102
v  89.5232 43.7913 78.4029
v  94.7900 39.8627 79.4148
v  49.8609 73.0060 63.5140
v  48.5302 73.7169 63.5987
v  48.0545 73.0405 65.3163
v  47.4418 71.9884 66.8791
v  46.7620 70.8504 68.0873
v  60.2213 66.2646 68.9210
v  60.5729 66.6281 67.9273
v  54.8065 69.3581 67.4302
v  55.1816 69.7893 66.2487
v  53.9233 68.3946 68.8272
v  59.3580 65.3429 70.2344
v  58.5876 64.5647 70.8591
v  53.1131 67.6792 69.4450
v  70.8249 59.8429 71.6049
v  71.2528 60.1448 70.6527
v  65.4718 63.0900 70.2938
v  65.8913 63.4344 69.2863
v  69.9717 58.8919 72.9234
v  64.6145 62.2049 71.5606
v  69.2478 57.9080 73.6264
v  63.8989 61.3147 72.2583
v  76.4063 56.7932 71.8188
v  75.9873 56.5203 72.7538
v  75.1481 55.5416 74.1309
v  74.3583 54.4315 74.8870
v  81.0124 53.2526 73.8189
v  81.4447 53.5160 72.8925
v  80.1543 52.2062 75.2602
v  79.3211 51.0019 76.0765
v  86.4654 49.6795 74.9372
v  86.9213 49.9468 74.0114
v  85.5676 48.5371 76.4517
v  84.7034 47.2392 77.3497
v  108.8780 35.3367 77.3371
v  103.1602 39.1842 76.7043
v  107.8766 34.9534 78.5991
v  102.4977 38.7971 77.7972
v  105.6806 33.7859 80.2982
v  100.9400 37.5081 79.4491
v  99.5992 35.9825 80.2699
v  103.9858 32.5350 81.1117
v  46.9624 75.5290 58.4418
v  47.1435 75.1731 58.1264
v  45.9140 75.8090 58.1908
v  47.2931 74.9523 57.7488
v  46.0170 75.6964 57.9619
v  46.7122 75.7408 58.5866
v  45.9196 76.0454 58.6998
v  118.4766 27.2985 79.8988
# 89 vertices

vn 0.2460 0.5701 0.7839
vn 0.2439 0.5407 0.8051
vn 0.3540 0.6924 0.6287
vn 0.3524 0.6710 0.6523
vn 0.4328 0.7736 0.4629
vn 0.4313 0.7566 0.4915
vn 0.1587 0.3850 0.9092
vn 0.1653 0.3723 0.9133
vn 0.2446 0.4848 0.8397
vn 0.2611 0.5027 0.8241
vn 0.3527 0.6168 0.7037
vn 0.2994 0.5428 0.7847
vn 0.4264 0.7035 0.5686
vn 0.4280 0.7059 0.5644
vn 0.4299 0.7093 0.5586
vn 0.2731 0.8125 0.5150
vn 0.2778 0.8691 0.4093
vn 0.2314 0.8059 0.5450
vn 0.2850 0.8063 0.5183
vn 0.2726 0.8133 0.5140
vn 0.1829 0.7273 0.6615
vn 0.1632 0.7140 0.6809
vn 0.1796 0.6940 0.6972
vn 0.1751 0.7149 0.6769
vn 0.1430 0.6785 0.7206
vn 0.1244 0.6597 0.7412
vn 0.1351 0.6445 0.7526
vn 0.1137 0.6045 0.7885
vn 0.3114 0.9222 0.2294
vn 0.3234 0.9402 0.1069
vn 0.1571 0.4847 0.8604
vn 0.1435 0.4113 0.9001
vn 0.2734 0.8114 0.5167
vn 0.1958 0.7217 0.6640
vn 0.1595 0.6671 0.7276
vn 0.2951 0.7639 0.5739
vn 0.3686 0.8245 0.4293
vn 0.2906 0.7800 0.5542
vn 0.3610 0.8446 0.3954
vn 0.1865 0.6659 0.7224
vn 0.1922 0.6548 0.7310
vn 0.1136 0.5576 0.8223
vn 0.1118 0.5722 0.8124
vn 0.3256 0.7412 0.5870
vn 0.4035 0.8058 0.4336
vn 0.3084 0.7519 0.5827
vn 0.3833 0.8146 0.4352
vn 0.2112 0.6212 0.7547
vn 0.2004 0.6386 0.7430
vn 0.1248 0.5180 0.8463
vn 0.1199 0.5413 0.8322
vn 0.4239 0.7979 0.4286
vn 0.3444 0.7308 0.5893
vn 0.2238 0.6058 0.7635
vn 0.1309 0.4971 0.8578
vn 0.3496 0.7240 0.5946
vn 0.4287 0.7949 0.4293
vn 0.2299 0.5981 0.7677
vn 0.1379 0.4916 0.8598
vn 0.3507 0.7132 0.6070
vn 0.4301 0.7877 0.4411
vn 0.2361 0.5896 0.7725
vn 0.1498 0.4883 0.8597
vn 0.4285 0.7126 0.5555
vn 0.4294 0.7358 0.5237
vn 0.3499 0.6202 0.7021
vn 0.3510 0.6458 0.6781
vn 0.2392 0.4944 0.8357
vn 0.2366 0.5123 0.8256
vn 0.1347 0.3879 0.9118
vn 0.1444 0.3887 0.9100
vn 0.3369 0.7424 -0.5791
vn 0.3944 0.7971 -0.4573
vn 0.3010 0.8705 -0.3895
vn 0.6900 0.7132 -0.1233
vn 0.3349 0.9288 -0.1585
vn 0.3072 0.8230 -0.4778
vn 0.3681 0.6148 0.6975
# 78 vertex normals

vt 0.2965 0.6941 0.0000
vt 0.2872 0.6938 0.0000
vt 0.2965 0.6911 0.0000
vt 0.2872 0.6905 0.0000
vt 0.2965 0.6896 0.0000
vt 0.2872 0.6888 0.0000
vt 0.2625 0.6965 0.0000
vt 0.2588 0.6965 0.0000
vt 0.2610 0.6931 0.0000
vt 0.2548 0.6927 0.0000
vt 0.2591 0.6883 0.0000
vt 0.2520 0.6899 0.0000
vt 0.2479 0.6851 0.0000
vt 0.2583 0.6854 0.0000
vt 0.2466 0.6834 0.0000
vt 0.3805 0.6892 0.0000
vt 0.3805 0.6856 0.0000
vt 0.3836 0.6889 0.0000
vt 0.3835 0.6855 0.0000
vt 0.3697 0.6907 0.0000
vt 0.3698 0.6881 0.0000
vt 0.3747 0.6903 0.0000
vt 0.3747 0.6876 0.0000
vt 0.3805 0.6927 0.0000
vt 0.3837 0.6923 0.0000
vt 0.3695 0.6941 0.0000
vt 0.3746 0.6936 0.0000
vt 0.3806 0.6963 0.0000
vt 0.3837 0.6963 0.0000
vt 0.3747 0.6965 0.0000
vt 0.3696 0.6965 0.0000
vt 0.3783 0.6846 0.0000
vt 0.3796 0.6827 0.0000
vt 0.3732 0.6872 0.0000
vt 0.3803 0.6811 0.0000
vt 0.3832 0.6820 0.0000
vt 0.3810 0.6789 0.0000
vt 0.3828 0.6790 0.0000
vt 0.2963 0.6967 0.0000
vt 0.2872 0.6966 0.0000
vt 0.3753 0.6864 0.0000
vt 0.3776 0.6867 0.0000
vt 0.3776 0.6898 0.0000
vt 0.3776 0.6932 0.0000
vt 0.3776 0.6964 0.0000
vt 0.3524 0.6909 0.0000
vt 0.3526 0.6889 0.0000
vt 0.3642 0.6909 0.0000
vt 0.3645 0.6886 0.0000
vt 0.3641 0.6944 0.0000
vt 0.3524 0.6942 0.0000
vt 0.3526 0.6965 0.0000
vt 0.3645 0.6966 0.0000
vt 0.3311 0.6916 0.0000
vt 0.3310 0.6899 0.0000
vt 0.3412 0.6912 0.0000
vt 0.3412 0.6893 0.0000
vt 0.3311 0.6944 0.0000
vt 0.3413 0.6942 0.0000
vt 0.3310 0.6965 0.0000
vt 0.3413 0.6965 0.0000
vt 0.3220 0.6902 0.0000
vt 0.3221 0.6917 0.0000
vt 0.3220 0.6944 0.0000
vt 0.3218 0.6966 0.0000
vt 0.3138 0.6916 0.0000
vt 0.3137 0.6902 0.0000
vt 0.3136 0.6943 0.0000
vt 0.3134 0.6966 0.0000
vt 0.3050 0.6914 0.0000
vt 0.3049 0.6900 0.0000
vt 0.3047 0.6942 0.0000
vt 0.3044 0.6966 0.0000
vt 0.2683 0.6868 0.0000
vt 0.2782 0.6880 0.0000
vt 0.2688 0.6891 0.0000
vt 0.2783 0.6899 0.0000
vt 0.2697 0.6933 0.0000
vt 0.2784 0.6935 0.0000
vt 0.2784 0.6967 0.0000
vt 0.2703 0.6966 0.0000
vt 0.3807 0.6781 0.0000
vt 0.3800 0.6776 0.0000
vt 0.3824 0.6774 0.0000
vt 0.3795 0.6769 0.0000
vt 0.3821 0.6770 0.0000
vt 0.3812 0.6783 0.0000
vt 0.3826 0.6783 0.0000
vt 0.2496 0.6872 0.0000
# 89 texture coords

g N664_9A_181C_R_1_DaS_N664_9A_181C_R
usemtl paint_whiteSG
s 1
f 1/1/1 2/2/2 3/3/3 
f 3/3/3 2/2/2 4/4/4 
f 3/3/3 4/4/4 5/5/5 
f 5/5/5 4/4/4 6/6/6 
f 7/7/7 8/8/8 9/9/9 
f 9/9/9 8/8/8 10/10/10 
f 9/9/9 10/10/10 11/11/11 
f 11/11/11 10/10/10 12/12/12 
f 11/11/11 13/13/13 14/14/14 
f 14/14/14 13/13/13 15/15/15 
f 16/16/16 17/17/17 18/18/18 
f 18/18/18 17/17/17 19/19/17 
f 20/20/19 21/21/17 22/22/20 
f 22/22/20 21/21/17 23/23/17 
f 24/24/21 16/16/16 25/25/22 
f 25/25/22 16/16/16 18/18/18 
f 26/26/23 20/20/19 27/27/24 
f 27/27/24 20/20/19 22/22/20 
f 28/28/25 24/24/21 29/29/26 
f 29/29/26 24/24/21 25/25/22 
f 27/27/24 30/30/27 26/26/23 
f 26/26/23 30/30/27 31/31/28 
f 17/17/17 32/32/17 33/33/29 
f 34/34/17 23/23/17 21/21/17 
f 33/33/29 35/35/29 36/36/29 
f 37/37/30 38/38/30 35/35/29 
f 35/35/29 38/38/30 36/36/29 
f 1/1/1 39/39/31 2/2/2 
f 2/2/2 39/39/31 40/40/32 
f 23/23/17 34/34/17 41/41/17 
f 42/42/17 32/32/17 17/17/17 
f 43/43/33 42/42/17 16/16/16 
f 16/16/16 42/42/17 17/17/17 
f 44/44/34 43/43/33 24/24/21 
f 24/24/21 43/43/33 16/16/16 
f 45/45/35 44/44/34 28/28/25 
f 28/28/25 44/44/34 24/24/21 
f 46/46/36 47/47/37 48/48/38 
f 48/48/38 47/47/37 49/49/39 
f 48/48/38 50/50/40 46/46/36 
f 46/46/36 50/50/40 51/51/41 
f 51/51/41 50/50/40 52/52/42 
f 52/52/42 50/50/40 53/53/43 
f 21/21/17 20/20/19 49/49/39 
f 49/49/39 20/20/19 48/48/38 
f 20/20/19 26/26/23 48/48/38 
f 48/48/38 26/26/23 50/50/40 
f 31/31/28 53/53/43 26/26/23 
f 26/26/23 53/53/43 50/50/40 
f 54/54/44 55/55/45 56/56/46 
f 56/56/46 55/55/45 57/57/47 
f 58/58/48 54/54/44 59/59/49 
f 59/59/49 54/54/44 56/56/46 
f 60/60/50 58/58/48 61/61/51 
f 61/61/51 58/58/48 59/59/49 
f 56/56/46 57/57/47 46/46/36 
f 46/46/36 57/57/47 47/47/37 
f 46/46/36 51/51/41 56/56/46 
f 56/56/46 51/51/41 59/59/49 
f 59/59/49 51/51/41 61/61/51 
f 61/61/51 51/51/41 52/52/42 
f 62/62/52 55/55/45 63/63/53 
f 63/63/53 55/55/45 54/54/44 
f 64/64/54 63/63/53 58/58/48 
f 58/58/48 63/63/53 54/54/44 
f 65/65/55 64/64/54 60/60/50 
f 60/60/50 64/64/54 58/58/48 
f 63/63/53 66/66/56 62/62/52 
f 62/62/52 66/66/56 67/67/57 
f 68/68/58 66/66/56 64/64/54 
f 64/64/54 66/66/56 63/63/53 
f 69/69/59 68/68/58 65/65/55 
f 65/65/55 68/68/58 64/64/54 
f 66/66/56 70/70/60 67/67/57 
f 67/67/57 70/70/60 71/71/61 
f 72/72/62 70/70/60 68/68/58 
f 68/68/58 70/70/60 66/66/56 
f 73/73/63 72/72/62 69/69/59 
f 69/69/59 72/72/62 68/68/58 
f 70/70/60 3/3/3 71/71/61 
f 71/71/61 3/3/3 5/5/5 
f 1/1/1 3/3/3 72/72/62 
f 72/72/62 3/3/3 70/70/60 
f 39/39/31 1/1/1 73/73/63 
f 73/73/63 1/1/1 72/72/62 
f 74/74/64 75/75/65 76/76/66 
f 76/76/66 75/75/65 77/77/67 
f 76/76/66 77/77/67 78/78/68 
f 78/78/68 77/77/67 79/79/69 
f 75/75/65 6/6/6 77/77/67 
f 77/77/67 6/6/6 4/4/4 
f 77/77/67 4/4/4 79/79/69 
f 79/79/69 4/4/4 2/2/2 
f 14/14/14 74/74/64 11/11/11 
f 11/11/11 74/74/64 76/76/66 
f 11/11/11 76/76/66 9/9/9 
f 9/9/9 76/76/66 78/78/68 
f 80/80/70 79/79/69 40/40/32 
f 40/40/32 79/79/69 2/2/2 
f 78/78/68 79/79/69 81/81/71 
f 81/81/71 79/79/69 80/80/70 
f 9/9/9 78/78/68 7/7/7 
f 7/7/7 78/78/68 81/81/71 
f 82/82/72 83/83/73 84/84/74 
f 85/85/75 86/86/76 83/83/73 
f 83/83/73 86/86/76 84/84/74 
f 87/87/77 88/88/74 37/37/30 
f 37/37/30 88/88/74 38/38/30 
f 11/11/11 12/12/12 89/89/78 
f 11/11/11 89/89/78 13/13/13 
f 32/32/17 42/42/17 41/41/17 
f 41/41/17 42/42/17 23/23/17 
f 22/22/20 23/23/17 43/43/33 
f 43/43/33 23/23/17 42/42/17 
f 27/27/24 22/22/20 44/44/34 
f 44/44/34 22/22/20 43/43/33 
f 30/30/27 27/27/24 45/45/35 
f 45/45/35 27/27/24 44/44/34 
f 33/33/29 36/36/29 17/17/17 
f 17/17/17 36/36/29 19/19/17 
f 84/84/74 88/88/74 87/87/77 
f 82/82/72 84/84/74 87/87/77 
# 122 faces

#
# object N664_9A_181C_R_1_DaS_N664_9A_181C_R_E
#

v  60.5796 66.5476 67.6195
v  60.3248 65.8969 67.0578
v  55.1843 69.7311 65.9127
v  54.9455 69.1962 65.2701
v  97.4314 41.9772 74.4334
v  91.9545 45.6051 73.5874
v  97.8093 42.7317 75.5664
v  92.1962 46.4493 74.6674
v  103.9858 32.5350 81.1117
v  99.5992 35.9825 80.2699
v  103.9100 32.4791 81.1481
v  99.4219 35.7808 80.3784
v  108.7550 34.5083 75.8779
v  103.0353 38.2727 75.2006
v  108.9741 35.2733 77.0093
v  103.2341 39.1250 76.3736
v  114.7124 31.3769 77.5840
v  121.4905 26.8656 78.0236
v  114.6132 30.6785 76.4619
v  121.4916 26.6159 77.7054
v  52.9787 70.4361 64.4247
v  52.7570 71.1360 64.8478
v  51.3401 71.5059 63.5742
v  51.2999 72.0162 64.0742
v  49.8797 72.5010 62.5887
v  49.8007 72.9652 63.0645
v  48.7593 73.3035 61.5381
v  48.4699 73.9284 62.0313
v  48.1806 73.7890 60.7538
v  47.9311 74.5542 61.1072
v  47.7696 74.2026 60.0293
v  47.4805 75.0124 60.0679
v  47.2608 74.9345 58.4398
v  47.0701 75.4217 58.7797
v  47.4431 74.5638 58.9269
v  94.4275 39.4370 79.5186
v  94.7900 39.8627 79.4148
v  89.5466 43.0767 78.7425
v  89.5232 43.7913 78.4029
v  71.0018 59.2882 69.6805
v  65.6520 62.6244 68.4858
v  71.2791 60.0539 70.3475
v  65.9086 63.3373 68.9955
v  76.2022 55.9596 70.7369
v  76.4419 56.7070 71.4995
v  81.3783 52.5863 71.7242
v  81.5057 53.4232 72.5701
v  86.6156 49.1382 72.6755
v  86.9550 49.8815 73.6787
v  108.0699 29.1753 81.8663
v  52.6423 71.2589 65.1428
v  55.1816 69.7893 66.2487
v  60.5729 66.6281 67.9273
v  65.8913 63.4344 69.2863
v  92.1412 46.5195 74.9988
v  86.9213 49.9468 74.0114
v  97.7734 42.7795 75.9002
v  103.1602 39.1842 76.7043
v  108.8780 35.3367 77.3371
v  114.5790 31.4435 77.9156
v  121.3207 26.9899 78.2975
v  50.9322 72.3347 64.2369
v  49.8609 73.0060 63.5140
v  48.2165 74.1345 62.2509
v  47.6308 74.8177 61.1510
v  47.2734 75.2298 60.2345
v  46.8292 75.6342 58.9303
v  71.2528 60.1448 70.6527
v  76.4063 56.7932 71.8188
v  81.4447 53.5160 72.8925
v  47.2931 74.9523 57.7488
v  46.9624 75.5290 58.4418
v  46.7122 75.7408 58.5866
v  47.1435 75.1731 58.1264
v  58.5876 64.5647 70.8591
v  58.2764 64.0221 70.5209
v  63.8989 61.3147 72.2583
v  63.7844 60.6262 71.9019
v  69.2478 57.9080 73.6264
v  68.9365 57.3550 73.1845
v  74.3583 54.4315 74.8870
v  74.1367 53.8699 74.4569
v  84.7034 47.2392 77.3497
v  84.4401 46.6084 76.8019
v  89.3458 43.1431 77.8886
v  45.2599 71.4726 67.8511
v  45.9677 70.6141 67.8456
v  46.7620 70.8504 68.0873
v  48.2353 70.1650 68.3417
v  48.0662 69.5789 68.1738
v  50.7054 68.9909 68.8595
v  50.5421 68.3580 68.6723
v  53.1131 67.6792 69.4450
v  52.9100 67.0954 69.2127
v  43.6538 72.0072 67.5862
v  43.5377 71.5373 67.3440
v  79.3211 51.0019 76.0765
v  79.0316 50.4847 75.6036
v  121.4687 26.2371 77.0097
# 99 vertices

vn 0.5443 0.6754 -0.4975
vn 0.4872 0.4556 -0.7450
vn 0.5754 0.7119 -0.4026
vn 0.5680 0.5163 -0.6409
vn 0.5073 0.6313 -0.5866
vn 0.5089 0.6199 -0.5973
vn 0.5561 0.7599 -0.3366
vn 0.5562 0.7525 -0.3527
vn 0.1460 0.3927 0.9080
vn 0.1313 0.3779 0.9165
vn 0.1444 0.3940 0.9077
vn 0.1275 0.3739 0.9186
vn 0.5058 0.6689 -0.5447
vn 0.5056 0.6557 -0.5608
vn 0.5570 0.7807 -0.2834
vn 0.5553 0.7743 -0.3034
vn 0.5525 0.8025 -0.2254
vn 0.5354 0.7582 -0.3720
vn 0.5085 0.7109 -0.4858
vn 0.5097 0.7179 -0.4741
vn 0.6025 0.5394 -0.5882
vn 0.6034 0.7123 -0.3585
vn 0.6595 0.5485 -0.5140
vn 0.6391 0.6869 -0.3460
vn 0.7147 0.5524 -0.4291
vn 0.6764 0.6785 -0.2865
vn 0.7560 0.5781 -0.3070
vn 0.7218 0.6801 -0.1282
vn 0.8625 0.4386 -0.2524
vn 0.7995 0.5957 -0.0772
vn 0.9083 0.3555 -0.2206
vn 0.8333 0.5445 -0.0954
vn 0.8890 0.4580 0.0023
vn 0.8060 0.5894 -0.0549
vn 0.9164 0.3826 -0.1177
vn 0.0089 0.2299 0.9732
vn 0.0151 0.2389 0.9709
vn 0.1430 0.4207 0.8959
vn -0.3169 -0.1809 0.9310
vn 0.4703 0.4810 -0.7399
vn 0.4548 0.4082 -0.7915
vn 0.5425 0.6803 -0.4928
vn 0.5341 0.6454 -0.5461
vn 0.4906 0.5429 -0.6816
vn 0.5511 0.7080 -0.4415
vn 0.5025 0.5774 -0.6436
vn 0.5539 0.7274 -0.4052
vn 0.5087 0.6018 -0.6157
vn 0.5559 0.7414 -0.3759
vn 0.1506 0.3874 0.9095
vn 0.5531 0.8223 -0.1334
vn 0.5379 0.8312 -0.1406
vn 0.5423 0.8156 -0.2020
vn 0.5475 0.8030 -0.2354
vn 0.5585 0.8254 -0.0826
vn 0.5583 0.8229 -0.1055
vn 0.5590 0.8271 -0.0587
vn 0.5578 0.8296 -0.0245
vn 0.5598 0.8286 0.0035
vn 0.5537 0.8309 0.0552
vn 0.5552 0.8312 -0.0313
vn 0.6007 0.7814 -0.1692
vn 0.6090 0.7784 -0.1524
vn 0.6522 0.7573 0.0340
vn 0.6710 0.7389 0.0614
vn 0.7232 0.6907 -0.0022
vn 0.6684 0.7436 0.0168
vn 0.5560 0.8083 -0.1936
vn 0.5618 0.8122 -0.1573
vn 0.5593 0.8187 -0.1303
vn 0.8667 0.4960 0.0532
vn 0.7994 0.5995 -0.0395
vn 0.6506 0.7593 0.0139
vn 0.8799 0.4741 0.0316
vn -0.4053 -0.3048 0.8619
vn -0.4039 -0.3052 0.8624
vn -0.4318 -0.3547 0.8293
vn -0.4342 -0.3576 0.8268
vn -0.4530 -0.3852 0.8040
vn -0.4534 -0.3880 0.8025
vn -0.4693 -0.4113 0.7814
vn -0.4701 -0.4132 0.7799
vn -0.4860 -0.4479 0.7505
vn -0.4862 -0.4489 0.7497
vn -0.4876 -0.4569 0.7440
vn -0.2736 -0.2468 0.9296
vn -0.2415 -0.1998 0.9496
vn -0.2381 -0.1847 0.9535
vn -0.2696 -0.1926 0.9435
vn -0.2702 -0.1910 0.9437
vn -0.3061 -0.1953 0.9317
vn -0.3110 -0.1993 0.9293
vn -0.3471 -0.2388 0.9069
vn -0.3472 -0.2400 0.9066
vn -0.2738 -0.3863 0.8808
vn -0.2762 -0.3565 0.8926
vn -0.4793 -0.4299 0.7651
vn -0.4797 -0.4315 0.7640
vn 0.5163 0.7448 -0.4226
vn -0.9690 0.0795 0.2340
# 100 vertex normals

vt 0.3526 0.6884 0.0000
vt 0.3526 0.6861 0.0000
vt 0.3647 0.6880 0.0000
vt 0.3649 0.6864 0.0000
vt 0.2875 0.6865 0.0000
vt 0.2965 0.6873 0.0000
vt 0.2873 0.6884 0.0000
vt 0.2965 0.6892 0.0000
vt 0.2703 0.6966 0.0000
vt 0.2784 0.6967 0.0000
vt 0.2703 0.6967 0.0000
vt 0.2784 0.6971 0.0000
vt 0.2683 0.6843 0.0000
vt 0.2781 0.6854 0.0000
vt 0.2683 0.6863 0.0000
vt 0.2781 0.6875 0.0000
vt 0.2582 0.6849 0.0000
vt 0.2464 0.6830 0.0000
vt 0.2582 0.6830 0.0000
vt 0.2463 0.6824 0.0000
vt 0.3690 0.6863 0.0000
vt 0.3697 0.6875 0.0000
vt 0.3722 0.6859 0.0000
vt 0.3725 0.6869 0.0000
vt 0.3749 0.6849 0.0000
vt 0.3754 0.6857 0.0000
vt 0.3768 0.6835 0.0000
vt 0.3778 0.6842 0.0000
vt 0.3777 0.6823 0.0000
vt 0.3789 0.6827 0.0000
vt 0.3784 0.6810 0.0000
vt 0.3797 0.6809 0.0000
vt 0.3796 0.6781 0.0000
vt 0.3805 0.6787 0.0000
vt 0.3789 0.6790 0.0000
vt 0.2872 0.6974 0.0000
vt 0.2872 0.6966 0.0000
vt 0.2956 0.6975 0.0000
vt 0.2963 0.6967 0.0000
vt 0.3309 0.6879 0.0000
vt 0.3409 0.6873 0.0000
vt 0.3310 0.6895 0.0000
vt 0.3411 0.6888 0.0000
vt 0.3219 0.6882 0.0000
vt 0.3220 0.6897 0.0000
vt 0.3134 0.6882 0.0000
vt 0.3137 0.6898 0.0000
vt 0.3050 0.6878 0.0000
vt 0.3049 0.6895 0.0000
vt 0.2625 0.6965 0.0000
vt 0.3698 0.6881 0.0000
vt 0.3645 0.6886 0.0000
vt 0.3526 0.6889 0.0000
vt 0.3412 0.6893 0.0000
vt 0.2965 0.6896 0.0000
vt 0.3049 0.6900 0.0000
vt 0.2872 0.6888 0.0000
vt 0.2782 0.6880 0.0000
vt 0.2683 0.6868 0.0000
vt 0.2583 0.6854 0.0000
vt 0.2466 0.6834 0.0000
vt 0.3732 0.6872 0.0000
vt 0.3753 0.6864 0.0000
vt 0.3783 0.6846 0.0000
vt 0.3796 0.6827 0.0000
vt 0.3803 0.6811 0.0000
vt 0.3810 0.6789 0.0000
vt 0.3310 0.6899 0.0000
vt 0.3220 0.6902 0.0000
vt 0.3137 0.6902 0.0000
vt 0.3795 0.6769 0.0000
vt 0.3807 0.6781 0.0000
vt 0.3812 0.6783 0.0000
vt 0.3800 0.6776 0.0000
vt 0.3526 0.6965 0.0000
vt 0.3527 0.6978 0.0000
vt 0.3413 0.6965 0.0000
vt 0.3410 0.6977 0.0000
vt 0.3310 0.6965 0.0000
vt 0.3311 0.6977 0.0000
vt 0.3218 0.6966 0.0000
vt 0.3217 0.6976 0.0000
vt 0.3044 0.6966 0.0000
vt 0.3044 0.6978 0.0000
vt 0.2962 0.6978 0.0000
vt 0.3806 0.6963 0.0000
vt 0.3789 0.6973 0.0000
vt 0.3776 0.6964 0.0000
vt 0.3747 0.6965 0.0000
vt 0.3746 0.6976 0.0000
vt 0.3696 0.6965 0.0000
vt 0.3695 0.6978 0.0000
vt 0.3645 0.6966 0.0000
vt 0.3644 0.6978 0.0000
vt 0.3837 0.6963 0.0000
vt 0.3837 0.6973 0.0000
vt 0.3134 0.6966 0.0000
vt 0.3134 0.6976 0.0000
vt 0.2463 0.6812 0.0000
# 99 texture coords

g N664_9A_181C_R_1_DaS_N664_9A_181C_R_E
usemtl paint_whiteSG
s 1
f 90/90/79 91/91/80 92/92/81 
f 92/92/81 91/91/80 93/93/82 
f 94/94/83 95/95/84 96/96/85 
f 96/96/85 95/95/84 97/97/86 
f 98/98/87 99/99/88 100/100/89 
f 100/100/89 99/99/88 101/101/90 
f 102/102/91 103/103/92 104/104/93 
f 104/104/93 103/103/92 105/105/94 
f 106/106/95 107/107/96 108/108/97 
f 108/108/97 107/107/96 109/109/98 
f 93/93/82 110/110/99 92/92/81 
f 92/92/81 110/110/99 111/111/100 
f 110/110/99 112/112/101 111/111/100 
f 111/111/100 112/112/101 113/113/102 
f 112/112/101 114/114/103 113/113/102 
f 113/113/102 114/114/103 115/115/104 
f 114/114/103 116/116/105 115/115/104 
f 115/115/104 116/116/105 117/117/106 
f 116/116/105 118/118/107 117/117/106 
f 117/117/106 118/118/107 119/119/108 
f 118/118/107 120/120/109 119/119/108 
f 119/119/108 120/120/109 121/121/110 
f 122/122/111 123/123/112 124/124/113 
f 124/124/113 123/123/112 121/121/110 
f 125/125/114 126/126/115 127/127/116 
f 127/127/116 126/126/115 128/128/117 
f 129/129/118 130/130/119 131/131/120 
f 131/131/120 130/130/119 132/132/121 
f 130/130/119 91/91/80 132/132/121 
f 132/132/121 91/91/80 90/90/79 
f 133/133/122 129/129/118 134/134/123 
f 134/134/123 129/129/118 131/131/120 
f 135/135/124 133/133/122 136/136/125 
f 136/136/125 133/133/122 134/134/123 
f 137/137/126 135/135/124 138/138/127 
f 138/138/127 135/135/124 136/136/125 
f 95/95/84 137/137/126 97/97/86 
f 97/97/86 137/137/126 138/138/127 
f 103/103/92 94/94/83 105/105/94 
f 105/105/94 94/94/83 96/96/85 
f 99/99/88 126/126/115 101/101/90 
f 101/101/90 126/126/115 125/125/114 
f 108/108/97 102/102/91 106/106/95 
f 106/106/95 102/102/91 104/104/93 
f 98/98/87 100/100/89 139/139/128 
f 121/121/110 120/120/109 124/124/113 
f 111/111/100 140/140/129 92/92/81 
f 92/92/81 140/140/129 141/141/130 
f 142/142/131 90/90/79 141/141/130 
f 141/141/130 90/90/79 92/92/81 
f 143/143/132 132/132/121 142/142/131 
f 142/142/131 132/132/121 90/90/79 
f 97/97/86 138/138/127 144/144/133 
f 144/144/133 138/138/127 145/145/134 
f 144/144/133 146/146/135 97/97/86 
f 97/97/86 146/146/135 96/96/85 
f 146/146/135 147/147/136 96/96/85 
f 96/96/85 147/147/136 105/105/94 
f 147/147/136 148/148/137 105/105/94 
f 105/105/94 148/148/137 104/104/93 
f 148/148/137 149/149/138 104/104/93 
f 104/104/93 149/149/138 106/106/95 
f 149/149/138 150/150/139 106/106/95 
f 106/106/95 150/150/139 107/107/96 
f 111/111/100 113/113/102 140/140/129 
f 140/140/129 113/113/102 151/151/140 
f 113/113/102 115/115/104 151/151/140 
f 151/151/140 115/115/104 152/152/141 
f 117/117/106 153/153/142 115/115/104 
f 115/115/104 153/153/142 152/152/141 
f 117/117/106 119/119/108 153/153/142 
f 153/153/142 119/119/108 154/154/143 
f 119/119/108 121/121/110 154/154/143 
f 154/154/143 121/121/110 155/155/144 
f 123/123/112 156/156/145 121/121/110 
f 121/121/110 156/156/145 155/155/144 
f 143/143/132 157/157/146 132/132/121 
f 132/132/121 157/157/146 131/131/120 
f 157/157/146 158/158/147 131/131/120 
f 131/131/120 158/158/147 134/134/123 
f 158/158/147 159/159/148 134/134/123 
f 134/134/123 159/159/148 136/136/125 
f 159/159/148 145/145/134 136/136/125 
f 136/136/125 145/145/134 138/138/127 
f 124/124/113 160/160/149 122/122/111 
f 123/123/112 161/161/150 156/156/145 
f 156/156/145 161/161/150 162/162/151 
f 163/163/152 161/161/150 122/122/111 
f 122/122/111 161/161/150 123/123/112 
f 160/160/149 163/163/152 122/122/111 
f 164/164/153 165/165/154 166/166/155 
f 166/166/155 165/165/154 167/167/156 
f 168/168/157 169/169/158 170/170/159 
f 170/170/159 169/169/158 171/171/160 
f 172/172/161 173/173/162 128/128/117 
f 128/128/117 173/173/162 174/174/163 
f 175/175/164 176/176/165 177/177/166 
f 178/178/167 179/179/168 180/180/169 
f 180/180/169 179/179/168 181/181/170 
f 180/180/169 181/181/170 182/182/171 
f 182/182/171 181/181/170 183/183/172 
f 184/184/173 185/185/174 175/175/164 
f 175/175/164 185/185/174 176/176/165 
f 183/183/172 165/165/154 182/182/171 
f 182/182/171 165/165/154 164/164/153 
f 166/166/155 167/167/156 168/168/157 
f 168/168/157 167/167/156 169/169/158 
f 170/170/159 171/171/160 186/186/175 
f 186/186/175 171/171/160 187/187/176 
f 186/186/175 187/187/176 172/172/161 
f 172/172/161 187/187/176 173/173/162 
f 176/176/165 179/179/168 177/177/166 
f 177/177/166 179/179/168 178/178/167 
f 108/108/97 109/109/98 188/188/177 
s off
f 127/127/178 128/128/178 174/174/178 
# 115 faces

