# 3ds Max Wavefront OBJ Exporter v0.97b - (c)2007 guruware
# File Created: 26.10.2015 10:34:31

mtllib N664_9A_18A5_R.mtl

#
# object N664_9A_18A5_R_1_DaS_N664_9A_18A5_R
#

v  45.8996 76.1203 59.1102
v  44.1148 76.7354 59.1496
v  45.7144 75.9862 60.8991
v  43.9856 76.5780 60.8759
v  45.3512 75.3720 62.8318
v  43.6443 75.9573 62.7536
v  44.8863 74.5424 64.5646
v  43.1950 75.1103 64.4454
v  44.3301 73.4679 66.1272
v  42.6475 74.0219 65.9619
v  41.9627 72.5530 67.3388
v  43.6538 72.0072 67.5862
v  41.4133 77.4554 60.8233
v  41.4976 77.6275 59.1903
v  41.1079 76.8055 62.6257
v  40.7060 75.9205 64.2538
v  40.2169 74.8070 65.7126
v  39.5800 73.3026 67.1079
v  38.7051 78.5181 59.2083
v  38.6590 78.3473 60.7645
v  38.4101 77.6519 62.5089
v  38.0789 76.7118 64.0808
v  37.6907 75.5507 65.4912
v  37.2112 73.9886 66.9088
v  35.7078 79.2286 60.7369
v  35.7191 79.4083 59.2275
v  35.5102 78.4715 62.4436
v  35.2432 77.4665 63.9651
v  34.9321 76.2502 65.3261
v  34.5593 74.6678 66.6936
v  32.2215 80.1238 60.7451
v  32.4126 80.2734 59.2556
v  32.0730 79.2964 62.4296
v  31.8686 78.2196 63.9058
v  31.6334 76.9385 65.2187
v  31.3666 75.3334 66.5238
v  26.9509 81.2581 60.7974
v  26.9468 81.4624 59.3227
v  26.8266 80.3585 62.4573
v  26.6570 79.2040 63.8797
v  26.4643 77.8535 65.1352
v  21.4253 82.1863 60.8728
v  21.4322 82.4005 59.3983
v  21.3306 81.2368 62.5156
v  21.1996 80.0271 63.9026
v  21.0522 78.6271 65.1204
v  20.8966 76.9559 66.3498
v  26.2550 76.2247 66.3811
v  15.6214 82.9558 60.9652
v  15.6305 83.1944 59.4784
v  15.5513 81.9667 62.5954
v  15.4529 80.7252 63.9581
v  15.3393 79.2979 65.1583
v  15.2149 77.5997 66.3546
v  3.5172 84.1146 61.1176
v  3.4456 84.3990 59.6203
v  -1.4060 84.4630 61.1739
v  -1.4192 84.6948 59.6841
v  -1.4173 83.4663 62.7946
v  3.4864 83.0913 62.7487
v  3.4416 81.8416 64.1049
v  -1.4050 82.2216 64.1850
v  -1.4062 80.7378 65.5025
v  3.3864 80.3997 65.3955
v  3.3273 78.6755 66.4691
v  -1.4102 79.0253 66.5408
v  -6.9366 85.0112 59.7652
v  -6.9019 84.7951 61.2380
v  -6.8920 83.8532 62.8363
v  -6.8499 82.6188 64.2887
v  -6.7713 81.0615 65.5934
v  -6.7190 79.3758 66.6345
v  9.4847 83.6081 61.0471
v  9.5460 83.8769 59.5528
v  9.4330 82.5885 62.6781
v  9.3604 81.3359 64.0252
v  9.2762 79.9059 65.2816
v  9.1836 78.1864 66.3979
v  45.9140 75.8090 58.1908
v  44.0418 76.4356 58.1208
v  45.9196 76.0454 58.6998
v  44.1089 76.6764 58.7344
v  41.4902 77.2633 58.1067
v  41.5003 77.5620 58.7775
v  26.7602 80.7119 58.2423
v  26.9122 81.3496 58.9496
v  32.1594 79.6866 58.2029
v  32.3589 80.1768 58.8711
v  21.3258 81.5272 58.2694
v  21.4152 82.2801 59.0312
v  15.5571 82.2313 58.2887
v  15.6199 83.0740 59.1140
v  -1.4169 84.5985 59.2946
v  3.4419 84.2892 59.2516
v  -1.4299 83.8001 58.3531
v  3.4184 83.4202 58.3397
v  -6.9313 84.8873 59.3400
v  -6.9313 84.1980 58.3647
v  9.5387 83.7589 59.1885
v  9.4923 82.8717 58.3148
v  38.7184 78.4344 58.8024
v  38.7015 78.0754 58.1330
v  35.7100 79.3137 58.8318
v  35.6108 78.8931 58.1673
# 104 vertices

vn 0.3234 0.9402 0.1069
vn 0.3219 0.9404 0.1098
vn 0.3114 0.9222 0.2294
vn 0.3076 0.9207 0.2403
vn 0.2778 0.8691 0.4093
vn 0.2712 0.8660 0.4201
vn 0.2314 0.8059 0.5450
vn 0.2229 0.8009 0.5557
vn 0.1632 0.7140 0.6809
vn 0.1606 0.7063 0.6894
vn 0.1279 0.6507 0.7485
vn 0.1244 0.6597 0.7412
vn 0.2967 0.9211 0.2521
vn 0.3118 0.9433 0.1134
vn 0.2578 0.8612 0.4380
vn 0.2087 0.7928 0.5726
vn 0.1537 0.6988 0.6986
vn 0.1271 0.6452 0.7534
vn 0.2936 0.9491 0.1141
vn 0.2781 0.9229 0.2664
vn 0.2388 0.8539 0.4624
vn 0.1908 0.7804 0.5955
vn 0.1401 0.6910 0.7092
vn 0.1170 0.6439 0.7561
vn 0.2505 0.9247 0.2868
vn 0.2668 0.9565 0.1183
vn 0.2128 0.8444 0.4916
vn 0.1689 0.7638 0.6230
vn 0.1240 0.6766 0.7258
vn 0.1038 0.6346 0.7658
vn 0.2129 0.9270 0.3089
vn 0.2304 0.9649 0.1257
vn 0.1810 0.8309 0.5261
vn 0.1440 0.7407 0.6562
vn 0.1083 0.6545 0.7482
vn 0.0930 0.6165 0.7819
vn 0.1787 0.9272 0.3293
vn 0.1891 0.9728 0.1339
vn 0.1519 0.8181 0.5547
vn 0.1223 0.7195 0.6836
vn 0.0955 0.6351 0.7665
vn 0.1425 0.9261 0.3494
vn 0.1506 0.9780 0.1446
vn 0.1220 0.8057 0.5797
vn 0.1005 0.7003 0.7068
vn 0.0820 0.6174 0.7824
vn 0.0745 0.5857 0.8071
vn 0.0845 0.6006 0.7950
vn 0.1148 0.9233 0.3665
vn 0.1217 0.9796 0.1599
vn 0.0989 0.7969 0.5960
vn 0.0853 0.6912 0.7176
vn 0.0738 0.6054 0.7925
vn 0.0681 0.5676 0.8205
vn 0.0765 0.9224 0.3785
vn 0.0762 0.9817 0.1745
vn 0.0650 0.9281 0.3667
vn 0.0634 0.9854 0.1582
vn 0.0645 0.8023 0.5934
vn 0.0713 0.7945 0.6031
vn 0.0674 0.6981 0.7128
vn 0.0623 0.7020 0.7094
vn 0.0556 0.5922 0.8039
vn 0.0613 0.5962 0.8005
vn 0.0561 0.5288 0.8469
vn 0.0506 0.5220 0.8515
vn 0.0601 0.9871 0.1483
vn 0.0618 0.9324 0.3560
vn 0.0621 0.8086 0.5851
vn 0.0602 0.7054 0.7062
vn 0.0528 0.5929 0.8035
vn 0.0477 0.5219 0.8517
vn 0.0928 0.9211 0.3780
vn 0.0974 0.9797 0.1751
vn 0.0820 0.7929 0.6038
vn 0.0746 0.6927 0.7173
vn 0.0674 0.5991 0.7979
vn 0.0623 0.5456 0.8358
vn 0.3010 0.8705 -0.3895
vn 0.2949 0.8734 -0.3875
vn 0.2734 0.8712 -0.4078
vn 0.1257 0.7304 -0.6713
vn 0.1654 0.7698 -0.6165
vn 0.0956 0.7060 -0.7017
vn 0.0772 0.6977 -0.7122
vn 0.0474 0.7660 -0.6410
vn 0.0534 0.7265 -0.6851
vn 0.0460 0.7890 -0.6127
vn 0.0640 0.7037 -0.7076
vn 0.2422 0.8496 -0.4684
vn 0.2065 0.8127 -0.5449
# 91 vertex normals

vt 0.3828 0.6790 0.0000
vt 0.3860 0.6788 0.0000
vt 0.3832 0.6820 0.0000
vt 0.3863 0.6819 0.0000
vt 0.3835 0.6855 0.0000
vt 0.3866 0.6854 0.0000
vt 0.3836 0.6889 0.0000
vt 0.3868 0.6888 0.0000
vt 0.3837 0.6923 0.0000
vt 0.3869 0.6924 0.0000
vt 0.3870 0.6963 0.0000
vt 0.3837 0.6963 0.0000
vt 0.3912 0.6816 0.0000
vt 0.3910 0.6786 0.0000
vt 0.3914 0.6852 0.0000
vt 0.3915 0.6887 0.0000
vt 0.3917 0.6923 0.0000
vt 0.3918 0.6963 0.0000
vt 0.3965 0.6784 0.0000
vt 0.3966 0.6814 0.0000
vt 0.3967 0.6850 0.0000
vt 0.3967 0.6886 0.0000
vt 0.3967 0.6922 0.0000
vt 0.3966 0.6964 0.0000
vt 0.4025 0.6813 0.0000
vt 0.4026 0.6783 0.0000
vt 0.4025 0.6850 0.0000
vt 0.4025 0.6886 0.0000
vt 0.4023 0.6923 0.0000
vt 0.4021 0.6965 0.0000
vt 0.4096 0.6813 0.0000
vt 0.4094 0.6783 0.0000
vt 0.4095 0.6851 0.0000
vt 0.4094 0.6888 0.0000
vt 0.4092 0.6925 0.0000
vt 0.4089 0.6968 0.0000
vt 0.4204 0.6816 0.0000
vt 0.4206 0.6786 0.0000
vt 0.4203 0.6854 0.0000
vt 0.4201 0.6891 0.0000
vt 0.4199 0.6928 0.0000
vt 0.4316 0.6819 0.0000
vt 0.4317 0.6789 0.0000
vt 0.4315 0.6857 0.0000
vt 0.4313 0.6894 0.0000
vt 0.4311 0.6932 0.0000
vt 0.4309 0.6975 0.0000
vt 0.4197 0.6971 0.0000
vt 0.4433 0.6823 0.0000
vt 0.4434 0.6793 0.0000
vt 0.4431 0.6861 0.0000
vt 0.4430 0.6897 0.0000
vt 0.4428 0.6935 0.0000
vt 0.4427 0.6977 0.0000
vt 0.4670 0.6828 0.0000
vt 0.4673 0.6799 0.0000
vt 0.4765 0.6830 0.0000
vt 0.4766 0.6802 0.0000
vt 0.4763 0.6866 0.0000
vt 0.4669 0.6865 0.0000
vt 0.4668 0.6901 0.0000
vt 0.4761 0.6902 0.0000
vt 0.4760 0.6940 0.0000
vt 0.4667 0.6939 0.0000
vt 0.4665 0.6979 0.0000
vt 0.4758 0.6978 0.0000
vt 0.4869 0.6805 0.0000
vt 0.4867 0.6832 0.0000
vt 0.4866 0.6867 0.0000
vt 0.4865 0.6902 0.0000
vt 0.4862 0.6940 0.0000
vt 0.4859 0.6978 0.0000
vt 0.4554 0.6826 0.0000
vt 0.4554 0.6796 0.0000
vt 0.4553 0.6864 0.0000
vt 0.4552 0.6900 0.0000
vt 0.4551 0.6937 0.0000
vt 0.4549 0.6978 0.0000
vt 0.3824 0.6774 0.0000
vt 0.3858 0.6769 0.0000
vt 0.3826 0.6783 0.0000
vt 0.3860 0.6781 0.0000
vt 0.3907 0.6765 0.0000
vt 0.3909 0.6778 0.0000
vt 0.4207 0.6759 0.0000
vt 0.4206 0.6778 0.0000
vt 0.4096 0.6758 0.0000
vt 0.4094 0.6775 0.0000
vt 0.4317 0.6760 0.0000
vt 0.4318 0.6782 0.0000
vt 0.4433 0.6762 0.0000
vt 0.4434 0.6786 0.0000
vt 0.4766 0.6794 0.0000
vt 0.4673 0.6792 0.0000
vt 0.4766 0.6771 0.0000
vt 0.4672 0.6767 0.0000
vt 0.4869 0.6797 0.0000
vt 0.4869 0.6775 0.0000
vt 0.4554 0.6789 0.0000
vt 0.4554 0.6764 0.0000
vt 0.3964 0.6776 0.0000
vt 0.3962 0.6762 0.0000
vt 0.4026 0.6775 0.0000
vt 0.4025 0.6759 0.0000
# 104 texture coords

g N664_9A_18A5_R_1_DaS_N664_9A_18A5_R
usemtl paint_whiteSG
s 1
f 1/1/1 2/2/2 3/3/3 
f 3/3/3 2/2/2 4/4/4 
f 3/3/3 4/4/4 5/5/5 
f 5/5/5 4/4/4 6/6/6 
f 7/7/7 8/8/8 9/9/9 
f 9/9/9 8/8/8 10/10/10 
f 11/11/11 12/12/12 10/10/10 
f 10/10/10 12/12/12 9/9/9 
f 13/13/13 4/4/4 14/14/14 
f 14/14/14 4/4/4 2/2/2 
f 4/4/4 13/13/13 6/6/6 
f 6/6/6 13/13/13 15/15/15 
f 6/6/6 15/15/15 8/8/8 
f 8/8/8 15/15/15 16/16/16 
f 8/8/8 16/16/16 10/10/10 
f 10/10/10 16/16/16 17/17/17 
f 18/18/18 11/11/11 17/17/17 
f 17/17/17 11/11/11 10/10/10 
f 19/19/19 20/20/20 14/14/14 
f 14/14/14 20/20/20 13/13/13 
f 13/13/13 20/20/20 15/15/15 
f 15/15/15 20/20/20 21/21/21 
f 16/16/16 15/15/15 22/22/22 
f 22/22/22 15/15/15 21/21/21 
f 22/22/22 23/23/23 16/16/16 
f 16/16/16 23/23/23 17/17/17 
f 23/23/23 24/24/24 17/17/17 
f 17/17/17 24/24/24 18/18/18 
f 20/20/20 19/19/19 25/25/25 
f 25/25/25 19/19/19 26/26/26 
f 21/21/21 20/20/20 27/27/27 
f 27/27/27 20/20/20 25/25/25 
f 27/27/27 28/28/28 21/21/21 
f 21/21/21 28/28/28 22/22/22 
f 28/28/28 29/29/29 22/22/22 
f 22/22/22 29/29/29 23/23/23 
f 29/29/29 30/30/30 23/23/23 
f 23/23/23 30/30/30 24/24/24 
f 31/31/31 25/25/25 32/32/32 
f 32/32/32 25/25/25 26/26/26 
f 27/27/27 25/25/25 33/33/33 
f 33/33/33 25/25/25 31/31/31 
f 33/33/33 34/34/34 27/27/27 
f 27/27/27 34/34/34 28/28/28 
f 34/34/34 35/35/35 28/28/28 
f 28/28/28 35/35/35 29/29/29 
f 35/35/35 36/36/36 29/29/29 
f 29/29/29 36/36/36 30/30/30 
f 37/37/37 31/31/31 38/38/38 
f 38/38/38 31/31/31 32/32/32 
f 37/37/37 39/39/39 31/31/31 
f 31/31/31 39/39/39 33/33/33 
f 39/39/39 40/40/40 33/33/33 
f 33/33/33 40/40/40 34/34/34 
f 35/35/35 34/34/34 41/41/41 
f 41/41/41 34/34/34 40/40/40 
f 37/37/37 38/38/38 42/42/42 
f 42/42/42 38/38/38 43/43/43 
f 42/42/42 44/44/44 37/37/37 
f 37/37/37 44/44/44 39/39/39 
f 44/44/44 45/45/45 39/39/39 
f 39/39/39 45/45/45 40/40/40 
f 45/45/45 46/46/46 40/40/40 
f 40/40/40 46/46/46 41/41/41 
f 46/46/46 47/47/47 41/41/41 
f 41/41/41 47/47/47 48/48/48 
f 42/42/42 43/43/43 49/49/49 
f 49/49/49 43/43/43 50/50/50 
f 44/44/44 42/42/42 51/51/51 
f 51/51/51 42/42/42 49/49/49 
f 51/51/51 52/52/52 44/44/44 
f 44/44/44 52/52/52 45/45/45 
f 52/52/52 53/53/53 45/45/45 
f 45/45/45 53/53/53 46/46/46 
f 53/53/53 54/54/54 46/46/46 
f 46/46/46 54/54/54 47/47/47 
f 55/55/55 56/56/56 57/57/57 
f 57/57/57 56/56/56 58/58/58 
f 57/57/57 59/59/59 55/55/55 
f 55/55/55 59/59/59 60/60/60 
f 61/61/61 60/60/60 62/62/62 
f 62/62/62 60/60/60 59/59/59 
f 62/62/62 63/63/63 61/61/61 
f 61/61/61 63/63/63 64/64/64 
f 65/65/65 64/64/64 66/66/66 
f 66/66/66 64/64/64 63/63/63 
f 67/67/67 68/68/68 58/58/58 
f 58/58/58 68/68/68 57/57/57 
f 68/68/68 69/69/69 57/57/57 
f 57/57/57 69/69/69 59/59/59 
f 69/69/69 70/70/70 59/59/59 
f 59/59/59 70/70/70 62/62/62 
f 70/70/70 71/71/71 62/62/62 
f 62/62/62 71/71/71 63/63/63 
f 66/66/66 63/63/63 72/72/72 
f 72/72/72 63/63/63 71/71/71 
f 41/41/41 48/48/48 35/35/35 
f 35/35/35 48/48/48 36/36/36 
f 5/5/5 6/6/6 7/7/7 
f 7/7/7 6/6/6 8/8/8 
f 73/73/73 74/74/74 55/55/55 
f 55/55/55 74/74/74 56/56/56 
f 55/55/55 60/60/60 73/73/73 
f 73/73/73 60/60/60 75/75/75 
f 76/76/76 75/75/75 61/61/61 
f 61/61/61 75/75/75 60/60/60 
f 61/61/61 64/64/64 76/76/76 
f 76/76/76 64/64/64 77/77/77 
f 64/64/64 65/65/65 77/77/77 
f 77/77/77 65/65/65 78/78/78 
f 50/50/50 74/74/74 49/49/49 
f 49/49/49 74/74/74 73/73/73 
f 73/73/73 75/75/75 49/49/49 
f 49/49/49 75/75/75 51/51/51 
f 52/52/52 51/51/51 76/76/76 
f 76/76/76 51/51/51 75/75/75 
f 76/76/76 77/77/77 52/52/52 
f 52/52/52 77/77/77 53/53/53 
f 54/54/54 53/53/53 78/78/78 
f 78/78/78 53/53/53 77/77/77 
f 79/79/79 80/80/80 81/81/79 
f 81/81/79 80/80/80 82/82/80 
f 80/80/80 83/83/81 82/82/80 
f 82/82/80 83/83/81 84/84/81 
f 85/85/82 86/86/82 87/87/83 
f 87/87/83 86/86/82 88/88/83 
f 89/89/84 90/90/84 85/85/82 
f 85/85/82 90/90/84 86/86/82 
f 89/89/84 91/91/85 90/90/84 
f 90/90/84 91/91/85 92/92/85 
f 93/93/86 94/94/87 95/95/86 
f 95/95/86 94/94/87 96/96/87 
f 97/97/88 93/93/86 98/98/88 
f 98/98/88 93/93/86 95/95/86 
f 99/99/89 92/92/85 100/100/89 
f 100/100/89 92/92/85 91/91/85 
f 81/81/79 82/82/80 1/1/1 
f 1/1/1 82/82/80 2/2/2 
f 14/14/14 2/2/2 84/84/81 
f 84/84/81 2/2/2 82/82/80 
f 86/86/82 38/38/38 88/88/83 
f 88/88/83 38/38/38 32/32/32 
f 86/86/82 90/90/84 38/38/38 
f 38/38/38 90/90/84 43/43/43 
f 90/90/84 92/92/85 43/43/43 
f 43/43/43 92/92/85 50/50/50 
f 92/92/85 99/99/89 50/50/50 
f 50/50/50 99/99/89 74/74/74 
f 94/94/87 93/93/86 56/56/56 
f 56/56/56 93/93/86 58/58/58 
f 93/93/86 97/97/88 58/58/58 
f 58/58/58 97/97/88 67/67/67 
f 19/19/19 14/14/14 101/101/90 
f 101/101/90 14/14/14 84/84/81 
f 83/83/81 102/102/90 84/84/81 
f 84/84/81 102/102/90 101/101/90 
f 101/101/90 103/103/91 19/19/19 
f 19/19/19 103/103/91 26/26/26 
f 103/103/91 101/101/90 104/104/91 
f 104/104/91 101/101/90 102/102/90 
f 88/88/83 32/32/32 103/103/91 
f 103/103/91 32/32/32 26/26/26 
f 87/87/83 88/88/83 104/104/91 
f 104/104/91 88/88/83 103/103/91 
f 99/99/89 94/94/87 74/74/74 
f 74/74/74 94/94/87 56/56/56 
f 94/94/87 99/99/89 96/96/87 
f 96/96/87 99/99/89 100/100/89 
# 168 faces

#
# object N664_9A_18A5_R_N664_9A_18A5_R_2_D
#

v  -7.8509 84.3934 59.7998
v  -7.8553 84.1662 60.8781
v  -7.0724 84.3962 59.8025
v  -7.0500 84.1671 60.8781
v  -7.0436 83.2822 62.3733
v  -7.8575 83.2822 62.3741
v  -7.8490 82.1466 63.7076
v  -7.0164 82.1466 63.7076
v  -7.8318 80.7510 64.8648
v  -6.9657 80.7574 64.8648
v  -7.7627 78.9704 66.3354
v  -6.9480 78.9258 66.3354
v  -7.0743 84.2739 59.3568
v  -7.8538 84.2750 59.3566
v  -7.0822 83.5257 58.2021
v  -7.8586 83.5246 58.2023
# 16 vertices

vn -0.0020 0.9974 0.0717
vn -0.0011 0.9170 0.3988
vn -0.0021 0.9972 0.0743
vn -0.0011 0.9167 0.3996
vn 0.0001 0.8132 0.5820
vn 0.0001 0.8135 0.5816
vn -0.0011 0.7012 0.7130
vn -0.0011 0.7001 0.7141
vn 0.0069 0.6350 0.7725
vn 0.0070 0.6349 0.7726
vn 0.0144 0.6316 0.7752
vn -0.0002 0.8787 -0.4775
vn -0.0002 0.8783 -0.4780
vn -0.0000 0.8388 -0.5444
# 14 vertex normals

vt 0.0199 0.9798 0.0000
vt 0.0199 0.9797 0.0000
vt 0.0199 0.9796 0.0000
vt 0.0199 0.9795 0.0000
vt 0.0199 0.9799 0.0000
# 5 texture coords

g N664_9A_18A5_R_N664_9A_18A5_R_2_D
usemtl diffuse_holesSG
s 1
f 105/105/92 106/106/93 107/105/94 
f 107/105/94 106/106/93 108/106/95 
f 108/106/95 106/106/93 109/106/96 
f 109/106/96 106/106/93 110/106/97 
f 110/106/97 111/107/98 109/106/96 
f 109/106/96 111/107/98 112/107/99 
f 111/107/98 113/108/100 112/107/99 
f 112/107/99 113/108/100 114/108/101 
f 113/108/100 115/108/102 114/108/101 
f 114/108/101 115/108/102 116/108/102 
f 107/105/94 117/105/103 105/105/92 
f 105/105/92 117/105/103 118/105/104 
f 117/105/103 119/109/105 118/105/104 
f 118/105/104 119/109/105 120/109/105 
# 14 faces

#
# object N664_9A_18A5_R_1_DaS_N664_9A_18A5_R_E
#

v  41.8432 72.0858 67.0932
v  43.5377 71.5373 67.3440
v  41.9627 72.5530 67.3388
v  43.6538 72.0072 67.5862
v  39.5800 73.3026 67.1079
v  39.4608 72.8380 66.8571
v  37.2112 73.9886 66.9088
v  37.1042 73.5233 66.6541
v  34.5593 74.6678 66.6936
v  34.4684 74.2027 66.4323
v  31.3666 75.3334 66.5238
v  31.3470 74.8622 66.2528
v  26.2550 76.2247 66.3811
v  26.1887 75.7684 66.0977
v  20.8966 76.9559 66.3498
v  20.8424 76.5038 66.0574
v  15.2149 77.5997 66.3546
v  15.1636 77.1475 66.0843
v  3.3521 78.2234 66.1669
v  9.0731 77.7434 66.1163
v  3.3273 78.6755 66.4691
v  9.1836 78.1864 66.3979
v  -6.9480 78.9258 66.3354
v  -1.4476 78.5782 66.2358
v  -6.7190 79.3758 66.6345
v  -1.4102 79.0253 66.5408
v  -7.0724 84.3962 59.8025
v  -7.0500 84.1671 60.8781
v  -6.9366 85.0112 59.7652
v  -6.9019 84.7951 61.2380
v  -7.0436 83.2822 62.3733
v  -6.8920 83.8532 62.8363
v  -7.0164 82.1466 63.7076
v  -6.8499 82.6188 64.2887
v  -6.9657 80.7574 64.8648
v  -6.7713 81.0615 65.5934
v  46.0170 75.6964 57.9619
v  44.0240 76.4393 57.8914
v  45.9140 75.8090 58.1908
v  44.0418 76.4356 58.1208
v  41.4939 77.2568 57.8779
v  41.4902 77.2633 58.1067
v  26.7538 80.6597 58.0327
v  26.7602 80.7119 58.2423
v  32.1393 79.6475 57.9871
v  32.1594 79.6866 58.2029
v  21.3329 81.4680 58.0624
v  21.3258 81.5272 58.2694
v  15.5591 82.1707 58.0827
v  15.5571 82.2313 58.2887
v  9.4948 82.8185 58.1012
v  9.4923 82.8717 58.3148
v  3.4203 83.3584 58.1373
v  -1.4014 83.6983 58.1939
v  3.4184 83.4202 58.3397
v  -1.4299 83.8001 58.3531
v  -6.9426 84.1318 58.2143
v  -6.9313 84.1980 58.3647
v  38.7015 78.0754 58.1330
v  38.7133 78.0536 57.9065
v  35.6120 78.8597 57.9454
v  35.6108 78.8931 58.1673
v  -7.0822 83.5257 58.2021
v  -7.0743 84.2739 59.3568
v  -6.9313 84.8873 59.3400
# 65 vertices

vn -0.2381 -0.4034 0.8835
vn -0.2564 -0.3930 0.8831
vn -0.2378 -0.4037 0.8834
vn -0.2558 -0.3922 0.8836
vn -0.2086 -0.4233 0.8816
vn -0.2086 -0.4220 0.8823
vn -0.1933 -0.4375 0.8782
vn -0.1933 -0.4359 0.8790
vn -0.1674 -0.4593 0.8723
vn -0.1674 -0.4570 0.8736
vn -0.1288 -0.4910 0.8616
vn -0.1312 -0.4887 0.8625
vn -0.0954 -0.5157 0.8514
vn -0.0954 -0.5145 0.8522
vn -0.0674 -0.5353 0.8420
vn -0.0674 -0.5356 0.8417
vn -0.0501 -0.5081 0.8598
vn -0.0501 -0.5096 0.8590
vn -0.0347 -0.5566 0.8301
vn -0.0402 -0.5297 0.8472
vn -0.0337 -0.5560 0.8305
vn -0.0410 -0.5282 0.8481
vn -0.6280 -0.1832 0.7563
vn -0.0256 -0.5611 0.8273
vn -0.6312 -0.2071 0.7474
vn -0.0257 -0.5618 0.8269
vn -0.9755 0.2198 0.0026
vn -0.9787 0.1894 0.0785
vn -0.9773 0.2120 -0.0055
vn -0.9794 0.1841 0.0827
vn -0.9795 0.1588 0.1243
vn -0.9790 0.1588 0.1280
vn -0.9766 0.1347 0.1679
vn -0.9755 0.1342 0.1746
vn -0.9680 0.1267 0.2165
vn -0.9708 0.1122 0.2121
vn 0.3436 0.8946 -0.2856
vn 0.3143 0.9491 -0.0201
vn 0.3429 0.8995 -0.2708
vn 0.3134 0.9496 -0.0090
vn 0.2916 0.9563 -0.0224
vn 0.2912 0.9564 -0.0234
vn 0.1597 0.9568 -0.2431
vn 0.1594 0.9569 -0.2428
vn 0.1993 0.9609 -0.1922
vn 0.2004 0.9606 -0.1926
vn 0.1292 0.9546 -0.2683
vn 0.1279 0.9547 -0.2688
vn 0.1085 0.9540 -0.2796
vn 0.1081 0.9541 -0.2792
vn 0.0929 0.9663 -0.2402
vn 0.0925 0.9663 -0.2404
vn 0.0747 0.9541 -0.2899
vn 0.0646 0.8477 -0.5265
vn 0.0742 0.9531 -0.2936
vn 0.0645 0.8465 -0.5285
vn -0.6855 0.6833 -0.2513
vn -0.7779 0.5696 -0.2653
vn 0.2633 0.9614 -0.0803
vn 0.2647 0.9612 -0.0774
vn 0.2350 0.9616 -0.1420
vn 0.2340 0.9615 -0.1444
vn -0.9604 0.2467 -0.1292
vn -0.9667 0.2272 -0.1179
vn -0.9709 0.2180 -0.0988
# 65 vertex normals

vt 0.3870 0.6973 0.0000
vt 0.3837 0.6973 0.0000
vt 0.3870 0.6963 0.0000
vt 0.3837 0.6963 0.0000
vt 0.3918 0.6963 0.0000
vt 0.3917 0.6974 0.0000
vt 0.3966 0.6964 0.0000
vt 0.3965 0.6975 0.0000
vt 0.4021 0.6965 0.0000
vt 0.4021 0.6977 0.0000
vt 0.4089 0.6968 0.0000
vt 0.4087 0.6979 0.0000
vt 0.4197 0.6971 0.0000
vt 0.4196 0.6982 0.0000
vt 0.4309 0.6975 0.0000
vt 0.4309 0.6986 0.0000
vt 0.4427 0.6977 0.0000
vt 0.4427 0.6988 0.0000
vt 0.4664 0.6989 0.0000
vt 0.4550 0.6989 0.0000
vt 0.4665 0.6979 0.0000
vt 0.4549 0.6978 0.0000
vt 0.4863 0.6988 0.0000
vt 0.4758 0.6989 0.0000
vt 0.4859 0.6978 0.0000
vt 0.4758 0.6978 0.0000
vt 0.4881 0.6806 0.0000
vt 0.4881 0.6830 0.0000
vt 0.4869 0.6805 0.0000
vt 0.4867 0.6832 0.0000
vt 0.4881 0.6866 0.0000
vt 0.4866 0.6867 0.0000
vt 0.4879 0.6902 0.0000
vt 0.4865 0.6902 0.0000
vt 0.4877 0.6938 0.0000
vt 0.4862 0.6940 0.0000
vt 0.4870 0.6983 0.0000
vt 0.3821 0.6770 0.0000
vt 0.3858 0.6765 0.0000
vt 0.3824 0.6774 0.0000
vt 0.3858 0.6769 0.0000
vt 0.3907 0.6761 0.0000
vt 0.3907 0.6765 0.0000
vt 0.4207 0.6754 0.0000
vt 0.4207 0.6759 0.0000
vt 0.4096 0.6754 0.0000
vt 0.4096 0.6758 0.0000
vt 0.4317 0.6756 0.0000
vt 0.4317 0.6760 0.0000
vt 0.4433 0.6758 0.0000
vt 0.4433 0.6762 0.0000
vt 0.4553 0.6760 0.0000
vt 0.4554 0.6764 0.0000
vt 0.4672 0.6763 0.0000
vt 0.4765 0.6767 0.0000
vt 0.4672 0.6767 0.0000
vt 0.4766 0.6771 0.0000
vt 0.4870 0.6772 0.0000
vt 0.4869 0.6775 0.0000
vt 0.3962 0.6762 0.0000
vt 0.3962 0.6757 0.0000
vt 0.4025 0.6755 0.0000
vt 0.4025 0.6759 0.0000
vt 0.4880 0.6765 0.0000
vt 0.4880 0.6793 0.0000
vt 0.4869 0.6797 0.0000
# 66 texture coords

g N664_9A_18A5_R_1_DaS_N664_9A_18A5_R_E
usemtl paint_whiteSG
s 1
f 121/110/106 122/111/107 123/112/108 
f 123/112/108 122/111/107 124/113/109 
f 125/114/110 126/115/111 123/112/108 
f 123/112/108 126/115/111 121/110/106 
f 127/116/112 128/117/113 125/114/110 
f 125/114/110 128/117/113 126/115/111 
f 129/118/114 130/119/115 127/116/112 
f 127/116/112 130/119/115 128/117/113 
f 131/120/116 132/121/117 129/118/114 
f 129/118/114 132/121/117 130/119/115 
f 133/122/118 134/123/119 131/120/116 
f 131/120/116 134/123/119 132/121/117 
f 135/124/120 136/125/121 133/122/118 
f 133/122/118 136/125/121 134/123/119 
f 137/126/122 138/127/123 135/124/120 
f 135/124/120 138/127/123 136/125/121 
f 139/128/124 140/129/125 141/130/126 
f 141/130/126 140/129/125 142/131/127 
f 143/132/128 144/133/129 145/134/130 
f 145/134/130 144/133/129 146/135/131 
f 146/135/131 144/133/129 141/130/126 
f 141/130/126 144/133/129 139/128/124 
f 140/129/125 138/127/123 142/131/127 
f 142/131/127 138/127/123 137/126/122 
f 147/136/132 148/137/133 149/138/134 
f 149/138/134 148/137/133 150/139/135 
f 148/137/133 151/140/136 150/139/135 
f 150/139/135 151/140/136 152/141/137 
f 151/140/136 153/142/138 152/141/137 
f 152/141/137 153/142/138 154/143/139 
f 153/142/138 155/144/140 154/143/139 
f 154/143/139 155/144/140 156/145/141 
f 156/145/141 155/144/140 145/134/130 
f 145/134/130 155/144/140 143/146/128 
f 157/147/142 158/148/143 159/149/144 
f 159/149/144 158/148/143 160/150/145 
f 161/151/146 162/152/147 158/148/143 
f 158/148/143 162/152/147 160/150/145 
f 163/153/148 164/154/149 165/155/150 
f 165/155/150 164/154/149 166/156/151 
f 163/153/148 167/157/152 164/154/149 
f 164/154/149 167/157/152 168/158/153 
f 167/157/152 169/159/154 168/158/153 
f 168/158/153 169/159/154 170/160/155 
f 169/159/154 171/161/156 170/160/155 
f 170/160/155 171/161/156 172/162/157 
f 173/163/158 174/164/159 175/165/160 
f 175/165/160 174/164/159 176/166/161 
f 174/164/159 177/167/162 176/166/161 
f 176/166/161 177/167/162 178/168/163 
f 179/169/164 162/152/147 180/170/165 
f 180/170/165 162/152/147 161/151/146 
f 180/170/165 181/171/166 179/169/164 
f 179/169/164 181/171/166 182/172/167 
f 166/156/151 182/172/167 165/155/150 
f 165/155/150 182/172/167 181/171/166 
f 171/161/156 173/163/158 172/162/157 
f 172/162/157 173/163/158 175/165/160 
f 183/173/168 184/174/169 178/168/163 
f 178/168/163 184/174/169 185/175/170 
f 184/174/169 147/136/132 185/175/170 
f 185/175/170 147/136/132 149/138/134 
f 177/167/162 183/173/168 178/168/163 
# 63 faces

