# 3ds Max Wavefront OBJ Exporter v0.97b - (c)2007 guruware
# File Created: 20.10.2014 19:06:48

#
# object wall2
#

v  1299.4619 -137.2226 -1260.0049
v  1299.4614 -137.2227 196.4732
v  1299.4617 90.0048 196.4733
v  1299.4619 90.0049 -1260.0049
v  1299.4614 -137.2227 572.9630
v  1299.4614 90.0047 572.9630
v  1299.4612 -137.2228 949.4528
v  1299.4612 90.0047 949.4528
v  1299.4609 -137.2229 1364.6941
v  1299.4609 90.0047 1364.6941
v  1299.4622 356.7283 205.0685
v  1299.4619 356.7283 84.2398
v  1299.4619 356.7283 67.0518
v  1299.4619 356.7283 46.2487
v  1299.4619 356.7283 6.6275
v  1299.4619 356.7283 -14.3207
v  1299.4617 356.7283 -32.2572
v  1299.4619 356.7283 -40.0712
v  1299.4617 356.7283 -213.4156
v  1299.4619 356.7284 -1260.0049
v  1299.4614 356.7282 572.9630
v  1299.4612 356.7282 949.4528
v  1299.4609 356.7282 1364.6941
v  1299.4617 491.6363 6.6275
v  1299.4617 491.6363 -14.3207
v  1299.4619 477.8854 -14.3207
v  1299.4619 477.8854 6.6275
v  1299.4614 674.6063 572.9630
v  1299.4619 674.6063 205.0685
v  1299.4612 674.6063 949.4528
v  1299.4609 674.6062 1364.6943
v  1299.4617 674.6063 84.2398
v  1299.4619 1182.6188 196.4734
v  1299.4617 674.6063 67.0518
v  1299.4617 674.6063 46.2487
v  1299.4617 674.6063 6.6275
v  1299.4617 674.6063 -14.3207
v  1299.4617 674.6063 -32.2573
v  1299.4619 674.6063 -40.0713
v  1299.4617 674.6063 -213.4156
v  1299.4619 674.6064 -1260.0046
v  1299.4619 1182.6189 -1260.0046
v  1299.4614 1182.6188 572.9631
v  1299.4612 1182.6188 949.4528
v  1299.4612 1182.6187 1364.6943
v  1299.4617 491.6363 84.2398
v  1299.4617 491.6363 67.0518
v  1299.4619 477.8854 67.0518
v  1299.4619 477.8854 84.2398
v  1299.4617 491.6363 46.2487
v  1299.4619 477.8854 46.2487
v  1299.4617 424.0031 -213.4156
v  1299.4617 448.0503 -213.4156
v  1299.4617 477.8854 -213.4156
v  1299.4617 491.6363 -213.4156
v  1299.4617 510.6617 -213.4156
v  1299.4617 528.0190 -213.4156
v  1299.4619 477.8854 -40.0712
v  1299.4619 491.6363 -40.0712
v  1299.4617 477.8854 -32.2573
v  1299.4617 491.6363 -32.2573
v  1299.4617 528.0190 6.6275
v  1299.4617 528.0190 -14.3207
v  1299.4617 510.6617 -14.3207
v  1299.4617 510.6617 6.6275
v  1299.4619 424.0031 -14.3207
v  1299.4619 424.0031 6.6275
v  1299.4619 448.0503 6.6275
v  1299.4619 448.0503 -14.3207
v  1299.4617 528.0190 67.0518
v  1299.4617 580.2436 84.2398
v  1299.4617 528.0190 84.2398
v  1299.4617 510.6617 67.0518
v  1299.4617 510.6617 84.2398
v  1299.4619 424.0031 67.0518
v  1299.4619 424.0031 84.2398
v  1299.4619 448.0503 84.2398
v  1299.4619 448.0503 67.0518
v  1299.4617 528.0190 46.2487
v  1299.4617 510.6617 46.2487
v  1299.4619 424.0031 46.2487
v  1299.4619 448.0503 46.2487
v  1299.4619 424.0031 -40.0712
v  1299.4619 448.0503 -40.0712
v  1299.4619 510.6617 -40.0713
v  1299.4617 424.0031 -32.2573
v  1299.4617 448.0503 -32.2573
v  1299.4619 528.0190 -40.0713
v  1299.4617 580.2437 -32.2573
v  1299.4617 528.0190 -32.2573
v  1299.4617 510.6617 -32.2573
v  1299.4617 580.2437 -29.3571
v  1299.4617 580.2437 -14.3207
v  1525.0308 -143.8749 1327.1880
v  210.3419 -143.8749 1327.1875
v  210.3419 82.8733 1327.1875
v  1525.0308 82.8733 1327.1880
v  -121.4675 -143.8749 1327.1875
v  -121.4675 82.8733 1327.1875
v  -453.2769 -143.8749 1327.1873
v  -453.2770 82.8733 1327.1873
v  -1315.4430 -143.8749 1327.1870
v  -1315.4430 82.8733 1327.1870
v  210.3419 309.6215 1327.1875
v  1525.0310 309.6215 1327.1880
v  -121.4675 309.6215 1327.1875
v  -453.2770 309.6215 1327.1873
v  -1315.4430 309.6215 1327.1870
v  210.3419 536.3697 1327.1875
v  1525.0310 536.3698 1327.1880
v  -121.4675 536.3697 1327.1875
v  -453.2770 536.3697 1327.1873
v  -1315.4430 536.3698 1327.1870
v  -981.5230 536.3696 1327.1870
v  -934.7238 536.3696 1327.1870
v  -899.3363 536.3697 1327.1873
v  -776.4371 536.3697 1327.1873
v  210.3418 1182.3405 1327.1877
v  1525.0310 1182.3405 1327.1880
v  -121.4675 1182.3405 1327.1875
v  -453.2770 1182.3405 1327.1875
v  -934.7239 837.2639 1327.1873
v  -899.3363 837.2638 1327.1873
v  -899.3363 818.1023 1327.1873
v  -934.7238 818.1023 1327.1870
v  -1315.4430 1182.3405 1327.1870
v  -981.5230 1182.3405 1327.1873
v  -981.5231 923.8124 1327.1873
v  -981.5231 837.2639 1327.1873
v  -981.5230 818.1023 1327.1870
v  -981.5230 749.7159 1327.1870
v  -776.4372 749.7159 1327.1875
v  -776.4372 818.1023 1327.1875
v  -776.4373 837.2638 1327.1875
v  -776.4373 923.8124 1327.1875
v  -776.4373 1182.3405 1327.1873
v  -934.7238 1182.3405 1327.1873
v  -899.3363 1182.3405 1327.1873
v  -899.3363 923.8123 1327.1873
v  -934.7239 923.8124 1327.1873
v  -934.7238 749.7159 1327.1870
v  -899.3363 749.7159 1327.1873
v  1299.4617 544.1044 95.3231
v  1299.4617 580.3091 95.1231
v  1299.4617 580.4444 117.6089
v  1299.4617 543.9037 117.8097
v  1299.4617 544.1045 -29.5578
v  1299.4617 544.1045 -14.3207
v  1299.4617 580.2436 -10.8859
v  1299.4617 544.1045 -10.6852
v  210.3419 1679.1901 1327.1877
v  1525.0313 1679.1901 1327.1880
v  -121.4675 1679.1901 1327.1875
v  -453.2770 1679.1901 1327.1875
v  -1315.4429 1679.1901 1327.1870
v  -981.5229 1679.1901 1327.1873
v  -934.7238 1679.1901 1327.1873
v  -899.3363 1679.1901 1327.1873
v  -776.4373 1679.1901 1327.1873
v  1299.4619 1680.3639 196.4734
v  1299.4619 1680.3641 -1260.0046
v  1299.4614 1680.3639 572.9630
v  1299.4612 1680.3639 949.4528
v  1299.4614 1680.3639 1364.6943
# 164 vertices

vn -1.0000 0.0000 -0.0000
vn -1.0000 0.0001 -0.0000
vn 0.0000 0.0000 -1.0000
# 3 vertex normals

vt 0.5370 0.9571 0.0000
vt 0.5370 0.4800 0.0000
vt 0.6105 0.4800 0.0000
vt 0.6105 0.9571 0.0000
vt 0.5370 0.3567 0.0000
vt 0.6105 0.3567 0.0000
vt 0.5370 0.2334 0.0000
vt 0.6105 0.2334 0.0000
vt 0.5370 0.0974 0.0000
vt 0.6105 0.0974 0.0000
vt 0.6969 0.4772 0.0000
vt 0.6969 0.5168 0.0000
vt 0.6969 0.5224 0.0000
vt 0.6969 0.5292 0.0000
vt 0.6969 0.5422 0.0000
vt 0.6969 0.5491 0.0000
vt 0.6969 0.5549 0.0000
vt 0.6969 0.5575 0.0000
vt 0.6969 0.6143 0.0000
vt 0.6969 0.9571 0.0000
vt 0.6969 0.3567 0.0000
vt 0.6969 0.2334 0.0000
vt 0.6969 0.0974 0.0000
vt 0.7406 0.5422 0.0000
vt 0.7406 0.5491 0.0000
vt 0.7362 0.5491 0.0000
vt 0.7362 0.5422 0.0000
vt 0.7999 0.3567 0.0000
vt 0.7999 0.4772 0.0000
vt 0.7999 0.2334 0.0000
vt 0.7999 0.0974 0.0000
vt 0.7999 0.5168 0.0000
vt 0.9744 0.4800 0.0000
vt 0.7999 0.5224 0.0000
vt 0.7999 0.5292 0.0000
vt 0.7999 0.5422 0.0000
vt 0.7999 0.5491 0.0000
vt 0.7999 0.5549 0.0000
vt 0.8015 0.5575 0.0000
vt 0.8015 0.6151 0.0000
vt 0.7999 0.9571 0.0000
vt 0.9744 0.9571 0.0000
vt 0.9744 0.3567 0.0000
vt 0.9744 0.2334 0.0000
vt 0.9744 0.0974 0.0000
vt 0.7406 0.5168 0.0000
vt 0.7406 0.5224 0.0000
vt 0.7362 0.5224 0.0000
vt 0.7362 0.5168 0.0000
vt 0.7406 0.5292 0.0000
vt 0.7362 0.5292 0.0000
vt 0.7187 0.6143 0.0000
vt 0.7265 0.6143 0.0000
vt 0.7362 0.6143 0.0000
vt 0.7406 0.6143 0.0000
vt 0.7468 0.6143 0.0000
vt 0.7524 0.6151 0.0000
vt 0.7362 0.5575 0.0000
vt 0.7406 0.5575 0.0000
vt 0.7362 0.5549 0.0000
vt 0.7406 0.5549 0.0000
vt 0.7524 0.5422 0.0000
vt 0.7524 0.5491 0.0000
vt 0.7468 0.5491 0.0000
vt 0.7468 0.5422 0.0000
vt 0.7187 0.5491 0.0000
vt 0.7187 0.5422 0.0000
vt 0.7265 0.5422 0.0000
vt 0.7265 0.5491 0.0000
vt 0.7524 0.5224 0.0000
vt 0.7693 0.5168 0.0000
vt 0.7524 0.5168 0.0000
vt 0.7468 0.5224 0.0000
vt 0.7468 0.5168 0.0000
vt 0.7187 0.5224 0.0000
vt 0.7187 0.5168 0.0000
vt 0.7265 0.5168 0.0000
vt 0.7265 0.5224 0.0000
vt 0.7524 0.5292 0.0000
vt 0.7468 0.5292 0.0000
vt 0.7187 0.5292 0.0000
vt 0.7265 0.5292 0.0000
vt 0.7187 0.5575 0.0000
vt 0.7265 0.5575 0.0000
vt 0.7468 0.5575 0.0000
vt 0.7187 0.5549 0.0000
vt 0.7265 0.5549 0.0000
vt 0.7524 0.5575 0.0000
vt 0.7693 0.5549 0.0000
vt 0.7524 0.5549 0.0000
vt 0.7468 0.5549 0.0000
vt 0.7693 0.5540 0.0000
vt 0.7693 0.5491 0.0000
vt 0.4565 0.0264 0.0000
vt 0.4565 0.4590 0.0000
vt 0.3821 0.4590 0.0000
vt 0.3821 0.0264 0.0000
vt 0.4565 0.5682 0.0000
vt 0.3821 0.5682 0.0000
vt 0.4565 0.6773 0.0000
vt 0.3821 0.6773 0.0000
vt 0.4565 0.9610 0.0000
vt 0.3821 0.9610 0.0000
vt 0.3076 0.4590 0.0000
vt 0.3076 0.0264 0.0000
vt 0.3076 0.5682 0.0000
vt 0.3076 0.6773 0.0000
vt 0.3076 0.9610 0.0000
vt 0.2331 0.4590 0.0000
vt 0.2331 0.0264 0.0000
vt 0.2331 0.5682 0.0000
vt 0.2331 0.6773 0.0000
vt 0.2331 0.9610 0.0000
vt 0.2331 0.8512 0.0000
vt 0.2331 0.8358 0.0000
vt 0.2331 0.8241 0.0000
vt 0.2331 0.7837 0.0000
vt 0.0210 0.4590 0.0000
vt 0.0210 0.0264 0.0000
vt 0.0210 0.5682 0.0000
vt 0.0210 0.6773 0.0000
vt 0.1343 0.8358 0.0000
vt 0.1343 0.8241 0.0000
vt 0.1406 0.8241 0.0000
vt 0.1406 0.8358 0.0000
vt 0.0210 0.9610 0.0000
vt 0.0210 0.8512 0.0000
vt 0.1059 0.8512 0.0000
vt 0.1343 0.8512 0.0000
vt 0.1406 0.8512 0.0000
vt 0.1631 0.8512 0.0000
vt 0.1631 0.7837 0.0000
vt 0.1406 0.7837 0.0000
vt 0.1343 0.7837 0.0000
vt 0.1059 0.7837 0.0000
vt 0.0210 0.7837 0.0000
vt 0.0210 0.8358 0.0000
vt 0.0210 0.8241 0.0000
vt 0.1059 0.8241 0.0000
vt 0.1059 0.8358 0.0000
vt 0.1631 0.8358 0.0000
vt 0.1631 0.8241 0.0000
vt 0.7576 0.5132 0.0000
vt 0.7693 0.5132 0.0000
vt 0.7694 0.5059 0.0000
vt 0.7575 0.5058 0.0000
vt 0.7576 0.5541 0.0000
vt 0.7576 0.5491 0.0000
vt 0.7693 0.5479 0.0000
vt 0.7576 0.5479 0.0000
vt 0.0267 0.0215 0.0000
vt 0.0267 0.4561 0.0000
vt 0.1575 0.4561 0.0000
vt 0.1575 0.0215 0.0000
vt 0.0267 0.5657 0.0000
vt 0.1575 0.5657 0.0000
vt 0.0267 0.6754 0.0000
vt 0.1575 0.6754 0.0000
vt 0.0267 0.8500 0.0000
vt 0.0267 0.9603 0.0000
vt 0.1575 0.9603 0.0000
vt 0.1575 0.8500 0.0000
vt 0.0267 0.8345 0.0000
vt 0.1575 0.8345 0.0000
vt 0.0267 0.8228 0.0000
vt 0.1575 0.8228 0.0000
vt 0.0267 0.7822 0.0000
vt 0.1575 0.7822 0.0000
vt 0.9789 0.9575 0.0000
vt 0.9789 0.4795 0.0000
vt 0.8680 0.4795 0.0000
vt 0.8680 0.9575 0.0000
vt 0.9789 0.3560 0.0000
vt 0.8680 0.3560 0.0000
vt 0.9789 0.2324 0.0000
vt 0.8680 0.2324 0.0000
vt 0.9789 0.0961 0.0000
vt 0.8680 0.0961 0.0000
# 178 texture coords

g wall2
s 1
f 1/1/1 2/2/1 3/3/1 
f 3/3/1 4/4/1 1/1/1 
f 2/2/1 5/5/1 6/6/1 
f 6/6/1 3/3/1 2/2/1 
f 5/5/1 7/7/1 8/8/1 
f 8/8/1 6/6/1 5/5/1 
f 7/7/1 9/9/1 10/10/1 
f 10/10/1 8/8/1 7/7/1 
f 4/4/1 3/3/1 11/11/1 
f 4/4/1 11/11/1 12/12/1 
f 4/4/1 12/12/1 13/13/1 
f 4/4/1 13/13/1 14/14/1 
f 4/4/1 14/14/1 15/15/1 
f 4/4/1 15/15/1 16/16/1 
f 4/4/1 16/16/1 17/17/1 
f 4/4/1 17/17/1 18/18/2 
f 4/4/1 18/18/2 19/19/1 
f 20/20/1 4/4/1 19/19/1 
f 3/3/1 6/6/1 21/21/1 
f 21/21/1 11/11/1 3/3/1 
f 6/6/1 8/8/1 22/22/1 
f 22/22/1 21/21/1 6/6/1 
f 8/8/1 10/10/1 23/23/1 
f 23/23/1 22/22/1 8/8/1 
f 24/24/1 25/25/1 26/26/1 
f 26/26/1 27/27/1 24/24/1 
f 11/11/1 21/21/1 28/28/1 
f 28/28/1 29/29/1 11/11/1 
f 21/21/1 22/22/1 30/30/1 
f 30/30/1 28/28/1 21/21/1 
f 22/22/1 23/23/1 31/31/1 
f 31/31/1 30/30/1 22/22/1 
f 32/32/1 29/29/1 33/33/1 
f 34/34/1 32/32/1 33/33/1 
f 35/35/1 34/34/1 33/33/1 
f 36/36/1 35/35/1 33/33/1 
f 37/37/1 36/36/1 33/33/1 
f 38/38/1 37/37/1 33/33/1 
f 39/39/1 38/38/1 33/33/1 
f 40/40/1 39/39/1 33/33/1 
f 41/41/1 40/40/1 33/33/1 
f 42/42/1 41/41/1 33/33/1 
f 29/29/1 28/28/1 43/43/1 
f 43/43/1 33/33/1 29/29/1 
f 28/28/1 30/30/1 44/44/1 
f 44/44/1 43/43/1 28/28/1 
f 30/30/1 31/31/1 45/45/1 
f 45/45/1 44/44/1 30/30/1 
f 46/46/1 47/47/1 48/48/1 
f 48/48/1 49/49/1 46/46/1 
f 47/47/1 50/50/1 51/51/1 
f 51/51/1 48/48/1 47/47/1 
f 50/50/1 24/24/1 27/27/1 
f 27/27/1 51/51/1 50/50/1 
f 41/41/1 20/20/1 19/19/1 
f 41/41/1 19/19/1 52/52/1 
f 41/41/1 52/52/1 53/53/1 
f 41/41/1 53/53/1 54/54/1 
f 41/41/1 54/54/1 55/55/1 
f 41/41/1 55/55/1 56/56/1 
f 41/41/1 56/56/1 57/57/1 
f 40/40/1 41/41/1 57/57/1 
f 54/54/1 58/58/1 59/59/1 
f 59/59/1 55/55/1 54/54/1 
f 58/58/1 60/60/1 61/61/1 
f 61/61/1 59/59/1 58/58/1 
f 60/60/1 26/26/1 25/25/1 
f 25/25/1 61/61/1 60/60/1 
f 62/62/1 63/63/1 64/64/1 
f 64/64/1 65/65/1 62/62/1 
f 65/65/1 64/64/1 25/25/1 
f 25/25/1 24/24/1 65/65/1 
f 66/66/1 67/67/1 68/68/1 
f 68/68/1 69/69/1 66/66/1 
f 32/32/1 34/34/1 70/70/1 
f 71/71/1 32/32/1 70/70/1 
f 72/72/1 71/71/1 70/70/1 
f 72/72/1 70/70/1 73/73/1 
f 73/73/1 74/74/1 72/72/1 
f 74/74/1 73/73/1 47/47/1 
f 47/47/1 46/46/1 74/74/1 
f 75/75/1 76/76/1 77/77/1 
f 77/77/1 78/78/1 75/75/1 
f 78/78/1 77/77/1 49/49/1 
f 49/49/1 48/48/1 78/78/1 
f 34/34/1 35/35/1 79/79/1 
f 79/79/1 70/70/1 34/34/1 
f 70/70/1 79/79/1 80/80/1 
f 80/80/1 73/73/1 70/70/1 
f 73/73/1 80/80/1 50/50/1 
f 50/50/1 47/47/1 73/73/1 
f 81/81/1 75/75/1 78/78/1 
f 78/78/1 82/82/1 81/81/1 
f 35/35/1 36/36/1 62/62/1 
f 62/62/1 79/79/1 35/35/1 
f 67/67/1 81/81/1 82/82/1 
f 82/82/1 68/68/1 67/67/1 
f 19/19/1 18/18/2 83/83/1 
f 83/83/1 52/52/1 19/19/1 
f 52/52/1 83/83/1 84/84/1 
f 84/84/1 53/53/1 52/52/1 
f 53/53/1 84/84/1 58/58/1 
f 58/58/1 54/54/1 53/53/1 
f 85/85/1 56/56/1 55/55/1 
f 55/55/1 59/59/1 85/85/1 
f 18/18/2 17/17/1 86/86/1 
f 86/86/1 83/83/1 18/18/2 
f 83/83/1 86/86/1 87/87/1 
f 87/87/1 84/84/1 83/83/1 
f 84/84/1 87/87/1 60/60/1 
f 60/60/1 58/58/1 84/84/1 
f 38/38/1 39/39/1 88/88/1 
f 89/89/1 38/38/1 88/88/1 
f 90/90/1 89/89/1 88/88/1 
f 90/90/1 88/88/1 85/85/1 
f 85/85/1 91/91/1 90/90/1 
f 91/91/1 85/85/1 59/59/1 
f 59/59/1 61/61/1 91/91/1 
f 86/86/1 66/66/1 69/69/1 
f 69/69/1 87/87/1 86/86/1 
f 87/87/1 69/69/1 26/26/1 
f 26/26/1 60/60/1 87/87/1 
f 37/37/1 38/38/1 89/89/1 
f 37/37/1 89/89/1 92/92/1 
f 93/93/1 37/37/1 92/92/1 
f 63/63/1 90/90/1 91/91/1 
f 91/91/1 64/64/1 63/63/1 
f 64/64/1 91/91/1 61/61/1 
f 61/61/1 25/25/1 64/64/1 
f 94/94/3 95/95/3 96/96/3 
f 96/96/3 97/97/3 94/94/3 
f 95/95/3 98/98/3 99/99/3 
f 99/99/3 96/96/3 95/95/3 
f 98/98/3 100/100/3 101/101/3 
f 101/101/3 99/99/3 98/98/3 
f 100/100/3 102/102/3 103/103/3 
f 103/103/3 101/101/3 100/100/3 
f 97/97/3 96/96/3 104/104/3 
f 104/104/3 105/105/3 97/97/3 
f 96/96/3 99/99/3 106/106/3 
f 106/106/3 104/104/3 96/96/3 
f 99/99/3 101/101/3 107/107/3 
f 107/107/3 106/106/3 99/99/3 
f 101/101/3 103/103/3 108/108/3 
f 108/108/3 107/107/3 101/101/3 
f 105/105/3 104/104/3 109/109/3 
f 109/109/3 110/110/3 105/105/3 
f 104/104/3 106/106/3 111/111/3 
f 111/111/3 109/109/3 104/104/3 
f 106/106/3 107/107/3 112/112/3 
f 112/112/3 111/111/3 106/106/3 
f 107/107/3 108/108/3 113/113/3 
f 107/107/3 113/113/3 114/114/3 
f 107/107/3 114/114/3 115/115/3 
f 107/107/3 115/115/3 116/116/3 
f 107/107/3 116/116/3 117/117/3 
f 112/112/3 107/107/3 117/117/3 
f 110/110/3 109/109/3 118/118/3 
f 118/118/3 119/119/3 110/110/3 
f 109/109/3 111/111/3 120/120/3 
f 120/120/3 118/118/3 109/109/3 
f 111/111/3 112/112/3 121/121/3 
f 121/121/3 120/120/3 111/111/3 
f 122/122/3 123/123/3 124/124/3 
f 124/124/3 125/125/3 122/122/3 
f 113/113/3 126/126/3 127/127/3 
f 113/113/3 127/127/3 128/128/3 
f 113/113/3 128/128/3 129/129/3 
f 113/113/3 129/129/3 130/130/3 
f 113/113/3 130/130/3 131/131/3 
f 114/114/3 113/113/3 131/131/3 
f 129/129/3 122/122/3 125/125/3 
f 125/125/3 130/130/3 129/129/3 
f 121/121/3 112/112/3 117/117/3 
f 121/121/3 117/117/3 132/132/3 
f 121/121/3 132/132/3 133/133/3 
f 121/121/3 133/133/3 134/134/3 
f 121/121/3 134/134/3 135/135/3 
f 136/136/3 121/121/3 135/135/3 
f 133/133/3 124/124/3 123/123/3 
f 123/123/3 134/134/3 133/133/3 
f 137/137/3 138/138/3 139/139/3 
f 139/139/3 140/140/3 137/137/3 
f 116/116/3 115/115/3 141/141/3 
f 141/141/3 142/142/3 116/116/3 
f 127/127/3 137/137/3 140/140/3 
f 140/140/3 128/128/3 127/127/3 
f 141/141/3 115/115/3 114/114/3 
f 114/114/3 131/131/3 141/141/3 
f 141/141/3 131/131/3 130/130/3 
f 130/130/3 125/125/3 141/141/3 
f 117/117/3 116/116/3 142/142/3 
f 142/142/3 132/132/3 117/117/3 
f 138/138/3 136/136/3 135/135/3 
f 135/135/3 139/139/3 138/138/3 
f 139/139/3 135/135/3 134/134/3 
f 134/134/3 123/123/3 139/139/3 
f 143/143/1 144/144/1 71/71/1 
f 143/143/1 71/71/1 72/72/1 
f 143/143/1 72/72/1 74/74/1 
f 143/143/1 74/74/1 46/46/1 
f 143/143/1 46/46/1 49/49/1 
f 143/143/1 49/49/1 77/77/1 
f 143/143/1 77/77/1 76/76/1 
f 143/143/1 76/76/1 12/12/1 
f 32/32/1 71/71/1 144/144/1 
f 32/32/1 144/144/1 145/145/1 
f 29/29/1 32/32/1 145/145/1 
f 29/29/1 145/145/1 146/146/1 
f 11/11/1 29/29/1 146/146/1 
f 12/12/1 11/11/1 146/146/1 
f 143/143/1 12/12/1 146/146/1 
f 147/147/1 92/92/1 89/89/1 
f 147/147/1 89/89/1 90/90/1 
f 147/147/1 90/90/1 63/63/1 
f 147/147/1 63/63/1 148/148/1 
f 37/37/1 93/93/1 149/149/1 
f 36/36/1 37/37/1 149/149/1 
f 62/62/1 36/36/1 149/149/1 
f 62/62/1 149/149/1 150/150/1 
f 63/63/1 62/62/1 150/150/1 
f 148/148/1 63/63/1 150/150/1 
s off
f 119/151/3 118/152/3 151/153/3 
f 151/153/3 152/154/3 119/151/3 
f 118/152/3 120/155/3 153/156/3 
f 153/156/3 151/153/3 118/152/3 
f 120/155/3 121/157/3 154/158/3 
f 154/158/3 153/156/3 120/155/3 
f 127/159/3 126/160/3 155/161/3 
f 155/161/3 156/162/3 127/159/3 
f 137/163/3 127/159/3 156/162/3 
f 156/162/3 157/164/3 137/163/3 
f 138/165/3 137/163/3 157/164/3 
f 157/164/3 158/166/3 138/165/3 
f 136/167/3 138/165/3 158/166/3 
f 158/166/3 159/168/3 136/167/3 
f 121/157/3 136/167/3 159/168/3 
f 159/168/3 154/158/3 121/157/3 
f 42/169/1 33/170/1 160/171/1 
f 160/171/1 161/172/1 42/169/1 
f 33/170/1 43/173/1 162/174/1 
f 162/174/1 160/171/1 33/170/1 
f 43/173/1 44/175/1 163/176/1 
f 163/176/1 162/174/1 43/173/1 
f 44/175/1 45/177/1 164/178/1 
f 164/178/1 163/176/1 44/175/1 
# 246 faces

