# 3ds Max Wavefront OBJ Exporter v0.97b - (c)2007 guruware
# File Created: 02.11.2015 15:57:24

mtllib X3144_18A5_R.mtl

#
# object X3144_18A5_R_2_D_X3144_18A5_R
#

v  -35.3504 86.4829 68.6639
v  -41.8482 86.6665 68.5038
v  -36.1525 86.0462 68.5398
v  -35.1617 85.9974 68.5100
v  -38.6088 86.1355 68.4597
v  -42.6610 86.2611 68.2907
v  -48.3574 86.7950 68.3777
v  -48.3550 86.3269 68.2384
v  -54.7533 86.4293 68.0965
v  -54.7559 86.8603 68.2904
v  -60.9184 86.3805 68.1413
v  -60.9212 86.8545 68.2464
# 12 vertices

vn -0.0081 -0.2596 0.9657
vn -0.0375 -0.3435 0.9384
vn -0.0198 -0.2868 0.9578
vn 0.0141 -0.2972 0.9547
vn -0.0467 -0.3622 0.9309
vn -0.0295 -0.3652 0.9305
vn -0.0202 -0.3521 0.9357
vn -0.0190 -0.2854 0.9582
vn -0.0109 -0.3694 0.9292
vn -0.0045 -0.3473 0.9378
vn 0.0016 -0.3150 0.9491
vn -0.0068 -0.2165 0.9763
# 12 vertex normals

vt 0.5238 0.7074 0.0000
# 1 texture coords

g X3144_18A5_R_2_D_X3144_18A5_R
usemtl diffuse_holesSG
s 1
f 1/1/1 2/1/2 3/1/3 
f 3/1/3 4/1/4 1/1/1 
f 3/1/3 2/1/2 5/1/5 
f 5/1/5 2/1/2 6/1/6 
f 2/1/2 7/1/7 6/1/6 
f 6/1/6 7/1/7 8/1/8 
f 9/1/9 10/1/10 11/1/11 
f 10/1/10 12/1/12 11/1/11 
f 8/1/8 7/1/7 9/1/9 
f 7/1/7 10/1/10 9/1/9 
# 10 faces

#
# object X3144_18A5_R_X3144_18A5_R_1_DaS
#

v  25.7704 82.6364 71.0782
v  29.4048 81.2497 71.8132
v  29.5074 81.3245 71.1475
v  -6.3827 88.9402 66.4705
v  1.6808 88.1900 67.1446
v  1.9181 88.2754 66.5335
v  18.6642 84.9144 69.6901
v  18.2225 84.6169 70.4376
v  25.9674 82.6881 70.4647
v  18.9109 84.9552 69.0914
v  -6.7030 88.5753 67.2568
v  1.4002 87.8164 67.9287
v  10.1839 86.9152 68.2185
v  10.3535 87.0017 67.6021
v  -6.9892 87.7659 68.2347
v  1.1587 86.9827 68.9056
v  -7.1463 86.6673 69.1443
v  -6.1106 89.0211 65.8576
v  -16.0429 89.6491 65.2459
v  25.3775 82.3275 71.8471
v  17.6232 83.8584 71.3608
v  -54.2556 90.7528 64.3553
v  -54.1309 90.8441 63.6650
v  -60.4312 90.8573 63.4798
v  -41.1766 90.5245 64.7632
v  -40.9931 90.6080 64.0990
v  9.6629 84.4791 70.9316
v  9.6457 83.6282 71.4197
v  17.1570 81.8387 72.7516
v  -34.6147 90.3387 65.0136
v  -34.3990 90.3972 64.3343
v  -16.3077 89.5698 65.8699
v  -54.7544 87.7218 68.1081
v  -54.6935 88.4928 67.5277
v  -60.8699 88.4917 67.4701
v  1.0384 85.8471 69.8170
v  0.9939 85.0370 70.2906
v  9.7535 85.6750 69.9973
v  9.9608 86.5367 69.0094
v  -17.0739 87.3277 68.6116
v  -17.1464 86.5487 69.1006
v  -7.2114 85.8784 69.6181
v  -35.2727 88.1159 67.9411
v  -35.3488 87.3231 68.4538
v  -60.7749 89.5756 66.3548
v  -16.6217 89.2062 66.6767
v  -41.8460 87.5297 68.3142
v  -54.4157 90.3671 65.2928
v  -60.5278 90.7830 64.2108
v  -41.7729 88.2973 67.7682
v  29.1783 80.8722 72.6231
v  -34.8716 89.9699 65.8760
v  24.4583 80.3962 73.7108
v  28.6775 78.8271 74.5623
v  28.8686 80.0265 73.6178
v  24.3443 79.5315 74.2049
v  28.6210 77.9308 75.0468
v  24.8210 81.5609 72.7924
v  -16.9080 88.4079 67.6786
v  -35.1155 89.1796 66.9423
v  -41.4049 90.1517 65.6492
v  17.2550 82.6987 72.2643
v  -41.6252 89.3602 66.7419
v  -60.6498 90.3880 65.1756
v  -54.5763 89.5650 66.4426
v  -60.9208 87.6932 68.0501
# 66 vertices

vn 0.2442 0.9085 0.3391
vn 0.2868 0.8956 0.3401
vn 0.3245 0.9327 0.1575
vn 0.0498 0.9466 0.3187
vn 0.0788 0.9385 0.3360
vn 0.1052 0.9785 0.1775
vn 0.1947 0.9244 0.3279
vn 0.1141 0.8084 0.5774
vn 0.2905 0.9412 0.1726
vn 0.2387 0.9572 0.1635
vn 0.0246 0.8300 0.5572
vn 0.0401 0.8200 0.5710
vn 0.1279 0.9315 0.3405
vn 0.1624 0.9701 0.1802
vn 0.0061 0.7037 0.7104
vn 0.0108 0.6926 0.7212
vn -0.0068 0.5925 0.8056
vn 0.0666 0.9849 0.1595
vn 0.0427 0.9887 0.1438
vn 0.1556 0.7978 0.5825
vn 0.0488 0.6793 0.7322
vn 0.0044 0.9586 0.2846
vn 0.0089 0.9911 0.1326
vn -0.0027 0.9897 0.1432
vn 0.0110 0.9603 0.2787
vn 0.0175 0.9915 0.1286
vn -0.0122 0.5726 0.8198
vn -0.0340 0.4981 0.8665
vn -0.0250 0.4952 0.8684
vn 0.0251 0.9584 0.2843
vn 0.0354 0.9946 0.0976
vn 0.0314 0.9541 0.2978
vn -0.0052 0.6012 0.7991
vn -0.0047 0.6704 0.7420
vn -0.0084 0.6709 0.7415
vn -0.0109 0.5815 0.8135
vn -0.0251 0.5056 0.8624
vn 0.0212 0.6827 0.7304
vn 0.0687 0.8140 0.5768
vn -0.0036 0.6092 0.7930
vn -0.0081 0.5325 0.8464
vn -0.0148 0.5159 0.8565
vn -0.0020 0.6312 0.7756
vn -0.0066 0.5444 0.8388
vn -0.0094 0.7713 0.6364
vn 0.0152 0.8421 0.5391
vn -0.0040 0.5806 0.8142
vn -0.0009 0.8681 0.4963
vn -0.0055 0.9640 0.2657
vn -0.0038 0.6530 0.7573
vn 0.1908 0.7830 0.5920
vn 0.0119 0.8526 0.5224
vn 0.0261 0.5655 0.8243
vn 0.0510 0.5591 0.8276
vn 0.1128 0.6678 0.7358
vn -0.0047 0.4956 0.8685
vn 0.0091 0.4770 0.8789
vn 0.0799 0.6720 0.7362
vn 0.0037 0.7190 0.6950
vn 0.0041 0.7420 0.6704
vn 0.0026 0.8639 0.5037
vn 0.0025 0.5682 0.8229
vn -0.0021 0.7544 0.6564
vn -0.0088 0.8720 0.4893
vn -0.0037 0.7657 0.6432
vn -0.0066 0.5879 0.8089
# 66 vertex normals

vt 0.5481 0.2860 0.0000
vt 0.5551 0.2837 0.0000
vt 0.5553 0.2850 0.0000
vt 0.4858 0.2983 0.0000
vt 0.5014 0.2968 0.0000
vt 0.5019 0.2980 0.0000
vt 0.5343 0.2904 0.0000
vt 0.5335 0.2888 0.0000
vt 0.5485 0.2872 0.0000
vt 0.5348 0.2915 0.0000
vt 0.4852 0.2967 0.0000
vt 0.5009 0.2951 0.0000
vt 0.5179 0.2943 0.0000
vt 0.5182 0.2955 0.0000
vt 0.4847 0.2942 0.0000
vt 0.5004 0.2927 0.0000
vt 0.4843 0.2914 0.0000
vt 0.4864 0.2995 0.0000
vt 0.4671 0.3009 0.0000
vt 0.5473 0.2845 0.0000
vt 0.5323 0.2866 0.0000
vt 0.3931 0.3026 0.0000
vt 0.3934 0.3040 0.0000
vt 0.3812 0.3043 0.0000
vt 0.4185 0.3019 0.0000
vt 0.4188 0.3032 0.0000
vt 0.5169 0.2872 0.0000
vt 0.5169 0.2855 0.0000
vt 0.5314 0.2821 0.0000
vt 0.4312 0.3015 0.0000
vt 0.4316 0.3028 0.0000
vt 0.4666 0.2997 0.0000
vt 0.3922 0.2935 0.0000
vt 0.3923 0.2950 0.0000
vt 0.3803 0.2950 0.0000
vt 0.5002 0.2898 0.0000
vt 0.5001 0.2883 0.0000
vt 0.5171 0.2901 0.0000
vt 0.5175 0.2926 0.0000
vt 0.4651 0.2927 0.0000
vt 0.4650 0.2912 0.0000
vt 0.4842 0.2899 0.0000
vt 0.4299 0.2942 0.0000
vt 0.4297 0.2927 0.0000
vt 0.3805 0.2980 0.0000
vt 0.4660 0.2980 0.0000
vt 0.4172 0.2931 0.0000
vt 0.3928 0.3006 0.0000
vt 0.3810 0.3029 0.0000
vt 0.4173 0.2946 0.0000
vt 0.5547 0.2819 0.0000
vt 0.4307 0.2996 0.0000
vt 0.5455 0.2793 0.0000
vt 0.5537 0.2763 0.0000
vt 0.5541 0.2792 0.0000
vt 0.5453 0.2776 0.0000
vt 0.5536 0.2745 0.0000
vt 0.5462 0.2821 0.0000
vt 0.4654 0.2955 0.0000
vt 0.4302 0.2971 0.0000
vt 0.4180 0.3001 0.0000
vt 0.5316 0.2837 0.0000
vt 0.4176 0.2975 0.0000
vt 0.3807 0.3008 0.0000
vt 0.3925 0.2979 0.0000
vt 0.3802 0.2934 0.0000
# 66 texture coords

g X3144_18A5_R_X3144_18A5_R_1_DaS
usemtl paint_whiteSG
s 1
f 13/2/13 14/3/14 15/4/15 
f 16/5/16 17/6/17 18/7/18 
f 13/2/13 19/8/19 20/9/20 
f 13/2/13 21/10/21 22/11/22 
f 16/5/16 23/12/23 24/13/24 
f 17/6/17 25/14/25 26/15/26 
f 27/16/27 28/17/28 24/13/24 
f 19/8/19 22/11/22 26/15/26 
f 28/17/28 27/16/27 29/18/29 
f 16/5/16 30/19/30 31/20/31 
f 32/21/32 20/9/20 33/22/33 
f 34/23/34 35/24/35 36/25/36 
f 37/26/37 38/27/38 35/24/35 
f 39/28/39 40/29/40 41/30/41 
f 42/31/42 43/32/43 38/27/38 
f 44/33/44 31/20/31 43/32/43 
f 45/34/45 46/35/46 47/36/47 
f 48/37/48 49/38/49 40/29/40 
f 48/37/48 39/28/39 50/39/50 
f 24/13/24 51/40/51 25/14/25 
f 33/22/33 20/9/20 51/40/51 
f 19/8/19 25/14/25 51/40/51 
f 52/41/52 53/42/53 54/43/54 
f 55/44/55 56/45/56 53/42/53 
f 28/17/28 50/39/50 51/40/51 
f 33/22/33 50/39/50 39/28/39 
f 57/46/57 47/36/47 46/35/46 
f 27/16/27 23/12/23 58/47/58 
f 44/33/44 58/47/58 23/12/23 
f 46/35/46 45/34/45 59/48/59 
f 60/49/60 34/23/34 61/50/61 
f 62/51/62 59/48/59 56/45/56 
f 13/2/13 32/21/32 63/52/63 
f 42/31/42 64/53/64 58/47/58 
f 65/54/65 66/55/66 67/56/67 
f 68/57/68 69/58/69 66/55/66 
f 70/59/70 67/56/67 63/52/63 
f 71/60/71 58/47/58 64/53/64 
f 41/30/41 68/57/68 65/54/65 
f 72/61/72 64/53/64 73/62/73 
f 70/59/70 33/22/33 74/63/74 
f 73/62/73 37/26/37 34/23/34 
f 71/60/71 52/41/52 29/18/29 
f 75/64/75 73/62/73 60/49/60 
f 54/43/54 49/38/49 48/37/48 
f 42/31/42 37/26/37 73/62/73 
f 72/61/72 55/44/55 52/41/52 
f 76/65/76 57/46/57 77/66/77 
f 75/64/75 62/51/62 55/44/55 
f 62/51/62 75/64/75 77/66/77 
f 21/10/21 13/2/13 15/4/15 
f 30/19/30 16/5/16 18/7/18 
f 32/21/32 13/2/13 20/9/20 
f 19/8/19 13/2/13 22/11/22 
f 17/6/17 16/5/16 24/13/24 
f 18/7/18 17/6/17 26/15/26 
f 23/12/23 27/16/27 24/13/24 
f 25/14/25 19/8/19 26/15/26 
f 48/37/48 28/17/28 29/18/29 
f 44/33/44 16/5/16 31/20/31 
f 70/59/70 32/21/32 33/22/33 
f 61/50/61 34/23/34 36/25/36 
f 34/23/34 37/26/37 35/24/35 
f 74/63/74 39/28/39 41/30/41 
f 37/26/37 42/31/42 38/27/38 
f 42/31/42 44/33/44 43/32/43 
f 78/67/78 45/34/45 47/36/47 
f 39/28/39 48/37/48 40/29/40 
f 28/17/28 48/37/48 50/39/50 
f 17/6/17 24/13/24 25/14/25 
f 50/39/50 33/22/33 51/40/51 
f 20/9/20 19/8/19 51/40/51 
f 29/18/29 52/41/52 54/43/54 
f 52/41/52 55/44/55 53/42/53 
f 24/13/24 28/17/28 51/40/51 
f 74/63/74 33/22/33 39/28/39 
f 77/66/77 57/46/57 46/35/46 
f 71/60/71 27/16/27 58/47/58 
f 16/5/16 44/33/44 23/12/23 
f 62/51/62 46/35/46 59/48/59 
f 76/65/76 60/49/60 61/50/61 
f 55/44/55 62/51/62 56/45/56 
f 14/3/14 13/2/13 63/52/63 
f 44/33/44 42/31/42 58/47/58 
f 70/59/70 65/54/65 67/56/67 
f 65/54/65 68/57/68 66/55/66 
f 32/21/32 70/59/70 63/52/63 
f 72/61/72 71/60/71 64/53/64 
f 74/63/74 41/30/41 65/54/65 
f 75/64/75 72/61/72 73/62/73 
f 65/54/65 70/59/70 74/63/74 
f 60/49/60 73/62/73 34/23/34 
f 27/16/27 71/60/71 29/18/29 
f 77/66/77 75/64/75 60/49/60 
f 29/18/29 54/43/54 48/37/48 
f 64/53/64 42/31/42 73/62/73 
f 71/60/71 72/61/72 52/41/52 
f 60/49/60 76/65/76 77/66/77 
f 72/61/72 75/64/75 55/44/55 
f 46/35/46 62/51/62 77/66/77 
# 100 faces

#
# object X3144_18A5_R_X3144_18A5_R_1_DaS_E
#

v  28.0664 77.5764 74.8526
v  28.6210 77.9308 75.0468
v  24.3443 79.5315 74.2049
v  25.9156 82.4195 70.2942
v  25.9674 82.6881 70.4647
v  29.5074 81.3245 71.1475
v  -7.3835 85.5811 69.4116
v  -7.2114 85.8784 69.6181
v  -17.1464 86.5487 69.1006
v  -6.0912 88.7436 65.6933
v  -6.1106 89.0211 65.8576
v  1.9181 88.2754 66.5335
v  0.7415 84.6556 70.0808
v  0.9939 85.0370 70.2906
v  18.8827 84.6799 68.9257
v  18.9109 84.9552 69.0914
v  9.3086 83.2521 71.2056
v  9.6457 83.6282 71.4197
v  1.9244 88.0002 66.3659
v  10.3535 87.0017 67.6021
v  16.7370 81.4701 72.5322
v  17.1570 81.8387 72.7516
v  10.3351 86.7287 67.4335
v  -35.3488 87.3231 68.4538
v  -35.2356 86.9390 68.2859
v  -17.2187 86.1616 68.8971
v  -16.0199 89.3698 65.0848
v  -16.0429 89.6491 65.2459
v  -54.1309 90.8441 63.6650
v  -54.1167 90.5628 63.5084
v  -60.4214 90.5991 63.3495
v  23.8362 79.1531 73.9918
v  -40.9931 90.6080 64.0990
v  -41.8460 87.5297 68.3142
v  -54.7544 87.7218 68.1081
v  -54.4429 87.2215 68.1310
v  -60.9208 87.6932 68.0501
v  -60.5444 87.2134 68.0927
v  -40.9749 90.3266 63.9425
v  -34.3990 90.3972 64.3343
v  -34.3847 90.1388 64.2039
v  -41.6669 87.1185 68.1329
v  29.4406 81.0856 70.9987
v  -60.4312 90.8573 63.4798
# 44 vertices

vn -0.2441 -0.1473 0.9585
vn -0.2431 -0.1451 0.9591
vn -0.2582 -0.1847 0.9483
vn 0.3232 0.4611 -0.8264
vn 0.3229 0.4619 -0.8261
vn 0.3309 0.4318 -0.8391
vn -0.0979 -0.5277 0.8438
vn -0.1104 -0.5213 0.8462
vn -0.0632 -0.4561 0.8877
vn 0.1029 0.5124 -0.8526
vn 0.1010 0.5122 -0.8529
vn 0.1501 0.5166 -0.8429
vn -0.1401 -0.4059 0.9031
vn -0.1585 -0.3929 0.9058
vn 0.2869 0.4722 -0.8335
vn 0.2853 0.4728 -0.8337
vn -0.1983 -0.3449 0.9174
vn -0.2192 -0.3263 0.9195
vn 0.1529 0.5164 -0.8426
vn 0.2225 0.5015 -0.8360
vn -0.2453 -0.2747 0.9297
vn -0.2594 -0.2568 0.9310
vn 0.2239 0.5010 -0.8360
vn -0.0395 -0.4105 0.9110
vn -0.0423 -0.4107 0.9108
vn -0.0611 -0.4551 0.8883
vn 0.0742 0.5029 -0.8612
vn 0.0730 0.5025 -0.8615
vn 0.0311 0.4866 -0.8731
vn 0.0314 0.4871 -0.8728
vn 0.0271 0.4524 -0.8914
vn -0.2564 -0.1913 0.9475
vn 0.0420 0.4878 -0.8720
vn -0.0145 -0.4035 0.9148
vn -0.0093 0.0411 0.9991
vn -0.0124 0.0331 0.9994
vn -0.0098 0.0809 0.9967
vn -0.0096 0.0794 0.9968
vn 0.0423 0.4873 -0.8722
vn 0.0551 0.4527 -0.8899
vn 0.0557 0.4525 -0.8900
vn -0.0217 -0.4111 0.9114
vn 0.3307 0.4303 -0.8399
vn 0.0272 0.4512 -0.8920
# 44 vertex normals

vt 0.5525 0.2738 0.0000
vt 0.5536 0.2745 0.0000
vt 0.5453 0.2776 0.0000
vt 0.5484 0.2877 0.0000
vt 0.5485 0.2872 0.0000
vt 0.5553 0.2850 0.0000
vt 0.4839 0.2893 0.0000
vt 0.4842 0.2899 0.0000
vt 0.4650 0.2912 0.0000
vt 0.4864 0.3001 0.0000
vt 0.4864 0.2995 0.0000
vt 0.5019 0.2980 0.0000
vt 0.4996 0.2875 0.0000
vt 0.5001 0.2883 0.0000
vt 0.5348 0.2921 0.0000
vt 0.5348 0.2915 0.0000
vt 0.5162 0.2848 0.0000
vt 0.5169 0.2855 0.0000
vt 0.5019 0.2986 0.0000
vt 0.5182 0.2955 0.0000
vt 0.5306 0.2814 0.0000
vt 0.5314 0.2821 0.0000
vt 0.5182 0.2961 0.0000
vt 0.4297 0.2927 0.0000
vt 0.4300 0.2920 0.0000
vt 0.4648 0.2905 0.0000
vt 0.4672 0.3015 0.0000
vt 0.4671 0.3009 0.0000
vt 0.3934 0.3040 0.0000
vt 0.3934 0.3046 0.0000
vt 0.3812 0.3049 0.0000
vt 0.5443 0.2769 0.0000
vt 0.4188 0.3032 0.0000
vt 0.4172 0.2931 0.0000
vt 0.3922 0.2935 0.0000
vt 0.3928 0.2925 0.0000
vt 0.3802 0.2934 0.0000
vt 0.3810 0.2927 0.0000
vt 0.4188 0.3038 0.0000
vt 0.4316 0.3028 0.0000
vt 0.4316 0.3033 0.0000
vt 0.4175 0.2923 0.0000
vt 0.5552 0.2856 0.0000
vt 0.3812 0.3043 0.0000
# 44 texture coords

g X3144_18A5_R_X3144_18A5_R_1_DaS_E
usemtl paint_whiteSG
s 13
f 79/68/79 80/69/80 81/70/81 
s 14
f 82/71/82 83/72/83 84/73/84 
s 13
f 85/74/85 86/75/86 87/76/87 
s 14
f 88/77/88 89/78/89 90/79/90 
s 13
f 91/80/91 92/81/92 86/75/86 
s 14
f 93/82/93 94/83/94 83/72/83 
s 13
f 95/84/95 96/85/96 92/81/92 
s 14
f 97/86/97 90/79/90 98/87/98 
s 13
f 99/88/99 100/89/100 96/85/96 
s 14
f 101/90/101 98/87/98 94/83/94 
s 13
f 102/91/102 103/92/103 104/93/104 
s 14
f 105/94/105 106/95/106 89/78/89 
f 107/96/107 108/97/108 109/98/109 
s 13
f 110/99/110 81/70/81 100/89/100 
s 14
f 108/97/108 107/96/107 111/100/111 
s 13
f 112/101/112 113/102/113 114/103/114 
f 113/102/113 115/104/115 116/105/116 
s 14
f 117/106/117 111/100/111 118/107/118 
f 106/95/106 105/94/105 119/108/119 
s 13
f 102/91/102 112/101/112 120/109/120 
f 110/99/110 79/68/79 81/70/81 
s 14
f 121/110/121 82/71/82 84/73/84 
s 13
f 104/93/104 85/74/85 87/76/87 
s 14
f 97/86/97 88/77/88 90/79/90 
s 13
f 85/74/85 91/80/91 86/75/86 
s 14
f 82/71/82 93/82/93 83/72/83 
s 13
f 91/80/91 95/84/95 92/81/92 
s 14
f 101/90/101 97/86/97 98/87/98 
s 13
f 95/84/95 99/88/99 96/85/96 
s 14
f 93/82/93 101/90/101 94/83/94 
s 13
f 87/76/87 102/91/102 104/93/104 
s 14
f 88/77/88 105/94/105 89/78/89 
f 122/111/122 107/96/107 109/98/109 
s 13
f 99/88/99 110/99/110 100/89/100 
s 14
f 117/106/117 108/97/108 111/100/111 
s 13
f 120/109/120 112/101/112 114/103/114 
f 114/103/114 113/102/113 116/105/116 
s 14
f 119/108/119 117/106/117 118/107/118 
f 118/107/118 106/95/106 119/108/119 
s 13
f 103/92/103 102/91/102 120/109/120 
# 40 faces

