# 3ds Max Wavefront OBJ Exporter v0.97b - (c)2007 guruware
# File Created: 13.11.2015 17:07:35

mtllib H030_184Q_R.mtl

#
# object H030_184Q_R_2_DTaSI_H030_184Q_R
#

v  124.9489 31.5670 91.3193
v  124.1387 33.4768 90.8495
v  124.0755 30.8110 91.6596
v  100.3901 45.3355 88.7122
v  106.9871 39.3564 90.0782
v  107.2015 42.0965 89.3926
v  118.4453 33.8765 91.1144
v  118.4594 36.2884 90.4603
v  88.3322 40.6163 90.2561
v  88.6710 35.6056 91.6368
v  93.8413 35.3187 91.5780
v  93.5701 40.1222 90.2439
v  87.9001 46.7550 88.6443
v  87.5668 51.4898 87.3223
v  92.9285 48.9480 87.9087
v  106.6342 34.5720 91.3445
v  112.6181 34.2135 91.2133
v  112.9675 39.0911 89.9792
v  124.9713 32.6835 90.9884
v  118.4291 31.1030 91.8667
v  93.1836 46.1545 88.6730
v  93.9934 32.6251 92.3261
v  100.6313 32.2390 92.2265
v  100.5632 34.9310 91.4665
v  100.4653 39.7799 90.1478
v  112.4515 31.4911 91.9960
v  106.4570 31.8802 92.1257
v  88.8543 32.8947 92.3838
# 28 vertices

vn 0.1216 0.2855 0.9506
vn 0.0584 0.2774 0.9590
vn 0.0553 0.2891 0.9557
vn 0.0249 0.2518 0.9674
vn 0.0259 0.2500 0.9679
vn 0.0208 0.2412 0.9703
vn 0.0471 0.2612 0.9641
vn 0.0433 0.2534 0.9664
vn 0.0265 0.2605 0.9651
vn 0.0258 0.2672 0.9633
vn 0.0280 0.2677 0.9631
vn 0.0258 0.2602 0.9652
vn 0.0241 0.2613 0.9650
vn 0.0229 0.2704 0.9625
vn 0.0242 0.2676 0.9632
vn 0.0326 0.2612 0.9647
vn 0.0368 0.2547 0.9663
vn 0.0342 0.2450 0.9689
vn 0.1081 0.2805 0.9537
vn 0.0467 0.2670 0.9626
vn 0.0240 0.2575 0.9660
vn 0.0287 0.2695 0.9626
vn 0.0326 0.2729 0.9615
vn 0.0329 0.2661 0.9634
vn 0.0281 0.2559 0.9663
vn 0.0382 0.2743 0.9609
vn 0.0362 0.2764 0.9604
vn 0.0255 0.2677 0.9632
# 28 vertex normals

vt 0.9578 0.0598 0.0000
vt 0.9550 0.0659 0.0000
vt 0.9552 0.0571 0.0000
vt 0.8781 0.1004 0.0000
vt 0.8999 0.0820 0.0000
vt 0.9002 0.0909 0.0000
vt 0.9369 0.0660 0.0000
vt 0.9366 0.0739 0.0000
vt 0.8406 0.0830 0.0000
vt 0.8424 0.0667 0.0000
vt 0.8588 0.0666 0.0000
vt 0.8573 0.0823 0.0000
vt 0.8384 0.1030 0.0000
vt 0.8367 0.1185 0.0000
vt 0.8540 0.1110 0.0000
vt 0.8994 0.0663 0.0000
vt 0.9184 0.0662 0.0000
vt 0.9188 0.0821 0.0000
vt 0.9577 0.0635 0.0000
vt 0.9372 0.0569 0.0000
vt 0.8552 0.1019 0.0000
vt 0.8597 0.0577 0.0000
vt 0.8807 0.0576 0.0000
vt 0.8802 0.0664 0.0000
vt 0.8792 0.0823 0.0000
vt 0.9183 0.0572 0.0000
vt 0.8992 0.0574 0.0000
vt 0.8434 0.0578 0.0000
# 28 texture coords

g H030_184Q_R_2_DTaSI_H030_184Q_R
usemtl windowglass_1SG
s 1
f 1/1/1 2/2/2 3/3/3 
f 4/4/4 5/5/5 6/6/6 
f 7/7/7 2/2/2 8/8/8 
f 9/9/9 10/10/10 11/11/11 
f 12/12/12 13/13/13 9/9/9 
f 14/14/14 13/13/13 15/15/15 
f 16/16/16 17/17/17 18/18/18 
f 19/19/19 2/2/2 1/1/1 
f 3/3/3 2/2/2 20/20/20 
f 15/15/15 13/13/13 21/21/21 
f 22/22/22 23/23/23 24/24/24 
f 12/12/12 21/21/21 13/13/13 
f 9/9/9 11/11/11 12/12/12 
f 15/15/15 21/21/21 4/4/4 
f 4/4/4 21/21/21 12/12/12 
f 12/12/12 25/25/25 4/4/4 
f 24/24/24 25/25/25 11/11/11 
f 11/11/11 25/25/25 12/12/12 
f 6/6/6 5/5/5 18/18/18 
f 18/18/18 5/5/5 16/16/16 
f 17/17/17 8/8/8 18/18/18 
f 7/7/7 8/8/8 17/17/17 
f 26/26/26 20/20/20 17/17/17 
f 25/25/25 5/5/5 4/4/4 
f 16/16/16 5/5/5 25/25/25 
f 24/24/24 16/16/16 25/25/25 
f 20/20/20 2/2/2 7/7/7 
f 20/20/20 7/7/7 17/17/17 
f 27/27/27 26/26/26 16/16/16 
f 16/16/16 26/26/26 17/17/17 
f 27/27/27 16/16/16 23/23/23 
f 23/23/23 16/16/16 24/24/24 
f 22/22/22 24/24/24 11/11/11 
f 10/10/10 28/28/28 11/11/11 
f 11/11/11 28/28/28 22/22/22 
# 35 faces

#
# object H030_184Q_R_H030_184Q_R_1_D
#

v  100.3922 45.3293 88.7124
v  100.4113 45.5303 89.4769
v  92.9492 49.1514 88.6715
v  92.9305 48.9418 87.9093
v  87.5849 51.7037 88.0833
v  118.4615 36.2821 90.4596
v  118.4988 36.4884 91.2221
v  112.9925 39.2773 90.7454
v  106.9599 31.8430 92.0882
v  106.9879 32.0602 92.8759
v  118.4654 31.3065 92.6272
v  107.9080 30.6808 92.9250
v  107.9254 30.8819 93.2720
v  124.7575 32.8667 90.9559
v  124.8072 33.0814 91.7154
v  124.4045 33.4798 91.6439
v  124.9566 31.8390 91.2356
v  125.0063 32.0536 91.9950
v  125.0170 32.5886 91.8365
v  112.9695 39.0848 89.9788
v  107.2236 42.2821 90.1593
v  124.2755 31.0233 91.5630
v  124.3249 31.2377 92.3225
v  124.7681 31.5787 92.1662
v  107.2036 42.0902 89.3925
v  118.4312 31.0965 91.8430
v  123.7327 31.0393 92.4324
v  123.9168 33.5813 90.8330
v  123.9662 33.7955 91.5926
v  124.3549 33.2651 90.8844
v  87.5688 51.4837 87.3233
v  124.9674 32.3739 91.0771
v  124.7183 31.3640 91.4069
v  123.6830 30.8249 91.6517
v  113.0569 39.4234 90.8415
v  118.5615 36.6352 91.3181
v  117.7744 40.3280 90.5388
v  87.7168 51.8121 88.1868
v  93.0110 49.2987 88.7675
v  94.8855 51.6515 88.0631
v  128.9985 31.0572 92.2210
v  129.1614 32.0878 91.8956
v  125.1410 32.0560 92.1267
v  125.1528 32.6450 91.9540
v  128.8632 33.3225 91.6370
v  124.9225 33.1861 91.8209
v  118.4640 31.2222 92.7929
v  118.3692 30.3568 93.1513
v  123.1102 30.0250 93.0308
v  126.3935 29.8000 92.9441
v  127.1900 29.8111 92.8771
v  123.7574 30.9445 92.5947
v  102.1579 48.1295 88.8857
v  100.4730 45.6776 89.5729
v  107.2869 42.4287 90.2554
v  124.8782 31.5312 92.3118
v  128.2826 30.1882 92.5746
v  121.1698 38.5126 90.8528
v  128.1013 34.3595 91.4705
v  127.2144 35.0614 91.3539
v  124.4939 33.6098 91.7435
v  124.3954 31.1586 92.4775
v  124.2027 36.8003 91.1191
v  124.0381 33.9379 91.6895
v  125.1982 36.2256 91.1968
v  113.6904 42.4204 90.1347
v  107.2689 31.9640 93.0299
v  87.4800 55.1637 87.2148
v  108.5931 44.9632 89.5978
v  107.9995 31.0501 93.3480
v  127.2141 29.6510 92.7820
v  128.3613 30.0489 92.4725
v  126.3883 29.6390 92.8502
v  123.0989 29.8649 92.9387
v  118.3570 30.1905 93.0663
v  87.3278 55.3487 87.0348
v  94.9401 51.7321 87.9042
v  102.2133 48.2097 88.7268
v  108.6490 45.0432 89.4390
v  113.7471 42.5000 89.9760
v  117.8326 40.4069 90.3802
v  121.2301 38.5904 90.6944
v  124.2646 36.8772 90.9609
v  125.0896 36.4008 91.0254
v  125.4312 36.2036 91.0520
v  127.2853 35.1331 91.1968
v  128.1937 34.4145 91.3171
v  128.9816 33.3429 91.4920
v  129.2919 32.0591 91.7631
v  129.1199 30.9712 92.1038
# 90 vertices

vn -0.4407 -0.8653 0.2389
vn -0.4408 -0.8654 0.2383
vn -0.4414 -0.8624 0.2476
vn -0.4413 -0.8623 0.2483
vn -0.4369 -0.8618 0.2578
vn -0.4489 -0.8571 0.2528
vn -0.4487 -0.8567 0.2544
vn -0.4631 -0.8560 0.2299
vn 0.0574 0.9620 -0.2670
vn 0.0574 0.9619 -0.2673
vn 0.0516 0.9641 -0.2606
vn -0.8067 -0.5287 0.2641
vn -0.7886 -0.5140 0.3377
vn -0.8198 -0.5400 0.1906
vn -0.8281 -0.5229 0.2020
vn -0.8258 -0.5263 0.2028
vn -0.6473 -0.7214 0.2460
vn -0.9720 0.2351 -0.0029
vn -0.9705 0.2412 -0.0047
vn -0.9810 -0.1600 0.1094
vn -0.4632 -0.8562 0.2288
vn -0.4518 -0.8625 0.2278
vn -0.4921 0.8461 -0.2048
vn -0.4898 0.8469 -0.2072
vn -0.7815 0.6119 -0.1218
vn -0.4518 -0.8625 0.2281
vn -0.0004 0.9644 -0.2645
vn -0.4528 -0.8504 0.2680
vn -0.4522 -0.8503 0.2692
vn -0.6491 -0.7199 0.2459
vn -0.4367 -0.8616 0.2586
vn -0.8215 -0.5416 0.1785
vn -0.9809 -0.1605 0.1095
vn -0.7890 0.6028 -0.1187
vn -0.0002 0.9643 -0.2647
vn 0.0197 0.2223 0.9748
vn 0.0260 0.2062 0.9782
vn 0.0217 0.2138 0.9766
vn 0.0228 0.2784 0.9602
vn 0.0244 0.2688 0.9629
vn 0.0235 0.2691 0.9628
vn 0.0571 0.3100 0.9490
vn 0.0486 0.2555 0.9656
vn 0.0529 0.2991 0.9528
vn 0.0442 0.2572 0.9653
vn 0.0423 0.2064 0.9776
vn 0.0341 0.2207 0.9747
vn 0.0466 0.3788 0.9243
vn 0.0460 0.3772 0.9250
vn 0.0539 0.3955 0.9169
vn 0.0639 0.4231 0.9038
vn 0.0878 0.4474 0.8900
vn 0.0528 0.3952 0.9171
vn 0.0193 0.2557 0.9666
vn 0.0211 0.2582 0.9659
vn 0.0173 0.2424 0.9700
vn 0.0557 0.3259 0.9438
vn 0.0674 0.3534 0.9330
vn 0.0280 0.2020 0.9790
vn 0.0371 0.1915 0.9808
vn 0.0341 0.1990 0.9794
vn 0.0329 0.1991 0.9794
vn 0.0553 0.3693 0.9277
vn 0.0252 0.1940 0.9807
vn 0.0287 0.1970 0.9800
vn 0.0356 0.1945 0.9803
vn 0.0188 0.2282 0.9734
vn 0.0419 0.3601 0.9320
vn 0.0228 0.2800 0.9597
vn 0.0155 0.2436 0.9698
vn 0.0416 0.3579 0.9328
vn 0.2553 -0.4633 0.8486
vn 0.2670 -0.4621 0.8457
vn 0.5129 -0.3014 0.8038
vn 0.0059 -0.5042 0.8636
vn 0.0069 -0.5042 0.8636
vn -0.0121 -0.4983 0.8669
vn -0.0120 -0.4976 0.8673
vn -0.0116 -0.4547 0.8906
vn -0.0115 -0.4540 0.8909
vn 0.0353 0.8659 0.4990
vn 0.0336 0.8654 0.5000
vn 0.0667 0.8889 0.4532
vn -0.2808 0.7967 0.5351
vn -0.2880 0.7944 0.5348
vn -0.4942 0.6424 0.5858
vn -0.5028 0.6355 0.5860
vn -0.6514 0.3718 0.6614
vn -0.6546 0.3655 0.6618
vn -0.6683 0.0668 0.7409
vn -0.6683 0.0648 0.7410
vn -0.5508 -0.2083 0.8082
vn -0.5515 -0.2066 0.8082
vn -0.4202 -0.3525 0.8361
vn -0.4208 -0.3512 0.8364
vn -0.2836 -0.4374 0.8533
vn -0.2840 -0.4372 0.8534
vn -0.2841 -0.4367 0.8536
vn -0.2840 -0.4367 0.8536
vn -0.3006 -0.4286 0.8520
vn -0.2993 -0.4294 0.8520
vn -0.2963 -0.4311 0.8523
vn -0.2992 -0.4297 0.8520
vn -0.2992 -0.4298 0.8519
vn -0.3019 -0.4396 0.8459
vn -0.3020 -0.4398 0.8458
vn -0.6649 0.1629 0.7290
vn -0.6644 0.1630 0.7294
vn -0.6855 0.1577 0.7108
vn 0.3226 0.7946 0.5144
vn 0.3227 0.7947 0.5141
vn 0.3090 0.7821 0.5411
vn 0.3288 0.7919 0.5146
vn 0.3348 0.7890 0.5152
vn 0.3432 0.7847 0.5162
vn 0.3566 0.7777 0.5176
vn 0.3567 0.7777 0.5177
vn 0.3744 0.7680 0.5195
vn 0.3746 0.7679 0.5196
vn 0.3873 0.7606 0.5210
vn 0.3874 0.7606 0.5210
vn 0.3956 0.7557 0.5219
vn 0.3956 0.7558 0.5218
vn 0.3957 0.7556 0.5220
vn 0.4246 0.7359 0.5275
vn 0.4259 0.7349 0.5278
vn 0.5536 0.6203 0.5557
vn 0.5562 0.6169 0.5568
vn 0.6685 0.4316 0.6057
vn 0.6703 0.4261 0.6075
vn 0.7189 0.2158 0.6608
vn 0.7190 0.2156 0.6607
vn 0.6747 -0.0504 0.7364
vn 0.6790 -0.0433 0.7329
vn 0.5000 -0.3090 0.8090
vn 0.0668 0.8891 0.4528
vn 0.0687 0.8974 0.4358
vn -0.0091 -0.4090 0.9125
vn -0.0091 -0.4086 0.9127
vn -0.5095 -0.1184 0.8523
vn -0.5081 -0.1174 0.8533
vn -0.5330 -0.1367 0.8350
vn -0.6864 0.1574 0.7100
vn 0.3086 0.7816 0.5420
vn 0.0687 0.8977 0.4352
vn -0.5369 -0.1397 0.8320
# 146 vertex normals

vt 0.0000 0.0000 0.0000
# 1 texture coords

g H030_184Q_R_H030_184Q_R_1_D
usemtl diffuse_black_plasticSG
s 1
f 29/29/29 30/29/30 31/29/31 
f 32/29/32 31/29/31 33/29/33 
f 34/29/34 35/29/35 36/29/36 
f 37/29/37 38/29/38 39/29/39 
s 4
f 40/29/40 41/29/41 38/29/42 
s 1
f 42/29/43 43/29/44 44/29/45 
f 45/29/46 46/29/47 47/29/48 
f 48/29/49 36/29/36 49/29/50 
f 50/29/51 51/29/52 52/29/53 
f 53/29/54 49/29/50 30/29/30 
f 54/29/39 39/29/39 55/29/55 
f 56/29/56 57/29/57 35/29/35 
f 55/29/55 51/29/52 50/29/51 
f 52/29/53 46/29/47 45/29/46 
f 47/29/48 43/29/44 42/29/43 
f 56/29/56 58/29/58 44/29/45 
f 32/29/32 29/29/29 31/29/31 
f 59/29/59 32/29/32 33/29/33 
f 48/29/49 34/29/34 36/29/36 
f 54/29/39 37/29/37 39/29/39 
s 4
f 37/29/60 40/29/40 38/29/42 
s 1
f 58/29/58 42/29/43 44/29/45 
f 60/29/61 45/29/46 47/29/48 
f 53/29/54 48/29/49 49/29/50 
f 61/29/62 50/29/51 52/29/53 
f 29/29/29 53/29/54 30/29/30 
f 62/29/63 54/29/39 55/29/55 
f 34/29/34 56/29/56 35/29/35 
f 62/29/63 55/29/55 50/29/51 
f 61/29/62 52/29/53 45/29/46 
f 60/29/61 47/29/48 42/29/43 
f 57/29/57 56/29/56 44/29/45 
s 9
f 63/29/64 64/29/65 65/29/66 
f 66/29/67 67/29/68 68/29/69 
f 69/29/70 70/29/71 71/29/72 
f 72/29/73 73/29/74 74/29/75 
f 75/29/76 76/29/77 77/29/78 
f 78/29/79 79/29/80 80/29/81 
f 81/29/82 82/29/83 83/29/84 
f 68/29/69 67/29/68 82/29/83 
f 84/29/85 85/29/86 71/29/72 
f 65/29/66 64/29/65 86/29/87 
f 87/29/88 88/29/89 89/29/90 
f 90/29/91 85/29/86 84/29/85 
f 79/29/80 85/29/86 90/29/91 
f 91/29/92 92/29/93 93/29/94 
f 70/29/71 73/29/74 72/29/73 
f 83/29/84 63/29/64 94/29/95 
f 76/29/77 75/29/76 95/29/96 
f 93/29/94 92/29/93 89/29/90 
f 73/29/74 87/29/88 74/29/75 
f 86/29/87 64/29/65 92/29/93 
f 94/29/95 63/29/64 65/29/66 
f 96/29/97 66/29/67 68/29/69 
f 85/29/86 69/29/70 71/29/72 
f 80/29/81 75/29/76 77/29/78 
f 77/29/78 78/29/79 80/29/81 
f 97/29/98 81/29/82 83/29/84 
f 81/29/82 68/29/69 82/29/83 
f 74/29/75 87/29/88 89/29/90 
f 80/29/81 79/29/80 90/29/91 
f 71/29/72 70/29/71 72/29/73 
f 97/29/98 83/29/84 94/29/95 
f 98/29/99 76/29/77 95/29/96 
f 88/29/89 93/29/94 89/29/90 
f 91/29/92 86/29/87 92/29/93 
s 19
f 79/29/100 99/29/101 100/29/102 
f 78/29/103 101/29/104 99/29/101 
f 77/29/105 102/29/106 101/29/104 
f 76/29/107 103/29/108 102/29/106 
s 23
f 80/29/109 55/29/110 39/29/111 
f 90/29/112 51/29/113 55/29/110 
f 84/29/114 52/29/115 51/29/113 
f 71/29/116 46/29/117 52/29/115 
f 72/29/118 47/29/119 46/29/117 
f 74/29/120 43/29/121 47/29/119 
f 89/29/122 44/29/123 43/29/121 
f 92/29/124 57/29/125 44/29/123 
f 64/29/126 35/29/127 57/29/125 
f 63/29/128 36/29/128 35/29/127 
f 83/29/129 49/29/129 36/29/128 
f 82/29/130 30/29/130 49/29/129 
f 67/29/131 31/29/132 30/29/130 
f 66/29/133 33/29/134 31/29/132 
s 36
f 96/29/135 104/29/136 33/29/137 
s 19
f 68/29/138 105/29/139 104/29/140 
f 81/29/141 106/29/141 105/29/139 
f 97/29/142 107/29/142 106/29/141 
f 94/29/143 108/29/143 107/29/142 
f 65/29/144 109/29/145 108/29/143 
f 86/29/146 110/29/147 109/29/145 
f 91/29/148 111/29/149 110/29/147 
f 93/29/150 112/29/151 111/29/149 
f 93/29/150 113/29/152 112/29/151 
f 88/29/153 114/29/154 113/29/152 
f 87/29/155 115/29/156 114/29/154 
f 73/29/157 116/29/158 115/29/156 
f 70/29/159 117/29/160 116/29/158 
f 69/29/161 118/29/162 117/29/160 
f 85/29/163 100/29/102 118/29/162 
s 23
f 75/29/164 39/29/111 38/29/165 
s 19
f 98/29/166 41/29/167 103/29/108 
s 50
f 95/29/168 38/29/169 41/29/170 
s 19
f 85/29/163 79/29/100 100/29/102 
f 79/29/100 78/29/103 99/29/101 
f 78/29/103 77/29/105 101/29/104 
f 77/29/105 76/29/107 102/29/106 
s 23
f 75/29/164 80/29/109 39/29/111 
f 80/29/109 90/29/112 55/29/110 
f 90/29/112 84/29/114 51/29/113 
f 84/29/114 71/29/116 52/29/115 
f 71/29/116 72/29/118 46/29/117 
f 72/29/118 74/29/120 47/29/119 
f 74/29/120 89/29/122 43/29/121 
f 89/29/122 92/29/124 44/29/123 
f 92/29/124 64/29/126 57/29/125 
f 64/29/126 63/29/128 35/29/127 
f 63/29/128 83/29/129 36/29/128 
f 83/29/129 82/29/130 49/29/129 
f 82/29/130 67/29/131 30/29/130 
f 67/29/131 66/29/133 31/29/132 
s 36
f 66/29/171 96/29/135 33/29/137 
s 19
f 96/29/172 68/29/138 104/29/140 
f 68/29/138 81/29/141 105/29/139 
f 81/29/141 97/29/142 106/29/141 
f 97/29/142 94/29/143 107/29/142 
f 94/29/143 65/29/144 108/29/143 
f 65/29/144 86/29/146 109/29/145 
f 86/29/146 91/29/148 110/29/147 
f 91/29/148 93/29/150 111/29/149 
f 93/29/150 88/29/153 113/29/152 
f 88/29/153 87/29/155 114/29/154 
f 87/29/155 73/29/157 115/29/156 
f 73/29/157 70/29/159 116/29/158 
f 70/29/159 69/29/161 117/29/160 
f 69/29/161 85/29/163 118/29/162 
s 23
f 95/29/173 75/29/164 38/29/165 
s 19
f 76/29/107 98/29/166 103/29/108 
s 50
f 98/29/174 95/29/168 41/29/170 
# 139 faces

