# 3ds Max Wavefront OBJ Exporter v0.97b - (c)2007 guruware
# File Created: 13.11.2015 17:13:20

mtllib H030_FLOR_C.mtl

#
# object H030_FLOR_C_N_H030_FLOR_C
#

v  -220.0575 -45.9521 0.0006
v  -220.0583 -45.9498 -67.1465
v  -219.9928 -45.9977 -67.3918
v  -220.6744 -45.3731 -65.0183
v  -220.4824 -45.5527 -65.7106
v  -221.1982 -44.9648 -62.5118
v  -210.4610 -44.1901 0.0006
v  -213.6717 -44.9791 -87.8650
v  -212.3113 -44.6695 -90.8487
v  -211.1844 -44.3929 -93.2393
v  -217.4397 -45.7312 0.0006
v  -219.7097 -46.0116 0.0006
v  -219.7105 -46.0092 -68.6728
v  -76.8274 -54.8775 -0.0014
v  -76.8285 -54.8741 -95.8381
v  -67.3652 -54.6439 -95.8381
v  -225.9868 -44.9707 -5.7078
v  -225.7863 -44.9747 -11.3817
v  -225.1321 -44.9772 0.0007
v  -209.6042 -43.4680 -96.5103
v  -209.3853 -42.6910 -96.8655
v  -209.3850 -42.6919 -71.3360
v  212.7736 -53.2540 -0.0046
v  268.6621 -53.2549 -13.8422
v  268.8912 -53.2551 -6.9670
v  -209.3841 -42.6944 0.0006
v  -116.5250 -55.9264 -71.3375
v  265.1772 -53.2538 -44.2367
v  266.1880 -53.2540 -38.8355
v  -11.2409 -54.4182 -0.0021
v  2.1776 -54.4152 -95.8389
v  15.5869 -54.4155 -95.8391
v  212.7728 -53.2514 -71.3411
v  253.3038 -53.2524 -74.6115
v  255.5384 -53.2526 -70.7322
v  268.9671 -53.2554 -0.0053
v  244.3759 -53.2517 -86.9254
v  246.4736 -53.2519 -84.4513
v  242.4583 -53.2516 -88.9909
v  -209.5605 -43.3623 0.0006
v  -11.2420 -54.4148 -95.8388
v  264.0098 -53.2536 -49.2872
v  267.7388 -53.2544 -26.9879
v  268.2784 -53.2547 -20.5447
v  -24.1641 -54.4145 -95.8386
v  267.0418 -53.2542 -33.0853
v  81.8256 -54.8783 -95.8399
v  120.8358 -55.9326 -71.3402
v  81.8268 -54.8816 -0.0032
v  259.5110 -53.2530 -62.6204
v  261.1910 -53.2532 -58.4052
v  257.6316 -53.2528 -66.7047
v  -209.4761 -43.0706 -96.7267
v  250.9998 -53.2522 -78.2519
v  111.6256 -55.8131 -95.8402
v  120.8355 -55.9317 -95.8403
v  223.1130 -53.2508 -97.9941
v  225.1236 -53.2508 -97.6925
v  221.0724 -53.2507 -98.2102
v  120.8366 -55.9351 -0.0036
v  230.8552 -53.2510 -96.2832
v  232.6058 -53.2511 -95.6685
v  40.3420 -54.4162 -95.8393
v  51.3944 -54.4395 -95.8395
v  240.7733 -53.2515 -90.6539
v  219.0134 -53.2506 -98.3399
v  262.6858 -53.2534 -53.9854
v  -36.0805 -54.4142 -95.8385
v  -57.5241 -54.5058 -95.8382
v  229.0066 -53.2510 -96.8361
v  227.0920 -53.2509 -97.3061
v  -209.7870 -43.8171 -96.1686
v  -100.3088 -55.6633 -95.8378
v  -93.5645 -55.4293 -95.8379
v  -217.4406 -45.7284 -78.0523
v  -216.4076 -45.5462 -81.1971
v  -215.0943 -45.2839 -84.5578
v  248.6990 -53.2520 -81.5621
v  -223.8665 -44.9351 0.0007
v  -224.3144 -44.9539 -33.0646
v  -223.8669 -44.9338 -38.1185
v  -222.0318 -44.8433 0.0006
v  -222.9229 -44.8788 -47.7022
v  -222.4579 -44.8535 -52.0392
v  212.7725 -53.2505 -98.4263
v  239.3733 -53.2514 -91.9208
v  -47.1482 -54.4369 -95.8384
v  235.6847 -53.2512 -94.3375
v  234.2264 -53.2512 -95.0129
v  -210.0459 -44.0266 -95.6413
v  -210.4621 -44.1867 -94.7671
v  -224.7381 -44.9683 -27.8507
v  -220.8612 -45.2071 0.0006
v  -221.4030 -44.8946 0.0006
v  -221.4037 -44.8924 -61.0459
v  -223.4012 -44.9085 -43.0013
v  -220.3037 -45.7226 -66.3182
v  -220.1564 -45.8619 -66.8080
v  -221.0269 -45.0688 -63.5138
v  -220.8619 -45.2048 -64.2750
v  -209.8359 -43.8914 0.0006
v  -215.0799 -45.2840 0.0006
v  -219.9431 -46.0174 -67.6019
v  -219.8924 -46.0203 -67.8350
v  -221.6723 -44.8514 -58.8931
v  -222.0324 -44.8413 -55.8301
v  -219.9422 -46.0197 0.0006
v  -217.4351 -45.7303 0.0006
v  -219.5233 -45.9911 -69.5352
v  -219.8243 -46.0183 -68.1490
v  238.1383 -53.2514 -92.8908
v  61.8495 -54.5089 -95.8396
v  71.9216 -54.6475 -95.8397
v  -225.1323 -44.9764 -22.4877
v  -105.6183 -55.8074 -95.8378
v  -218.8163 -45.9195 -72.7913
v  -218.2310 -45.8472 -75.2187
v  -85.6496 -55.1511 -95.8380
v  91.1547 -55.1557 -95.8399
v  99.5023 -55.4344 -95.8401
v  -219.2346 -45.9618 -70.8651
v  28.4777 -54.4158 -95.8392
v  106.4615 -55.6687 -95.8401
v  -225.4916 -44.9775 -16.9865
v  -116.5253 -55.9255 -95.8376
v  -219.9928 -45.9977 67.3918
v  -220.6744 -45.3731 65.0183
v  -220.8619 -45.2048 64.2750
v  -221.1982 -44.9648 62.5118
v  -213.6717 -44.9791 87.8650
v  -212.3113 -44.6695 90.8487
v  -211.1844 -44.3929 93.2393
v  -219.7105 -46.0092 68.6728
v  -76.8285 -54.8741 95.8380
v  -67.3652 -54.6439 95.8381
v  -225.9868 -44.9707 5.7078
v  -226.0635 -44.9686 0.0000
v  -209.3853 -42.6910 96.8655
v  -209.6042 -43.4680 96.5103
v  -209.3833 -42.6969 71.3371
v  268.6623 -53.2559 13.8317
v  268.8913 -53.2557 6.9564
v  -116.5242 -55.9289 -0.0009
v  -116.5234 -55.9314 71.3356
v  265.1783 -53.2568 44.2263
v  212.7744 -53.2565 71.3319
v  2.1776 -54.4152 95.8389
v  15.5869 -54.4155 95.8391
v  253.3055 -53.2576 74.6014
v  255.5401 -53.2576 70.7220
v  244.3780 -53.2578 86.9155
v  246.4755 -53.2578 84.4413
v  242.4604 -53.2578 88.9810
v  -11.2420 -54.4148 95.8388
v  264.0108 -53.2570 49.2768
v  267.7393 -53.2563 26.9774
v  268.2788 -53.2561 20.5342
v  -24.1641 -54.4145 95.8386
v  267.0426 -53.2565 33.0749
v  81.8256 -54.8783 95.8399
v  71.9216 -54.6475 95.8397
v  266.1888 -53.2567 38.8251
v  259.5124 -53.2574 62.6101
v  261.1923 -53.2572 58.3949
v  257.6331 -53.2574 66.6945
v  -209.4761 -43.0706 96.7267
v  251.0016 -53.2577 78.2418
v  120.8355 -55.9317 95.8403
v  111.6256 -55.8131 95.8402
v  120.8374 -55.9376 71.3329
v  223.1153 -53.2576 97.9847
v  225.1258 -53.2577 97.6829
v  221.0746 -53.2576 98.2008
v  230.8574 -53.2578 96.2736
v  232.6080 -53.2578 95.6588
v  40.3420 -54.4162 95.8393
v  51.3944 -54.4395 95.8395
v  240.7754 -53.2578 90.6441
v  219.0156 -53.2576 98.3306
v  262.6870 -53.2571 53.9751
v  -36.0805 -54.4141 95.8385
v  -57.5241 -54.5058 95.8382
v  229.0088 -53.2578 96.8265
v  227.0942 -53.2577 97.2966
v  -209.7870 -43.8171 96.1686
v  -100.3088 -55.6633 95.8378
v  -93.5645 -55.4293 95.8379
v  -216.4076 -45.5462 81.1971
v  -217.4406 -45.7284 78.0523
v  -215.0943 -45.2839 84.5578
v  248.7010 -53.2578 81.5521
v  -224.3144 -44.9539 33.0646
v  -223.8669 -44.9338 38.1185
v  -222.9229 -44.8788 47.7022
v  -222.4579 -44.8535 52.0392
v  212.7748 -53.2574 98.4171
v  239.3754 -53.2579 91.9110
v  -47.1482 -54.4369 95.8384
v  235.6869 -53.2578 94.3278
v  234.2286 -53.2578 95.0032
v  -210.0459 -44.0266 95.6413
v  -210.4621 -44.1867 94.7671
v  -224.7381 -44.9683 27.8507
v  -221.4037 -44.8924 61.0459
v  -223.4012 -44.9085 43.0013
v  -220.3037 -45.7226 66.3182
v  -220.1564 -45.8619 66.8080
v  -221.0269 -45.0688 63.5138
v  -220.0583 -45.9498 67.1465
v  -219.8924 -46.0203 67.8350
v  -219.9431 -46.0174 67.6019
v  -221.6723 -44.8514 58.8931
v  -220.4824 -45.5527 65.7106
v  -222.0324 -44.8413 55.8301
v  -219.5233 -45.9911 69.5352
v  -219.8243 -46.0183 68.1490
v  238.1405 -53.2579 92.8810
v  236.9510 -53.2579 93.6535
v  61.8495 -54.5089 95.8396
v  -225.1323 -44.9764 22.4877
v  -105.6183 -55.8074 95.8377
v  -218.8163 -45.9195 72.7913
v  -219.2346 -45.9618 70.8651
v  -85.6496 -55.1511 95.8380
v  99.5671 -55.4366 95.8401
v  91.1547 -55.1557 95.8399
v  28.4777 -54.4158 95.8392
v  106.4615 -55.6687 95.8401
v  -225.4916 -44.9775 16.9865
v  -225.7863 -44.9747 11.3817
v  -116.5253 -55.9255 95.8376
v  236.9488 -53.2513 -93.6633
v  -218.2310 -45.8472 75.2187
# 233 vertices

vn -0.6594 -0.7518 -0.0000
vn -0.6090 -0.7932 -0.0001
vn -0.5892 -0.8080 -0.0000
vn -0.8138 -0.5762 -0.0762
vn -0.8175 -0.5702 -0.0807
vn -0.8456 -0.5258 -0.0926
vn 0.2600 -0.9656 -0.0000
vn 0.2214 -0.9752 0.0007
vn 0.2362 -0.9717 0.0003
vn 0.2670 -0.9637 0.0000
vn 0.1228 -0.9924 -0.0000
vn 0.1147 -0.9934 -0.0000
vn 0.1015 -0.9948 0.0006
vn 0.0145 -0.9999 -0.0000
vn 0.0260 -0.9997 0.0001
vn 0.0188 -0.9998 -0.0006
vn -0.0099 -1.0000 0.0003
vn -0.0067 -1.0000 0.0002
vn 0.0265 -0.9997 -0.0000
vn 0.9343 -0.3565 0.0000
vn 0.9625 -0.2712 0.0000
vn 0.9635 -0.2676 -0.0001
vn 0.0217 -0.9998 -0.0000
vn -0.0000 -1.0000 -0.0000
vn -0.1411 -0.9900 -0.0000
vn -0.0700 -0.9975 0.0000
vn 0.0003 -1.0000 -0.0000
vn 0.0205 -0.9998 -0.0000
vn 0.9668 -0.2554 -0.0000
vn 0.9297 -0.3684 -0.0000
vn -0.0260 -0.9997 0.0001
vn 0.0052 -1.0000 0.0000
vn -0.0120 -0.9999 -0.0000
vn 0.9052 -0.0625 0.4203
vn -0.0200 -0.9998 0.0026
vn -0.0129 -0.9999 -0.0000
vn 0.0124 -0.9999 -0.0000
vn -0.0041 -1.0000 -0.0025
vn -0.0039 -1.0000 -0.0034
vn 0.0011 -1.0000 -0.0003
vn 0.0098 -0.9999 -0.0019
vn 0.0000 0.0000 -0.0000
vn 0.0000 1.0000 -0.0000
vn 0.0327 -0.9994 0.0109
vn 0.0350 -0.9993 0.0125
vn 0.1821 -0.9833 -0.0000
vn 0.3067 -0.9507 0.0457
vn 0.2088 -0.9780 0.0008
vn 0.0452 -0.9990 -0.0000
vn 0.0442 -0.9990 -0.0000
vn 0.0522 -0.9986 -0.0001
vn 0.0055 -1.0000 -0.0000
vn 0.0525 -0.9986 -0.0002
vn 0.0292 -0.9996 -0.0000
vn 0.8860 -0.4636 0.0001
vn 0.0060 -1.0000 -0.0021
vn 0.9055 -0.0627 0.4196
vn 0.0348 -0.9994 0.0001
vn -0.6185 -0.7858 -0.0000
vn -0.3066 -0.9518 -0.0000
vn -0.6157 -0.7880 -0.0000
vn 0.0583 -0.9983 -0.0003
vn -0.8082 -0.5840 -0.0766
vn -0.7805 -0.6218 -0.0642
vn -0.8484 -0.5214 -0.0909
vn -0.8233 -0.5618 -0.0806
vn 0.4514 -0.8923 -0.0004
vn 0.4795 -0.8775 -0.0004
vn 0.4314 -0.9022 -0.0000
vn 0.2164 -0.9763 -0.0000
vn -0.0829 -0.9966 0.0004
vn 0.0257 -0.9997 0.0001
vn -0.1453 -0.9894 -0.0001
vn -0.0308 -0.9995 -0.0006
vn 0.0348 -0.9994 -0.0000
vn -0.3607 -0.9327 0.0013
vn 0.1852 -0.9827 -0.0000
vn 0.1248 -0.9922 -0.0000
vn 0.0771 -0.9970 -0.0000
vn -0.0001 -1.0000 0.0001
vn -0.0097 -1.0000 -0.0019
vn -0.0182 -0.9998 -0.0006
vn 0.0258 -0.9997 0.0004
vn 0.0183 -0.9998 0.0033
vn 0.3070 -0.9506 0.0458
vn 0.3065 -0.9508 0.0456
vn 0.0321 -0.9994 0.0088
vn -0.0305 -0.9995 0.0052
vn -0.0334 -0.9994 0.0088
vn 0.3062 -0.9509 0.0455
vn -0.0321 -0.9995 0.0081
vn 0.0025 -1.0000 -0.0000
vn 0.0108 -0.9999 -0.0000
vn -0.5059 -0.8626 -0.0000
vn -0.5896 -0.8077 0.0000
vn -0.8138 -0.5762 0.0762
vn -0.8235 -0.5615 0.0806
vn -0.8456 -0.5257 0.0926
vn 0.2214 -0.9752 -0.0007
vn 0.2362 -0.9717 -0.0003
vn 0.2670 -0.9637 -0.0000
vn 0.1015 -0.9948 -0.0006
vn 0.0261 -0.9997 -0.0001
vn 0.0188 -0.9998 0.0006
vn -0.0099 -1.0000 -0.0003
vn -0.0092 -1.0000 -0.0000
vn 0.9625 -0.2713 0.0001
vn 0.9342 -0.3567 0.0000
vn 0.9625 -0.2712 0.0001
vn -0.0915 -0.9958 -0.0000
vn -0.0700 -0.9976 -0.0001
vn -0.0000 -1.0000 0.0000
vn -0.0261 -0.9997 -0.0001
vn -0.0182 -0.9998 0.0006
vn 0.9051 -0.0629 -0.4205
vn -0.0129 -0.9999 0.0002
vn -0.0200 -0.9998 -0.0024
vn 0.0052 -1.0000 -0.0001
vn -0.0041 -1.0000 0.0025
vn -0.0039 -1.0000 0.0034
vn 0.0011 -1.0000 0.0003
vn 0.0098 -1.0000 0.0019
vn 0.0327 -0.9994 -0.0107
vn 0.0350 -0.9993 -0.0123
vn 0.3067 -0.9507 -0.0457
vn 0.1821 -0.9833 0.0000
vn 0.2088 -0.9780 -0.0008
vn 0.0442 -0.9990 0.0000
vn 0.0522 -0.9986 0.0001
vn 0.0525 -0.9986 0.0002
vn 0.0292 -0.9996 0.0000
vn 0.8860 -0.4636 -0.0001
vn 0.8870 -0.4617 -0.0000
vn 0.0060 -1.0000 0.0021
vn 0.9056 -0.0627 -0.4196
vn 0.0348 -0.9994 -0.0001
vn -0.6157 -0.7880 0.0000
vn 0.0583 -0.9983 0.0003
vn -0.8081 -0.5841 0.0766
vn -0.7803 -0.6221 0.0642
vn -0.8486 -0.5211 0.0909
vn -0.6091 -0.7931 0.0001
vn 0.4515 -0.8923 0.0004
vn 0.0257 -0.9997 -0.0001
vn -0.0829 -0.9966 -0.0004
vn -0.1453 -0.9894 0.0001
vn -0.8173 -0.5705 0.0807
vn -0.0308 -0.9995 0.0006
vn -0.3606 -0.9327 -0.0013
vn 0.1248 -0.9922 0.0000
vn 0.0771 -0.9970 0.0000
vn -0.0001 -1.0000 -0.0001
vn -0.0002 -1.0000 -0.0003
vn -0.0097 -1.0000 0.0019
vn 0.0258 -0.9997 -0.0004
vn 0.0183 -0.9998 -0.0031
vn 0.3071 -0.9506 -0.0458
vn 0.3062 -0.9509 -0.0455
vn 0.0321 -0.9994 -0.0086
vn -0.0334 -0.9994 -0.0086
vn -0.0305 -0.9995 -0.0050
vn -0.0321 -0.9995 -0.0079
vn 0.0025 -1.0000 0.0000
vn -0.0067 -1.0000 -0.0002
vn 0.0108 -0.9999 0.0002
vn 0.0002 -1.0000 -0.0003
vn 0.4795 -0.8775 0.0004
vn 0.3065 -0.9508 -0.0456
# 168 vertex normals

g H030_FLOR_C_N_H030_FLOR_C
usemtl diffuse_black_plasticSG
s 1
f 1//1 2//2 3//3 
f 4//4 5//5 6//6 
s 3
f 7//7 8//8 9//9 
f 7//7 9//9 10//10 
f 11//11 12//12 13//13 
s 5
f 14//14 15//15 16//16 
s 1
f 17//17 18//18 19//19 
s 7
f 20//20 21//21 22//22 
s 5
f 23//23 24//24 25//24 
f 26//25 22//25 27//26 
f 28//24 29//24 23//23 
f 30//27 31//24 32//24 
f 33//28 34//24 35//24 
f 23//23 25//24 36//24 
f 33//28 37//24 38//24 
f 33//28 39//24 37//24 
s 7
f 22//22 26//29 40//30 
s 5
f 30//27 41//24 31//24 
f 33//28 42//24 28//24 
f 23//23 43//24 44//24 
f 30//27 45//24 41//24 
f 23//23 46//24 43//24 
f 47//31 48//32 49//33 
f 23//23 29//24 46//24 
f 23//23 44//24 24//24 
f 33//28 50//24 51//24 
f 33//28 52//24 50//24 
s 7
f 20//20 53//34 21//21 
s 5
f 33//28 54//24 34//24 
f 55//35 56//36 48//32 
f 33//28 57//24 58//24 
f 33//28 59//24 57//24 
f 60//37 49//33 48//32 
f 33//28 61//24 62//24 
f 49//33 63//38 64//39 
f 33//28 65//24 39//24 
f 33//28 66//24 59//24 
f 33//28 67//24 42//24 
f 33//28 51//24 67//24 
f 30//27 68//40 45//24 
f 14//14 16//16 69//41 
f 33//28 35//24 52//24 
f 33//28 70//24 61//24 
f 33//28 71//24 70//24 
f 33//28 58//24 71//24 
s 23
f 72//42 20//43 20//43 
s 5
f 27//26 73//44 74//45 
s 3
f 75//46 76//47 77//48 
s 5
f 33//28 78//24 54//24 
s 1
f 79//49 80//50 81//51 
f 82//52 83//53 84//54 
s 5
f 33//28 85//24 66//24 
f 33//28 86//24 65//24 
s 3
f 77//48 8//8 7//7 
s 7
f 72//55 20//20 40//30 
s 5
f 87//56 68//40 30//27 
f 33//28 88//24 86//24 
f 33//28 89//24 88//24 
f 33//28 62//24 89//24 
s 28
f 90//57 72//42 72//57 
f 91//57 90//57 72//57 
s 1
f 79//49 92//58 80//50 
f 93//59 94//60 95//61 
f 82//52 96//62 83//53 
f 95//61 97//63 98//64 
f 81//51 96//62 82//52 
f 6//6 99//65 100//66 
f 95//61 98//64 2//2 
s 3
f 91//67 72//68 101//69 
f 75//46 77//48 102//70 
f 103//71 104//72 12//12 
s 1
f 94//60 105//73 95//61 
f 5//5 97//63 95//61 
s 5
f 33//28 38//24 78//24 
s 1
f 106//74 105//73 94//60 
s 3
f 12//12 107//75 3//76 
f 108//77 109//78 75//46 
f 110//79 13//13 12//12 
s 5
f 111//80 86//24 88//24 
s 3
f 7//7 10//10 91//67 
s 5
f 49//33 112//81 113//82 
f 49//33 64//39 112//81 
s 1
f 95//61 2//2 1//1 
f 114//83 92//58 79//49 
s 5
f 27//26 115//84 73//44 
s 3
f 104//72 110//79 12//12 
s 5
f 14//14 69//41 87//56 
s 3
f 116//85 117//86 75//46 
s 5
f 27//26 118//87 15//15 
f 119//88 120//89 48//32 
s 3
f 109//78 121//90 75//46 
s 5
f 47//31 119//88 48//32 
f 30//27 32//24 122//24 
s 3
f 13//13 109//78 108//77 
s 5
f 60//37 48//32 33//28 
f 27//26 15//15 14//14 
f 120//89 123//91 48//32 
f 123//91 55//35 48//32 
f 27//26 74//45 118//87 
f 30//27 122//24 63//38 
s 1
f 82//52 84//54 106//74 
f 124//92 114//83 19//19 
s 5
f 27//26 125//93 115//84 
s 1
f 1//1 107//94 126//95 
f 127//96 128//97 129//98 
s 3
f 130//99 7//7 131//100 
f 131//100 7//7 132//101 
f 12//12 11//11 133//102 
s 5
f 134//103 14//14 135//104 
s 1
f 136//105 137//106 19//19 
s 7
f 138//107 139//108 140//109 
s 5
f 141//24 23//23 142//24 
f 26//25 143//110 144//111 
f 145//24 146//28 23//23 
f 147//112 30//27 148//112 
f 149//24 146//28 150//24 
f 142//24 23//23 36//24 
f 151//24 146//28 152//24 
f 153//24 146//28 151//24 
s 7
f 140//109 139//108 40//30 
s 5
f 154//112 30//27 147//112 
f 155//24 146//28 145//24 
f 156//24 23//23 157//24 
f 158//112 30//27 154//112 
f 159//24 23//23 156//24 
f 160//113 161//114 49//33 
f 162//24 23//23 159//24 
f 157//24 23//23 141//24 
f 163//24 146//28 164//24 
f 165//24 146//28 163//24 
s 7
f 166//115 139//108 138//107 
s 5
f 167//24 146//28 149//24 
f 168//116 169//117 170//118 
f 171//24 146//28 172//24 
f 173//24 146//28 171//24 
f 49//33 60//37 170//118 
f 174//24 146//28 175//24 
f 176//119 49//33 177//120 
f 178//24 146//28 153//24 
f 179//24 146//28 173//24 
f 180//24 146//28 155//24 
f 164//24 146//28 180//24 
f 181//121 30//27 158//112 
f 135//104 14//14 182//122 
f 150//24 146//28 165//24 
f 183//24 146//28 174//24 
f 184//24 146//28 183//24 
f 172//24 146//28 184//24 
s 53
f 185//42 185//42 139//42 
s 5
f 186//123 144//111 187//124 
s 3
f 188//125 189//126 190//127 
s 5
f 191//24 146//28 167//24 
s 1
f 192//128 79//49 193//129 
f 194//130 82//52 195//131 
s 5
f 196//24 146//28 179//24 
f 197//24 146//28 178//24 
s 3
f 190//127 102//70 7//7 
s 7
f 185//132 101//133 40//30 
s 5
f 198//134 14//14 30//27 
f 199//24 146//28 197//24 
f 200//24 146//28 199//24 
f 175//24 146//28 200//24 
s 58
f 185//42 201//135 185//135 
f 202//135 202//42 185//135 
s 1
f 203//136 79//49 192//128 
f 94//60 93//59 204//137 
f 205//138 82//52 194//130 
f 206//139 204//137 207//140 
f 193//129 79//49 82//52 
f 208//141 129//98 128//97 
f 207//140 204//137 209//142 
s 3
f 202//143 7//7 101//69 
f 189//126 108//77 102//70 
f 210//144 211//145 12//12 
s 1
f 212//146 94//60 204//137 
f 213//147 129//98 204//137 
s 5
f 152//24 146//28 191//24 
s 1
f 214//148 82//52 94//60 
s 3
f 12//12 211//145 126//149 
f 215//150 108//77 189//126 
f 133//102 216//151 12//12 
s 5
f 217//152 218//153 199//24 
s 3
f 132//101 7//7 202//143 
s 5
f 219//154 49//33 161//114 
f 177//120 49//33 219//154 
s 1
f 204//137 93//59 1//1 
f 220//155 19//19 79//49 
s 5
f 221//156 144//111 186//123 
s 3
f 216//151 210//144 12//12 
s 5
f 182//122 14//14 198//134 
s 3
f 222//157 223//158 189//126 
s 5
f 224//159 144//111 134//103 
f 225//160 226//161 170//118 
s 3
f 223//158 215//150 189//126 
s 5
f 226//161 160//113 170//118 
f 148//112 30//27 227//112 
s 3
f 133//102 11//11 108//77 
s 5
f 60//37 23//23 146//28 
f 144//111 143//110 14//14 
f 228//162 225//160 170//118 
f 169//117 228//162 170//118 
f 187//124 144//111 224//159 
f 30//27 49//33 176//119 
s 1
f 195//131 82//52 214//148 
f 229//163 230//164 19//19 
s 5
f 231//165 144//111 221//156 
s 1
f 107//94 1//1 3//3 
f 100//66 4//4 6//6 
f 137//106 17//17 19//19 
s 5
f 143//110 26//25 27//26 
f 33//28 28//24 23//23 
s 7
f 20//20 22//22 40//30 
s 5
f 113//82 47//31 49//33 
s 23
f 72//42 72//42 20//43 
s 3
f 102//70 77//48 7//7 
s 7
f 101//133 72//55 40//30 
s 5
f 14//14 87//56 30//27 
s 28
f 91//42 91//57 72//57 
s 1
f 79//49 81//51 82//52 
s 3
f 7//7 91//67 101//69 
f 108//77 75//46 102//70 
s 1
f 6//6 5//5 95//61 
f 82//52 106//74 94//60 
s 3
f 103//71 12//12 3//76 
s 5
f 232//166 111//80 88//24 
s 1
f 93//59 95//61 1//1 
f 19//19 114//83 79//49 
s 3
f 121//90 116//85 75//46 
f 11//11 13//13 108//77 
s 5
f 23//23 60//37 33//28 
f 143//110 27//26 14//14 
f 49//33 30//27 63//38 
s 1
f 18//18 124//92 19//19 
f 209//142 1//1 126//95 
f 213//147 127//96 129//98 
f 230//164 136//105 19//19 
s 5
f 140//25 26//25 144//111 
f 162//24 145//24 23//23 
s 7
f 26//29 140//109 40//30 
s 5
f 170//118 160//113 49//33 
s 53
f 139//42 185//42 139//42 
s 3
f 130//99 190//127 7//7 
s 7
f 139//108 185//132 40//30 
s 5
f 181//121 198//134 30//27 
s 58
f 201//135 202//135 185//135 
s 1
f 205//138 193//129 82//52 
s 3
f 185//167 202//143 101//69 
f 190//127 189//126 102//70 
s 1
f 206//139 213//147 204//137 
f 212//146 214//148 94//60 
s 3
f 107//75 12//12 126//149 
s 5
f 197//24 217//152 199//24 
s 1
f 209//142 204//137 1//1 
f 203//136 220//155 79//49 
s 3
f 233//168 222//157 189//126 
f 215//150 133//102 108//77 
s 5
f 170//118 60//37 146//28 
f 134//103 144//111 14//14 
f 227//112 30//27 176//119 
s 1
f 220//155 229//163 19//19 
# 260 faces

