# 3ds Max Wavefront OBJ Exporter v0.97b - (c)2007 guruware
# File Created: 05.10.2015 15:18:46

mtllib _4136_17_265B_L.mtl

#
# object _4136_17_265B_L_1_DTaSI__4136_17_265B_L
#

v  -52.7758 49.5330 -60.0593
v  -52.7765 49.7388 -60.3810
v  -51.7365 46.1868 -62.2071
v  -51.7366 46.3925 -62.5288
v  -53.3773 51.4713 -58.8223
v  -53.3787 51.6763 -59.1445
v  -48.4871 35.7496 -68.6424
v  -48.4870 35.9364 -68.9753
v  -46.8504 30.5017 -71.3999
v  -46.8509 30.6720 -71.7417
v  -50.2163 41.5010 -65.6458
v  -50.2167 41.3003 -65.3209
v  -45.4173 26.0591 -73.9218
v  -45.4163 25.8982 -73.5755
v  -44.2513 22.1531 -75.2939
v  -44.2526 22.3116 -75.6414
v  -43.4609 19.6108 -76.4526
v  -43.4623 19.7687 -76.8003
v  -43.1007 18.4522 -76.9797
v  -43.1022 18.6099 -77.3275
v  -42.9858 18.0824 -77.1479
v  -42.9873 18.2402 -77.4957
v  -53.7370 52.8292 -58.4101
v  -53.7350 52.6243 -58.0879
v  -2.1095 29.2626 -71.8860
v  6.5878 28.9642 -71.8679
v  -2.0046 24.6353 -74.0757
v  6.6247 24.3317 -74.0567
v  -18.4730 35.2569 -69.0534
v  -10.2322 34.9560 -69.0594
v  -18.3483 29.8193 -71.9224
v  -10.0647 29.5364 -71.9074
v  -44.1599 49.6951 -60.4253
v  -44.0562 52.3471 -58.7488
v  -35.3897 49.6221 -60.4124
v  -35.2767 52.6264 -58.5421
v  -18.2274 25.1984 -74.1122
v  -9.9037 24.9109 -74.0973
v  -18.1268 21.4734 -75.8269
v  -9.7705 21.1911 -75.8087
v  -1.9198 20.9234 -75.7839
v  6.6577 20.6263 -75.7609
v  -1.8625 18.4131 -76.9329
v  6.6805 18.1197 -76.9067
v  -1.8364 17.2704 -77.4551
v  6.6910 16.9785 -77.4274
v  34.4512 40.1339 -65.1514
v  43.4623 35.1522 -67.5871
v  33.8818 32.7646 -69.3152
v  43.8242 31.7890 -69.4914
v  41.3220 15.3377 -77.3112
v  41.3371 15.4780 -77.2469
v  49.5176 15.0215 -77.1940
v  -9.6385 17.5274 -77.4849
v  -18.0271 17.8004 -77.5080
v  -9.6798 18.6736 -76.9610
v  -18.0583 18.9497 -76.9824
v  -41.7742 53.6065 -57.9626
v  -35.2368 53.6889 -57.8658
v  -28.4013 53.5888 -57.8397
v  -28.3760 52.6199 -58.4647
v  -48.4870 35.9365 -68.9753
v  -44.1802 35.8712 -69.0099
v  -44.2027 30.6028 -71.7805
v  -44.2294 26.0247 -73.9414
v  -50.2164 41.5010 -65.6458
v  -44.1682 41.5642 -65.5984
v  -44.2526 22.3116 -75.6413
v  -36.5801 18.3970 -77.4526
v  -36.5264 18.0278 -77.6207
v  53.6112 16.3382 -76.4859
v  53.8742 14.8417 -77.1656
v  45.2752 16.6694 -76.5937
v  32.6190 15.6735 -77.4357
v  32.6402 15.9633 -77.3032
v  32.7282 17.1680 -76.7560
v  32.9100 19.6482 -75.6172
v  45.0353 19.1382 -75.4672
v  33.1742 23.2456 -73.9496
v  44.6967 22.6471 -73.8494
v  33.4931 27.5653 -71.9040
v  44.3148 26.6473 -71.9724
v  23.9144 16.3640 -77.3541
v  23.9311 15.9996 -77.5194
v  23.9599 17.5027 -76.8354
v  14.8916 16.3301 -77.5672
v  14.8914 16.6939 -77.4014
v  14.8907 17.8343 -76.8818
v  24.0597 19.9997 -75.6955
v  14.8892 20.3388 -75.7387
v  24.2063 23.6667 -74.0078
v  14.8876 24.0371 -74.0388
v  24.3883 28.2179 -71.8637
v  14.8885 28.6676 -71.8548
v  24.8875 40.4667 -65.4430
v  27.4745 43.7350 -63.4712
v  51.0388 30.9687 -69.6777
v  51.3815 29.0203 -70.5978
v  51.9121 26.0028 -72.0204
v  52.5741 22.2380 -73.7809
v  53.1792 18.7957 -75.3665
v  -2.6555 49.2014 -60.0645
v  6.5958 49.1397 -60.0819
v  -2.4695 46.1070 -62.0910
v  6.5760 46.0198 -62.1532
v  24.6038 33.5044 -69.2017
v  14.9302 40.6530 -65.4350
v  14.9002 33.9414 -69.1593
v  6.5634 34.2748 -69.1207
v  -2.2278 34.6252 -69.0820
v  6.5599 40.7921 -65.3943
v  -2.3626 40.9478 -65.3706
v  22.4918 45.9527 -62.3848
v  12.5078 49.1457 -60.2059
v  7.0649 50.4266 -59.2533
v  14.9986 45.9756 -62.3157
v  -9.6237 17.1576 -77.6535
v  17.5912 47.6931 -61.2864
v  -10.3913 41.1192 -65.4014
v  -10.5751 49.3138 -60.1702
v  -10.5069 46.2266 -62.1549
v  -10.4519 51.6303 -58.7136
v  -2.7849 50.9703 -58.9359
v  -13.2261 52.9928 -57.9335
v  -5.8035 52.3776 -58.1248
v  1.0189 51.5182 -58.5366
v  -44.1633 46.3969 -62.5237
v  -18.6681 46.2851 -62.2759
v  -18.5865 41.3341 -65.4176
v  -17.9985 17.4331 -77.6756
v  -18.7197 49.4285 -60.2769
v  -27.6620 18.1098 -77.5140
v  -27.6564 17.7421 -77.6820
v  -36.5356 19.5473 -76.9270
v  -36.4379 22.0719 -75.7715
v  -36.2940 25.7916 -74.0582
v  -36.1168 30.3836 -71.8790
v  -35.9126 35.7242 -69.0553
v  -35.6903 41.6108 -65.5141
v  -35.5114 46.3797 -62.4776
v  -28.2984 49.5630 -60.4019
v  -28.2176 46.3572 -62.4239
v  -28.0974 41.6172 -65.4235
v  -27.9550 35.5498 -69.0668
v  -27.8504 30.1384 -71.9260
v  -27.7756 25.5226 -74.1137
v  -27.7182 21.7925 -75.8299
v  -27.6796 19.2625 -76.9875
v  -18.6195 52.2337 -58.5258
v  -48.4432 53.2682 -58.1655
v  -20.9332 53.3741 -57.8550
# 151 vertices

vn -0.0016 0.5366 -0.8439
vn -0.0007 0.5340 -0.8455
vn -0.0021 0.5363 -0.8440
vn 0.0004 0.4898 -0.8718
vn 0.0004 0.4897 -0.8719
vn -0.0012 0.4462 -0.8949
vn 0.0006 0.5257 -0.8507
vn -0.0025 0.4216 -0.9068
vn -0.0025 0.4162 -0.9092
vn -0.0033 0.4147 -0.9100
vn -0.0036 0.4143 -0.9101
vn -0.0037 0.4142 -0.9102
vn -0.0023 0.5361 -0.8441
vn 0.0171 0.4460 -0.8948
vn 0.0165 0.4442 -0.8958
vn 0.0170 0.4234 -0.9058
vn 0.0169 0.4229 -0.9060
vn 0.0165 0.4902 -0.8715
vn 0.0170 0.4879 -0.8727
vn 0.0160 0.4476 -0.8941
vn 0.0172 0.4471 -0.8943
vn 0.0017 0.5356 -0.8445
vn 0.0014 0.5350 -0.8448
vn 0.0069 0.5347 -0.8450
vn 0.0068 0.5341 -0.8454
vn 0.0154 0.4237 -0.9057
vn 0.0167 0.4237 -0.9057
vn 0.0151 0.4174 -0.9086
vn 0.0166 0.4175 -0.9085
vn 0.0170 0.4173 -0.9086
vn 0.0170 0.4169 -0.9088
vn 0.0171 0.4151 -0.9096
vn 0.0170 0.4149 -0.9097
vn 0.0171 0.4142 -0.9100
vn 0.0170 0.4143 -0.9100
vn 0.0308 0.5091 -0.8602
vn 0.0322 0.4805 -0.8764
vn 0.0294 0.4644 -0.8851
vn 0.0316 0.4613 -0.8867
vn 0.0274 0.4103 -0.9115
vn 0.0274 0.4107 -0.9114
vn 0.0274 0.4111 -0.9112
vn 0.0168 0.4153 -0.9095
vn 0.0150 0.4160 -0.9092
vn 0.0167 0.4158 -0.9093
vn 0.0150 0.4162 -0.9091
vn 0.0027 0.5346 -0.8451
vn 0.0068 0.5339 -0.8455
vn 0.0125 0.5343 -0.8452
vn 0.0126 0.5344 -0.8451
vn 0.0022 0.4903 -0.8716
vn 0.0001 0.4467 -0.8947
vn -0.0017 0.4221 -0.9065
vn 0.0030 0.5257 -0.8507
vn 0.0017 0.4149 -0.9098
vn 0.0017 0.4149 -0.9099
vn 0.0278 0.4149 -0.9094
vn 0.0270 0.4120 -0.9108
vn 0.0281 0.4138 -0.9099
vn 0.0257 0.4112 -0.9112
vn 0.0257 0.4117 -0.9110
vn 0.0257 0.4133 -0.9102
vn 0.0262 0.4171 -0.9085
vn 0.0289 0.4190 -0.9075
vn 0.0272 0.4232 -0.9056
vn 0.0297 0.4247 -0.9049
vn 0.0283 0.4378 -0.8986
vn 0.0306 0.4369 -0.8990
vn 0.0224 0.4134 -0.9103
vn 0.0224 0.4132 -0.9104
vn 0.0223 0.4141 -0.9100
vn 0.0189 0.4143 -0.9100
vn 0.0189 0.4144 -0.9099
vn 0.0188 0.4147 -0.9098
vn 0.0225 0.4164 -0.9089
vn 0.0187 0.4164 -0.9090
vn 0.0230 0.4224 -0.9061
vn 0.0187 0.4224 -0.9062
vn 0.0234 0.4394 -0.8980
vn 0.0183 0.4416 -0.8970
vn 0.0244 0.5101 -0.8598
vn 0.0259 0.5236 -0.8516
vn 0.0326 0.4586 -0.8880
vn 0.0316 0.4488 -0.8931
vn 0.0305 0.4363 -0.8993
vn 0.0297 0.4252 -0.9046
vn 0.0290 0.4198 -0.9072
vn 0.0094 0.5359 -0.8442
vn 0.0105 0.5370 -0.8435
vn 0.0097 0.5330 -0.8460
vn 0.0099 0.5337 -0.8456
vn 0.0240 0.4669 -0.8840
vn 0.0130 0.5126 -0.8585
vn 0.0160 0.4703 -0.8823
vn 0.0134 0.4770 -0.8788
vn 0.0154 0.4836 -0.8751
vn 0.0094 0.5156 -0.8568
vn 0.0116 0.5193 -0.8545
vn 0.0204 0.5329 -0.8460
vn 0.0112 0.5370 -0.8435
vn 0.0109 0.5374 -0.8433
vn 0.0120 0.5340 -0.8454
vn 0.0168 0.4151 -0.9096
vn 0.0145 0.5369 -0.8435
vn 0.0153 0.5231 -0.8521
vn 0.0141 0.5351 -0.8447
vn 0.0143 0.5335 -0.8457
vn 0.0140 0.5349 -0.8448
vn 0.0094 0.5364 -0.8439
vn 0.0152 0.5345 -0.8450
vn 0.0112 0.5360 -0.8441
vn 0.0099 0.5370 -0.8435
vn 0.0022 0.5335 -0.8458
vn 0.0170 0.5332 -0.8458
vn 0.0166 0.5246 -0.8512
vn 0.0150 0.4160 -0.9093
vn 0.0171 0.5346 -0.8449
vn 0.0106 0.4157 -0.9094
vn 0.0105 0.4157 -0.9095
vn 0.0019 0.4152 -0.9097
vn 0.0025 0.4166 -0.9091
vn 0.0033 0.4231 -0.9061
vn 0.0048 0.4475 -0.8943
vn 0.0067 0.4911 -0.8711
vn 0.0072 0.5255 -0.8508
vn 0.0070 0.5329 -0.8461
vn 0.0126 0.5347 -0.8449
vn 0.0127 0.5328 -0.8461
vn 0.0129 0.5250 -0.8510
vn 0.0128 0.4912 -0.8709
vn 0.0118 0.4478 -0.8940
vn 0.0110 0.4236 -0.9058
vn 0.0107 0.4172 -0.9088
vn 0.0106 0.4159 -0.9093
vn 0.0172 0.5341 -0.8452
vn -0.0004 0.5354 -0.8446
vn 0.0161 0.5340 -0.8453
# 137 vertex normals

vt 0.5141 0.8152 0.0000
vt 0.5124 0.8147 0.0000
vt 0.5090 0.8338 0.0000
vt 0.5073 0.8334 0.0000
vt 0.5171 0.8044 0.0000
vt 0.5153 0.8039 0.0000
vt 0.4932 0.8914 0.0000
vt 0.4915 0.8909 0.0000
vt 0.4853 0.9193 0.0000
vt 0.4835 0.9188 0.0000
vt 0.4999 0.8605 0.0000
vt 0.5016 0.8610 0.0000
vt 0.4766 0.9427 0.0000
vt 0.4783 0.9432 0.0000
vt 0.4727 0.9625 0.0000
vt 0.4709 0.9620 0.0000
vt 0.4688 0.9756 0.0000
vt 0.4671 0.9751 0.0000
vt 0.4671 0.9816 0.0000
vt 0.4654 0.9811 0.0000
vt 0.4665 0.9835 0.0000
vt 0.4648 0.9830 0.0000
vt 0.5171 0.7975 0.0000
vt 0.5188 0.7980 0.0000
vt 0.2731 0.9230 0.0000
vt 0.2322 0.9239 0.0000
vt 0.2724 0.9471 0.0000
vt 0.2319 0.9481 0.0000
vt 0.3504 0.8926 0.0000
vt 0.3116 0.8935 0.0000
vt 0.3495 0.9215 0.0000
vt 0.3106 0.9223 0.0000
vt 0.4719 0.8146 0.0000
vt 0.4715 0.7998 0.0000
vt 0.4306 0.8144 0.0000
vt 0.4302 0.7978 0.0000
vt 0.3487 0.9455 0.0000
vt 0.3096 0.9463 0.0000
vt 0.3481 0.9648 0.0000
vt 0.3088 0.9656 0.0000
vt 0.2719 0.9664 0.0000
vt 0.2315 0.9673 0.0000
vt 0.2715 0.9794 0.0000
vt 0.2313 0.9802 0.0000
vt 0.2713 0.9853 0.0000
vt 0.2312 0.9861 0.0000
vt 0.1016 0.8619 0.0000
vt 0.0591 0.8877 0.0000
vt 0.1041 0.9017 0.0000
vt 0.0573 0.9059 0.0000
vt 0.0876 0.9885 0.0000
vt 0.0875 0.9878 0.0000
vt 0.0613 0.9873 0.0000
vt 0.3080 0.9846 0.0000
vt 0.3474 0.9838 0.0000
vt 0.3082 0.9786 0.0000
vt 0.3476 0.9779 0.0000
vt 0.4609 0.7927 0.0000
vt 0.4301 0.7918 0.0000
vt 0.3979 0.7919 0.0000
vt 0.3978 0.7973 0.0000
vt 0.4712 0.8910 0.0000
vt 0.4711 0.9190 0.0000
vt 0.4710 0.9428 0.0000
vt 0.4714 0.8599 0.0000
vt 0.4347 0.9820 0.0000
vt 0.4344 0.9839 0.0000
vt 0.0106 0.9854 0.0000
vt 0.0093 0.9931 0.0000
vt 0.0498 0.9844 0.0000
vt 0.1155 0.9898 0.0000
vt 0.1155 0.9883 0.0000
vt 0.1088 0.9831 0.0000
vt 0.1081 0.9702 0.0000
vt 0.0510 0.9717 0.0000
vt 0.1070 0.9515 0.0000
vt 0.0528 0.9535 0.0000
vt 0.1057 0.9290 0.0000
vt 0.0547 0.9327 0.0000
vt 0.1502 0.9880 0.0000
vt 0.1501 0.9899 0.0000
vt 0.1500 0.9821 0.0000
vt 0.1926 0.9889 0.0000
vt 0.1926 0.9870 0.0000
vt 0.1927 0.9811 0.0000
vt 0.1497 0.9692 0.0000
vt 0.1928 0.9681 0.0000
vt 0.1492 0.9502 0.0000
vt 0.1930 0.9490 0.0000
vt 0.1485 0.9265 0.0000
vt 0.1932 0.9249 0.0000
vt 0.1466 0.8614 0.0000
vt 0.1345 0.8434 0.0000
vt 0.0233 0.9095 0.0000
vt 0.0216 0.9196 0.0000
vt 0.0190 0.9353 0.0000
vt 0.0157 0.9548 0.0000
vt 0.0127 0.9726 0.0000
vt 0.2766 0.8139 0.0000
vt 0.2330 0.8139 0.0000
vt 0.2756 0.8313 0.0000
vt 0.2330 0.8315 0.0000
vt 0.1477 0.8986 0.0000
vt 0.1935 0.8608 0.0000
vt 0.1934 0.8970 0.0000
vt 0.2326 0.8958 0.0000
vt 0.2739 0.8946 0.0000
vt 0.2329 0.8604 0.0000
vt 0.2748 0.8601 0.0000
vt 0.1581 0.8320 0.0000
vt 0.2046 0.8139 0.0000
vt 0.2317 0.8057 0.0000
vt 0.1934 0.8318 0.0000
vt 0.3079 0.9865 0.0000
vt 0.1812 0.8224 0.0000
vt 0.3126 0.8598 0.0000
vt 0.3139 0.8140 0.0000
vt 0.3134 0.8313 0.0000
vt 0.3134 0.8011 0.0000
vt 0.2773 0.8040 0.0000
vt 0.3265 0.7938 0.0000
vt 0.2918 0.7964 0.0000
vt 0.2617 0.7998 0.0000
vt 0.4717 0.8329 0.0000
vt 0.3518 0.8317 0.0000
vt 0.3512 0.8593 0.0000
vt 0.3473 0.9857 0.0000
vt 0.3522 0.8141 0.0000
vt 0.3928 0.9829 0.0000
vt 0.3927 0.9848 0.0000
vt 0.4345 0.9760 0.0000
vt 0.4342 0.9630 0.0000
vt 0.4337 0.9437 0.0000
vt 0.4331 0.9198 0.0000
vt 0.4324 0.8914 0.0000
vt 0.4316 0.8591 0.0000
vt 0.4310 0.8325 0.0000
vt 0.3973 0.8143 0.0000
vt 0.3967 0.8321 0.0000
vt 0.3959 0.8585 0.0000
vt 0.3949 0.8918 0.0000
vt 0.3942 0.9206 0.0000
vt 0.3936 0.9446 0.0000
vt 0.3932 0.9639 0.0000
vt 0.3929 0.9770 0.0000
vt 0.3519 0.7986 0.0000
vt 0.4922 0.7949 0.0000
vt 0.3628 0.7924 0.0000
# 148 texture coords

g _4136_17_265B_L_1_DTaSI__4136_17_265B_L
usemtl windowglass_2
s 1
f 1/1/1 2/2/1 3/3/2 
f 3/3/2 2/2/1 4/4/2 
f 5/5/3 6/6/3 1/1/1 
f 1/1/1 6/6/3 2/2/1 
f 7/7/4 8/8/5 9/9/6 
f 9/9/6 8/8/5 10/10/6 
f 11/11/7 12/12/7 4/4/2 
f 4/4/2 12/12/7 3/3/2 
f 10/10/6 13/13/8 9/9/6 
f 9/9/6 13/13/8 14/14/8 
f 8/8/5 7/7/4 11/11/7 
f 11/11/7 7/7/4 12/12/7 
f 14/14/8 13/13/8 15/15/9 
f 15/15/9 13/13/8 16/16/9 
f 15/15/9 16/16/9 17/17/10 
f 17/17/10 16/16/9 18/18/10 
f 17/17/10 18/18/10 19/19/11 
f 19/19/11 18/18/10 20/20/11 
f 19/19/11 20/20/11 21/21/12 
f 21/21/12 20/20/11 22/22/12 
f 23/23/13 6/6/3 24/24/13 
f 24/24/13 6/6/3 5/5/3 
s 5
f 25/25/14 26/26/15 27/27/16 
f 27/27/16 26/26/15 28/28/17 
f 29/29/18 30/30/19 31/31/20 
f 31/31/20 30/30/19 32/32/21 
f 33/33/22 34/34/23 35/35/24 
f 35/35/24 34/34/23 36/36/25 
f 37/37/26 38/38/27 39/39/28 
f 39/39/28 38/38/27 40/40/29 
f 27/27/16 28/28/17 41/41/30 
f 41/41/30 28/28/17 42/42/31 
f 41/41/30 42/42/31 43/43/32 
f 43/43/32 42/42/31 44/44/33 
f 43/43/32 44/44/33 45/45/34 
f 45/45/34 44/44/33 46/46/35 
f 47/47/36 48/48/37 49/49/38 
f 49/49/38 48/48/37 50/50/39 
f 51/51/40 52/52/41 53/53/42 
f 54/54/43 55/55/44 56/56/45 
f 56/56/45 55/55/44 57/57/46 
f 34/34/23 58/58/47 36/36/25 
f 36/36/25 58/58/47 59/59/48 
f 60/60/49 61/61/50 59/59/48 
f 59/59/48 61/61/50 36/36/25 
f 62/8/5 63/62/51 10/10/6 
f 10/10/6 63/62/51 64/63/52 
f 10/10/6 64/63/52 13/13/8 
f 13/13/8 64/63/52 65/64/53 
f 66/11/7 67/65/54 62/8/5 
f 62/8/5 67/65/54 63/62/51 
f 68/16/9 13/13/8 65/64/53 
f 20/20/11 69/66/55 22/22/12 
f 22/22/12 69/66/55 70/67/56 
f 53/53/42 71/68/57 72/69/58 
f 53/53/42 52/52/41 73/70/59 
f 74/71/60 75/72/61 51/51/40 
f 51/51/40 75/72/61 52/52/41 
f 73/70/59 52/52/41 76/73/62 
f 76/73/62 52/52/41 75/72/61 
f 77/74/63 78/75/64 76/73/62 
f 76/73/62 78/75/64 73/70/59 
f 79/76/65 80/77/66 77/74/63 
f 77/74/63 80/77/66 78/75/64 
f 81/78/67 82/79/68 79/76/65 
f 79/76/65 82/79/68 80/77/66 
f 83/80/69 75/72/61 84/81/70 
f 84/81/70 75/72/61 74/71/60 
f 76/73/62 75/72/61 85/82/71 
f 85/82/71 75/72/61 83/80/69 
f 84/81/70 86/83/72 83/80/69 
f 83/80/69 86/83/72 87/84/73 
f 83/80/69 87/84/73 85/82/71 
f 85/82/71 87/84/73 88/85/74 
f 85/82/71 88/85/74 89/86/75 
f 89/86/75 88/85/74 90/87/76 
f 89/86/75 90/87/76 91/88/77 
f 91/88/77 90/87/76 92/89/78 
f 91/88/77 92/89/78 93/90/79 
f 93/90/79 92/89/78 94/91/80 
f 47/47/36 95/92/81 96/93/82 
f 93/90/79 81/78/67 91/88/77 
f 91/88/77 81/78/67 79/76/65 
f 89/86/75 91/88/77 77/74/63 
f 77/74/63 91/88/77 79/76/65 
f 85/82/71 89/86/75 76/73/62 
f 76/73/62 89/86/75 77/74/63 
f 48/48/37 97/94/83 50/50/39 
f 98/95/84 50/50/39 97/94/83 
f 99/96/85 82/79/68 98/95/84 
f 98/95/84 82/79/68 50/50/39 
f 82/79/68 99/96/85 80/77/66 
f 80/77/66 99/96/85 100/97/86 
f 80/77/66 100/97/86 78/75/64 
f 78/75/64 100/97/86 101/98/87 
f 78/75/64 101/98/87 73/70/59 
f 73/70/59 101/98/87 71/68/57 
f 53/53/42 73/70/59 71/68/57 
f 102/99/88 103/100/89 104/101/90 
f 104/101/90 103/100/89 105/102/91 
f 47/47/36 49/49/38 95/92/81 
f 95/92/81 49/49/38 106/103/92 
f 107/104/93 95/92/81 108/105/94 
f 108/105/94 95/92/81 106/103/92 
f 109/106/95 110/107/96 111/108/97 
f 111/108/97 110/107/96 112/109/98 
f 95/92/81 113/110/99 96/93/82 
f 114/111/100 103/100/89 115/112/101 
f 116/113/102 105/102/91 114/111/100 
f 114/111/100 105/102/91 103/100/89 
f 108/105/94 109/106/95 107/104/93 
f 107/104/93 109/106/95 111/108/97 
f 28/28/17 92/89/78 42/42/31 
f 42/42/31 92/89/78 90/87/76 
f 44/44/33 88/85/74 46/46/35 
f 46/46/35 88/85/74 87/84/73 
f 54/54/43 45/45/34 117/114/103 
f 117/114/103 45/45/34 86/83/72 
f 45/45/34 46/46/35 86/83/72 
f 46/46/35 87/84/73 86/83/72 
f 42/42/31 90/87/76 44/44/33 
f 44/44/33 90/87/76 88/85/74 
f 26/26/15 94/91/80 28/28/17 
f 28/28/17 94/91/80 92/89/78 
f 113/110/99 116/113/102 118/115/104 
f 45/45/34 54/54/43 43/43/32 
f 43/43/32 54/54/43 56/56/45 
f 43/43/32 56/56/45 41/41/30 
f 41/41/30 56/56/45 40/40/29 
f 41/41/30 40/40/29 27/27/16 
f 27/27/16 40/40/29 38/38/27 
f 27/27/16 38/38/27 25/25/14 
f 25/25/14 38/38/27 32/32/21 
f 110/107/96 30/30/19 112/109/98 
f 112/109/98 30/30/19 119/116/105 
f 120/117/106 102/99/88 121/118/107 
f 121/118/107 102/99/88 104/101/90 
f 122/119/108 123/120/109 120/117/106 
f 120/117/106 123/120/109 102/99/88 
f 124/121/110 125/122/111 122/119/108 
f 126/123/112 123/120/109 125/122/111 
f 2/2/1 33/33/22 4/4/2 
f 4/4/2 33/33/22 127/124/113 
f 128/125/114 121/118/107 129/126/115 
f 129/126/115 121/118/107 119/116/105 
f 4/4/2 127/124/113 66/11/7 
f 66/11/7 127/124/113 67/65/54 
f 102/99/88 123/120/109 103/100/89 
f 103/100/89 123/120/109 115/112/101 
f 82/79/68 81/78/67 50/50/39 
f 50/50/39 81/78/67 49/49/38 
f 81/78/67 93/90/79 49/49/38 
f 49/49/38 93/90/79 106/103/92 
f 108/105/94 106/103/92 94/91/80 
f 94/91/80 106/103/92 93/90/79 
f 109/106/95 108/105/94 26/26/15 
f 26/26/15 108/105/94 94/91/80 
f 110/107/96 109/106/95 25/25/14 
f 25/25/14 109/106/95 26/26/15 
f 25/25/14 32/32/21 110/107/96 
f 110/107/96 32/32/21 30/30/19 
f 55/55/44 54/54/43 130/127/116 
f 130/127/116 54/54/43 117/114/103 
f 39/39/28 40/40/29 57/57/46 
f 57/57/46 40/40/29 56/56/45 
f 31/31/20 32/32/21 37/37/26 
f 37/37/26 32/32/21 38/38/27 
f 129/126/115 119/116/105 29/29/18 
f 29/29/18 119/116/105 30/30/19 
f 131/128/117 120/117/106 128/125/114 
f 128/125/114 120/117/106 121/118/107 
f 132/129/118 55/55/44 133/130/119 
f 133/130/119 55/55/44 130/127/116 
f 116/113/102 113/110/99 107/104/93 
f 107/104/93 113/110/99 95/92/81 
f 105/102/91 116/113/102 111/108/97 
f 111/108/97 116/113/102 107/104/93 
f 111/108/97 112/109/98 105/102/91 
f 105/102/91 112/109/98 104/101/90 
f 121/118/107 104/101/90 119/116/105 
f 119/116/105 104/101/90 112/109/98 
f 118/115/104 116/113/102 114/111/100 
f 133/130/119 70/67/56 132/129/118 
f 132/129/118 70/67/56 69/66/55 
f 18/18/10 134/131/120 20/20/11 
f 20/20/11 134/131/120 69/66/55 
f 68/16/9 135/132/121 18/18/10 
f 18/18/10 135/132/121 134/131/120 
f 65/64/53 136/133/122 68/16/9 
f 68/16/9 136/133/122 135/132/121 
f 64/63/52 137/134/123 65/64/53 
f 65/64/53 137/134/123 136/133/122 
f 137/134/123 64/63/52 138/135/124 
f 138/135/124 64/63/52 63/62/51 
f 139/136/125 138/135/124 67/65/54 
f 67/65/54 138/135/124 63/62/51 
f 140/137/126 139/136/125 127/124/113 
f 127/124/113 139/136/125 67/65/54 
f 35/35/24 140/137/126 33/33/22 
f 33/33/22 140/137/126 127/124/113 
f 61/61/50 141/138/127 36/36/25 
f 36/36/25 141/138/127 35/35/24 
f 140/137/126 35/35/24 142/139/128 
f 142/139/128 35/35/24 141/138/127 
f 139/136/125 140/137/126 143/140/129 
f 143/140/129 140/137/126 142/139/128 
f 144/141/130 138/135/124 143/140/129 
f 143/140/129 138/135/124 139/136/125 
f 145/142/131 137/134/123 144/141/130 
f 144/141/130 137/134/123 138/135/124 
f 146/143/132 136/133/122 145/142/131 
f 145/142/131 136/133/122 137/134/123 
f 147/144/133 135/132/121 146/143/132 
f 146/143/132 135/132/121 136/133/122 
f 148/145/134 134/131/120 147/144/133 
f 147/144/133 134/131/120 135/132/121 
f 132/129/118 69/66/55 148/145/134 
f 148/145/134 69/66/55 134/131/120 
f 115/112/101 123/120/109 126/123/112 
f 149/146/135 122/119/108 131/128/117 
f 131/128/117 122/119/108 120/117/106 
f 124/121/110 122/119/108 149/146/135 
f 122/119/108 125/122/111 123/120/109 
f 6/6/3 34/34/23 2/2/1 
f 2/2/1 34/34/23 33/33/22 
f 34/34/23 6/6/3 150/147/136 
f 150/147/136 6/6/3 23/23/13 
f 150/147/136 58/58/47 34/34/23 
f 148/145/134 57/57/46 132/129/118 
f 132/129/118 57/57/46 55/55/44 
f 147/144/133 39/39/28 148/145/134 
f 148/145/134 39/39/28 57/57/46 
f 146/143/132 37/37/26 147/144/133 
f 147/144/133 37/37/26 39/39/28 
f 145/142/131 31/31/20 146/143/132 
f 146/143/132 31/31/20 37/37/26 
f 31/31/20 145/142/131 29/29/18 
f 29/29/18 145/142/131 144/141/130 
f 29/29/18 144/141/130 129/126/115 
f 129/126/115 144/141/130 143/140/129 
f 142/139/128 128/125/114 143/140/129 
f 143/140/129 128/125/114 129/126/115 
f 141/138/127 131/128/117 142/139/128 
f 142/139/128 131/128/117 128/125/114 
f 61/61/50 149/146/135 141/138/127 
f 141/138/127 149/146/135 131/128/117 
f 149/146/135 61/61/50 151/148/137 
f 151/148/137 61/61/50 60/60/49 
f 124/121/110 149/146/135 151/148/137 
# 249 faces

