# 3ds Max Wavefront OBJ Exporter v0.97b - (c)2007 guruware
# File Created: 26.10.2015 11:08:50

mtllib P353_20_305B_L.mtl

#
# object P353_20_305B_L_1_DTaSI_P353_20_305B_L
#

v  -37.3280 32.9591 -88.1163
v  -45.3419 33.0569 -88.0540
v  -37.3361 40.0375 -85.6304
v  -45.3308 40.0633 -85.5898
v  -37.3162 26.1515 -90.3777
v  -45.3499 26.4656 -90.2554
v  -53.4020 33.1579 -88.0620
v  -53.4300 26.8710 -90.1724
v  -53.3713 40.0857 -85.6195
v  -45.3132 49.7705 -81.2910
v  -45.3163 45.4660 -83.3582
v  -53.3445 49.7163 -81.3780
v  -53.3540 45.4388 -83.4187
v  -37.3324 49.8234 -81.2534
v  -37.3274 45.4921 -83.3580
v  -37.3818 53.5319 -79.2705
v  -45.3363 53.4826 -79.3201
v  -37.4588 56.8380 -77.3149
v  -45.3842 56.7959 -77.3633
v  -53.3373 53.4173 -79.4162
v  -53.3470 56.7205 -77.4584
v  -37.5464 59.9619 -75.2924
v  -45.4557 59.9043 -75.3384
v  -37.6240 62.9118 -73.2230
v  -45.5302 62.8208 -73.2773
v  -53.3883 59.8045 -75.4301
v  -53.4461 62.6840 -73.3766
v  -61.4375 40.1338 -85.7032
v  -61.5195 33.3001 -88.1196
v  -61.5847 27.4623 -90.0831
v  -69.7598 33.4924 -88.1779
v  -69.8496 27.9543 -90.0442
v  -69.6382 40.1966 -85.7947
v  -61.3820 45.4603 -83.5021
v  -69.5466 45.4768 -83.5876
v  -61.3418 49.7337 -81.4486
v  -69.4773 49.7434 -81.5073
v  -61.2857 56.6732 -77.5129
v  -61.3063 53.4080 -79.4753
v  -69.3811 56.6486 -77.5290
v  -69.4225 53.4063 -79.5046
v  -61.3117 62.5573 -73.4623
v  -61.2901 59.7192 -75.4922
v  -69.3333 62.4570 -73.5251
v  -69.3515 59.6532 -75.5302
v  -78.0819 40.2632 -85.8478
v  -78.1881 33.7436 -88.1874
v  -78.2589 28.6868 -89.9028
v  -86.4822 33.9848 -88.1364
v  -86.5264 29.2376 -89.7750
v  -86.4111 40.3183 -85.8207
v  -77.9229 49.6660 -81.5585
v  -77.9943 45.4349 -83.6545
v  -86.2900 49.5540 -81.5478
v  -86.3469 45.3705 -83.6447
v  -77.8653 53.3636 -79.5109
v  -86.2404 53.2813 -79.4694
v  -77.8143 56.6411 -77.5089
v  -86.1876 56.6038 -77.4496
v  -77.7171 62.3996 -73.5555
v  -77.7628 59.6118 -75.5498
v  -85.8974 62.3187 -73.7759
v  -86.1213 59.5730 -75.5287
v  -94.3194 34.1472 -87.7149
v  -94.2680 40.3465 -85.3239
v  -94.3496 29.8914 -89.3797
v  -102.3149 34.3546 -87.4886
v  -102.3759 30.7540 -88.9124
v  -102.1637 40.4678 -85.0812
v  -94.1896 49.4596 -81.4210
v  -94.2263 45.3194 -83.2991
v  -101.7273 49.4877 -81.1797
v  -101.9891 45.3899 -83.0482
v  -94.1534 53.1606 -79.3553
v  -101.4105 53.1305 -79.1533
v  -94.1030 56.4899 -77.3483
v  -101.1350 56.3580 -77.2329
v  -94.0240 59.5149 -75.4450
v  -100.8630 59.5851 -75.7872
v  -93.9476 62.1750 -74.0418
v  -45.6238 67.8925 -69.3637
v  -45.5877 65.5586 -71.2117
v  -53.5515 67.6612 -69.5307
v  -53.5054 65.3735 -71.3434
v  -37.6935 68.0748 -69.2419
v  -37.6710 65.6961 -71.1267
v  -61.3692 67.4313 -69.7092
v  -61.3421 65.1989 -71.4727
v  -69.3204 67.2916 -69.7905
v  -69.3256 65.0966 -71.5306
v  -85.7288 65.1002 -71.8359
v  -77.6835 65.1279 -71.4480
v  -77.6646 67.4182 -69.5886
v  -37.6982 70.2394 -67.4665
v  -34.2209 70.1952 -67.3189
v  -33.9722 67.9369 -69.1989
v  -45.6377 70.0440 -67.5854
v  -53.5916 69.7856 -67.7663
v  -61.3978 69.3903 -68.0846
v  -69.3082 68.7938 -68.5291
v  -110.6096 40.8018 -84.7714
v  -110.1858 45.7000 -82.7148
v  -28.6711 33.0016 -88.2694
v  -27.7970 26.2755 -90.5194
v  -29.6975 40.0805 -85.7574
v  -30.4793 45.5132 -83.4554
v  -31.1075 49.8023 -81.3308
v  -31.6729 53.4507 -79.3507
v  -32.1977 56.7012 -77.4010
v  -32.7042 59.7968 -75.3674
v  -33.1800 62.7401 -73.2721
v  -33.6129 65.5336 -71.1374
v  -111.0838 34.7310 -87.1323
v  -111.2493 31.3016 -88.4621
v  -82.6309 66.5841 -70.7061
v  -108.9616 53.3959 -79.1220
v  -109.8440 49.7864 -80.7778
v  -87.4775 65.4309 -71.6588
v  -96.6118 61.9481 -74.2856
v  -92.2702 64.0441 -72.7498
v  -105.0030 56.5289 -77.3964
v  -112.3176 49.9141 -80.7124
v  -114.9985 45.9300 -82.6277
v  -116.9482 41.1220 -84.5162
v  -117.9404 35.0760 -86.8091
v  -118.2515 32.0310 -88.3832
# 126 vertices

vn -0.0043 0.3323 -0.9432
vn -0.0042 0.3319 -0.9433
vn -0.0049 0.3620 -0.9322
vn -0.0049 0.3613 -0.9324
vn -0.0035 0.3222 -0.9467
vn -0.0042 0.3313 -0.9435
vn -0.0049 0.3605 -0.9328
vn -0.0064 0.4656 -0.8849
vn -0.0055 0.4202 -0.9074
vn -0.0064 0.4642 -0.8857
vn -0.0054 0.4182 -0.9083
vn -0.0064 0.4667 -0.8844
vn -0.0055 0.4221 -0.9065
vn -0.0069 0.4880 -0.8728
vn -0.0070 0.4865 -0.8737
vn -0.0053 0.5274 -0.8496
vn -0.0054 0.5260 -0.8505
vn -0.0070 0.4851 -0.8744
vn -0.0055 0.5241 -0.8516
vn -0.0044 0.5508 -0.8346
vn -0.0045 0.5487 -0.8360
vn -0.0036 0.5741 -0.8188
vn -0.0037 0.5718 -0.8204
vn -0.0045 0.5463 -0.8376
vn -0.0037 0.5689 -0.8224
vn -0.0049 0.3597 -0.9331
vn -0.0042 0.3309 -0.9437
vn -0.0041 0.3306 -0.9438
vn -0.0049 0.3590 -0.9333
vn -0.0054 0.4165 -0.9091
vn -0.0054 0.4148 -0.9099
vn -0.0063 0.4634 -0.8861
vn -0.0063 0.4625 -0.8866
vn -0.0056 0.5223 -0.8528
vn -0.0070 0.4842 -0.8749
vn -0.0056 0.5208 -0.8537
vn -0.0070 0.4834 -0.8754
vn -0.0038 0.5662 -0.8242
vn -0.0046 0.5440 -0.8391
vn -0.0039 0.5639 -0.8258
vn -0.0047 0.5423 -0.8402
vn -0.0049 0.3583 -0.9336
vn -0.0041 0.3305 -0.9438
vn -0.0049 0.3576 -0.9339
vn -0.0062 0.4610 -0.8874
vn -0.0054 0.4126 -0.9109
vn -0.0062 0.4594 -0.8882
vn -0.0054 0.4104 -0.9119
vn -0.0070 0.4825 -0.8759
vn -0.0070 0.4815 -0.8764
vn -0.0057 0.5196 -0.8544
vn -0.0058 0.5183 -0.8552
vn -0.0039 0.5618 -0.8272
vn -0.0047 0.5409 -0.8411
vn -0.0040 0.5597 -0.8287
vn -0.0048 0.5396 -0.8419
vn -0.0041 0.3304 -0.9438
vn -0.0049 0.3571 -0.9341
vn -0.0049 0.3570 -0.9341
vn -0.0061 0.4585 -0.8887
vn -0.0054 0.4090 -0.9125
vn -0.0061 0.4590 -0.8884
vn -0.0054 0.4092 -0.9124
vn -0.0070 0.4805 -0.8770
vn -0.0070 0.4802 -0.8771
vn -0.0059 0.5167 -0.8562
vn -0.0059 0.5152 -0.8571
vn -0.0049 0.5385 -0.8426
vn -0.0040 0.5572 -0.8304
vn -0.0027 0.6157 -0.7879
vn -0.0031 0.5973 -0.8020
vn -0.0027 0.6140 -0.7893
vn -0.0031 0.5959 -0.8031
vn -0.0027 0.6175 -0.7866
vn -0.0031 0.5982 -0.8013
vn -0.0027 0.6123 -0.7906
vn -0.0031 0.5940 -0.8045
vn -0.0027 0.6113 -0.7914
vn -0.0032 0.5916 -0.8062
vn -0.0032 0.5905 -0.8070
vn -0.0032 0.5907 -0.8068
vn -0.0027 0.6128 -0.7903
vn -0.0028 0.6407 -0.7678
vn -0.0028 0.6425 -0.7662
vn -0.0027 0.6169 -0.7870
vn -0.0028 0.6366 -0.7712
vn -0.0028 0.6324 -0.7746
vn -0.0027 0.6283 -0.7779
vn -0.0027 0.6235 -0.7818
vn -0.0049 0.3578 -0.9338
vn -0.0054 0.4119 -0.9112
vn -0.0043 0.3332 -0.9428
vn -0.0049 0.3633 -0.9316
vn -0.0055 0.4231 -0.9061
vn -0.0065 0.4667 -0.8844
vn -0.0069 0.4878 -0.8729
vn -0.0053 0.5268 -0.8500
vn -0.0044 0.5506 -0.8347
vn -0.0036 0.5737 -0.8190
vn -0.0042 0.3312 -0.9435
vn -0.0030 0.5993 -0.8005
vn -0.0071 0.4816 -0.8764
vn -0.0062 0.4623 -0.8867
vn -0.0040 0.5576 -0.8301
vn -0.0037 0.5697 -0.8218
vn -0.0059 0.5172 -0.8558
vn -0.0062 0.4637 -0.8860
vn -0.0054 0.4134 -0.9105
vn -0.0049 0.3586 -0.9335
vn -0.0042 0.3320 -0.9433
# 110 vertex normals

vt 0.4043 0.5988 0.0000
vt 0.4316 0.5992 0.0000
vt 0.4043 0.6244 0.0000
vt 0.4315 0.6245 0.0000
vt 0.4042 0.5769 0.0000
vt 0.4316 0.5781 0.0000
vt 0.4590 0.5995 0.0000
vt 0.4591 0.5795 0.0000
vt 0.4589 0.6246 0.0000
vt 0.4315 0.6607 0.0000
vt 0.4315 0.6445 0.0000
vt 0.4588 0.6604 0.0000
vt 0.4589 0.6443 0.0000
vt 0.4043 0.6609 0.0000
vt 0.4043 0.6445 0.0000
vt 0.4045 0.6752 0.0000
vt 0.4316 0.6750 0.0000
vt 0.4047 0.6883 0.0000
vt 0.4317 0.6881 0.0000
vt 0.4588 0.6747 0.0000
vt 0.4588 0.6878 0.0000
vt 0.4050 0.7010 0.0000
vt 0.4320 0.7008 0.0000
vt 0.4053 0.7132 0.0000
vt 0.4322 0.7129 0.0000
vt 0.4590 0.7004 0.0000
vt 0.4592 0.7124 0.0000
vt 0.4864 0.6246 0.0000
vt 0.4867 0.5999 0.0000
vt 0.4869 0.5815 0.0000
vt 0.5147 0.6005 0.0000
vt 0.5150 0.5832 0.0000
vt 0.5143 0.6247 0.0000
vt 0.4862 0.6443 0.0000
vt 0.5140 0.6442 0.0000
vt 0.4861 0.6604 0.0000
vt 0.5138 0.6604 0.0000
vt 0.4859 0.6876 0.0000
vt 0.4859 0.6746 0.0000
vt 0.5134 0.6875 0.0000
vt 0.5136 0.6746 0.0000
vt 0.4860 0.7119 0.0000
vt 0.4859 0.7000 0.0000
vt 0.5133 0.7115 0.0000
vt 0.5133 0.6998 0.0000
vt 0.5431 0.6249 0.0000
vt 0.5434 0.6013 0.0000
vt 0.5437 0.5857 0.0000
vt 0.5717 0.6021 0.0000
vt 0.5718 0.5876 0.0000
vt 0.5714 0.6251 0.0000
vt 0.5425 0.6601 0.0000
vt 0.5428 0.6440 0.0000
vt 0.5710 0.6597 0.0000
vt 0.5712 0.6438 0.0000
vt 0.5423 0.6744 0.0000
vt 0.5708 0.6743 0.0000
vt 0.5422 0.6875 0.0000
vt 0.5707 0.6875 0.0000
vt 0.5418 0.7113 0.0000
vt 0.5420 0.6996 0.0000
vt 0.5697 0.7109 0.0000
vt 0.5704 0.6995 0.0000
vt 0.5984 0.6028 0.0000
vt 0.5982 0.6254 0.0000
vt 0.5985 0.5900 0.0000
vt 0.6256 0.6038 0.0000
vt 0.6258 0.5933 0.0000
vt 0.6251 0.6261 0.0000
vt 0.5979 0.6596 0.0000
vt 0.5980 0.6439 0.0000
vt 0.6236 0.6601 0.0000
vt 0.6245 0.6444 0.0000
vt 0.5978 0.6741 0.0000
vt 0.6225 0.6743 0.0000
vt 0.5976 0.6873 0.0000
vt 0.6216 0.6871 0.0000
vt 0.5974 0.6995 0.0000
vt 0.6206 0.7000 0.0000
vt 0.5971 0.7104 0.0000
vt 0.4325 0.7348 0.0000
vt 0.4324 0.7246 0.0000
vt 0.4595 0.7339 0.0000
vt 0.4594 0.7239 0.0000
vt 0.4055 0.7354 0.0000
vt 0.4055 0.7251 0.0000
vt 0.4862 0.7329 0.0000
vt 0.4861 0.7232 0.0000
vt 0.5132 0.7323 0.0000
vt 0.5132 0.7228 0.0000
vt 0.5698 0.7235 0.0000
vt 0.5417 0.7230 0.0000
vt 0.5416 0.7331 0.0000
vt 0.4055 0.7422 0.0000
vt 0.3790 0.7430 0.0000
vt 0.3789 0.7357 0.0000
vt 0.4326 0.7415 0.0000
vt 0.4597 0.7405 0.0000
vt 0.4862 0.7388 0.0000
vt 0.5132 0.7363 0.0000
vt 0.6538 0.6276 0.0000
vt 0.6524 0.6459 0.0000
vt 0.3771 0.5982 0.0000
vt 0.3769 0.5764 0.0000
vt 0.3773 0.6240 0.0000
vt 0.3775 0.6443 0.0000
vt 0.3776 0.6607 0.0000
vt 0.3778 0.6749 0.0000
vt 0.3781 0.6879 0.0000
vt 0.3784 0.7006 0.0000
vt 0.3786 0.7130 0.0000
vt 0.3788 0.7251 0.0000
vt 0.6554 0.6054 0.0000
vt 0.6560 0.5956 0.0000
vt 0.5699 0.7271 0.0000
vt 0.6482 0.6757 0.0000
vt 0.6512 0.6616 0.0000
vt 0.5779 0.7236 0.0000
vt 0.6042 0.7109 0.0000
vt 0.5970 0.7156 0.0000
vt 0.6347 0.6879 0.0000
vt 0.6596 0.6622 0.0000
vt 0.6688 0.6467 0.0000
vt 0.6754 0.6289 0.0000
vt 0.6788 0.6069 0.0000
vt 0.6800 0.5972 0.0000
# 126 texture coords

g P353_20_305B_L_1_DTaSI_P353_20_305B_L
usemtl windowglass_1SG
s 1
f 1/1/1 2/2/2 3/3/3 
f 3/3/3 2/2/2 4/4/4 
f 5/5/5 6/6/5 1/1/1 
f 1/1/1 6/6/5 2/2/2 
f 7/7/6 2/2/2 8/8/5 
f 8/8/5 2/2/2 6/6/5 
f 9/9/7 4/4/4 7/7/6 
f 7/7/6 4/4/4 2/2/2 
f 10/10/8 11/11/9 12/12/10 
f 12/12/10 11/11/9 13/13/11 
f 14/14/12 15/15/13 10/10/8 
f 10/10/8 15/15/13 11/11/9 
f 4/4/4 11/11/9 3/3/3 
f 3/3/3 11/11/9 15/15/13 
f 9/9/7 13/13/11 4/4/4 
f 4/4/4 13/13/11 11/11/9 
f 16/16/14 17/17/15 18/18/16 
f 18/18/16 17/17/15 19/19/17 
f 14/14/12 10/10/8 16/16/14 
f 16/16/14 10/10/8 17/17/15 
f 12/12/10 20/20/18 10/10/8 
f 10/10/8 20/20/18 17/17/15 
f 19/19/17 17/17/15 21/21/19 
f 21/21/19 17/17/15 20/20/18 
f 22/22/20 23/23/21 24/24/22 
f 24/24/22 23/23/21 25/25/23 
f 18/18/16 19/19/17 22/22/20 
f 22/22/20 19/19/17 23/23/21 
f 21/21/19 26/26/24 19/19/17 
f 19/19/17 26/26/24 23/23/21 
f 27/27/25 25/25/23 26/26/24 
f 26/26/24 25/25/23 23/23/21 
f 9/9/7 7/7/6 28/28/26 
f 28/28/26 7/7/6 29/29/27 
f 8/8/5 30/30/5 7/7/6 
f 7/7/6 30/30/5 29/29/27 
f 31/31/28 29/29/27 32/32/5 
f 32/32/5 29/29/27 30/30/5 
f 28/28/26 29/29/27 33/33/29 
f 33/33/29 29/29/27 31/31/28 
f 28/28/26 34/34/30 9/9/7 
f 9/9/7 34/34/30 13/13/11 
f 33/33/29 35/35/31 28/28/26 
f 28/28/26 35/35/31 34/34/30 
f 36/36/32 34/34/30 37/37/33 
f 37/37/33 34/34/30 35/35/31 
f 12/12/10 13/13/11 36/36/32 
f 36/36/32 13/13/11 34/34/30 
f 38/38/34 39/39/35 40/40/36 
f 40/40/36 39/39/35 41/41/37 
f 21/21/19 20/20/18 38/38/34 
f 38/38/34 20/20/18 39/39/35 
f 36/36/32 39/39/35 12/12/10 
f 12/12/10 39/39/35 20/20/18 
f 37/37/33 41/41/37 36/36/32 
f 36/36/32 41/41/37 39/39/35 
f 42/42/38 43/43/39 44/44/40 
f 44/44/40 43/43/39 45/45/41 
f 27/27/25 26/26/24 42/42/38 
f 42/42/38 26/26/24 43/43/39 
f 38/38/34 43/43/39 21/21/19 
f 21/21/19 43/43/39 26/26/24 
f 40/40/36 45/45/41 38/38/34 
f 38/38/34 45/45/41 43/43/39 
f 33/33/29 31/31/28 46/46/42 
f 46/46/42 31/31/28 47/47/28 
f 32/32/5 48/48/5 31/31/28 
f 31/31/28 48/48/5 47/47/28 
f 49/49/43 47/47/28 50/50/5 
f 50/50/5 47/47/28 48/48/5 
f 51/51/44 46/46/42 49/49/43 
f 49/49/43 46/46/42 47/47/28 
f 52/52/45 53/53/46 54/54/47 
f 54/54/47 53/53/46 55/55/48 
f 37/37/33 35/35/31 52/52/45 
f 52/52/45 35/35/31 53/53/46 
f 46/46/42 53/53/46 33/33/29 
f 33/33/29 53/53/46 35/35/31 
f 51/51/44 55/55/48 46/46/42 
f 46/46/42 55/55/48 53/53/46 
f 52/52/45 56/56/49 37/37/33 
f 37/37/33 56/56/49 41/41/37 
f 54/54/47 57/57/50 52/52/45 
f 52/52/45 57/57/50 56/56/49 
f 58/58/51 56/56/49 59/59/52 
f 59/59/52 56/56/49 57/57/50 
f 40/40/36 41/41/37 58/58/51 
f 58/58/51 41/41/37 56/56/49 
f 60/60/53 61/61/54 62/62/55 
f 62/62/55 61/61/54 63/63/56 
f 44/44/40 45/45/41 60/60/53 
f 60/60/53 45/45/41 61/61/54 
f 58/58/51 61/61/54 40/40/36 
f 40/40/36 61/61/54 45/45/41 
f 59/59/52 63/63/56 58/58/51 
f 58/58/51 63/63/56 61/61/54 
f 49/49/43 64/64/57 51/51/44 
f 51/51/44 64/64/57 65/65/58 
f 50/50/5 66/66/5 49/49/43 
f 49/49/43 66/66/5 64/64/57 
f 67/67/43 64/64/57 68/68/5 
f 68/68/5 64/64/57 66/66/5 
f 69/69/59 65/65/58 67/67/43 
f 67/67/43 65/65/58 64/64/57 
f 70/70/60 71/71/61 72/72/62 
f 72/72/62 71/71/61 73/73/63 
f 54/54/47 55/55/48 70/70/60 
f 70/70/60 55/55/48 71/71/61 
f 51/51/44 65/65/58 55/55/48 
f 55/55/48 65/65/58 71/71/61 
f 73/73/63 71/71/61 69/69/59 
f 69/69/59 71/71/61 65/65/58 
f 70/70/60 74/74/64 54/54/47 
f 54/54/47 74/74/64 57/57/50 
f 72/72/62 75/75/65 70/70/60 
f 70/70/60 75/75/65 74/74/64 
f 76/76/66 74/74/64 77/77/67 
f 77/77/67 74/74/64 75/75/65 
f 59/59/52 57/57/50 76/76/66 
f 76/76/66 57/57/50 74/74/64 
f 76/76/66 78/78/68 59/59/52 
f 59/59/52 78/78/68 63/63/56 
f 77/77/67 79/79/68 76/76/66 
f 76/76/66 79/79/68 78/78/68 
f 62/62/55 63/63/56 80/80/69 
f 80/80/69 63/63/56 78/78/68 
f 81/81/70 82/82/71 83/83/72 
f 83/83/72 82/82/71 84/84/73 
f 85/85/74 86/86/75 81/81/70 
f 81/81/70 86/86/75 82/82/71 
f 25/25/23 82/82/71 24/24/22 
f 24/24/22 82/82/71 86/86/75 
f 27/27/25 84/84/73 25/25/23 
f 25/25/23 84/84/73 82/82/71 
f 87/87/76 88/88/77 89/89/78 
f 89/89/78 88/88/77 90/90/79 
f 83/83/72 84/84/73 87/87/76 
f 87/87/76 84/84/73 88/88/77 
f 42/42/38 88/88/77 27/27/25 
f 27/27/25 88/88/77 84/84/73 
f 44/44/40 90/90/79 42/42/38 
f 42/42/38 90/90/79 88/88/77 
f 62/62/55 91/91/80 60/60/53 
f 60/60/53 91/91/80 92/92/81 
f 93/93/82 89/89/78 92/92/81 
f 92/92/81 89/89/78 90/90/79 
f 60/60/53 92/92/81 44/44/40 
f 44/44/40 92/92/81 90/90/79 
f 94/94/83 95/95/84 85/85/74 
f 85/85/74 95/95/84 96/96/85 
f 81/81/70 97/97/86 85/85/74 
f 85/85/74 97/97/86 94/94/83 
f 83/83/72 98/98/87 81/81/70 
f 81/81/70 98/98/87 97/97/86 
f 87/87/76 99/99/88 83/83/72 
f 83/83/72 99/99/88 98/98/87 
f 89/89/78 100/100/89 87/87/76 
f 87/87/76 100/100/89 99/99/88 
f 101/101/90 102/102/91 69/69/59 
f 69/69/59 102/102/91 73/73/63 
f 1/1/1 103/103/92 5/5/5 
f 5/5/5 103/103/92 104/104/5 
f 3/3/3 105/105/93 1/1/1 
f 1/1/1 105/105/93 103/103/92 
f 15/15/13 106/106/94 3/3/3 
f 3/3/3 106/106/94 105/105/93 
f 14/14/12 107/107/95 15/15/13 
f 15/15/13 107/107/95 106/106/94 
f 16/16/14 108/108/96 14/14/12 
f 14/14/12 108/108/96 107/107/95 
f 18/18/16 109/109/97 16/16/14 
f 16/16/14 109/109/97 108/108/96 
f 22/22/20 110/110/98 18/18/16 
f 18/18/16 110/110/98 109/109/97 
f 24/24/22 111/111/99 22/22/20 
f 22/22/20 111/111/99 110/110/98 
f 86/86/75 112/112/71 24/24/22 
f 24/24/22 112/112/71 111/111/99 
f 85/85/74 96/96/85 86/86/75 
f 86/86/75 96/96/85 112/112/71 
f 67/67/43 113/113/100 69/69/59 
f 69/69/59 113/113/100 101/101/90 
f 68/68/5 114/114/5 67/67/43 
f 67/67/43 114/114/5 113/113/100 
f 91/91/80 115/115/101 92/92/81 
f 92/92/81 115/115/101 93/93/82 
f 75/75/65 72/72/62 116/116/102 
f 116/116/102 72/72/62 117/117/103 
f 72/72/62 73/73/63 117/117/103 
f 117/117/103 73/73/63 102/102/91 
f 118/118/80 115/115/101 91/91/80 
f 62/62/55 80/80/69 91/91/80 
f 80/80/69 119/119/104 120/120/105 
f 79/79/68 119/119/104 78/78/68 
f 78/78/68 119/119/104 80/80/69 
f 77/77/67 121/121/106 79/79/68 
f 116/116/102 121/121/106 75/75/65 
f 75/75/65 121/121/106 77/77/67 
f 122/122/107 116/116/102 117/117/103 
f 123/123/108 122/122/107 102/102/91 
f 102/102/91 122/122/107 117/117/103 
f 124/124/109 123/123/108 101/101/90 
f 101/101/90 123/123/108 102/102/91 
f 125/125/110 124/124/109 113/113/100 
f 113/113/100 124/124/109 101/101/90 
f 125/125/110 113/113/100 126/126/5 
f 126/126/5 113/113/100 114/114/5 
f 93/93/82 100/100/89 89/89/78 
f 80/80/69 120/120/105 91/91/80 
f 91/91/80 120/120/105 118/118/80 
# 210 faces

