# 3ds Max Wavefront OBJ Exporter v0.97b - (c)2007 guruware
# File Created: 04.12.2015 17:04:12

mtllib P353_20_345A_C.mtl

#
# object P353_20_345A_C_1_DaS_P353_20_345A_C
#

v  -16.6476 84.3187 -7.4632
v  -24.0568 84.6357 -7.4150
v  -16.6676 84.4986 0.0000
v  -24.0667 84.8113 0.0000
v  11.4779 81.2034 -23.2122
v  5.2621 81.8928 -23.1498
v  11.4943 81.8030 -15.4253
v  5.2579 82.4735 -15.3011
v  -16.5438 83.5820 -22.9625
v  -8.7498 83.0943 -23.0258
v  -16.4598 83.0251 -30.9986
v  -8.6952 82.5380 -30.9987
v  -32.0708 84.1971 -22.8673
v  -24.0523 83.9365 -22.9165
v  -32.0711 83.6492 -30.9985
v  -24.0578 83.4129 -31.0031
v  11.5120 81.9835 -7.7127
v  16.3208 81.3920 -7.7717
v  16.3122 81.2017 -15.5433
v  -1.0089 83.2029 -7.5965
v  5.2571 82.6493 -7.6506
v  -0.9902 83.0277 -15.1929
v  -8.8239 83.8287 -7.5264
v  -16.6277 84.1388 -14.9264
v  -8.8045 83.6506 -15.0529
v  16.2416 80.6042 -23.2722
v  11.4615 80.6037 -30.9991
v  16.1711 80.0066 -31.0011
v  16.3294 81.5823 0.0000
v  21.1234 80.9512 0.0000
v  21.1236 80.7488 -7.8366
v  21.1237 80.5464 -15.6732
v  21.1227 79.9137 -23.3362
v  5.2664 81.3122 -30.9985
v  -0.9404 81.9035 -30.9989
v  -0.9653 82.4656 -23.0959
v  5.2563 82.8251 0.0000
v  11.5298 82.1641 0.0000
v  -8.8433 84.0067 0.0000
v  -1.0276 83.3782 0.0000
v  -24.0469 84.4600 -14.8300
v  -32.0705 84.7449 -14.7361
v  -32.0704 84.9136 -7.3681
v  -24.0568 84.6357 7.4150
v  -16.6476 84.3187 7.4632
v  5.2579 82.4735 15.3011
v  5.2621 81.8928 23.1498
v  11.4943 81.8030 15.4253
v  11.4779 81.2034 23.2122
v  -8.6952 82.5380 30.9987
v  -8.7498 83.0943 23.0258
v  -16.4598 83.0252 30.9986
v  -16.5438 83.5820 22.9625
v  -24.0578 83.4129 31.0031
v  -24.0523 83.9365 22.9165
v  -32.0711 83.6492 30.9985
v  -32.0708 84.1971 22.8673
v  16.3122 81.2017 15.5433
v  16.3208 81.3920 7.7717
v  11.5120 81.9835 7.7127
v  5.2571 82.6493 7.6506
v  -0.9902 83.0277 15.1929
v  -1.0089 83.2029 7.5965
v  -8.8045 83.6506 15.0529
v  -8.8239 83.8287 7.5264
v  -16.6277 84.1388 14.9264
v  16.1711 80.0066 31.0011
v  16.2416 80.6042 23.2722
v  11.4615 80.6037 30.9991
v  21.1236 80.7488 7.8366
v  21.1237 80.5464 15.6732
v  21.1227 79.9136 23.3362
v  5.2664 81.3122 30.9985
v  -0.9404 81.9035 30.9988
v  -0.9653 82.4656 23.0959
v  -24.0469 84.4600 14.8300
v  -32.0705 84.7449 14.7361
v  -32.0704 84.9136 7.3681
v  21.1218 79.2809 -30.9993
v  -32.0703 85.0823 0.0000
v  21.1218 79.2809 30.9993
# 81 vertices

vn 0.0528 0.9983 -0.0237
vn 0.0384 0.9990 -0.0235
vn 0.0528 0.9986 -0.0000
vn 0.0381 0.9993 -0.0000
vn 0.1154 0.9904 -0.0758
vn 0.0999 0.9923 -0.0734
vn 0.1136 0.9923 -0.0498
vn 0.0975 0.9941 -0.0485
vn 0.0543 0.9962 -0.0676
vn 0.0707 0.9951 -0.0692
vn 0.0559 0.9946 -0.0876
vn 0.0715 0.9935 -0.0881
vn 0.0208 0.9976 -0.0661
vn 0.0391 0.9970 -0.0662
vn 0.0201 0.9960 -0.0865
vn 0.0394 0.9954 -0.0875
vn 0.1127 0.9934 -0.0235
vn 0.1271 0.9916 -0.0245
vn 0.1285 0.9904 -0.0514
vn 0.0833 0.9963 -0.0230
vn 0.0967 0.9950 -0.0230
vn 0.0832 0.9954 -0.0473
vn 0.0710 0.9972 -0.0234
vn 0.0529 0.9975 -0.0465
vn 0.0704 0.9964 -0.0469
vn 0.1311 0.9883 -0.0783
vn 0.1181 0.9887 -0.0923
vn 0.1347 0.9864 -0.0946
vn 0.1263 0.9920 -0.0000
vn 0.1460 0.9893 -0.0000
vn 0.1460 0.9890 -0.0252
vn 0.1463 0.9879 -0.0524
vn 0.1469 0.9859 -0.0800
vn 0.1031 0.9905 -0.0905
vn 0.0866 0.9923 -0.0889
vn 0.0846 0.9939 -0.0706
vn 0.0965 0.9953 -0.0000
vn 0.1121 0.9937 -0.0000
vn 0.0712 0.9975 -0.0000
vn 0.0834 0.9965 -0.0000
vn 0.0387 0.9982 -0.0459
vn 0.0209 0.9987 -0.0454
vn 0.0205 0.9995 -0.0228
vn 0.0384 0.9990 0.0235
vn 0.0528 0.9983 0.0237
vn 0.0975 0.9941 0.0485
vn 0.0999 0.9923 0.0734
vn 0.1136 0.9923 0.0498
vn 0.1154 0.9904 0.0758
vn 0.0715 0.9935 0.0881
vn 0.0707 0.9951 0.0692
vn 0.0559 0.9946 0.0876
vn 0.0543 0.9962 0.0676
vn 0.0394 0.9954 0.0875
vn 0.0391 0.9970 0.0662
vn 0.0201 0.9960 0.0865
vn 0.0208 0.9976 0.0661
vn 0.1285 0.9904 0.0514
vn 0.1271 0.9916 0.0245
vn 0.1127 0.9934 0.0235
vn 0.0967 0.9950 0.0230
vn 0.0832 0.9954 0.0473
vn 0.0833 0.9963 0.0230
vn 0.0704 0.9964 0.0469
vn 0.0710 0.9972 0.0234
vn 0.0529 0.9975 0.0465
vn 0.1347 0.9864 0.0946
vn 0.1311 0.9883 0.0783
vn 0.1181 0.9887 0.0923
vn 0.1460 0.9890 0.0252
vn 0.1463 0.9879 0.0524
vn 0.1469 0.9859 0.0800
vn 0.1031 0.9905 0.0905
vn 0.0866 0.9923 0.0889
vn 0.0846 0.9939 0.0706
vn 0.0387 0.9982 0.0459
vn 0.0209 0.9987 0.0454
vn 0.0205 0.9995 0.0228
vn 0.1485 0.9843 -0.0954
vn 0.0205 0.9998 -0.0000
vn 0.1485 0.9843 0.0954
# 81 vertex normals

vt 0.3251 0.3564 0.0000
vt 0.3380 0.3565 0.0000
vt 0.3252 0.3694 0.0000
vt 0.3380 0.3694 0.0000
vt 0.2761 0.3290 0.0000
vt 0.2869 0.3291 0.0000
vt 0.2761 0.3425 0.0000
vt 0.2870 0.3428 0.0000
vt 0.3249 0.3294 0.0000
vt 0.3114 0.3293 0.0000
vt 0.3248 0.3154 0.0000
vt 0.3113 0.3154 0.0000
vt 0.3520 0.3296 0.0000
vt 0.3380 0.3295 0.0000
vt 0.3520 0.3154 0.0000
vt 0.3380 0.3154 0.0000
vt 0.2761 0.3560 0.0000
vt 0.2677 0.3559 0.0000
vt 0.2677 0.3423 0.0000
vt 0.2979 0.3562 0.0000
vt 0.2870 0.3561 0.0000
vt 0.2978 0.3430 0.0000
vt 0.3115 0.3563 0.0000
vt 0.3251 0.3434 0.0000
vt 0.3115 0.3432 0.0000
vt 0.2678 0.3289 0.0000
vt 0.2761 0.3154 0.0000
vt 0.2679 0.3154 0.0000
vt 0.2677 0.3694 0.0000
vt 0.2593 0.3694 0.0000
vt 0.2593 0.3558 0.0000
vt 0.2593 0.3421 0.0000
vt 0.2593 0.3288 0.0000
vt 0.2869 0.3154 0.0000
vt 0.2978 0.3154 0.0000
vt 0.2978 0.3292 0.0000
vt 0.2870 0.3694 0.0000
vt 0.2760 0.3694 0.0000
vt 0.3115 0.3694 0.0000
vt 0.2979 0.3694 0.0000
vt 0.3380 0.3436 0.0000
vt 0.3520 0.3437 0.0000
vt 0.3520 0.3566 0.0000
vt 0.3380 0.3823 0.0000
vt 0.3251 0.3824 0.0000
vt 0.2870 0.3961 0.0000
vt 0.2869 0.4098 0.0000
vt 0.2761 0.3963 0.0000
vt 0.2761 0.4099 0.0000
vt 0.3113 0.4234 0.0000
vt 0.3114 0.4095 0.0000
vt 0.3248 0.4234 0.0000
vt 0.3249 0.4094 0.0000
vt 0.3380 0.4234 0.0000
vt 0.3380 0.4094 0.0000
vt 0.3520 0.4234 0.0000
vt 0.3520 0.4093 0.0000
vt 0.2677 0.3965 0.0000
vt 0.2677 0.3830 0.0000
vt 0.2761 0.3829 0.0000
vt 0.2870 0.3828 0.0000
vt 0.2978 0.3959 0.0000
vt 0.2979 0.3827 0.0000
vt 0.3115 0.3956 0.0000
vt 0.3115 0.3825 0.0000
vt 0.3251 0.3954 0.0000
vt 0.2679 0.4234 0.0000
vt 0.2678 0.4100 0.0000
vt 0.2761 0.4234 0.0000
vt 0.2593 0.3831 0.0000
vt 0.2593 0.3967 0.0000
vt 0.2593 0.4101 0.0000
vt 0.2869 0.4234 0.0000
vt 0.2978 0.4234 0.0000
vt 0.2978 0.4097 0.0000
vt 0.3380 0.3953 0.0000
vt 0.3520 0.3951 0.0000
vt 0.3520 0.3823 0.0000
vt 0.2593 0.3154 0.0000
vt 0.3520 0.3694 0.0000
vt 0.2593 0.4234 0.0000
# 81 texture coords

g P353_20_345A_C_1_DaS_P353_20_345A_C
usemtl paint_whiteSG
s 1
f 1/1/1 2/2/2 3/3/3 
f 3/3/3 2/2/2 4/4/4 
f 5/5/5 6/6/6 7/7/7 
f 7/7/7 6/6/6 8/8/8 
f 9/9/9 10/10/10 11/11/11 
f 11/11/11 10/10/10 12/12/12 
f 13/13/13 14/14/14 15/15/15 
f 15/15/15 14/14/14 16/16/16 
f 17/17/17 18/18/18 7/7/7 
f 7/7/7 18/18/18 19/19/19 
f 20/20/20 21/21/21 22/22/22 
f 22/22/22 21/21/21 8/8/8 
f 1/1/1 23/23/23 24/24/24 
f 24/24/24 23/23/23 25/25/25 
f 5/5/5 26/26/26 27/27/27 
f 27/27/27 26/26/26 28/28/28 
f 29/29/29 30/30/30 18/18/18 
f 18/18/18 30/30/30 31/31/31 
f 19/19/19 32/32/32 26/26/26 
f 26/26/26 32/32/32 33/33/33 
f 34/34/34 35/35/35 6/6/6 
f 6/6/6 35/35/35 36/36/36 
f 37/37/37 38/38/38 21/21/21 
f 21/21/21 38/38/38 17/17/17 
f 25/25/25 22/22/22 10/10/10 
f 10/10/10 22/22/22 36/36/36 
f 39/39/39 40/40/40 23/23/23 
f 23/23/23 40/40/40 20/20/20 
f 41/41/41 42/42/42 2/2/2 
f 2/2/2 42/42/42 43/43/43 
f 41/41/41 24/24/24 14/14/14 
f 14/14/14 24/24/24 9/9/9 
f 4/4/4 44/44/44 3/3/3 
f 3/3/3 44/44/44 45/45/45 
f 46/46/46 47/47/47 48/48/48 
f 48/48/48 47/47/47 49/49/49 
f 50/50/50 51/51/51 52/52/52 
f 52/52/52 51/51/51 53/53/53 
f 54/54/54 55/55/55 56/56/56 
f 56/56/56 55/55/55 57/57/57 
f 58/58/58 59/59/59 48/48/48 
f 48/48/48 59/59/59 60/60/60 
f 46/46/46 61/61/61 62/62/62 
f 62/62/62 61/61/61 63/63/63 
f 64/64/64 65/65/65 66/66/66 
f 66/66/66 65/65/65 45/45/45 
f 67/67/67 68/68/68 69/69/69 
f 69/69/69 68/68/68 49/49/49 
f 29/29/29 59/59/59 30/30/30 
f 30/30/30 59/59/59 70/70/70 
f 58/58/58 68/68/68 71/71/71 
f 71/71/71 68/68/68 72/72/72 
f 73/73/73 47/47/47 74/74/74 
f 74/74/74 47/47/47 75/75/75 
f 37/37/37 61/61/61 38/38/38 
f 38/38/38 61/61/61 60/60/60 
f 64/64/64 51/51/51 62/62/62 
f 62/62/62 51/51/51 75/75/75 
f 39/39/39 65/65/65 40/40/40 
f 40/40/40 65/65/65 63/63/63 
f 76/76/76 44/44/44 77/77/77 
f 77/77/77 44/44/44 78/78/78 
f 76/76/76 55/55/55 66/66/66 
f 66/66/66 55/55/55 53/53/53 
f 27/27/27 34/34/34 5/5/5 
f 5/5/5 34/34/34 6/6/6 
f 24/24/24 25/25/25 9/9/9 
f 9/9/9 25/25/25 10/10/10 
f 42/42/42 41/41/41 13/13/13 
f 13/13/13 41/41/41 14/14/14 
f 7/7/7 19/19/19 5/5/5 
f 5/5/5 19/19/19 26/26/26 
f 79/79/79 28/28/28 33/33/33 
f 33/33/33 28/28/28 26/26/26 
f 22/22/22 8/8/8 36/36/36 
f 36/36/36 8/8/8 6/6/6 
f 35/35/35 12/12/12 36/36/36 
f 36/36/36 12/12/12 10/10/10 
f 11/11/11 16/16/16 9/9/9 
f 9/9/9 16/16/16 14/14/14 
f 24/24/24 41/41/41 1/1/1 
f 1/1/1 41/41/41 2/2/2 
f 38/38/38 29/29/29 17/17/17 
f 17/17/17 29/29/29 18/18/18 
f 40/40/40 37/37/37 20/20/20 
f 20/20/20 37/37/37 21/21/21 
f 3/3/3 39/39/39 1/1/1 
f 1/1/1 39/39/39 23/23/23 
f 32/32/32 19/19/19 31/31/31 
f 31/31/31 19/19/19 18/18/18 
f 7/7/7 8/8/8 17/17/17 
f 17/17/17 8/8/8 21/21/21 
f 22/22/22 25/25/25 20/20/20 
f 20/20/20 25/25/25 23/23/23 
f 80/80/80 4/4/4 43/43/43 
f 43/43/43 4/4/4 2/2/2 
f 44/44/44 76/76/76 45/45/45 
f 45/45/45 76/76/76 66/66/66 
f 59/59/59 29/29/29 60/60/60 
f 60/60/60 29/29/29 38/38/38 
f 61/61/61 37/37/37 63/63/63 
f 63/63/63 37/37/37 40/40/40 
f 65/65/65 39/39/39 45/45/45 
f 45/45/45 39/39/39 3/3/3 
f 59/59/59 58/58/58 70/70/70 
f 70/70/70 58/58/58 71/71/71 
f 61/61/61 46/46/46 60/60/60 
f 60/60/60 46/46/46 48/48/48 
f 65/65/65 64/64/64 63/63/63 
f 63/63/63 64/64/64 62/62/62 
f 44/44/44 4/4/4 78/78/78 
f 78/78/78 4/4/4 80/80/80 
f 47/47/47 73/73/73 49/49/49 
f 49/49/49 73/73/73 69/69/69 
f 51/51/51 64/64/64 53/53/53 
f 53/53/53 64/64/64 66/66/66 
f 55/55/55 76/76/76 57/57/57 
f 57/57/57 76/76/76 77/77/77 
f 68/68/68 58/58/58 49/49/49 
f 49/49/49 58/58/58 48/48/48 
f 68/68/68 67/67/67 72/72/72 
f 72/72/72 67/67/67 81/81/81 
f 47/47/47 46/46/46 75/75/75 
f 75/75/75 46/46/46 62/62/62 
f 51/51/51 50/50/50 75/75/75 
f 75/75/75 50/50/50 74/74/74 
f 55/55/55 54/54/54 53/53/53 
f 53/53/53 54/54/54 52/52/52 
# 128 faces

