# 3ds Max Wavefront OBJ Exporter v0.97b - (c)2007 guruware
# File Created: 04.12.2015 17:01:02

mtllib P353_20_265B_L.mtl

#
# object P353_20_265B_L_1_DTaSI_P353_20_265B_L
#

v  58.5628 31.9736 -86.6269
v  51.3949 32.1705 -86.8700
v  58.4973 38.1338 -84.0593
v  51.3521 38.3570 -84.3195
v  58.6310 25.5975 -89.1647
v  51.4415 25.7187 -89.3969
v  43.8417 32.3434 -87.1082
v  43.8976 25.8124 -89.6230
v  43.7958 38.5453 -84.5871
v  58.4187 43.7499 -81.4272
v  51.3144 43.9070 -81.7129
v  43.7705 44.0724 -82.0094
v  58.2063 47.6470 -79.4424
v  51.2557 47.8819 -79.6540
v  58.2163 51.3395 -77.4189
v  51.1146 51.7428 -77.5036
v  43.6801 51.8876 -77.7767
v  43.7441 48.0596 -79.9398
v  43.5950 55.2481 -75.7315
v  51.1296 54.9692 -75.5797
v  35.8617 32.4990 -87.3444
v  35.7859 38.7103 -84.8543
v  35.9677 25.8951 -89.8523
v  27.7181 32.6650 -87.5812
v  27.8624 25.9885 -90.0914
v  27.6764 38.8886 -85.1116
v  35.7740 44.2450 -82.3121
v  27.6752 44.4177 -82.6086
v  27.6698 52.3117 -78.4218
v  35.7126 52.0969 -78.0928
v  27.6748 48.5071 -80.5426
v  35.7692 48.2824 -80.2417
v  27.6639 55.7280 -76.3154
v  35.7183 55.5119 -75.9882
v  19.6743 32.8687 -87.8212
v  19.5797 39.1173 -85.3581
v  19.7899 26.1149 -90.3471
v  11.4551 33.0900 -88.0610
v  11.8239 26.2540 -90.6069
v  11.1168 39.3773 -85.5947
v  19.5255 44.5896 -82.8987
v  10.8291 44.7685 -83.1881
v  19.4312 52.4908 -78.7572
v  19.3375 55.9106 -76.6749
v  19.4886 48.7016 -80.8377
v  10.4119 52.6733 -79.0860
v  10.6098 48.9101 -81.1268
v  10.2344 56.0804 -77.0383
v  10.0652 59.3590 -74.8544
v  19.1888 59.1846 -74.4731
v  9.7464 65.6149 -70.1947
v  19.3367 65.4182 -69.8386
v  9.9046 62.4992 -72.5857
v  19.2602 62.2690 -72.2252
v  27.6170 62.0649 -71.9055
v  27.5695 65.2536 -69.5404
v  27.6610 58.9686 -74.1341
v  3.6519 33.2868 -88.2736
v  3.3041 39.6029 -85.7900
v  4.0390 26.4043 -90.8513
v  3.0254 44.9242 -83.4256
v  -5.0065 52.9931 -79.5302
v  2.6533 52.8451 -79.3217
v  -4.8180 49.3840 -81.4997
v  2.7402 49.1188 -81.3486
v  2.5010 56.2193 -77.2953
v  -5.1827 56.3310 -77.5272
v  2.2940 59.4821 -75.1466
v  2.0793 62.6316 -72.8973
v  -5.3557 59.5758 -75.4133
v  -5.5243 62.7063 -73.2066
v  9.6143 68.0903 -68.2377
v  1.7716 68.1658 -68.5797
v  9.6021 68.3583 -68.0266
v  1.7274 68.9818 -67.9297
v  1.9036 65.6656 -70.5692
v  -5.6876 65.7044 -70.9218
v  -5.8260 68.2315 -68.9151
v  71.2378 37.7928 -83.5270
v  75.9367 37.6669 -83.3723
v  71.5315 31.5489 -86.1515
v  76.6607 31.4435 -85.9871
v  81.2823 31.3841 -85.8527
v  79.9310 37.5651 -83.2641
v  65.3869 31.7460 -86.3761
v  65.2716 37.9626 -83.7685
v  82.4847 25.2069 -88.4002
v  77.3480 25.2270 -88.5311
v  71.8148 25.2884 -88.6930
v  65.4985 25.4328 -88.9171
v  35.7237 58.7001 -73.8817
v  43.6002 58.5099 -73.6097
v  13.9398 67.8687 -68.2149
v  35.7616 61.8875 -71.6285
v  -10.5526 68.2379 -69.1195
v  -10.3614 65.7099 -71.1112
v  -10.1374 62.7309 -73.3657
v  -9.9042 59.5954 -75.5609
v  -4.5951 45.0701 -83.6296
v  -4.3257 39.8064 -85.9670
v  -4.0048 33.4738 -88.4751
v  64.9162 47.5372 -79.1916
v  65.1376 43.6010 -81.1555
v  70.9410 43.4737 -80.9269
v  75.3006 43.4722 -80.7609
v  78.8440 41.3197 -81.6206
v  69.4076 47.0494 -79.2355
v  64.8166 49.7326 -77.9993
v  61.7745 51.4101 -77.2211
v  58.1237 53.4839 -76.1591
v  55.1985 55.0395 -75.3661
v  51.0797 57.1905 -74.1535
v  48.3856 58.5317 -73.4009
v  43.5646 60.6215 -72.1567
v  40.5284 61.7940 -71.4828
v  35.7953 63.4025 -70.5240
v  29.6953 65.0740 -69.5770
v  27.5655 65.5255 -69.3380
v  19.3775 67.0924 -68.5646
v  -5.8641 69.4280 -67.9576
v  -10.5939 69.6441 -68.0073
v  -13.3937 69.8015 -68.0063
v  -12.7354 68.2234 -69.2118
v  -11.9499 65.7052 -71.1657
v  -11.1620 62.7317 -73.3946
v  -10.3494 59.5938 -75.5743
v  -9.7445 57.4272 -76.9645
v  -9.4419 56.3374 -77.6628
v  -8.4490 53.0019 -79.6233
v  -7.6448 49.3456 -81.5885
v  -6.6055 45.0503 -83.6984
v  -5.4766 39.8369 -85.9936
v  -2.2380 26.6149 -91.0212
# 133 vertices

vn 0.0427 0.3800 -0.9240
vn 0.0393 0.3725 -0.9272
vn 0.0450 0.4030 -0.9141
vn 0.0432 0.4017 -0.9148
vn 0.0406 0.3736 -0.9267
vn 0.0369 0.3646 -0.9304
vn 0.0360 0.3679 -0.9292
vn 0.0338 0.3596 -0.9325
vn 0.0403 0.3982 -0.9164
vn 0.0442 0.4332 -0.9002
vn 0.0447 0.4388 -0.8975
vn 0.0434 0.4377 -0.8981
vn 0.0415 0.4734 -0.8799
vn 0.0417 0.4829 -0.8747
vn 0.0402 0.4870 -0.8725
vn 0.0386 0.5022 -0.8639
vn 0.0415 0.5108 -0.8587
vn 0.0441 0.4865 -0.8725
vn 0.0394 0.5289 -0.8478
vn 0.0349 0.5210 -0.8528
vn 0.0346 0.3638 -0.9308
vn 0.0384 0.3938 -0.9184
vn 0.0328 0.3556 -0.9341
vn 0.0357 0.3607 -0.9320
vn 0.0345 0.3527 -0.9351
vn 0.0385 0.3900 -0.9200
vn 0.0422 0.4337 -0.9001
vn 0.0414 0.4295 -0.9021
vn 0.0459 0.5143 -0.8564
vn 0.0451 0.5145 -0.8563
vn 0.0450 0.4839 -0.8739
vn 0.0458 0.4865 -0.8725
vn 0.0462 0.5397 -0.8406
vn 0.0442 0.5368 -0.8426
vn 0.0369 0.3590 -0.9326
vn 0.0384 0.3878 -0.9209
vn 0.0363 0.3510 -0.9357
vn 0.0359 0.3587 -0.9328
vn 0.0360 0.3509 -0.9357
vn 0.0363 0.3868 -0.9215
vn 0.0399 0.4270 -0.9034
vn 0.0374 0.4258 -0.9040
vn 0.0439 0.5119 -0.8579
vn 0.0451 0.5389 -0.8412
vn 0.0424 0.4809 -0.8758
vn 0.0406 0.5090 -0.8598
vn 0.0392 0.4787 -0.8771
vn 0.0418 0.5361 -0.8431
vn 0.0427 0.5600 -0.8274
vn 0.0453 0.5610 -0.8266
vn 0.0419 0.6087 -0.7923
vn 0.0427 0.6008 -0.7983
vn 0.0432 0.5835 -0.8109
vn 0.0450 0.5816 -0.8122
vn 0.0439 0.5755 -0.8166
vn 0.0416 0.5886 -0.8073
vn 0.0452 0.5587 -0.8282
vn 0.0343 0.3601 -0.9323
vn 0.0335 0.3863 -0.9218
vn 0.0351 0.3525 -0.9351
vn 0.0342 0.4246 -0.9047
vn 0.0321 0.5068 -0.8615
vn 0.0366 0.5065 -0.8614
vn 0.0311 0.4791 -0.8772
vn 0.0355 0.4774 -0.8780
vn 0.0377 0.5329 -0.8453
vn 0.0330 0.5325 -0.8458
vn 0.0388 0.5573 -0.8294
vn 0.0399 0.5821 -0.8122
vn 0.0341 0.5559 -0.8306
vn 0.0351 0.5793 -0.8144
vn 0.0406 0.6219 -0.7820
vn 0.0401 0.6207 -0.7830
vn 0.0406 0.6224 -0.7816
vn 0.0399 0.6230 -0.7812
vn 0.0406 0.6135 -0.7886
vn 0.0364 0.6144 -0.7882
vn 0.0363 0.6195 -0.7841
vn 0.0435 0.4019 -0.9146
vn 0.0430 0.4015 -0.9149
vn 0.0411 0.3819 -0.9233
vn 0.0406 0.3827 -0.9230
vn 0.0303 0.3867 -0.9217
vn 0.0329 0.3977 -0.9169
vn 0.0419 0.3810 -0.9236
vn 0.0442 0.4025 -0.9144
vn 0.0282 0.3835 -0.9231
vn 0.0382 0.3778 -0.9251
vn 0.0389 0.3765 -0.9256
vn 0.0397 0.3751 -0.9261
vn 0.0425 0.5519 -0.8328
vn 0.0379 0.5402 -0.8407
vn 0.0400 0.6180 -0.7852
vn 0.0398 0.5705 -0.8203
vn 0.0341 0.6190 -0.7846
vn 0.0336 0.6150 -0.7878
vn 0.0315 0.5803 -0.8138
vn 0.0299 0.5595 -0.8283
vn 0.0312 0.4254 -0.9045
vn 0.0320 0.3880 -0.9211
vn 0.0336 0.3620 -0.9316
vn 0.0416 0.4645 -0.8846
vn 0.0439 0.4292 -0.9021
vn 0.0437 0.4257 -0.9038
vn 0.0435 0.4235 -0.9049
vn 0.0322 0.4112 -0.9110
vn 0.0419 0.4569 -0.8885
vn 0.0409 0.4726 -0.8803
vn 0.0403 0.4828 -0.8748
vn 0.0395 0.4951 -0.8679
vn 0.0360 0.5127 -0.8578
vn 0.0311 0.5372 -0.8429
vn 0.0332 0.5411 -0.8403
vn 0.0369 0.5477 -0.8359
vn 0.0371 0.5617 -0.8265
vn 0.0374 0.5830 -0.8116
vn 0.0404 0.5880 -0.8078
vn 0.0414 0.5897 -0.8065
vn 0.0394 0.6124 -0.7896
vn 0.0363 0.6219 -0.7822
vn 0.0345 0.6210 -0.7831
vn 0.0335 0.6205 -0.7835
vn 0.0332 0.6185 -0.7851
vn 0.0327 0.6152 -0.7877
vn 0.0306 0.5806 -0.8136
vn 0.0296 0.5597 -0.8281
vn 0.0288 0.5454 -0.8377
vn 0.0285 0.5382 -0.8423
vn 0.0269 0.5118 -0.8587
vn 0.0249 0.4833 -0.8751
vn 0.0258 0.4304 -0.9023
vn 0.0295 0.3982 -0.9168
vn 0.0350 0.3540 -0.9346
# 133 vertex normals

vt 0.1126 0.6187 0.0000
vt 0.1370 0.6190 0.0000
vt 0.1128 0.6415 0.0000
vt 0.1372 0.6418 0.0000
vt 0.1123 0.5953 0.0000
vt 0.1369 0.5953 0.0000
vt 0.1628 0.6192 0.0000
vt 0.1626 0.5953 0.0000
vt 0.1630 0.6420 0.0000
vt 0.1131 0.6627 0.0000
vt 0.1373 0.6628 0.0000
vt 0.1631 0.6628 0.0000
vt 0.1138 0.6776 0.0000
vt 0.1375 0.6781 0.0000
vt 0.1138 0.6920 0.0000
vt 0.1380 0.6932 0.0000
vt 0.1634 0.6932 0.0000
vt 0.1631 0.6782 0.0000
vt 0.1637 0.7067 0.0000
vt 0.1379 0.7060 0.0000
vt 0.1900 0.6193 0.0000
vt 0.1903 0.6421 0.0000
vt 0.1897 0.5952 0.0000
vt 0.2178 0.6194 0.0000
vt 0.2173 0.5951 0.0000
vt 0.2180 0.6423 0.0000
vt 0.1903 0.6629 0.0000
vt 0.2180 0.6630 0.0000
vt 0.2180 0.6935 0.0000
vt 0.1906 0.6934 0.0000
vt 0.2180 0.6786 0.0000
vt 0.1904 0.6784 0.0000
vt 0.2180 0.7072 0.0000
vt 0.1905 0.7071 0.0000
vt 0.2453 0.6197 0.0000
vt 0.2456 0.6426 0.0000
vt 0.2449 0.5951 0.0000
vt 0.2733 0.6200 0.0000
vt 0.2721 0.5952 0.0000
vt 0.2745 0.6430 0.0000
vt 0.2458 0.6630 0.0000
vt 0.2755 0.6631 0.0000
vt 0.2461 0.6935 0.0000
vt 0.2464 0.7071 0.0000
vt 0.2459 0.6787 0.0000
vt 0.2769 0.6935 0.0000
vt 0.2762 0.6789 0.0000
vt 0.2775 0.7070 0.0000
vt 0.2781 0.7204 0.0000
vt 0.2469 0.7206 0.0000
vt 0.2792 0.7470 0.0000
vt 0.2464 0.7471 0.0000
vt 0.2786 0.7336 0.0000
vt 0.2467 0.7336 0.0000
vt 0.2182 0.7335 0.0000
vt 0.2183 0.7471 0.0000
vt 0.2180 0.7205 0.0000
vt 0.3000 0.6203 0.0000
vt 0.3012 0.6434 0.0000
vt 0.2986 0.5953 0.0000
vt 0.3021 0.6632 0.0000
vt 0.3295 0.6936 0.0000
vt 0.3034 0.6936 0.0000
vt 0.3289 0.6797 0.0000
vt 0.3031 0.6791 0.0000
vt 0.3039 0.7070 0.0000
vt 0.3301 0.7069 0.0000
vt 0.3046 0.7203 0.0000
vt 0.3053 0.7334 0.0000
vt 0.3307 0.7200 0.0000
vt 0.3313 0.7331 0.0000
vt 0.2796 0.7578 0.0000
vt 0.3064 0.7574 0.0000
vt 0.2797 0.7589 0.0000
vt 0.3065 0.7609 0.0000
vt 0.3059 0.7465 0.0000
vt 0.3318 0.7459 0.0000
vt 0.3323 0.7569 0.0000
vt 0.0693 0.6411 0.0000
vt 0.0533 0.6409 0.0000
vt 0.0683 0.6180 0.0000
vt 0.0508 0.6179 0.0000
vt 0.0350 0.6179 0.0000
vt 0.0396 0.6408 0.0000
vt 0.0893 0.6183 0.0000
vt 0.0897 0.6413 0.0000
vt 0.0309 0.5951 0.0000
vt 0.0485 0.5950 0.0000
vt 0.0673 0.5950 0.0000
vt 0.0889 0.5951 0.0000
vt 0.1905 0.7201 0.0000
vt 0.1636 0.7200 0.0000
vt 0.2649 0.7572 0.0000
vt 0.1904 0.7334 0.0000
vt 0.3484 0.7565 0.0000
vt 0.3478 0.7456 0.0000
vt 0.3470 0.7328 0.0000
vt 0.3462 0.7198 0.0000
vt 0.3281 0.6633 0.0000
vt 0.3272 0.6438 0.0000
vt 0.3261 0.6206 0.0000
vt 0.0909 0.6776 0.0000
vt 0.0901 0.6626 0.0000
vt 0.0703 0.6625 0.0000
vt 0.0554 0.6627 0.0000
vt 0.0434 0.6548 0.0000
vt 0.0756 0.6760 0.0000
vt 0.0912 0.6862 0.0000
vt 0.1016 0.6925 0.0000
vt 0.1141 0.7005 0.0000
vt 0.1241 0.7065 0.0000
vt 0.1381 0.7151 0.0000
vt 0.1473 0.7203 0.0000
vt 0.1638 0.7287 0.0000
vt 0.1741 0.7334 0.0000
vt 0.1903 0.7398 0.0000
vt 0.2111 0.7465 0.0000
vt 0.2184 0.7482 0.0000
vt 0.2463 0.7542 0.0000
vt 0.3324 0.7621 0.0000
vt 0.3486 0.7627 0.0000
vt 0.3581 0.7631 0.0000
vt 0.3559 0.7563 0.0000
vt 0.3532 0.7454 0.0000
vt 0.3505 0.7328 0.0000
vt 0.3478 0.7198 0.0000
vt 0.3457 0.7110 0.0000
vt 0.3447 0.7066 0.0000
vt 0.3413 0.6935 0.0000
vt 0.3385 0.6794 0.0000
vt 0.3350 0.6632 0.0000
vt 0.3311 0.6438 0.0000
vt 0.3201 0.5957 0.0000
# 133 texture coords

g P353_20_265B_L_1_DTaSI_P353_20_265B_L
usemtl windowglass_1SG
s 1
f 1/1/1 2/2/2 3/3/3 
f 3/3/3 2/2/2 4/4/4 
f 5/5/5 6/6/6 1/1/1 
f 1/1/1 6/6/6 2/2/2 
f 7/7/7 2/2/2 8/8/8 
f 8/8/8 2/2/2 6/6/6 
f 9/9/9 4/4/4 7/7/7 
f 7/7/7 4/4/4 2/2/2 
f 3/3/3 4/4/4 10/10/10 
f 10/10/10 4/4/4 11/11/11 
f 12/12/12 11/11/11 9/9/9 
f 9/9/9 11/11/11 4/4/4 
f 13/13/13 14/14/14 15/15/15 
f 15/15/15 14/14/14 16/16/16 
f 17/17/17 16/16/16 18/18/18 
f 18/18/18 16/16/16 14/14/14 
f 19/19/19 20/20/20 17/17/17 
f 17/17/17 20/20/20 16/16/16 
f 7/7/7 21/21/21 9/9/9 
f 9/9/9 21/21/21 22/22/22 
f 8/8/8 23/23/23 7/7/7 
f 7/7/7 23/23/23 21/21/21 
f 24/24/24 21/21/21 25/25/25 
f 25/25/25 21/21/21 23/23/23 
f 26/26/26 22/22/22 24/24/24 
f 24/24/24 22/22/22 21/21/21 
f 9/9/9 22/22/22 12/12/12 
f 12/12/12 22/22/22 27/27/27 
f 28/28/28 27/27/27 26/26/26 
f 26/26/26 27/27/27 22/22/22 
f 29/29/29 30/30/30 31/31/31 
f 31/31/31 30/30/30 32/32/32 
f 33/33/33 34/34/34 29/29/29 
f 29/29/29 34/34/34 30/30/30 
f 17/17/17 30/30/30 19/19/19 
f 19/19/19 30/30/30 34/34/34 
f 18/18/18 32/32/32 17/17/17 
f 17/17/17 32/32/32 30/30/30 
f 24/24/24 35/35/35 26/26/26 
f 26/26/26 35/35/35 36/36/36 
f 25/25/25 37/37/37 24/24/24 
f 24/24/24 37/37/37 35/35/35 
f 38/38/38 35/35/35 39/39/39 
f 39/39/39 35/35/35 37/37/37 
f 35/35/35 38/38/38 36/36/36 
f 36/36/36 38/38/38 40/40/40 
f 36/36/36 40/40/40 41/41/41 
f 41/41/41 40/40/40 42/42/42 
f 26/26/26 36/36/36 28/28/28 
f 28/28/28 36/36/36 41/41/41 
f 29/29/29 43/43/43 33/33/33 
f 33/33/33 43/43/43 44/44/44 
f 31/31/31 45/45/45 29/29/29 
f 29/29/29 45/45/45 43/43/43 
f 46/46/46 43/43/43 47/47/47 
f 47/47/47 43/43/43 45/45/45 
f 43/43/43 46/46/46 44/44/44 
f 44/44/44 46/46/46 48/48/48 
f 49/49/49 50/50/50 48/48/48 
f 48/48/48 50/50/50 44/44/44 
f 51/51/51 52/52/52 53/53/53 
f 53/53/53 52/52/52 54/54/54 
f 54/54/54 52/52/52 55/55/55 
f 55/55/55 52/52/52 56/56/56 
f 33/33/33 44/44/44 57/57/57 
f 57/57/57 44/44/44 50/50/50 
f 38/38/38 58/58/58 40/40/40 
f 40/40/40 58/58/58 59/59/59 
f 39/39/39 60/60/60 38/38/38 
f 38/38/38 60/60/60 58/58/58 
f 40/40/40 59/59/59 42/42/42 
f 42/42/42 59/59/59 61/61/61 
f 62/62/62 63/63/63 64/64/64 
f 64/64/64 63/63/63 65/65/65 
f 63/63/63 62/62/62 66/66/66 
f 66/66/66 62/62/62 67/67/67 
f 46/46/46 63/63/63 48/48/48 
f 48/48/48 63/63/63 66/66/66 
f 47/47/47 65/65/65 46/46/46 
f 46/46/46 65/65/65 63/63/63 
f 49/49/49 68/68/68 53/53/53 
f 53/53/53 68/68/68 69/69/69 
f 48/48/48 66/66/66 49/49/49 
f 49/49/49 66/66/66 68/68/68 
f 70/70/70 68/68/68 67/67/67 
f 67/67/67 68/68/68 66/66/66 
f 68/68/68 70/70/70 69/69/69 
f 69/69/69 70/70/70 71/71/71 
f 72/72/72 73/73/73 74/74/74 
f 74/74/74 73/73/73 75/75/75 
f 76/76/76 77/77/77 73/73/73 
f 73/73/73 77/77/77 78/78/78 
f 53/53/53 69/69/69 51/51/51 
f 51/51/51 69/69/69 76/76/76 
f 77/77/77 76/76/76 71/71/71 
f 71/71/71 76/76/76 69/69/69 
f 79/79/79 80/80/80 81/81/81 
f 81/81/81 80/80/80 82/82/82 
f 83/83/83 82/82/82 84/84/84 
f 84/84/84 82/82/82 80/80/80 
f 81/81/81 85/85/85 79/79/79 
f 79/79/79 85/85/85 86/86/86 
f 3/3/3 86/86/86 1/1/1 
f 1/1/1 86/86/86 85/85/85 
f 87/87/87 88/88/88 83/83/83 
f 83/83/83 88/88/88 82/82/82 
f 81/81/81 82/82/82 89/89/89 
f 89/89/89 82/82/82 88/88/88 
f 1/1/1 85/85/85 5/5/5 
f 5/5/5 85/85/85 90/90/90 
f 89/89/89 90/90/90 81/81/81 
f 81/81/81 90/90/90 85/85/85 
f 57/57/57 91/91/91 33/33/33 
f 33/33/33 91/91/91 34/34/34 
f 19/19/19 34/34/34 92/92/92 
f 92/92/92 34/34/34 91/91/91 
f 74/74/74 93/93/93 72/72/72 
f 91/91/91 57/57/57 94/94/94 
f 94/94/94 57/57/57 55/55/55 
f 55/55/55 57/57/57 54/54/54 
f 54/54/54 57/57/57 50/50/50 
f 50/50/50 49/49/49 54/54/54 
f 54/54/54 49/49/49 53/53/53 
f 95/95/95 78/78/78 96/96/96 
f 96/96/96 78/78/78 77/77/77 
f 96/96/96 77/77/77 97/97/97 
f 97/97/97 77/77/77 71/71/71 
f 97/97/97 71/71/71 98/98/98 
f 98/98/98 71/71/71 70/70/70 
f 99/99/99 61/61/61 100/100/100 
f 100/100/100 61/61/61 59/59/59 
f 100/100/100 59/59/59 101/101/101 
f 101/101/101 59/59/59 58/58/58 
f 64/64/64 65/65/65 99/99/99 
f 99/99/99 65/65/65 61/61/61 
f 65/65/65 47/47/47 61/61/61 
f 61/61/61 47/47/47 42/42/42 
f 47/47/47 45/45/45 42/42/42 
f 42/42/42 45/45/45 41/41/41 
f 45/45/45 31/31/31 41/41/41 
f 41/41/41 31/31/31 28/28/28 
f 31/31/31 32/32/32 28/28/28 
f 28/28/28 32/32/32 27/27/27 
f 32/32/32 18/18/18 27/27/27 
f 27/27/27 18/18/18 12/12/12 
f 18/18/18 14/14/14 12/12/12 
f 12/12/12 14/14/14 11/11/11 
f 14/14/14 13/13/13 11/11/11 
f 11/11/11 13/13/13 10/10/10 
f 13/13/13 102/102/102 10/10/10 
f 10/10/10 102/102/102 103/103/103 
f 10/10/10 103/103/103 3/3/3 
f 3/3/3 103/103/103 86/86/86 
f 103/103/103 104/104/104 86/86/86 
f 86/86/86 104/104/104 79/79/79 
f 104/104/104 105/105/105 79/79/79 
f 79/79/79 105/105/105 80/80/80 
f 105/105/105 106/106/106 80/80/80 
f 80/80/80 106/106/106 84/84/84 
f 104/104/104 107/107/107 105/105/105 
f 102/102/102 107/107/107 103/103/103 
f 103/103/103 107/107/107 104/104/104 
f 108/108/108 107/107/107 102/102/102 
f 15/15/15 109/109/109 102/102/102 
f 102/102/102 109/109/109 108/108/108 
f 110/110/110 109/109/109 15/15/15 
f 110/110/110 15/15/15 111/111/111 
f 111/111/111 15/15/15 20/20/20 
f 112/112/112 111/111/111 20/20/20 
f 92/92/92 113/113/113 20/20/20 
f 20/20/20 113/113/113 112/112/112 
f 92/92/92 114/114/114 113/113/113 
f 114/114/114 92/92/92 115/115/115 
f 115/115/115 92/92/92 94/94/94 
f 116/116/116 115/115/115 94/94/94 
f 56/56/56 117/117/117 94/94/94 
f 94/94/94 117/117/117 116/116/116 
f 56/56/56 118/118/118 117/117/117 
f 119/119/119 118/118/118 52/52/52 
f 52/52/52 118/118/118 56/56/56 
f 72/72/72 93/93/93 119/119/119 
f 51/51/51 76/76/76 72/72/72 
f 72/72/72 76/76/76 73/73/73 
f 120/120/120 75/75/75 78/78/78 
f 78/78/78 75/75/75 73/73/73 
f 121/121/121 120/120/120 95/95/95 
f 95/95/95 120/120/120 78/78/78 
f 122/122/122 121/121/121 123/123/123 
f 123/123/123 121/121/121 95/95/95 
f 123/123/123 95/95/95 124/124/124 
f 124/124/124 95/95/95 96/96/96 
f 124/124/124 96/96/96 125/125/125 
f 125/125/125 96/96/96 97/97/97 
f 125/125/125 97/97/97 126/126/126 
f 126/126/126 97/97/97 98/98/98 
f 127/127/127 126/126/126 98/98/98 
f 98/98/98 70/70/70 127/127/127 
f 127/127/127 70/70/70 67/67/67 
f 128/128/128 67/67/67 129/129/129 
f 129/129/129 67/67/67 62/62/62 
f 129/129/129 62/62/62 130/130/130 
f 130/130/130 62/62/62 64/64/64 
f 99/99/99 131/131/131 64/64/64 
f 64/64/64 131/131/131 130/130/130 
f 131/131/131 99/99/99 132/132/132 
f 132/132/132 99/99/99 100/100/100 
f 101/101/101 132/132/132 100/100/100 
f 101/101/101 58/58/58 133/133/133 
f 133/133/133 58/58/58 60/60/60 
f 13/13/13 15/15/15 102/102/102 
f 20/20/20 15/15/15 16/16/16 
f 19/19/19 92/92/92 20/20/20 
f 94/94/94 92/92/92 91/91/91 
f 55/55/55 56/56/56 94/94/94 
f 72/72/72 119/119/119 51/51/51 
f 51/51/51 119/119/119 52/52/52 
f 127/127/127 67/67/67 128/128/128 
# 217 faces

