# 3ds Max Wavefront OBJ Exporter v0.97b - (c)2007 guruware
# File Created: 02.11.2015 14:18:38

mtllib Y175_18_181C_L.mtl

#
# object Y175_18_181C_L_1_DaS_Y175_18_181C_L
#

v  34.8750 61.6529 -67.9720
v  35.5990 62.5635 -67.4438
v  40.8159 58.8734 -68.7959
v  41.6553 59.6979 -68.3076
v  23.5787 67.1160 -65.7153
v  29.3423 65.0532 -66.5954
v  23.1233 65.9087 -66.3320
v  28.8319 63.9605 -67.1444
v  54.2819 51.7569 -70.8572
v  55.1289 52.5004 -70.2654
v  60.9613 47.8101 -71.9873
v  62.0279 48.4374 -71.3810
v  47.6274 55.4299 -69.8021
v  48.3737 56.2482 -69.2468
v  77.1241 37.5353 -75.0864
v  78.8392 37.9840 -74.4471
v  86.4385 31.3985 -77.2499
v  88.5726 31.9819 -76.5334
v  97.2615 27.8819 -78.0068
v  103.7383 26.7190 -77.8581
v  96.9147 26.2563 -79.1823
v  104.1409 25.5080 -78.8556
v  68.1147 43.3597 -73.2645
v  69.7043 43.7084 -72.7342
v  43.9380 61.5037 -65.9141
v  43.2275 61.0460 -66.8673
v  37.5616 64.5974 -64.9587
v  36.9683 64.0926 -65.9714
v  30.7250 67.5449 -63.9479
v  30.3111 66.9177 -65.0392
v  29.0463 68.1583 -63.7383
v  24.4466 69.1227 -63.9383
v  28.0947 68.5876 -63.4339
v  27.5219 68.9658 -63.0006
v  24.8550 69.7602 -62.7251
v  65.0693 49.9706 -69.0763
v  64.0993 49.5506 -69.9603
v  57.5059 54.3088 -67.9267
v  56.7541 53.8037 -68.8212
v  50.4257 58.1608 -66.8659
v  49.7864 57.6422 -67.7918
v  93.4444 33.1000 -73.2991
v  92.0986 32.7345 -74.5952
v  83.7956 38.6908 -71.8651
v  82.1803 38.5611 -72.8270
v  74.2022 44.4980 -70.4335
v  72.7693 44.2822 -71.3445
v  42.4728 60.4635 -67.7058
v  36.3134 63.4268 -66.8332
v  24.0221 68.2578 -64.9821
v  29.8481 66.0972 -65.9586
v  63.0863 49.0455 -70.7420
v  55.9643 53.2113 -69.6208
v  49.1058 57.0196 -68.6140
v  90.3215 32.4063 -75.8262
v  80.5389 38.3651 -73.7303
v  97.5938 29.0256 -76.7725
v  71.2744 44.0284 -72.1346
v  109.4967 27.1771 -74.5424
v  111.5919 26.5168 -75.8625
v  110.2925 26.6166 -76.0948
v  115.8578 24.2562 -77.9198
v  111.2839 24.7016 -78.3954
v  113.4650 25.4923 -76.8988
v  110.8286 25.7415 -77.3149
v  102.3459 28.9847 -74.1582
v  104.5745 28.4753 -73.8926
v  103.2223 28.2511 -75.3574
v  103.4351 27.5422 -76.6546
v  98.1002 30.6671 -73.9973
v  100.1731 29.7172 -74.2996
v  98.0212 29.7845 -75.4295
v  107.5400 27.9737 -73.1787
v  37.9479 64.2849 -64.3378
v  44.2276 61.2435 -65.2597
v  27.2635 69.0844 -62.5903
v  24.9435 69.7615 -62.3560
v  31.0047 67.2740 -63.3360
v  57.7974 54.0364 -67.2832
v  65.4102 49.6697 -68.4230
v  50.7311 57.8842 -66.2246
v  84.0076 38.4574 -71.2014
v  93.6008 32.9129 -72.6304
v  74.5034 44.2096 -69.7859
v  28.0713 68.5336 -62.5363
v  28.5749 68.2346 -62.8449
v  29.3856 67.8678 -63.1047
v  104.7036 28.4302 -73.0641
v  107.2729 28.0275 -72.4172
v  102.3476 28.9622 -73.4000
v  100.1080 29.6618 -73.5427
v  98.1368 30.5731 -73.3088
v  118.5772 23.1911 -78.7164
v  111.7207 23.7302 -79.4046
v  104.5701 24.2172 -79.9188
v  96.5776 24.6755 -80.3254
# 96 vertices

vn 0.0687 0.4467 -0.8920
vn 0.0879 0.4793 -0.8732
vn 0.0954 0.4520 -0.8869
vn 0.1177 0.4857 -0.8661
vn 0.0274 0.4923 -0.8700
vn 0.0543 0.4789 -0.8762
vn 0.0067 0.4709 -0.8822
vn 0.0380 0.4459 -0.8943
vn 0.1503 0.5011 -0.8523
vn 0.1651 0.5190 -0.8387
vn 0.1660 0.5134 -0.8420
vn 0.1776 0.5273 -0.8309
vn 0.1225 0.4744 -0.8717
vn 0.1432 0.5017 -0.8531
vn 0.1607 0.5263 -0.8350
vn 0.1761 0.5476 -0.8180
vn 0.1342 0.5516 -0.8233
vn 0.1584 0.5738 -0.8035
vn 0.1458 0.6260 -0.7661
vn 0.1422 0.7224 -0.6767
vn 0.1123 0.5837 -0.8042
vn 0.1100 0.6496 -0.7523
vn 0.1699 0.5189 -0.8378
vn 0.1825 0.5348 -0.8250
vn 0.2948 0.7539 -0.5871
vn 0.2689 0.7183 -0.6416
vn 0.2761 0.7806 -0.5607
vn 0.2453 0.7389 -0.6275
vn 0.2300 0.8047 -0.5473
vn 0.2017 0.7585 -0.6197
vn 0.1981 0.8163 -0.5427
vn 0.1526 0.7822 -0.6040
vn 0.1784 0.8258 -0.5350
vn 0.3079 0.6880 -0.6572
vn 0.2840 0.6624 -0.6933
vn 0.2997 0.7039 -0.6439
vn 0.2776 0.6751 -0.6835
vn 0.2982 0.7277 -0.6177
vn 0.2757 0.6957 -0.6633
vn 0.3272 0.7595 -0.5622
vn 0.3110 0.7436 -0.5918
vn 0.3280 0.7227 -0.6084
vn 0.3072 0.6987 -0.6461
vn 0.3175 0.6893 -0.6512
vn 0.2967 0.6682 -0.6823
vn 0.1920 0.6017 -0.7753
vn 0.1619 0.6063 -0.7786
vn 0.0833 0.6357 -0.7675
vn 0.1221 0.6138 -0.7800
vn 0.2255 0.5892 -0.7759
vn 0.2178 0.5915 -0.7763
vn 0.2089 0.5969 -0.7746
vn 0.2460 0.6779 -0.6928
vn 0.2410 0.6275 -0.7403
vn 0.2250 0.7449 -0.6281
vn 0.2358 0.5987 -0.7655
vn 0.1817 0.9244 -0.3352
vn 0.1577 0.8484 -0.5053
vn 0.1619 0.8726 -0.4609
vn 0.1331 0.7635 -0.6319
vn 0.1290 0.7231 -0.6786
vn 0.1526 0.7757 -0.6124
vn 0.1481 0.7670 -0.6244
vn 0.2755 0.8752 -0.3977
vn 0.2103 0.9313 -0.2974
vn 0.2179 0.8903 -0.3999
vn 0.1850 0.8461 -0.4999
vn 0.3199 0.7878 -0.5264
vn 0.2812 0.8661 -0.4133
vn 0.2838 0.8004 -0.5281
vn 0.2076 0.9335 -0.2925
vn 0.4495 0.8794 0.1566
vn 0.2736 0.9578 -0.0878
vn 0.4121 0.8893 0.1982
vn 0.5079 0.8517 0.1287
vn 0.4895 0.8607 0.1403
vn 0.5109 0.8502 0.1270
vn 0.5239 0.8428 0.1231
vn 0.5627 0.8241 0.0642
vn 0.4488 0.8789 0.1617
vn 0.1592 0.9872 0.0084
vn 0.2185 0.9756 0.0235
vn 0.3045 0.9505 0.0616
vn 0.4712 0.8746 0.1141
vn 0.1302 0.7631 -0.6330
vn 0.1209 0.7296 -0.6731
vn 0.0989 0.6526 -0.7512
vn 0.0863 0.6087 -0.7887
# 88 vertex normals

vt 0.6904 0.7569 0.0000
vt 0.6915 0.7550 0.0000
vt 0.7006 0.7611 0.0000
vt 0.7020 0.7594 0.0000
vt 0.6699 0.7479 0.0000
vt 0.6803 0.7512 0.0000
vt 0.6693 0.7503 0.0000
vt 0.6796 0.7534 0.0000
vt 0.7241 0.7741 0.0000
vt 0.7257 0.7724 0.0000
vt 0.7363 0.7817 0.0000
vt 0.7383 0.7802 0.0000
vt 0.7123 0.7670 0.0000
vt 0.7137 0.7653 0.0000
vt 0.7662 0.8009 0.0000
vt 0.7693 0.7996 0.0000
vt 0.7832 0.8123 0.0000
vt 0.7870 0.8108 0.0000
vt 0.8023 0.8183 0.0000
vt 0.8133 0.8202 0.0000
vt 0.8016 0.8218 0.0000
vt 0.8139 0.8228 0.0000
vt 0.7495 0.7901 0.0000
vt 0.7525 0.7891 0.0000
vt 0.7061 0.7543 0.0000
vt 0.7047 0.7561 0.0000
vt 0.6949 0.7494 0.0000
vt 0.6937 0.7513 0.0000
vt 0.6827 0.7447 0.0000
vt 0.6819 0.7468 0.0000
vt 0.6796 0.7437 0.0000
vt 0.6713 0.7430 0.0000
vt 0.6779 0.7428 0.0000
vt 0.6768 0.7418 0.0000
vt 0.6720 0.7406 0.0000
vt 0.7443 0.7756 0.0000
vt 0.7423 0.7771 0.0000
vt 0.7305 0.7674 0.0000
vt 0.7289 0.7691 0.0000
vt 0.7177 0.7601 0.0000
vt 0.7164 0.7618 0.0000
vt 0.7964 0.8057 0.0000
vt 0.7936 0.8077 0.0000
vt 0.7788 0.7959 0.0000
vt 0.7757 0.7971 0.0000
vt 0.7611 0.7856 0.0000
vt 0.7583 0.7868 0.0000
vt 0.7034 0.7578 0.0000
vt 0.6926 0.7532 0.0000
vt 0.6706 0.7455 0.0000
vt 0.6811 0.7490 0.0000
vt 0.7403 0.7787 0.0000
vt 0.7273 0.7707 0.0000
vt 0.7150 0.7636 0.0000
vt 0.7902 0.8095 0.0000
vt 0.7725 0.7983 0.0000
vt 0.8030 0.8155 0.0000
vt 0.7554 0.7880 0.0000
vt 0.8235 0.8160 0.0000
vt 0.8266 0.8188 0.0000
vt 0.8245 0.8188 0.0000
vt 0.8337 0.8241 0.0000
vt 0.8258 0.8239 0.0000
vt 0.8297 0.8213 0.0000
vt 0.8252 0.8214 0.0000
vt 0.8118 0.8126 0.0000
vt 0.8156 0.8131 0.0000
vt 0.8130 0.8152 0.0000
vt 0.8131 0.8177 0.0000
vt 0.8045 0.8100 0.0000
vt 0.8080 0.8117 0.0000
vt 0.8040 0.8129 0.0000
vt 0.8207 0.8131 0.0000
vt 0.6960 0.7486 0.0000
vt 0.7071 0.7534 0.0000
vt 0.6764 0.7410 0.0000
vt 0.6722 0.7400 0.0000
vt 0.6835 0.7437 0.0000
vt 0.7316 0.7666 0.0000
vt 0.7455 0.7748 0.0000
vt 0.7188 0.7593 0.0000
vt 0.7798 0.7950 0.0000
vt 0.7972 0.8047 0.0000
vt 0.7623 0.7848 0.0000
vt 0.6781 0.7412 0.0000
vt 0.6791 0.7419 0.0000
vt 0.6806 0.7427 0.0000
vt 0.8162 0.8118 0.0000
vt 0.8205 0.8118 0.0000
vt 0.8122 0.8114 0.0000
vt 0.8084 0.8105 0.0000
vt 0.8050 0.8090 0.0000
vt 0.8384 0.8266 0.0000
vt 0.8264 0.8263 0.0000
vt 0.8145 0.8256 0.0000
vt 0.8010 0.8251 0.0000
# 96 texture coords

g Y175_18_181C_L_1_DaS_Y175_18_181C_L
usemtl paint_redSG
s 1
f 1/1/1 2/2/2 3/3/3 
f 3/3/3 2/2/2 4/4/4 
f 5/5/5 6/6/6 7/7/7 
f 7/7/7 6/6/6 8/8/8 
f 8/8/8 6/6/6 1/1/1 
f 1/1/1 6/6/6 2/2/2 
f 9/9/9 10/10/10 11/11/11 
f 11/11/11 10/10/10 12/12/12 
f 13/13/13 14/14/14 9/9/9 
f 9/9/9 14/14/14 10/10/10 
f 3/3/3 4/4/4 13/13/13 
f 13/13/13 4/4/4 14/14/14 
f 15/15/15 16/16/16 17/17/17 
f 17/17/17 16/16/16 18/18/18 
f 19/19/19 20/20/20 21/21/21 
f 21/21/21 20/20/20 22/22/22 
f 11/11/11 12/12/12 23/23/23 
f 23/23/23 12/12/12 24/24/24 
f 23/23/23 24/24/24 15/15/15 
f 15/15/15 24/24/24 16/16/16 
f 25/25/25 26/26/26 27/27/27 
f 27/27/27 26/26/26 28/28/28 
f 29/29/29 30/30/30 31/31/31 
f 30/30/30 32/32/32 31/31/31 
f 31/31/31 32/32/32 33/33/31 
f 33/33/31 32/32/32 34/34/31 
f 32/32/32 35/35/33 34/34/31 
f 27/27/27 28/28/28 29/29/29 
f 29/29/29 28/28/28 30/30/30 
f 36/36/34 37/37/35 38/38/36 
f 38/38/36 37/37/35 39/39/37 
f 38/38/36 39/39/37 40/40/38 
f 40/40/38 39/39/37 41/41/39 
f 40/40/38 41/41/39 25/25/25 
f 25/25/25 41/41/39 26/26/26 
f 42/42/40 43/43/41 44/44/42 
f 44/44/42 43/43/41 45/45/43 
f 46/46/44 47/47/45 36/36/34 
f 36/36/34 47/47/45 37/37/35 
f 44/44/42 45/45/43 46/46/44 
f 46/46/44 45/45/43 47/47/45 
f 48/48/46 4/4/4 49/49/47 
f 49/49/47 4/4/4 2/2/2 
f 50/50/48 51/51/49 5/5/5 
f 5/5/5 51/51/49 6/6/6 
f 49/49/47 2/2/2 51/51/49 
f 51/51/49 2/2/2 6/6/6 
f 52/52/50 12/12/12 53/53/51 
f 53/53/51 12/12/12 10/10/10 
f 53/53/51 10/10/10 54/54/52 
f 54/54/52 10/10/10 14/14/14 
f 54/54/52 14/14/14 48/48/46 
f 48/48/46 14/14/14 4/4/4 
f 55/55/53 18/18/18 56/56/54 
f 56/56/54 18/18/18 16/16/16 
f 57/57/55 19/19/19 55/55/53 
f 55/55/53 19/19/19 18/18/18 
f 58/58/56 24/24/24 52/52/50 
f 52/52/50 24/24/24 12/12/12 
f 56/56/54 16/16/16 58/58/56 
f 58/58/56 16/16/16 24/24/24 
f 59/59/57 60/60/58 61/61/59 
f 62/62/60 63/63/61 64/64/62 
f 64/64/62 63/63/61 65/65/63 
f 63/63/61 22/22/22 65/65/63 
f 65/65/63 22/22/22 20/20/20 
f 19/19/19 21/21/21 18/18/18 
f 18/18/18 21/21/21 17/17/17 
f 64/64/62 65/65/63 60/60/58 
f 60/60/58 65/65/63 61/61/59 
f 66/66/64 67/67/65 68/68/66 
f 65/65/63 20/20/20 61/61/59 
f 61/61/59 20/20/20 69/69/67 
f 57/57/55 69/69/67 19/19/19 
f 19/19/19 69/69/67 20/20/20 
f 70/70/68 71/71/69 72/72/70 
f 69/69/67 57/57/55 68/68/66 
f 68/68/66 57/57/55 72/72/70 
f 61/61/59 69/69/67 59/59/57 
f 59/59/57 69/69/67 68/68/66 
f 43/43/41 42/42/40 72/72/70 
f 72/72/70 42/42/40 70/70/68 
f 59/59/57 68/68/66 73/73/71 
f 73/73/71 68/68/66 67/67/65 
f 27/27/27 74/74/72 25/25/25 
f 25/25/25 74/74/72 75/75/72 
f 34/34/31 35/35/33 76/76/73 
f 76/76/73 35/35/33 77/77/73 
f 29/29/29 78/78/74 27/27/27 
f 27/27/27 78/78/74 74/74/72 
f 38/38/36 79/79/75 36/36/34 
f 36/36/34 79/79/75 80/80/75 
f 40/40/38 81/81/76 38/38/36 
f 38/38/36 81/81/76 79/79/75 
f 25/25/25 75/75/72 40/40/38 
f 40/40/38 75/75/72 81/81/76 
f 44/44/42 82/82/77 42/42/40 
f 42/42/40 82/82/77 83/83/77 
f 36/36/34 80/80/75 46/46/44 
f 46/46/44 80/80/75 84/84/78 
f 46/46/44 84/84/78 44/44/42 
f 44/44/42 84/84/78 82/82/77 
f 34/34/31 85/85/79 33/33/31 
f 33/33/31 85/85/79 86/86/79 
f 33/33/31 86/86/79 31/31/31 
f 31/31/31 86/86/79 87/87/80 
f 31/31/31 87/87/80 29/29/29 
f 29/29/29 87/87/80 78/78/74 
f 67/67/65 88/88/81 73/73/71 
f 73/73/71 88/88/81 89/89/81 
f 66/66/64 90/90/82 67/67/65 
f 67/67/65 90/90/82 88/88/81 
f 71/71/69 91/91/83 66/66/64 
f 66/66/64 91/91/83 90/90/82 
f 42/42/40 83/83/77 70/70/68 
f 70/70/68 83/83/77 92/92/84 
f 92/92/84 91/91/83 70/70/68 
f 70/70/68 91/91/83 71/71/69 
f 66/66/64 68/68/66 71/71/69 
f 71/71/69 68/68/66 72/72/70 
f 26/26/26 48/48/46 28/28/28 
f 28/28/28 48/48/46 49/49/47 
f 32/32/32 30/30/30 50/50/48 
f 50/50/48 30/30/30 51/51/49 
f 28/28/28 49/49/47 30/30/30 
f 30/30/30 49/49/47 51/51/49 
f 37/37/35 52/52/50 39/39/37 
f 39/39/37 52/52/50 53/53/51 
f 39/39/37 53/53/51 41/41/39 
f 41/41/39 53/53/51 54/54/52 
f 41/41/39 54/54/52 26/26/26 
f 26/26/26 54/54/52 48/48/46 
f 43/43/41 55/55/53 45/45/43 
f 45/45/43 55/55/53 56/56/54 
f 47/47/45 58/58/56 37/37/35 
f 37/37/35 58/58/56 52/52/50 
f 45/45/43 56/56/54 47/47/45 
f 47/47/45 56/56/54 58/58/56 
f 72/72/70 57/57/55 43/43/41 
f 43/43/41 57/57/55 55/55/53 
f 93/93/85 94/94/86 62/62/60 
f 62/62/60 94/94/86 63/63/61 
f 94/94/86 95/95/87 63/63/61 
f 63/63/61 95/95/87 22/22/22 
f 95/95/87 96/96/88 22/22/22 
f 22/22/22 96/96/88 21/21/21 
f 21/21/21 96/96/88 17/17/17 
# 147 faces

#
# object Y175_18_181C_L_1_DaS_Y175_18_181C_L_E
#

v  40.7850 58.3478 -68.2646
v  34.8461 61.1288 -67.4429
v  40.8159 58.8734 -68.7959
v  34.8750 61.6529 -67.9720
v  28.8184 63.4782 -66.6189
v  23.1151 65.4567 -65.8140
v  28.8319 63.9605 -67.1444
v  23.1233 65.9087 -66.3320
v  54.0368 51.2818 -70.3080
v  54.2819 51.7569 -70.8572
v  60.6944 47.3399 -71.4341
v  60.9613 47.8101 -71.9873
v  47.4696 54.9181 -69.2626
v  47.6274 55.4299 -69.8021
v  76.7017 37.1235 -74.5387
v  77.1241 37.5353 -75.0864
v  86.0662 30.9533 -76.7204
v  86.4385 31.3985 -77.2499
v  95.4727 24.7353 -79.6346
v  96.5776 24.6755 -80.3254
v  67.6173 43.0044 -72.6819
v  68.1147 43.3597 -73.2645
v  37.9479 64.2849 -64.3378
v  37.9508 63.9661 -64.1272
v  44.2276 61.2435 -65.2597
v  44.1956 60.8501 -64.9069
v  31.0047 67.2740 -63.3360
v  30.9741 67.0800 -63.2670
v  57.7974 54.0364 -67.2832
v  57.7028 53.4994 -66.6074
v  65.4102 49.6697 -68.4230
v  65.3005 49.0536 -67.5654
v  50.7311 57.8842 -66.2246
v  50.7313 57.3851 -65.7283
v  84.0076 38.4574 -71.2014
v  83.7825 37.6540 -69.8668
v  93.6008 32.9129 -72.6304
v  93.6239 31.7897 -71.0716
v  74.5034 44.2096 -69.7859
v  74.5583 43.3681 -68.7250
v  28.5749 68.2346 -62.8449
v  28.5413 68.0806 -62.8298
v  29.3856 67.8678 -63.1047
v  29.3419 67.7072 -63.0653
v  107.2729 28.0275 -72.4172
v  104.7036 28.4302 -73.0641
v  107.2087 27.6688 -72.3108
v  102.3476 28.9622 -73.4000
v  102.7645 27.3573 -71.7992
v  105.3546 26.6458 -71.4693
v  98.1368 30.5731 -73.3088
v  97.8957 29.4191 -71.5918
v  100.1080 29.6618 -73.5427
v  100.2888 28.3084 -71.8417
v  28.0713 68.5336 -62.5363
v  28.0197 68.3974 -62.5241
v  104.7270 23.9395 -79.8304
v  96.9155 24.3443 -80.1881
v  104.5701 24.2172 -79.9188
v  111.7207 23.7302 -79.4046
v  111.8203 23.4708 -79.3778
v  118.9764 22.8446 -78.7597
v  119.0360 22.8394 -78.7545
v  118.5772 23.1911 -78.7164
v  96.8791 23.7761 -80.2155
v  118.9833 22.6161 -78.5979
v  108.1330 26.0942 -70.7621
v  115.8578 24.2562 -77.9198
v  115.7936 23.8975 -77.8134
v  113.4650 25.4923 -76.8988
v  113.4008 25.1337 -76.7924
v  111.5919 26.5168 -75.8625
v  111.5277 26.1582 -75.7561
v  109.4967 27.1771 -74.5424
v  109.4326 26.8185 -74.4360
v  107.5400 27.9737 -73.1787
v  107.4759 27.6150 -73.0723
# 77 vertices

vn -0.4056 -0.6367 -0.6558
vn -0.3719 -0.6492 -0.6634
vn -0.4030 -0.6388 -0.6554
vn -0.3678 -0.6516 -0.6634
vn -0.3406 -0.6873 -0.6416
vn -0.3305 -0.7073 -0.6248
vn -0.3392 -0.6894 -0.6401
vn -0.3305 -0.7085 -0.6235
vn -0.4402 -0.5728 -0.6915
vn -0.4410 -0.5718 -0.6918
vn -0.4585 -0.5558 -0.6934
vn -0.4592 -0.5544 -0.6941
vn -0.4222 -0.5928 -0.6859
vn -0.4217 -0.5939 -0.6851
vn -0.4751 -0.4878 -0.7324
vn -0.4780 -0.4842 -0.7329
vn -0.4979 -0.4589 -0.7359
vn -0.5027 -0.4532 -0.7361
vn -0.4864 -0.3892 -0.7823
vn -0.3466 -0.5830 -0.7348
vn -0.4648 -0.5229 -0.7145
vn -0.4689 -0.5168 -0.7163
vn 0.3434 0.5179 0.7835
vn 0.3508 0.5206 0.7784
vn 0.3956 0.5936 0.7008
vn 0.3992 0.5955 0.6972
vn 0.2402 0.2879 0.9270
vn 0.2454 0.2945 0.9236
vn 0.4562 0.6635 0.5930
vn 0.4580 0.6648 0.5901
vn 0.4796 0.6815 0.5527
vn 0.4812 0.6823 0.5504
vn 0.4284 0.6360 0.6419
vn 0.4321 0.6372 0.6381
vn 0.4923 0.7061 0.5090
vn 0.4921 0.7068 0.5082
vn 0.4714 0.7187 0.5111
vn 0.4678 0.7181 0.5153
vn 0.4940 0.6929 0.5252
vn 0.4950 0.6936 0.5234
vn 0.4175 -0.0078 0.9087
vn 0.3958 0.0110 0.9183
vn 0.2730 0.1516 0.9500
vn 0.2685 0.1642 0.9492
vn 0.5501 0.1456 0.8223
vn 0.0381 0.6735 0.7382
vn 0.2168 0.4758 0.8524
vn 0.1747 0.7353 0.6549
vn 0.1447 0.7073 0.6919
vn 0.0071 0.6766 0.7363
vn 0.4310 0.7218 0.5415
vn 0.4287 0.7217 0.5434
vn 0.3227 0.7560 0.5695
vn 0.3020 0.7469 0.5924
vn 0.4753 -0.1019 0.8739
vn 0.4782 -0.0910 0.8735
vn 0.0434 -0.2786 -0.9594
vn -0.1888 -0.2762 -0.9424
vn 0.0356 -0.2858 -0.9576
vn 0.0663 -0.0754 -0.9949
vn 0.0719 -0.0751 -0.9946
vn 0.1062 0.2398 -0.9650
vn 0.5276 0.6260 0.5743
vn 0.5928 0.8028 -0.0636
vn -0.3414 0.0671 -0.9375
vn 0.3976 0.4460 0.8018
vn -0.0487 0.6857 0.7263
vn 0.4111 0.1909 0.8914
vn 0.4027 0.2052 0.8920
vn 0.5053 0.1612 0.8478
vn 0.4974 0.1638 0.8519
vn 0.5500 0.1456 0.8223
vn 0.5493 0.1459 0.8228
vn 0.5804 0.1345 0.8032
vn 0.5807 0.1344 0.8029
vn 0.7923 0.0388 0.6089
vn 0.8202 0.0228 0.5717
# 77 vertex normals

vt 0.7006 0.7620 0.0000
vt 0.6901 0.7582 0.0000
vt 0.7006 0.7611 0.0000
vt 0.6904 0.7569 0.0000
vt 0.6794 0.7546 0.0000
vt 0.6691 0.7515 0.0000
vt 0.6796 0.7534 0.0000
vt 0.6693 0.7503 0.0000
vt 0.7233 0.7752 0.0000
vt 0.7241 0.7741 0.0000
vt 0.7355 0.7828 0.0000
vt 0.7363 0.7817 0.0000
vt 0.7117 0.7681 0.0000
vt 0.7123 0.7670 0.0000
vt 0.7651 0.8019 0.0000
vt 0.7662 0.8009 0.0000
vt 0.7821 0.8133 0.0000
vt 0.7832 0.8123 0.0000
vt 0.7987 0.8250 0.0000
vt 0.8010 0.8251 0.0000
vt 0.7482 0.7910 0.0000
vt 0.7495 0.7901 0.0000
vt 0.6960 0.7486 0.0000
vt 0.6964 0.7480 0.0000
vt 0.7071 0.7534 0.0000
vt 0.7077 0.7527 0.0000
vt 0.6835 0.7437 0.0000
vt 0.6837 0.7434 0.0000
vt 0.7316 0.7666 0.0000
vt 0.7326 0.7653 0.0000
vt 0.7455 0.7748 0.0000
vt 0.7467 0.7733 0.0000
vt 0.7188 0.7593 0.0000
vt 0.7196 0.7583 0.0000
vt 0.7798 0.7950 0.0000
vt 0.7813 0.7925 0.0000
vt 0.7972 0.8047 0.0000
vt 0.7994 0.8022 0.0000
vt 0.7623 0.7848 0.0000
vt 0.7640 0.7830 0.0000
vt 0.6791 0.7419 0.0000
vt 0.6793 0.7417 0.0000
vt 0.6806 0.7427 0.0000
vt 0.6807 0.7424 0.0000
vt 0.8205 0.8118 0.0000
vt 0.8162 0.8118 0.0000
vt 0.8205 0.8112 0.0000
vt 0.8122 0.8114 0.0000
vt 0.8142 0.8084 0.0000
vt 0.8183 0.8085 0.0000
vt 0.8050 0.8090 0.0000
vt 0.8067 0.8059 0.0000
vt 0.8084 0.8105 0.0000
vt 0.8104 0.8076 0.0000
vt 0.6781 0.7412 0.0000
vt 0.6783 0.7411 0.0000
vt 0.8148 0.8261 0.0000
vt 0.8016 0.8257 0.0000
vt 0.8145 0.8256 0.0000
vt 0.8264 0.8263 0.0000
vt 0.8266 0.8267 0.0000
vt 0.8391 0.8271 0.0000
vt 0.8392 0.8271 0.0000
vt 0.8384 0.8266 0.0000
vt 0.8016 0.8268 0.0000
vt 0.8396 0.8268 0.0000
vt 0.8228 0.8084 0.0000
vt 0.0109 0.0075 0.0000
vt 0.0103 0.0076 0.0000
vt 0.0091 0.0030 0.0000
vt 0.0082 0.0023 0.0000
vt 0.0129 0.0115 0.0000
vt 0.0123 0.0116 0.0000
vt 0.0146 0.0146 0.0000
vt 0.0140 0.0147 0.0000
vt 0.0157 0.0181 0.0000
vt 0.0151 0.0182 0.0000
vt 0.0171 0.0213 0.0000
vt 0.0165 0.0214 0.0000
vt 0.0177 0.0023 0.0000
vt 0.0178 0.0035 0.0000
vt 0.0172 0.0025 0.0000
vt 0.0173 0.0037 0.0000
# 83 texture coords

g Y175_18_181C_L_1_DaS_Y175_18_181C_L_E
usemtl paint_redSG
s 1
f 97/97/89 98/98/90 99/99/91 
f 99/99/91 98/98/90 100/100/92 
f 101/101/93 102/102/94 103/103/95 
f 103/103/95 102/102/94 104/104/96 
f 98/98/90 101/101/93 100/100/92 
f 100/100/92 101/101/93 103/103/95 
f 105/105/97 106/106/98 107/107/99 
f 107/107/99 106/106/98 108/108/100 
f 109/109/101 110/110/102 105/105/97 
f 105/105/97 110/110/102 106/106/98 
f 109/109/101 97/97/89 110/110/102 
f 110/110/102 97/97/89 99/99/91 
f 111/111/103 112/112/104 113/113/105 
f 113/113/105 112/112/104 114/114/106 
f 113/113/105 114/114/106 115/115/107 
f 115/115/107 114/114/106 116/116/108 
f 117/117/109 118/118/110 111/111/103 
f 111/111/103 118/118/110 112/112/104 
f 107/107/99 108/108/100 117/117/109 
f 117/117/109 108/108/100 118/118/110 
f 119/119/111 120/120/112 121/121/113 
f 121/121/113 120/120/112 122/122/114 
f 123/123/115 124/124/116 119/119/111 
f 119/119/111 124/124/116 120/120/112 
f 125/125/117 126/126/118 127/127/119 
f 127/127/119 126/126/118 128/128/120 
f 129/129/121 130/130/122 125/125/117 
f 125/125/117 130/130/122 126/126/118 
f 121/121/113 122/122/114 129/129/121 
f 129/129/121 122/122/114 130/130/122 
f 131/131/123 132/132/124 133/133/125 
f 133/133/125 132/132/124 134/134/126 
f 127/127/119 128/128/120 135/135/127 
f 135/135/127 128/128/120 136/136/128 
f 135/135/127 136/136/128 131/131/123 
f 131/131/123 136/136/128 132/132/124 
f 137/137/129 138/138/130 139/139/131 
f 139/139/131 138/138/130 140/140/132 
f 139/139/131 140/140/132 123/123/115 
f 123/123/115 140/140/132 124/124/116 
f 141/141/133 142/142/134 143/143/135 
f 144/144/136 145/145/137 142/142/134 
f 142/142/134 145/145/137 146/146/138 
f 147/147/139 148/148/140 149/149/141 
f 149/149/141 148/148/140 150/150/142 
f 133/133/125 134/134/126 147/147/139 
f 147/147/139 134/134/126 148/148/140 
f 149/149/141 150/150/142 144/144/136 
f 144/144/136 150/150/142 145/145/137 
f 151/151/143 152/152/144 137/137/129 
f 137/137/129 152/152/144 138/138/130 
f 153/153/145 154/154/146 155/155/147 
f 155/155/147 154/154/146 116/116/108 
f 155/155/147 156/156/148 153/153/145 
f 153/153/145 156/156/148 157/157/149 
f 157/157/149 156/156/148 158/158/150 
f 159/159/151 158/158/150 160/160/152 
f 158/158/150 156/156/148 160/160/152 
f 161/161/153 115/115/107 154/154/146 
f 159/159/151 160/160/152 162/162/154 
f 115/115/107 116/116/108 154/154/146 
f 163/163/155 143/143/135 146/146/138 
f 146/146/138 143/143/135 142/142/134 
f 164/164/156 165/165/157 160/166/152 
f 160/166/152 165/165/157 162/167/154 
f 166/168/158 167/169/159 164/164/156 
f 164/164/156 167/169/159 165/165/157 
f 168/170/160 169/171/161 166/168/158 
f 166/168/158 169/171/161 167/169/159 
f 168/170/160 170/172/162 169/171/161 
f 169/171/161 170/172/162 171/173/163 
f 172/174/164 173/175/165 170/172/162 
f 170/172/162 173/175/165 171/173/163 
f 172/176/164 141/177/133 173/178/165 
f 173/178/165 141/177/133 143/179/135 
# 75 faces

