# 3ds Max Wavefront OBJ Exporter v0.97b - (c)2007 guruware
# File Created: 02.11.2015 12:49:06

mtllib Y191_13_265B_L.mtl

#
# object Y191_13_265B_L_1_DTaSI_Y191_13_265B_L
#

v  -12.7890 20.6788 -71.9578
v  -12.9694 20.6883 -71.9601
v  -12.8160 25.6452 -70.8231
v  -13.4300 25.6836 -70.8294
v  -14.8038 35.6117 -68.4934
v  -12.8688 35.4439 -68.4811
v  -14.0635 30.6638 -69.6876
v  -12.8427 30.5735 -69.6771
v  -17.2511 50.2498 -64.2599
v  -12.9440 49.9164 -64.2633
v  -16.4379 45.4120 -65.8163
v  -12.9192 45.0236 -65.8545
v  -18.0134 55.0056 -62.4501
v  -12.9675 54.7395 -62.4664
v  -18.4549 57.9765 -61.0855
v  -12.9814 57.8498 -60.9906
v  54.9330 33.4304 -66.5912
v  48.2397 34.1279 -66.7237
v  55.0165 36.5555 -65.6370
v  48.2276 37.9325 -65.5843
v  48.2397 21.8458 -70.0352
v  54.9331 21.4162 -69.9420
v  48.2397 17.4972 -71.1409
v  54.9332 17.1401 -71.0613
v  48.0998 13.1433 -72.3338
v  54.8428 12.8024 -72.2698
v  -12.7697 17.1111 -72.8167
v  48.2397 26.0662 -68.9350
v  54.9331 25.5544 -68.8321
v  48.2397 30.1647 -67.8566
v  54.9331 29.5665 -67.7444
v  -15.6082 40.5328 -67.2220
v  -12.8944 40.2622 -67.2259
v  21.1740 41.1870 -65.8870
v  27.8417 40.4265 -65.8386
v  21.1910 36.8293 -67.1277
v  27.8691 36.1126 -67.0956
v  41.5978 38.8073 -65.6698
v  34.7051 39.6273 -65.7617
v  41.5963 42.3164 -64.5825
v  34.7122 43.7981 -64.4785
v  41.6143 34.7698 -66.8640
v  41.6142 30.7122 -67.9837
v  41.6142 26.5292 -69.0598
v  41.6142 22.2313 -70.1507
v  41.6142 17.8152 -71.2451
v  41.3569 13.4853 -72.3978
v  34.6908 31.2759 -68.1133
v  34.6979 35.4268 -67.0013
v  34.6835 27.0093 -69.1879
v  34.6761 22.6343 -70.2712
v  34.6684 18.1510 -71.3560
v  34.6145 13.8367 -72.4611
v  21.1911 32.4822 -68.2560
v  27.8691 31.8649 -68.2087
v  21.1912 28.0401 -69.3494
v  27.8692 27.5121 -69.2876
v  21.1913 23.5036 -70.4410
v  27.8693 23.0577 -70.3700
v  21.1914 18.8786 -71.5275
v  27.8694 18.5049 -71.4512
v  27.8738 14.2198 -72.5223
v  21.1360 14.6519 -72.5776
v  -6.4999 57.4977 -61.0149
v  -6.5422 54.2837 -62.5079
v  -6.5424 49.3342 -64.3069
v  -6.5426 44.3152 -65.9024
v  -6.5507 39.6632 -67.2030
v  -6.5493 34.9310 -68.4278
v  -6.5478 30.1383 -69.5987
v  -6.5462 25.2814 -70.7381
v  -6.5446 20.3761 -71.8637
v  -6.5053 16.6343 -72.7762
v  27.9418 49.4066 -62.9198
v  21.1751 50.8041 -62.7700
v  21.3015 51.7871 -62.3949
v  21.1746 46.0496 -64.4082
v  27.8423 45.0637 -64.4272
v  41.6350 43.3673 -64.2590
v  34.6475 46.5596 -63.5652
v  48.3574 40.0129 -64.9293
v  62.3331 28.8427 -67.6341
v  62.4890 32.5666 -66.4663
v  64.1784 28.6763 -67.6001
v  62.1763 24.9573 -68.7513
v  65.6487 24.6907 -68.6929
v  62.0162 20.9268 -69.8644
v  66.8475 20.6205 -69.8100
v  61.8513 16.7469 -71.0007
v  67.6208 16.4462 -70.9502
v  61.5867 12.4801 -72.2054
v  68.0685 12.2522 -72.1431
v  0.2156 56.7455 -61.2317
v  7.7854 55.3934 -61.5479
v  0.0710 53.6152 -62.5734
v  7.7596 52.7610 -62.6525
v  0.0724 48.6131 -64.3480
v  7.7615 47.7316 -64.3790
v  0.0733 43.5460 -65.9284
v  7.7633 42.6915 -65.9296
v  0.0760 38.9468 -67.2301
v  7.7676 38.1883 -67.1970
v  0.0764 34.3105 -68.4188
v  0.0768 29.6057 -69.5603
v  0.0772 24.8298 -70.6816
v  0.0776 19.9954 -71.7905
v  0.0991 16.1414 -72.7318
v  7.7678 33.6510 -68.3641
v  7.7679 29.0360 -69.4892
v  7.7681 24.3417 -70.6010
v  7.7683 19.5783 -71.7015
v  7.6646 15.5805 -72.6804
v  14.4863 53.8073 -61.9123
v  14.4527 51.8833 -62.7222
v  14.4533 46.9385 -64.4022
v  14.4538 41.9461 -65.9227
v  14.4640 37.5296 -67.1588
v  14.4641 33.0867 -68.3034
v  14.4642 28.5578 -69.4111
v  14.4644 23.9419 -70.5120
v  14.4645 19.2473 -71.6048
v  14.3998 15.1093 -72.6305
# 122 vertices

vn 0.0255 0.2282 -0.9733
vn 0.0240 0.2242 -0.9743
vn 0.0263 0.2254 -0.9739
vn 0.0246 0.2255 -0.9739
vn 0.0259 0.2481 -0.9684
vn 0.0275 0.2454 -0.9690
vn 0.0260 0.2347 -0.9717
vn 0.0273 0.2330 -0.9721
vn 0.0218 0.3369 -0.9413
vn 0.0225 0.3292 -0.9440
vn 0.0233 0.2986 -0.9541
vn 0.0244 0.2926 -0.9559
vn 0.0216 0.3884 -0.9212
vn 0.0217 0.3809 -0.9243
vn 0.0226 0.4245 -0.9052
vn 0.0223 0.4246 -0.9051
vn 0.0470 0.2870 -0.9568
vn 0.0467 0.2806 -0.9587
vn 0.0499 0.2892 -0.9560
vn 0.0503 0.2899 -0.9557
vn 0.0304 0.2493 -0.9679
vn 0.0289 0.2561 -0.9662
vn 0.0263 0.2547 -0.9667
vn 0.0250 0.2605 -0.9652
vn 0.0245 0.2627 -0.9646
vn 0.0235 0.2674 -0.9633
vn 0.0251 0.2356 -0.9715
vn 0.0350 0.2535 -0.9667
vn 0.0341 0.2610 -0.9647
vn 0.0407 0.2648 -0.9634
vn 0.0411 0.2745 -0.9607
vn 0.0239 0.2697 -0.9627
vn 0.0261 0.2640 -0.9642
vn 0.0373 0.2829 -0.9584
vn 0.0412 0.2854 -0.9575
vn 0.0329 0.2628 -0.9643
vn 0.0368 0.2667 -0.9631
vn 0.0485 0.2891 -0.9561
vn 0.0456 0.2877 -0.9566
vn 0.0495 0.2975 -0.9534
vn 0.0477 0.3023 -0.9520
vn 0.0451 0.2749 -0.9604
vn 0.0398 0.2574 -0.9655
vn 0.0351 0.2474 -0.9683
vn 0.0310 0.2431 -0.9695
vn 0.0270 0.2481 -0.9684
vn 0.0250 0.2556 -0.9664
vn 0.0372 0.2516 -0.9671
vn 0.0419 0.2706 -0.9618
vn 0.0332 0.2424 -0.9696
vn 0.0298 0.2379 -0.9708
vn 0.0264 0.2418 -0.9700
vn 0.0248 0.2486 -0.9683
vn 0.0293 0.2450 -0.9691
vn 0.0325 0.2474 -0.9684
vn 0.0273 0.2364 -0.9713
vn 0.0297 0.2387 -0.9706
vn 0.0255 0.2313 -0.9726
vn 0.0273 0.2339 -0.9719
vn 0.0244 0.2346 -0.9718
vn 0.0252 0.2372 -0.9711
vn 0.0243 0.2434 -0.9696
vn 0.0241 0.2411 -0.9702
vn 0.0230 0.4163 -0.9089
vn 0.0241 0.3719 -0.9279
vn 0.0258 0.3225 -0.9462
vn 0.0266 0.2881 -0.9572
vn 0.0262 0.2611 -0.9649
vn 0.0259 0.2438 -0.9695
vn 0.0257 0.2325 -0.9722
vn 0.0251 0.2257 -0.9739
vn 0.0247 0.2290 -0.9731
vn 0.0247 0.2365 -0.9713
vn 0.0471 0.3247 -0.9446
vn 0.0456 0.3324 -0.9421
vn 0.0500 0.3696 -0.9278
vn 0.0418 0.3078 -0.9505
vn 0.0449 0.3069 -0.9507
vn 0.0495 0.3063 -0.9507
vn 0.0491 0.3188 -0.9465
vn 0.0519 0.2962 -0.9537
vn 0.0411 0.2797 -0.9592
vn 0.0462 0.2914 -0.9555
vn 0.0400 0.2795 -0.9593
vn 0.0339 0.2671 -0.9631
vn 0.0337 0.2710 -0.9620
vn 0.0279 0.2623 -0.9646
vn 0.0271 0.2661 -0.9636
vn 0.0235 0.2658 -0.9637
vn 0.0223 0.2696 -0.9627
vn 0.0219 0.2709 -0.9624
vn 0.0206 0.2730 -0.9618
vn 0.0281 0.3990 -0.9165
vn 0.0356 0.3886 -0.9207
vn 0.0289 0.3587 -0.9330
vn 0.0334 0.3482 -0.9368
vn 0.0298 0.3157 -0.9484
vn 0.0320 0.3103 -0.9501
vn 0.0295 0.2851 -0.9580
vn 0.0315 0.2832 -0.9585
vn 0.0274 0.2601 -0.9652
vn 0.0300 0.2598 -0.9652
vn 0.0259 0.2426 -0.9698
vn 0.0251 0.2326 -0.9722
vn 0.0242 0.2264 -0.9737
vn 0.0240 0.2298 -0.9729
vn 0.0242 0.2372 -0.9712
vn 0.0284 0.2427 -0.9697
vn 0.0269 0.2334 -0.9720
vn 0.0255 0.2276 -0.9734
vn 0.0247 0.2309 -0.9727
vn 0.0245 0.2379 -0.9710
vn 0.0439 0.3828 -0.9228
vn 0.0400 0.3397 -0.9397
vn 0.0369 0.3076 -0.9508
vn 0.0341 0.2819 -0.9588
vn 0.0315 0.2603 -0.9650
vn 0.0290 0.2436 -0.9694
vn 0.0274 0.2348 -0.9717
vn 0.0259 0.2294 -0.9730
vn 0.0248 0.2328 -0.9722
vn 0.0245 0.2396 -0.9706
# 122 vertex normals

vt 0.5426 0.9466 0.0000
vt 0.5418 0.9466 0.0000
vt 0.5413 0.9243 0.0000
vt 0.5386 0.9242 0.0000
vt 0.5302 0.8798 0.0000
vt 0.5388 0.8801 0.0000
vt 0.5346 0.9020 0.0000
vt 0.5400 0.9021 0.0000
vt 0.5160 0.8136 0.0000
vt 0.5350 0.8140 0.0000
vt 0.5207 0.8357 0.0000
vt 0.5363 0.8366 0.0000
vt 0.5115 0.7915 0.0000
vt 0.5337 0.7914 0.0000
vt 0.5088 0.7772 0.0000
vt 0.5329 0.7763 0.0000
vt 0.8369 0.8709 0.0000
vt 0.8073 0.8697 0.0000
vt 0.8365 0.8566 0.0000
vt 0.8064 0.8522 0.0000
vt 0.8102 0.9255 0.0000
vt 0.8397 0.9257 0.0000
vt 0.8113 0.9452 0.0000
vt 0.8407 0.9451 0.0000
vt 0.8117 0.9651 0.0000
vt 0.8414 0.9649 0.0000
vt 0.5435 0.9627 0.0000
vt 0.8093 0.9064 0.0000
vt 0.8388 0.9069 0.0000
vt 0.8083 0.8878 0.0000
vt 0.8378 0.8886 0.0000
vt 0.5255 0.8577 0.0000
vt 0.5375 0.8583 0.0000
vt 0.6869 0.8450 0.0000
vt 0.7163 0.8466 0.0000
vt 0.6880 0.8649 0.0000
vt 0.7175 0.8663 0.0000
vt 0.7771 0.8502 0.0000
vt 0.7466 0.8483 0.0000
vt 0.7762 0.8340 0.0000
vt 0.7457 0.8292 0.0000
vt 0.7781 0.8686 0.0000
vt 0.7791 0.8871 0.0000
vt 0.7801 0.9061 0.0000
vt 0.7811 0.9255 0.0000
vt 0.7821 0.9455 0.0000
vt 0.7820 0.9652 0.0000
vt 0.7485 0.8864 0.0000
vt 0.7476 0.8676 0.0000
vt 0.7495 0.9058 0.0000
vt 0.7505 0.9255 0.0000
vt 0.7515 0.9458 0.0000
vt 0.7523 0.9654 0.0000
vt 0.6890 0.8846 0.0000
vt 0.7185 0.8856 0.0000
vt 0.6900 0.9047 0.0000
vt 0.7195 0.9053 0.0000
vt 0.6911 0.9252 0.0000
vt 0.7205 0.9254 0.0000
vt 0.6922 0.9460 0.0000
vt 0.7216 0.9460 0.0000
vt 0.7226 0.9654 0.0000
vt 0.6929 0.9651 0.0000
vt 0.5614 0.7763 0.0000
vt 0.5620 0.7919 0.0000
vt 0.5632 0.8150 0.0000
vt 0.5644 0.8381 0.0000
vt 0.5655 0.8593 0.0000
vt 0.5666 0.8807 0.0000
vt 0.5678 0.9024 0.0000
vt 0.5689 0.9243 0.0000
vt 0.5701 0.9464 0.0000
vt 0.5711 0.9633 0.0000
vt 0.7146 0.8051 0.0000
vt 0.6846 0.8006 0.0000
vt 0.6849 0.7960 0.0000
vt 0.6857 0.8227 0.0000
vt 0.7152 0.8253 0.0000
vt 0.7762 0.8292 0.0000
vt 0.7447 0.8164 0.0000
vt 0.8065 0.8427 0.0000
vt 0.8705 0.8899 0.0000
vt 0.8703 0.8727 0.0000
vt 0.8786 0.8901 0.0000
vt 0.8707 0.9077 0.0000
vt 0.8860 0.9079 0.0000
vt 0.8709 0.9261 0.0000
vt 0.8922 0.9262 0.0000
vt 0.8712 0.9452 0.0000
vt 0.8966 0.9451 0.0000
vt 0.8711 0.9647 0.0000
vt 0.8996 0.9642 0.0000
vt 0.5911 0.7783 0.0000
vt 0.6247 0.7827 0.0000
vt 0.5912 0.7933 0.0000
vt 0.6252 0.7953 0.0000
vt 0.5925 0.8166 0.0000
vt 0.6264 0.8186 0.0000
vt 0.5937 0.8399 0.0000
vt 0.6276 0.8417 0.0000
vt 0.5948 0.8608 0.0000
vt 0.6287 0.8623 0.0000
vt 0.5959 0.8818 0.0000
vt 0.5970 0.9031 0.0000
vt 0.5981 0.9246 0.0000
vt 0.5992 0.9464 0.0000
vt 0.6002 0.9639 0.0000
vt 0.6298 0.8828 0.0000
vt 0.6309 0.9037 0.0000
vt 0.6320 0.9249 0.0000
vt 0.6331 0.9463 0.0000
vt 0.6336 0.9644 0.0000
vt 0.6545 0.7884 0.0000
vt 0.6548 0.7975 0.0000
vt 0.6560 0.8204 0.0000
vt 0.6572 0.8434 0.0000
vt 0.6583 0.8635 0.0000
vt 0.6593 0.8836 0.0000
vt 0.6604 0.9041 0.0000
vt 0.6615 0.9249 0.0000
vt 0.6626 0.9461 0.0000
vt 0.6633 0.9648 0.0000
# 122 texture coords

g Y191_13_265B_L_1_DTaSI_Y191_13_265B_L
usemtl windowglass_1SG
s 1
f 1/1/1 2/2/2 3/3/3 
f 3/3/3 2/2/2 4/4/4 
f 5/5/5 6/6/6 7/7/7 
f 7/7/7 6/6/6 8/8/8 
f 9/9/9 10/10/10 11/11/11 
f 11/11/11 10/10/10 12/12/12 
f 13/13/13 14/14/14 9/9/9 
f 9/9/9 14/14/14 10/10/10 
f 15/15/15 16/16/16 13/13/13 
f 13/13/13 16/16/16 14/14/14 
f 17/17/17 18/18/18 19/19/19 
f 19/19/19 18/18/18 20/20/20 
f 21/21/21 22/22/22 23/23/23 
f 23/23/23 22/22/22 24/24/24 
f 23/23/23 24/24/24 25/25/25 
f 25/25/25 24/24/24 26/26/26 
f 2/2/2 1/1/1 27/27/27 
f 28/28/28 29/29/29 21/21/21 
f 21/21/21 29/29/29 22/22/22 
f 7/7/7 8/8/8 4/4/4 
f 4/4/4 8/8/8 3/3/3 
f 30/30/30 31/31/31 28/28/28 
f 28/28/28 31/31/31 29/29/29 
f 18/18/18 17/17/17 30/30/30 
f 30/30/30 17/17/17 31/31/31 
f 32/32/32 33/33/33 5/5/5 
f 5/5/5 33/33/33 6/6/6 
f 11/11/11 12/12/12 32/32/32 
f 32/32/32 12/12/12 33/33/33 
f 34/34/34 35/35/35 36/36/36 
f 36/36/36 35/35/35 37/37/37 
f 38/38/38 39/39/39 40/40/40 
f 40/40/40 39/39/39 41/41/41 
f 42/42/42 18/18/18 43/43/43 
f 43/43/43 18/18/18 30/30/30 
f 43/43/43 30/30/30 44/44/44 
f 44/44/44 30/30/30 28/28/28 
f 44/44/44 28/28/28 45/45/45 
f 45/45/45 28/28/28 21/21/21 
f 45/45/45 21/21/21 46/46/46 
f 46/46/46 21/21/21 23/23/23 
f 23/23/23 25/25/25 46/46/46 
f 46/46/46 25/25/25 47/47/47 
f 43/43/43 48/48/48 42/42/42 
f 42/42/42 48/48/48 49/49/49 
f 44/44/44 50/50/50 43/43/43 
f 43/43/43 50/50/50 48/48/48 
f 45/45/45 51/51/51 44/44/44 
f 44/44/44 51/51/51 50/50/50 
f 46/46/46 52/52/52 45/45/45 
f 45/45/45 52/52/52 51/51/51 
f 47/47/47 53/53/53 46/46/46 
f 46/46/46 53/53/53 52/52/52 
f 36/36/36 37/37/37 54/54/54 
f 54/54/54 37/37/37 55/55/55 
f 54/54/54 55/55/55 56/56/56 
f 56/56/56 55/55/55 57/57/57 
f 56/56/56 57/57/57 58/58/58 
f 58/58/58 57/57/57 59/59/59 
f 58/58/58 59/59/59 60/60/60 
f 60/60/60 59/59/59 61/61/61 
f 62/62/62 63/63/63 61/61/61 
f 61/61/61 63/63/63 60/60/60 
f 16/16/16 64/64/64 14/14/14 
f 14/14/14 64/64/64 65/65/65 
f 14/14/14 65/65/65 10/10/10 
f 10/10/10 65/65/65 66/66/66 
f 67/67/67 12/12/12 66/66/66 
f 66/66/66 12/12/12 10/10/10 
f 12/12/12 67/67/67 33/33/33 
f 33/33/33 67/67/67 68/68/68 
f 33/33/33 68/68/68 6/6/6 
f 6/6/6 68/68/68 69/69/69 
f 70/70/70 8/8/8 69/69/69 
f 69/69/69 8/8/8 6/6/6 
f 8/8/8 70/70/70 3/3/3 
f 3/3/3 70/70/70 71/71/71 
f 72/72/72 1/1/1 71/71/71 
f 71/71/71 1/1/1 3/3/3 
f 1/1/1 72/72/72 27/27/27 
f 27/27/27 72/72/72 73/73/73 
f 74/74/74 75/75/75 76/76/76 
f 75/75/75 74/74/74 77/77/77 
f 77/77/77 74/74/74 78/78/78 
f 77/77/77 78/78/78 34/34/34 
f 34/34/34 78/78/78 35/35/35 
f 40/40/40 41/41/41 79/79/79 
f 79/79/79 41/41/41 80/80/80 
f 39/39/39 38/38/38 49/49/49 
f 49/49/49 38/38/38 42/42/42 
f 81/81/81 40/40/40 79/79/79 
f 40/40/40 81/81/81 38/38/38 
f 38/38/38 81/81/81 20/20/20 
f 38/38/38 20/20/20 42/42/42 
f 42/42/42 20/20/20 18/18/18 
f 19/19/19 20/20/20 81/81/81 
f 82/82/82 83/83/83 84/84/84 
f 82/82/82 84/84/84 85/85/85 
f 85/85/85 84/84/84 86/86/86 
f 85/85/85 86/86/86 87/87/87 
f 87/87/87 86/86/86 88/88/88 
f 87/87/87 88/88/88 89/89/89 
f 89/89/89 88/88/88 90/90/90 
f 89/89/89 90/90/90 91/91/91 
f 91/91/91 90/90/90 92/92/92 
f 19/19/19 83/83/83 17/17/17 
f 91/91/91 26/26/26 89/89/89 
f 89/89/89 26/26/26 24/24/24 
f 41/41/41 78/78/78 80/80/80 
f 80/80/80 78/78/78 74/74/74 
f 39/39/39 35/35/35 41/41/41 
f 41/41/41 35/35/35 78/78/78 
f 35/35/35 39/39/39 37/37/37 
f 37/37/37 39/39/39 49/49/49 
f 37/37/37 49/49/49 55/55/55 
f 55/55/55 49/49/49 48/48/48 
f 55/55/55 48/48/48 57/57/57 
f 57/57/57 48/48/48 50/50/50 
f 57/57/57 50/50/50 59/59/59 
f 59/59/59 50/50/50 51/51/51 
f 59/59/59 51/51/51 61/61/61 
f 61/61/61 51/51/51 52/52/52 
f 53/53/53 62/62/62 52/52/52 
f 52/52/52 62/62/62 61/61/61 
f 93/93/93 94/94/94 95/95/95 
f 95/95/95 94/94/94 96/96/96 
f 95/95/95 96/96/96 97/97/97 
f 97/97/97 96/96/96 98/98/98 
f 99/99/99 100/100/100 101/101/101 
f 101/101/101 100/100/100 102/102/102 
f 64/64/64 93/93/93 65/65/65 
f 65/65/65 93/93/93 95/95/95 
f 65/65/65 95/95/95 66/66/66 
f 66/66/66 95/95/95 97/97/97 
f 66/66/66 97/97/97 67/67/67 
f 67/67/67 97/97/97 99/99/99 
f 101/101/101 68/68/68 99/99/99 
f 99/99/99 68/68/68 67/67/67 
f 68/68/68 101/101/101 69/69/69 
f 69/69/69 101/101/101 103/103/103 
f 69/69/69 103/103/103 70/70/70 
f 70/70/70 103/103/103 104/104/104 
f 105/105/105 71/71/71 104/104/104 
f 104/104/104 71/71/71 70/70/70 
f 71/71/71 105/105/105 72/72/72 
f 72/72/72 105/105/105 106/106/106 
f 107/107/107 73/73/73 106/106/106 
f 106/106/106 73/73/73 72/72/72 
f 101/101/101 102/102/102 103/103/103 
f 103/103/103 102/102/102 108/108/108 
f 103/103/103 108/108/108 104/104/104 
f 104/104/104 108/108/108 109/109/109 
f 104/104/104 109/109/109 105/105/105 
f 105/105/105 109/109/109 110/110/110 
f 105/105/105 110/110/110 106/106/106 
f 106/106/106 110/110/110 111/111/111 
f 112/112/112 107/107/107 111/111/111 
f 111/111/111 107/107/107 106/106/106 
f 97/97/97 98/98/98 99/99/99 
f 99/99/99 98/98/98 100/100/100 
f 113/113/113 76/76/76 114/114/114 
f 114/114/114 76/76/76 75/75/75 
f 77/77/77 115/115/115 75/75/75 
f 75/75/75 115/115/115 114/114/114 
f 34/34/34 116/116/116 77/77/77 
f 77/77/77 116/116/116 115/115/115 
f 36/36/36 117/117/117 34/34/34 
f 34/34/34 117/117/117 116/116/116 
f 117/117/117 36/36/36 118/118/118 
f 118/118/118 36/36/36 54/54/54 
f 118/118/118 54/54/54 119/119/119 
f 119/119/119 54/54/54 56/56/56 
f 119/119/119 56/56/56 120/120/120 
f 120/120/120 56/56/56 58/58/58 
f 120/120/120 58/58/58 121/121/121 
f 121/121/121 58/58/58 60/60/60 
f 63/63/63 122/122/122 60/60/60 
f 60/60/60 122/122/122 121/121/121 
f 94/94/94 113/113/113 96/96/96 
f 96/96/96 113/113/113 114/114/114 
f 96/96/96 114/114/114 98/98/98 
f 98/98/98 114/114/114 115/115/115 
f 98/98/98 115/115/115 100/100/100 
f 100/100/100 115/115/115 116/116/116 
f 117/117/117 102/102/102 116/116/116 
f 116/116/116 102/102/102 100/100/100 
f 102/102/102 117/117/117 108/108/108 
f 108/108/108 117/117/117 118/118/118 
f 108/108/108 118/118/118 109/109/109 
f 109/109/109 118/118/118 119/119/119 
f 109/109/109 119/119/119 110/110/110 
f 110/110/110 119/119/119 120/120/120 
f 110/110/110 120/120/120 111/111/111 
f 111/111/111 120/120/120 121/121/121 
f 122/122/122 112/112/112 121/121/121 
f 121/121/121 112/112/112 111/111/111 
f 89/89/89 24/24/24 87/87/87 
f 87/87/87 24/24/24 22/22/22 
f 87/87/87 22/22/22 85/85/85 
f 85/85/85 22/22/22 29/29/29 
f 85/85/85 29/29/29 82/82/82 
f 82/82/82 29/29/29 31/31/31 
f 82/82/82 31/31/31 83/83/83 
f 83/83/83 31/31/31 17/17/17 
# 204 faces

